solid ProtoGlove baseplate
facet normal 0.371390676353204 0.9284766908856192 1.2247110345874982e-12
  outer loop
    vertex 409.70793545997304 532.4088441026792 107.11360551388802
    vertex 406.98004571618867 533.5000000001963 100.00000000107917
    vertex 406.98004571618884 533.5000000001924 107.25000000107937
  endloop
endfacet
facet normal 0.371390676353204 0.9284766908856192 1.2247110345874982e-12
  outer loop
    vertex 406.98004571618867 533.5000000001963 100.00000000107917
    vertex 409.70793545997304 532.4088441026792 107.11360551388802
    vertex 411.48004571618856 531.7000000002059 100.50000000107586
  endloop
endfacet
facet normal 0.371390676353204 0.9284766908856192 1.2247110345874982e-12
  outer loop
    vertex 406.98004571618867 533.5000000001963 100.00000000107917
    vertex 411.48004571618856 531.7000000002059 100.50000000107586
    vertex 411.48004571618856 531.7000000002066 100.00000000107588
  endloop
endfacet
facet normal 0.3713906763541024 0.92847669088526 1.8458846928485503e-12
  outer loop
    vertex 428.71022772064947 524.8079271984102 106.16349090083916
    vertex 412.48004571618884 531.3000000002057 100.5000000010749
    vertex 414.1920798292795 530.6151863549566 106.88939829541906
  endloop
endfacet
facet normal 0.3713906763541024 0.92847669088526 1.8458846928485503e-12
  outer loop
    vertex 412.48004571618884 531.3000000002057 100.5000000010749
    vertex 428.71022772064947 524.8079271984102 106.16349090083916
    vertex 431.9800457161882 523.5000000002059 100.50000000105953
  endloop
endfacet
facet normal 0.3713906763541024 0.92847669088526 1.8458846928485503e-12
  outer loop
    vertex 412.48004571618884 531.3000000002057 100.5000000010749
    vertex 431.9800457161882 523.5000000002059 100.50000000105953
    vertex 412.48004571618884 531.3000000002065 100.00000000107492
  endloop
endfacet
facet normal 0.3713906763541024 0.92847669088526 1.8458846928485503e-12
  outer loop
    vertex 412.48004571618884 531.3000000002065 100.00000000107492
    vertex 431.9800457161882 523.5000000002059 100.50000000105953
    vertex 431.9800457161882 523.5000000002069 100.00000000105956
  endloop
endfacet
facet normal -1.1161934999484514e-14 -1.0 -1.9377625063910275e-12
  outer loop
    vertex 395.13205888817816 473.5000000001948 106.16701336871785
    vertex 406.98004571618884 473.5000000002066 100.00000000096107
    vertex 406.98004571618884 473.5000000001925 107.25000000096104
  endloop
endfacet
facet normal -1.1161934999484514e-14 -1.0 -1.9377625063910275e-12
  outer loop
    vertex 406.98004571618884 473.5000000002066 100.00000000096107
    vertex 395.13205888817816 473.5000000001948 106.16701336871785
    vertex 392.66982735813195 473.5000000001951 105.85610831446226
  endloop
endfacet
facet normal -1.1161934999484514e-14 -1.0 -1.9377625063910275e-12
  outer loop
    vertex 406.98004571618884 473.5000000002066 100.00000000096107
    vertex 392.66982735813195 473.5000000001951 105.85610831446226
    vertex 386.9918566345381 473.50000000019617 105.51181091931042
  endloop
endfacet
facet normal -1.1161934999484514e-14 -1.0 -1.9377625063910275e-12
  outer loop
    vertex 406.98004571618884 473.5000000002066 100.00000000096107
    vertex 386.9918566345381 473.50000000019617 105.51181091931042
    vertex 381.9800457161887 473.500000000206 100.50000000096104
  endloop
endfacet
facet normal -1.1161934999484514e-14 -1.0 -1.9377625063910275e-12
  outer loop
    vertex 406.98004571618884 473.5000000002066 100.00000000096107
    vertex 381.9800457161887 473.500000000206 100.50000000096104
    vertex 381.9800457161887 473.5000000002068 100.00000000096107
  endloop
endfacet
facet normal 0.9343290447055799 0.35641161066884264 6.742496230116922e-13
  outer loop
    vertex 434.1877277086238 477.7125863883427 108.84507922318512
    vertex 431.9800457161893 483.5000000002067 100.00000000098092
    vertex 431.9800457161893 483.5000000002057 100.50000000098089
  endloop
endfacet
facet normal 0.30422543176534395 -0.7605635794122227 -0.5735764363525211
  outer loop
    vertex 413.20601619617634 474.0170190477024 102.61669170048273
    vertex 434.1877277086238 477.7125863883427 108.84507922318512
    vertex 423.0653986880956 472.54395344645815 109.79940472846864
  endloop
endfacet
facet normal 0.30422543176534395 -0.7605635794122227 -0.5735764363525211
  outer loop
    vertex 434.1877277086238 477.7125863883427 108.84507922318512
    vertex 413.20601619617634 474.0170190477024 102.61669170048273
    vertex 431.9800457161893 483.5000000002067 100.00000000098092
  endloop
endfacet
facet normal 0.30422543176534395 -0.7605635794122227 -0.5735764363525211
  outer loop
    vertex 431.9800457161893 483.5000000002067 100.00000000098092
    vertex 413.20601619617634 474.0170190477024 102.61669170048273
    vertex 412.48004571618867 475.70000000020667 100.00000000096554
  endloop
endfacet
facet normal 0.8093480658127861 0.5607272245274995 0.17475894265756287
  outer loop
    vertex 434.1877277086238 477.7125863883427 108.84507922318512
    vertex 431.9800457161893 483.5000000002057 100.50000000098089
    vertex 433.7871619635826 478.16016056945597 109.26411404635667
  endloop
endfacet
facet normal 0.2999937167239069 -0.49498671698042734 0.8154703672967613
  outer loop
    vertex 423.0653986880956 472.54395344645815 109.79940472846864
    vertex 433.7871619635826 478.16016056945597 109.26411404635667
    vertex 422.0334748414793 472.698130599315 110.27261176127293
  endloop
endfacet
facet normal 0.2999937167239069 -0.49498671698042734 0.8154703672967613
  outer loop
    vertex 433.7871619635826 478.16016056945597 109.26411404635667
    vertex 423.0653986880956 472.54395344645815 109.79940472846864
    vertex 434.1877277086238 477.7125863883427 108.84507922318512
  endloop
endfacet
facet normal -0.1482468937496657 0.478783026667973 0.8653263383650301
  outer loop
    vertex 413.20601619617634 474.01701904769175 108.03056198073959
    vertex 430.1014444079299 482.74855947689116 106.09393006639232
    vertex 412.48004571618867 475.70000000019365 106.97500000096521
  endloop
endfacet
facet normal -0.1482468937496657 0.478783026667973 0.8653263383650301
  outer loop
    vertex 430.1014444079299 482.74855947689116 106.09393006639232
    vertex 413.20601619617634 474.01701904769175 108.03056198073959
    vertex 422.0334748414793 472.698130599315 110.27261176127293
  endloop
endfacet
facet normal -0.1482468937496657 0.478783026667973 0.8653263383650301
  outer loop
    vertex 430.1014444079299 482.74855947689116 106.09393006639232
    vertex 422.0334748414793 472.698130599315 110.27261176127293
    vertex 433.7871619635826 478.16016056945597 109.26411404635667
  endloop
endfacet
facet normal -0.1477673184884554 -0.9890221532335519 -1.946535346797706e-12
  outer loop
    vertex 413.20601619617634 474.01701904769175 108.03056198073959
    vertex 423.0653986880956 472.54395344645815 109.79940472846864
    vertex 422.0334748414793 472.698130599315 110.27261176127293
  endloop
endfacet
facet normal -0.1477673184884554 -0.9890221532335519 -1.946535346797706e-12
  outer loop
    vertex 423.0653986880956 472.54395344645815 109.79940472846864
    vertex 413.20601619617634 474.01701904769175 108.03056198073959
    vertex 413.20601619617634 474.0170190477024 102.61669170048273
  endloop
endfacet
facet normal -0.965925826289075 0.25881904510249615 5.14014129498012e-13
  outer loop
    vertex 412.48004571618867 478.2079876872895 100.50000000097049
    vertex 413.0410973263806 480.301860802185 105.15002356574266
    vertex 413.5807575144261 482.3159000427947 104.6079123564913
  endloop
endfacet
facet normal -0.965925826289075 0.25881904510249615 5.14014129498012e-13
  outer loop
    vertex 413.0410973263806 480.301860802185 105.15002356574266
    vertex 412.48004571618867 478.2079876872895 100.50000000097049
    vertex 412.48004571618867 478.20798768727855 106.0883836808295
  endloop
endfacet
facet normal -0.9182154400198356 -0.39608131199184304 -7.484099200071491e-13
  outer loop
    vertex 413.20601619617634 474.0170190477024 102.61669170048273
    vertex 412.48004571618867 475.70000000019365 106.97500000096521
    vertex 412.48004571618867 475.70000000020667 100.00000000096554
  endloop
endfacet
facet normal -0.9182154400198356 -0.39608131199184304 -7.484099200071491e-13
  outer loop
    vertex 412.48004571618867 475.70000000019365 106.97500000096521
    vertex 413.20601619617634 474.0170190477024 102.61669170048273
    vertex 413.20601619617634 474.01701904769175 108.03056198073959
  endloop
endfacet
facet normal 0.8082479535138859 0.4833204420745911 0.33635783908426625
  outer loop
    vertex 430.1014444079299 482.74855947689116 106.09393006639232
    vertex 431.9800457161893 483.5000000002057 100.50000000098089
    vertex 430.00756578862206 482.9646980482122 106.00894025915663
  endloop
endfacet
facet normal -0.9659258262890678 -5.076596358240418e-13 0.25881904510252274
  outer loop
    vertex 412.48004571618867 489.0000000002059 100.5000000009917
    vertex 413.01726680354733 489.38422105870086 102.50493639391266
    vertex 412.98752772549386 490.0934717588692 102.3939486436475
  endloop
endfacet
facet normal -0.9659258262890678 -5.076596358240418e-13 0.25881904510252274
  outer loop
    vertex 413.01726680354733 489.38422105870086 102.50493639391266
    vertex 412.48004571618867 489.0000000002059 100.5000000009917
    vertex 413.1802774337725 487.33975661980685 103.1133003480824
  endloop
endfacet
facet normal -0.9659258262890678 -5.076596358240418e-13 0.25881904510252274
  outer loop
    vertex 413.1802774337725 487.33975661980685 103.1133003480824
    vertex 412.48004571618867 489.0000000002059 100.5000000009917
    vertex 412.48004571618867 478.2079876872895 100.50000000097049
  endloop
endfacet
facet normal -0.9659258262890678 -5.076596358240418e-13 0.25881904510252274
  outer loop
    vertex 413.1802774337725 487.33975661980685 103.1133003480824
    vertex 412.48004571618867 478.2079876872895 100.50000000097049
    vertex 413.32684631716177 484.87411590301355 103.66030286769482
  endloop
endfacet
facet normal -0.9659258262890678 -5.076596358240418e-13 0.25881904510252274
  outer loop
    vertex 413.32684631716177 484.87411590301355 103.66030286769482
    vertex 412.48004571618867 478.2079876872895 100.50000000097049
    vertex 413.53639048235107 482.88661406334535 104.44233233860719
  endloop
endfacet
facet normal -0.9659258262890678 -5.076596358240418e-13 0.25881904510252274
  outer loop
    vertex 413.53639048235107 482.88661406334535 104.44233233860719
    vertex 412.48004571618867 478.2079876872895 100.50000000097049
    vertex 413.5807575144261 482.3159000427947 104.6079123564913
  endloop
endfacet
facet normal 0.8913527898843169 0.29116080167663044 0.3474414936827016
  outer loop
    vertex 430.00756578862206 482.9646980482122 106.00894025915663
    vertex 431.9800457161893 483.5000000002057 100.50000000098089
    vertex 429.62726629979835 485.8398961220897 104.57513348917524
  endloop
endfacet
facet normal 0.6272559839934129 0.7158337215916686 0.3068094092049283
  outer loop
    vertex 431.9800457161893 483.5000000002057 100.50000000098089
    vertex 430.1014444079299 482.74855947689116 106.09393006639232
    vertex 433.7871619635826 478.16016056945597 109.26411404635667
  endloop
endfacet
facet normal -0.018593955437237956 -0.15381661895465737 0.9879244467845483
  outer loop
    vertex 399.89032091240637 520.2518696475705 102.66830183474923
    vertex 385.261634503868 523.189532726278 102.85035650481497
    vertex 384.7418792891091 520.071001437726 102.35502890582333
  endloop
endfacet
facet normal -0.11301820666175473 0.43139794696582945 0.89505457728377
  outer loop
    vertex 395.13205888817816 473.5000000001948 106.16701336871785
    vertex 410.2077615142458 479.3558247509489 105.24822928428964
    vertex 392.66982735813195 473.5000000001951 105.85610831446226
  endloop
endfacet
facet normal -0.11301820666175473 0.43139794696582945 0.89505457728377
  outer loop
    vertex 410.2077615142458 479.3558247509489 105.24822928428964
    vertex 395.13205888817816 473.5000000001948 106.16701336871785
    vertex 409.97960609138306 477.52940526255145 106.0997169144335
  endloop
endfacet
facet normal -1.6911263484501027e-16 0.8660254037834519 0.500000000001709
  outer loop
    vertex 411.48004571618856 488.00000000020594 100.50000000098974
    vertex 407.0468933329859 486.5164183607203 103.06963877774271
    vertex 410.74991448456433 486.42678584233175 103.22488685360119
  endloop
endfacet
facet normal -1.6911263484501027e-16 0.8660254037834519 0.500000000001709
  outer loop
    vertex 407.0468933329859 486.5164183607203 103.06963877774271
    vertex 411.48004571618856 488.00000000020594 100.50000000098974
    vertex 399.89032091240637 486.74813035283285 102.66830183468329
  endloop
endfacet
facet normal -1.6911263484501027e-16 0.8660254037834519 0.500000000001709
  outer loop
    vertex 399.89032091240637 486.74813035283285 102.66830183468329
    vertex 411.48004571618856 488.00000000020594 100.50000000098974
    vertex 383.81592570798006 486.9400541927411 102.33587999277914
  endloop
endfacet
facet normal -1.6911263484501027e-16 0.8660254037834519 0.500000000001709
  outer loop
    vertex 383.81592570798006 486.9400541927411 102.33587999277914
    vertex 411.48004571618856 488.00000000020594 100.50000000098974
    vertex 381.9800457161887 488.00000000020594 100.50000000098974
  endloop
endfacet
facet normal 1.435468706343861e-13 1.0 1.445828815514948e-12
  outer loop
    vertex 406.98004571618867 533.5000000001963 100.00000000107917
    vertex 395.1320588881778 533.5000000001944 106.16701336883608
    vertex 406.98004571618884 533.5000000001924 107.25000000107937
  endloop
endfacet
facet normal 1.435468706343861e-13 1.0 1.445828815514948e-12
  outer loop
    vertex 395.1320588881778 533.5000000001944 106.16701336883608
    vertex 406.98004571618867 533.5000000001963 100.00000000107917
    vertex 392.6698273581316 533.5000000001951 105.8561083145805
  endloop
endfacet
facet normal 1.435468706343861e-13 1.0 1.445828815514948e-12
  outer loop
    vertex 392.6698273581316 533.5000000001951 105.8561083145805
    vertex 406.98004571618867 533.5000000001963 100.00000000107917
    vertex 386.98004571618867 533.500000000196 105.51109473602078
  endloop
endfacet
facet normal 1.435468706343861e-13 1.0 1.445828815514948e-12
  outer loop
    vertex 386.98004571618867 533.500000000196 105.51109473602078
    vertex 406.98004571618867 533.5000000001963 100.00000000107917
    vertex 386.98004571618867 533.5000000002067 100.00000000107921
  endloop
endfacet
facet normal -0.07520693913193872 -0.35823619256862754 0.9305969840056104
  outer loop
    vertex 430.373443632801 517.5663135284094 103.2827164370219
    vertex 413.53639048235107 524.1133859370506 104.44233233868833
    vertex 413.32684631716177 522.1258840973857 103.66030286776824
  endloop
endfacet
facet normal -0.07520693913193872 -0.35823619256862754 0.9305969840056104
  outer loop
    vertex 413.53639048235107 524.1133859370506 104.44233233868833
    vertex 430.373443632801 517.5663135284094 103.2827164370219
    vertex 429.67804202527157 520.8411809270038 104.48718735293367
  endloop
endfacet
facet normal 0.9659258262890711 -5.032385096793994e-13 0.25881904510251036
  outer loop
    vertex 410.74991448456433 486.42678584233175 103.22488685360119
    vertex 411.48004571618856 475.30000000020596 100.50000000096456
    vertex 411.48004571618856 488.00000000020594 100.50000000098974
  endloop
endfacet
facet normal 0.9659258262890711 -5.032385096793994e-13 0.25881904510251036
  outer loop
    vertex 411.48004571618856 475.30000000020596 100.50000000096456
    vertex 410.74991448456433 486.42678584233175 103.22488685360119
    vertex 410.6171627579595 484.14933821401104 103.72032304207792
  endloop
endfacet
facet normal 0.9659258262890711 -5.032385096793994e-13 0.25881904510251036
  outer loop
    vertex 411.48004571618856 475.30000000020596 100.50000000096456
    vertex 410.6171627579595 484.14933821401104 103.72032304207792
    vertex 410.4260168939477 482.25608502410586 104.43368911822255
  endloop
endfacet
facet normal 0.9659258262890711 -5.032385096793994e-13 0.25881904510251036
  outer loop
    vertex 411.48004571618856 475.30000000020596 100.50000000096456
    vertex 410.4260168939477 482.25608502410586 104.43368911822255
    vertex 410.2077615142458 479.3558247509489 105.24822928428964
  endloop
endfacet
facet normal 0.9659258262890711 -5.032385096793994e-13 0.25881904510251036
  outer loop
    vertex 411.48004571618856 475.30000000020596 100.50000000096456
    vertex 410.2077615142458 479.3558247509489 105.24822928428964
    vertex 409.97960609138306 477.52940526255145 106.0997169144335
  endloop
endfacet
facet normal 0.9659258262890711 -5.032385096793994e-13 0.25881904510251036
  outer loop
    vertex 411.48004571618856 475.30000000020596 100.50000000096456
    vertex 409.97960609138306 477.52940526255145 106.0997169144335
    vertex 409.70793545997304 474.59115589770647 107.11360551377398
  endloop
endfacet
facet normal -4.7007257352166147e-17 0.8660254037834516 0.5000000000017097
  outer loop
    vertex 412.48004571618867 518.000000000206 100.5000000010489
    vertex 384.26219999624414 517.1929256805346 101.89789372819706
    vertex 412.98752772549386 516.9065282415344 102.39394864370023
  endloop
endfacet
facet normal -4.7007257352166147e-17 0.8660254037834516 0.5000000000017097
  outer loop
    vertex 384.26219999624414 517.1929256805346 101.89789372819706
    vertex 412.48004571618867 518.000000000206 100.5000000010489
    vertex 384.39671238285524 518.000000000206 100.5000000010489
  endloop
endfacet
facet normal -4.7007257352166147e-17 0.8660254037834516 0.5000000000017097
  outer loop
    vertex 384.39671238285524 518.000000000206 100.5000000010489
    vertex 412.48004571618867 518.000000000206 100.5000000010489
    vertex 411.9800457161888 518.000000000206 100.5000000010489
  endloop
endfacet
facet normal -0.0752069391319401 0.3582361925649615 0.9305969840070215
  outer loop
    vertex 385.8454293939492 477.27315490982915 104.36538367872886
    vertex 410.6171627579595 484.14933821401104 103.72032304207792
    vertex 385.75115705630617 477.49825673036037 104.27111134108638
  endloop
endfacet
facet normal -0.0752069391319401 0.3582361925649615 0.9305969840070215
  outer loop
    vertex 410.6171627579595 484.14933821401104 103.72032304207792
    vertex 385.8454293939492 477.27315490982915 104.36538367872886
    vertex 410.4260168939477 482.25608502410586 104.43368911822255
  endloop
endfacet
facet normal -0.08586188915220774 -0.3320719768696243 0.9393380318975241
  outer loop
    vertex 428.79628785703864 524.364024912603 106.01443037210612
    vertex 414.1920798292795 530.6151863549566 106.88939829541906
    vertex 413.9756322521345 528.3861321919179 106.08160494033368
  endloop
endfacet
facet normal -0.08586188915220774 -0.3320719768696243 0.9393380318975241
  outer loop
    vertex 414.1920798292795 530.6151863549566 106.88939829541906
    vertex 428.79628785703864 524.364024912603 106.01443037210612
    vertex 428.71022772064947 524.8079271984102 106.16349090083916
  endloop
endfacet
facet normal -1.5923168587128207e-16 -0.8660254037854254 0.49999999999829087
  outer loop
    vertex 407.0468933329855 520.4835816396807 103.0696387778096
    vertex 411.48004571618856 519.0000000002059 100.50000000105078
    vertex 410.74991448456467 520.5732141580688 103.2248868536686
  endloop
endfacet
facet normal -1.5923168587128207e-16 -0.8660254037854254 0.49999999999829087
  outer loop
    vertex 411.48004571618856 519.0000000002059 100.50000000105078
    vertex 407.0468933329855 520.4835816396807 103.0696387778096
    vertex 399.89032091240637 520.2518696475705 102.66830183474923
  endloop
endfacet
facet normal -1.5923168587128207e-16 -0.8660254037854254 0.49999999999829087
  outer loop
    vertex 411.48004571618856 519.0000000002059 100.50000000105078
    vertex 399.89032091240637 520.2518696475705 102.66830183474923
    vertex 384.7418792891091 520.071001437726 102.35502890582333
  endloop
endfacet
facet normal -1.5923168587128207e-16 -0.8660254037854254 0.49999999999829087
  outer loop
    vertex 411.48004571618856 519.0000000002059 100.50000000105078
    vertex 384.7418792891091 520.071001437726 102.35502890582333
    vertex 384.56337904952187 519.0000000002059 100.50000000105078
  endloop
endfacet
facet normal -0.0582100676278844 -0.27398869312044316 0.959969678723713
  outer loop
    vertex 429.67804202527157 520.8411809270038 104.48718735293367
    vertex 413.7197132408328 526.4715528834953 105.12650218753011
    vertex 413.53639048235107 524.1133859370506 104.44233233868833
  endloop
endfacet
facet normal -0.0582100676278844 -0.27398869312044316 0.959969678723713
  outer loop
    vertex 413.7197132408328 526.4715528834953 105.12650218753011
    vertex 429.67804202527157 520.8411809270038 104.48718735293367
    vertex 429.62726629979875 521.1601038783051 104.57513348924479
  endloop
endfacet
facet normal -0.7071067811865687 -1.3878625771883008e-12 0.7071067811865265
  outer loop
    vertex 381.9800457161887 489.0000000002059 100.5000000009917
    vertex 382.5052283215121 502.6967856816472 101.02518260634187
    vertex 381.9800457161887 503.00000000020594 100.50000000101917
  endloop
endfacet
facet normal -0.7071067811865687 -1.3878625771883008e-12 0.7071067811865265
  outer loop
    vertex 382.5052283215121 502.6967856816472 101.02518260634187
    vertex 381.9800457161887 489.0000000002059 100.5000000009917
    vertex 382.68973416546964 496.73006559741805 101.2096884502876
  endloop
endfacet
facet normal -0.7071067811865687 -1.3878625771883008e-12 0.7071067811865265
  outer loop
    vertex 382.68973416546964 496.73006559741805 101.2096884502876
    vertex 381.9800457161887 489.0000000002059 100.5000000009917
    vertex 382.6957942422699 496.6811770997429 101.21574852708808
  endloop
endfacet
facet normal -0.7071067811865687 -1.3878625771883008e-12 0.7071067811865265
  outer loop
    vertex 382.6957942422699 496.6811770997429 101.21574852708808
    vertex 381.9800457161887 489.0000000002059 100.5000000009917
    vertex 383.314540651057 490.0698128209578 101.83449493586203
  endloop
endfacet
facet normal -0.7071067811865687 -1.3878625771883008e-12 0.7071067811865265
  outer loop
    vertex 383.314540651057 490.0698128209578 101.83449493586203
    vertex 381.9800457161887 489.0000000002059 100.5000000009917
    vertex 383.33347602052356 489.98038361733137 101.8534303053285
  endloop
endfacet
facet normal -0.7071067811865687 -1.3878625771883008e-12 0.7071067811865265
  outer loop
    vertex 383.33347602052356 489.98038361733137 101.8534303053285
    vertex 381.9800457161887 489.0000000002059 100.5000000009917
    vertex 383.36240089947466 489.7981031373887 101.88235518427956
  endloop
endfacet
facet normal -4.794983779017384e-16 0.8660254037834418 0.5000000000017267
  outer loop
    vertex 431.98004571618856 503.00000000020594 100.50000000101917
    vertex 393.6299156893299 502.6922736783695 101.03299762526358
    vertex 431.6723193943534 502.6922736783695 101.03299762526358
  endloop
endfacet
facet normal -4.794983779017384e-16 0.8660254037834418 0.5000000000017267
  outer loop
    vertex 393.6299156893299 502.6922736783695 101.03299762526358
    vertex 431.98004571618856 503.00000000020594 100.50000000101917
    vertex 382.5052283215121 502.6967856816472 101.02518260634187
  endloop
endfacet
facet normal -4.794983779017384e-16 0.8660254037834418 0.5000000000017267
  outer loop
    vertex 382.5052283215121 502.6967856816472 101.02518260634187
    vertex 431.98004571618856 503.00000000020594 100.50000000101917
    vertex 381.9800457161887 503.00000000020594 100.50000000101917
  endloop
endfacet
facet normal -0.7071067811865493 -1.4024967654180516e-12 0.7071067811865459
  outer loop
    vertex 381.9800457161887 473.500000000206 100.50000000096104
    vertex 383.81592570798006 486.9400541927411 102.33587999277914
    vertex 381.9800457161887 488.00000000020594 100.50000000098974
  endloop
endfacet
facet normal -0.7071067811865493 -1.4024967654180516e-12 0.7071067811865459
  outer loop
    vertex 383.81592570798006 486.9400541927411 102.33587999277914
    vertex 381.9800457161887 473.500000000206 100.50000000096104
    vertex 384.34184899261436 483.6257603318002 102.86180327740668
  endloop
endfacet
facet normal -0.7071067811865493 -1.4024967654180516e-12 0.7071067811865459
  outer loop
    vertex 384.34184899261436 483.6257603318002 102.86180327740668
    vertex 381.9800457161887 473.500000000206 100.50000000096104
    vertex 384.3883859343864 483.47476700993303 102.90834021917864
  endloop
endfacet
facet normal -0.7071067811865493 -1.4024967654180516e-12 0.7071067811865459
  outer loop
    vertex 384.3883859343864 483.47476700993303 102.90834021917864
    vertex 381.9800457161887 473.500000000206 100.50000000096104
    vertex 385.75115705630617 477.49825673036037 104.27111134108638
  endloop
endfacet
facet normal -0.7071067811865493 -1.4024967654180516e-12 0.7071067811865459
  outer loop
    vertex 385.75115705630617 477.49825673036037 104.27111134108638
    vertex 381.9800457161887 473.500000000206 100.50000000096104
    vertex 385.8454293939492 477.27315490982915 104.36538367872886
  endloop
endfacet
facet normal -0.7071067811865493 -1.4024967654180516e-12 0.7071067811865459
  outer loop
    vertex 385.8454293939492 477.27315490982915 104.36538367872886
    vertex 381.9800457161887 473.500000000206 100.50000000096104
    vertex 386.9918566345381 473.50000000019617 105.51181091931042
  endloop
endfacet
facet normal -0.04463175907439845 -0.28165224392416394 0.9584779703125201
  outer loop
    vertex 399.89032091240637 520.2518696475705 102.66830183474923
    vertex 385.29725039866395 523.4032280950526 102.91481013033447
    vertex 385.261634503868 523.189532726278 102.85035650481497
  endloop
endfacet
facet normal -0.04463175907439845 -0.28165224392416394 0.9584779703125201
  outer loop
    vertex 385.29725039866395 523.4032280950526 102.91481013033447
    vertex 399.89032091240637 520.2518696475705 102.66830183474923
    vertex 407.0468933329855 520.4835816396807 103.0696387778096
  endloop
endfacet
facet normal -5.411336776625143e-17 -0.8660254037854267 0.49999999999828865
  outer loop
    vertex 383.36240089947466 489.7981031373887 101.88235518427956
    vertex 412.48004571618867 489.0000000002059 100.5000000009917
    vertex 412.98752772549386 490.0934717588692 102.3939486436475
  endloop
endfacet
facet normal -5.411336776625143e-17 -0.8660254037854267 0.49999999999828865
  outer loop
    vertex 412.48004571618867 489.0000000002059 100.5000000009917
    vertex 383.36240089947466 489.7981031373887 101.88235518427956
    vertex 381.9800457161887 489.0000000002059 100.5000000009917
  endloop
endfacet
facet normal -5.411336776625143e-17 -0.8660254037854267 0.49999999999828865
  outer loop
    vertex 412.48004571618867 489.0000000002059 100.5000000009917
    vertex 381.9800457161887 489.0000000002059 100.5000000009917
    vertex 411.9800457161888 489.0000000002059 100.5000000009917
  endloop
endfacet
facet normal -0.9659258262890673 -4.959226640729653e-13 0.2588190451025246
  outer loop
    vertex 412.48004571618867 518.000000000206 100.5000000010489
    vertex 414.1920798292795 530.6151863549566 106.88939829541906
    vertex 412.48004571618884 531.3000000002057 100.5000000010749
  endloop
endfacet
facet normal -0.9659258262890673 -4.959226640729653e-13 0.2588190451025246
  outer loop
    vertex 414.1920798292795 530.6151863549566 106.88939829541906
    vertex 412.48004571618867 518.000000000206 100.5000000010489
    vertex 413.9756322521345 528.3861321919179 106.08160494033368
  endloop
endfacet
facet normal -0.9659258262890673 -4.959226640729653e-13 0.2588190451025246
  outer loop
    vertex 413.9756322521345 528.3861321919179 106.08160494033368
    vertex 412.48004571618867 518.000000000206 100.5000000010489
    vertex 413.7197132408328 526.4715528834953 105.12650218753011
  endloop
endfacet
facet normal -0.9659258262890673 -4.959226640729653e-13 0.2588190451025246
  outer loop
    vertex 413.7197132408328 526.4715528834953 105.12650218753011
    vertex 412.48004571618867 518.000000000206 100.5000000010489
    vertex 413.53639048235107 524.1133859370506 104.44233233868833
  endloop
endfacet
facet normal -0.9659258262890673 -4.959226640729653e-13 0.2588190451025246
  outer loop
    vertex 413.53639048235107 524.1133859370506 104.44233233868833
    vertex 412.48004571618867 518.000000000206 100.5000000010489
    vertex 413.32684631716177 522.1258840973857 103.66030286776824
  endloop
endfacet
facet normal -0.9659258262890673 -4.959226640729653e-13 0.2588190451025246
  outer loop
    vertex 413.32684631716177 522.1258840973857 103.66030286776824
    vertex 412.48004571618867 518.000000000206 100.5000000010489
    vertex 413.1802774337725 519.6602433805946 103.11330034814601
  endloop
endfacet
facet normal -0.9659258262890673 -4.959226640729653e-13 0.2588190451025246
  outer loop
    vertex 413.1802774337725 519.6602433805946 103.11330034814601
    vertex 412.48004571618867 518.000000000206 100.5000000010489
    vertex 413.01726680354733 517.6157789417027 102.50493639396811
  endloop
endfacet
facet normal -0.9659258262890673 -4.959226640729653e-13 0.2588190451025246
  outer loop
    vertex 413.01726680354733 517.6157789417027 102.50493639396811
    vertex 412.48004571618867 518.000000000206 100.5000000010489
    vertex 412.98752772549386 516.9065282415344 102.39394864370023
  endloop
endfacet
facet normal -0.018593955437237644 0.15381661895076645 0.9879244467851542
  outer loop
    vertex 383.36240089947466 489.7981031373887 101.88235518427956
    vertex 430.9637573171511 493.1251362768918 102.26026314327531
    vertex 383.33347602052356 489.98038361733137 101.8534303053285
  endloop
endfacet
facet normal -0.018593955437237644 0.15381661895076645 0.9879244467851542
  outer loop
    vertex 430.9637573171511 493.1251362768918 102.26026314327531
    vertex 383.36240089947466 489.7981031373887 101.88235518427956
    vertex 412.98752772549386 490.0934717588692 102.3939486436475
  endloop
endfacet
facet normal -0.018593955437237644 0.15381661895076645 0.9879244467851542
  outer loop
    vertex 430.9637573171511 493.1251362768918 102.26026314327531
    vertex 412.98752772549386 490.0934717588692 102.3939486436475
    vertex 413.01726680354733 489.38422105870086 102.50493639391266
  endloop
endfacet
facet normal -0.018593955437237644 0.15381661895076645 0.9879244467851542
  outer loop
    vertex 430.9637573171511 493.1251362768918 102.26026314327531
    vertex 413.01726680354733 489.38422105870086 102.50493639391266
    vertex 430.95135426667684 492.9856590224 102.28174585686506
  endloop
endfacet
facet normal -1.2154486135140246e-16 -0.8660254037854253 0.4999999999982911
  outer loop
    vertex 382.1138883156935 504.3030555972324 101.02490769259262
    vertex 431.6723193943534 504.30772632204 101.03299762526674
    vertex 393.62991568933023 504.30772632204 101.03299762526674
  endloop
endfacet
facet normal -1.2154486135140246e-16 -0.8660254037854253 0.4999999999982911
  outer loop
    vertex 431.6723193943534 504.30772632204 101.03299762526674
    vertex 382.1138883156935 504.3030555972324 101.02490769259262
    vertex 431.98004571618856 504.00000000020583 100.50000000102115
  endloop
endfacet
facet normal -1.2154486135140246e-16 -0.8660254037854253 0.4999999999982911
  outer loop
    vertex 431.98004571618856 504.00000000020583 100.50000000102115
    vertex 382.1138883156935 504.3030555972324 101.02490769259262
    vertex 382.06337904952204 504.00000000020583 100.50000000102115
  endloop
endfacet
facet normal 0.8660254037843688 -9.5812023429071e-13 0.5000000000001211
  outer loop
    vertex 431.6723193943534 502.6922736783695 101.03299762526358
    vertex 431.9800457161893 483.5000000002057 100.50000000098089
    vertex 431.98004571618856 503.00000000020594 100.50000000101917
  endloop
endfacet
facet normal 0.8660254037843688 -9.5812023429071e-13 0.5000000000001211
  outer loop
    vertex 431.9800457161893 483.5000000002057 100.50000000098089
    vertex 431.6723193943534 502.6922736783695 101.03299762526358
    vertex 431.61020971462375 500.0589667602659 101.14057474619216
  endloop
endfacet
facet normal 0.8660254037843688 -9.5812023429071e-13 0.5000000000001211
  outer loop
    vertex 431.9800457161893 483.5000000002057 100.50000000098089
    vertex 431.61020971462375 500.0589667602659 101.14057474619216
    vertex 431.60930933740957 500.00847931716794 101.14213424527304
  endloop
endfacet
facet normal 0.8660254037843688 -9.5812023429071e-13 0.5000000000001211
  outer loop
    vertex 431.9800457161893 483.5000000002057 100.50000000098089
    vertex 431.60930933740957 500.00847931716794 101.14213424527304
    vertex 431.367363483949 496.5908899389355 101.56119675614032
  endloop
endfacet
facet normal 0.8660254037843688 -9.5812023429071e-13 0.5000000000001211
  outer loop
    vertex 431.9800457161893 483.5000000002057 100.50000000098089
    vertex 431.367363483949 496.5908899389355 101.56119675614032
    vertex 431.3628836632495 496.50706936927776 101.56895603320056
  endloop
endfacet
facet normal 0.8660254037843688 -9.5812023429071e-13 0.5000000000001211
  outer loop
    vertex 431.9800457161893 483.5000000002057 100.50000000098089
    vertex 431.3628836632495 496.50706936927776 101.56895603320056
    vertex 430.9637573171511 493.1251362768918 102.26026314327531
  endloop
endfacet
facet normal 0.8660254037843688 -9.5812023429071e-13 0.5000000000001211
  outer loop
    vertex 431.9800457161893 483.5000000002057 100.50000000098089
    vertex 430.9637573171511 493.1251362768918 102.26026314327531
    vertex 430.95135426667684 492.9856590224 102.28174585686506
  endloop
endfacet
facet normal 0.8660254037843688 -9.5812023429071e-13 0.5000000000001211
  outer loop
    vertex 431.9800457161893 483.5000000002057 100.50000000098089
    vertex 430.95135426667684 492.9856590224 102.28174585686506
    vertex 430.4004815497912 489.6513765420247 103.23588539100828
  endloop
endfacet
facet normal 0.8660254037843688 -9.5812023429071e-13 0.5000000000001211
  outer loop
    vertex 431.9800457161893 483.5000000002057 100.50000000098089
    vertex 430.4004815497912 489.6513765420247 103.23588539100828
    vertex 430.3734436328007 489.4336864719912 103.28271643696634
  endloop
endfacet
facet normal 0.8660254037843688 -9.5812023429071e-13 0.5000000000001211
  outer loop
    vertex 431.9800457161893 483.5000000002057 100.50000000098089
    vertex 430.3734436328007 489.4336864719912 103.28271643696634
    vertex 429.67804202527157 486.1588190733917 104.4871873528654
  endloop
endfacet
facet normal 0.8660254037843688 -9.5812023429071e-13 0.5000000000001211
  outer loop
    vertex 431.9800457161893 483.5000000002057 100.50000000098089
    vertex 429.67804202527157 486.1588190733917 104.4871873528654
    vertex 429.62726629979835 485.8398961220897 104.57513348917524
  endloop
endfacet
facet normal 0.7071067811864995 -0.7071067811865956 -1.3078125629908339e-12
  outer loop
    vertex 411.48004571618856 488.00000000020594 100.50000000098974
    vertex 412.48004571618867 489.0000000002067 100.00000000099172
    vertex 412.48004571618867 489.0000000002059 100.5000000009917
  endloop
endfacet
facet normal 0.7071067811864995 -0.7071067811865956 -1.3078125629908339e-12
  outer loop
    vertex 412.48004571618867 489.0000000002067 100.00000000099172
    vertex 411.48004571618856 488.00000000020594 100.50000000098974
    vertex 411.48004571618856 488.00000000020674 100.00000000098976
  endloop
endfacet
facet normal -0.04463175907440072 0.2816522439203991 0.9584779703136262
  outer loop
    vertex 413.1802774337725 487.33975661980685 103.1133003480824
    vertex 430.95135426667684 492.9856590224 102.28174585686506
    vertex 413.01726680354733 489.38422105870086 102.50493639391266
  endloop
endfacet
facet normal -0.04463175907440072 0.2816522439203991 0.9584779703136262
  outer loop
    vertex 430.95135426667684 492.9856590224 102.28174585686506
    vertex 413.1802774337725 487.33975661980685 103.1133003480824
    vertex 430.4004815497912 489.6513765420247 103.23588539100828
  endloop
endfacet
facet normal -0.05821006762788327 -0.27398869312044066 0.9599696787237139
  outer loop
    vertex 410.4260168939481 524.7439149762897 104.43368911830609
    vertex 386.98004571618867 533.500000000196 105.51109473602078
    vertex 386.3346573376517 529.6276697289762 104.36674316341339
  endloop
endfacet
facet normal -0.05821006762788327 -0.27398869312044066 0.9599696787237139
  outer loop
    vertex 386.98004571618867 533.500000000196 105.51109473602078
    vertex 410.4260168939481 524.7439149762897 104.43368911830609
    vertex 392.6698273581316 533.5000000001951 105.8561083145805
  endloop
endfacet
facet normal -0.05821006762788327 -0.27398869312044066 0.9599696787237139
  outer loop
    vertex 392.6698273581316 533.5000000001951 105.8561083145805
    vertex 410.4260168939481 524.7439149762897 104.43368911830609
    vertex 410.20776151424616 527.6441752494441 105.24822928438486
  endloop
endfacet
facet normal -1.0 -0.0 0.0
  outer loop
    vertex 381.9800457161887 473.5000000002068 100.00000000096107
    vertex 381.9800457161887 503.500000000206 100.50000000102013
    vertex 381.9800457161887 503.50000000020685 100.00000000102015
  endloop
endfacet
facet normal -1.0 -0.0 0.0
  outer loop
    vertex 381.9800457161887 503.500000000206 100.50000000102013
    vertex 381.9800457161887 473.5000000002068 100.00000000096107
    vertex 381.9800457161887 503.00000000020594 100.50000000101917
  endloop
endfacet
facet normal -1.0 -0.0 0.0
  outer loop
    vertex 381.9800457161887 503.00000000020594 100.50000000101917
    vertex 381.9800457161887 473.5000000002068 100.00000000096107
    vertex 381.9800457161887 489.0000000002059 100.5000000009917
  endloop
endfacet
facet normal -1.0 -0.0 0.0
  outer loop
    vertex 381.9800457161887 489.0000000002059 100.5000000009917
    vertex 381.9800457161887 473.5000000002068 100.00000000096107
    vertex 381.9800457161887 488.00000000020594 100.50000000098974
  endloop
endfacet
facet normal -1.0 -0.0 0.0
  outer loop
    vertex 381.9800457161887 488.00000000020594 100.50000000098974
    vertex 381.9800457161887 473.5000000002068 100.00000000096107
    vertex 381.9800457161887 473.500000000206 100.50000000096104
  endloop
endfacet
facet normal 1.0 0.0 0.0
  outer loop
    vertex 411.48004571618856 531.7000000002059 100.50000000107586
    vertex 411.48004571618856 519.0000000002067 100.00000000105072
    vertex 411.48004571618856 531.7000000002066 100.00000000107588
  endloop
endfacet
facet normal 1.0 0.0 0.0
  outer loop
    vertex 411.48004571618856 519.0000000002067 100.00000000105072
    vertex 411.48004571618856 531.7000000002059 100.50000000107586
    vertex 411.48004571618856 519.0000000002059 100.50000000105078
  endloop
endfacet
facet normal 1.0 2.706322097554988e-14 1.8047785488309952e-13
  outer loop
    vertex 431.9800457161882 523.5000000002059 100.50000000105953
    vertex 431.9800457161893 483.5000000002067 100.00000000098092
    vertex 431.9800457161882 523.5000000002069 100.00000000105956
  endloop
endfacet
facet normal 1.0 2.706322097554988e-14 1.8047785488309952e-13
  outer loop
    vertex 431.9800457161893 483.5000000002067 100.00000000098092
    vertex 431.9800457161882 523.5000000002059 100.50000000105953
    vertex 431.98004571618856 504.00000000020583 100.50000000102115
  endloop
endfacet
facet normal 1.0 2.706322097554988e-14 1.8047785488309952e-13
  outer loop
    vertex 431.9800457161893 483.5000000002067 100.00000000098092
    vertex 431.98004571618856 504.00000000020583 100.50000000102115
    vertex 431.98004571618856 503.00000000020594 100.50000000101917
  endloop
endfacet
facet normal 1.0 2.706322097554988e-14 1.8047785488309952e-13
  outer loop
    vertex 431.9800457161893 483.5000000002067 100.00000000098092
    vertex 431.98004571618856 503.00000000020594 100.50000000101917
    vertex 431.9800457161893 483.5000000002057 100.50000000098089
  endloop
endfacet
facet normal 0.0 -1.9698374875698473e-12 1.0
  outer loop
    vertex 411.9800457161888 518.000000000206 100.5000000010489
    vertex 384.56337904952187 519.0000000002059 100.50000000105078
    vertex 384.39671238285524 518.000000000206 100.5000000010489
  endloop
endfacet
facet normal 0.0 -1.9698374875698473e-12 1.0
  outer loop
    vertex 384.56337904952187 519.0000000002059 100.50000000105078
    vertex 411.9800457161888 518.000000000206 100.5000000010489
    vertex 411.48004571618856 519.0000000002059 100.50000000105078
  endloop
endfacet
facet normal 0.0 -1.9698374875698473e-12 1.0
  outer loop
    vertex 411.48004571618856 519.0000000002059 100.50000000105078
    vertex 411.9800457161888 518.000000000206 100.5000000010489
    vertex 412.48004571618867 518.000000000206 100.5000000010489
  endloop
endfacet
facet normal -0.05821006762787326 0.2739886931166227 0.9599696787248042
  outer loop
    vertex 429.62726629979835 485.8398961220897 104.57513348917524
    vertex 413.5807575144261 482.3159000427947 104.6079123564913
    vertex 413.0410973263806 480.301860802185 105.15002356574266
  endloop
endfacet
facet normal -0.05821006762787326 0.2739886931166227 0.9599696787248042
  outer loop
    vertex 413.5807575144261 482.3159000427947 104.6079123564913
    vertex 429.67804202527157 486.1588190733917 104.4871873528654
    vertex 413.53639048235107 482.88661406334535 104.44233233860719
  endloop
endfacet
facet normal -0.05821006762787326 0.2739886931166227 0.9599696787248042
  outer loop
    vertex 429.67804202527157 486.1588190733917 104.4871873528654
    vertex 413.5807575144261 482.3159000427947 104.6079123564913
    vertex 429.62726629979835 485.8398961220897 104.57513348917524
  endloop
endfacet
facet normal 1.0 0.0 0.0
  outer loop
    vertex 411.48004571618856 488.00000000020594 100.50000000098974
    vertex 411.48004571618856 475.30000000020675 100.00000000096459
    vertex 411.48004571618856 488.00000000020674 100.00000000098976
  endloop
endfacet
facet normal 1.0 0.0 0.0
  outer loop
    vertex 411.48004571618856 475.30000000020675 100.00000000096459
    vertex 411.48004571618856 488.00000000020594 100.50000000098974
    vertex 411.48004571618856 475.30000000020596 100.50000000096456
  endloop
endfacet
facet normal 0.0 -1.9698374875698473e-12 1.0
  outer loop
    vertex 431.98004571618856 503.00000000020594 100.50000000101917
    vertex 381.9800457161887 503.500000000206 100.50000000102013
    vertex 381.9800457161887 503.00000000020594 100.50000000101917
  endloop
endfacet
facet normal 0.0 -1.9698374875698473e-12 1.0
  outer loop
    vertex 381.9800457161887 503.500000000206 100.50000000102013
    vertex 431.98004571618856 503.00000000020594 100.50000000101917
    vertex 382.06337904952204 504.00000000020583 100.50000000102115
  endloop
endfacet
facet normal 0.0 -1.9698374875698473e-12 1.0
  outer loop
    vertex 382.06337904952204 504.00000000020583 100.50000000102115
    vertex 431.98004571618856 503.00000000020594 100.50000000101917
    vertex 431.98004571618856 504.00000000020583 100.50000000102115
  endloop
endfacet
facet normal -1.0 1.3569763525042838e-14 2.3117889390741434e-26
  outer loop
    vertex 412.48004571618867 518.0000000002069 100.00000000104883
    vertex 412.48004571618884 531.3000000002057 100.5000000010749
    vertex 412.48004571618884 531.3000000002065 100.00000000107492
  endloop
endfacet
facet normal -1.0 1.3569763525042838e-14 2.3117889390741434e-26
  outer loop
    vertex 412.48004571618884 531.3000000002057 100.5000000010749
    vertex 412.48004571618867 518.0000000002069 100.00000000104883
    vertex 412.48004571618867 518.000000000206 100.5000000010489
  endloop
endfacet
facet normal -1.0 -0.0 0.0
  outer loop
    vertex 412.48004571618867 475.70000000020667 100.00000000096554
    vertex 412.48004571618867 489.0000000002059 100.5000000009917
    vertex 412.48004571618867 489.0000000002067 100.00000000099172
  endloop
endfacet
facet normal -1.0 -0.0 0.0
  outer loop
    vertex 412.48004571618867 489.0000000002059 100.5000000009917
    vertex 412.48004571618867 475.70000000020667 100.00000000096554
    vertex 412.48004571618867 478.2079876872895 100.50000000097049
  endloop
endfacet
facet normal -1.0 -0.0 0.0
  outer loop
    vertex 412.48004571618867 478.2079876872895 100.50000000097049
    vertex 412.48004571618867 475.70000000020667 100.00000000096554
    vertex 412.48004571618867 478.20798768727855 106.0883836808295
  endloop
endfacet
facet normal -1.0 -0.0 0.0
  outer loop
    vertex 412.48004571618867 478.20798768727855 106.0883836808295
    vertex 412.48004571618867 475.70000000020667 100.00000000096554
    vertex 412.48004571618867 475.70000000019365 106.97500000096521
  endloop
endfacet
facet normal -0.08586188915220096 0.33207197686591255 0.9393380318988367
  outer loop
    vertex 430.1014444079299 482.74855947689116 106.09393006639232
    vertex 412.48004571618867 478.20798768727855 106.0883836808295
    vertex 412.48004571618867 475.70000000019365 106.97500000096521
  endloop
endfacet
facet normal -0.08586188915220096 0.33207197686591255 0.9393380318988367
  outer loop
    vertex 412.48004571618867 478.20798768727855 106.0883836808295
    vertex 430.1014444079299 482.74855947689116 106.09393006639232
    vertex 430.00756578862206 482.9646980482122 106.00894025915663
  endloop
endfacet
facet normal -0.0068175464930399915 -0.12218042419035956 0.9924844910649633
  outer loop
    vertex 431.60930933740957 506.9915206832407 101.14213424528678
    vertex 383.11664631504874 510.31960359336506 101.21873553997479
    vertex 383.10374387672204 510.24218896340466 101.20911673445585
  endloop
endfacet
facet normal -0.0068175464930399915 -0.12218042419035956 0.9924844910649633
  outer loop
    vertex 383.11664631504874 510.31960359336506 101.21873553997479
    vertex 431.60930933740957 506.9915206832407 101.14213424528678
    vertex 431.367363483949 510.40911006147184 101.56119675616753
  endloop
endfacet
facet normal -0.006817546493040206 0.12218042418645239 0.9924844910654442
  outer loop
    vertex 382.6957942422699 496.6811770997429 101.21574852708808
    vertex 431.60930933740957 500.00847931716794 101.14213424527304
    vertex 382.68973416546964 496.73006559741805 101.2096884502876
  endloop
endfacet
facet normal -0.006817546493040206 0.12218042418645239 0.9924844910654442
  outer loop
    vertex 431.60930933740957 500.00847931716794 101.14213424527304
    vertex 382.6957942422699 496.6811770997429 101.21574852708808
    vertex 431.367363483949 496.5908899389355 101.56119675614032
  endloop
endfacet
facet normal -0.035732071566130084 0.21442099104006856 0.9760875256159092
  outer loop
    vertex 413.32684631716177 484.87411590301355 103.66030286769482
    vertex 430.4004815497912 489.6513765420247 103.23588539100828
    vertex 413.1802774337725 487.33975661980685 103.1133003480824
  endloop
endfacet
facet normal -0.035732071566130084 0.21442099104006856 0.9760875256159092
  outer loop
    vertex 430.4004815497912 489.6513765420247 103.23588539100828
    vertex 413.32684631716177 484.87411590301355 103.66030286769482
    vertex 430.3734436328007 489.4336864719912 103.28271643696634
  endloop
endfacet
facet normal -0.11301820666176197 -0.431397946969382 0.8950545772820571
  outer loop
    vertex 410.20776151424616 527.6441752494441 105.24822928438486
    vertex 395.1320588881778 533.5000000001944 106.16701336883608
    vertex 392.6698273581316 533.5000000001951 105.8561083145805
  endloop
endfacet
facet normal -0.11301820666176197 -0.431397946969382 0.8950545772820571
  outer loop
    vertex 395.1320588881778 533.5000000001944 106.16701336883608
    vertex 410.20776151424616 527.6441752494441 105.24822928438486
    vertex 409.97960609138306 529.4705947378374 106.09971691453566
  endloop
endfacet
facet normal -0.07520693913193846 -0.3582361925686265 0.9305969840056108
  outer loop
    vertex 410.6171627579598 522.8506617863876 103.72032304215436
    vertex 386.3346573376517 529.6276697289762 104.36674316341339
    vertex 386.2896632681 529.3577053116655 104.2591832927532
  endloop
endfacet
facet normal -0.07520693913193846 -0.3582361925686265 0.9305969840056108
  outer loop
    vertex 386.3346573376517 529.6276697289762 104.36674316341339
    vertex 410.6171627579598 522.8506617863876 103.72032304215436
    vertex 410.4260168939481 524.7439149762897 104.43368911830609
  endloop
endfacet
facet normal -0.0006896309723662567 0.030886404755910406 0.999522663280016
  outer loop
    vertex 382.68973416546964 496.73006559741805 101.2096884502876
    vertex 393.6299156893299 502.6922736783695 101.03299762526358
    vertex 382.5052283215121 502.6967856816472 101.02518260634187
  endloop
endfacet
facet normal -0.0006896309723662567 0.030886404755910406 0.999522663280016
  outer loop
    vertex 393.6299156893299 502.6922736783695 101.03299762526358
    vertex 382.68973416546964 496.73006559741805 101.2096884502876
    vertex 431.60930933740957 500.00847931716794 101.14213424527304
  endloop
endfacet
facet normal -0.0006896309723662567 0.030886404755910406 0.999522663280016
  outer loop
    vertex 393.6299156893299 502.6922736783695 101.03299762526358
    vertex 431.60930933740957 500.00847931716794 101.14213424527304
    vertex 431.61020971462375 500.0589667602659 101.14057474619216
  endloop
endfacet
facet normal -2.7169094859153732e-17 -0.04081843378109652 0.9991665804377459
  outer loop
    vertex 431.6723193943534 504.30772632204 101.03299762526674
    vertex 431.61020971462375 506.94103324014253 101.14057474620581
    vertex 393.62991568933023 504.30772632204 101.03299762526674
  endloop
endfacet
facet normal -0.006895248787494137 0.09253917746662851 0.9956851692065914
  outer loop
    vertex 383.314540651057 490.0698128209578 101.83449493586203
    vertex 431.367363483949 496.5908899389355 101.56119675614032
    vertex 382.6957942422699 496.6811770997429 101.21574852708808
  endloop
endfacet
facet normal -0.006895248787494137 0.09253917746662851 0.9956851692065914
  outer loop
    vertex 431.367363483949 496.5908899389355 101.56119675614032
    vertex 383.314540651057 490.0698128209578 101.83449493586203
    vertex 431.3628836632495 496.50706936927776 101.56895603320056
  endloop
endfacet
facet normal -0.018593955437237467 0.15381661895076418 0.9879244467851545
  outer loop
    vertex 399.89032091240637 486.74813035283285 102.66830183468329
    vertex 383.81592570798006 486.9400541927411 102.33587999277914
    vertex 384.34184899261436 483.6257603318002 102.86180327740668
  endloop
endfacet
facet normal 0.7071067811864994 0.7071067811865956 1.4779583276015767e-12
  outer loop
    vertex 412.48004571618867 518.000000000206 100.5000000010489
    vertex 411.48004571618856 519.0000000002067 100.00000000105072
    vertex 411.48004571618856 519.0000000002059 100.50000000105078
  endloop
endfacet
facet normal 0.7071067811864994 0.7071067811865956 1.4779583276015767e-12
  outer loop
    vertex 411.48004571618856 519.0000000002067 100.00000000105072
    vertex 412.48004571618867 518.000000000206 100.5000000010489
    vertex 412.48004571618867 518.0000000002069 100.00000000104883
  endloop
endfacet
facet normal -2.5905416028493597e-17 0.040818433777157916 0.9991665804379068
  outer loop
    vertex 431.6723193943534 502.6922736783695 101.03299762526358
    vertex 393.6299156893299 502.6922736783695 101.03299762526358
    vertex 431.61020971462375 500.0589667602659 101.14057474619216
  endloop
endfacet
facet normal -0.02174430172997376 0.20268586028026522 0.9790023633192745
  outer loop
    vertex 383.33347602052356 489.98038361733137 101.8534303053285
    vertex 431.3628836632495 496.50706936927776 101.56895603320056
    vertex 383.314540651057 490.0698128209578 101.83449493586203
  endloop
endfacet
facet normal -0.02174430172997376 0.20268586028026522 0.9790023633192745
  outer loop
    vertex 431.3628836632495 496.50706936927776 101.56895603320056
    vertex 383.33347602052356 489.98038361733137 101.8534303053285
    vertex 430.9637573171511 493.1251362768918 102.26026314327531
  endloop
endfacet
facet normal 0.37139067635416206 -0.928476690885236 -1.823767030885588e-12
  outer loop
    vertex 406.98004571618884 473.5000000002066 100.00000000096107
    vertex 409.70793545997304 474.59115589770647 107.11360551377398
    vertex 406.98004571618884 473.5000000001925 107.25000000096104
  endloop
endfacet
facet normal 0.37139067635416206 -0.928476690885236 -1.823767030885588e-12
  outer loop
    vertex 409.70793545997304 474.59115589770647 107.11360551377398
    vertex 406.98004571618884 473.5000000002066 100.00000000096107
    vertex 411.48004571618856 475.30000000020596 100.50000000096456
  endloop
endfacet
facet normal 0.37139067635416206 -0.928476690885236 -1.823767030885588e-12
  outer loop
    vertex 411.48004571618856 475.30000000020596 100.50000000096456
    vertex 406.98004571618884 473.5000000002066 100.00000000096107
    vertex 411.48004571618856 475.30000000020675 100.00000000096459
  endloop
endfacet
facet normal -0.07520693913193806 0.358236192564959 0.9305969840070226
  outer loop
    vertex 413.53639048235107 482.88661406334535 104.44233233860719
    vertex 430.3734436328007 489.4336864719912 103.28271643696634
    vertex 413.32684631716177 484.87411590301355 103.66030286769482
  endloop
endfacet
facet normal -0.07520693913193806 0.358236192564959 0.9305969840070226
  outer loop
    vertex 430.3734436328007 489.4336864719912 103.28271643696634
    vertex 413.53639048235107 482.88661406334535 104.44233233860719
    vertex 429.67804202527157 486.1588190733917 104.4871873528654
  endloop
endfacet
facet normal -0.11301820666177435 -0.4313979469693749 0.8950545772820588
  outer loop
    vertex 429.62726629979875 521.1601038783051 104.57513348924479
    vertex 413.9756322521345 528.3861321919179 106.08160494033368
    vertex 413.7197132408328 526.4715528834953 105.12650218753011
  endloop
endfacet
facet normal -0.11301820666177435 -0.4313979469693749 0.8950545772820588
  outer loop
    vertex 413.9756322521345 528.3861321919179 106.08160494033368
    vertex 429.62726629979875 521.1601038783051 104.57513348924479
    vertex 428.79628785703864 524.364024912603 106.01443037210612
  endloop
endfacet
facet normal -0.0357320715661303 -0.21442099104391846 0.9760875256150633
  outer loop
    vertex 430.4004815497916 517.3486234583763 103.23588539106291
    vertex 413.32684631716177 522.1258840973857 103.66030286776824
    vertex 413.1802774337725 519.6602433805946 103.11330034814601
  endloop
endfacet
facet normal -0.0357320715661303 -0.21442099104391846 0.9760875256150633
  outer loop
    vertex 413.32684631716177 522.1258840973857 103.66030286776824
    vertex 430.4004815497916 517.3486234583763 103.23588539106291
    vertex 430.373443632801 517.5663135284094 103.2827164370219
  endloop
endfacet
facet normal -0.08586188915219736 -0.33207197686961915 0.9393380318975268
  outer loop
    vertex 409.97960609138306 529.4705947378374 106.09971691453566
    vertex 406.98004571618884 533.5000000001924 107.25000000107937
    vertex 395.1320588881778 533.5000000001944 106.16701336883608
  endloop
endfacet
facet normal -0.08586188915219736 -0.33207197686961915 0.9393380318975268
  outer loop
    vertex 406.98004571618884 533.5000000001924 107.25000000107937
    vertex 409.97960609138306 529.4705947378374 106.09971691453566
    vertex 409.70793545997304 532.4088441026792 107.11360551388802
  endloop
endfacet
facet normal -0.02174430172997322 -0.2026858602841194 0.9790023633184766
  outer loop
    vertex 431.3628836632495 510.49293063112947 101.56895603322823
    vertex 384.2235210239594 516.9608518468275 101.8610326021724
    vertex 384.1986684705959 516.8117365266459 101.82960880839595
  endloop
endfacet
facet normal -0.02174430172997322 -0.2026858602841194 0.9790023633184766
  outer loop
    vertex 384.2235210239594 516.9608518468275 101.8610326021724
    vertex 431.3628836632495 510.49293063112947 101.56895603322823
    vertex 430.9637573171514 513.8748637235122 102.26026314331628
  endloop
endfacet
facet normal -0.018593955437237394 -0.15381661895465878 0.9879244467845483
  outer loop
    vertex 430.9637573171514 513.8748637235122 102.26026314331628
    vertex 384.26219999624414 517.1929256805346 101.89789372819706
    vertex 384.2235210239594 516.9608518468275 101.8610326021724
  endloop
endfacet
facet normal -0.018593955437237394 -0.15381661895465878 0.9879244467845483
  outer loop
    vertex 384.26219999624414 517.1929256805346 101.89789372819706
    vertex 430.9637573171514 513.8748637235122 102.26026314331628
    vertex 412.98752772549386 516.9065282415344 102.39394864370023
  endloop
endfacet
facet normal -0.018593955437237394 -0.15381661895465878 0.9879244467845483
  outer loop
    vertex 412.98752772549386 516.9065282415344 102.39394864370023
    vertex 430.9637573171514 513.8748637235122 102.26026314331628
    vertex 413.01726680354733 517.6157789417027 102.50493639396811
  endloop
endfacet
facet normal -0.018593955437237394 -0.15381661895465878 0.9879244467845483
  outer loop
    vertex 413.01726680354733 517.6157789417027 102.50493639396811
    vertex 430.9637573171514 513.8748637235122 102.26026314331628
    vertex 430.9513542666772 514.0143409780047 102.28174585690662
  endloop
endfacet
facet normal -0.11301820666176951 0.4313979469658662 0.8950545772837506
  outer loop
    vertex 430.00756578862206 482.9646980482122 106.00894025915663
    vertex 413.0410973263806 480.301860802185 105.15002356574266
    vertex 412.48004571618867 478.20798768727855 106.0883836808295
  endloop
endfacet
facet normal -0.11301820666176951 0.4313979469658662 0.8950545772837506
  outer loop
    vertex 413.0410973263806 480.301860802185 105.15002356574266
    vertex 430.00756578862206 482.9646980482122 106.00894025915663
    vertex 429.62726629979835 485.8398961220897 104.57513348917524
  endloop
endfacet
facet normal 0.965925826289079 -4.929210715523463e-13 0.25881904510248066
  outer loop
    vertex 409.97960609138306 529.4705947378374 106.09971691453566
    vertex 411.48004571618856 531.7000000002059 100.50000000107586
    vertex 409.70793545997304 532.4088441026792 107.11360551388802
  endloop
endfacet
facet normal 0.965925826289079 -4.929210715523463e-13 0.25881904510248066
  outer loop
    vertex 411.48004571618856 531.7000000002059 100.50000000107586
    vertex 409.97960609138306 529.4705947378374 106.09971691453566
    vertex 411.48004571618856 519.0000000002059 100.50000000105078
  endloop
endfacet
facet normal 0.965925826289079 -4.929210715523463e-13 0.25881904510248066
  outer loop
    vertex 411.48004571618856 519.0000000002059 100.50000000105078
    vertex 409.97960609138306 529.4705947378374 106.09971691453566
    vertex 410.20776151424616 527.6441752494441 105.24822928438486
  endloop
endfacet
facet normal 0.965925826289079 -4.929210715523463e-13 0.25881904510248066
  outer loop
    vertex 411.48004571618856 519.0000000002059 100.50000000105078
    vertex 410.20776151424616 527.6441752494441 105.24822928438486
    vertex 410.4260168939481 524.7439149762897 104.43368911830609
  endloop
endfacet
facet normal 0.965925826289079 -4.929210715523463e-13 0.25881904510248066
  outer loop
    vertex 411.48004571618856 519.0000000002059 100.50000000105078
    vertex 410.4260168939481 524.7439149762897 104.43368911830609
    vertex 410.6171627579598 522.8506617863876 103.72032304215436
  endloop
endfacet
facet normal 0.965925826289079 -4.929210715523463e-13 0.25881904510248066
  outer loop
    vertex 411.48004571618856 519.0000000002059 100.50000000105078
    vertex 410.6171627579598 522.8506617863876 103.72032304215436
    vertex 410.74991448456467 520.5732141580688 103.2248868536686
  endloop
endfacet
facet normal -0.058210067627886705 0.2739886931166659 0.9599696787247911
  outer loop
    vertex 386.9918566345381 473.50000000019617 105.51181091931042
    vertex 410.4260168939477 482.25608502410586 104.43368911822255
    vertex 385.8454293939492 477.27315490982915 104.36538367872886
  endloop
endfacet
facet normal -0.058210067627886705 0.2739886931166659 0.9599696787247911
  outer loop
    vertex 410.4260168939477 482.25608502410586 104.43368911822255
    vertex 386.9918566345381 473.50000000019617 105.51181091931042
    vertex 392.66982735813195 473.5000000001951 105.85610831446226
  endloop
endfacet
facet normal -0.058210067627886705 0.2739886931166659 0.9599696787247911
  outer loop
    vertex 410.4260168939477 482.25608502410586 104.43368911822255
    vertex 392.66982735813195 473.5000000001951 105.85610831446226
    vertex 410.2077615142458 479.3558247509489 105.24822928428964
  endloop
endfacet
facet normal -0.04463175907439904 -0.2816522439241696 0.9584779703125184
  outer loop
    vertex 430.9513542666772 514.0143409780047 102.28174585690662
    vertex 413.1802774337725 519.6602433805946 103.11330034814601
    vertex 413.01726680354733 517.6157789417027 102.50493639396811
  endloop
endfacet
facet normal -0.04463175907439904 -0.2816522439241696 0.9584779703125184
  outer loop
    vertex 413.1802774337725 519.6602433805946 103.11330034814601
    vertex 430.9513542666772 514.0143409780047 102.28174585690662
    vertex 430.4004815497916 517.3486234583763 103.23588539106291
  endloop
endfacet
facet normal -0.00689524878749418 -0.09253917747055226 0.9956851692062266
  outer loop
    vertex 431.367363483949 510.40911006147184 101.56119675616753
    vertex 384.1986684705959 516.8117365266459 101.82960880839595
    vertex 383.11664631504874 510.31960359336506 101.21873553997479
  endloop
endfacet
facet normal -0.00689524878749418 -0.09253917747055226 0.9956851692062266
  outer loop
    vertex 384.1986684705959 516.8117365266459 101.82960880839595
    vertex 431.367363483949 510.40911006147184 101.56119675616753
    vertex 431.3628836632495 510.49293063112947 101.56895603322823
  endloop
endfacet
facet normal -0.9863939238321445 0.16439898730535332 3.490412885405292e-13
  outer loop
    vertex 386.98004571618867 533.5000000002067 100.00000000107921
    vertex 384.56337904952187 519.0000000002059 100.50000000105078
    vertex 386.98004571618867 533.500000000196 105.51109473602078
  endloop
endfacet
facet normal -0.9863939238321445 0.16439898730535332 3.490412885405292e-13
  outer loop
    vertex 384.56337904952187 519.0000000002059 100.50000000105078
    vertex 386.98004571618867 533.5000000002067 100.00000000107921
    vertex 381.9800457161887 503.50000000020685 100.00000000102015
  endloop
endfacet
facet normal -0.9863939238321445 0.16439898730535332 3.490412885405292e-13
  outer loop
    vertex 386.98004571618867 533.500000000196 105.51109473602078
    vertex 384.56337904952187 519.0000000002059 100.50000000105078
    vertex 386.2896632681 529.3577053116655 104.2591832927532
  endloop
endfacet
facet normal -0.9863939238321445 0.16439898730535332 3.490412885405292e-13
  outer loop
    vertex 386.98004571618867 533.500000000196 105.51109473602078
    vertex 386.2896632681 529.3577053116655 104.2591832927532
    vertex 386.3346573376517 529.6276697289762 104.36674316341339
  endloop
endfacet
facet normal -0.9863939238321445 0.16439898730535332 3.490412885405292e-13
  outer loop
    vertex 386.2896632681 529.3577053116655 104.2591832927532
    vertex 384.56337904952187 519.0000000002059 100.50000000105078
    vertex 385.29725039866395 523.4032280950526 102.91481013033447
  endloop
endfacet
facet normal -0.9863939238321445 0.16439898730535332 3.490412885405292e-13
  outer loop
    vertex 385.29725039866395 523.4032280950526 102.91481013033447
    vertex 384.56337904952187 519.0000000002059 100.50000000105078
    vertex 385.261634503868 523.189532726278 102.85035650481497
  endloop
endfacet
facet normal -0.9863939238321445 0.16439898730535332 3.490412885405292e-13
  outer loop
    vertex 385.261634503868 523.189532726278 102.85035650481497
    vertex 384.56337904952187 519.0000000002059 100.50000000105078
    vertex 384.7418792891091 520.071001437726 102.35502890582333
  endloop
endfacet
facet normal -0.9863939238321445 0.16439898730535332 3.490412885405292e-13
  outer loop
    vertex 384.56337904952187 519.0000000002059 100.50000000105078
    vertex 381.9800457161887 503.50000000020685 100.00000000102015
    vertex 384.39671238285524 518.000000000206 100.5000000010489
  endloop
endfacet
facet normal -0.9863939238321445 0.16439898730535332 3.490412885405292e-13
  outer loop
    vertex 384.39671238285524 518.000000000206 100.5000000010489
    vertex 381.9800457161887 503.50000000020685 100.00000000102015
    vertex 384.1986684705959 516.8117365266459 101.82960880839595
  endloop
endfacet
facet normal -0.9863939238321445 0.16439898730535332 3.490412885405292e-13
  outer loop
    vertex 384.39671238285524 518.000000000206 100.5000000010489
    vertex 384.1986684705959 516.8117365266459 101.82960880839595
    vertex 384.26219999624414 517.1929256805346 101.89789372819706
  endloop
endfacet
facet normal -0.9863939238321445 0.16439898730535332 3.490412885405292e-13
  outer loop
    vertex 384.26219999624414 517.1929256805346 101.89789372819706
    vertex 384.1986684705959 516.8117365266459 101.82960880839595
    vertex 384.2235210239594 516.9608518468275 101.8610326021724
  endloop
endfacet
facet normal -0.9863939238321445 0.16439898730535332 3.490412885405292e-13
  outer loop
    vertex 384.1986684705959 516.8117365266459 101.82960880839595
    vertex 381.9800457161887 503.50000000020685 100.00000000102015
    vertex 383.11664631504874 510.31960359336506 101.21873553997479
  endloop
endfacet
facet normal -0.9863939238321445 0.16439898730535332 3.490412885405292e-13
  outer loop
    vertex 383.11664631504874 510.31960359336506 101.21873553997479
    vertex 381.9800457161887 503.50000000020685 100.00000000102015
    vertex 383.10374387672204 510.24218896340466 101.20911673445585
  endloop
endfacet
facet normal -0.9863939238321445 0.16439898730535332 3.490412885405292e-13
  outer loop
    vertex 383.10374387672204 510.24218896340466 101.20911673445585
    vertex 381.9800457161887 503.50000000020685 100.00000000102015
    vertex 382.06337904952204 504.00000000020583 100.50000000102115
  endloop
endfacet
facet normal -0.9863939238321445 0.16439898730535332 3.490412885405292e-13
  outer loop
    vertex 383.10374387672204 510.24218896340466 101.20911673445585
    vertex 382.06337904952204 504.00000000020583 100.50000000102115
    vertex 382.1138883156935 504.3030555972324 101.02490769259262
  endloop
endfacet
facet normal -0.9863939238321445 0.16439898730535332 3.490412885405292e-13
  outer loop
    vertex 382.06337904952204 504.00000000020583 100.50000000102115
    vertex 381.9800457161887 503.50000000020685 100.00000000102015
    vertex 381.9800457161887 503.500000000206 100.50000000102013
  endloop
endfacet
facet normal -0.035732071566130626 0.21442099104007115 0.9760875256159086
  outer loop
    vertex 385.75115705630617 477.49825673036037 104.27111134108638
    vertex 407.0468933329859 486.5164183607203 103.06963877774271
    vertex 384.3883859343864 483.47476700993303 102.90834021917864
  endloop
endfacet
facet normal -0.035732071566130626 0.21442099104007115 0.9760875256159086
  outer loop
    vertex 407.0468933329859 486.5164183607203 103.06963877774271
    vertex 385.75115705630617 477.49825673036037 104.27111134108638
    vertex 410.6171627579595 484.14933821401104 103.72032304207792
  endloop
endfacet
facet normal -0.035732071566130626 0.21442099104007115 0.9760875256159086
  outer loop
    vertex 407.0468933329859 486.5164183607203 103.06963877774271
    vertex 410.6171627579595 484.14933821401104 103.72032304207792
    vertex 410.74991448456433 486.42678584233175 103.22488685360119
  endloop
endfacet
facet normal -0.000689630972366353 -0.030886404759849124 0.9995226632798941
  outer loop
    vertex 393.62991568933023 504.30772632204 101.03299762526674
    vertex 383.10374387672204 510.24218896340466 101.20911673445585
    vertex 382.1138883156935 504.3030555972324 101.02490769259262
  endloop
endfacet
facet normal -0.000689630972366353 -0.030886404759849124 0.9995226632798941
  outer loop
    vertex 383.10374387672204 510.24218896340466 101.20911673445585
    vertex 393.62991568933023 504.30772632204 101.03299762526674
    vertex 431.60930933740957 506.9915206832407 101.14213424528678
  endloop
endfacet
facet normal -0.000689630972366353 -0.030886404759849124 0.9995226632798941
  outer loop
    vertex 431.60930933740957 506.9915206832407 101.14213424528678
    vertex 393.62991568933023 504.30772632204 101.03299762526674
    vertex 431.61020971462375 506.94103324014253 101.14057474620581
  endloop
endfacet
facet normal -0.04463175907439998 0.28165224392039584 0.9584779703136272
  outer loop
    vertex 384.3883859343864 483.47476700993303 102.90834021917864
    vertex 399.89032091240637 486.74813035283285 102.66830183468329
    vertex 384.34184899261436 483.6257603318002 102.86180327740668
  endloop
endfacet
facet normal -0.04463175907439998 0.28165224392039584 0.9584779703136272
  outer loop
    vertex 399.89032091240637 486.74813035283285 102.66830183468329
    vertex 384.3883859343864 483.47476700993303 102.90834021917864
    vertex 407.0468933329859 486.5164183607203 103.06963877774271
  endloop
endfacet
facet normal -0.0858618891521989 0.3320719768659222 0.9393380318988336
  outer loop
    vertex 406.98004571618884 473.5000000001925 107.25000000096104
    vertex 409.97960609138306 477.52940526255145 106.0997169144335
    vertex 395.13205888817816 473.5000000001948 106.16701336871785
  endloop
endfacet
facet normal -0.0858618891521989 0.3320719768659222 0.9393380318988336
  outer loop
    vertex 409.97960609138306 477.52940526255145 106.0997169144335
    vertex 406.98004571618884 473.5000000001925 107.25000000096104
    vertex 409.70793545997304 474.59115589770647 107.11360551377398
  endloop
endfacet
facet normal 0.0 -1.9698374875698473e-12 1.0
  outer loop
    vertex 411.48004571618856 488.00000000020594 100.50000000098974
    vertex 381.9800457161887 489.0000000002059 100.5000000009917
    vertex 381.9800457161887 488.00000000020594 100.50000000098974
  endloop
endfacet
facet normal 0.0 -1.9698374875698473e-12 1.0
  outer loop
    vertex 381.9800457161887 489.0000000002059 100.5000000009917
    vertex 411.48004571618856 488.00000000020594 100.50000000098974
    vertex 411.9800457161888 489.0000000002059 100.5000000009917
  endloop
endfacet
facet normal 0.0 -1.9698374875698473e-12 1.0
  outer loop
    vertex 411.9800457161888 489.0000000002059 100.5000000009917
    vertex 411.48004571618856 488.00000000020594 100.50000000098974
    vertex 412.48004571618867 489.0000000002059 100.5000000009917
  endloop
endfacet
facet normal -0.035732071566130494 -0.21442099104391876 0.9760875256150633
  outer loop
    vertex 407.0468933329855 520.4835816396807 103.0696387778096
    vertex 386.2896632681 529.3577053116655 104.2591832927532
    vertex 385.29725039866395 523.4032280950526 102.91481013033447
  endloop
endfacet
facet normal -0.035732071566130494 -0.21442099104391876 0.9760875256150633
  outer loop
    vertex 386.2896632681 529.3577053116655 104.2591832927532
    vertex 407.0468933329855 520.4835816396807 103.0696387778096
    vertex 410.6171627579598 522.8506617863876 103.72032304215436
  endloop
endfacet
facet normal -0.035732071566130494 -0.21442099104391876 0.9760875256150633
  outer loop
    vertex 410.6171627579598 522.8506617863876 103.72032304215436
    vertex 407.0468933329855 520.4835816396807 103.0696387778096
    vertex 410.74991448456467 520.5732141580688 103.2248868536686
  endloop
endfacet
facet normal 0.866025403784482 -9.60460612869377e-13 0.499999999999925
  outer loop
    vertex 428.79628785703864 524.364024912603 106.01443037210612
    vertex 431.9800457161882 523.5000000002059 100.50000000105953
    vertex 428.71022772064947 524.8079271984102 106.16349090083916
  endloop
endfacet
facet normal 0.866025403784482 -9.60460612869377e-13 0.499999999999925
  outer loop
    vertex 431.9800457161882 523.5000000002059 100.50000000105953
    vertex 428.79628785703864 524.364024912603 106.01443037210612
    vertex 429.62726629979875 521.1601038783051 104.57513348924479
  endloop
endfacet
facet normal 0.866025403784482 -9.60460612869377e-13 0.499999999999925
  outer loop
    vertex 431.9800457161882 523.5000000002059 100.50000000105953
    vertex 429.62726629979875 521.1601038783051 104.57513348924479
    vertex 430.373443632801 517.5663135284094 103.2827164370219
  endloop
endfacet
facet normal 0.866025403784482 -9.60460612869377e-13 0.499999999999925
  outer loop
    vertex 431.9800457161882 523.5000000002059 100.50000000105953
    vertex 430.373443632801 517.5663135284094 103.2827164370219
    vertex 430.9513542666772 514.0143409780047 102.28174585690662
  endloop
endfacet
facet normal 0.866025403784482 -9.60460612869377e-13 0.499999999999925
  outer loop
    vertex 431.9800457161882 523.5000000002059 100.50000000105953
    vertex 430.9513542666772 514.0143409780047 102.28174585690662
    vertex 431.3628836632495 510.49293063112947 101.56895603322823
  endloop
endfacet
facet normal 0.866025403784482 -9.60460612869377e-13 0.499999999999925
  outer loop
    vertex 431.9800457161882 523.5000000002059 100.50000000105953
    vertex 431.3628836632495 510.49293063112947 101.56895603322823
    vertex 431.98004571618856 504.00000000020583 100.50000000102115
  endloop
endfacet
facet normal 0.866025403784482 -9.60460612869377e-13 0.499999999999925
  outer loop
    vertex 430.373443632801 517.5663135284094 103.2827164370219
    vertex 429.62726629979875 521.1601038783051 104.57513348924479
    vertex 429.67804202527157 520.8411809270038 104.48718735293367
  endloop
endfacet
facet normal 0.866025403784482 -9.60460612869377e-13 0.499999999999925
  outer loop
    vertex 430.9513542666772 514.0143409780047 102.28174585690662
    vertex 430.373443632801 517.5663135284094 103.2827164370219
    vertex 430.4004815497916 517.3486234583763 103.23588539106291
  endloop
endfacet
facet normal 0.866025403784482 -9.60460612869377e-13 0.499999999999925
  outer loop
    vertex 431.3628836632495 510.49293063112947 101.56895603322823
    vertex 430.9513542666772 514.0143409780047 102.28174585690662
    vertex 430.9637573171514 513.8748637235122 102.26026314331628
  endloop
endfacet
facet normal 0.866025403784482 -9.60460612869377e-13 0.499999999999925
  outer loop
    vertex 431.98004571618856 504.00000000020583 100.50000000102115
    vertex 431.3628836632495 510.49293063112947 101.56895603322823
    vertex 431.367363483949 510.40911006147184 101.56119675616753
  endloop
endfacet
facet normal 0.866025403784482 -9.60460612869377e-13 0.499999999999925
  outer loop
    vertex 431.98004571618856 504.00000000020583 100.50000000102115
    vertex 431.367363483949 510.40911006147184 101.56119675616753
    vertex 431.60930933740957 506.9915206832407 101.14213424528678
  endloop
endfacet
facet normal 0.866025403784482 -9.60460612869377e-13 0.499999999999925
  outer loop
    vertex 431.98004571618856 504.00000000020583 100.50000000102115
    vertex 431.60930933740957 506.9915206832407 101.14213424528678
    vertex 431.61020971462375 506.94103324014253 101.14057474620581
  endloop
endfacet
facet normal 0.866025403784482 -9.60460612869377e-13 0.499999999999925
  outer loop
    vertex 431.98004571618856 504.00000000020583 100.50000000102115
    vertex 431.61020971462375 506.94103324014253 101.14057474620581
    vertex 431.6723193943534 504.30772632204 101.03299762526674
  endloop
endfacet
facet normal 1.0447222068842404e-15 1.967171267301246e-12 -1.0
  outer loop
    vertex 412.48004571618867 518.0000000002069 100.00000000104883
    vertex 411.48004571618856 488.00000000020674 100.00000000098976
    vertex 411.48004571618856 519.0000000002067 100.00000000105072
  endloop
endfacet
facet normal 1.0447222068842404e-15 1.967171267301246e-12 -1.0
  outer loop
    vertex 411.48004571618856 488.00000000020674 100.00000000098976
    vertex 412.48004571618867 518.0000000002069 100.00000000104883
    vertex 412.48004571618867 489.0000000002067 100.00000000099172
  endloop
endfacet
facet normal 1.0447222068842404e-15 1.967171267301246e-12 -1.0
  outer loop
    vertex 412.48004571618867 489.0000000002067 100.00000000099172
    vertex 412.48004571618867 518.0000000002069 100.00000000104883
    vertex 412.48004571618884 531.3000000002065 100.00000000107492
  endloop
endfacet
facet normal 1.0447222068842404e-15 1.967171267301246e-12 -1.0
  outer loop
    vertex 412.48004571618867 489.0000000002067 100.00000000099172
    vertex 412.48004571618884 531.3000000002065 100.00000000107492
    vertex 412.48004571618867 475.70000000020667 100.00000000096554
  endloop
endfacet
facet normal 1.0447222068842404e-15 1.967171267301246e-12 -1.0
  outer loop
    vertex 412.48004571618867 475.70000000020667 100.00000000096554
    vertex 412.48004571618884 531.3000000002065 100.00000000107492
    vertex 431.9800457161893 483.5000000002067 100.00000000098092
  endloop
endfacet
facet normal 1.0447222068842404e-15 1.967171267301246e-12 -1.0
  outer loop
    vertex 431.9800457161893 483.5000000002067 100.00000000098092
    vertex 412.48004571618884 531.3000000002065 100.00000000107492
    vertex 431.9800457161882 523.5000000002069 100.00000000105956
  endloop
endfacet
facet normal 1.0447222068842404e-15 1.967171267301246e-12 -1.0
  outer loop
    vertex 386.98004571618867 533.5000000002067 100.00000000107921
    vertex 381.9800457161887 473.5000000002068 100.00000000096107
    vertex 381.9800457161887 503.50000000020685 100.00000000102015
  endloop
endfacet
facet normal 1.0447222068842404e-15 1.967171267301246e-12 -1.0
  outer loop
    vertex 381.9800457161887 473.5000000002068 100.00000000096107
    vertex 386.98004571618867 533.5000000002067 100.00000000107921
    vertex 406.98004571618884 473.5000000002066 100.00000000096107
  endloop
endfacet
facet normal 1.0447222068842404e-15 1.967171267301246e-12 -1.0
  outer loop
    vertex 406.98004571618884 473.5000000002066 100.00000000096107
    vertex 386.98004571618867 533.5000000002067 100.00000000107921
    vertex 406.98004571618867 533.5000000001963 100.00000000107917
  endloop
endfacet
facet normal 1.0447222068842404e-15 1.967171267301246e-12 -1.0
  outer loop
    vertex 406.98004571618884 473.5000000002066 100.00000000096107
    vertex 406.98004571618867 533.5000000001963 100.00000000107917
    vertex 411.48004571618856 531.7000000002066 100.00000000107588
  endloop
endfacet
facet normal 1.0447222068842404e-15 1.967171267301246e-12 -1.0
  outer loop
    vertex 406.98004571618884 473.5000000002066 100.00000000096107
    vertex 411.48004571618856 531.7000000002066 100.00000000107588
    vertex 411.48004571618856 475.30000000020675 100.00000000096459
  endloop
endfacet
facet normal 1.0447222068842404e-15 1.967171267301246e-12 -1.0
  outer loop
    vertex 411.48004571618856 475.30000000020675 100.00000000096459
    vertex 411.48004571618856 531.7000000002066 100.00000000107588
    vertex 411.48004571618856 519.0000000002067 100.00000000105072
  endloop
endfacet
facet normal 1.0447222068842404e-15 1.967171267301246e-12 -1.0
  outer loop
    vertex 411.48004571618856 475.30000000020675 100.00000000096459
    vertex 411.48004571618856 519.0000000002067 100.00000000105072
    vertex 411.48004571618856 488.00000000020674 100.00000000098976
  endloop
endfacet
endsolid ProtoGlove baseplate
