solid ProtoGlove baseplate
facet normal 0.28764583647703135 -0.76705556393764 -0.5734855138447162
  outer loop
    vertex 239.047622710562 468.3297343790777 102.10426110039718
    vertex 265.72598294037044 470.176493721651 113.01535137923274
    vertex 252.4113381172068 464.57727101781416 113.82620495778772
  endloop
endfacet
facet normal 0.28764583647703135 -0.76705556393764 -0.5734855138447162
  outer loop
    vertex 265.72598294037044 470.176493721651 113.01535137923274
    vertex 239.047622710562 468.3297343790777 102.10426110039718
    vertex 261.9730217161884 478.5000000002069 100.00000000097103
  endloop
endfacet
facet normal 0.28764583647703135 -0.76705556393764 -0.5734855138447162
  outer loop
    vertex 261.9730217161884 478.5000000002069 100.00000000097103
    vertex 239.047622710562 468.3297343790777 102.10426110039718
    vertex 238.5303927947216 469.709014154657 100.00000000095376
  endloop
endfacet
facet normal 0.8066884244641723 0.5741655408842904 0.1399561270418768
  outer loop
    vertex 265.72598294037044 470.176493721651 113.01535137923274
    vertex 261.9730217161884 478.500000000206 100.50000000097108
    vertex 265.3302139542048 470.63178343304196 113.42869945998227
  endloop
endfacet
facet normal 0.8779066611021845 0.3196192578159464 0.3565437202161861
  outer loop
    vertex 259.0109306519403 477.7368223517395 108.47760720144164
    vertex 261.9730217161884 478.500000000206 100.50000000097108
    vertex 258.60333722700665 481.24487092345555 106.33646474171579
  endloop
endfacet
facet normal 0.26495428385892367 -0.5116897292989053 0.81729605920671
  outer loop
    vertex 252.4113381172068 464.57727101781416 113.82620495778772
    vertex 265.3302139542048 470.63178343304196 113.42869945998227
    vertex 251.5248419001818 464.8261946496807 114.26943802131561
  endloop
endfacet
facet normal 0.26495428385892367 -0.5116897292989053 0.81729605920671
  outer loop
    vertex 265.3302139542048 470.63178343304196 113.42869945998227
    vertex 252.4113381172068 464.57727101781416 113.82620495778772
    vertex 265.72598294037044 470.176493721651 113.01535137923274
  endloop
endfacet
facet normal 0.8176714571586201 0.45896714585003595 0.3475090605701826
  outer loop
    vertex 259.12858852330703 477.4333375528594 108.60158690071486
    vertex 261.9730217161884 478.500000000206 100.50000000097108
    vertex 259.0109306519403 477.7368223517395 108.47760720144164
  endloop
endfacet
facet normal -0.270339531921994 -0.9627650479115855 -1.896300092712963e-12
  outer loop
    vertex 239.047622710562 468.32973437906185 110.18898675336555
    vertex 252.4113381172068 464.57727101781416 113.82620495778772
    vertex 251.5248419001818 464.8261946496807 114.26943802131561
  endloop
endfacet
facet normal -0.270339531921994 -0.9627650479115855 -1.896300092712963e-12
  outer loop
    vertex 252.4113381172068 464.57727101781416 113.82620495778772
    vertex 239.047622710562 468.32973437906185 110.18898675336555
    vertex 239.047622710562 468.3297343790777 102.10426110039718
  endloop
endfacet
facet normal 0.5861986056529719 0.7507058459114501 0.3046505008118086
  outer loop
    vertex 261.9730217161884 478.500000000206 100.50000000097108
    vertex 259.12858852330703 477.4333375528594 108.60158690071486
    vertex 265.3302139542048 470.63178343304196 113.42869945998227
  endloop
endfacet
facet normal 0.9116186420880072 0.41103704382648737 8.708649544819435e-13
  outer loop
    vertex 265.72598294037044 470.176493721651 113.01535137923274
    vertex 261.9730217161884 478.5000000002069 100.00000000097103
    vertex 261.9730217161884 478.500000000206 100.50000000097108
  endloop
endfacet
facet normal -0.14859014529512565 0.47865363028070695 0.8653390497026434
  outer loop
    vertex 239.047622710562 468.32973437906185 110.18898675336555
    vertex 259.12858852330703 477.4333375528594 108.60158690071486
    vertex 238.5303927947216 469.7090141546387 109.33723674814898
  endloop
endfacet
facet normal -0.14859014529512565 0.47865363028070695 0.8653390497026434
  outer loop
    vertex 259.12858852330703 477.4333375528594 108.60158690071486
    vertex 239.047622710562 468.32973437906185 110.18898675336555
    vertex 251.5248419001818 464.8261946496807 114.26943802131561
  endloop
endfacet
facet normal -0.14859014529512565 0.47865363028070695 0.8653390497026434
  outer loop
    vertex 259.12858852330703 477.4333375528594 108.60158690071486
    vertex 251.5248419001818 464.8261946496807 114.26943802131561
    vertex 265.3302139542048 470.63178343304196 113.42869945998227
  endloop
endfacet
facet normal -0.9363291775690987 -0.3511234415882472 -7.030514497725056e-13
  outer loop
    vertex 238.5303927947216 469.709014154657 100.00000000095376
    vertex 236.7659598658006 474.4141686317811 100.50000000096301
    vertex 236.7659598658006 474.414168631782 100.00000000096304
  endloop
endfacet
facet normal -0.9363291775690987 -0.3511234415882472 -7.030514497725056e-13
  outer loop
    vertex 236.7659598658006 474.4141686317811 100.50000000096301
    vertex 238.5303927947216 469.709014154657 100.00000000095376
    vertex 237.58964836890348 472.2176659568226 108.31566671094943
  endloop
endfacet
facet normal -0.9363291775690987 -0.3511234415882472 -7.030514497725056e-13
  outer loop
    vertex 237.58964836890348 472.2176659568226 108.31566671094943
    vertex 238.5303927947216 469.709014154657 100.00000000095376
    vertex 238.5303927947216 469.7090141546387 109.33723674814898
  endloop
endfacet
facet normal -0.9363291775690987 -0.3511234415882472 -7.030514497725056e-13
  outer loop
    vertex 238.5303927947216 469.7090141546387 109.33723674814898
    vertex 238.5303927947216 469.709014154657 100.00000000095376
    vertex 239.047622710562 468.3297343790777 102.10426110039718
  endloop
endfacet
facet normal -0.9363291775690987 -0.3511234415882472 -7.030514497725056e-13
  outer loop
    vertex 238.5303927947216 469.7090141546387 109.33723674814898
    vertex 239.047622710562 468.3297343790777 102.10426110039718
    vertex 239.047622710562 468.32973437906185 110.18898675336555
  endloop
endfacet
facet normal -0.9363291775690987 -0.3511234415882472 -7.030514497725056e-13
  outer loop
    vertex 236.7659598658006 474.4141686317811 100.50000000096301
    vertex 235.70174998621042 477.252061644012 105.96158311443963
    vertex 235.56583058969426 477.6145133680554 105.77848545895412
  endloop
endfacet
facet normal -0.9363291775690987 -0.3511234415882472 -7.030514497725056e-13
  outer loop
    vertex 235.70174998621042 477.252061644012 105.96158311443963
    vertex 236.7659598658006 474.4141686317811 100.50000000096301
    vertex 236.7591792593378 474.4322502490024 106.87227177844449
  endloop
endfacet
facet normal -0.9363291775690987 -0.3511234415882472 -7.030514497725056e-13
  outer loop
    vertex 236.7591792593378 474.4322502490024 106.87227177844449
    vertex 236.7659598658006 474.4141686317811 100.50000000096301
    vertex 237.58964836890348 472.2176659568226 108.31566671094943
  endloop
endfacet
facet normal -0.04032932902627884 -0.22274714361949294 0.974041711237074
  outer loop
    vertex 220.7437784281521 525.9503331264418 103.8780760674
    vertex 200.1261629030556 536.1125647476647 105.34835547089652
    vertex 198.29901210653074 528.8039615615694 103.60134789455395
  endloop
endfacet
facet normal -0.04032932902627884 -0.22274714361949294 0.974041711237074
  outer loop
    vertex 200.1261629030556 536.1125647476647 105.34835547089652
    vertex 220.7437784281521 525.9503331264418 103.8780760674
    vertex 229.82037214022773 528.7166654832652 104.8864985545533
  endloop
endfacet
facet normal -0.04032932902627884 -0.22274714361949294 0.974041711237074
  outer loop
    vertex 229.82037214022773 528.7166654832652 104.8864985545533
    vertex 220.7437784281521 525.9503331264418 103.8780760674
    vertex 227.50011575425188 526.1364088119368 104.2003686087319
  endloop
endfacet
facet normal -0.026142084167934145 0.2404175389247841 0.9703174730018554
  outer loop
    vertex 193.61501971952703 486.13801248253645 102.14199800432438
    vertex 261.18918104973716 494.63338039163125 101.85765186033541
    vertex 193.590232820703 486.2353563782411 102.11721110550097
  endloop
endfacet
facet normal -0.026142084167934145 0.2404175389247841 0.9703174730018554
  outer loop
    vertex 261.18918104973716 494.63338039163125 101.85765186033541
    vertex 193.61501971952703 486.13801248253645 102.14199800432438
    vertex 260.5875459072975 490.36222952982797 102.89971449465146
  endloop
endfacet
facet normal 2.237702704940251e-16 0.04855703096207871 0.9988204116577453
  outer loop
    vertex 261.6608897145738 502.66427014252025 101.04062848648339
    vertex 205.25244375673492 502.66427014252025 101.04062848648339
    vertex 261.5614251231246 499.12050921376505 101.21290621242046
  endloop
endfacet
facet normal -0.008067507100592983 -0.1452084190356007 0.9893681975737665
  outer loop
    vertex 261.5604701666707 507.9310044865906 101.21456024553525
    vertex 194.16087159325824 512.2513995084851 101.29906972428682
    vertex 194.12729468360416 512.1170918698691 101.2790837555916
  endloop
endfacet
facet normal -0.008067507100592983 -0.1452084190356007 0.9893681975737665
  outer loop
    vertex 194.16087159325824 512.2513995084851 101.29906972428682
    vertex 261.5604701666707 507.9310044865906 101.21456024553525
    vertex 261.1946007333431 512.2690358860153 101.8482646930033
  endloop
endfacet
facet normal -0.02124865728389465 0.15985858540460204 0.9869112053452789
  outer loop
    vertex 213.25208522344943 481.36116807303 103.33854016390275
    vertex 194.36291217698667 481.62019609932617 102.88989046177527
    vertex 194.97034229980696 477.95087475083346 103.4973205845887
  endloop
endfacet
facet normal -0.008129237321198635 0.09619819330056814 0.9953290024440573
  outer loop
    vertex 193.590232820703 486.2353563782411 102.11721110550097
    vertex 261.1946007333431 494.730964114392 101.84826469296861
    vertex 192.76061943196072 494.74896889416186 101.28759771677507
  endloop
endfacet
facet normal -0.008129237321198635 0.09619819330056814 0.9953290024440573
  outer loop
    vertex 261.1946007333431 494.730964114392 101.84826469296861
    vertex 193.590232820703 486.2353563782411 102.11721110550097
    vertex 261.18918104973716 494.63338039163125 101.85765186033541
  endloop
endfacet
facet normal -0.05394819685128281 0.3330324433780586 0.9413708003301013
  outer loop
    vertex 230.24673302033807 482.25787287857315 103.99524080956641
    vertex 260.57146796442555 490.18816972413254 102.927562308586
    vertex 228.07981140251525 484.1271459003646 103.20975853676997
  endloop
endfacet
facet normal -0.05394819685128281 0.3330324433780586 0.9413708003301013
  outer loop
    vertex 260.57146796442555 490.18816972413254 102.927562308586
    vertex 230.24673302033807 482.25787287857315 103.99524080956641
    vertex 259.7450648552889 486.0082918986155 104.3589344811357
  endloop
endfacet
facet normal -3.9899170130445964e-16 -0.048557030966015026 0.9988204116575539
  outer loop
    vertex 261.66225263511456 504.2871712252093 101.03826783886379
    vertex 261.5614251231246 507.8794907866443 101.2129062124378
    vertex 204.48086599011714 504.2871712252093 101.03826783886369
  endloop
endfacet
facet normal -0.026142084167937594 -0.24041753892860532 0.9703174730009086
  outer loop
    vertex 261.18918104973716 512.3666196087757 101.85765186037044
    vertex 196.2716279487657 520.6944249305124 102.17205444661121
    vertex 196.2078829519475 520.4394449432402 102.10716013125548
  endloop
endfacet
facet normal -0.026142084167937594 -0.24041753892860532 0.9703174730009086
  outer loop
    vertex 196.2716279487657 520.6944249305124 102.17205444661121
    vertex 261.18918104973716 512.3666196087757 101.85765186037044
    vertex 260.5875459072975 516.6377704705742 102.89971449470323
  endloop
endfacet
facet normal -0.00812923732119944 -0.09619819330448291 0.9953290024436791
  outer loop
    vertex 261.1946007333431 512.2690358860153 101.8482646930033
    vertex 196.2078829519475 520.4394449432402 102.10716013125548
    vertex 194.16087159325824 512.2513995084851 101.29906972428682
  endloop
endfacet
facet normal -0.00812923732119944 -0.09619819330448291 0.9953290024436791
  outer loop
    vertex 196.2078829519475 520.4394449432402 102.10716013125548
    vertex 261.1946007333431 512.2690358860153 101.8482646930033
    vertex 261.18918104973716 512.3666196087757 101.85765186037044
  endloop
endfacet
facet normal -0.09098365350634702 -0.4216350158205769 0.9021894968511988
  outer loop
    vertex 259.7088735490765 521.2723741125759 104.42161966235751
    vertex 235.95088455133208 529.7001079202278 105.96435435745238
    vertex 233.59628542227722 527.7762035217389 104.82776886584894
  endloop
endfacet
facet normal -0.09098365350634702 -0.4216350158205769 0.9021894968511988
  outer loop
    vertex 235.95088455133208 529.7001079202278 105.96435435745238
    vertex 259.7088735490765 521.2723741125759 104.42161966235751
    vertex 258.6722553617677 525.3379148408067 106.21709503083365
  endloop
endfacet
facet normal -0.09579191040989518 -0.3443904952299444 0.9339267084173664
  outer loop
    vertex 228.22812618942447 537.194314069794 108.24489552785076
    vertex 221.9730217161886 543.500000000188 109.92857142967048
    vertex 203.7541180914464 543.5000000001918 108.05987705777058
  endloop
endfacet
facet normal -0.09579191040989518 -0.3443904952299444 0.9339267084173664
  outer loop
    vertex 221.9730217161886 543.500000000188 109.92857142967048
    vertex 228.22812618942447 537.194314069794 108.24489552785076
    vertex 226.71376245692923 541.7222222224102 109.75925926035468
  endloop
endfacet
facet normal -0.021248657283897496 -0.1598585854084914 0.9869112053446489
  outer loop
    vertex 213.25208522344943 525.6388319273716 103.33854016398998
    vertex 198.20925555599354 528.4449353594204 103.46919000591595
    vertex 197.45356826571674 525.4221861983145 102.96329875401806
  endloop
endfacet
facet normal -0.04032932902627625 0.22274714361565312 0.9740417112379521
  outer loop
    vertex 233.5962854222776 479.2237964786563 104.82776886575301
    vertex 259.7450648552889 486.0082918986155 104.3589344811357
    vertex 230.24673302033807 482.25787287857315 103.99524080956641
  endloop
endfacet
facet normal -0.04032932902627625 0.22274714361565312 0.9740417112379521
  outer loop
    vertex 259.7450648552889 486.0082918986155 104.3589344811357
    vertex 233.5962854222776 479.2237964786563 104.82776886575301
    vertex 259.70887354907615 485.72762588782126 104.42161966228753
  endloop
endfacet
facet normal -0.06524702696399069 -0.28443546959214894 0.9564723148686813
  outer loop
    vertex 230.5685377769377 530.7334450391099 105.90448394032467
    vertex 201.95368930548727 543.422670357387 107.72600239443368
    vertex 200.23718444051056 536.5566508974841 105.56709379204639
  endloop
endfacet
facet normal -0.06524702696399069 -0.28443546959214894 0.9564723148686813
  outer loop
    vertex 201.95368930548727 543.422670357387 107.72600239443368
    vertex 230.5685377769377 530.7334450391099 105.90448394032467
    vertex 229.4207483602438 534.8564141226644 107.05227335702682
  endloop
endfacet
facet normal 0.7071067811865483 -0.7071067811865467 -1.3932811316552211e-12
  outer loop
    vertex 234.47302171618867 531.7071067813935 100.50000000107576
    vertex 226.76591493500203 524.0000000002074 100.00000000106049
    vertex 234.47302171618867 531.7071067813943 100.00000000107569
  endloop
endfacet
facet normal 0.7071067811865483 -0.7071067811865467 -1.3932811316552211e-12
  outer loop
    vertex 226.76591493500203 524.0000000002074 100.00000000106049
    vertex 234.47302171618867 531.7071067813935 100.50000000107576
    vertex 226.76591493500203 524.0000000002066 100.50000000106056
  endloop
endfacet
facet normal -0.06524702696398813 0.2844354695883858 0.9564723148698008
  outer loop
    vertex 199.02203359635695 463.50000000019253 107.54901188110992
    vertex 230.5685377769377 476.2665549612818 105.90448394021742
    vertex 197.00415295179275 469.8226511836107 105.53113123655827
  endloop
endfacet
facet normal -0.06524702696398813 0.2844354695883858 0.9564723148698008
  outer loop
    vertex 230.5685377769377 476.2665549612818 105.90448394021742
    vertex 199.02203359635695 463.50000000019253 107.54901188110992
    vertex 201.70573759736473 463.5000000001925 107.73208430735268
  endloop
endfacet
facet normal -0.06524702696398813 0.2844354695883858 0.9564723148698008
  outer loop
    vertex 230.5685377769377 476.2665549612818 105.90448394021742
    vertex 201.70573759736473 463.5000000001925 107.73208430735268
    vertex 229.4207483602438 472.1435858777222 107.05227335690334
  endloop
endfacet
facet normal -0.05394819685128647 -0.33303244338177135 0.9413708003287877
  outer loop
    vertex 213.25208522344943 525.6388319273716 103.33854016398998
    vertex 198.29901210653074 528.8039615615694 103.60134789455395
    vertex 198.20925555599354 528.4449353594204 103.46919000591595
  endloop
endfacet
facet normal -0.05394819685128647 -0.33303244338177135 0.9413708003287877
  outer loop
    vertex 198.29901210653074 528.8039615615694 103.60134789455395
    vertex 213.25208522344943 525.6388319273716 103.33854016398998
    vertex 220.7437784281521 525.9503331264418 103.8780760674
  endloop
endfacet
facet normal -0.09579191040989614 0.344390495226265 0.9339267084187229
  outer loop
    vertex 238.5303927947216 469.7090141546387 109.33723674814898
    vertex 259.0109306519403 477.7368223517395 108.47760720144164
    vertex 237.58964836890348 472.2176659568226 108.31566671094943
  endloop
endfacet
facet normal -0.09579191040989614 0.344390495226265 0.9339267084187229
  outer loop
    vertex 259.0109306519403 477.7368223517395 108.47760720144164
    vertex 238.5303927947216 469.7090141546387 109.33723674814898
    vertex 259.12858852330703 477.4333375528594 108.60158690071486
  endloop
endfacet
facet normal 1.0 -3.607982919156069e-15 -9.032406810316212e-14
  outer loop
    vertex 261.97302171618855 528.500000000206 100.50000000106948
    vertex 261.9730217161884 478.5000000002069 100.00000000097103
    vertex 261.97302171618855 528.500000000207 100.00000000106951
  endloop
endfacet
facet normal 1.0 -3.607982919156069e-15 -9.032406810316212e-14
  outer loop
    vertex 261.9730217161884 478.5000000002069 100.00000000097103
    vertex 261.97302171618855 528.500000000206 100.50000000106948
    vertex 261.97302171618855 503.97640214413644 100.50000000102123
  endloop
endfacet
facet normal 1.0 -3.607982919156069e-15 -9.032406810316212e-14
  outer loop
    vertex 261.9730217161884 478.5000000002069 100.00000000097103
    vertex 261.97302171618855 503.97640214413644 100.50000000102123
    vertex 261.97302171618855 502.97640214413633 100.50000000101916
  endloop
endfacet
facet normal 1.0 -3.607982919156069e-15 -9.032406810316212e-14
  outer loop
    vertex 261.9730217161884 478.5000000002069 100.00000000097103
    vertex 261.97302171618855 502.97640214413633 100.50000000101916
    vertex 261.9730217161884 478.500000000206 100.50000000097108
  endloop
endfacet
facet normal -0.13643106009008507 -0.5045090585284514 0.8525591919071843
  outer loop
    vertex 229.4207483602438 534.8564141226644 107.05227335702682
    vertex 201.97302171618847 543.5000000001919 107.77485653496652
    vertex 201.95368930548727 543.422670357387 107.72600239443368
  endloop
endfacet
facet normal -0.13643106009008507 -0.5045090585284514 0.8525591919071843
  outer loop
    vertex 201.97302171618847 543.5000000001919 107.77485653496652
    vertex 229.4207483602438 534.8564141226644 107.05227335702682
    vertex 203.7541180914464 543.5000000001918 108.05987705777058
  endloop
endfacet
facet normal -0.13643106009008507 -0.5045090585284514 0.8525591919071843
  outer loop
    vertex 203.7541180914464 543.5000000001918 108.05987705777058
    vertex 229.4207483602438 534.8564141226644 107.05227335702682
    vertex 228.22812618942447 537.194314069794 108.24489552785076
  endloop
endfacet
facet normal -0.0909836535063452 0.4216350158170147 0.9021894968528638
  outer loop
    vertex 235.56583058969426 477.6145133680554 105.77848545895412
    vertex 259.70887354907615 485.72762588782126 104.42161966228753
    vertex 233.5962854222776 479.2237964786563 104.82776886575301
  endloop
endfacet
facet normal -0.0909836535063452 0.4216350158170147 0.9021894968528638
  outer loop
    vertex 259.70887354907615 485.72762588782126 104.42161966228753
    vertex 235.56583058969426 477.6145133680554 105.77848545895412
    vertex 235.70174998621042 477.252061644012 105.96158311443963
  endloop
endfacet
facet normal -0.0909836535063452 0.4216350158170147 0.9021894968528638
  outer loop
    vertex 259.70887354907615 485.72762588782126 104.42161966228753
    vertex 235.70174998621042 477.252061644012 105.96158311443963
    vertex 258.6722553617677 481.6620851595831 106.21709503074779
  endloop
endfacet
facet normal -0.008067507100591492 0.1452084190317049 0.9893681975743382
  outer loop
    vertex 192.76061943196072 494.74896889416186 101.28759771677507
    vertex 261.5604701666707 499.06899551381855 101.21456024551765
    vertex 192.75342006422252 494.79762133855496 101.28039834903716
  endloop
endfacet
facet normal -0.008067507100591492 0.1452084190317049 0.9893681975743382
  outer loop
    vertex 261.5604701666707 499.06899551381855 101.21456024551765
    vertex 192.76061943196072 494.74896889416186 101.28759771677507
    vertex 261.1946007333431 494.730964114392 101.84826469296861
  endloop
endfacet
facet normal -0.1364310600900774 0.5045090585250918 0.8525591919091737
  outer loop
    vertex 203.7541180914464 463.50000000019173 108.05987705761301
    vertex 229.4207483602438 472.1435858777222 107.05227335690334
    vertex 201.70573759736473 463.5000000001925 107.73208430735268
  endloop
endfacet
facet normal -0.1364310600900774 0.5045090585250918 0.8525591919091737
  outer loop
    vertex 229.4207483602438 472.1435858777222 107.05227335690334
    vertex 203.7541180914464 463.50000000019173 108.05987705761301
    vertex 228.22812618942447 469.80568593058814 108.2448955277181
  endloop
endfacet
facet normal -0.9701425001453309 0.24253562503633766 4.846516961065574e-13
  outer loop
    vertex 201.97302171618847 543.5000000002073 100.00000000109905
    vertex 201.95368930548727 543.422670357387 107.72600239443368
    vertex 201.97302171618847 543.5000000001919 107.77485653496652
  endloop
endfacet
facet normal -0.9701425001453309 0.24253562503633766 4.846516961065574e-13
  outer loop
    vertex 201.95368930548727 543.422670357387 107.72600239443368
    vertex 201.97302171618847 543.5000000002073 100.00000000109905
    vertex 197.0980217161885 524.0000000002066 100.50000000106056
  endloop
endfacet
facet normal -0.9701425001453309 0.24253562503633766 4.846516961065574e-13
  outer loop
    vertex 197.0980217161885 524.0000000002066 100.50000000106056
    vertex 201.97302171618847 543.5000000002073 100.00000000109905
    vertex 191.97302171618858 503.50000000020754 100.00000000102013
  endloop
endfacet
facet normal -0.9701425001453309 0.24253562503633766 4.846516961065574e-13
  outer loop
    vertex 201.95368930548727 543.422670357387 107.72600239443368
    vertex 197.0980217161885 524.0000000002066 100.50000000106056
    vertex 200.1261629030556 536.1125647476647 105.34835547089652
  endloop
endfacet
facet normal -0.9701425001453309 0.24253562503633766 4.846516961065574e-13
  outer loop
    vertex 201.95368930548727 543.422670357387 107.72600239443368
    vertex 200.1261629030556 536.1125647476647 105.34835547089652
    vertex 200.23718444051056 536.5566508974841 105.56709379204639
  endloop
endfacet
facet normal -0.9701425001453309 0.24253562503633766 4.846516961065574e-13
  outer loop
    vertex 200.1261629030556 536.1125647476647 105.34835547089652
    vertex 197.0980217161885 524.0000000002066 100.50000000106056
    vertex 198.29901210653074 528.8039615615694 103.60134789455395
  endloop
endfacet
facet normal -0.9701425001453309 0.24253562503633766 4.846516961065574e-13
  outer loop
    vertex 198.29901210653074 528.8039615615694 103.60134789455395
    vertex 197.0980217161885 524.0000000002066 100.50000000106056
    vertex 198.20925555599354 528.4449353594204 103.46919000591595
  endloop
endfacet
facet normal -0.9701425001453309 0.24253562503633766 4.846516961065574e-13
  outer loop
    vertex 198.20925555599354 528.4449353594204 103.46919000591595
    vertex 197.0980217161885 524.0000000002066 100.50000000106056
    vertex 197.45356826571674 525.4221861983145 102.96329875401806
  endloop
endfacet
facet normal -0.9701425001453309 0.24253562503633766 4.846516961065574e-13
  outer loop
    vertex 197.0980217161885 524.0000000002066 100.50000000106056
    vertex 191.97302171618858 503.50000000020754 100.00000000102013
    vertex 196.84802171618855 523.0000000002067 100.50000000105858
  endloop
endfacet
facet normal -0.9701425001453309 0.24253562503633766 4.846516961065574e-13
  outer loop
    vertex 196.84802171618855 523.0000000002067 100.50000000105858
    vertex 191.97302171618858 503.50000000020754 100.00000000102013
    vertex 196.2078829519475 520.4394449432402 102.10716013125548
  endloop
endfacet
facet normal -0.9701425001453309 0.24253562503633766 4.846516961065574e-13
  outer loop
    vertex 196.84802171618855 523.0000000002067 100.50000000105858
    vertex 196.2078829519475 520.4394449432402 102.10716013125548
    vertex 196.5771591572612 521.9165497644948 102.37659085677528
  endloop
endfacet
facet normal -0.9701425001453309 0.24253562503633766 4.846516961065574e-13
  outer loop
    vertex 196.5771591572612 521.9165497644948 102.37659085677528
    vertex 196.2078829519475 520.4394449432402 102.10716013125548
    vertex 196.2716279487657 520.6944249305124 102.17205444661121
  endloop
endfacet
facet normal -0.9701425001453309 0.24253562503633766 4.846516961065574e-13
  outer loop
    vertex 196.2078829519475 520.4394449432402 102.10716013125548
    vertex 191.97302171618858 503.50000000020754 100.00000000102013
    vertex 194.12729468360416 512.1170918698691 101.2790837555916
  endloop
endfacet
facet normal -0.9701425001453309 0.24253562503633766 4.846516961065574e-13
  outer loop
    vertex 196.2078829519475 520.4394449432402 102.10716013125548
    vertex 194.12729468360416 512.1170918698691 101.2790837555916
    vertex 194.16087159325824 512.2513995084851 101.29906972428682
  endloop
endfacet
facet normal -0.9701425001453309 0.24253562503633766 4.846516961065574e-13
  outer loop
    vertex 194.12729468360416 512.1170918698691 101.2790837555916
    vertex 191.97302171618858 503.50000000020754 100.00000000102013
    vertex 192.0921222521709 503.97640214413644 100.50000000102123
  endloop
endfacet
facet normal -0.9701425001453309 0.24253562503633766 4.846516961065574e-13
  outer loop
    vertex 194.12729468360416 512.1170918698691 101.2790837555916
    vertex 192.0921222521709 503.97640214413644 100.50000000102123
    vertex 192.16793568876187 504.2796558905002 101.025250897312
  endloop
endfacet
facet normal -0.9701425001453309 0.24253562503633766 4.846516961065574e-13
  outer loop
    vertex 192.0921222521709 503.97640214413644 100.50000000102123
    vertex 191.97302171618858 503.50000000020754 100.00000000102013
    vertex 191.97302171618858 503.50000000020685 100.5000000010201
  endloop
endfacet
facet normal -1.0 -0.0 0.0
  outer loop
    vertex 191.97302171618858 463.50000000020765 100.00000000094148
    vertex 191.97302171618858 503.50000000020685 100.5000000010201
    vertex 191.97302171618858 503.50000000020754 100.00000000102013
  endloop
endfacet
facet normal -1.0 -0.0 0.0
  outer loop
    vertex 191.97302171618858 503.50000000020685 100.5000000010201
    vertex 191.97302171618858 463.50000000020765 100.00000000094148
    vertex 191.97302171618858 502.97640214413633 100.50000000101916
  endloop
endfacet
facet normal -1.0 -0.0 0.0
  outer loop
    vertex 191.97302171618858 502.97640214413633 100.50000000101916
    vertex 191.97302171618858 463.50000000020765 100.00000000094148
    vertex 191.97302171618858 484.5000000002068 100.50000000098285
  endloop
endfacet
facet normal -1.0 -0.0 0.0
  outer loop
    vertex 191.97302171618858 484.5000000002068 100.50000000098285
    vertex 191.97302171618858 463.50000000020765 100.00000000094148
    vertex 191.97302171618858 484.00000000020674 100.50000000098191
  endloop
endfacet
facet normal -1.0 -0.0 0.0
  outer loop
    vertex 191.97302171618858 484.00000000020674 100.50000000098191
    vertex 191.97302171618858 463.50000000020765 100.00000000094148
    vertex 191.97302171618858 483.0000000002068 100.50000000097984
  endloop
endfacet
facet normal -1.0 -0.0 0.0
  outer loop
    vertex 191.97302171618858 483.0000000002068 100.50000000097984
    vertex 191.97302171618858 463.50000000020765 100.00000000094148
    vertex 191.97302171618858 463.50000000020674 100.50000000094145
  endloop
endfacet
facet normal 1.0 0.0 0.0
  outer loop
    vertex 234.47302171618867 538.8125000002037 102.00000000108967
    vertex 234.47302171618867 531.7071067813943 100.00000000107569
    vertex 234.47302171618867 538.8125000002071 100.00000000108967
  endloop
endfacet
facet normal 1.0 0.0 0.0
  outer loop
    vertex 234.47302171618867 531.7071067813943 100.00000000107569
    vertex 234.47302171618867 538.8125000002037 102.00000000108967
    vertex 234.47302171618867 532.2755128543347 102.00000000107697
  endloop
endfacet
facet normal 1.0 0.0 0.0
  outer loop
    vertex 234.47302171618867 531.7071067813943 100.00000000107569
    vertex 234.47302171618867 532.2755128543347 102.00000000107697
    vertex 234.47302171618867 531.7071067813935 100.50000000107576
  endloop
endfacet
facet normal 0.7071067811865465 -1.3849199779533192e-12 0.7071067811865486
  outer loop
    vertex 228.22812618942447 537.194314069794 108.24489552785076
    vertex 234.47302171618867 538.8125000002037 102.00000000108967
    vertex 226.71376245692923 541.7222222224102 109.75925926035468
  endloop
endfacet
facet normal 0.7071067811865465 -1.3849199779533192e-12 0.7071067811865486
  outer loop
    vertex 234.47302171618867 538.8125000002037 102.00000000108967
    vertex 228.22812618942447 537.194314069794 108.24489552785076
    vertex 229.4207483602438 534.8564141226644 107.05227335702682
  endloop
endfacet
facet normal 0.7071067811865465 -1.3849199779533192e-12 0.7071067811865486
  outer loop
    vertex 234.47302171618867 538.8125000002037 102.00000000108967
    vertex 229.4207483602438 534.8564141226644 107.05227335702682
    vertex 230.5685377769377 530.7334450391099 105.90448394032467
  endloop
endfacet
facet normal 0.7071067811865465 -1.3849199779533192e-12 0.7071067811865486
  outer loop
    vertex 234.47302171618867 538.8125000002037 102.00000000108967
    vertex 230.5685377769377 530.7334450391099 105.90448394032467
    vertex 230.8651392481754 530.0347919231735 105.60788246908584
  endloop
endfacet
facet normal 0.7071067811865465 -1.3849199779533192e-12 0.7071067811865486
  outer loop
    vertex 234.47302171618867 538.8125000002037 102.00000000108967
    vertex 230.8651392481754 530.0347919231735 105.60788246908584
    vertex 234.47302171618867 532.2755128543347 102.00000000107697
  endloop
endfacet
facet normal 0.8660254037844364 -9.8895947586971e-13 0.500000000000004
  outer loop
    vertex 261.6608897145738 502.66427014252025 101.04062848648339
    vertex 261.9730217161884 478.500000000206 100.50000000097108
    vertex 261.97302171618855 502.97640214413633 100.50000000101916
  endloop
endfacet
facet normal 0.8660254037844364 -9.8895947586971e-13 0.500000000000004
  outer loop
    vertex 261.9730217161884 478.500000000206 100.50000000097108
    vertex 261.6608897145738 502.66427014252025 101.04062848648339
    vertex 261.5614251231246 499.12050921376505 101.21290621242046
  endloop
endfacet
facet normal 0.8660254037844364 -9.8895947586971e-13 0.500000000000004
  outer loop
    vertex 261.9730217161884 478.500000000206 100.50000000097108
    vertex 261.5614251231246 499.12050921376505 101.21290621242046
    vertex 261.5604701666707 499.06899551381855 101.21456024551765
  endloop
endfacet
facet normal 0.8660254037844364 -9.8895947586971e-13 0.500000000000004
  outer loop
    vertex 261.9730217161884 478.500000000206 100.50000000097108
    vertex 261.5604701666707 499.06899551381855 101.21456024551765
    vertex 261.1946007333431 494.730964114392 101.84826469296861
  endloop
endfacet
facet normal 0.8660254037844364 -9.8895947586971e-13 0.500000000000004
  outer loop
    vertex 261.9730217161884 478.500000000206 100.50000000097108
    vertex 261.1946007333431 494.730964114392 101.84826469296861
    vertex 261.18918104973716 494.63338039163125 101.85765186033541
  endloop
endfacet
facet normal 0.8660254037844364 -9.8895947586971e-13 0.500000000000004
  outer loop
    vertex 261.9730217161884 478.500000000206 100.50000000097108
    vertex 261.18918104973716 494.63338039163125 101.85765186033541
    vertex 260.5875459072975 490.36222952982797 102.89971449465146
  endloop
endfacet
facet normal 0.8660254037844364 -9.8895947586971e-13 0.500000000000004
  outer loop
    vertex 261.9730217161884 478.500000000206 100.50000000097108
    vertex 260.5875459072975 490.36222952982797 102.89971449465146
    vertex 260.57146796442555 490.18816972413254 102.927562308586
  endloop
endfacet
facet normal 0.8660254037844364 -9.8895947586971e-13 0.500000000000004
  outer loop
    vertex 261.9730217161884 478.500000000206 100.50000000097108
    vertex 260.57146796442555 490.18816972413254 102.927562308586
    vertex 259.7450648552889 486.0082918986155 104.3589344811357
  endloop
endfacet
facet normal 0.8660254037844364 -9.8895947586971e-13 0.500000000000004
  outer loop
    vertex 261.9730217161884 478.500000000206 100.50000000097108
    vertex 259.7450648552889 486.0082918986155 104.3589344811357
    vertex 259.70887354907615 485.72762588782126 104.42161966228753
  endloop
endfacet
facet normal 0.8660254037844364 -9.8895947586971e-13 0.500000000000004
  outer loop
    vertex 261.9730217161884 478.500000000206 100.50000000097108
    vertex 259.70887354907615 485.72762588782126 104.42161966228753
    vertex 258.6722553617677 481.6620851595831 106.21709503074779
  endloop
endfacet
facet normal 0.8660254037844364 -9.8895947586971e-13 0.500000000000004
  outer loop
    vertex 261.9730217161884 478.500000000206 100.50000000097108
    vertex 258.6722553617677 481.6620851595831 106.21709503074779
    vertex 258.60333722700665 481.24487092345555 106.33646474171579
  endloop
endfacet
facet normal -0.053948196851279315 0.3330324433780484 0.9413708003301051
  outer loop
    vertex 195.0341157351405 477.7809393912565 103.56109401992174
    vertex 213.25208522344943 481.36116807303 103.33854016390275
    vertex 194.97034229980696 477.95087475083346 103.4973205845887
  endloop
endfacet
facet normal -0.053948196851279315 0.3330324433780484 0.9413708003301051
  outer loop
    vertex 213.25208522344943 481.36116807303 103.33854016390275
    vertex 195.0341157351405 477.7809393912565 103.56109401992174
    vertex 220.74377842815392 481.0496668739581 103.87807606731172
  endloop
endfacet
facet normal -0.7071067811865589 -1.3983762313445789e-12 0.7071067811865362
  outer loop
    vertex 191.97302171618858 463.50000000020674 100.50000000094145
    vertex 194.36291217698667 481.62019609932617 102.88989046177527
    vertex 191.97302171618858 483.0000000002068 100.50000000097984
  endloop
endfacet
facet normal -0.7071067811865589 -1.3983762313445789e-12 0.7071067811865362
  outer loop
    vertex 194.36291217698667 481.62019609932617 102.88989046177527
    vertex 191.97302171618858 463.50000000020674 100.50000000094145
    vertex 194.97034229980696 477.95087475083346 103.4973205845887
  endloop
endfacet
facet normal -0.7071067811865589 -1.3983762313445789e-12 0.7071067811865362
  outer loop
    vertex 194.97034229980696 477.95087475083346 103.4973205845887
    vertex 191.97302171618858 463.50000000020674 100.50000000094145
    vertex 195.0341157351405 477.7809393912565 103.56109401992174
  endloop
endfacet
facet normal -0.7071067811865589 -1.3983762313445789e-12 0.7071067811865362
  outer loop
    vertex 195.0341157351405 477.7809393912565 103.56109401992174
    vertex 191.97302171618858 463.50000000020674 100.50000000094145
    vertex 196.8719918163249 470.0769229621218 105.39897010109095
  endloop
endfacet
facet normal -0.7071067811865589 -1.3983762313445789e-12 0.7071067811865362
  outer loop
    vertex 196.8719918163249 470.0769229621218 105.39897010109095
    vertex 191.97302171618858 463.50000000020674 100.50000000094145
    vertex 197.00415295179275 469.8226511836107 105.53113123655827
  endloop
endfacet
facet normal -0.7071067811865589 -1.3983762313445789e-12 0.7071067811865362
  outer loop
    vertex 197.00415295179275 469.8226511836107 105.53113123655827
    vertex 191.97302171618858 463.50000000020674 100.50000000094145
    vertex 199.02203359635695 463.50000000019253 107.54901188110992
  endloop
endfacet
facet normal -0.06524702696398726 0.28443546958838134 0.9564723148698022
  outer loop
    vertex 236.7591792593378 474.4322502490024 106.87227177844449
    vertex 258.6722553617677 481.6620851595831 106.21709503074779
    vertex 235.70174998621042 477.252061644012 105.96158311443963
  endloop
endfacet
facet normal -0.06524702696398726 0.28443546958838134 0.9564723148698022
  outer loop
    vertex 258.6722553617677 481.6620851595831 106.21709503074779
    vertex 236.7591792593378 474.4322502490024 106.87227177844449
    vertex 258.60333722700665 481.24487092345555 106.33646474171579
  endloop
endfacet
facet normal 0.9238795325112994 0.3826834323650592 7.538241743327256e-13
  outer loop
    vertex 226.76591493500203 524.0000000002066 100.50000000106056
    vertex 227.18012849737508 523.0000000002076 100.00000000105851
    vertex 226.76591493500203 524.0000000002074 100.00000000106049
  endloop
endfacet
facet normal 0.9238795325112994 0.3826834323650592 7.538241743327256e-13
  outer loop
    vertex 227.18012849737508 523.0000000002076 100.00000000105851
    vertex 226.76591493500203 524.0000000002066 100.50000000106056
    vertex 227.18012849737508 523.0000000002067 100.50000000105858
  endloop
endfacet
facet normal -0.021248657283896365 -0.15985858540847808 0.986911205344651
  outer loop
    vertex 260.5875459072975 516.6377704705742 102.89971449470323
    vertex 196.5771591572612 521.9165497644948 102.37659085677528
    vertex 196.2716279487657 520.6944249305124 102.17205444661121
  endloop
endfacet
facet normal -0.021248657283896365 -0.15985858540847808 0.986911205344651
  outer loop
    vertex 196.5771591572612 521.9165497644948 102.37659085677528
    vertex 260.5875459072975 516.6377704705742 102.89971449470323
    vertex 226.69014975745094 521.5742389957297 102.96949050025202
  endloop
endfacet
facet normal -0.021248657283896365 -0.15985858540847808 0.986911205344651
  outer loop
    vertex 226.69014975745094 521.5742389957297 102.96949050025202
    vertex 260.5875459072975 516.6377704705742 102.89971449470323
    vertex 228.07981140251454 522.8728541000372 103.20975853684641
  endloop
endfacet
facet normal -0.021248657283896365 -0.15985858540847808 0.986911205344651
  outer loop
    vertex 228.07981140251454 522.8728541000372 103.20975853684641
    vertex 260.5875459072975 516.6377704705742 102.89971449470323
    vertex 260.5714679644259 516.8118302762705 102.92756230863857
  endloop
endfacet
facet normal -1.0315520713443783e-17 0.8660254037834558 0.5000000000017025
  outer loop
    vertex 226.76591493500203 483.0000000002068 100.50000000097984
    vertex 220.74377842815392 481.0496668739581 103.87807606731172
    vertex 227.50011575425188 480.863591188462 104.20036860864268
  endloop
endfacet
facet normal -1.0315520713443783e-17 0.8660254037834558 0.5000000000017025
  outer loop
    vertex 220.74377842815392 481.0496668739581 103.87807606731172
    vertex 226.76591493500203 483.0000000002068 100.50000000097984
    vertex 213.25208522344943 481.36116807303 103.33854016390275
  endloop
endfacet
facet normal -1.0315520713443783e-17 0.8660254037834558 0.5000000000017025
  outer loop
    vertex 213.25208522344943 481.36116807303 103.33854016390275
    vertex 226.76591493500203 483.0000000002068 100.50000000097984
    vertex 194.36291217698667 481.62019609932617 102.88989046177527
  endloop
endfacet
facet normal -1.0315520713443783e-17 0.8660254037834558 0.5000000000017025
  outer loop
    vertex 194.36291217698667 481.62019609932617 102.88989046177527
    vertex 226.76591493500203 483.0000000002068 100.50000000097984
    vertex 191.97302171618858 483.0000000002068 100.50000000097984
  endloop
endfacet
facet normal -5.562387817335627e-16 0.8660254037834665 0.5000000000016839
  outer loop
    vertex 227.18012849737508 523.0000000002067 100.50000000105858
    vertex 196.5771591572612 521.9165497644948 102.37659085677528
    vertex 226.69014975745094 521.5742389957297 102.96949050025202
  endloop
endfacet
facet normal -5.562387817335627e-16 0.8660254037834665 0.5000000000016839
  outer loop
    vertex 196.5771591572612 521.9165497644948 102.37659085677528
    vertex 227.18012849737508 523.0000000002067 100.50000000105858
    vertex 196.84802171618855 523.0000000002067 100.50000000105858
  endloop
endfacet
facet normal -1.0282110369548885e-14 -1.0 -1.9720977416358505e-12
  outer loop
    vertex 203.7541180914464 463.50000000019173 108.05987705761301
    vertex 221.9730217161886 463.50000000020736 100.00000000094148
    vertex 221.9730217161886 463.5000000001876 109.92857142951291
  endloop
endfacet
facet normal -1.0282110369548885e-14 -1.0 -1.9720977416358505e-12
  outer loop
    vertex 221.9730217161886 463.50000000020736 100.00000000094148
    vertex 203.7541180914464 463.50000000019173 108.05987705761301
    vertex 201.70573759736473 463.5000000001925 107.73208430735268
  endloop
endfacet
facet normal -1.0282110369548885e-14 -1.0 -1.9720977416358505e-12
  outer loop
    vertex 221.9730217161886 463.50000000020736 100.00000000094148
    vertex 201.70573759736473 463.5000000001925 107.73208430735268
    vertex 199.02203359635695 463.50000000019253 107.54901188110992
  endloop
endfacet
facet normal -1.0282110369548885e-14 -1.0 -1.9720977416358505e-12
  outer loop
    vertex 221.9730217161886 463.50000000020736 100.00000000094148
    vertex 199.02203359635695 463.50000000019253 107.54901188110992
    vertex 191.97302171618858 463.50000000020674 100.50000000094145
  endloop
endfacet
facet normal -1.0282110369548885e-14 -1.0 -1.9720977416358505e-12
  outer loop
    vertex 221.9730217161886 463.50000000020736 100.00000000094148
    vertex 191.97302171618858 463.50000000020674 100.50000000094145
    vertex 191.97302171618858 463.50000000020765 100.00000000094148
  endloop
endfacet
facet normal -1.0212262865370916e-15 -0.8660254037854314 0.49999999999828065
  outer loop
    vertex 193.7948308505233 485.0518219943235 102.32180913531852
    vertex 227.18012849737508 484.00000000020674 100.50000000098191
    vertex 226.69014975745094 485.4257610046736 102.96949050018067
  endloop
endfacet
facet normal -1.0212262865370916e-15 -0.8660254037854314 0.49999999999828065
  outer loop
    vertex 227.18012849737508 484.00000000020674 100.50000000098191
    vertex 193.7948308505233 485.0518219943235 102.32180913531852
    vertex 191.97302171618858 484.00000000020674 100.50000000098191
  endloop
endfacet
facet normal -0.6830127018922314 -0.68301270189273 0.25881904510114145
  outer loop
    vertex 233.5962854222776 479.2237964786563 104.82776886575301
    vertex 236.7659598658006 474.4141686317811 100.50000000096301
    vertex 235.56583058969426 477.6145133680554 105.77848545895412
  endloop
endfacet
facet normal -0.6830127018922314 -0.68301270189273 0.25881904510114145
  outer loop
    vertex 236.7659598658006 474.4141686317811 100.50000000096301
    vertex 233.5962854222776 479.2237964786563 104.82776886575301
    vertex 230.24673302033807 482.25787287857315 103.99524080956641
  endloop
endfacet
facet normal -0.6830127018922314 -0.68301270189273 0.25881904510114145
  outer loop
    vertex 236.7659598658006 474.4141686317811 100.50000000096301
    vertex 230.24673302033807 482.25787287857315 103.99524080956641
    vertex 228.07981140251525 484.1271459003646 103.20975853676997
  endloop
endfacet
facet normal -0.6830127018922314 -0.68301270189273 0.25881904510114145
  outer loop
    vertex 236.7659598658006 474.4141686317811 100.50000000096301
    vertex 228.07981140251525 484.1271459003646 103.20975853676997
    vertex 226.69014975745094 485.4257610046736 102.96949050018067
  endloop
endfacet
facet normal -0.6830127018922314 -0.68301270189273 0.25881904510114145
  outer loop
    vertex 236.7659598658006 474.4141686317811 100.50000000096301
    vertex 226.69014975745094 485.4257610046736 102.96949050018067
    vertex 227.18012849737508 484.00000000020674 100.50000000098191
  endloop
endfacet
facet normal -0.0957919104098782 -0.3443904952299315 0.9339267084173728
  outer loop
    vertex 257.37429140791795 529.6848549240945 108.46523454530337
    vertex 243.05997814858856 535.5923913380391 109.17546584278355
    vertex 241.04399898839918 533.8923265706179 108.34178089164254
  endloop
endfacet
facet normal -0.0957919104098782 -0.3443904952299315 0.9339267084173728
  outer loop
    vertex 243.05997814858856 535.5923913380391 109.17546584278355
    vertex 257.37429140791795 529.6848549240945 108.46523454530337
    vertex 257.25697634610276 530.2685170139724 108.6684301928616
  endloop
endfacet
facet normal -0.001037031363027064 0.03211125477647769 0.9994837626908365
  outer loop
    vertex 192.75342006422252 494.79762133855496 101.28039834903716
    vertex 205.25244375673492 502.66427014252025 101.04062848648339
    vertex 192.50016879521607 502.6720536361558 101.02714708004623
  endloop
endfacet
facet normal -0.001037031363027064 0.03211125477647769 0.9994837626908365
  outer loop
    vertex 205.25244375673492 502.66427014252025 101.04062848648339
    vertex 192.75342006422252 494.79762133855496 101.28039834903716
    vertex 261.5604701666707 499.06899551381855 101.21456024551765
  endloop
endfacet
facet normal -0.001037031363027064 0.03211125477647769 0.9994837626908365
  outer loop
    vertex 205.25244375673492 502.66427014252025 101.04062848648339
    vertex 261.5604701666707 499.06899551381855 101.21456024551765
    vertex 261.5614251231246 499.12050921376505 101.21290621242046
  endloop
endfacet
facet normal 0.7071067811865455 -1.3954914336379012e-12 0.7071067811865498
  outer loop
    vertex 234.47302171618867 468.1875000002032 102.00000000095075
    vertex 228.22812618942447 469.80568593058814 108.2448955277181
    vertex 226.71376245692923 465.27777777796587 109.75925926020423
  endloop
endfacet
facet normal 0.7071067811865455 -1.3954914336379012e-12 0.7071067811865498
  outer loop
    vertex 228.22812618942447 469.80568593058814 108.2448955277181
    vertex 234.47302171618867 468.1875000002032 102.00000000095075
    vertex 229.4207483602438 472.1435858777222 107.05227335690334
  endloop
endfacet
facet normal 0.7071067811865455 -1.3954914336379012e-12 0.7071067811865498
  outer loop
    vertex 229.4207483602438 472.1435858777222 107.05227335690334
    vertex 234.47302171618867 468.1875000002032 102.00000000095075
    vertex 230.5685377769377 476.2665549612818 105.90448394021742
  endloop
endfacet
facet normal 0.7071067811865455 -1.3954914336379012e-12 0.7071067811865498
  outer loop
    vertex 230.5685377769377 476.2665549612818 105.90448394021742
    vertex 234.47302171618867 468.1875000002032 102.00000000095075
    vertex 230.8651392481754 476.96520807721936 105.60788246898107
  endloop
endfacet
facet normal 0.7071067811865455 -1.3954914336379012e-12 0.7071067811865498
  outer loop
    vertex 230.8651392481754 476.96520807721936 105.60788246898107
    vertex 234.47302171618867 468.1875000002032 102.00000000095075
    vertex 234.47302171618867 474.72448714607253 102.00000000096372
  endloop
endfacet
facet normal 0.0 -1.9698374875698473e-12 1.0
  outer loop
    vertex 226.76591493500203 483.0000000002068 100.50000000097984
    vertex 191.97302171618858 484.00000000020674 100.50000000098191
    vertex 191.97302171618858 483.0000000002068 100.50000000097984
  endloop
endfacet
facet normal 0.0 -1.9698374875698473e-12 1.0
  outer loop
    vertex 191.97302171618858 484.00000000020674 100.50000000098191
    vertex 226.76591493500203 483.0000000002068 100.50000000097984
    vertex 227.18012849737508 484.00000000020674 100.50000000098191
  endloop
endfacet
facet normal -0.13643106009008538 0.5045090585251022 0.8525591919091664
  outer loop
    vertex 237.58964836890348 472.2176659568226 108.31566671094943
    vertex 258.60333722700665 481.24487092345555 106.33646474171579
    vertex 236.7591792593378 474.4322502490024 106.87227177844449
  endloop
endfacet
facet normal -0.13643106009008538 0.5045090585251022 0.8525591919091664
  outer loop
    vertex 258.60333722700665 481.24487092345555 106.33646474171579
    vertex 237.58964836890348 472.2176659568226 108.31566671094943
    vertex 259.0109306519403 477.7368223517395 108.47760720144164
  endloop
endfacet
facet normal -3.073024777501736e-17 0.8660254037834539 0.5000000000017054
  outer loop
    vertex 261.97302171618855 502.97640214413633 100.50000000101916
    vertex 205.25244375673492 502.66427014252025 101.04062848648339
    vertex 261.6608897145738 502.66427014252025 101.04062848648339
  endloop
endfacet
facet normal -3.073024777501736e-17 0.8660254037834539 0.5000000000017054
  outer loop
    vertex 205.25244375673492 502.66427014252025 101.04062848648339
    vertex 261.97302171618855 502.97640214413633 100.50000000101916
    vertex 192.50016879521607 502.6720536361558 101.02714708004623
  endloop
endfacet
facet normal -3.073024777501736e-17 0.8660254037834539 0.5000000000017054
  outer loop
    vertex 192.50016879521607 502.6720536361558 101.02714708004623
    vertex 261.97302171618855 502.97640214413633 100.50000000101916
    vertex 191.97302171618858 502.97640214413633 100.50000000101916
  endloop
endfacet
facet normal -0.7071067811865734 -1.398002083339221e-12 0.7071067811865218
  outer loop
    vertex 191.97302171618858 484.5000000002068 100.50000000098285
    vertex 192.50016879521607 502.6720536361558 101.02714708004623
    vertex 191.97302171618858 502.97640214413633 100.50000000101916
  endloop
endfacet
facet normal -0.7071067811865734 -1.398002083339221e-12 0.7071067811865218
  outer loop
    vertex 192.50016879521607 502.6720536361558 101.02714708004623
    vertex 191.97302171618858 484.5000000002068 100.50000000098285
    vertex 192.75342006422252 494.79762133855496 101.28039834903716
  endloop
endfacet
facet normal -0.7071067811865734 -1.398002083339221e-12 0.7071067811865218
  outer loop
    vertex 192.75342006422252 494.79762133855496 101.28039834903716
    vertex 191.97302171618858 484.5000000002068 100.50000000098285
    vertex 192.76061943196072 494.74896889416186 101.28759771677507
  endloop
endfacet
facet normal -0.7071067811865734 -1.398002083339221e-12 0.7071067811865218
  outer loop
    vertex 192.76061943196072 494.74896889416186 101.28759771677507
    vertex 191.97302171618858 484.5000000002068 100.50000000098285
    vertex 193.590232820703 486.2353563782411 102.11721110550097
  endloop
endfacet
facet normal -0.7071067811865734 -1.398002083339221e-12 0.7071067811865218
  outer loop
    vertex 193.590232820703 486.2353563782411 102.11721110550097
    vertex 191.97302171618858 484.5000000002068 100.50000000098285
    vertex 193.61501971952703 486.13801248253645 102.14199800432438
  endloop
endfacet
facet normal -0.7071067811865734 -1.398002083339221e-12 0.7071067811865218
  outer loop
    vertex 193.61501971952703 486.13801248253645 102.14199800432438
    vertex 191.97302171618858 484.5000000002068 100.50000000098285
    vertex 193.7948308505233 485.0518219943235 102.32180913531852
  endloop
endfacet
facet normal -0.7071067811865734 -1.398002083339221e-12 0.7071067811865218
  outer loop
    vertex 193.7948308505233 485.0518219943235 102.32180913531852
    vertex 191.97302171618858 484.5000000002068 100.50000000098285
    vertex 191.97302171618858 484.00000000020674 100.50000000098191
  endloop
endfacet
facet normal -0.09579191040989338 0.34439049522627196 0.9339267084187207
  outer loop
    vertex 221.9730217161886 463.5000000001876 109.92857142951291
    vertex 228.22812618942447 469.80568593058814 108.2448955277181
    vertex 203.7541180914464 463.50000000019173 108.05987705761301
  endloop
endfacet
facet normal -0.09579191040989338 0.34439049522627196 0.9339267084187207
  outer loop
    vertex 228.22812618942447 469.80568593058814 108.2448955277181
    vertex 221.9730217161886 463.5000000001876 109.92857142951291
    vertex 226.71376245692923 465.27777777796587 109.75925926020423
  endloop
endfacet
facet normal -0.0010370313630273667 -0.032111254780417806 0.9994837626907099
  outer loop
    vertex 204.48086599011714 504.2871712252093 101.03826783886369
    vertex 194.12729468360416 512.1170918698691 101.2790837555916
    vertex 192.16793568876187 504.2796558905002 101.025250897312
  endloop
endfacet
facet normal -0.0010370313630273667 -0.032111254780417806 0.9994837626907099
  outer loop
    vertex 194.12729468360416 512.1170918698691 101.2790837555916
    vertex 204.48086599011714 504.2871712252093 101.03826783886369
    vertex 261.5604701666707 507.9310044865906 101.21456024553525
  endloop
endfacet
facet normal -0.0010370313630273667 -0.032111254780417806 0.9994837626907099
  outer loop
    vertex 261.5604701666707 507.9310044865906 101.21456024553525
    vertex 204.48086599011714 504.2871712252093 101.03826783886369
    vertex 261.5614251231246 507.8794907866443 101.2129062124378
  endloop
endfacet
facet normal 0.8660254037844305 -9.884333923322728e-13 0.5000000000000141
  outer loop
    vertex 257.37429140791795 529.6848549240945 108.46523454530337
    vertex 261.97302171618855 528.500000000206 100.50000000106948
    vertex 257.25697634610276 530.2685170139724 108.6684301928616
  endloop
endfacet
facet normal 0.8660254037844305 -9.884333923322728e-13 0.5000000000000141
  outer loop
    vertex 261.97302171618855 528.500000000206 100.50000000106948
    vertex 257.37429140791795 529.6848549240945 108.46523454530337
    vertex 258.6033372270069 525.7551290769335 106.33646474180327
  endloop
endfacet
facet normal 0.8660254037844305 -9.884333923322728e-13 0.5000000000000141
  outer loop
    vertex 261.97302171618855 528.500000000206 100.50000000106948
    vertex 258.6033372270069 525.7551290769335 106.33646474180327
    vertex 259.7088735490765 521.2723741125759 104.42161966235751
  endloop
endfacet
facet normal 0.8660254037844305 -9.884333923322728e-13 0.5000000000000141
  outer loop
    vertex 261.97302171618855 528.500000000206 100.50000000106948
    vertex 259.7088735490765 521.2723741125759 104.42161966235751
    vertex 260.5714679644259 516.8118302762705 102.92756230863857
  endloop
endfacet
facet normal 0.8660254037844305 -9.884333923322728e-13 0.5000000000000141
  outer loop
    vertex 261.97302171618855 528.500000000206 100.50000000106948
    vertex 260.5714679644259 516.8118302762705 102.92756230863857
    vertex 261.18918104973716 512.3666196087757 101.85765186037044
  endloop
endfacet
facet normal 0.8660254037844305 -9.884333923322728e-13 0.5000000000000141
  outer loop
    vertex 261.97302171618855 528.500000000206 100.50000000106948
    vertex 261.18918104973716 512.3666196087757 101.85765186037044
    vertex 261.97302171618855 503.97640214413644 100.50000000102123
  endloop
endfacet
facet normal 0.8660254037844305 -9.884333923322728e-13 0.5000000000000141
  outer loop
    vertex 259.7088735490765 521.2723741125759 104.42161966235751
    vertex 258.6033372270069 525.7551290769335 106.33646474180327
    vertex 258.6722553617677 525.3379148408067 106.21709503083365
  endloop
endfacet
facet normal 0.8660254037844305 -9.884333923322728e-13 0.5000000000000141
  outer loop
    vertex 260.5714679644259 516.8118302762705 102.92756230863857
    vertex 259.7088735490765 521.2723741125759 104.42161966235751
    vertex 259.7450648552889 520.9917081017817 104.35893448120467
  endloop
endfacet
facet normal 0.8660254037844305 -9.884333923322728e-13 0.5000000000000141
  outer loop
    vertex 261.18918104973716 512.3666196087757 101.85765186037044
    vertex 260.5714679644259 516.8118302762705 102.92756230863857
    vertex 260.5875459072975 516.6377704705742 102.89971449470323
  endloop
endfacet
facet normal 0.8660254037844305 -9.884333923322728e-13 0.5000000000000141
  outer loop
    vertex 261.97302171618855 503.97640214413644 100.50000000102123
    vertex 261.18918104973716 512.3666196087757 101.85765186037044
    vertex 261.1946007333431 512.2690358860153 101.8482646930033
  endloop
endfacet
facet normal 0.8660254037844305 -9.884333923322728e-13 0.5000000000000141
  outer loop
    vertex 261.97302171618855 503.97640214413644 100.50000000102123
    vertex 261.1946007333431 512.2690358860153 101.8482646930033
    vertex 261.5604701666707 507.9310044865906 101.21456024553525
  endloop
endfacet
facet normal 0.8660254037844305 -9.884333923322728e-13 0.5000000000000141
  outer loop
    vertex 261.97302171618855 503.97640214413644 100.50000000102123
    vertex 261.5604701666707 507.9310044865906 101.21456024553525
    vertex 261.5614251231246 507.8794907866443 101.2129062124378
  endloop
endfacet
facet normal 0.8660254037844305 -9.884333923322728e-13 0.5000000000000141
  outer loop
    vertex 261.97302171618855 503.97640214413644 100.50000000102123
    vertex 261.5614251231246 507.8794907866443 101.2129062124378
    vertex 261.66225263511456 504.2871712252093 101.03826783886379
  endloop
endfacet
facet normal -2.6998240160650455e-16 -0.8660254037854186 0.49999999999830297
  outer loop
    vertex 204.48086599011714 504.2871712252093 101.03826783886369
    vertex 261.97302171618855 503.97640214413644 100.50000000102123
    vertex 261.66225263511456 504.2871712252093 101.03826783886379
  endloop
endfacet
facet normal -2.6998240160650455e-16 -0.8660254037854186 0.49999999999830297
  outer loop
    vertex 261.97302171618855 503.97640214413644 100.50000000102123
    vertex 204.48086599011714 504.2871712252093 101.03826783886369
    vertex 192.16793568876187 504.2796558905002 101.025250897312
  endloop
endfacet
facet normal -2.6998240160650455e-16 -0.8660254037854186 0.49999999999830297
  outer loop
    vertex 261.97302171618855 503.97640214413644 100.50000000102123
    vertex 192.16793568876187 504.2796558905002 101.025250897312
    vertex 192.0921222521709 503.97640214413644 100.50000000102123
  endloop
endfacet
facet normal -0.04032932902627529 0.2227471436156537 0.9740417112379519
  outer loop
    vertex 196.8719918163249 470.0769229621218 105.39897010109095
    vertex 220.74377842815392 481.0496668739581 103.87807606731172
    vertex 195.0341157351405 477.7809393912565 103.56109401992174
  endloop
endfacet
facet normal -0.04032932902627529 0.2227471436156537 0.9740417112379519
  outer loop
    vertex 220.74377842815392 481.0496668739581 103.87807606731172
    vertex 196.8719918163249 470.0769229621218 105.39897010109095
    vertex 229.8203721402281 478.2833345171305 104.88649855445404
  endloop
endfacet
facet normal -0.04032932902627529 0.2227471436156537 0.9740417112379519
  outer loop
    vertex 220.74377842815392 481.0496668739581 103.87807606731172
    vertex 229.8203721402281 478.2833345171305 104.88649855445404
    vertex 227.50011575425188 480.863591188462 104.20036860864268
  endloop
endfacet
facet normal 0.35112344158838915 -0.9363291775690455 -1.8561748783826082e-12
  outer loop
    vertex 221.9730217161886 463.50000000020736 100.00000000094148
    vertex 226.71376245692923 465.27777777796587 109.75925926020423
    vertex 221.9730217161886 463.5000000001876 109.92857142951291
  endloop
endfacet
facet normal 0.35112344158838915 -0.9363291775690455 -1.8561748783826082e-12
  outer loop
    vertex 226.71376245692923 465.27777777796587 109.75925926020423
    vertex 221.9730217161886 463.50000000020736 100.00000000094148
    vertex 234.47302171618867 468.1875000002032 102.00000000095075
  endloop
endfacet
facet normal 0.35112344158838915 -0.9363291775690455 -1.8561748783826082e-12
  outer loop
    vertex 234.47302171618867 468.1875000002032 102.00000000095075
    vertex 221.9730217161886 463.50000000020736 100.00000000094148
    vertex 234.47302171618867 468.1875000002075 100.00000000095075
  endloop
endfacet
facet normal -0.09098365350634682 -0.42163501582057883 0.9021894968511979
  outer loop
    vertex 229.82037214022773 528.7166654832652 104.8864985545533
    vertex 200.23718444051056 536.5566508974841 105.56709379204639
    vertex 200.1261629030556 536.1125647476647 105.34835547089652
  endloop
endfacet
facet normal -0.09098365350634682 -0.42163501582057883 0.9021894968511979
  outer loop
    vertex 200.23718444051056 536.5566508974841 105.56709379204639
    vertex 229.82037214022773 528.7166654832652 104.8864985545533
    vertex 230.5685377769377 530.7334450391099 105.90448394032467
  endloop
endfacet
facet normal -0.09098365350634682 -0.42163501582057883 0.9021894968511979
  outer loop
    vertex 230.5685377769377 530.7334450391099 105.90448394032467
    vertex 229.82037214022773 528.7166654832652 104.8864985545533
    vertex 230.8651392481754 530.0347919231735 105.60788246908584
  endloop
endfacet
facet normal 0.6830127018922173 0.6830127018917154 0.2588190451038562
  outer loop
    vertex 227.50011575425188 480.863591188462 104.20036860864268
    vertex 234.47302171618867 475.2928932190202 100.50000000096473
    vertex 226.76591493500203 483.0000000002068 100.50000000097984
  endloop
endfacet
facet normal 0.6830127018922173 0.6830127018917154 0.2588190451038562
  outer loop
    vertex 234.47302171618867 475.2928932190202 100.50000000096473
    vertex 227.50011575425188 480.863591188462 104.20036860864268
    vertex 229.8203721402281 478.2833345171305 104.88649855445404
  endloop
endfacet
facet normal 0.6830127018922173 0.6830127018917154 0.2588190451038562
  outer loop
    vertex 234.47302171618867 475.2928932190202 100.50000000096473
    vertex 229.8203721402281 478.2833345171305 104.88649855445404
    vertex 230.8651392481754 476.96520807721936 105.60788246898107
  endloop
endfacet
facet normal 0.6830127018922173 0.6830127018917154 0.2588190451038562
  outer loop
    vertex 234.47302171618867 475.2928932190202 100.50000000096473
    vertex 230.8651392481754 476.96520807721936 105.60788246898107
    vertex 234.47302171618867 474.72448714607253 102.00000000096372
  endloop
endfacet
facet normal 1.0780749301045179e-16 -0.8660254037854249 0.49999999999829176
  outer loop
    vertex 220.7437784281521 525.9503331264418 103.8780760674
    vertex 226.76591493500203 524.0000000002066 100.50000000106056
    vertex 227.50011575425188 526.1364088119368 104.2003686087319
  endloop
endfacet
facet normal 1.0780749301045179e-16 -0.8660254037854249 0.49999999999829176
  outer loop
    vertex 226.76591493500203 524.0000000002066 100.50000000106056
    vertex 220.7437784281521 525.9503331264418 103.8780760674
    vertex 213.25208522344943 525.6388319273716 103.33854016398998
  endloop
endfacet
facet normal 1.0780749301045179e-16 -0.8660254037854249 0.49999999999829176
  outer loop
    vertex 226.76591493500203 524.0000000002066 100.50000000106056
    vertex 213.25208522344943 525.6388319273716 103.33854016398998
    vertex 197.45356826571674 525.4221861983145 102.96329875401806
  endloop
endfacet
facet normal 1.0780749301045179e-16 -0.8660254037854249 0.49999999999829176
  outer loop
    vertex 226.76591493500203 524.0000000002066 100.50000000106056
    vertex 197.45356826571674 525.4221861983145 102.96329875401806
    vertex 197.0980217161885 524.0000000002066 100.50000000106056
  endloop
endfacet
facet normal 0.7071067811865442 0.7071067811865509 1.3932811282670976e-12
  outer loop
    vertex 234.47302171618867 475.2928932190202 100.50000000096473
    vertex 226.76591493500203 483.00000000020754 100.00000000097978
    vertex 226.76591493500203 483.0000000002068 100.50000000097984
  endloop
endfacet
facet normal 0.7071067811865442 0.7071067811865509 1.3932811282670976e-12
  outer loop
    vertex 226.76591493500203 483.00000000020754 100.00000000097978
    vertex 234.47302171618867 475.2928932190202 100.50000000096473
    vertex 234.47302171618867 475.29289321902064 100.00000000096475
  endloop
endfacet
facet normal -0.09098365350634152 0.4216350158170265 0.9021894968528584
  outer loop
    vertex 197.00415295179275 469.8226511836107 105.53113123655827
    vertex 229.8203721402281 478.2833345171305 104.88649855445404
    vertex 196.8719918163249 470.0769229621218 105.39897010109095
  endloop
endfacet
facet normal -0.09098365350634152 0.4216350158170265 0.9021894968528584
  outer loop
    vertex 229.8203721402281 478.2833345171305 104.88649855445404
    vertex 197.00415295179275 469.8226511836107 105.53113123655827
    vertex 230.5685377769377 476.2665549612818 105.90448394021742
  endloop
endfacet
facet normal -0.09098365350634152 0.4216350158170265 0.9021894968528584
  outer loop
    vertex 229.8203721402281 478.2833345171305 104.88649855445404
    vertex 230.5685377769377 476.2665549612818 105.90448394021742
    vertex 230.8651392481754 476.96520807721936 105.60788246898107
  endloop
endfacet
facet normal -0.7071067811865492 -0.7071067811865459 -1.1418665454762943e-12
  outer loop
    vertex 236.7659598658006 474.414168631782 100.00000000096304
    vertex 227.18012849737508 484.00000000020674 100.50000000098191
    vertex 227.18012849737508 484.00000000020736 100.00000000098184
  endloop
endfacet
facet normal -0.7071067811865492 -0.7071067811865459 -1.1418665454762943e-12
  outer loop
    vertex 227.18012849737508 484.00000000020674 100.50000000098191
    vertex 236.7659598658006 474.414168631782 100.00000000096304
    vertex 236.7659598658006 474.4141686317811 100.50000000096301
  endloop
endfacet
facet normal -0.13643106009007483 -0.5045090585284453 0.8525591919071897
  outer loop
    vertex 258.6033372270069 525.7551290769335 106.33646474180327
    vertex 241.04399898839918 533.8923265706179 108.34178089164254
    vertex 238.564792276963 532.0046263482244 106.82798258407827
  endloop
endfacet
facet normal -0.13643106009007483 -0.5045090585284453 0.8525591919071897
  outer loop
    vertex 241.04399898839918 533.8923265706179 108.34178089164254
    vertex 258.6033372270069 525.7551290769335 106.33646474180327
    vertex 257.37429140791795 529.6848549240945 108.46523454530337
  endloop
endfacet
facet normal -0.06524702696399615 -0.2844354695921936 0.9564723148686679
  outer loop
    vertex 258.6722553617677 525.3379148408067 106.21709503083365
    vertex 238.564792276963 532.0046263482244 106.82798258407827
    vertex 235.95088455133208 529.7001079202278 105.96435435745238
  endloop
endfacet
facet normal -0.06524702696399615 -0.2844354695921936 0.9564723148686679
  outer loop
    vertex 238.564792276963 532.0046263482244 106.82798258407827
    vertex 258.6722553617677 525.3379148408067 106.21709503083365
    vertex 258.6033372270069 525.7551290769335 106.33646474180327
  endloop
endfacet
facet normal -0.053948196851287836 -0.3330324433817786 0.941370800328785
  outer loop
    vertex 260.5714679644259 516.8118302762705 102.92756230863857
    vertex 230.2467330203377 524.7421271218258 103.99524080965013
    vertex 228.07981140251454 522.8728541000372 103.20975853684641
  endloop
endfacet
facet normal -0.053948196851287836 -0.3330324433817786 0.941370800328785
  outer loop
    vertex 230.2467330203377 524.7421271218258 103.99524080965013
    vertex 260.5714679644259 516.8118302762705 102.92756230863857
    vertex 259.7450648552889 520.9917081017817 104.35893448120467
  endloop
endfacet
facet normal 0.6830127018922199 -0.6830127018927327 0.258819045101165
  outer loop
    vertex 229.82037214022773 528.7166654832652 104.8864985545533
    vertex 234.47302171618867 532.2755128543347 102.00000000107697
    vertex 230.8651392481754 530.0347919231735 105.60788246908584
  endloop
endfacet
facet normal 0.6830127018922199 -0.6830127018927327 0.258819045101165
  outer loop
    vertex 234.47302171618867 532.2755128543347 102.00000000107697
    vertex 229.82037214022773 528.7166654832652 104.8864985545533
    vertex 227.50011575425188 526.1364088119368 104.2003686087319
  endloop
endfacet
facet normal 0.6830127018922199 -0.6830127018927327 0.258819045101165
  outer loop
    vertex 234.47302171618867 532.2755128543347 102.00000000107697
    vertex 227.50011575425188 526.1364088119368 104.2003686087319
    vertex 226.76591493500203 524.0000000002066 100.50000000106056
  endloop
endfacet
facet normal 0.6830127018922199 -0.6830127018927327 0.258819045101165
  outer loop
    vertex 234.47302171618867 532.2755128543347 102.00000000107697
    vertex 226.76591493500203 524.0000000002066 100.50000000106056
    vertex 234.47302171618867 531.7071067813935 100.50000000107576
  endloop
endfacet
facet normal -0.021248657283894967 0.15985858540460157 0.9869112053452789
  outer loop
    vertex 193.7948308505233 485.0518219943235 102.32180913531852
    vertex 260.5875459072975 490.36222952982797 102.89971449465146
    vertex 193.61501971952703 486.13801248253645 102.14199800432438
  endloop
endfacet
facet normal -0.021248657283894967 0.15985858540460157 0.9869112053452789
  outer loop
    vertex 260.5875459072975 490.36222952982797 102.89971449465146
    vertex 193.7948308505233 485.0518219943235 102.32180913531852
    vertex 226.69014975745094 485.4257610046736 102.96949050018067
  endloop
endfacet
facet normal -0.021248657283894967 0.15985858540460157 0.9869112053452789
  outer loop
    vertex 260.5875459072975 490.36222952982797 102.89971449465146
    vertex 226.69014975745094 485.4257610046736 102.96949050018067
    vertex 228.07981140251525 484.1271459003646 103.20975853676997
  endloop
endfacet
facet normal -0.021248657283894967 0.15985858540460157 0.9869112053452789
  outer loop
    vertex 260.5875459072975 490.36222952982797 102.89971449465146
    vertex 228.07981140251525 484.1271459003646 103.20975853676997
    vertex 260.57146796442555 490.18816972413254 102.927562308586
  endloop
endfacet
facet normal 0.9238795325112994 -0.38268343236505914 -7.595523820222655e-13
  outer loop
    vertex 227.18012849737508 484.00000000020674 100.50000000098191
    vertex 226.76591493500203 483.00000000020754 100.00000000097978
    vertex 227.18012849737508 484.00000000020736 100.00000000098184
  endloop
endfacet
facet normal 0.9238795325112994 -0.38268343236505914 -7.595523820222655e-13
  outer loop
    vertex 226.76591493500203 483.00000000020754 100.00000000097978
    vertex 227.18012849737508 484.00000000020674 100.50000000098191
    vertex 226.76591493500203 483.0000000002068 100.50000000097984
  endloop
endfacet
facet normal -0.040329329026277165 -0.22274714361948925 0.9740417112370748
  outer loop
    vertex 259.7450648552889 520.9917081017817 104.35893448120467
    vertex 233.59628542227722 527.7762035217389 104.82776886584894
    vertex 230.2467330203377 524.7421271218258 103.99524080965013
  endloop
endfacet
facet normal -0.040329329026277165 -0.22274714361948925 0.9740417112370748
  outer loop
    vertex 233.59628542227722 527.7762035217389 104.82776886584894
    vertex 259.7450648552889 520.9917081017817 104.35893448120467
    vertex 259.7088735490765 521.2723741125759 104.42161966235751
  endloop
endfacet
facet normal 1.0 0.0 0.0
  outer loop
    vertex 234.47302171618867 475.2928932190202 100.50000000096473
    vertex 234.47302171618867 468.1875000002075 100.00000000095075
    vertex 234.47302171618867 475.29289321902064 100.00000000096475
  endloop
endfacet
facet normal 1.0 0.0 0.0
  outer loop
    vertex 234.47302171618867 468.1875000002075 100.00000000095075
    vertex 234.47302171618867 475.2928932190202 100.50000000096473
    vertex 234.47302171618867 474.72448714607253 102.00000000096372
  endloop
endfacet
facet normal 1.0 0.0 0.0
  outer loop
    vertex 234.47302171618867 468.1875000002075 100.00000000095075
    vertex 234.47302171618867 474.72448714607253 102.00000000096372
    vertex 234.47302171618867 468.1875000002032 102.00000000095075
  endloop
endfacet
facet normal 0.0 -1.9698374875698473e-12 1.0
  outer loop
    vertex 227.18012849737508 523.0000000002067 100.50000000105858
    vertex 197.0980217161885 524.0000000002066 100.50000000106056
    vertex 196.84802171618855 523.0000000002067 100.50000000105858
  endloop
endfacet
facet normal 0.0 -1.9698374875698473e-12 1.0
  outer loop
    vertex 197.0980217161885 524.0000000002066 100.50000000106056
    vertex 227.18012849737508 523.0000000002067 100.50000000105858
    vertex 226.76591493500203 524.0000000002066 100.50000000106056
  endloop
endfacet
facet normal 0.0 -1.9698374875698473e-12 1.0
  outer loop
    vertex 261.97302171618855 502.97640214413633 100.50000000101916
    vertex 191.97302171618858 503.50000000020685 100.5000000010201
    vertex 191.97302171618858 502.97640214413633 100.50000000101916
  endloop
endfacet
facet normal 0.0 -1.9698374875698473e-12 1.0
  outer loop
    vertex 191.97302171618858 503.50000000020685 100.5000000010201
    vertex 261.97302171618855 502.97640214413633 100.50000000101916
    vertex 192.0921222521709 503.97640214413644 100.50000000102123
  endloop
endfacet
facet normal 0.0 -1.9698374875698473e-12 1.0
  outer loop
    vertex 192.0921222521709 503.97640214413644 100.50000000102123
    vertex 261.97302171618855 502.97640214413633 100.50000000101916
    vertex 261.97302171618855 503.97640214413644 100.50000000102123
  endloop
endfacet
facet normal 0.35112344158841485 0.9363291775690359 1.8552906856437835e-12
  outer loop
    vertex 257.25697634610276 530.2685170139724 108.6684301928616
    vertex 240.67627193711863 536.4862811673585 100.50000000108086
    vertex 243.05997814858856 535.5923913380391 109.17546584278355
  endloop
endfacet
facet normal 0.35112344158841485 0.9363291775690359 1.8552906856437835e-12
  outer loop
    vertex 240.67627193711863 536.4862811673585 100.50000000108086
    vertex 257.25697634610276 530.2685170139724 108.6684301928616
    vertex 261.97302171618855 528.500000000206 100.50000000106948
  endloop
endfacet
facet normal 0.35112344158841485 0.9363291775690359 1.8552906856437835e-12
  outer loop
    vertex 240.67627193711863 536.4862811673585 100.50000000108086
    vertex 261.97302171618855 528.500000000206 100.50000000106948
    vertex 240.67627193711863 536.4862811673585 100.00000000108523
  endloop
endfacet
facet normal 0.35112344158841485 0.9363291775690359 1.8552906856437835e-12
  outer loop
    vertex 240.67627193711863 536.4862811673585 100.00000000108523
    vertex 261.97302171618855 528.500000000206 100.50000000106948
    vertex 261.97302171618855 528.500000000207 100.00000000106951
  endloop
endfacet
facet normal 0.3511234415883853 0.936329177569047 1.829940476539279e-12
  outer loop
    vertex 226.71376245692923 541.7222222224102 109.75925926035468
    vertex 221.97302171618855 543.5000000002073 100.0000000010991
    vertex 221.9730217161886 543.500000000188 109.92857142967048
  endloop
endfacet
facet normal 0.3511234415883853 0.936329177569047 1.829940476539279e-12
  outer loop
    vertex 221.97302171618855 543.5000000002073 100.0000000010991
    vertex 226.71376245692923 541.7222222224102 109.75925926035468
    vertex 234.47302171618867 538.8125000002037 102.00000000108967
  endloop
endfacet
facet normal 0.3511234415883853 0.936329177569047 1.829940476539279e-12
  outer loop
    vertex 221.97302171618855 543.5000000002073 100.0000000010991
    vertex 234.47302171618867 538.8125000002037 102.00000000108967
    vertex 234.47302171618867 538.8125000002071 100.00000000108967
  endloop
endfacet
facet normal 7.110022520191575e-16 1.9682453219905525e-12 -1.0
  outer loop
    vertex 201.97302171618847 543.5000000002073 100.00000000109905
    vertex 191.97302171618858 463.50000000020765 100.00000000094148
    vertex 191.97302171618858 503.50000000020754 100.00000000102013
  endloop
endfacet
facet normal 7.110022520191575e-16 1.9682453219905525e-12 -1.0
  outer loop
    vertex 191.97302171618858 463.50000000020765 100.00000000094148
    vertex 201.97302171618847 543.5000000002073 100.00000000109905
    vertex 221.9730217161886 463.50000000020736 100.00000000094148
  endloop
endfacet
facet normal 7.110022520191575e-16 1.9682453219905525e-12 -1.0
  outer loop
    vertex 221.9730217161886 463.50000000020736 100.00000000094148
    vertex 201.97302171618847 543.5000000002073 100.00000000109905
    vertex 221.97302171618855 543.5000000002073 100.0000000010991
  endloop
endfacet
facet normal 7.110022520191575e-16 1.9682453219905525e-12 -1.0
  outer loop
    vertex 221.9730217161886 463.50000000020736 100.00000000094148
    vertex 221.97302171618855 543.5000000002073 100.0000000010991
    vertex 226.76591493500203 524.0000000002074 100.00000000106049
  endloop
endfacet
facet normal 7.110022520191575e-16 1.9682453219905525e-12 -1.0
  outer loop
    vertex 226.76591493500203 524.0000000002074 100.00000000106049
    vertex 221.97302171618855 543.5000000002073 100.0000000010991
    vertex 234.47302171618867 538.8125000002071 100.00000000108967
  endloop
endfacet
facet normal 7.110022520191575e-16 1.9682453219905525e-12 -1.0
  outer loop
    vertex 226.76591493500203 524.0000000002074 100.00000000106049
    vertex 234.47302171618867 538.8125000002071 100.00000000108967
    vertex 234.47302171618867 531.7071067813943 100.00000000107569
  endloop
endfacet
facet normal 7.110022520191575e-16 1.9682453219905525e-12 -1.0
  outer loop
    vertex 227.18012849737508 523.0000000002076 100.00000000105851
    vertex 226.76591493500203 483.00000000020754 100.00000000097978
    vertex 226.76591493500203 524.0000000002074 100.00000000106049
  endloop
endfacet
facet normal 7.110022520191575e-16 1.9682453219905525e-12 -1.0
  outer loop
    vertex 226.76591493500203 483.00000000020754 100.00000000097978
    vertex 227.18012849737508 523.0000000002076 100.00000000105851
    vertex 227.18012849737508 484.00000000020736 100.00000000098184
  endloop
endfacet
facet normal 7.110022520191575e-16 1.9682453219905525e-12 -1.0
  outer loop
    vertex 227.18012849737508 484.00000000020736 100.00000000098184
    vertex 227.18012849737508 523.0000000002076 100.00000000105851
    vertex 240.67627193711863 536.4862811673585 100.00000000108523
  endloop
endfacet
facet normal 7.110022520191575e-16 1.9682453219905525e-12 -1.0
  outer loop
    vertex 227.18012849737508 484.00000000020736 100.00000000098184
    vertex 240.67627193711863 536.4862811673585 100.00000000108523
    vertex 236.7659598658006 474.414168631782 100.00000000096304
  endloop
endfacet
facet normal 7.110022520191575e-16 1.9682453219905525e-12 -1.0
  outer loop
    vertex 236.7659598658006 474.414168631782 100.00000000096304
    vertex 240.67627193711863 536.4862811673585 100.00000000108523
    vertex 238.5303927947216 469.709014154657 100.00000000095376
  endloop
endfacet
facet normal 7.110022520191575e-16 1.9682453219905525e-12 -1.0
  outer loop
    vertex 238.5303927947216 469.709014154657 100.00000000095376
    vertex 240.67627193711863 536.4862811673585 100.00000000108523
    vertex 261.9730217161884 478.5000000002069 100.00000000097103
  endloop
endfacet
facet normal 7.110022520191575e-16 1.9682453219905525e-12 -1.0
  outer loop
    vertex 261.9730217161884 478.5000000002069 100.00000000097103
    vertex 240.67627193711863 536.4862811673585 100.00000000108523
    vertex 261.97302171618855 528.500000000207 100.00000000106951
  endloop
endfacet
facet normal 7.110022520191575e-16 1.9682453219905525e-12 -1.0
  outer loop
    vertex 221.9730217161886 463.50000000020736 100.00000000094148
    vertex 226.76591493500203 483.00000000020754 100.00000000097978
    vertex 234.47302171618867 468.1875000002075 100.00000000095075
  endloop
endfacet
facet normal 7.110022520191575e-16 1.9682453219905525e-12 -1.0
  outer loop
    vertex 226.76591493500203 483.00000000020754 100.00000000097978
    vertex 221.9730217161886 463.50000000020736 100.00000000094148
    vertex 226.76591493500203 524.0000000002074 100.00000000106049
  endloop
endfacet
facet normal 7.110022520191575e-16 1.9682453219905525e-12 -1.0
  outer loop
    vertex 234.47302171618867 468.1875000002075 100.00000000095075
    vertex 226.76591493500203 483.00000000020754 100.00000000097978
    vertex 234.47302171618867 475.29289321902064 100.00000000096475
  endloop
endfacet
facet normal -5.905492606351643e-15 1.0 1.94478893584456e-12
  outer loop
    vertex 221.97302171618855 543.5000000002073 100.0000000010991
    vertex 203.7541180914464 543.5000000001918 108.05987705777058
    vertex 221.9730217161886 543.500000000188 109.92857142967048
  endloop
endfacet
facet normal -5.905492606351643e-15 1.0 1.94478893584456e-12
  outer loop
    vertex 203.7541180914464 543.5000000001918 108.05987705777058
    vertex 221.97302171618855 543.5000000002073 100.0000000010991
    vertex 201.97302171618847 543.5000000001919 107.77485653496652
  endloop
endfacet
facet normal -5.905492606351643e-15 1.0 1.94478893584456e-12
  outer loop
    vertex 201.97302171618847 543.5000000001919 107.77485653496652
    vertex 221.97302171618855 543.5000000002073 100.0000000010991
    vertex 201.97302171618847 543.5000000002073 100.00000000109905
  endloop
endfacet
facet normal -0.706848281295271 0.7073651866114995 6.310325899629402e-13
  outer loop
    vertex 240.67627193711863 536.4862811673585 100.00000000108523
    vertex 227.18012849737508 523.0000000002067 100.50000000105858
    vertex 240.67627193711863 536.4862811673585 100.50000000108086
  endloop
endfacet
facet normal -0.706848281295271 0.7073651866114995 6.310325899629402e-13
  outer loop
    vertex 227.18012849737508 523.0000000002067 100.50000000105858
    vertex 240.67627193711863 536.4862811673585 100.00000000108523
    vertex 227.18012849737508 523.0000000002076 100.00000000105851
  endloop
endfacet
facet normal -0.6830436419928596 0.6833342696297671 0.2578869114218153
  outer loop
    vertex 240.67627193711863 536.4862811673585 100.50000000108086
    vertex 241.04399898839918 533.8923265706179 108.34178089164254
    vertex 243.05997814858856 535.5923913380391 109.17546584278355
  endloop
endfacet
facet normal -0.6830436419928596 0.6833342696297671 0.2578869114218153
  outer loop
    vertex 241.04399898839918 533.8923265706179 108.34178089164254
    vertex 240.67627193711863 536.4862811673585 100.50000000108086
    vertex 238.564792276963 532.0046263482244 106.82798258407827
  endloop
endfacet
facet normal -0.6830436419928596 0.6833342696297671 0.2578869114218153
  outer loop
    vertex 238.564792276963 532.0046263482244 106.82798258407827
    vertex 240.67627193711863 536.4862811673585 100.50000000108086
    vertex 235.95088455133208 529.7001079202278 105.96435435745238
  endloop
endfacet
facet normal -0.6830436419928596 0.6833342696297671 0.2578869114218153
  outer loop
    vertex 235.95088455133208 529.7001079202278 105.96435435745238
    vertex 240.67627193711863 536.4862811673585 100.50000000108086
    vertex 233.59628542227722 527.7762035217389 104.82776886584894
  endloop
endfacet
facet normal -0.6830436419928596 0.6833342696297671 0.2578869114218153
  outer loop
    vertex 233.59628542227722 527.7762035217389 104.82776886584894
    vertex 240.67627193711863 536.4862811673585 100.50000000108086
    vertex 230.2467330203377 524.7421271218258 103.99524080965013
  endloop
endfacet
facet normal -0.6830436419928596 0.6833342696297671 0.2578869114218153
  outer loop
    vertex 230.2467330203377 524.7421271218258 103.99524080965013
    vertex 240.67627193711863 536.4862811673585 100.50000000108086
    vertex 228.07981140251454 522.8728541000372 103.20975853684641
  endloop
endfacet
facet normal -0.6830436419928596 0.6833342696297671 0.2578869114218153
  outer loop
    vertex 228.07981140251454 522.8728541000372 103.20975853684641
    vertex 240.67627193711863 536.4862811673585 100.50000000108086
    vertex 226.69014975745094 521.5742389957297 102.96949050025202
  endloop
endfacet
facet normal -0.6830436419928596 0.6833342696297671 0.2578869114218153
  outer loop
    vertex 226.69014975745094 521.5742389957297 102.96949050025202
    vertex 240.67627193711863 536.4862811673585 100.50000000108086
    vertex 227.18012849737508 523.0000000002067 100.50000000105858
  endloop
endfacet
endsolid ProtoGlove baseplate
