solid ProtoGlove baseplate
facet normal 0.0 1.9698374875698473e-12 1.0
  outer loop
    vertex 99.00606400000035 -49.499999999605045 301.50000000004536
    vertex 99.00606400000035 -94.3902277709586 301.5000000001337
    vertex 128.0060640000006 -49.499999999605045 301.50000000004536
  endloop
endfacet
facet normal 0.0 1.9698374875698473e-12 1.0
  outer loop
    vertex 109.03045782858867 -139.49999999960517 301.50000000022254
    vertex 128.0060640000006 -49.499999999605045 301.50000000004536
    vertex 99.00606400000035 -94.3902277709586 301.5000000001337
  endloop
endfacet
facet normal 0.0 1.9698374875698473e-12 1.0
  outer loop
    vertex 128.00606400000024 -139.49999999960517 301.50000000022254
    vertex 128.0060640000006 -49.499999999605045 301.50000000004536
    vertex 109.03045782858867 -139.49999999960517 301.50000000022254
  endloop
endfacet
facet normal 0.0 1.9698374875698473e-12 1.0
  outer loop
    vertex 172.428713730811 -122.22452510429005 301.5000000001885
    vertex 128.0060640000006 -49.499999999605045 301.50000000004536
    vertex 128.00606400000024 -139.49999999960517 301.50000000022254
  endloop
endfacet
facet normal 0.0 1.9698374875698473e-12 1.0
  outer loop
    vertex 172.428713730811 -66.77547489492014 301.5000000000793
    vertex 128.0060640000006 -49.499999999605045 301.50000000004536
    vertex 172.428713730811 -122.22452510429005 301.5000000001885
  endloop
endfacet
facet normal -0.690268489962629 -0.1533929977680826 0.7071067811868537
  outer loop
    vertex 98.00606400000058 -94.49999999960717 300.50000000013387
    vertex 108.00606400000046 -139.49999999960724 300.50000000022254
    vertex 99.00606400000035 -94.3902277709586 301.5000000001337
  endloop
endfacet
facet normal -0.690268489962629 -0.1533929977680826 0.7071067811868537
  outer loop
    vertex 109.03045782858867 -139.49999999960517 301.50000000022254
    vertex 99.00606400000035 -94.3902277709586 301.5000000001337
    vertex 108.00606400000046 -139.49999999960724 300.50000000022254
  endloop
endfacet
facet normal 0.0 -1.9698374875698473e-12 -1.0
  outer loop
    vertex 98.00606400000058 -94.49999999960819 300.00000000013387
    vertex 98.00606400000058 -49.49999999960815 300.00000000004536
    vertex 108.00606400000046 -139.49999999960824 300.00000000022254
  endloop
endfacet
facet normal 0.0 -1.9698374875698473e-12 -1.0
  outer loop
    vertex 128.00606400000024 -49.49999999960815 300.00000000004536
    vertex 108.00606400000046 -139.49999999960824 300.00000000022254
    vertex 98.00606400000058 -49.49999999960815 300.00000000004536
  endloop
endfacet
facet normal 0.0 -1.9698374875698473e-12 -1.0
  outer loop
    vertex 128.00606400000024 -139.49999999960824 300.00000000022254
    vertex 108.00606400000046 -139.49999999960824 300.00000000022254
    vertex 128.00606400000024 -49.49999999960815 300.00000000004536
  endloop
endfacet
facet normal 0.0 -1.9698374875698473e-12 -1.0
  outer loop
    vertex 173.0060640000005 -121.99999999960825 300.00000000018815
    vertex 128.00606400000024 -139.49999999960824 300.00000000022254
    vertex 128.00606400000024 -49.49999999960815 300.00000000004536
  endloop
endfacet
facet normal 0.0 -1.9698374875698473e-12 -1.0
  outer loop
    vertex 173.0060640000005 -66.99999999960814 300.0000000000798
    vertex 173.0060640000005 -121.99999999960825 300.00000000018815
    vertex 128.00606400000024 -49.49999999960815 300.00000000004536
  endloop
endfacet
facet normal 1.0 0.0 0.0
  outer loop
    vertex 173.0060640000005 -121.99999999960825 300.00000000018815
    vertex 173.0060640000005 -66.99999999960814 300.0000000000798
    vertex 173.0060640000005 -121.99999999960724 300.50000000018815
  endloop
endfacet
facet normal 1.0 0.0 0.0
  outer loop
    vertex 173.0060640000005 -66.9999999996071 300.5000000000798
    vertex 173.0060640000005 -121.99999999960724 300.50000000018815
    vertex 173.0060640000005 -66.99999999960814 300.0000000000798
  endloop
endfacet
facet normal -1.0 0.0 0.0
  outer loop
    vertex 98.00606400000058 -94.49999999960819 300.00000000013387
    vertex 98.00606400000058 -94.49999999960717 300.50000000013387
    vertex 98.00606400000058 -49.49999999960815 300.00000000004536
  endloop
endfacet
facet normal -1.0 0.0 0.0
  outer loop
    vertex 98.00606400000058 -49.49999999960711 300.50000000004536
    vertex 98.00606400000058 -49.49999999960815 300.00000000004536
    vertex 98.00606400000058 -94.49999999960717 300.50000000013387
  endloop
endfacet
facet normal 0.36244626115494694 0.9320046715412966 -1.8688305783992944e-12
  outer loop
    vertex 172.428713730811 -66.77547489492014 301.5000000000793
    vertex 173.0060640000005 -66.9999999996071 300.5000000000798
    vertex 128.0060640000006 -49.499999999605045 301.50000000004536
  endloop
endfacet
facet normal 0.36244626115494694 0.9320046715412966 -1.8688305783992944e-12
  outer loop
    vertex 128.00606400000024 -49.49999999960815 300.00000000004536
    vertex 128.0060640000006 -49.499999999605045 301.50000000004536
    vertex 173.0060640000005 -66.9999999996071 300.5000000000798
  endloop
endfacet
facet normal 0.36244626115494694 0.9320046715412966 -1.8688305783992944e-12
  outer loop
    vertex 173.0060640000005 -66.99999999960814 300.0000000000798
    vertex 128.00606400000024 -49.49999999960815 300.00000000004536
    vertex 173.0060640000005 -66.9999999996071 300.5000000000798
  endloop
endfacet
facet normal 0.866025403784429 9.849190317105028e-13 0.500000000000017
  outer loop
    vertex 172.428713730811 -122.22452510429005 301.5000000001885
    vertex 173.0060640000005 -121.99999999960724 300.50000000018815
    vertex 172.428713730811 -66.77547489492014 301.5000000000793
  endloop
endfacet
facet normal 0.866025403784429 9.849190317105028e-13 0.500000000000017
  outer loop
    vertex 173.0060640000005 -66.9999999996071 300.5000000000798
    vertex 172.428713730811 -66.77547489492014 301.5000000000793
    vertex 173.0060640000005 -121.99999999960724 300.50000000018815
  endloop
endfacet
facet normal -0.9761870601839525 -0.21693045781865783 4.273177480068817e-13
  outer loop
    vertex 108.00606400000046 -139.49999999960824 300.00000000022254
    vertex 108.00606400000046 -139.49999999960724 300.50000000022254
    vertex 98.00606400000058 -94.49999999960819 300.00000000013387
  endloop
endfacet
facet normal -0.9761870601839525 -0.21693045781865783 4.273177480068817e-13
  outer loop
    vertex 98.00606400000058 -94.49999999960717 300.50000000013387
    vertex 98.00606400000058 -94.49999999960819 300.00000000013387
    vertex 108.00606400000046 -139.49999999960724 300.50000000022254
  endloop
endfacet
facet normal 0.0 -1.0 1.9698374875698473e-12
  outer loop
    vertex 128.00606400000024 -139.49999999960517 301.50000000022254
    vertex 109.03045782858867 -139.49999999960517 301.50000000022254
    vertex 128.00606400000024 -139.49999999960824 300.00000000022254
  endloop
endfacet
facet normal 0.0 -1.0 1.9698374875698473e-12
  outer loop
    vertex 108.00606400000046 -139.49999999960724 300.50000000022254
    vertex 128.00606400000024 -139.49999999960824 300.00000000022254
    vertex 109.03045782858867 -139.49999999960517 301.50000000022254
  endloop
endfacet
facet normal 0.0 -1.0 1.9698374875698473e-12
  outer loop
    vertex 108.00606400000046 -139.49999999960824 300.00000000022254
    vertex 128.00606400000024 -139.49999999960824 300.00000000022254
    vertex 108.00606400000046 -139.49999999960724 300.50000000022254
  endloop
endfacet
facet normal 0.0 1.0 -1.9698374875698473e-12
  outer loop
    vertex 99.00606400000035 -49.499999999605045 301.50000000004536
    vertex 128.0060640000006 -49.499999999605045 301.50000000004536
    vertex 98.00606400000058 -49.49999999960711 300.50000000004536
  endloop
endfacet
facet normal 0.0 1.0 -1.9698374875698473e-12
  outer loop
    vertex 128.00606400000024 -49.49999999960815 300.00000000004536
    vertex 98.00606400000058 -49.49999999960711 300.50000000004536
    vertex 128.0060640000006 -49.499999999605045 301.50000000004536
  endloop
endfacet
facet normal 0.0 1.0 -1.9698374875698473e-12
  outer loop
    vertex 98.00606400000058 -49.49999999960815 300.00000000004536
    vertex 98.00606400000058 -49.49999999960711 300.50000000004536
    vertex 128.00606400000024 -49.49999999960815 300.00000000004536
  endloop
endfacet
facet normal -0.7071067811865644 1.3928848012439086e-12 0.7071067811865306
  outer loop
    vertex 98.00606400000058 -94.49999999960717 300.50000000013387
    vertex 99.00606400000035 -94.3902277709586 301.5000000001337
    vertex 98.00606400000058 -49.49999999960711 300.50000000004536
  endloop
endfacet
facet normal -0.7071067811865644 1.3928848012439086e-12 0.7071067811865306
  outer loop
    vertex 99.00606400000035 -49.499999999605045 301.50000000004536
    vertex 98.00606400000058 -49.49999999960711 300.50000000004536
    vertex 99.00606400000035 -94.3902277709586 301.5000000001337
  endloop
endfacet
facet normal 0.36244626115494705 -0.9320046715412965 1.856145337169921e-12
  outer loop
    vertex 128.00606400000024 -139.49999999960517 301.50000000022254
    vertex 128.00606400000024 -139.49999999960824 300.00000000022254
    vertex 172.428713730811 -122.22452510429005 301.5000000001885
  endloop
endfacet
facet normal 0.36244626115494705 -0.9320046715412965 1.856145337169921e-12
  outer loop
    vertex 173.0060640000005 -121.99999999960724 300.50000000018815
    vertex 172.428713730811 -122.22452510429005 301.5000000001885
    vertex 128.00606400000024 -139.49999999960824 300.00000000022254
  endloop
endfacet
facet normal 0.36244626115494705 -0.9320046715412965 1.856145337169921e-12
  outer loop
    vertex 173.0060640000005 -121.99999999960825 300.00000000018815
    vertex 173.0060640000005 -121.99999999960724 300.50000000018815
    vertex 128.00606400000024 -139.49999999960824 300.00000000022254
  endloop
endfacet
endsolid ProtoGlove baseplate
