solid ProtoGlove baseplate
facet normal 0.0 -1.9698374875698473e-12 1.0
  outer loop
    vertex 128.0060640000006 8.499999999813348 301.50000000004536
    vertex 99.00606400000035 53.3902277711669 301.5000000001337
    vertex 99.00606400000035 8.499999999813348 301.50000000004536
  endloop
endfacet
facet normal 0.0 -1.9698374875698473e-12 1.0
  outer loop
    vertex 99.00606400000035 53.3902277711669 301.5000000001337
    vertex 128.0060640000006 8.499999999813348 301.50000000004536
    vertex 109.03045782858867 98.49999999981345 301.50000000022254
  endloop
endfacet
facet normal 0.0 -1.9698374875698473e-12 1.0
  outer loop
    vertex 109.03045782858867 98.49999999981345 301.50000000022254
    vertex 128.0060640000006 8.499999999813348 301.50000000004536
    vertex 128.00606400000024 98.49999999981345 301.50000000022254
  endloop
endfacet
facet normal 0.0 -1.9698374875698473e-12 1.0
  outer loop
    vertex 128.00606400000024 98.49999999981345 301.50000000022254
    vertex 128.0060640000006 8.499999999813348 301.50000000004536
    vertex 172.428713730811 81.22452510449835 301.5000000001885
  endloop
endfacet
facet normal 0.0 -1.9698374875698473e-12 1.0
  outer loop
    vertex 172.428713730811 81.22452510449835 301.5000000001885
    vertex 128.0060640000006 8.499999999813348 301.50000000004536
    vertex 172.428713730811 25.775474895128443 301.5000000000793
  endloop
endfacet
facet normal -0.690268489962629 0.1533929977680826 0.7071067811868537
  outer loop
    vertex 99.00606400000035 53.3902277711669 301.5000000001337
    vertex 108.00606400000046 98.49999999981551 300.50000000022254
    vertex 98.00606400000058 53.499999999815465 300.50000000013387
  endloop
endfacet
facet normal -0.690268489962629 0.1533929977680826 0.7071067811868537
  outer loop
    vertex 108.00606400000046 98.49999999981551 300.50000000022254
    vertex 99.00606400000035 53.3902277711669 301.5000000001337
    vertex 109.03045782858867 98.49999999981345 301.50000000022254
  endloop
endfacet
facet normal 0.0 1.9698374875698473e-12 -1.0
  outer loop
    vertex 108.00606400000046 98.49999999981655 300.00000000022254
    vertex 98.00606400000058 8.499999999816449 300.00000000004536
    vertex 98.00606400000058 53.49999999981649 300.00000000013387
  endloop
endfacet
facet normal 0.0 1.9698374875698473e-12 -1.0
  outer loop
    vertex 98.00606400000058 8.499999999816449 300.00000000004536
    vertex 108.00606400000046 98.49999999981655 300.00000000022254
    vertex 128.00606400000024 8.499999999816449 300.00000000004536
  endloop
endfacet
facet normal 0.0 1.9698374875698473e-12 -1.0
  outer loop
    vertex 128.00606400000024 8.499999999816449 300.00000000004536
    vertex 108.00606400000046 98.49999999981655 300.00000000022254
    vertex 128.00606400000024 98.49999999981655 300.00000000022254
  endloop
endfacet
facet normal 0.0 1.9698374875698473e-12 -1.0
  outer loop
    vertex 128.00606400000024 8.499999999816449 300.00000000004536
    vertex 128.00606400000024 98.49999999981655 300.00000000022254
    vertex 173.0060640000005 80.99999999981657 300.00000000018815
  endloop
endfacet
facet normal 0.0 1.9698374875698473e-12 -1.0
  outer loop
    vertex 128.00606400000024 8.499999999816449 300.00000000004536
    vertex 173.0060640000005 80.99999999981657 300.00000000018815
    vertex 173.0060640000005 25.999999999816442 300.0000000000798
  endloop
endfacet
facet normal 1.0 0.0 0.0
  outer loop
    vertex 173.0060640000005 80.99999999981553 300.50000000018815
    vertex 173.0060640000005 25.999999999816442 300.0000000000798
    vertex 173.0060640000005 80.99999999981657 300.00000000018815
  endloop
endfacet
facet normal 1.0 0.0 0.0
  outer loop
    vertex 173.0060640000005 25.999999999816442 300.0000000000798
    vertex 173.0060640000005 80.99999999981553 300.50000000018815
    vertex 173.0060640000005 25.9999999998154 300.5000000000798
  endloop
endfacet
facet normal -1.0 -0.0 0.0
  outer loop
    vertex 98.00606400000058 8.499999999816449 300.00000000004536
    vertex 98.00606400000058 53.499999999815465 300.50000000013387
    vertex 98.00606400000058 53.49999999981649 300.00000000013387
  endloop
endfacet
facet normal -1.0 -0.0 0.0
  outer loop
    vertex 98.00606400000058 53.499999999815465 300.50000000013387
    vertex 98.00606400000058 8.499999999816449 300.00000000004536
    vertex 98.00606400000058 8.499999999815412 300.50000000004536
  endloop
endfacet
facet normal 0.36244626115494694 -0.9320046715412966 -1.8688305783992944e-12
  outer loop
    vertex 128.0060640000006 8.499999999813348 301.50000000004536
    vertex 173.0060640000005 25.9999999998154 300.5000000000798
    vertex 172.428713730811 25.775474895128443 301.5000000000793
  endloop
endfacet
facet normal 0.36244626115494694 -0.9320046715412966 -1.8688305783992944e-12
  outer loop
    vertex 173.0060640000005 25.9999999998154 300.5000000000798
    vertex 128.0060640000006 8.499999999813348 301.50000000004536
    vertex 128.00606400000024 8.499999999816449 300.00000000004536
  endloop
endfacet
facet normal 0.36244626115494694 -0.9320046715412966 -1.8688305783992944e-12
  outer loop
    vertex 173.0060640000005 25.9999999998154 300.5000000000798
    vertex 128.00606400000024 8.499999999816449 300.00000000004536
    vertex 173.0060640000005 25.999999999816442 300.0000000000798
  endloop
endfacet
facet normal 0.866025403784429 -9.849190317105028e-13 0.500000000000017
  outer loop
    vertex 172.428713730811 25.775474895128443 301.5000000000793
    vertex 173.0060640000005 80.99999999981553 300.50000000018815
    vertex 172.428713730811 81.22452510449835 301.5000000001885
  endloop
endfacet
facet normal 0.866025403784429 -9.849190317105028e-13 0.500000000000017
  outer loop
    vertex 173.0060640000005 80.99999999981553 300.50000000018815
    vertex 172.428713730811 25.775474895128443 301.5000000000793
    vertex 173.0060640000005 25.9999999998154 300.5000000000798
  endloop
endfacet
facet normal -0.9761870601839525 0.21693045781865783 4.273177480068817e-13
  outer loop
    vertex 98.00606400000058 53.49999999981649 300.00000000013387
    vertex 108.00606400000046 98.49999999981551 300.50000000022254
    vertex 108.00606400000046 98.49999999981655 300.00000000022254
  endloop
endfacet
facet normal -0.9761870601839525 0.21693045781865783 4.273177480068817e-13
  outer loop
    vertex 108.00606400000046 98.49999999981551 300.50000000022254
    vertex 98.00606400000058 53.49999999981649 300.00000000013387
    vertex 98.00606400000058 53.499999999815465 300.50000000013387
  endloop
endfacet
facet normal 0.0 1.0 1.9698374875698473e-12
  outer loop
    vertex 128.00606400000024 98.49999999981655 300.00000000022254
    vertex 109.03045782858867 98.49999999981345 301.50000000022254
    vertex 128.00606400000024 98.49999999981345 301.50000000022254
  endloop
endfacet
facet normal 0.0 1.0 1.9698374875698473e-12
  outer loop
    vertex 109.03045782858867 98.49999999981345 301.50000000022254
    vertex 128.00606400000024 98.49999999981655 300.00000000022254
    vertex 108.00606400000046 98.49999999981551 300.50000000022254
  endloop
endfacet
facet normal 0.0 1.0 1.9698374875698473e-12
  outer loop
    vertex 108.00606400000046 98.49999999981551 300.50000000022254
    vertex 128.00606400000024 98.49999999981655 300.00000000022254
    vertex 108.00606400000046 98.49999999981655 300.00000000022254
  endloop
endfacet
facet normal 0.0 -1.0 -1.9698374875698473e-12
  outer loop
    vertex 98.00606400000058 8.499999999815412 300.50000000004536
    vertex 128.0060640000006 8.499999999813348 301.50000000004536
    vertex 99.00606400000035 8.499999999813348 301.50000000004536
  endloop
endfacet
facet normal 0.0 -1.0 -1.9698374875698473e-12
  outer loop
    vertex 128.0060640000006 8.499999999813348 301.50000000004536
    vertex 98.00606400000058 8.499999999815412 300.50000000004536
    vertex 128.00606400000024 8.499999999816449 300.00000000004536
  endloop
endfacet
facet normal 0.0 -1.0 -1.9698374875698473e-12
  outer loop
    vertex 128.00606400000024 8.499999999816449 300.00000000004536
    vertex 98.00606400000058 8.499999999815412 300.50000000004536
    vertex 98.00606400000058 8.499999999816449 300.00000000004536
  endloop
endfacet
facet normal -0.7071067811865644 -1.3928848012439086e-12 0.7071067811865306
  outer loop
    vertex 98.00606400000058 8.499999999815412 300.50000000004536
    vertex 99.00606400000035 53.3902277711669 301.5000000001337
    vertex 98.00606400000058 53.499999999815465 300.50000000013387
  endloop
endfacet
facet normal -0.7071067811865644 -1.3928848012439086e-12 0.7071067811865306
  outer loop
    vertex 99.00606400000035 53.3902277711669 301.5000000001337
    vertex 98.00606400000058 8.499999999815412 300.50000000004536
    vertex 99.00606400000035 8.499999999813348 301.50000000004536
  endloop
endfacet
facet normal 0.36244626115494705 0.9320046715412965 1.856145337169921e-12
  outer loop
    vertex 172.428713730811 81.22452510449835 301.5000000001885
    vertex 128.00606400000024 98.49999999981655 300.00000000022254
    vertex 128.00606400000024 98.49999999981345 301.50000000022254
  endloop
endfacet
facet normal 0.36244626115494705 0.9320046715412965 1.856145337169921e-12
  outer loop
    vertex 128.00606400000024 98.49999999981655 300.00000000022254
    vertex 172.428713730811 81.22452510449835 301.5000000001885
    vertex 173.0060640000005 80.99999999981553 300.50000000018815
  endloop
endfacet
facet normal 0.36244626115494705 0.9320046715412965 1.856145337169921e-12
  outer loop
    vertex 128.00606400000024 98.49999999981655 300.00000000022254
    vertex 173.0060640000005 80.99999999981553 300.50000000018815
    vertex 173.0060640000005 80.99999999981657 300.00000000018815
  endloop
endfacet
endsolid ProtoGlove baseplate
