solid ProtoGlove
facet normal -1.4385967060370702e-15 0.8320502943381215 0.5547001962248125
  outer loop
    vertex 1.7928932188135702 -49.368168999998964 3.255719012115959
    vertex 2.500000000000131 -48.86816899999935 2.5057190121157245
    vertex 1.292893218813594 -48.868168999999355 2.505719012115724
  endloop
endfacet
facet normal -1.4385967060370702e-15 0.8320502943381215 0.5547001962248125
  outer loop
    vertex 2.500000000000131 -48.86816899999935 2.5057190121157245
    vertex 1.7928932188135702 -49.368168999998964 3.255719012115959
    vertex 2.500000000000131 -49.368168999998964 3.255719012115959
  endloop
endfacet
facet normal 4.2653216269563744e-15 -0.8320502943375641 0.5547001962256488
  outer loop
    vertex 2.5000000000001186 -39.36816899999934 2.5057190121109656
    vertex 1.7928932188135578 -38.86816899999897 3.255719012110701
    vertex 1.2928932188135647 -39.36816899999934 2.5057190121109634
  endloop
endfacet
facet normal 4.2653216269563744e-15 -0.8320502943375641 0.5547001962256488
  outer loop
    vertex 1.7928932188135578 -38.86816899999897 3.255719012110701
    vertex 2.5000000000001186 -39.36816899999934 2.5057190121109656
    vertex 2.5000000000001186 -38.868168999998964 3.2557190121106987
  endloop
endfacet
facet normal 1.0 3.136380044569035e-15 2.8291090297663758e-15
  outer loop
    vertex 2.5000000000001186 -38.868168999998964 3.2557190121106987
    vertex 2.500000000000119 -38.868169000000094 1.0057190121107182
    vertex 2.500000000000107 -37.86816899999897 3.2557190121102098
  endloop
endfacet
facet normal 1.0 3.136380044569035e-15 2.8291090297663758e-15
  outer loop
    vertex 2.500000000000119 -38.868169000000094 1.0057190121107182
    vertex 2.5000000000001186 -38.868168999998964 3.2557190121106987
    vertex 2.500000000000119 -38.868168999999845 1.5057190121107145
  endloop
endfacet
facet normal 1.0 3.136380044569035e-15 2.8291090297663758e-15
  outer loop
    vertex 2.500000000000119 -38.868168999999845 1.5057190121107145
    vertex 2.5000000000001186 -38.868168999998964 3.2557190121106987
    vertex 2.5000000000001186 -39.36816899999934 2.5057190121109656
  endloop
endfacet
facet normal 1.0 3.136380044569035e-15 2.8291090297663758e-15
  outer loop
    vertex 2.500000000000131 -49.368168999998964 3.255719012115959
    vertex 2.5000000000001426 -49.36816899999983 1.5057190121159765
    vertex 2.500000000000131 -48.86816899999935 2.5057190121157245
  endloop
endfacet
facet normal 1.0 3.136380044569035e-15 2.8291090297663758e-15
  outer loop
    vertex 2.5000000000001084 -37.86816900000054 0.005719012110212751
    vertex 2.500000000000119 -38.868169000000094 1.0057190121107182
    vertex 2.5000000000001545 -50.36816900000063 0.005719012116462438
  endloop
endfacet
facet normal 1.0 3.136380044569035e-15 2.8291090297663758e-15
  outer loop
    vertex 2.500000000000119 -38.868169000000094 1.0057190121107182
    vertex 2.5000000000001084 -37.86816900000054 0.005719012110212751
    vertex 2.500000000000107 -37.86816899999897 3.2557190121102098
  endloop
endfacet
facet normal 1.0 3.136380044569035e-15 2.8291090297663758e-15
  outer loop
    vertex 2.5000000000001545 -50.36816900000063 0.005719012116462438
    vertex 2.500000000000119 -38.868169000000094 1.0057190121107182
    vertex 2.500000000000143 -49.36816900000009 1.0057190121159802
  endloop
endfacet
facet normal 1.0 3.136380044569035e-15 2.8291090297663758e-15
  outer loop
    vertex 2.5000000000001545 -50.36816900000063 0.005719012116462438
    vertex 2.500000000000143 -49.36816900000009 1.0057190121159802
    vertex 2.5000000000001426 -49.36816899999983 1.5057190121159765
  endloop
endfacet
facet normal 1.0 3.136380044569035e-15 2.8291090297663758e-15
  outer loop
    vertex 2.5000000000001545 -50.36816900000063 0.005719012116462438
    vertex 2.5000000000001426 -49.36816899999983 1.5057190121159765
    vertex 2.500000000000131 -49.368168999998964 3.255719012115959
  endloop
endfacet
facet normal 1.0 3.136380044569035e-15 2.8291090297663758e-15
  outer loop
    vertex 2.5000000000001545 -50.36816900000063 0.005719012116462438
    vertex 2.500000000000131 -49.368168999998964 3.255719012115959
    vertex 2.5000000000001426 -50.368168999998964 3.255719012116465
  endloop
endfacet
facet normal -1.3597874108027678e-15 0.894427190999697 -0.4472135955003961
  outer loop
    vertex 1.292893218813594 -48.868168999999355 2.505719012115724
    vertex 2.5000000000001426 -49.36816899999983 1.5057190121159765
    vertex 1.7928932188135822 -49.368168999999845 1.5057190121159691
  endloop
endfacet
facet normal -1.3597874108027678e-15 0.894427190999697 -0.4472135955003961
  outer loop
    vertex 2.5000000000001426 -49.36816899999983 1.5057190121159765
    vertex 1.292893218813594 -48.868168999999355 2.505719012115724
    vertex 2.500000000000131 -48.86816899999935 2.5057190121157245
  endloop
endfacet
facet normal -3.258844724482353e-15 1.0 -5.009859913372178e-13
  outer loop
    vertex -2.4999999999998472 -49.3681690000001 1.00571901211598
    vertex -1.7928932188132876 -49.36816899999986 1.505719012115971
    vertex -1.792893218813287 -49.3681690000001 1.0057190121159745
  endloop
endfacet
facet normal -3.258844724482353e-15 1.0 -5.009859913372178e-13
  outer loop
    vertex -1.7928932188132876 -49.36816899999986 1.505719012115971
    vertex -2.4999999999998472 -49.3681690000001 1.00571901211598
    vertex -2.499999999999848 -49.36816899999986 1.5057190121159763
  endloop
endfacet
facet normal 3.1363800445676173e-15 -1.0 5.011109142402898e-13
  outer loop
    vertex 2.500000000000119 -38.868169000000094 1.0057190121107182
    vertex 1.7928932188135587 -38.86816899999984 1.50571901211071
    vertex 1.7928932188135587 -38.868169000000094 1.0057190121107138
  endloop
endfacet
facet normal 3.1363800445676173e-15 -1.0 5.011109142402898e-13
  outer loop
    vertex 1.7928932188135587 -38.86816899999984 1.50571901211071
    vertex 2.500000000000119 -38.868169000000094 1.0057190121107182
    vertex 2.500000000000119 -38.868168999999845 1.5057190121107145
  endloop
endfacet
facet normal 1.4525122781621053e-15 -0.8320502943375656 0.5547001962256464
  outer loop
    vertex -1.7928932188133002 -38.86816899999899 3.2557190121106974
    vertex -2.4999999999998606 -39.368168999999355 2.505719012110965
    vertex -1.2928932188133238 -39.36816899999935 2.505719012110963
  endloop
endfacet
facet normal 1.4525122781621053e-15 -0.8320502943375656 0.5547001962256464
  outer loop
    vertex -2.4999999999998606 -39.368168999999355 2.505719012110965
    vertex -1.7928932188133002 -38.86816899999899 3.2557190121106974
    vertex -2.4999999999998606 -38.868168999998986 3.255719012110697
  endloop
endfacet
facet normal -0.7071067811865535 0.7071067811865416 -3.527817380859404e-13
  outer loop
    vertex -1.792893218813287 -49.3681690000001 1.0057190121159745
    vertex -0.792893218813295 -48.36816899999917 2.8807190121154687
    vertex -0.7928932188133112 -48.368169000000115 1.0057190121154775
  endloop
endfacet
facet normal -0.7071067811865535 0.7071067811865416 -3.527817380859404e-13
  outer loop
    vertex -0.792893218813295 -48.36816899999917 2.8807190121154687
    vertex -1.792893218813287 -49.3681690000001 1.0057190121159745
    vertex -1.292893218813294 -48.86816899999937 2.505719012115723
  endloop
endfacet
facet normal -0.7071067811865535 0.7071067811865416 -3.527817380859404e-13
  outer loop
    vertex -1.292893218813294 -48.86816899999937 2.505719012115723
    vertex -1.792893218813287 -49.3681690000001 1.0057190121159745
    vertex -1.7928932188132876 -49.36816899999986 1.505719012115971
  endloop
endfacet
facet normal -0.7071067811865535 0.7071067811865416 -3.527817380859404e-13
  outer loop
    vertex -1.7928932188132876 -49.36816899999898 3.2557190121159603
    vertex -0.792893218813295 -48.36816899999917 2.8807190121154687
    vertex -1.292893218813294 -48.86816899999937 2.505719012115723
  endloop
endfacet
facet normal 5.829400602694806e-16 5.904394588016279e-13 1.0
  outer loop
    vertex 2.500000000000131 -49.368168999998964 3.255719012115959
    vertex -2.4999999999998366 -50.36816899999897 3.255719012116472
    vertex 2.5000000000001426 -50.368168999998964 3.255719012116465
  endloop
endfacet
facet normal 5.829400602694806e-16 5.904394588016279e-13 1.0
  outer loop
    vertex -2.4999999999998366 -50.36816899999897 3.255719012116472
    vertex 2.500000000000131 -49.368168999998964 3.255719012115959
    vertex 1.7928932188135702 -49.368168999998964 3.255719012115959
  endloop
endfacet
facet normal 5.829400602694806e-16 5.904394588016279e-13 1.0
  outer loop
    vertex -2.4999999999998366 -50.36816899999897 3.255719012116472
    vertex 1.7928932188135702 -49.368168999998964 3.255719012115959
    vertex -1.7928932188132876 -49.36816899999898 3.2557190121159603
  endloop
endfacet
facet normal 5.829400602694806e-16 5.904394588016279e-13 1.0
  outer loop
    vertex -2.4999999999998366 -50.36816899999897 3.255719012116472
    vertex -1.7928932188132876 -49.36816899999898 3.2557190121159603
    vertex -2.499999999999848 -49.368168999998986 3.2557190121159576
  endloop
endfacet
facet normal -4.45519960076943e-15 0.83205029433812 0.5547001962248149
  outer loop
    vertex -2.499999999999848 -48.86816899999937 2.505719012115726
    vertex -1.7928932188132876 -49.36816899999898 3.2557190121159603
    vertex -1.292893218813294 -48.86816899999937 2.505719012115723
  endloop
endfacet
facet normal -4.45519960076943e-15 0.83205029433812 0.5547001962248149
  outer loop
    vertex -1.7928932188132876 -49.36816899999898 3.2557190121159603
    vertex -2.499999999999848 -48.86816899999937 2.505719012115726
    vertex -2.499999999999848 -49.368168999998986 3.2557190121159576
  endloop
endfacet
facet normal -1.0 -3.2588447244810146e-15 2.670498664309593e-15
  outer loop
    vertex -2.4999999999998828 -37.868169000000584 0.005719012110199871
    vertex -2.499999999999871 -38.868169000000115 1.0057190121107193
    vertex -2.499999999999872 -37.86816899999899 3.2557190121102026
  endloop
endfacet
facet normal -1.0 -3.2588447244810146e-15 2.670498664309593e-15
  outer loop
    vertex -2.499999999999871 -38.868169000000115 1.0057190121107193
    vertex -2.4999999999998828 -37.868169000000584 0.005719012110199871
    vertex -2.499999999999836 -50.36816900000067 0.0057190121164763475
  endloop
endfacet
facet normal -1.0 -3.2588447244810146e-15 2.670498664309593e-15
  outer loop
    vertex -2.499999999999871 -38.868169000000115 1.0057190121107193
    vertex -2.499999999999836 -50.36816900000067 0.0057190121164763475
    vertex -2.4999999999998472 -49.3681690000001 1.00571901211598
  endloop
endfacet
facet normal -1.0 -3.2588447244810146e-15 2.670498664309593e-15
  outer loop
    vertex -2.4999999999998472 -49.3681690000001 1.00571901211598
    vertex -2.499999999999836 -50.36816900000067 0.0057190121164763475
    vertex -2.499999999999848 -49.36816899999986 1.5057190121159763
  endloop
endfacet
facet normal -1.0 -3.2588447244810146e-15 2.670498664309593e-15
  outer loop
    vertex -2.499999999999848 -49.36816899999986 1.5057190121159763
    vertex -2.499999999999836 -50.36816900000067 0.0057190121164763475
    vertex -2.499999999999848 -49.368168999998986 3.2557190121159576
  endloop
endfacet
facet normal -1.0 -3.2588447244810146e-15 2.670498664309593e-15
  outer loop
    vertex -2.499999999999848 -49.368168999998986 3.2557190121159576
    vertex -2.499999999999836 -50.36816900000067 0.0057190121164763475
    vertex -2.4999999999998366 -50.36816899999897 3.255719012116472
  endloop
endfacet
facet normal -1.0 -3.2588447244810146e-15 2.670498664309593e-15
  outer loop
    vertex -2.499999999999848 -49.368168999998986 3.2557190121159576
    vertex -2.499999999999848 -48.86816899999937 2.505719012115726
    vertex -2.499999999999848 -49.36816899999986 1.5057190121159763
  endloop
endfacet
facet normal -1.0 -3.2588447244810146e-15 2.670498664309593e-15
  outer loop
    vertex -2.499999999999871 -38.868169000000115 1.0057190121107193
    vertex -2.4999999999998606 -38.868168999998986 3.255719012110697
    vertex -2.499999999999872 -37.86816899999899 3.2557190121102026
  endloop
endfacet
facet normal -1.0 -3.2588447244810146e-15 2.670498664309593e-15
  outer loop
    vertex -2.4999999999998606 -38.868168999998986 3.255719012110697
    vertex -2.499999999999871 -38.868169000000115 1.0057190121107193
    vertex -2.499999999999872 -38.86816899999987 1.5057190121107156
  endloop
endfacet
facet normal -1.0 -3.2588447244810146e-15 2.670498664309593e-15
  outer loop
    vertex -2.4999999999998606 -38.868168999998986 3.255719012110697
    vertex -2.499999999999872 -38.86816899999987 1.5057190121107156
    vertex -2.4999999999998606 -39.368168999999355 2.505719012110965
  endloop
endfacet
facet normal -1.600224128762955e-16 5.010772826268111e-13 1.0
  outer loop
    vertex 2.500000000000119 -38.868169000000094 1.0057190121107182
    vertex 1.7928932188135822 -49.36816900000009 1.005719012115973
    vertex 2.500000000000143 -49.36816900000009 1.0057190121159802
  endloop
endfacet
facet normal -1.600224128762955e-16 5.010772826268111e-13 1.0
  outer loop
    vertex 1.7928932188135822 -49.36816900000009 1.005719012115973
    vertex 2.500000000000119 -38.868169000000094 1.0057190121107182
    vertex 1.7928932188135587 -38.868169000000094 1.0057190121107138
  endloop
endfacet
facet normal -1.600224128762955e-16 5.010772826268111e-13 1.0
  outer loop
    vertex 1.7928932188135822 -49.36816900000009 1.005719012115973
    vertex 1.7928932188135587 -38.868169000000094 1.0057190121107138
    vertex 0.7928932188135953 -48.368169000000115 1.005719012115478
  endloop
endfacet
facet normal -1.600224128762955e-16 5.010772826268111e-13 1.0
  outer loop
    vertex 0.7928932188135953 -48.368169000000115 1.005719012115478
    vertex 1.7928932188135587 -38.868169000000094 1.0057190121107138
    vertex 0.7928932188135833 -39.86816900000009 1.0057190121112192
  endloop
endfacet
facet normal -1.600224128762955e-16 5.010772826268111e-13 1.0
  outer loop
    vertex 0.7928932188135953 -48.368169000000115 1.005719012115478
    vertex 0.7928932188135833 -39.86816900000009 1.0057190121112192
    vertex -0.7928932188133112 -48.368169000000115 1.0057190121154775
  endloop
endfacet
facet normal -1.600224128762955e-16 5.010772826268111e-13 1.0
  outer loop
    vertex -0.7928932188133112 -48.368169000000115 1.0057190121154775
    vertex 0.7928932188135833 -39.86816900000009 1.0057190121112192
    vertex -0.7928932188133239 -39.86816900000009 1.0057190121112187
  endloop
endfacet
facet normal -1.600224128762955e-16 5.010772826268111e-13 1.0
  outer loop
    vertex -0.7928932188133112 -48.368169000000115 1.0057190121154775
    vertex -0.7928932188133239 -39.86816900000009 1.0057190121112187
    vertex -1.792893218813287 -49.3681690000001 1.0057190121159745
  endloop
endfacet
facet normal -1.600224128762955e-16 5.010772826268111e-13 1.0
  outer loop
    vertex -1.792893218813287 -49.3681690000001 1.0057190121159745
    vertex -0.7928932188133239 -39.86816900000009 1.0057190121112187
    vertex -1.7928932188133109 -38.868169000000115 1.0057190121107111
  endloop
endfacet
facet normal -1.600224128762955e-16 5.010772826268111e-13 1.0
  outer loop
    vertex -1.792893218813287 -49.3681690000001 1.0057190121159745
    vertex -1.7928932188133109 -38.868169000000115 1.0057190121107111
    vertex -2.4999999999998472 -49.3681690000001 1.00571901211598
  endloop
endfacet
facet normal -1.600224128762955e-16 5.010772826268111e-13 1.0
  outer loop
    vertex -2.4999999999998472 -49.3681690000001 1.00571901211598
    vertex -1.7928932188133109 -38.868169000000115 1.0057190121107111
    vertex -2.499999999999871 -38.868169000000115 1.0057190121107193
  endloop
endfacet
facet normal 4.250739775538875e-15 -0.8944271910001445 -0.4472135954995011
  outer loop
    vertex 2.500000000000119 -38.868168999999845 1.5057190121107145
    vertex 1.2928932188135647 -39.36816899999934 2.5057190121109634
    vertex 1.7928932188135587 -38.86816899999984 1.50571901211071
  endloop
endfacet
facet normal 4.250739775538875e-15 -0.8944271910001445 -0.4472135954995011
  outer loop
    vertex 1.2928932188135647 -39.36816899999934 2.5057190121109634
    vertex 2.500000000000119 -38.868168999999845 1.5057190121107145
    vertex 2.5000000000001186 -39.36816899999934 2.5057190121109656
  endloop
endfacet
facet normal 1.5402558622765298e-15 -0.894427191000145 -0.4472135954994997
  outer loop
    vertex -1.2928932188133238 -39.36816899999935 2.505719012110963
    vertex -2.499999999999872 -38.86816899999987 1.5057190121107156
    vertex -1.7928932188133115 -38.86816899999987 1.5057190121107074
  endloop
endfacet
facet normal 1.5402558622765298e-15 -0.894427191000145 -0.4472135954994997
  outer loop
    vertex -2.499999999999872 -38.86816899999987 1.5057190121107156
    vertex -1.2928932188133238 -39.36816899999935 2.505719012110963
    vertex -2.4999999999998606 -39.368168999999355 2.505719012110965
  endloop
endfacet
facet normal -5.555913843451455e-16 1.0 -5.035844911391522e-13
  outer loop
    vertex -0.792893218813295 -48.36816899999917 2.8807190121154687
    vertex 0.7928932188135953 -48.368169000000115 1.005719012115478
    vertex -0.7928932188133112 -48.368169000000115 1.0057190121154775
  endloop
endfacet
facet normal -5.555913843451455e-16 1.0 -5.035844911391522e-13
  outer loop
    vertex 0.7928932188135953 -48.368169000000115 1.005719012115478
    vertex -0.792893218813295 -48.36816899999917 2.8807190121154687
    vertex 0.792893218813589 -48.36816899999916 2.8807190121154687
  endloop
endfacet
facet normal 0.7071067811865533 -0.7071067811865417 3.559199337189479e-13
  outer loop
    vertex 0.7928932188135657 -39.868168999999156 2.8807190121112103
    vertex 1.2928932188135647 -39.36816899999934 2.5057190121109634
    vertex 1.7928932188135578 -38.86816899999897 3.255719012110701
  endloop
endfacet
facet normal 0.7071067811865533 -0.7071067811865417 3.559199337189479e-13
  outer loop
    vertex 1.2928932188135647 -39.36816899999934 2.5057190121109634
    vertex 0.7928932188135657 -39.868168999999156 2.8807190121112103
    vertex 0.7928932188135833 -39.86816900000009 1.0057190121112192
  endloop
endfacet
facet normal 0.7071067811865533 -0.7071067811865417 3.559199337189479e-13
  outer loop
    vertex 1.7928932188135587 -38.86816899999984 1.50571901211071
    vertex 0.7928932188135833 -39.86816900000009 1.0057190121112192
    vertex 1.7928932188135587 -38.868169000000094 1.0057190121107138
  endloop
endfacet
facet normal 0.7071067811865533 -0.7071067811865417 3.559199337189479e-13
  outer loop
    vertex 0.7928932188135833 -39.86816900000009 1.0057190121112192
    vertex 1.7928932188135587 -38.86816899999984 1.50571901211071
    vertex 1.2928932188135647 -39.36816899999934 2.5057190121109634
  endloop
endfacet
facet normal -1.161989280666507e-15 0.3511234415888555 0.9363291775688707
  outer loop
    vertex 0.792893218813589 -48.36816899999916 2.8807190121154687
    vertex -1.7928932188132876 -49.36816899999898 3.2557190121159603
    vertex 1.7928932188135702 -49.368168999998964 3.255719012115959
  endloop
endfacet
facet normal -1.161989280666507e-15 0.3511234415888555 0.9363291775688707
  outer loop
    vertex -1.7928932188132876 -49.36816899999898 3.2557190121159603
    vertex 0.792893218813589 -48.36816899999916 2.8807190121154687
    vertex -0.792893218813295 -48.36816899999917 2.8807190121154687
  endloop
endfacet
facet normal -6.377614485904388e-15 1.0 -6.585524953803131e-13
  outer loop
    vertex -2.499999999999872 -37.86816899999899 3.2557190121102026
    vertex 2.5000000000001084 -37.86816900000054 0.005719012110212751
    vertex -2.4999999999998828 -37.868169000000584 0.005719012110199871
  endloop
endfacet
facet normal -6.377614485904388e-15 1.0 -6.585524953803131e-13
  outer loop
    vertex 2.5000000000001084 -37.86816900000054 0.005719012110212751
    vertex -2.499999999999872 -37.86816899999899 3.2557190121102026
    vertex 2.500000000000107 -37.86816899999897 3.2557190121102098
  endloop
endfacet
facet normal 6.063246727752179e-16 -0.35112344158791636 0.9363291775692227
  outer loop
    vertex -1.7928932188133002 -38.86816899999899 3.2557190121106974
    vertex 0.7928932188135657 -39.868168999999156 2.8807190121112103
    vertex 1.7928932188135578 -38.86816899999897 3.255719012110701
  endloop
endfacet
facet normal 6.063246727752179e-16 -0.35112344158791636 0.9363291775692227
  outer loop
    vertex 0.7928932188135657 -39.868168999999156 2.8807190121112103
    vertex -1.7928932188133002 -38.86816899999899 3.2557190121106974
    vertex -0.792893218813319 -39.868168999999156 2.88071901211121
  endloop
endfacet
facet normal 3.8428789057367985e-15 -1.0 5.023959745784918e-13
  outer loop
    vertex -1.7928932188133115 -38.86816899999987 1.5057190121107074
    vertex -2.499999999999871 -38.868169000000115 1.0057190121107193
    vertex -1.7928932188133109 -38.868169000000115 1.0057190121107111
  endloop
endfacet
facet normal 3.8428789057367985e-15 -1.0 5.023959745784918e-13
  outer loop
    vertex -2.499999999999871 -38.868169000000115 1.0057190121107193
    vertex -1.7928932188133115 -38.86816899999987 1.5057190121107074
    vertex -2.499999999999872 -38.86816899999987 1.5057190121107156
  endloop
endfacet
facet normal -3.720414225822063e-15 1.0 -4.997009309990158e-13
  outer loop
    vertex 1.7928932188135822 -49.368168999999845 1.5057190121159691
    vertex 2.500000000000143 -49.36816900000009 1.0057190121159802
    vertex 1.7928932188135822 -49.36816900000009 1.005719012115973
  endloop
endfacet
facet normal -3.720414225822063e-15 1.0 -4.997009309990158e-13
  outer loop
    vertex 2.500000000000143 -49.36816900000009 1.0057190121159802
    vertex 1.7928932188135822 -49.368168999999845 1.5057190121159691
    vertex 2.5000000000001426 -49.36816899999983 1.5057190121159765
  endloop
endfacet
facet normal -4.289342803370794e-15 0.8944271909996963 -0.4472135955003974
  outer loop
    vertex -2.499999999999848 -49.36816899999986 1.5057190121159763
    vertex -1.292893218813294 -48.86816899999937 2.505719012115723
    vertex -1.7928932188132876 -49.36816899999986 1.505719012115971
  endloop
endfacet
facet normal -4.289342803370794e-15 0.8944271909996963 -0.4472135955003974
  outer loop
    vertex -1.292893218813294 -48.86816899999937 2.505719012115723
    vertex -2.499999999999848 -49.36816899999986 1.5057190121159763
    vertex -2.499999999999848 -48.86816899999937 2.505719012115726
  endloop
endfacet
facet normal -9.852044292219342e-16 4.921166274437453e-13 1.0
  outer loop
    vertex 2.500000000000107 -37.86816899999897 3.2557190121102098
    vertex 1.7928932188135578 -38.86816899999897 3.255719012110701
    vertex 2.5000000000001186 -38.868168999998964 3.2557190121106987
  endloop
endfacet
facet normal -9.852044292219342e-16 4.921166274437453e-13 1.0
  outer loop
    vertex 1.7928932188135578 -38.86816899999897 3.255719012110701
    vertex 2.500000000000107 -37.86816899999897 3.2557190121102098
    vertex -2.499999999999872 -37.86816899999899 3.2557190121102026
  endloop
endfacet
facet normal -9.852044292219342e-16 4.921166274437453e-13 1.0
  outer loop
    vertex 1.7928932188135578 -38.86816899999897 3.255719012110701
    vertex -2.499999999999872 -37.86816899999899 3.2557190121102026
    vertex -1.7928932188133002 -38.86816899999899 3.2557190121106974
  endloop
endfacet
facet normal -9.852044292219342e-16 4.921166274437453e-13 1.0
  outer loop
    vertex -1.7928932188133002 -38.86816899999899 3.2557190121106974
    vertex -2.499999999999872 -37.86816899999899 3.2557190121102026
    vertex -2.4999999999998606 -38.868168999998986 3.255719012110697
  endloop
endfacet
facet normal 6.220949681317076e-15 -1.0 6.777861129277379e-13
  outer loop
    vertex 2.5000000000001426 -50.368168999998964 3.255719012116465
    vertex -2.499999999999836 -50.36816900000067 0.0057190121164763475
    vertex 2.5000000000001545 -50.36816900000063 0.005719012116462438
  endloop
endfacet
facet normal 6.220949681317076e-15 -1.0 6.777861129277379e-13
  outer loop
    vertex -2.499999999999836 -50.36816900000067 0.0057190121164763475
    vertex 2.5000000000001426 -50.368168999998964 3.255719012116465
    vertex -2.4999999999998366 -50.36816899999897 3.255719012116472
  endloop
endfacet
facet normal 0.7071067811865468 0.7071067811865482 -3.5291705856746457e-13
  outer loop
    vertex 0.7928932188135953 -48.368169000000115 1.005719012115478
    vertex 1.7928932188135822 -49.368168999999845 1.5057190121159691
    vertex 1.7928932188135822 -49.36816900000009 1.005719012115973
  endloop
endfacet
facet normal 0.7071067811865468 0.7071067811865482 -3.5291705856746457e-13
  outer loop
    vertex 1.7928932188135822 -49.368168999999845 1.5057190121159691
    vertex 0.7928932188135953 -48.368169000000115 1.005719012115478
    vertex 0.792893218813589 -48.36816899999916 2.8807190121154687
  endloop
endfacet
facet normal 0.7071067811865468 0.7071067811865482 -3.5291705856746457e-13
  outer loop
    vertex 1.7928932188135822 -49.368168999999845 1.5057190121159691
    vertex 0.792893218813589 -48.36816899999916 2.8807190121154687
    vertex 1.292893218813594 -48.868168999999355 2.505719012115724
  endloop
endfacet
facet normal 0.7071067811865468 0.7071067811865482 -3.5291705856746457e-13
  outer loop
    vertex 1.292893218813594 -48.868168999999355 2.505719012115724
    vertex 0.792893218813589 -48.36816899999916 2.8807190121154687
    vertex 1.7928932188135702 -49.368168999998964 3.255719012115959
  endloop
endfacet
facet normal 1.0001604662272855e-15 -1.0 4.978192263303875e-13
  outer loop
    vertex 0.7928932188135657 -39.868168999999156 2.8807190121112103
    vertex -0.7928932188133239 -39.86816900000009 1.0057190121112187
    vertex 0.7928932188135833 -39.86816900000009 1.0057190121112192
  endloop
endfacet
facet normal 1.0001604662272855e-15 -1.0 4.978192263303875e-13
  outer loop
    vertex -0.7928932188133239 -39.86816900000009 1.0057190121112187
    vertex 0.7928932188135657 -39.868168999999156 2.8807190121112103
    vertex -0.792893218813319 -39.868168999999156 2.88071901211121
  endloop
endfacet
facet normal -0.7071067811865467 -0.7071067811865483 3.5556030430746385e-13
  outer loop
    vertex -0.792893218813319 -39.868168999999156 2.88071901211121
    vertex -1.7928932188133109 -38.868169000000115 1.0057190121107111
    vertex -0.7928932188133239 -39.86816900000009 1.0057190121112187
  endloop
endfacet
facet normal -0.7071067811865467 -0.7071067811865483 3.5556030430746385e-13
  outer loop
    vertex -1.7928932188133109 -38.868169000000115 1.0057190121107111
    vertex -0.792893218813319 -39.868168999999156 2.88071901211121
    vertex -1.7928932188133115 -38.86816899999987 1.5057190121107074
  endloop
endfacet
facet normal -0.7071067811865467 -0.7071067811865483 3.5556030430746385e-13
  outer loop
    vertex -1.7928932188133115 -38.86816899999987 1.5057190121107074
    vertex -0.792893218813319 -39.868168999999156 2.88071901211121
    vertex -1.2928932188133238 -39.36816899999935 2.505719012110963
  endloop
endfacet
facet normal -0.7071067811865467 -0.7071067811865483 3.5556030430746385e-13
  outer loop
    vertex -1.2928932188133238 -39.36816899999935 2.505719012110963
    vertex -0.792893218813319 -39.868168999999156 2.88071901211121
    vertex -1.7928932188133002 -38.86816899999899 3.2557190121106974
  endloop
endfacet
facet normal 1.6338002115887274e-16 -6.680825359544649e-13 -1.0
  outer loop
    vertex -2.499999999999836 -50.36816900000067 0.0057190121164763475
    vertex 2.5000000000001084 -37.86816900000054 0.005719012110212751
    vertex 2.5000000000001545 -50.36816900000063 0.005719012116462438
  endloop
endfacet
facet normal 1.6338002115887274e-16 -6.680825359544649e-13 -1.0
  outer loop
    vertex 2.5000000000001084 -37.86816900000054 0.005719012110212751
    vertex -2.499999999999836 -50.36816900000067 0.0057190121164763475
    vertex -2.4999999999998828 -37.868169000000584 0.005719012110199871
  endloop
endfacet
endsolid ProtoGlove
