solid ProtoGlove baseplate
facet normal 0.9284766908852983 0.37139067635400663 6.054651578782969e-13
  outer loop
    vertex 431.97439736232724 183.51412088485554 103.451964028176
    vertex 431.40269544699925 184.94337567318163 101.50000000039273
    vertex 431.1329590781707 185.61771659525436 101.50000000039401
  endloop
endfacet
facet normal 0.9284766908852983 0.37139067635400663 6.054651578782969e-13
  outer loop
    vertex 431.40269544699925 184.94337567318163 101.50000000039273
    vertex 431.97439736232724 183.51412088485554 103.451964028176
    vertex 431.9800457161887 183.50000000020788 100.50000000038985
  endloop
endfacet
facet normal 0.9284766908852983 0.37139067635400663 6.054651578782969e-13
  outer loop
    vertex 431.9800457161887 183.50000000020788 100.50000000038985
    vertex 431.97439736232724 183.51412088485554 103.451964028176
    vertex 432.23964030960343 182.85101351666123 104.1491525850971
  endloop
endfacet
facet normal 0.9284766908852983 0.37139067635400663 6.054651578782969e-13
  outer loop
    vertex 431.9800457161887 183.50000000020788 100.50000000038985
    vertex 434.32327606319893 177.64192413266886 109.01067248755722
    vertex 431.9800457161887 183.50000000020873 100.00000000038987
  endloop
endfacet
facet normal 0.9284766908852983 0.37139067635400663 6.054651578782969e-13
  outer loop
    vertex 434.32327606319893 177.64192413266886 109.01067248755722
    vertex 431.9800457161887 183.50000000020788 100.50000000038985
    vertex 432.23964030960343 182.85101351666123 104.1491525850971
  endloop
endfacet
facet normal 0.9284766908852983 0.37139067635400663 6.054651578782969e-13
  outer loop
    vertex 434.32327606319893 177.64192413266886 109.01067248755722
    vertex 432.23964030960343 182.85101351666123 104.1491525850971
    vertex 432.7321037864974 181.61985482442734 105.61528875738183
  endloop
endfacet
facet normal 0.9284766908852983 0.37139067635400663 6.054651578782969e-13
  outer loop
    vertex 434.32327606319893 177.64192413266886 109.01067248755722
    vertex 432.7321037864974 181.61985482442734 105.61528875738183
    vertex 432.96317361199493 181.04218026068227 106.39569629250795
  endloop
endfacet
facet normal 0.9284766908852983 0.37139067635400663 6.054651578782969e-13
  outer loop
    vertex 434.32327606319893 177.64192413266886 109.01067248755722
    vertex 432.96317361199493 181.04218026068227 106.39569629250795
    vertex 433.54740650459496 179.58159802917908 108.64230907565414
  endloop
endfacet
facet normal 0.9284766908852983 0.37139067635400663 6.054651578782969e-13
  outer loop
    vertex 434.32327606319893 177.64192413266886 109.01067248755722
    vertex 433.54740650459496 179.58159802917908 108.64230907565414
    vertex 434.0951069893739 178.2123468172274 109.44085481482162
  endloop
endfacet
facet normal -0.9284766908854144 -0.37139067635371614 -7.621253447871075e-13
  outer loop
    vertex 414.5821270719872 173.1431485393606 104.50533624395773
    vertex 413.41051189848184 176.07218647313258 101.50000000037286
    vertex 413.41051189848184 176.0721864731353 100.00000000037284
  endloop
endfacet
facet normal -0.9284766908854144 -0.37139067635371614 -7.621253447871075e-13
  outer loop
    vertex 413.41051189848184 176.07218647313258 101.50000000037286
    vertex 414.5821270719872 173.1431485393606 104.50533624395773
    vertex 413.67010649189695 175.42319998958766 104.14915258508015
  endloop
endfacet
facet normal -0.9284766908854144 -0.37139067635371614 -7.621253447871075e-13
  outer loop
    vertex 413.67010649189695 175.42319998958766 104.14915258508015
    vertex 414.5821270719872 173.1431485393606 104.50533624395773
    vertex 414.09697969191507 174.35601698953943 105.42001686008194
  endloop
endfacet
facet normal -0.9284766908854144 -0.37139067635371614 -7.621253447871075e-13
  outer loop
    vertex 413.41051189848184 176.07218647313258 101.50000000037286
    vertex 413.0511719766257 176.97053627777262 102.63147222186123
    vertex 412.74799490862017 177.7284789477895 101.5000000003773
  endloop
endfacet
facet normal -0.9284766908854144 -0.37139067635371614 -7.621253447871075e-13
  outer loop
    vertex 413.0511719766257 176.97053627777262 102.63147222186123
    vertex 413.41051189848184 176.07218647313258 101.50000000037286
    vertex 413.40486354462035 176.08630735778232 103.45196402815905
  endloop
endfacet
facet normal -0.9284766908854144 -0.37139067635371614 -7.621253447871075e-13
  outer loop
    vertex 413.40486354462035 176.08630735778232 103.45196402815905
    vertex 413.41051189848184 176.07218647313258 101.50000000037286
    vertex 413.67010649189695 175.42319998958766 104.14915258508015
  endloop
endfacet
facet normal 0.3042254317651116 -0.7605635794122262 -0.5735764363526398
  outer loop
    vertex 425.0385091543458 173.9280173691272 109.0106724875499
    vertex 431.9800457161887 183.50000000020873 100.00000000038987
    vertex 434.32327606319893 177.64192413266886 109.01067248755722
  endloop
endfacet
facet normal 0.3042254317651116 -0.7605635794122262 -0.5735764363526398
  outer loop
    vertex 431.9800457161887 183.50000000020873 100.00000000038987
    vertex 425.0385091543458 173.9280173691272 109.0106724875499
    vertex 414.5821270719872 173.1431485393606 104.50533624395773
  endloop
endfacet
facet normal 0.3042254317651116 -0.7605635794122262 -0.5735764363526398
  outer loop
    vertex 431.9800457161887 183.50000000020873 100.00000000038987
    vertex 414.5821270719872 173.1431485393606 104.50533624395773
    vertex 430.1230923344185 182.75721864749988 100.00000000038831
  endloop
endfacet
facet normal 0.3042254317651116 -0.7605635794122262 -0.5735764363526398
  outer loop
    vertex 430.1230923344185 182.75721864749988 100.00000000038831
    vertex 414.5821270719872 173.1431485393606 104.50533624395773
    vertex 413.41051189848184 176.0721864731353 100.00000000037284
  endloop
endfacet
facet normal -0.2594308940660914 0.6485772351644593 0.7155719259658628
  outer loop
    vertex 413.67010649189695 175.42319998958766 104.14915258508015
    vertex 431.97439736232724 183.51412088485554 103.451964028176
    vertex 413.40486354462035 176.08630735778232 103.45196402815905
  endloop
endfacet
facet normal -0.2594308940660914 0.6485772351644593 0.7155719259658628
  outer loop
    vertex 431.97439736232724 183.51412088485554 103.451964028176
    vertex 413.67010649189695 175.42319998958766 104.14915258508015
    vertex 432.23964030960343 182.85101351666123 104.1491525850971
  endloop
endfacet
facet normal -0.29039751522507024 0.7259937880618238 0.6233797420888402
  outer loop
    vertex 432.7321037864974 181.61985482442734 105.61528875738183
    vertex 416.51629316209886 174.46342808072288 106.39569629249506
    vertex 432.96317361199493 181.04218026068227 106.39569629250795
  endloop
endfacet
facet normal -0.29039751522507024 0.7259937880618238 0.6233797420888402
  outer loop
    vertex 416.51629316209886 174.46342808072288 106.39569629249506
    vertex 432.7321037864974 181.61985482442734 105.61528875738183
    vertex 414.6036050348414 174.36845532377413 105.61528875736549
  endloop
endfacet
facet normal -0.30422543176539557 0.7605635794123119 0.5735764363523753
  outer loop
    vertex 432.96317361199493 181.04218026068227 106.39569629250795
    vertex 421.7304304387825 174.8548076028539 108.64230907564496
    vertex 433.54740650459496 179.58159802917908 108.64230907565414
  endloop
endfacet
facet normal -0.30422543176539557 0.7605635794123119 0.5735764363523753
  outer loop
    vertex 421.7304304387825 174.8548076028539 108.64230907564496
    vertex 432.96317361199493 181.04218026068227 106.39569629250795
    vertex 416.51629316209886 174.46342808072288 106.39569629249506
  endloop
endfacet
facet normal -0.24241192656308033 0.6060298164068195 0.7576043291097883
  outer loop
    vertex 413.0511719766257 176.97053627777262 102.63147222186123
    vertex 431.1329590781707 185.61771659525436 101.50000000039401
    vertex 412.74799490862017 178.2637309274434 101.5000000003784
  endloop
endfacet
facet normal -0.24241192656308033 0.6060298164068195 0.7576043291097883
  outer loop
    vertex 431.1329590781707 185.61771659525436 101.50000000039401
    vertex 413.0511719766257 176.97053627777262 102.63147222186123
    vertex 413.40486354462035 176.08630735778232 103.45196402815905
  endloop
endfacet
facet normal -0.24241192656308033 0.6060298164068195 0.7576043291097883
  outer loop
    vertex 431.1329590781707 185.61771659525436 101.50000000039401
    vertex 413.40486354462035 176.08630735778232 103.45196402815905
    vertex 431.97439736232724 183.51412088485554 103.451964028176
  endloop
endfacet
facet normal -0.26079798899660805 -0.6456109730961989 0.7177540528294525
  outer loop
    vertex 414.5821270719872 173.1431485393606 104.50533624395773
    vertex 414.6036050348414 174.36845532377413 105.61528875736549
    vertex 414.09697969191507 174.35601698953943 105.42001686008194
  endloop
endfacet
facet normal -0.26079798899660805 -0.6456109730961989 0.7177540528294525
  outer loop
    vertex 414.6036050348414 174.36845532377413 105.61528875736549
    vertex 414.5821270719872 173.1431485393606 104.50533624395773
    vertex 425.0385091543458 173.9280173691272 109.0106724875499
  endloop
endfacet
facet normal -0.26079798899660805 -0.6456109730961989 0.7177540528294525
  outer loop
    vertex 414.6036050348414 174.36845532377413 105.61528875736549
    vertex 425.0385091543458 173.9280173691272 109.0106724875499
    vertex 416.51629316209886 174.46342808072288 106.39569629249506
  endloop
endfacet
facet normal -0.26079798899660805 -0.6456109730961989 0.7177540528294525
  outer loop
    vertex 416.51629316209886 174.46342808072288 106.39569629249506
    vertex 425.0385091543458 173.9280173691272 109.0106724875499
    vertex 421.7304304387825 174.8548076028539 108.64230907564496
  endloop
endfacet
facet normal -0.26079798899660805 -0.6456109730961989 0.7177540528294525
  outer loop
    vertex 421.7304304387825 174.8548076028539 108.64230907564496
    vertex 425.0385091543458 173.9280173691272 109.0106724875499
    vertex 424.81034008052177 174.49844005368647 109.44085481481454
  endloop
endfacet
facet normal -0.17684163758544091 0.44210409396188766 0.8793582917777247
  outer loop
    vertex 424.81034008052177 174.49844005368647 109.44085481481454
    vertex 433.54740650459496 179.58159802917908 108.64230907565414
    vertex 421.7304304387825 174.8548076028539 108.64230907564496
  endloop
endfacet
facet normal -0.17684163758544091 0.44210409396188766 0.8793582917777247
  outer loop
    vertex 433.54740650459496 179.58159802917908 108.64230907565414
    vertex 424.81034008052177 174.49844005368647 109.44085481481454
    vertex 434.0951069893739 178.2123468172274 109.44085481482162
  endloop
endfacet
facet normal -0.275446732839898 0.6886168320991135 0.6707726559107842
  outer loop
    vertex 432.23964030960343 182.85101351666123 104.1491525850971
    vertex 414.6036050348414 174.36845532377413 105.61528875736549
    vertex 432.7321037864974 181.61985482442734 105.61528875738183
  endloop
endfacet
facet normal -0.275446732839898 0.6886168320991135 0.6707726559107842
  outer loop
    vertex 414.6036050348414 174.36845532377413 105.61528875736549
    vertex 432.23964030960343 182.85101351666123 104.1491525850971
    vertex 414.09697969191507 174.35601698953943 105.42001686008194
  endloop
endfacet
facet normal -0.275446732839898 0.6886168320991135 0.6707726559107842
  outer loop
    vertex 414.09697969191507 174.35601698953943 105.42001686008194
    vertex 432.23964030960343 182.85101351666123 104.1491525850971
    vertex 413.67010649189695 175.42319998958766 104.14915258508015
  endloop
endfacet
facet normal 0.21302094063727192 -0.5325523515947401 0.8191520442878257
  outer loop
    vertex 425.0385091543458 173.9280173691272 109.0106724875499
    vertex 434.0951069893739 178.2123468172274 109.44085481482162
    vertex 424.81034008052177 174.49844005368647 109.44085481481454
  endloop
endfacet
facet normal 0.21302094063727192 -0.5325523515947401 0.8191520442878257
  outer loop
    vertex 434.0951069893739 178.2123468172274 109.44085481482162
    vertex 425.0385091543458 173.9280173691272 109.0106724875499
    vertex 434.32327606319893 177.64192413266886 109.01067248755722
  endloop
endfacet
facet normal -6.618667768213166e-16 0.8660254037834396 0.5000000000017302
  outer loop
    vertex 411.4800457161889 188.00000000020793 100.5000000003986
    vertex 382.9800457161889 187.4226497310162 101.50000000039743
    vertex 411.21209652375774 187.4226497310162 101.50000000039743
  endloop
endfacet
facet normal -6.618667768213166e-16 0.8660254037834396 0.5000000000017302
  outer loop
    vertex 382.9800457161889 187.4226497310162 101.50000000039743
    vertex 411.4800457161889 188.00000000020793 100.5000000003986
    vertex 381.9800457161887 188.00000000020793 100.5000000003986
  endloop
endfacet
facet normal 0.0 -1.9698374875698473e-12 1.0
  outer loop
    vertex 411.4800457161889 188.00000000020793 100.5000000003986
    vertex 381.9800457161887 189.00000000020788 100.50000000040056
    vertex 381.9800457161887 188.00000000020793 100.5000000003986
  endloop
endfacet
facet normal 0.0 -1.9698374875698473e-12 1.0
  outer loop
    vertex 381.9800457161887 189.00000000020788 100.50000000040056
    vertex 411.4800457161889 188.00000000020793 100.5000000003986
    vertex 411.9800457161888 189.00000000020788 100.50000000040056
  endloop
endfacet
facet normal 0.0 -1.9698374875698473e-12 1.0
  outer loop
    vertex 411.9800457161888 189.00000000020788 100.50000000040056
    vertex 411.4800457161889 188.00000000020793 100.5000000003986
    vertex 412.48004571618867 189.00000000020788 100.50000000040056
  endloop
endfacet
facet normal -5.522512515075179e-16 -0.8660254037854109 0.49999999999831607
  outer loop
    vertex 381.9800457161887 189.00000000020788 100.50000000040056
    vertex 412.7479949086198 189.57735026939565 101.50000000040173
    vertex 382.9800457161889 189.57735026939565 101.50000000040173
  endloop
endfacet
facet normal -5.522512515075179e-16 -0.8660254037854109 0.49999999999831607
  outer loop
    vertex 412.7479949086198 189.57735026939565 101.50000000040173
    vertex 381.9800457161887 189.00000000020788 100.50000000040056
    vertex 412.48004571618867 189.00000000020788 100.50000000040056
  endloop
endfacet
facet normal -5.522512515075179e-16 -0.8660254037854109 0.49999999999831607
  outer loop
    vertex 412.48004571618867 189.00000000020788 100.50000000040056
    vertex 381.9800457161887 189.00000000020788 100.50000000040056
    vertex 411.9800457161888 189.00000000020788 100.50000000040056
  endloop
endfacet
facet normal -3.821149833001486e-15 -1.959808836131551e-12 1.0
  outer loop
    vertex 411.21209652375774 219.57735026939548 101.50000000046099
    vertex 387.993839471239 233.50000000020597 101.5000000004882
    vertex 385.6733978494369 219.57735026939548 101.5000000004609
  endloop
endfacet
facet normal -3.821149833001486e-15 -1.959808836131551e-12 1.0
  outer loop
    vertex 387.993839471239 233.50000000020597 101.5000000004882
    vertex 411.21209652375774 219.57735026939548 101.50000000046099
    vertex 406.980045716189 233.50000000020904 101.5000000004882
  endloop
endfacet
facet normal -3.821149833001486e-15 -1.959808836131551e-12 1.0
  outer loop
    vertex 406.980045716189 233.50000000020904 101.5000000004882
    vertex 411.21209652375774 219.57735026939548 101.50000000046099
    vertex 411.21209652375774 231.80717967717854 101.50000000048503
  endloop
endfacet
facet normal -0.9863939238321427 0.16439898730536395 2.0720209971478977e-13
  outer loop
    vertex 381.9800457161887 203.50000000020887 100.00000000042911
    vertex 386.98004571618884 233.50000000020788 100.50000000048824
    vertex 386.98004571618907 233.5000000002089 100.00000000048819
  endloop
endfacet
facet normal -0.9863939238321427 0.16439898730536395 2.0720209971478977e-13
  outer loop
    vertex 386.98004571618884 233.50000000020788 100.50000000048824
    vertex 381.9800457161887 203.50000000020887 100.00000000042911
    vertex 384.5633790495222 219.0000000002081 100.50000000045983
  endloop
endfacet
facet normal -0.9863939238321427 0.16439898730536395 2.0720209971478977e-13
  outer loop
    vertex 384.5633790495222 219.0000000002081 100.50000000045983
    vertex 381.9800457161887 203.50000000020887 100.00000000042911
    vertex 384.3967123828556 218.00000000020796 100.50000000045767
  endloop
endfacet
facet normal -0.9863939238321427 0.16439898730536395 2.0720209971478977e-13
  outer loop
    vertex 384.3967123828556 218.00000000020796 100.50000000045767
    vertex 381.9800457161887 203.50000000020887 100.00000000042911
    vertex 382.06337904952204 204.0000000002079 100.5000000004301
  endloop
endfacet
facet normal -0.9863939238321427 0.16439898730536395 2.0720209971478977e-13
  outer loop
    vertex 382.06337904952204 204.0000000002079 100.5000000004301
    vertex 381.9800457161887 203.50000000020887 100.00000000042911
    vertex 381.9800457161887 203.50000000020782 100.50000000042908
  endloop
endfacet
facet normal 0.0 -1.9698374875698473e-12 1.0
  outer loop
    vertex 411.9800457161888 218.00000000020796 100.50000000045767
    vertex 384.5633790495222 219.0000000002081 100.50000000045983
    vertex 384.3967123828556 218.00000000020796 100.50000000045767
  endloop
endfacet
facet normal 0.0 -1.9698374875698473e-12 1.0
  outer loop
    vertex 384.5633790495222 219.0000000002081 100.50000000045983
    vertex 411.9800457161888 218.00000000020796 100.50000000045767
    vertex 411.4800457161889 219.0000000002081 100.50000000045983
  endloop
endfacet
facet normal 0.0 -1.9698374875698473e-12 1.0
  outer loop
    vertex 411.4800457161889 219.0000000002081 100.50000000045983
    vertex 411.9800457161888 218.00000000020796 100.50000000045767
    vertex 412.48004571618867 218.00000000020796 100.50000000045767
  endloop
endfacet
facet normal -0.7071067811865398 -1.397427612041932e-12 0.7071067811865553
  outer loop
    vertex 382.9800457161889 189.57735026939565 101.50000000040173
    vertex 381.9800457161887 203.00000000020793 100.5000000004284
    vertex 381.9800457161887 189.00000000020788 100.50000000040056
  endloop
endfacet
facet normal -0.7071067811865398 -1.397427612041932e-12 0.7071067811865553
  outer loop
    vertex 381.9800457161887 203.00000000020793 100.5000000004284
    vertex 382.9800457161889 189.57735026939565 101.50000000040173
    vertex 382.9800457161889 202.42264973101624 101.50000000042724
  endloop
endfacet
facet normal 0.3713906763626282 -0.9284766908818496 -2.783279893804678e-12
  outer loop
    vertex 412.48004571618867 175.700000000208 100.50000000037438
    vertex 413.41051189848184 176.07218647313258 101.50000000037286
    vertex 412.74799490862017 175.80717967717845 101.50000000037468
  endloop
endfacet
facet normal 0.3713906763626282 -0.9284766908818496 -2.783279893804678e-12
  outer loop
    vertex 413.41051189848184 176.07218647313258 101.50000000037286
    vertex 412.48004571618867 175.700000000208 100.50000000037438
    vertex 413.41051189848184 176.0721864731353 100.00000000037284
  endloop
endfacet
facet normal 0.3713906763626282 -0.9284766908818496 -2.783279893804678e-12
  outer loop
    vertex 413.41051189848184 176.0721864731353 100.00000000037284
    vertex 412.48004571618867 175.700000000208 100.50000000037438
    vertex 412.48004571618867 175.70000000020906 100.00000000037431
  endloop
endfacet
facet normal 0.0 -1.9698374875698473e-12 1.0
  outer loop
    vertex 431.9800457161889 203.00000000020793 100.5000000004284
    vertex 381.9800457161887 203.50000000020782 100.50000000042908
    vertex 381.9800457161887 203.00000000020793 100.5000000004284
  endloop
endfacet
facet normal 0.0 -1.9698374875698473e-12 1.0
  outer loop
    vertex 381.9800457161887 203.50000000020782 100.50000000042908
    vertex 431.9800457161889 203.00000000020793 100.5000000004284
    vertex 382.06337904952204 204.0000000002079 100.5000000004301
  endloop
endfacet
facet normal 0.0 -1.9698374875698473e-12 1.0
  outer loop
    vertex 382.06337904952204 204.0000000002079 100.5000000004301
    vertex 431.9800457161889 203.00000000020793 100.5000000004284
    vertex 431.9800457161889 204.0000000002079 100.5000000004301
  endloop
endfacet
facet normal -0.7071067811865718 -1.3928863736441733e-12 0.7071067811865235
  outer loop
    vertex 381.9800457161887 173.5000000002078 100.50000000037018
    vertex 382.9800457161889 187.4226497310162 101.50000000039743
    vertex 381.9800457161887 188.00000000020793 100.5000000003986
  endloop
endfacet
facet normal -0.7071067811865718 -1.3928863736441733e-12 0.7071067811865235
  outer loop
    vertex 382.9800457161889 187.4226497310162 101.50000000039743
    vertex 381.9800457161887 173.5000000002078 100.50000000037018
    vertex 382.9800457161889 173.5000000002059 101.5000000003703
  endloop
endfacet
facet normal 1.0 -6.765805244153972e-15 9.023892744153202e-14
  outer loop
    vertex 431.9800457161889 223.50000000020762 100.50000000046867
    vertex 431.9800457161887 183.50000000020873 100.00000000038987
    vertex 431.9800457161891 223.50000000020847 100.0000000004687
  endloop
endfacet
facet normal 1.0 -6.765805244153972e-15 9.023892744153202e-14
  outer loop
    vertex 431.9800457161887 183.50000000020873 100.00000000038987
    vertex 431.9800457161889 223.50000000020762 100.50000000046867
    vertex 431.9800457161889 204.0000000002079 100.5000000004301
  endloop
endfacet
facet normal 1.0 -6.765805244153972e-15 9.023892744153202e-14
  outer loop
    vertex 431.9800457161887 183.50000000020873 100.00000000038987
    vertex 431.9800457161889 204.0000000002079 100.5000000004301
    vertex 431.9800457161889 203.00000000020793 100.5000000004284
  endloop
endfacet
facet normal 1.0 -6.765805244153972e-15 9.023892744153202e-14
  outer loop
    vertex 431.9800457161887 183.50000000020873 100.00000000038987
    vertex 431.9800457161889 203.00000000020793 100.5000000004284
    vertex 431.9800457161887 183.50000000020788 100.50000000038985
  endloop
endfacet
facet normal 0.7071067811865314 -0.7071067811865637 -1.3716172238727665e-12
  outer loop
    vertex 411.4800457161889 188.00000000020793 100.5000000003986
    vertex 412.48004571618867 189.00000000020893 100.00000000040059
    vertex 412.48004571618867 189.00000000020788 100.50000000040056
  endloop
endfacet
facet normal 0.7071067811865314 -0.7071067811865637 -1.3716172238727665e-12
  outer loop
    vertex 412.48004571618867 189.00000000020893 100.00000000040059
    vertex 411.4800457161889 188.00000000020793 100.5000000003986
    vertex 411.4800457161889 188.00000000020896 100.00000000039863
  endloop
endfacet
facet normal -3.898164799125798e-16 0.8660254037834568 0.5000000000017005
  outer loop
    vertex 431.9800457161889 203.00000000020793 100.5000000004284
    vertex 382.9800457161889 202.42264973101624 101.50000000042724
    vertex 431.4026954469995 202.4226497310164 101.50000000042724
  endloop
endfacet
facet normal -3.898164799125798e-16 0.8660254037834568 0.5000000000017005
  outer loop
    vertex 382.9800457161889 202.42264973101624 101.50000000042724
    vertex 431.9800457161889 203.00000000020793 100.5000000004284
    vertex 381.9800457161887 203.00000000020793 100.5000000004284
  endloop
endfacet
facet normal 0.9659258262890682 -5.098322800089699e-13 0.2588190451025216
  outer loop
    vertex 411.21209652375774 219.57735026939548 101.50000000046099
    vertex 411.4800457161889 231.70000000020792 100.50000000048473
    vertex 411.21209652375774 231.80717967717854 101.50000000048503
  endloop
endfacet
facet normal 0.9659258262890682 -5.098322800089699e-13 0.2588190451025216
  outer loop
    vertex 411.4800457161889 231.70000000020792 100.50000000048473
    vertex 411.21209652375774 219.57735026939548 101.50000000046099
    vertex 411.4800457161889 219.0000000002081 100.50000000045983
  endloop
endfacet
facet normal -0.965925826288978 -5.315169602349659e-13 0.2588190451028579
  outer loop
    vertex 412.48004571618867 189.00000000020788 100.50000000040056
    vertex 412.74799490862017 178.2637309274434 101.5000000003784
    vertex 412.7479949086198 189.57735026939565 101.50000000040173
  endloop
endfacet
facet normal -0.965925826288978 -5.315169602349659e-13 0.2588190451028579
  outer loop
    vertex 412.74799490862017 178.2637309274434 101.5000000003784
    vertex 412.48004571618867 189.00000000020788 100.50000000040056
    vertex 412.48004571618867 175.700000000208 100.50000000037438
  endloop
endfacet
facet normal -0.965925826288978 -5.315169602349659e-13 0.2588190451028579
  outer loop
    vertex 412.74799490862017 178.2637309274434 101.5000000003784
    vertex 412.48004571618867 175.700000000208 100.50000000037438
    vertex 412.74799490862017 177.7284789477895 101.5000000003773
  endloop
endfacet
facet normal -0.965925826288978 -5.315169602349659e-13 0.2588190451028579
  outer loop
    vertex 412.74799490862017 177.7284789477895 101.5000000003773
    vertex 412.48004571618867 175.700000000208 100.50000000037438
    vertex 412.74799490862017 175.80717967717845 101.50000000037468
  endloop
endfacet
facet normal -0.965925826288978 -5.315169602349659e-13 0.2588190451028579
  outer loop
    vertex 413.0511719766257 176.97053627777262 102.63147222186123
    vertex 412.74799490862017 178.2637309274434 101.5000000003784
    vertex 412.74799490862017 177.7284789477895 101.5000000003773
  endloop
endfacet
facet normal -1.0 -0.0 0.0
  outer loop
    vertex 381.9800457161887 173.50000000020884 100.0000000003702
    vertex 381.9800457161887 203.50000000020782 100.50000000042908
    vertex 381.9800457161887 203.50000000020887 100.00000000042911
  endloop
endfacet
facet normal -1.0 -0.0 0.0
  outer loop
    vertex 381.9800457161887 203.50000000020782 100.50000000042908
    vertex 381.9800457161887 173.50000000020884 100.0000000003702
    vertex 381.9800457161887 203.00000000020793 100.5000000004284
  endloop
endfacet
facet normal -1.0 -0.0 0.0
  outer loop
    vertex 381.9800457161887 203.00000000020793 100.5000000004284
    vertex 381.9800457161887 173.50000000020884 100.0000000003702
    vertex 381.9800457161887 189.00000000020788 100.50000000040056
  endloop
endfacet
facet normal -1.0 -0.0 0.0
  outer loop
    vertex 381.9800457161887 189.00000000020788 100.50000000040056
    vertex 381.9800457161887 173.50000000020884 100.0000000003702
    vertex 381.9800457161887 188.00000000020793 100.5000000003986
  endloop
endfacet
facet normal -1.0 -0.0 0.0
  outer loop
    vertex 381.9800457161887 188.00000000020793 100.5000000003986
    vertex 381.9800457161887 173.50000000020884 100.0000000003702
    vertex 381.9800457161887 173.5000000002078 100.50000000037018
  endloop
endfacet
facet normal -2.8772289642299766e-17 -0.8660254037854176 0.4999999999983045
  outer loop
    vertex 382.06337904952204 204.0000000002079 100.5000000004301
    vertex 431.4026954469991 204.57735026939565 101.50000000043127
    vertex 383.17339784943675 204.57735026939565 101.50000000043127
  endloop
endfacet
facet normal -2.8772289642299766e-17 -0.8660254037854176 0.4999999999983045
  outer loop
    vertex 431.4026954469991 204.57735026939565 101.50000000043127
    vertex 382.06337904952204 204.0000000002079 100.5000000004301
    vertex 431.9800457161889 204.0000000002079 100.5000000004301
  endloop
endfacet
facet normal -0.6974858324629867 0.11624763874244433 0.7071067811867036
  outer loop
    vertex 383.17339784943675 204.57735026939565 101.50000000043127
    vertex 384.3967123828556 218.00000000020796 100.50000000045767
    vertex 382.06337904952204 204.0000000002079 100.5000000004301
  endloop
endfacet
facet normal -0.6974858324629867 0.11624763874244433 0.7071067811867036
  outer loop
    vertex 384.3967123828556 218.00000000020796 100.50000000045767
    vertex 383.17339784943675 204.57735026939565 101.50000000043127
    vertex 385.3142810930402 217.42264973101624 101.50000000045651
  endloop
endfacet
facet normal -1.0 -0.0 0.0
  outer loop
    vertex 412.48004571618867 175.70000000020906 100.00000000037431
    vertex 412.48004571618867 189.00000000020788 100.50000000040056
    vertex 412.48004571618867 189.00000000020893 100.00000000040059
  endloop
endfacet
facet normal -1.0 -0.0 0.0
  outer loop
    vertex 412.48004571618867 189.00000000020788 100.50000000040056
    vertex 412.48004571618867 175.70000000020906 100.00000000037431
    vertex 412.48004571618867 175.700000000208 100.50000000037438
  endloop
endfacet
facet normal -1.446269736677708e-15 0.8660254037834306 0.5000000000017462
  outer loop
    vertex 412.48004571618867 218.00000000020796 100.50000000045767
    vertex 385.3142810930402 217.42264973101624 101.50000000045651
    vertex 412.74799490862017 217.42264973101624 101.50000000045661
  endloop
endfacet
facet normal -1.446269736677708e-15 0.8660254037834306 0.5000000000017462
  outer loop
    vertex 385.3142810930402 217.42264973101624 101.50000000045651
    vertex 412.48004571618867 218.00000000020796 100.50000000045767
    vertex 384.3967123828556 218.00000000020796 100.50000000045767
  endloop
endfacet
facet normal -1.446269736677708e-15 0.8660254037834306 0.5000000000017462
  outer loop
    vertex 384.3967123828556 218.00000000020796 100.50000000045767
    vertex 412.48004571618867 218.00000000020796 100.50000000045767
    vertex 411.9800457161888 218.00000000020796 100.50000000045767
  endloop
endfacet
facet normal 1.6127713174844047e-15 -0.8660254037854372 0.49999999999827066
  outer loop
    vertex 385.6733978494369 219.57735026939548 101.5000000004609
    vertex 411.4800457161889 219.0000000002081 100.50000000045983
    vertex 411.21209652375774 219.57735026939548 101.50000000046099
  endloop
endfacet
facet normal 1.6127713174844047e-15 -0.8660254037854372 0.49999999999827066
  outer loop
    vertex 411.4800457161889 219.0000000002081 100.50000000045983
    vertex 385.6733978494369 219.57735026939548 101.5000000004609
    vertex 384.5633790495222 219.0000000002081 100.50000000045983
  endloop
endfacet
facet normal 0.9659258262890682 -5.098297465334247e-13 0.2588190451025216
  outer loop
    vertex 411.21209652375774 187.4226497310162 101.50000000039743
    vertex 411.4800457161889 175.30000000020775 100.5000000003737
    vertex 411.4800457161889 188.00000000020793 100.5000000003986
  endloop
endfacet
facet normal 0.9659258262890682 -5.098297465334247e-13 0.2588190451025216
  outer loop
    vertex 411.4800457161889 175.30000000020775 100.5000000003737
    vertex 411.21209652375774 187.4226497310162 101.50000000039743
    vertex 411.21209652375774 175.19282032323352 101.5000000003733
  endloop
endfacet
facet normal 1.0 0.0 0.0
  outer loop
    vertex 411.4800457161889 231.70000000020792 100.50000000048473
    vertex 411.4800457161889 219.00000000020896 100.00000000045976
    vertex 411.4800457161889 231.70000000020877 100.00000000048466
  endloop
endfacet
facet normal 1.0 0.0 0.0
  outer loop
    vertex 411.4800457161889 219.00000000020896 100.00000000045976
    vertex 411.4800457161889 231.70000000020792 100.50000000048473
    vertex 411.4800457161889 219.0000000002081 100.50000000045983
  endloop
endfacet
facet normal 1.0 0.0 0.0
  outer loop
    vertex 411.4800457161889 188.00000000020793 100.5000000003986
    vertex 411.4800457161889 175.3000000002088 100.00000000037372
    vertex 411.4800457161889 188.00000000020896 100.00000000039863
  endloop
endfacet
facet normal 1.0 0.0 0.0
  outer loop
    vertex 411.4800457161889 175.3000000002088 100.00000000037372
    vertex 411.4800457161889 188.00000000020793 100.5000000003986
    vertex 411.4800457161889 175.30000000020775 100.5000000003737
  endloop
endfacet
facet normal 0.7071067811865314 0.7071067811865637 1.414153666719518e-12
  outer loop
    vertex 412.48004571618867 218.00000000020796 100.50000000045767
    vertex 411.4800457161889 219.00000000020896 100.00000000045976
    vertex 411.4800457161889 219.0000000002081 100.50000000045983
  endloop
endfacet
facet normal 0.7071067811865314 0.7071067811865637 1.414153666719518e-12
  outer loop
    vertex 411.4800457161889 219.00000000020896 100.00000000045976
    vertex 412.48004571618867 218.00000000020796 100.50000000045767
    vertex 412.48004571618867 218.00000000020881 100.0000000004577
  endloop
endfacet
facet normal 0.3713906763540938 -0.9284766908852634 -1.7666401933175735e-12
  outer loop
    vertex 406.98004571618884 173.5000000002059 101.50000000037022
    vertex 411.4800457161889 175.30000000020775 100.5000000003737
    vertex 411.21209652375774 175.19282032323352 101.5000000003733
  endloop
endfacet
facet normal 0.3713906763540938 -0.9284766908852634 -1.7666401933175735e-12
  outer loop
    vertex 411.4800457161889 175.30000000020775 100.5000000003737
    vertex 406.98004571618884 173.5000000002059 101.50000000037022
    vertex 406.98004571618884 173.50000000020884 100.0000000003702
  endloop
endfacet
facet normal 0.3713906763540938 -0.9284766908852634 -1.7666401933175735e-12
  outer loop
    vertex 411.4800457161889 175.30000000020775 100.5000000003737
    vertex 406.98004571618884 173.50000000020884 100.0000000003702
    vertex 411.4800457161889 175.3000000002088 100.00000000037372
  endloop
endfacet
facet normal 0.8660254037843894 -9.877284456273496e-13 0.5000000000000853
  outer loop
    vertex 431.4026954469991 204.57735026939565 101.50000000043127
    vertex 431.9800457161889 223.50000000020762 100.50000000046867
    vertex 431.40269544700016 223.73094010788137 101.50000000046572
  endloop
endfacet
facet normal 0.8660254037843894 -9.877284456273496e-13 0.5000000000000853
  outer loop
    vertex 431.9800457161889 223.50000000020762 100.50000000046867
    vertex 431.4026954469991 204.57735026939565 101.50000000043127
    vertex 431.9800457161889 204.0000000002079 100.5000000004301
  endloop
endfacet
facet normal -4.756682715968196e-15 -2.007532361769081e-12 1.0
  outer loop
    vertex 412.7479949086198 189.57735026939565 101.50000000040173
    vertex 382.9800457161889 202.42264973101624 101.50000000042724
    vertex 382.9800457161889 189.57735026939565 101.50000000040173
  endloop
endfacet
facet normal -4.756682715968196e-15 -2.007532361769081e-12 1.0
  outer loop
    vertex 382.9800457161889 202.42264973101624 101.50000000042724
    vertex 412.7479949086198 189.57735026939565 101.50000000040173
    vertex 431.4026954469995 202.4226497310164 101.50000000042724
  endloop
endfacet
facet normal -4.756682715968196e-15 -2.007532361769081e-12 1.0
  outer loop
    vertex 431.4026954469995 202.4226497310164 101.50000000042724
    vertex 412.7479949086198 189.57735026939565 101.50000000040173
    vertex 412.74799490862017 178.2637309274434 101.5000000003784
  endloop
endfacet
facet normal -4.756682715968196e-15 -2.007532361769081e-12 1.0
  outer loop
    vertex 431.4026954469995 202.4226497310164 101.50000000042724
    vertex 412.74799490862017 178.2637309274434 101.5000000003784
    vertex 431.1329590781707 185.61771659525436 101.50000000039401
  endloop
endfacet
facet normal -4.756682715968196e-15 -2.007532361769081e-12 1.0
  outer loop
    vertex 431.4026954469995 202.4226497310164 101.50000000042724
    vertex 431.1329590781707 185.61771659525436 101.50000000039401
    vertex 431.40269544699925 184.94337567318163 101.50000000039273
  endloop
endfacet
facet normal 0.37139067635410106 0.9284766908852605 1.7439299099595048e-12
  outer loop
    vertex 431.40269544700016 223.73094010788137 101.50000000046572
    vertex 412.4797218077015 231.3001295636026 100.50000021031184
    vertex 412.74799490862017 231.19282032323324 101.5000000004804
  endloop
endfacet
facet normal 0.37139067635410106 0.9284766908852605 1.7439299099595048e-12
  outer loop
    vertex 412.4797218077015 231.3001295636026 100.50000021031184
    vertex 431.40269544700016 223.73094010788137 101.50000000046572
    vertex 431.9800457161889 223.50000000020762 100.50000000046867
  endloop
endfacet
facet normal 0.37139067635410106 0.9284766908852605 1.7439299099595048e-12
  outer loop
    vertex 412.4797218077015 231.3001295636026 100.50000021031184
    vertex 431.9800457161889 223.50000000020762 100.50000000046867
    vertex 412.48203520759836 231.29920420364488 100.00000000048406
  endloop
endfacet
facet normal 0.37139067635410106 0.9284766908852605 1.7439299099595048e-12
  outer loop
    vertex 412.48203520759836 231.29920420364488 100.00000000048406
    vertex 431.9800457161889 223.50000000020762 100.50000000046867
    vertex 431.9800457161891 223.50000000020847 100.0000000004687
  endloop
endfacet
facet normal -0.6974858324628235 0.11624763874242486 0.7071067811868679
  outer loop
    vertex 385.6733978494369 219.57735026939548 101.5000000004609
    vertex 386.98004571618884 233.50000000020788 100.50000000048824
    vertex 384.5633790495222 219.0000000002081 100.50000000045983
  endloop
endfacet
facet normal -0.6974858324628235 0.11624763874242486 0.7071067811868679
  outer loop
    vertex 386.98004571618884 233.50000000020788 100.50000000048824
    vertex 385.6733978494369 219.57735026939548 101.5000000004609
    vertex 387.993839471239 233.50000000020597 101.5000000004882
  endloop
endfacet
facet normal -4.216213538490054e-16 -1.8740843759930438e-12 1.0
  outer loop
    vertex 431.4026954469991 204.57735026939565 101.50000000043127
    vertex 385.3142810930402 217.42264973101624 101.50000000045651
    vertex 383.17339784943675 204.57735026939565 101.50000000043127
  endloop
endfacet
facet normal -4.216213538490054e-16 -1.8740843759930438e-12 1.0
  outer loop
    vertex 385.3142810930402 217.42264973101624 101.50000000045651
    vertex 431.4026954469991 204.57735026939565 101.50000000043127
    vertex 412.74799490862017 217.42264973101624 101.50000000045661
  endloop
endfacet
facet normal -4.216213538490054e-16 -1.8740843759930438e-12 1.0
  outer loop
    vertex 412.74799490862017 217.42264973101624 101.50000000045661
    vertex 431.4026954469991 204.57735026939565 101.50000000043127
    vertex 412.74799490862017 231.19282032323324 101.5000000004804
  endloop
endfacet
facet normal -4.216213538490054e-16 -1.8740843759930438e-12 1.0
  outer loop
    vertex 412.74799490862017 231.19282032323324 101.5000000004804
    vertex 431.4026954469991 204.57735026939565 101.50000000043127
    vertex 431.40269544700016 223.73094010788137 101.50000000046572
  endloop
endfacet
facet normal 0.8660254037844977 -9.956842501856088e-13 0.4999999999998978
  outer loop
    vertex 431.4026954469995 202.4226497310164 101.50000000042724
    vertex 431.9800457161887 183.50000000020788 100.50000000038985
    vertex 431.9800457161889 203.00000000020793 100.5000000004284
  endloop
endfacet
facet normal 0.8660254037844977 -9.956842501856088e-13 0.4999999999998978
  outer loop
    vertex 431.9800457161887 183.50000000020788 100.50000000038985
    vertex 431.4026954469995 202.4226497310164 101.50000000042724
    vertex 431.40269544699925 184.94337567318163 101.50000000039273
  endloop
endfacet
facet normal -7.831317347100273e-14 1.0 1.2931564096619949e-12
  outer loop
    vertex 406.980045716189 233.5000000002089 100.00000000048819
    vertex 387.993839471239 233.50000000020597 101.5000000004882
    vertex 406.980045716189 233.50000000020904 101.5000000004882
  endloop
endfacet
facet normal -7.831317347100273e-14 1.0 1.2931564096619949e-12
  outer loop
    vertex 387.993839471239 233.50000000020597 101.5000000004882
    vertex 406.980045716189 233.5000000002089 100.00000000048819
    vertex 386.98004571618884 233.50000000020788 100.50000000048824
  endloop
endfacet
facet normal -7.831317347100273e-14 1.0 1.2931564096619949e-12
  outer loop
    vertex 386.98004571618884 233.50000000020788 100.50000000048824
    vertex 406.980045716189 233.5000000002089 100.00000000048819
    vertex 386.98004571618907 233.5000000002089 100.00000000048819
  endloop
endfacet
facet normal 6.692082089368874e-16 -1.0 -1.9419360456696144e-12
  outer loop
    vertex 381.9800457161887 173.5000000002078 100.50000000037018
    vertex 406.98004571618884 173.5000000002059 101.50000000037022
    vertex 382.9800457161889 173.5000000002059 101.5000000003703
  endloop
endfacet
facet normal 6.692082089368874e-16 -1.0 -1.9419360456696144e-12
  outer loop
    vertex 406.98004571618884 173.5000000002059 101.50000000037022
    vertex 381.9800457161887 173.5000000002078 100.50000000037018
    vertex 406.98004571618884 173.50000000020884 100.0000000003702
  endloop
endfacet
facet normal 6.692082089368874e-16 -1.0 -1.9419360456696144e-12
  outer loop
    vertex 406.98004571618884 173.50000000020884 100.0000000003702
    vertex 381.9800457161887 173.5000000002078 100.50000000037018
    vertex 381.9800457161887 173.50000000020884 100.0000000003702
  endloop
endfacet
facet normal 0.37139067635429307 0.9284766908851836 1.1502053246238638e-12
  outer loop
    vertex 411.21209652375774 231.80717967717854 101.50000000048503
    vertex 406.980045716189 233.5000000002089 100.00000000048819
    vertex 406.980045716189 233.50000000020904 101.5000000004882
  endloop
endfacet
facet normal 0.37139067635429307 0.9284766908851836 1.1502053246238638e-12
  outer loop
    vertex 406.980045716189 233.5000000002089 100.00000000048819
    vertex 411.21209652375774 231.80717967717854 101.50000000048503
    vertex 411.4800457161889 231.70000000020792 100.50000000048473
  endloop
endfacet
facet normal 0.37139067635429307 0.9284766908851836 1.1502053246238638e-12
  outer loop
    vertex 406.980045716189 233.5000000002089 100.00000000048819
    vertex 411.4800457161889 231.70000000020792 100.50000000048473
    vertex 411.4800457161889 231.70000000020877 100.00000000048466
  endloop
endfacet
facet normal 4.542787910237811e-15 -1.95608664148698e-12 1.0
  outer loop
    vertex 406.98004571618884 173.5000000002059 101.50000000037022
    vertex 382.9800457161889 187.4226497310162 101.50000000039743
    vertex 382.9800457161889 173.5000000002059 101.5000000003703
  endloop
endfacet
facet normal 4.542787910237811e-15 -1.95608664148698e-12 1.0
  outer loop
    vertex 382.9800457161889 187.4226497310162 101.50000000039743
    vertex 406.98004571618884 173.5000000002059 101.50000000037022
    vertex 411.21209652375774 187.4226497310162 101.50000000039743
  endloop
endfacet
facet normal 4.542787910237811e-15 -1.95608664148698e-12 1.0
  outer loop
    vertex 411.21209652375774 187.4226497310162 101.50000000039743
    vertex 406.98004571618884 173.5000000002059 101.50000000037022
    vertex 411.21209652375774 175.19282032323352 101.5000000003733
  endloop
endfacet
facet normal 3.277168350927032e-12 -1.367448015702791e-12 1.0
  outer loop
    vertex 413.41051189848184 176.07218647313258 101.50000000037286
    vertex 412.74799490862017 177.7284789477895 101.5000000003773
    vertex 412.74799490862017 175.80717967717845 101.50000000037468
  endloop
endfacet
facet normal -0.9658733759803774 -1.1758145608300084e-05 0.25901471277519095
  outer loop
    vertex 412.48004571618867 218.00000000020796 100.50000000045767
    vertex 412.74799490862017 231.19282032323324 101.5000000004804
    vertex 412.4797218077015 231.3001295636026 100.50000021031184
  endloop
endfacet
facet normal -0.9658733759803774 -1.1758145608300084e-05 0.25901471277519095
  outer loop
    vertex 412.74799490862017 231.19282032323324 101.5000000004804
    vertex 412.48004571618867 218.00000000020796 100.50000000045767
    vertex 412.74799490862017 217.42264973101624 101.50000000045661
  endloop
endfacet
facet normal -0.9999966955029951 5.692548744000568e-05 -0.0025701639206938296
  outer loop
    vertex 412.48203520759836 231.29920420364488 100.00000000048406
    vertex 412.48004571618867 218.00000000020796 100.50000000045767
    vertex 412.4797218077015 231.3001295636026 100.50000021031184
  endloop
endfacet
facet normal -0.9999966955029951 5.692548744000568e-05 -0.0025701639206938296
  outer loop
    vertex 412.48004571618867 218.00000000020796 100.50000000045767
    vertex 412.48203520759836 231.29920420364488 100.00000000048406
    vertex 412.48004571618867 218.00000000020881 100.0000000004577
  endloop
endfacet
facet normal 1.0321597045156781e-15 1.9743166884314265e-12 -1.0
  outer loop
    vertex 412.48004571618867 218.00000000020881 100.0000000004577
    vertex 411.4800457161889 188.00000000020896 100.00000000039863
    vertex 411.4800457161889 219.00000000020896 100.00000000045976
  endloop
endfacet
facet normal 1.0321597045156781e-15 1.9743166884314265e-12 -1.0
  outer loop
    vertex 411.4800457161889 188.00000000020896 100.00000000039863
    vertex 412.48004571618867 218.00000000020881 100.0000000004577
    vertex 412.48004571618867 189.00000000020893 100.00000000040059
  endloop
endfacet
facet normal 1.0321597045156781e-15 1.9743166884314265e-12 -1.0
  outer loop
    vertex 412.48004571618867 189.00000000020893 100.00000000040059
    vertex 412.48004571618867 218.00000000020881 100.0000000004577
    vertex 412.48203520759836 231.29920420364488 100.00000000048406
  endloop
endfacet
facet normal 1.0321597045156781e-15 1.9743166884314265e-12 -1.0
  outer loop
    vertex 412.48004571618867 189.00000000020893 100.00000000040059
    vertex 412.48203520759836 231.29920420364488 100.00000000048406
    vertex 412.48004571618867 175.70000000020906 100.00000000037431
  endloop
endfacet
facet normal 1.0321597045156781e-15 1.9743166884314265e-12 -1.0
  outer loop
    vertex 412.48004571618867 175.70000000020906 100.00000000037431
    vertex 412.48203520759836 231.29920420364488 100.00000000048406
    vertex 413.41051189848184 176.0721864731353 100.00000000037284
  endloop
endfacet
facet normal 1.0321597045156781e-15 1.9743166884314265e-12 -1.0
  outer loop
    vertex 413.41051189848184 176.0721864731353 100.00000000037284
    vertex 412.48203520759836 231.29920420364488 100.00000000048406
    vertex 431.9800457161891 223.50000000020847 100.0000000004687
  endloop
endfacet
facet normal 1.0321597045156781e-15 1.9743166884314265e-12 -1.0
  outer loop
    vertex 413.41051189848184 176.0721864731353 100.00000000037284
    vertex 431.9800457161891 223.50000000020847 100.0000000004687
    vertex 430.1230923344185 182.75721864749988 100.00000000038831
  endloop
endfacet
facet normal 1.0321597045156781e-15 1.9743166884314265e-12 -1.0
  outer loop
    vertex 430.1230923344185 182.75721864749988 100.00000000038831
    vertex 431.9800457161891 223.50000000020847 100.0000000004687
    vertex 431.9800457161887 183.50000000020873 100.00000000038987
  endloop
endfacet
facet normal 1.0321597045156781e-15 1.9743166884314265e-12 -1.0
  outer loop
    vertex 386.98004571618907 233.5000000002089 100.00000000048819
    vertex 381.9800457161887 173.50000000020884 100.0000000003702
    vertex 381.9800457161887 203.50000000020887 100.00000000042911
  endloop
endfacet
facet normal 1.0321597045156781e-15 1.9743166884314265e-12 -1.0
  outer loop
    vertex 381.9800457161887 173.50000000020884 100.0000000003702
    vertex 386.98004571618907 233.5000000002089 100.00000000048819
    vertex 406.98004571618884 173.50000000020884 100.0000000003702
  endloop
endfacet
facet normal 1.0321597045156781e-15 1.9743166884314265e-12 -1.0
  outer loop
    vertex 406.98004571618884 173.50000000020884 100.0000000003702
    vertex 386.98004571618907 233.5000000002089 100.00000000048819
    vertex 406.980045716189 233.5000000002089 100.00000000048819
  endloop
endfacet
facet normal 1.0321597045156781e-15 1.9743166884314265e-12 -1.0
  outer loop
    vertex 406.98004571618884 173.50000000020884 100.0000000003702
    vertex 406.980045716189 233.5000000002089 100.00000000048819
    vertex 411.4800457161889 175.3000000002088 100.00000000037372
  endloop
endfacet
facet normal 1.0321597045156781e-15 1.9743166884314265e-12 -1.0
  outer loop
    vertex 411.4800457161889 175.3000000002088 100.00000000037372
    vertex 406.980045716189 233.5000000002089 100.00000000048819
    vertex 411.4800457161889 231.70000000020877 100.00000000048466
  endloop
endfacet
facet normal 1.0321597045156781e-15 1.9743166884314265e-12 -1.0
  outer loop
    vertex 411.4800457161889 175.3000000002088 100.00000000037372
    vertex 411.4800457161889 231.70000000020877 100.00000000048466
    vertex 411.4800457161889 219.00000000020896 100.00000000045976
  endloop
endfacet
facet normal 1.0321597045156781e-15 1.9743166884314265e-12 -1.0
  outer loop
    vertex 411.4800457161889 175.3000000002088 100.00000000037372
    vertex 411.4800457161889 219.00000000020896 100.00000000045976
    vertex 411.4800457161889 188.00000000020896 100.00000000039863
  endloop
endfacet
facet normal -0.9999966955029951 5.692548744000568e-05 -0.00257016392069383
  outer loop
    vertex 412.48203520759836 231.29920420364488 100.00000000048406
    vertex 412.48004571618867 218.00000000020796 100.50000000045767
    vertex 412.4797218077015 231.3001295636026 100.50000021031184
  endloop
endfacet
facet normal -0.9999966955029951 5.692548744000568e-05 -0.00257016392069383
  outer loop
    vertex 412.48004571618867 218.00000000020796 100.50000000045767
    vertex 412.48203520759836 231.29920420364488 100.00000000048406
    vertex 412.48004571618867 218.00000000020881 100.0000000004577
  endloop
endfacet
facet normal -0.9999966955029951 5.692548744000569e-05 -0.0025701639206938305
  outer loop
    vertex 412.48203520759836 231.29920420364488 100.00000000048406
    vertex 412.48004571618867 218.00000000020796 100.50000000045767
    vertex 412.4797218077015 231.3001295636026 100.50000021031184
  endloop
endfacet
facet normal -0.9999966955029951 5.692548744000569e-05 -0.0025701639206938305
  outer loop
    vertex 412.48004571618867 218.00000000020796 100.50000000045767
    vertex 412.48203520759836 231.29920420364488 100.00000000048406
    vertex 412.48004571618867 218.00000000020881 100.0000000004577
  endloop
endfacet
endsolid ProtoGlove baseplate
