solid ProtoGlove baseplate
facet normal 0.9284766908852983 -0.37139067635400663 6.054651578782969e-13
  outer loop
    vertex 431.1329590781707 -226.61771659504606 101.50000000035871
    vertex 431.40269544699925 -225.94337567297333 101.50000000035742
    vertex 431.97439736232724 -224.51412088464724 103.4519640281407
  endloop
endfacet
facet normal 0.9284766908852983 -0.37139067635400663 6.054651578782969e-13
  outer loop
    vertex 431.9800457161887 -224.49999999999957 100.50000000035455
    vertex 431.97439736232724 -224.51412088464724 103.4519640281407
    vertex 431.40269544699925 -225.94337567297333 101.50000000035742
  endloop
endfacet
facet normal 0.9284766908852983 -0.37139067635400663 6.054651578782969e-13
  outer loop
    vertex 432.23964030960343 -223.85101351645295 104.14915258506178
    vertex 431.97439736232724 -224.51412088464724 103.4519640281407
    vertex 431.9800457161887 -224.49999999999957 100.50000000035455
  endloop
endfacet
facet normal 0.9284766908852983 -0.37139067635400663 6.054651578782969e-13
  outer loop
    vertex 431.9800457161887 -224.50000000000043 100.00000000035458
    vertex 434.32327606319893 -218.64192413246056 109.0106724875219
    vertex 431.9800457161887 -224.49999999999957 100.50000000035455
  endloop
endfacet
facet normal 0.9284766908852983 -0.37139067635400663 6.054651578782969e-13
  outer loop
    vertex 432.23964030960343 -223.85101351645295 104.14915258506178
    vertex 431.9800457161887 -224.49999999999957 100.50000000035455
    vertex 434.32327606319893 -218.64192413246056 109.0106724875219
  endloop
endfacet
facet normal 0.9284766908852983 -0.37139067635400663 6.054651578782969e-13
  outer loop
    vertex 432.7321037864974 -222.61985482421906 105.61528875734652
    vertex 432.23964030960343 -223.85101351645295 104.14915258506178
    vertex 434.32327606319893 -218.64192413246056 109.0106724875219
  endloop
endfacet
facet normal 0.9284766908852983 -0.37139067635400663 6.054651578782969e-13
  outer loop
    vertex 432.96317361199493 -222.04218026047397 106.39569629247264
    vertex 432.7321037864974 -222.61985482421906 105.61528875734652
    vertex 434.32327606319893 -218.64192413246056 109.0106724875219
  endloop
endfacet
facet normal 0.9284766908852983 -0.37139067635400663 6.054651578782969e-13
  outer loop
    vertex 433.54740650459496 -220.58159802897077 108.64230907561883
    vertex 432.96317361199493 -222.04218026047397 106.39569629247264
    vertex 434.32327606319893 -218.64192413246056 109.0106724875219
  endloop
endfacet
facet normal 0.9284766908852983 -0.37139067635400663 6.054651578782969e-13
  outer loop
    vertex 434.0951069893739 -219.2123468170191 109.44085481478632
    vertex 433.54740650459496 -220.58159802897077 108.64230907561883
    vertex 434.32327606319893 -218.64192413246056 109.0106724875219
  endloop
endfacet
facet normal -0.9284766908854144 0.37139067635371614 -7.621253447871075e-13
  outer loop
    vertex 413.41051189848184 -217.072186472927 100.00000000033754
    vertex 413.41051189848184 -217.07218647292427 101.50000000033755
    vertex 414.5821270719872 -214.1431485391523 104.50533624392243
  endloop
endfacet
facet normal -0.9284766908854144 0.37139067635371614 -7.621253447871075e-13
  outer loop
    vertex 413.67010649189695 -216.42319998937936 104.14915258504485
    vertex 414.5821270719872 -214.1431485391523 104.50533624392243
    vertex 413.41051189848184 -217.07218647292427 101.50000000033755
  endloop
endfacet
facet normal -0.9284766908854144 0.37139067635371614 -7.621253447871075e-13
  outer loop
    vertex 414.09697969191507 -215.35601698933112 105.42001686004664
    vertex 414.5821270719872 -214.1431485391523 104.50533624392243
    vertex 413.67010649189695 -216.42319998937936 104.14915258504485
  endloop
endfacet
facet normal -0.9284766908854144 0.37139067635371614 -7.621253447871075e-13
  outer loop
    vertex 412.74799490862017 -218.7284789475812 101.50000000034198
    vertex 413.0511719766257 -217.97053627756432 102.63147222182593
    vertex 413.41051189848184 -217.07218647292427 101.50000000033755
  endloop
endfacet
facet normal -0.9284766908854144 0.37139067635371614 -7.621253447871075e-13
  outer loop
    vertex 413.40486354462035 -217.08630735757401 103.45196402812374
    vertex 413.41051189848184 -217.07218647292427 101.50000000033755
    vertex 413.0511719766257 -217.97053627756432 102.63147222182593
  endloop
endfacet
facet normal -0.9284766908854144 0.37139067635371614 -7.621253447871075e-13
  outer loop
    vertex 413.67010649189695 -216.42319998937936 104.14915258504485
    vertex 413.41051189848184 -217.07218647292427 101.50000000033755
    vertex 413.40486354462035 -217.08630735757401 103.45196402812374
  endloop
endfacet
facet normal 0.3042254317651116 0.7605635794122262 -0.5735764363526398
  outer loop
    vertex 434.32327606319893 -218.64192413246056 109.0106724875219
    vertex 431.9800457161887 -224.50000000000043 100.00000000035458
    vertex 425.0385091543458 -214.9280173689189 109.0106724875146
  endloop
endfacet
facet normal 0.3042254317651116 0.7605635794122262 -0.5735764363526398
  outer loop
    vertex 414.5821270719872 -214.1431485391523 104.50533624392243
    vertex 425.0385091543458 -214.9280173689189 109.0106724875146
    vertex 431.9800457161887 -224.50000000000043 100.00000000035458
  endloop
endfacet
facet normal 0.3042254317651116 0.7605635794122262 -0.5735764363526398
  outer loop
    vertex 430.1230923344185 -223.75721864729158 100.00000000035301
    vertex 414.5821270719872 -214.1431485391523 104.50533624392243
    vertex 431.9800457161887 -224.50000000000043 100.00000000035458
  endloop
endfacet
facet normal 0.3042254317651116 0.7605635794122262 -0.5735764363526398
  outer loop
    vertex 413.41051189848184 -217.072186472927 100.00000000033754
    vertex 414.5821270719872 -214.1431485391523 104.50533624392243
    vertex 430.1230923344185 -223.75721864729158 100.00000000035301
  endloop
endfacet
facet normal -0.2594308940660914 -0.6485772351644593 0.7155719259658628
  outer loop
    vertex 413.40486354462035 -217.08630735757401 103.45196402812374
    vertex 431.97439736232724 -224.51412088464724 103.4519640281407
    vertex 413.67010649189695 -216.42319998937936 104.14915258504485
  endloop
endfacet
facet normal -0.2594308940660914 -0.6485772351644593 0.7155719259658628
  outer loop
    vertex 432.23964030960343 -223.85101351645295 104.14915258506178
    vertex 413.67010649189695 -216.42319998937936 104.14915258504485
    vertex 431.97439736232724 -224.51412088464724 103.4519640281407
  endloop
endfacet
facet normal -0.29039751522507024 -0.7259937880618238 0.6233797420888402
  outer loop
    vertex 432.96317361199493 -222.04218026047397 106.39569629247264
    vertex 416.51629316209886 -215.46342808051457 106.39569629245976
    vertex 432.7321037864974 -222.61985482421906 105.61528875734652
  endloop
endfacet
facet normal -0.29039751522507024 -0.7259937880618238 0.6233797420888402
  outer loop
    vertex 414.6036050348414 -215.36845532356585 105.61528875733019
    vertex 432.7321037864974 -222.61985482421906 105.61528875734652
    vertex 416.51629316209886 -215.46342808051457 106.39569629245976
  endloop
endfacet
facet normal -0.30422543176539557 -0.7605635794123119 0.5735764363523753
  outer loop
    vertex 433.54740650459496 -220.58159802897077 108.64230907561883
    vertex 421.7304304387825 -215.8548076026456 108.64230907560965
    vertex 432.96317361199493 -222.04218026047397 106.39569629247264
  endloop
endfacet
facet normal -0.30422543176539557 -0.7605635794123119 0.5735764363523753
  outer loop
    vertex 416.51629316209886 -215.46342808051457 106.39569629245976
    vertex 432.96317361199493 -222.04218026047397 106.39569629247264
    vertex 421.7304304387825 -215.8548076026456 108.64230907560965
  endloop
endfacet
facet normal -0.24241192656308033 -0.6060298164068195 0.7576043291097883
  outer loop
    vertex 412.74799490862017 -219.2637309272351 101.5000000003431
    vertex 431.1329590781707 -226.61771659504606 101.50000000035871
    vertex 413.0511719766257 -217.97053627756432 102.63147222182593
  endloop
endfacet
facet normal -0.24241192656308033 -0.6060298164068195 0.7576043291097883
  outer loop
    vertex 413.40486354462035 -217.08630735757401 103.45196402812374
    vertex 413.0511719766257 -217.97053627756432 102.63147222182593
    vertex 431.1329590781707 -226.61771659504606 101.50000000035871
  endloop
endfacet
facet normal -0.24241192656308033 -0.6060298164068195 0.7576043291097883
  outer loop
    vertex 431.97439736232724 -224.51412088464724 103.4519640281407
    vertex 413.40486354462035 -217.08630735757401 103.45196402812374
    vertex 431.1329590781707 -226.61771659504606 101.50000000035871
  endloop
endfacet
facet normal -0.26079798899660805 0.6456109730961989 0.7177540528294525
  outer loop
    vertex 414.09697969191507 -215.35601698933112 105.42001686004664
    vertex 414.6036050348414 -215.36845532356585 105.61528875733019
    vertex 414.5821270719872 -214.1431485391523 104.50533624392243
  endloop
endfacet
facet normal -0.26079798899660805 0.6456109730961989 0.7177540528294525
  outer loop
    vertex 425.0385091543458 -214.9280173689189 109.0106724875146
    vertex 414.5821270719872 -214.1431485391523 104.50533624392243
    vertex 414.6036050348414 -215.36845532356585 105.61528875733019
  endloop
endfacet
facet normal -0.26079798899660805 0.6456109730961989 0.7177540528294525
  outer loop
    vertex 416.51629316209886 -215.46342808051457 106.39569629245976
    vertex 425.0385091543458 -214.9280173689189 109.0106724875146
    vertex 414.6036050348414 -215.36845532356585 105.61528875733019
  endloop
endfacet
facet normal -0.26079798899660805 0.6456109730961989 0.7177540528294525
  outer loop
    vertex 421.7304304387825 -215.8548076026456 108.64230907560965
    vertex 425.0385091543458 -214.9280173689189 109.0106724875146
    vertex 416.51629316209886 -215.46342808051457 106.39569629245976
  endloop
endfacet
facet normal -0.26079798899660805 0.6456109730961989 0.7177540528294525
  outer loop
    vertex 424.81034008052177 -215.49844005347816 109.44085481477923
    vertex 425.0385091543458 -214.9280173689189 109.0106724875146
    vertex 421.7304304387825 -215.8548076026456 108.64230907560965
  endloop
endfacet
facet normal -0.17684163758544091 -0.44210409396188766 0.8793582917777247
  outer loop
    vertex 421.7304304387825 -215.8548076026456 108.64230907560965
    vertex 433.54740650459496 -220.58159802897077 108.64230907561883
    vertex 424.81034008052177 -215.49844005347816 109.44085481477923
  endloop
endfacet
facet normal -0.17684163758544091 -0.44210409396188766 0.8793582917777247
  outer loop
    vertex 434.0951069893739 -219.2123468170191 109.44085481478632
    vertex 424.81034008052177 -215.49844005347816 109.44085481477923
    vertex 433.54740650459496 -220.58159802897077 108.64230907561883
  endloop
endfacet
facet normal -0.275446732839898 -0.6886168320991135 0.6707726559107842
  outer loop
    vertex 432.7321037864974 -222.61985482421906 105.61528875734652
    vertex 414.6036050348414 -215.36845532356585 105.61528875733019
    vertex 432.23964030960343 -223.85101351645295 104.14915258506178
  endloop
endfacet
facet normal -0.275446732839898 -0.6886168320991135 0.6707726559107842
  outer loop
    vertex 414.09697969191507 -215.35601698933112 105.42001686004664
    vertex 432.23964030960343 -223.85101351645295 104.14915258506178
    vertex 414.6036050348414 -215.36845532356585 105.61528875733019
  endloop
endfacet
facet normal -0.275446732839898 -0.6886168320991135 0.6707726559107842
  outer loop
    vertex 413.67010649189695 -216.42319998937936 104.14915258504485
    vertex 432.23964030960343 -223.85101351645295 104.14915258506178
    vertex 414.09697969191507 -215.35601698933112 105.42001686004664
  endloop
endfacet
facet normal 0.21302094063727192 0.5325523515947401 0.8191520442878257
  outer loop
    vertex 424.81034008052177 -215.49844005347816 109.44085481477923
    vertex 434.0951069893739 -219.2123468170191 109.44085481478632
    vertex 425.0385091543458 -214.9280173689189 109.0106724875146
  endloop
endfacet
facet normal 0.21302094063727192 0.5325523515947401 0.8191520442878257
  outer loop
    vertex 434.32327606319893 -218.64192413246056 109.0106724875219
    vertex 425.0385091543458 -214.9280173689189 109.0106724875146
    vertex 434.0951069893739 -219.2123468170191 109.44085481478632
  endloop
endfacet
facet normal -6.618667768213166e-16 -0.8660254037834396 0.5000000000017302
  outer loop
    vertex 411.21209652375774 -228.4226497308079 101.50000000036214
    vertex 382.9800457161889 -228.4226497308079 101.50000000036214
    vertex 411.4800457161889 -228.99999999999963 100.5000000003633
  endloop
endfacet
facet normal -6.618667768213166e-16 -0.8660254037834396 0.5000000000017302
  outer loop
    vertex 381.9800457161887 -228.99999999999963 100.5000000003633
    vertex 411.4800457161889 -228.99999999999963 100.5000000003633
    vertex 382.9800457161889 -228.4226497308079 101.50000000036214
  endloop
endfacet
facet normal 0.0 1.9698374875698473e-12 1.0
  outer loop
    vertex 381.9800457161887 -228.99999999999963 100.5000000003633
    vertex 381.9800457161887 -229.99999999999957 100.50000000036526
    vertex 411.4800457161889 -228.99999999999963 100.5000000003633
  endloop
endfacet
facet normal 0.0 1.9698374875698473e-12 1.0
  outer loop
    vertex 411.9800457161888 -229.99999999999957 100.50000000036526
    vertex 411.4800457161889 -228.99999999999963 100.5000000003633
    vertex 381.9800457161887 -229.99999999999957 100.50000000036526
  endloop
endfacet
facet normal 0.0 1.9698374875698473e-12 1.0
  outer loop
    vertex 412.48004571618867 -229.99999999999957 100.50000000036526
    vertex 411.4800457161889 -228.99999999999963 100.5000000003633
    vertex 411.9800457161888 -229.99999999999957 100.50000000036526
  endloop
endfacet
facet normal -5.522512515075179e-16 0.8660254037854109 0.49999999999831607
  outer loop
    vertex 382.9800457161889 -230.57735026918735 101.50000000036643
    vertex 412.7479949086198 -230.57735026918735 101.50000000036643
    vertex 381.9800457161887 -229.99999999999957 100.50000000036526
  endloop
endfacet
facet normal -5.522512515075179e-16 0.8660254037854109 0.49999999999831607
  outer loop
    vertex 412.48004571618867 -229.99999999999957 100.50000000036526
    vertex 381.9800457161887 -229.99999999999957 100.50000000036526
    vertex 412.7479949086198 -230.57735026918735 101.50000000036643
  endloop
endfacet
facet normal -5.522512515075179e-16 0.8660254037854109 0.49999999999831607
  outer loop
    vertex 411.9800457161888 -229.99999999999957 100.50000000036526
    vertex 381.9800457161887 -229.99999999999957 100.50000000036526
    vertex 412.48004571618867 -229.99999999999957 100.50000000036526
  endloop
endfacet
facet normal -3.821149833001486e-15 1.959808836131551e-12 1.0
  outer loop
    vertex 385.6733978494369 -260.5773502691872 101.5000000004256
    vertex 387.993839471239 -274.49999999999767 101.50000000045289
    vertex 411.21209652375774 -260.5773502691872 101.50000000042569
  endloop
endfacet
facet normal -3.821149833001486e-15 1.959808836131551e-12 1.0
  outer loop
    vertex 406.980045716189 -274.50000000000074 101.50000000045289
    vertex 411.21209652375774 -260.5773502691872 101.50000000042569
    vertex 387.993839471239 -274.49999999999767 101.50000000045289
  endloop
endfacet
facet normal -3.821149833001486e-15 1.959808836131551e-12 1.0
  outer loop
    vertex 411.21209652375774 -272.80717967697024 101.50000000044972
    vertex 411.21209652375774 -260.5773502691872 101.50000000042569
    vertex 406.980045716189 -274.50000000000074 101.50000000045289
  endloop
endfacet
facet normal -0.9863939238321427 -0.16439898730536395 2.0720209971478977e-13
  outer loop
    vertex 386.98004571618907 -274.5000000000006 100.00000000045287
    vertex 386.98004571618884 -274.49999999999955 100.50000000045294
    vertex 381.9800457161887 -244.50000000000057 100.0000000003938
  endloop
endfacet
facet normal -0.9863939238321427 -0.16439898730536395 2.0720209971478977e-13
  outer loop
    vertex 384.5633790495222 -259.9999999999998 100.50000000042452
    vertex 381.9800457161887 -244.50000000000057 100.0000000003938
    vertex 386.98004571618884 -274.49999999999955 100.50000000045294
  endloop
endfacet
facet normal -0.9863939238321427 -0.16439898730536395 2.0720209971478977e-13
  outer loop
    vertex 384.3967123828556 -258.99999999999966 100.50000000042238
    vertex 381.9800457161887 -244.50000000000057 100.0000000003938
    vertex 384.5633790495222 -259.9999999999998 100.50000000042452
  endloop
endfacet
facet normal -0.9863939238321427 -0.16439898730536395 2.0720209971478977e-13
  outer loop
    vertex 382.06337904952204 -244.9999999999996 100.5000000003948
    vertex 381.9800457161887 -244.50000000000057 100.0000000003938
    vertex 384.3967123828556 -258.99999999999966 100.50000000042238
  endloop
endfacet
facet normal -0.9863939238321427 -0.16439898730536395 2.0720209971478977e-13
  outer loop
    vertex 381.9800457161887 -244.49999999999952 100.50000000039378
    vertex 381.9800457161887 -244.50000000000057 100.0000000003938
    vertex 382.06337904952204 -244.9999999999996 100.5000000003948
  endloop
endfacet
facet normal 0.0 1.9698374875698473e-12 1.0
  outer loop
    vertex 384.3967123828556 -258.99999999999966 100.50000000042238
    vertex 384.5633790495222 -259.9999999999998 100.50000000042452
    vertex 411.9800457161888 -258.99999999999966 100.50000000042238
  endloop
endfacet
facet normal 0.0 1.9698374875698473e-12 1.0
  outer loop
    vertex 411.4800457161889 -259.9999999999998 100.50000000042452
    vertex 411.9800457161888 -258.99999999999966 100.50000000042238
    vertex 384.5633790495222 -259.9999999999998 100.50000000042452
  endloop
endfacet
facet normal 0.0 1.9698374875698473e-12 1.0
  outer loop
    vertex 412.48004571618867 -258.99999999999966 100.50000000042238
    vertex 411.9800457161888 -258.99999999999966 100.50000000042238
    vertex 411.4800457161889 -259.9999999999998 100.50000000042452
  endloop
endfacet
facet normal -0.7071067811865398 1.397427612041932e-12 0.7071067811865553
  outer loop
    vertex 381.9800457161887 -229.99999999999957 100.50000000036526
    vertex 381.9800457161887 -243.99999999999963 100.5000000003931
    vertex 382.9800457161889 -230.57735026918735 101.50000000036643
  endloop
endfacet
facet normal -0.7071067811865398 1.397427612041932e-12 0.7071067811865553
  outer loop
    vertex 382.9800457161889 -243.4226497308079 101.50000000039194
    vertex 382.9800457161889 -230.57735026918735 101.50000000036643
    vertex 381.9800457161887 -243.99999999999963 100.5000000003931
  endloop
endfacet
facet normal 0.3713906763626282 0.9284766908818496 -2.783279893804678e-12
  outer loop
    vertex 412.74799490862017 -216.80717967697015 101.50000000033938
    vertex 413.41051189848184 -217.07218647292427 101.50000000033755
    vertex 412.48004571618867 -216.6999999999997 100.50000000033909
  endloop
endfacet
facet normal 0.3713906763626282 0.9284766908818496 -2.783279893804678e-12
  outer loop
    vertex 413.41051189848184 -217.072186472927 100.00000000033754
    vertex 412.48004571618867 -216.6999999999997 100.50000000033909
    vertex 413.41051189848184 -217.07218647292427 101.50000000033755
  endloop
endfacet
facet normal 0.3713906763626282 0.9284766908818496 -2.783279893804678e-12
  outer loop
    vertex 412.48004571618867 -216.70000000000076 100.00000000033901
    vertex 412.48004571618867 -216.6999999999997 100.50000000033909
    vertex 413.41051189848184 -217.072186472927 100.00000000033754
  endloop
endfacet
facet normal 0.0 1.9698374875698473e-12 1.0
  outer loop
    vertex 381.9800457161887 -243.99999999999963 100.5000000003931
    vertex 381.9800457161887 -244.49999999999952 100.50000000039378
    vertex 431.9800457161889 -243.99999999999963 100.5000000003931
  endloop
endfacet
facet normal 0.0 1.9698374875698473e-12 1.0
  outer loop
    vertex 382.06337904952204 -244.9999999999996 100.5000000003948
    vertex 431.9800457161889 -243.99999999999963 100.5000000003931
    vertex 381.9800457161887 -244.49999999999952 100.50000000039378
  endloop
endfacet
facet normal 0.0 1.9698374875698473e-12 1.0
  outer loop
    vertex 431.9800457161889 -244.9999999999996 100.5000000003948
    vertex 431.9800457161889 -243.99999999999963 100.5000000003931
    vertex 382.06337904952204 -244.9999999999996 100.5000000003948
  endloop
endfacet
facet normal -0.7071067811865718 1.3928863736441733e-12 0.7071067811865235
  outer loop
    vertex 381.9800457161887 -228.99999999999963 100.5000000003633
    vertex 382.9800457161889 -228.4226497308079 101.50000000036214
    vertex 381.9800457161887 -214.4999999999995 100.50000000033488
  endloop
endfacet
facet normal -0.7071067811865718 1.3928863736441733e-12 0.7071067811865235
  outer loop
    vertex 382.9800457161889 -214.4999999999976 101.500000000335
    vertex 381.9800457161887 -214.4999999999995 100.50000000033488
    vertex 382.9800457161889 -228.4226497308079 101.50000000036214
  endloop
endfacet
facet normal 1.0 6.765805244153972e-15 9.023892744153202e-14
  outer loop
    vertex 431.9800457161891 -264.50000000000017 100.00000000043339
    vertex 431.9800457161887 -224.50000000000043 100.00000000035458
    vertex 431.9800457161889 -264.4999999999993 100.50000000043337
  endloop
endfacet
facet normal 1.0 6.765805244153972e-15 9.023892744153202e-14
  outer loop
    vertex 431.9800457161889 -244.9999999999996 100.5000000003948
    vertex 431.9800457161889 -264.4999999999993 100.50000000043337
    vertex 431.9800457161887 -224.50000000000043 100.00000000035458
  endloop
endfacet
facet normal 1.0 6.765805244153972e-15 9.023892744153202e-14
  outer loop
    vertex 431.9800457161889 -243.99999999999963 100.5000000003931
    vertex 431.9800457161889 -244.9999999999996 100.5000000003948
    vertex 431.9800457161887 -224.50000000000043 100.00000000035458
  endloop
endfacet
facet normal 1.0 6.765805244153972e-15 9.023892744153202e-14
  outer loop
    vertex 431.9800457161887 -224.49999999999957 100.50000000035455
    vertex 431.9800457161889 -243.99999999999963 100.5000000003931
    vertex 431.9800457161887 -224.50000000000043 100.00000000035458
  endloop
endfacet
facet normal 0.7071067811865314 0.7071067811865637 -1.3716172238727665e-12
  outer loop
    vertex 412.48004571618867 -229.99999999999957 100.50000000036526
    vertex 412.48004571618867 -230.00000000000063 100.00000000036529
    vertex 411.4800457161889 -228.99999999999963 100.5000000003633
  endloop
endfacet
facet normal 0.7071067811865314 0.7071067811865637 -1.3716172238727665e-12
  outer loop
    vertex 411.4800457161889 -229.00000000000065 100.00000000036331
    vertex 411.4800457161889 -228.99999999999963 100.5000000003633
    vertex 412.48004571618867 -230.00000000000063 100.00000000036529
  endloop
endfacet
facet normal -3.898164799125798e-16 -0.8660254037834568 0.5000000000017005
  outer loop
    vertex 431.4026954469995 -243.4226497308081 101.50000000039194
    vertex 382.9800457161889 -243.4226497308079 101.50000000039194
    vertex 431.9800457161889 -243.99999999999963 100.5000000003931
  endloop
endfacet
facet normal -3.898164799125798e-16 -0.8660254037834568 0.5000000000017005
  outer loop
    vertex 381.9800457161887 -243.99999999999963 100.5000000003931
    vertex 431.9800457161889 -243.99999999999963 100.5000000003931
    vertex 382.9800457161889 -243.4226497308079 101.50000000039194
  endloop
endfacet
facet normal 0.9659258262890682 5.098322800089699e-13 0.2588190451025216
  outer loop
    vertex 411.21209652375774 -272.80717967697024 101.50000000044972
    vertex 411.4800457161889 -272.6999999999996 100.50000000044942
    vertex 411.21209652375774 -260.5773502691872 101.50000000042569
  endloop
endfacet
facet normal 0.9659258262890682 5.098322800089699e-13 0.2588190451025216
  outer loop
    vertex 411.4800457161889 -259.9999999999998 100.50000000042452
    vertex 411.21209652375774 -260.5773502691872 101.50000000042569
    vertex 411.4800457161889 -272.6999999999996 100.50000000044942
  endloop
endfacet
facet normal -0.965925826288978 5.315169602349659e-13 0.2588190451028579
  outer loop
    vertex 412.7479949086198 -230.57735026918735 101.50000000036643
    vertex 412.74799490862017 -219.2637309272351 101.5000000003431
    vertex 412.48004571618867 -229.99999999999957 100.50000000036526
  endloop
endfacet
facet normal -0.965925826288978 5.315169602349659e-13 0.2588190451028579
  outer loop
    vertex 412.48004571618867 -216.6999999999997 100.50000000033909
    vertex 412.48004571618867 -229.99999999999957 100.50000000036526
    vertex 412.74799490862017 -219.2637309272351 101.5000000003431
  endloop
endfacet
facet normal -0.965925826288978 5.315169602349659e-13 0.2588190451028579
  outer loop
    vertex 412.74799490862017 -218.7284789475812 101.50000000034198
    vertex 412.48004571618867 -216.6999999999997 100.50000000033909
    vertex 412.74799490862017 -219.2637309272351 101.5000000003431
  endloop
endfacet
facet normal -0.965925826288978 5.315169602349659e-13 0.2588190451028579
  outer loop
    vertex 412.74799490862017 -216.80717967697015 101.50000000033938
    vertex 412.48004571618867 -216.6999999999997 100.50000000033909
    vertex 412.74799490862017 -218.7284789475812 101.50000000034198
  endloop
endfacet
facet normal -0.965925826288978 5.315169602349659e-13 0.2588190451028579
  outer loop
    vertex 412.74799490862017 -218.7284789475812 101.50000000034198
    vertex 412.74799490862017 -219.2637309272351 101.5000000003431
    vertex 413.0511719766257 -217.97053627756432 102.63147222182593
  endloop
endfacet
facet normal -1.0 0.0 0.0
  outer loop
    vertex 381.9800457161887 -244.50000000000057 100.0000000003938
    vertex 381.9800457161887 -244.49999999999952 100.50000000039378
    vertex 381.9800457161887 -214.50000000000054 100.0000000003349
  endloop
endfacet
facet normal -1.0 0.0 0.0
  outer loop
    vertex 381.9800457161887 -243.99999999999963 100.5000000003931
    vertex 381.9800457161887 -214.50000000000054 100.0000000003349
    vertex 381.9800457161887 -244.49999999999952 100.50000000039378
  endloop
endfacet
facet normal -1.0 0.0 0.0
  outer loop
    vertex 381.9800457161887 -229.99999999999957 100.50000000036526
    vertex 381.9800457161887 -214.50000000000054 100.0000000003349
    vertex 381.9800457161887 -243.99999999999963 100.5000000003931
  endloop
endfacet
facet normal -1.0 0.0 0.0
  outer loop
    vertex 381.9800457161887 -228.99999999999963 100.5000000003633
    vertex 381.9800457161887 -214.50000000000054 100.0000000003349
    vertex 381.9800457161887 -229.99999999999957 100.50000000036526
  endloop
endfacet
facet normal -1.0 0.0 0.0
  outer loop
    vertex 381.9800457161887 -214.4999999999995 100.50000000033488
    vertex 381.9800457161887 -214.50000000000054 100.0000000003349
    vertex 381.9800457161887 -228.99999999999963 100.5000000003633
  endloop
endfacet
facet normal -2.8772289642299766e-17 0.8660254037854176 0.4999999999983045
  outer loop
    vertex 383.17339784943675 -245.57735026918735 101.50000000039596
    vertex 431.4026954469991 -245.57735026918735 101.50000000039596
    vertex 382.06337904952204 -244.9999999999996 100.5000000003948
  endloop
endfacet
facet normal -2.8772289642299766e-17 0.8660254037854176 0.4999999999983045
  outer loop
    vertex 431.9800457161889 -244.9999999999996 100.5000000003948
    vertex 382.06337904952204 -244.9999999999996 100.5000000003948
    vertex 431.4026954469991 -245.57735026918735 101.50000000039596
  endloop
endfacet
facet normal -0.6974858324629867 -0.11624763874244433 0.7071067811867036
  outer loop
    vertex 382.06337904952204 -244.9999999999996 100.5000000003948
    vertex 384.3967123828556 -258.99999999999966 100.50000000042238
    vertex 383.17339784943675 -245.57735026918735 101.50000000039596
  endloop
endfacet
facet normal -0.6974858324629867 -0.11624763874244433 0.7071067811867036
  outer loop
    vertex 385.3142810930402 -258.4226497308079 101.50000000042121
    vertex 383.17339784943675 -245.57735026918735 101.50000000039596
    vertex 384.3967123828556 -258.99999999999966 100.50000000042238
  endloop
endfacet
facet normal -1.0 0.0 0.0
  outer loop
    vertex 412.48004571618867 -230.00000000000063 100.00000000036529
    vertex 412.48004571618867 -229.99999999999957 100.50000000036526
    vertex 412.48004571618867 -216.70000000000076 100.00000000033901
  endloop
endfacet
facet normal -1.0 0.0 0.0
  outer loop
    vertex 412.48004571618867 -216.6999999999997 100.50000000033909
    vertex 412.48004571618867 -216.70000000000076 100.00000000033901
    vertex 412.48004571618867 -229.99999999999957 100.50000000036526
  endloop
endfacet
facet normal -1.446269736677708e-15 -0.8660254037834306 0.5000000000017462
  outer loop
    vertex 412.74799490862017 -258.4226497308079 101.5000000004213
    vertex 385.3142810930402 -258.4226497308079 101.50000000042121
    vertex 412.48004571618867 -258.99999999999966 100.50000000042238
  endloop
endfacet
facet normal -1.446269736677708e-15 -0.8660254037834306 0.5000000000017462
  outer loop
    vertex 384.3967123828556 -258.99999999999966 100.50000000042238
    vertex 412.48004571618867 -258.99999999999966 100.50000000042238
    vertex 385.3142810930402 -258.4226497308079 101.50000000042121
  endloop
endfacet
facet normal -1.446269736677708e-15 -0.8660254037834306 0.5000000000017462
  outer loop
    vertex 411.9800457161888 -258.99999999999966 100.50000000042238
    vertex 412.48004571618867 -258.99999999999966 100.50000000042238
    vertex 384.3967123828556 -258.99999999999966 100.50000000042238
  endloop
endfacet
facet normal 1.6127713174844047e-15 0.8660254037854372 0.49999999999827066
  outer loop
    vertex 411.21209652375774 -260.5773502691872 101.50000000042569
    vertex 411.4800457161889 -259.9999999999998 100.50000000042452
    vertex 385.6733978494369 -260.5773502691872 101.5000000004256
  endloop
endfacet
facet normal 1.6127713174844047e-15 0.8660254037854372 0.49999999999827066
  outer loop
    vertex 384.5633790495222 -259.9999999999998 100.50000000042452
    vertex 385.6733978494369 -260.5773502691872 101.5000000004256
    vertex 411.4800457161889 -259.9999999999998 100.50000000042452
  endloop
endfacet
facet normal 0.9659258262890682 5.098297465334247e-13 0.2588190451025216
  outer loop
    vertex 411.4800457161889 -228.99999999999963 100.5000000003633
    vertex 411.4800457161889 -216.29999999999944 100.50000000033839
    vertex 411.21209652375774 -228.4226497308079 101.50000000036214
  endloop
endfacet
facet normal 0.9659258262890682 5.098297465334247e-13 0.2588190451025216
  outer loop
    vertex 411.21209652375774 -216.19282032302522 101.50000000033799
    vertex 411.21209652375774 -228.4226497308079 101.50000000036214
    vertex 411.4800457161889 -216.29999999999944 100.50000000033839
  endloop
endfacet
facet normal 1.0 0.0 0.0
  outer loop
    vertex 411.4800457161889 -272.70000000000044 100.00000000044935
    vertex 411.4800457161889 -260.0000000000006 100.00000000042446
    vertex 411.4800457161889 -272.6999999999996 100.50000000044942
  endloop
endfacet
facet normal 1.0 0.0 0.0
  outer loop
    vertex 411.4800457161889 -259.9999999999998 100.50000000042452
    vertex 411.4800457161889 -272.6999999999996 100.50000000044942
    vertex 411.4800457161889 -260.0000000000006 100.00000000042446
  endloop
endfacet
facet normal 1.0 0.0 0.0
  outer loop
    vertex 411.4800457161889 -229.00000000000065 100.00000000036331
    vertex 411.4800457161889 -216.3000000000005 100.00000000033842
    vertex 411.4800457161889 -228.99999999999963 100.5000000003633
  endloop
endfacet
facet normal 1.0 0.0 0.0
  outer loop
    vertex 411.4800457161889 -216.29999999999944 100.50000000033839
    vertex 411.4800457161889 -228.99999999999963 100.5000000003633
    vertex 411.4800457161889 -216.3000000000005 100.00000000033842
  endloop
endfacet
facet normal 0.7071067811865314 -0.7071067811865637 1.414153666719518e-12
  outer loop
    vertex 411.4800457161889 -259.9999999999998 100.50000000042452
    vertex 411.4800457161889 -260.0000000000006 100.00000000042446
    vertex 412.48004571618867 -258.99999999999966 100.50000000042238
  endloop
endfacet
facet normal 0.7071067811865314 -0.7071067811865637 1.414153666719518e-12
  outer loop
    vertex 412.48004571618867 -259.0000000000005 100.00000000042239
    vertex 412.48004571618867 -258.99999999999966 100.50000000042238
    vertex 411.4800457161889 -260.0000000000006 100.00000000042446
  endloop
endfacet
facet normal 0.3713906763540938 0.9284766908852634 -1.7666401933175735e-12
  outer loop
    vertex 411.21209652375774 -216.19282032302522 101.50000000033799
    vertex 411.4800457161889 -216.29999999999944 100.50000000033839
    vertex 406.98004571618884 -214.4999999999976 101.50000000033492
  endloop
endfacet
facet normal 0.3713906763540938 0.9284766908852634 -1.7666401933175735e-12
  outer loop
    vertex 406.98004571618884 -214.50000000000054 100.0000000003349
    vertex 406.98004571618884 -214.4999999999976 101.50000000033492
    vertex 411.4800457161889 -216.29999999999944 100.50000000033839
  endloop
endfacet
facet normal 0.3713906763540938 0.9284766908852634 -1.7666401933175735e-12
  outer loop
    vertex 411.4800457161889 -216.3000000000005 100.00000000033842
    vertex 406.98004571618884 -214.50000000000054 100.0000000003349
    vertex 411.4800457161889 -216.29999999999944 100.50000000033839
  endloop
endfacet
facet normal 0.8660254037843894 9.877284456273496e-13 0.5000000000000853
  outer loop
    vertex 431.40269544700016 -264.73094010767306 101.50000000043042
    vertex 431.9800457161889 -264.4999999999993 100.50000000043337
    vertex 431.4026954469991 -245.57735026918735 101.50000000039596
  endloop
endfacet
facet normal 0.8660254037843894 9.877284456273496e-13 0.5000000000000853
  outer loop
    vertex 431.9800457161889 -244.9999999999996 100.5000000003948
    vertex 431.4026954469991 -245.57735026918735 101.50000000039596
    vertex 431.9800457161889 -264.4999999999993 100.50000000043337
  endloop
endfacet
facet normal -4.756682715968196e-15 2.007532361769081e-12 1.0
  outer loop
    vertex 382.9800457161889 -230.57735026918735 101.50000000036643
    vertex 382.9800457161889 -243.4226497308079 101.50000000039194
    vertex 412.7479949086198 -230.57735026918735 101.50000000036643
  endloop
endfacet
facet normal -4.756682715968196e-15 2.007532361769081e-12 1.0
  outer loop
    vertex 431.4026954469995 -243.4226497308081 101.50000000039194
    vertex 412.7479949086198 -230.57735026918735 101.50000000036643
    vertex 382.9800457161889 -243.4226497308079 101.50000000039194
  endloop
endfacet
facet normal -4.756682715968196e-15 2.007532361769081e-12 1.0
  outer loop
    vertex 412.74799490862017 -219.2637309272351 101.5000000003431
    vertex 412.7479949086198 -230.57735026918735 101.50000000036643
    vertex 431.4026954469995 -243.4226497308081 101.50000000039194
  endloop
endfacet
facet normal -4.756682715968196e-15 2.007532361769081e-12 1.0
  outer loop
    vertex 431.1329590781707 -226.61771659504606 101.50000000035871
    vertex 412.74799490862017 -219.2637309272351 101.5000000003431
    vertex 431.4026954469995 -243.4226497308081 101.50000000039194
  endloop
endfacet
facet normal -4.756682715968196e-15 2.007532361769081e-12 1.0
  outer loop
    vertex 431.40269544699925 -225.94337567297333 101.50000000035742
    vertex 431.1329590781707 -226.61771659504606 101.50000000035871
    vertex 431.4026954469995 -243.4226497308081 101.50000000039194
  endloop
endfacet
facet normal 0.37139067635410106 -0.9284766908852605 1.7439299099595048e-12
  outer loop
    vertex 412.74799490862017 -272.19282032302493 101.50000000044508
    vertex 412.4797218077015 -272.3001295633943 100.50000021027653
    vertex 431.40269544700016 -264.73094010767306 101.50000000043042
  endloop
endfacet
facet normal 0.37139067635410106 -0.9284766908852605 1.7439299099595048e-12
  outer loop
    vertex 431.9800457161889 -264.4999999999993 100.50000000043337
    vertex 431.40269544700016 -264.73094010767306 101.50000000043042
    vertex 412.4797218077015 -272.3001295633943 100.50000021027653
  endloop
endfacet
facet normal 0.37139067635410106 -0.9284766908852605 1.7439299099595048e-12
  outer loop
    vertex 412.48203520759836 -272.29920420343655 100.00000000044875
    vertex 431.9800457161889 -264.4999999999993 100.50000000043337
    vertex 412.4797218077015 -272.3001295633943 100.50000021027653
  endloop
endfacet
facet normal 0.37139067635410106 -0.9284766908852605 1.7439299099595048e-12
  outer loop
    vertex 431.9800457161891 -264.50000000000017 100.00000000043339
    vertex 431.9800457161889 -264.4999999999993 100.50000000043337
    vertex 412.48203520759836 -272.29920420343655 100.00000000044875
  endloop
endfacet
facet normal -0.6974858324628235 -0.11624763874242486 0.7071067811868679
  outer loop
    vertex 384.5633790495222 -259.9999999999998 100.50000000042452
    vertex 386.98004571618884 -274.49999999999955 100.50000000045294
    vertex 385.6733978494369 -260.5773502691872 101.5000000004256
  endloop
endfacet
facet normal -0.6974858324628235 -0.11624763874242486 0.7071067811868679
  outer loop
    vertex 387.993839471239 -274.49999999999767 101.50000000045289
    vertex 385.6733978494369 -260.5773502691872 101.5000000004256
    vertex 386.98004571618884 -274.49999999999955 100.50000000045294
  endloop
endfacet
facet normal -4.216213538490054e-16 1.8740843759930438e-12 1.0
  outer loop
    vertex 383.17339784943675 -245.57735026918735 101.50000000039596
    vertex 385.3142810930402 -258.4226497308079 101.50000000042121
    vertex 431.4026954469991 -245.57735026918735 101.50000000039596
  endloop
endfacet
facet normal -4.216213538490054e-16 1.8740843759930438e-12 1.0
  outer loop
    vertex 412.74799490862017 -258.4226497308079 101.5000000004213
    vertex 431.4026954469991 -245.57735026918735 101.50000000039596
    vertex 385.3142810930402 -258.4226497308079 101.50000000042121
  endloop
endfacet
facet normal -4.216213538490054e-16 1.8740843759930438e-12 1.0
  outer loop
    vertex 412.74799490862017 -272.19282032302493 101.50000000044508
    vertex 431.4026954469991 -245.57735026918735 101.50000000039596
    vertex 412.74799490862017 -258.4226497308079 101.5000000004213
  endloop
endfacet
facet normal -4.216213538490054e-16 1.8740843759930438e-12 1.0
  outer loop
    vertex 431.40269544700016 -264.73094010767306 101.50000000043042
    vertex 431.4026954469991 -245.57735026918735 101.50000000039596
    vertex 412.74799490862017 -272.19282032302493 101.50000000044508
  endloop
endfacet
facet normal 0.8660254037844977 9.956842501856088e-13 0.4999999999998978
  outer loop
    vertex 431.9800457161889 -243.99999999999963 100.5000000003931
    vertex 431.9800457161887 -224.49999999999957 100.50000000035455
    vertex 431.4026954469995 -243.4226497308081 101.50000000039194
  endloop
endfacet
facet normal 0.8660254037844977 9.956842501856088e-13 0.4999999999998978
  outer loop
    vertex 431.40269544699925 -225.94337567297333 101.50000000035742
    vertex 431.4026954469995 -243.4226497308081 101.50000000039194
    vertex 431.9800457161887 -224.49999999999957 100.50000000035455
  endloop
endfacet
facet normal -7.831317347100273e-14 -1.0 1.2931564096619949e-12
  outer loop
    vertex 406.980045716189 -274.50000000000074 101.50000000045289
    vertex 387.993839471239 -274.49999999999767 101.50000000045289
    vertex 406.980045716189 -274.5000000000006 100.00000000045287
  endloop
endfacet
facet normal -7.831317347100273e-14 -1.0 1.2931564096619949e-12
  outer loop
    vertex 386.98004571618884 -274.49999999999955 100.50000000045294
    vertex 406.980045716189 -274.5000000000006 100.00000000045287
    vertex 387.993839471239 -274.49999999999767 101.50000000045289
  endloop
endfacet
facet normal -7.831317347100273e-14 -1.0 1.2931564096619949e-12
  outer loop
    vertex 386.98004571618907 -274.5000000000006 100.00000000045287
    vertex 406.980045716189 -274.5000000000006 100.00000000045287
    vertex 386.98004571618884 -274.49999999999955 100.50000000045294
  endloop
endfacet
facet normal 6.692082089368874e-16 1.0 -1.9419360456696144e-12
  outer loop
    vertex 382.9800457161889 -214.4999999999976 101.500000000335
    vertex 406.98004571618884 -214.4999999999976 101.50000000033492
    vertex 381.9800457161887 -214.4999999999995 100.50000000033488
  endloop
endfacet
facet normal 6.692082089368874e-16 1.0 -1.9419360456696144e-12
  outer loop
    vertex 406.98004571618884 -214.50000000000054 100.0000000003349
    vertex 381.9800457161887 -214.4999999999995 100.50000000033488
    vertex 406.98004571618884 -214.4999999999976 101.50000000033492
  endloop
endfacet
facet normal 6.692082089368874e-16 1.0 -1.9419360456696144e-12
  outer loop
    vertex 381.9800457161887 -214.50000000000054 100.0000000003349
    vertex 381.9800457161887 -214.4999999999995 100.50000000033488
    vertex 406.98004571618884 -214.50000000000054 100.0000000003349
  endloop
endfacet
facet normal 0.37139067635429307 -0.9284766908851836 1.1502053246238638e-12
  outer loop
    vertex 406.980045716189 -274.50000000000074 101.50000000045289
    vertex 406.980045716189 -274.5000000000006 100.00000000045287
    vertex 411.21209652375774 -272.80717967697024 101.50000000044972
  endloop
endfacet
facet normal 0.37139067635429307 -0.9284766908851836 1.1502053246238638e-12
  outer loop
    vertex 411.4800457161889 -272.6999999999996 100.50000000044942
    vertex 411.21209652375774 -272.80717967697024 101.50000000044972
    vertex 406.980045716189 -274.5000000000006 100.00000000045287
  endloop
endfacet
facet normal 0.37139067635429307 -0.9284766908851836 1.1502053246238638e-12
  outer loop
    vertex 411.4800457161889 -272.70000000000044 100.00000000044935
    vertex 411.4800457161889 -272.6999999999996 100.50000000044942
    vertex 406.980045716189 -274.5000000000006 100.00000000045287
  endloop
endfacet
facet normal 4.542787910237811e-15 1.95608664148698e-12 1.0
  outer loop
    vertex 382.9800457161889 -214.4999999999976 101.500000000335
    vertex 382.9800457161889 -228.4226497308079 101.50000000036214
    vertex 406.98004571618884 -214.4999999999976 101.50000000033492
  endloop
endfacet
facet normal 4.542787910237811e-15 1.95608664148698e-12 1.0
  outer loop
    vertex 411.21209652375774 -228.4226497308079 101.50000000036214
    vertex 406.98004571618884 -214.4999999999976 101.50000000033492
    vertex 382.9800457161889 -228.4226497308079 101.50000000036214
  endloop
endfacet
facet normal 4.542787910237811e-15 1.95608664148698e-12 1.0
  outer loop
    vertex 411.21209652375774 -216.19282032302522 101.50000000033799
    vertex 406.98004571618884 -214.4999999999976 101.50000000033492
    vertex 411.21209652375774 -228.4226497308079 101.50000000036214
  endloop
endfacet
facet normal 3.277168350927032e-12 1.367448015702791e-12 1.0
  outer loop
    vertex 412.74799490862017 -216.80717967697015 101.50000000033938
    vertex 412.74799490862017 -218.7284789475812 101.50000000034198
    vertex 413.41051189848184 -217.07218647292427 101.50000000033755
  endloop
endfacet
facet normal -0.9658733759803774 1.1758145608300084e-05 0.25901471277519095
  outer loop
    vertex 412.4797218077015 -272.3001295633943 100.50000021027653
    vertex 412.74799490862017 -272.19282032302493 101.50000000044508
    vertex 412.48004571618867 -258.99999999999966 100.50000000042238
  endloop
endfacet
facet normal -0.9658733759803774 1.1758145608300084e-05 0.25901471277519095
  outer loop
    vertex 412.74799490862017 -258.4226497308079 101.5000000004213
    vertex 412.48004571618867 -258.99999999999966 100.50000000042238
    vertex 412.74799490862017 -272.19282032302493 101.50000000044508
  endloop
endfacet
facet normal -0.9999966955029951 -5.692548744000568e-05 -0.0025701639206938296
  outer loop
    vertex 412.4797218077015 -272.3001295633943 100.50000021027653
    vertex 412.48004571618867 -258.99999999999966 100.50000000042238
    vertex 412.48203520759836 -272.29920420343655 100.00000000044875
  endloop
endfacet
facet normal -0.9999966955029951 -5.692548744000568e-05 -0.0025701639206938296
  outer loop
    vertex 412.48004571618867 -259.0000000000005 100.00000000042239
    vertex 412.48203520759836 -272.29920420343655 100.00000000044875
    vertex 412.48004571618867 -258.99999999999966 100.50000000042238
  endloop
endfacet
facet normal 1.0321597045156781e-15 -1.9743166884314265e-12 -1.0
  outer loop
    vertex 411.4800457161889 -260.0000000000006 100.00000000042446
    vertex 411.4800457161889 -229.00000000000065 100.00000000036331
    vertex 412.48004571618867 -259.0000000000005 100.00000000042239
  endloop
endfacet
facet normal 1.0321597045156781e-15 -1.9743166884314265e-12 -1.0
  outer loop
    vertex 412.48004571618867 -230.00000000000063 100.00000000036529
    vertex 412.48004571618867 -259.0000000000005 100.00000000042239
    vertex 411.4800457161889 -229.00000000000065 100.00000000036331
  endloop
endfacet
facet normal 1.0321597045156781e-15 -1.9743166884314265e-12 -1.0
  outer loop
    vertex 412.48203520759836 -272.29920420343655 100.00000000044875
    vertex 412.48004571618867 -259.0000000000005 100.00000000042239
    vertex 412.48004571618867 -230.00000000000063 100.00000000036529
  endloop
endfacet
facet normal 1.0321597045156781e-15 -1.9743166884314265e-12 -1.0
  outer loop
    vertex 412.48004571618867 -216.70000000000076 100.00000000033901
    vertex 412.48203520759836 -272.29920420343655 100.00000000044875
    vertex 412.48004571618867 -230.00000000000063 100.00000000036529
  endloop
endfacet
facet normal 1.0321597045156781e-15 -1.9743166884314265e-12 -1.0
  outer loop
    vertex 413.41051189848184 -217.072186472927 100.00000000033754
    vertex 412.48203520759836 -272.29920420343655 100.00000000044875
    vertex 412.48004571618867 -216.70000000000076 100.00000000033901
  endloop
endfacet
facet normal 1.0321597045156781e-15 -1.9743166884314265e-12 -1.0
  outer loop
    vertex 431.9800457161891 -264.50000000000017 100.00000000043339
    vertex 412.48203520759836 -272.29920420343655 100.00000000044875
    vertex 413.41051189848184 -217.072186472927 100.00000000033754
  endloop
endfacet
facet normal 1.0321597045156781e-15 -1.9743166884314265e-12 -1.0
  outer loop
    vertex 430.1230923344185 -223.75721864729158 100.00000000035301
    vertex 431.9800457161891 -264.50000000000017 100.00000000043339
    vertex 413.41051189848184 -217.072186472927 100.00000000033754
  endloop
endfacet
facet normal 1.0321597045156781e-15 -1.9743166884314265e-12 -1.0
  outer loop
    vertex 431.9800457161887 -224.50000000000043 100.00000000035458
    vertex 431.9800457161891 -264.50000000000017 100.00000000043339
    vertex 430.1230923344185 -223.75721864729158 100.00000000035301
  endloop
endfacet
facet normal 1.0321597045156781e-15 -1.9743166884314265e-12 -1.0
  outer loop
    vertex 381.9800457161887 -244.50000000000057 100.0000000003938
    vertex 381.9800457161887 -214.50000000000054 100.0000000003349
    vertex 386.98004571618907 -274.5000000000006 100.00000000045287
  endloop
endfacet
facet normal 1.0321597045156781e-15 -1.9743166884314265e-12 -1.0
  outer loop
    vertex 406.98004571618884 -214.50000000000054 100.0000000003349
    vertex 386.98004571618907 -274.5000000000006 100.00000000045287
    vertex 381.9800457161887 -214.50000000000054 100.0000000003349
  endloop
endfacet
facet normal 1.0321597045156781e-15 -1.9743166884314265e-12 -1.0
  outer loop
    vertex 406.980045716189 -274.5000000000006 100.00000000045287
    vertex 386.98004571618907 -274.5000000000006 100.00000000045287
    vertex 406.98004571618884 -214.50000000000054 100.0000000003349
  endloop
endfacet
facet normal 1.0321597045156781e-15 -1.9743166884314265e-12 -1.0
  outer loop
    vertex 411.4800457161889 -216.3000000000005 100.00000000033842
    vertex 406.980045716189 -274.5000000000006 100.00000000045287
    vertex 406.98004571618884 -214.50000000000054 100.0000000003349
  endloop
endfacet
facet normal 1.0321597045156781e-15 -1.9743166884314265e-12 -1.0
  outer loop
    vertex 411.4800457161889 -272.70000000000044 100.00000000044935
    vertex 406.980045716189 -274.5000000000006 100.00000000045287
    vertex 411.4800457161889 -216.3000000000005 100.00000000033842
  endloop
endfacet
facet normal 1.0321597045156781e-15 -1.9743166884314265e-12 -1.0
  outer loop
    vertex 411.4800457161889 -260.0000000000006 100.00000000042446
    vertex 411.4800457161889 -272.70000000000044 100.00000000044935
    vertex 411.4800457161889 -216.3000000000005 100.00000000033842
  endloop
endfacet
facet normal 1.0321597045156781e-15 -1.9743166884314265e-12 -1.0
  outer loop
    vertex 411.4800457161889 -229.00000000000065 100.00000000036331
    vertex 411.4800457161889 -260.0000000000006 100.00000000042446
    vertex 411.4800457161889 -216.3000000000005 100.00000000033842
  endloop
endfacet
facet normal -0.9999966955029951 -5.692548744000568e-05 -0.00257016392069383
  outer loop
    vertex 412.4797218077015 -272.3001295633943 100.50000021027653
    vertex 412.48004571618867 -258.99999999999966 100.50000000042238
    vertex 412.48203520759836 -272.29920420343655 100.00000000044875
  endloop
endfacet
facet normal -0.9999966955029951 -5.692548744000568e-05 -0.00257016392069383
  outer loop
    vertex 412.48004571618867 -259.0000000000005 100.00000000042239
    vertex 412.48203520759836 -272.29920420343655 100.00000000044875
    vertex 412.48004571618867 -258.99999999999966 100.50000000042238
  endloop
endfacet
facet normal -0.9999966955029951 -5.692548744000569e-05 -0.0025701639206938305
  outer loop
    vertex 412.4797218077015 -272.3001295633943 100.50000021027653
    vertex 412.48004571618867 -258.99999999999966 100.50000000042238
    vertex 412.48203520759836 -272.29920420343655 100.00000000044875
  endloop
endfacet
facet normal -0.9999966955029951 -5.692548744000569e-05 -0.0025701639206938305
  outer loop
    vertex 412.48004571618867 -259.0000000000005 100.00000000042239
    vertex 412.48203520759836 -272.29920420343655 100.00000000044875
    vertex 412.48004571618867 -258.99999999999966 100.50000000042238
  endloop
endfacet
endsolid ProtoGlove baseplate
