solid ProtoGlove baseplate
facet normal -7.590987977204142e-16 1.0 1.9418995718950586e-12
  outer loop
    vertex 32.5000000000003 253.5000000002089 100.00000000052789
    vertex 13.530776406404806 253.50000000020597 101.5000000005279
    vertex 32.5000000000003 253.50000000020597 101.50000000052799
  endloop
endfacet
facet normal -7.590987977204142e-16 1.0 1.9418995718950586e-12
  outer loop
    vertex 13.530776406404806 253.50000000020597 101.5000000005279
    vertex 32.5000000000003 253.5000000002089 100.00000000052789
    vertex 12.500000000000226 253.50000000020788 100.50000000052786
  endloop
endfacet
facet normal -7.590987977204142e-16 1.0 1.9418995718950586e-12
  outer loop
    vertex 12.500000000000226 253.50000000020788 100.50000000052786
    vertex 32.5000000000003 253.5000000002089 100.00000000052789
    vertex 12.500000000000044 253.5000000002089 100.00000000052789
  endloop
endfacet
facet normal 0.3880570000581494 0.9216353751380584 1.7926256237321049e-12
  outer loop
    vertex 44.99999999999987 248.23684210546907 101.50000000051743
    vertex 32.5000000000003 253.5000000002089 100.00000000052789
    vertex 32.5000000000003 253.50000000020597 101.50000000052799
  endloop
endfacet
facet normal 0.3880570000581494 0.9216353751380584 1.7926256237321049e-12
  outer loop
    vertex 32.5000000000003 253.5000000002089 100.00000000052789
    vertex 44.99999999999987 248.23684210546907 101.50000000051743
    vertex 44.99999999999987 248.236842105472 100.00000000051749
  endloop
endfacet
facet normal -1.518628987305205e-15 -1.9776632595369843e-12 1.0
  outer loop
    vertex 34.991306106040234 229.57735026939542 101.50000000048058
    vertex 13.530776406404806 253.50000000020597 101.5000000005279
    vertex 7.550113973701974 229.57735026939542 101.50000000048058
  endloop
endfacet
facet normal -1.518628987305205e-15 -1.9776632595369843e-12 1.0
  outer loop
    vertex 13.530776406404806 253.50000000020597 101.5000000005279
    vertex 34.991306106040234 229.57735026939542 101.50000000048058
    vertex 32.5000000000003 253.50000000020597 101.50000000052799
  endloop
endfacet
facet normal -1.518628987305205e-15 -1.9776632595369843e-12 1.0
  outer loop
    vertex 32.5000000000003 253.50000000020597 101.50000000052799
    vertex 34.991306106040234 229.57735026939542 101.50000000048058
    vertex 44.99999999999987 248.23684210546907 101.50000000051743
  endloop
endfacet
facet normal -1.518628987305205e-15 -1.9776632595369843e-12 1.0
  outer loop
    vertex 44.99999999999987 248.23684210546907 101.50000000051743
    vertex 34.991306106040234 229.57735026939542 101.50000000048058
    vertex 44.99999999999987 239.5860441633556 101.50000000050052
  endloop
endfacet
facet normal -4.718717688173725e-15 -1.0 -1.952335253476512e-12
  outer loop
    vertex 0.0 153.50000000020788 100.5000000003307
    vertex 32.50000000000019 153.5000000002058 101.50000000033074
    vertex 1.0000000000001334 153.50000000020597 101.50000000033083
  endloop
endfacet
facet normal -4.718717688173725e-15 -1.0 -1.952335253476512e-12
  outer loop
    vertex 32.50000000000019 153.5000000002058 101.50000000033074
    vertex 0.0 153.50000000020788 100.5000000003307
    vertex 32.50000000000019 153.5000000002087 100.00000000033073
  endloop
endfacet
facet normal -4.718717688173725e-15 -1.0 -1.952335253476512e-12
  outer loop
    vertex 32.50000000000019 153.5000000002087 100.00000000033073
    vertex 0.0 153.50000000020788 100.5000000003307
    vertex 0.0 153.5000000002089 100.00000000033073
  endloop
endfacet
facet normal -0.9216353751380088 -0.38805700005826704 -7.431021547053326e-13
  outer loop
    vertex 54.94192675495828 158.2816344928559 106.1436403325067
    vertex 53.27257412099752 162.24634699851933 101.50000000034619
    vertex 53.27257412099752 162.24634699852226 100.00000000034618
  endloop
endfacet
facet normal -0.9216353751380088 -0.38805700005826704 -7.431021547053326e-13
  outer loop
    vertex 53.27257412099752 162.24634699851933 101.50000000034619
    vertex 54.94192675495828 158.2816344928559 106.1436403325067
    vertex 53.54381813859376 161.60214245672185 104.1491525850534
  endloop
endfacet
facet normal -0.9216353751380088 -0.38805700005826704 -7.431021547053326e-13
  outer loop
    vertex 53.54381813859376 161.60214245672185 104.1491525850534
    vertex 54.94192675495828 158.2816344928559 106.1436403325067
    vertex 54.058381135590416 160.38005533885416 105.6152887573384
  endloop
endfacet
facet normal -0.9216353751380088 -0.38805700005826704 -7.431021547053326e-13
  outer loop
    vertex 54.058381135590416 160.38005533885416 105.6152887573384
    vertex 54.94192675495828 158.2816344928559 106.1436403325067
    vertex 54.29982032347809 159.80663726762046 106.39569629246677
  endloop
endfacet
facet normal -0.9216353751380088 -0.38805700005826704 -7.431021547053326e-13
  outer loop
    vertex 54.29982032347809 159.80663726762046 106.39569629246677
    vertex 54.94192675495828 158.2816344928559 106.1436403325067
    vertex 54.4651102276118 159.41407374530093 107.00400498703438
  endloop
endfacet
facet normal -0.9216353751380088 -0.38805700005826704 -7.431021547053326e-13
  outer loop
    vertex 53.27257412099752 162.24634699851933 101.50000000034619
    vertex 53.26667229471514 162.2603638359358 103.4519640281323
    vertex 52.38747408896131 164.34845957460576 101.50000000035033
  endloop
endfacet
facet normal -0.9216353751380088 -0.38805700005826704 -7.431021547053326e-13
  outer loop
    vertex 53.26667229471514 162.2603638359358 103.4519640281323
    vertex 53.27257412099752 162.24634699851933 101.50000000034619
    vertex 53.54381813859376 161.60214245672185 104.1491525850534
  endloop
endfacet
facet normal -0.31780457885088226 0.7545879517797063 0.5741056285130127
  outer loop
    vertex 81.02724620247699 171.06029026931628 106.39569629248821
    vertex 66.48089023134798 160.7351965390592 111.91213247478828
    vertex 82.52801821378004 167.49595674246555 111.91891725278576
  endloop
endfacet
facet normal -0.31780457885088226 0.7545879517797063 0.5741056285130127
  outer loop
    vertex 66.48089023134798 160.7351965390592 111.91213247478828
    vertex 81.02724620247699 171.06029026931628 106.39569629248821
    vertex 54.4651102276118 159.41407374530093 107.00400498703438
  endloop
endfacet
facet normal -0.31780457885088226 0.7545879517797063 0.5741056285130127
  outer loop
    vertex 54.4651102276118 159.41407374530093 107.00400498703438
    vertex 81.02724620247699 171.06029026931628 106.39569629248821
    vertex 54.29982032347809 159.80663726762046 106.39569629246677
  endloop
endfacet
facet normal 0.22258035119470576 -0.5286283340884543 0.8191520442878154
  outer loop
    vertex 69.97499232841949 159.94374848803707 112.28728066467808
    vertex 83.10029700424498 166.1367946151085 112.71746299195327
    vertex 69.7365840647458 160.50996811426077 112.71746299194255
  endloop
endfacet
facet normal 0.22258035119470576 -0.5286283340884543 0.8191520442878154
  outer loop
    vertex 83.10029700424498 166.1367946151085 112.71746299195327
    vertex 69.97499232841949 159.94374848803707 112.28728066467808
    vertex 83.33870526792012 165.57057498888497 112.28728066468886
  endloop
endfacet
facet normal 0.9216353751379034 0.3880570000585173 7.487090512570516e-13
  outer loop
    vertex 79.99409817371694 173.5140168376228 103.45196402815625
    vertex 79.42264973081092 174.87120688952837 101.50000000037282
    vertex 79.11489996796293 175.60211257629288 101.50000000037429
  endloop
endfacet
facet normal 0.9216353751379034 0.3880570000585173 7.487090512570516e-13
  outer loop
    vertex 79.42264973081092 174.87120688952837 101.50000000037282
    vertex 79.99409817371694 173.5140168376228 103.45196402815625
    vertex 80.00000000000021 173.50000000020802 100.50000000037011
  endloop
endfacet
facet normal 0.9216353751379034 0.3880570000585173 7.487090512570516e-13
  outer loop
    vertex 80.00000000000021 173.50000000020802 100.50000000037011
    vertex 79.99409817371694 173.5140168376228 103.45196402815625
    vertex 80.27124401759482 172.8557954584088 104.14915258507736
  endloop
endfacet
facet normal 0.9216353751379034 0.3880570000585173 7.487090512570516e-13
  outer loop
    vertex 80.00000000000021 173.50000000020802 100.50000000037011
    vertex 83.33870526792012 165.57057498888497 112.28728066468886
    vertex 79.99999999999913 173.50000000020924 100.00000000037014
  endloop
endfacet
facet normal 0.9216353751379034 0.3880570000585173 7.487090512570516e-13
  outer loop
    vertex 83.33870526792012 165.57057498888497 112.28728066468886
    vertex 80.00000000000021 173.50000000020802 100.50000000037011
    vertex 80.27124401759482 172.8557954584088 104.14915258507736
  endloop
endfacet
facet normal 0.9216353751379034 0.3880570000585173 7.487090512570516e-13
  outer loop
    vertex 83.33870526792012 165.57057498888497 112.28728066468886
    vertex 80.27124401759482 172.8557954584088 104.14915258507736
    vertex 80.78580701459312 171.6337083405417 105.61528875736208
  endloop
endfacet
facet normal 0.9216353751379034 0.3880570000585173 7.487090512570516e-13
  outer loop
    vertex 83.33870526792012 165.57057498888497 112.28728066468886
    vertex 80.78580701459312 171.6337083405417 105.61528875736208
    vertex 81.02724620247699 171.06029026931628 106.39569629248821
  endloop
endfacet
facet normal 0.9216353751379034 0.3880570000585173 7.487090512570516e-13
  outer loop
    vertex 83.33870526792012 165.57057498888497 112.28728066468886
    vertex 81.02724620247699 171.06029026931628 106.39569629248821
    vertex 82.52801821378004 167.49595674246555 111.91891725278576
  endloop
endfacet
facet normal 0.9216353751379034 0.3880570000585173 7.487090512570516e-13
  outer loop
    vertex 83.33870526792012 165.57057498888497 112.28728066468886
    vertex 82.52801821378004 167.49595674246555 111.91891725278576
    vertex 83.10029700424498 166.1367946151085 112.71746299195327
  endloop
endfacet
facet normal -0.2532902708381732 0.6015643932389573 0.7576043291097075
  outer loop
    vertex 53.26667229471514 162.2603638359358 103.4519640281323
    vertex 79.11489996796293 175.60211257629288 101.50000000037429
    vertex 52.38747408896131 164.34845957460576 101.50000000035033
  endloop
endfacet
facet normal -0.2532902708381732 0.6015643932389573 0.7576043291097075
  outer loop
    vertex 79.11489996796293 175.60211257629288 101.50000000037429
    vertex 53.26667229471514 162.2603638359358 103.4519640281323
    vertex 79.99409817371694 173.5140168376228 103.45196402815625
  endloop
endfacet
facet normal -0.30342923438164665 0.7206444316545715 0.6233797420897053
  outer loop
    vertex 80.78580701459312 171.6337083405417 105.61528875736208
    vertex 54.29982032347809 159.80663726762046 106.39569629246677
    vertex 81.02724620247699 171.06029026931628 106.39569629248821
  endloop
endfacet
facet normal -0.30342923438164665 0.7206444316545715 0.6233797420897053
  outer loop
    vertex 54.29982032347809 159.80663726762046 106.39569629246677
    vertex 80.78580701459312 171.6337083405417 105.61528875736208
    vertex 54.058381135590416 160.38005533885416 105.6152887573384
  endloop
endfacet
facet normal -0.18572963665564468 0.44043014560563676 0.8783654073957831
  outer loop
    vertex 69.7365840647458 160.50996811426077 112.71746299194255
    vertex 82.52801821378004 167.49595674246555 111.91891725278576
    vertex 66.48089023134798 160.7351965390592 111.91213247478828
  endloop
endfacet
facet normal -0.18572963665564468 0.44043014560563676 0.8783654073957831
  outer loop
    vertex 82.52801821378004 167.49595674246555 111.91891725278576
    vertex 69.7365840647458 160.50996811426077 112.71746299194255
    vertex 83.10029700424498 166.1367946151085 112.71746299195327
  endloop
endfacet
facet normal -0.27107297216544546 0.6437983088913153 0.7155719259655693
  outer loop
    vertex 53.54381813859376 161.60214245672185 104.1491525850534
    vertex 79.99409817371694 173.5140168376228 103.45196402815625
    vertex 53.26667229471514 162.2603638359358 103.4519640281323
  endloop
endfacet
facet normal -0.27107297216544546 0.6437983088913153 0.7155719259655693
  outer loop
    vertex 79.99409817371694 173.5140168376228 103.45196402815625
    vertex 53.54381813859376 161.60214245672185 104.1491525850534
    vertex 80.27124401759482 172.8557954584088 104.14915258507736
  endloop
endfacet
facet normal -0.2878075289102539 0.6835428811602976 0.6707726559108182
  outer loop
    vertex 80.27124401759482 172.8557954584088 104.14915258507736
    vertex 54.058381135590416 160.38005533885416 105.6152887573384
    vertex 80.78580701459312 171.6337083405417 105.61528875736208
  endloop
endfacet
facet normal -0.2878075289102539 0.6835428811602976 0.6707726559108182
  outer loop
    vertex 54.058381135590416 160.38005533885416 105.6152887573384
    vertex 80.27124401759482 172.8557954584088 104.14915258507736
    vertex 53.54381813859376 161.60214245672185 104.1491525850534
  endloop
endfacet
facet normal 0.3178776848983722 -0.7549595016321151 -0.5735764363526797
  outer loop
    vertex 69.97499232841949 159.94374848803707 112.28728066467808
    vertex 79.99999999999913 173.50000000020924 100.00000000037014
    vertex 83.33870526792012 165.57057498888497 112.28728066468886
  endloop
endfacet
facet normal 0.3178776848983722 -0.7549595016321151 -0.5735764363526797
  outer loop
    vertex 79.99999999999913 173.50000000020924 100.00000000037014
    vertex 69.97499232841949 159.94374848803707 112.28728066467808
    vertex 54.94192675495828 158.2816344928559 106.1436403325067
  endloop
endfacet
facet normal 0.3178776848983722 -0.7549595016321151 -0.5735764363526797
  outer loop
    vertex 79.99999999999913 173.50000000020924 100.00000000037014
    vertex 54.94192675495828 158.2816344928559 106.1436403325067
    vertex 53.27257412099752 162.24634699852226 100.00000000034618
  endloop
endfacet
facet normal 0.3178776848983722 -0.7549595016321151 -0.5735764363526797
  outer loop
    vertex 79.99999999999913 173.50000000020924 100.00000000037014
    vertex 53.27257412099752 162.24634699852226 100.00000000034618
    vertex 77.23509387458334 172.3358290000375 100.00000000036398
  endloop
endfacet
facet normal -0.2254302673491326 -0.6486239821419207 0.7269581310868295
  outer loop
    vertex 54.94192675495828 158.2816344928559 106.1436403325067
    vertex 66.48089023134798 160.7351965390592 111.91213247478828
    vertex 54.4651102276118 159.41407374530093 107.00400498703438
  endloop
endfacet
facet normal -0.2254302673491326 -0.6486239821419207 0.7269581310868295
  outer loop
    vertex 66.48089023134798 160.7351965390592 111.91213247478828
    vertex 54.94192675495828 158.2816344928559 106.1436403325067
    vertex 69.97499232841949 159.94374848803707 112.28728066467808
  endloop
endfacet
facet normal -0.2254302673491326 -0.6486239821419207 0.7269581310868295
  outer loop
    vertex 66.48089023134798 160.7351965390592 111.91213247478828
    vertex 69.97499232841949 159.94374848803707 112.28728066467808
    vertex 69.7365840647458 160.50996811426077 112.71746299194255
  endloop
endfacet
facet normal 1.2820323978463673e-15 -0.8660254037854346 0.4999999999982753
  outer loop
    vertex 6.374999999999994 229.00000000020802 100.50000000047942
    vertex 34.991306106040234 229.57735026939542 101.50000000048058
    vertex 7.550113973701974 229.57735026939542 101.50000000048058
  endloop
endfacet
facet normal 1.2820323978463673e-15 -0.8660254037854346 0.4999999999982753
  outer loop
    vertex 34.991306106040234 229.57735026939542 101.50000000048058
    vertex 6.374999999999994 229.00000000020802 100.50000000047942
    vertex 34.792893218813454 229.00000000020802 100.50000000047942
  endloop
endfacet
facet normal 7.017152891353717e-16 -0.8660254037854426 0.4999999999982611
  outer loop
    vertex 0.12499999999997156 204.00000000020793 100.50000000043022
    vertex 79.42264973081038 204.5773502693955 101.50000000043138
    vertex 1.3001139737019514 204.5773502693955 101.50000000043138
  endloop
endfacet
facet normal 7.017152891353717e-16 -0.8660254037854426 0.4999999999982611
  outer loop
    vertex 79.42264973081038 204.5773502693955 101.50000000043138
    vertex 0.12499999999997156 204.00000000020793 100.50000000043022
    vertex 80.00000000000021 204.00000000020793 100.50000000043022
  endloop
endfacet
facet normal -9.356156009906903e-19 0.8660254037834144 0.5000000000017739
  outer loop
    vertex 34.792893218813454 178.0000000002079 100.50000000037896
    vertex 1.0000000000001334 177.42264973101618 101.50000000037807
    vertex 34.991306106040234 177.42264973101618 101.50000000037807
  endloop
endfacet
facet normal -9.356156009906903e-19 0.8660254037834144 0.5000000000017739
  outer loop
    vertex 1.0000000000001334 177.42264973101618 101.50000000037807
    vertex 34.792893218813454 178.0000000002079 100.50000000037896
    vertex 0.0 178.0000000002079 100.50000000037896
  endloop
endfacet
facet normal -0.7071067811865478 -0.7071067811865474 -1.3928854520723737e-12
  outer loop
    vertex 52.349445512686884 161.8576612687085 100.00000000034721
    vertex 35.20710678118651 179.00000000020785 100.50000000038092
    vertex 35.20710678118651 179.0000000002089 100.00000000038095
  endloop
endfacet
facet normal -0.7071067811865478 -0.7071067811865474 -1.3928854520723737e-12
  outer loop
    vertex 35.20710678118651 179.00000000020785 100.50000000038092
    vertex 52.349445512686884 161.8576612687085 100.00000000034721
    vertex 52.349445512686884 161.8576612687075 100.50000000034719
  endloop
endfacet
facet normal 0.6830127018922136 -0.6830127018927268 0.2588190451011966
  outer loop
    vertex 34.991306106040234 229.57735026939542 101.50000000048058
    vertex 44.99999999999987 239.20710678139463 100.50000000049961
    vertex 44.99999999999987 239.5860441633556 101.50000000050052
  endloop
endfacet
facet normal 0.6830127018922136 -0.6830127018927268 0.2588190451011966
  outer loop
    vertex 44.99999999999987 239.20710678139463 100.50000000049961
    vertex 34.991306106040234 229.57735026939542 101.50000000048058
    vertex 34.792893218813454 229.00000000020802 100.50000000047942
  endloop
endfacet
facet normal 0.9238795325112701 -0.38268343236513036 -7.260359032454729e-13
  outer loop
    vertex 35.20710678118651 179.00000000020785 100.50000000038092
    vertex 34.792893218813454 178.00000000020893 100.00000000037898
    vertex 35.20710678118651 179.0000000002089 100.00000000038095
  endloop
endfacet
facet normal 0.9238795325112701 -0.38268343236513036 -7.260359032454729e-13
  outer loop
    vertex 34.792893218813454 178.00000000020893 100.00000000037898
    vertex 35.20710678118651 179.00000000020785 100.50000000038092
    vertex 34.792893218813454 178.0000000002079 100.50000000037896
  endloop
endfacet
facet normal 0.0 -1.9698374875698473e-12 1.0
  outer loop
    vertex 34.792893218813454 178.0000000002079 100.50000000037896
    vertex 0.0 179.00000000020785 100.50000000038092
    vertex 0.0 178.0000000002079 100.50000000037896
  endloop
endfacet
facet normal 0.0 -1.9698374875698473e-12 1.0
  outer loop
    vertex 0.0 179.00000000020785 100.50000000038092
    vertex 34.792893218813454 178.0000000002079 100.50000000037896
    vertex 35.20710678118651 179.00000000020785 100.50000000038092
  endloop
endfacet
facet normal -7.327001902663935e-16 0.8660254037834568 0.5000000000017006
  outer loop
    vertex 80.00000000000021 203.000000000208 100.50000000042851
    vertex 1.0000000000001334 202.42264973101626 101.50000000042735
    vertex 79.42264973081075 202.42264973101643 101.50000000042735
  endloop
endfacet
facet normal -7.327001902663935e-16 0.8660254037834568 0.5000000000017006
  outer loop
    vertex 1.0000000000001334 202.42264973101626 101.50000000042735
    vertex 80.00000000000021 203.000000000208 100.50000000042851
    vertex 0.0 203.000000000208 100.50000000042851
  endloop
endfacet
facet normal 0.0 -1.9698374875698473e-12 1.0
  outer loop
    vertex 35.20710678118651 228.0000000002079 100.50000000047763
    vertex 6.374999999999994 229.00000000020802 100.50000000047942
    vertex 6.125000000000051 228.0000000002079 100.50000000047763
  endloop
endfacet
facet normal 0.0 -1.9698374875698473e-12 1.0
  outer loop
    vertex 6.374999999999994 229.00000000020802 100.50000000047942
    vertex 35.20710678118651 228.0000000002079 100.50000000047763
    vertex 34.792893218813454 229.00000000020802 100.50000000047942
  endloop
endfacet
facet normal -0.6859943405700417 0.17149858514111685 0.707106781186879
  outer loop
    vertex 1.3001139737019514 204.5773502693955 101.50000000043138
    vertex 6.125000000000051 228.0000000002079 100.50000000047763
    vertex 0.12499999999997156 204.00000000020793 100.50000000043022
  endloop
endfacet
facet normal -0.6859943405700417 0.17149858514111685 0.707106781186879
  outer loop
    vertex 6.125000000000051 228.0000000002079 100.50000000047763
    vertex 1.3001139737019514 204.5773502693955 101.50000000043138
    vertex 7.0114388391071145 227.42264973101618 101.50000000047656
  endloop
endfacet
facet normal -1.0482190561727296e-15 -2.0035149297735953e-12 1.0
  outer loop
    vertex 52.616105151846135 161.96993901150955 101.50000000034758
    vertex 52.38747408896131 164.34845957460576 101.50000000035033
    vertex 35.00869389396009 179.57735026939562 101.50000000038209
  endloop
endfacet
facet normal -1.0482190561727296e-15 -2.0035149297735953e-12 1.0
  outer loop
    vertex 52.38747408896131 164.34845957460576 101.50000000035033
    vertex 52.616105151846135 161.96993901150955 101.50000000034758
    vertex 53.27257412099752 162.24634699851933 101.50000000034619
  endloop
endfacet
facet normal -1.0482190561727296e-15 -2.0035149297735953e-12 1.0
  outer loop
    vertex 35.00869389396009 179.57735026939562 101.50000000038209
    vertex 1.0000000000001334 202.42264973101626 101.50000000042735
    vertex 1.0000000000001334 179.57735026939562 101.50000000038209
  endloop
endfacet
facet normal -1.0482190561727296e-15 -2.0035149297735953e-12 1.0
  outer loop
    vertex 1.0000000000001334 202.42264973101626 101.50000000042735
    vertex 35.00869389396009 179.57735026939562 101.50000000038209
    vertex 79.42264973081075 202.42264973101643 101.50000000042735
  endloop
endfacet
facet normal -1.0482190561727296e-15 -2.0035149297735953e-12 1.0
  outer loop
    vertex 79.42264973081075 202.42264973101643 101.50000000042735
    vertex 35.00869389396009 179.57735026939562 101.50000000038209
    vertex 52.38747408896131 164.34845957460576 101.50000000035033
  endloop
endfacet
facet normal -1.0482190561727296e-15 -2.0035149297735953e-12 1.0
  outer loop
    vertex 79.42264973081075 202.42264973101643 101.50000000042735
    vertex 52.38747408896131 164.34845957460576 101.50000000035033
    vertex 79.11489996796293 175.60211257629288 101.50000000037429
  endloop
endfacet
facet normal -1.0482190561727296e-15 -2.0035149297735953e-12 1.0
  outer loop
    vertex 79.42264973081075 202.42264973101643 101.50000000042735
    vertex 79.11489996796293 175.60211257629288 101.50000000037429
    vertex 79.42264973081092 174.87120688952837 101.50000000037282
  endloop
endfacet
facet normal -5.546179352926856e-16 -0.8660254037854098 0.4999999999983182
  outer loop
    vertex 0.0 179.00000000020785 100.50000000038092
    vertex 35.00869389396009 179.57735026939562 101.50000000038209
    vertex 1.0000000000001334 179.57735026939562 101.50000000038209
  endloop
endfacet
facet normal -5.546179352926856e-16 -0.8660254037854098 0.4999999999983182
  outer loop
    vertex 35.00869389396009 179.57735026939562 101.50000000038209
    vertex 0.0 179.00000000020785 100.50000000038092
    vertex 35.20710678118651 179.00000000020785 100.50000000038092
  endloop
endfacet
facet normal -4.11567992854975e-15 0.8660254037834636 0.5000000000016888
  outer loop
    vertex 35.20710678118651 228.0000000002079 100.50000000047763
    vertex 7.0114388391071145 227.42264973101618 101.50000000047656
    vertex 35.00869389396045 227.42264973101652 101.50000000047665
  endloop
endfacet
facet normal -4.11567992854975e-15 0.8660254037834636 0.5000000000016888
  outer loop
    vertex 7.0114388391071145 227.42264973101618 101.50000000047656
    vertex 35.20710678118651 228.0000000002079 100.50000000047763
    vertex 6.125000000000051 228.0000000002079 100.50000000047763
  endloop
endfacet
facet normal 0.0 -1.9698374875698473e-12 1.0
  outer loop
    vertex 80.00000000000021 203.000000000208 100.50000000042851
    vertex 0.0 203.50000000020788 100.5000000004292
    vertex 0.0 203.000000000208 100.50000000042851
  endloop
endfacet
facet normal 0.0 -1.9698374875698473e-12 1.0
  outer loop
    vertex 0.0 203.50000000020788 100.5000000004292
    vertex 80.00000000000021 203.000000000208 100.50000000042851
    vertex 0.12499999999997156 204.00000000020793 100.50000000043022
  endloop
endfacet
facet normal 0.0 -1.9698374875698473e-12 1.0
  outer loop
    vertex 0.12499999999997156 204.00000000020793 100.50000000043022
    vertex 80.00000000000021 203.000000000208 100.50000000042851
    vertex 80.00000000000021 204.00000000020793 100.50000000043022
  endloop
endfacet
facet normal -1.0 -0.0 0.0
  outer loop
    vertex 0.0 153.5000000002089 100.00000000033073
    vertex 0.0 203.50000000020788 100.5000000004292
    vertex 0.0 203.5000000002089 100.00000000042922
  endloop
endfacet
facet normal -1.0 -0.0 0.0
  outer loop
    vertex 0.0 203.50000000020788 100.5000000004292
    vertex 0.0 153.5000000002089 100.00000000033073
    vertex 0.0 203.000000000208 100.50000000042851
  endloop
endfacet
facet normal -1.0 -0.0 0.0
  outer loop
    vertex 0.0 203.000000000208 100.50000000042851
    vertex 0.0 153.5000000002089 100.00000000033073
    vertex 0.0 179.50000000020793 100.50000000038196
  endloop
endfacet
facet normal -1.0 -0.0 0.0
  outer loop
    vertex 0.0 179.50000000020793 100.50000000038196
    vertex 0.0 153.5000000002089 100.00000000033073
    vertex 0.0 179.00000000020785 100.50000000038092
  endloop
endfacet
facet normal -1.0 -0.0 0.0
  outer loop
    vertex 0.0 179.00000000020785 100.50000000038092
    vertex 0.0 153.5000000002089 100.00000000033073
    vertex 0.0 178.0000000002079 100.50000000037896
  endloop
endfacet
facet normal -1.0 -0.0 0.0
  outer loop
    vertex 0.0 178.0000000002079 100.50000000037896
    vertex 0.0 153.5000000002089 100.00000000033073
    vertex 0.0 153.50000000020788 100.5000000003307
  endloop
endfacet
facet normal -0.9701425001453312 0.2425356250363355 5.445358088667753e-13
  outer loop
    vertex 0.0 203.5000000002089 100.00000000042922
    vertex 12.500000000000226 253.50000000020788 100.50000000052786
    vertex 12.500000000000044 253.5000000002089 100.00000000052789
  endloop
endfacet
facet normal -0.9701425001453312 0.2425356250363355 5.445358088667753e-13
  outer loop
    vertex 12.500000000000226 253.50000000020788 100.50000000052786
    vertex 0.0 203.5000000002089 100.00000000042922
    vertex 6.374999999999994 229.00000000020802 100.50000000047942
  endloop
endfacet
facet normal -0.9701425001453312 0.2425356250363355 5.445358088667753e-13
  outer loop
    vertex 6.374999999999994 229.00000000020802 100.50000000047942
    vertex 0.0 203.5000000002089 100.00000000042922
    vertex 6.125000000000051 228.0000000002079 100.50000000047763
  endloop
endfacet
facet normal -0.9701425001453312 0.2425356250363355 5.445358088667753e-13
  outer loop
    vertex 6.125000000000051 228.0000000002079 100.50000000047763
    vertex 0.0 203.5000000002089 100.00000000042922
    vertex 0.12499999999997156 204.00000000020793 100.50000000043022
  endloop
endfacet
facet normal -0.9701425001453312 0.2425356250363355 5.445358088667753e-13
  outer loop
    vertex 0.12499999999997156 204.00000000020793 100.50000000043022
    vertex 0.0 203.5000000002089 100.00000000042922
    vertex 0.0 203.50000000020788 100.5000000004292
  endloop
endfacet
facet normal -0.6830127018922154 -0.6830127018927254 0.25881904510119585
  outer loop
    vertex 35.20710678118651 179.00000000020785 100.50000000038092
    vertex 52.616105151846135 161.96993901150955 101.50000000034758
    vertex 35.00869389396009 179.57735026939562 101.50000000038209
  endloop
endfacet
facet normal -0.6830127018922154 -0.6830127018927254 0.25881904510119585
  outer loop
    vertex 52.616105151846135 161.96993901150955 101.50000000034758
    vertex 35.20710678118651 179.00000000020785 100.50000000038092
    vertex 52.349445512686884 161.8576612687075 100.50000000034719
  endloop
endfacet
facet normal -0.683012701892209 0.6830127018917012 0.25881904510391607
  outer loop
    vertex 35.20710678118651 228.0000000002079 100.50000000047763
    vertex 52.6161051518465 245.03006098890276 101.50000000051106
    vertex 52.349445512686884 245.14233873170826 100.50000000051136
  endloop
endfacet
facet normal -0.683012701892209 0.6830127018917012 0.25881904510391607
  outer loop
    vertex 52.6161051518465 245.03006098890276 101.50000000051106
    vertex 35.20710678118651 228.0000000002079 100.50000000047763
    vertex 35.00869389396045 227.42264973101652 101.50000000047665
  endloop
endfacet
facet normal 1.0 0.0 0.0
  outer loop
    vertex 44.99999999999987 248.23684210546907 101.50000000051743
    vertex 44.99999999999987 239.20710678139548 100.00000000049954
    vertex 44.99999999999987 248.236842105472 100.00000000051749
  endloop
endfacet
facet normal 1.0 0.0 0.0
  outer loop
    vertex 44.99999999999987 239.20710678139548 100.00000000049954
    vertex 44.99999999999987 248.23684210546907 101.50000000051743
    vertex 44.99999999999987 239.5860441633556 101.50000000050052
  endloop
endfacet
facet normal 1.0 0.0 0.0
  outer loop
    vertex 44.99999999999987 239.20710678139548 100.00000000049954
    vertex 44.99999999999987 239.5860441633556 101.50000000050052
    vertex 44.99999999999987 239.20710678139463 100.50000000049961
  endloop
endfacet
facet normal 1.0 -7.113658884826705e-15 -6.650531939887454e-14
  outer loop
    vertex 44.99999999999987 167.7928932190213 100.50000000035887
    vertex 44.99999999999987 158.76315789494566 100.00000000034112
    vertex 44.99999999999987 167.79289321902235 100.0000000003589
  endloop
endfacet
facet normal 1.0 -7.113658884826705e-15 -6.650531939887454e-14
  outer loop
    vertex 44.99999999999987 158.76315789494566 100.00000000034112
    vertex 44.99999999999987 167.7928932190213 100.50000000035887
    vertex 45.000000000000234 167.41395583705636 101.50000000035813
  endloop
endfacet
facet normal 1.0 -7.113658884826705e-15 -6.650531939887454e-14
  outer loop
    vertex 44.99999999999987 158.76315789494566 100.00000000034112
    vertex 45.000000000000234 167.41395583705636 101.50000000035813
    vertex 44.99999999999987 158.76315789494274 101.50000000034113
  endloop
endfacet
facet normal 0.707106781186545 0.7071067811865501 1.3928854452961156e-12
  outer loop
    vertex 44.99999999999987 167.7928932190213 100.50000000035887
    vertex 34.792893218813454 178.00000000020893 100.00000000037898
    vertex 34.792893218813454 178.0000000002079 100.50000000037896
  endloop
endfacet
facet normal 0.707106781186545 0.7071067811865501 1.3928854452961156e-12
  outer loop
    vertex 34.792893218813454 178.00000000020893 100.00000000037898
    vertex 44.99999999999987 167.7928932190213 100.50000000035887
    vertex 44.99999999999987 167.79289321902235 100.0000000003589
  endloop
endfacet
facet normal 0.3880570000581464 -0.9216353751380595 -1.7926678476721585e-12
  outer loop
    vertex 32.50000000000019 153.5000000002058 101.50000000033074
    vertex 44.99999999999987 158.76315789494566 100.00000000034112
    vertex 44.99999999999987 158.76315789494274 101.50000000034113
  endloop
endfacet
facet normal 0.3880570000581464 -0.9216353751380595 -1.7926678476721585e-12
  outer loop
    vertex 44.99999999999987 158.76315789494566 100.00000000034112
    vertex 32.50000000000019 153.5000000002058 101.50000000033074
    vertex 32.50000000000019 153.5000000002087 100.00000000033073
  endloop
endfacet
facet normal 0.707106781186545 -0.7071067811865501 -1.3928854452961156e-12
  outer loop
    vertex 34.792893218813454 229.00000000020802 100.50000000047942
    vertex 44.99999999999987 239.20710678139548 100.00000000049954
    vertex 44.99999999999987 239.20710678139463 100.50000000049961
  endloop
endfacet
facet normal 0.707106781186545 -0.7071067811865501 -1.3928854452961156e-12
  outer loop
    vertex 44.99999999999987 239.20710678139548 100.00000000049954
    vertex 34.792893218813454 229.00000000020802 100.50000000047942
    vertex 34.792893218813454 229.0000000002089 100.00000000047945
  endloop
endfacet
facet normal 1.0 -6.023779787438557e-15 -1.1887443303123004e-12
  outer loop
    vertex 80.00000000000003 233.5000000002079 100.50000000048844
    vertex 79.99999999999913 173.50000000020924 100.00000000037014
    vertex 80.00000000000003 233.50000000020896 100.00000000048847
  endloop
endfacet
facet normal 1.0 -6.023779787438557e-15 -1.1887443303123004e-12
  outer loop
    vertex 79.99999999999913 173.50000000020924 100.00000000037014
    vertex 80.00000000000003 233.5000000002079 100.50000000048844
    vertex 80.00000000000021 204.50000000020802 100.50000000043117
  endloop
endfacet
facet normal 1.0 -6.023779787438557e-15 -1.1887443303123004e-12
  outer loop
    vertex 79.99999999999913 173.50000000020924 100.00000000037014
    vertex 80.00000000000021 204.50000000020802 100.50000000043117
    vertex 80.00000000000021 204.00000000020793 100.50000000043022
  endloop
endfacet
facet normal 1.0 -6.023779787438557e-15 -1.1887443303123004e-12
  outer loop
    vertex 79.99999999999913 173.50000000020924 100.00000000037014
    vertex 80.00000000000021 204.00000000020793 100.50000000043022
    vertex 80.00000000000021 203.000000000208 100.50000000042851
  endloop
endfacet
facet normal 1.0 -6.023779787438557e-15 -1.1887443303123004e-12
  outer loop
    vertex 79.99999999999913 173.50000000020924 100.00000000037014
    vertex 80.00000000000021 203.000000000208 100.50000000042851
    vertex 80.00000000000021 173.50000000020802 100.50000000037011
  endloop
endfacet
facet normal -0.7071067811865397 -1.3928832667273858e-12 0.7071067811865555
  outer loop
    vertex 1.0000000000001334 153.50000000020597 101.50000000033083
    vertex 0.0 178.0000000002079 100.50000000037896
    vertex 0.0 153.50000000020788 100.5000000003307
  endloop
endfacet
facet normal -0.7071067811865397 -1.3928832667273858e-12 0.7071067811865555
  outer loop
    vertex 0.0 178.0000000002079 100.50000000037896
    vertex 1.0000000000001334 153.50000000020597 101.50000000033083
    vertex 1.0000000000001334 177.42264973101618 101.50000000037807
  endloop
endfacet
facet normal 0.9238795325112701 0.38268343236513036 7.81612442032127e-13
  outer loop
    vertex 34.792893218813454 229.00000000020802 100.50000000047942
    vertex 35.20710678118651 228.00000000020876 100.00000000047766
    vertex 34.792893218813454 229.0000000002089 100.00000000047945
  endloop
endfacet
facet normal 0.9238795325112701 0.38268343236513036 7.81612442032127e-13
  outer loop
    vertex 35.20710678118651 228.00000000020876 100.00000000047766
    vertex 34.792893218813454 229.00000000020802 100.50000000047942
    vertex 35.20710678118651 228.0000000002079 100.50000000047763
  endloop
endfacet
facet normal -0.7071067811865457 0.7071067811865493 1.3928854486842458e-12
  outer loop
    vertex 52.349445512686884 245.14233873170912 100.00000000051139
    vertex 35.20710678118651 228.0000000002079 100.50000000047763
    vertex 52.349445512686884 245.14233873170826 100.50000000051136
  endloop
endfacet
facet normal -0.7071067811865457 0.7071067811865493 1.3928854486842458e-12
  outer loop
    vertex 35.20710678118651 228.0000000002079 100.50000000047763
    vertex 52.349445512686884 245.14233873170912 100.00000000051139
    vertex 35.20710678118651 228.00000000020876 100.00000000047766
  endloop
endfacet
facet normal -0.7071067811865398 -1.3928860958174294e-12 0.7071067811865553
  outer loop
    vertex 1.0000000000001334 179.57735026939562 101.50000000038209
    vertex 0.0 179.50000000020793 100.50000000038196
    vertex 0.0 179.00000000020785 100.50000000038092
  endloop
endfacet
facet normal -0.7071067811865398 -1.3928860958174294e-12 0.7071067811865553
  outer loop
    vertex 0.0 179.50000000020793 100.50000000038196
    vertex 1.0000000000001334 179.57735026939562 101.50000000038209
    vertex 0.0 203.000000000208 100.50000000042851
  endloop
endfacet
facet normal -0.7071067811865398 -1.3928860958174294e-12 0.7071067811865553
  outer loop
    vertex 0.0 203.000000000208 100.50000000042851
    vertex 1.0000000000001334 179.57735026939562 101.50000000038209
    vertex 1.0000000000001334 202.42264973101626 101.50000000042735
  endloop
endfacet
facet normal 0.6830127018922125 0.683012701891718 0.25881904510386206
  outer loop
    vertex 34.991306106040234 177.42264973101618 101.50000000037807
    vertex 44.99999999999987 167.7928932190213 100.50000000035887
    vertex 34.792893218813454 178.0000000002079 100.50000000037896
  endloop
endfacet
facet normal 0.6830127018922125 0.683012701891718 0.25881904510386206
  outer loop
    vertex 44.99999999999987 167.7928932190213 100.50000000035887
    vertex 34.991306106040234 177.42264973101618 101.50000000037807
    vertex 45.000000000000234 167.41395583705636 101.50000000035813
  endloop
endfacet
facet normal 0.38805700005698246 -0.9216353751385497 -1.630730337257005e-12
  outer loop
    vertex 52.349445512686884 161.8576612687075 100.50000000034719
    vertex 53.27257412099752 162.24634699851933 101.50000000034619
    vertex 52.616105151846135 161.96993901150955 101.50000000034758
  endloop
endfacet
facet normal 0.38805700005698246 -0.9216353751385497 -1.630730337257005e-12
  outer loop
    vertex 53.27257412099752 162.24634699851933 101.50000000034619
    vertex 52.349445512686884 161.8576612687075 100.50000000034719
    vertex 53.27257412099752 162.24634699852226 100.00000000034618
  endloop
endfacet
facet normal 0.38805700005698246 -0.9216353751385497 -1.630730337257005e-12
  outer loop
    vertex 53.27257412099752 162.24634699852226 100.00000000034618
    vertex 52.349445512686884 161.8576612687075 100.50000000034719
    vertex 52.349445512686884 161.8576612687085 100.00000000034721
  endloop
endfacet
facet normal 9.77241123184337e-15 -1.9716751426048215e-12 1.0
  outer loop
    vertex 79.42264973081038 204.5773502693955 101.50000000043138
    vertex 7.0114388391071145 227.42264973101618 101.50000000047656
    vertex 1.3001139737019514 204.5773502693955 101.50000000043138
  endloop
endfacet
facet normal 9.77241123184337e-15 -1.9716751426048215e-12 1.0
  outer loop
    vertex 7.0114388391071145 227.42264973101618 101.50000000047656
    vertex 79.42264973081038 204.5773502693955 101.50000000043138
    vertex 35.00869389396045 227.42264973101652 101.50000000047665
  endloop
endfacet
facet normal 9.77241123184337e-15 -1.9716751426048215e-12 1.0
  outer loop
    vertex 35.00869389396045 227.42264973101652 101.50000000047665
    vertex 79.42264973081038 204.5773502693955 101.50000000043138
    vertex 52.6161051518465 245.03006098890276 101.50000000051106
  endloop
endfacet
facet normal 9.77241123184337e-15 -1.9716751426048215e-12 1.0
  outer loop
    vertex 52.6161051518465 245.03006098890276 101.50000000051106
    vertex 79.42264973081038 204.5773502693955 101.50000000043138
    vertex 79.40412531897624 233.75089460274276 101.50000000048729
  endloop
endfacet
facet normal -0.685994340570015 0.17149858514110916 0.7071067811869067
  outer loop
    vertex 7.550113973701974 229.57735026939542 101.50000000048058
    vertex 12.500000000000226 253.50000000020788 100.50000000052786
    vertex 6.374999999999994 229.00000000020802 100.50000000047942
  endloop
endfacet
facet normal -0.685994340570015 0.17149858514110916 0.7071067811869067
  outer loop
    vertex 12.500000000000226 253.50000000020788 100.50000000052786
    vertex 7.550113973701974 229.57735026939542 101.50000000048058
    vertex 13.530776406404806 253.50000000020597 101.5000000005279
  endloop
endfacet
facet normal 2.1772486632235037e-15 -1.976803006796182e-12 1.0
  outer loop
    vertex 32.50000000000019 153.5000000002058 101.50000000033074
    vertex 1.0000000000001334 177.42264973101618 101.50000000037807
    vertex 1.0000000000001334 153.50000000020597 101.50000000033083
  endloop
endfacet
facet normal 2.1772486632235037e-15 -1.976803006796182e-12 1.0
  outer loop
    vertex 1.0000000000001334 177.42264973101618 101.50000000037807
    vertex 32.50000000000019 153.5000000002058 101.50000000033074
    vertex 34.991306106040234 177.42264973101618 101.50000000037807
  endloop
endfacet
facet normal 2.1772486632235037e-15 -1.976803006796182e-12 1.0
  outer loop
    vertex 34.991306106040234 177.42264973101618 101.50000000037807
    vertex 32.50000000000019 153.5000000002058 101.50000000033074
    vertex 44.99999999999987 158.76315789494274 101.50000000034113
  endloop
endfacet
facet normal 2.1772486632235037e-15 -1.976803006796182e-12 1.0
  outer loop
    vertex 34.991306106040234 177.42264973101618 101.50000000037807
    vertex 44.99999999999987 158.76315789494274 101.50000000034113
    vertex 45.000000000000234 167.41395583705636 101.50000000035813
  endloop
endfacet
facet normal 0.8660254037845323 -9.86385802591042e-13 0.4999999999998377
  outer loop
    vertex 79.42264973081075 202.42264973101643 101.50000000042735
    vertex 80.00000000000021 173.50000000020802 100.50000000037011
    vertex 80.00000000000021 203.000000000208 100.50000000042851
  endloop
endfacet
facet normal 0.8660254037845323 -9.86385802591042e-13 0.4999999999998377
  outer loop
    vertex 80.00000000000021 173.50000000020802 100.50000000037011
    vertex 79.42264973081075 202.42264973101643 101.50000000042735
    vertex 79.42264973081092 174.87120688952837 101.50000000037282
  endloop
endfacet
facet normal 0.3880570000581367 0.9216353751380637 1.5584318207128274e-12
  outer loop
    vertex 79.40412531897624 233.75089460274276 101.50000000048729
    vertex 52.349445512686884 245.14233873170826 100.50000000051136
    vertex 52.6161051518465 245.03006098890276 101.50000000051106
  endloop
endfacet
facet normal 0.3880570000581367 0.9216353751380637 1.5584318207128274e-12
  outer loop
    vertex 52.349445512686884 245.14233873170826 100.50000000051136
    vertex 79.40412531897624 233.75089460274276 101.50000000048729
    vertex 80.00000000000003 233.5000000002079 100.50000000048844
  endloop
endfacet
facet normal 0.3880570000581367 0.9216353751380637 1.5584318207128274e-12
  outer loop
    vertex 52.349445512686884 245.14233873170826 100.50000000051136
    vertex 80.00000000000003 233.5000000002079 100.50000000048844
    vertex 52.349445512686884 245.14233873170912 100.00000000051139
  endloop
endfacet
facet normal 0.3880570000581367 0.9216353751380637 1.5584318207128274e-12
  outer loop
    vertex 52.349445512686884 245.14233873170912 100.00000000051139
    vertex 80.00000000000003 233.5000000002079 100.50000000048844
    vertex 80.00000000000003 233.50000000020896 100.00000000048847
  endloop
endfacet
facet normal -1.6010296944341038e-14 1.977189064238248e-12 -1.0
  outer loop
    vertex 44.99999999999987 248.236842105472 100.00000000051749
    vertex 34.792893218813454 229.0000000002089 100.00000000047945
    vertex 32.5000000000003 253.5000000002089 100.00000000052789
  endloop
endfacet
facet normal -1.6010296944341038e-14 1.977189064238248e-12 -1.0
  outer loop
    vertex 34.792893218813454 229.0000000002089 100.00000000047945
    vertex 44.99999999999987 248.236842105472 100.00000000051749
    vertex 44.99999999999987 239.20710678139548 100.00000000049954
  endloop
endfacet
facet normal -1.6010296944341038e-14 1.977189064238248e-12 -1.0
  outer loop
    vertex 35.20710678118651 228.00000000020876 100.00000000047766
    vertex 34.792893218813454 178.00000000020893 100.00000000037898
    vertex 34.792893218813454 229.0000000002089 100.00000000047945
  endloop
endfacet
facet normal -1.6010296944341038e-14 1.977189064238248e-12 -1.0
  outer loop
    vertex 34.792893218813454 178.00000000020893 100.00000000037898
    vertex 35.20710678118651 228.00000000020876 100.00000000047766
    vertex 35.20710678118651 179.0000000002089 100.00000000038095
  endloop
endfacet
facet normal -1.6010296944341038e-14 1.977189064238248e-12 -1.0
  outer loop
    vertex 35.20710678118651 179.0000000002089 100.00000000038095
    vertex 35.20710678118651 228.00000000020876 100.00000000047766
    vertex 52.349445512686884 245.14233873170912 100.00000000051139
  endloop
endfacet
facet normal -1.6010296944341038e-14 1.977189064238248e-12 -1.0
  outer loop
    vertex 35.20710678118651 179.0000000002089 100.00000000038095
    vertex 52.349445512686884 245.14233873170912 100.00000000051139
    vertex 52.349445512686884 161.8576612687085 100.00000000034721
  endloop
endfacet
facet normal -1.6010296944341038e-14 1.977189064238248e-12 -1.0
  outer loop
    vertex 52.349445512686884 161.8576612687085 100.00000000034721
    vertex 52.349445512686884 245.14233873170912 100.00000000051139
    vertex 80.00000000000003 233.50000000020896 100.00000000048847
  endloop
endfacet
facet normal -1.6010296944341038e-14 1.977189064238248e-12 -1.0
  outer loop
    vertex 52.349445512686884 161.8576612687085 100.00000000034721
    vertex 80.00000000000003 233.50000000020896 100.00000000048847
    vertex 53.27257412099752 162.24634699852226 100.00000000034618
  endloop
endfacet
facet normal -1.6010296944341038e-14 1.977189064238248e-12 -1.0
  outer loop
    vertex 53.27257412099752 162.24634699852226 100.00000000034618
    vertex 80.00000000000003 233.50000000020896 100.00000000048847
    vertex 77.23509387458334 172.3358290000375 100.00000000036398
  endloop
endfacet
facet normal -1.6010296944341038e-14 1.977189064238248e-12 -1.0
  outer loop
    vertex 77.23509387458334 172.3358290000375 100.00000000036398
    vertex 80.00000000000003 233.50000000020896 100.00000000048847
    vertex 79.99999999999913 173.50000000020924 100.00000000037014
  endloop
endfacet
facet normal -1.6010296944341038e-14 1.977189064238248e-12 -1.0
  outer loop
    vertex 12.500000000000044 253.5000000002089 100.00000000052789
    vertex 0.0 153.5000000002089 100.00000000033073
    vertex 0.0 203.5000000002089 100.00000000042922
  endloop
endfacet
facet normal -1.6010296944341038e-14 1.977189064238248e-12 -1.0
  outer loop
    vertex 0.0 153.5000000002089 100.00000000033073
    vertex 12.500000000000044 253.5000000002089 100.00000000052789
    vertex 32.50000000000019 153.5000000002087 100.00000000033073
  endloop
endfacet
facet normal -1.6010296944341038e-14 1.977189064238248e-12 -1.0
  outer loop
    vertex 32.50000000000019 153.5000000002087 100.00000000033073
    vertex 12.500000000000044 253.5000000002089 100.00000000052789
    vertex 32.5000000000003 253.5000000002089 100.00000000052789
  endloop
endfacet
facet normal -1.6010296944341038e-14 1.977189064238248e-12 -1.0
  outer loop
    vertex 32.50000000000019 153.5000000002087 100.00000000033073
    vertex 32.5000000000003 253.5000000002089 100.00000000052789
    vertex 34.792893218813454 178.00000000020893 100.00000000037898
  endloop
endfacet
facet normal -1.6010296944341038e-14 1.977189064238248e-12 -1.0
  outer loop
    vertex 32.50000000000019 153.5000000002087 100.00000000033073
    vertex 34.792893218813454 178.00000000020893 100.00000000037898
    vertex 44.99999999999987 158.76315789494566 100.00000000034112
  endloop
endfacet
facet normal -1.6010296944341038e-14 1.977189064238248e-12 -1.0
  outer loop
    vertex 34.792893218813454 178.00000000020893 100.00000000037898
    vertex 32.5000000000003 253.5000000002089 100.00000000052789
    vertex 34.792893218813454 229.0000000002089 100.00000000047945
  endloop
endfacet
facet normal -1.6010296944341038e-14 1.977189064238248e-12 -1.0
  outer loop
    vertex 44.99999999999987 158.76315789494566 100.00000000034112
    vertex 34.792893218813454 178.00000000020893 100.00000000037898
    vertex 44.99999999999987 167.79289321902235 100.0000000003589
  endloop
endfacet
facet normal 0.8630725074454855 0.00023413735517700633 0.5050799858155751
  outer loop
    vertex 79.42264973081038 204.5773502693955 101.50000000043138
    vertex 80.00000000000003 233.5000000002079 100.50000000048844
    vertex 79.40412531897624 233.75089460274276 101.50000000048729
  endloop
endfacet
facet normal 0.8630725074454855 0.00023413735517700633 0.5050799858155751
  outer loop
    vertex 80.00000000000003 233.5000000002079 100.50000000048844
    vertex 79.42264973081038 204.5773502693955 101.50000000043138
    vertex 80.00000000000021 204.50000000020802 100.50000000043117
  endloop
endfacet
facet normal 0.8630725074454855 0.00023413735517700633 0.5050799858155751
  outer loop
    vertex 80.00000000000021 204.50000000020802 100.50000000043117
    vertex 79.42264973081038 204.5773502693955 101.50000000043138
    vertex 80.00000000000021 204.00000000020793 100.50000000043022
  endloop
endfacet
endsolid ProtoGlove baseplate
