solid ProtoGlove baseplate
facet normal 0.36244626115505646 -0.932004671541254 1.1775263632255392e-12
  outer loop
    vertex 128.00606400000018 -289.5000000000008 101.50000000048279
    vertex 128.00606400000018 -289.5000000000007 100.00000000048271
    vertex 140.50606399999992 -284.63888888888647 101.50000000047321
  endloop
endfacet
facet normal 0.36244626115505646 -0.932004671541254 1.1775263632255392e-12
  outer loop
    vertex 140.50606399999992 -284.63888888888937 100.0000000004732
    vertex 140.50606399999992 -284.63888888888647 101.50000000047321
    vertex 128.00606400000018 -289.5000000000007 100.00000000048271
  endloop
endfacet
facet normal -0.25318287067820944 -0.6510416674565136 0.7155719259659251
  outer loop
    vertex 148.76843021862004 -207.59057175047042 103.45196402810515
    vertex 173.00055167869183 -217.01417454049954 103.45196402812604
    vertex 149.02728516748945 -206.92494473908965 104.14915258502626
  endloop
endfacet
facet normal -0.25318287067820944 -0.6510416674565136 0.7155719259659251
  outer loop
    vertex 173.25940662756054 -216.34854752911895 104.14915258504715
    vertex 149.02728516748945 -206.92494473908965 104.14915258502626
    vertex 173.00055167869183 -217.01417454049954 103.45196402812604
  endloop
endfacet
facet normal -0.23657378075516194 -0.6083325790829157 0.7576043291095537
  outer loop
    vertex 147.94725677646605 -209.70216060172757 101.50000000032317
    vertex 172.179378236538 -219.1257633917567 101.50000000034416
    vertex 148.76843021862004 -207.59057175047042 103.45196402810515
  endloop
endfacet
facet normal -0.23657378075516194 -0.6083325790829157 0.7576043291095537
  outer loop
    vertex 173.00055167869183 -217.01417454049954 103.45196402812604
    vertex 148.76843021862004 -207.59057175047042 103.45196402810515
    vertex 172.179378236538 -219.1257633917567 101.50000000034416
  endloop
endfacet
facet normal -0.2968985957702645 -0.7634535319786795 0.5735764363525793
  outer loop
    vertex 175.1593490418728 -211.46298132088492 111.09976520846762
    vertex 160.44698958397248 -205.74150819836183 111.09976520845645
    vertex 173.96551466141779 -214.53284115634642 106.39569629245791
  endloop
endfacet
facet normal -0.2968985957702645 -0.7634535319786795 0.5735764363525793
  outer loop
    vertex 149.78382909016995 -204.9795460807656 106.59442896486331
    vertex 173.96551466141779 -214.53284115634642 106.39569629245791
    vertex 160.44698958397248 -205.74150819836183 111.09976520845645
  endloop
endfacet
facet normal -0.2968985957702645 -0.7634535319786795 0.5735764363525793
  outer loop
    vertex 149.73339320134815 -205.10923836630846 106.39569629243954
    vertex 173.96551466141779 -214.53284115634642 106.39569629245791
    vertex 149.78382909016995 -204.9795460807656 106.59442896486331
  endloop
endfacet
facet normal -0.17258265874803452 -0.44378397963559707 0.8793582917777324
  outer loop
    vertex 160.44698958397248 -205.74150819836183 111.09976520845645
    vertex 175.1593490418728 -211.46298132088492 111.09976520846762
    vertex 163.5777982109284 -205.37672589963142 111.89831094762599
  endloop
endfacet
facet normal -0.17258265874803452 -0.44378397963559707 0.8793582917777324
  outer loop
    vertex 175.69385894096314 -210.08852729465033 111.8983109476351
    vertex 163.5777982109284 -205.37672589963142 111.89831094762599
    vertex 175.1593490418728 -211.46298132088492 111.09976520846762
  endloop
endfacet
facet normal -0.9320046715412639 0.362446261155031 -6.889878394871849e-13
  outer loop
    vertex 148.7739425399278 -207.57639720997162 100.00000000031902
    vertex 148.7739425399278 -207.57639720996886 101.50000000031905
    vertex 150.22917698382395 -203.83436578280015 105.73406431033564
  endloop
endfacet
facet normal -0.9320046715412639 0.362446261155031 -6.889878394871849e-13
  outer loop
    vertex 149.02728516748945 -206.92494473908965 104.14915258502626
    vertex 150.22917698382395 -203.83436578280015 105.73406431033564
    vertex 148.7739425399278 -207.57639720996886 101.50000000031905
  endloop
endfacet
facet normal -0.9320046715412639 0.362446261155031 -6.889878394871849e-13
  outer loop
    vertex 149.50788836331392 -205.68910794982557 105.61528875731118
    vertex 150.22917698382395 -203.83436578280015 105.73406431033564
    vertex 149.02728516748945 -206.92494473908965 104.14915258502626
  endloop
endfacet
facet normal -0.9320046715412639 0.362446261155031 -6.889878394871849e-13
  outer loop
    vertex 149.73339320134815 -205.10923836630846 106.39569629243954
    vertex 150.22917698382395 -203.83436578280015 105.73406431033564
    vertex 149.50788836331392 -205.68910794982557 105.61528875731118
  endloop
endfacet
facet normal -0.9320046715412639 0.362446261155031 -6.889878394871849e-13
  outer loop
    vertex 149.78382909016995 -204.9795460807656 106.59442896486331
    vertex 150.22917698382395 -203.83436578280015 105.73406431033564
    vertex 149.73339320134815 -205.10923836630846 106.39569629243954
  endloop
endfacet
facet normal -0.9320046715412639 0.362446261155031 -6.889878394871849e-13
  outer loop
    vertex 147.94725677646605 -209.70216060172757 101.50000000032317
    vertex 148.76843021862004 -207.59057175047042 103.45196402810515
    vertex 148.7739425399278 -207.57639720996886 101.50000000031905
  endloop
endfacet
facet normal -0.9320046715412639 0.362446261155031 -6.889878394871849e-13
  outer loop
    vertex 149.02728516748945 -206.92494473908965 104.14915258502626
    vertex 148.7739425399278 -207.57639720996886 101.50000000031905
    vertex 148.76843021862004 -207.59057175047042 103.45196402810515
  endloop
endfacet
facet normal 0.9320046715411499 -0.3624462611553244 6.997718309912068e-13
  outer loop
    vertex 172.179378236538 -219.1257633917567 101.50000000034416
    vertex 172.42871373080973 -218.48461497791308 101.50000000034285
    vertex 173.00055167869183 -217.01417454049954 103.45196402812604
  endloop
endfacet
facet normal 0.9320046715411499 -0.3624462611553244 6.997718309912068e-13
  outer loop
    vertex 173.0060640000003 -216.9999999999997 100.50000000033991
    vertex 173.00055167869183 -217.01417454049954 103.45196402812604
    vertex 172.42871373080973 -218.48461497791308 101.50000000034285
  endloop
endfacet
facet normal 0.9320046715411499 -0.3624462611553244 6.997718309912068e-13
  outer loop
    vertex 173.25940662756054 -216.34854752911895 104.14915258504715
    vertex 173.00055167869183 -217.01417454049954 103.45196402812604
    vertex 173.0060640000003 -216.9999999999997 100.50000000033991
  endloop
endfacet
facet normal 0.9320046715411499 -0.3624462611553244 6.997718309912068e-13
  outer loop
    vertex 173.00606399999958 -217.0000000000009 100.00000000033992
    vertex 175.9165328877916 -209.51593714566707 111.46812862037069
    vertex 173.0060640000003 -216.9999999999997 100.50000000033991
  endloop
endfacet
facet normal 0.9320046715411499 -0.3624462611553244 6.997718309912068e-13
  outer loop
    vertex 173.25940662756054 -216.34854752911895 104.14915258504715
    vertex 173.0060640000003 -216.9999999999997 100.50000000033991
    vertex 175.9165328877916 -209.51593714566707 111.46812862037069
  endloop
endfacet
facet normal 0.9320046715411499 -0.3624462611553244 6.997718309912068e-13
  outer loop
    vertex 173.740009823387 -215.11271073985466 105.61528875733188
    vertex 173.25940662756054 -216.34854752911895 104.14915258504715
    vertex 175.9165328877916 -209.51593714566707 111.46812862037069
  endloop
endfacet
facet normal 0.9320046715411499 -0.3624462611553244 6.997718309912068e-13
  outer loop
    vertex 173.96551466141779 -214.53284115634642 106.39569629245791
    vertex 173.740009823387 -215.11271073985466 105.61528875733188
    vertex 175.9165328877916 -209.51593714566707 111.46812862037069
  endloop
endfacet
facet normal 0.9320046715411499 -0.3624462611553244 6.997718309912068e-13
  outer loop
    vertex 175.1593490418728 -211.46298132088492 111.09976520846762
    vertex 173.96551466141779 -214.53284115634642 106.39569629245791
    vertex 175.9165328877916 -209.51593714566707 111.46812862037069
  endloop
endfacet
facet normal 0.9320046715411499 -0.3624462611553244 6.997718309912068e-13
  outer loop
    vertex 175.69385894096314 -210.08852729465033 111.8983109476351
    vertex 175.1593490418728 -211.46298132088492 111.09976520846762
    vertex 175.9165328877916 -209.51593714566707 111.46812862037069
  endloop
endfacet
facet normal -0.2834037048945397 -0.728752384012705 0.6233797420897215
  outer loop
    vertex 173.96551466141779 -214.53284115634642 106.39569629245791
    vertex 149.73339320134815 -205.10923836630846 106.39569629243954
    vertex 173.740009823387 -215.11271073985466 105.61528875733188
  endloop
endfacet
facet normal -0.2834037048945397 -0.728752384012705 0.6233797420897215
  outer loop
    vertex 149.50788836331392 -205.68910794982557 105.61528875731118
    vertex 173.740009823387 -215.11271073985466 105.61528875733188
    vertex 149.73339320134815 -205.10923836630846 106.39569629243954
  endloop
endfacet
facet normal 0.2968985957701051 0.7634535319786452 -0.5735764363527075
  outer loop
    vertex 175.9165328877916 -209.51593714566707 111.46812862037069
    vertex 173.00606399999958 -217.0000000000009 100.00000000033992
    vertex 163.80047215775576 -204.80413575064782 111.46812862036144
  endloop
endfacet
facet normal 0.2968985957701051 0.7634535319786452 -0.5735764363527075
  outer loop
    vertex 150.22917698382395 -203.83436578280015 105.73406431033564
    vertex 163.80047215775576 -204.80413575064782 111.46812862036144
    vertex 173.00606399999958 -217.0000000000009 100.00000000033992
  endloop
endfacet
facet normal 0.2968985957701051 0.7634535319786452 -0.5735764363527075
  outer loop
    vertex 148.7739425399278 -207.57639720997162 100.00000000031902
    vertex 150.22917698382395 -203.83436578280015 105.73406431033564
    vertex 173.00606399999958 -217.0000000000009 100.00000000033992
  endloop
endfacet
facet normal 0.2968985957701051 0.7634535319786452 -0.5735764363527075
  outer loop
    vertex 170.2100499853742 -215.91266121653916 100.0000000003356
    vertex 148.7739425399278 -207.57639720997162 100.00000000031902
    vertex 173.00606399999958 -217.0000000000009 100.00000000033992
  endloop
endfacet
facet normal -0.25882155392249767 0.6425143549339271 0.721239701437035
  outer loop
    vertex 149.78382909016995 -204.9795460807656 106.59442896486331
    vertex 160.44698958397248 -205.74150819836183 111.09976520845645
    vertex 150.22917698382395 -203.83436578280015 105.73406431033564
  endloop
endfacet
facet normal -0.25882155392249767 0.6425143549339271 0.721239701437035
  outer loop
    vertex 163.80047215775576 -204.80413575064782 111.46812862036144
    vertex 150.22917698382395 -203.83436578280015 105.73406431033564
    vertex 160.44698958397248 -205.74150819836183 111.09976520845645
  endloop
endfacet
facet normal -0.25882155392249767 0.6425143549339271 0.721239701437035
  outer loop
    vertex 163.5777982109284 -205.37672589963142 111.89831094762599
    vertex 163.80047215775576 -204.80413575064782 111.46812862036144
    vertex 160.44698958397248 -205.74150819836183 111.09976520845645
  endloop
endfacet
facet normal 0.2078906348423252 0.5345759181669756 0.8191520442877439
  outer loop
    vertex 163.5777982109284 -205.37672589963142 111.89831094762599
    vertex 175.69385894096314 -210.08852729465033 111.8983109476351
    vertex 163.80047215775576 -204.80413575064782 111.46812862036144
  endloop
endfacet
facet normal 0.2078906348423252 0.5345759181669756 0.8191520442877439
  outer loop
    vertex 175.9165328877916 -209.51593714566707 111.46812862037069
    vertex 163.80047215775576 -204.80413575064782 111.46812862036144
    vertex 175.69385894096314 -210.08852729465033 111.8983109476351
  endloop
endfacet
facet normal -0.2688129907980694 -0.6912334049077202 0.6707726559109851
  outer loop
    vertex 173.740009823387 -215.11271073985466 105.61528875733188
    vertex 149.50788836331392 -205.68910794982557 105.61528875731118
    vertex 173.25940662756054 -216.34854752911895 104.14915258504715
  endloop
endfacet
facet normal -0.2688129907980694 -0.6912334049077202 0.6707726559109851
  outer loop
    vertex 149.02728516748945 -206.92494473908965 104.14915258502626
    vertex 173.25940662756054 -216.34854752911895 104.14915258504715
    vertex 149.50788836331392 -205.68910794982557 105.61528875731118
  endloop
endfacet
facet normal 1.9466327104742002e-15 1.0 -2.029992809407096e-12
  outer loop
    vertex 99.00606399999998 -199.4999999999976 101.50000000030542
    vertex 128.0060639999999 -199.4999999999976 101.50000000030533
    vertex 98.00606400000021 -199.49999999999972 100.50000000030529
  endloop
endfacet
facet normal 1.9466327104742002e-15 1.0 -2.029992809407096e-12
  outer loop
    vertex 128.0060639999999 -199.5000000000007 100.0000000003053
    vertex 98.00606400000021 -199.49999999999972 100.50000000030529
    vertex 128.0060639999999 -199.4999999999976 101.50000000030533
  endloop
endfacet
facet normal 1.9466327104742002e-15 1.0 -2.029992809407096e-12
  outer loop
    vertex 98.00606400000021 -199.50000000000054 100.0000000003053
    vertex 98.00606400000021 -199.49999999999972 100.50000000030529
    vertex 128.0060639999999 -199.5000000000007 100.0000000003053
  endloop
endfacet
facet normal 0.7071067811864824 0.7071067811866126 -1.2971289872491257e-12
  outer loop
    vertex 140.50606399999992 -275.2071067811864 100.50000000045443
    vertex 140.50606399999992 -275.20710678118724 100.00000000045446
    vertex 134.60378472220253 -269.3048275033901 100.50000000044294
  endloop
endfacet
facet normal 0.7071067811864824 0.7071067811866126 -1.2971289872491257e-12
  outer loop
    vertex 134.60378472220253 -269.3048275033909 100.00000000044287
    vertex 134.60378472220253 -269.3048275033901 100.50000000044294
    vertex 140.50606399999992 -275.20710678118724 100.00000000045446
  endloop
endfacet
facet normal -1.0 0.0 0.0
  outer loop
    vertex 98.00606400000021 -244.50000000000063 100.00000000039392
    vertex 98.00606400000021 -244.49999999999957 100.500000000394
    vertex 98.00606400000021 -199.50000000000054 100.0000000003053
  endloop
endfacet
facet normal -1.0 0.0 0.0
  outer loop
    vertex 98.00606400000021 -243.9999999999997 100.50000000039314
    vertex 98.00606400000021 -199.50000000000054 100.0000000003053
    vertex 98.00606400000021 -244.49999999999957 100.500000000394
  endloop
endfacet
facet normal -1.0 0.0 0.0
  outer loop
    vertex 98.00606400000021 -222.9999999999996 100.50000000035175
    vertex 98.00606400000021 -199.50000000000054 100.0000000003053
    vertex 98.00606400000021 -243.9999999999997 100.50000000039314
  endloop
endfacet
facet normal -1.0 0.0 0.0
  outer loop
    vertex 98.00606400000021 -222.49999999999952 100.50000000035072
    vertex 98.00606400000021 -199.50000000000054 100.0000000003053
    vertex 98.00606400000021 -222.9999999999996 100.50000000035175
  endloop
endfacet
facet normal -1.0 0.0 0.0
  outer loop
    vertex 98.00606400000021 -221.49999999999974 100.50000000034875
    vertex 98.00606400000021 -199.50000000000054 100.0000000003053
    vertex 98.00606400000021 -222.49999999999952 100.50000000035072
  endloop
endfacet
facet normal -1.0 0.0 0.0
  outer loop
    vertex 98.00606400000021 -199.49999999999972 100.50000000030529
    vertex 98.00606400000021 -199.50000000000054 100.0000000003053
    vertex 98.00606400000021 -221.49999999999974 100.50000000034875
  endloop
endfacet
facet normal 0.6830127018922346 -0.6830127018917364 0.25881904510375503
  outer loop
    vertex 132.7989572188133 -221.49999999999974 100.50000000034875
    vertex 134.01964451737183 -220.2793127014414 100.50000000034625
    vertex 132.99737010604045 -220.92264973080768 101.50000000034758
  endloop
endfacet
facet normal 0.6830127018922346 -0.6830127018917364 0.25881904510375503
  outer loop
    vertex 140.5060640000003 -213.413955836848 101.50000000033272
    vertex 132.99737010604045 -220.92264973080768 101.50000000034758
    vertex 134.01964451737183 -220.2793127014414 100.50000000034625
  endloop
endfacet
facet normal 0.6830127018922346 -0.6830127018917364 0.25881904510375503
  outer loop
    vertex 140.50606399999992 -213.79289321881313 100.50000000033354
    vertex 140.5060640000003 -213.413955836848 101.50000000033272
    vertex 134.01964451737183 -220.2793127014414 100.50000000034625
  endloop
endfacet
facet normal -0.7071067811864863 -0.7071067811866087 6.751077166307861e-13
  outer loop
    vertex 148.31518088245474 -281.6020101012673 100.50000000046724
    vertex 133.2131707811849 -266.4999999999996 100.50000000043735
    vertex 148.31518088245545 -281.602010101268 100.000000000467
  endloop
endfacet
facet normal -0.7071067811864863 -0.7071067811866087 6.751077166307861e-13
  outer loop
    vertex 133.2131707811849 -266.50000000000045 100.00000000043728
    vertex 148.31518088245545 -281.602010101268 100.000000000467
    vertex 133.2131707811849 -266.4999999999996 100.50000000043735
  endloop
endfacet
facet normal -0.6830127018921139 -0.683012701891705 0.2588190451041562
  outer loop
    vertex 148.31518088245474 -281.6020101012673 100.50000000046724
    vertex 148.58801579746842 -281.4959076343155 101.50000000046684
    vertex 133.2131707811849 -266.4999999999996 100.50000000043735
  endloop
endfacet
facet normal -0.6830127018921139 -0.683012701891705 0.2588190451041562
  outer loop
    vertex 133.0147578939585 -265.9226497308079 101.50000000043627
    vertex 133.2131707811849 -266.4999999999996 100.50000000043735
    vertex 148.58801579746842 -281.4959076343155 101.50000000046684
  endloop
endfacet
facet normal 0.9238795325112994 -0.38268343236505914 1.75425279103109e-12
  outer loop
    vertex 132.79895721881186 -267.5000000000006 100.00000000043926
    vertex 133.2131707811849 -266.50000000000045 100.00000000043728
    vertex 132.79895721881186 -267.4999999999998 100.50000000043923
  endloop
endfacet
facet normal 0.9238795325112994 -0.38268343236505914 1.75425279103109e-12
  outer loop
    vertex 133.2131707811849 -266.4999999999996 100.50000000043735
    vertex 132.79895721881186 -267.4999999999998 100.50000000043923
    vertex 133.2131707811849 -266.50000000000045 100.00000000043728
  endloop
endfacet
facet normal 1.0071015003487294e-17 1.9698395746590293e-12 1.0
  outer loop
    vertex 98.00606400000021 -221.49999999999974 100.50000000034875
    vertex 98.00606400000021 -222.49999999999952 100.50000000035072
    vertex 132.7989572188133 -221.49999999999974 100.50000000034875
  endloop
endfacet
facet normal 1.0071015003487294e-17 1.9698395746590293e-12 1.0
  outer loop
    vertex 133.21317078118636 -222.49999999999952 100.50000000035072
    vertex 132.7989572188133 -221.49999999999974 100.50000000034875
    vertex 98.00606400000021 -222.49999999999952 100.50000000035072
  endloop
endfacet
facet normal -0.7071067811865137 1.3919925201038407e-12 0.7071067811865814
  outer loop
    vertex 98.00606400000021 -222.49999999999952 100.50000000035072
    vertex 98.00606400000021 -222.9999999999996 100.50000000035175
    vertex 99.00606400000035 -223.0773502691873 101.50000000035187
  endloop
endfacet
facet normal -0.7071067811865137 1.3919925201038407e-12 0.7071067811865814
  outer loop
    vertex 98.00606400000021 -243.9999999999997 100.50000000039314
    vertex 99.00606400000035 -223.0773502691873 101.50000000035187
    vertex 98.00606400000021 -222.9999999999996 100.50000000035175
  endloop
endfacet
facet normal -0.7071067811865137 1.3919925201038407e-12 0.7071067811865814
  outer loop
    vertex 99.00606400000035 -243.42264973080796 101.50000000039208
    vertex 99.00606400000035 -223.0773502691873 101.50000000035187
    vertex 98.00606400000021 -243.9999999999997 100.50000000039314
  endloop
endfacet
facet normal 1.0 1.3634261121581299e-14 -1.329379699107174e-13
  outer loop
    vertex 140.50606399999992 -213.79289321881416 100.00000000033366
    vertex 140.50606399999992 -204.36111111111165 100.00000000031493
    vertex 140.50606399999992 -213.79289321881313 100.50000000033354
  endloop
endfacet
facet normal 1.0 1.3634261121581299e-14 -1.329379699107174e-13
  outer loop
    vertex 140.5060640000003 -213.413955836848 101.50000000033272
    vertex 140.50606399999992 -213.79289321881313 100.50000000033354
    vertex 140.50606399999992 -204.36111111111165 100.00000000031493
  endloop
endfacet
facet normal 1.0 1.3634261121581299e-14 -1.329379699107174e-13
  outer loop
    vertex 140.50606399999992 -204.36111111110873 101.50000000031496
    vertex 140.5060640000003 -213.413955836848 101.50000000033272
    vertex 140.50606399999992 -204.36111111111165 100.00000000031493
  endloop
endfacet
facet normal -0.6902684899627594 -0.1533929977681138 0.7071067811867197
  outer loop
    vertex 98.1171751111113 -244.99999999999963 100.50000000039483
    vertex 102.89495288888907 -266.4999999999996 100.50000000043735
    vertex 99.26986899951882 -245.5773502691874 101.50000000039608
  endloop
endfacet
facet normal -0.6902684899627594 -0.1533929977681138 0.7071067811867197
  outer loop
    vertex 103.79104665765688 -265.9226497308079 101.50000000043627
    vertex 99.26986899951882 -245.5773502691874 101.50000000039608
    vertex 102.89495288888907 -266.4999999999996 100.50000000043735
  endloop
endfacet
facet normal 2.1494346359932487e-16 1.969496932891206e-12 1.0
  outer loop
    vertex 98.00606400000021 -243.9999999999997 100.50000000039314
    vertex 98.00606400000021 -244.49999999999957 100.500000000394
    vertex 173.00606400000012 -243.9999999999997 100.50000000039314
  endloop
endfacet
facet normal 2.1494346359932487e-16 1.969496932891206e-12 1.0
  outer loop
    vertex 98.1171751111113 -244.99999999999963 100.50000000039483
    vertex 173.00606400000012 -243.9999999999997 100.50000000039314
    vertex 98.00606400000021 -244.49999999999957 100.500000000394
  endloop
endfacet
facet normal 2.1494346359932487e-16 1.969496932891206e-12 1.0
  outer loop
    vertex 173.00606400000012 -244.99999999999963 100.50000000039483
    vertex 173.00606400000012 -243.9999999999997 100.50000000039314
    vertex 98.1171751111113 -244.99999999999963 100.50000000039483
  endloop
endfacet
facet normal -3.556979424925101e-17 0.8660254037854096 0.4999999999983186
  outer loop
    vertex 99.26986899951882 -245.5773502691874 101.50000000039608
    vertex 172.42871373081064 -245.5773502691874 101.50000000039608
    vertex 98.1171751111113 -244.99999999999963 100.50000000039483
  endloop
endfacet
facet normal -3.556979424925101e-17 0.8660254037854096 0.4999999999983186
  outer loop
    vertex 173.00606400000012 -244.99999999999963 100.50000000039483
    vertex 98.1171751111113 -244.99999999999963 100.50000000039483
    vertex 172.42871373081064 -245.5773502691874 101.50000000039608
  endloop
endfacet
facet normal 1.2236162388060703e-15 0.8660254037854335 0.4999999999982772
  outer loop
    vertex 104.26986899951913 -268.07735026918715 101.5000000004404
    vertex 132.997370106039 -268.07735026918715 101.5000000004404
    vertex 103.11717511111124 -267.4999999999998 100.50000000043923
  endloop
endfacet
facet normal 1.2236162388060703e-15 0.8660254037854335 0.4999999999982772
  outer loop
    vertex 132.79895721881186 -267.4999999999998 100.50000000043923
    vertex 103.11717511111124 -267.4999999999998 100.50000000043923
    vertex 132.997370106039 -268.07735026918715 101.5000000004404
  endloop
endfacet
facet normal -0.9761870601839528 -0.21693045781865553 4.964462514379741e-13
  outer loop
    vertex 108.00606400000011 -289.5000000000007 100.00000000048271
    vertex 108.00606400000028 -289.4999999999996 100.5000000004827
    vertex 98.00606400000021 -244.50000000000063 100.00000000039392
  endloop
endfacet
facet normal -0.9761870601839528 -0.21693045781865553 4.964462514379741e-13
  outer loop
    vertex 103.11717511111124 -267.4999999999998 100.50000000043923
    vertex 98.00606400000021 -244.50000000000063 100.00000000039392
    vertex 108.00606400000028 -289.4999999999996 100.5000000004827
  endloop
endfacet
facet normal -0.9761870601839528 -0.21693045781865553 4.964462514379741e-13
  outer loop
    vertex 102.89495288888907 -266.4999999999996 100.50000000043735
    vertex 98.00606400000021 -244.50000000000063 100.00000000039392
    vertex 103.11717511111124 -267.4999999999998 100.50000000043923
  endloop
endfacet
facet normal -0.9761870601839528 -0.21693045781865553 4.964462514379741e-13
  outer loop
    vertex 98.1171751111113 -244.99999999999963 100.50000000039483
    vertex 98.00606400000021 -244.50000000000063 100.00000000039392
    vertex 102.89495288888907 -266.4999999999996 100.50000000043735
  endloop
endfacet
facet normal -0.9761870601839528 -0.21693045781865553 4.964462514379741e-13
  outer loop
    vertex 98.00606400000021 -244.49999999999957 100.500000000394
    vertex 98.00606400000021 -244.50000000000063 100.00000000039392
    vertex 98.1171751111113 -244.99999999999963 100.50000000039483
  endloop
endfacet
facet normal 0.7071067811865375 -0.7071067811865576 1.3928854452961301e-12
  outer loop
    vertex 132.7989572188133 -221.49999999999974 100.50000000034875
    vertex 132.7989572188133 -221.5000000000006 100.00000000034868
    vertex 134.01964451737183 -220.2793127014414 100.50000000034625
  endloop
endfacet
facet normal 0.7071067811865375 -0.7071067811865576 1.3928854452961301e-12
  outer loop
    vertex 134.01964451737183 -220.27931270144242 100.00000000034626
    vertex 134.01964451737183 -220.2793127014414 100.50000000034625
    vertex 132.7989572188133 -221.5000000000006 100.00000000034868
  endloop
endfacet
facet normal 0.36244626115493994 0.9320046715412992 -1.8689266509384072e-12
  outer loop
    vertex 140.50606399999992 -204.36111111110873 101.50000000031496
    vertex 140.50606399999992 -204.36111111111165 100.00000000031493
    vertex 128.0060639999999 -199.4999999999976 101.50000000030533
  endloop
endfacet
facet normal 0.36244626115493994 0.9320046715412992 -1.8689266509384072e-12
  outer loop
    vertex 128.0060639999999 -199.5000000000007 100.0000000003053
    vertex 128.0060639999999 -199.4999999999976 101.50000000030533
    vertex 140.50606399999992 -204.36111111111165 100.00000000031493
  endloop
endfacet
facet normal -0.7071067811865381 0.707106781186557 -1.441159360678798e-12
  outer loop
    vertex 133.21317078118636 -222.49999999999952 100.50000000035072
    vertex 148.31518088245437 -207.39798989873188 100.50000000032092
    vertex 133.21317078118636 -222.50000000000057 100.00000000035074
  endloop
endfacet
facet normal -0.7071067811865381 0.707106781186557 -1.441159360678798e-12
  outer loop
    vertex 148.31518088245437 -207.3979898987329 100.00000000032094
    vertex 133.21317078118636 -222.50000000000057 100.00000000035074
    vertex 148.31518088245437 -207.39798989873188 100.50000000032092
  endloop
endfacet
facet normal 1.0 1.6280756810556614e-15 -7.934513312125958e-13
  outer loop
    vertex 173.00606399999995 -272.0000000000007 100.00000000044828
    vertex 173.00606399999958 -217.0000000000009 100.00000000033992
    vertex 173.00606400000012 -271.99999999999966 100.50000000044825
  endloop
endfacet
facet normal 1.0 1.6280756810556614e-15 -7.934513312125958e-13
  outer loop
    vertex 173.00606400000012 -245.49999999999972 100.50000000039587
    vertex 173.00606400000012 -271.99999999999966 100.50000000044825
    vertex 173.00606399999958 -217.0000000000009 100.00000000033992
  endloop
endfacet
facet normal 1.0 1.6280756810556614e-15 -7.934513312125958e-13
  outer loop
    vertex 173.00606400000012 -244.99999999999963 100.50000000039483
    vertex 173.00606400000012 -245.49999999999972 100.50000000039587
    vertex 173.00606399999958 -217.0000000000009 100.00000000033992
  endloop
endfacet
facet normal 1.0 1.6280756810556614e-15 -7.934513312125958e-13
  outer loop
    vertex 173.00606400000012 -243.9999999999997 100.50000000039314
    vertex 173.00606400000012 -244.99999999999963 100.50000000039483
    vertex 173.00606399999958 -217.0000000000009 100.00000000033992
  endloop
endfacet
facet normal 1.0 1.6280756810556614e-15 -7.934513312125958e-13
  outer loop
    vertex 173.0060640000003 -216.9999999999997 100.50000000033991
    vertex 173.00606400000012 -243.9999999999997 100.50000000039314
    vertex 173.00606399999958 -217.0000000000009 100.00000000033992
  endloop
endfacet
facet normal 0.36244626115494405 -0.9320046715412976 1.7508952149341587e-12
  outer loop
    vertex 148.58801579746842 -281.4959076343155 101.50000000046684
    vertex 148.31518088245474 -281.6020101012673 100.50000000046724
    vertex 172.42871373081084 -272.22452510468275 101.5000000004453
  endloop
endfacet
facet normal 0.36244626115494405 -0.9320046715412976 1.7508952149341587e-12
  outer loop
    vertex 173.00606400000012 -271.99999999999966 100.50000000044825
    vertex 172.42871373081084 -272.22452510468275 101.5000000004453
    vertex 148.31518088245474 -281.6020101012673 100.50000000046724
  endloop
endfacet
facet normal 0.36244626115494405 -0.9320046715412976 1.7508952149341587e-12
  outer loop
    vertex 148.31518088245545 -281.602010101268 100.000000000467
    vertex 173.00606400000012 -271.99999999999966 100.50000000044825
    vertex 148.31518088245474 -281.6020101012673 100.50000000046724
  endloop
endfacet
facet normal 0.36244626115494405 -0.9320046715412976 1.7508952149341587e-12
  outer loop
    vertex 173.00606399999995 -272.0000000000007 100.00000000044828
    vertex 173.00606400000012 -271.99999999999966 100.50000000044825
    vertex 148.31518088245545 -281.602010101268 100.000000000467
  endloop
endfacet
facet normal 0.7071067811864766 0.7071067811866184 -1.3928854486843819e-12
  outer loop
    vertex 134.60378472220253 -269.3048275033901 100.50000000044294
    vertex 134.60378472220253 -269.3048275033909 100.00000000044287
    vertex 132.79895721881186 -267.4999999999998 100.50000000043923
  endloop
endfacet
facet normal 0.7071067811864766 0.7071067811866184 -1.3928854486843819e-12
  outer loop
    vertex 132.79895721881186 -267.5000000000006 100.00000000043926
    vertex 132.79895721881186 -267.4999999999998 100.50000000043923
    vertex 134.60378472220253 -269.3048275033909 100.00000000044287
  endloop
endfacet
facet normal -0.6830127018921804 0.6830127018927095 0.2588190451013302
  outer loop
    vertex 133.01475789395994 -223.0773502691873 101.50000000035187
    vertex 148.58801579746805 -207.50409236567953 101.50000000032131
    vertex 133.21317078118636 -222.49999999999952 100.50000000035072
  endloop
endfacet
facet normal -0.6830127018921804 0.6830127018927095 0.2588190451013302
  outer loop
    vertex 148.31518088245437 -207.39798989873188 100.50000000032092
    vertex 133.21317078118636 -222.49999999999952 100.50000000035072
    vertex 148.58801579746805 -207.50409236567953 101.50000000032131
  endloop
endfacet
facet normal 0.7071067811865411 -0.7071067811865539 1.409108647006094e-12
  outer loop
    vertex 134.01964451737183 -220.2793127014414 100.50000000034625
    vertex 134.01964451737183 -220.27931270144242 100.00000000034626
    vertex 140.50606399999992 -213.79289321881313 100.50000000033354
  endloop
endfacet
facet normal 0.7071067811865411 -0.7071067811865539 1.409108647006094e-12
  outer loop
    vertex 140.50606399999992 -213.79289321881416 100.00000000033366
    vertex 140.50606399999992 -213.79289321881313 100.50000000033354
    vertex 134.01964451737183 -220.27931270144242 100.00000000034626
  endloop
endfacet
facet normal -0.7071067811865702 1.3928613895603641e-12 0.707106781186525
  outer loop
    vertex 98.00606400000021 -221.49999999999974 100.50000000034875
    vertex 99.00606399999998 -220.92264973080802 101.50000000034758
    vertex 98.00606400000021 -199.49999999999972 100.50000000030529
  endloop
endfacet
facet normal -0.7071067811865702 1.3928613895603641e-12 0.707106781186525
  outer loop
    vertex 99.00606399999998 -199.4999999999976 101.50000000030542
    vertex 98.00606400000021 -199.49999999999972 100.50000000030529
    vertex 99.00606399999998 -220.92264973080802 101.50000000034758
  endloop
endfacet
facet normal -0.6902684899627296 -0.15339299776809867 0.7071067811867521
  outer loop
    vertex 103.11717511111124 -267.4999999999998 100.50000000043923
    vertex 108.00606400000028 -289.4999999999996 100.5000000004827
    vertex 104.26986899951913 -268.07735026918715 101.5000000004404
  endloop
endfacet
facet normal -0.6902684899627296 -0.15339299776809867 0.7071067811867521
  outer loop
    vertex 109.030457828588 -289.4999999999977 101.50000000048274
    vertex 104.26986899951913 -268.07735026918715 101.5000000004404
    vertex 108.00606400000028 -289.4999999999996 100.5000000004827
  endloop
endfacet
facet normal 5.207298730448799e-16 -0.8660254037834406 0.5000000000017287
  outer loop
    vertex 172.42871373081027 -243.4226497308078 101.50000000039208
    vertex 99.00606400000035 -243.42264973080796 101.50000000039208
    vertex 173.00606400000012 -243.9999999999997 100.50000000039314
  endloop
endfacet
facet normal 5.207298730448799e-16 -0.8660254037834406 0.5000000000017287
  outer loop
    vertex 98.00606400000021 -243.9999999999997 100.50000000039314
    vertex 173.00606400000012 -243.9999999999997 100.50000000039314
    vertex 99.00606400000035 -243.42264973080796 101.50000000039208
  endloop
endfacet
facet normal 3.926649626930069e-15 -0.8660254037833893 0.5000000000018175
  outer loop
    vertex 132.99737010604045 -220.92264973080768 101.50000000034758
    vertex 99.00606399999998 -220.92264973080802 101.50000000034758
    vertex 132.7989572188133 -221.49999999999974 100.50000000034875
  endloop
endfacet
facet normal 3.926649626930069e-15 -0.8660254037833893 0.5000000000018175
  outer loop
    vertex 98.00606400000021 -221.49999999999974 100.50000000034875
    vertex 132.7989572188133 -221.49999999999974 100.50000000034875
    vertex 99.00606399999998 -220.92264973080802 101.50000000034758
  endloop
endfacet
facet normal -1.3413919150386197e-16 1.966854149438191e-12 1.0
  outer loop
    vertex 102.89495288888907 -266.4999999999996 100.50000000043735
    vertex 103.11717511111124 -267.4999999999998 100.50000000043923
    vertex 133.2131707811849 -266.4999999999996 100.50000000043735
  endloop
endfacet
facet normal -1.3413919150386197e-16 1.966854149438191e-12 1.0
  outer loop
    vertex 132.79895721881186 -267.4999999999998 100.50000000043923
    vertex 133.2131707811849 -266.4999999999996 100.50000000043735
    vertex 103.11717511111124 -267.4999999999998 100.50000000043923
  endloop
endfacet
facet normal 0.9238795325113289 0.38268343236498814 -6.704324355870795e-13
  outer loop
    vertex 133.21317078118636 -222.50000000000057 100.00000000035074
    vertex 132.7989572188133 -221.5000000000006 100.00000000034868
    vertex 133.21317078118636 -222.49999999999952 100.50000000035072
  endloop
endfacet
facet normal 0.9238795325113289 0.38268343236498814 -6.704324355870795e-13
  outer loop
    vertex 132.7989572188133 -221.49999999999974 100.50000000034875
    vertex 133.21317078118636 -222.49999999999952 100.50000000035072
    vertex 132.7989572188133 -221.5000000000006 100.00000000034868
  endloop
endfacet
facet normal -1.4984674105562263e-16 -0.8660254037834286 0.5000000000017496
  outer loop
    vertex 133.0147578939585 -265.9226497308079 101.50000000043627
    vertex 103.79104665765688 -265.9226497308079 101.50000000043627
    vertex 133.2131707811849 -266.4999999999996 100.50000000043735
  endloop
endfacet
facet normal -1.4984674105562263e-16 -0.8660254037834286 0.5000000000017496
  outer loop
    vertex 102.89495288888907 -266.4999999999996 100.50000000043735
    vertex 133.2131707811849 -266.4999999999996 100.50000000043735
    vertex 103.79104665765688 -265.9226497308079 101.50000000043627
  endloop
endfacet
facet normal 5.734131438982442e-19 0.8660254037854006 0.49999999999833394
  outer loop
    vertex 99.00606400000035 -223.0773502691873 101.50000000035187
    vertex 133.01475789395994 -223.0773502691873 101.50000000035187
    vertex 98.00606400000021 -222.49999999999952 100.50000000035072
  endloop
endfacet
facet normal 5.734131438982442e-19 0.8660254037854006 0.49999999999833394
  outer loop
    vertex 133.21317078118636 -222.49999999999952 100.50000000035072
    vertex 98.00606400000021 -222.49999999999952 100.50000000035072
    vertex 133.01475789395994 -223.0773502691873 101.50000000035187
  endloop
endfacet
facet normal -1.9709751430663158e-15 2.0139080988049037e-12 1.0
  outer loop
    vertex 133.01475789395994 -223.0773502691873 101.50000000035187
    vertex 147.94725677646605 -209.70216060172757 101.50000000032317
    vertex 148.58801579746805 -207.50409236567953 101.50000000032131
  endloop
endfacet
facet normal -1.9709751430663158e-15 2.0139080988049037e-12 1.0
  outer loop
    vertex 148.7739425399278 -207.57639720996886 101.50000000031905
    vertex 148.58801579746805 -207.50409236567953 101.50000000032131
    vertex 147.94725677646605 -209.70216060172757 101.50000000032317
  endloop
endfacet
facet normal -1.9709751430663158e-15 2.0139080988049037e-12 1.0
  outer loop
    vertex 99.00606400000035 -223.0773502691873 101.50000000035187
    vertex 99.00606400000035 -243.42264973080796 101.50000000039208
    vertex 133.01475789395994 -223.0773502691873 101.50000000035187
  endloop
endfacet
facet normal -1.9709751430663158e-15 2.0139080988049037e-12 1.0
  outer loop
    vertex 172.42871373081027 -243.4226497308078 101.50000000039208
    vertex 133.01475789395994 -223.0773502691873 101.50000000035187
    vertex 99.00606400000035 -243.42264973080796 101.50000000039208
  endloop
endfacet
facet normal -1.9709751430663158e-15 2.0139080988049037e-12 1.0
  outer loop
    vertex 147.94725677646605 -209.70216060172757 101.50000000032317
    vertex 133.01475789395994 -223.0773502691873 101.50000000035187
    vertex 172.42871373081027 -243.4226497308078 101.50000000039208
  endloop
endfacet
facet normal -1.9709751430663158e-15 2.0139080988049037e-12 1.0
  outer loop
    vertex 172.179378236538 -219.1257633917567 101.50000000034416
    vertex 147.94725677646605 -209.70216060172757 101.50000000032317
    vertex 172.42871373081027 -243.4226497308078 101.50000000039208
  endloop
endfacet
facet normal -1.9709751430663158e-15 2.0139080988049037e-12 1.0
  outer loop
    vertex 172.42871373080973 -218.48461497791308 101.50000000034285
    vertex 172.179378236538 -219.1257633917567 101.50000000034416
    vertex 172.42871373081027 -243.4226497308078 101.50000000039208
  endloop
endfacet
facet normal 1.0 -6.817130561052801e-15 -6.646898495533166e-14
  outer loop
    vertex 140.50606399999992 -284.63888888888937 100.0000000004732
    vertex 140.50606399999992 -275.20710678118724 100.00000000045446
    vertex 140.50606399999992 -284.63888888888647 101.50000000047321
  endloop
endfacet
facet normal 1.0 -6.817130561052801e-15 -6.646898495533166e-14
  outer loop
    vertex 140.5060640000003 -275.58604416314733 101.50000000045517
    vertex 140.50606399999992 -284.63888888888647 101.50000000047321
    vertex 140.50606399999992 -275.20710678118724 100.00000000045446
  endloop
endfacet
facet normal 1.0 -6.817130561052801e-15 -6.646898495533166e-14
  outer loop
    vertex 140.50606399999992 -275.2071067811864 100.50000000045443
    vertex 140.5060640000003 -275.58604416314733 101.50000000045517
    vertex 140.50606399999992 -275.20710678118724 100.00000000045446
  endloop
endfacet
facet normal 0.683012701892188 0.6830127018928203 0.2588190451010179
  outer loop
    vertex 140.5060640000003 -275.58604416314733 101.50000000045517
    vertex 140.50606399999992 -275.2071067811864 100.50000000045443
    vertex 132.997370106039 -268.07735026918715 101.5000000004404
  endloop
endfacet
facet normal 0.683012701892188 0.6830127018928203 0.2588190451010179
  outer loop
    vertex 134.60378472220253 -269.3048275033901 100.50000000044294
    vertex 132.997370106039 -268.07735026918715 101.5000000004404
    vertex 140.50606399999992 -275.2071067811864 100.50000000045443
  endloop
endfacet
facet normal 0.683012701892188 0.6830127018928203 0.2588190451010179
  outer loop
    vertex 132.79895721881186 -267.4999999999998 100.50000000043923
    vertex 132.997370106039 -268.07735026918715 101.5000000004404
    vertex 134.60378472220253 -269.3048275033901 100.50000000044294
  endloop
endfacet
facet normal 0.8660254037843602 9.737158944110949e-13 0.5000000000001357
  outer loop
    vertex 172.42871373081084 -272.22452510468275 101.5000000004453
    vertex 173.00606400000012 -271.99999999999966 100.50000000044825
    vertex 172.42871373081064 -245.5773502691874 101.50000000039608
  endloop
endfacet
facet normal 0.8660254037843602 9.737158944110949e-13 0.5000000000001357
  outer loop
    vertex 173.00606400000012 -245.49999999999972 100.50000000039587
    vertex 172.42871373081064 -245.5773502691874 101.50000000039608
    vertex 173.00606400000012 -271.99999999999966 100.50000000044825
  endloop
endfacet
facet normal 0.8660254037843602 9.737158944110949e-13 0.5000000000001357
  outer loop
    vertex 173.00606400000012 -244.99999999999963 100.50000000039483
    vertex 172.42871373081064 -245.5773502691874 101.50000000039608
    vertex 173.00606400000012 -245.49999999999972 100.50000000039587
  endloop
endfacet
facet normal 1.9516893588266387e-14 1.971468625612526e-12 1.0
  outer loop
    vertex 99.26986899951882 -245.5773502691874 101.50000000039608
    vertex 103.79104665765688 -265.9226497308079 101.50000000043627
    vertex 172.42871373081064 -245.5773502691874 101.50000000039608
  endloop
endfacet
facet normal 1.9516893588266387e-14 1.971468625612526e-12 1.0
  outer loop
    vertex 133.0147578939585 -265.9226497308079 101.50000000043627
    vertex 172.42871373081064 -245.5773502691874 101.50000000039608
    vertex 103.79104665765688 -265.9226497308079 101.50000000043627
  endloop
endfacet
facet normal 1.9516893588266387e-14 1.971468625612526e-12 1.0
  outer loop
    vertex 148.58801579746842 -281.4959076343155 101.50000000046684
    vertex 172.42871373081064 -245.5773502691874 101.50000000039608
    vertex 133.0147578939585 -265.9226497308079 101.50000000043627
  endloop
endfacet
facet normal 1.9516893588266387e-14 1.971468625612526e-12 1.0
  outer loop
    vertex 172.42871373081084 -272.22452510468275 101.5000000004453
    vertex 172.42871373081064 -245.5773502691874 101.50000000039608
    vertex 148.58801579746842 -281.4959076343155 101.50000000046684
  endloop
endfacet
facet normal 0.8660254037842305 9.91736626763221e-13 0.5000000000003604
  outer loop
    vertex 173.00606400000012 -243.9999999999997 100.50000000039314
    vertex 173.0060640000003 -216.9999999999997 100.50000000033991
    vertex 172.42871373081027 -243.4226497308078 101.50000000039208
  endloop
endfacet
facet normal 0.8660254037842305 9.91736626763221e-13 0.5000000000003604
  outer loop
    vertex 172.42871373080973 -218.48461497791308 101.50000000034285
    vertex 172.42871373081027 -243.4226497308078 101.50000000039208
    vertex 173.0060640000003 -216.9999999999997 100.50000000033991
  endloop
endfacet
facet normal 8.76157989152945e-16 1.9708102019587195e-12 1.0
  outer loop
    vertex 99.00606399999998 -199.4999999999976 101.50000000030542
    vertex 99.00606399999998 -220.92264973080802 101.50000000034758
    vertex 128.0060639999999 -199.4999999999976 101.50000000030533
  endloop
endfacet
facet normal 8.76157989152945e-16 1.9708102019587195e-12 1.0
  outer loop
    vertex 132.99737010604045 -220.92264973080768 101.50000000034758
    vertex 128.0060639999999 -199.4999999999976 101.50000000030533
    vertex 99.00606399999998 -220.92264973080802 101.50000000034758
  endloop
endfacet
facet normal 8.76157989152945e-16 1.9708102019587195e-12 1.0
  outer loop
    vertex 140.50606399999992 -204.36111111110873 101.50000000031496
    vertex 128.0060639999999 -199.4999999999976 101.50000000030533
    vertex 132.99737010604045 -220.92264973080768 101.50000000034758
  endloop
endfacet
facet normal 8.76157989152945e-16 1.9708102019587195e-12 1.0
  outer loop
    vertex 140.5060640000003 -213.413955836848 101.50000000033272
    vertex 140.50606399999992 -204.36111111110873 101.50000000031496
    vertex 132.99737010604045 -220.92264973080768 101.50000000034758
  endloop
endfacet
facet normal 0.3624462611533549 0.9320046715419158 -1.6419850935404458e-12
  outer loop
    vertex 148.58801579746805 -207.50409236567953 101.50000000032131
    vertex 148.7739425399278 -207.57639720996886 101.50000000031905
    vertex 148.31518088245437 -207.39798989873188 100.50000000032092
  endloop
endfacet
facet normal 0.3624462611533549 0.9320046715419158 -1.6419850935404458e-12
  outer loop
    vertex 148.7739425399278 -207.57639720997162 100.00000000031902
    vertex 148.31518088245437 -207.39798989873188 100.50000000032092
    vertex 148.7739425399278 -207.57639720996886 101.50000000031905
  endloop
endfacet
facet normal 0.3624462611533549 0.9320046715419158 -1.6419850935404458e-12
  outer loop
    vertex 148.31518088245437 -207.3979898987329 100.00000000032094
    vertex 148.31518088245437 -207.39798989873188 100.50000000032092
    vertex 148.7739425399278 -207.57639720997162 100.00000000031902
  endloop
endfacet
facet normal -6.86451379217634e-15 -1.975949832147829e-12 -1.0
  outer loop
    vertex 128.00606400000018 -289.5000000000007 100.00000000048271
    vertex 132.79895721881186 -267.5000000000006 100.00000000043926
    vertex 140.50606399999992 -284.63888888888937 100.0000000004732
  endloop
endfacet
facet normal -6.86451379217634e-15 -1.975949832147829e-12 -1.0
  outer loop
    vertex 134.60378472220253 -269.3048275033909 100.00000000044287
    vertex 140.50606399999992 -284.63888888888937 100.0000000004732
    vertex 132.79895721881186 -267.5000000000006 100.00000000043926
  endloop
endfacet
facet normal -6.86451379217634e-15 -1.975949832147829e-12 -1.0
  outer loop
    vertex 140.50606399999992 -275.20710678118724 100.00000000045446
    vertex 140.50606399999992 -284.63888888888937 100.0000000004732
    vertex 134.60378472220253 -269.3048275033909 100.00000000044287
  endloop
endfacet
facet normal -6.86451379217634e-15 -1.975949832147829e-12 -1.0
  outer loop
    vertex 132.79895721881186 -267.5000000000006 100.00000000043926
    vertex 132.7989572188133 -221.5000000000006 100.00000000034868
    vertex 133.2131707811849 -266.50000000000045 100.00000000043728
  endloop
endfacet
facet normal -6.86451379217634e-15 -1.975949832147829e-12 -1.0
  outer loop
    vertex 133.21317078118636 -222.50000000000057 100.00000000035074
    vertex 133.2131707811849 -266.50000000000045 100.00000000043728
    vertex 132.7989572188133 -221.5000000000006 100.00000000034868
  endloop
endfacet
facet normal -6.86451379217634e-15 -1.975949832147829e-12 -1.0
  outer loop
    vertex 148.31518088245545 -281.602010101268 100.000000000467
    vertex 133.2131707811849 -266.50000000000045 100.00000000043728
    vertex 133.21317078118636 -222.50000000000057 100.00000000035074
  endloop
endfacet
facet normal -6.86451379217634e-15 -1.975949832147829e-12 -1.0
  outer loop
    vertex 148.31518088245437 -207.3979898987329 100.00000000032094
    vertex 148.31518088245545 -281.602010101268 100.000000000467
    vertex 133.21317078118636 -222.50000000000057 100.00000000035074
  endloop
endfacet
facet normal -6.86451379217634e-15 -1.975949832147829e-12 -1.0
  outer loop
    vertex 148.7739425399278 -207.57639720997162 100.00000000031902
    vertex 148.31518088245545 -281.602010101268 100.000000000467
    vertex 148.31518088245437 -207.3979898987329 100.00000000032094
  endloop
endfacet
facet normal -6.86451379217634e-15 -1.975949832147829e-12 -1.0
  outer loop
    vertex 173.00606399999995 -272.0000000000007 100.00000000044828
    vertex 148.31518088245545 -281.602010101268 100.000000000467
    vertex 148.7739425399278 -207.57639720997162 100.00000000031902
  endloop
endfacet
facet normal -6.86451379217634e-15 -1.975949832147829e-12 -1.0
  outer loop
    vertex 170.2100499853742 -215.91266121653916 100.0000000003356
    vertex 173.00606399999995 -272.0000000000007 100.00000000044828
    vertex 148.7739425399278 -207.57639720997162 100.00000000031902
  endloop
endfacet
facet normal -6.86451379217634e-15 -1.975949832147829e-12 -1.0
  outer loop
    vertex 173.00606399999958 -217.0000000000009 100.00000000033992
    vertex 173.00606399999995 -272.0000000000007 100.00000000044828
    vertex 170.2100499853742 -215.91266121653916 100.0000000003356
  endloop
endfacet
facet normal -6.86451379217634e-15 -1.975949832147829e-12 -1.0
  outer loop
    vertex 98.00606400000021 -244.50000000000063 100.00000000039392
    vertex 98.00606400000021 -199.50000000000054 100.0000000003053
    vertex 108.00606400000011 -289.5000000000007 100.00000000048271
  endloop
endfacet
facet normal -6.86451379217634e-15 -1.975949832147829e-12 -1.0
  outer loop
    vertex 128.0060639999999 -199.5000000000007 100.0000000003053
    vertex 108.00606400000011 -289.5000000000007 100.00000000048271
    vertex 98.00606400000021 -199.50000000000054 100.0000000003053
  endloop
endfacet
facet normal -6.86451379217634e-15 -1.975949832147829e-12 -1.0
  outer loop
    vertex 128.00606400000018 -289.5000000000007 100.00000000048271
    vertex 108.00606400000011 -289.5000000000007 100.00000000048271
    vertex 128.0060639999999 -199.5000000000007 100.0000000003053
  endloop
endfacet
facet normal -6.86451379217634e-15 -1.975949832147829e-12 -1.0
  outer loop
    vertex 132.7989572188133 -221.5000000000006 100.00000000034868
    vertex 128.00606400000018 -289.5000000000007 100.00000000048271
    vertex 128.0060639999999 -199.5000000000007 100.0000000003053
  endloop
endfacet
facet normal -6.86451379217634e-15 -1.975949832147829e-12 -1.0
  outer loop
    vertex 140.50606399999992 -204.36111111111165 100.00000000031493
    vertex 132.7989572188133 -221.5000000000006 100.00000000034868
    vertex 128.0060639999999 -199.5000000000007 100.0000000003053
  endloop
endfacet
facet normal -6.86451379217634e-15 -1.975949832147829e-12 -1.0
  outer loop
    vertex 132.79895721881186 -267.5000000000006 100.00000000043926
    vertex 128.00606400000018 -289.5000000000007 100.00000000048271
    vertex 132.7989572188133 -221.5000000000006 100.00000000034868
  endloop
endfacet
facet normal -6.86451379217634e-15 -1.975949832147829e-12 -1.0
  outer loop
    vertex 134.01964451737183 -220.27931270144242 100.00000000034626
    vertex 132.7989572188133 -221.5000000000006 100.00000000034868
    vertex 140.50606399999992 -204.36111111111165 100.00000000031493
  endloop
endfacet
facet normal -6.86451379217634e-15 -1.975949832147829e-12 -1.0
  outer loop
    vertex 140.50606399999992 -213.79289321881416 100.00000000033366
    vertex 134.01964451737183 -220.27931270144242 100.00000000034626
    vertex 140.50606399999992 -204.36111111111165 100.00000000031493
  endloop
endfacet
facet normal -7.831257789410632e-14 -1.0 1.2933462277398183e-12
  outer loop
    vertex 128.00606400000018 -289.5000000000008 101.50000000048279
    vertex 109.030457828588 -289.4999999999977 101.50000000048274
    vertex 128.00606400000018 -289.5000000000007 100.00000000048271
  endloop
endfacet
facet normal -7.831257789410632e-14 -1.0 1.2933462277398183e-12
  outer loop
    vertex 108.00606400000028 -289.4999999999996 100.5000000004827
    vertex 128.00606400000018 -289.5000000000007 100.00000000048271
    vertex 109.030457828588 -289.4999999999977 101.50000000048274
  endloop
endfacet
facet normal -7.831257789410632e-14 -1.0 1.2933462277398183e-12
  outer loop
    vertex 108.00606400000011 -289.5000000000007 100.00000000048271
    vertex 128.00606400000018 -289.5000000000007 100.00000000048271
    vertex 108.00606400000028 -289.4999999999996 100.5000000004827
  endloop
endfacet
facet normal -2.3606269435644446e-16 1.978362454107197e-12 1.0
  outer loop
    vertex 104.26986899951913 -268.07735026918715 101.5000000004404
    vertex 109.030457828588 -289.4999999999977 101.50000000048274
    vertex 132.997370106039 -268.07735026918715 101.5000000004404
  endloop
endfacet
facet normal -2.3606269435644446e-16 1.978362454107197e-12 1.0
  outer loop
    vertex 128.00606400000018 -289.5000000000008 101.50000000048279
    vertex 132.997370106039 -268.07735026918715 101.5000000004404
    vertex 109.030457828588 -289.4999999999977 101.50000000048274
  endloop
endfacet
facet normal -2.3606269435644446e-16 1.978362454107197e-12 1.0
  outer loop
    vertex 140.50606399999992 -284.63888888888647 101.50000000047321
    vertex 132.997370106039 -268.07735026918715 101.5000000004404
    vertex 128.00606400000018 -289.5000000000008 101.50000000048279
  endloop
endfacet
facet normal -2.3606269435644446e-16 1.978362454107197e-12 1.0
  outer loop
    vertex 140.5060640000003 -275.58604416314733 101.50000000045517
    vertex 132.997370106039 -268.07735026918715 101.5000000004404
    vertex 140.50606399999992 -284.63888888888647 101.50000000047321
  endloop
endfacet
endsolid ProtoGlove baseplate
