solid ProtoGlove baseplate
facet normal -0.23121988244082356 -0.610387619859902 0.7576043291097376
  outer loop
    vertex 339.2110194070263 -216.6960784587814 101.50000000033815
    vertex 358.8432886680422 -224.1329445466096 101.50000000035392
    vertex 339.4397383226883 -216.07434286568062 102.07072544768853
  endloop
endfacet
facet normal -0.23121988244082356 -0.610387619859902 0.7576043291097376
  outer loop
    vertex 340.00766249182146 -214.57510379419514 103.45196402811897
    vertex 339.4397383226883 -216.07434286568062 102.07072544768853
    vertex 358.8432886680422 -224.1329445466096 101.50000000035392
  endloop
endfacet
facet normal -0.23121988244082356 -0.610387619859902 0.7576043291097376
  outer loop
    vertex 359.6458781441555 -222.0142224242714 103.4519640281359
    vertex 340.00766249182146 -214.57510379419514 103.45196402811897
    vertex 358.8432886680422 -224.1329445466096 101.50000000035392
  endloop
endfacet
facet normal -0.9351531263017032 0.3542437442893676 -5.335796751118259e-13
  outer loop
    vertex 340.01305006385314 -214.56088136992403 100.00000000033285
    vertex 340.013050063853 -214.5608813699209 101.50000000033278
    vertex 341.23216525055045 -211.34259058415026 104.91491226606155
  endloop
endfacet
facet normal -0.9351531263017032 0.3542437442893676 -5.335796751118259e-13
  outer loop
    vertex 340.26065929753634 -213.90722819265537 104.14915258504006
    vertex 341.23216525055045 -211.34259058415026 104.91491226606155
    vertex 340.013050063853 -214.5608813699209 101.50000000033278
  endloop
endfacet
facet normal -0.9351531263017032 0.3542437442893676 -5.335796751118259e-13
  outer loop
    vertex 340.73038596836386 -212.66721655712573 105.615288757325
    vertex 341.23216525055045 -211.34259058415026 104.91491226606155
    vertex 340.26065929753634 -213.90722819265537 104.14915258504006
  endloop
endfacet
facet normal -0.9351531263017032 0.3542437442893676 -5.335796751118259e-13
  outer loop
    vertex 340.7832097382506 -212.52776931395127 105.80232958563866
    vertex 341.23216525055045 -211.34259058415026 104.91491226606155
    vertex 340.73038596836386 -212.66721655712573 105.615288757325
  endloop
endfacet
facet normal -0.9351531263017032 0.3542437442893676 -5.335796751118259e-13
  outer loop
    vertex 339.4397383226883 -216.0743428656818 101.50000000033695
    vertex 339.4397383226883 -216.07434286568062 102.07072544768853
    vertex 340.013050063853 -214.5608813699209 101.50000000033278
  endloop
endfacet
facet normal -0.9351531263017032 0.3542437442893676 -5.335796751118259e-13
  outer loop
    vertex 340.00766249182146 -214.57510379419514 103.45196402811897
    vertex 340.013050063853 -214.5608813699209 101.50000000033278
    vertex 339.4397383226883 -216.07434286568062 102.07072544768853
  endloop
endfacet
facet normal -0.9351531263017032 0.3542437442893676 -5.335796751118259e-13
  outer loop
    vertex 340.26065929753634 -213.90722819265537 104.14915258504006
    vertex 340.013050063853 -214.5608813699209 101.50000000033278
    vertex 340.00766249182146 -214.57510379419514 103.45196402811897
  endloop
endfacet
facet normal -0.2627294873190516 -0.6935684973925976 0.6707726559108106
  outer loop
    vertex 360.3686016206988 -220.10633518720232 105.61528875734167
    vertex 340.73038596836386 -212.66721655712573 105.615288757325
    vertex 359.8988749498689 -221.3463468227318 104.14915258505701
  endloop
endfacet
facet normal -0.2627294873190516 -0.6935684973925976 0.6707726559108106
  outer loop
    vertex 340.26065929753634 -213.90722819265537 104.14915258504006
    vertex 359.8988749498689 -221.3463468227318 104.14915258505701
    vertex 340.73038596836386 -212.66721655712573 105.615288757325
  endloop
endfacet
facet normal 0.9351531263015539 -0.3542437442897616 6.589003115481667e-13
  outer loop
    vertex 358.8432886680422 -224.1329445466096 101.50000000035392
    vertex 359.0739154469992 -223.52412263563016 101.50000000035281
    vertex 359.6458781441555 -222.0142224242714 103.4519640281359
  endloop
endfacet
facet normal 0.9351531263015539 -0.3542437442897616 6.589003115481667e-13
  outer loop
    vertex 359.6512657161887 -221.9999999999994 100.50000000034976
    vertex 359.6458781441555 -222.0142224242714 103.4519640281359
    vertex 359.0739154469992 -223.52412263563016 101.50000000035281
  endloop
endfacet
facet normal 0.9351531263015539 -0.3542437442897616 6.589003115481667e-13
  outer loop
    vertex 359.8988749498689 -221.3463468227318 104.14915258505701
    vertex 359.6458781441555 -222.0142224242714 103.4519640281359
    vertex 359.6512657161887 -221.9999999999994 100.50000000034976
  endloop
endfacet
facet normal 0.9351531263015539 -0.3542437442897616 6.589003115481667e-13
  outer loop
    vertex 359.65126571618754 -222.00000000000045 100.00000000034979
    vertex 362.0894960895813 -215.5634184284623 109.82982453180486
    vertex 359.6512657161887 -221.9999999999994 100.50000000034976
  endloop
endfacet
facet normal 0.9351531263015539 -0.3542437442897616 6.589003115481667e-13
  outer loop
    vertex 359.8988749498689 -221.3463468227318 104.14915258505701
    vertex 359.6512657161887 -221.9999999999994 100.50000000034976
    vertex 362.0894960895813 -215.5634184284623 109.82982453180486
  endloop
endfacet
facet normal 0.9351531263015539 -0.3542437442897616 6.589003115481667e-13
  outer loop
    vertex 360.3686016206988 -220.10633518720232 105.61528875734167
    vertex 359.8988749498689 -221.3463468227318 104.14915258505701
    vertex 362.0894960895813 -215.5634184284623 109.82982453180486
  endloop
endfacet
facet normal 0.9351531263015539 -0.3542437442897616 6.589003115481667e-13
  outer loop
    vertex 360.5890030615217 -219.5245067152822 106.39569629246776
    vertex 360.3686016206988 -220.10633518720232 105.61528875734167
    vertex 362.0894960895813 -215.5634184284623 109.82982453180486
  endloop
endfacet
facet normal 0.9351531263015539 -0.3542437442897616 6.589003115481667e-13
  outer loop
    vertex 361.3494480619403 -217.5170400176028 109.46146111990181
    vertex 360.5890030615217 -219.5245067152822 106.39569629246776
    vertex 362.0894960895813 -215.5634184284623 109.82982453180486
  endloop
endfacet
facet normal 0.9351531263015539 -0.3542437442897616 6.589003115481667e-13
  outer loop
    vertex 361.8718614740965 -216.13794287481088 110.26000685906928
    vertex 361.3494480619403 -217.5170400176028 109.46146111990181
    vertex 362.0894960895813 -215.5634184284623 109.82982453180486
  endloop
endfacet
facet normal -0.1686769427266783 -0.44528315000025703 0.87935829177772
  outer loop
    vertex 349.0755632792328 -212.86759087379983 109.46146111989279
    vertex 361.3494480619403 -217.5170400176028 109.46146111990181
    vertex 352.0527536479307 -212.41838355976844 110.260006859062
  endloop
endfacet
facet normal -0.1686769427266783 -0.44528315000025703 0.87935829177772
  outer loop
    vertex 361.8718614740965 -216.13794287481088 110.26000685906928
    vertex 352.0527536479307 -212.41838355976844 110.260006859062
    vertex 361.3494480619403 -217.5170400176028 109.46146111990181
  endloop
endfacet
facet normal -0.2901794873115663 -0.7660325951320486 0.5735764363525193
  outer loop
    vertex 361.3494480619403 -217.5170400176028 109.46146111990181
    vertex 349.0755632792328 -212.86759087379983 109.46146111989279
    vertex 360.5890030615217 -219.5245067152822 106.39569629246776
  endloop
endfacet
facet normal -0.2901794873115663 -0.7660325951320486 0.5735764363525193
  outer loop
    vertex 342.190273361411 -212.5549156228375 106.3956962924542
    vertex 360.5890030615217 -219.5245067152822 106.39569629246776
    vertex 349.0755632792328 -212.86759087379983 109.46146111989279
  endloop
endfacet
facet normal -0.24745309225480977 -0.6532409860863969 0.7155719259658002
  outer loop
    vertex 340.00766249182146 -214.57510379419514 103.45196402811897
    vertex 359.6458781441555 -222.0142224242714 103.4519640281359
    vertex 340.26065929753634 -213.90722819265537 104.14915258504006
  endloop
endfacet
facet normal -0.24745309225480977 -0.6532409860863969 0.7155719259658002
  outer loop
    vertex 359.8988749498689 -221.3463468227318 104.14915258505701
    vertex 340.26065929753634 -213.90722819265537 104.14915258504006
    vertex 359.6458781441555 -222.0142224242714 103.4519640281359
  endloop
endfacet
facet normal 0.20318586444942102 0.5363817976283017 0.8191520442878557
  outer loop
    vertex 352.0527536479307 -212.41838355976844 110.260006859062
    vertex 361.8718614740965 -216.13794287481088 110.26000685906928
    vertex 352.2703882634143 -211.84385911341968 109.82982453179756
  endloop
endfacet
facet normal 0.20318586444942102 0.5363817976283017 0.8191520442878557
  outer loop
    vertex 362.0894960895813 -215.5634184284623 109.82982453180486
    vertex 352.2703882634143 -211.84385911341968 109.82982453179756
    vertex 361.8718614740965 -216.13794287481088 110.26000685906928
  endloop
endfacet
facet normal -0.9385102606945823 0.345251344053846 -7.296302449171126e-13
  outer loop
    vertex 339.4397383226883 -216.0743428656818 101.50000000033695
    vertex 339.2110194070263 -216.6960784587814 101.50000000033815
    vertex 339.4397383226883 -216.07434286568062 102.07072544768853
  endloop
endfacet
facet normal -0.28755114589963804 0.6414639325627944 0.7112231448096159
  outer loop
    vertex 340.7832097382506 -212.52776931395127 105.80232958563866
    vertex 342.190273361411 -212.5549156228375 106.3956962924542
    vertex 341.23216525055045 -211.34259058415026 104.91491226606155
  endloop
endfacet
facet normal -0.28755114589963804 0.6414639325627944 0.7112231448096159
  outer loop
    vertex 352.2703882634143 -211.84385911341968 109.82982453179756
    vertex 341.23216525055045 -211.34259058415026 104.91491226606155
    vertex 342.190273361411 -212.5549156228375 106.3956962924542
  endloop
endfacet
facet normal -0.28755114589963804 0.6414639325627944 0.7112231448096159
  outer loop
    vertex 349.0755632792328 -212.86759087379983 109.46146111989279
    vertex 352.2703882634143 -211.84385911341968 109.82982453179756
    vertex 342.190273361411 -212.5549156228375 106.3956962924542
  endloop
endfacet
facet normal -0.28755114589963804 0.6414639325627944 0.7112231448096159
  outer loop
    vertex 352.0527536479307 -212.41838355976844 110.260006859062
    vertex 352.2703882634143 -211.84385911341968 109.82982453179756
    vertex 349.0755632792328 -212.86759087379983 109.46146111989279
  endloop
endfacet
facet normal -0.2769899991448976 -0.7312142213651481 0.6233797420890976
  outer loop
    vertex 360.5890030615217 -219.5245067152822 106.39569629246776
    vertex 342.190273361411 -212.5549156228375 106.3956962924542
    vertex 360.3686016206988 -220.10633518720232 105.61528875734167
  endloop
endfacet
facet normal -0.2769899991448976 -0.7312142213651481 0.6233797420890976
  outer loop
    vertex 340.7832097382506 -212.52776931395127 105.80232958563866
    vertex 360.3686016206988 -220.10633518720232 105.61528875734167
    vertex 342.190273361411 -212.5549156228375 106.3956962924542
  endloop
endfacet
facet normal -0.2769899991448976 -0.7312142213651481 0.6233797420890976
  outer loop
    vertex 340.73038596836386 -212.66721655712573 105.615288757325
    vertex 360.3686016206988 -220.10633518720232 105.61528875734167
    vertex 340.7832097382506 -212.52776931395127 105.80232958563866
  endloop
endfacet
facet normal 0.29017948731134124 0.766032595131996 -0.5735764363527033
  outer loop
    vertex 362.0894960895813 -215.5634184284623 109.82982453180486
    vertex 359.65126571618754 -222.00000000000045 100.00000000034979
    vertex 352.2703882634143 -211.84385911341968 109.82982453179756
  endloop
endfacet
facet normal 0.29017948731134124 0.766032595131996 -0.5735764363527033
  outer loop
    vertex 341.23216525055045 -211.34259058415026 104.91491226606155
    vertex 352.2703882634143 -211.84385911341968 109.82982453179756
    vertex 359.65126571618754 -222.00000000000045 100.00000000034979
  endloop
endfacet
facet normal 0.29017948731134124 0.766032595131996 -0.5735764363527033
  outer loop
    vertex 340.01305006385314 -214.56088136992403 100.00000000033285
    vertex 341.23216525055045 -211.34259058415026 104.91491226606155
    vertex 359.65126571618754 -222.00000000000045 100.00000000034979
  endloop
endfacet
facet normal 0.29017948731134124 0.766032595131996 -0.5735764363527033
  outer loop
    vertex 357.31338290042993 -221.11439063928051 100.00000000034238
    vertex 340.01305006385314 -214.56088136992403 100.00000000033285
    vertex 359.65126571618754 -222.00000000000045 100.00000000034979
  endloop
endfacet
facet normal 1.2504448973726794e-14 1.9579646477692257e-12 1.0
  outer loop
    vertex 300.886604328811 -245.57735026918718 101.50000000039607
    vertex 303.9564433135688 -260.9226497308079 101.50000000042631
    vertex 359.07391544699954 -245.57735026918718 101.50000000039607
  endloop
endfacet
facet normal 1.2504448973726794e-14 1.9579646477692257e-12 1.0
  outer loop
    vertex 335.0680539655951 -260.9226497308079 101.50000000042631
    vertex 359.07391544699954 -245.57735026918718 101.50000000039607
    vertex 303.9564433135688 -260.9226497308079 101.50000000042631
  endloop
endfacet
facet normal 1.2504448973726794e-14 1.9579646477692257e-12 1.0
  outer loop
    vertex 340.112223417919 -274.40155094271927 101.50000000045301
    vertex 359.07391544699954 -245.57735026918718 101.50000000039607
    vertex 335.0680539655951 -260.9226497308079 101.50000000042631
  endloop
endfacet
facet normal 1.2504448973726794e-14 1.9579646477692257e-12 1.0
  outer loop
    vertex 359.0739154469999 -267.2187050605614 101.50000000043542
    vertex 359.07391544699954 -245.57735026918718 101.50000000039607
    vertex 340.112223417919 -274.40155094271927 101.50000000045301
  endloop
endfacet
facet normal 0.0 1.9698374875698473e-12 1.0
  outer loop
    vertex 299.65126571618896 -243.99999999999963 100.50000000039321
    vertex 299.65126571618896 -244.49999999999952 100.50000000039388
    vertex 359.6512657161887 -243.99999999999963 100.50000000039321
  endloop
endfacet
facet normal 0.0 1.9698374875698473e-12 1.0
  outer loop
    vertex 299.75129110156615 -244.9999999999996 100.50000000039493
    vertex 359.6512657161887 -243.99999999999963 100.50000000039321
    vertex 299.65126571618896 -244.49999999999952 100.50000000039388
  endloop
endfacet
facet normal 0.0 1.9698374875698473e-12 1.0
  outer loop
    vertex 359.6512657161887 -244.9999999999996 100.50000000039493
    vertex 359.6512657161887 -243.99999999999963 100.50000000039321
    vertex 299.75129110156615 -244.9999999999996 100.50000000039493
  endloop
endfacet
facet normal -0.6933684746782528 -0.1387088977749547 0.7071067811868378
  outer loop
    vertex 299.75129110156615 -244.9999999999996 100.50000000039493
    vertex 303.0521288190175 -261.49999999999966 100.50000000042746
    vertex 300.886604328811 -245.57735026918718 101.50000000039607
  endloop
endfacet
facet normal -0.6933684746782528 -0.1387088977749547 0.7071067811868378
  outer loop
    vertex 303.9564433135688 -260.9226497308079 101.50000000042631
    vertex 300.886604328811 -245.57735026918718 101.50000000039607
    vertex 303.0521288190175 -261.49999999999966 100.50000000042746
  endloop
endfacet
facet normal 5.484517084685444e-16 0.8660254037854083 0.49999999999832073
  outer loop
    vertex 304.3874928170172 -263.07735026918715 101.50000000043052
    vertex 334.2344774667828 -263.07735026918715 101.50000000043052
    vertex 303.2521795897723 -262.4999999999996 100.50000000042935
  endloop
endfacet
facet normal 5.484517084685444e-16 0.8660254037854083 0.49999999999832073
  outer loop
    vertex 334.3045145852472 -262.4999999999996 100.50000000042935
    vertex 303.2521795897723 -262.4999999999996 100.50000000042935
    vertex 334.2344774667828 -263.07735026918715 101.50000000043052
  endloop
endfacet
facet normal -3.2934730824991714e-15 2.0008200698466854e-12 1.0
  outer loop
    vertex 300.65126571618873 -243.4226497308079 101.50000000039206
    vertex 359.07391544699954 -243.4226497308081 101.50000000039206
    vertex 300.6512657161891 -228.07735026918738 101.50000000036155
  endloop
endfacet
facet normal -3.2934730824991714e-15 2.0008200698466854e-12 1.0
  outer loop
    vertex 335.0241718528251 -228.077350269187 101.50000000036155
    vertex 300.6512657161891 -228.07735026918738 101.50000000036155
    vertex 359.07391544699954 -243.4226497308081 101.50000000039206
  endloop
endfacet
facet normal -3.2934730824991714e-15 2.0008200698466854e-12 1.0
  outer loop
    vertex 339.2110194070263 -216.6960784587814 101.50000000033815
    vertex 335.0241718528251 -228.077350269187 101.50000000036155
    vertex 359.07391544699954 -243.4226497308081 101.50000000039206
  endloop
endfacet
facet normal -3.2934730824991714e-15 2.0008200698466854e-12 1.0
  outer loop
    vertex 358.8432886680422 -224.1329445466096 101.50000000035392
    vertex 339.2110194070263 -216.6960784587814 101.50000000033815
    vertex 359.07391544699954 -243.4226497308081 101.50000000039206
  endloop
endfacet
facet normal -3.2934730824991714e-15 2.0008200698466854e-12 1.0
  outer loop
    vertex 359.0739154469992 -223.52412263563016 101.50000000035281
    vertex 358.8432886680422 -224.1329445466096 101.50000000035392
    vertex 359.07391544699954 -243.4226497308081 101.50000000039206
  endloop
endfacet
facet normal 0.8660254037844928 9.769497525798704e-13 0.4999999999999061
  outer loop
    vertex 359.0739154469999 -267.2187050605614 101.50000000043542
    vertex 359.65126571618885 -266.99999999999966 100.50000000043838
    vertex 359.07391544699954 -245.57735026918718 101.50000000039607
  endloop
endfacet
facet normal 0.8660254037844928 9.769497525798704e-13 0.4999999999999061
  outer loop
    vertex 359.6512657161887 -245.49999999999966 100.50000000039586
    vertex 359.07391544699954 -245.57735026918718 101.50000000039607
    vertex 359.65126571618885 -266.99999999999966 100.50000000043838
  endloop
endfacet
facet normal 0.8660254037844928 9.769497525798704e-13 0.4999999999999061
  outer loop
    vertex 359.6512657161887 -244.9999999999996 100.50000000039493
    vertex 359.07391544699954 -245.57735026918718 101.50000000039607
    vertex 359.6512657161887 -245.49999999999966 100.50000000039586
  endloop
endfacet
facet normal -6.960996208859565e-16 0.8660254037854332 0.4999999999982772
  outer loop
    vertex 300.886604328811 -245.57735026918718 101.50000000039607
    vertex 359.07391544699954 -245.57735026918718 101.50000000039607
    vertex 299.75129110156615 -244.9999999999996 100.50000000039493
  endloop
endfacet
facet normal -6.960996208859565e-16 0.8660254037854332 0.4999999999982772
  outer loop
    vertex 359.6512657161887 -244.9999999999996 100.50000000039493
    vertex 299.75129110156615 -244.9999999999996 100.50000000039493
    vertex 359.07391544699954 -245.57735026918718 101.50000000039607
  endloop
endfacet
facet normal -3.324284672288141e-15 0.8660254037854337 0.49999999999827655
  outer loop
    vertex 300.6512657161891 -228.07735026918738 101.50000000036155
    vertex 335.0241718528251 -228.077350269187 101.50000000036155
    vertex 299.65126571618896 -227.49999999999943 100.5000000003604
  endloop
endfacet
facet normal -3.324284672288141e-15 0.8660254037854337 0.49999999999827655
  outer loop
    vertex 334.95047495803107 -227.49999999999943 100.5000000003604
    vertex 299.65126571618896 -227.49999999999943 100.5000000003604
    vertex 335.0241718528251 -228.077350269187 101.50000000036155
  endloop
endfacet
facet normal -1.1305960040822804e-15 -0.8660254037834306 0.500000000001746
  outer loop
    vertex 334.18676988638373 -225.92264973080793 101.50000000035753
    vertex 300.6512657161891 -225.92264973080793 101.50000000035753
    vertex 334.2528281838109 -226.49999999999966 100.50000000035861
  endloop
endfacet
facet normal -1.1305960040822804e-15 -0.8660254037834306 0.500000000001746
  outer loop
    vertex 299.65126571618896 -226.49999999999966 100.50000000035861
    vertex 334.2528281838109 -226.49999999999966 100.50000000035861
    vertex 300.6512657161891 -225.92264973080793 101.50000000035753
  endloop
endfacet
facet normal -0.6933684746782208 -0.13870889777494902 0.7071067811868701
  outer loop
    vertex 303.2521795897723 -262.4999999999996 100.50000000042935
    vertex 306.6530426926011 -279.4999999999995 100.50000000046285
    vertex 304.3874928170172 -263.07735026918715 101.50000000043052
  endloop
endfacet
facet normal -0.6933684746782208 -0.13870889777494902 0.7071067811868701
  outer loop
    vertex 307.6728565534992 -279.49999999999767 101.50000000046289
    vertex 304.3874928170172 -263.07735026918715 101.50000000043052
    vertex 306.6530426926011 -279.4999999999995 100.50000000046285
  endloop
endfacet
facet normal 1.0 1.601437018413416e-14 -9.681746682942693e-13
  outer loop
    vertex 359.65126571618885 -267.0000000000005 100.0000000004384
    vertex 359.65126571618754 -222.00000000000045 100.00000000034979
    vertex 359.65126571618885 -266.99999999999966 100.50000000043838
  endloop
endfacet
facet normal 1.0 1.601437018413416e-14 -9.681746682942693e-13
  outer loop
    vertex 359.6512657161887 -245.49999999999966 100.50000000039586
    vertex 359.65126571618885 -266.99999999999966 100.50000000043838
    vertex 359.65126571618754 -222.00000000000045 100.00000000034979
  endloop
endfacet
facet normal 1.0 1.601437018413416e-14 -9.681746682942693e-13
  outer loop
    vertex 359.6512657161887 -244.9999999999996 100.50000000039493
    vertex 359.6512657161887 -245.49999999999966 100.50000000039586
    vertex 359.65126571618754 -222.00000000000045 100.00000000034979
  endloop
endfacet
facet normal 1.0 1.601437018413416e-14 -9.681746682942693e-13
  outer loop
    vertex 359.6512657161887 -243.99999999999963 100.50000000039321
    vertex 359.6512657161887 -244.9999999999996 100.50000000039493
    vertex 359.65126571618754 -222.00000000000045 100.00000000034979
  endloop
endfacet
facet normal 1.0 1.601437018413416e-14 -9.681746682942693e-13
  outer loop
    vertex 359.6512657161887 -221.9999999999994 100.50000000034976
    vertex 359.6512657161887 -243.99999999999963 100.50000000039321
    vertex 359.65126571618754 -222.00000000000045 100.00000000034979
  endloop
endfacet
facet normal -0.9365669630492156 -0.35048869272027794 6.903928028975278e-13
  outer loop
    vertex 339.8616478758757 -274.49647103200397 100.00000000045307
    vertex 339.8616478758757 -274.4964710320031 100.50000000045296
    vertex 334.99801684713026 -261.5000000000005 100.0000000004274
  endloop
endfacet
facet normal -0.9365669630492156 -0.35048869272027794 6.903928028975278e-13
  outer loop
    vertex 334.99801684713026 -261.49999999999966 100.50000000042746
    vertex 334.99801684713026 -261.5000000000005 100.0000000004274
    vertex 339.8616478758757 -274.4964710320031 100.50000000045296
  endloop
endfacet
facet normal -1.0084768558285014e-17 1.9698339706890503e-12 1.0
  outer loop
    vertex 299.65126571618896 -226.49999999999966 100.50000000035861
    vertex 299.65126571618896 -227.49999999999943 100.5000000003604
    vertex 334.2528281838109 -226.49999999999966 100.50000000035861
  endloop
endfacet
facet normal -1.0084768558285014e-17 1.9698339706890503e-12 1.0
  outer loop
    vertex 334.95047495803107 -227.49999999999943 100.5000000003604
    vertex 334.2528281838109 -226.49999999999966 100.50000000035861
    vertex 299.65126571618896 -227.49999999999943 100.5000000003604
  endloop
endfacet
facet normal 1.6783174547792383e-17 1.969833347272801e-12 1.0
  outer loop
    vertex 303.0521288190175 -261.49999999999966 100.50000000042746
    vertex 303.2521795897723 -262.4999999999996 100.50000000042935
    vertex 334.99801684713026 -261.49999999999966 100.50000000042746
  endloop
endfacet
facet normal 1.6783174547792383e-17 1.969833347272801e-12 1.0
  outer loop
    vertex 334.3045145852472 -262.4999999999996 100.50000000042935
    vertex 334.99801684713026 -261.49999999999966 100.50000000042746
    vertex 303.2521795897723 -262.4999999999996 100.50000000042935
  endloop
endfacet
facet normal -6.893955305915016e-16 -0.8660254037834382 0.5000000000017331
  outer loop
    vertex 335.0680539655951 -260.9226497308079 101.50000000042631
    vertex 303.9564433135688 -260.9226497308079 101.50000000042631
    vertex 334.99801684713026 -261.49999999999966 100.50000000042746
  endloop
endfacet
facet normal -6.893955305915016e-16 -0.8660254037834382 0.5000000000017331
  outer loop
    vertex 303.0521288190175 -261.49999999999966 100.50000000042746
    vertex 334.99801684713026 -261.49999999999966 100.50000000042746
    vertex 303.9564433135688 -260.9226497308079 101.50000000042631
  endloop
endfacet
facet normal -3.254266686464547e-16 -0.8660254037834733 0.5000000000016722
  outer loop
    vertex 359.07391544699954 -243.4226497308081 101.50000000039206
    vertex 300.65126571618873 -243.4226497308079 101.50000000039206
    vertex 359.6512657161887 -243.99999999999963 100.50000000039321
  endloop
endfacet
facet normal -3.254266686464547e-16 -0.8660254037834733 0.5000000000016722
  outer loop
    vertex 299.65126571618896 -243.99999999999963 100.50000000039321
    vertex 359.6512657161887 -243.99999999999963 100.50000000039321
    vertex 300.65126571618873 -243.4226497308079 101.50000000039206
  endloop
endfacet
facet normal 0.9080171279327164 -0.3340337841484847 0.2528365607032823
  outer loop
    vertex 334.2528281838109 -226.49999999999966 100.50000000035861
    vertex 338.81222953057215 -214.1060006130021 100.50000000033404
    vertex 334.18676988638373 -225.92264973080793 101.50000000035753
  endloop
endfacet
facet normal 0.9080171279327164 -0.3340337841484847 0.2528365607032823
  outer loop
    vertex 338.56783718725455 -214.01342277057256 101.50000000033391
    vertex 334.18676988638373 -225.92264973080793 101.50000000035753
    vertex 338.81222953057215 -214.1060006130021 100.50000000033404
  endloop
endfacet
facet normal 0.904654217658349 0.3385460801213048 0.2588190451019009
  outer loop
    vertex 338.6759116797927 -274.9456377171418 101.50000000045395
    vertex 338.92648722183606 -274.85071762786157 100.50000000045365
    vertex 334.2344774667828 -263.07735026918715 101.50000000043052
  endloop
endfacet
facet normal 0.904654217658349 0.3385460801213048 0.2588190451019009
  outer loop
    vertex 334.3045145852472 -262.4999999999996 100.50000000042935
    vertex 334.2344774667828 -263.07735026918715 101.50000000043052
    vertex 338.92648722183606 -274.85071762786157 100.50000000045365
  endloop
endfacet
facet normal -0.938510260694656 0.34525134405364555 -6.799751311599993e-13
  outer loop
    vertex 334.95047495803107 -227.50000000000045 100.00000000036043
    vertex 334.95047495803107 -227.49999999999943 100.5000000003604
    vertex 339.747425738377 -214.46026067692245 100.00000000033484
  endloop
endfacet
facet normal -0.938510260694656 0.34525134405364555 -6.799751311599993e-13
  outer loop
    vertex 339.747425738377 -214.46026067692142 100.50000000033464
    vertex 339.747425738377 -214.46026067692245 100.00000000033484
    vertex 334.95047495803107 -227.49999999999943 100.5000000003604
  endloop
endfacet
facet normal 0.8201375933505723 0.5721663464178326 -1.1024067709003472e-12
  outer loop
    vertex 334.95047495803107 -227.50000000000045 100.00000000036043
    vertex 334.601651570921 -227.00000000000057 100.00000000035958
    vertex 334.95047495803107 -227.49999999999943 100.5000000003604
  endloop
endfacet
facet normal 0.8201375933505723 0.5721663464178326 -1.1024067709003472e-12
  outer loop
    vertex 334.2528281838109 -226.49999999999966 100.50000000035861
    vertex 334.95047495803107 -227.49999999999943 100.5000000003604
    vertex 334.601651570921 -227.00000000000057 100.00000000035958
  endloop
endfacet
facet normal 0.8201375933505723 0.5721663464178326 -1.1024067709003472e-12
  outer loop
    vertex 334.2528281838109 -226.50000000000068 100.00000000035863
    vertex 334.2528281838109 -226.49999999999966 100.50000000035861
    vertex 334.601651570921 -227.00000000000057 100.00000000035958
  endloop
endfacet
facet normal 0.8217325272618635 -0.5698733663190718 1.0978420001855559e-12
  outer loop
    vertex 334.3045145852472 -262.5000000000006 100.00000000042938
    vertex 334.99801684713026 -261.5000000000005 100.0000000004274
    vertex 334.3045145852472 -262.4999999999996 100.50000000042935
  endloop
endfacet
facet normal 0.8217325272618635 -0.5698733663190718 1.0978420001855559e-12
  outer loop
    vertex 334.99801684713026 -261.49999999999966 100.50000000042746
    vertex 334.3045145852472 -262.4999999999996 100.50000000042935
    vertex 334.99801684713026 -261.5000000000005 100.0000000004274
  endloop
endfacet
facet normal -0.9805711006119538 -0.19616400445714216 1.1488727467676801e-13
  outer loop
    vertex 306.6530426926013 -279.50000000000057 100.00000000046286
    vertex 306.6530426926011 -279.4999999999995 100.50000000046285
    vertex 299.65126571618896 -244.50000000000057 100.00000000039391
  endloop
endfacet
facet normal -0.9805711006119538 -0.19616400445714216 1.1488727467676801e-13
  outer loop
    vertex 303.2521795897723 -262.4999999999996 100.50000000042935
    vertex 299.65126571618896 -244.50000000000057 100.00000000039391
    vertex 306.6530426926011 -279.4999999999995 100.50000000046285
  endloop
endfacet
facet normal -0.9805711006119538 -0.19616400445714216 1.1488727467676801e-13
  outer loop
    vertex 303.0521288190175 -261.49999999999966 100.50000000042746
    vertex 299.65126571618896 -244.50000000000057 100.00000000039391
    vertex 303.2521795897723 -262.4999999999996 100.50000000042935
  endloop
endfacet
facet normal -0.9805711006119538 -0.19616400445714216 1.1488727467676801e-13
  outer loop
    vertex 299.75129110156615 -244.9999999999996 100.50000000039493
    vertex 299.65126571618896 -244.50000000000057 100.00000000039391
    vertex 303.0521288190175 -261.49999999999966 100.50000000042746
  endloop
endfacet
facet normal -0.9805711006119538 -0.19616400445714216 1.1488727467676801e-13
  outer loop
    vertex 299.65126571618896 -244.49999999999952 100.50000000039388
    vertex 299.65126571618896 -244.50000000000057 100.00000000039391
    vertex 299.75129110156615 -244.9999999999996 100.50000000039493
  endloop
endfacet
facet normal 0.9365669630492183 0.350488692720271 -6.906548443982085e-13
  outer loop
    vertex 338.92648722183606 -274.85071762786265 100.00000000045367
    vertex 334.3045145852472 -262.5000000000006 100.00000000042938
    vertex 338.92648722183606 -274.85071762786157 100.50000000045365
  endloop
endfacet
facet normal 0.9365669630492183 0.350488692720271 -6.906548443982085e-13
  outer loop
    vertex 334.3045145852472 -262.4999999999996 100.50000000042935
    vertex 338.92648722183606 -274.85071762786157 100.50000000045365
    vertex 334.3045145852472 -262.5000000000006 100.00000000042938
  endloop
endfacet
facet normal -0.7071067811865381 1.389131042908192e-12 0.7071067811865569
  outer loop
    vertex 299.65126571618896 -209.49999999999955 100.50000000032512
    vertex 299.65126571618896 -226.49999999999966 100.50000000035861
    vertex 300.65126571618873 -209.49999999999764 101.50000000032516
  endloop
endfacet
facet normal -0.7071067811865381 1.389131042908192e-12 0.7071067811865569
  outer loop
    vertex 300.6512657161891 -225.92264973080793 101.50000000035753
    vertex 300.65126571618873 -209.49999999999764 101.50000000032516
    vertex 299.65126571618896 -226.49999999999966 100.50000000035861
  endloop
endfacet
facet normal 0.9385102606946627 -0.3452513440536279 6.806350782460929e-13
  outer loop
    vertex 334.2528281838109 -226.50000000000068 100.00000000035863
    vertex 338.81222953057215 -214.10600061300315 100.00000000033407
    vertex 334.2528281838109 -226.49999999999966 100.50000000035861
  endloop
endfacet
facet normal 0.9385102606946627 -0.3452513440536279 6.806350782460929e-13
  outer loop
    vertex 338.81222953057215 -214.1060006130021 100.50000000033404
    vertex 334.2528281838109 -226.49999999999966 100.50000000035861
    vertex 338.81222953057215 -214.10600061300315 100.00000000033407
  endloop
endfacet
facet normal -0.7071067811865344 1.3962232192823736e-12 0.7071067811865608
  outer loop
    vertex 299.65126571618896 -227.49999999999943 100.5000000003604
    vertex 299.65126571618896 -227.99999999999966 100.50000000036144
    vertex 300.6512657161891 -228.07735026918738 101.50000000036155
  endloop
endfacet
facet normal -0.7071067811865344 1.3962232192823736e-12 0.7071067811865608
  outer loop
    vertex 299.65126571618896 -243.99999999999963 100.50000000039321
    vertex 300.6512657161891 -228.07735026918738 101.50000000036155
    vertex 299.65126571618896 -227.99999999999966 100.50000000036144
  endloop
endfacet
facet normal -0.7071067811865344 1.3962232192823736e-12 0.7071067811865608
  outer loop
    vertex 300.65126571618873 -243.4226497308079 101.50000000039206
    vertex 300.6512657161891 -228.07735026918738 101.50000000036155
    vertex 299.65126571618896 -243.99999999999963 100.50000000039321
  endloop
endfacet
facet normal -0.9055858669413362 0.3334595668046606 0.2621430046798054
  outer loop
    vertex 335.0241718528251 -228.077350269187 101.50000000036155
    vertex 339.2110194070263 -216.6960784587814 101.50000000033815
    vertex 334.95047495803107 -227.49999999999943 100.5000000003604
  endloop
endfacet
facet normal -0.9055858669413362 0.3334595668046606 0.2621430046798054
  outer loop
    vertex 339.747425738377 -214.46026067692142 100.50000000033464
    vertex 334.95047495803107 -227.49999999999943 100.5000000003604
    vertex 339.2110194070263 -216.6960784587814 101.50000000033815
  endloop
endfacet
facet normal -0.9055858669413362 0.3334595668046606 0.2621430046798054
  outer loop
    vertex 339.4397383226883 -216.0743428656818 101.50000000033695
    vertex 339.747425738377 -214.46026067692142 100.50000000033464
    vertex 339.2110194070263 -216.6960784587814 101.50000000033815
  endloop
endfacet
facet normal -0.9055858669413362 0.3334595668046606 0.2621430046798054
  outer loop
    vertex 340.013050063853 -214.5608813699209 101.50000000033278
    vertex 339.747425738377 -214.46026067692142 100.50000000033464
    vertex 339.4397383226883 -216.0743428656818 101.50000000033695
  endloop
endfacet
facet normal -1.0 0.0 0.0
  outer loop
    vertex 299.65126571618896 -244.50000000000057 100.00000000039391
    vertex 299.65126571618896 -244.49999999999952 100.50000000039388
    vertex 299.65126571618896 -209.5000000000006 100.00000000032514
  endloop
endfacet
facet normal -1.0 0.0 0.0
  outer loop
    vertex 299.65126571618896 -243.99999999999963 100.50000000039321
    vertex 299.65126571618896 -209.5000000000006 100.00000000032514
    vertex 299.65126571618896 -244.49999999999952 100.50000000039388
  endloop
endfacet
facet normal -1.0 0.0 0.0
  outer loop
    vertex 299.65126571618896 -227.99999999999966 100.50000000036144
    vertex 299.65126571618896 -209.5000000000006 100.00000000032514
    vertex 299.65126571618896 -243.99999999999963 100.50000000039321
  endloop
endfacet
facet normal -1.0 0.0 0.0
  outer loop
    vertex 299.65126571618896 -227.49999999999943 100.5000000003604
    vertex 299.65126571618896 -209.5000000000006 100.00000000032514
    vertex 299.65126571618896 -227.99999999999966 100.50000000036144
  endloop
endfacet
facet normal -1.0 0.0 0.0
  outer loop
    vertex 299.65126571618896 -226.49999999999966 100.50000000035861
    vertex 299.65126571618896 -209.5000000000006 100.00000000032514
    vertex 299.65126571618896 -227.49999999999943 100.5000000003604
  endloop
endfacet
facet normal -1.0 0.0 0.0
  outer loop
    vertex 299.65126571618896 -209.49999999999955 100.50000000032512
    vertex 299.65126571618896 -209.5000000000006 100.00000000032514
    vertex 299.65126571618896 -226.49999999999966 100.50000000035861
  endloop
endfacet
facet normal 0.3542437442893676 0.9351531263017032 -1.8159220024855074e-12
  outer loop
    vertex 338.56783718725455 -214.01342277057256 101.50000000033391
    vertex 338.81222953057215 -214.1060006130021 100.50000000033404
    vertex 326.65304269260105 -209.49999999999764 101.50000000032516
  endloop
endfacet
facet normal 0.3542437442893676 0.9351531263017032 -1.8159220024855074e-12
  outer loop
    vertex 326.65304269260105 -209.5000000000006 100.00000000032514
    vertex 326.65304269260105 -209.49999999999764 101.50000000032516
    vertex 338.81222953057215 -214.1060006130021 100.50000000033404
  endloop
endfacet
facet normal 0.3542437442893676 0.9351531263017032 -1.8159220024855074e-12
  outer loop
    vertex 338.81222953057215 -214.10600061300315 100.00000000033407
    vertex 326.65304269260105 -209.5000000000006 100.00000000032514
    vertex 338.81222953057215 -214.1060006130021 100.50000000033404
  endloop
endfacet
facet normal 6.647710629554185e-16 1.0 -1.9419877024161475e-12
  outer loop
    vertex 300.65126571618873 -209.49999999999764 101.50000000032516
    vertex 326.65304269260105 -209.49999999999764 101.50000000032516
    vertex 299.65126571618896 -209.49999999999955 100.50000000032512
  endloop
endfacet
facet normal 6.647710629554185e-16 1.0 -1.9419877024161475e-12
  outer loop
    vertex 326.65304269260105 -209.5000000000006 100.00000000032514
    vertex 299.65126571618896 -209.49999999999955 100.50000000032512
    vertex 326.65304269260105 -209.49999999999764 101.50000000032516
  endloop
endfacet
facet normal 6.647710629554185e-16 1.0 -1.9419877024161475e-12
  outer loop
    vertex 299.65126571618896 -209.5000000000006 100.00000000032514
    vertex 299.65126571618896 -209.49999999999955 100.50000000032512
    vertex 326.65304269260105 -209.5000000000006 100.00000000032514
  endloop
endfacet
facet normal 0.35424374428945954 -0.9351531263016682 1.1684240665442865e-12
  outer loop
    vertex 326.65304269260116 -279.50000000000074 101.50000000046285
    vertex 326.65304269260116 -279.50000000000057 100.00000000046292
    vertex 338.6759116797927 -274.9456377171418 101.50000000045395
  endloop
endfacet
facet normal 0.35424374428945954 -0.9351531263016682 1.1684240665442865e-12
  outer loop
    vertex 338.92648722183606 -274.85071762786157 100.50000000045365
    vertex 338.6759116797927 -274.9456377171418 101.50000000045395
    vertex 326.65304269260116 -279.50000000000057 100.00000000046292
  endloop
endfacet
facet normal 0.35424374428945954 -0.9351531263016682 1.1684240665442865e-12
  outer loop
    vertex 338.92648722183606 -274.85071762786265 100.00000000045367
    vertex 338.92648722183606 -274.85071762786157 100.50000000045365
    vertex 326.65304269260116 -279.50000000000057 100.00000000046292
  endloop
endfacet
facet normal 0.8660254037845669 9.942186377532328e-13 0.499999999999778
  outer loop
    vertex 359.6512657161887 -243.99999999999963 100.50000000039321
    vertex 359.6512657161887 -221.9999999999994 100.50000000034976
    vertex 359.07391544699954 -243.4226497308081 101.50000000039206
  endloop
endfacet
facet normal 0.8660254037845669 9.942186377532328e-13 0.499999999999778
  outer loop
    vertex 359.0739154469992 -223.52412263563016 101.50000000035281
    vertex 359.07391544699954 -243.4226497308081 101.50000000039206
    vertex 359.6512657161887 -221.9999999999994 100.50000000034976
  endloop
endfacet
facet normal -0.9046542176583297 -0.3385460801203001 0.25881904510328196
  outer loop
    vertex 339.8616478758757 -274.4964710320031 100.50000000045296
    vertex 340.112223417919 -274.40155094271927 101.50000000045301
    vertex 334.99801684713026 -261.49999999999966 100.50000000042746
  endloop
endfacet
facet normal -0.9046542176583297 -0.3385460801203001 0.25881904510328196
  outer loop
    vertex 335.0680539655951 -260.9226497308079 101.50000000042631
    vertex 334.99801684713026 -261.49999999999966 100.50000000042746
    vertex 340.112223417919 -274.40155094271927 101.50000000045301
  endloop
endfacet
facet normal 2.1321872282959064e-15 1.9723262560253926e-12 1.0
  outer loop
    vertex 300.65126571618873 -209.49999999999764 101.50000000032516
    vertex 300.6512657161891 -225.92264973080793 101.50000000035753
    vertex 326.65304269260105 -209.49999999999764 101.50000000032516
  endloop
endfacet
facet normal 2.1321872282959064e-15 1.9723262560253926e-12 1.0
  outer loop
    vertex 334.18676988638373 -225.92264973080793 101.50000000035753
    vertex 326.65304269260105 -209.49999999999764 101.50000000032516
    vertex 300.6512657161891 -225.92264973080793 101.50000000035753
  endloop
endfacet
facet normal 2.1321872282959064e-15 1.9723262560253926e-12 1.0
  outer loop
    vertex 338.56783718725455 -214.01342277057256 101.50000000033391
    vertex 326.65304269260105 -209.49999999999764 101.50000000032516
    vertex 334.18676988638373 -225.92264973080793 101.50000000035753
  endloop
endfacet
facet normal 0.3542437442893607 -0.9351531263017058 1.755639554126699e-12
  outer loop
    vertex 340.112223417919 -274.40155094271927 101.50000000045301
    vertex 339.8616478758757 -274.4964710320031 100.50000000045296
    vertex 359.0739154469999 -267.2187050605614 101.50000000043542
  endloop
endfacet
facet normal 0.3542437442893607 -0.9351531263017058 1.755639554126699e-12
  outer loop
    vertex 359.65126571618885 -266.99999999999966 100.50000000043838
    vertex 359.0739154469999 -267.2187050605614 101.50000000043542
    vertex 339.8616478758757 -274.4964710320031 100.50000000045296
  endloop
endfacet
facet normal 0.3542437442893607 -0.9351531263017058 1.755639554126699e-12
  outer loop
    vertex 339.8616478758757 -274.49647103200397 100.00000000045307
    vertex 359.65126571618885 -266.99999999999966 100.50000000043838
    vertex 339.8616478758757 -274.4964710320031 100.50000000045296
  endloop
endfacet
facet normal 0.3542437442893607 -0.9351531263017058 1.755639554126699e-12
  outer loop
    vertex 359.65126571618885 -267.0000000000005 100.0000000004384
    vertex 359.65126571618885 -266.99999999999966 100.50000000043838
    vertex 339.8616478758757 -274.49647103200397 100.00000000045307
  endloop
endfacet
facet normal -1.9269106708512746e-14 -1.9815670585855563e-12 -1.0
  outer loop
    vertex 299.65126571618896 -244.50000000000057 100.00000000039391
    vertex 299.65126571618896 -209.5000000000006 100.00000000032514
    vertex 306.6530426926013 -279.50000000000057 100.00000000046286
  endloop
endfacet
facet normal -1.9269106708512746e-14 -1.9815670585855563e-12 -1.0
  outer loop
    vertex 326.65304269260105 -209.5000000000006 100.00000000032514
    vertex 306.6530426926013 -279.50000000000057 100.00000000046286
    vertex 299.65126571618896 -209.5000000000006 100.00000000032514
  endloop
endfacet
facet normal -1.9269106708512746e-14 -1.9815670585855563e-12 -1.0
  outer loop
    vertex 326.65304269260116 -279.50000000000057 100.00000000046292
    vertex 306.6530426926013 -279.50000000000057 100.00000000046286
    vertex 326.65304269260105 -209.5000000000006 100.00000000032514
  endloop
endfacet
facet normal -1.9269106708512746e-14 -1.9815670585855563e-12 -1.0
  outer loop
    vertex 334.2528281838109 -226.50000000000068 100.00000000035863
    vertex 326.65304269260116 -279.50000000000057 100.00000000046292
    vertex 326.65304269260105 -209.5000000000006 100.00000000032514
  endloop
endfacet
facet normal -1.9269106708512746e-14 -1.9815670585855563e-12 -1.0
  outer loop
    vertex 338.81222953057215 -214.10600061300315 100.00000000033407
    vertex 334.2528281838109 -226.50000000000068 100.00000000035863
    vertex 326.65304269260105 -209.5000000000006 100.00000000032514
  endloop
endfacet
facet normal -1.9269106708512746e-14 -1.9815670585855563e-12 -1.0
  outer loop
    vertex 334.2528281838109 -226.50000000000068 100.00000000035863
    vertex 334.3045145852472 -262.5000000000006 100.00000000042938
    vertex 326.65304269260116 -279.50000000000057 100.00000000046292
  endloop
endfacet
facet normal -1.9269106708512746e-14 -1.9815670585855563e-12 -1.0
  outer loop
    vertex 338.92648722183606 -274.85071762786265 100.00000000045367
    vertex 326.65304269260116 -279.50000000000057 100.00000000046292
    vertex 334.3045145852472 -262.5000000000006 100.00000000042938
  endloop
endfacet
facet normal -1.9269106708512746e-14 -1.9815670585855563e-12 -1.0
  outer loop
    vertex 334.2528281838109 -226.50000000000068 100.00000000035863
    vertex 334.601651570921 -227.00000000000057 100.00000000035958
    vertex 334.3045145852472 -262.5000000000006 100.00000000042938
  endloop
endfacet
facet normal -1.9269106708512746e-14 -1.9815670585855563e-12 -1.0
  outer loop
    vertex 334.99801684713026 -261.5000000000005 100.0000000004274
    vertex 334.3045145852472 -262.5000000000006 100.00000000042938
    vertex 334.601651570921 -227.00000000000057 100.00000000035958
  endloop
endfacet
facet normal -1.9269106708512746e-14 -1.9815670585855563e-12 -1.0
  outer loop
    vertex 334.95047495803107 -227.50000000000045 100.00000000036043
    vertex 334.99801684713026 -261.5000000000005 100.0000000004274
    vertex 334.601651570921 -227.00000000000057 100.00000000035958
  endloop
endfacet
facet normal -1.9269106708512746e-14 -1.9815670585855563e-12 -1.0
  outer loop
    vertex 339.747425738377 -214.46026067692245 100.00000000033484
    vertex 334.99801684713026 -261.5000000000005 100.0000000004274
    vertex 334.95047495803107 -227.50000000000045 100.00000000036043
  endloop
endfacet
facet normal -1.9269106708512746e-14 -1.9815670585855563e-12 -1.0
  outer loop
    vertex 339.8616478758757 -274.49647103200397 100.00000000045307
    vertex 334.99801684713026 -261.5000000000005 100.0000000004274
    vertex 339.747425738377 -214.46026067692245 100.00000000033484
  endloop
endfacet
facet normal -1.9269106708512746e-14 -1.9815670585855563e-12 -1.0
  outer loop
    vertex 340.01305006385314 -214.56088136992403 100.00000000033285
    vertex 339.8616478758757 -274.49647103200397 100.00000000045307
    vertex 339.747425738377 -214.46026067692245 100.00000000033484
  endloop
endfacet
facet normal -1.9269106708512746e-14 -1.9815670585855563e-12 -1.0
  outer loop
    vertex 359.65126571618885 -267.0000000000005 100.0000000004384
    vertex 339.8616478758757 -274.49647103200397 100.00000000045307
    vertex 340.01305006385314 -214.56088136992403 100.00000000033285
  endloop
endfacet
facet normal -1.9269106708512746e-14 -1.9815670585855563e-12 -1.0
  outer loop
    vertex 357.31338290042993 -221.11439063928051 100.00000000034238
    vertex 359.65126571618885 -267.0000000000005 100.0000000004384
    vertex 340.01305006385314 -214.56088136992403 100.00000000033285
  endloop
endfacet
facet normal -1.9269106708512746e-14 -1.9815670585855563e-12 -1.0
  outer loop
    vertex 359.65126571618754 -222.00000000000045 100.00000000034979
    vertex 359.65126571618885 -267.0000000000005 100.0000000004384
    vertex 357.31338290042993 -221.11439063928051 100.00000000034238
  endloop
endfacet
facet normal -7.831283813238263e-14 -1.0 1.2932642155494992e-12
  outer loop
    vertex 307.6728565534992 -279.49999999999767 101.50000000046289
    vertex 306.6530426926011 -279.4999999999995 100.50000000046285
    vertex 326.65304269260116 -279.50000000000074 101.50000000046285
  endloop
endfacet
facet normal -7.831283813238263e-14 -1.0 1.2932642155494992e-12
  outer loop
    vertex 326.65304269260116 -279.50000000000057 100.00000000046292
    vertex 326.65304269260116 -279.50000000000074 101.50000000046285
    vertex 306.6530426926011 -279.4999999999995 100.50000000046285
  endloop
endfacet
facet normal -7.831283813238263e-14 -1.0 1.2932642155494992e-12
  outer loop
    vertex 306.6530426926013 -279.50000000000057 100.00000000046286
    vertex 326.65304269260116 -279.50000000000057 100.00000000046292
    vertex 306.6530426926011 -279.4999999999995 100.50000000046285
  endloop
endfacet
facet normal -8.823608153761665e-16 1.9707333992117494e-12 1.0
  outer loop
    vertex 304.3874928170172 -263.07735026918715 101.50000000043052
    vertex 307.6728565534992 -279.49999999999767 101.50000000046289
    vertex 334.2344774667828 -263.07735026918715 101.50000000043052
  endloop
endfacet
facet normal -8.823608153761665e-16 1.9707333992117494e-12 1.0
  outer loop
    vertex 326.65304269260116 -279.50000000000074 101.50000000046285
    vertex 334.2344774667828 -263.07735026918715 101.50000000043052
    vertex 307.6728565534992 -279.49999999999767 101.50000000046289
  endloop
endfacet
facet normal -8.823608153761665e-16 1.9707333992117494e-12 1.0
  outer loop
    vertex 338.6759116797927 -274.9456377171418 101.50000000045395
    vertex 334.2344774667828 -263.07735026918715 101.50000000043052
    vertex 326.65304269260116 -279.50000000000074 101.50000000046285
  endloop
endfacet
endsolid ProtoGlove baseplate
