solid ProtoGlove baseplate
facet normal -0.23121988244082356 0.610387619859902 0.7576043291097376
  outer loop
    vertex 339.4397383226883 175.07434286588892 102.07072544772382
    vertex 358.8432886680422 183.13294454681792 101.5000000003892
    vertex 339.2110194070263 175.69607845898972 101.50000000037343
  endloop
endfacet
facet normal -0.23121988244082356 0.610387619859902 0.7576043291097376
  outer loop
    vertex 358.8432886680422 183.13294454681792 101.5000000003892
    vertex 339.4397383226883 175.07434286588892 102.07072544772382
    vertex 340.00766249182146 173.57510379440345 103.45196402815425
  endloop
endfacet
facet normal -0.23121988244082356 0.610387619859902 0.7576043291097376
  outer loop
    vertex 358.8432886680422 183.13294454681792 101.5000000003892
    vertex 340.00766249182146 173.57510379440345 103.45196402815425
    vertex 359.6458781441555 181.0142224244797 103.45196402817119
  endloop
endfacet
facet normal -0.9351531263017032 -0.3542437442893676 -5.335796751118259e-13
  outer loop
    vertex 341.23216525055045 170.34259058435856 104.91491226609682
    vertex 340.013050063853 173.56088137012924 101.50000000036806
    vertex 340.01305006385314 173.5608813701323 100.00000000036813
  endloop
endfacet
facet normal -0.9351531263017032 -0.3542437442893676 -5.335796751118259e-13
  outer loop
    vertex 340.013050063853 173.56088137012924 101.50000000036806
    vertex 341.23216525055045 170.34259058435856 104.91491226609682
    vertex 340.26065929753634 172.90722819286367 104.14915258507534
  endloop
endfacet
facet normal -0.9351531263017032 -0.3542437442893676 -5.335796751118259e-13
  outer loop
    vertex 340.26065929753634 172.90722819286367 104.14915258507534
    vertex 341.23216525055045 170.34259058435856 104.91491226609682
    vertex 340.73038596836386 171.66721655733403 105.61528875736028
  endloop
endfacet
facet normal -0.9351531263017032 -0.3542437442893676 -5.335796751118259e-13
  outer loop
    vertex 340.73038596836386 171.66721655733403 105.61528875736028
    vertex 341.23216525055045 170.34259058435856 104.91491226609682
    vertex 340.7832097382506 171.52776931415957 105.80232958567395
  endloop
endfacet
facet normal -0.9351531263017032 -0.3542437442893676 -5.335796751118259e-13
  outer loop
    vertex 340.013050063853 173.56088137012924 101.50000000036806
    vertex 339.4397383226883 175.07434286588892 102.07072544772382
    vertex 339.4397383226883 175.07434286589012 101.50000000037224
  endloop
endfacet
facet normal -0.9351531263017032 -0.3542437442893676 -5.335796751118259e-13
  outer loop
    vertex 339.4397383226883 175.07434286588892 102.07072544772382
    vertex 340.013050063853 173.56088137012924 101.50000000036806
    vertex 340.00766249182146 173.57510379440345 103.45196402815425
  endloop
endfacet
facet normal -0.9351531263017032 -0.3542437442893676 -5.335796751118259e-13
  outer loop
    vertex 340.00766249182146 173.57510379440345 103.45196402815425
    vertex 340.013050063853 173.56088137012924 101.50000000036806
    vertex 340.26065929753634 172.90722819286367 104.14915258507534
  endloop
endfacet
facet normal -0.2627294873190516 0.6935684973925976 0.6707726559108106
  outer loop
    vertex 359.8988749498689 180.34634682294012 104.14915258509228
    vertex 340.73038596836386 171.66721655733403 105.61528875736028
    vertex 360.3686016206988 179.10633518741062 105.61528875737696
  endloop
endfacet
facet normal -0.2627294873190516 0.6935684973925976 0.6707726559108106
  outer loop
    vertex 340.73038596836386 171.66721655733403 105.61528875736028
    vertex 359.8988749498689 180.34634682294012 104.14915258509228
    vertex 340.26065929753634 172.90722819286367 104.14915258507534
  endloop
endfacet
facet normal 0.9351531263015539 0.3542437442897616 6.589003115481667e-13
  outer loop
    vertex 359.6458781441555 181.0142224244797 103.45196402817119
    vertex 359.0739154469992 182.52412263583847 101.5000000003881
    vertex 358.8432886680422 183.13294454681792 101.5000000003892
  endloop
endfacet
facet normal 0.9351531263015539 0.3542437442897616 6.589003115481667e-13
  outer loop
    vertex 359.0739154469992 182.52412263583847 101.5000000003881
    vertex 359.6458781441555 181.0142224244797 103.45196402817119
    vertex 359.6512657161887 181.0000000002077 100.50000000038504
  endloop
endfacet
facet normal 0.9351531263015539 0.3542437442897616 6.589003115481667e-13
  outer loop
    vertex 359.6512657161887 181.0000000002077 100.50000000038504
    vertex 359.6458781441555 181.0142224244797 103.45196402817119
    vertex 359.8988749498689 180.34634682294012 104.14915258509228
  endloop
endfacet
facet normal 0.9351531263015539 0.3542437442897616 6.589003115481667e-13
  outer loop
    vertex 359.6512657161887 181.0000000002077 100.50000000038504
    vertex 362.0894960895813 174.56341842867062 109.82982453184015
    vertex 359.65126571618754 181.00000000020876 100.00000000038507
  endloop
endfacet
facet normal 0.9351531263015539 0.3542437442897616 6.589003115481667e-13
  outer loop
    vertex 362.0894960895813 174.56341842867062 109.82982453184015
    vertex 359.6512657161887 181.0000000002077 100.50000000038504
    vertex 359.8988749498689 180.34634682294012 104.14915258509228
  endloop
endfacet
facet normal 0.9351531263015539 0.3542437442897616 6.589003115481667e-13
  outer loop
    vertex 362.0894960895813 174.56341842867062 109.82982453184015
    vertex 359.8988749498689 180.34634682294012 104.14915258509228
    vertex 360.3686016206988 179.10633518741062 105.61528875737696
  endloop
endfacet
facet normal 0.9351531263015539 0.3542437442897616 6.589003115481667e-13
  outer loop
    vertex 362.0894960895813 174.56341842867062 109.82982453184015
    vertex 360.3686016206988 179.10633518741062 105.61528875737696
    vertex 360.5890030615217 178.52450671549047 106.39569629250305
  endloop
endfacet
facet normal 0.9351531263015539 0.3542437442897616 6.589003115481667e-13
  outer loop
    vertex 362.0894960895813 174.56341842867062 109.82982453184015
    vertex 360.5890030615217 178.52450671549047 106.39569629250305
    vertex 361.3494480619403 176.5170400178111 109.4614611199371
  endloop
endfacet
facet normal 0.9351531263015539 0.3542437442897616 6.589003115481667e-13
  outer loop
    vertex 362.0894960895813 174.56341842867062 109.82982453184015
    vertex 361.3494480619403 176.5170400178111 109.4614611199371
    vertex 361.8718614740965 175.13794287501918 110.26000685910455
  endloop
endfacet
facet normal -0.1686769427266783 0.44528315000025703 0.87935829177772
  outer loop
    vertex 352.0527536479307 171.41838355997675 110.26000685909729
    vertex 361.3494480619403 176.5170400178111 109.4614611199371
    vertex 349.0755632792328 171.86759087400813 109.46146111992807
  endloop
endfacet
facet normal -0.1686769427266783 0.44528315000025703 0.87935829177772
  outer loop
    vertex 361.3494480619403 176.5170400178111 109.4614611199371
    vertex 352.0527536479307 171.41838355997675 110.26000685909729
    vertex 361.8718614740965 175.13794287501918 110.26000685910455
  endloop
endfacet
facet normal -0.2901794873115663 0.7660325951320486 0.5735764363525193
  outer loop
    vertex 360.5890030615217 178.52450671549047 106.39569629250305
    vertex 349.0755632792328 171.86759087400813 109.46146111992807
    vertex 361.3494480619403 176.5170400178111 109.4614611199371
  endloop
endfacet
facet normal -0.2901794873115663 0.7660325951320486 0.5735764363525193
  outer loop
    vertex 349.0755632792328 171.86759087400813 109.46146111992807
    vertex 360.5890030615217 178.52450671549047 106.39569629250305
    vertex 342.190273361411 171.55491562304582 106.39569629248949
  endloop
endfacet
facet normal -0.24745309225480977 0.6532409860863969 0.7155719259658002
  outer loop
    vertex 340.26065929753634 172.90722819286367 104.14915258507534
    vertex 359.6458781441555 181.0142224244797 103.45196402817119
    vertex 340.00766249182146 173.57510379440345 103.45196402815425
  endloop
endfacet
facet normal -0.24745309225480977 0.6532409860863969 0.7155719259658002
  outer loop
    vertex 359.6458781441555 181.0142224244797 103.45196402817119
    vertex 340.26065929753634 172.90722819286367 104.14915258507534
    vertex 359.8988749498689 180.34634682294012 104.14915258509228
  endloop
endfacet
facet normal 0.20318586444942102 -0.5363817976283017 0.8191520442878557
  outer loop
    vertex 352.2703882634143 170.84385911362799 109.82982453183284
    vertex 361.8718614740965 175.13794287501918 110.26000685910455
    vertex 352.0527536479307 171.41838355997675 110.26000685909729
  endloop
endfacet
facet normal 0.20318586444942102 -0.5363817976283017 0.8191520442878557
  outer loop
    vertex 361.8718614740965 175.13794287501918 110.26000685910455
    vertex 352.2703882634143 170.84385911362799 109.82982453183284
    vertex 362.0894960895813 174.56341842867062 109.82982453184015
  endloop
endfacet
facet normal -0.9385102606945823 -0.345251344053846 -7.296302449171126e-13
  outer loop
    vertex 339.4397383226883 175.07434286588892 102.07072544772382
    vertex 339.2110194070263 175.69607845898972 101.50000000037343
    vertex 339.4397383226883 175.07434286589012 101.50000000037224
  endloop
endfacet
facet normal -0.28755114589963804 -0.6414639325627944 0.7112231448096159
  outer loop
    vertex 341.23216525055045 170.34259058435856 104.91491226609682
    vertex 342.190273361411 171.55491562304582 106.39569629248949
    vertex 340.7832097382506 171.52776931415957 105.80232958567395
  endloop
endfacet
facet normal -0.28755114589963804 -0.6414639325627944 0.7112231448096159
  outer loop
    vertex 342.190273361411 171.55491562304582 106.39569629248949
    vertex 341.23216525055045 170.34259058435856 104.91491226609682
    vertex 352.2703882634143 170.84385911362799 109.82982453183284
  endloop
endfacet
facet normal -0.28755114589963804 -0.6414639325627944 0.7112231448096159
  outer loop
    vertex 342.190273361411 171.55491562304582 106.39569629248949
    vertex 352.2703882634143 170.84385911362799 109.82982453183284
    vertex 349.0755632792328 171.86759087400813 109.46146111992807
  endloop
endfacet
facet normal -0.28755114589963804 -0.6414639325627944 0.7112231448096159
  outer loop
    vertex 349.0755632792328 171.86759087400813 109.46146111992807
    vertex 352.2703882634143 170.84385911362799 109.82982453183284
    vertex 352.0527536479307 171.41838355997675 110.26000685909729
  endloop
endfacet
facet normal -0.2769899991448976 0.7312142213651481 0.6233797420890976
  outer loop
    vertex 360.3686016206988 179.10633518741062 105.61528875737696
    vertex 342.190273361411 171.55491562304582 106.39569629248949
    vertex 360.5890030615217 178.52450671549047 106.39569629250305
  endloop
endfacet
facet normal -0.2769899991448976 0.7312142213651481 0.6233797420890976
  outer loop
    vertex 342.190273361411 171.55491562304582 106.39569629248949
    vertex 360.3686016206988 179.10633518741062 105.61528875737696
    vertex 340.7832097382506 171.52776931415957 105.80232958567395
  endloop
endfacet
facet normal -0.2769899991448976 0.7312142213651481 0.6233797420890976
  outer loop
    vertex 340.7832097382506 171.52776931415957 105.80232958567395
    vertex 360.3686016206988 179.10633518741062 105.61528875737696
    vertex 340.73038596836386 171.66721655733403 105.61528875736028
  endloop
endfacet
facet normal 0.29017948731134124 -0.766032595131996 -0.5735764363527033
  outer loop
    vertex 352.2703882634143 170.84385911362799 109.82982453183284
    vertex 359.65126571618754 181.00000000020876 100.00000000038507
    vertex 362.0894960895813 174.56341842867062 109.82982453184015
  endloop
endfacet
facet normal 0.29017948731134124 -0.766032595131996 -0.5735764363527033
  outer loop
    vertex 359.65126571618754 181.00000000020876 100.00000000038507
    vertex 352.2703882634143 170.84385911362799 109.82982453183284
    vertex 341.23216525055045 170.34259058435856 104.91491226609682
  endloop
endfacet
facet normal 0.29017948731134124 -0.766032595131996 -0.5735764363527033
  outer loop
    vertex 359.65126571618754 181.00000000020876 100.00000000038507
    vertex 341.23216525055045 170.34259058435856 104.91491226609682
    vertex 340.01305006385314 173.5608813701323 100.00000000036813
  endloop
endfacet
facet normal 0.29017948731134124 -0.766032595131996 -0.5735764363527033
  outer loop
    vertex 359.65126571618754 181.00000000020876 100.00000000038507
    vertex 340.01305006385314 173.5608813701323 100.00000000036813
    vertex 357.31338290042993 180.11439063948882 100.00000000037767
  endloop
endfacet
facet normal 1.2504448973726794e-14 -1.9579646477692257e-12 1.0
  outer loop
    vertex 359.07391544699954 204.57735026939548 101.50000000043136
    vertex 303.9564433135688 219.9226497310162 101.50000000046158
    vertex 300.886604328811 204.57735026939548 101.50000000043136
  endloop
endfacet
facet normal 1.2504448973726794e-14 -1.9579646477692257e-12 1.0
  outer loop
    vertex 303.9564433135688 219.9226497310162 101.50000000046158
    vertex 359.07391544699954 204.57735026939548 101.50000000043136
    vertex 335.0680539655951 219.9226497310162 101.50000000046158
  endloop
endfacet
facet normal 1.2504448973726794e-14 -1.9579646477692257e-12 1.0
  outer loop
    vertex 335.0680539655951 219.9226497310162 101.50000000046158
    vertex 359.07391544699954 204.57735026939548 101.50000000043136
    vertex 340.112223417919 233.40155094292754 101.5000000004883
  endloop
endfacet
facet normal 1.2504448973726794e-14 -1.9579646477692257e-12 1.0
  outer loop
    vertex 340.112223417919 233.40155094292754 101.5000000004883
    vertex 359.07391544699954 204.57735026939548 101.50000000043136
    vertex 359.0739154469999 226.21870506076965 101.5000000004707
  endloop
endfacet
facet normal 0.0 -1.9698374875698473e-12 1.0
  outer loop
    vertex 359.6512657161887 203.00000000020793 100.5000000004285
    vertex 299.65126571618896 203.50000000020782 100.50000000042917
    vertex 299.65126571618896 203.00000000020793 100.5000000004285
  endloop
endfacet
facet normal 0.0 -1.9698374875698473e-12 1.0
  outer loop
    vertex 299.65126571618896 203.50000000020782 100.50000000042917
    vertex 359.6512657161887 203.00000000020793 100.5000000004285
    vertex 299.75129110156615 204.0000000002079 100.5000000004302
  endloop
endfacet
facet normal 0.0 -1.9698374875698473e-12 1.0
  outer loop
    vertex 299.75129110156615 204.0000000002079 100.5000000004302
    vertex 359.6512657161887 203.00000000020793 100.5000000004285
    vertex 359.6512657161887 204.0000000002079 100.5000000004302
  endloop
endfacet
facet normal -0.6933684746782528 0.1387088977749547 0.7071067811868378
  outer loop
    vertex 300.886604328811 204.57735026939548 101.50000000043136
    vertex 303.0521288190175 220.50000000020793 100.50000000046275
    vertex 299.75129110156615 204.0000000002079 100.5000000004302
  endloop
endfacet
facet normal -0.6933684746782528 0.1387088977749547 0.7071067811868378
  outer loop
    vertex 303.0521288190175 220.50000000020793 100.50000000046275
    vertex 300.886604328811 204.57735026939548 101.50000000043136
    vertex 303.9564433135688 219.9226497310162 101.50000000046158
  endloop
endfacet
facet normal 5.484517084685444e-16 -0.8660254037854083 0.49999999999832073
  outer loop
    vertex 303.2521795897723 221.50000000020788 100.50000000046464
    vertex 334.2344774667828 222.07735026939545 101.5000000004658
    vertex 304.3874928170172 222.07735026939545 101.5000000004658
  endloop
endfacet
facet normal 5.484517084685444e-16 -0.8660254037854083 0.49999999999832073
  outer loop
    vertex 334.2344774667828 222.07735026939545 101.5000000004658
    vertex 303.2521795897723 221.50000000020788 100.50000000046464
    vertex 334.3045145852472 221.50000000020788 100.50000000046464
  endloop
endfacet
facet normal -3.2934730824991714e-15 -2.0008200698466854e-12 1.0
  outer loop
    vertex 300.6512657161891 187.07735026939568 101.50000000039684
    vertex 359.07391544699954 202.4226497310164 101.50000000042735
    vertex 300.65126571618873 202.42264973101624 101.50000000042735
  endloop
endfacet
facet normal -3.2934730824991714e-15 -2.0008200698466854e-12 1.0
  outer loop
    vertex 359.07391544699954 202.4226497310164 101.50000000042735
    vertex 300.6512657161891 187.07735026939568 101.50000000039684
    vertex 335.0241718528251 187.07735026939534 101.50000000039684
  endloop
endfacet
facet normal -3.2934730824991714e-15 -2.0008200698466854e-12 1.0
  outer loop
    vertex 359.07391544699954 202.4226497310164 101.50000000042735
    vertex 335.0241718528251 187.07735026939534 101.50000000039684
    vertex 339.2110194070263 175.69607845898972 101.50000000037343
  endloop
endfacet
facet normal -3.2934730824991714e-15 -2.0008200698466854e-12 1.0
  outer loop
    vertex 359.07391544699954 202.4226497310164 101.50000000042735
    vertex 339.2110194070263 175.69607845898972 101.50000000037343
    vertex 358.8432886680422 183.13294454681792 101.5000000003892
  endloop
endfacet
facet normal -3.2934730824991714e-15 -2.0008200698466854e-12 1.0
  outer loop
    vertex 359.07391544699954 202.4226497310164 101.50000000042735
    vertex 358.8432886680422 183.13294454681792 101.5000000003892
    vertex 359.0739154469992 182.52412263583847 101.5000000003881
  endloop
endfacet
facet normal 0.8660254037844928 -9.769497525798704e-13 0.4999999999999061
  outer loop
    vertex 359.07391544699954 204.57735026939548 101.50000000043136
    vertex 359.65126571618885 226.00000000020796 100.50000000047366
    vertex 359.0739154469999 226.21870506076965 101.5000000004707
  endloop
endfacet
facet normal 0.8660254037844928 -9.769497525798704e-13 0.4999999999999061
  outer loop
    vertex 359.65126571618885 226.00000000020796 100.50000000047366
    vertex 359.07391544699954 204.57735026939548 101.50000000043136
    vertex 359.6512657161887 204.50000000020796 100.50000000043114
  endloop
endfacet
facet normal 0.8660254037844928 -9.769497525798704e-13 0.4999999999999061
  outer loop
    vertex 359.6512657161887 204.50000000020796 100.50000000043114
    vertex 359.07391544699954 204.57735026939548 101.50000000043136
    vertex 359.6512657161887 204.0000000002079 100.5000000004302
  endloop
endfacet
facet normal -6.960996208859565e-16 -0.8660254037854332 0.4999999999982772
  outer loop
    vertex 299.75129110156615 204.0000000002079 100.5000000004302
    vertex 359.07391544699954 204.57735026939548 101.50000000043136
    vertex 300.886604328811 204.57735026939548 101.50000000043136
  endloop
endfacet
facet normal -6.960996208859565e-16 -0.8660254037854332 0.4999999999982772
  outer loop
    vertex 359.07391544699954 204.57735026939548 101.50000000043136
    vertex 299.75129110156615 204.0000000002079 100.5000000004302
    vertex 359.6512657161887 204.0000000002079 100.5000000004302
  endloop
endfacet
facet normal -3.324284672288141e-15 -0.8660254037854337 0.49999999999827655
  outer loop
    vertex 299.65126571618896 186.50000000020773 100.50000000039569
    vertex 335.0241718528251 187.07735026939534 101.50000000039684
    vertex 300.6512657161891 187.07735026939568 101.50000000039684
  endloop
endfacet
facet normal -3.324284672288141e-15 -0.8660254037854337 0.49999999999827655
  outer loop
    vertex 335.0241718528251 187.07735026939534 101.50000000039684
    vertex 299.65126571618896 186.50000000020773 100.50000000039569
    vertex 334.95047495803107 186.50000000020773 100.50000000039569
  endloop
endfacet
facet normal -1.1305960040822804e-15 0.8660254037834306 0.500000000001746
  outer loop
    vertex 334.2528281838109 185.50000000020796 100.50000000039388
    vertex 300.6512657161891 184.92264973101624 101.50000000039282
    vertex 334.18676988638373 184.92264973101624 101.50000000039282
  endloop
endfacet
facet normal -1.1305960040822804e-15 0.8660254037834306 0.500000000001746
  outer loop
    vertex 300.6512657161891 184.92264973101624 101.50000000039282
    vertex 334.2528281838109 185.50000000020796 100.50000000039388
    vertex 299.65126571618896 185.50000000020796 100.50000000039388
  endloop
endfacet
facet normal -0.6933684746782208 0.13870889777494902 0.7071067811868701
  outer loop
    vertex 304.3874928170172 222.07735026939545 101.5000000004658
    vertex 306.6530426926011 238.50000000020782 100.50000000049813
    vertex 303.2521795897723 221.50000000020788 100.50000000046464
  endloop
endfacet
facet normal -0.6933684746782208 0.13870889777494902 0.7071067811868701
  outer loop
    vertex 306.6530426926011 238.50000000020782 100.50000000049813
    vertex 304.3874928170172 222.07735026939545 101.5000000004658
    vertex 307.6728565534992 238.50000000020597 101.50000000049818
  endloop
endfacet
facet normal 1.0 -1.601437018413416e-14 -9.681746682942693e-13
  outer loop
    vertex 359.65126571618885 226.00000000020796 100.50000000047366
    vertex 359.65126571618754 181.00000000020876 100.00000000038507
    vertex 359.65126571618885 226.00000000020881 100.00000000047369
  endloop
endfacet
facet normal 1.0 -1.601437018413416e-14 -9.681746682942693e-13
  outer loop
    vertex 359.65126571618754 181.00000000020876 100.00000000038507
    vertex 359.65126571618885 226.00000000020796 100.50000000047366
    vertex 359.6512657161887 204.50000000020796 100.50000000043114
  endloop
endfacet
facet normal 1.0 -1.601437018413416e-14 -9.681746682942693e-13
  outer loop
    vertex 359.65126571618754 181.00000000020876 100.00000000038507
    vertex 359.6512657161887 204.50000000020796 100.50000000043114
    vertex 359.6512657161887 204.0000000002079 100.5000000004302
  endloop
endfacet
facet normal 1.0 -1.601437018413416e-14 -9.681746682942693e-13
  outer loop
    vertex 359.65126571618754 181.00000000020876 100.00000000038507
    vertex 359.6512657161887 204.0000000002079 100.5000000004302
    vertex 359.6512657161887 203.00000000020793 100.5000000004285
  endloop
endfacet
facet normal 1.0 -1.601437018413416e-14 -9.681746682942693e-13
  outer loop
    vertex 359.65126571618754 181.00000000020876 100.00000000038507
    vertex 359.6512657161887 203.00000000020793 100.5000000004285
    vertex 359.6512657161887 181.0000000002077 100.50000000038504
  endloop
endfacet
facet normal -0.9365669630492156 0.35048869272027794 6.903928028975278e-13
  outer loop
    vertex 334.99801684713026 220.5000000002088 100.00000000046269
    vertex 339.8616478758757 233.49647103221142 100.50000000048824
    vertex 339.8616478758757 233.49647103221227 100.00000000048836
  endloop
endfacet
facet normal -0.9365669630492156 0.35048869272027794 6.903928028975278e-13
  outer loop
    vertex 339.8616478758757 233.49647103221142 100.50000000048824
    vertex 334.99801684713026 220.5000000002088 100.00000000046269
    vertex 334.99801684713026 220.50000000020793 100.50000000046275
  endloop
endfacet
facet normal -1.0084768558285014e-17 -1.9698339706890503e-12 1.0
  outer loop
    vertex 334.2528281838109 185.50000000020796 100.50000000039388
    vertex 299.65126571618896 186.50000000020773 100.50000000039569
    vertex 299.65126571618896 185.50000000020796 100.50000000039388
  endloop
endfacet
facet normal -1.0084768558285014e-17 -1.9698339706890503e-12 1.0
  outer loop
    vertex 299.65126571618896 186.50000000020773 100.50000000039569
    vertex 334.2528281838109 185.50000000020796 100.50000000039388
    vertex 334.95047495803107 186.50000000020773 100.50000000039569
  endloop
endfacet
facet normal 1.6783174547792383e-17 -1.969833347272801e-12 1.0
  outer loop
    vertex 334.99801684713026 220.50000000020793 100.50000000046275
    vertex 303.2521795897723 221.50000000020788 100.50000000046464
    vertex 303.0521288190175 220.50000000020793 100.50000000046275
  endloop
endfacet
facet normal 1.6783174547792383e-17 -1.969833347272801e-12 1.0
  outer loop
    vertex 303.2521795897723 221.50000000020788 100.50000000046464
    vertex 334.99801684713026 220.50000000020793 100.50000000046275
    vertex 334.3045145852472 221.50000000020788 100.50000000046464
  endloop
endfacet
facet normal -6.893955305915016e-16 0.8660254037834382 0.5000000000017331
  outer loop
    vertex 334.99801684713026 220.50000000020793 100.50000000046275
    vertex 303.9564433135688 219.9226497310162 101.50000000046158
    vertex 335.0680539655951 219.9226497310162 101.50000000046158
  endloop
endfacet
facet normal -6.893955305915016e-16 0.8660254037834382 0.5000000000017331
  outer loop
    vertex 303.9564433135688 219.9226497310162 101.50000000046158
    vertex 334.99801684713026 220.50000000020793 100.50000000046275
    vertex 303.0521288190175 220.50000000020793 100.50000000046275
  endloop
endfacet
facet normal -3.254266686464547e-16 0.8660254037834733 0.5000000000016722
  outer loop
    vertex 359.6512657161887 203.00000000020793 100.5000000004285
    vertex 300.65126571618873 202.42264973101624 101.50000000042735
    vertex 359.07391544699954 202.4226497310164 101.50000000042735
  endloop
endfacet
facet normal -3.254266686464547e-16 0.8660254037834733 0.5000000000016722
  outer loop
    vertex 300.65126571618873 202.42264973101624 101.50000000042735
    vertex 359.6512657161887 203.00000000020793 100.5000000004285
    vertex 299.65126571618896 203.00000000020793 100.5000000004285
  endloop
endfacet
facet normal 0.9080171279327164 0.3340337841484847 0.2528365607032823
  outer loop
    vertex 334.18676988638373 184.92264973101624 101.50000000039282
    vertex 338.81222953057215 173.1060006132104 100.50000000036933
    vertex 334.2528281838109 185.50000000020796 100.50000000039388
  endloop
endfacet
facet normal 0.9080171279327164 0.3340337841484847 0.2528365607032823
  outer loop
    vertex 338.81222953057215 173.1060006132104 100.50000000036933
    vertex 334.18676988638373 184.92264973101624 101.50000000039282
    vertex 338.56783718725455 173.0134227707809 101.5000000003692
  endloop
endfacet
facet normal 0.904654217658349 -0.3385460801213048 0.2588190451019009
  outer loop
    vertex 334.2344774667828 222.07735026939545 101.5000000004658
    vertex 338.92648722183606 233.8507176280699 100.50000000048894
    vertex 338.6759116797927 233.94563771735008 101.50000000048924
  endloop
endfacet
facet normal 0.904654217658349 -0.3385460801213048 0.2588190451019009
  outer loop
    vertex 338.92648722183606 233.8507176280699 100.50000000048894
    vertex 334.2344774667828 222.07735026939545 101.5000000004658
    vertex 334.3045145852472 221.50000000020788 100.50000000046464
  endloop
endfacet
facet normal -0.938510260694656 -0.34525134405364555 -6.799751311599993e-13
  outer loop
    vertex 339.747425738377 173.46026067713075 100.00000000037012
    vertex 334.95047495803107 186.50000000020773 100.50000000039569
    vertex 334.95047495803107 186.50000000020876 100.0000000003957
  endloop
endfacet
facet normal -0.938510260694656 -0.34525134405364555 -6.799751311599993e-13
  outer loop
    vertex 334.95047495803107 186.50000000020773 100.50000000039569
    vertex 339.747425738377 173.46026067713075 100.00000000037012
    vertex 339.747425738377 173.46026067712972 100.50000000036992
  endloop
endfacet
facet normal 0.8201375933505723 -0.5721663464178326 -1.1024067709003472e-12
  outer loop
    vertex 334.95047495803107 186.50000000020773 100.50000000039569
    vertex 334.601651570921 186.00000000020887 100.00000000039486
    vertex 334.95047495803107 186.50000000020876 100.0000000003957
  endloop
endfacet
facet normal 0.8201375933505723 -0.5721663464178326 -1.1024067709003472e-12
  outer loop
    vertex 334.601651570921 186.00000000020887 100.00000000039486
    vertex 334.95047495803107 186.50000000020773 100.50000000039569
    vertex 334.2528281838109 185.50000000020796 100.50000000039388
  endloop
endfacet
facet normal 0.8201375933505723 -0.5721663464178326 -1.1024067709003472e-12
  outer loop
    vertex 334.601651570921 186.00000000020887 100.00000000039486
    vertex 334.2528281838109 185.50000000020796 100.50000000039388
    vertex 334.2528281838109 185.50000000020898 100.00000000039391
  endloop
endfacet
facet normal 0.8217325272618635 0.5698733663190718 1.0978420001855559e-12
  outer loop
    vertex 334.3045145852472 221.50000000020788 100.50000000046464
    vertex 334.99801684713026 220.5000000002088 100.00000000046269
    vertex 334.3045145852472 221.50000000020893 100.00000000046467
  endloop
endfacet
facet normal 0.8217325272618635 0.5698733663190718 1.0978420001855559e-12
  outer loop
    vertex 334.99801684713026 220.5000000002088 100.00000000046269
    vertex 334.3045145852472 221.50000000020788 100.50000000046464
    vertex 334.99801684713026 220.50000000020793 100.50000000046275
  endloop
endfacet
facet normal -0.9805711006119538 0.19616400445714216 1.1488727467676801e-13
  outer loop
    vertex 299.65126571618896 203.50000000020887 100.0000000004292
    vertex 306.6530426926011 238.50000000020782 100.50000000049813
    vertex 306.6530426926013 238.50000000020884 100.00000000049815
  endloop
endfacet
facet normal -0.9805711006119538 0.19616400445714216 1.1488727467676801e-13
  outer loop
    vertex 306.6530426926011 238.50000000020782 100.50000000049813
    vertex 299.65126571618896 203.50000000020887 100.0000000004292
    vertex 303.2521795897723 221.50000000020788 100.50000000046464
  endloop
endfacet
facet normal -0.9805711006119538 0.19616400445714216 1.1488727467676801e-13
  outer loop
    vertex 303.2521795897723 221.50000000020788 100.50000000046464
    vertex 299.65126571618896 203.50000000020887 100.0000000004292
    vertex 303.0521288190175 220.50000000020793 100.50000000046275
  endloop
endfacet
facet normal -0.9805711006119538 0.19616400445714216 1.1488727467676801e-13
  outer loop
    vertex 303.0521288190175 220.50000000020793 100.50000000046275
    vertex 299.65126571618896 203.50000000020887 100.0000000004292
    vertex 299.75129110156615 204.0000000002079 100.5000000004302
  endloop
endfacet
facet normal -0.9805711006119538 0.19616400445714216 1.1488727467676801e-13
  outer loop
    vertex 299.75129110156615 204.0000000002079 100.5000000004302
    vertex 299.65126571618896 203.50000000020887 100.0000000004292
    vertex 299.65126571618896 203.50000000020782 100.50000000042917
  endloop
endfacet
facet normal 0.9365669630492183 -0.350488692720271 -6.906548443982085e-13
  outer loop
    vertex 338.92648722183606 233.8507176280699 100.50000000048894
    vertex 334.3045145852472 221.50000000020893 100.00000000046467
    vertex 338.92648722183606 233.85071762807092 100.00000000048895
  endloop
endfacet
facet normal 0.9365669630492183 -0.350488692720271 -6.906548443982085e-13
  outer loop
    vertex 334.3045145852472 221.50000000020893 100.00000000046467
    vertex 338.92648722183606 233.8507176280699 100.50000000048894
    vertex 334.3045145852472 221.50000000020788 100.50000000046464
  endloop
endfacet
facet normal -0.7071067811865381 -1.389131042908192e-12 0.7071067811865569
  outer loop
    vertex 300.65126571618873 168.50000000020597 101.50000000036044
    vertex 299.65126571618896 185.50000000020796 100.50000000039388
    vertex 299.65126571618896 168.50000000020785 100.5000000003604
  endloop
endfacet
facet normal -0.7071067811865381 -1.389131042908192e-12 0.7071067811865569
  outer loop
    vertex 299.65126571618896 185.50000000020796 100.50000000039388
    vertex 300.65126571618873 168.50000000020597 101.50000000036044
    vertex 300.6512657161891 184.92264973101624 101.50000000039282
  endloop
endfacet
facet normal 0.9385102606946627 0.3452513440536279 6.806350782460929e-13
  outer loop
    vertex 334.2528281838109 185.50000000020796 100.50000000039388
    vertex 338.81222953057215 173.10600061321145 100.00000000036934
    vertex 334.2528281838109 185.50000000020898 100.00000000039391
  endloop
endfacet
facet normal 0.9385102606946627 0.3452513440536279 6.806350782460929e-13
  outer loop
    vertex 338.81222953057215 173.10600061321145 100.00000000036934
    vertex 334.2528281838109 185.50000000020796 100.50000000039388
    vertex 338.81222953057215 173.1060006132104 100.50000000036933
  endloop
endfacet
facet normal -0.7071067811865344 -1.3962232192823736e-12 0.7071067811865608
  outer loop
    vertex 300.6512657161891 187.07735026939568 101.50000000039684
    vertex 299.65126571618896 187.00000000020796 100.50000000039672
    vertex 299.65126571618896 186.50000000020773 100.50000000039569
  endloop
endfacet
facet normal -0.7071067811865344 -1.3962232192823736e-12 0.7071067811865608
  outer loop
    vertex 299.65126571618896 187.00000000020796 100.50000000039672
    vertex 300.6512657161891 187.07735026939568 101.50000000039684
    vertex 299.65126571618896 203.00000000020793 100.5000000004285
  endloop
endfacet
facet normal -0.7071067811865344 -1.3962232192823736e-12 0.7071067811865608
  outer loop
    vertex 299.65126571618896 203.00000000020793 100.5000000004285
    vertex 300.6512657161891 187.07735026939568 101.50000000039684
    vertex 300.65126571618873 202.42264973101624 101.50000000042735
  endloop
endfacet
facet normal -0.9055858669413362 -0.3334595668046606 0.2621430046798054
  outer loop
    vertex 334.95047495803107 186.50000000020773 100.50000000039569
    vertex 339.2110194070263 175.69607845898972 101.50000000037343
    vertex 335.0241718528251 187.07735026939534 101.50000000039684
  endloop
endfacet
facet normal -0.9055858669413362 -0.3334595668046606 0.2621430046798054
  outer loop
    vertex 339.2110194070263 175.69607845898972 101.50000000037343
    vertex 334.95047495803107 186.50000000020773 100.50000000039569
    vertex 339.747425738377 173.46026067712972 100.50000000036992
  endloop
endfacet
facet normal -0.9055858669413362 -0.3334595668046606 0.2621430046798054
  outer loop
    vertex 339.2110194070263 175.69607845898972 101.50000000037343
    vertex 339.747425738377 173.46026067712972 100.50000000036992
    vertex 339.4397383226883 175.07434286589012 101.50000000037224
  endloop
endfacet
facet normal -0.9055858669413362 -0.3334595668046606 0.2621430046798054
  outer loop
    vertex 339.4397383226883 175.07434286589012 101.50000000037224
    vertex 339.747425738377 173.46026067712972 100.50000000036992
    vertex 340.013050063853 173.56088137012924 101.50000000036806
  endloop
endfacet
facet normal -1.0 -0.0 0.0
  outer loop
    vertex 299.65126571618896 168.5000000002089 100.00000000036043
    vertex 299.65126571618896 203.50000000020782 100.50000000042917
    vertex 299.65126571618896 203.50000000020887 100.0000000004292
  endloop
endfacet
facet normal -1.0 -0.0 0.0
  outer loop
    vertex 299.65126571618896 203.50000000020782 100.50000000042917
    vertex 299.65126571618896 168.5000000002089 100.00000000036043
    vertex 299.65126571618896 203.00000000020793 100.5000000004285
  endloop
endfacet
facet normal -1.0 -0.0 0.0
  outer loop
    vertex 299.65126571618896 203.00000000020793 100.5000000004285
    vertex 299.65126571618896 168.5000000002089 100.00000000036043
    vertex 299.65126571618896 187.00000000020796 100.50000000039672
  endloop
endfacet
facet normal -1.0 -0.0 0.0
  outer loop
    vertex 299.65126571618896 187.00000000020796 100.50000000039672
    vertex 299.65126571618896 168.5000000002089 100.00000000036043
    vertex 299.65126571618896 186.50000000020773 100.50000000039569
  endloop
endfacet
facet normal -1.0 -0.0 0.0
  outer loop
    vertex 299.65126571618896 186.50000000020773 100.50000000039569
    vertex 299.65126571618896 168.5000000002089 100.00000000036043
    vertex 299.65126571618896 185.50000000020796 100.50000000039388
  endloop
endfacet
facet normal -1.0 -0.0 0.0
  outer loop
    vertex 299.65126571618896 185.50000000020796 100.50000000039388
    vertex 299.65126571618896 168.5000000002089 100.00000000036043
    vertex 299.65126571618896 168.50000000020785 100.5000000003604
  endloop
endfacet
facet normal 0.3542437442893676 -0.9351531263017032 -1.8159220024855074e-12
  outer loop
    vertex 326.65304269260105 168.50000000020597 101.50000000036044
    vertex 338.81222953057215 173.1060006132104 100.50000000036933
    vertex 338.56783718725455 173.0134227707809 101.5000000003692
  endloop
endfacet
facet normal 0.3542437442893676 -0.9351531263017032 -1.8159220024855074e-12
  outer loop
    vertex 338.81222953057215 173.1060006132104 100.50000000036933
    vertex 326.65304269260105 168.50000000020597 101.50000000036044
    vertex 326.65304269260105 168.5000000002089 100.00000000036043
  endloop
endfacet
facet normal 0.3542437442893676 -0.9351531263017032 -1.8159220024855074e-12
  outer loop
    vertex 338.81222953057215 173.1060006132104 100.50000000036933
    vertex 326.65304269260105 168.5000000002089 100.00000000036043
    vertex 338.81222953057215 173.10600061321145 100.00000000036934
  endloop
endfacet
facet normal 6.647710629554185e-16 -1.0 -1.9419877024161475e-12
  outer loop
    vertex 299.65126571618896 168.50000000020785 100.5000000003604
    vertex 326.65304269260105 168.50000000020597 101.50000000036044
    vertex 300.65126571618873 168.50000000020597 101.50000000036044
  endloop
endfacet
facet normal 6.647710629554185e-16 -1.0 -1.9419877024161475e-12
  outer loop
    vertex 326.65304269260105 168.50000000020597 101.50000000036044
    vertex 299.65126571618896 168.50000000020785 100.5000000003604
    vertex 326.65304269260105 168.5000000002089 100.00000000036043
  endloop
endfacet
facet normal 6.647710629554185e-16 -1.0 -1.9419877024161475e-12
  outer loop
    vertex 326.65304269260105 168.5000000002089 100.00000000036043
    vertex 299.65126571618896 168.50000000020785 100.5000000003604
    vertex 299.65126571618896 168.5000000002089 100.00000000036043
  endloop
endfacet
facet normal 0.35424374428945954 0.9351531263016682 1.1684240665442865e-12
  outer loop
    vertex 338.6759116797927 233.94563771735008 101.50000000048924
    vertex 326.65304269260116 238.50000000020884 100.00000000049819
    vertex 326.65304269260116 238.50000000020904 101.50000000049812
  endloop
endfacet
facet normal 0.35424374428945954 0.9351531263016682 1.1684240665442865e-12
  outer loop
    vertex 326.65304269260116 238.50000000020884 100.00000000049819
    vertex 338.6759116797927 233.94563771735008 101.50000000048924
    vertex 338.92648722183606 233.8507176280699 100.50000000048894
  endloop
endfacet
facet normal 0.35424374428945954 0.9351531263016682 1.1684240665442865e-12
  outer loop
    vertex 326.65304269260116 238.50000000020884 100.00000000049819
    vertex 338.92648722183606 233.8507176280699 100.50000000048894
    vertex 338.92648722183606 233.85071762807092 100.00000000048895
  endloop
endfacet
facet normal 0.8660254037845669 -9.942186377532328e-13 0.499999999999778
  outer loop
    vertex 359.07391544699954 202.4226497310164 101.50000000042735
    vertex 359.6512657161887 181.0000000002077 100.50000000038504
    vertex 359.6512657161887 203.00000000020793 100.5000000004285
  endloop
endfacet
facet normal 0.8660254037845669 -9.942186377532328e-13 0.499999999999778
  outer loop
    vertex 359.6512657161887 181.0000000002077 100.50000000038504
    vertex 359.07391544699954 202.4226497310164 101.50000000042735
    vertex 359.0739154469992 182.52412263583847 101.5000000003881
  endloop
endfacet
facet normal -0.9046542176583297 0.3385460801203001 0.25881904510328196
  outer loop
    vertex 334.99801684713026 220.50000000020793 100.50000000046275
    vertex 340.112223417919 233.40155094292754 101.5000000004883
    vertex 339.8616478758757 233.49647103221142 100.50000000048824
  endloop
endfacet
facet normal -0.9046542176583297 0.3385460801203001 0.25881904510328196
  outer loop
    vertex 340.112223417919 233.40155094292754 101.5000000004883
    vertex 334.99801684713026 220.50000000020793 100.50000000046275
    vertex 335.0680539655951 219.9226497310162 101.50000000046158
  endloop
endfacet
facet normal 2.1321872282959064e-15 -1.9723262560253926e-12 1.0
  outer loop
    vertex 326.65304269260105 168.50000000020597 101.50000000036044
    vertex 300.6512657161891 184.92264973101624 101.50000000039282
    vertex 300.65126571618873 168.50000000020597 101.50000000036044
  endloop
endfacet
facet normal 2.1321872282959064e-15 -1.9723262560253926e-12 1.0
  outer loop
    vertex 300.6512657161891 184.92264973101624 101.50000000039282
    vertex 326.65304269260105 168.50000000020597 101.50000000036044
    vertex 334.18676988638373 184.92264973101624 101.50000000039282
  endloop
endfacet
facet normal 2.1321872282959064e-15 -1.9723262560253926e-12 1.0
  outer loop
    vertex 334.18676988638373 184.92264973101624 101.50000000039282
    vertex 326.65304269260105 168.50000000020597 101.50000000036044
    vertex 338.56783718725455 173.0134227707809 101.5000000003692
  endloop
endfacet
facet normal 0.3542437442893607 0.9351531263017058 1.755639554126699e-12
  outer loop
    vertex 359.0739154469999 226.21870506076965 101.5000000004707
    vertex 339.8616478758757 233.49647103221142 100.50000000048824
    vertex 340.112223417919 233.40155094292754 101.5000000004883
  endloop
endfacet
facet normal 0.3542437442893607 0.9351531263017058 1.755639554126699e-12
  outer loop
    vertex 339.8616478758757 233.49647103221142 100.50000000048824
    vertex 359.0739154469999 226.21870506076965 101.5000000004707
    vertex 359.65126571618885 226.00000000020796 100.50000000047366
  endloop
endfacet
facet normal 0.3542437442893607 0.9351531263017058 1.755639554126699e-12
  outer loop
    vertex 339.8616478758757 233.49647103221142 100.50000000048824
    vertex 359.65126571618885 226.00000000020796 100.50000000047366
    vertex 339.8616478758757 233.49647103221227 100.00000000048836
  endloop
endfacet
facet normal 0.3542437442893607 0.9351531263017058 1.755639554126699e-12
  outer loop
    vertex 339.8616478758757 233.49647103221227 100.00000000048836
    vertex 359.65126571618885 226.00000000020796 100.50000000047366
    vertex 359.65126571618885 226.00000000020881 100.00000000047369
  endloop
endfacet
facet normal -1.9269106708512746e-14 1.9815670585855563e-12 -1.0
  outer loop
    vertex 306.6530426926013 238.50000000020884 100.00000000049815
    vertex 299.65126571618896 168.5000000002089 100.00000000036043
    vertex 299.65126571618896 203.50000000020887 100.0000000004292
  endloop
endfacet
facet normal -1.9269106708512746e-14 1.9815670585855563e-12 -1.0
  outer loop
    vertex 299.65126571618896 168.5000000002089 100.00000000036043
    vertex 306.6530426926013 238.50000000020884 100.00000000049815
    vertex 326.65304269260105 168.5000000002089 100.00000000036043
  endloop
endfacet
facet normal -1.9269106708512746e-14 1.9815670585855563e-12 -1.0
  outer loop
    vertex 326.65304269260105 168.5000000002089 100.00000000036043
    vertex 306.6530426926013 238.50000000020884 100.00000000049815
    vertex 326.65304269260116 238.50000000020884 100.00000000049819
  endloop
endfacet
facet normal -1.9269106708512746e-14 1.9815670585855563e-12 -1.0
  outer loop
    vertex 326.65304269260105 168.5000000002089 100.00000000036043
    vertex 326.65304269260116 238.50000000020884 100.00000000049819
    vertex 334.2528281838109 185.50000000020898 100.00000000039391
  endloop
endfacet
facet normal -1.9269106708512746e-14 1.9815670585855563e-12 -1.0
  outer loop
    vertex 326.65304269260105 168.5000000002089 100.00000000036043
    vertex 334.2528281838109 185.50000000020898 100.00000000039391
    vertex 338.81222953057215 173.10600061321145 100.00000000036934
  endloop
endfacet
facet normal -1.9269106708512746e-14 1.9815670585855563e-12 -1.0
  outer loop
    vertex 326.65304269260116 238.50000000020884 100.00000000049819
    vertex 334.3045145852472 221.50000000020893 100.00000000046467
    vertex 334.2528281838109 185.50000000020898 100.00000000039391
  endloop
endfacet
facet normal -1.9269106708512746e-14 1.9815670585855563e-12 -1.0
  outer loop
    vertex 334.3045145852472 221.50000000020893 100.00000000046467
    vertex 326.65304269260116 238.50000000020884 100.00000000049819
    vertex 338.92648722183606 233.85071762807092 100.00000000048895
  endloop
endfacet
facet normal -1.9269106708512746e-14 1.9815670585855563e-12 -1.0
  outer loop
    vertex 334.3045145852472 221.50000000020893 100.00000000046467
    vertex 334.601651570921 186.00000000020887 100.00000000039486
    vertex 334.2528281838109 185.50000000020898 100.00000000039391
  endloop
endfacet
facet normal -1.9269106708512746e-14 1.9815670585855563e-12 -1.0
  outer loop
    vertex 334.601651570921 186.00000000020887 100.00000000039486
    vertex 334.3045145852472 221.50000000020893 100.00000000046467
    vertex 334.99801684713026 220.5000000002088 100.00000000046269
  endloop
endfacet
facet normal -1.9269106708512746e-14 1.9815670585855563e-12 -1.0
  outer loop
    vertex 334.601651570921 186.00000000020887 100.00000000039486
    vertex 334.99801684713026 220.5000000002088 100.00000000046269
    vertex 334.95047495803107 186.50000000020876 100.0000000003957
  endloop
endfacet
facet normal -1.9269106708512746e-14 1.9815670585855563e-12 -1.0
  outer loop
    vertex 334.95047495803107 186.50000000020876 100.0000000003957
    vertex 334.99801684713026 220.5000000002088 100.00000000046269
    vertex 339.747425738377 173.46026067713075 100.00000000037012
  endloop
endfacet
facet normal -1.9269106708512746e-14 1.9815670585855563e-12 -1.0
  outer loop
    vertex 339.747425738377 173.46026067713075 100.00000000037012
    vertex 334.99801684713026 220.5000000002088 100.00000000046269
    vertex 339.8616478758757 233.49647103221227 100.00000000048836
  endloop
endfacet
facet normal -1.9269106708512746e-14 1.9815670585855563e-12 -1.0
  outer loop
    vertex 339.747425738377 173.46026067713075 100.00000000037012
    vertex 339.8616478758757 233.49647103221227 100.00000000048836
    vertex 340.01305006385314 173.5608813701323 100.00000000036813
  endloop
endfacet
facet normal -1.9269106708512746e-14 1.9815670585855563e-12 -1.0
  outer loop
    vertex 340.01305006385314 173.5608813701323 100.00000000036813
    vertex 339.8616478758757 233.49647103221227 100.00000000048836
    vertex 359.65126571618885 226.00000000020881 100.00000000047369
  endloop
endfacet
facet normal -1.9269106708512746e-14 1.9815670585855563e-12 -1.0
  outer loop
    vertex 340.01305006385314 173.5608813701323 100.00000000036813
    vertex 359.65126571618885 226.00000000020881 100.00000000047369
    vertex 357.31338290042993 180.11439063948882 100.00000000037767
  endloop
endfacet
facet normal -1.9269106708512746e-14 1.9815670585855563e-12 -1.0
  outer loop
    vertex 357.31338290042993 180.11439063948882 100.00000000037767
    vertex 359.65126571618885 226.00000000020881 100.00000000047369
    vertex 359.65126571618754 181.00000000020876 100.00000000038507
  endloop
endfacet
facet normal -7.831283813238263e-14 1.0 1.2932642155494992e-12
  outer loop
    vertex 326.65304269260116 238.50000000020904 101.50000000049812
    vertex 306.6530426926011 238.50000000020782 100.50000000049813
    vertex 307.6728565534992 238.50000000020597 101.50000000049818
  endloop
endfacet
facet normal -7.831283813238263e-14 1.0 1.2932642155494992e-12
  outer loop
    vertex 306.6530426926011 238.50000000020782 100.50000000049813
    vertex 326.65304269260116 238.50000000020904 101.50000000049812
    vertex 326.65304269260116 238.50000000020884 100.00000000049819
  endloop
endfacet
facet normal -7.831283813238263e-14 1.0 1.2932642155494992e-12
  outer loop
    vertex 306.6530426926011 238.50000000020782 100.50000000049813
    vertex 326.65304269260116 238.50000000020884 100.00000000049819
    vertex 306.6530426926013 238.50000000020884 100.00000000049815
  endloop
endfacet
facet normal -8.823608153761665e-16 -1.9707333992117494e-12 1.0
  outer loop
    vertex 334.2344774667828 222.07735026939545 101.5000000004658
    vertex 307.6728565534992 238.50000000020597 101.50000000049818
    vertex 304.3874928170172 222.07735026939545 101.5000000004658
  endloop
endfacet
facet normal -8.823608153761665e-16 -1.9707333992117494e-12 1.0
  outer loop
    vertex 307.6728565534992 238.50000000020597 101.50000000049818
    vertex 334.2344774667828 222.07735026939545 101.5000000004658
    vertex 326.65304269260116 238.50000000020904 101.50000000049812
  endloop
endfacet
facet normal -8.823608153761665e-16 -1.9707333992117494e-12 1.0
  outer loop
    vertex 326.65304269260116 238.50000000020904 101.50000000049812
    vertex 334.2344774667828 222.07735026939545 101.5000000004658
    vertex 338.6759116797927 233.94563771735008 101.50000000048924
  endloop
endfacet
endsolid ProtoGlove baseplate
