solid ProtoGlove baseplate
facet normal -0.04463175907440001 0.28165224392039584 0.9584779703136272
  outer loop
    vertex 384.38838593438714 483.4747670095428 302.90834021917874
    vertex 399.89032091240705 486.74813035244244 302.6683018346834
    vertex 384.3418489926151 483.62576033140977 302.8618032774069
  endloop
endfacet
facet normal -0.04463175907440001 0.28165224392039584 0.9584779703136272
  outer loop
    vertex 399.89032091240705 486.74813035244244 302.6683018346834
    vertex 384.38838593438714 483.4747670095428 302.90834021917874
    vertex 407.0468933329866 486.51641836033025 303.0696387777429
  endloop
endfacet
facet normal -0.08586188915219892 0.33207197686592216 0.9393380318988336
  outer loop
    vertex 406.9800457161896 473.49999999980224 307.25000000096117
    vertex 409.9796060913838 477.5294052621614 306.09971691443366
    vertex 395.1320588881789 473.4999999998044 306.167013368718
  endloop
endfacet
facet normal -0.08586188915219892 0.33207197686592216 0.9393380318988336
  outer loop
    vertex 409.9796060913838 477.5294052621614 306.09971691443366
    vertex 406.9800457161896 473.49999999980224 307.25000000096117
    vertex 409.7079354599737 474.5911558973161 307.11360551377413
  endloop
endfacet
facet normal 0.0 -1.9698374875698473e-12 1.0
  outer loop
    vertex 411.48004571618924 487.99999999981554 300.50000000098987
    vertex 381.98004571618947 488.9999999998155 300.5000000009918
    vertex 381.98004571618947 487.99999999981554 300.50000000098987
  endloop
endfacet
facet normal 0.0 -1.9698374875698473e-12 1.0
  outer loop
    vertex 381.98004571618947 488.9999999998155 300.5000000009918
    vertex 411.48004571618924 487.99999999981554 300.50000000098987
    vertex 411.9800457161895 488.9999999998155 300.5000000009918
  endloop
endfacet
facet normal 0.0 -1.9698374875698473e-12 1.0
  outer loop
    vertex 411.9800457161895 488.9999999998155 300.5000000009918
    vertex 411.48004571618924 487.99999999981554 300.50000000098987
    vertex 412.4800457161894 488.9999999998155 300.5000000009918
  endloop
endfacet
facet normal 0.3713906763541034 -0.9284766908852596 -1.83691591198148e-12
  outer loop
    vertex 412.4800457161894 475.69999999981565 300.50000000096554
    vertex 428.7102277206502 482.19207280158867 306.1634909007554
    vertex 414.19207982928026 476.3848136450391 306.8893982953124
  endloop
endfacet
facet normal 0.3713906763541034 -0.9284766908852596 -1.83691591198148e-12
  outer loop
    vertex 428.7102277206502 482.19207280158867 306.1634909007554
    vertex 412.4800457161894 475.69999999981565 300.50000000096554
    vertex 431.9800457161893 483.4999999998155 300.500000000981
  endloop
endfacet
facet normal 0.3713906763541034 -0.9284766908852596 -1.83691591198148e-12
  outer loop
    vertex 431.9800457161893 483.4999999998155 300.500000000981
    vertex 412.4800457161894 475.69999999981565 300.50000000096554
    vertex 431.9800457161893 483.4999999998164 300.000000000981
  endloop
endfacet
facet normal 0.3713906763541034 -0.9284766908852596 -1.83691591198148e-12
  outer loop
    vertex 431.9800457161893 483.4999999998164 300.000000000981
    vertex 412.4800457161894 475.69999999981565 300.50000000096554
    vertex 412.4800457161894 475.69999999981644 300.00000000096554
  endloop
endfacet
facet normal 0.3713906763541184 0.9284766908852534 1.832063080956005e-12
  outer loop
    vertex 409.7079354599737 532.4088441022886 307.1136055138881
    vertex 406.9800457161896 533.4999999998164 300.00000000107946
    vertex 406.9800457161896 533.4999999998022 307.2500000010794
  endloop
endfacet
facet normal 0.3713906763541184 0.9284766908852534 1.832063080956005e-12
  outer loop
    vertex 406.9800457161896 533.4999999998164 300.00000000107946
    vertex 409.7079354599737 532.4088441022886 307.1136055138881
    vertex 411.48004571618924 531.6999999998155 300.50000000107593
  endloop
endfacet
facet normal 0.3713906763541184 0.9284766908852534 1.832063080956005e-12
  outer loop
    vertex 406.9800457161896 533.4999999998164 300.00000000107946
    vertex 411.48004571618924 531.6999999998155 300.50000000107593
    vertex 411.48004571618924 531.6999999998164 300.00000000107593
  endloop
endfacet
facet normal 0.7071067811864997 -0.7071067811865954 -1.3078125613553704e-12
  outer loop
    vertex 411.48004571618924 487.99999999981554 300.50000000098987
    vertex 412.4800457161894 488.9999999998164 300.00000000099186
    vertex 412.4800457161894 488.9999999998155 300.5000000009918
  endloop
endfacet
facet normal 0.7071067811864997 -0.7071067811865954 -1.3078125613553704e-12
  outer loop
    vertex 412.4800457161894 488.9999999998164 300.00000000099186
    vertex 411.48004571618924 487.99999999981554 300.50000000098987
    vertex 411.48004571618924 487.9999999998164 300.0000000009898
  endloop
endfacet
facet normal 1.0 0.0 0.0
  outer loop
    vertex 431.9800457161893 523.4999999998156 300.5000000010597
    vertex 431.9800457161893 483.4999999998164 300.000000000981
    vertex 431.9800457161893 523.4999999998164 300.00000000105973
  endloop
endfacet
facet normal 1.0 0.0 0.0
  outer loop
    vertex 431.9800457161893 483.4999999998164 300.000000000981
    vertex 431.9800457161893 523.4999999998156 300.5000000010597
    vertex 431.9800457161893 503.99999999981554 300.5000000010213
  endloop
endfacet
facet normal 1.0 0.0 0.0
  outer loop
    vertex 431.9800457161893 483.4999999998164 300.000000000981
    vertex 431.9800457161893 503.99999999981554 300.5000000010213
    vertex 431.9800457161893 502.9999999998156 300.5000000010193
  endloop
endfacet
facet normal 1.0 0.0 0.0
  outer loop
    vertex 431.9800457161893 483.4999999998164 300.000000000981
    vertex 431.9800457161893 502.9999999998156 300.5000000010193
    vertex 431.9800457161893 483.4999999998155 300.500000000981
  endloop
endfacet
facet normal 1.0 0.0 0.0
  outer loop
    vertex 411.48004571618924 531.6999999998155 300.50000000107593
    vertex 411.48004571618924 518.9999999998164 300.0000000010508
    vertex 411.48004571618924 531.6999999998164 300.00000000107593
  endloop
endfacet
facet normal 1.0 0.0 0.0
  outer loop
    vertex 411.48004571618924 518.9999999998164 300.0000000010508
    vertex 411.48004571618924 531.6999999998155 300.50000000107593
    vertex 411.48004571618924 518.9999999998156 300.50000000105086
  endloop
endfacet
facet normal 0.37139067635411993 -0.9284766908852529 -1.8299392930591184e-12
  outer loop
    vertex 406.9800457161896 473.4999999998164 300.00000000096117
    vertex 409.7079354599737 474.5911558973161 307.11360551377413
    vertex 406.9800457161896 473.49999999980224 307.25000000096117
  endloop
endfacet
facet normal 0.37139067635411993 -0.9284766908852529 -1.8299392930591184e-12
  outer loop
    vertex 409.7079354599737 474.5911558973161 307.11360551377413
    vertex 406.9800457161896 473.4999999998164 300.00000000096117
    vertex 411.48004571618924 475.29999999981555 300.50000000096475
  endloop
endfacet
facet normal 0.37139067635411993 -0.9284766908852529 -1.8299392930591184e-12
  outer loop
    vertex 411.48004571618924 475.29999999981555 300.50000000096475
    vertex 406.9800457161896 473.4999999998164 300.00000000096117
    vertex 411.48004571618924 475.29999999981635 300.0000000009648
  endloop
endfacet
facet normal -1.0 -0.0 0.0
  outer loop
    vertex 381.98004571618947 473.4999999998164 300.00000000096117
    vertex 381.98004571618947 503.49999999981566 300.5000000010203
    vertex 381.98004571618947 503.49999999981645 300.00000000102034
  endloop
endfacet
facet normal -1.0 -0.0 0.0
  outer loop
    vertex 381.98004571618947 503.49999999981566 300.5000000010203
    vertex 381.98004571618947 473.4999999998164 300.00000000096117
    vertex 381.98004571618947 502.9999999998156 300.5000000010193
  endloop
endfacet
facet normal -1.0 -0.0 0.0
  outer loop
    vertex 381.98004571618947 502.9999999998156 300.5000000010193
    vertex 381.98004571618947 473.4999999998164 300.00000000096117
    vertex 381.98004571618947 488.9999999998155 300.5000000009918
  endloop
endfacet
facet normal -1.0 -0.0 0.0
  outer loop
    vertex 381.98004571618947 488.9999999998155 300.5000000009918
    vertex 381.98004571618947 473.4999999998164 300.00000000096117
    vertex 381.98004571618947 487.99999999981554 300.50000000098987
  endloop
endfacet
facet normal -1.0 -0.0 0.0
  outer loop
    vertex 381.98004571618947 487.99999999981554 300.50000000098987
    vertex 381.98004571618947 473.4999999998164 300.00000000096117
    vertex 381.98004571618947 473.4999999998156 300.50000000096117
  endloop
endfacet
facet normal 0.0 1.9698374875698473e-12 -1.0
  outer loop
    vertex 431.9800457161893 523.4999999998164 300.00000000105973
    vertex 412.4800457161894 517.9999999998164 300.00000000104893
    vertex 412.4800457161894 531.2999999998165 300.0000000010751
  endloop
endfacet
facet normal 0.0 1.9698374875698473e-12 -1.0
  outer loop
    vertex 412.4800457161894 517.9999999998164 300.00000000104893
    vertex 431.9800457161893 523.4999999998164 300.00000000105973
    vertex 412.4800457161894 488.9999999998164 300.00000000099186
  endloop
endfacet
facet normal 0.0 1.9698374875698473e-12 -1.0
  outer loop
    vertex 412.4800457161894 488.9999999998164 300.00000000099186
    vertex 431.9800457161893 523.4999999998164 300.00000000105973
    vertex 412.4800457161894 475.69999999981644 300.00000000096554
  endloop
endfacet
facet normal 0.0 1.9698374875698473e-12 -1.0
  outer loop
    vertex 412.4800457161894 475.69999999981644 300.00000000096554
    vertex 431.9800457161893 523.4999999998164 300.00000000105973
    vertex 431.9800457161893 483.4999999998164 300.000000000981
  endloop
endfacet
facet normal 0.0 1.9698374875698473e-12 -1.0
  outer loop
    vertex 412.4800457161894 517.9999999998164 300.00000000104893
    vertex 411.48004571618924 487.9999999998164 300.0000000009898
    vertex 411.48004571618924 518.9999999998164 300.0000000010508
  endloop
endfacet
facet normal 0.0 1.9698374875698473e-12 -1.0
  outer loop
    vertex 411.48004571618924 487.9999999998164 300.0000000009898
    vertex 412.4800457161894 517.9999999998164 300.00000000104893
    vertex 412.4800457161894 488.9999999998164 300.00000000099186
  endloop
endfacet
facet normal 0.0 1.9698374875698473e-12 -1.0
  outer loop
    vertex 386.9800457161894 533.4999999998164 300.00000000107946
    vertex 381.98004571618947 473.4999999998164 300.00000000096117
    vertex 381.98004571618947 503.49999999981645 300.00000000102034
  endloop
endfacet
facet normal 0.0 1.9698374875698473e-12 -1.0
  outer loop
    vertex 381.98004571618947 473.4999999998164 300.00000000096117
    vertex 386.9800457161894 533.4999999998164 300.00000000107946
    vertex 406.9800457161896 473.4999999998164 300.00000000096117
  endloop
endfacet
facet normal 0.0 1.9698374875698473e-12 -1.0
  outer loop
    vertex 406.9800457161896 473.4999999998164 300.00000000096117
    vertex 386.9800457161894 533.4999999998164 300.00000000107946
    vertex 406.9800457161896 533.4999999998164 300.00000000107946
  endloop
endfacet
facet normal 0.0 1.9698374875698473e-12 -1.0
  outer loop
    vertex 406.9800457161896 473.4999999998164 300.00000000096117
    vertex 406.9800457161896 533.4999999998164 300.00000000107946
    vertex 411.48004571618924 531.6999999998164 300.00000000107593
  endloop
endfacet
facet normal 0.0 1.9698374875698473e-12 -1.0
  outer loop
    vertex 406.9800457161896 473.4999999998164 300.00000000096117
    vertex 411.48004571618924 531.6999999998164 300.00000000107593
    vertex 411.48004571618924 475.29999999981635 300.0000000009648
  endloop
endfacet
facet normal 0.0 1.9698374875698473e-12 -1.0
  outer loop
    vertex 411.48004571618924 475.29999999981635 300.0000000009648
    vertex 411.48004571618924 531.6999999998164 300.00000000107593
    vertex 411.48004571618924 518.9999999998164 300.0000000010508
  endloop
endfacet
facet normal 0.0 1.9698374875698473e-12 -1.0
  outer loop
    vertex 411.48004571618924 475.29999999981635 300.0000000009648
    vertex 411.48004571618924 518.9999999998164 300.0000000010508
    vertex 411.48004571618924 487.9999999998164 300.0000000009898
  endloop
endfacet
facet normal -1.0 -0.0 0.0
  outer loop
    vertex 412.4800457161894 475.69999999981644 300.00000000096554
    vertex 412.4800457161894 488.9999999998155 300.5000000009918
    vertex 412.4800457161894 488.9999999998164 300.00000000099186
  endloop
endfacet
facet normal -1.0 -0.0 0.0
  outer loop
    vertex 412.4800457161894 488.9999999998155 300.5000000009918
    vertex 412.4800457161894 475.69999999981644 300.00000000096554
    vertex 412.4800457161894 475.69999999981565 300.50000000096554
  endloop
endfacet
facet normal -0.03573207156613031 -0.2144209910439184 0.9760875256150633
  outer loop
    vertex 430.4004815497923 517.3486234579859 303.235885391063
    vertex 413.32684631716245 522.1258840969953 303.6603028677684
    vertex 413.1802774337732 519.6602433802041 303.1133003481462
  endloop
endfacet
facet normal -0.03573207156613031 -0.2144209910439184 0.9760875256150633
  outer loop
    vertex 413.32684631716245 522.1258840969953 303.6603028677684
    vertex 430.4004815497923 517.3486234579859 303.235885391063
    vertex 430.37344363280175 517.566313528019 303.282716437022
  endloop
endfacet
facet normal -0.03573207156613009 0.2144209910400685 0.9760875256159092
  outer loop
    vertex 413.32684631716245 484.87411590262315 303.660302867695
    vertex 430.40048154979195 489.6513765416343 303.2358853910084
    vertex 413.1802774337732 487.3397566194164 303.11330034808253
  endloop
endfacet
facet normal -0.03573207156613009 0.2144209910400685 0.9760875256159092
  outer loop
    vertex 430.40048154979195 489.6513765416343 303.2358853910084
    vertex 413.32684631716245 484.87411590262315 303.660302867695
    vertex 430.37344363280135 489.4336864716011 303.2827164369665
  endloop
endfacet
facet normal -1.0 -0.0 0.0
  outer loop
    vertex 412.4800457161894 517.9999999998164 300.00000000104893
    vertex 412.4800457161894 531.2999999998157 300.5000000010751
    vertex 412.4800457161894 531.2999999998165 300.0000000010751
  endloop
endfacet
facet normal -1.0 -0.0 0.0
  outer loop
    vertex 412.4800457161894 531.2999999998157 300.5000000010751
    vertex 412.4800457161894 517.9999999998164 300.00000000104893
    vertex 412.4800457161894 517.9999999998156 300.50000000104893
  endloop
endfacet
facet normal 0.0 -1.9698374875698473e-12 1.0
  outer loop
    vertex 431.9800457161893 502.9999999998156 300.5000000010193
    vertex 381.98004571618947 503.49999999981566 300.5000000010203
    vertex 381.98004571618947 502.9999999998156 300.5000000010193
  endloop
endfacet
facet normal 0.0 -1.9698374875698473e-12 1.0
  outer loop
    vertex 381.98004571618947 503.49999999981566 300.5000000010203
    vertex 431.9800457161893 502.9999999998156 300.5000000010193
    vertex 382.0633790495228 503.99999999981554 300.5000000010213
  endloop
endfacet
facet normal 0.0 -1.9698374875698473e-12 1.0
  outer loop
    vertex 382.0633790495228 503.99999999981554 300.5000000010213
    vertex 431.9800457161893 502.9999999998156 300.5000000010193
    vertex 431.9800457161893 503.99999999981554 300.5000000010213
  endloop
endfacet
facet normal 0.0 -1.9698374875698473e-12 1.0
  outer loop
    vertex 411.9800457161895 517.9999999998156 300.50000000104893
    vertex 384.56337904952255 518.9999999998156 300.50000000105086
    vertex 384.3967123828559 517.9999999998156 300.50000000104893
  endloop
endfacet
facet normal 0.0 -1.9698374875698473e-12 1.0
  outer loop
    vertex 384.56337904952255 518.9999999998156 300.50000000105086
    vertex 411.9800457161895 517.9999999998156 300.50000000104893
    vertex 411.48004571618924 518.9999999998156 300.50000000105086
  endloop
endfacet
facet normal 0.0 -1.9698374875698473e-12 1.0
  outer loop
    vertex 411.48004571618924 518.9999999998156 300.50000000105086
    vertex 411.9800457161895 517.9999999998156 300.50000000104893
    vertex 412.4800457161894 517.9999999998156 300.50000000104893
  endloop
endfacet
facet normal -0.006895248787494137 0.09253917746662849 0.9956851692065914
  outer loop
    vertex 383.3145406510577 490.06981282056745 301.8344949358621
    vertex 431.36736348394976 496.59088993854505 301.5611967561405
    vertex 382.69579424227067 496.6811770993525 301.21574852708824
  endloop
endfacet
facet normal -0.006895248787494137 0.09253917746662849 0.9956851692065914
  outer loop
    vertex 431.36736348394976 496.59088993854505 301.5611967561405
    vertex 383.3145406510577 490.06981282056745 301.8344949358621
    vertex 431.36288366325016 496.50706936888764 301.5689560332007
  endloop
endfacet
facet normal -0.05821006762788578 0.27398869311666574 0.9599696787247911
  outer loop
    vertex 413.7197132408335 480.5284471165074 305.1265021874397
    vertex 429.6780420252723 486.15881907300127 304.4871873528656
    vertex 413.5363904823518 482.886614062955 304.44233233860723
  endloop
endfacet
facet normal -0.05821006762788578 0.27398869311666574 0.9599696787247911
  outer loop
    vertex 429.6780420252723 486.15881907300127 304.4871873528656
    vertex 413.7197132408335 480.5284471165074 305.1265021874397
    vertex 429.6272662997991 485.83989612169944 304.57513348917536
  endloop
endfacet
facet normal -0.04463175907440075 0.2816522439203991 0.9584779703136262
  outer loop
    vertex 413.1802774337732 487.3397566194164 303.11330034808253
    vertex 430.9513542666776 492.98565902200954 302.2817458568653
    vertex 413.017266803548 489.3842210583105 302.50493639391277
  endloop
endfacet
facet normal -0.04463175907440075 0.2816522439203991 0.9584779703136262
  outer loop
    vertex 430.9513542666776 492.98565902200954 302.2817458568653
    vertex 413.1802774337732 487.3397566194164 303.11330034808253
    vertex 430.40048154979195 489.6513765416343 303.2358853910084
  endloop
endfacet
facet normal -2.7169094859153744e-17 -0.04081843378109652 0.9991665804377459
  outer loop
    vertex 431.6723193943541 504.3077263216496 301.03299762526694
    vertex 431.61020971462443 506.94103323975247 301.1405747462059
    vertex 393.62991568933097 504.3077263216496 301.03299762526694
  endloop
endfacet
facet normal -0.04463175907439906 -0.2816522439241693 0.9584779703125186
  outer loop
    vertex 430.9513542666779 514.0143409776143 302.28174585690675
    vertex 413.1802774337732 519.6602433802041 303.1133003481462
    vertex 413.017266803548 517.6157789413127 302.5049363939683
  endloop
endfacet
facet normal -0.04463175907439906 -0.2816522439241693 0.9584779703125186
  outer loop
    vertex 413.1802774337732 519.6602433802041 303.1133003481462
    vertex 430.9513542666779 514.0143409776143 302.28174585690675
    vertex 430.4004815497923 517.3486234579859 303.235885391063
  endloop
endfacet
facet normal -0.11301820666175813 0.43139794696584244 0.8950545772837635
  outer loop
    vertex 413.97563225213503 478.6138678080806 306.08160494023576
    vertex 429.6272662997991 485.83989612169944 304.57513348917536
    vertex 413.7197132408335 480.5284471165074 305.1265021874397
  endloop
endfacet
facet normal -0.11301820666175813 0.43139794696584244 0.8950545772837635
  outer loop
    vertex 429.6272662997991 485.83989612169944 304.57513348917536
    vertex 413.97563225213503 478.6138678080806 306.08160494023576
    vertex 428.7962878570394 482.63597508739605 306.01443037202404
  endloop
endfacet
facet normal -0.07520693913193809 0.35823619256495887 0.9305969840070226
  outer loop
    vertex 413.5363904823518 482.886614062955 304.44233233860723
    vertex 430.37344363280135 489.4336864716011 303.2827164369665
    vertex 413.32684631716245 484.87411590262315 303.660302867695
  endloop
endfacet
facet normal -0.07520693913193809 0.35823619256495887 0.9305969840070226
  outer loop
    vertex 430.37344363280135 489.4336864716011 303.2827164369665
    vertex 413.5363904823518 482.886614062955 304.44233233860723
    vertex 429.6780420252723 486.15881907300127 304.4871873528656
  endloop
endfacet
facet normal -0.006817546493040209 0.12218042418645239 0.9924844910654442
  outer loop
    vertex 382.69579424227067 496.6811770993525 301.21574852708824
    vertex 431.6093093374103 500.0084793167779 301.14213424527316
    vertex 382.6897341654703 496.7300655970279 301.2096884502877
  endloop
endfacet
facet normal -0.006817546493040209 0.12218042418645239 0.9924844910654442
  outer loop
    vertex 431.6093093374103 500.0084793167779 301.14213424527316
    vertex 382.69579424227067 496.6811770993525 301.21574852708824
    vertex 431.36736348394976 496.59088993854505 301.5611967561405
  endloop
endfacet
facet normal -2.590541602849361e-17 0.04081843377715793 0.9991665804379068
  outer loop
    vertex 431.6723193943541 502.692273677979 301.03299762526376
    vertex 393.6299156893306 502.692273677979 301.03299762526376
    vertex 431.61020971462443 500.0589667598758 301.1405747461923
  endloop
endfacet
facet normal -0.08586188915219922 0.332071976865921 0.9393380318988339
  outer loop
    vertex 414.19207982928026 476.3848136450391 306.8893982953124
    vertex 428.7962878570394 482.63597508739605 306.01443037202404
    vertex 413.97563225213503 478.6138678080806 306.08160494023576
  endloop
endfacet
facet normal -0.08586188915219922 0.332071976865921 0.9393380318988339
  outer loop
    vertex 428.7962878570394 482.63597508739605 306.01443037202404
    vertex 414.19207982928026 476.3848136450391 306.8893982953124
    vertex 428.7102277206502 482.19207280158867 306.1634909007554
  endloop
endfacet
facet normal -0.021744301729973763 0.20268586028026528 0.9790023633192745
  outer loop
    vertex 383.3334760205243 489.98038361694097 301.8534303053287
    vertex 431.36288366325016 496.50706936888764 301.5689560332007
    vertex 383.3145406510577 490.06981282056745 301.8344949358621
  endloop
endfacet
facet normal -0.021744301729973763 0.20268586028026528 0.9790023633192745
  outer loop
    vertex 431.36288366325016 496.50706936888764 301.5689560332007
    vertex 383.3334760205243 489.98038361694097 301.8534303053287
    vertex 430.96375731715176 493.1251362765016 302.26026314327544
  endloop
endfacet
facet normal 0.7071067811864996 0.7071067811865954 1.4779583292370394e-12
  outer loop
    vertex 412.4800457161894 517.9999999998156 300.50000000104893
    vertex 411.48004571618924 518.9999999998164 300.0000000010508
    vertex 411.48004571618924 518.9999999998156 300.50000000105086
  endloop
endfacet
facet normal 0.7071067811864996 0.7071067811865954 1.4779583292370394e-12
  outer loop
    vertex 411.48004571618924 518.9999999998164 300.0000000010508
    vertex 412.4800457161894 517.9999999998156 300.50000000104893
    vertex 412.4800457161894 517.9999999998164 300.00000000104893
  endloop
endfacet
facet normal -0.006817546493039995 -0.12218042419035957 0.9924844910649633
  outer loop
    vertex 431.6093093374103 506.99152068285053 301.14213424528685
    vertex 383.1166463150495 510.31960359297466 301.2187355399749
    vertex 383.1037438767228 510.24218896301454 301.2091167344559
  endloop
endfacet
facet normal -0.006817546493039995 -0.12218042419035957 0.9924844910649633
  outer loop
    vertex 383.1166463150495 510.31960359297466 301.2187355399749
    vertex 431.6093093374103 506.99152068285053 301.14213424528685
    vertex 431.36736348394976 510.4091100610816 301.5611967561677
  endloop
endfacet
facet normal 0.3713906763541041 0.9284766908852592 1.8221439435808236e-12
  outer loop
    vertex 428.7102277206502 524.80792719802 306.1634909008393
    vertex 412.4800457161894 531.2999999998157 300.5000000010751
    vertex 414.19207982928026 530.6151863545665 306.88939829541914
  endloop
endfacet
facet normal 0.3713906763541041 0.9284766908852592 1.8221439435808236e-12
  outer loop
    vertex 412.4800457161894 531.2999999998157 300.5000000010751
    vertex 428.7102277206502 524.80792719802 306.1634909008393
    vertex 431.9800457161893 523.4999999998156 300.5000000010597
  endloop
endfacet
facet normal 0.3713906763541041 0.9284766908852592 1.8221439435808236e-12
  outer loop
    vertex 412.4800457161894 531.2999999998157 300.5000000010751
    vertex 431.9800457161893 523.4999999998156 300.5000000010597
    vertex 412.4800457161894 531.2999999998165 300.0000000010751
  endloop
endfacet
facet normal 0.3713906763541041 0.9284766908852592 1.8221439435808236e-12
  outer loop
    vertex 412.4800457161894 531.2999999998165 300.0000000010751
    vertex 431.9800457161893 523.4999999998156 300.5000000010597
    vertex 431.9800457161893 523.4999999998164 300.00000000105973
  endloop
endfacet
facet normal -0.9659258262890622 -5.123492715711274e-13 0.25881904510254367
  outer loop
    vertex 412.4800457161894 488.9999999998155 300.5000000009918
    vertex 413.017266803548 489.3842210583105 302.50493639391277
    vertex 412.98752772549454 490.0934717584792 302.39394864364766
  endloop
endfacet
facet normal -0.9659258262890622 -5.123492715711274e-13 0.25881904510254367
  outer loop
    vertex 413.017266803548 489.3842210583105 302.50493639391277
    vertex 412.4800457161894 488.9999999998155 300.5000000009918
    vertex 413.1802774337732 487.3397566194164 303.11330034808253
  endloop
endfacet
facet normal -0.9659258262890622 -5.123492715711274e-13 0.25881904510254367
  outer loop
    vertex 413.1802774337732 487.3397566194164 303.11330034808253
    vertex 412.4800457161894 488.9999999998155 300.5000000009918
    vertex 412.4800457161894 475.69999999981565 300.50000000096554
  endloop
endfacet
facet normal -0.9659258262890622 -5.123492715711274e-13 0.25881904510254367
  outer loop
    vertex 413.1802774337732 487.3397566194164 303.11330034808253
    vertex 412.4800457161894 475.69999999981565 300.50000000096554
    vertex 413.32684631716245 484.87411590262315 303.660302867695
  endloop
endfacet
facet normal -0.9659258262890622 -5.123492715711274e-13 0.25881904510254367
  outer loop
    vertex 413.32684631716245 484.87411590262315 303.660302867695
    vertex 412.4800457161894 475.69999999981565 300.50000000096554
    vertex 413.5363904823518 482.886614062955 304.44233233860723
  endloop
endfacet
facet normal -0.9659258262890622 -5.123492715711274e-13 0.25881904510254367
  outer loop
    vertex 413.5363904823518 482.886614062955 304.44233233860723
    vertex 412.4800457161894 475.69999999981565 300.50000000096554
    vertex 413.7197132408335 480.5284471165074 305.1265021874397
  endloop
endfacet
facet normal -0.9659258262890622 -5.123492715711274e-13 0.25881904510254367
  outer loop
    vertex 413.7197132408335 480.5284471165074 305.1265021874397
    vertex 412.4800457161894 475.69999999981565 300.50000000096554
    vertex 413.97563225213503 478.6138678080806 306.08160494023576
  endloop
endfacet
facet normal -0.9659258262890622 -5.123492715711274e-13 0.25881904510254367
  outer loop
    vertex 413.97563225213503 478.6138678080806 306.08160494023576
    vertex 412.4800457161894 475.69999999981565 300.50000000096554
    vertex 414.19207982928026 476.3848136450391 306.8893982953124
  endloop
endfacet
facet normal 1.0 0.0 0.0
  outer loop
    vertex 411.48004571618924 487.99999999981554 300.50000000098987
    vertex 411.48004571618924 475.29999999981635 300.0000000009648
    vertex 411.48004571618924 487.9999999998164 300.0000000009898
  endloop
endfacet
facet normal 1.0 0.0 0.0
  outer loop
    vertex 411.48004571618924 475.29999999981635 300.0000000009648
    vertex 411.48004571618924 487.99999999981554 300.50000000098987
    vertex 411.48004571618924 475.29999999981555 300.50000000096475
  endloop
endfacet
facet normal -0.08586188915219745 -0.33207197686961915 0.9393380318975268
  outer loop
    vertex 409.9796060913838 529.4705947374473 306.09971691453586
    vertex 406.9800457161896 533.4999999998022 307.2500000010794
    vertex 395.13205888817856 533.4999999998043 306.1670133688362
  endloop
endfacet
facet normal -0.08586188915219745 -0.33207197686961915 0.9393380318975268
  outer loop
    vertex 406.9800457161896 533.4999999998022 307.2500000010794
    vertex 409.9796060913838 529.4705947374473 306.09971691453586
    vertex 409.7079354599737 532.4088441022886 307.1136055138881
  endloop
endfacet
facet normal -0.01859395543723748 0.1538166189507643 0.9879244467851545
  outer loop
    vertex 399.89032091240705 486.74813035244244 302.6683018346834
    vertex 383.81592570798074 486.9400541923508 302.33587999277927
    vertex 384.3418489926151 483.62576033140977 302.8618032774069
  endloop
endfacet
facet normal -0.07520693913193847 -0.3582361925686261 0.930596984005611
  outer loop
    vertex 410.61716275796056 522.8506617859974 303.7203230421544
    vertex 386.33465733765246 529.6276697285859 304.36674316341345
    vertex 386.28966326810075 529.3577053112755 304.25918329275333
  endloop
endfacet
facet normal -0.07520693913193847 -0.3582361925686261 0.930596984005611
  outer loop
    vertex 386.33465733765246 529.6276697285859 304.36674316341345
    vertex 410.61716275796056 522.8506617859974 303.7203230421544
    vertex 410.42601689394877 524.7439149758993 304.43368911830623
  endloop
endfacet
facet normal -0.11301820666176171 -0.4313979469693815 0.8950545772820574
  outer loop
    vertex 429.62726629979943 521.1601038779152 304.5751334892449
    vertex 413.97563225213503 528.3861321915276 306.0816049403339
    vertex 413.7197132408335 526.4715528831051 305.1265021875302
  endloop
endfacet
facet normal -0.11301820666176171 -0.4313979469693815 0.8950545772820574
  outer loop
    vertex 413.97563225213503 528.3861321915276 306.0816049403339
    vertex 429.62726629979943 521.1601038779152 304.5751334892449
    vertex 428.7962878570394 524.364024912213 306.0144303721062
  endloop
endfacet
facet normal -0.05821006762788673 0.2739886931166658 0.9599696787247911
  outer loop
    vertex 386.99185663453886 473.4999999998057 305.5118109193105
    vertex 410.42601689394843 482.25608502371585 304.4336891182226
    vertex 385.8454293939499 477.27315490943914 304.3653836787291
  endloop
endfacet
facet normal -0.05821006762788673 0.2739886931166658 0.9599696787247911
  outer loop
    vertex 410.42601689394843 482.25608502371585 304.4336891182226
    vertex 386.99185663453886 473.4999999998057 305.5118109193105
    vertex 392.6698273581327 473.49999999980497 305.8561083144624
  endloop
endfacet
facet normal -0.05821006762788673 0.2739886931166658 0.9599696787247911
  outer loop
    vertex 410.42601689394843 482.25608502371585 304.4336891182226
    vertex 392.6698273581327 473.49999999980497 305.8561083144624
    vertex 410.2077615142465 479.3558247505585 305.2482292842899
  endloop
endfacet
facet normal -0.03573207156613051 -0.21442099104391865 0.9760875256150633
  outer loop
    vertex 407.04689333298626 520.4835816392906 303.0696387778098
    vertex 386.28966326810075 529.3577053112755 304.25918329275333
    vertex 385.2972503986647 523.4032280946622 302.9148101303346
  endloop
endfacet
facet normal -0.03573207156613051 -0.21442099104391865 0.9760875256150633
  outer loop
    vertex 386.28966326810075 529.3577053112755 304.25918329275333
    vertex 407.04689333298626 520.4835816392906 303.0696387778098
    vertex 410.61716275796056 522.8506617859974 303.7203230421544
  endloop
endfacet
facet normal -0.03573207156613051 -0.21442099104391865 0.9760875256150633
  outer loop
    vertex 410.61716275796056 522.8506617859974 303.7203230421544
    vertex 407.04689333298626 520.4835816392906 303.0696387778098
    vertex 410.7499144845654 520.5732141576785 303.2248868536687
  endloop
endfacet
facet normal -0.0068952487874941815 -0.09253917747055224 0.9956851692062266
  outer loop
    vertex 431.36736348394976 510.4091100610816 301.5611967561677
    vertex 384.19866847059666 516.8117365262556 301.829608808396
    vertex 383.1166463150495 510.31960359297466 301.2187355399749
  endloop
endfacet
facet normal -0.0068952487874941815 -0.09253917747055224 0.9956851692062266
  outer loop
    vertex 384.19866847059666 516.8117365262556 301.829608808396
    vertex 431.36736348394976 510.4091100610816 301.5611967561677
    vertex 431.36288366325016 510.492930630739 301.5689560332283
  endloop
endfacet
facet normal -0.01859395543723741 -0.15381661895465878 0.9879244467845483
  outer loop
    vertex 430.96375731715216 513.8748637231222 302.2602631433163
    vertex 384.2621999962448 517.1929256801438 301.8978937281972
    vertex 384.2235210239601 516.9608518464373 301.8610326021726
  endloop
endfacet
facet normal -0.01859395543723741 -0.15381661895465878 0.9879244467845483
  outer loop
    vertex 384.2621999962448 517.1929256801438 301.8978937281972
    vertex 430.96375731715216 513.8748637231222 302.2602631433163
    vertex 412.98752772549454 516.9065282411442 302.39394864370047
  endloop
endfacet
facet normal -0.01859395543723741 -0.15381661895465878 0.9879244467845483
  outer loop
    vertex 412.98752772549454 516.9065282411442 302.39394864370047
    vertex 430.96375731715216 513.8748637231222 302.2602631433163
    vertex 413.017266803548 517.6157789413127 302.5049363939683
  endloop
endfacet
facet normal -0.01859395543723741 -0.15381661895465878 0.9879244467845483
  outer loop
    vertex 413.017266803548 517.6157789413127 302.5049363939683
    vertex 430.96375731715216 513.8748637231222 302.2602631433163
    vertex 430.9513542666779 514.0143409776143 302.28174585690675
  endloop
endfacet
facet normal 0.9659258262890792 -4.929210685876404e-13 0.2588190451024805
  outer loop
    vertex 409.9796060913838 529.4705947374473 306.09971691453586
    vertex 411.48004571618924 531.6999999998155 300.50000000107593
    vertex 409.7079354599737 532.4088441022886 307.1136055138881
  endloop
endfacet
facet normal 0.9659258262890792 -4.929210685876404e-13 0.2588190451024805
  outer loop
    vertex 411.48004571618924 531.6999999998155 300.50000000107593
    vertex 409.9796060913838 529.4705947374473 306.09971691453586
    vertex 411.48004571618924 518.9999999998156 300.50000000105086
  endloop
endfacet
facet normal 0.9659258262890792 -4.929210685876404e-13 0.2588190451024805
  outer loop
    vertex 411.48004571618924 518.9999999998156 300.50000000105086
    vertex 409.9796060913838 529.4705947374473 306.09971691453586
    vertex 410.2077615142469 527.6441752490537 305.24822928438493
  endloop
endfacet
facet normal 0.9659258262890792 -4.929210685876404e-13 0.2588190451024805
  outer loop
    vertex 411.48004571618924 518.9999999998156 300.50000000105086
    vertex 410.2077615142469 527.6441752490537 305.24822928438493
    vertex 410.42601689394877 524.7439149758993 304.43368911830623
  endloop
endfacet
facet normal 0.9659258262890792 -4.929210685876404e-13 0.2588190451024805
  outer loop
    vertex 411.48004571618924 518.9999999998156 300.50000000105086
    vertex 410.42601689394877 524.7439149758993 304.43368911830623
    vertex 410.61716275796056 522.8506617859974 303.7203230421544
  endloop
endfacet
facet normal 0.9659258262890792 -4.929210685876404e-13 0.2588190451024805
  outer loop
    vertex 411.48004571618924 518.9999999998156 300.50000000105086
    vertex 410.61716275796056 522.8506617859974 303.7203230421544
    vertex 410.7499144845654 520.5732141576785 303.2248868536687
  endloop
endfacet
facet normal -0.0582100676278833 -0.27398869312044066 0.9599696787237139
  outer loop
    vertex 410.42601689394877 524.7439149758993 304.43368911830623
    vertex 386.9800457161894 533.4999999998056 305.511094736021
    vertex 386.33465733765246 529.6276697285859 304.36674316341345
  endloop
endfacet
facet normal -0.0582100676278833 -0.27398869312044066 0.9599696787237139
  outer loop
    vertex 386.9800457161894 533.4999999998056 305.511094736021
    vertex 410.42601689394877 524.7439149758993 304.43368911830623
    vertex 392.66982735813235 533.4999999998048 305.85610831458064
  endloop
endfacet
facet normal -0.0582100676278833 -0.27398869312044066 0.9599696787237139
  outer loop
    vertex 392.66982735813235 533.4999999998048 305.85610831458064
    vertex 410.42601689394877 524.7439149758993 304.43368911830623
    vertex 410.2077615142469 527.6441752490537 305.24822928438493
  endloop
endfacet
facet normal -0.02174430172997323 -0.2026858602841194 0.9790023633184767
  outer loop
    vertex 431.36288366325016 510.492930630739 301.5689560332283
    vertex 384.2235210239601 516.9608518464373 301.8610326021726
    vertex 384.19866847059666 516.8117365262556 301.829608808396
  endloop
endfacet
facet normal -0.02174430172997323 -0.2026858602841194 0.9790023633184767
  outer loop
    vertex 384.2235210239601 516.9608518464373 301.8610326021726
    vertex 431.36288366325016 510.492930630739 301.5689560332283
    vertex 430.96375731715216 513.8748637231222 302.2602631433163
  endloop
endfacet
facet normal -0.11301820666176203 -0.431397946969382 0.8950545772820568
  outer loop
    vertex 410.2077615142469 527.6441752490537 305.24822928438493
    vertex 395.13205888817856 533.4999999998043 306.1670133688362
    vertex 392.66982735813235 533.4999999998048 305.85610831458064
  endloop
endfacet
facet normal -0.11301820666176203 -0.431397946969382 0.8950545772820568
  outer loop
    vertex 395.13205888817856 533.4999999998043 306.1670133688362
    vertex 410.2077615142469 527.6441752490537 305.24822928438493
    vertex 409.9796060913838 529.4705947374473 306.09971691453586
  endloop
endfacet
facet normal -0.000689630972366257 0.03088640475591041 0.999522663280016
  outer loop
    vertex 382.6897341654703 496.7300655970279 301.2096884502877
    vertex 393.6299156893306 502.692273677979 301.03299762526376
    vertex 382.50522832151285 502.69678568125676 301.025182606342
  endloop
endfacet
facet normal -0.000689630972366257 0.03088640475591041 0.999522663280016
  outer loop
    vertex 393.6299156893306 502.692273677979 301.03299762526376
    vertex 382.6897341654703 496.7300655970279 301.2096884502877
    vertex 431.6093093374103 500.0084793167779 301.14213424527316
  endloop
endfacet
facet normal -0.000689630972366257 0.03088640475591041 0.999522663280016
  outer loop
    vertex 393.6299156893306 502.692273677979 301.03299762526376
    vertex 431.6093093374103 500.0084793167779 301.14213424527316
    vertex 431.61020971462443 500.0589667598758 301.1405747461923
  endloop
endfacet
facet normal -0.9863939238321445 0.16439898730535304 3.5248671242900804e-13
  outer loop
    vertex 386.9800457161894 533.4999999998164 300.00000000107946
    vertex 384.56337904952255 518.9999999998156 300.50000000105086
    vertex 386.9800457161894 533.4999999998056 305.511094736021
  endloop
endfacet
facet normal -0.9863939238321445 0.16439898730535304 3.5248671242900804e-13
  outer loop
    vertex 384.56337904952255 518.9999999998156 300.50000000105086
    vertex 386.9800457161894 533.4999999998164 300.00000000107946
    vertex 381.98004571618947 503.49999999981645 300.00000000102034
  endloop
endfacet
facet normal -0.9863939238321445 0.16439898730535304 3.5248671242900804e-13
  outer loop
    vertex 386.9800457161894 533.4999999998056 305.511094736021
    vertex 384.56337904952255 518.9999999998156 300.50000000105086
    vertex 386.28966326810075 529.3577053112755 304.25918329275333
  endloop
endfacet
facet normal -0.9863939238321445 0.16439898730535304 3.5248671242900804e-13
  outer loop
    vertex 386.9800457161894 533.4999999998056 305.511094736021
    vertex 386.28966326810075 529.3577053112755 304.25918329275333
    vertex 386.33465733765246 529.6276697285859 304.36674316341345
  endloop
endfacet
facet normal -0.9863939238321445 0.16439898730535304 3.5248671242900804e-13
  outer loop
    vertex 386.28966326810075 529.3577053112755 304.25918329275333
    vertex 384.56337904952255 518.9999999998156 300.50000000105086
    vertex 385.2972503986647 523.4032280946622 302.9148101303346
  endloop
endfacet
facet normal -0.9863939238321445 0.16439898730535304 3.5248671242900804e-13
  outer loop
    vertex 385.2972503986647 523.4032280946622 302.9148101303346
    vertex 384.56337904952255 518.9999999998156 300.50000000105086
    vertex 385.2616345038687 523.1895327258876 302.85035650481507
  endloop
endfacet
facet normal -0.9863939238321445 0.16439898730535304 3.5248671242900804e-13
  outer loop
    vertex 385.2616345038687 523.1895327258876 302.85035650481507
    vertex 384.56337904952255 518.9999999998156 300.50000000105086
    vertex 384.7418792891098 520.0710014373356 302.3550289058234
  endloop
endfacet
facet normal -0.9863939238321445 0.16439898730535304 3.5248671242900804e-13
  outer loop
    vertex 384.56337904952255 518.9999999998156 300.50000000105086
    vertex 381.98004571618947 503.49999999981645 300.00000000102034
    vertex 384.3967123828559 517.9999999998156 300.50000000104893
  endloop
endfacet
facet normal -0.9863939238321445 0.16439898730535304 3.5248671242900804e-13
  outer loop
    vertex 384.3967123828559 517.9999999998156 300.50000000104893
    vertex 381.98004571618947 503.49999999981645 300.00000000102034
    vertex 384.19866847059666 516.8117365262556 301.829608808396
  endloop
endfacet
facet normal -0.9863939238321445 0.16439898730535304 3.5248671242900804e-13
  outer loop
    vertex 384.3967123828559 517.9999999998156 300.50000000104893
    vertex 384.19866847059666 516.8117365262556 301.829608808396
    vertex 384.2621999962448 517.1929256801438 301.8978937281972
  endloop
endfacet
facet normal -0.9863939238321445 0.16439898730535304 3.5248671242900804e-13
  outer loop
    vertex 384.2621999962448 517.1929256801438 301.8978937281972
    vertex 384.19866847059666 516.8117365262556 301.829608808396
    vertex 384.2235210239601 516.9608518464373 301.8610326021726
  endloop
endfacet
facet normal -0.9863939238321445 0.16439898730535304 3.5248671242900804e-13
  outer loop
    vertex 384.19866847059666 516.8117365262556 301.829608808396
    vertex 381.98004571618947 503.49999999981645 300.00000000102034
    vertex 383.1166463150495 510.31960359297466 301.2187355399749
  endloop
endfacet
facet normal -0.9863939238321445 0.16439898730535304 3.5248671242900804e-13
  outer loop
    vertex 383.1166463150495 510.31960359297466 301.2187355399749
    vertex 381.98004571618947 503.49999999981645 300.00000000102034
    vertex 383.1037438767228 510.24218896301454 301.2091167344559
  endloop
endfacet
facet normal -0.9863939238321445 0.16439898730535304 3.5248671242900804e-13
  outer loop
    vertex 383.1037438767228 510.24218896301454 301.2091167344559
    vertex 381.98004571618947 503.49999999981645 300.00000000102034
    vertex 382.0633790495228 503.99999999981554 300.5000000010213
  endloop
endfacet
facet normal -0.9863939238321445 0.16439898730535304 3.5248671242900804e-13
  outer loop
    vertex 383.1037438767228 510.24218896301454 301.2091167344559
    vertex 382.0633790495228 503.99999999981554 300.5000000010213
    vertex 382.11388831569417 504.30305559684206 301.0249076925927
  endloop
endfacet
facet normal -0.9863939238321445 0.16439898730535304 3.5248671242900804e-13
  outer loop
    vertex 382.0633790495228 503.99999999981554 300.5000000010213
    vertex 381.98004571618947 503.49999999981645 300.00000000102034
    vertex 381.98004571618947 503.49999999981566 300.5000000010203
  endloop
endfacet
facet normal -0.03573207156613063 0.2144209910400711 0.9760875256159086
  outer loop
    vertex 385.7511570563069 477.49825672997014 304.2711113410865
    vertex 407.0468933329866 486.51641836033025 303.0696387777429
    vertex 384.38838593438714 483.4747670095428 302.90834021917874
  endloop
endfacet
facet normal -0.03573207156613063 0.2144209910400711 0.9760875256159086
  outer loop
    vertex 407.0468933329866 486.51641836033025 303.0696387777429
    vertex 385.7511570563069 477.49825672997014 304.2711113410865
    vertex 410.6171627579602 484.14933821362087 303.7203230420781
  endloop
endfacet
facet normal -0.03573207156613063 0.2144209910400711 0.9760875256159086
  outer loop
    vertex 407.0468933329866 486.51641836033025 303.0696387777429
    vertex 410.6171627579602 484.14933821362087 303.7203230420781
    vertex 410.749914484565 486.4267858419417 303.2248868536014
  endloop
endfacet
facet normal -0.0006896309723663531 -0.030886404759849117 0.9995226632798941
  outer loop
    vertex 393.62991568933097 504.3077263216496 301.03299762526694
    vertex 383.1037438767228 510.24218896301454 301.2091167344559
    vertex 382.11388831569417 504.30305559684206 301.0249076925927
  endloop
endfacet
facet normal -0.0006896309723663531 -0.030886404759849117 0.9995226632798941
  outer loop
    vertex 383.1037438767228 510.24218896301454 301.2091167344559
    vertex 393.62991568933097 504.3077263216496 301.03299762526694
    vertex 431.6093093374103 506.99152068285053 301.14213424528685
  endloop
endfacet
facet normal -0.0006896309723663531 -0.030886404759849117 0.9995226632798941
  outer loop
    vertex 431.6093093374103 506.99152068285053 301.14213424528685
    vertex 393.62991568933097 504.3077263216496 301.03299762526694
    vertex 431.61020971462443 506.94103323975247 301.1405747462059
  endloop
endfacet
facet normal 0.9659258262890713 -5.03238508383614e-13 0.2588190451025102
  outer loop
    vertex 410.749914484565 486.4267858419417 303.2248868536014
    vertex 411.48004571618924 475.29999999981555 300.50000000096475
    vertex 411.48004571618924 487.99999999981554 300.50000000098987
  endloop
endfacet
facet normal 0.9659258262890713 -5.03238508383614e-13 0.2588190451025102
  outer loop
    vertex 411.48004571618924 475.29999999981555 300.50000000096475
    vertex 410.749914484565 486.4267858419417 303.2248868536014
    vertex 410.6171627579602 484.14933821362087 303.7203230420781
  endloop
endfacet
facet normal 0.9659258262890713 -5.03238508383614e-13 0.2588190451025102
  outer loop
    vertex 411.48004571618924 475.29999999981555 300.50000000096475
    vertex 410.6171627579602 484.14933821362087 303.7203230420781
    vertex 410.42601689394843 482.25608502371585 304.4336891182226
  endloop
endfacet
facet normal 0.9659258262890713 -5.03238508383614e-13 0.2588190451025102
  outer loop
    vertex 411.48004571618924 475.29999999981555 300.50000000096475
    vertex 410.42601689394843 482.25608502371585 304.4336891182226
    vertex 410.2077615142465 479.3558247505585 305.2482292842899
  endloop
endfacet
facet normal 0.9659258262890713 -5.03238508383614e-13 0.2588190451025102
  outer loop
    vertex 411.48004571618924 475.29999999981555 300.50000000096475
    vertex 410.2077615142465 479.3558247505585 305.2482292842899
    vertex 409.9796060913838 477.5294052621614 306.09971691443366
  endloop
endfacet
facet normal 0.9659258262890713 -5.03238508383614e-13 0.2588190451025102
  outer loop
    vertex 411.48004571618924 475.29999999981555 300.50000000096475
    vertex 409.9796060913838 477.5294052621614 306.09971691443366
    vertex 409.7079354599737 474.5911558973161 307.11360551377413
  endloop
endfacet
facet normal -0.04463175907439847 -0.2816522439241636 0.9584779703125201
  outer loop
    vertex 399.89032091240705 520.25186964718 302.66830183474946
    vertex 385.2972503986647 523.4032280946622 302.9148101303346
    vertex 385.2616345038687 523.1895327258876 302.85035650481507
  endloop
endfacet
facet normal -0.04463175907439847 -0.2816522439241636 0.9584779703125201
  outer loop
    vertex 385.2972503986647 523.4032280946622 302.9148101303346
    vertex 399.89032091240705 520.25186964718 302.66830183474946
    vertex 407.04689333298626 520.4835816392906 303.0696387778098
  endloop
endfacet
facet normal -1.592316858712821e-16 -0.8660254037854256 0.4999999999982909
  outer loop
    vertex 407.04689333298626 520.4835816392906 303.0696387778098
    vertex 411.48004571618924 518.9999999998156 300.50000000105086
    vertex 410.7499144845654 520.5732141576785 303.2248868536687
  endloop
endfacet
facet normal -1.592316858712821e-16 -0.8660254037854256 0.4999999999982909
  outer loop
    vertex 411.48004571618924 518.9999999998156 300.50000000105086
    vertex 407.04689333298626 520.4835816392906 303.0696387778098
    vertex 399.89032091240705 520.25186964718 302.66830183474946
  endloop
endfacet
facet normal -1.592316858712821e-16 -0.8660254037854256 0.4999999999982909
  outer loop
    vertex 411.48004571618924 518.9999999998156 300.50000000105086
    vertex 399.89032091240705 520.25186964718 302.66830183474946
    vertex 384.7418792891098 520.0710014373356 302.3550289058234
  endloop
endfacet
facet normal -1.592316858712821e-16 -0.8660254037854256 0.4999999999982909
  outer loop
    vertex 411.48004571618924 518.9999999998156 300.50000000105086
    vertex 384.7418792891098 520.0710014373356 302.3550289058234
    vertex 384.56337904952255 518.9999999998156 300.50000000105086
  endloop
endfacet
facet normal -4.7007257352166184e-17 0.8660254037834518 0.5000000000017096
  outer loop
    vertex 412.4800457161894 517.9999999998156 300.50000000104893
    vertex 384.2621999962448 517.1929256801438 301.8978937281972
    vertex 412.98752772549454 516.9065282411442 302.39394864370047
  endloop
endfacet
facet normal -4.7007257352166184e-17 0.8660254037834518 0.5000000000017096
  outer loop
    vertex 384.2621999962448 517.1929256801438 301.8978937281972
    vertex 412.4800457161894 517.9999999998156 300.50000000104893
    vertex 384.3967123828559 517.9999999998156 300.50000000104893
  endloop
endfacet
facet normal -4.7007257352166184e-17 0.8660254037834518 0.5000000000017096
  outer loop
    vertex 384.3967123828559 517.9999999998156 300.50000000104893
    vertex 412.4800457161894 517.9999999998156 300.50000000104893
    vertex 411.9800457161895 517.9999999998156 300.50000000104893
  endloop
endfacet
facet normal -0.9659258262890675 -5.089935589723858e-13 0.2588190451025235
  outer loop
    vertex 412.4800457161894 517.9999999998156 300.50000000104893
    vertex 414.19207982928026 530.6151863545665 306.88939829541914
    vertex 412.4800457161894 531.2999999998157 300.5000000010751
  endloop
endfacet
facet normal -0.9659258262890675 -5.089935589723858e-13 0.2588190451025235
  outer loop
    vertex 414.19207982928026 530.6151863545665 306.88939829541914
    vertex 412.4800457161894 517.9999999998156 300.50000000104893
    vertex 413.97563225213503 528.3861321915276 306.0816049403339
  endloop
endfacet
facet normal -0.9659258262890675 -5.089935589723858e-13 0.2588190451025235
  outer loop
    vertex 413.97563225213503 528.3861321915276 306.0816049403339
    vertex 412.4800457161894 517.9999999998156 300.50000000104893
    vertex 413.7197132408335 526.4715528831051 305.1265021875302
  endloop
endfacet
facet normal -0.9659258262890675 -5.089935589723858e-13 0.2588190451025235
  outer loop
    vertex 413.7197132408335 526.4715528831051 305.1265021875302
    vertex 412.4800457161894 517.9999999998156 300.50000000104893
    vertex 413.5363904823518 524.1133859366604 304.44233233868835
  endloop
endfacet
facet normal -0.9659258262890675 -5.089935589723858e-13 0.2588190451025235
  outer loop
    vertex 413.5363904823518 524.1133859366604 304.44233233868835
    vertex 412.4800457161894 517.9999999998156 300.50000000104893
    vertex 413.32684631716245 522.1258840969953 303.6603028677684
  endloop
endfacet
facet normal -0.9659258262890675 -5.089935589723858e-13 0.2588190451025235
  outer loop
    vertex 413.32684631716245 522.1258840969953 303.6603028677684
    vertex 412.4800457161894 517.9999999998156 300.50000000104893
    vertex 413.1802774337732 519.6602433802041 303.1133003481462
  endloop
endfacet
facet normal -0.9659258262890675 -5.089935589723858e-13 0.2588190451025235
  outer loop
    vertex 413.1802774337732 519.6602433802041 303.1133003481462
    vertex 412.4800457161894 517.9999999998156 300.50000000104893
    vertex 413.017266803548 517.6157789413127 302.5049363939683
  endloop
endfacet
facet normal -0.9659258262890675 -5.089935589723858e-13 0.2588190451025235
  outer loop
    vertex 413.017266803548 517.6157789413127 302.5049363939683
    vertex 412.4800457161894 517.9999999998156 300.50000000104893
    vertex 412.98752772549454 516.9065282411442 302.39394864370047
  endloop
endfacet
facet normal -0.08586188915219725 -0.3320719768696145 0.9393380318975284
  outer loop
    vertex 428.7962878570394 524.364024912213 306.0144303721062
    vertex 414.19207982928026 530.6151863545665 306.88939829541914
    vertex 413.97563225213503 528.3861321915276 306.0816049403339
  endloop
endfacet
facet normal -0.08586188915219725 -0.3320719768696145 0.9393380318975284
  outer loop
    vertex 414.19207982928026 530.6151863545665 306.88939829541914
    vertex 428.7962878570394 524.364024912213 306.0144303721062
    vertex 428.7102277206502 524.80792719802 306.1634909008393
  endloop
endfacet
facet normal -0.07520693913193872 -0.3582361925686271 0.9305969840056104
  outer loop
    vertex 430.37344363280175 517.566313528019 303.282716437022
    vertex 413.5363904823518 524.1133859366604 304.44233233868835
    vertex 413.32684631716245 522.1258840969953 303.6603028677684
  endloop
endfacet
facet normal -0.07520693913193872 -0.3582361925686271 0.9305969840056104
  outer loop
    vertex 413.5363904823518 524.1133859366604 304.44233233868835
    vertex 430.37344363280175 517.566313528019 303.282716437022
    vertex 429.6780420252723 520.8411809266137 304.48718735293374
  endloop
endfacet
facet normal -0.07520693913194013 0.35823619256496136 0.9305969840070215
  outer loop
    vertex 385.8454293939499 477.27315490943914 304.3653836787291
    vertex 410.6171627579602 484.14933821362087 303.7203230420781
    vertex 385.7511570563069 477.49825672997014 304.2711113410865
  endloop
endfacet
facet normal -0.07520693913194013 0.35823619256496136 0.9305969840070215
  outer loop
    vertex 410.6171627579602 484.14933821362087 303.7203230420781
    vertex 385.8454293939499 477.27315490943914 304.3653836787291
    vertex 410.42601689394843 482.25608502371585 304.4336891182226
  endloop
endfacet
facet normal -4.794983779017386e-16 0.8660254037834418 0.5000000000017265
  outer loop
    vertex 431.9800457161893 502.9999999998156 300.5000000010193
    vertex 393.6299156893306 502.692273677979 301.03299762526376
    vertex 431.6723193943541 502.692273677979 301.03299762526376
  endloop
endfacet
facet normal -4.794983779017386e-16 0.8660254037834418 0.5000000000017265
  outer loop
    vertex 393.6299156893306 502.692273677979 301.03299762526376
    vertex 431.9800457161893 502.9999999998156 300.5000000010193
    vertex 382.50522832151285 502.69678568125676 301.025182606342
  endloop
endfacet
facet normal -4.794983779017386e-16 0.8660254037834418 0.5000000000017265
  outer loop
    vertex 382.50522832151285 502.69678568125676 301.025182606342
    vertex 431.9800457161893 502.9999999998156 300.5000000010193
    vertex 381.98004571618947 502.9999999998156 300.5000000010193
  endloop
endfacet
facet normal -1.6911263484501042e-16 0.8660254037834522 0.5000000000017089
  outer loop
    vertex 411.48004571618924 487.99999999981554 300.50000000098987
    vertex 407.0468933329866 486.51641836033025 303.0696387777429
    vertex 410.749914484565 486.4267858419417 303.2248868536014
  endloop
endfacet
facet normal -1.6911263484501042e-16 0.8660254037834522 0.5000000000017089
  outer loop
    vertex 407.0468933329866 486.51641836033025 303.0696387777429
    vertex 411.48004571618924 487.99999999981554 300.50000000098987
    vertex 399.89032091240705 486.74813035244244 302.6683018346834
  endloop
endfacet
facet normal -1.6911263484501042e-16 0.8660254037834522 0.5000000000017089
  outer loop
    vertex 399.89032091240705 486.74813035244244 302.6683018346834
    vertex 411.48004571618924 487.99999999981554 300.50000000098987
    vertex 383.81592570798074 486.9400541923508 302.33587999277927
  endloop
endfacet
facet normal -1.6911263484501042e-16 0.8660254037834522 0.5000000000017089
  outer loop
    vertex 383.81592570798074 486.9400541923508 302.33587999277927
    vertex 411.48004571618924 487.99999999981554 300.50000000098987
    vertex 381.98004571618947 487.99999999981554 300.50000000098987
  endloop
endfacet
facet normal -5.411336776625144e-17 -0.8660254037854269 0.4999999999982887
  outer loop
    vertex 383.3624008994754 489.79810313699863 301.88235518427956
    vertex 412.4800457161894 488.9999999998155 300.5000000009918
    vertex 412.98752772549454 490.0934717584792 302.39394864364766
  endloop
endfacet
facet normal -5.411336776625144e-17 -0.8660254037854269 0.4999999999982887
  outer loop
    vertex 412.4800457161894 488.9999999998155 300.5000000009918
    vertex 383.3624008994754 489.79810313699863 301.88235518427956
    vertex 381.98004571618947 488.9999999998155 300.5000000009918
  endloop
endfacet
facet normal -5.411336776625144e-17 -0.8660254037854269 0.4999999999982887
  outer loop
    vertex 412.4800457161894 488.9999999998155 300.5000000009918
    vertex 381.98004571618947 488.9999999998155 300.5000000009918
    vertex 411.9800457161895 488.9999999998155 300.5000000009918
  endloop
endfacet
facet normal -0.7071067811865495 -1.4024967624343715e-12 0.7071067811865456
  outer loop
    vertex 381.98004571618947 473.4999999998156 300.50000000096117
    vertex 383.81592570798074 486.9400541923508 302.33587999277927
    vertex 381.98004571618947 487.99999999981554 300.50000000098987
  endloop
endfacet
facet normal -0.7071067811865495 -1.4024967624343715e-12 0.7071067811865456
  outer loop
    vertex 383.81592570798074 486.9400541923508 302.33587999277927
    vertex 381.98004571618947 473.4999999998156 300.50000000096117
    vertex 384.3418489926151 483.62576033140977 302.8618032774069
  endloop
endfacet
facet normal -0.7071067811865495 -1.4024967624343715e-12 0.7071067811865456
  outer loop
    vertex 384.3418489926151 483.62576033140977 302.8618032774069
    vertex 381.98004571618947 473.4999999998156 300.50000000096117
    vertex 384.38838593438714 483.4747670095428 302.90834021917874
  endloop
endfacet
facet normal -0.7071067811865495 -1.4024967624343715e-12 0.7071067811865456
  outer loop
    vertex 384.38838593438714 483.4747670095428 302.90834021917874
    vertex 381.98004571618947 473.4999999998156 300.50000000096117
    vertex 385.7511570563069 477.49825672997014 304.2711113410865
  endloop
endfacet
facet normal -0.7071067811865495 -1.4024967624343715e-12 0.7071067811865456
  outer loop
    vertex 385.7511570563069 477.49825672997014 304.2711113410865
    vertex 381.98004571618947 473.4999999998156 300.50000000096117
    vertex 385.8454293939499 477.27315490943914 304.3653836787291
  endloop
endfacet
facet normal -0.7071067811865495 -1.4024967624343715e-12 0.7071067811865456
  outer loop
    vertex 385.8454293939499 477.27315490943914 304.3653836787291
    vertex 381.98004571618947 473.4999999998156 300.50000000096117
    vertex 386.99185663453886 473.4999999998057 305.5118109193105
  endloop
endfacet
facet normal -0.058210067627884415 -0.27398869312044316 0.959969678723713
  outer loop
    vertex 429.6780420252723 520.8411809266137 304.48718735293374
    vertex 413.7197132408335 526.4715528831051 305.1265021875302
    vertex 413.5363904823518 524.1133859366604 304.44233233868835
  endloop
endfacet
facet normal -0.058210067627884415 -0.27398869312044316 0.959969678723713
  outer loop
    vertex 413.7197132408335 526.4715528831051 305.1265021875302
    vertex 429.6780420252723 520.8411809266137 304.48718735293374
    vertex 429.62726629979943 521.1601038779152 304.5751334892449
  endloop
endfacet
facet normal -0.11301820666175479 0.43139794696582945 0.89505457728377
  outer loop
    vertex 395.1320588881789 473.4999999998044 306.167013368718
    vertex 410.2077615142465 479.3558247505585 305.2482292842899
    vertex 392.6698273581327 473.49999999980497 305.8561083144624
  endloop
endfacet
facet normal -0.11301820666175479 0.43139794696582945 0.89505457728377
  outer loop
    vertex 410.2077615142465 479.3558247505585 305.2482292842899
    vertex 395.1320588881789 473.4999999998044 306.167013368718
    vertex 409.9796060913838 477.5294052621614 306.09971691443366
  endloop
endfacet
facet normal -0.01859395543723797 -0.15381661895465737 0.9879244467845483
  outer loop
    vertex 399.89032091240705 520.25186964718 302.66830183474946
    vertex 385.2616345038687 523.1895327258876 302.85035650481507
    vertex 384.7418792891098 520.0710014373356 302.3550289058234
  endloop
endfacet
facet normal -0.7071067811865689 -1.3878625775968447e-12 0.7071067811865263
  outer loop
    vertex 381.98004571618947 488.9999999998155 300.5000000009918
    vertex 382.50522832151285 502.69678568125676 301.025182606342
    vertex 381.98004571618947 502.9999999998156 300.5000000010193
  endloop
endfacet
facet normal -0.7071067811865689 -1.3878625775968447e-12 0.7071067811865263
  outer loop
    vertex 382.50522832151285 502.69678568125676 301.025182606342
    vertex 381.98004571618947 488.9999999998155 300.5000000009918
    vertex 382.6897341654703 496.7300655970279 301.2096884502877
  endloop
endfacet
facet normal -0.7071067811865689 -1.3878625775968447e-12 0.7071067811865263
  outer loop
    vertex 382.6897341654703 496.7300655970279 301.2096884502877
    vertex 381.98004571618947 488.9999999998155 300.5000000009918
    vertex 382.69579424227067 496.6811770993525 301.21574852708824
  endloop
endfacet
facet normal -0.7071067811865689 -1.3878625775968447e-12 0.7071067811865263
  outer loop
    vertex 382.69579424227067 496.6811770993525 301.21574852708824
    vertex 381.98004571618947 488.9999999998155 300.5000000009918
    vertex 383.3145406510577 490.06981282056745 301.8344949358621
  endloop
endfacet
facet normal -0.7071067811865689 -1.3878625775968447e-12 0.7071067811865263
  outer loop
    vertex 383.3145406510577 490.06981282056745 301.8344949358621
    vertex 381.98004571618947 488.9999999998155 300.5000000009918
    vertex 383.3334760205243 489.98038361694097 301.8534303053287
  endloop
endfacet
facet normal -0.7071067811865689 -1.3878625775968447e-12 0.7071067811865263
  outer loop
    vertex 383.3334760205243 489.98038361694097 301.8534303053287
    vertex 381.98004571618947 488.9999999998155 300.5000000009918
    vertex 383.3624008994754 489.79810313699863 301.88235518427956
  endloop
endfacet
facet normal 9.9379875360924e-16 1.0 1.971925620204349e-12
  outer loop
    vertex 406.9800457161896 533.4999999998164 300.00000000107946
    vertex 395.13205888817856 533.4999999998043 306.1670133688362
    vertex 406.9800457161896 533.4999999998022 307.2500000010794
  endloop
endfacet
facet normal 9.9379875360924e-16 1.0 1.971925620204349e-12
  outer loop
    vertex 395.13205888817856 533.4999999998043 306.1670133688362
    vertex 406.9800457161896 533.4999999998164 300.00000000107946
    vertex 392.66982735813235 533.4999999998048 305.85610831458064
  endloop
endfacet
facet normal 9.9379875360924e-16 1.0 1.971925620204349e-12
  outer loop
    vertex 392.66982735813235 533.4999999998048 305.85610831458064
    vertex 406.9800457161896 533.4999999998164 300.00000000107946
    vertex 386.9800457161894 533.4999999998056 305.511094736021
  endloop
endfacet
facet normal 9.9379875360924e-16 1.0 1.971925620204349e-12
  outer loop
    vertex 386.9800457161894 533.4999999998056 305.511094736021
    vertex 406.9800457161896 533.4999999998164 300.00000000107946
    vertex 386.9800457161894 533.4999999998164 300.00000000107946
  endloop
endfacet
facet normal 0.8660254037844425 -9.851412492927364e-13 0.49999999999999345
  outer loop
    vertex 428.7962878570394 524.364024912213 306.0144303721062
    vertex 431.9800457161893 523.4999999998156 300.5000000010597
    vertex 428.7102277206502 524.80792719802 306.1634909008393
  endloop
endfacet
facet normal 0.8660254037844425 -9.851412492927364e-13 0.49999999999999345
  outer loop
    vertex 431.9800457161893 523.4999999998156 300.5000000010597
    vertex 428.7962878570394 524.364024912213 306.0144303721062
    vertex 429.62726629979943 521.1601038779152 304.5751334892449
  endloop
endfacet
facet normal 0.8660254037844425 -9.851412492927364e-13 0.49999999999999345
  outer loop
    vertex 431.9800457161893 523.4999999998156 300.5000000010597
    vertex 429.62726629979943 521.1601038779152 304.5751334892449
    vertex 430.37344363280175 517.566313528019 303.282716437022
  endloop
endfacet
facet normal 0.8660254037844425 -9.851412492927364e-13 0.49999999999999345
  outer loop
    vertex 431.9800457161893 523.4999999998156 300.5000000010597
    vertex 430.37344363280175 517.566313528019 303.282716437022
    vertex 430.9513542666779 514.0143409776143 302.28174585690675
  endloop
endfacet
facet normal 0.8660254037844425 -9.851412492927364e-13 0.49999999999999345
  outer loop
    vertex 431.9800457161893 523.4999999998156 300.5000000010597
    vertex 430.9513542666779 514.0143409776143 302.28174585690675
    vertex 431.36288366325016 510.492930630739 301.5689560332283
  endloop
endfacet
facet normal 0.8660254037844425 -9.851412492927364e-13 0.49999999999999345
  outer loop
    vertex 431.9800457161893 523.4999999998156 300.5000000010597
    vertex 431.36288366325016 510.492930630739 301.5689560332283
    vertex 431.9800457161893 503.99999999981554 300.5000000010213
  endloop
endfacet
facet normal 0.8660254037844425 -9.851412492927364e-13 0.49999999999999345
  outer loop
    vertex 430.37344363280175 517.566313528019 303.282716437022
    vertex 429.62726629979943 521.1601038779152 304.5751334892449
    vertex 429.6780420252723 520.8411809266137 304.48718735293374
  endloop
endfacet
facet normal 0.8660254037844425 -9.851412492927364e-13 0.49999999999999345
  outer loop
    vertex 430.9513542666779 514.0143409776143 302.28174585690675
    vertex 430.37344363280175 517.566313528019 303.282716437022
    vertex 430.4004815497923 517.3486234579859 303.235885391063
  endloop
endfacet
facet normal 0.8660254037844425 -9.851412492927364e-13 0.49999999999999345
  outer loop
    vertex 431.36288366325016 510.492930630739 301.5689560332283
    vertex 430.9513542666779 514.0143409776143 302.28174585690675
    vertex 430.96375731715216 513.8748637231222 302.2602631433163
  endloop
endfacet
facet normal 0.8660254037844425 -9.851412492927364e-13 0.49999999999999345
  outer loop
    vertex 431.9800457161893 503.99999999981554 300.5000000010213
    vertex 431.36288366325016 510.492930630739 301.5689560332283
    vertex 431.36736348394976 510.4091100610816 301.5611967561677
  endloop
endfacet
facet normal 0.8660254037844425 -9.851412492927364e-13 0.49999999999999345
  outer loop
    vertex 431.9800457161893 503.99999999981554 300.5000000010213
    vertex 431.36736348394976 510.4091100610816 301.5611967561677
    vertex 431.6093093374103 506.99152068285053 301.14213424528685
  endloop
endfacet
facet normal 0.8660254037844425 -9.851412492927364e-13 0.49999999999999345
  outer loop
    vertex 431.9800457161893 503.99999999981554 300.5000000010213
    vertex 431.6093093374103 506.99152068285053 301.14213424528685
    vertex 431.61020971462443 506.94103323975247 301.1405747462059
  endloop
endfacet
facet normal 0.8660254037844425 -9.851412492927364e-13 0.49999999999999345
  outer loop
    vertex 431.9800457161893 503.99999999981554 300.5000000010213
    vertex 431.61020971462443 506.94103323975247 301.1405747462059
    vertex 431.6723193943541 504.3077263216496 301.03299762526694
  endloop
endfacet
facet normal -0.018593955437237658 0.15381661895076656 0.9879244467851542
  outer loop
    vertex 383.3624008994754 489.79810313699863 301.88235518427956
    vertex 430.96375731715176 493.1251362765016 302.26026314327544
    vertex 383.3334760205243 489.98038361694097 301.8534303053287
  endloop
endfacet
facet normal -0.018593955437237658 0.15381661895076656 0.9879244467851542
  outer loop
    vertex 430.96375731715176 493.1251362765016 302.26026314327544
    vertex 383.3624008994754 489.79810313699863 301.88235518427956
    vertex 412.98752772549454 490.0934717584792 302.39394864364766
  endloop
endfacet
facet normal -0.018593955437237658 0.15381661895076656 0.9879244467851542
  outer loop
    vertex 430.96375731715176 493.1251362765016 302.26026314327544
    vertex 412.98752772549454 490.0934717584792 302.39394864364766
    vertex 413.017266803548 489.3842210583105 302.50493639391277
  endloop
endfacet
facet normal -0.018593955437237658 0.15381661895076656 0.9879244467851542
  outer loop
    vertex 430.96375731715176 493.1251362765016 302.26026314327544
    vertex 413.017266803548 489.3842210583105 302.50493639391277
    vertex 430.9513542666776 492.98565902200954 302.2817458568653
  endloop
endfacet
facet normal 0.8660254037844355 -9.84819852448123e-13 0.5000000000000054
  outer loop
    vertex 431.6723193943541 502.692273677979 301.03299762526376
    vertex 431.9800457161893 483.4999999998155 300.500000000981
    vertex 431.9800457161893 502.9999999998156 300.5000000010193
  endloop
endfacet
facet normal 0.8660254037844355 -9.84819852448123e-13 0.5000000000000054
  outer loop
    vertex 431.9800457161893 483.4999999998155 300.500000000981
    vertex 431.6723193943541 502.692273677979 301.03299762526376
    vertex 431.61020971462443 500.0589667598758 301.1405747461923
  endloop
endfacet
facet normal 0.8660254037844355 -9.84819852448123e-13 0.5000000000000054
  outer loop
    vertex 431.9800457161893 483.4999999998155 300.500000000981
    vertex 431.61020971462443 500.0589667598758 301.1405747461923
    vertex 431.6093093374103 500.0084793167779 301.14213424527316
  endloop
endfacet
facet normal 0.8660254037844355 -9.84819852448123e-13 0.5000000000000054
  outer loop
    vertex 431.9800457161893 483.4999999998155 300.500000000981
    vertex 431.6093093374103 500.0084793167779 301.14213424527316
    vertex 431.36736348394976 496.59088993854505 301.5611967561405
  endloop
endfacet
facet normal 0.8660254037844355 -9.84819852448123e-13 0.5000000000000054
  outer loop
    vertex 431.9800457161893 483.4999999998155 300.500000000981
    vertex 431.36736348394976 496.59088993854505 301.5611967561405
    vertex 431.36288366325016 496.50706936888764 301.5689560332007
  endloop
endfacet
facet normal 0.8660254037844355 -9.84819852448123e-13 0.5000000000000054
  outer loop
    vertex 431.9800457161893 483.4999999998155 300.500000000981
    vertex 431.36288366325016 496.50706936888764 301.5689560332007
    vertex 430.96375731715176 493.1251362765016 302.26026314327544
  endloop
endfacet
facet normal 0.8660254037844355 -9.84819852448123e-13 0.5000000000000054
  outer loop
    vertex 431.9800457161893 483.4999999998155 300.500000000981
    vertex 430.96375731715176 493.1251362765016 302.26026314327544
    vertex 430.9513542666776 492.98565902200954 302.2817458568653
  endloop
endfacet
facet normal 0.8660254037844355 -9.84819852448123e-13 0.5000000000000054
  outer loop
    vertex 431.9800457161893 483.4999999998155 300.500000000981
    vertex 430.9513542666776 492.98565902200954 302.2817458568653
    vertex 430.40048154979195 489.6513765416343 303.2358853910084
  endloop
endfacet
facet normal 0.8660254037844355 -9.84819852448123e-13 0.5000000000000054
  outer loop
    vertex 431.9800457161893 483.4999999998155 300.500000000981
    vertex 430.40048154979195 489.6513765416343 303.2358853910084
    vertex 430.37344363280135 489.4336864716011 303.2827164369665
  endloop
endfacet
facet normal 0.8660254037844355 -9.84819852448123e-13 0.5000000000000054
  outer loop
    vertex 431.9800457161893 483.4999999998155 300.500000000981
    vertex 430.37344363280135 489.4336864716011 303.2827164369665
    vertex 429.6780420252723 486.15881907300127 304.4871873528656
  endloop
endfacet
facet normal 0.8660254037844355 -9.84819852448123e-13 0.5000000000000054
  outer loop
    vertex 431.9800457161893 483.4999999998155 300.500000000981
    vertex 429.6780420252723 486.15881907300127 304.4871873528656
    vertex 429.6272662997991 485.83989612169944 304.57513348917536
  endloop
endfacet
facet normal 0.8660254037844355 -9.84819852448123e-13 0.5000000000000054
  outer loop
    vertex 431.9800457161893 483.4999999998155 300.500000000981
    vertex 429.6272662997991 485.83989612169944 304.57513348917536
    vertex 428.7962878570394 482.63597508739605 306.01443037202404
  endloop
endfacet
facet normal 0.8660254037844355 -9.84819852448123e-13 0.5000000000000054
  outer loop
    vertex 431.9800457161893 483.4999999998155 300.500000000981
    vertex 428.7962878570394 482.63597508739605 306.01443037202404
    vertex 428.7102277206502 482.19207280158867 306.1634909007554
  endloop
endfacet
facet normal 0.0 -1.0 -1.9698374875698473e-12
  outer loop
    vertex 395.1320588881789 473.4999999998044 306.167013368718
    vertex 406.9800457161896 473.4999999998164 300.00000000096117
    vertex 406.9800457161896 473.49999999980224 307.25000000096117
  endloop
endfacet
facet normal 0.0 -1.0 -1.9698374875698473e-12
  outer loop
    vertex 406.9800457161896 473.4999999998164 300.00000000096117
    vertex 395.1320588881789 473.4999999998044 306.167013368718
    vertex 392.6698273581327 473.49999999980497 305.8561083144624
  endloop
endfacet
facet normal 0.0 -1.0 -1.9698374875698473e-12
  outer loop
    vertex 406.9800457161896 473.4999999998164 300.00000000096117
    vertex 392.6698273581327 473.49999999980497 305.8561083144624
    vertex 386.99185663453886 473.4999999998057 305.5118109193105
  endloop
endfacet
facet normal 0.0 -1.0 -1.9698374875698473e-12
  outer loop
    vertex 406.9800457161896 473.4999999998164 300.00000000096117
    vertex 386.99185663453886 473.4999999998057 305.5118109193105
    vertex 381.98004571618947 473.4999999998156 300.50000000096117
  endloop
endfacet
facet normal 0.0 -1.0 -1.9698374875698473e-12
  outer loop
    vertex 406.9800457161896 473.4999999998164 300.00000000096117
    vertex 381.98004571618947 473.4999999998156 300.50000000096117
    vertex 381.98004571618947 473.4999999998164 300.00000000096117
  endloop
endfacet
facet normal -1.2154486135140246e-16 -0.8660254037854253 0.4999999999982911
  outer loop
    vertex 382.11388831569417 504.30305559684206 301.0249076925927
    vertex 431.6723193943541 504.3077263216496 301.03299762526694
    vertex 393.62991568933097 504.3077263216496 301.03299762526694
  endloop
endfacet
facet normal -1.2154486135140246e-16 -0.8660254037854253 0.4999999999982911
  outer loop
    vertex 431.6723193943541 504.3077263216496 301.03299762526694
    vertex 382.11388831569417 504.30305559684206 301.0249076925927
    vertex 431.9800457161893 503.99999999981554 300.5000000010213
  endloop
endfacet
facet normal -1.2154486135140246e-16 -0.8660254037854253 0.4999999999982911
  outer loop
    vertex 431.9800457161893 503.99999999981554 300.5000000010213
    vertex 382.11388831569417 504.30305559684206 301.0249076925927
    vertex 382.0633790495228 503.99999999981554 300.5000000010213
  endloop
endfacet
endsolid ProtoGlove baseplate
