solid ProtoGlove baseplate
facet normal 0.0 1.9698374875698473e-12 1.0
  outer loop
    vertex 6.125000000000773 -568.9999999996073 300.50000000103273
    vertex 6.375000000000716 -569.9999999996074 300.5000000010347
    vertex 35.20710678118723 -568.9999999996073 300.50000000103273
  endloop
endfacet
facet normal 0.0 1.9698374875698473e-12 1.0
  outer loop
    vertex 34.79289321881418 -569.9999999996074 300.5000000010347
    vertex 35.20710678118723 -568.9999999996073 300.50000000103273
    vertex 6.375000000000716 -569.9999999996074 300.5000000010347
  endloop
endfacet
facet normal 0.0 1.9698374875698473e-12 1.0
  outer loop
    vertex 7.219114195322617e-13 -543.9999999996073 300.5000000009835
    vertex 7.219114195322617e-13 -544.4999999996074 300.50000000098447
    vertex 80.00000000000094 -543.9999999996073 300.5000000009835
  endloop
endfacet
facet normal 0.0 1.9698374875698473e-12 1.0
  outer loop
    vertex 0.12500000000069347 -544.9999999996073 300.5000000009855
    vertex 80.00000000000094 -543.9999999996073 300.5000000009835
    vertex 7.219114195322617e-13 -544.4999999996074 300.50000000098447
  endloop
endfacet
facet normal 0.0 1.9698374875698473e-12 1.0
  outer loop
    vertex 80.00000000000094 -544.9999999996073 300.5000000009855
    vertex 80.00000000000094 -543.9999999996073 300.5000000009835
    vertex 0.12500000000069347 -544.9999999996073 300.5000000009855
  endloop
endfacet
facet normal 0.8660254037844397 9.863769427599237e-13 0.4999999999999984
  outer loop
    vertex 73.8264375503166 -577.0993947152426 311.1929238276014
    vertex 80.00000000000094 -574.4999999996073 300.5000000010436
    vertex 73.99357149404125 -576.2629881101523 310.90343934539953
  endloop
endfacet
facet normal 0.8660254037844397 9.863769427599237e-13 0.4999999999999984
  outer loop
    vertex 75.60542716315817 -571.5803965325805 308.11162343201164
    vertex 73.99357149404125 -576.2629881101523 310.90343934539953
    vertex 80.00000000000094 -574.4999999996073 300.5000000010436
  endloop
endfacet
facet normal 0.8660254037844397 9.863769427599237e-13 0.4999999999999984
  outer loop
    vertex 77.07293878986896 -566.1124683230607 305.56981873383944
    vertex 75.60542716315817 -571.5803965325805 308.11162343201164
    vertex 80.00000000000094 -574.4999999996073 300.5000000010436
  endloop
endfacet
facet normal 0.8660254037844397 9.863769427599237e-13 0.4999999999999984
  outer loop
    vertex 78.22238699107949 -560.6810939966779 303.57891604866353
    vertex 77.07293878986896 -566.1124683230607 305.56981873383944
    vertex 80.00000000000094 -574.4999999996073 300.5000000010436
  endloop
endfacet
facet normal 0.8660254037844397 9.863769427599237e-13 0.4999999999999984
  outer loop
    vertex 79.0479875022518 -555.2746469781641 302.14893401654774
    vertex 78.22238699107949 -560.6810939966779 303.57891604866353
    vertex 80.00000000000094 -574.4999999996073 300.5000000010436
  endloop
endfacet
facet normal 0.8660254037844397 9.863769427599237e-13 0.4999999999999984
  outer loop
    vertex 80.00000000000094 -545.4999999996074 300.5000000009866
    vertex 79.0479875022518 -555.2746469781641 302.14893401654774
    vertex 80.00000000000094 -574.4999999996073 300.5000000010436
  endloop
endfacet
facet normal 0.8660254037844397 9.863769427599237e-13 0.4999999999999984
  outer loop
    vertex 75.70335578100357 -570.9862398388726 307.9420060903873
    vertex 75.60542716315817 -571.5803965325805 308.11162343201164
    vertex 77.07293878986896 -566.1124683230607 305.56981873383944
  endloop
endfacet
facet normal 0.8660254037844397 9.863769427599237e-13 0.4999999999999984
  outer loop
    vertex 77.123972396257 -565.7169930521637 305.48142593468134
    vertex 77.07293878986896 -566.1124683230607 305.56981873383944
    vertex 78.22238699107949 -560.6810939966779 303.57891604866353
  endloop
endfacet
facet normal 0.8660254037844397 9.863769427599237e-13 0.4999999999999984
  outer loop
    vertex 78.24465178897717 -560.4407848785463 303.5403522874841
    vertex 78.22238699107949 -560.6810939966779 303.57891604866353
    vertex 79.0479875022518 -555.2746469781641 302.14893401654774
  endloop
endfacet
facet normal 0.8660254037844397 9.863769427599237e-13 0.4999999999999984
  outer loop
    vertex 79.05518079201308 -555.1457278799232 302.1364748732073
    vertex 79.0479875022518 -555.2746469781641 302.14893401654774
    vertex 80.00000000000094 -545.4999999996074 300.5000000009866
  endloop
endfacet
facet normal 0.8660254037844397 9.863769427599237e-13 0.4999999999999984
  outer loop
    vertex 79.54524751905005 -549.8836397522828 301.28765440286975
    vertex 79.05518079201308 -555.1457278799232 302.1364748732073
    vertex 80.00000000000094 -545.4999999996074 300.5000000009866
  endloop
endfacet
facet normal 0.8660254037844397 9.863769427599237e-13 0.4999999999999984
  outer loop
    vertex 79.54639865423789 -549.821887421476 301.28566057823787
    vertex 79.54524751905005 -549.8836397522828 301.28765440286975
    vertex 80.00000000000094 -545.4999999996074 300.5000000009866
  endloop
endfacet
facet normal 0.8660254037844397 9.863769427599237e-13 0.4999999999999984
  outer loop
    vertex 79.68610202651367 -545.3138979730932 301.0436872394587
    vertex 79.54639865423789 -549.821887421476 301.28566057823787
    vertex 80.00000000000094 -545.4999999996074 300.5000000009866
  endloop
endfacet
facet normal 0.8660254037844397 9.863769427599237e-13 0.4999999999999984
  outer loop
    vertex 80.00000000000094 -544.9999999996073 300.5000000009855
    vertex 79.68610202651367 -545.3138979730932 301.0436872394587
    vertex 80.00000000000094 -545.4999999996074 300.5000000009866
  endloop
endfacet
facet normal 7.465258411347912e-16 -1.9695596483352652e-12 -1.0
  outer loop
    vertex 32.500000000001094 -594.4999999996081 300.0000000010829
    vertex 34.79289321881418 -569.9999999996082 300.0000000010347
    vertex 45.000000000000774 -589.2368421048714 300.00000000107264
  endloop
endfacet
facet normal 7.465258411347912e-16 -1.9695596483352652e-12 -1.0
  outer loop
    vertex 45.000000000000774 -580.2071067807947 300.00000000105496
    vertex 45.000000000000774 -589.2368421048714 300.00000000107264
    vertex 34.79289321881418 -569.9999999996082 300.0000000010347
  endloop
endfacet
facet normal 7.465258411347912e-16 -1.9695596483352652e-12 -1.0
  outer loop
    vertex 34.79289321881418 -569.9999999996082 300.0000000010347
    vertex 34.79289321881418 -518.9999999996082 300.0000000009342
    vertex 35.20710678118723 -568.9999999996081 300.0000000010328
  endloop
endfacet
facet normal 7.465258411347912e-16 -1.9695596483352652e-12 -1.0
  outer loop
    vertex 35.20710678118723 -519.9999999996082 300.00000000093627
    vertex 35.20710678118723 -568.9999999996081 300.0000000010328
    vertex 34.79289321881418 -518.9999999996082 300.0000000009342
  endloop
endfacet
facet normal 7.465258411347912e-16 -1.9695596483352652e-12 -1.0
  outer loop
    vertex 52.34944551268779 -586.1423387311085 300.00000000106655
    vertex 35.20710678118723 -568.9999999996081 300.0000000010328
    vertex 35.20710678118723 -519.9999999996082 300.00000000093627
  endloop
endfacet
facet normal 7.465258411347912e-16 -1.9695596483352652e-12 -1.0
  outer loop
    vertex 52.3494455126876 -502.85766126810785 300.0000000009025
    vertex 52.34944551268779 -586.1423387311085 300.00000000106655
    vertex 35.20710678118723 -519.9999999996082 300.00000000093627
  endloop
endfacet
facet normal 7.465258411347912e-16 -1.9695596483352652e-12 -1.0
  outer loop
    vertex 80.00000000000094 -514.4999999996082 300.00000000092547
    vertex 52.34944551268779 -586.1423387311085 300.00000000106655
    vertex 52.3494455126876 -502.85766126810785 300.0000000009025
  endloop
endfacet
facet normal 7.465258411347912e-16 -1.9695596483352652e-12 -1.0
  outer loop
    vertex 80.00000000000094 -574.4999999996082 300.0000000010436
    vertex 52.34944551268779 -586.1423387311085 300.00000000106655
    vertex 80.00000000000094 -514.4999999996082 300.00000000092547
  endloop
endfacet
facet normal 7.465258411347912e-16 -1.9695596483352652e-12 -1.0
  outer loop
    vertex 7.219114195322617e-13 -544.4999999996082 300.00000000098447
    vertex 7.219114195322617e-13 -494.49999999960824 300.000000000886
    vertex 12.500000000000767 -594.4999999996082 300.0000000010829
  endloop
endfacet
facet normal 7.465258411347912e-16 -1.9695596483352652e-12 -1.0
  outer loop
    vertex 32.50000000000091 -494.49999999960824 300.000000000886
    vertex 12.500000000000767 -594.4999999996082 300.0000000010829
    vertex 7.219114195322617e-13 -494.49999999960824 300.000000000886
  endloop
endfacet
facet normal 7.465258411347912e-16 -1.9695596483352652e-12 -1.0
  outer loop
    vertex 32.500000000001094 -594.4999999996081 300.0000000010829
    vertex 12.500000000000767 -594.4999999996082 300.0000000010829
    vertex 32.50000000000091 -494.49999999960824 300.000000000886
  endloop
endfacet
facet normal 7.465258411347912e-16 -1.9695596483352652e-12 -1.0
  outer loop
    vertex 34.79289321881418 -518.9999999996082 300.0000000009342
    vertex 32.500000000001094 -594.4999999996081 300.0000000010829
    vertex 32.50000000000091 -494.49999999960824 300.000000000886
  endloop
endfacet
facet normal 7.465258411347912e-16 -1.9695596483352652e-12 -1.0
  outer loop
    vertex 45.000000000000774 -499.763157894345 300.0000000008964
    vertex 34.79289321881418 -518.9999999996082 300.0000000009342
    vertex 32.50000000000091 -494.49999999960824 300.000000000886
  endloop
endfacet
facet normal 7.465258411347912e-16 -1.9695596483352652e-12 -1.0
  outer loop
    vertex 34.79289321881418 -569.9999999996082 300.0000000010347
    vertex 32.500000000001094 -594.4999999996081 300.0000000010829
    vertex 34.79289321881418 -518.9999999996082 300.0000000009342
  endloop
endfacet
facet normal 7.465258411347912e-16 -1.9695596483352652e-12 -1.0
  outer loop
    vertex 45.000000000000774 -508.7928932184217 300.0000000009142
    vertex 34.79289321881418 -518.9999999996082 300.0000000009342
    vertex 45.000000000000774 -499.763157894345 300.0000000008964
  endloop
endfacet
facet normal 1.0 0.0 0.0
  outer loop
    vertex 80.00000000000094 -574.4999999996082 300.0000000010436
    vertex 80.00000000000094 -514.4999999996082 300.00000000092547
    vertex 80.00000000000094 -574.4999999996073 300.5000000010436
  endloop
endfacet
facet normal 1.0 0.0 0.0
  outer loop
    vertex 80.00000000000094 -545.4999999996074 300.5000000009866
    vertex 80.00000000000094 -574.4999999996073 300.5000000010436
    vertex 80.00000000000094 -514.4999999996082 300.00000000092547
  endloop
endfacet
facet normal 1.0 0.0 0.0
  outer loop
    vertex 80.00000000000094 -544.9999999996073 300.5000000009855
    vertex 80.00000000000094 -545.4999999996074 300.5000000009866
    vertex 80.00000000000094 -514.4999999996082 300.00000000092547
  endloop
endfacet
facet normal 1.0 0.0 0.0
  outer loop
    vertex 80.00000000000094 -543.9999999996073 300.5000000009835
    vertex 80.00000000000094 -544.9999999996073 300.5000000009855
    vertex 80.00000000000094 -514.4999999996082 300.00000000092547
  endloop
endfacet
facet normal 1.0 0.0 0.0
  outer loop
    vertex 80.00000000000094 -514.4999999996074 300.5000000009253
    vertex 80.00000000000094 -543.9999999996073 300.5000000009835
    vertex 80.00000000000094 -514.4999999996082 300.00000000092547
  endloop
endfacet
facet normal -0.6830127018922169 -0.6830127018917116 0.2588190451038673
  outer loop
    vertex 55.35474344944501 -584.8769501261348 311.7701642682689
    vertex 49.86643319737547 -580.5682959801986 308.657100838054
    vertex 52.34944551268779 -586.1423387311082 300.50000000106655
  endloop
endfacet
facet normal -0.6830127018922169 -0.6830127018917116 0.2588190451038673
  outer loop
    vertex 35.20710678118723 -568.9999999996073 300.50000000103273
    vertex 52.34944551268779 -586.1423387311082 300.50000000106655
    vertex 49.86643319737547 -580.5682959801986 308.657100838054
  endloop
endfacet
facet normal -0.6830127018922169 -0.6830127018917116 0.2588190451038673
  outer loop
    vertex 52.57001307816405 -582.5511639763481 310.55902954433134
    vertex 49.86643319737547 -580.5682959801986 308.657100838054
    vertex 55.35474344944501 -584.8769501261348 311.7701642682689
  endloop
endfacet
facet normal -0.6830127018922169 -0.6830127018917116 0.2588190451038673
  outer loop
    vertex 46.2591938906979 -577.4306477340174 307.4178695485369
    vertex 35.20710678118723 -568.9999999996073 300.50000000103273
    vertex 49.86643319737547 -580.5682959801986 308.657100838054
  endloop
endfacet
facet normal -0.6830127018922169 -0.6830127018917116 0.2588190451038673
  outer loop
    vertex 43.69508929873259 -575.3986976497566 306.0135359223682
    vertex 35.20710678118723 -568.9999999996073 300.50000000103273
    vertex 46.2591938906979 -577.4306477340174 307.4178695485369
  endloop
endfacet
facet normal -0.6830127018922169 -0.6830127018917116 0.2588190451038673
  outer loop
    vertex 39.10161451677823 -571.2547459055406 304.8272633107543
    vertex 35.20710678118723 -568.9999999996073 300.50000000103273
    vertex 43.69508929873259 -575.3986976497566 306.0135359223682
  endloop
endfacet
facet normal -0.6830127018922169 -0.6830127018917116 0.2588190451038673
  outer loop
    vertex 36.787940403504884 -569.2985775810597 303.88382039430206
    vertex 35.20710678118723 -568.9999999996073 300.50000000103273
    vertex 39.10161451677823 -571.2547459055406 304.8272633107543
  endloop
endfacet
facet normal -0.6830127018922169 -0.6830127018917116 0.2588190451038673
  outer loop
    vertex 34.612727906901185 -567.2704510380069 303.49566667668887
    vertex 35.20710678118723 -568.9999999996073 300.50000000103273
    vertex 36.787940403504884 -569.2985775810597 303.88382039430206
  endloop
endfacet
facet normal -0.9701425001453321 -0.24253562503633272 4.805925717721223e-13
  outer loop
    vertex 12.500000000000767 -594.4999999995885 309.98447436110484
    vertex 12.296841932344979 -593.6873677289665 309.4532999131446
    vertex 12.500000000000767 -594.4999999996082 300.0000000010829
  endloop
endfacet
facet normal -0.9701425001453321 -0.24253562503633272 4.805925717721223e-13
  outer loop
    vertex 6.375000000000716 -569.9999999996074 300.5000000010347
    vertex 12.500000000000767 -594.4999999996082 300.0000000010829
    vertex 12.296841932344979 -593.6873677289665 309.4532999131446
  endloop
endfacet
facet normal -0.9701425001453321 -0.24253562503633272 4.805925717721223e-13
  outer loop
    vertex 7.219114195322617e-13 -544.4999999996082 300.00000000098447
    vertex 12.500000000000767 -594.4999999996082 300.0000000010829
    vertex 6.375000000000716 -569.9999999996074 300.5000000010347
  endloop
endfacet
facet normal -0.9701425001453321 -0.24253562503633272 4.805925717721223e-13
  outer loop
    vertex 12.456303630554324 -594.3252145218032 309.9141527959045
    vertex 12.296841932344979 -593.6873677289665 309.4532999131446
    vertex 12.500000000000767 -594.4999999995885 309.98447436110484
  endloop
endfacet
facet normal -0.9701425001453321 -0.24253562503633272 4.805925717721223e-13
  outer loop
    vertex 10.063855587647753 -584.7554223501829 306.46062154042164
    vertex 6.375000000000716 -569.9999999996074 300.5000000010347
    vertex 12.296841932344979 -593.6873677289665 309.4532999131446
  endloop
endfacet
facet normal -0.9701425001453321 -0.24253562503633272 4.805925717721223e-13
  outer loop
    vertex 10.2054231685594 -585.3216926738301 306.77607513179066
    vertex 10.063855587647753 -584.7554223501829 306.46062154042164
    vertex 12.296841932344979 -593.6873677289665 309.4532999131446
  endloop
endfacet
facet normal -0.9701425001453321 -0.24253562503633272 4.805925717721223e-13
  outer loop
    vertex 7.827416356470724 -575.8096654254792 304.28920063735
    vertex 6.375000000000716 -569.9999999996074 300.5000000010347
    vertex 10.063855587647753 -584.7554223501829 306.46062154042164
  endloop
endfacet
facet normal -0.9701425001453321 -0.24253562503633272 4.805925717721223e-13
  outer loop
    vertex 7.71146642875248 -575.3458657146073 304.097785923008
    vertex 6.375000000000716 -569.9999999996074 300.5000000010347
    vertex 7.827416356470724 -575.8096654254792 304.28920063735
  endloop
endfacet
facet normal -0.9701425001453321 -0.24253562503633272 4.805925717721223e-13
  outer loop
    vertex 6.805613906882686 -571.722455627129 303.48338066169896
    vertex 6.375000000000716 -569.9999999996074 300.5000000010347
    vertex 7.71146642875248 -575.3458657146073 304.097785923008
  endloop
endfacet
facet normal -0.9701425001453321 -0.24253562503633272 4.805925717721223e-13
  outer loop
    vertex 6.125000000000773 -568.9999999996073 300.50000000103273
    vertex 7.219114195322617e-13 -544.4999999996082 300.00000000098447
    vertex 6.375000000000716 -569.9999999996074 300.5000000010347
  endloop
endfacet
facet normal -0.9701425001453321 -0.24253562503633272 4.805925717721223e-13
  outer loop
    vertex 5.2457598456479255 -565.4830393821921 302.3874990396798
    vertex 7.219114195322617e-13 -544.4999999996082 300.00000000098447
    vertex 6.125000000000773 -568.9999999996073 300.50000000103273
  endloop
endfacet
facet normal -0.9701425001453321 -0.24253562503633272 4.805925717721223e-13
  outer loop
    vertex 5.7934733149896624 -567.6738932595579 302.79688425104723
    vertex 5.2457598456479255 -565.4830393821921 302.3874990396798
    vertex 6.125000000000773 -568.9999999996073 300.50000000103273
  endloop
endfacet
facet normal -0.9701425001453321 -0.24253562503633272 4.805925717721223e-13
  outer loop
    vertex 5.32895267446203 -565.8158106974486 302.4818175943495
    vertex 5.2457598456479255 -565.4830393821921 302.3874990396798
    vertex 5.7934733149896624 -567.6738932595579 302.79688425104723
  endloop
endfacet
facet normal -0.9701425001453321 -0.24253562503633272 4.805925717721223e-13
  outer loop
    vertex 2.6731017779689763 -555.1924071114782 301.34933574477765
    vertex 7.219114195322617e-13 -544.4999999996082 300.00000000098447
    vertex 5.2457598456479255 -565.4830393821921 302.3874990396798
  endloop
endfacet
facet normal -0.9701425001453321 -0.24253562503633272 4.805925717721223e-13
  outer loop
    vertex 2.7172652807387108 -555.3690611225569 301.37846224166026
    vertex 2.6731017779689763 -555.1924071114782 301.34933574477765
    vertex 5.2457598456479255 -565.4830393821921 302.3874990396798
  endloop
endfacet
facet normal -0.9701425001453321 -0.24253562503633272 4.805925717721223e-13
  outer loop
    vertex 0.12500000000069347 -544.9999999996073 300.5000000009855
    vertex 7.219114195322617e-13 -544.4999999996082 300.00000000098447
    vertex 2.6731017779689763 -555.1924071114782 301.34933574477765
  endloop
endfacet
facet normal -0.9701425001453321 -0.24253562503633272 4.805925717721223e-13
  outer loop
    vertex 0.20095944808309696 -545.3038377919345 301.02626249455915
    vertex 0.12500000000069347 -544.9999999996073 300.5000000009855
    vertex 2.6731017779689763 -555.1924071114782 301.34933574477765
  endloop
endfacet
facet normal -0.9701425001453321 -0.24253562503633272 4.805925717721223e-13
  outer loop
    vertex 7.219114195322617e-13 -544.4999999996074 300.50000000098447
    vertex 7.219114195322617e-13 -544.4999999996082 300.00000000098447
    vertex 0.12500000000069347 -544.9999999996073 300.5000000009855
  endloop
endfacet
facet normal 2.1203645617333476e-16 0.8660254037854177 0.4999999999983043
  outer loop
    vertex 12.165355546008263 -545.3138979730932 301.0436872394587
    vertex 79.68610202651367 -545.3138979730932 301.0436872394587
    vertex 0.20095944808309696 -545.3038377919345 301.02626249455915
  endloop
endfacet
facet normal 2.1203645617333476e-16 0.8660254037854177 0.4999999999983043
  outer loop
    vertex 80.00000000000094 -544.9999999996073 300.5000000009855
    vertex 0.20095944808309696 -545.3038377919345 301.02626249455915
    vertex 79.68610202651367 -545.3138979730932 301.0436872394587
  endloop
endfacet
facet normal 2.1203645617333476e-16 0.8660254037854177 0.4999999999983043
  outer loop
    vertex 0.12500000000069347 -544.9999999996073 300.5000000009855
    vertex 0.20095944808309696 -545.3038377919345 301.02626249455915
    vertex 80.00000000000094 -544.9999999996073 300.5000000009855
  endloop
endfacet
facet normal -1.0 0.0 0.0
  outer loop
    vertex 7.219114195322617e-13 -544.4999999996082 300.00000000098447
    vertex 7.219114195322617e-13 -544.4999999996074 300.50000000098447
    vertex 7.219114195322617e-13 -494.49999999960824 300.000000000886
  endloop
endfacet
facet normal -1.0 0.0 0.0
  outer loop
    vertex 7.219114195322617e-13 -543.9999999996073 300.5000000009835
    vertex 7.219114195322617e-13 -494.49999999960824 300.000000000886
    vertex 7.219114195322617e-13 -544.4999999996074 300.50000000098447
  endloop
endfacet
facet normal -1.0 0.0 0.0
  outer loop
    vertex 7.219114195322617e-13 -520.4999999996073 300.50000000093735
    vertex 7.219114195322617e-13 -494.49999999960824 300.000000000886
    vertex 7.219114195322617e-13 -543.9999999996073 300.5000000009835
  endloop
endfacet
facet normal -1.0 0.0 0.0
  outer loop
    vertex 7.219114195322617e-13 -519.9999999996074 300.50000000093627
    vertex 7.219114195322617e-13 -494.49999999960824 300.000000000886
    vertex 7.219114195322617e-13 -520.4999999996073 300.50000000093735
  endloop
endfacet
facet normal -1.0 0.0 0.0
  outer loop
    vertex 7.219114195322617e-13 -518.9999999996073 300.5000000009342
    vertex 7.219114195322617e-13 -494.49999999960824 300.000000000886
    vertex 7.219114195322617e-13 -519.9999999996074 300.50000000093627
  endloop
endfacet
facet normal -1.0 0.0 0.0
  outer loop
    vertex 7.219114195322617e-13 -494.49999999960744 300.50000000088596
    vertex 7.219114195322617e-13 -494.49999999960824 300.000000000886
    vertex 7.219114195322617e-13 -518.9999999996073 300.5000000009342
  endloop
endfacet
facet normal -1.1712049922181645e-16 -0.866025403783477 0.500000000001666
  outer loop
    vertex 79.68610202651402 -543.686102026119 301.0436872394554
    vertex 12.165355546008263 -543.686102026119 301.0436872394554
    vertex 80.00000000000094 -543.9999999996073 300.5000000009835
  endloop
endfacet
facet normal -1.1712049922181645e-16 -0.866025403783477 0.500000000001666
  outer loop
    vertex 0.5267369504394083 -543.6958882794777 301.0267369514216
    vertex 80.00000000000094 -543.9999999996073 300.5000000009835
    vertex 12.165355546008263 -543.686102026119 301.0436872394554
  endloop
endfacet
facet normal -1.1712049922181645e-16 -0.866025403783477 0.500000000001666
  outer loop
    vertex 7.219114195322617e-13 -543.9999999996073 300.5000000009835
    vertex 80.00000000000094 -543.9999999996073 300.5000000009835
    vertex 0.5267369504394083 -543.6958882794777 301.0267369514216
  endloop
endfacet
facet normal 0.0 1.9698374875698473e-12 1.0
  outer loop
    vertex 7.219114195322617e-13 -518.9999999996073 300.5000000009342
    vertex 7.219114195322617e-13 -519.9999999996074 300.50000000093627
    vertex 34.79289321881418 -518.9999999996073 300.5000000009342
  endloop
endfacet
facet normal 0.0 1.9698374875698473e-12 1.0
  outer loop
    vertex 35.20710678118723 -519.9999999996074 300.50000000093627
    vertex 34.79289321881418 -518.9999999996073 300.5000000009342
    vertex 7.219114195322617e-13 -519.9999999996074 300.50000000093627
  endloop
endfacet
facet normal 1.8439932935698495e-16 -0.8660254037834549 0.5000000000017039
  outer loop
    vertex 35.67720482683888 -516.4267924218192 304.95692626406424
    vertex 31.10818014147825 -516.5810531737554 304.68973880409703
    vertex 34.79289321881418 -518.9999999996073 300.5000000009342
  endloop
endfacet
facet normal 1.8439932935698495e-16 -0.8660254037834549 0.5000000000017039
  outer loop
    vertex 23.755643850609815 -516.9909819305624 303.97972136982827
    vertex 34.79289321881418 -518.9999999996073 300.5000000009342
    vertex 31.10818014147825 -516.5810531737554 304.68973880409703
  endloop
endfacet
facet normal 1.8439932935698495e-16 -0.8660254037834549 0.5000000000017039
  outer loop
    vertex 2.8680794701915926 -517.3441135454299 303.36807947112163
    vertex 34.79289321881418 -518.9999999996073 300.5000000009342
    vertex 23.755643850609815 -516.9909819305624 303.97972136982827
  endloop
endfacet
facet normal 1.8439932935698495e-16 -0.8660254037834549 0.5000000000017039
  outer loop
    vertex 7.219114195322617e-13 -518.9999999996073 300.5000000009342
    vertex 34.79289321881418 -518.9999999996073 300.5000000009342
    vertex 2.8680794701915926 -517.3441135454299 303.36807947112163
  endloop
endfacet
facet normal -0.6830127018922181 0.683012701892729 0.25881904510117926
  outer loop
    vertex 55.35474344944483 -504.12304987303503 311.77016426810985
    vertex 52.3494455126876 -502.85766126810705 300.5000000009025
    vertex 52.57001307816405 -506.4488360228268 310.5590295441813
  endloop
endfacet
facet normal -0.6830127018922181 0.683012701892729 0.25881904510117926
  outer loop
    vertex 49.86643319737547 -508.4317040189835 308.6571008379119
    vertex 52.57001307816405 -506.4488360228268 310.5590295441813
    vertex 52.3494455126876 -502.85766126810705 300.5000000009025
  endloop
endfacet
facet normal -0.6830127018922181 0.683012701892729 0.25881904510117926
  outer loop
    vertex 46.259193890697716 -511.5693522651695 307.41786954840705
    vertex 49.86643319737547 -508.4317040189835 308.6571008379119
    vertex 52.3494455126876 -502.85766126810705 300.5000000009025
  endloop
endfacet
facet normal -0.6830127018922181 0.683012701892729 0.25881904510117926
  outer loop
    vertex 43.695089298732775 -513.601302349436 306.01353592224655
    vertex 46.259193890697716 -511.5693522651695 307.41786954840705
    vertex 52.3494455126876 -502.85766126810705 300.5000000009025
  endloop
endfacet
facet normal -0.6830127018922181 0.683012701892729 0.25881904510117926
  outer loop
    vertex 39.10161451677804 -517.7452540936566 304.8272633106488
    vertex 43.695089298732775 -513.601302349436 306.01353592224655
    vertex 52.3494455126876 -502.85766126810705 300.5000000009025
  endloop
endfacet
facet normal -0.6830127018922181 0.683012701892729 0.25881904510117926
  outer loop
    vertex 36.787940403504706 -519.7014224181413 303.88382039420435
    vertex 39.10161451677804 -517.7452540936566 304.8272633106488
    vertex 52.3494455126876 -502.85766126810705 300.5000000009025
  endloop
endfacet
facet normal -0.6830127018922181 0.683012701892729 0.25881904510117926
  outer loop
    vertex 34.612727906901185 -521.7295489611956 303.4956666765991
    vertex 36.787940403504706 -519.7014224181413 303.88382039420435
    vertex 52.3494455126876 -502.85766126810705 300.5000000009025
  endloop
endfacet
facet normal -0.6830127018922181 0.683012701892729 0.25881904510117926
  outer loop
    vertex 35.20710678118723 -519.9999999996074 300.50000000093627
    vertex 34.612727906901185 -521.7295489611956 303.4956666765991
    vertex 52.3494455126876 -502.85766126810705 300.5000000009025
  endloop
endfacet
facet normal 0.38805700005813465 0.9216353751380646 -1.8120932108673289e-12
  outer loop
    vertex 32.50000000000073 -494.4999999995836 312.484375000886
    vertex 34.58064516129096 -495.37606112012696 312.4193548395974
    vertex 32.50000000000091 -494.49999999960824 300.000000000886
  endloop
endfacet
facet normal 0.38805700005813465 0.9216353751380646 -1.8120932108673289e-12
  outer loop
    vertex 45.000000000000774 -499.7631578943409 302.0000000008964
    vertex 32.50000000000091 -494.49999999960824 300.000000000886
    vertex 34.58064516129096 -495.37606112012696 312.4193548395974
  endloop
endfacet
facet normal 0.38805700005813465 0.9216353751380646 -1.8120932108673289e-12
  outer loop
    vertex 45.000000000000774 -499.763157894345 300.0000000008964
    vertex 32.50000000000091 -494.49999999960824 300.000000000886
    vertex 45.000000000000774 -499.7631578943409 302.0000000008964
  endloop
endfacet
facet normal 0.38805700005813226 -0.9216353751380656 1.8143564704983645e-12
  outer loop
    vertex 32.50000000000073 -594.499999999584 312.4843750010829
    vertex 32.500000000001094 -594.4999999996081 300.0000000010829
    vertex 34.58064516129114 -593.6239388790405 312.4193548397909
  endloop
endfacet
facet normal 0.38805700005813226 -0.9216353751380656 1.8143564704983645e-12
  outer loop
    vertex 45.000000000000774 -589.2368421048674 302.00000000107264
    vertex 34.58064516129114 -593.6239388790405 312.4193548397909
    vertex 32.500000000001094 -594.4999999996081 300.0000000010829
  endloop
endfacet
facet normal 0.38805700005813226 -0.9216353751380656 1.8143564704983645e-12
  outer loop
    vertex 45.000000000000774 -589.2368421048714 300.00000000107264
    vertex 45.000000000000774 -589.2368421048674 302.00000000107264
    vertex 32.500000000001094 -594.4999999996081 300.0000000010829
  endloop
endfacet
facet normal 0.6830127018922155 0.6830127018927321 0.2588190451011779
  outer loop
    vertex 40.196052297160286 -577.791960516487 306.80394770389046
    vertex 45.000000000000774 -580.7755128537351 302.00000000105604
    vertex 39.30231462790457 -576.6208348933392 306.07193242353594
  endloop
endfacet
facet normal 0.6830127018922155 0.6830127018927321 0.2588190451011779
  outer loop
    vertex 35.67720482683888 -572.5732075773778 304.9569262641749
    vertex 39.30231462790457 -576.6208348933392 306.07193242353594
    vertex 45.000000000000774 -580.7755128537351 302.00000000105604
  endloop
endfacet
facet normal 0.6830127018922155 0.6830127018927321 0.2588190451011779
  outer loop
    vertex 34.79289321881418 -569.9999999996074 300.5000000010347
    vertex 35.67720482683888 -572.5732075773778 304.9569262641749
    vertex 45.000000000000774 -580.7755128537351 302.00000000105604
  endloop
endfacet
facet normal 0.6830127018922155 0.6830127018927321 0.2588190451011779
  outer loop
    vertex 45.000000000000774 -580.2071067807944 300.50000000105496
    vertex 34.79289321881418 -569.9999999996074 300.5000000010347
    vertex 45.000000000000774 -580.7755128537351 302.00000000105604
  endloop
endfacet
facet normal 0.7071067811865418 1.3924155896736607e-12 0.7071067811865533
  outer loop
    vertex 34.58064516129096 -495.37606112012696 312.4193548395974
    vertex 36.69616195211796 -501.78959288419 310.303838048783
    vertex 45.000000000000774 -499.7631578943409 302.0000000008964
  endloop
endfacet
facet normal 0.7071067811865418 1.3924155896736607e-12 0.7071067811865533
  outer loop
    vertex 38.09339737398466 -504.3206318335465 308.9066026269213
    vertex 45.000000000000774 -499.7631578943409 302.0000000008964
    vertex 36.69616195211796 -501.78959288419 310.303838048783
  endloop
endfacet
facet normal 0.7071067811865418 1.3924155896736607e-12 0.7071067811865533
  outer loop
    vertex 39.69891028731805 -510.1335109732523 307.3010897135995
    vertex 45.000000000000774 -499.7631578943409 302.0000000008964
    vertex 38.09339737398466 -504.3206318335465 308.9066026269213
  endloop
endfacet
facet normal 0.7071067811865418 1.3924155896736607e-12 0.7071067811865533
  outer loop
    vertex 40.196052297160286 -511.20803948270265 306.80394770375926
    vertex 45.000000000000774 -499.7631578943409 302.0000000008964
    vertex 39.69891028731805 -510.1335109732523 307.3010897135995
  endloop
endfacet
facet normal 0.7071067811865418 1.3924155896736607e-12 0.7071067811865533
  outer loop
    vertex 45.000000000000774 -508.224487145473 302.00000000091313
    vertex 45.000000000000774 -499.7631578943409 302.0000000008964
    vertex 40.196052297160286 -511.20803948270265 306.80394770375926
  endloop
endfacet
facet normal 0.3880570000581331 0.9216353751380654 -1.810596851187276e-12
  outer loop
    vertex 55.35474344944483 -504.12304987303503 311.77016426810985
    vertex 73.82643755031677 -511.90060528392974 311.192923827473
    vertex 52.3494455126876 -502.85766126810705 300.5000000009025
  endloop
endfacet
facet normal 0.3880570000581331 0.9216353751380654 -1.810596851187276e-12
  outer loop
    vertex 80.00000000000094 -514.4999999996074 300.5000000009253
    vertex 52.3494455126876 -502.85766126810705 300.5000000009025
    vertex 73.82643755031677 -511.90060528392974 311.192923827473
  endloop
endfacet
facet normal 0.3880570000581331 0.9216353751380654 -1.810596851187276e-12
  outer loop
    vertex 80.00000000000094 -514.4999999996082 300.00000000092547
    vertex 52.3494455126876 -502.85766126810705 300.5000000009025
    vertex 80.00000000000094 -514.4999999996074 300.5000000009253
  endloop
endfacet
facet normal 0.3880570000581331 0.9216353751380654 -1.810596851187276e-12
  outer loop
    vertex 52.3494455126876 -502.85766126810785 300.0000000009025
    vertex 52.3494455126876 -502.85766126810705 300.5000000009025
    vertex 80.00000000000094 -514.4999999996082 300.00000000092547
  endloop
endfacet
facet normal 1.0 0.0 0.0
  outer loop
    vertex 45.000000000000774 -508.7928932184217 300.0000000009142
    vertex 45.000000000000774 -499.763157894345 300.0000000008964
    vertex 45.000000000000774 -508.79289321842083 300.50000000091416
  endloop
endfacet
facet normal 1.0 0.0 0.0
  outer loop
    vertex 45.000000000000774 -508.224487145473 302.00000000091313
    vertex 45.000000000000774 -508.79289321842083 300.50000000091416
    vertex 45.000000000000774 -499.763157894345 300.0000000008964
  endloop
endfacet
facet normal 1.0 0.0 0.0
  outer loop
    vertex 45.000000000000774 -499.7631578943409 302.0000000008964
    vertex 45.000000000000774 -508.224487145473 302.00000000091313
    vertex 45.000000000000774 -499.763157894345 300.0000000008964
  endloop
endfacet
facet normal 1.8427181325897126e-16 0.8660254037854233 0.49999999999829453
  outer loop
    vertex 35.67720482683888 -572.5732075773778 304.9569262641749
    vertex 34.79289321881418 -569.9999999996074 300.5000000010347
    vertex 31.108180141477888 -572.4189468254416 304.6897388042071
  endloop
endfacet
facet normal 1.8427181325897126e-16 0.8660254037854233 0.49999999999829453
  outer loop
    vertex 23.755643850609637 -572.0090180686386 303.9797213699366
    vertex 31.108180141477888 -572.4189468254416 304.6897388042071
    vertex 34.79289321881418 -569.9999999996074 300.5000000010347
  endloop
endfacet
facet normal 1.8427181325897126e-16 0.8660254037854233 0.49999999999829453
  outer loop
    vertex 6.805613906882686 -571.722455627129 303.48338066169896
    vertex 23.755643850609637 -572.0090180686386 303.9797213699366
    vertex 34.79289321881418 -569.9999999996074 300.5000000010347
  endloop
endfacet
facet normal 1.8427181325897126e-16 0.8660254037854233 0.49999999999829453
  outer loop
    vertex 6.375000000000716 -569.9999999996074 300.5000000010347
    vertex 6.805613906882686 -571.722455627129 303.48338066169896
    vertex 34.79289321881418 -569.9999999996074 300.5000000010347
  endloop
endfacet
facet normal 6.135385304791758e-17 1.0 -1.9766462367054505e-12
  outer loop
    vertex 32.50000000000073 -494.4999999995836 312.484375000886
    vertex 32.50000000000091 -494.49999999960824 300.000000000886
    vertex 11.860816644619268 -494.4999999995887 309.90457961694875
  endloop
endfacet
facet normal 6.135385304791758e-17 1.0 -1.9766462367054505e-12
  outer loop
    vertex 9.969675586986007 -494.4999999995895 309.50261872716305
    vertex 11.860816644619268 -494.4999999995887 309.90457961694875
    vertex 32.50000000000091 -494.49999999960824 300.000000000886
  endloop
endfacet
facet normal 6.135385304791758e-17 1.0 -1.9766462367054505e-12
  outer loop
    vertex 8.914757486412137 -494.49999999958976 309.41475748729727
    vertex 9.969675586986007 -494.4999999995895 309.50261872716305
    vertex 32.50000000000091 -494.49999999960824 300.000000000886
  endloop
endfacet
facet normal 6.135385304791758e-17 1.0 -1.9766462367054505e-12
  outer loop
    vertex 7.219114195322617e-13 -494.49999999960744 300.50000000088596
    vertex 8.914757486412137 -494.49999999958976 309.41475748729727
    vertex 32.50000000000091 -494.49999999960824 300.000000000886
  endloop
endfacet
facet normal 6.135385304791758e-17 1.0 -1.9766462367054505e-12
  outer loop
    vertex 7.219114195322617e-13 -494.49999999960824 300.000000000886
    vertex 7.219114195322617e-13 -494.49999999960744 300.50000000088596
    vertex 32.50000000000091 -494.49999999960824 300.000000000886
  endloop
endfacet
facet normal 3.4345058351407902e-15 -1.0 1.966021476707776e-12
  outer loop
    vertex 32.50000000000073 -594.499999999584 312.4843750010829
    vertex 12.500000000000767 -594.4999999995885 309.98447436110484
    vertex 32.500000000001094 -594.4999999996081 300.0000000010829
  endloop
endfacet
facet normal 3.4345058351407902e-15 -1.0 1.966021476707776e-12
  outer loop
    vertex 12.500000000000767 -594.4999999996082 300.0000000010829
    vertex 32.500000000001094 -594.4999999996081 300.0000000010829
    vertex 12.500000000000767 -594.4999999995885 309.98447436110484
  endloop
endfacet
facet normal 1.4572444494939974e-15 -0.8660254037834426 0.5000000000017251
  outer loop
    vertex 34.612727906901185 -567.2704510380069 303.49566667668887
    vertex 5.7934733149896624 -567.6738932595579 302.79688425104723
    vertex 35.20710678118723 -568.9999999996073 300.50000000103273
  endloop
endfacet
facet normal 1.4572444494939974e-15 -0.8660254037834426 0.5000000000017251
  outer loop
    vertex 6.125000000000773 -568.9999999996073 300.50000000103273
    vertex 35.20710678118723 -568.9999999996073 300.50000000103273
    vertex 5.7934733149896624 -567.6738932595579 302.79688425104723
  endloop
endfacet
facet normal 4.926548178338094e-16 0.8660254037854249 0.4999999999982921
  outer loop
    vertex 34.612727906901185 -521.7295489611956 303.4956666765991
    vertex 35.20710678118723 -519.9999999996074 300.50000000093627
    vertex 2.209995417787249 -521.2759414489698 302.70999541872527
  endloop
endfacet
facet normal 4.926548178338094e-16 0.8660254037854249 0.4999999999982921
  outer loop
    vertex 7.219114195322617e-13 -519.9999999996074 300.50000000093627
    vertex 2.209995417787249 -521.2759414489698 302.70999541872527
    vertex 35.20710678118723 -519.9999999996074 300.50000000093627
  endloop
endfacet
facet normal 1.459154919043944e-17 -0.05359939492165515 0.9985625192565725
  outer loop
    vertex 79.54639865423826 -539.1781125777354 301.2856605782169
    vertex 12.165355546008263 -543.686102026119 301.0436872394554
    vertex 79.68610202651402 -543.686102026119 301.0436872394554
  endloop
endfacet
facet normal -0.0014284650110158138 -0.03229719052937213 0.9994772888723495
  outer loop
    vertex 0.5267369504394083 -543.6958882794777 301.0267369514216
    vertex 12.165355546008263 -543.686102026119 301.0436872394554
    vertex 0.8507979397998667 -533.6817451305078 301.3507979407622
  endloop
endfacet
facet normal -0.0014284650110158138 -0.03229719052937213 0.9994772888723495
  outer loop
    vertex 79.5452475190504 -539.1163602469279 301.28765440284855
    vertex 0.8507979397998667 -533.6817451305078 301.3507979407622
    vertex 12.165355546008263 -543.686102026119 301.0436872394554
  endloop
endfacet
facet normal -0.0014284650110158138 -0.03229719052937213 0.9994772888723495
  outer loop
    vertex 79.54639865423826 -539.1781125777354 301.2856605782169
    vertex 79.5452475190504 -539.1163602469279 301.28765440284855
    vertex 12.165355546008263 -543.686102026119 301.0436872394554
  endloop
endfacet
facet normal 0.38805700005813276 -0.9216353751380654 1.821094964287882e-12
  outer loop
    vertex 55.35474344944501 -584.8769501261348 311.7701642682689
    vertex 52.34944551268779 -586.1423387311082 300.50000000106655
    vertex 73.8264375503166 -577.0993947152426 311.1929238276014
  endloop
endfacet
facet normal 0.38805700005813276 -0.9216353751380654 1.821094964287882e-12
  outer loop
    vertex 80.00000000000094 -574.4999999996073 300.5000000010436
    vertex 73.8264375503166 -577.0993947152426 311.1929238276014
    vertex 52.34944551268779 -586.1423387311082 300.50000000106655
  endloop
endfacet
facet normal 0.38805700005813276 -0.9216353751380654 1.821094964287882e-12
  outer loop
    vertex 52.34944551268779 -586.1423387311085 300.00000000106655
    vertex 80.00000000000094 -574.4999999996073 300.5000000010436
    vertex 52.34944551268779 -586.1423387311082 300.50000000106655
  endloop
endfacet
facet normal 0.38805700005813276 -0.9216353751380654 1.821094964287882e-12
  outer loop
    vertex 80.00000000000094 -574.4999999996082 300.0000000010436
    vertex 80.00000000000094 -574.4999999996073 300.5000000010436
    vertex 52.34944551268779 -586.1423387311085 300.00000000106655
  endloop
endfacet
facet normal 0.8660254037844507 9.912410632656178e-13 0.49999999999997946
  outer loop
    vertex 80.00000000000094 -543.9999999996073 300.5000000009835
    vertex 80.00000000000094 -514.4999999996074 300.5000000009253
    vertex 79.68610202651402 -543.686102026119 301.0436872394554
  endloop
endfacet
facet normal 0.8660254037844507 9.912410632656178e-13 0.49999999999997946
  outer loop
    vertex 79.54639865423826 -539.1781125777354 301.2856605782169
    vertex 79.68610202651402 -543.686102026119 301.0436872394554
    vertex 80.00000000000094 -514.4999999996074 300.5000000009253
  endloop
endfacet
facet normal 0.8660254037844507 9.912410632656178e-13 0.49999999999997946
  outer loop
    vertex 79.5452475190504 -539.1163602469279 301.28765440284855
    vertex 79.54639865423826 -539.1781125777354 301.2856605782169
    vertex 80.00000000000094 -514.4999999996074 300.5000000009253
  endloop
endfacet
facet normal 0.8660254037844507 9.912410632656178e-13 0.49999999999997946
  outer loop
    vertex 79.05518079201326 -533.8542721192848 302.1364748731654
    vertex 79.5452475190504 -539.1163602469279 301.28765440284855
    vertex 80.00000000000094 -514.4999999996074 300.5000000009253
  endloop
endfacet
facet normal 0.8660254037844507 9.912410632656178e-13 0.49999999999997946
  outer loop
    vertex 79.04798750225197 -533.725353021044 302.1489340165053
    vertex 79.05518079201326 -533.8542721192848 302.1364748731654
    vertex 80.00000000000094 -514.4999999996074 300.5000000009253
  endloop
endfacet
facet normal 0.8660254037844507 9.912410632656178e-13 0.49999999999997946
  outer loop
    vertex 78.24465178897754 -528.5592151206564 303.54035228742123
    vertex 79.04798750225197 -533.725353021044 302.1489340165053
    vertex 80.00000000000094 -514.4999999996074 300.5000000009253
  endloop
endfacet
facet normal 0.8660254037844507 9.912410632656178e-13 0.49999999999997946
  outer loop
    vertex 78.22238699107984 -528.3189060025245 303.57891604859975
    vertex 78.24465178897754 -528.5592151206564 303.54035228742123
    vertex 80.00000000000094 -514.4999999996074 300.5000000009253
  endloop
endfacet
facet normal 0.8660254037844507 9.912410632656178e-13 0.49999999999997946
  outer loop
    vertex 77.12397239625736 -523.2830069470309 305.4814259345977
    vertex 78.22238699107984 -528.3189060025245 303.57891604859975
    vertex 80.00000000000094 -514.4999999996074 300.5000000009253
  endloop
endfacet
facet normal 0.8660254037844507 9.912410632656178e-13 0.49999999999997946
  outer loop
    vertex 77.07293878986931 -522.8875316761336 305.5698187337543
    vertex 77.12397239625736 -523.2830069470309 305.4814259345977
    vertex 80.00000000000094 -514.4999999996074 300.5000000009253
  endloop
endfacet
facet normal 0.8660254037844507 9.912410632656178e-13 0.49999999999997946
  outer loop
    vertex 75.70335578100375 -518.0137601603127 307.9420060902829
    vertex 77.07293878986931 -522.8875316761336 305.5698187337543
    vertex 80.00000000000094 -514.4999999996074 300.5000000009253
  endloop
endfacet
facet normal 0.8660254037844507 9.912410632656178e-13 0.49999999999997946
  outer loop
    vertex 75.60542716315852 -517.419603466604 308.11162343190495
    vertex 75.70335578100375 -518.0137601603127 307.9420060902829
    vertex 80.00000000000094 -514.4999999996074 300.5000000009253
  endloop
endfacet
facet normal 0.8660254037844507 9.912410632656178e-13 0.49999999999997946
  outer loop
    vertex 73.99357149404142 -512.7370118890209 310.90343934527436
    vertex 75.60542716315852 -517.419603466604 308.11162343190495
    vertex 80.00000000000094 -514.4999999996074 300.5000000009253
  endloop
endfacet
facet normal 0.8660254037844507 9.912410632656178e-13 0.49999999999997946
  outer loop
    vertex 73.82643755031677 -511.90060528392974 311.192923827473
    vertex 73.99357149404142 -512.7370118890209 310.90343934527436
    vertex 80.00000000000094 -514.4999999996074 300.5000000009253
  endloop
endfacet
facet normal -6.785070373554889e-17 0.05359939492558745 0.9985625192563613
  outer loop
    vertex 12.165355546008263 -545.3138979730932 301.0436872394587
    vertex 79.54639865423789 -549.821887421476 301.28566057823787
    vertex 79.68610202651367 -545.3138979730932 301.0436872394587
  endloop
endfacet
facet normal 0.7071067811865465 1.3989309209717784e-12 0.7071067811865487
  outer loop
    vertex 34.58064516129114 -593.6239388790405 312.4193548397909
    vertex 45.000000000000774 -589.2368421048674 302.00000000107264
    vertex 36.696161952118146 -587.2104071149864 310.30383804895126
  endloop
endfacet
facet normal 0.7071067811865465 1.3989309209717784e-12 0.7071067811865487
  outer loop
    vertex 38.09339737398466 -584.679368165635 308.9066026270797
    vertex 36.696161952118146 -587.2104071149864 310.30383804895126
    vertex 45.000000000000774 -589.2368421048674 302.00000000107264
  endloop
endfacet
facet normal 0.7071067811865465 1.3989309209717784e-12 0.7071067811865487
  outer loop
    vertex 39.69891028731805 -578.8664890259358 307.3010897137349
    vertex 38.09339737398466 -584.679368165635 308.9066026270797
    vertex 45.000000000000774 -589.2368421048674 302.00000000107264
  endloop
endfacet
facet normal 0.7071067811865465 1.3989309209717784e-12 0.7071067811865487
  outer loop
    vertex 40.196052297160286 -577.791960516487 306.80394770389046
    vertex 39.69891028731805 -578.8664890259358 307.3010897137349
    vertex 45.000000000000774 -589.2368421048674 302.00000000107264
  endloop
endfacet
facet normal 0.7071067811865465 1.3989309209717784e-12 0.7071067811865487
  outer loop
    vertex 45.000000000000774 -580.7755128537351 302.00000000105604
    vertex 40.196052297160286 -577.791960516487 306.80394770389046
    vertex 45.000000000000774 -589.2368421048674 302.00000000107264
  endloop
endfacet
facet normal -0.03350876070341429 -0.2647755687331498 0.9637276903556099
  outer loop
    vertex 1.8983196084790392 -523.0539395866869 302.3983196094205
    vertex 79.04798750225197 -533.725353021044 302.1489340165053
    vertex 1.932510629507982 -522.9338184775635 302.43251063044914
  endloop
endfacet
facet normal -0.03350876070341429 -0.2647755687331498 0.9637276903556099
  outer loop
    vertex 78.24465178897754 -528.5592151206564 303.54035228742123
    vertex 1.932510629507982 -522.9338184775635 302.43251063044914
    vertex 79.04798750225197 -533.725353021044 302.1489340165053
  endloop
endfacet
facet normal -0.17393814534188584 -0.5477787212849126 0.8183422230964812
  outer loop
    vertex 9.969675586986007 -494.4999999995895 309.50261872716305
    vertex 38.09339737398466 -504.3206318335465 308.9066026269213
    vertex 11.860816644619268 -494.4999999995887 309.90457961694875
  endloop
endfacet
facet normal -0.17393814534188584 -0.5477787212849126 0.8183422230964812
  outer loop
    vertex 36.69616195211796 -501.78959288419 310.303838048783
    vertex 11.860816644619268 -494.4999999995887 309.90457961694875
    vertex 38.09339737398466 -504.3206318335465 308.9066026269213
  endloop
endfacet
facet normal -0.02617374814277863 0.16075779504988444 0.9866467788620495
  outer loop
    vertex 6.805613906882686 -571.722455627129 303.48338066169896
    vertex 7.71146642875248 -575.3458657146073 304.097785923008
    vertex 23.755643850609637 -572.0090180686386 303.9797213699366
  endloop
endfacet
facet normal -0.07953940325017085 -0.2857392437227636 0.9550008209040189
  outer loop
    vertex 6.20486098525058 -502.80270914684286 306.7048609861524
    vertex 39.69891028731805 -510.1335109732523 307.3010897135995
    vertex 8.914757486412137 -494.49999999958976 309.41475748729727
  endloop
endfacet
facet normal -0.07953940325017085 -0.2857392437227636 0.9550008209040189
  outer loop
    vertex 9.969675586986007 -494.4999999995895 309.50261872716305
    vertex 8.914757486412137 -494.49999999958976 309.41475748729727
    vertex 39.69891028731805 -510.1335109732523 307.3010897135995
  endloop
endfacet
facet normal -0.07953940325017085 -0.2857392437227636 0.9550008209040189
  outer loop
    vertex 38.09339737398466 -504.3206318335465 308.9066026269213
    vertex 9.969675586986007 -494.4999999995895 309.50261872716305
    vertex 39.69891028731805 -510.1335109732523 307.3010897135995
  endloop
endfacet
facet normal -0.11639030097740714 -0.34553645271293115 0.9311594158278984
  outer loop
    vertex 11.860816644619268 -494.4999999995887 309.90457961694875
    vertex 36.69616195211796 -501.78959288419 310.303838048783
    vertex 32.50000000000073 -494.4999999995836 312.484375000886
  endloop
endfacet
facet normal -0.11639030097740714 -0.34553645271293115 0.9311594158278984
  outer loop
    vertex 34.58064516129096 -495.37606112012696 312.4193548395974
    vertex 32.50000000000073 -494.4999999995836 312.484375000886
    vertex 36.69616195211796 -501.78959288419 310.303838048783
  endloop
endfacet
facet normal -0.02617374814277818 -0.16075779504599497 0.9866467788626833
  outer loop
    vertex 1.932510629507982 -522.9338184775635 302.43251063044914
    vertex 78.24465178897754 -528.5592151206564 303.54035228742123
    vertex 2.209995417787249 -521.2759414489698 302.70999541872527
  endloop
endfacet
facet normal -0.02617374814277818 -0.16075779504599497 0.9866467788626833
  outer loop
    vertex 34.612727906901185 -521.7295489611956 303.4956666765991
    vertex 2.209995417787249 -521.2759414489698 302.70999541872527
    vertex 78.24465178897754 -528.5592151206564 303.54035228742123
  endloop
endfacet
facet normal -0.02617374814277818 -0.16075779504599497 0.9866467788626833
  outer loop
    vertex 36.787940403504706 -519.7014224181413 303.88382039420435
    vertex 34.612727906901185 -521.7295489611956 303.4956666765991
    vertex 78.24465178897754 -528.5592151206564 303.54035228742123
  endloop
endfacet
facet normal -0.02617374814277818 -0.16075779504599497 0.9866467788626833
  outer loop
    vertex 78.22238699107984 -528.3189060025245 303.57891604859975
    vertex 36.787940403504706 -519.7014224181413 303.88382039420435
    vertex 78.24465178897754 -528.5592151206564 303.54035228742123
  endloop
endfacet
facet normal -0.17393814534188254 -0.5477787212849067 0.818342223096486
  outer loop
    vertex 49.86643319737547 -508.4317040189835 308.6571008379119
    vertex 75.60542716315852 -517.419603466604 308.11162343190495
    vertex 52.57001307816405 -506.4488360228268 310.5590295441813
  endloop
endfacet
facet normal -0.17393814534188254 -0.5477787212849067 0.818342223096486
  outer loop
    vertex 73.99357149404142 -512.7370118890209 310.90343934527436
    vertex 52.57001307816405 -506.4488360228268 310.5590295441813
    vertex 75.60542716315852 -517.419603466604 308.11162343190495
  endloop
endfacet
facet normal -0.06923670882216713 -0.3657422477427543 0.928137320856969
  outer loop
    vertex 36.787940403504706 -519.7014224181413 303.88382039420435
    vertex 78.22238699107984 -528.3189060025245 303.57891604859975
    vertex 39.10161451677804 -517.7452540936566 304.8272633106488
  endloop
endfacet
facet normal -0.06923670882216713 -0.3657422477427543 0.928137320856969
  outer loop
    vertex 77.12397239625736 -523.2830069470309 305.4814259345977
    vertex 39.10161451677804 -517.7452540936566 304.8272633106488
    vertex 78.22238699107984 -528.3189060025245 303.57891604859975
  endloop
endfacet
facet normal -0.010165656186440965 -0.0967519125498145 0.9952566135687078
  outer loop
    vertex 0.8600203549393995 -533.6255053443281 301.36002035590167
    vertex 79.05518079201326 -533.8542721192848 302.1364748731654
    vertex 1.8983196084790392 -523.0539395866869 302.3983196094205
  endloop
endfacet
facet normal -0.010165656186440965 -0.0967519125498145 0.9952566135687078
  outer loop
    vertex 79.04798750225197 -533.725353021044 302.1489340165053
    vertex 1.8983196084790392 -523.0539395866869 302.3983196094205
    vertex 79.05518079201326 -533.8542721192848 302.1364748731654
  endloop
endfacet
facet normal -0.11654656472881986 -0.4609438992307084 0.8797429283670892
  outer loop
    vertex 6.014453329380362 -503.11797187363265 306.51445333028266
    vertex 39.30231462790457 -512.3791651058534 306.07193242340935
    vertex 6.20486098525058 -502.80270914684286 306.7048609861524
  endloop
endfacet
facet normal -0.11654656472881986 -0.4609438992307084 0.8797429283670892
  outer loop
    vertex 39.69891028731805 -510.1335109732523 307.3010897135995
    vertex 6.20486098525058 -502.80270914684286 306.7048609861524
    vertex 39.30231462790457 -512.3791651058534 306.07193242340935
  endloop
endfacet
facet normal -0.11654656472881986 -0.4609438992307084 0.8797429283670892
  outer loop
    vertex 40.196052297160286 -511.20803948270265 306.80394770375926
    vertex 39.69891028731805 -510.1335109732523 307.3010897135995
    vertex 39.30231462790457 -512.3791651058534 306.07193242340935
  endloop
endfacet
facet normal -0.010269568312112868 -0.16017379604959953 0.9870354051531001
  outer loop
    vertex 0.8507979397998667 -533.6817451305078 301.3507979407622
    vertex 79.5452475190504 -539.1163602469279 301.28765440284855
    vertex 0.8600203549393995 -533.6255053443281 301.36002035590167
  endloop
endfacet
facet normal -0.010269568312112868 -0.16017379604959953 0.9870354051531001
  outer loop
    vertex 79.05518079201326 -533.8542721192848 302.1364748731654
    vertex 0.8600203549393995 -533.6255053443281 301.36002035590167
    vertex 79.5452475190504 -539.1163602469279 301.28765440284855
  endloop
endfacet
facet normal -0.049359696198095514 -0.22392459945494472 0.973355738746207
  outer loop
    vertex 39.10161451677804 -517.7452540936566 304.8272633106488
    vertex 77.12397239625736 -523.2830069470309 305.4814259345977
    vertex 43.695089298732775 -513.601302349436 306.01353592224655
  endloop
endfacet
facet normal -0.049359696198095514 -0.22392459945494472 0.973355738746207
  outer loop
    vertex 77.07293878986931 -522.8875316761336 305.5698187337543
    vertex 43.695089298732775 -513.601302349436 306.01353592224655
    vertex 77.12397239625736 -523.2830069470309 305.4814259345977
  endloop
endfacet
facet normal -0.079539403250174 -0.2857392437227787 0.9550008209040141
  outer loop
    vertex 46.259193890697716 -511.5693522651695 307.41786954840705
    vertex 75.70335578100375 -518.0137601603127 307.9420060902829
    vertex 49.86643319737547 -508.4317040189835 308.6571008379119
  endloop
endfacet
facet normal -0.079539403250174 -0.2857392437227787 0.9550008209040141
  outer loop
    vertex 75.60542716315852 -517.419603466604 308.11162343190495
    vertex 49.86643319737547 -508.4317040189835 308.6571008379119
    vertex 75.70335578100375 -518.0137601603127 307.9420060902829
  endloop
endfacet
facet normal -0.03350876070341402 0.2647755687369483 0.9637276903545665
  outer loop
    vertex 5.2457598456479255 -565.4830393821921 302.3874990396798
    vertex 5.32895267446203 -565.8158106974486 302.4818175943495
    vertex 79.0479875022518 -555.2746469781641 302.14893401654774
  endloop
endfacet
facet normal -0.03350876070341402 0.2647755687369483 0.9637276903545665
  outer loop
    vertex 78.24465178897717 -560.4407848785463 303.5403522874841
    vertex 79.0479875022518 -555.2746469781641 302.14893401654774
    vertex 5.32895267446203 -565.8158106974486 302.4818175943495
  endloop
endfacet
facet normal -0.01016565618644061 0.0967519125537366 0.9952566135683265
  outer loop
    vertex 2.7172652807387108 -555.3690611225569 301.37846224166026
    vertex 5.2457598456479255 -565.4830393821921 302.3874990396798
    vertex 79.05518079201308 -555.1457278799232 302.1364748732073
  endloop
endfacet
facet normal -0.01016565618644061 0.0967519125537366 0.9952566135683265
  outer loop
    vertex 79.0479875022518 -555.2746469781641 302.14893401654774
    vertex 79.05518079201308 -555.1457278799232 302.1364748732073
    vertex 5.2457598456479255 -565.4830393821921 302.3874990396798
  endloop
endfacet
facet normal -0.010269568312112629 0.16017379605348717 0.9870354051524692
  outer loop
    vertex 2.6731017779689763 -555.1924071114782 301.34933574477765
    vertex 2.7172652807387108 -555.3690611225569 301.37846224166026
    vertex 79.54524751905005 -549.8836397522828 301.28765440286975
  endloop
endfacet
facet normal -0.010269568312112629 0.16017379605348717 0.9870354051524692
  outer loop
    vertex 79.05518079201308 -555.1457278799232 302.1364748732073
    vertex 79.54524751905005 -549.8836397522828 301.28765440286975
    vertex 2.7172652807387108 -555.3690611225569 301.37846224166026
  endloop
endfacet
facet normal -0.0014284650110155423 0.03229719053331235 0.9994772888722221
  outer loop
    vertex 0.20095944808309696 -545.3038377919345 301.02626249455915
    vertex 2.6731017779689763 -555.1924071114782 301.34933574477765
    vertex 12.165355546008263 -545.3138979730932 301.0436872394587
  endloop
endfacet
facet normal -0.0014284650110155423 0.03229719053331235 0.9994772888722221
  outer loop
    vertex 79.54524751905005 -549.8836397522828 301.28765440286975
    vertex 12.165355546008263 -545.3138979730932 301.0436872394587
    vertex 2.6731017779689763 -555.1924071114782 301.34933574477765
  endloop
endfacet
facet normal -0.0014284650110155423 0.03229719053331235 0.9994772888722221
  outer loop
    vertex 79.54639865423789 -549.821887421476 301.28566057823787
    vertex 12.165355546008263 -545.3138979730932 301.0436872394587
    vertex 79.54524751905005 -549.8836397522828 301.28765440286975
  endloop
endfacet
facet normal -0.11654656472882098 -0.4609438992307114 0.8797429283670875
  outer loop
    vertex 43.695089298732775 -513.601302349436 306.01353592224655
    vertex 77.07293878986931 -522.8875316761336 305.5698187337543
    vertex 46.259193890697716 -511.5693522651695 307.41786954840705
  endloop
endfacet
facet normal -0.11654656472882098 -0.4609438992307114 0.8797429283670875
  outer loop
    vertex 75.70335578100375 -518.0137601603127 307.9420060902829
    vertex 46.259193890697716 -511.5693522651695 307.41786954840705
    vertex 77.07293878986931 -522.8875316761336 305.5698187337543
  endloop
endfacet
facet normal -0.026173748142778164 -0.16075779504599766 0.9866467788626828
  outer loop
    vertex 3.6278361990992747 -512.8048260551625 304.12783620002074
    vertex 2.8680794701915926 -517.3441135454299 303.36807947112163
    vertex 23.755643850609815 -516.9909819305624 303.97972136982827
  endloop
endfacet
facet normal -0.1163903009774076 -0.3455364527129368 0.9311594158278963
  outer loop
    vertex 52.57001307816405 -506.4488360228268 310.5590295441813
    vertex 73.99357149404142 -512.7370118890209 310.90343934527436
    vertex 55.35474344944483 -504.12304987303503 311.77016426810985
  endloop
endfacet
facet normal -0.1163903009774076 -0.3455364527129368 0.9311594158278963
  outer loop
    vertex 73.82643755031677 -511.90060528392974 311.192923827473
    vertex 55.35474344944483 -504.12304987303503 311.77016426810985
    vertex 73.99357149404142 -512.7370118890209 310.90343934527436
  endloop
endfacet
facet normal -0.7071067811865446 1.3914916049707124e-12 0.7071067811865506
  outer loop
    vertex 7.219114195322617e-13 -494.49999999960744 300.50000000088596
    vertex 7.219114195322617e-13 -518.9999999996073 300.5000000009342
    vertex 8.914757486412137 -494.49999999958976 309.41475748729727
  endloop
endfacet
facet normal -0.7071067811865446 1.3914916049707124e-12 0.7071067811865506
  outer loop
    vertex 6.014453329380362 -503.11797187363265 306.51445333028266
    vertex 8.914757486412137 -494.49999999958976 309.41475748729727
    vertex 7.219114195322617e-13 -518.9999999996073 300.5000000009342
  endloop
endfacet
facet normal -0.7071067811865446 1.3914916049707124e-12 0.7071067811865506
  outer loop
    vertex 3.6278361990992747 -512.8048260551625 304.12783620002074
    vertex 6.014453329380362 -503.11797187363265 306.51445333028266
    vertex 7.219114195322617e-13 -518.9999999996073 300.5000000009342
  endloop
endfacet
facet normal -0.7071067811865446 1.3914916049707124e-12 0.7071067811865506
  outer loop
    vertex 2.8680794701915926 -517.3441135454299 303.36807947112163
    vertex 3.6278361990992747 -512.8048260551625 304.12783620002074
    vertex 7.219114195322617e-13 -518.9999999996073 300.5000000009342
  endloop
endfacet
facet normal -0.7071067811865446 1.3914916049707124e-12 0.7071067811865506
  outer loop
    vertex 3.718508172473642 -512.5918940958229 304.21850817339447
    vertex 6.014453329380362 -503.11797187363265 306.51445333028266
    vertex 3.6278361990992747 -512.8048260551625 304.12783620002074
  endloop
endfacet
facet normal -0.7071067811865446 1.3914916049707124e-12 0.7071067811865506
  outer loop
    vertex 6.20486098525058 -502.80270914684286 306.7048609861524
    vertex 8.914757486412137 -494.49999999958976 309.41475748729727
    vertex 6.014453329380362 -503.11797187363265 306.51445333028266
  endloop
endfacet
facet normal 0.6830127018922161 -0.6830127018917111 0.2588190451038703
  outer loop
    vertex 34.79289321881418 -518.9999999996073 300.5000000009342
    vertex 45.000000000000774 -508.79289321842083 300.50000000091416
    vertex 35.67720482683888 -516.4267924218192 304.95692626406424
  endloop
endfacet
facet normal 0.6830127018922161 -0.6830127018917111 0.2588190451038703
  outer loop
    vertex 39.30231462790457 -512.3791651058534 306.07193242340935
    vertex 35.67720482683888 -516.4267924218192 304.95692626406424
    vertex 45.000000000000774 -508.79289321842083 300.50000000091416
  endloop
endfacet
facet normal 0.6830127018922161 -0.6830127018917111 0.2588190451038703
  outer loop
    vertex 40.196052297160286 -511.20803948270265 306.80394770375926
    vertex 39.30231462790457 -512.3791651058534 306.07193242340935
    vertex 45.000000000000774 -508.79289321842083 300.50000000091416
  endloop
endfacet
facet normal 0.6830127018922161 -0.6830127018917111 0.2588190451038703
  outer loop
    vertex 45.000000000000774 -508.224487145473 302.00000000091313
    vertex 40.196052297160286 -511.20803948270265 306.80394770375926
    vertex 45.000000000000774 -508.79289321842083 300.50000000091416
  endloop
endfacet
facet normal -0.7071067811865461 0.7071067811865489 -1.3928854452961134e-12
  outer loop
    vertex 35.20710678118723 -519.9999999996074 300.50000000093627
    vertex 52.3494455126876 -502.85766126810705 300.5000000009025
    vertex 35.20710678118723 -519.9999999996082 300.00000000093627
  endloop
endfacet
facet normal -0.7071067811865461 0.7071067811865489 -1.3928854452961134e-12
  outer loop
    vertex 52.3494455126876 -502.85766126810785 300.0000000009025
    vertex 35.20710678118723 -519.9999999996082 300.00000000093627
    vertex 52.3494455126876 -502.85766126810705 300.5000000009025
  endloop
endfacet
facet normal -0.7071067811865376 1.3924757467870751e-12 0.7071067811865576
  outer loop
    vertex 7.219114195322617e-13 -519.9999999996074 300.50000000093627
    vertex 7.219114195322617e-13 -520.4999999996073 300.50000000093735
    vertex 2.209995417787249 -521.2759414489698 302.70999541872527
  endloop
endfacet
facet normal -0.7071067811865376 1.3924757467870751e-12 0.7071067811865576
  outer loop
    vertex 1.8983196084790392 -523.0539395866869 302.3983196094205
    vertex 2.209995417787249 -521.2759414489698 302.70999541872527
    vertex 7.219114195322617e-13 -520.4999999996073 300.50000000093735
  endloop
endfacet
facet normal -0.7071067811865376 1.3924757467870751e-12 0.7071067811865576
  outer loop
    vertex 0.8507979397998667 -533.6817451305078 301.3507979407622
    vertex 1.8983196084790392 -523.0539395866869 302.3983196094205
    vertex 7.219114195322617e-13 -520.4999999996073 300.50000000093735
  endloop
endfacet
facet normal -0.7071067811865376 1.3924757467870751e-12 0.7071067811865576
  outer loop
    vertex 7.219114195322617e-13 -543.9999999996073 300.5000000009835
    vertex 0.8507979397998667 -533.6817451305078 301.3507979407622
    vertex 7.219114195322617e-13 -520.4999999996073 300.50000000093735
  endloop
endfacet
facet normal -0.7071067811865376 1.3924757467870751e-12 0.7071067811865576
  outer loop
    vertex 0.5267369504394083 -543.6958882794777 301.0267369514216
    vertex 0.8507979397998667 -533.6817451305078 301.3507979407622
    vertex 7.219114195322617e-13 -543.9999999996073 300.5000000009835
  endloop
endfacet
facet normal -0.7071067811865376 1.3924757467870751e-12 0.7071067811865576
  outer loop
    vertex 0.8600203549393995 -533.6255053443281 301.36002035590167
    vertex 1.8983196084790392 -523.0539395866869 302.3983196094205
    vertex 0.8507979397998667 -533.6817451305078 301.3507979407622
  endloop
endfacet
facet normal -0.7071067811865376 1.3924757467870751e-12 0.7071067811865576
  outer loop
    vertex 1.932510629507982 -522.9338184775635 302.43251063044914
    vertex 2.209995417787249 -521.2759414489698 302.70999541872527
    vertex 1.8983196084790392 -523.0539395866869 302.3983196094205
  endloop
endfacet
facet normal 0.7071067811865452 -0.7071067811865499 1.3928854452961152e-12
  outer loop
    vertex 34.79289321881418 -518.9999999996073 300.5000000009342
    vertex 34.79289321881418 -518.9999999996082 300.0000000009342
    vertex 45.000000000000774 -508.79289321842083 300.50000000091416
  endloop
endfacet
facet normal 0.7071067811865452 -0.7071067811865499 1.3928854452961152e-12
  outer loop
    vertex 45.000000000000774 -508.7928932184217 300.0000000009142
    vertex 45.000000000000774 -508.79289321842083 300.50000000091416
    vertex 34.79289321881418 -518.9999999996082 300.0000000009342
  endloop
endfacet
facet normal -0.7071067811865425 -0.7071067811865527 1.3928854452961207e-12
  outer loop
    vertex 52.34944551268779 -586.1423387311082 300.50000000106655
    vertex 35.20710678118723 -568.9999999996073 300.50000000103273
    vertex 52.34944551268779 -586.1423387311085 300.00000000106655
  endloop
endfacet
facet normal -0.7071067811865425 -0.7071067811865527 1.3928854452961207e-12
  outer loop
    vertex 35.20710678118723 -568.9999999996081 300.0000000010328
    vertex 52.34944551268779 -586.1423387311085 300.00000000106655
    vertex 35.20710678118723 -568.9999999996073 300.50000000103273
  endloop
endfacet
facet normal 0.9238795325112996 -0.38268343236505903 7.538241709445934e-13
  outer loop
    vertex 34.79289321881418 -569.9999999996082 300.0000000010347
    vertex 35.20710678118723 -568.9999999996081 300.0000000010328
    vertex 34.79289321881418 -569.9999999996074 300.5000000010347
  endloop
endfacet
facet normal 0.9238795325112996 -0.38268343236505903 7.538241709445934e-13
  outer loop
    vertex 35.20710678118723 -568.9999999996073 300.50000000103273
    vertex 34.79289321881418 -569.9999999996074 300.5000000010347
    vertex 35.20710678118723 -568.9999999996081 300.0000000010328
  endloop
endfacet
facet normal 0.9238795325112996 0.38268343236505903 -7.538241709445934e-13
  outer loop
    vertex 35.20710678118723 -519.9999999996082 300.00000000093627
    vertex 34.79289321881418 -518.9999999996082 300.0000000009342
    vertex 35.20710678118723 -519.9999999996074 300.50000000093627
  endloop
endfacet
facet normal 0.9238795325112996 0.38268343236505903 -7.538241709445934e-13
  outer loop
    vertex 34.79289321881418 -518.9999999996073 300.5000000009342
    vertex 35.20710678118723 -519.9999999996074 300.50000000093627
    vertex 34.79289321881418 -518.9999999996082 300.0000000009342
  endloop
endfacet
facet normal 0.7071067811865452 0.7071067811865499 -1.3928854452961152e-12
  outer loop
    vertex 45.000000000000774 -580.2071067807944 300.50000000105496
    vertex 45.000000000000774 -580.2071067807947 300.00000000105496
    vertex 34.79289321881418 -569.9999999996074 300.5000000010347
  endloop
endfacet
facet normal 0.7071067811865452 0.7071067811865499 -1.3928854452961152e-12
  outer loop
    vertex 34.79289321881418 -569.9999999996082 300.0000000010347
    vertex 34.79289321881418 -569.9999999996074 300.5000000010347
    vertex 45.000000000000774 -580.2071067807947 300.00000000105496
  endloop
endfacet
facet normal 1.0 0.0 0.0
  outer loop
    vertex 45.000000000000774 -589.2368421048714 300.00000000107264
    vertex 45.000000000000774 -580.2071067807947 300.00000000105496
    vertex 45.000000000000774 -589.2368421048674 302.00000000107264
  endloop
endfacet
facet normal 1.0 0.0 0.0
  outer loop
    vertex 45.000000000000774 -580.7755128537351 302.00000000105604
    vertex 45.000000000000774 -589.2368421048674 302.00000000107264
    vertex 45.000000000000774 -580.2071067807947 300.00000000105496
  endloop
endfacet
facet normal 1.0 0.0 0.0
  outer loop
    vertex 45.000000000000774 -580.2071067807944 300.50000000105496
    vertex 45.000000000000774 -580.7755128537351 302.00000000105604
    vertex 45.000000000000774 -580.2071067807947 300.00000000105496
  endloop
endfacet
facet normal -0.04935969619809284 0.22392459945876786 0.9733557387453275
  outer loop
    vertex 39.10161451677823 -571.2547459055406 304.8272633107543
    vertex 43.69508929873259 -575.3986976497566 306.0135359223682
    vertex 77.123972396257 -565.7169930521637 305.48142593468134
  endloop
endfacet
facet normal -0.04935969619809284 0.22392459945876786 0.9733557387453275
  outer loop
    vertex 77.07293878986896 -566.1124683230607 305.56981873383944
    vertex 77.123972396257 -565.7169930521637 305.48142593468134
    vertex 43.69508929873259 -575.3986976497566 306.0135359223682
  endloop
endfacet
facet normal -0.11654656472881979 0.46094389923417395 0.8797429283652735
  outer loop
    vertex 43.69508929873259 -575.3986976497566 306.0135359223682
    vertex 46.2591938906979 -577.4306477340174 307.4178695485369
    vertex 77.07293878986896 -566.1124683230607 305.56981873383944
  endloop
endfacet
facet normal -0.11654656472881979 0.46094389923417395 0.8797429283652735
  outer loop
    vertex 75.70335578100357 -570.9862398388726 307.9420060903873
    vertex 77.07293878986896 -566.1124683230607 305.56981873383944
    vertex 46.2591938906979 -577.4306477340174 307.4178695485369
  endloop
endfacet
facet normal -0.17393814534188382 0.5477787212881345 0.818342223094325
  outer loop
    vertex 49.86643319737547 -580.5682959801986 308.657100838054
    vertex 52.57001307816405 -582.5511639763481 310.55902954433134
    vertex 75.60542716315817 -571.5803965325805 308.11162343201164
  endloop
endfacet
facet normal -0.17393814534188382 0.5477787212881345 0.818342223094325
  outer loop
    vertex 73.99357149404125 -576.2629881101523 310.90343934539953
    vertex 75.60542716315817 -571.5803965325805 308.11162343201164
    vertex 52.57001307816405 -582.5511639763481 310.55902954433134
  endloop
endfacet
facet normal -0.07953940325017131 0.28573924372652887 0.9550008209028922
  outer loop
    vertex 10.2054231685594 -585.3216926738301 306.77607513179066
    vertex 12.296841932344979 -593.6873677289665 309.4532999131446
    vertex 39.69891028731805 -578.8664890259358 307.3010897137349
  endloop
endfacet
facet normal -0.07953940325017131 0.28573924372652887 0.9550008209028922
  outer loop
    vertex 38.09339737398466 -584.679368165635 308.9066026270797
    vertex 39.69891028731805 -578.8664890259358 307.3010897137349
    vertex 12.296841932344979 -593.6873677289665 309.4532999131446
  endloop
endfacet
facet normal -0.11639030097740746 0.3455364527166064 0.9311594158265345
  outer loop
    vertex 52.57001307816405 -582.5511639763481 310.55902954433134
    vertex 55.35474344944501 -584.8769501261348 311.7701642682689
    vertex 73.99357149404125 -576.2629881101523 310.90343934539953
  endloop
endfacet
facet normal -0.11639030097740746 0.3455364527166064 0.9311594158265345
  outer loop
    vertex 73.8264375503166 -577.0993947152426 311.1929238276014
    vertex 73.99357149404125 -576.2629881101523 310.90343934539953
    vertex 55.35474344944501 -584.8769501261348 311.7701642682689
  endloop
endfacet
facet normal -0.17393814534188348 0.5477787212881319 0.8183422230943268
  outer loop
    vertex 12.296841932344979 -593.6873677289665 309.4532999131446
    vertex 12.456303630554324 -594.3252145218032 309.9141527959045
    vertex 38.09339737398466 -584.679368165635 308.9066026270797
  endloop
endfacet
facet normal -0.17393814534188348 0.5477787212881319 0.8183422230943268
  outer loop
    vertex 36.696161952118146 -587.2104071149864 310.30383804895126
    vertex 38.09339737398466 -584.679368165635 308.9066026270797
    vertex 12.456303630554324 -594.3252145218032 309.9141527959045
  endloop
endfacet
facet normal -0.11639030097740674 0.3455364527166027 0.931159415826536
  outer loop
    vertex 12.456303630554324 -594.3252145218032 309.9141527959045
    vertex 12.500000000000767 -594.4999999995885 309.98447436110484
    vertex 36.696161952118146 -587.2104071149864 310.30383804895126
  endloop
endfacet
facet normal -0.11639030097740674 0.3455364527166027 0.931159415826536
  outer loop
    vertex 32.50000000000073 -594.499999999584 312.4843750010829
    vertex 36.696161952118146 -587.2104071149864 310.30383804895126
    vertex 12.500000000000767 -594.4999999995885 309.98447436110484
  endloop
endfacet
facet normal -0.11639030097740674 0.3455364527166027 0.931159415826536
  outer loop
    vertex 34.58064516129114 -593.6239388790405 312.4193548397909
    vertex 36.696161952118146 -587.2104071149864 310.30383804895126
    vertex 32.50000000000073 -594.499999999584 312.4843750010829
  endloop
endfacet
facet normal -0.04935969619809522 -0.22392459945494145 0.9733557387462078
  outer loop
    vertex 3.718508172473642 -512.5918940958229 304.21850817339447
    vertex 31.10818014147825 -516.5810531737554 304.68973880409703
    vertex 6.014453329380362 -503.11797187363265 306.51445333028266
  endloop
endfacet
facet normal -0.04935969619809522 -0.22392459945494145 0.9733557387462078
  outer loop
    vertex 39.30231462790457 -512.3791651058534 306.07193242340935
    vertex 6.014453329380362 -503.11797187363265 306.51445333028266
    vertex 31.10818014147825 -516.5810531737554 304.68973880409703
  endloop
endfacet
facet normal -0.04935969619809522 -0.22392459945494145 0.9733557387462078
  outer loop
    vertex 35.67720482683888 -516.4267924218192 304.95692626406424
    vertex 39.30231462790457 -512.3791651058534 306.07193242340935
    vertex 31.10818014147825 -516.5810531737554 304.68973880409703
  endloop
endfacet
facet normal -0.06923670882216752 -0.36574224774275155 0.9281373208569701
  outer loop
    vertex 3.6278361990992747 -512.8048260551625 304.12783620002074
    vertex 23.755643850609815 -516.9909819305624 303.97972136982827
    vertex 3.718508172473642 -512.5918940958229 304.21850817339447
  endloop
endfacet
facet normal -0.06923670882216752 -0.36574224774275155 0.9281373208569701
  outer loop
    vertex 31.10818014147825 -516.5810531737554 304.68973880409703
    vertex 3.718508172473642 -512.5918940958229 304.21850817339447
    vertex 23.755643850609815 -516.9909819305624 303.97972136982827
  endloop
endfacet
facet normal -0.026173748142778112 0.16075779504988605 0.9866467788620493
  outer loop
    vertex 5.32895267446203 -565.8158106974486 302.4818175943495
    vertex 5.7934733149896624 -567.6738932595579 302.79688425104723
    vertex 78.24465178897717 -560.4407848785463 303.5403522874841
  endloop
endfacet
facet normal -0.026173748142778112 0.16075779504988605 0.9866467788620493
  outer loop
    vertex 34.612727906901185 -567.2704510380069 303.49566667668887
    vertex 78.24465178897717 -560.4407848785463 303.5403522874841
    vertex 5.7934733149896624 -567.6738932595579 302.79688425104723
  endloop
endfacet
facet normal -0.026173748142778112 0.16075779504988605 0.9866467788620493
  outer loop
    vertex 36.787940403504884 -569.2985775810597 303.88382039430206
    vertex 78.24465178897717 -560.4407848785463 303.5403522874841
    vertex 34.612727906901185 -567.2704510380069 303.49566667668887
  endloop
endfacet
facet normal -0.026173748142778112 0.16075779504988605 0.9866467788620493
  outer loop
    vertex 78.22238699107949 -560.6810939966779 303.57891604866353
    vertex 78.24465178897717 -560.4407848785463 303.5403522874841
    vertex 36.787940403504884 -569.2985775810597 303.88382039430206
  endloop
endfacet
facet normal -0.06923670882216904 0.3657422477464151 0.9281373208555262
  outer loop
    vertex 7.71146642875248 -575.3458657146073 304.097785923008
    vertex 7.827416356470724 -575.8096654254792 304.28920063735
    vertex 23.755643850609637 -572.0090180686386 303.9797213699366
  endloop
endfacet
facet normal -0.06923670882216904 0.3657422477464151 0.9281373208555262
  outer loop
    vertex 31.108180141477888 -572.4189468254416 304.6897388042071
    vertex 23.755643850609637 -572.0090180686386 303.9797213699366
    vertex 7.827416356470724 -575.8096654254792 304.28920063735
  endloop
endfacet
facet normal -0.04935969619809432 0.22392459945877186 0.9733557387453267
  outer loop
    vertex 7.827416356470724 -575.8096654254792 304.28920063735
    vertex 10.063855587647753 -584.7554223501829 306.46062154042164
    vertex 31.108180141477888 -572.4189468254416 304.6897388042071
  endloop
endfacet
facet normal -0.04935969619809432 0.22392459945877186 0.9733557387453267
  outer loop
    vertex 39.30231462790457 -576.6208348933392 306.07193242353594
    vertex 31.108180141477888 -572.4189468254416 304.6897388042071
    vertex 10.063855587647753 -584.7554223501829 306.46062154042164
  endloop
endfacet
facet normal -0.04935969619809432 0.22392459945877186 0.9733557387453267
  outer loop
    vertex 35.67720482683888 -572.5732075773778 304.9569262641749
    vertex 31.108180141477888 -572.4189468254416 304.6897388042071
    vertex 39.30231462790457 -576.6208348933392 306.07193242353594
  endloop
endfacet
facet normal -0.11654656472881983 0.46094389923417206 0.8797429283652747
  outer loop
    vertex 10.063855587647753 -584.7554223501829 306.46062154042164
    vertex 10.2054231685594 -585.3216926738301 306.77607513179066
    vertex 39.30231462790457 -576.6208348933392 306.07193242353594
  endloop
endfacet
facet normal -0.11654656472881983 0.46094389923417206 0.8797429283652747
  outer loop
    vertex 39.69891028731805 -578.8664890259358 307.3010897137349
    vertex 39.30231462790457 -576.6208348933392 306.07193242353594
    vertex 10.2054231685594 -585.3216926738301 306.77607513179066
  endloop
endfacet
facet normal -0.11654656472881983 0.46094389923417206 0.8797429283652747
  outer loop
    vertex 40.196052297160286 -577.791960516487 306.80394770389046
    vertex 39.30231462790457 -576.6208348933392 306.07193242353594
    vertex 39.69891028731805 -578.8664890259358 307.3010897137349
  endloop
endfacet
facet normal -0.0692367088221677 0.3657422477464146 0.9281373208555266
  outer loop
    vertex 36.787940403504884 -569.2985775810597 303.88382039430206
    vertex 39.10161451677823 -571.2547459055406 304.8272633107543
    vertex 78.22238699107949 -560.6810939966779 303.57891604866353
  endloop
endfacet
facet normal -0.0692367088221677 0.3657422477464146 0.9281373208555266
  outer loop
    vertex 77.123972396257 -565.7169930521637 305.48142593468134
    vertex 78.22238699107949 -560.6810939966779 303.57891604866353
    vertex 39.10161451677823 -571.2547459055406 304.8272633107543
  endloop
endfacet
facet normal -0.07953940325017105 0.28573924372653003 0.955000820902892
  outer loop
    vertex 46.2591938906979 -577.4306477340174 307.4178695485369
    vertex 49.86643319737547 -580.5682959801986 308.657100838054
    vertex 75.70335578100357 -570.9862398388726 307.9420060903873
  endloop
endfacet
facet normal -0.07953940325017105 0.28573924372653003 0.955000820902892
  outer loop
    vertex 75.60542716315817 -571.5803965325805 308.11162343201164
    vertex 75.70335578100357 -570.9862398388726 307.9420060903873
    vertex 49.86643319737547 -580.5682959801986 308.657100838054
  endloop
endfacet
endsolid ProtoGlove baseplate
