solid ProtoGlove baseplate
facet normal 0.0 -1.9698374875698473e-12 1.0
  outer loop
    vertex 35.20710678118723 527.9999999998155 300.5000000010681
    vertex 6.375000000000716 528.9999999998156 300.5000000010701
    vertex 6.125000000000773 527.9999999998155 300.5000000010681
  endloop
endfacet
facet normal 0.0 -1.9698374875698473e-12 1.0
  outer loop
    vertex 6.375000000000716 528.9999999998156 300.5000000010701
    vertex 35.20710678118723 527.9999999998155 300.5000000010681
    vertex 34.79289321881418 528.9999999998156 300.5000000010701
  endloop
endfacet
facet normal 0.0 -1.9698374875698473e-12 1.0
  outer loop
    vertex 80.00000000000094 502.9999999998156 300.5000000010188
    vertex 7.219114195322617e-13 503.49999999981566 300.5000000010198
    vertex 7.219114195322617e-13 502.9999999998156 300.5000000010188
  endloop
endfacet
facet normal 0.0 -1.9698374875698473e-12 1.0
  outer loop
    vertex 7.219114195322617e-13 503.49999999981566 300.5000000010198
    vertex 80.00000000000094 502.9999999998156 300.5000000010188
    vertex 0.12500000000069347 503.99999999981554 300.5000000010208
  endloop
endfacet
facet normal 0.0 -1.9698374875698473e-12 1.0
  outer loop
    vertex 0.12500000000069347 503.99999999981554 300.5000000010208
    vertex 80.00000000000094 502.9999999998156 300.5000000010188
    vertex 80.00000000000094 503.99999999981554 300.5000000010208
  endloop
endfacet
facet normal 0.8660254037844397 -9.863769427599237e-13 0.4999999999999984
  outer loop
    vertex 73.99357149404125 535.2629881103604 310.90343934543483
    vertex 80.00000000000094 533.4999999998155 300.5000000010789
    vertex 73.8264375503166 536.0993947154508 311.1929238276367
  endloop
endfacet
facet normal 0.8660254037844397 -9.863769427599237e-13 0.4999999999999984
  outer loop
    vertex 80.00000000000094 533.4999999998155 300.5000000010789
    vertex 73.99357149404125 535.2629881103604 310.90343934543483
    vertex 75.60542716315817 530.5803965327888 308.11162343204694
  endloop
endfacet
facet normal 0.8660254037844397 -9.863769427599237e-13 0.4999999999999984
  outer loop
    vertex 80.00000000000094 533.4999999998155 300.5000000010789
    vertex 75.60542716315817 530.5803965327888 308.11162343204694
    vertex 77.07293878986896 525.1124683232689 305.56981873387474
  endloop
endfacet
facet normal 0.8660254037844397 -9.863769427599237e-13 0.4999999999999984
  outer loop
    vertex 80.00000000000094 533.4999999998155 300.5000000010789
    vertex 77.07293878986896 525.1124683232689 305.56981873387474
    vertex 78.22238699107949 519.6810939968861 303.57891604869883
  endloop
endfacet
facet normal 0.8660254037844397 -9.863769427599237e-13 0.4999999999999984
  outer loop
    vertex 80.00000000000094 533.4999999998155 300.5000000010789
    vertex 78.22238699107949 519.6810939968861 303.57891604869883
    vertex 79.0479875022518 514.2746469783723 302.1489340165831
  endloop
endfacet
facet normal 0.8660254037844397 -9.863769427599237e-13 0.4999999999999984
  outer loop
    vertex 80.00000000000094 533.4999999998155 300.5000000010789
    vertex 79.0479875022518 514.2746469783723 302.1489340165831
    vertex 80.00000000000094 504.4999999998156 300.5000000010219
  endloop
endfacet
facet normal 0.8660254037844397 -9.863769427599237e-13 0.4999999999999984
  outer loop
    vertex 77.07293878986896 525.1124683232689 305.56981873387474
    vertex 75.60542716315817 530.5803965327888 308.11162343204694
    vertex 75.70335578100357 529.9862398390808 307.9420060904226
  endloop
endfacet
facet normal 0.8660254037844397 -9.863769427599237e-13 0.4999999999999984
  outer loop
    vertex 78.22238699107949 519.6810939968861 303.57891604869883
    vertex 77.07293878986896 525.1124683232689 305.56981873387474
    vertex 77.123972396257 524.7169930523719 305.48142593471664
  endloop
endfacet
facet normal 0.8660254037844397 -9.863769427599237e-13 0.4999999999999984
  outer loop
    vertex 79.0479875022518 514.2746469783723 302.1489340165831
    vertex 78.22238699107949 519.6810939968861 303.57891604869883
    vertex 78.24465178897717 519.4407848787546 303.54035228751945
  endloop
endfacet
facet normal 0.8660254037844397 -9.863769427599237e-13 0.4999999999999984
  outer loop
    vertex 80.00000000000094 504.4999999998156 300.5000000010219
    vertex 79.0479875022518 514.2746469783723 302.1489340165831
    vertex 79.05518079201308 514.1457278801314 302.13647487324266
  endloop
endfacet
facet normal 0.8660254037844397 -9.863769427599237e-13 0.4999999999999984
  outer loop
    vertex 80.00000000000094 504.4999999998156 300.5000000010219
    vertex 79.05518079201308 514.1457278801314 302.13647487324266
    vertex 79.54524751905005 508.8836397524909 301.2876544029051
  endloop
endfacet
facet normal 0.8660254037844397 -9.863769427599237e-13 0.4999999999999984
  outer loop
    vertex 80.00000000000094 504.4999999998156 300.5000000010219
    vertex 79.54524751905005 508.8836397524909 301.2876544029051
    vertex 79.54639865423789 508.8218874216843 301.28566057827317
  endloop
endfacet
facet normal 0.8660254037844397 -9.863769427599237e-13 0.4999999999999984
  outer loop
    vertex 80.00000000000094 504.4999999998156 300.5000000010219
    vertex 79.54639865423789 508.8218874216843 301.28566057827317
    vertex 79.68610202651367 504.3138979733014 301.043687239494
  endloop
endfacet
facet normal 0.8660254037844397 -9.863769427599237e-13 0.4999999999999984
  outer loop
    vertex 80.00000000000094 504.4999999998156 300.5000000010219
    vertex 79.68610202651367 504.3138979733014 301.043687239494
    vertex 80.00000000000094 503.99999999981554 300.5000000010208
  endloop
endfacet
facet normal 7.465258411347912e-16 1.9695596483352652e-12 -1.0
  outer loop
    vertex 45.000000000000774 548.2368421050796 300.00000000110794
    vertex 34.79289321881418 528.9999999998164 300.00000000107
    vertex 32.500000000001094 553.4999999998164 300.0000000011183
  endloop
endfacet
facet normal 7.465258411347912e-16 1.9695596483352652e-12 -1.0
  outer loop
    vertex 34.79289321881418 528.9999999998164 300.00000000107
    vertex 45.000000000000774 548.2368421050796 300.00000000110794
    vertex 45.000000000000774 539.207106781003 300.00000000109026
  endloop
endfacet
facet normal 7.465258411347912e-16 1.9695596483352652e-12 -1.0
  outer loop
    vertex 35.20710678118723 527.9999999998164 300.0000000010681
    vertex 34.79289321881418 477.9999999998164 300.0000000009696
    vertex 34.79289321881418 528.9999999998164 300.00000000107
  endloop
endfacet
facet normal 7.465258411347912e-16 1.9695596483352652e-12 -1.0
  outer loop
    vertex 34.79289321881418 477.9999999998164 300.0000000009696
    vertex 35.20710678118723 527.9999999998164 300.0000000010681
    vertex 35.20710678118723 478.99999999981645 300.00000000097157
  endloop
endfacet
facet normal 7.465258411347912e-16 1.9695596483352652e-12 -1.0
  outer loop
    vertex 35.20710678118723 478.99999999981645 300.00000000097157
    vertex 35.20710678118723 527.9999999998164 300.0000000010681
    vertex 52.34944551268779 545.1423387313167 300.00000000110185
  endloop
endfacet
facet normal 7.465258411347912e-16 1.9695596483352652e-12 -1.0
  outer loop
    vertex 35.20710678118723 478.99999999981645 300.00000000097157
    vertex 52.34944551268779 545.1423387313167 300.00000000110185
    vertex 52.3494455126876 461.85766126831606 300.00000000093786
  endloop
endfacet
facet normal 7.465258411347912e-16 1.9695596483352652e-12 -1.0
  outer loop
    vertex 52.3494455126876 461.85766126831606 300.00000000093786
    vertex 52.34944551268779 545.1423387313167 300.00000000110185
    vertex 80.00000000000094 473.4999999998164 300.0000000009608
  endloop
endfacet
facet normal 7.465258411347912e-16 1.9695596483352652e-12 -1.0
  outer loop
    vertex 80.00000000000094 473.4999999998164 300.0000000009608
    vertex 52.34944551268779 545.1423387313167 300.00000000110185
    vertex 80.00000000000094 533.4999999998164 300.00000000107894
  endloop
endfacet
facet normal 7.465258411347912e-16 1.9695596483352652e-12 -1.0
  outer loop
    vertex 12.500000000000767 553.4999999998165 300.0000000011183
    vertex 7.219114195322617e-13 453.49999999981645 300.0000000009213
    vertex 7.219114195322617e-13 503.49999999981645 300.0000000010198
  endloop
endfacet
facet normal 7.465258411347912e-16 1.9695596483352652e-12 -1.0
  outer loop
    vertex 7.219114195322617e-13 453.49999999981645 300.0000000009213
    vertex 12.500000000000767 553.4999999998165 300.0000000011183
    vertex 32.50000000000091 453.49999999981645 300.0000000009213
  endloop
endfacet
facet normal 7.465258411347912e-16 1.9695596483352652e-12 -1.0
  outer loop
    vertex 32.50000000000091 453.49999999981645 300.0000000009213
    vertex 12.500000000000767 553.4999999998165 300.0000000011183
    vertex 32.500000000001094 553.4999999998164 300.0000000011183
  endloop
endfacet
facet normal 7.465258411347912e-16 1.9695596483352652e-12 -1.0
  outer loop
    vertex 32.50000000000091 453.49999999981645 300.0000000009213
    vertex 32.500000000001094 553.4999999998164 300.0000000011183
    vertex 34.79289321881418 477.9999999998164 300.0000000009696
  endloop
endfacet
facet normal 7.465258411347912e-16 1.9695596483352652e-12 -1.0
  outer loop
    vertex 32.50000000000091 453.49999999981645 300.0000000009213
    vertex 34.79289321881418 477.9999999998164 300.0000000009696
    vertex 45.000000000000774 458.7631578945532 300.0000000009318
  endloop
endfacet
facet normal 7.465258411347912e-16 1.9695596483352652e-12 -1.0
  outer loop
    vertex 34.79289321881418 477.9999999998164 300.0000000009696
    vertex 32.500000000001094 553.4999999998164 300.0000000011183
    vertex 34.79289321881418 528.9999999998164 300.00000000107
  endloop
endfacet
facet normal 7.465258411347912e-16 1.9695596483352652e-12 -1.0
  outer loop
    vertex 45.000000000000774 458.7631578945532 300.0000000009318
    vertex 34.79289321881418 477.9999999998164 300.0000000009696
    vertex 45.000000000000774 467.7928932186299 300.0000000009495
  endloop
endfacet
facet normal 1.0 0.0 0.0
  outer loop
    vertex 80.00000000000094 533.4999999998155 300.5000000010789
    vertex 80.00000000000094 473.4999999998164 300.0000000009608
    vertex 80.00000000000094 533.4999999998164 300.00000000107894
  endloop
endfacet
facet normal 1.0 0.0 0.0
  outer loop
    vertex 80.00000000000094 473.4999999998164 300.0000000009608
    vertex 80.00000000000094 533.4999999998155 300.5000000010789
    vertex 80.00000000000094 504.4999999998156 300.5000000010219
  endloop
endfacet
facet normal 1.0 0.0 0.0
  outer loop
    vertex 80.00000000000094 473.4999999998164 300.0000000009608
    vertex 80.00000000000094 504.4999999998156 300.5000000010219
    vertex 80.00000000000094 503.99999999981554 300.5000000010208
  endloop
endfacet
facet normal 1.0 0.0 0.0
  outer loop
    vertex 80.00000000000094 473.4999999998164 300.0000000009608
    vertex 80.00000000000094 503.99999999981554 300.5000000010208
    vertex 80.00000000000094 502.9999999998156 300.5000000010188
  endloop
endfacet
facet normal 1.0 0.0 0.0
  outer loop
    vertex 80.00000000000094 473.4999999998164 300.0000000009608
    vertex 80.00000000000094 502.9999999998156 300.5000000010188
    vertex 80.00000000000094 473.4999999998156 300.50000000096065
  endloop
endfacet
facet normal -0.6830127018922169 0.6830127018917116 0.2588190451038673
  outer loop
    vertex 52.34944551268779 545.1423387313164 300.50000000110185
    vertex 49.86643319737547 539.5682959804068 308.6571008380894
    vertex 55.35474344944501 543.876950126343 311.7701642683042
  endloop
endfacet
facet normal -0.6830127018922169 0.6830127018917116 0.2588190451038673
  outer loop
    vertex 49.86643319737547 539.5682959804068 308.6571008380894
    vertex 52.34944551268779 545.1423387313164 300.50000000110185
    vertex 35.20710678118723 527.9999999998155 300.5000000010681
  endloop
endfacet
facet normal -0.6830127018922169 0.6830127018917116 0.2588190451038673
  outer loop
    vertex 55.35474344944501 543.876950126343 311.7701642683042
    vertex 49.86643319737547 539.5682959804068 308.6571008380894
    vertex 52.57001307816405 541.5511639765563 310.55902954436664
  endloop
endfacet
facet normal -0.6830127018922169 0.6830127018917116 0.2588190451038673
  outer loop
    vertex 49.86643319737547 539.5682959804068 308.6571008380894
    vertex 35.20710678118723 527.9999999998155 300.5000000010681
    vertex 46.2591938906979 536.4306477342255 307.4178695485722
  endloop
endfacet
facet normal -0.6830127018922169 0.6830127018917116 0.2588190451038673
  outer loop
    vertex 46.2591938906979 536.4306477342255 307.4178695485722
    vertex 35.20710678118723 527.9999999998155 300.5000000010681
    vertex 43.69508929873259 534.3986976499648 306.01353592240355
  endloop
endfacet
facet normal -0.6830127018922169 0.6830127018917116 0.2588190451038673
  outer loop
    vertex 43.69508929873259 534.3986976499648 306.01353592240355
    vertex 35.20710678118723 527.9999999998155 300.5000000010681
    vertex 39.10161451677823 530.2547459057489 304.8272633107896
  endloop
endfacet
facet normal -0.6830127018922169 0.6830127018917116 0.2588190451038673
  outer loop
    vertex 39.10161451677823 530.2547459057489 304.8272633107896
    vertex 35.20710678118723 527.9999999998155 300.5000000010681
    vertex 36.787940403504884 528.298577581268 303.8838203943374
  endloop
endfacet
facet normal -0.6830127018922169 0.6830127018917116 0.2588190451038673
  outer loop
    vertex 36.787940403504884 528.298577581268 303.8838203943374
    vertex 35.20710678118723 527.9999999998155 300.5000000010681
    vertex 34.612727906901185 526.270451038215 303.4956666767242
  endloop
endfacet
facet normal -0.9701425001453321 0.24253562503633272 4.805925717721223e-13
  outer loop
    vertex 12.500000000000767 553.4999999998165 300.0000000011183
    vertex 12.296841932344979 552.6873677291748 309.45329991317993
    vertex 12.500000000000767 553.4999999997967 309.98447436114014
  endloop
endfacet
facet normal -0.9701425001453321 0.24253562503633272 4.805925717721223e-13
  outer loop
    vertex 12.296841932344979 552.6873677291748 309.45329991317993
    vertex 12.500000000000767 553.4999999998165 300.0000000011183
    vertex 6.375000000000716 528.9999999998156 300.5000000010701
  endloop
endfacet
facet normal -0.9701425001453321 0.24253562503633272 4.805925717721223e-13
  outer loop
    vertex 6.375000000000716 528.9999999998156 300.5000000010701
    vertex 12.500000000000767 553.4999999998165 300.0000000011183
    vertex 7.219114195322617e-13 503.49999999981645 300.0000000010198
  endloop
endfacet
facet normal -0.9701425001453321 0.24253562503633272 4.805925717721223e-13
  outer loop
    vertex 12.500000000000767 553.4999999997967 309.98447436114014
    vertex 12.296841932344979 552.6873677291748 309.45329991317993
    vertex 12.456303630554324 553.3252145220115 309.91415279593986
  endloop
endfacet
facet normal -0.9701425001453321 0.24253562503633272 4.805925717721223e-13
  outer loop
    vertex 12.296841932344979 552.6873677291748 309.45329991317993
    vertex 6.375000000000716 528.9999999998156 300.5000000010701
    vertex 10.063855587647753 543.7554223503911 306.46062154045694
  endloop
endfacet
facet normal -0.9701425001453321 0.24253562503633272 4.805925717721223e-13
  outer loop
    vertex 12.296841932344979 552.6873677291748 309.45329991317993
    vertex 10.063855587647753 543.7554223503911 306.46062154045694
    vertex 10.2054231685594 544.3216926740382 306.776075131826
  endloop
endfacet
facet normal -0.9701425001453321 0.24253562503633272 4.805925717721223e-13
  outer loop
    vertex 10.063855587647753 543.7554223503911 306.46062154045694
    vertex 6.375000000000716 528.9999999998156 300.5000000010701
    vertex 7.827416356470724 534.8096654256874 304.28920063738536
  endloop
endfacet
facet normal -0.9701425001453321 0.24253562503633272 4.805925717721223e-13
  outer loop
    vertex 7.827416356470724 534.8096654256874 304.28920063738536
    vertex 6.375000000000716 528.9999999998156 300.5000000010701
    vertex 7.71146642875248 534.3458657148154 304.0977859230434
  endloop
endfacet
facet normal -0.9701425001453321 0.24253562503633272 4.805925717721223e-13
  outer loop
    vertex 7.71146642875248 534.3458657148154 304.0977859230434
    vertex 6.375000000000716 528.9999999998156 300.5000000010701
    vertex 6.805613906882686 530.7224556273372 303.4833806617343
  endloop
endfacet
facet normal -0.9701425001453321 0.24253562503633272 4.805925717721223e-13
  outer loop
    vertex 6.375000000000716 528.9999999998156 300.5000000010701
    vertex 7.219114195322617e-13 503.49999999981645 300.0000000010198
    vertex 6.125000000000773 527.9999999998155 300.5000000010681
  endloop
endfacet
facet normal -0.9701425001453321 0.24253562503633272 4.805925717721223e-13
  outer loop
    vertex 6.125000000000773 527.9999999998155 300.5000000010681
    vertex 7.219114195322617e-13 503.49999999981645 300.0000000010198
    vertex 5.2457598456479255 524.4830393824004 302.38749903971524
  endloop
endfacet
facet normal -0.9701425001453321 0.24253562503633272 4.805925717721223e-13
  outer loop
    vertex 6.125000000000773 527.9999999998155 300.5000000010681
    vertex 5.2457598456479255 524.4830393824004 302.38749903971524
    vertex 5.7934733149896624 526.673893259766 302.7968842510826
  endloop
endfacet
facet normal -0.9701425001453321 0.24253562503633272 4.805925717721223e-13
  outer loop
    vertex 5.7934733149896624 526.673893259766 302.7968842510826
    vertex 5.2457598456479255 524.4830393824004 302.38749903971524
    vertex 5.32895267446203 524.8158106976568 302.4818175943848
  endloop
endfacet
facet normal -0.9701425001453321 0.24253562503633272 4.805925717721223e-13
  outer loop
    vertex 5.2457598456479255 524.4830393824004 302.38749903971524
    vertex 7.219114195322617e-13 503.49999999981645 300.0000000010198
    vertex 2.6731017779689763 514.1924071116865 301.349335744813
  endloop
endfacet
facet normal -0.9701425001453321 0.24253562503633272 4.805925717721223e-13
  outer loop
    vertex 5.2457598456479255 524.4830393824004 302.38749903971524
    vertex 2.6731017779689763 514.1924071116865 301.349335744813
    vertex 2.7172652807387108 514.3690611227651 301.3784622416956
  endloop
endfacet
facet normal -0.9701425001453321 0.24253562503633272 4.805925717721223e-13
  outer loop
    vertex 2.6731017779689763 514.1924071116865 301.349335744813
    vertex 7.219114195322617e-13 503.49999999981645 300.0000000010198
    vertex 0.12500000000069347 503.99999999981554 300.5000000010208
  endloop
endfacet
facet normal -0.9701425001453321 0.24253562503633272 4.805925717721223e-13
  outer loop
    vertex 2.6731017779689763 514.1924071116865 301.349335744813
    vertex 0.12500000000069347 503.99999999981554 300.5000000010208
    vertex 0.20095944808309696 504.3038377921427 301.0262624945945
  endloop
endfacet
facet normal -0.9701425001453321 0.24253562503633272 4.805925717721223e-13
  outer loop
    vertex 0.12500000000069347 503.99999999981554 300.5000000010208
    vertex 7.219114195322617e-13 503.49999999981645 300.0000000010198
    vertex 7.219114195322617e-13 503.49999999981566 300.5000000010198
  endloop
endfacet
facet normal 2.1203645617333476e-16 -0.8660254037854177 0.4999999999983043
  outer loop
    vertex 0.20095944808309696 504.3038377921427 301.0262624945945
    vertex 79.68610202651367 504.3138979733014 301.043687239494
    vertex 12.165355546008263 504.3138979733014 301.043687239494
  endloop
endfacet
facet normal 2.1203645617333476e-16 -0.8660254037854177 0.4999999999983043
  outer loop
    vertex 79.68610202651367 504.3138979733014 301.043687239494
    vertex 0.20095944808309696 504.3038377921427 301.0262624945945
    vertex 80.00000000000094 503.99999999981554 300.5000000010208
  endloop
endfacet
facet normal 2.1203645617333476e-16 -0.8660254037854177 0.4999999999983043
  outer loop
    vertex 80.00000000000094 503.99999999981554 300.5000000010208
    vertex 0.20095944808309696 504.3038377921427 301.0262624945945
    vertex 0.12500000000069347 503.99999999981554 300.5000000010208
  endloop
endfacet
facet normal -1.0 -0.0 0.0
  outer loop
    vertex 7.219114195322617e-13 453.49999999981645 300.0000000009213
    vertex 7.219114195322617e-13 503.49999999981566 300.5000000010198
    vertex 7.219114195322617e-13 503.49999999981645 300.0000000010198
  endloop
endfacet
facet normal -1.0 -0.0 0.0
  outer loop
    vertex 7.219114195322617e-13 503.49999999981566 300.5000000010198
    vertex 7.219114195322617e-13 453.49999999981645 300.0000000009213
    vertex 7.219114195322617e-13 502.9999999998156 300.5000000010188
  endloop
endfacet
facet normal -1.0 -0.0 0.0
  outer loop
    vertex 7.219114195322617e-13 502.9999999998156 300.5000000010188
    vertex 7.219114195322617e-13 453.49999999981645 300.0000000009213
    vertex 7.219114195322617e-13 479.4999999998155 300.50000000097265
  endloop
endfacet
facet normal -1.0 -0.0 0.0
  outer loop
    vertex 7.219114195322617e-13 479.4999999998155 300.50000000097265
    vertex 7.219114195322617e-13 453.49999999981645 300.0000000009213
    vertex 7.219114195322617e-13 478.9999999998156 300.5000000009716
  endloop
endfacet
facet normal -1.0 -0.0 0.0
  outer loop
    vertex 7.219114195322617e-13 478.9999999998156 300.5000000009716
    vertex 7.219114195322617e-13 453.49999999981645 300.0000000009213
    vertex 7.219114195322617e-13 477.9999999998155 300.5000000009695
  endloop
endfacet
facet normal -1.0 -0.0 0.0
  outer loop
    vertex 7.219114195322617e-13 477.9999999998155 300.5000000009695
    vertex 7.219114195322617e-13 453.49999999981645 300.0000000009213
    vertex 7.219114195322617e-13 453.49999999981566 300.5000000009213
  endloop
endfacet
facet normal -1.1712049922181645e-16 0.866025403783477 0.500000000001666
  outer loop
    vertex 80.00000000000094 502.9999999998156 300.5000000010188
    vertex 12.165355546008263 502.6861020263272 301.04368723949074
    vertex 79.68610202651402 502.6861020263272 301.04368723949074
  endloop
endfacet
facet normal -1.1712049922181645e-16 0.866025403783477 0.500000000001666
  outer loop
    vertex 12.165355546008263 502.6861020263272 301.04368723949074
    vertex 80.00000000000094 502.9999999998156 300.5000000010188
    vertex 0.5267369504394083 502.69588827968596 301.0267369514569
  endloop
endfacet
facet normal -1.1712049922181645e-16 0.866025403783477 0.500000000001666
  outer loop
    vertex 0.5267369504394083 502.69588827968596 301.0267369514569
    vertex 80.00000000000094 502.9999999998156 300.5000000010188
    vertex 7.219114195322617e-13 502.9999999998156 300.5000000010188
  endloop
endfacet
facet normal 0.0 -1.9698374875698473e-12 1.0
  outer loop
    vertex 34.79289321881418 477.9999999998155 300.5000000009695
    vertex 7.219114195322617e-13 478.9999999998156 300.5000000009716
    vertex 7.219114195322617e-13 477.9999999998155 300.5000000009695
  endloop
endfacet
facet normal 0.0 -1.9698374875698473e-12 1.0
  outer loop
    vertex 7.219114195322617e-13 478.9999999998156 300.5000000009716
    vertex 34.79289321881418 477.9999999998155 300.5000000009695
    vertex 35.20710678118723 478.9999999998156 300.5000000009716
  endloop
endfacet
facet normal 1.8439932935698495e-16 0.8660254037834549 0.5000000000017039
  outer loop
    vertex 34.79289321881418 477.9999999998155 300.5000000009695
    vertex 31.10818014147825 475.58105317396365 304.68973880413233
    vertex 35.67720482683888 475.42679242202735 304.9569262640996
  endloop
endfacet
facet normal 1.8439932935698495e-16 0.8660254037834549 0.5000000000017039
  outer loop
    vertex 31.10818014147825 475.58105317396365 304.68973880413233
    vertex 34.79289321881418 477.9999999998155 300.5000000009695
    vertex 23.755643850609815 475.99098193077054 303.9797213698636
  endloop
endfacet
facet normal 1.8439932935698495e-16 0.8660254037834549 0.5000000000017039
  outer loop
    vertex 23.755643850609815 475.99098193077054 303.9797213698636
    vertex 34.79289321881418 477.9999999998155 300.5000000009695
    vertex 2.8680794701915926 476.34411354563815 303.36807947115693
  endloop
endfacet
facet normal 1.8439932935698495e-16 0.8660254037834549 0.5000000000017039
  outer loop
    vertex 2.8680794701915926 476.34411354563815 303.36807947115693
    vertex 34.79289321881418 477.9999999998155 300.5000000009695
    vertex 7.219114195322617e-13 477.9999999998155 300.5000000009695
  endloop
endfacet
facet normal -0.6830127018922181 -0.683012701892729 0.25881904510117926
  outer loop
    vertex 52.57001307816405 465.448836023035 310.5590295442167
    vertex 52.3494455126876 461.85766126831527 300.5000000009378
    vertex 55.35474344944483 463.12304987324325 311.77016426814515
  endloop
endfacet
facet normal -0.6830127018922181 -0.683012701892729 0.25881904510117926
  outer loop
    vertex 52.3494455126876 461.85766126831527 300.5000000009378
    vertex 52.57001307816405 465.448836023035 310.5590295442167
    vertex 49.86643319737547 467.4317040191917 308.6571008379472
  endloop
endfacet
facet normal -0.6830127018922181 -0.683012701892729 0.25881904510117926
  outer loop
    vertex 52.3494455126876 461.85766126831527 300.5000000009378
    vertex 49.86643319737547 467.4317040191917 308.6571008379472
    vertex 46.259193890697716 470.56935226537774 307.4178695484424
  endloop
endfacet
facet normal -0.6830127018922181 -0.683012701892729 0.25881904510117926
  outer loop
    vertex 52.3494455126876 461.85766126831527 300.5000000009378
    vertex 46.259193890697716 470.56935226537774 307.4178695484424
    vertex 43.695089298732775 472.6013023496442 306.0135359222819
  endloop
endfacet
facet normal -0.6830127018922181 -0.683012701892729 0.25881904510117926
  outer loop
    vertex 52.3494455126876 461.85766126831527 300.5000000009378
    vertex 43.695089298732775 472.6013023496442 306.0135359222819
    vertex 39.10161451677804 476.7452540938649 304.82726331068415
  endloop
endfacet
facet normal -0.6830127018922181 -0.683012701892729 0.25881904510117926
  outer loop
    vertex 52.3494455126876 461.85766126831527 300.5000000009378
    vertex 39.10161451677804 476.7452540938649 304.82726331068415
    vertex 36.787940403504706 478.7014224183495 303.88382039423965
  endloop
endfacet
facet normal -0.6830127018922181 -0.683012701892729 0.25881904510117926
  outer loop
    vertex 52.3494455126876 461.85766126831527 300.5000000009378
    vertex 36.787940403504706 478.7014224183495 303.88382039423965
    vertex 34.612727906901185 480.72954896140385 303.4956666766344
  endloop
endfacet
facet normal -0.6830127018922181 -0.683012701892729 0.25881904510117926
  outer loop
    vertex 52.3494455126876 461.85766126831527 300.5000000009378
    vertex 34.612727906901185 480.72954896140385 303.4956666766344
    vertex 35.20710678118723 478.9999999998156 300.5000000009716
  endloop
endfacet
facet normal 0.38805700005813465 -0.9216353751380646 -1.8120932108673289e-12
  outer loop
    vertex 32.50000000000091 453.49999999981645 300.0000000009213
    vertex 34.58064516129096 454.3760611203352 312.4193548396328
    vertex 32.50000000000073 453.49999999979184 312.4843750009213
  endloop
endfacet
facet normal 0.38805700005813465 -0.9216353751380646 -1.8120932108673289e-12
  outer loop
    vertex 34.58064516129096 454.3760611203352 312.4193548396328
    vertex 32.50000000000091 453.49999999981645 300.0000000009213
    vertex 45.000000000000774 458.7631578945491 302.0000000009318
  endloop
endfacet
facet normal 0.38805700005813465 -0.9216353751380646 -1.8120932108673289e-12
  outer loop
    vertex 45.000000000000774 458.7631578945491 302.0000000009318
    vertex 32.50000000000091 453.49999999981645 300.0000000009213
    vertex 45.000000000000774 458.7631578945532 300.0000000009318
  endloop
endfacet
facet normal 0.38805700005813226 0.9216353751380656 1.8143564704983645e-12
  outer loop
    vertex 34.58064516129114 552.6239388792487 312.41935483982627
    vertex 32.500000000001094 553.4999999998164 300.0000000011183
    vertex 32.50000000000073 553.4999999997922 312.4843750011183
  endloop
endfacet
facet normal 0.38805700005813226 0.9216353751380656 1.8143564704983645e-12
  outer loop
    vertex 32.500000000001094 553.4999999998164 300.0000000011183
    vertex 34.58064516129114 552.6239388792487 312.41935483982627
    vertex 45.000000000000774 548.2368421050755 302.000000001108
  endloop
endfacet
facet normal 0.38805700005813226 0.9216353751380656 1.8143564704983645e-12
  outer loop
    vertex 32.500000000001094 553.4999999998164 300.0000000011183
    vertex 45.000000000000774 548.2368421050755 302.000000001108
    vertex 45.000000000000774 548.2368421050796 300.00000000110794
  endloop
endfacet
facet normal 0.6830127018922155 -0.6830127018927321 0.2588190451011779
  outer loop
    vertex 39.30231462790457 535.6208348935473 306.07193242357124
    vertex 45.000000000000774 539.7755128539434 302.00000000109145
    vertex 40.196052297160286 536.7919605166952 306.80394770392576
  endloop
endfacet
facet normal 0.6830127018922155 -0.6830127018927321 0.2588190451011779
  outer loop
    vertex 45.000000000000774 539.7755128539434 302.00000000109145
    vertex 39.30231462790457 535.6208348935473 306.07193242357124
    vertex 35.67720482683888 531.5732075775861 304.9569262642102
  endloop
endfacet
facet normal 0.6830127018922155 -0.6830127018927321 0.2588190451011779
  outer loop
    vertex 45.000000000000774 539.7755128539434 302.00000000109145
    vertex 35.67720482683888 531.5732075775861 304.9569262642102
    vertex 34.79289321881418 528.9999999998156 300.5000000010701
  endloop
endfacet
facet normal 0.6830127018922155 -0.6830127018927321 0.2588190451011779
  outer loop
    vertex 45.000000000000774 539.7755128539434 302.00000000109145
    vertex 34.79289321881418 528.9999999998156 300.5000000010701
    vertex 45.000000000000774 539.2071067810027 300.50000000109026
  endloop
endfacet
facet normal 0.7071067811865418 -1.3924155896736607e-12 0.7071067811865533
  outer loop
    vertex 45.000000000000774 458.7631578945491 302.0000000009318
    vertex 36.69616195211796 460.7895928843982 310.3038380488183
    vertex 34.58064516129096 454.3760611203352 312.4193548396328
  endloop
endfacet
facet normal 0.7071067811865418 -1.3924155896736607e-12 0.7071067811865533
  outer loop
    vertex 36.69616195211796 460.7895928843982 310.3038380488183
    vertex 45.000000000000774 458.7631578945491 302.0000000009318
    vertex 38.09339737398466 463.3206318337547 308.90660262695667
  endloop
endfacet
facet normal 0.7071067811865418 -1.3924155896736607e-12 0.7071067811865533
  outer loop
    vertex 38.09339737398466 463.3206318337547 308.90660262695667
    vertex 45.000000000000774 458.7631578945491 302.0000000009318
    vertex 39.69891028731805 469.1335109734605 307.30108971363484
  endloop
endfacet
facet normal 0.7071067811865418 -1.3924155896736607e-12 0.7071067811865533
  outer loop
    vertex 39.69891028731805 469.1335109734605 307.30108971363484
    vertex 45.000000000000774 458.7631578945491 302.0000000009318
    vertex 40.196052297160286 470.20803948291086 306.8039477037946
  endloop
endfacet
facet normal 0.7071067811865418 -1.3924155896736607e-12 0.7071067811865533
  outer loop
    vertex 40.196052297160286 470.20803948291086 306.8039477037946
    vertex 45.000000000000774 458.7631578945491 302.0000000009318
    vertex 45.000000000000774 467.2244871456812 302.00000000094843
  endloop
endfacet
facet normal 0.3880570000581331 -0.9216353751380654 -1.810596851187276e-12
  outer loop
    vertex 52.3494455126876 461.85766126831527 300.5000000009378
    vertex 73.82643755031677 470.90060528413795 311.1929238275083
    vertex 55.35474344944483 463.12304987324325 311.77016426814515
  endloop
endfacet
facet normal 0.3880570000581331 -0.9216353751380654 -1.810596851187276e-12
  outer loop
    vertex 73.82643755031677 470.90060528413795 311.1929238275083
    vertex 52.3494455126876 461.85766126831527 300.5000000009378
    vertex 80.00000000000094 473.4999999998156 300.50000000096065
  endloop
endfacet
facet normal 0.3880570000581331 -0.9216353751380654 -1.810596851187276e-12
  outer loop
    vertex 80.00000000000094 473.4999999998156 300.50000000096065
    vertex 52.3494455126876 461.85766126831527 300.5000000009378
    vertex 80.00000000000094 473.4999999998164 300.0000000009608
  endloop
endfacet
facet normal 0.3880570000581331 -0.9216353751380654 -1.810596851187276e-12
  outer loop
    vertex 80.00000000000094 473.4999999998164 300.0000000009608
    vertex 52.3494455126876 461.85766126831527 300.5000000009378
    vertex 52.3494455126876 461.85766126831606 300.00000000093786
  endloop
endfacet
facet normal 1.0 0.0 0.0
  outer loop
    vertex 45.000000000000774 467.79289321862905 300.50000000094957
    vertex 45.000000000000774 458.7631578945532 300.0000000009318
    vertex 45.000000000000774 467.7928932186299 300.0000000009495
  endloop
endfacet
facet normal 1.0 0.0 0.0
  outer loop
    vertex 45.000000000000774 458.7631578945532 300.0000000009318
    vertex 45.000000000000774 467.79289321862905 300.50000000094957
    vertex 45.000000000000774 467.2244871456812 302.00000000094843
  endloop
endfacet
facet normal 1.0 0.0 0.0
  outer loop
    vertex 45.000000000000774 458.7631578945532 300.0000000009318
    vertex 45.000000000000774 467.2244871456812 302.00000000094843
    vertex 45.000000000000774 458.7631578945491 302.0000000009318
  endloop
endfacet
facet normal 1.8427181325897126e-16 -0.8660254037854233 0.49999999999829453
  outer loop
    vertex 31.108180141477888 531.4189468256498 304.6897388042424
    vertex 34.79289321881418 528.9999999998156 300.5000000010701
    vertex 35.67720482683888 531.5732075775861 304.9569262642102
  endloop
endfacet
facet normal 1.8427181325897126e-16 -0.8660254037854233 0.49999999999829453
  outer loop
    vertex 34.79289321881418 528.9999999998156 300.5000000010701
    vertex 31.108180141477888 531.4189468256498 304.6897388042424
    vertex 23.755643850609637 531.0090180688468 303.9797213699719
  endloop
endfacet
facet normal 1.8427181325897126e-16 -0.8660254037854233 0.49999999999829453
  outer loop
    vertex 34.79289321881418 528.9999999998156 300.5000000010701
    vertex 23.755643850609637 531.0090180688468 303.9797213699719
    vertex 6.805613906882686 530.7224556273372 303.4833806617343
  endloop
endfacet
facet normal 1.8427181325897126e-16 -0.8660254037854233 0.49999999999829453
  outer loop
    vertex 34.79289321881418 528.9999999998156 300.5000000010701
    vertex 6.805613906882686 530.7224556273372 303.4833806617343
    vertex 6.375000000000716 528.9999999998156 300.5000000010701
  endloop
endfacet
facet normal 6.135385304791758e-17 -1.0 -1.9766462367054505e-12
  outer loop
    vertex 11.860816644619268 453.4999999997969 309.9045796169841
    vertex 32.50000000000091 453.49999999981645 300.0000000009213
    vertex 32.50000000000073 453.49999999979184 312.4843750009213
  endloop
endfacet
facet normal 6.135385304791758e-17 -1.0 -1.9766462367054505e-12
  outer loop
    vertex 32.50000000000091 453.49999999981645 300.0000000009213
    vertex 11.860816644619268 453.4999999997969 309.9045796169841
    vertex 9.969675586986007 453.4999999997977 309.5026187271984
  endloop
endfacet
facet normal 6.135385304791758e-17 -1.0 -1.9766462367054505e-12
  outer loop
    vertex 32.50000000000091 453.49999999981645 300.0000000009213
    vertex 9.969675586986007 453.4999999997977 309.5026187271984
    vertex 8.914757486412137 453.499999999798 309.41475748733257
  endloop
endfacet
facet normal 6.135385304791758e-17 -1.0 -1.9766462367054505e-12
  outer loop
    vertex 32.50000000000091 453.49999999981645 300.0000000009213
    vertex 8.914757486412137 453.499999999798 309.41475748733257
    vertex 7.219114195322617e-13 453.49999999981566 300.5000000009213
  endloop
endfacet
facet normal 6.135385304791758e-17 -1.0 -1.9766462367054505e-12
  outer loop
    vertex 32.50000000000091 453.49999999981645 300.0000000009213
    vertex 7.219114195322617e-13 453.49999999981566 300.5000000009213
    vertex 7.219114195322617e-13 453.49999999981645 300.0000000009213
  endloop
endfacet
facet normal 3.4345058351407902e-15 1.0 1.966021476707776e-12
  outer loop
    vertex 32.500000000001094 553.4999999998164 300.0000000011183
    vertex 12.500000000000767 553.4999999997967 309.98447436114014
    vertex 32.50000000000073 553.4999999997922 312.4843750011183
  endloop
endfacet
facet normal 3.4345058351407902e-15 1.0 1.966021476707776e-12
  outer loop
    vertex 12.500000000000767 553.4999999997967 309.98447436114014
    vertex 32.500000000001094 553.4999999998164 300.0000000011183
    vertex 12.500000000000767 553.4999999998165 300.0000000011183
  endloop
endfacet
facet normal 1.4572444494939974e-15 0.8660254037834426 0.5000000000017251
  outer loop
    vertex 35.20710678118723 527.9999999998155 300.5000000010681
    vertex 5.7934733149896624 526.673893259766 302.7968842510826
    vertex 34.612727906901185 526.270451038215 303.4956666767242
  endloop
endfacet
facet normal 1.4572444494939974e-15 0.8660254037834426 0.5000000000017251
  outer loop
    vertex 5.7934733149896624 526.673893259766 302.7968842510826
    vertex 35.20710678118723 527.9999999998155 300.5000000010681
    vertex 6.125000000000773 527.9999999998155 300.5000000010681
  endloop
endfacet
facet normal 4.926548178338094e-16 -0.8660254037854249 0.4999999999982921
  outer loop
    vertex 2.209995417787249 480.275941449178 302.7099954187606
    vertex 35.20710678118723 478.9999999998156 300.5000000009716
    vertex 34.612727906901185 480.72954896140385 303.4956666766344
  endloop
endfacet
facet normal 4.926548178338094e-16 -0.8660254037854249 0.4999999999982921
  outer loop
    vertex 35.20710678118723 478.9999999998156 300.5000000009716
    vertex 2.209995417787249 480.275941449178 302.7099954187606
    vertex 7.219114195322617e-13 478.9999999998156 300.5000000009716
  endloop
endfacet
facet normal 1.459154919043944e-17 0.05359939492165515 0.9985625192565725
  outer loop
    vertex 79.68610202651402 502.6861020263272 301.04368723949074
    vertex 12.165355546008263 502.6861020263272 301.04368723949074
    vertex 79.54639865423826 498.17811257794364 301.28566057825225
  endloop
endfacet
facet normal -0.0014284650110158138 0.03229719052937213 0.9994772888723495
  outer loop
    vertex 0.8507979397998667 492.68174513071597 301.3507979407976
    vertex 12.165355546008263 502.6861020263272 301.04368723949074
    vertex 0.5267369504394083 502.69588827968596 301.0267369514569
  endloop
endfacet
facet normal -0.0014284650110158138 0.03229719052937213 0.9994772888723495
  outer loop
    vertex 12.165355546008263 502.6861020263272 301.04368723949074
    vertex 0.8507979397998667 492.68174513071597 301.3507979407976
    vertex 79.5452475190504 498.11636024713613 301.2876544028839
  endloop
endfacet
facet normal -0.0014284650110158138 0.03229719052937213 0.9994772888723495
  outer loop
    vertex 12.165355546008263 502.6861020263272 301.04368723949074
    vertex 79.5452475190504 498.11636024713613 301.2876544028839
    vertex 79.54639865423826 498.17811257794364 301.28566057825225
  endloop
endfacet
facet normal 0.38805700005813276 0.9216353751380654 1.821094964287882e-12
  outer loop
    vertex 73.8264375503166 536.0993947154508 311.1929238276367
    vertex 52.34944551268779 545.1423387313164 300.50000000110185
    vertex 55.35474344944501 543.876950126343 311.7701642683042
  endloop
endfacet
facet normal 0.38805700005813276 0.9216353751380654 1.821094964287882e-12
  outer loop
    vertex 52.34944551268779 545.1423387313164 300.50000000110185
    vertex 73.8264375503166 536.0993947154508 311.1929238276367
    vertex 80.00000000000094 533.4999999998155 300.5000000010789
  endloop
endfacet
facet normal 0.38805700005813276 0.9216353751380654 1.821094964287882e-12
  outer loop
    vertex 52.34944551268779 545.1423387313164 300.50000000110185
    vertex 80.00000000000094 533.4999999998155 300.5000000010789
    vertex 52.34944551268779 545.1423387313167 300.00000000110185
  endloop
endfacet
facet normal 0.38805700005813276 0.9216353751380654 1.821094964287882e-12
  outer loop
    vertex 52.34944551268779 545.1423387313167 300.00000000110185
    vertex 80.00000000000094 533.4999999998155 300.5000000010789
    vertex 80.00000000000094 533.4999999998164 300.00000000107894
  endloop
endfacet
facet normal 0.8660254037844507 -9.912410632656178e-13 0.49999999999997946
  outer loop
    vertex 79.68610202651402 502.6861020263272 301.04368723949074
    vertex 80.00000000000094 473.4999999998156 300.50000000096065
    vertex 80.00000000000094 502.9999999998156 300.5000000010188
  endloop
endfacet
facet normal 0.8660254037844507 -9.912410632656178e-13 0.49999999999997946
  outer loop
    vertex 80.00000000000094 473.4999999998156 300.50000000096065
    vertex 79.68610202651402 502.6861020263272 301.04368723949074
    vertex 79.54639865423826 498.17811257794364 301.28566057825225
  endloop
endfacet
facet normal 0.8660254037844507 -9.912410632656178e-13 0.49999999999997946
  outer loop
    vertex 80.00000000000094 473.4999999998156 300.50000000096065
    vertex 79.54639865423826 498.17811257794364 301.28566057825225
    vertex 79.5452475190504 498.11636024713613 301.2876544028839
  endloop
endfacet
facet normal 0.8660254037844507 -9.912410632656178e-13 0.49999999999997946
  outer loop
    vertex 80.00000000000094 473.4999999998156 300.50000000096065
    vertex 79.5452475190504 498.11636024713613 301.2876544028839
    vertex 79.05518079201326 492.85427211949303 302.1364748732007
  endloop
endfacet
facet normal 0.8660254037844507 -9.912410632656178e-13 0.49999999999997946
  outer loop
    vertex 80.00000000000094 473.4999999998156 300.50000000096065
    vertex 79.05518079201326 492.85427211949303 302.1364748732007
    vertex 79.04798750225197 492.7253530212523 302.1489340165406
  endloop
endfacet
facet normal 0.8660254037844507 -9.912410632656178e-13 0.49999999999997946
  outer loop
    vertex 80.00000000000094 473.4999999998156 300.50000000096065
    vertex 79.04798750225197 492.7253530212523 302.1489340165406
    vertex 78.24465178897754 487.5592151208646 303.5403522874566
  endloop
endfacet
facet normal 0.8660254037844507 -9.912410632656178e-13 0.49999999999997946
  outer loop
    vertex 80.00000000000094 473.4999999998156 300.50000000096065
    vertex 78.24465178897754 487.5592151208646 303.5403522874566
    vertex 78.22238699107984 487.3189060027327 303.5789160486351
  endloop
endfacet
facet normal 0.8660254037844507 -9.912410632656178e-13 0.49999999999997946
  outer loop
    vertex 80.00000000000094 473.4999999998156 300.50000000096065
    vertex 78.22238699107984 487.3189060027327 303.5789160486351
    vertex 77.12397239625736 482.2830069472392 305.4814259346331
  endloop
endfacet
facet normal 0.8660254037844507 -9.912410632656178e-13 0.49999999999997946
  outer loop
    vertex 80.00000000000094 473.4999999998156 300.50000000096065
    vertex 77.12397239625736 482.2830069472392 305.4814259346331
    vertex 77.07293878986931 481.8875316763417 305.56981873378965
  endloop
endfacet
facet normal 0.8660254037844507 -9.912410632656178e-13 0.49999999999997946
  outer loop
    vertex 80.00000000000094 473.4999999998156 300.50000000096065
    vertex 77.07293878986931 481.8875316763417 305.56981873378965
    vertex 75.70335578100375 477.0137601605209 307.9420060903183
  endloop
endfacet
facet normal 0.8660254037844507 -9.912410632656178e-13 0.49999999999997946
  outer loop
    vertex 80.00000000000094 473.4999999998156 300.50000000096065
    vertex 75.70335578100375 477.0137601605209 307.9420060903183
    vertex 75.60542716315852 476.41960346681225 308.11162343194025
  endloop
endfacet
facet normal 0.8660254037844507 -9.912410632656178e-13 0.49999999999997946
  outer loop
    vertex 80.00000000000094 473.4999999998156 300.50000000096065
    vertex 75.60542716315852 476.41960346681225 308.11162343194025
    vertex 73.99357149404142 471.7370118892291 310.90343934530966
  endloop
endfacet
facet normal 0.8660254037844507 -9.912410632656178e-13 0.49999999999997946
  outer loop
    vertex 80.00000000000094 473.4999999998156 300.50000000096065
    vertex 73.99357149404142 471.7370118892291 310.90343934530966
    vertex 73.82643755031677 470.90060528413795 311.1929238275083
  endloop
endfacet
facet normal -6.785070373554889e-17 -0.05359939492558745 0.9985625192563613
  outer loop
    vertex 79.68610202651367 504.3138979733014 301.043687239494
    vertex 79.54639865423789 508.8218874216843 301.28566057827317
    vertex 12.165355546008263 504.3138979733014 301.043687239494
  endloop
endfacet
facet normal 0.7071067811865465 -1.3989309209717784e-12 0.7071067811865487
  outer loop
    vertex 36.696161952118146 546.2104071151946 310.3038380489866
    vertex 45.000000000000774 548.2368421050755 302.000000001108
    vertex 34.58064516129114 552.6239388792487 312.41935483982627
  endloop
endfacet
facet normal 0.7071067811865465 -1.3989309209717784e-12 0.7071067811865487
  outer loop
    vertex 45.000000000000774 548.2368421050755 302.000000001108
    vertex 36.696161952118146 546.2104071151946 310.3038380489866
    vertex 38.09339737398466 543.6793681658432 308.906602627115
  endloop
endfacet
facet normal 0.7071067811865465 -1.3989309209717784e-12 0.7071067811865487
  outer loop
    vertex 45.000000000000774 548.2368421050755 302.000000001108
    vertex 38.09339737398466 543.6793681658432 308.906602627115
    vertex 39.69891028731805 537.8664890261441 307.30108971377024
  endloop
endfacet
facet normal 0.7071067811865465 -1.3989309209717784e-12 0.7071067811865487
  outer loop
    vertex 45.000000000000774 548.2368421050755 302.000000001108
    vertex 39.69891028731805 537.8664890261441 307.30108971377024
    vertex 40.196052297160286 536.7919605166952 306.80394770392576
  endloop
endfacet
facet normal 0.7071067811865465 -1.3989309209717784e-12 0.7071067811865487
  outer loop
    vertex 45.000000000000774 548.2368421050755 302.000000001108
    vertex 40.196052297160286 536.7919605166952 306.80394770392576
    vertex 45.000000000000774 539.7755128539434 302.00000000109145
  endloop
endfacet
facet normal -0.03350876070341429 0.2647755687331498 0.9637276903556099
  outer loop
    vertex 1.932510629507982 481.93381847777164 302.43251063048444
    vertex 79.04798750225197 492.7253530212523 302.1489340165406
    vertex 1.8983196084790392 482.0539395868951 302.3983196094558
  endloop
endfacet
facet normal -0.03350876070341429 0.2647755687331498 0.9637276903556099
  outer loop
    vertex 79.04798750225197 492.7253530212523 302.1489340165406
    vertex 1.932510629507982 481.93381847777164 302.43251063048444
    vertex 78.24465178897754 487.5592151208646 303.5403522874566
  endloop
endfacet
facet normal -0.17393814534188584 0.5477787212849126 0.8183422230964812
  outer loop
    vertex 11.860816644619268 453.4999999997969 309.9045796169841
    vertex 38.09339737398466 463.3206318337547 308.90660262695667
    vertex 9.969675586986007 453.4999999997977 309.5026187271984
  endloop
endfacet
facet normal -0.17393814534188584 0.5477787212849126 0.8183422230964812
  outer loop
    vertex 38.09339737398466 463.3206318337547 308.90660262695667
    vertex 11.860816644619268 453.4999999997969 309.9045796169841
    vertex 36.69616195211796 460.7895928843982 310.3038380488183
  endloop
endfacet
facet normal -0.02617374814277863 -0.16075779504988444 0.9866467788620495
  outer loop
    vertex 23.755643850609637 531.0090180688468 303.9797213699719
    vertex 7.71146642875248 534.3458657148154 304.0977859230434
    vertex 6.805613906882686 530.7224556273372 303.4833806617343
  endloop
endfacet
facet normal -0.07953940325017085 0.2857392437227636 0.9550008209040189
  outer loop
    vertex 8.914757486412137 453.499999999798 309.41475748733257
    vertex 39.69891028731805 469.1335109734605 307.30108971363484
    vertex 6.20486098525058 461.8027091470511 306.7048609861878
  endloop
endfacet
facet normal -0.07953940325017085 0.2857392437227636 0.9550008209040189
  outer loop
    vertex 39.69891028731805 469.1335109734605 307.30108971363484
    vertex 8.914757486412137 453.499999999798 309.41475748733257
    vertex 9.969675586986007 453.4999999997977 309.5026187271984
  endloop
endfacet
facet normal -0.07953940325017085 0.2857392437227636 0.9550008209040189
  outer loop
    vertex 39.69891028731805 469.1335109734605 307.30108971363484
    vertex 9.969675586986007 453.4999999997977 309.5026187271984
    vertex 38.09339737398466 463.3206318337547 308.90660262695667
  endloop
endfacet
facet normal -0.11639030097740714 0.34553645271293115 0.9311594158278984
  outer loop
    vertex 32.50000000000073 453.49999999979184 312.4843750009213
    vertex 36.69616195211796 460.7895928843982 310.3038380488183
    vertex 11.860816644619268 453.4999999997969 309.9045796169841
  endloop
endfacet
facet normal -0.11639030097740714 0.34553645271293115 0.9311594158278984
  outer loop
    vertex 36.69616195211796 460.7895928843982 310.3038380488183
    vertex 32.50000000000073 453.49999999979184 312.4843750009213
    vertex 34.58064516129096 454.3760611203352 312.4193548396328
  endloop
endfacet
facet normal -0.02617374814277818 0.16075779504599497 0.9866467788626833
  outer loop
    vertex 2.209995417787249 480.275941449178 302.7099954187606
    vertex 78.24465178897754 487.5592151208646 303.5403522874566
    vertex 1.932510629507982 481.93381847777164 302.43251063048444
  endloop
endfacet
facet normal -0.02617374814277818 0.16075779504599497 0.9866467788626833
  outer loop
    vertex 78.24465178897754 487.5592151208646 303.5403522874566
    vertex 2.209995417787249 480.275941449178 302.7099954187606
    vertex 34.612727906901185 480.72954896140385 303.4956666766344
  endloop
endfacet
facet normal -0.02617374814277818 0.16075779504599497 0.9866467788626833
  outer loop
    vertex 78.24465178897754 487.5592151208646 303.5403522874566
    vertex 34.612727906901185 480.72954896140385 303.4956666766344
    vertex 36.787940403504706 478.7014224183495 303.88382039423965
  endloop
endfacet
facet normal -0.02617374814277818 0.16075779504599497 0.9866467788626833
  outer loop
    vertex 78.24465178897754 487.5592151208646 303.5403522874566
    vertex 36.787940403504706 478.7014224183495 303.88382039423965
    vertex 78.22238699107984 487.3189060027327 303.5789160486351
  endloop
endfacet
facet normal -0.17393814534188254 0.5477787212849067 0.818342223096486
  outer loop
    vertex 52.57001307816405 465.448836023035 310.5590295442167
    vertex 75.60542716315852 476.41960346681225 308.11162343194025
    vertex 49.86643319737547 467.4317040191917 308.6571008379472
  endloop
endfacet
facet normal -0.17393814534188254 0.5477787212849067 0.818342223096486
  outer loop
    vertex 75.60542716315852 476.41960346681225 308.11162343194025
    vertex 52.57001307816405 465.448836023035 310.5590295442167
    vertex 73.99357149404142 471.7370118892291 310.90343934530966
  endloop
endfacet
facet normal -0.06923670882216713 0.3657422477427543 0.928137320856969
  outer loop
    vertex 39.10161451677804 476.7452540938649 304.82726331068415
    vertex 78.22238699107984 487.3189060027327 303.5789160486351
    vertex 36.787940403504706 478.7014224183495 303.88382039423965
  endloop
endfacet
facet normal -0.06923670882216713 0.3657422477427543 0.928137320856969
  outer loop
    vertex 78.22238699107984 487.3189060027327 303.5789160486351
    vertex 39.10161451677804 476.7452540938649 304.82726331068415
    vertex 77.12397239625736 482.2830069472392 305.4814259346331
  endloop
endfacet
facet normal -0.010165656186440965 0.0967519125498145 0.9952566135687078
  outer loop
    vertex 1.8983196084790392 482.0539395868951 302.3983196094558
    vertex 79.05518079201326 492.85427211949303 302.1364748732007
    vertex 0.8600203549393995 492.6255053445363 301.360020355937
  endloop
endfacet
facet normal -0.010165656186440965 0.0967519125498145 0.9952566135687078
  outer loop
    vertex 79.05518079201326 492.85427211949303 302.1364748732007
    vertex 1.8983196084790392 482.0539395868951 302.3983196094558
    vertex 79.04798750225197 492.7253530212523 302.1489340165406
  endloop
endfacet
facet normal -0.11654656472881986 0.4609438992307084 0.8797429283670892
  outer loop
    vertex 6.20486098525058 461.8027091470511 306.7048609861878
    vertex 39.30231462790457 471.37916510606163 306.0719324234447
    vertex 6.014453329380362 462.1179718738409 306.514453330318
  endloop
endfacet
facet normal -0.11654656472881986 0.4609438992307084 0.8797429283670892
  outer loop
    vertex 39.30231462790457 471.37916510606163 306.0719324234447
    vertex 6.20486098525058 461.8027091470511 306.7048609861878
    vertex 39.69891028731805 469.1335109734605 307.30108971363484
  endloop
endfacet
facet normal -0.11654656472881986 0.4609438992307084 0.8797429283670892
  outer loop
    vertex 39.30231462790457 471.37916510606163 306.0719324234447
    vertex 39.69891028731805 469.1335109734605 307.30108971363484
    vertex 40.196052297160286 470.20803948291086 306.8039477037946
  endloop
endfacet
facet normal -0.010269568312112868 0.16017379604959953 0.9870354051531001
  outer loop
    vertex 0.8600203549393995 492.6255053445363 301.360020355937
    vertex 79.5452475190504 498.11636024713613 301.2876544028839
    vertex 0.8507979397998667 492.68174513071597 301.3507979407976
  endloop
endfacet
facet normal -0.010269568312112868 0.16017379604959953 0.9870354051531001
  outer loop
    vertex 79.5452475190504 498.11636024713613 301.2876544028839
    vertex 0.8600203549393995 492.6255053445363 301.360020355937
    vertex 79.05518079201326 492.85427211949303 302.1364748732007
  endloop
endfacet
facet normal -0.049359696198095514 0.22392459945494472 0.973355738746207
  outer loop
    vertex 43.695089298732775 472.6013023496442 306.0135359222819
    vertex 77.12397239625736 482.2830069472392 305.4814259346331
    vertex 39.10161451677804 476.7452540938649 304.82726331068415
  endloop
endfacet
facet normal -0.049359696198095514 0.22392459945494472 0.973355738746207
  outer loop
    vertex 77.12397239625736 482.2830069472392 305.4814259346331
    vertex 43.695089298732775 472.6013023496442 306.0135359222819
    vertex 77.07293878986931 481.8875316763417 305.56981873378965
  endloop
endfacet
facet normal -0.079539403250174 0.2857392437227787 0.9550008209040141
  outer loop
    vertex 49.86643319737547 467.4317040191917 308.6571008379472
    vertex 75.70335578100375 477.0137601605209 307.9420060903183
    vertex 46.259193890697716 470.56935226537774 307.4178695484424
  endloop
endfacet
facet normal -0.079539403250174 0.2857392437227787 0.9550008209040141
  outer loop
    vertex 75.70335578100375 477.0137601605209 307.9420060903183
    vertex 49.86643319737547 467.4317040191917 308.6571008379472
    vertex 75.60542716315852 476.41960346681225 308.11162343194025
  endloop
endfacet
facet normal -0.03350876070341402 -0.2647755687369483 0.9637276903545665
  outer loop
    vertex 79.0479875022518 514.2746469783723 302.1489340165831
    vertex 5.32895267446203 524.8158106976568 302.4818175943848
    vertex 5.2457598456479255 524.4830393824004 302.38749903971524
  endloop
endfacet
facet normal -0.03350876070341402 -0.2647755687369483 0.9637276903545665
  outer loop
    vertex 5.32895267446203 524.8158106976568 302.4818175943848
    vertex 79.0479875022518 514.2746469783723 302.1489340165831
    vertex 78.24465178897717 519.4407848787546 303.54035228751945
  endloop
endfacet
facet normal -0.01016565618644061 -0.0967519125537366 0.9952566135683265
  outer loop
    vertex 79.05518079201308 514.1457278801314 302.13647487324266
    vertex 5.2457598456479255 524.4830393824004 302.38749903971524
    vertex 2.7172652807387108 514.3690611227651 301.3784622416956
  endloop
endfacet
facet normal -0.01016565618644061 -0.0967519125537366 0.9952566135683265
  outer loop
    vertex 5.2457598456479255 524.4830393824004 302.38749903971524
    vertex 79.05518079201308 514.1457278801314 302.13647487324266
    vertex 79.0479875022518 514.2746469783723 302.1489340165831
  endloop
endfacet
facet normal -0.010269568312112629 -0.16017379605348717 0.9870354051524692
  outer loop
    vertex 79.54524751905005 508.8836397524909 301.2876544029051
    vertex 2.7172652807387108 514.3690611227651 301.3784622416956
    vertex 2.6731017779689763 514.1924071116865 301.349335744813
  endloop
endfacet
facet normal -0.010269568312112629 -0.16017379605348717 0.9870354051524692
  outer loop
    vertex 2.7172652807387108 514.3690611227651 301.3784622416956
    vertex 79.54524751905005 508.8836397524909 301.2876544029051
    vertex 79.05518079201308 514.1457278801314 302.13647487324266
  endloop
endfacet
facet normal -0.0014284650110155423 -0.03229719053331235 0.9994772888722221
  outer loop
    vertex 12.165355546008263 504.3138979733014 301.043687239494
    vertex 2.6731017779689763 514.1924071116865 301.349335744813
    vertex 0.20095944808309696 504.3038377921427 301.0262624945945
  endloop
endfacet
facet normal -0.0014284650110155423 -0.03229719053331235 0.9994772888722221
  outer loop
    vertex 2.6731017779689763 514.1924071116865 301.349335744813
    vertex 12.165355546008263 504.3138979733014 301.043687239494
    vertex 79.54524751905005 508.8836397524909 301.2876544029051
  endloop
endfacet
facet normal -0.0014284650110155423 -0.03229719053331235 0.9994772888722221
  outer loop
    vertex 79.54524751905005 508.8836397524909 301.2876544029051
    vertex 12.165355546008263 504.3138979733014 301.043687239494
    vertex 79.54639865423789 508.8218874216843 301.28566057827317
  endloop
endfacet
facet normal -0.11654656472882098 0.4609438992307114 0.8797429283670875
  outer loop
    vertex 46.259193890697716 470.56935226537774 307.4178695484424
    vertex 77.07293878986931 481.8875316763417 305.56981873378965
    vertex 43.695089298732775 472.6013023496442 306.0135359222819
  endloop
endfacet
facet normal -0.11654656472882098 0.4609438992307114 0.8797429283670875
  outer loop
    vertex 77.07293878986931 481.8875316763417 305.56981873378965
    vertex 46.259193890697716 470.56935226537774 307.4178695484424
    vertex 75.70335578100375 477.0137601605209 307.9420060903183
  endloop
endfacet
facet normal -0.026173748142778164 0.16075779504599766 0.9866467788626828
  outer loop
    vertex 23.755643850609815 475.99098193077054 303.9797213698636
    vertex 2.8680794701915926 476.34411354563815 303.36807947115693
    vertex 3.6278361990992747 471.8048260553707 304.1278362000561
  endloop
endfacet
facet normal -0.1163903009774076 0.3455364527129368 0.9311594158278963
  outer loop
    vertex 55.35474344944483 463.12304987324325 311.77016426814515
    vertex 73.99357149404142 471.7370118892291 310.90343934530966
    vertex 52.57001307816405 465.448836023035 310.5590295442167
  endloop
endfacet
facet normal -0.1163903009774076 0.3455364527129368 0.9311594158278963
  outer loop
    vertex 73.99357149404142 471.7370118892291 310.90343934530966
    vertex 55.35474344944483 463.12304987324325 311.77016426814515
    vertex 73.82643755031677 470.90060528413795 311.1929238275083
  endloop
endfacet
facet normal -0.7071067811865446 -1.3914916049707124e-12 0.7071067811865506
  outer loop
    vertex 8.914757486412137 453.499999999798 309.41475748733257
    vertex 7.219114195322617e-13 477.9999999998155 300.5000000009695
    vertex 7.219114195322617e-13 453.49999999981566 300.5000000009213
  endloop
endfacet
facet normal -0.7071067811865446 -1.3914916049707124e-12 0.7071067811865506
  outer loop
    vertex 7.219114195322617e-13 477.9999999998155 300.5000000009695
    vertex 8.914757486412137 453.499999999798 309.41475748733257
    vertex 6.014453329380362 462.1179718738409 306.514453330318
  endloop
endfacet
facet normal -0.7071067811865446 -1.3914916049707124e-12 0.7071067811865506
  outer loop
    vertex 7.219114195322617e-13 477.9999999998155 300.5000000009695
    vertex 6.014453329380362 462.1179718738409 306.514453330318
    vertex 3.6278361990992747 471.8048260553707 304.1278362000561
  endloop
endfacet
facet normal -0.7071067811865446 -1.3914916049707124e-12 0.7071067811865506
  outer loop
    vertex 7.219114195322617e-13 477.9999999998155 300.5000000009695
    vertex 3.6278361990992747 471.8048260553707 304.1278362000561
    vertex 2.8680794701915926 476.34411354563815 303.36807947115693
  endloop
endfacet
facet normal -0.7071067811865446 -1.3914916049707124e-12 0.7071067811865506
  outer loop
    vertex 3.6278361990992747 471.8048260553707 304.1278362000561
    vertex 6.014453329380362 462.1179718738409 306.514453330318
    vertex 3.718508172473642 471.59189409603107 304.21850817342977
  endloop
endfacet
facet normal -0.7071067811865446 -1.3914916049707124e-12 0.7071067811865506
  outer loop
    vertex 6.014453329380362 462.1179718738409 306.514453330318
    vertex 8.914757486412137 453.499999999798 309.41475748733257
    vertex 6.20486098525058 461.8027091470511 306.7048609861878
  endloop
endfacet
facet normal 0.6830127018922161 0.6830127018917111 0.2588190451038703
  outer loop
    vertex 35.67720482683888 475.42679242202735 304.9569262640996
    vertex 45.000000000000774 467.79289321862905 300.50000000094957
    vertex 34.79289321881418 477.9999999998155 300.5000000009695
  endloop
endfacet
facet normal 0.6830127018922161 0.6830127018917111 0.2588190451038703
  outer loop
    vertex 45.000000000000774 467.79289321862905 300.50000000094957
    vertex 35.67720482683888 475.42679242202735 304.9569262640996
    vertex 39.30231462790457 471.37916510606163 306.0719324234447
  endloop
endfacet
facet normal 0.6830127018922161 0.6830127018917111 0.2588190451038703
  outer loop
    vertex 45.000000000000774 467.79289321862905 300.50000000094957
    vertex 39.30231462790457 471.37916510606163 306.0719324234447
    vertex 40.196052297160286 470.20803948291086 306.8039477037946
  endloop
endfacet
facet normal 0.6830127018922161 0.6830127018917111 0.2588190451038703
  outer loop
    vertex 45.000000000000774 467.79289321862905 300.50000000094957
    vertex 40.196052297160286 470.20803948291086 306.8039477037946
    vertex 45.000000000000774 467.2244871456812 302.00000000094843
  endloop
endfacet
facet normal -0.7071067811865461 -0.7071067811865489 -1.3928854452961134e-12
  outer loop
    vertex 35.20710678118723 478.99999999981645 300.00000000097157
    vertex 52.3494455126876 461.85766126831527 300.5000000009378
    vertex 35.20710678118723 478.9999999998156 300.5000000009716
  endloop
endfacet
facet normal -0.7071067811865461 -0.7071067811865489 -1.3928854452961134e-12
  outer loop
    vertex 52.3494455126876 461.85766126831527 300.5000000009378
    vertex 35.20710678118723 478.99999999981645 300.00000000097157
    vertex 52.3494455126876 461.85766126831606 300.00000000093786
  endloop
endfacet
facet normal -0.7071067811865376 -1.3924757467870751e-12 0.7071067811865576
  outer loop
    vertex 2.209995417787249 480.275941449178 302.7099954187606
    vertex 7.219114195322617e-13 479.4999999998155 300.50000000097265
    vertex 7.219114195322617e-13 478.9999999998156 300.5000000009716
  endloop
endfacet
facet normal -0.7071067811865376 -1.3924757467870751e-12 0.7071067811865576
  outer loop
    vertex 7.219114195322617e-13 479.4999999998155 300.50000000097265
    vertex 2.209995417787249 480.275941449178 302.7099954187606
    vertex 1.8983196084790392 482.0539395868951 302.3983196094558
  endloop
endfacet
facet normal -0.7071067811865376 -1.3924757467870751e-12 0.7071067811865576
  outer loop
    vertex 7.219114195322617e-13 479.4999999998155 300.50000000097265
    vertex 1.8983196084790392 482.0539395868951 302.3983196094558
    vertex 0.8507979397998667 492.68174513071597 301.3507979407976
  endloop
endfacet
facet normal -0.7071067811865376 -1.3924757467870751e-12 0.7071067811865576
  outer loop
    vertex 7.219114195322617e-13 479.4999999998155 300.50000000097265
    vertex 0.8507979397998667 492.68174513071597 301.3507979407976
    vertex 7.219114195322617e-13 502.9999999998156 300.5000000010188
  endloop
endfacet
facet normal -0.7071067811865376 -1.3924757467870751e-12 0.7071067811865576
  outer loop
    vertex 7.219114195322617e-13 502.9999999998156 300.5000000010188
    vertex 0.8507979397998667 492.68174513071597 301.3507979407976
    vertex 0.5267369504394083 502.69588827968596 301.0267369514569
  endloop
endfacet
facet normal -0.7071067811865376 -1.3924757467870751e-12 0.7071067811865576
  outer loop
    vertex 0.8507979397998667 492.68174513071597 301.3507979407976
    vertex 1.8983196084790392 482.0539395868951 302.3983196094558
    vertex 0.8600203549393995 492.6255053445363 301.360020355937
  endloop
endfacet
facet normal -0.7071067811865376 -1.3924757467870751e-12 0.7071067811865576
  outer loop
    vertex 1.8983196084790392 482.0539395868951 302.3983196094558
    vertex 2.209995417787249 480.275941449178 302.7099954187606
    vertex 1.932510629507982 481.93381847777164 302.43251063048444
  endloop
endfacet
facet normal 0.7071067811865452 0.7071067811865499 1.3928854452961152e-12
  outer loop
    vertex 45.000000000000774 467.79289321862905 300.50000000094957
    vertex 34.79289321881418 477.9999999998164 300.0000000009696
    vertex 34.79289321881418 477.9999999998155 300.5000000009695
  endloop
endfacet
facet normal 0.7071067811865452 0.7071067811865499 1.3928854452961152e-12
  outer loop
    vertex 34.79289321881418 477.9999999998164 300.0000000009696
    vertex 45.000000000000774 467.79289321862905 300.50000000094957
    vertex 45.000000000000774 467.7928932186299 300.0000000009495
  endloop
endfacet
facet normal -0.7071067811865425 0.7071067811865527 1.3928854452961207e-12
  outer loop
    vertex 52.34944551268779 545.1423387313167 300.00000000110185
    vertex 35.20710678118723 527.9999999998155 300.5000000010681
    vertex 52.34944551268779 545.1423387313164 300.50000000110185
  endloop
endfacet
facet normal -0.7071067811865425 0.7071067811865527 1.3928854452961207e-12
  outer loop
    vertex 35.20710678118723 527.9999999998155 300.5000000010681
    vertex 52.34944551268779 545.1423387313167 300.00000000110185
    vertex 35.20710678118723 527.9999999998164 300.0000000010681
  endloop
endfacet
facet normal 0.9238795325112996 0.38268343236505903 7.538241709445934e-13
  outer loop
    vertex 34.79289321881418 528.9999999998156 300.5000000010701
    vertex 35.20710678118723 527.9999999998164 300.0000000010681
    vertex 34.79289321881418 528.9999999998164 300.00000000107
  endloop
endfacet
facet normal 0.9238795325112996 0.38268343236505903 7.538241709445934e-13
  outer loop
    vertex 35.20710678118723 527.9999999998164 300.0000000010681
    vertex 34.79289321881418 528.9999999998156 300.5000000010701
    vertex 35.20710678118723 527.9999999998155 300.5000000010681
  endloop
endfacet
facet normal 0.9238795325112996 -0.38268343236505903 -7.538241709445934e-13
  outer loop
    vertex 35.20710678118723 478.9999999998156 300.5000000009716
    vertex 34.79289321881418 477.9999999998164 300.0000000009696
    vertex 35.20710678118723 478.99999999981645 300.00000000097157
  endloop
endfacet
facet normal 0.9238795325112996 -0.38268343236505903 -7.538241709445934e-13
  outer loop
    vertex 34.79289321881418 477.9999999998164 300.0000000009696
    vertex 35.20710678118723 478.9999999998156 300.5000000009716
    vertex 34.79289321881418 477.9999999998155 300.5000000009695
  endloop
endfacet
facet normal 0.7071067811865452 -0.7071067811865499 -1.3928854452961152e-12
  outer loop
    vertex 34.79289321881418 528.9999999998156 300.5000000010701
    vertex 45.000000000000774 539.207106781003 300.00000000109026
    vertex 45.000000000000774 539.2071067810027 300.50000000109026
  endloop
endfacet
facet normal 0.7071067811865452 -0.7071067811865499 -1.3928854452961152e-12
  outer loop
    vertex 45.000000000000774 539.207106781003 300.00000000109026
    vertex 34.79289321881418 528.9999999998156 300.5000000010701
    vertex 34.79289321881418 528.9999999998164 300.00000000107
  endloop
endfacet
facet normal 1.0 0.0 0.0
  outer loop
    vertex 45.000000000000774 548.2368421050755 302.000000001108
    vertex 45.000000000000774 539.207106781003 300.00000000109026
    vertex 45.000000000000774 548.2368421050796 300.00000000110794
  endloop
endfacet
facet normal 1.0 0.0 0.0
  outer loop
    vertex 45.000000000000774 539.207106781003 300.00000000109026
    vertex 45.000000000000774 548.2368421050755 302.000000001108
    vertex 45.000000000000774 539.7755128539434 302.00000000109145
  endloop
endfacet
facet normal 1.0 0.0 0.0
  outer loop
    vertex 45.000000000000774 539.207106781003 300.00000000109026
    vertex 45.000000000000774 539.7755128539434 302.00000000109145
    vertex 45.000000000000774 539.2071067810027 300.50000000109026
  endloop
endfacet
facet normal -0.04935969619809284 -0.22392459945876786 0.9733557387453275
  outer loop
    vertex 77.123972396257 524.7169930523719 305.48142593471664
    vertex 43.69508929873259 534.3986976499648 306.01353592240355
    vertex 39.10161451677823 530.2547459057489 304.8272633107896
  endloop
endfacet
facet normal -0.04935969619809284 -0.22392459945876786 0.9733557387453275
  outer loop
    vertex 43.69508929873259 534.3986976499648 306.01353592240355
    vertex 77.123972396257 524.7169930523719 305.48142593471664
    vertex 77.07293878986896 525.1124683232689 305.56981873387474
  endloop
endfacet
facet normal -0.11654656472881979 -0.46094389923417395 0.8797429283652735
  outer loop
    vertex 77.07293878986896 525.1124683232689 305.56981873387474
    vertex 46.2591938906979 536.4306477342255 307.4178695485722
    vertex 43.69508929873259 534.3986976499648 306.01353592240355
  endloop
endfacet
facet normal -0.11654656472881979 -0.46094389923417395 0.8797429283652735
  outer loop
    vertex 46.2591938906979 536.4306477342255 307.4178695485722
    vertex 77.07293878986896 525.1124683232689 305.56981873387474
    vertex 75.70335578100357 529.9862398390808 307.9420060904226
  endloop
endfacet
facet normal -0.17393814534188382 -0.5477787212881345 0.818342223094325
  outer loop
    vertex 75.60542716315817 530.5803965327888 308.11162343204694
    vertex 52.57001307816405 541.5511639765563 310.55902954436664
    vertex 49.86643319737547 539.5682959804068 308.6571008380894
  endloop
endfacet
facet normal -0.17393814534188382 -0.5477787212881345 0.818342223094325
  outer loop
    vertex 52.57001307816405 541.5511639765563 310.55902954436664
    vertex 75.60542716315817 530.5803965327888 308.11162343204694
    vertex 73.99357149404125 535.2629881103604 310.90343934543483
  endloop
endfacet
facet normal -0.07953940325017131 -0.28573924372652887 0.9550008209028922
  outer loop
    vertex 39.69891028731805 537.8664890261441 307.30108971377024
    vertex 12.296841932344979 552.6873677291748 309.45329991317993
    vertex 10.2054231685594 544.3216926740382 306.776075131826
  endloop
endfacet
facet normal -0.07953940325017131 -0.28573924372652887 0.9550008209028922
  outer loop
    vertex 12.296841932344979 552.6873677291748 309.45329991317993
    vertex 39.69891028731805 537.8664890261441 307.30108971377024
    vertex 38.09339737398466 543.6793681658432 308.906602627115
  endloop
endfacet
facet normal -0.11639030097740746 -0.3455364527166064 0.9311594158265345
  outer loop
    vertex 73.99357149404125 535.2629881103604 310.90343934543483
    vertex 55.35474344944501 543.876950126343 311.7701642683042
    vertex 52.57001307816405 541.5511639765563 310.55902954436664
  endloop
endfacet
facet normal -0.11639030097740746 -0.3455364527166064 0.9311594158265345
  outer loop
    vertex 55.35474344944501 543.876950126343 311.7701642683042
    vertex 73.99357149404125 535.2629881103604 310.90343934543483
    vertex 73.8264375503166 536.0993947154508 311.1929238276367
  endloop
endfacet
facet normal -0.17393814534188348 -0.5477787212881319 0.8183422230943268
  outer loop
    vertex 38.09339737398466 543.6793681658432 308.906602627115
    vertex 12.456303630554324 553.3252145220115 309.91415279593986
    vertex 12.296841932344979 552.6873677291748 309.45329991317993
  endloop
endfacet
facet normal -0.17393814534188348 -0.5477787212881319 0.8183422230943268
  outer loop
    vertex 12.456303630554324 553.3252145220115 309.91415279593986
    vertex 38.09339737398466 543.6793681658432 308.906602627115
    vertex 36.696161952118146 546.2104071151946 310.3038380489866
  endloop
endfacet
facet normal -0.11639030097740674 -0.3455364527166027 0.931159415826536
  outer loop
    vertex 36.696161952118146 546.2104071151946 310.3038380489866
    vertex 12.500000000000767 553.4999999997967 309.98447436114014
    vertex 12.456303630554324 553.3252145220115 309.91415279593986
  endloop
endfacet
facet normal -0.11639030097740674 -0.3455364527166027 0.931159415826536
  outer loop
    vertex 12.500000000000767 553.4999999997967 309.98447436114014
    vertex 36.696161952118146 546.2104071151946 310.3038380489866
    vertex 32.50000000000073 553.4999999997922 312.4843750011183
  endloop
endfacet
facet normal -0.11639030097740674 -0.3455364527166027 0.931159415826536
  outer loop
    vertex 32.50000000000073 553.4999999997922 312.4843750011183
    vertex 36.696161952118146 546.2104071151946 310.3038380489866
    vertex 34.58064516129114 552.6239388792487 312.41935483982627
  endloop
endfacet
facet normal -0.04935969619809522 0.22392459945494145 0.9733557387462078
  outer loop
    vertex 6.014453329380362 462.1179718738409 306.514453330318
    vertex 31.10818014147825 475.58105317396365 304.68973880413233
    vertex 3.718508172473642 471.59189409603107 304.21850817342977
  endloop
endfacet
facet normal -0.04935969619809522 0.22392459945494145 0.9733557387462078
  outer loop
    vertex 31.10818014147825 475.58105317396365 304.68973880413233
    vertex 6.014453329380362 462.1179718738409 306.514453330318
    vertex 39.30231462790457 471.37916510606163 306.0719324234447
  endloop
endfacet
facet normal -0.04935969619809522 0.22392459945494145 0.9733557387462078
  outer loop
    vertex 31.10818014147825 475.58105317396365 304.68973880413233
    vertex 39.30231462790457 471.37916510606163 306.0719324234447
    vertex 35.67720482683888 475.42679242202735 304.9569262640996
  endloop
endfacet
facet normal -0.06923670882216752 0.36574224774275155 0.9281373208569701
  outer loop
    vertex 3.718508172473642 471.59189409603107 304.21850817342977
    vertex 23.755643850609815 475.99098193077054 303.9797213698636
    vertex 3.6278361990992747 471.8048260553707 304.1278362000561
  endloop
endfacet
facet normal -0.06923670882216752 0.36574224774275155 0.9281373208569701
  outer loop
    vertex 23.755643850609815 475.99098193077054 303.9797213698636
    vertex 3.718508172473642 471.59189409603107 304.21850817342977
    vertex 31.10818014147825 475.58105317396365 304.68973880413233
  endloop
endfacet
facet normal -0.026173748142778112 -0.16075779504988605 0.9866467788620493
  outer loop
    vertex 78.24465178897717 519.4407848787546 303.54035228751945
    vertex 5.7934733149896624 526.673893259766 302.7968842510826
    vertex 5.32895267446203 524.8158106976568 302.4818175943848
  endloop
endfacet
facet normal -0.026173748142778112 -0.16075779504988605 0.9866467788620493
  outer loop
    vertex 5.7934733149896624 526.673893259766 302.7968842510826
    vertex 78.24465178897717 519.4407848787546 303.54035228751945
    vertex 34.612727906901185 526.270451038215 303.4956666767242
  endloop
endfacet
facet normal -0.026173748142778112 -0.16075779504988605 0.9866467788620493
  outer loop
    vertex 34.612727906901185 526.270451038215 303.4956666767242
    vertex 78.24465178897717 519.4407848787546 303.54035228751945
    vertex 36.787940403504884 528.298577581268 303.8838203943374
  endloop
endfacet
facet normal -0.026173748142778112 -0.16075779504988605 0.9866467788620493
  outer loop
    vertex 36.787940403504884 528.298577581268 303.8838203943374
    vertex 78.24465178897717 519.4407848787546 303.54035228751945
    vertex 78.22238699107949 519.6810939968861 303.57891604869883
  endloop
endfacet
facet normal -0.06923670882216904 -0.3657422477464151 0.9281373208555262
  outer loop
    vertex 23.755643850609637 531.0090180688468 303.9797213699719
    vertex 7.827416356470724 534.8096654256874 304.28920063738536
    vertex 7.71146642875248 534.3458657148154 304.0977859230434
  endloop
endfacet
facet normal -0.06923670882216904 -0.3657422477464151 0.9281373208555262
  outer loop
    vertex 7.827416356470724 534.8096654256874 304.28920063738536
    vertex 23.755643850609637 531.0090180688468 303.9797213699719
    vertex 31.108180141477888 531.4189468256498 304.6897388042424
  endloop
endfacet
facet normal -0.04935969619809432 -0.22392459945877186 0.9733557387453267
  outer loop
    vertex 31.108180141477888 531.4189468256498 304.6897388042424
    vertex 10.063855587647753 543.7554223503911 306.46062154045694
    vertex 7.827416356470724 534.8096654256874 304.28920063738536
  endloop
endfacet
facet normal -0.04935969619809432 -0.22392459945877186 0.9733557387453267
  outer loop
    vertex 10.063855587647753 543.7554223503911 306.46062154045694
    vertex 31.108180141477888 531.4189468256498 304.6897388042424
    vertex 39.30231462790457 535.6208348935473 306.07193242357124
  endloop
endfacet
facet normal -0.04935969619809432 -0.22392459945877186 0.9733557387453267
  outer loop
    vertex 39.30231462790457 535.6208348935473 306.07193242357124
    vertex 31.108180141477888 531.4189468256498 304.6897388042424
    vertex 35.67720482683888 531.5732075775861 304.9569262642102
  endloop
endfacet
facet normal -0.11654656472881983 -0.46094389923417206 0.8797429283652747
  outer loop
    vertex 39.30231462790457 535.6208348935473 306.07193242357124
    vertex 10.2054231685594 544.3216926740382 306.776075131826
    vertex 10.063855587647753 543.7554223503911 306.46062154045694
  endloop
endfacet
facet normal -0.11654656472881983 -0.46094389923417206 0.8797429283652747
  outer loop
    vertex 10.2054231685594 544.3216926740382 306.776075131826
    vertex 39.30231462790457 535.6208348935473 306.07193242357124
    vertex 39.69891028731805 537.8664890261441 307.30108971377024
  endloop
endfacet
facet normal -0.11654656472881983 -0.46094389923417206 0.8797429283652747
  outer loop
    vertex 39.69891028731805 537.8664890261441 307.30108971377024
    vertex 39.30231462790457 535.6208348935473 306.07193242357124
    vertex 40.196052297160286 536.7919605166952 306.80394770392576
  endloop
endfacet
facet normal -0.0692367088221677 -0.3657422477464146 0.9281373208555266
  outer loop
    vertex 78.22238699107949 519.6810939968861 303.57891604869883
    vertex 39.10161451677823 530.2547459057489 304.8272633107896
    vertex 36.787940403504884 528.298577581268 303.8838203943374
  endloop
endfacet
facet normal -0.0692367088221677 -0.3657422477464146 0.9281373208555266
  outer loop
    vertex 39.10161451677823 530.2547459057489 304.8272633107896
    vertex 78.22238699107949 519.6810939968861 303.57891604869883
    vertex 77.123972396257 524.7169930523719 305.48142593471664
  endloop
endfacet
facet normal -0.07953940325017105 -0.28573924372653003 0.955000820902892
  outer loop
    vertex 75.70335578100357 529.9862398390808 307.9420060904226
    vertex 49.86643319737547 539.5682959804068 308.6571008380894
    vertex 46.2591938906979 536.4306477342255 307.4178695485722
  endloop
endfacet
facet normal -0.07953940325017105 -0.28573924372653003 0.955000820902892
  outer loop
    vertex 49.86643319737547 539.5682959804068 308.6571008380894
    vertex 75.70335578100357 529.9862398390808 307.9420060904226
    vertex 75.60542716315817 530.5803965327888 308.11162343204694
  endloop
endfacet
endsolid ProtoGlove baseplate
