solid ProtoGlove
facet normal 1.9949019968110493e-18 -0.8944271909999242 -0.4472135954999414
  outer loop
    vertex -32.49999999999995 -239.1181690000001 1.7557190120728787
    vertex -38.73517772013858 -238.38299127986153 0.2853635717956678
    vertex -32.49999999999995 -238.38299127986153 0.2853635717956678
  endloop
endfacet
facet normal 1.9949019968110493e-18 -0.8944271909999242 -0.4472135954999414
  outer loop
    vertex -38.73517772013858 -238.38299127986153 0.2853635717956678
    vertex -32.49999999999995 -239.1181690000001 1.7557190120728787
    vertex -38.0 -239.1181690000001 1.7557190120728787
  endloop
endfacet
facet normal 0.0 -1.0 0.0
  outer loop
    vertex -32.49999999999995 -239.1181690000001 2.255719012072879
    vertex -38.0 -239.1181690000001 1.7557190120728787
    vertex -32.49999999999995 -239.1181690000001 1.7557190120728787
  endloop
endfacet
facet normal 0.0 -1.0 0.0
  outer loop
    vertex -38.0 -239.1181690000001 1.7557190120728787
    vertex -32.49999999999995 -239.1181690000001 2.255719012072879
    vertex -38.0 -239.1181690000001 2.255719012072879
  endloop
endfacet
facet normal 0.7071067811865497 -0.7071067811865454 6.446067785321684e-15
  outer loop
    vertex -41.26482227986141 -238.38299127986153 0.2853635717956678
    vertex -42.0 -239.1181690000001 2.255719012072879
    vertex -42.0 -239.1181690000001 1.7557190120728787
  endloop
endfacet
facet normal 0.7071067811865497 -0.7071067811865454 6.446067785321684e-15
  outer loop
    vertex -42.0 -239.1181690000001 2.255719012072879
    vertex -41.26482227986141 -238.38299127986153 0.2853635717956678
    vertex -41.00000000000001 -238.1181690000001 2.255719012072879
  endloop
endfacet
facet normal 0.7071067811865497 -0.7071067811865454 6.446067785321684e-15
  outer loop
    vertex -41.00000000000001 -238.1181690000001 2.255719012072879
    vertex -41.26482227986141 -238.38299127986153 0.2853635717956678
    vertex -41.00000000000001 -238.1181690000001 0.28536357179566796
  endloop
endfacet
facet normal 0.0 1.0 0.0
  outer loop
    vertex -43.000000000000014 -229.11816900000014 2.255719012072879
    vertex -42.0 -229.11816900000014 1.7557190120728787
    vertex -43.000000000000014 -229.11816900000014 1.7557190120728774
  endloop
endfacet
facet normal 0.0 1.0 0.0
  outer loop
    vertex -42.0 -229.11816900000014 1.7557190120728787
    vertex -43.000000000000014 -229.11816900000014 2.255719012072879
    vertex -42.0 -229.11816900000014 2.255719012072879
  endloop
endfacet
facet normal -7.370612168405213e-15 0.894427190999923 -0.44721359549994405
  outer loop
    vertex -43.000000000000014 -229.11816900000014 1.7557190120728774
    vertex -41.26482227986141 -229.85334672013872 0.28536357179566724
    vertex -43.73517772013856 -229.85334672013872 0.28536357179566657
  endloop
endfacet
facet normal -7.370612168405213e-15 0.894427190999923 -0.44721359549994405
  outer loop
    vertex -41.26482227986141 -229.85334672013872 0.28536357179566724
    vertex -43.000000000000014 -229.11816900000014 1.7557190120728774
    vertex -42.0 -229.11816900000014 1.7557190120728787
  endloop
endfacet
facet normal 2.0602035955891548e-17 2.499970285946722e-17 1.0
  outer loop
    vertex -43.000000000000014 -239.1181690000001 2.255719012072881
    vertex -45.00000000000001 -231.11816900000014 2.255719012072879
    vertex -45.00000000000001 -237.1181690000001 2.255719012072879
  endloop
endfacet
facet normal 2.0602035955891548e-17 2.499970285946722e-17 1.0
  outer loop
    vertex -45.00000000000001 -231.11816900000014 2.255719012072879
    vertex -43.000000000000014 -239.1181690000001 2.255719012072881
    vertex -43.50000000000001 -234.11816900000014 2.255719012072879
  endloop
endfacet
facet normal 2.0602035955891548e-17 2.499970285946722e-17 1.0
  outer loop
    vertex -43.50000000000001 -234.11816900000014 2.255719012072879
    vertex -43.000000000000014 -239.1181690000001 2.255719012072881
    vertex -43.46592582628907 -234.37698804510265 2.255719012072879
  endloop
endfacet
facet normal 2.0602035955891548e-17 2.499970285946722e-17 1.0
  outer loop
    vertex -43.46592582628907 -234.37698804510265 2.255719012072879
    vertex -43.000000000000014 -239.1181690000001 2.255719012072881
    vertex -43.36602540378445 -234.61816900000014 2.255719012072879
  endloop
endfacet
facet normal 2.0602035955891548e-17 2.499970285946722e-17 1.0
  outer loop
    vertex -43.36602540378445 -234.61816900000014 2.255719012072879
    vertex -43.000000000000014 -239.1181690000001 2.255719012072881
    vertex -43.20710678118656 -234.8252757811867 2.255719012072879
  endloop
endfacet
facet normal 2.0602035955891548e-17 2.499970285946722e-17 1.0
  outer loop
    vertex -43.20710678118656 -234.8252757811867 2.255719012072879
    vertex -43.000000000000014 -239.1181690000001 2.255719012072881
    vertex -43.000000000000014 -234.98419440378456 2.255719012072879
  endloop
endfacet
facet normal 2.0602035955891548e-17 2.499970285946722e-17 1.0
  outer loop
    vertex -43.000000000000014 -234.98419440378456 2.255719012072879
    vertex -43.000000000000014 -239.1181690000001 2.255719012072881
    vertex -42.0 -239.1181690000001 2.255719012072879
  endloop
endfacet
facet normal 2.0602035955891548e-17 2.499970285946722e-17 1.0
  outer loop
    vertex -43.000000000000014 -234.98419440378456 2.255719012072879
    vertex -42.0 -239.1181690000001 2.255719012072879
    vertex -42.758819045102534 -235.0840948262892 2.255719012072879
  endloop
endfacet
facet normal 2.0602035955891548e-17 2.499970285946722e-17 1.0
  outer loop
    vertex -42.758819045102534 -235.0840948262892 2.255719012072879
    vertex -42.0 -239.1181690000001 2.255719012072879
    vertex -42.500000000000014 -235.11816900000014 2.255719012072879
  endloop
endfacet
facet normal 2.0602035955891548e-17 2.499970285946722e-17 1.0
  outer loop
    vertex -42.500000000000014 -235.11816900000014 2.255719012072879
    vertex -42.0 -239.1181690000001 2.255719012072879
    vertex -42.24118095489749 -235.0840948262892 2.255719012072879
  endloop
endfacet
facet normal 2.0602035955891548e-17 2.499970285946722e-17 1.0
  outer loop
    vertex -42.24118095489749 -235.0840948262892 2.255719012072879
    vertex -42.0 -239.1181690000001 2.255719012072879
    vertex -42.000000000000014 -234.98419440378456 2.255719012072879
  endloop
endfacet
facet normal 2.0602035955891548e-17 2.499970285946722e-17 1.0
  outer loop
    vertex -42.000000000000014 -234.98419440378456 2.255719012072879
    vertex -42.0 -239.1181690000001 2.255719012072879
    vertex -41.79289321881346 -234.8252757811867 2.255719012072879
  endloop
endfacet
facet normal 2.0602035955891548e-17 2.499970285946722e-17 1.0
  outer loop
    vertex -41.79289321881346 -234.8252757811867 2.255719012072879
    vertex -42.0 -239.1181690000001 2.255719012072879
    vertex -41.00000000000001 -238.1181690000001 2.255719012072879
  endloop
endfacet
facet normal 2.0602035955891548e-17 2.499970285946722e-17 1.0
  outer loop
    vertex -41.79289321881346 -234.8252757811867 2.255719012072879
    vertex -41.00000000000001 -238.1181690000001 2.255719012072879
    vertex -41.63397459621558 -234.61816900000014 2.255719012072879
  endloop
endfacet
facet normal 2.0602035955891548e-17 2.499970285946722e-17 1.0
  outer loop
    vertex -41.63397459621558 -234.61816900000014 2.255719012072879
    vertex -41.00000000000001 -238.1181690000001 2.255719012072879
    vertex -41.53407417371094 -234.37698804510265 2.255719012072879
  endloop
endfacet
facet normal 2.0602035955891548e-17 2.499970285946722e-17 1.0
  outer loop
    vertex -41.53407417371094 -234.37698804510265 2.255719012072879
    vertex -41.00000000000001 -238.1181690000001 2.255719012072879
    vertex -41.500000000000014 -234.11816900000014 2.255719012072879
  endloop
endfacet
facet normal 2.0602035955891548e-17 2.499970285946722e-17 1.0
  outer loop
    vertex -41.500000000000014 -234.11816900000014 2.255719012072879
    vertex -41.00000000000001 -238.1181690000001 2.255719012072879
    vertex -41.000000000000014 -234.11816900000014 2.255719012072879
  endloop
endfacet
facet normal 2.0602035955891548e-17 2.499970285946722e-17 1.0
  outer loop
    vertex -41.000000000000014 -234.11816900000014 2.255719012072879
    vertex -41.00000000000001 -238.1181690000001 2.255719012072879
    vertex -40.96592582628908 -234.37698804510265 2.255719012072879
  endloop
endfacet
facet normal 2.0602035955891548e-17 2.499970285946722e-17 1.0
  outer loop
    vertex -40.96592582628908 -234.37698804510265 2.255719012072879
    vertex -41.00000000000001 -238.1181690000001 2.255719012072879
    vertex -40.86602540378445 -234.61816900000014 2.255719012072879
  endloop
endfacet
facet normal 2.0602035955891548e-17 2.499970285946722e-17 1.0
  outer loop
    vertex -40.86602540378445 -234.61816900000014 2.255719012072879
    vertex -41.00000000000001 -238.1181690000001 2.255719012072879
    vertex -38.99999999999999 -238.1181690000001 2.255719012072879
  endloop
endfacet
facet normal 2.0602035955891548e-17 2.499970285946722e-17 1.0
  outer loop
    vertex -40.86602540378445 -234.61816900000014 2.255719012072879
    vertex -38.99999999999999 -238.1181690000001 2.255719012072879
    vertex -40.70710678118657 -234.8252757811867 2.255719012072879
  endloop
endfacet
facet normal 2.0602035955891548e-17 2.499970285946722e-17 1.0
  outer loop
    vertex -40.70710678118657 -234.8252757811867 2.255719012072879
    vertex -38.99999999999999 -238.1181690000001 2.255719012072879
    vertex -40.500000000000014 -234.98419440378456 2.255719012072879
  endloop
endfacet
facet normal 2.0602035955891548e-17 2.499970285946722e-17 1.0
  outer loop
    vertex -40.500000000000014 -234.98419440378456 2.255719012072879
    vertex -38.99999999999999 -238.1181690000001 2.255719012072879
    vertex -40.25881904510254 -235.0840948262892 2.255719012072879
  endloop
endfacet
facet normal 2.0602035955891548e-17 2.499970285946722e-17 1.0
  outer loop
    vertex -40.25881904510254 -235.0840948262892 2.255719012072879
    vertex -38.99999999999999 -238.1181690000001 2.255719012072879
    vertex -40.000000000000014 -235.11816900000014 2.255719012072879
  endloop
endfacet
facet normal 2.0602035955891548e-17 2.499970285946722e-17 1.0
  outer loop
    vertex -40.000000000000014 -235.11816900000014 2.255719012072879
    vertex -38.99999999999999 -238.1181690000001 2.255719012072879
    vertex -39.741180954897494 -235.0840948262892 2.255719012072879
  endloop
endfacet
facet normal 2.0602035955891548e-17 2.499970285946722e-17 1.0
  outer loop
    vertex -39.741180954897494 -235.0840948262892 2.255719012072879
    vertex -38.99999999999999 -238.1181690000001 2.255719012072879
    vertex -39.50000000000002 -234.98419440378456 2.255719012072879
  endloop
endfacet
facet normal 2.0602035955891548e-17 2.499970285946722e-17 1.0
  outer loop
    vertex -39.50000000000002 -234.98419440378456 2.255719012072879
    vertex -38.99999999999999 -238.1181690000001 2.255719012072879
    vertex -39.29289321881347 -234.8252757811867 2.255719012072879
  endloop
endfacet
facet normal 2.0602035955891548e-17 2.499970285946722e-17 1.0
  outer loop
    vertex -39.29289321881347 -234.8252757811867 2.255719012072879
    vertex -38.99999999999999 -238.1181690000001 2.255719012072879
    vertex -39.13397459621558 -234.61816900000014 2.255719012072879
  endloop
endfacet
facet normal 2.0602035955891548e-17 2.499970285946722e-17 1.0
  outer loop
    vertex -39.13397459621558 -234.61816900000014 2.255719012072879
    vertex -38.99999999999999 -238.1181690000001 2.255719012072879
    vertex -39.03407417371095 -234.37698804510265 2.255719012072879
  endloop
endfacet
facet normal 2.0602035955891548e-17 2.499970285946722e-17 1.0
  outer loop
    vertex -39.03407417371095 -234.37698804510265 2.255719012072879
    vertex -38.99999999999999 -238.1181690000001 2.255719012072879
    vertex -39.00000000000002 -234.11816900000014 2.255719012072879
  endloop
endfacet
facet normal 2.0602035955891548e-17 2.499970285946722e-17 1.0
  outer loop
    vertex -43.50000000000001 -234.11816900000014 2.255719012072879
    vertex -43.000000000000014 -229.11816900000014 2.255719012072879
    vertex -45.00000000000001 -231.11816900000014 2.255719012072879
  endloop
endfacet
facet normal 2.0602035955891548e-17 2.499970285946722e-17 1.0
  outer loop
    vertex -43.000000000000014 -229.11816900000014 2.255719012072879
    vertex -43.50000000000001 -234.11816900000014 2.255719012072879
    vertex -43.46592582628909 -233.8593499548976 2.255719012072879
  endloop
endfacet
facet normal 2.0602035955891548e-17 2.499970285946722e-17 1.0
  outer loop
    vertex -43.000000000000014 -229.11816900000014 2.255719012072879
    vertex -43.46592582628909 -233.8593499548976 2.255719012072879
    vertex -43.36602540378445 -233.6181690000001 2.255719012072879
  endloop
endfacet
facet normal 2.0602035955891548e-17 2.499970285946722e-17 1.0
  outer loop
    vertex -43.000000000000014 -229.11816900000014 2.255719012072879
    vertex -43.36602540378445 -233.6181690000001 2.255719012072879
    vertex -43.20710678118656 -233.41106221881358 2.255719012072879
  endloop
endfacet
facet normal 2.0602035955891548e-17 2.499970285946722e-17 1.0
  outer loop
    vertex -43.000000000000014 -229.11816900000014 2.255719012072879
    vertex -43.20710678118656 -233.41106221881358 2.255719012072879
    vertex -43.000000000000014 -233.2521435962157 2.255719012072879
  endloop
endfacet
facet normal 2.0602035955891548e-17 2.499970285946722e-17 1.0
  outer loop
    vertex -43.000000000000014 -229.11816900000014 2.255719012072879
    vertex -43.000000000000014 -233.2521435962157 2.255719012072879
    vertex -42.758819045102534 -233.15224317371104 2.255719012072879
  endloop
endfacet
facet normal 2.0602035955891548e-17 2.499970285946722e-17 1.0
  outer loop
    vertex -43.000000000000014 -229.11816900000014 2.255719012072879
    vertex -42.758819045102534 -233.15224317371104 2.255719012072879
    vertex -42.0 -229.11816900000014 2.255719012072879
  endloop
endfacet
facet normal 2.0602035955891548e-17 2.499970285946722e-17 1.0
  outer loop
    vertex -42.0 -229.11816900000014 2.255719012072879
    vertex -42.758819045102534 -233.15224317371104 2.255719012072879
    vertex -42.500000000000014 -233.11816900000014 2.255719012072879
  endloop
endfacet
facet normal 2.0602035955891548e-17 2.499970285946722e-17 1.0
  outer loop
    vertex -42.0 -229.11816900000014 2.255719012072879
    vertex -42.500000000000014 -233.11816900000014 2.255719012072879
    vertex -42.24118095489749 -233.15224317371104 2.255719012072879
  endloop
endfacet
facet normal 2.0602035955891548e-17 2.499970285946722e-17 1.0
  outer loop
    vertex -42.0 -229.11816900000014 2.255719012072879
    vertex -42.24118095489749 -233.15224317371104 2.255719012072879
    vertex -42.000000000000014 -233.2521435962157 2.255719012072879
  endloop
endfacet
facet normal 2.0602035955891548e-17 2.499970285946722e-17 1.0
  outer loop
    vertex -42.0 -229.11816900000014 2.255719012072879
    vertex -42.000000000000014 -233.2521435962157 2.255719012072879
    vertex -41.79289321881346 -233.41106221881358 2.255719012072879
  endloop
endfacet
facet normal 2.0602035955891548e-17 2.499970285946722e-17 1.0
  outer loop
    vertex -42.0 -229.11816900000014 2.255719012072879
    vertex -41.79289321881346 -233.41106221881358 2.255719012072879
    vertex -41.00000000000001 -230.11816900000014 2.255719012072879
  endloop
endfacet
facet normal 2.0602035955891548e-17 2.499970285946722e-17 1.0
  outer loop
    vertex -41.00000000000001 -230.11816900000014 2.255719012072879
    vertex -41.79289321881346 -233.41106221881358 2.255719012072879
    vertex -41.63397459621558 -233.6181690000001 2.255719012072879
  endloop
endfacet
facet normal 2.0602035955891548e-17 2.499970285946722e-17 1.0
  outer loop
    vertex -41.00000000000001 -230.11816900000014 2.255719012072879
    vertex -41.63397459621558 -233.6181690000001 2.255719012072879
    vertex -41.53407417371094 -233.8593499548976 2.255719012072879
  endloop
endfacet
facet normal 2.0602035955891548e-17 2.499970285946722e-17 1.0
  outer loop
    vertex -41.00000000000001 -230.11816900000014 2.255719012072879
    vertex -41.53407417371094 -233.8593499548976 2.255719012072879
    vertex -41.500000000000014 -234.11816900000014 2.255719012072879
  endloop
endfacet
facet normal 2.0602035955891548e-17 2.499970285946722e-17 1.0
  outer loop
    vertex -41.00000000000001 -230.11816900000014 2.255719012072879
    vertex -41.500000000000014 -234.11816900000014 2.255719012072879
    vertex -41.000000000000014 -234.11816900000014 2.255719012072879
  endloop
endfacet
facet normal 2.0602035955891548e-17 2.499970285946722e-17 1.0
  outer loop
    vertex -41.00000000000001 -230.11816900000014 2.255719012072879
    vertex -41.000000000000014 -234.11816900000014 2.255719012072879
    vertex -40.96592582628909 -233.8593499548976 2.255719012072879
  endloop
endfacet
facet normal 2.0602035955891548e-17 2.499970285946722e-17 1.0
  outer loop
    vertex -41.00000000000001 -230.11816900000014 2.255719012072879
    vertex -40.96592582628909 -233.8593499548976 2.255719012072879
    vertex -40.86602540378445 -233.6181690000001 2.255719012072879
  endloop
endfacet
facet normal 2.0602035955891548e-17 2.499970285946722e-17 1.0
  outer loop
    vertex -41.00000000000001 -230.11816900000014 2.255719012072879
    vertex -40.86602540378445 -233.6181690000001 2.255719012072879
    vertex -38.99999999999999 -230.11816900000014 2.255719012072879
  endloop
endfacet
facet normal 2.0602035955891548e-17 2.499970285946722e-17 1.0
  outer loop
    vertex -38.99999999999999 -230.11816900000014 2.255719012072879
    vertex -40.86602540378445 -233.6181690000001 2.255719012072879
    vertex -40.70710678118657 -233.41106221881358 2.255719012072879
  endloop
endfacet
facet normal 2.0602035955891548e-17 2.499970285946722e-17 1.0
  outer loop
    vertex -38.99999999999999 -230.11816900000014 2.255719012072879
    vertex -40.70710678118657 -233.41106221881358 2.255719012072879
    vertex -40.500000000000014 -233.2521435962157 2.255719012072879
  endloop
endfacet
facet normal 2.0602035955891548e-17 2.499970285946722e-17 1.0
  outer loop
    vertex -38.99999999999999 -230.11816900000014 2.255719012072879
    vertex -40.500000000000014 -233.2521435962157 2.255719012072879
    vertex -40.25881904510254 -233.15224317371104 2.255719012072879
  endloop
endfacet
facet normal 2.0602035955891548e-17 2.499970285946722e-17 1.0
  outer loop
    vertex -38.99999999999999 -230.11816900000014 2.255719012072879
    vertex -40.25881904510254 -233.15224317371104 2.255719012072879
    vertex -40.000000000000014 -233.11816900000014 2.255719012072879
  endloop
endfacet
facet normal 2.0602035955891548e-17 2.499970285946722e-17 1.0
  outer loop
    vertex -38.99999999999999 -230.11816900000014 2.255719012072879
    vertex -40.000000000000014 -233.11816900000014 2.255719012072879
    vertex -39.741180954897494 -233.15224317371104 2.255719012072879
  endloop
endfacet
facet normal 2.0602035955891548e-17 2.499970285946722e-17 1.0
  outer loop
    vertex -38.99999999999999 -230.11816900000014 2.255719012072879
    vertex -39.741180954897494 -233.15224317371104 2.255719012072879
    vertex -39.50000000000002 -233.2521435962157 2.255719012072879
  endloop
endfacet
facet normal 2.0602035955891548e-17 2.499970285946722e-17 1.0
  outer loop
    vertex -38.99999999999999 -230.11816900000014 2.255719012072879
    vertex -39.50000000000002 -233.2521435962157 2.255719012072879
    vertex -39.29289321881347 -233.41106221881358 2.255719012072879
  endloop
endfacet
facet normal 2.0602035955891548e-17 2.499970285946722e-17 1.0
  outer loop
    vertex -38.99999999999999 -230.11816900000014 2.255719012072879
    vertex -39.29289321881347 -233.41106221881358 2.255719012072879
    vertex -39.13397459621558 -233.6181690000001 2.255719012072879
  endloop
endfacet
facet normal 2.0602035955891548e-17 2.499970285946722e-17 1.0
  outer loop
    vertex -38.99999999999999 -230.11816900000014 2.255719012072879
    vertex -39.13397459621558 -233.6181690000001 2.255719012072879
    vertex -39.03407417371095 -233.8593499548976 2.255719012072879
  endloop
endfacet
facet normal 2.0602035955891548e-17 2.499970285946722e-17 1.0
  outer loop
    vertex -38.99999999999999 -230.11816900000014 2.255719012072879
    vertex -39.03407417371095 -233.8593499548976 2.255719012072879
    vertex -39.00000000000002 -234.11816900000014 2.255719012072879
  endloop
endfacet
facet normal 2.0602035955891548e-17 2.499970285946722e-17 1.0
  outer loop
    vertex -38.99999999999999 -230.11816900000014 2.255719012072879
    vertex -39.00000000000002 -234.11816900000014 2.255719012072879
    vertex -38.99999999999999 -238.1181690000001 2.255719012072879
  endloop
endfacet
facet normal 2.0602035955891548e-17 2.499970285946722e-17 1.0
  outer loop
    vertex -38.99999999999999 -230.11816900000014 2.255719012072879
    vertex -38.99999999999999 -238.1181690000001 2.255719012072879
    vertex -38.0 -239.1181690000001 2.255719012072879
  endloop
endfacet
facet normal 2.0602035955891548e-17 2.499970285946722e-17 1.0
  outer loop
    vertex -38.99999999999999 -230.11816900000014 2.255719012072879
    vertex -38.0 -239.1181690000001 2.255719012072879
    vertex -38.0 -229.11816900000014 2.255719012072879
  endloop
endfacet
facet normal 2.0602035955891548e-17 2.499970285946722e-17 1.0
  outer loop
    vertex -38.0 -229.11816900000014 2.255719012072879
    vertex -38.0 -239.1181690000001 2.255719012072879
    vertex -32.49999999999995 -239.1181690000001 2.255719012072879
  endloop
endfacet
facet normal 2.0602035955891548e-17 2.499970285946722e-17 1.0
  outer loop
    vertex -38.0 -229.11816900000014 2.255719012072879
    vertex -32.49999999999995 -239.1181690000001 2.255719012072879
    vertex -32.49999999999995 -229.11816900000014 2.255719012072879
  endloop
endfacet
facet normal -0.7071067811865499 0.7071067811865451 5.847698623815029e-15
  outer loop
    vertex -38.0 -229.11816900000014 2.255719012072879
    vertex -38.99999999999999 -230.11816900000014 0.28536357179566796
    vertex -38.99999999999999 -230.11816900000014 2.255719012072879
  endloop
endfacet
facet normal -0.7071067811865499 0.7071067811865451 5.847698623815029e-15
  outer loop
    vertex -38.99999999999999 -230.11816900000014 0.28536357179566796
    vertex -38.0 -229.11816900000014 2.255719012072879
    vertex -38.73517772013858 -229.85334672013872 0.28536357179566746
  endloop
endfacet
facet normal -0.7071067811865499 0.7071067811865451 5.847698623815029e-15
  outer loop
    vertex -38.73517772013858 -229.85334672013872 0.28536357179566746
    vertex -38.0 -229.11816900000014 2.255719012072879
    vertex -38.0 -229.11816900000014 1.7557190120728787
  endloop
endfacet
facet normal -0.7071067811865437 -0.7071067811865513 -2.128423033443838e-14
  outer loop
    vertex -43.7351777201385 -238.38299127986153 0.2853635717956678
    vertex -45.00000000000001 -237.1181690000001 2.255719012072879
    vertex -45.0 -237.1181690000001 0.28536357179566657
  endloop
endfacet
facet normal -0.7071067811865437 -0.7071067811865513 -2.128423033443838e-14
  outer loop
    vertex -45.00000000000001 -237.1181690000001 2.255719012072879
    vertex -43.7351777201385 -238.38299127986153 0.2853635717956678
    vertex -43.000000000000014 -239.1181690000001 1.7557190120728803
  endloop
endfacet
facet normal -0.7071067811865437 -0.7071067811865513 -2.128423033443838e-14
  outer loop
    vertex -45.00000000000001 -237.1181690000001 2.255719012072879
    vertex -43.000000000000014 -239.1181690000001 1.7557190120728803
    vertex -43.000000000000014 -239.1181690000001 2.255719012072881
  endloop
endfacet
facet normal 0.7071067811865498 0.7071067811865452 6.446067785321682e-15
  outer loop
    vertex -41.26482227986141 -229.85334672013872 0.28536357179566724
    vertex -41.00000000000001 -230.11816900000014 2.255719012072879
    vertex -41.00000000000001 -230.11816900000014 0.28536357179566796
  endloop
endfacet
facet normal 0.7071067811865498 0.7071067811865452 6.446067785321682e-15
  outer loop
    vertex -41.00000000000001 -230.11816900000014 2.255719012072879
    vertex -41.26482227986141 -229.85334672013872 0.28536357179566724
    vertex -42.0 -229.11816900000014 2.255719012072879
  endloop
endfacet
facet normal 0.7071067811865498 0.7071067811865452 6.446067785321682e-15
  outer loop
    vertex -42.0 -229.11816900000014 2.255719012072879
    vertex -41.26482227986141 -229.85334672013872 0.28536357179566724
    vertex -42.0 -229.11816900000014 1.7557190120728787
  endloop
endfacet
facet normal 1.0 0.0 0.0
  outer loop
    vertex -32.49999999999995 -238.38299127986153 0.2853635717956678
    vertex -32.49999999999995 -239.1181690000001 2.255719012072879
    vertex -32.49999999999995 -239.1181690000001 1.7557190120728787
  endloop
endfacet
facet normal 1.0 0.0 0.0
  outer loop
    vertex -32.49999999999995 -239.1181690000001 2.255719012072879
    vertex -32.49999999999995 -238.38299127986153 0.2853635717956678
    vertex -32.49999999999995 -229.11816900000014 2.255719012072879
  endloop
endfacet
facet normal 1.0 0.0 0.0
  outer loop
    vertex -32.49999999999995 -229.11816900000014 2.255719012072879
    vertex -32.49999999999995 -238.38299127986153 0.2853635717956678
    vertex -32.49999999999995 -229.85334672013872 0.2853635717956678
  endloop
endfacet
facet normal 1.0 0.0 0.0
  outer loop
    vertex -32.49999999999995 -229.11816900000014 2.255719012072879
    vertex -32.49999999999995 -229.85334672013872 0.2853635717956678
    vertex -32.49999999999995 -229.11816900000014 1.7557190120728787
  endloop
endfacet
facet normal 0.0 -1.0 0.0
  outer loop
    vertex -42.0 -239.1181690000001 2.255719012072879
    vertex -43.000000000000014 -239.1181690000001 1.7557190120728803
    vertex -42.0 -239.1181690000001 1.7557190120728787
  endloop
endfacet
facet normal 0.0 -1.0 0.0
  outer loop
    vertex -43.000000000000014 -239.1181690000001 1.7557190120728803
    vertex -42.0 -239.1181690000001 2.255719012072879
    vertex -43.000000000000014 -239.1181690000001 2.255719012072881
  endloop
endfacet
facet normal 0.0 -1.0 0.0
  outer loop
    vertex -38.99999999999999 -238.1181690000001 2.255719012072879
    vertex -41.00000000000001 -238.1181690000001 0.28536357179566796
    vertex -38.99999999999999 -238.1181690000001 0.28536357179566796
  endloop
endfacet
facet normal 0.0 -1.0 0.0
  outer loop
    vertex -41.00000000000001 -238.1181690000001 0.28536357179566796
    vertex -38.99999999999999 -238.1181690000001 2.255719012072879
    vertex -41.00000000000001 -238.1181690000001 2.255719012072879
  endloop
endfacet
facet normal 0.0 1.0 0.0
  outer loop
    vertex -38.0 -229.11816900000014 2.255719012072879
    vertex -32.49999999999995 -229.11816900000014 1.7557190120728787
    vertex -38.0 -229.11816900000014 1.7557190120728787
  endloop
endfacet
facet normal 0.0 1.0 0.0
  outer loop
    vertex -32.49999999999995 -229.11816900000014 1.7557190120728787
    vertex -38.0 -229.11816900000014 2.255719012072879
    vertex -32.49999999999995 -229.11816900000014 2.255719012072879
  endloop
endfacet
facet normal 0.0 1.0 0.0
  outer loop
    vertex -41.00000000000001 -230.11816900000014 2.255719012072879
    vertex -38.99999999999999 -230.11816900000014 0.28536357179566796
    vertex -41.00000000000001 -230.11816900000014 0.28536357179566796
  endloop
endfacet
facet normal 0.0 1.0 0.0
  outer loop
    vertex -38.99999999999999 -230.11816900000014 0.28536357179566796
    vertex -41.00000000000001 -230.11816900000014 2.255719012072879
    vertex -38.99999999999999 -230.11816900000014 2.255719012072879
  endloop
endfacet
facet normal 1.5959215974488388e-17 0.8944271909999242 -0.44721359549994133
  outer loop
    vertex -38.0 -229.11816900000014 1.7557190120728787
    vertex -32.49999999999995 -229.85334672013872 0.2853635717956678
    vertex -38.73517772013858 -229.85334672013872 0.28536357179566746
  endloop
endfacet
facet normal 1.5959215974488388e-17 0.8944271909999242 -0.44721359549994133
  outer loop
    vertex -32.49999999999995 -229.85334672013872 0.2853635717956678
    vertex -38.0 -229.11816900000014 1.7557190120728787
    vertex -32.49999999999995 -229.11816900000014 1.7557190120728787
  endloop
endfacet
facet normal -0.7071067811865498 -0.7071067811865452 5.820500025564728e-15
  outer loop
    vertex -38.99999999999999 -238.1181690000001 2.255719012072879
    vertex -38.0 -239.1181690000001 1.7557190120728787
    vertex -38.0 -239.1181690000001 2.255719012072879
  endloop
endfacet
facet normal -0.7071067811865498 -0.7071067811865452 5.820500025564728e-15
  outer loop
    vertex -38.0 -239.1181690000001 1.7557190120728787
    vertex -38.99999999999999 -238.1181690000001 2.255719012072879
    vertex -38.73517772013858 -238.38299127986153 0.2853635717956678
  endloop
endfacet
facet normal -0.7071067811865498 -0.7071067811865452 5.820500025564728e-15
  outer loop
    vertex -38.73517772013858 -238.38299127986153 0.2853635717956678
    vertex -38.99999999999999 -238.1181690000001 2.255719012072879
    vertex -38.99999999999999 -238.1181690000001 0.28536357179566796
  endloop
endfacet
facet normal -0.7071067811865458 0.7071067811865492 -7.391732705293393e-15
  outer loop
    vertex -45.00000000000001 -231.11816900000014 2.255719012072879
    vertex -43.73517772013856 -229.85334672013872 0.28536357179566657
    vertex -45.00000000000001 -231.11816900000014 0.28536357179566657
  endloop
endfacet
facet normal -0.7071067811865458 0.7071067811865492 -7.391732705293393e-15
  outer loop
    vertex -43.73517772013856 -229.85334672013872 0.28536357179566657
    vertex -45.00000000000001 -231.11816900000014 2.255719012072879
    vertex -43.000000000000014 -229.11816900000014 1.7557190120728774
  endloop
endfacet
facet normal -0.7071067811865458 0.7071067811865492 -7.391732705293393e-15
  outer loop
    vertex -43.000000000000014 -229.11816900000014 1.7557190120728774
    vertex -45.00000000000001 -231.11816900000014 2.255719012072879
    vertex -43.000000000000014 -229.11816900000014 2.255719012072879
  endloop
endfacet
facet normal -6.198527052916507e-17 -0.8944271909999242 -0.4472135954999412
  outer loop
    vertex -42.0 -239.1181690000001 1.7557190120728787
    vertex -43.7351777201385 -238.38299127986153 0.2853635717956678
    vertex -41.26482227986141 -238.38299127986153 0.2853635717956678
  endloop
endfacet
facet normal -6.198527052916507e-17 -0.8944271909999242 -0.4472135954999412
  outer loop
    vertex -43.7351777201385 -238.38299127986153 0.2853635717956678
    vertex -42.0 -239.1181690000001 1.7557190120728787
    vertex -43.000000000000014 -239.1181690000001 1.7557190120728803
  endloop
endfacet
facet normal 8.227084120505678e-17 -3.964663044053155e-17 -1.0
  outer loop
    vertex -43.7351777201385 -238.38299127986153 0.2853635717956678
    vertex -43.36602540378445 -234.61816900000014 0.28536357179566796
    vertex -41.26482227986141 -238.38299127986153 0.2853635717956678
  endloop
endfacet
facet normal 8.227084120505678e-17 -3.964663044053155e-17 -1.0
  outer loop
    vertex -43.36602540378445 -234.61816900000014 0.28536357179566796
    vertex -43.7351777201385 -238.38299127986153 0.2853635717956678
    vertex -43.46592582628907 -234.37698804510265 0.28536357179566796
  endloop
endfacet
facet normal 8.227084120505678e-17 -3.964663044053155e-17 -1.0
  outer loop
    vertex -43.46592582628907 -234.37698804510265 0.28536357179566796
    vertex -43.7351777201385 -238.38299127986153 0.2853635717956678
    vertex -43.50000000000001 -234.11816900000014 0.28536357179566796
  endloop
endfacet
facet normal 8.227084120505678e-17 -3.964663044053155e-17 -1.0
  outer loop
    vertex -41.26482227986141 -238.38299127986153 0.2853635717956678
    vertex -43.36602540378445 -234.61816900000014 0.28536357179566796
    vertex -43.20710678118656 -234.8252757811867 0.28536357179566796
  endloop
endfacet
facet normal 8.227084120505678e-17 -3.964663044053155e-17 -1.0
  outer loop
    vertex -41.26482227986141 -238.38299127986153 0.2853635717956678
    vertex -43.20710678118656 -234.8252757811867 0.28536357179566796
    vertex -43.000000000000014 -234.98419440378456 0.28536357179566796
  endloop
endfacet
facet normal 8.227084120505678e-17 -3.964663044053155e-17 -1.0
  outer loop
    vertex -41.26482227986141 -238.38299127986153 0.2853635717956678
    vertex -43.000000000000014 -234.98419440378456 0.28536357179566796
    vertex -42.758819045102534 -235.0840948262892 0.28536357179566796
  endloop
endfacet
facet normal 8.227084120505678e-17 -3.964663044053155e-17 -1.0
  outer loop
    vertex -41.26482227986141 -238.38299127986153 0.2853635717956678
    vertex -42.758819045102534 -235.0840948262892 0.28536357179566796
    vertex -42.500000000000014 -235.11816900000014 0.28536357179566796
  endloop
endfacet
facet normal 8.227084120505678e-17 -3.964663044053155e-17 -1.0
  outer loop
    vertex -41.26482227986141 -238.38299127986153 0.2853635717956678
    vertex -42.500000000000014 -235.11816900000014 0.28536357179566796
    vertex -42.24118095489749 -235.0840948262892 0.28536357179566796
  endloop
endfacet
facet normal 8.227084120505678e-17 -3.964663044053155e-17 -1.0
  outer loop
    vertex -41.26482227986141 -238.38299127986153 0.2853635717956678
    vertex -42.24118095489749 -235.0840948262892 0.28536357179566796
    vertex -42.000000000000014 -234.98419440378456 0.28536357179566796
  endloop
endfacet
facet normal 8.227084120505678e-17 -3.964663044053155e-17 -1.0
  outer loop
    vertex -41.26482227986141 -238.38299127986153 0.2853635717956678
    vertex -42.000000000000014 -234.98419440378456 0.28536357179566796
    vertex -41.79289321881346 -234.8252757811867 0.28536357179566796
  endloop
endfacet
facet normal 8.227084120505678e-17 -3.964663044053155e-17 -1.0
  outer loop
    vertex -41.26482227986141 -238.38299127986153 0.2853635717956678
    vertex -41.79289321881346 -234.8252757811867 0.28536357179566796
    vertex -41.63397459621558 -234.61816900000014 0.28536357179566796
  endloop
endfacet
facet normal 8.227084120505678e-17 -3.964663044053155e-17 -1.0
  outer loop
    vertex -41.26482227986141 -238.38299127986153 0.2853635717956678
    vertex -41.63397459621558 -234.61816900000014 0.28536357179566796
    vertex -41.53407417371094 -234.37698804510265 0.28536357179566796
  endloop
endfacet
facet normal 8.227084120505678e-17 -3.964663044053155e-17 -1.0
  outer loop
    vertex -41.26482227986141 -238.38299127986153 0.2853635717956678
    vertex -41.53407417371094 -234.37698804510265 0.28536357179566796
    vertex -41.500000000000014 -234.11816900000014 0.28536357179566796
  endloop
endfacet
facet normal 8.227084120505678e-17 -3.964663044053155e-17 -1.0
  outer loop
    vertex -41.26482227986141 -238.38299127986153 0.2853635717956678
    vertex -41.500000000000014 -234.11816900000014 0.28536357179566796
    vertex -41.26482227986141 -229.85334672013872 0.28536357179566724
  endloop
endfacet
facet normal 8.227084120505678e-17 -3.964663044053155e-17 -1.0
  outer loop
    vertex -41.26482227986141 -238.38299127986153 0.2853635717956678
    vertex -41.26482227986141 -229.85334672013872 0.28536357179566724
    vertex -41.00000000000001 -230.11816900000014 0.28536357179566796
  endloop
endfacet
facet normal 8.227084120505678e-17 -3.964663044053155e-17 -1.0
  outer loop
    vertex -41.26482227986141 -238.38299127986153 0.2853635717956678
    vertex -41.00000000000001 -230.11816900000014 0.28536357179566796
    vertex -41.000000000000014 -234.11816900000014 0.28536357179566796
  endloop
endfacet
facet normal 8.227084120505678e-17 -3.964663044053155e-17 -1.0
  outer loop
    vertex -41.000000000000014 -234.11816900000014 0.28536357179566796
    vertex -41.00000000000001 -230.11816900000014 0.28536357179566796
    vertex -40.96592582628909 -233.8593499548976 0.28536357179566796
  endloop
endfacet
facet normal 8.227084120505678e-17 -3.964663044053155e-17 -1.0
  outer loop
    vertex -40.96592582628909 -233.8593499548976 0.28536357179566796
    vertex -41.00000000000001 -230.11816900000014 0.28536357179566796
    vertex -40.86602540378445 -233.6181690000001 0.28536357179566796
  endloop
endfacet
facet normal 8.227084120505678e-17 -3.964663044053155e-17 -1.0
  outer loop
    vertex -40.86602540378445 -233.6181690000001 0.28536357179566796
    vertex -41.00000000000001 -230.11816900000014 0.28536357179566796
    vertex -38.99999999999999 -230.11816900000014 0.28536357179566796
  endloop
endfacet
facet normal 8.227084120505678e-17 -3.964663044053155e-17 -1.0
  outer loop
    vertex -40.86602540378445 -233.6181690000001 0.28536357179566796
    vertex -38.99999999999999 -230.11816900000014 0.28536357179566796
    vertex -40.70710678118657 -233.41106221881358 0.28536357179566796
  endloop
endfacet
facet normal 8.227084120505678e-17 -3.964663044053155e-17 -1.0
  outer loop
    vertex -40.70710678118657 -233.41106221881358 0.28536357179566796
    vertex -38.99999999999999 -230.11816900000014 0.28536357179566796
    vertex -40.500000000000014 -233.2521435962157 0.28536357179566796
  endloop
endfacet
facet normal 8.227084120505678e-17 -3.964663044053155e-17 -1.0
  outer loop
    vertex -40.500000000000014 -233.2521435962157 0.28536357179566796
    vertex -38.99999999999999 -230.11816900000014 0.28536357179566796
    vertex -40.25881904510254 -233.15224317371104 0.28536357179566796
  endloop
endfacet
facet normal 8.227084120505678e-17 -3.964663044053155e-17 -1.0
  outer loop
    vertex -40.25881904510254 -233.15224317371104 0.28536357179566796
    vertex -38.99999999999999 -230.11816900000014 0.28536357179566796
    vertex -40.000000000000014 -233.11816900000014 0.28536357179566796
  endloop
endfacet
facet normal 8.227084120505678e-17 -3.964663044053155e-17 -1.0
  outer loop
    vertex -40.000000000000014 -233.11816900000014 0.28536357179566796
    vertex -38.99999999999999 -230.11816900000014 0.28536357179566796
    vertex -39.741180954897494 -233.15224317371104 0.28536357179566796
  endloop
endfacet
facet normal 8.227084120505678e-17 -3.964663044053155e-17 -1.0
  outer loop
    vertex -39.741180954897494 -233.15224317371104 0.28536357179566796
    vertex -38.99999999999999 -230.11816900000014 0.28536357179566796
    vertex -39.50000000000002 -233.2521435962157 0.28536357179566796
  endloop
endfacet
facet normal 8.227084120505678e-17 -3.964663044053155e-17 -1.0
  outer loop
    vertex -39.50000000000002 -233.2521435962157 0.28536357179566796
    vertex -38.99999999999999 -230.11816900000014 0.28536357179566796
    vertex -39.29289321881347 -233.41106221881358 0.28536357179566796
  endloop
endfacet
facet normal 8.227084120505678e-17 -3.964663044053155e-17 -1.0
  outer loop
    vertex -39.29289321881347 -233.41106221881358 0.28536357179566796
    vertex -38.99999999999999 -230.11816900000014 0.28536357179566796
    vertex -39.13397459621558 -233.6181690000001 0.28536357179566796
  endloop
endfacet
facet normal 8.227084120505678e-17 -3.964663044053155e-17 -1.0
  outer loop
    vertex -39.13397459621558 -233.6181690000001 0.28536357179566796
    vertex -38.99999999999999 -230.11816900000014 0.28536357179566796
    vertex -39.03407417371095 -233.8593499548976 0.28536357179566796
  endloop
endfacet
facet normal 8.227084120505678e-17 -3.964663044053155e-17 -1.0
  outer loop
    vertex -39.03407417371095 -233.8593499548976 0.28536357179566796
    vertex -38.99999999999999 -230.11816900000014 0.28536357179566796
    vertex -39.00000000000002 -234.11816900000014 0.28536357179566796
  endloop
endfacet
facet normal 8.227084120505678e-17 -3.964663044053155e-17 -1.0
  outer loop
    vertex -41.000000000000014 -234.11816900000014 0.28536357179566796
    vertex -41.00000000000001 -238.1181690000001 0.28536357179566796
    vertex -41.26482227986141 -238.38299127986153 0.2853635717956678
  endloop
endfacet
facet normal 8.227084120505678e-17 -3.964663044053155e-17 -1.0
  outer loop
    vertex -41.00000000000001 -238.1181690000001 0.28536357179566796
    vertex -41.000000000000014 -234.11816900000014 0.28536357179566796
    vertex -40.96592582628908 -234.37698804510265 0.28536357179566796
  endloop
endfacet
facet normal 8.227084120505678e-17 -3.964663044053155e-17 -1.0
  outer loop
    vertex -41.00000000000001 -238.1181690000001 0.28536357179566796
    vertex -40.96592582628908 -234.37698804510265 0.28536357179566796
    vertex -40.86602540378445 -234.61816900000014 0.28536357179566796
  endloop
endfacet
facet normal 8.227084120505678e-17 -3.964663044053155e-17 -1.0
  outer loop
    vertex -41.00000000000001 -238.1181690000001 0.28536357179566796
    vertex -40.86602540378445 -234.61816900000014 0.28536357179566796
    vertex -38.99999999999999 -238.1181690000001 0.28536357179566796
  endloop
endfacet
facet normal 8.227084120505678e-17 -3.964663044053155e-17 -1.0
  outer loop
    vertex -38.99999999999999 -238.1181690000001 0.28536357179566796
    vertex -40.86602540378445 -234.61816900000014 0.28536357179566796
    vertex -40.70710678118657 -234.8252757811867 0.28536357179566796
  endloop
endfacet
facet normal 8.227084120505678e-17 -3.964663044053155e-17 -1.0
  outer loop
    vertex -38.99999999999999 -238.1181690000001 0.28536357179566796
    vertex -40.70710678118657 -234.8252757811867 0.28536357179566796
    vertex -40.500000000000014 -234.98419440378456 0.28536357179566796
  endloop
endfacet
facet normal 8.227084120505678e-17 -3.964663044053155e-17 -1.0
  outer loop
    vertex -38.99999999999999 -238.1181690000001 0.28536357179566796
    vertex -40.500000000000014 -234.98419440378456 0.28536357179566796
    vertex -40.25881904510254 -235.0840948262892 0.28536357179566796
  endloop
endfacet
facet normal 8.227084120505678e-17 -3.964663044053155e-17 -1.0
  outer loop
    vertex -38.99999999999999 -238.1181690000001 0.28536357179566796
    vertex -40.25881904510254 -235.0840948262892 0.28536357179566796
    vertex -40.000000000000014 -235.11816900000014 0.28536357179566796
  endloop
endfacet
facet normal 8.227084120505678e-17 -3.964663044053155e-17 -1.0
  outer loop
    vertex -38.99999999999999 -238.1181690000001 0.28536357179566796
    vertex -40.000000000000014 -235.11816900000014 0.28536357179566796
    vertex -39.741180954897494 -235.0840948262892 0.28536357179566796
  endloop
endfacet
facet normal 8.227084120505678e-17 -3.964663044053155e-17 -1.0
  outer loop
    vertex -38.99999999999999 -238.1181690000001 0.28536357179566796
    vertex -39.741180954897494 -235.0840948262892 0.28536357179566796
    vertex -39.50000000000002 -234.98419440378456 0.28536357179566796
  endloop
endfacet
facet normal 8.227084120505678e-17 -3.964663044053155e-17 -1.0
  outer loop
    vertex -38.99999999999999 -238.1181690000001 0.28536357179566796
    vertex -39.50000000000002 -234.98419440378456 0.28536357179566796
    vertex -39.29289321881347 -234.8252757811867 0.28536357179566796
  endloop
endfacet
facet normal 8.227084120505678e-17 -3.964663044053155e-17 -1.0
  outer loop
    vertex -38.99999999999999 -238.1181690000001 0.28536357179566796
    vertex -39.29289321881347 -234.8252757811867 0.28536357179566796
    vertex -39.13397459621558 -234.61816900000014 0.28536357179566796
  endloop
endfacet
facet normal 8.227084120505678e-17 -3.964663044053155e-17 -1.0
  outer loop
    vertex -38.99999999999999 -238.1181690000001 0.28536357179566796
    vertex -39.13397459621558 -234.61816900000014 0.28536357179566796
    vertex -39.03407417371095 -234.37698804510265 0.28536357179566796
  endloop
endfacet
facet normal 8.227084120505678e-17 -3.964663044053155e-17 -1.0
  outer loop
    vertex -38.99999999999999 -238.1181690000001 0.28536357179566796
    vertex -39.03407417371095 -234.37698804510265 0.28536357179566796
    vertex -39.00000000000002 -234.11816900000014 0.28536357179566796
  endloop
endfacet
facet normal 8.227084120505678e-17 -3.964663044053155e-17 -1.0
  outer loop
    vertex -38.99999999999999 -238.1181690000001 0.28536357179566796
    vertex -39.00000000000002 -234.11816900000014 0.28536357179566796
    vertex -38.99999999999999 -230.11816900000014 0.28536357179566796
  endloop
endfacet
facet normal 8.227084120505678e-17 -3.964663044053155e-17 -1.0
  outer loop
    vertex -38.99999999999999 -238.1181690000001 0.28536357179566796
    vertex -38.99999999999999 -230.11816900000014 0.28536357179566796
    vertex -38.73517772013858 -229.85334672013872 0.28536357179566746
  endloop
endfacet
facet normal 8.227084120505678e-17 -3.964663044053155e-17 -1.0
  outer loop
    vertex -38.99999999999999 -238.1181690000001 0.28536357179566796
    vertex -38.73517772013858 -229.85334672013872 0.28536357179566746
    vertex -38.73517772013858 -238.38299127986153 0.2853635717956678
  endloop
endfacet
facet normal 8.227084120505678e-17 -3.964663044053155e-17 -1.0
  outer loop
    vertex -38.73517772013858 -238.38299127986153 0.2853635717956678
    vertex -38.73517772013858 -229.85334672013872 0.28536357179566746
    vertex -32.49999999999995 -229.85334672013872 0.2853635717956678
  endloop
endfacet
facet normal 8.227084120505678e-17 -3.964663044053155e-17 -1.0
  outer loop
    vertex -38.73517772013858 -238.38299127986153 0.2853635717956678
    vertex -32.49999999999995 -229.85334672013872 0.2853635717956678
    vertex -32.49999999999995 -238.38299127986153 0.2853635717956678
  endloop
endfacet
facet normal 8.227084120505678e-17 -3.964663044053155e-17 -1.0
  outer loop
    vertex -43.73517772013856 -229.85334672013872 0.28536357179566657
    vertex -45.0 -237.1181690000001 0.28536357179566657
    vertex -45.00000000000001 -231.11816900000014 0.28536357179566657
  endloop
endfacet
facet normal 8.227084120505678e-17 -3.964663044053155e-17 -1.0
  outer loop
    vertex -45.0 -237.1181690000001 0.28536357179566657
    vertex -43.73517772013856 -229.85334672013872 0.28536357179566657
    vertex -43.7351777201385 -238.38299127986153 0.2853635717956678
  endloop
endfacet
facet normal 8.227084120505678e-17 -3.964663044053155e-17 -1.0
  outer loop
    vertex -43.7351777201385 -238.38299127986153 0.2853635717956678
    vertex -43.73517772013856 -229.85334672013872 0.28536357179566657
    vertex -43.50000000000001 -234.11816900000014 0.28536357179566796
  endloop
endfacet
facet normal 8.227084120505678e-17 -3.964663044053155e-17 -1.0
  outer loop
    vertex -43.50000000000001 -234.11816900000014 0.28536357179566796
    vertex -43.73517772013856 -229.85334672013872 0.28536357179566657
    vertex -43.46592582628909 -233.8593499548976 0.28536357179566796
  endloop
endfacet
facet normal 8.227084120505678e-17 -3.964663044053155e-17 -1.0
  outer loop
    vertex -43.46592582628909 -233.8593499548976 0.28536357179566796
    vertex -43.73517772013856 -229.85334672013872 0.28536357179566657
    vertex -43.36602540378445 -233.6181690000001 0.28536357179566796
  endloop
endfacet
facet normal 8.227084120505678e-17 -3.964663044053155e-17 -1.0
  outer loop
    vertex -43.36602540378445 -233.6181690000001 0.28536357179566796
    vertex -43.73517772013856 -229.85334672013872 0.28536357179566657
    vertex -41.26482227986141 -229.85334672013872 0.28536357179566724
  endloop
endfacet
facet normal 8.227084120505678e-17 -3.964663044053155e-17 -1.0
  outer loop
    vertex -43.36602540378445 -233.6181690000001 0.28536357179566796
    vertex -41.26482227986141 -229.85334672013872 0.28536357179566724
    vertex -43.20710678118656 -233.41106221881358 0.28536357179566796
  endloop
endfacet
facet normal 8.227084120505678e-17 -3.964663044053155e-17 -1.0
  outer loop
    vertex -43.20710678118656 -233.41106221881358 0.28536357179566796
    vertex -41.26482227986141 -229.85334672013872 0.28536357179566724
    vertex -43.000000000000014 -233.2521435962157 0.28536357179566796
  endloop
endfacet
facet normal 8.227084120505678e-17 -3.964663044053155e-17 -1.0
  outer loop
    vertex -43.000000000000014 -233.2521435962157 0.28536357179566796
    vertex -41.26482227986141 -229.85334672013872 0.28536357179566724
    vertex -42.758819045102534 -233.15224317371104 0.28536357179566796
  endloop
endfacet
facet normal 8.227084120505678e-17 -3.964663044053155e-17 -1.0
  outer loop
    vertex -42.758819045102534 -233.15224317371104 0.28536357179566796
    vertex -41.26482227986141 -229.85334672013872 0.28536357179566724
    vertex -42.500000000000014 -233.11816900000014 0.28536357179566796
  endloop
endfacet
facet normal 8.227084120505678e-17 -3.964663044053155e-17 -1.0
  outer loop
    vertex -42.500000000000014 -233.11816900000014 0.28536357179566796
    vertex -41.26482227986141 -229.85334672013872 0.28536357179566724
    vertex -42.24118095489749 -233.15224317371104 0.28536357179566796
  endloop
endfacet
facet normal 8.227084120505678e-17 -3.964663044053155e-17 -1.0
  outer loop
    vertex -42.24118095489749 -233.15224317371104 0.28536357179566796
    vertex -41.26482227986141 -229.85334672013872 0.28536357179566724
    vertex -42.000000000000014 -233.2521435962157 0.28536357179566796
  endloop
endfacet
facet normal 8.227084120505678e-17 -3.964663044053155e-17 -1.0
  outer loop
    vertex -42.000000000000014 -233.2521435962157 0.28536357179566796
    vertex -41.26482227986141 -229.85334672013872 0.28536357179566724
    vertex -41.79289321881346 -233.41106221881358 0.28536357179566796
  endloop
endfacet
facet normal 8.227084120505678e-17 -3.964663044053155e-17 -1.0
  outer loop
    vertex -41.79289321881346 -233.41106221881358 0.28536357179566796
    vertex -41.26482227986141 -229.85334672013872 0.28536357179566724
    vertex -41.63397459621558 -233.6181690000001 0.28536357179566796
  endloop
endfacet
facet normal 8.227084120505678e-17 -3.964663044053155e-17 -1.0
  outer loop
    vertex -41.63397459621558 -233.6181690000001 0.28536357179566796
    vertex -41.26482227986141 -229.85334672013872 0.28536357179566724
    vertex -41.53407417371094 -233.8593499548976 0.28536357179566796
  endloop
endfacet
facet normal 8.227084120505678e-17 -3.964663044053155e-17 -1.0
  outer loop
    vertex -41.53407417371094 -233.8593499548976 0.28536357179566796
    vertex -41.26482227986141 -229.85334672013872 0.28536357179566724
    vertex -41.500000000000014 -234.11816900000014 0.28536357179566796
  endloop
endfacet
facet normal -1.0 -9.399888275159675e-16 -2.862393682787661e-15
  outer loop
    vertex -45.00000000000001 -231.11816900000014 2.255719012072879
    vertex -45.0 -237.1181690000001 0.28536357179566657
    vertex -45.00000000000001 -237.1181690000001 2.255719012072879
  endloop
endfacet
facet normal -1.0 -9.399888275159675e-16 -2.862393682787661e-15
  outer loop
    vertex -45.0 -237.1181690000001 0.28536357179566657
    vertex -45.00000000000001 -231.11816900000014 2.255719012072879
    vertex -45.00000000000001 -231.11816900000014 0.28536357179566657
  endloop
endfacet
facet normal 0.7933533402912198 -0.6087614290087409 0.0
  outer loop
    vertex -43.20710678118656 -233.41106221881358 0.28536357179566796
    vertex -43.36602540378445 -233.6181690000001 2.255719012072879
    vertex -43.36602540378445 -233.6181690000001 0.28536357179566796
  endloop
endfacet
facet normal 0.7933533402912198 -0.6087614290087409 0.0
  outer loop
    vertex -43.36602540378445 -233.6181690000001 2.255719012072879
    vertex -43.20710678118656 -233.41106221881358 0.28536357179566796
    vertex -43.20710678118656 -233.41106221881358 2.255719012072879
  endloop
endfacet
facet normal 0.991444861373814 -0.13052619222002393 0.0
  outer loop
    vertex -43.46592582628909 -233.8593499548976 0.28536357179566796
    vertex -43.50000000000001 -234.11816900000014 2.255719012072879
    vertex -43.50000000000001 -234.11816900000014 0.28536357179566796
  endloop
endfacet
facet normal 0.991444861373814 -0.13052619222002393 0.0
  outer loop
    vertex -43.50000000000001 -234.11816900000014 2.255719012072879
    vertex -43.46592582628909 -233.8593499548976 0.28536357179566796
    vertex -43.46592582628909 -233.8593499548976 2.255719012072879
  endloop
endfacet
facet normal 0.6087614290086991 0.7933533402912517 0.0
  outer loop
    vertex -43.20710678118656 -234.8252757811867 2.255719012072879
    vertex -43.000000000000014 -234.98419440378456 0.28536357179566796
    vertex -43.20710678118656 -234.8252757811867 0.28536357179566796
  endloop
endfacet
facet normal 0.6087614290086991 0.7933533402912517 0.0
  outer loop
    vertex -43.000000000000014 -234.98419440378456 0.28536357179566796
    vertex -43.20710678118656 -234.8252757811867 2.255719012072879
    vertex -43.000000000000014 -234.98419440378456 2.255719012072879
  endloop
endfacet
facet normal 0.9914448613738135 -0.13052619222002954 0.0
  outer loop
    vertex -40.96592582628909 -233.8593499548976 0.28536357179566796
    vertex -41.000000000000014 -234.11816900000014 2.255719012072879
    vertex -41.000000000000014 -234.11816900000014 0.28536357179566796
  endloop
endfacet
facet normal 0.9914448613738135 -0.13052619222002954 0.0
  outer loop
    vertex -41.000000000000014 -234.11816900000014 2.255719012072879
    vertex -40.96592582628909 -233.8593499548976 0.28536357179566796
    vertex -40.96592582628909 -233.8593499548976 2.255719012072879
  endloop
endfacet
facet normal 0.7933533402912198 0.6087614290087409 0.0
  outer loop
    vertex -43.36602540378445 -234.61816900000014 0.28536357179566796
    vertex -43.20710678118656 -234.8252757811867 2.255719012072879
    vertex -43.20710678118656 -234.8252757811867 0.28536357179566796
  endloop
endfacet
facet normal 0.7933533402912198 0.6087614290087409 0.0
  outer loop
    vertex -43.20710678118656 -234.8252757811867 2.255719012072879
    vertex -43.36602540378445 -234.61816900000014 0.28536357179566796
    vertex -43.36602540378445 -234.61816900000014 2.255719012072879
  endloop
endfacet
facet normal 0.6087614290086991 -0.7933533402912517 0.0
  outer loop
    vertex -43.000000000000014 -233.2521435962157 2.255719012072879
    vertex -43.20710678118656 -233.41106221881358 0.28536357179566796
    vertex -43.000000000000014 -233.2521435962157 0.28536357179566796
  endloop
endfacet
facet normal 0.6087614290086991 -0.7933533402912517 0.0
  outer loop
    vertex -43.20710678118656 -233.41106221881358 0.28536357179566796
    vertex -43.000000000000014 -233.2521435962157 2.255719012072879
    vertex -43.20710678118656 -233.41106221881358 2.255719012072879
  endloop
endfacet
facet normal -0.3826834323651597 -0.923879532511258 0.0
  outer loop
    vertex -42.000000000000014 -233.2521435962157 2.255719012072879
    vertex -42.24118095489749 -233.15224317371104 0.28536357179566796
    vertex -42.000000000000014 -233.2521435962157 0.28536357179566796
  endloop
endfacet
facet normal -0.3826834323651597 -0.923879532511258 0.0
  outer loop
    vertex -42.24118095489749 -233.15224317371104 0.28536357179566796
    vertex -42.000000000000014 -233.2521435962157 2.255719012072879
    vertex -42.24118095489749 -233.15224317371104 2.255719012072879
  endloop
endfacet
facet normal -0.6087614290086991 -0.7933533402912517 0.0
  outer loop
    vertex -41.79289321881346 -233.41106221881358 2.255719012072879
    vertex -42.000000000000014 -233.2521435962157 0.28536357179566796
    vertex -41.79289321881346 -233.41106221881358 0.28536357179566796
  endloop
endfacet
facet normal -0.6087614290086991 -0.7933533402912517 0.0
  outer loop
    vertex -42.000000000000014 -233.2521435962157 0.28536357179566796
    vertex -41.79289321881346 -233.41106221881358 2.255719012072879
    vertex -42.000000000000014 -233.2521435962157 2.255719012072879
  endloop
endfacet
facet normal 0.3826834323651597 0.923879532511258 0.0
  outer loop
    vertex -43.000000000000014 -234.98419440378456 2.255719012072879
    vertex -42.758819045102534 -235.0840948262892 0.28536357179566796
    vertex -43.000000000000014 -234.98419440378456 0.28536357179566796
  endloop
endfacet
facet normal 0.3826834323651597 0.923879532511258 0.0
  outer loop
    vertex -42.758819045102534 -235.0840948262892 0.28536357179566796
    vertex -43.000000000000014 -234.98419440378456 2.255719012072879
    vertex -42.758819045102534 -235.0840948262892 2.255719012072879
  endloop
endfacet
facet normal -0.7933533402912198 -0.6087614290087409 0.0
  outer loop
    vertex -41.79289321881346 -233.41106221881358 2.255719012072879
    vertex -41.63397459621558 -233.6181690000001 0.28536357179566796
    vertex -41.63397459621558 -233.6181690000001 2.255719012072879
  endloop
endfacet
facet normal -0.7933533402912198 -0.6087614290087409 0.0
  outer loop
    vertex -41.63397459621558 -233.6181690000001 0.28536357179566796
    vertex -41.79289321881346 -233.41106221881358 2.255719012072879
    vertex -41.79289321881346 -233.41106221881358 0.28536357179566796
  endloop
endfacet
facet normal -0.9238795325112795 0.3826834323651076 0.0
  outer loop
    vertex -41.53407417371094 -234.37698804510265 2.255719012072879
    vertex -41.63397459621558 -234.61816900000014 0.28536357179566796
    vertex -41.63397459621558 -234.61816900000014 2.255719012072879
  endloop
endfacet
facet normal -0.9238795325112795 0.3826834323651076 0.0
  outer loop
    vertex -41.63397459621558 -234.61816900000014 0.28536357179566796
    vertex -41.53407417371094 -234.37698804510265 2.255719012072879
    vertex -41.53407417371094 -234.37698804510265 0.28536357179566796
  endloop
endfacet
facet normal 0.9238795325112948 0.38268343236507074 0.0
  outer loop
    vertex -43.46592582628907 -234.37698804510265 0.28536357179566796
    vertex -43.36602540378445 -234.61816900000014 2.255719012072879
    vertex -43.36602540378445 -234.61816900000014 0.28536357179566796
  endloop
endfacet
facet normal 0.9238795325112948 0.38268343236507074 0.0
  outer loop
    vertex -43.36602540378445 -234.61816900000014 2.255719012072879
    vertex -43.46592582628907 -234.37698804510265 0.28536357179566796
    vertex -43.46592582628907 -234.37698804510265 2.255719012072879
  endloop
endfacet
facet normal 0.13052619221998704 -0.991444861373819 0.0
  outer loop
    vertex -42.500000000000014 -233.11816900000014 2.255719012072879
    vertex -42.758819045102534 -233.15224317371104 0.28536357179566796
    vertex -42.500000000000014 -233.11816900000014 0.28536357179566796
  endloop
endfacet
facet normal 0.13052619221998704 -0.991444861373819 0.0
  outer loop
    vertex -42.758819045102534 -233.15224317371104 0.28536357179566796
    vertex -42.500000000000014 -233.11816900000014 2.255719012072879
    vertex -42.758819045102534 -233.15224317371104 2.255719012072879
  endloop
endfacet
facet normal 0.13052619221998704 0.991444861373819 0.0
  outer loop
    vertex -42.758819045102534 -235.0840948262892 2.255719012072879
    vertex -42.500000000000014 -235.11816900000014 0.28536357179566796
    vertex -42.758819045102534 -235.0840948262892 0.28536357179566796
  endloop
endfacet
facet normal 0.13052619221998704 0.991444861373819 0.0
  outer loop
    vertex -42.500000000000014 -235.11816900000014 0.28536357179566796
    vertex -42.758819045102534 -235.0840948262892 2.255719012072879
    vertex -42.500000000000014 -235.11816900000014 2.255719012072879
  endloop
endfacet
facet normal -0.13052619221998704 0.991444861373819 0.0
  outer loop
    vertex -42.500000000000014 -235.11816900000014 2.255719012072879
    vertex -42.24118095489749 -235.0840948262892 0.28536357179566796
    vertex -42.500000000000014 -235.11816900000014 0.28536357179566796
  endloop
endfacet
facet normal -0.13052619221998704 0.991444861373819 0.0
  outer loop
    vertex -42.24118095489749 -235.0840948262892 0.28536357179566796
    vertex -42.500000000000014 -235.11816900000014 2.255719012072879
    vertex -42.24118095489749 -235.0840948262892 2.255719012072879
  endloop
endfacet
facet normal 0.9914448613738086 0.1305261922200664 0.0
  outer loop
    vertex -43.50000000000001 -234.11816900000014 0.28536357179566796
    vertex -43.46592582628907 -234.37698804510265 2.255719012072879
    vertex -43.46592582628907 -234.37698804510265 0.28536357179566796
  endloop
endfacet
facet normal 0.9914448613738086 0.1305261922200664 0.0
  outer loop
    vertex -43.46592582628907 -234.37698804510265 2.255719012072879
    vertex -43.50000000000001 -234.11816900000014 0.28536357179566796
    vertex -43.50000000000001 -234.11816900000014 2.255719012072879
  endloop
endfacet
facet normal -0.7933533402912198 0.6087614290087409 0.0
  outer loop
    vertex -41.63397459621558 -234.61816900000014 2.255719012072879
    vertex -41.79289321881346 -234.8252757811867 0.28536357179566796
    vertex -41.79289321881346 -234.8252757811867 2.255719012072879
  endloop
endfacet
facet normal -0.7933533402912198 0.6087614290087409 0.0
  outer loop
    vertex -41.79289321881346 -234.8252757811867 0.28536357179566796
    vertex -41.63397459621558 -234.61816900000014 2.255719012072879
    vertex -41.63397459621558 -234.61816900000014 0.28536357179566796
  endloop
endfacet
facet normal -0.9238795325112795 -0.3826834323651075 0.0
  outer loop
    vertex -41.63397459621558 -233.6181690000001 2.255719012072879
    vertex -41.53407417371094 -233.8593499548976 0.28536357179566796
    vertex -41.53407417371094 -233.8593499548976 2.255719012072879
  endloop
endfacet
facet normal -0.9238795325112795 -0.3826834323651075 0.0
  outer loop
    vertex -41.53407417371094 -233.8593499548976 0.28536357179566796
    vertex -41.63397459621558 -233.6181690000001 2.255719012072879
    vertex -41.63397459621558 -233.6181690000001 0.28536357179566796
  endloop
endfacet
facet normal -0.991444861373814 -0.13052619222002393 0.0
  outer loop
    vertex -41.53407417371094 -233.8593499548976 2.255719012072879
    vertex -41.500000000000014 -234.11816900000014 0.28536357179566796
    vertex -41.500000000000014 -234.11816900000014 2.255719012072879
  endloop
endfacet
facet normal -0.991444861373814 -0.13052619222002393 0.0
  outer loop
    vertex -41.500000000000014 -234.11816900000014 0.28536357179566796
    vertex -41.53407417371094 -233.8593499548976 2.255719012072879
    vertex -41.53407417371094 -233.8593499548976 0.28536357179566796
  endloop
endfacet
facet normal 0.3826834323651597 -0.923879532511258 0.0
  outer loop
    vertex -42.758819045102534 -233.15224317371104 2.255719012072879
    vertex -43.000000000000014 -233.2521435962157 0.28536357179566796
    vertex -42.758819045102534 -233.15224317371104 0.28536357179566796
  endloop
endfacet
facet normal 0.3826834323651597 -0.923879532511258 0.0
  outer loop
    vertex -43.000000000000014 -233.2521435962157 0.28536357179566796
    vertex -42.758819045102534 -233.15224317371104 2.255719012072879
    vertex -43.000000000000014 -233.2521435962157 2.255719012072879
  endloop
endfacet
facet normal -0.991444861373814 0.13052619222002393 0.0
  outer loop
    vertex -41.500000000000014 -234.11816900000014 2.255719012072879
    vertex -41.53407417371094 -234.37698804510265 0.28536357179566796
    vertex -41.53407417371094 -234.37698804510265 2.255719012072879
  endloop
endfacet
facet normal -0.991444861373814 0.13052619222002393 0.0
  outer loop
    vertex -41.53407417371094 -234.37698804510265 0.28536357179566796
    vertex -41.500000000000014 -234.11816900000014 2.255719012072879
    vertex -41.500000000000014 -234.11816900000014 0.28536357179566796
  endloop
endfacet
facet normal -0.13052619221998704 -0.991444861373819 0.0
  outer loop
    vertex -42.24118095489749 -233.15224317371104 2.255719012072879
    vertex -42.500000000000014 -233.11816900000014 0.28536357179566796
    vertex -42.24118095489749 -233.15224317371104 0.28536357179566796
  endloop
endfacet
facet normal -0.13052619221998704 -0.991444861373819 0.0
  outer loop
    vertex -42.500000000000014 -233.11816900000014 0.28536357179566796
    vertex -42.24118095489749 -233.15224317371104 2.255719012072879
    vertex -42.500000000000014 -233.11816900000014 2.255719012072879
  endloop
endfacet
facet normal -0.3826834323651597 0.923879532511258 0.0
  outer loop
    vertex -42.24118095489749 -235.0840948262892 2.255719012072879
    vertex -42.000000000000014 -234.98419440378456 0.28536357179566796
    vertex -42.24118095489749 -235.0840948262892 0.28536357179566796
  endloop
endfacet
facet normal -0.3826834323651597 0.923879532511258 0.0
  outer loop
    vertex -42.000000000000014 -234.98419440378456 0.28536357179566796
    vertex -42.24118095489749 -235.0840948262892 2.255719012072879
    vertex -42.000000000000014 -234.98419440378456 2.255719012072879
  endloop
endfacet
facet normal 0.9238795325112795 -0.3826834323651076 0.0
  outer loop
    vertex -43.36602540378445 -233.6181690000001 0.28536357179566796
    vertex -43.46592582628909 -233.8593499548976 2.255719012072879
    vertex -43.46592582628909 -233.8593499548976 0.28536357179566796
  endloop
endfacet
facet normal 0.9238795325112795 -0.3826834323651076 0.0
  outer loop
    vertex -43.46592582628909 -233.8593499548976 2.255719012072879
    vertex -43.36602540378445 -233.6181690000001 0.28536357179566796
    vertex -43.36602540378445 -233.6181690000001 2.255719012072879
  endloop
endfacet
facet normal -0.6087614290086991 0.7933533402912517 0.0
  outer loop
    vertex -42.000000000000014 -234.98419440378456 2.255719012072879
    vertex -41.79289321881346 -234.8252757811867 0.28536357179566796
    vertex -42.000000000000014 -234.98419440378456 0.28536357179566796
  endloop
endfacet
facet normal -0.6087614290086991 0.7933533402912517 0.0
  outer loop
    vertex -41.79289321881346 -234.8252757811867 0.28536357179566796
    vertex -42.000000000000014 -234.98419440378456 2.255719012072879
    vertex -41.79289321881346 -234.8252757811867 2.255719012072879
  endloop
endfacet
facet normal 0.9238795325112884 0.38268343236508595 0.0
  outer loop
    vertex -40.96592582628908 -234.37698804510265 0.28536357179566796
    vertex -40.86602540378445 -234.61816900000014 2.255719012072879
    vertex -40.86602540378445 -234.61816900000014 0.28536357179566796
  endloop
endfacet
facet normal 0.9238795325112884 0.38268343236508595 0.0
  outer loop
    vertex -40.86602540378445 -234.61816900000014 2.255719012072879
    vertex -40.96592582628908 -234.37698804510265 0.28536357179566796
    vertex -40.96592582628908 -234.37698804510265 2.255719012072879
  endloop
endfacet
facet normal -0.6087614290086991 -0.7933533402912518 -0.0
  outer loop
    vertex -39.29289321881347 -233.41106221881358 2.255719012072879
    vertex -39.50000000000002 -233.2521435962157 0.28536357179566796
    vertex -39.29289321881347 -233.41106221881358 0.28536357179566796
  endloop
endfacet
facet normal -0.6087614290086991 -0.7933533402912518 -0.0
  outer loop
    vertex -39.50000000000002 -233.2521435962157 0.28536357179566796
    vertex -39.29289321881347 -233.41106221881358 2.255719012072879
    vertex -39.50000000000002 -233.2521435962157 2.255719012072879
  endloop
endfacet
facet normal -0.9914448613738135 -0.13052619222002954 -0.0
  outer loop
    vertex -39.03407417371095 -233.8593499548976 2.255719012072879
    vertex -39.00000000000002 -234.11816900000014 0.28536357179566796
    vertex -39.00000000000002 -234.11816900000014 2.255719012072879
  endloop
endfacet
facet normal -0.9914448613738135 -0.13052619222002954 -0.0
  outer loop
    vertex -39.00000000000002 -234.11816900000014 0.28536357179566796
    vertex -39.03407417371095 -233.8593499548976 2.255719012072879
    vertex -39.03407417371095 -233.8593499548976 0.28536357179566796
  endloop
endfacet
facet normal -0.9914448613738135 0.13052619222002954 0.0
  outer loop
    vertex -39.00000000000002 -234.11816900000014 2.255719012072879
    vertex -39.03407417371095 -234.37698804510265 0.28536357179566796
    vertex -39.03407417371095 -234.37698804510265 2.255719012072879
  endloop
endfacet
facet normal -0.9914448613738135 0.13052619222002954 0.0
  outer loop
    vertex -39.03407417371095 -234.37698804510265 0.28536357179566796
    vertex -39.00000000000002 -234.11816900000014 2.255719012072879
    vertex -39.00000000000002 -234.11816900000014 0.28536357179566796
  endloop
endfacet
facet normal 0.6087614290086991 0.7933533402912518 0.0
  outer loop
    vertex -40.70710678118657 -234.8252757811867 2.255719012072879
    vertex -40.500000000000014 -234.98419440378456 0.28536357179566796
    vertex -40.70710678118657 -234.8252757811867 0.28536357179566796
  endloop
endfacet
facet normal 0.6087614290086991 0.7933533402912518 0.0
  outer loop
    vertex -40.500000000000014 -234.98419440378456 0.28536357179566796
    vertex -40.70710678118657 -234.8252757811867 2.255719012072879
    vertex -40.500000000000014 -234.98419440378456 2.255719012072879
  endloop
endfacet
facet normal -0.6087614290086991 0.7933533402912518 0.0
  outer loop
    vertex -39.50000000000002 -234.98419440378456 2.255719012072879
    vertex -39.29289321881347 -234.8252757811867 0.28536357179566796
    vertex -39.50000000000002 -234.98419440378456 0.28536357179566796
  endloop
endfacet
facet normal -0.6087614290086991 0.7933533402912518 0.0
  outer loop
    vertex -39.29289321881347 -234.8252757811867 0.28536357179566796
    vertex -39.50000000000002 -234.98419440378456 2.255719012072879
    vertex -39.29289321881347 -234.8252757811867 2.255719012072879
  endloop
endfacet
facet normal 0.6087614290086991 -0.7933533402912518 0.0
  outer loop
    vertex -40.500000000000014 -233.2521435962157 2.255719012072879
    vertex -40.70710678118657 -233.41106221881358 0.28536357179566796
    vertex -40.500000000000014 -233.2521435962157 0.28536357179566796
  endloop
endfacet
facet normal 0.6087614290086991 -0.7933533402912518 0.0
  outer loop
    vertex -40.70710678118657 -233.41106221881358 0.28536357179566796
    vertex -40.500000000000014 -233.2521435962157 2.255719012072879
    vertex -40.70710678118657 -233.41106221881358 2.255719012072879
  endloop
endfacet
facet normal 0.9238795325112731 -0.38268343236512276 0.0
  outer loop
    vertex -40.86602540378445 -233.6181690000001 0.28536357179566796
    vertex -40.96592582628909 -233.8593499548976 2.255719012072879
    vertex -40.96592582628909 -233.8593499548976 0.28536357179566796
  endloop
endfacet
facet normal 0.9238795325112731 -0.38268343236512276 0.0
  outer loop
    vertex -40.96592582628909 -233.8593499548976 2.255719012072879
    vertex -40.86602540378445 -233.6181690000001 0.28536357179566796
    vertex -40.86602540378445 -233.6181690000001 2.255719012072879
  endloop
endfacet
facet normal 0.7933533402912518 -0.6087614290086991 0.0
  outer loop
    vertex -40.70710678118657 -233.41106221881358 0.28536357179566796
    vertex -40.86602540378445 -233.6181690000001 2.255719012072879
    vertex -40.86602540378445 -233.6181690000001 0.28536357179566796
  endloop
endfacet
facet normal 0.7933533402912518 -0.6087614290086991 0.0
  outer loop
    vertex -40.86602540378445 -233.6181690000001 2.255719012072879
    vertex -40.70710678118657 -233.41106221881358 0.28536357179566796
    vertex -40.70710678118657 -233.41106221881358 2.255719012072879
  endloop
endfacet
facet normal -0.38268343236508595 0.9238795325112884 0.0
  outer loop
    vertex -39.741180954897494 -235.0840948262892 2.255719012072879
    vertex -39.50000000000002 -234.98419440378456 0.28536357179566796
    vertex -39.741180954897494 -235.0840948262892 0.28536357179566796
  endloop
endfacet
facet normal -0.38268343236508595 0.9238795325112884 0.0
  outer loop
    vertex -39.50000000000002 -234.98419440378456 0.28536357179566796
    vertex -39.741180954897494 -235.0840948262892 2.255719012072879
    vertex -39.50000000000002 -234.98419440378456 2.255719012072879
  endloop
endfacet
facet normal 0.7933533402912518 0.6087614290086991 0.0
  outer loop
    vertex -40.86602540378445 -234.61816900000014 0.28536357179566796
    vertex -40.70710678118657 -234.8252757811867 2.255719012072879
    vertex -40.70710678118657 -234.8252757811867 0.28536357179566796
  endloop
endfacet
facet normal 0.7933533402912518 0.6087614290086991 0.0
  outer loop
    vertex -40.70710678118657 -234.8252757811867 2.255719012072879
    vertex -40.86602540378445 -234.61816900000014 0.28536357179566796
    vertex -40.86602540378445 -234.61816900000014 2.255719012072879
  endloop
endfacet
facet normal -0.9238795325112731 -0.38268343236512276 -0.0
  outer loop
    vertex -39.13397459621558 -233.6181690000001 2.255719012072879
    vertex -39.03407417371095 -233.8593499548976 0.28536357179566796
    vertex -39.03407417371095 -233.8593499548976 2.255719012072879
  endloop
endfacet
facet normal -0.9238795325112731 -0.38268343236512276 -0.0
  outer loop
    vertex -39.03407417371095 -233.8593499548976 0.28536357179566796
    vertex -39.13397459621558 -233.6181690000001 2.255719012072879
    vertex -39.13397459621558 -233.6181690000001 0.28536357179566796
  endloop
endfacet
facet normal -0.7933533402912518 -0.6087614290086991 -0.0
  outer loop
    vertex -39.29289321881347 -233.41106221881358 2.255719012072879
    vertex -39.13397459621558 -233.6181690000001 0.28536357179566796
    vertex -39.13397459621558 -233.6181690000001 2.255719012072879
  endloop
endfacet
facet normal -0.7933533402912518 -0.6087614290086991 -0.0
  outer loop
    vertex -39.13397459621558 -233.6181690000001 0.28536357179566796
    vertex -39.29289321881347 -233.41106221881358 2.255719012072879
    vertex -39.29289321881347 -233.41106221881358 0.28536357179566796
  endloop
endfacet
facet normal -0.13052619222002954 -0.9914448613738135 -0.0
  outer loop
    vertex -39.741180954897494 -233.15224317371104 2.255719012072879
    vertex -40.000000000000014 -233.11816900000014 0.28536357179566796
    vertex -39.741180954897494 -233.15224317371104 0.28536357179566796
  endloop
endfacet
facet normal -0.13052619222002954 -0.9914448613738135 -0.0
  outer loop
    vertex -40.000000000000014 -233.11816900000014 0.28536357179566796
    vertex -39.741180954897494 -233.15224317371104 2.255719012072879
    vertex -40.000000000000014 -233.11816900000014 2.255719012072879
  endloop
endfacet
facet normal -0.38268343236512276 -0.9238795325112731 -0.0
  outer loop
    vertex -39.50000000000002 -233.2521435962157 2.255719012072879
    vertex -39.741180954897494 -233.15224317371104 0.28536357179566796
    vertex -39.50000000000002 -233.2521435962157 0.28536357179566796
  endloop
endfacet
facet normal -0.38268343236512276 -0.9238795325112731 -0.0
  outer loop
    vertex -39.741180954897494 -233.15224317371104 0.28536357179566796
    vertex -39.50000000000002 -233.2521435962157 2.255719012072879
    vertex -39.741180954897494 -233.15224317371104 2.255719012072879
  endloop
endfacet
facet normal -0.13052619222007197 0.9914448613738077 0.0
  outer loop
    vertex -40.000000000000014 -235.11816900000014 2.255719012072879
    vertex -39.741180954897494 -235.0840948262892 0.28536357179566796
    vertex -40.000000000000014 -235.11816900000014 0.28536357179566796
  endloop
endfacet
facet normal -0.13052619222007197 0.9914448613738077 0.0
  outer loop
    vertex -39.741180954897494 -235.0840948262892 0.28536357179566796
    vertex -40.000000000000014 -235.11816900000014 2.255719012072879
    vertex -39.741180954897494 -235.0840948262892 2.255719012072879
  endloop
endfacet
facet normal -0.9238795325112731 0.38268343236512276 0.0
  outer loop
    vertex -39.03407417371095 -234.37698804510265 2.255719012072879
    vertex -39.13397459621558 -234.61816900000014 0.28536357179566796
    vertex -39.13397459621558 -234.61816900000014 2.255719012072879
  endloop
endfacet
facet normal -0.9238795325112731 0.38268343236512276 0.0
  outer loop
    vertex -39.13397459621558 -234.61816900000014 0.28536357179566796
    vertex -39.03407417371095 -234.37698804510265 2.255719012072879
    vertex -39.03407417371095 -234.37698804510265 0.28536357179566796
  endloop
endfacet
facet normal 0.38268343236512276 0.9238795325112731 0.0
  outer loop
    vertex -40.500000000000014 -234.98419440378456 2.255719012072879
    vertex -40.25881904510254 -235.0840948262892 0.28536357179566796
    vertex -40.500000000000014 -234.98419440378456 0.28536357179566796
  endloop
endfacet
facet normal 0.38268343236512276 0.9238795325112731 0.0
  outer loop
    vertex -40.25881904510254 -235.0840948262892 0.28536357179566796
    vertex -40.500000000000014 -234.98419440378456 2.255719012072879
    vertex -40.25881904510254 -235.0840948262892 2.255719012072879
  endloop
endfacet
facet normal -0.7933533402912518 0.6087614290086991 0.0
  outer loop
    vertex -39.13397459621558 -234.61816900000014 2.255719012072879
    vertex -39.29289321881347 -234.8252757811867 0.28536357179566796
    vertex -39.29289321881347 -234.8252757811867 2.255719012072879
  endloop
endfacet
facet normal -0.7933533402912518 0.6087614290086991 0.0
  outer loop
    vertex -39.29289321881347 -234.8252757811867 0.28536357179566796
    vertex -39.13397459621558 -234.61816900000014 2.255719012072879
    vertex -39.13397459621558 -234.61816900000014 0.28536357179566796
  endloop
endfacet
facet normal 0.13052619222007197 -0.9914448613738077 0.0
  outer loop
    vertex -40.000000000000014 -233.11816900000014 2.255719012072879
    vertex -40.25881904510254 -233.15224317371104 0.28536357179566796
    vertex -40.000000000000014 -233.11816900000014 0.28536357179566796
  endloop
endfacet
facet normal 0.13052619222007197 -0.9914448613738077 0.0
  outer loop
    vertex -40.25881904510254 -233.15224317371104 0.28536357179566796
    vertex -40.000000000000014 -233.11816900000014 2.255719012072879
    vertex -40.25881904510254 -233.15224317371104 2.255719012072879
  endloop
endfacet
facet normal 0.13052619222002954 0.9914448613738135 0.0
  outer loop
    vertex -40.25881904510254 -235.0840948262892 2.255719012072879
    vertex -40.000000000000014 -235.11816900000014 0.28536357179566796
    vertex -40.25881904510254 -235.0840948262892 0.28536357179566796
  endloop
endfacet
facet normal 0.13052619222002954 0.9914448613738135 0.0
  outer loop
    vertex -40.000000000000014 -235.11816900000014 0.28536357179566796
    vertex -40.25881904510254 -235.0840948262892 2.255719012072879
    vertex -40.000000000000014 -235.11816900000014 2.255719012072879
  endloop
endfacet
facet normal 0.9914448613738077 0.13052619222007197 0.0
  outer loop
    vertex -41.000000000000014 -234.11816900000014 0.28536357179566796
    vertex -40.96592582628908 -234.37698804510265 2.255719012072879
    vertex -40.96592582628908 -234.37698804510265 0.28536357179566796
  endloop
endfacet
facet normal 0.9914448613738077 0.13052619222007197 0.0
  outer loop
    vertex -40.96592582628908 -234.37698804510265 2.255719012072879
    vertex -41.000000000000014 -234.11816900000014 0.28536357179566796
    vertex -41.000000000000014 -234.11816900000014 2.255719012072879
  endloop
endfacet
facet normal 0.38268343236508595 -0.9238795325112884 0.0
  outer loop
    vertex -40.25881904510254 -233.15224317371104 2.255719012072879
    vertex -40.500000000000014 -233.2521435962157 0.28536357179566796
    vertex -40.25881904510254 -233.15224317371104 0.28536357179566796
  endloop
endfacet
facet normal 0.38268343236508595 -0.9238795325112884 0.0
  outer loop
    vertex -40.500000000000014 -233.2521435962157 0.28536357179566796
    vertex -40.25881904510254 -233.15224317371104 2.255719012072879
    vertex -40.500000000000014 -233.2521435962157 2.255719012072879
  endloop
endfacet
endsolid ProtoGlove
