solid ProtoGlove
facet normal 0.0 -1.0 0.0
  outer loop
    vertex -32.49999999999997 -259.1181690000002 2.255719012072879
    vertex -35.50000000000003 -259.1181690000002 1.7557190120728787
    vertex -32.49999999999997 -259.1181690000002 1.7557190120728787
  endloop
endfacet
facet normal 0.0 -1.0 0.0
  outer loop
    vertex -35.50000000000003 -259.1181690000002 1.7557190120728787
    vertex -32.49999999999997 -259.1181690000002 2.255719012072879
    vertex -35.50000000000003 -259.1181690000002 2.255719012072879
  endloop
endfacet
facet normal -7.37061216840525e-15 0.8944271909999206 -0.4472135954999487
  outer loop
    vertex -40.500000000000036 -249.1181690000002 1.7557190120728774
    vertex -38.764822279861434 -249.85334672013877 0.28536357179566724
    vertex -41.235177720138594 -249.85334672013877 0.28536357179566657
  endloop
endfacet
facet normal -7.37061216840525e-15 0.8944271909999206 -0.4472135954999487
  outer loop
    vertex -38.764822279861434 -249.85334672013877 0.28536357179566724
    vertex -40.500000000000036 -249.1181690000002 1.7557190120728774
    vertex -39.50000000000003 -249.1181690000002 1.7557190120728787
  endloop
endfacet
facet normal -0.7071067811865499 0.7071067811865451 5.847698623815023e-15
  outer loop
    vertex -35.50000000000003 -249.1181690000002 2.255719012072879
    vertex -36.50000000000002 -250.1181690000002 0.28536357179566796
    vertex -36.50000000000002 -250.1181690000002 2.255719012072879
  endloop
endfacet
facet normal -0.7071067811865499 0.7071067811865451 5.847698623815023e-15
  outer loop
    vertex -36.50000000000002 -250.1181690000002 0.28536357179566796
    vertex -35.50000000000003 -249.1181690000002 2.255719012072879
    vertex -36.23517772013862 -249.85334672013877 0.2853635717956676
  endloop
endfacet
facet normal -0.7071067811865499 0.7071067811865451 5.847698623815023e-15
  outer loop
    vertex -36.23517772013862 -249.85334672013877 0.2853635717956676
    vertex -35.50000000000003 -249.1181690000002 2.255719012072879
    vertex -35.50000000000003 -249.1181690000002 1.7557190120728787
  endloop
endfacet
facet normal 2.677183369507485e-17 2.4999702859467223e-17 1.0
  outer loop
    vertex -40.500000000000036 -259.1181690000002 2.255719012072881
    vertex -42.500000000000036 -251.1181690000002 2.255719012072879
    vertex -42.500000000000036 -257.1181690000002 2.255719012072879
  endloop
endfacet
facet normal 2.677183369507485e-17 2.4999702859467223e-17 1.0
  outer loop
    vertex -42.500000000000036 -251.1181690000002 2.255719012072879
    vertex -40.500000000000036 -259.1181690000002 2.255719012072881
    vertex -41.000000000000036 -254.1181690000002 2.255719012072879
  endloop
endfacet
facet normal 2.677183369507485e-17 2.4999702859467223e-17 1.0
  outer loop
    vertex -41.000000000000036 -254.1181690000002 2.255719012072879
    vertex -40.500000000000036 -259.1181690000002 2.255719012072881
    vertex -40.9659258262891 -254.3769880451027 2.255719012072879
  endloop
endfacet
facet normal 2.677183369507485e-17 2.4999702859467223e-17 1.0
  outer loop
    vertex -40.9659258262891 -254.3769880451027 2.255719012072879
    vertex -40.500000000000036 -259.1181690000002 2.255719012072881
    vertex -40.86602540378448 -254.6181690000002 2.255719012072879
  endloop
endfacet
facet normal 2.677183369507485e-17 2.4999702859467223e-17 1.0
  outer loop
    vertex -40.86602540378448 -254.6181690000002 2.255719012072879
    vertex -40.500000000000036 -259.1181690000002 2.255719012072881
    vertex -40.70710678118659 -254.82527578118672 2.255719012072879
  endloop
endfacet
facet normal 2.677183369507485e-17 2.4999702859467223e-17 1.0
  outer loop
    vertex -40.70710678118659 -254.82527578118672 2.255719012072879
    vertex -40.500000000000036 -259.1181690000002 2.255719012072881
    vertex -40.500000000000036 -254.9841944037846 2.255719012072879
  endloop
endfacet
facet normal 2.677183369507485e-17 2.4999702859467223e-17 1.0
  outer loop
    vertex -40.500000000000036 -254.9841944037846 2.255719012072879
    vertex -40.500000000000036 -259.1181690000002 2.255719012072881
    vertex -39.50000000000003 -259.1181690000002 2.255719012072879
  endloop
endfacet
facet normal 2.677183369507485e-17 2.4999702859467223e-17 1.0
  outer loop
    vertex -40.500000000000036 -254.9841944037846 2.255719012072879
    vertex -39.50000000000003 -259.1181690000002 2.255719012072879
    vertex -40.25881904510256 -255.08409482628926 2.255719012072879
  endloop
endfacet
facet normal 2.677183369507485e-17 2.4999702859467223e-17 1.0
  outer loop
    vertex -40.25881904510256 -255.08409482628926 2.255719012072879
    vertex -39.50000000000003 -259.1181690000002 2.255719012072879
    vertex -40.00000000000004 -255.11816900000017 2.255719012072879
  endloop
endfacet
facet normal 2.677183369507485e-17 2.4999702859467223e-17 1.0
  outer loop
    vertex -40.00000000000004 -255.11816900000017 2.255719012072879
    vertex -39.50000000000003 -259.1181690000002 2.255719012072879
    vertex -39.741180954897516 -255.08409482628926 2.255719012072879
  endloop
endfacet
facet normal 2.677183369507485e-17 2.4999702859467223e-17 1.0
  outer loop
    vertex -39.741180954897516 -255.08409482628926 2.255719012072879
    vertex -39.50000000000003 -259.1181690000002 2.255719012072879
    vertex -39.50000000000004 -254.9841944037846 2.255719012072879
  endloop
endfacet
facet normal 2.677183369507485e-17 2.4999702859467223e-17 1.0
  outer loop
    vertex -39.50000000000004 -254.9841944037846 2.255719012072879
    vertex -39.50000000000003 -259.1181690000002 2.255719012072879
    vertex -39.29289321881349 -254.82527578118672 2.255719012072879
  endloop
endfacet
facet normal 2.677183369507485e-17 2.4999702859467223e-17 1.0
  outer loop
    vertex -39.29289321881349 -254.82527578118672 2.255719012072879
    vertex -39.50000000000003 -259.1181690000002 2.255719012072879
    vertex -38.50000000000003 -258.1181690000002 2.255719012072879
  endloop
endfacet
facet normal 2.677183369507485e-17 2.4999702859467223e-17 1.0
  outer loop
    vertex -39.29289321881349 -254.82527578118672 2.255719012072879
    vertex -38.50000000000003 -258.1181690000002 2.255719012072879
    vertex -39.13397459621561 -254.6181690000002 2.255719012072879
  endloop
endfacet
facet normal 2.677183369507485e-17 2.4999702859467223e-17 1.0
  outer loop
    vertex -39.13397459621561 -254.6181690000002 2.255719012072879
    vertex -38.50000000000003 -258.1181690000002 2.255719012072879
    vertex -39.03407417371097 -254.3769880451027 2.255719012072879
  endloop
endfacet
facet normal 2.677183369507485e-17 2.4999702859467223e-17 1.0
  outer loop
    vertex -39.03407417371097 -254.3769880451027 2.255719012072879
    vertex -38.50000000000003 -258.1181690000002 2.255719012072879
    vertex -39.00000000000004 -254.1181690000002 2.255719012072879
  endloop
endfacet
facet normal 2.677183369507485e-17 2.4999702859467223e-17 1.0
  outer loop
    vertex -39.00000000000004 -254.1181690000002 2.255719012072879
    vertex -38.50000000000003 -258.1181690000002 2.255719012072879
    vertex -38.50000000000004 -254.1181690000002 2.255719012072879
  endloop
endfacet
facet normal 2.677183369507485e-17 2.4999702859467223e-17 1.0
  outer loop
    vertex -38.50000000000004 -254.1181690000002 2.255719012072879
    vertex -38.50000000000003 -258.1181690000002 2.255719012072879
    vertex -38.4659258262891 -254.3769880451027 2.255719012072879
  endloop
endfacet
facet normal 2.677183369507485e-17 2.4999702859467223e-17 1.0
  outer loop
    vertex -38.4659258262891 -254.3769880451027 2.255719012072879
    vertex -38.50000000000003 -258.1181690000002 2.255719012072879
    vertex -38.36602540378448 -254.6181690000002 2.255719012072879
  endloop
endfacet
facet normal 2.677183369507485e-17 2.4999702859467223e-17 1.0
  outer loop
    vertex -38.36602540378448 -254.6181690000002 2.255719012072879
    vertex -38.50000000000003 -258.1181690000002 2.255719012072879
    vertex -36.50000000000002 -258.1181690000002 2.255719012072879
  endloop
endfacet
facet normal 2.677183369507485e-17 2.4999702859467223e-17 1.0
  outer loop
    vertex -38.36602540378448 -254.6181690000002 2.255719012072879
    vertex -36.50000000000002 -258.1181690000002 2.255719012072879
    vertex -38.207106781186596 -254.82527578118672 2.255719012072879
  endloop
endfacet
facet normal 2.677183369507485e-17 2.4999702859467223e-17 1.0
  outer loop
    vertex -38.207106781186596 -254.82527578118672 2.255719012072879
    vertex -36.50000000000002 -258.1181690000002 2.255719012072879
    vertex -38.00000000000004 -254.9841944037846 2.255719012072879
  endloop
endfacet
facet normal 2.677183369507485e-17 2.4999702859467223e-17 1.0
  outer loop
    vertex -38.00000000000004 -254.9841944037846 2.255719012072879
    vertex -36.50000000000002 -258.1181690000002 2.255719012072879
    vertex -37.75881904510257 -255.08409482628926 2.255719012072879
  endloop
endfacet
facet normal 2.677183369507485e-17 2.4999702859467223e-17 1.0
  outer loop
    vertex -37.75881904510257 -255.08409482628926 2.255719012072879
    vertex -36.50000000000002 -258.1181690000002 2.255719012072879
    vertex -37.50000000000004 -255.11816900000017 2.255719012072879
  endloop
endfacet
facet normal 2.677183369507485e-17 2.4999702859467223e-17 1.0
  outer loop
    vertex -37.50000000000004 -255.11816900000017 2.255719012072879
    vertex -36.50000000000002 -258.1181690000002 2.255719012072879
    vertex -37.24118095489752 -255.08409482628926 2.255719012072879
  endloop
endfacet
facet normal 2.677183369507485e-17 2.4999702859467223e-17 1.0
  outer loop
    vertex -37.24118095489752 -255.08409482628926 2.255719012072879
    vertex -36.50000000000002 -258.1181690000002 2.255719012072879
    vertex -37.00000000000004 -254.9841944037846 2.255719012072879
  endloop
endfacet
facet normal 2.677183369507485e-17 2.4999702859467223e-17 1.0
  outer loop
    vertex -37.00000000000004 -254.9841944037846 2.255719012072879
    vertex -36.50000000000002 -258.1181690000002 2.255719012072879
    vertex -36.7928932188135 -254.82527578118672 2.255719012072879
  endloop
endfacet
facet normal 2.677183369507485e-17 2.4999702859467223e-17 1.0
  outer loop
    vertex -36.7928932188135 -254.82527578118672 2.255719012072879
    vertex -36.50000000000002 -258.1181690000002 2.255719012072879
    vertex -36.63397459621561 -254.6181690000002 2.255719012072879
  endloop
endfacet
facet normal 2.677183369507485e-17 2.4999702859467223e-17 1.0
  outer loop
    vertex -36.63397459621561 -254.6181690000002 2.255719012072879
    vertex -36.50000000000002 -258.1181690000002 2.255719012072879
    vertex -36.53407417371097 -254.3769880451027 2.255719012072879
  endloop
endfacet
facet normal 2.677183369507485e-17 2.4999702859467223e-17 1.0
  outer loop
    vertex -36.53407417371097 -254.3769880451027 2.255719012072879
    vertex -36.50000000000002 -258.1181690000002 2.255719012072879
    vertex -36.50000000000004 -254.1181690000002 2.255719012072879
  endloop
endfacet
facet normal 2.677183369507485e-17 2.4999702859467223e-17 1.0
  outer loop
    vertex -41.000000000000036 -254.1181690000002 2.255719012072879
    vertex -40.500000000000036 -249.1181690000002 2.255719012072879
    vertex -42.500000000000036 -251.1181690000002 2.255719012072879
  endloop
endfacet
facet normal 2.677183369507485e-17 2.4999702859467223e-17 1.0
  outer loop
    vertex -40.500000000000036 -249.1181690000002 2.255719012072879
    vertex -41.000000000000036 -254.1181690000002 2.255719012072879
    vertex -40.96592582628911 -253.85934995489765 2.255719012072879
  endloop
endfacet
facet normal 2.677183369507485e-17 2.4999702859467223e-17 1.0
  outer loop
    vertex -40.500000000000036 -249.1181690000002 2.255719012072879
    vertex -40.96592582628911 -253.85934995489765 2.255719012072879
    vertex -40.86602540378448 -253.61816900000017 2.255719012072879
  endloop
endfacet
facet normal 2.677183369507485e-17 2.4999702859467223e-17 1.0
  outer loop
    vertex -40.500000000000036 -249.1181690000002 2.255719012072879
    vertex -40.86602540378448 -253.61816900000017 2.255719012072879
    vertex -40.70710678118659 -253.41106221881364 2.255719012072879
  endloop
endfacet
facet normal 2.677183369507485e-17 2.4999702859467223e-17 1.0
  outer loop
    vertex -40.500000000000036 -249.1181690000002 2.255719012072879
    vertex -40.70710678118659 -253.41106221881364 2.255719012072879
    vertex -40.500000000000036 -253.25214359621575 2.255719012072879
  endloop
endfacet
facet normal 2.677183369507485e-17 2.4999702859467223e-17 1.0
  outer loop
    vertex -40.500000000000036 -249.1181690000002 2.255719012072879
    vertex -40.500000000000036 -253.25214359621575 2.255719012072879
    vertex -40.25881904510256 -253.1522431737111 2.255719012072879
  endloop
endfacet
facet normal 2.677183369507485e-17 2.4999702859467223e-17 1.0
  outer loop
    vertex -40.500000000000036 -249.1181690000002 2.255719012072879
    vertex -40.25881904510256 -253.1522431737111 2.255719012072879
    vertex -39.50000000000003 -249.1181690000002 2.255719012072879
  endloop
endfacet
facet normal 2.677183369507485e-17 2.4999702859467223e-17 1.0
  outer loop
    vertex -39.50000000000003 -249.1181690000002 2.255719012072879
    vertex -40.25881904510256 -253.1522431737111 2.255719012072879
    vertex -40.00000000000004 -253.1181690000002 2.255719012072879
  endloop
endfacet
facet normal 2.677183369507485e-17 2.4999702859467223e-17 1.0
  outer loop
    vertex -39.50000000000003 -249.1181690000002 2.255719012072879
    vertex -40.00000000000004 -253.1181690000002 2.255719012072879
    vertex -39.741180954897516 -253.1522431737111 2.255719012072879
  endloop
endfacet
facet normal 2.677183369507485e-17 2.4999702859467223e-17 1.0
  outer loop
    vertex -39.50000000000003 -249.1181690000002 2.255719012072879
    vertex -39.741180954897516 -253.1522431737111 2.255719012072879
    vertex -39.50000000000004 -253.25214359621575 2.255719012072879
  endloop
endfacet
facet normal 2.677183369507485e-17 2.4999702859467223e-17 1.0
  outer loop
    vertex -39.50000000000003 -249.1181690000002 2.255719012072879
    vertex -39.50000000000004 -253.25214359621575 2.255719012072879
    vertex -39.29289321881349 -253.41106221881364 2.255719012072879
  endloop
endfacet
facet normal 2.677183369507485e-17 2.4999702859467223e-17 1.0
  outer loop
    vertex -39.50000000000003 -249.1181690000002 2.255719012072879
    vertex -39.29289321881349 -253.41106221881364 2.255719012072879
    vertex -38.50000000000003 -250.1181690000002 2.255719012072879
  endloop
endfacet
facet normal 2.677183369507485e-17 2.4999702859467223e-17 1.0
  outer loop
    vertex -38.50000000000003 -250.1181690000002 2.255719012072879
    vertex -39.29289321881349 -253.41106221881364 2.255719012072879
    vertex -39.13397459621561 -253.61816900000017 2.255719012072879
  endloop
endfacet
facet normal 2.677183369507485e-17 2.4999702859467223e-17 1.0
  outer loop
    vertex -38.50000000000003 -250.1181690000002 2.255719012072879
    vertex -39.13397459621561 -253.61816900000017 2.255719012072879
    vertex -39.03407417371097 -253.85934995489765 2.255719012072879
  endloop
endfacet
facet normal 2.677183369507485e-17 2.4999702859467223e-17 1.0
  outer loop
    vertex -38.50000000000003 -250.1181690000002 2.255719012072879
    vertex -39.03407417371097 -253.85934995489765 2.255719012072879
    vertex -39.00000000000004 -254.1181690000002 2.255719012072879
  endloop
endfacet
facet normal 2.677183369507485e-17 2.4999702859467223e-17 1.0
  outer loop
    vertex -38.50000000000003 -250.1181690000002 2.255719012072879
    vertex -39.00000000000004 -254.1181690000002 2.255719012072879
    vertex -38.50000000000004 -254.1181690000002 2.255719012072879
  endloop
endfacet
facet normal 2.677183369507485e-17 2.4999702859467223e-17 1.0
  outer loop
    vertex -38.50000000000003 -250.1181690000002 2.255719012072879
    vertex -38.50000000000004 -254.1181690000002 2.255719012072879
    vertex -38.465925826289116 -253.85934995489765 2.255719012072879
  endloop
endfacet
facet normal 2.677183369507485e-17 2.4999702859467223e-17 1.0
  outer loop
    vertex -38.50000000000003 -250.1181690000002 2.255719012072879
    vertex -38.465925826289116 -253.85934995489765 2.255719012072879
    vertex -38.36602540378448 -253.61816900000017 2.255719012072879
  endloop
endfacet
facet normal 2.677183369507485e-17 2.4999702859467223e-17 1.0
  outer loop
    vertex -38.50000000000003 -250.1181690000002 2.255719012072879
    vertex -38.36602540378448 -253.61816900000017 2.255719012072879
    vertex -36.50000000000002 -250.1181690000002 2.255719012072879
  endloop
endfacet
facet normal 2.677183369507485e-17 2.4999702859467223e-17 1.0
  outer loop
    vertex -36.50000000000002 -250.1181690000002 2.255719012072879
    vertex -38.36602540378448 -253.61816900000017 2.255719012072879
    vertex -38.207106781186596 -253.41106221881364 2.255719012072879
  endloop
endfacet
facet normal 2.677183369507485e-17 2.4999702859467223e-17 1.0
  outer loop
    vertex -36.50000000000002 -250.1181690000002 2.255719012072879
    vertex -38.207106781186596 -253.41106221881364 2.255719012072879
    vertex -38.00000000000004 -253.25214359621575 2.255719012072879
  endloop
endfacet
facet normal 2.677183369507485e-17 2.4999702859467223e-17 1.0
  outer loop
    vertex -36.50000000000002 -250.1181690000002 2.255719012072879
    vertex -38.00000000000004 -253.25214359621575 2.255719012072879
    vertex -37.75881904510257 -253.1522431737111 2.255719012072879
  endloop
endfacet
facet normal 2.677183369507485e-17 2.4999702859467223e-17 1.0
  outer loop
    vertex -36.50000000000002 -250.1181690000002 2.255719012072879
    vertex -37.75881904510257 -253.1522431737111 2.255719012072879
    vertex -37.50000000000004 -253.1181690000002 2.255719012072879
  endloop
endfacet
facet normal 2.677183369507485e-17 2.4999702859467223e-17 1.0
  outer loop
    vertex -36.50000000000002 -250.1181690000002 2.255719012072879
    vertex -37.50000000000004 -253.1181690000002 2.255719012072879
    vertex -37.24118095489752 -253.1522431737111 2.255719012072879
  endloop
endfacet
facet normal 2.677183369507485e-17 2.4999702859467223e-17 1.0
  outer loop
    vertex -36.50000000000002 -250.1181690000002 2.255719012072879
    vertex -37.24118095489752 -253.1522431737111 2.255719012072879
    vertex -37.00000000000004 -253.25214359621575 2.255719012072879
  endloop
endfacet
facet normal 2.677183369507485e-17 2.4999702859467223e-17 1.0
  outer loop
    vertex -36.50000000000002 -250.1181690000002 2.255719012072879
    vertex -37.00000000000004 -253.25214359621575 2.255719012072879
    vertex -36.7928932188135 -253.41106221881364 2.255719012072879
  endloop
endfacet
facet normal 2.677183369507485e-17 2.4999702859467223e-17 1.0
  outer loop
    vertex -36.50000000000002 -250.1181690000002 2.255719012072879
    vertex -36.7928932188135 -253.41106221881364 2.255719012072879
    vertex -36.63397459621561 -253.61816900000017 2.255719012072879
  endloop
endfacet
facet normal 2.677183369507485e-17 2.4999702859467223e-17 1.0
  outer loop
    vertex -36.50000000000002 -250.1181690000002 2.255719012072879
    vertex -36.63397459621561 -253.61816900000017 2.255719012072879
    vertex -36.53407417371097 -253.85934995489765 2.255719012072879
  endloop
endfacet
facet normal 2.677183369507485e-17 2.4999702859467223e-17 1.0
  outer loop
    vertex -36.50000000000002 -250.1181690000002 2.255719012072879
    vertex -36.53407417371097 -253.85934995489765 2.255719012072879
    vertex -36.50000000000004 -254.1181690000002 2.255719012072879
  endloop
endfacet
facet normal 2.677183369507485e-17 2.4999702859467223e-17 1.0
  outer loop
    vertex -36.50000000000002 -250.1181690000002 2.255719012072879
    vertex -36.50000000000004 -254.1181690000002 2.255719012072879
    vertex -36.50000000000002 -258.1181690000002 2.255719012072879
  endloop
endfacet
facet normal 2.677183369507485e-17 2.4999702859467223e-17 1.0
  outer loop
    vertex -36.50000000000002 -250.1181690000002 2.255719012072879
    vertex -36.50000000000002 -258.1181690000002 2.255719012072879
    vertex -35.50000000000003 -259.1181690000002 2.255719012072879
  endloop
endfacet
facet normal 2.677183369507485e-17 2.4999702859467223e-17 1.0
  outer loop
    vertex -36.50000000000002 -250.1181690000002 2.255719012072879
    vertex -35.50000000000003 -259.1181690000002 2.255719012072879
    vertex -35.50000000000003 -249.1181690000002 2.255719012072879
  endloop
endfacet
facet normal 2.677183369507485e-17 2.4999702859467223e-17 1.0
  outer loop
    vertex -35.50000000000003 -249.1181690000002 2.255719012072879
    vertex -35.50000000000003 -259.1181690000002 2.255719012072879
    vertex -32.49999999999997 -259.1181690000002 2.255719012072879
  endloop
endfacet
facet normal 2.677183369507485e-17 2.4999702859467223e-17 1.0
  outer loop
    vertex -35.50000000000003 -249.1181690000002 2.255719012072879
    vertex -32.49999999999997 -259.1181690000002 2.255719012072879
    vertex -32.49999999999997 -249.1181690000002 2.255719012072879
  endloop
endfacet
facet normal -0.707106781186546 0.707106781186549 -6.137778049931127e-15
  outer loop
    vertex -42.500000000000036 -251.1181690000002 2.255719012072879
    vertex -41.235177720138594 -249.85334672013877 0.28536357179566657
    vertex -42.500000000000036 -251.1181690000002 0.28536357179566657
  endloop
endfacet
facet normal -0.707106781186546 0.707106781186549 -6.137778049931127e-15
  outer loop
    vertex -41.235177720138594 -249.85334672013877 0.28536357179566657
    vertex -42.500000000000036 -251.1181690000002 2.255719012072879
    vertex -40.500000000000036 -249.1181690000002 1.7557190120728774
  endloop
endfacet
facet normal -0.707106781186546 0.707106781186549 -6.137778049931127e-15
  outer loop
    vertex -40.500000000000036 -249.1181690000002 1.7557190120728774
    vertex -42.500000000000036 -251.1181690000002 2.255719012072879
    vertex -40.500000000000036 -249.1181690000002 2.255719012072879
  endloop
endfacet
facet normal 0.0 1.0 0.0
  outer loop
    vertex -38.50000000000003 -250.1181690000002 2.255719012072879
    vertex -36.50000000000002 -250.1181690000002 0.28536357179566796
    vertex -38.50000000000003 -250.1181690000002 0.28536357179566796
  endloop
endfacet
facet normal 0.0 1.0 0.0
  outer loop
    vertex -36.50000000000002 -250.1181690000002 0.28536357179566796
    vertex -38.50000000000003 -250.1181690000002 2.255719012072879
    vertex -36.50000000000002 -250.1181690000002 2.255719012072879
  endloop
endfacet
facet normal 0.7071067811865499 0.7071067811865451 5.874897222065324e-15
  outer loop
    vertex -38.764822279861434 -249.85334672013877 0.28536357179566724
    vertex -38.50000000000003 -250.1181690000002 2.255719012072879
    vertex -38.50000000000003 -250.1181690000002 0.28536357179566796
  endloop
endfacet
facet normal 0.7071067811865499 0.7071067811865451 5.874897222065324e-15
  outer loop
    vertex -38.50000000000003 -250.1181690000002 2.255719012072879
    vertex -38.764822279861434 -249.85334672013877 0.28536357179566724
    vertex -39.50000000000003 -249.1181690000002 2.255719012072879
  endloop
endfacet
facet normal 0.7071067811865499 0.7071067811865451 5.874897222065324e-15
  outer loop
    vertex -39.50000000000003 -249.1181690000002 2.255719012072879
    vertex -38.764822279861434 -249.85334672013877 0.28536357179566724
    vertex -39.50000000000003 -249.1181690000002 1.7557190120728787
  endloop
endfacet
facet normal 0.0 -0.8944271909999265 -0.4472135954999367
  outer loop
    vertex -32.49999999999997 -259.1181690000002 1.7557190120728787
    vertex -36.235177720138594 -258.3829912798616 0.2853635717956678
    vertex -32.49999999999997 -258.3829912798616 0.2853635717956678
  endloop
endfacet
facet normal 0.0 -0.8944271909999265 -0.4472135954999367
  outer loop
    vertex -36.235177720138594 -258.3829912798616 0.2853635717956678
    vertex -32.49999999999997 -259.1181690000002 1.7557190120728787
    vertex -35.50000000000003 -259.1181690000002 1.7557190120728787
  endloop
endfacet
facet normal -0.7071067811865498 -0.7071067811865454 5.7933014273144345e-15
  outer loop
    vertex -36.50000000000002 -258.1181690000002 2.255719012072879
    vertex -35.50000000000003 -259.1181690000002 1.7557190120728787
    vertex -35.50000000000003 -259.1181690000002 2.255719012072879
  endloop
endfacet
facet normal -0.7071067811865498 -0.7071067811865454 5.7933014273144345e-15
  outer loop
    vertex -35.50000000000003 -259.1181690000002 1.7557190120728787
    vertex -36.50000000000002 -258.1181690000002 2.255719012072879
    vertex -36.235177720138594 -258.3829912798616 0.2853635717956678
  endloop
endfacet
facet normal -0.7071067811865498 -0.7071067811865454 5.7933014273144345e-15
  outer loop
    vertex -36.235177720138594 -258.3829912798616 0.2853635717956678
    vertex -36.50000000000002 -258.1181690000002 2.255719012072879
    vertex -36.50000000000002 -258.1181690000002 0.28536357179566796
  endloop
endfacet
facet normal 0.0 1.0 0.0
  outer loop
    vertex -35.50000000000003 -249.1181690000002 2.255719012072879
    vertex -32.49999999999997 -249.1181690000002 1.7557190120728787
    vertex -35.50000000000003 -249.1181690000002 1.7557190120728787
  endloop
endfacet
facet normal 0.0 1.0 0.0
  outer loop
    vertex -32.49999999999997 -249.1181690000002 1.7557190120728787
    vertex -35.50000000000003 -249.1181690000002 2.255719012072879
    vertex -32.49999999999997 -249.1181690000002 2.255719012072879
  endloop
endfacet
facet normal 0.0 -1.0 0.0
  outer loop
    vertex -39.50000000000003 -259.1181690000002 2.255719012072879
    vertex -40.500000000000036 -259.1181690000002 1.7557190120728803
    vertex -39.50000000000003 -259.1181690000002 1.7557190120728787
  endloop
endfacet
facet normal 0.0 -1.0 0.0
  outer loop
    vertex -40.500000000000036 -259.1181690000002 1.7557190120728803
    vertex -39.50000000000003 -259.1181690000002 2.255719012072879
    vertex -40.500000000000036 -259.1181690000002 2.255719012072881
  endloop
endfacet
facet normal -0.7071067811865429 -0.7071067811865521 -2.49470978803649e-14
  outer loop
    vertex -41.235177720138516 -258.3829912798616 0.2853635717956678
    vertex -42.500000000000036 -257.1181690000002 2.255719012072879
    vertex -42.50000000000002 -257.1181690000002 0.28536357179566657
  endloop
endfacet
facet normal -0.7071067811865429 -0.7071067811865521 -2.49470978803649e-14
  outer loop
    vertex -42.500000000000036 -257.1181690000002 2.255719012072879
    vertex -41.235177720138516 -258.3829912798616 0.2853635717956678
    vertex -40.500000000000036 -259.1181690000002 1.7557190120728803
  endloop
endfacet
facet normal -0.7071067811865429 -0.7071067811865521 -2.49470978803649e-14
  outer loop
    vertex -42.500000000000036 -257.1181690000002 2.255719012072879
    vertex -40.500000000000036 -259.1181690000002 1.7557190120728803
    vertex -40.500000000000036 -259.1181690000002 2.255719012072881
  endloop
endfacet
facet normal 1.0 0.0 0.0
  outer loop
    vertex -32.49999999999997 -258.3829912798616 0.2853635717956678
    vertex -32.49999999999997 -259.1181690000002 2.255719012072879
    vertex -32.49999999999997 -259.1181690000002 1.7557190120728787
  endloop
endfacet
facet normal 1.0 0.0 0.0
  outer loop
    vertex -32.49999999999997 -259.1181690000002 2.255719012072879
    vertex -32.49999999999997 -258.3829912798616 0.2853635717956678
    vertex -32.49999999999997 -249.1181690000002 2.255719012072879
  endloop
endfacet
facet normal 1.0 0.0 0.0
  outer loop
    vertex -32.49999999999997 -249.1181690000002 2.255719012072879
    vertex -32.49999999999997 -258.3829912798616 0.2853635717956678
    vertex -32.49999999999997 -249.85334672013877 0.28536357179566796
  endloop
endfacet
facet normal 1.0 0.0 0.0
  outer loop
    vertex -32.49999999999997 -249.1181690000002 2.255719012072879
    vertex -32.49999999999997 -249.85334672013877 0.28536357179566796
    vertex -32.49999999999997 -249.1181690000002 1.7557190120728787
  endloop
endfacet
facet normal 0.0 1.0 0.0
  outer loop
    vertex -40.500000000000036 -249.1181690000002 2.255719012072879
    vertex -39.50000000000003 -249.1181690000002 1.7557190120728787
    vertex -40.500000000000036 -249.1181690000002 1.7557190120728774
  endloop
endfacet
facet normal 0.0 1.0 0.0
  outer loop
    vertex -39.50000000000003 -249.1181690000002 1.7557190120728787
    vertex -40.500000000000036 -249.1181690000002 2.255719012072879
    vertex -39.50000000000003 -249.1181690000002 2.255719012072879
  endloop
endfacet
facet normal 0.0 -1.0 0.0
  outer loop
    vertex -36.50000000000002 -258.1181690000002 2.255719012072879
    vertex -38.50000000000003 -258.1181690000002 0.28536357179566796
    vertex -36.50000000000002 -258.1181690000002 0.28536357179566796
  endloop
endfacet
facet normal 0.0 -1.0 0.0
  outer loop
    vertex -38.50000000000003 -258.1181690000002 0.28536357179566796
    vertex -36.50000000000002 -258.1181690000002 2.255719012072879
    vertex -38.50000000000003 -258.1181690000002 2.255719012072879
  endloop
endfacet
facet normal 0.7071067811865498 -0.7071067811865452 5.820500025564737e-15
  outer loop
    vertex -38.764822279861455 -258.3829912798616 0.2853635717956678
    vertex -39.50000000000003 -259.1181690000002 2.255719012072879
    vertex -39.50000000000003 -259.1181690000002 1.7557190120728787
  endloop
endfacet
facet normal 0.7071067811865498 -0.7071067811865452 5.820500025564737e-15
  outer loop
    vertex -39.50000000000003 -259.1181690000002 2.255719012072879
    vertex -38.764822279861455 -258.3829912798616 0.2853635717956678
    vertex -38.50000000000003 -258.1181690000002 2.255719012072879
  endloop
endfacet
facet normal 0.7071067811865498 -0.7071067811865452 5.820500025564737e-15
  outer loop
    vertex -38.50000000000003 -258.1181690000002 2.255719012072879
    vertex -38.764822279861455 -258.3829912798616 0.2853635717956678
    vertex -38.50000000000003 -258.1181690000002 0.28536357179566796
  endloop
endfacet
facet normal -5.635024593554092e-17 -0.8944271909999266 -0.44721359549993656
  outer loop
    vertex -39.50000000000003 -259.1181690000002 1.7557190120728787
    vertex -41.235177720138516 -258.3829912798616 0.2853635717956678
    vertex -38.764822279861455 -258.3829912798616 0.2853635717956678
  endloop
endfacet
facet normal -5.635024593554092e-17 -0.8944271909999266 -0.44721359549993656
  outer loop
    vertex -41.235177720138516 -258.3829912798616 0.2853635717956678
    vertex -39.50000000000003 -259.1181690000002 1.7557190120728787
    vertex -40.500000000000036 -259.1181690000002 1.7557190120728803
  endloop
endfacet
facet normal 5.957661718786059e-18 0.8944271909999219 -0.4472135954999461
  outer loop
    vertex -35.50000000000003 -249.1181690000002 1.7557190120728787
    vertex -32.49999999999997 -249.85334672013877 0.28536357179566796
    vertex -36.23517772013862 -249.85334672013877 0.2853635717956676
  endloop
endfacet
facet normal 5.957661718786059e-18 0.8944271909999219 -0.4472135954999461
  outer loop
    vertex -32.49999999999997 -249.85334672013877 0.28536357179566796
    vertex -35.50000000000003 -249.1181690000002 1.7557190120728787
    vertex -32.49999999999997 -249.1181690000002 1.7557190120728787
  endloop
endfacet
facet normal 1.220386684195119e-16 -3.303885870044284e-17 -1.0
  outer loop
    vertex -38.50000000000003 -250.1181690000002 0.28536357179566796
    vertex -38.50000000000004 -254.1181690000002 0.28536357179566796
    vertex -38.764822279861434 -249.85334672013877 0.28536357179566724
  endloop
endfacet
facet normal 1.220386684195119e-16 -3.303885870044284e-17 -1.0
  outer loop
    vertex -38.50000000000004 -254.1181690000002 0.28536357179566796
    vertex -38.50000000000003 -250.1181690000002 0.28536357179566796
    vertex -38.465925826289116 -253.85934995489765 0.28536357179566796
  endloop
endfacet
facet normal 1.220386684195119e-16 -3.303885870044284e-17 -1.0
  outer loop
    vertex -38.465925826289116 -253.85934995489765 0.28536357179566796
    vertex -38.50000000000003 -250.1181690000002 0.28536357179566796
    vertex -38.36602540378448 -253.61816900000017 0.28536357179566796
  endloop
endfacet
facet normal 1.220386684195119e-16 -3.303885870044284e-17 -1.0
  outer loop
    vertex -38.36602540378448 -253.61816900000017 0.28536357179566796
    vertex -38.50000000000003 -250.1181690000002 0.28536357179566796
    vertex -36.50000000000002 -250.1181690000002 0.28536357179566796
  endloop
endfacet
facet normal 1.220386684195119e-16 -3.303885870044284e-17 -1.0
  outer loop
    vertex -38.36602540378448 -253.61816900000017 0.28536357179566796
    vertex -36.50000000000002 -250.1181690000002 0.28536357179566796
    vertex -38.207106781186596 -253.41106221881364 0.28536357179566796
  endloop
endfacet
facet normal 1.220386684195119e-16 -3.303885870044284e-17 -1.0
  outer loop
    vertex -38.207106781186596 -253.41106221881364 0.28536357179566796
    vertex -36.50000000000002 -250.1181690000002 0.28536357179566796
    vertex -38.00000000000004 -253.25214359621575 0.28536357179566796
  endloop
endfacet
facet normal 1.220386684195119e-16 -3.303885870044284e-17 -1.0
  outer loop
    vertex -38.00000000000004 -253.25214359621575 0.28536357179566796
    vertex -36.50000000000002 -250.1181690000002 0.28536357179566796
    vertex -37.75881904510257 -253.1522431737111 0.28536357179566796
  endloop
endfacet
facet normal 1.220386684195119e-16 -3.303885870044284e-17 -1.0
  outer loop
    vertex -37.75881904510257 -253.1522431737111 0.28536357179566796
    vertex -36.50000000000002 -250.1181690000002 0.28536357179566796
    vertex -37.50000000000004 -253.1181690000002 0.28536357179566796
  endloop
endfacet
facet normal 1.220386684195119e-16 -3.303885870044284e-17 -1.0
  outer loop
    vertex -37.50000000000004 -253.1181690000002 0.28536357179566796
    vertex -36.50000000000002 -250.1181690000002 0.28536357179566796
    vertex -37.24118095489752 -253.1522431737111 0.28536357179566796
  endloop
endfacet
facet normal 1.220386684195119e-16 -3.303885870044284e-17 -1.0
  outer loop
    vertex -37.24118095489752 -253.1522431737111 0.28536357179566796
    vertex -36.50000000000002 -250.1181690000002 0.28536357179566796
    vertex -37.00000000000004 -253.25214359621575 0.28536357179566796
  endloop
endfacet
facet normal 1.220386684195119e-16 -3.303885870044284e-17 -1.0
  outer loop
    vertex -37.00000000000004 -253.25214359621575 0.28536357179566796
    vertex -36.50000000000002 -250.1181690000002 0.28536357179566796
    vertex -36.7928932188135 -253.41106221881364 0.28536357179566796
  endloop
endfacet
facet normal 1.220386684195119e-16 -3.303885870044284e-17 -1.0
  outer loop
    vertex -36.7928932188135 -253.41106221881364 0.28536357179566796
    vertex -36.50000000000002 -250.1181690000002 0.28536357179566796
    vertex -36.63397459621561 -253.61816900000017 0.28536357179566796
  endloop
endfacet
facet normal 1.220386684195119e-16 -3.303885870044284e-17 -1.0
  outer loop
    vertex -36.63397459621561 -253.61816900000017 0.28536357179566796
    vertex -36.50000000000002 -250.1181690000002 0.28536357179566796
    vertex -36.53407417371097 -253.85934995489765 0.28536357179566796
  endloop
endfacet
facet normal 1.220386684195119e-16 -3.303885870044284e-17 -1.0
  outer loop
    vertex -36.53407417371097 -253.85934995489765 0.28536357179566796
    vertex -36.50000000000002 -250.1181690000002 0.28536357179566796
    vertex -36.50000000000004 -254.1181690000002 0.28536357179566796
  endloop
endfacet
facet normal 1.220386684195119e-16 -3.303885870044284e-17 -1.0
  outer loop
    vertex -41.235177720138594 -249.85334672013877 0.28536357179566657
    vertex -42.50000000000002 -257.1181690000002 0.28536357179566657
    vertex -42.500000000000036 -251.1181690000002 0.28536357179566657
  endloop
endfacet
facet normal 1.220386684195119e-16 -3.303885870044284e-17 -1.0
  outer loop
    vertex -42.50000000000002 -257.1181690000002 0.28536357179566657
    vertex -41.235177720138594 -249.85334672013877 0.28536357179566657
    vertex -41.235177720138516 -258.3829912798616 0.2853635717956678
  endloop
endfacet
facet normal 1.220386684195119e-16 -3.303885870044284e-17 -1.0
  outer loop
    vertex -41.235177720138516 -258.3829912798616 0.2853635717956678
    vertex -41.235177720138594 -249.85334672013877 0.28536357179566657
    vertex -41.000000000000036 -254.1181690000002 0.28536357179566796
  endloop
endfacet
facet normal 1.220386684195119e-16 -3.303885870044284e-17 -1.0
  outer loop
    vertex -41.000000000000036 -254.1181690000002 0.28536357179566796
    vertex -41.235177720138594 -249.85334672013877 0.28536357179566657
    vertex -40.96592582628911 -253.85934995489765 0.28536357179566796
  endloop
endfacet
facet normal 1.220386684195119e-16 -3.303885870044284e-17 -1.0
  outer loop
    vertex -40.96592582628911 -253.85934995489765 0.28536357179566796
    vertex -41.235177720138594 -249.85334672013877 0.28536357179566657
    vertex -40.86602540378448 -253.61816900000017 0.28536357179566796
  endloop
endfacet
facet normal 1.220386684195119e-16 -3.303885870044284e-17 -1.0
  outer loop
    vertex -40.86602540378448 -253.61816900000017 0.28536357179566796
    vertex -41.235177720138594 -249.85334672013877 0.28536357179566657
    vertex -38.764822279861434 -249.85334672013877 0.28536357179566724
  endloop
endfacet
facet normal 1.220386684195119e-16 -3.303885870044284e-17 -1.0
  outer loop
    vertex -40.86602540378448 -253.61816900000017 0.28536357179566796
    vertex -38.764822279861434 -249.85334672013877 0.28536357179566724
    vertex -40.70710678118659 -253.41106221881364 0.28536357179566796
  endloop
endfacet
facet normal 1.220386684195119e-16 -3.303885870044284e-17 -1.0
  outer loop
    vertex -40.70710678118659 -253.41106221881364 0.28536357179566796
    vertex -38.764822279861434 -249.85334672013877 0.28536357179566724
    vertex -40.500000000000036 -253.25214359621575 0.28536357179566796
  endloop
endfacet
facet normal 1.220386684195119e-16 -3.303885870044284e-17 -1.0
  outer loop
    vertex -40.500000000000036 -253.25214359621575 0.28536357179566796
    vertex -38.764822279861434 -249.85334672013877 0.28536357179566724
    vertex -40.25881904510256 -253.1522431737111 0.28536357179566796
  endloop
endfacet
facet normal 1.220386684195119e-16 -3.303885870044284e-17 -1.0
  outer loop
    vertex -40.25881904510256 -253.1522431737111 0.28536357179566796
    vertex -38.764822279861434 -249.85334672013877 0.28536357179566724
    vertex -40.00000000000004 -253.1181690000002 0.28536357179566796
  endloop
endfacet
facet normal 1.220386684195119e-16 -3.303885870044284e-17 -1.0
  outer loop
    vertex -40.00000000000004 -253.1181690000002 0.28536357179566796
    vertex -38.764822279861434 -249.85334672013877 0.28536357179566724
    vertex -39.741180954897516 -253.1522431737111 0.28536357179566796
  endloop
endfacet
facet normal 1.220386684195119e-16 -3.303885870044284e-17 -1.0
  outer loop
    vertex -39.741180954897516 -253.1522431737111 0.28536357179566796
    vertex -38.764822279861434 -249.85334672013877 0.28536357179566724
    vertex -39.50000000000004 -253.25214359621575 0.28536357179566796
  endloop
endfacet
facet normal 1.220386684195119e-16 -3.303885870044284e-17 -1.0
  outer loop
    vertex -39.50000000000004 -253.25214359621575 0.28536357179566796
    vertex -38.764822279861434 -249.85334672013877 0.28536357179566724
    vertex -39.29289321881349 -253.41106221881364 0.28536357179566796
  endloop
endfacet
facet normal 1.220386684195119e-16 -3.303885870044284e-17 -1.0
  outer loop
    vertex -39.29289321881349 -253.41106221881364 0.28536357179566796
    vertex -38.764822279861434 -249.85334672013877 0.28536357179566724
    vertex -39.13397459621561 -253.61816900000017 0.28536357179566796
  endloop
endfacet
facet normal 1.220386684195119e-16 -3.303885870044284e-17 -1.0
  outer loop
    vertex -39.13397459621561 -253.61816900000017 0.28536357179566796
    vertex -38.764822279861434 -249.85334672013877 0.28536357179566724
    vertex -39.03407417371097 -253.85934995489765 0.28536357179566796
  endloop
endfacet
facet normal 1.220386684195119e-16 -3.303885870044284e-17 -1.0
  outer loop
    vertex -39.03407417371097 -253.85934995489765 0.28536357179566796
    vertex -38.764822279861434 -249.85334672013877 0.28536357179566724
    vertex -39.00000000000004 -254.1181690000002 0.28536357179566796
  endloop
endfacet
facet normal 1.220386684195119e-16 -3.303885870044284e-17 -1.0
  outer loop
    vertex -39.00000000000004 -254.1181690000002 0.28536357179566796
    vertex -38.764822279861434 -249.85334672013877 0.28536357179566724
    vertex -38.764822279861455 -258.3829912798616 0.2853635717956678
  endloop
endfacet
facet normal 1.220386684195119e-16 -3.303885870044284e-17 -1.0
  outer loop
    vertex -38.764822279861455 -258.3829912798616 0.2853635717956678
    vertex -38.764822279861434 -249.85334672013877 0.28536357179566724
    vertex -38.50000000000003 -258.1181690000002 0.28536357179566796
  endloop
endfacet
facet normal 1.220386684195119e-16 -3.303885870044284e-17 -1.0
  outer loop
    vertex -38.50000000000003 -258.1181690000002 0.28536357179566796
    vertex -38.764822279861434 -249.85334672013877 0.28536357179566724
    vertex -38.50000000000004 -254.1181690000002 0.28536357179566796
  endloop
endfacet
facet normal 1.220386684195119e-16 -3.303885870044284e-17 -1.0
  outer loop
    vertex -38.50000000000003 -258.1181690000002 0.28536357179566796
    vertex -38.50000000000004 -254.1181690000002 0.28536357179566796
    vertex -38.4659258262891 -254.3769880451027 0.28536357179566796
  endloop
endfacet
facet normal 1.220386684195119e-16 -3.303885870044284e-17 -1.0
  outer loop
    vertex -38.50000000000003 -258.1181690000002 0.28536357179566796
    vertex -38.4659258262891 -254.3769880451027 0.28536357179566796
    vertex -38.36602540378448 -254.6181690000002 0.28536357179566796
  endloop
endfacet
facet normal 1.220386684195119e-16 -3.303885870044284e-17 -1.0
  outer loop
    vertex -38.50000000000003 -258.1181690000002 0.28536357179566796
    vertex -38.36602540378448 -254.6181690000002 0.28536357179566796
    vertex -36.50000000000002 -258.1181690000002 0.28536357179566796
  endloop
endfacet
facet normal 1.220386684195119e-16 -3.303885870044284e-17 -1.0
  outer loop
    vertex -36.50000000000002 -258.1181690000002 0.28536357179566796
    vertex -38.36602540378448 -254.6181690000002 0.28536357179566796
    vertex -38.207106781186596 -254.82527578118672 0.28536357179566796
  endloop
endfacet
facet normal 1.220386684195119e-16 -3.303885870044284e-17 -1.0
  outer loop
    vertex -36.50000000000002 -258.1181690000002 0.28536357179566796
    vertex -38.207106781186596 -254.82527578118672 0.28536357179566796
    vertex -38.00000000000004 -254.9841944037846 0.28536357179566796
  endloop
endfacet
facet normal 1.220386684195119e-16 -3.303885870044284e-17 -1.0
  outer loop
    vertex -36.50000000000002 -258.1181690000002 0.28536357179566796
    vertex -38.00000000000004 -254.9841944037846 0.28536357179566796
    vertex -37.75881904510257 -255.08409482628926 0.28536357179566796
  endloop
endfacet
facet normal 1.220386684195119e-16 -3.303885870044284e-17 -1.0
  outer loop
    vertex -36.50000000000002 -258.1181690000002 0.28536357179566796
    vertex -37.75881904510257 -255.08409482628926 0.28536357179566796
    vertex -37.50000000000004 -255.11816900000017 0.28536357179566796
  endloop
endfacet
facet normal 1.220386684195119e-16 -3.303885870044284e-17 -1.0
  outer loop
    vertex -36.50000000000002 -258.1181690000002 0.28536357179566796
    vertex -37.50000000000004 -255.11816900000017 0.28536357179566796
    vertex -37.24118095489752 -255.08409482628926 0.28536357179566796
  endloop
endfacet
facet normal 1.220386684195119e-16 -3.303885870044284e-17 -1.0
  outer loop
    vertex -36.50000000000002 -258.1181690000002 0.28536357179566796
    vertex -37.24118095489752 -255.08409482628926 0.28536357179566796
    vertex -37.00000000000004 -254.9841944037846 0.28536357179566796
  endloop
endfacet
facet normal 1.220386684195119e-16 -3.303885870044284e-17 -1.0
  outer loop
    vertex -36.50000000000002 -258.1181690000002 0.28536357179566796
    vertex -37.00000000000004 -254.9841944037846 0.28536357179566796
    vertex -36.7928932188135 -254.82527578118672 0.28536357179566796
  endloop
endfacet
facet normal 1.220386684195119e-16 -3.303885870044284e-17 -1.0
  outer loop
    vertex -36.50000000000002 -258.1181690000002 0.28536357179566796
    vertex -36.7928932188135 -254.82527578118672 0.28536357179566796
    vertex -36.63397459621561 -254.6181690000002 0.28536357179566796
  endloop
endfacet
facet normal 1.220386684195119e-16 -3.303885870044284e-17 -1.0
  outer loop
    vertex -36.50000000000002 -258.1181690000002 0.28536357179566796
    vertex -36.63397459621561 -254.6181690000002 0.28536357179566796
    vertex -36.53407417371097 -254.3769880451027 0.28536357179566796
  endloop
endfacet
facet normal 1.220386684195119e-16 -3.303885870044284e-17 -1.0
  outer loop
    vertex -36.50000000000002 -258.1181690000002 0.28536357179566796
    vertex -36.53407417371097 -254.3769880451027 0.28536357179566796
    vertex -36.50000000000004 -254.1181690000002 0.28536357179566796
  endloop
endfacet
facet normal 1.220386684195119e-16 -3.303885870044284e-17 -1.0
  outer loop
    vertex -36.50000000000002 -258.1181690000002 0.28536357179566796
    vertex -36.50000000000004 -254.1181690000002 0.28536357179566796
    vertex -36.50000000000002 -250.1181690000002 0.28536357179566796
  endloop
endfacet
facet normal 1.220386684195119e-16 -3.303885870044284e-17 -1.0
  outer loop
    vertex -36.50000000000002 -258.1181690000002 0.28536357179566796
    vertex -36.50000000000002 -250.1181690000002 0.28536357179566796
    vertex -36.23517772013862 -249.85334672013877 0.2853635717956676
  endloop
endfacet
facet normal 1.220386684195119e-16 -3.303885870044284e-17 -1.0
  outer loop
    vertex -36.50000000000002 -258.1181690000002 0.28536357179566796
    vertex -36.23517772013862 -249.85334672013877 0.2853635717956676
    vertex -36.235177720138594 -258.3829912798616 0.2853635717956678
  endloop
endfacet
facet normal 1.220386684195119e-16 -3.303885870044284e-17 -1.0
  outer loop
    vertex -36.235177720138594 -258.3829912798616 0.2853635717956678
    vertex -36.23517772013862 -249.85334672013877 0.2853635717956676
    vertex -32.49999999999997 -249.85334672013877 0.28536357179566796
  endloop
endfacet
facet normal 1.220386684195119e-16 -3.303885870044284e-17 -1.0
  outer loop
    vertex -36.235177720138594 -258.3829912798616 0.2853635717956678
    vertex -32.49999999999997 -249.85334672013877 0.28536357179566796
    vertex -32.49999999999997 -258.3829912798616 0.2853635717956678
  endloop
endfacet
facet normal 1.220386684195119e-16 -3.303885870044284e-17 -1.0
  outer loop
    vertex -41.235177720138516 -258.3829912798616 0.2853635717956678
    vertex -40.86602540378448 -254.6181690000002 0.28536357179566796
    vertex -38.764822279861455 -258.3829912798616 0.2853635717956678
  endloop
endfacet
facet normal 1.220386684195119e-16 -3.303885870044284e-17 -1.0
  outer loop
    vertex -40.86602540378448 -254.6181690000002 0.28536357179566796
    vertex -41.235177720138516 -258.3829912798616 0.2853635717956678
    vertex -40.9659258262891 -254.3769880451027 0.28536357179566796
  endloop
endfacet
facet normal 1.220386684195119e-16 -3.303885870044284e-17 -1.0
  outer loop
    vertex -40.9659258262891 -254.3769880451027 0.28536357179566796
    vertex -41.235177720138516 -258.3829912798616 0.2853635717956678
    vertex -41.000000000000036 -254.1181690000002 0.28536357179566796
  endloop
endfacet
facet normal 1.220386684195119e-16 -3.303885870044284e-17 -1.0
  outer loop
    vertex -38.764822279861455 -258.3829912798616 0.2853635717956678
    vertex -40.86602540378448 -254.6181690000002 0.28536357179566796
    vertex -40.70710678118659 -254.82527578118672 0.28536357179566796
  endloop
endfacet
facet normal 1.220386684195119e-16 -3.303885870044284e-17 -1.0
  outer loop
    vertex -38.764822279861455 -258.3829912798616 0.2853635717956678
    vertex -40.70710678118659 -254.82527578118672 0.28536357179566796
    vertex -40.500000000000036 -254.9841944037846 0.28536357179566796
  endloop
endfacet
facet normal 1.220386684195119e-16 -3.303885870044284e-17 -1.0
  outer loop
    vertex -38.764822279861455 -258.3829912798616 0.2853635717956678
    vertex -40.500000000000036 -254.9841944037846 0.28536357179566796
    vertex -40.25881904510256 -255.08409482628926 0.28536357179566796
  endloop
endfacet
facet normal 1.220386684195119e-16 -3.303885870044284e-17 -1.0
  outer loop
    vertex -38.764822279861455 -258.3829912798616 0.2853635717956678
    vertex -40.25881904510256 -255.08409482628926 0.28536357179566796
    vertex -40.00000000000004 -255.11816900000017 0.28536357179566796
  endloop
endfacet
facet normal 1.220386684195119e-16 -3.303885870044284e-17 -1.0
  outer loop
    vertex -38.764822279861455 -258.3829912798616 0.2853635717956678
    vertex -40.00000000000004 -255.11816900000017 0.28536357179566796
    vertex -39.741180954897516 -255.08409482628926 0.28536357179566796
  endloop
endfacet
facet normal 1.220386684195119e-16 -3.303885870044284e-17 -1.0
  outer loop
    vertex -38.764822279861455 -258.3829912798616 0.2853635717956678
    vertex -39.741180954897516 -255.08409482628926 0.28536357179566796
    vertex -39.50000000000004 -254.9841944037846 0.28536357179566796
  endloop
endfacet
facet normal 1.220386684195119e-16 -3.303885870044284e-17 -1.0
  outer loop
    vertex -38.764822279861455 -258.3829912798616 0.2853635717956678
    vertex -39.50000000000004 -254.9841944037846 0.28536357179566796
    vertex -39.29289321881349 -254.82527578118672 0.28536357179566796
  endloop
endfacet
facet normal 1.220386684195119e-16 -3.303885870044284e-17 -1.0
  outer loop
    vertex -38.764822279861455 -258.3829912798616 0.2853635717956678
    vertex -39.29289321881349 -254.82527578118672 0.28536357179566796
    vertex -39.13397459621561 -254.6181690000002 0.28536357179566796
  endloop
endfacet
facet normal 1.220386684195119e-16 -3.303885870044284e-17 -1.0
  outer loop
    vertex -38.764822279861455 -258.3829912798616 0.2853635717956678
    vertex -39.13397459621561 -254.6181690000002 0.28536357179566796
    vertex -39.03407417371097 -254.3769880451027 0.28536357179566796
  endloop
endfacet
facet normal 1.220386684195119e-16 -3.303885870044284e-17 -1.0
  outer loop
    vertex -38.764822279861455 -258.3829912798616 0.2853635717956678
    vertex -39.03407417371097 -254.3769880451027 0.28536357179566796
    vertex -39.00000000000004 -254.1181690000002 0.28536357179566796
  endloop
endfacet
facet normal -1.0 -9.399888275159675e-16 -2.862393682787661e-15
  outer loop
    vertex -42.500000000000036 -251.1181690000002 2.255719012072879
    vertex -42.50000000000002 -257.1181690000002 0.28536357179566657
    vertex -42.500000000000036 -257.1181690000002 2.255719012072879
  endloop
endfacet
facet normal -1.0 -9.399888275159675e-16 -2.862393682787661e-15
  outer loop
    vertex -42.50000000000002 -257.1181690000002 0.28536357179566657
    vertex -42.500000000000036 -251.1181690000002 2.255719012072879
    vertex -42.500000000000036 -251.1181690000002 0.28536357179566657
  endloop
endfacet
facet normal 0.991444861373814 -0.13052619222002393 0.0
  outer loop
    vertex -40.96592582628911 -253.85934995489765 0.28536357179566796
    vertex -41.000000000000036 -254.1181690000002 2.255719012072879
    vertex -41.000000000000036 -254.1181690000002 0.28536357179566796
  endloop
endfacet
facet normal 0.991444861373814 -0.13052619222002393 0.0
  outer loop
    vertex -41.000000000000036 -254.1181690000002 2.255719012072879
    vertex -40.96592582628911 -253.85934995489765 0.28536357179566796
    vertex -40.96592582628911 -253.85934995489765 2.255719012072879
  endloop
endfacet
facet normal 0.13052619221998704 -0.991444861373819 0.0
  outer loop
    vertex -40.00000000000004 -253.1181690000002 2.255719012072879
    vertex -40.25881904510256 -253.1522431737111 0.28536357179566796
    vertex -40.00000000000004 -253.1181690000002 0.28536357179566796
  endloop
endfacet
facet normal 0.13052619221998704 -0.991444861373819 0.0
  outer loop
    vertex -40.25881904510256 -253.1522431737111 0.28536357179566796
    vertex -40.00000000000004 -253.1181690000002 2.255719012072879
    vertex -40.25881904510256 -253.1522431737111 2.255719012072879
  endloop
endfacet
facet normal -0.6087614290086991 -0.7933533402912517 0.0
  outer loop
    vertex -39.29289321881349 -253.41106221881364 2.255719012072879
    vertex -39.50000000000004 -253.25214359621575 0.28536357179566796
    vertex -39.29289321881349 -253.41106221881364 0.28536357179566796
  endloop
endfacet
facet normal -0.6087614290086991 -0.7933533402912517 0.0
  outer loop
    vertex -39.50000000000004 -253.25214359621575 0.28536357179566796
    vertex -39.29289321881349 -253.41106221881364 2.255719012072879
    vertex -39.50000000000004 -253.25214359621575 2.255719012072879
  endloop
endfacet
facet normal -0.9238795325112795 0.3826834323651076 0.0
  outer loop
    vertex -39.03407417371097 -254.3769880451027 2.255719012072879
    vertex -39.13397459621561 -254.6181690000002 0.28536357179566796
    vertex -39.13397459621561 -254.6181690000002 2.255719012072879
  endloop
endfacet
facet normal -0.9238795325112795 0.3826834323651076 0.0
  outer loop
    vertex -39.13397459621561 -254.6181690000002 0.28536357179566796
    vertex -39.03407417371097 -254.3769880451027 2.255719012072879
    vertex -39.03407417371097 -254.3769880451027 0.28536357179566796
  endloop
endfacet
facet normal -0.3826834323651597 0.923879532511258 0.0
  outer loop
    vertex -39.741180954897516 -255.08409482628926 2.255719012072879
    vertex -39.50000000000004 -254.9841944037846 0.28536357179566796
    vertex -39.741180954897516 -255.08409482628926 0.28536357179566796
  endloop
endfacet
facet normal -0.3826834323651597 0.923879532511258 0.0
  outer loop
    vertex -39.50000000000004 -254.9841944037846 0.28536357179566796
    vertex -39.741180954897516 -255.08409482628926 2.255719012072879
    vertex -39.50000000000004 -254.9841944037846 2.255719012072879
  endloop
endfacet
facet normal 0.3826834323651597 -0.923879532511258 0.0
  outer loop
    vertex -40.25881904510256 -253.1522431737111 2.255719012072879
    vertex -40.500000000000036 -253.25214359621575 0.28536357179566796
    vertex -40.25881904510256 -253.1522431737111 0.28536357179566796
  endloop
endfacet
facet normal 0.3826834323651597 -0.923879532511258 0.0
  outer loop
    vertex -40.500000000000036 -253.25214359621575 0.28536357179566796
    vertex -40.25881904510256 -253.1522431737111 2.255719012072879
    vertex -40.500000000000036 -253.25214359621575 2.255719012072879
  endloop
endfacet
facet normal 0.9238795325112795 -0.3826834323651076 0.0
  outer loop
    vertex -40.86602540378448 -253.61816900000017 0.28536357179566796
    vertex -40.96592582628911 -253.85934995489765 2.255719012072879
    vertex -40.96592582628911 -253.85934995489765 0.28536357179566796
  endloop
endfacet
facet normal 0.9238795325112795 -0.3826834323651076 0.0
  outer loop
    vertex -40.96592582628911 -253.85934995489765 2.255719012072879
    vertex -40.86602540378448 -253.61816900000017 0.28536357179566796
    vertex -40.86602540378448 -253.61816900000017 2.255719012072879
  endloop
endfacet
facet normal 0.9914448613738086 0.1305261922200664 0.0
  outer loop
    vertex -41.000000000000036 -254.1181690000002 0.28536357179566796
    vertex -40.9659258262891 -254.3769880451027 2.255719012072879
    vertex -40.9659258262891 -254.3769880451027 0.28536357179566796
  endloop
endfacet
facet normal 0.9914448613738086 0.1305261922200664 0.0
  outer loop
    vertex -40.9659258262891 -254.3769880451027 2.255719012072879
    vertex -41.000000000000036 -254.1181690000002 0.28536357179566796
    vertex -41.000000000000036 -254.1181690000002 2.255719012072879
  endloop
endfacet
facet normal 0.7933533402912198 -0.6087614290087409 0.0
  outer loop
    vertex -40.70710678118659 -253.41106221881364 0.28536357179566796
    vertex -40.86602540378448 -253.61816900000017 2.255719012072879
    vertex -40.86602540378448 -253.61816900000017 0.28536357179566796
  endloop
endfacet
facet normal 0.7933533402912198 -0.6087614290087409 0.0
  outer loop
    vertex -40.86602540378448 -253.61816900000017 2.255719012072879
    vertex -40.70710678118659 -253.41106221881364 0.28536357179566796
    vertex -40.70710678118659 -253.41106221881364 2.255719012072879
  endloop
endfacet
facet normal 0.3826834323651597 0.923879532511258 0.0
  outer loop
    vertex -40.500000000000036 -254.9841944037846 2.255719012072879
    vertex -40.25881904510256 -255.08409482628926 0.28536357179566796
    vertex -40.500000000000036 -254.9841944037846 0.28536357179566796
  endloop
endfacet
facet normal 0.3826834323651597 0.923879532511258 0.0
  outer loop
    vertex -40.25881904510256 -255.08409482628926 0.28536357179566796
    vertex -40.500000000000036 -254.9841944037846 2.255719012072879
    vertex -40.25881904510256 -255.08409482628926 2.255719012072879
  endloop
endfacet
facet normal -0.9238795325112795 -0.3826834323651075 0.0
  outer loop
    vertex -39.13397459621561 -253.61816900000017 2.255719012072879
    vertex -39.03407417371097 -253.85934995489765 0.28536357179566796
    vertex -39.03407417371097 -253.85934995489765 2.255719012072879
  endloop
endfacet
facet normal -0.9238795325112795 -0.3826834323651075 0.0
  outer loop
    vertex -39.03407417371097 -253.85934995489765 0.28536357179566796
    vertex -39.13397459621561 -253.61816900000017 2.255719012072879
    vertex -39.13397459621561 -253.61816900000017 0.28536357179566796
  endloop
endfacet
facet normal -0.7933533402912198 0.6087614290087409 0.0
  outer loop
    vertex -39.13397459621561 -254.6181690000002 2.255719012072879
    vertex -39.29289321881349 -254.82527578118672 0.28536357179566796
    vertex -39.29289321881349 -254.82527578118672 2.255719012072879
  endloop
endfacet
facet normal -0.7933533402912198 0.6087614290087409 0.0
  outer loop
    vertex -39.29289321881349 -254.82527578118672 0.28536357179566796
    vertex -39.13397459621561 -254.6181690000002 2.255719012072879
    vertex -39.13397459621561 -254.6181690000002 0.28536357179566796
  endloop
endfacet
facet normal 0.7933533402912198 0.6087614290087409 0.0
  outer loop
    vertex -40.86602540378448 -254.6181690000002 0.28536357179566796
    vertex -40.70710678118659 -254.82527578118672 2.255719012072879
    vertex -40.70710678118659 -254.82527578118672 0.28536357179566796
  endloop
endfacet
facet normal 0.7933533402912198 0.6087614290087409 0.0
  outer loop
    vertex -40.70710678118659 -254.82527578118672 2.255719012072879
    vertex -40.86602540378448 -254.6181690000002 0.28536357179566796
    vertex -40.86602540378448 -254.6181690000002 2.255719012072879
  endloop
endfacet
facet normal -0.3826834323651597 -0.923879532511258 0.0
  outer loop
    vertex -39.50000000000004 -253.25214359621575 2.255719012072879
    vertex -39.741180954897516 -253.1522431737111 0.28536357179566796
    vertex -39.50000000000004 -253.25214359621575 0.28536357179566796
  endloop
endfacet
facet normal -0.3826834323651597 -0.923879532511258 0.0
  outer loop
    vertex -39.741180954897516 -253.1522431737111 0.28536357179566796
    vertex -39.50000000000004 -253.25214359621575 2.255719012072879
    vertex -39.741180954897516 -253.1522431737111 2.255719012072879
  endloop
endfacet
facet normal -0.13052619221998704 0.991444861373819 0.0
  outer loop
    vertex -40.00000000000004 -255.11816900000017 2.255719012072879
    vertex -39.741180954897516 -255.08409482628926 0.28536357179566796
    vertex -40.00000000000004 -255.11816900000017 0.28536357179566796
  endloop
endfacet
facet normal -0.13052619221998704 0.991444861373819 0.0
  outer loop
    vertex -39.741180954897516 -255.08409482628926 0.28536357179566796
    vertex -40.00000000000004 -255.11816900000017 2.255719012072879
    vertex -39.741180954897516 -255.08409482628926 2.255719012072879
  endloop
endfacet
facet normal 0.9238795325112948 0.38268343236507074 0.0
  outer loop
    vertex -40.9659258262891 -254.3769880451027 0.28536357179566796
    vertex -40.86602540378448 -254.6181690000002 2.255719012072879
    vertex -40.86602540378448 -254.6181690000002 0.28536357179566796
  endloop
endfacet
facet normal 0.9238795325112948 0.38268343236507074 0.0
  outer loop
    vertex -40.86602540378448 -254.6181690000002 2.255719012072879
    vertex -40.9659258262891 -254.3769880451027 0.28536357179566796
    vertex -40.9659258262891 -254.3769880451027 2.255719012072879
  endloop
endfacet
facet normal -0.13052619221998704 -0.991444861373819 0.0
  outer loop
    vertex -39.741180954897516 -253.1522431737111 2.255719012072879
    vertex -40.00000000000004 -253.1181690000002 0.28536357179566796
    vertex -39.741180954897516 -253.1522431737111 0.28536357179566796
  endloop
endfacet
facet normal -0.13052619221998704 -0.991444861373819 0.0
  outer loop
    vertex -40.00000000000004 -253.1181690000002 0.28536357179566796
    vertex -39.741180954897516 -253.1522431737111 2.255719012072879
    vertex -40.00000000000004 -253.1181690000002 2.255719012072879
  endloop
endfacet
facet normal -0.991444861373814 0.13052619222002393 0.0
  outer loop
    vertex -39.00000000000004 -254.1181690000002 2.255719012072879
    vertex -39.03407417371097 -254.3769880451027 0.28536357179566796
    vertex -39.03407417371097 -254.3769880451027 2.255719012072879
  endloop
endfacet
facet normal -0.991444861373814 0.13052619222002393 0.0
  outer loop
    vertex -39.03407417371097 -254.3769880451027 0.28536357179566796
    vertex -39.00000000000004 -254.1181690000002 2.255719012072879
    vertex -39.00000000000004 -254.1181690000002 0.28536357179566796
  endloop
endfacet
facet normal -0.6087614290086991 0.7933533402912517 0.0
  outer loop
    vertex -39.50000000000004 -254.9841944037846 2.255719012072879
    vertex -39.29289321881349 -254.82527578118672 0.28536357179566796
    vertex -39.50000000000004 -254.9841944037846 0.28536357179566796
  endloop
endfacet
facet normal -0.6087614290086991 0.7933533402912517 0.0
  outer loop
    vertex -39.29289321881349 -254.82527578118672 0.28536357179566796
    vertex -39.50000000000004 -254.9841944037846 2.255719012072879
    vertex -39.29289321881349 -254.82527578118672 2.255719012072879
  endloop
endfacet
facet normal -0.991444861373814 -0.13052619222002393 0.0
  outer loop
    vertex -39.03407417371097 -253.85934995489765 2.255719012072879
    vertex -39.00000000000004 -254.1181690000002 0.28536357179566796
    vertex -39.00000000000004 -254.1181690000002 2.255719012072879
  endloop
endfacet
facet normal -0.991444861373814 -0.13052619222002393 0.0
  outer loop
    vertex -39.00000000000004 -254.1181690000002 0.28536357179566796
    vertex -39.03407417371097 -253.85934995489765 2.255719012072879
    vertex -39.03407417371097 -253.85934995489765 0.28536357179566796
  endloop
endfacet
facet normal -0.7933533402912198 -0.6087614290087409 0.0
  outer loop
    vertex -39.29289321881349 -253.41106221881364 2.255719012072879
    vertex -39.13397459621561 -253.61816900000017 0.28536357179566796
    vertex -39.13397459621561 -253.61816900000017 2.255719012072879
  endloop
endfacet
facet normal -0.7933533402912198 -0.6087614290087409 0.0
  outer loop
    vertex -39.13397459621561 -253.61816900000017 0.28536357179566796
    vertex -39.29289321881349 -253.41106221881364 2.255719012072879
    vertex -39.29289321881349 -253.41106221881364 0.28536357179566796
  endloop
endfacet
facet normal 0.6087614290086991 -0.7933533402912517 0.0
  outer loop
    vertex -40.500000000000036 -253.25214359621575 2.255719012072879
    vertex -40.70710678118659 -253.41106221881364 0.28536357179566796
    vertex -40.500000000000036 -253.25214359621575 0.28536357179566796
  endloop
endfacet
facet normal 0.6087614290086991 -0.7933533402912517 0.0
  outer loop
    vertex -40.70710678118659 -253.41106221881364 0.28536357179566796
    vertex -40.500000000000036 -253.25214359621575 2.255719012072879
    vertex -40.70710678118659 -253.41106221881364 2.255719012072879
  endloop
endfacet
facet normal -0.13052619222002954 -0.9914448613738135 -0.0
  outer loop
    vertex -37.24118095489752 -253.1522431737111 2.255719012072879
    vertex -37.50000000000004 -253.1181690000002 0.28536357179566796
    vertex -37.24118095489752 -253.1522431737111 0.28536357179566796
  endloop
endfacet
facet normal -0.13052619222002954 -0.9914448613738135 -0.0
  outer loop
    vertex -37.50000000000004 -253.1181690000002 0.28536357179566796
    vertex -37.24118095489752 -253.1522431737111 2.255719012072879
    vertex -37.50000000000004 -253.1181690000002 2.255719012072879
  endloop
endfacet
facet normal -0.38268343236512276 -0.9238795325112731 -0.0
  outer loop
    vertex -37.00000000000004 -253.25214359621575 2.255719012072879
    vertex -37.24118095489752 -253.1522431737111 0.28536357179566796
    vertex -37.00000000000004 -253.25214359621575 0.28536357179566796
  endloop
endfacet
facet normal -0.38268343236512276 -0.9238795325112731 -0.0
  outer loop
    vertex -37.24118095489752 -253.1522431737111 0.28536357179566796
    vertex -37.00000000000004 -253.25214359621575 2.255719012072879
    vertex -37.24118095489752 -253.1522431737111 2.255719012072879
  endloop
endfacet
facet normal 0.13052619221998704 0.991444861373819 0.0
  outer loop
    vertex -40.25881904510256 -255.08409482628926 2.255719012072879
    vertex -40.00000000000004 -255.11816900000017 0.28536357179566796
    vertex -40.25881904510256 -255.08409482628926 0.28536357179566796
  endloop
endfacet
facet normal 0.13052619221998704 0.991444861373819 0.0
  outer loop
    vertex -40.00000000000004 -255.11816900000017 0.28536357179566796
    vertex -40.25881904510256 -255.08409482628926 2.255719012072879
    vertex -40.00000000000004 -255.11816900000017 2.255719012072879
  endloop
endfacet
facet normal 0.9914448613738135 -0.13052619222002954 0.0
  outer loop
    vertex -38.465925826289116 -253.85934995489765 0.28536357179566796
    vertex -38.50000000000004 -254.1181690000002 2.255719012072879
    vertex -38.50000000000004 -254.1181690000002 0.28536357179566796
  endloop
endfacet
facet normal 0.9914448613738135 -0.13052619222002954 0.0
  outer loop
    vertex -38.50000000000004 -254.1181690000002 2.255719012072879
    vertex -38.465925826289116 -253.85934995489765 0.28536357179566796
    vertex -38.465925826289116 -253.85934995489765 2.255719012072879
  endloop
endfacet
facet normal 0.7933533402912518 0.6087614290086991 0.0
  outer loop
    vertex -38.36602540378448 -254.6181690000002 0.28536357179566796
    vertex -38.207106781186596 -254.82527578118672 2.255719012072879
    vertex -38.207106781186596 -254.82527578118672 0.28536357179566796
  endloop
endfacet
facet normal 0.7933533402912518 0.6087614290086991 0.0
  outer loop
    vertex -38.207106781186596 -254.82527578118672 2.255719012072879
    vertex -38.36602540378448 -254.6181690000002 0.28536357179566796
    vertex -38.36602540378448 -254.6181690000002 2.255719012072879
  endloop
endfacet
facet normal 0.6087614290086991 0.7933533402912517 0.0
  outer loop
    vertex -40.70710678118659 -254.82527578118672 2.255719012072879
    vertex -40.500000000000036 -254.9841944037846 0.28536357179566796
    vertex -40.70710678118659 -254.82527578118672 0.28536357179566796
  endloop
endfacet
facet normal 0.6087614290086991 0.7933533402912517 0.0
  outer loop
    vertex -40.500000000000036 -254.9841944037846 0.28536357179566796
    vertex -40.70710678118659 -254.82527578118672 2.255719012072879
    vertex -40.500000000000036 -254.9841944037846 2.255719012072879
  endloop
endfacet
facet normal 0.6087614290086991 0.7933533402912518 0.0
  outer loop
    vertex -38.207106781186596 -254.82527578118672 2.255719012072879
    vertex -38.00000000000004 -254.9841944037846 0.28536357179566796
    vertex -38.207106781186596 -254.82527578118672 0.28536357179566796
  endloop
endfacet
facet normal 0.6087614290086991 0.7933533402912518 0.0
  outer loop
    vertex -38.00000000000004 -254.9841944037846 0.28536357179566796
    vertex -38.207106781186596 -254.82527578118672 2.255719012072879
    vertex -38.00000000000004 -254.9841944037846 2.255719012072879
  endloop
endfacet
facet normal -0.6087614290086991 0.7933533402912518 0.0
  outer loop
    vertex -37.00000000000004 -254.9841944037846 2.255719012072879
    vertex -36.7928932188135 -254.82527578118672 0.28536357179566796
    vertex -37.00000000000004 -254.9841944037846 0.28536357179566796
  endloop
endfacet
facet normal -0.6087614290086991 0.7933533402912518 0.0
  outer loop
    vertex -36.7928932188135 -254.82527578118672 0.28536357179566796
    vertex -37.00000000000004 -254.9841944037846 2.255719012072879
    vertex -36.7928932188135 -254.82527578118672 2.255719012072879
  endloop
endfacet
facet normal 0.6087614290086991 -0.7933533402912518 0.0
  outer loop
    vertex -38.00000000000004 -253.25214359621575 2.255719012072879
    vertex -38.207106781186596 -253.41106221881364 0.28536357179566796
    vertex -38.00000000000004 -253.25214359621575 0.28536357179566796
  endloop
endfacet
facet normal 0.6087614290086991 -0.7933533402912518 0.0
  outer loop
    vertex -38.207106781186596 -253.41106221881364 0.28536357179566796
    vertex -38.00000000000004 -253.25214359621575 2.255719012072879
    vertex -38.207106781186596 -253.41106221881364 2.255719012072879
  endloop
endfacet
facet normal -0.13052619222007197 0.9914448613738077 0.0
  outer loop
    vertex -37.50000000000004 -255.11816900000017 2.255719012072879
    vertex -37.24118095489752 -255.08409482628926 0.28536357179566796
    vertex -37.50000000000004 -255.11816900000017 0.28536357179566796
  endloop
endfacet
facet normal -0.13052619222007197 0.9914448613738077 0.0
  outer loop
    vertex -37.24118095489752 -255.08409482628926 0.28536357179566796
    vertex -37.50000000000004 -255.11816900000017 2.255719012072879
    vertex -37.24118095489752 -255.08409482628926 2.255719012072879
  endloop
endfacet
facet normal -0.6087614290086991 -0.7933533402912518 -0.0
  outer loop
    vertex -36.7928932188135 -253.41106221881364 2.255719012072879
    vertex -37.00000000000004 -253.25214359621575 0.28536357179566796
    vertex -36.7928932188135 -253.41106221881364 0.28536357179566796
  endloop
endfacet
facet normal -0.6087614290086991 -0.7933533402912518 -0.0
  outer loop
    vertex -37.00000000000004 -253.25214359621575 0.28536357179566796
    vertex -36.7928932188135 -253.41106221881364 2.255719012072879
    vertex -37.00000000000004 -253.25214359621575 2.255719012072879
  endloop
endfacet
facet normal -0.7933533402912518 0.6087614290086991 0.0
  outer loop
    vertex -36.63397459621561 -254.6181690000002 2.255719012072879
    vertex -36.7928932188135 -254.82527578118672 0.28536357179566796
    vertex -36.7928932188135 -254.82527578118672 2.255719012072879
  endloop
endfacet
facet normal -0.7933533402912518 0.6087614290086991 0.0
  outer loop
    vertex -36.7928932188135 -254.82527578118672 0.28536357179566796
    vertex -36.63397459621561 -254.6181690000002 2.255719012072879
    vertex -36.63397459621561 -254.6181690000002 0.28536357179566796
  endloop
endfacet
facet normal -0.7933533402912518 -0.6087614290086991 -0.0
  outer loop
    vertex -36.7928932188135 -253.41106221881364 2.255719012072879
    vertex -36.63397459621561 -253.61816900000017 0.28536357179566796
    vertex -36.63397459621561 -253.61816900000017 2.255719012072879
  endloop
endfacet
facet normal -0.7933533402912518 -0.6087614290086991 -0.0
  outer loop
    vertex -36.63397459621561 -253.61816900000017 0.28536357179566796
    vertex -36.7928932188135 -253.41106221881364 2.255719012072879
    vertex -36.7928932188135 -253.41106221881364 0.28536357179566796
  endloop
endfacet
facet normal 0.38268343236508595 -0.9238795325112884 0.0
  outer loop
    vertex -37.75881904510257 -253.1522431737111 2.255719012072879
    vertex -38.00000000000004 -253.25214359621575 0.28536357179566796
    vertex -37.75881904510257 -253.1522431737111 0.28536357179566796
  endloop
endfacet
facet normal 0.38268343236508595 -0.9238795325112884 0.0
  outer loop
    vertex -38.00000000000004 -253.25214359621575 0.28536357179566796
    vertex -37.75881904510257 -253.1522431737111 2.255719012072879
    vertex -38.00000000000004 -253.25214359621575 2.255719012072879
  endloop
endfacet
facet normal 0.13052619222007197 -0.9914448613738077 0.0
  outer loop
    vertex -37.50000000000004 -253.1181690000002 2.255719012072879
    vertex -37.75881904510257 -253.1522431737111 0.28536357179566796
    vertex -37.50000000000004 -253.1181690000002 0.28536357179566796
  endloop
endfacet
facet normal 0.13052619222007197 -0.9914448613738077 0.0
  outer loop
    vertex -37.75881904510257 -253.1522431737111 0.28536357179566796
    vertex -37.50000000000004 -253.1181690000002 2.255719012072879
    vertex -37.75881904510257 -253.1522431737111 2.255719012072879
  endloop
endfacet
facet normal -0.9914448613738135 -0.13052619222002954 -0.0
  outer loop
    vertex -36.53407417371097 -253.85934995489765 2.255719012072879
    vertex -36.50000000000004 -254.1181690000002 0.28536357179566796
    vertex -36.50000000000004 -254.1181690000002 2.255719012072879
  endloop
endfacet
facet normal -0.9914448613738135 -0.13052619222002954 -0.0
  outer loop
    vertex -36.50000000000004 -254.1181690000002 0.28536357179566796
    vertex -36.53407417371097 -253.85934995489765 2.255719012072879
    vertex -36.53407417371097 -253.85934995489765 0.28536357179566796
  endloop
endfacet
facet normal 0.9238795325112731 -0.38268343236512276 0.0
  outer loop
    vertex -38.36602540378448 -253.61816900000017 0.28536357179566796
    vertex -38.465925826289116 -253.85934995489765 2.255719012072879
    vertex -38.465925826289116 -253.85934995489765 0.28536357179566796
  endloop
endfacet
facet normal 0.9238795325112731 -0.38268343236512276 0.0
  outer loop
    vertex -38.465925826289116 -253.85934995489765 2.255719012072879
    vertex -38.36602540378448 -253.61816900000017 0.28536357179566796
    vertex -38.36602540378448 -253.61816900000017 2.255719012072879
  endloop
endfacet
facet normal -0.9238795325112731 -0.38268343236512276 -0.0
  outer loop
    vertex -36.63397459621561 -253.61816900000017 2.255719012072879
    vertex -36.53407417371097 -253.85934995489765 0.28536357179566796
    vertex -36.53407417371097 -253.85934995489765 2.255719012072879
  endloop
endfacet
facet normal -0.9238795325112731 -0.38268343236512276 -0.0
  outer loop
    vertex -36.53407417371097 -253.85934995489765 0.28536357179566796
    vertex -36.63397459621561 -253.61816900000017 2.255719012072879
    vertex -36.63397459621561 -253.61816900000017 0.28536357179566796
  endloop
endfacet
facet normal 0.13052619222002954 0.9914448613738135 0.0
  outer loop
    vertex -37.75881904510257 -255.08409482628926 2.255719012072879
    vertex -37.50000000000004 -255.11816900000017 0.28536357179566796
    vertex -37.75881904510257 -255.08409482628926 0.28536357179566796
  endloop
endfacet
facet normal 0.13052619222002954 0.9914448613738135 0.0
  outer loop
    vertex -37.50000000000004 -255.11816900000017 0.28536357179566796
    vertex -37.75881904510257 -255.08409482628926 2.255719012072879
    vertex -37.50000000000004 -255.11816900000017 2.255719012072879
  endloop
endfacet
facet normal -0.38268343236508595 0.9238795325112884 0.0
  outer loop
    vertex -37.24118095489752 -255.08409482628926 2.255719012072879
    vertex -37.00000000000004 -254.9841944037846 0.28536357179566796
    vertex -37.24118095489752 -255.08409482628926 0.28536357179566796
  endloop
endfacet
facet normal -0.38268343236508595 0.9238795325112884 0.0
  outer loop
    vertex -37.00000000000004 -254.9841944037846 0.28536357179566796
    vertex -37.24118095489752 -255.08409482628926 2.255719012072879
    vertex -37.00000000000004 -254.9841944037846 2.255719012072879
  endloop
endfacet
facet normal 0.9914448613738077 0.13052619222007197 0.0
  outer loop
    vertex -38.50000000000004 -254.1181690000002 0.28536357179566796
    vertex -38.4659258262891 -254.3769880451027 2.255719012072879
    vertex -38.4659258262891 -254.3769880451027 0.28536357179566796
  endloop
endfacet
facet normal 0.9914448613738077 0.13052619222007197 0.0
  outer loop
    vertex -38.4659258262891 -254.3769880451027 2.255719012072879
    vertex -38.50000000000004 -254.1181690000002 0.28536357179566796
    vertex -38.50000000000004 -254.1181690000002 2.255719012072879
  endloop
endfacet
facet normal -0.9914448613738135 0.13052619222002954 0.0
  outer loop
    vertex -36.50000000000004 -254.1181690000002 2.255719012072879
    vertex -36.53407417371097 -254.3769880451027 0.28536357179566796
    vertex -36.53407417371097 -254.3769880451027 2.255719012072879
  endloop
endfacet
facet normal -0.9914448613738135 0.13052619222002954 0.0
  outer loop
    vertex -36.53407417371097 -254.3769880451027 0.28536357179566796
    vertex -36.50000000000004 -254.1181690000002 2.255719012072879
    vertex -36.50000000000004 -254.1181690000002 0.28536357179566796
  endloop
endfacet
facet normal 0.9238795325112884 0.38268343236508595 0.0
  outer loop
    vertex -38.4659258262891 -254.3769880451027 0.28536357179566796
    vertex -38.36602540378448 -254.6181690000002 2.255719012072879
    vertex -38.36602540378448 -254.6181690000002 0.28536357179566796
  endloop
endfacet
facet normal 0.9238795325112884 0.38268343236508595 0.0
  outer loop
    vertex -38.36602540378448 -254.6181690000002 2.255719012072879
    vertex -38.4659258262891 -254.3769880451027 0.28536357179566796
    vertex -38.4659258262891 -254.3769880451027 2.255719012072879
  endloop
endfacet
facet normal 0.38268343236512276 0.9238795325112731 0.0
  outer loop
    vertex -38.00000000000004 -254.9841944037846 2.255719012072879
    vertex -37.75881904510257 -255.08409482628926 0.28536357179566796
    vertex -38.00000000000004 -254.9841944037846 0.28536357179566796
  endloop
endfacet
facet normal 0.38268343236512276 0.9238795325112731 0.0
  outer loop
    vertex -37.75881904510257 -255.08409482628926 0.28536357179566796
    vertex -38.00000000000004 -254.9841944037846 2.255719012072879
    vertex -37.75881904510257 -255.08409482628926 2.255719012072879
  endloop
endfacet
facet normal 0.7933533402912518 -0.6087614290086991 0.0
  outer loop
    vertex -38.207106781186596 -253.41106221881364 0.28536357179566796
    vertex -38.36602540378448 -253.61816900000017 2.255719012072879
    vertex -38.36602540378448 -253.61816900000017 0.28536357179566796
  endloop
endfacet
facet normal 0.7933533402912518 -0.6087614290086991 0.0
  outer loop
    vertex -38.36602540378448 -253.61816900000017 2.255719012072879
    vertex -38.207106781186596 -253.41106221881364 0.28536357179566796
    vertex -38.207106781186596 -253.41106221881364 2.255719012072879
  endloop
endfacet
facet normal -0.9238795325112731 0.38268343236512276 0.0
  outer loop
    vertex -36.53407417371097 -254.3769880451027 2.255719012072879
    vertex -36.63397459621561 -254.6181690000002 0.28536357179566796
    vertex -36.63397459621561 -254.6181690000002 2.255719012072879
  endloop
endfacet
facet normal -0.9238795325112731 0.38268343236512276 0.0
  outer loop
    vertex -36.63397459621561 -254.6181690000002 0.28536357179566796
    vertex -36.53407417371097 -254.3769880451027 2.255719012072879
    vertex -36.53407417371097 -254.3769880451027 0.28536357179566796
  endloop
endfacet
endsolid ProtoGlove
