solid ProtoGlove
facet normal -0.9238795325112836 -0.3826834323650976 0.0
  outer loop
    vertex -331.5772028451804 134.96783142991595 2.005719012009996
    vertex -331.07770073265726 133.76192665542857 0.005719012009999602
    vertex -331.07770073265726 133.76192665542857 2.005719012009996
  endloop
endfacet
facet normal -0.9238795325112836 -0.3826834323650976 0.0
  outer loop
    vertex -331.07770073265726 133.76192665542857 0.005719012009999602
    vertex -331.5772028451804 134.96783142991595 2.005719012009996
    vertex -331.5772028451804 134.96783142991595 0.005719012009999602
  endloop
endfacet
facet normal -0.793353340291212 0.608761429008751 0.0
  outer loop
    vertex -330.28310761966776 139.79746056136122 2.005719012009996
    vertex -331.07770073265726 138.7619266554285 0.005719012009999602
    vertex -331.07770073265726 138.7619266554285 2.005719012009996
  endloop
endfacet
facet normal -0.793353340291212 0.608761429008751 0.0
  outer loop
    vertex -331.07770073265726 138.7619266554285 0.005719012009999602
    vertex -330.28310761966776 139.79746056136122 2.005719012009996
    vertex -330.28310761966776 139.79746056136122 0.005719012009999602
  endloop
endfacet
facet normal -0.9238795325112836 0.3826834323650976 0.0
  outer loop
    vertex -331.07770073265726 138.7619266554285 2.005719012009996
    vertex -331.5772028451804 137.5560218809411 0.005719012009999602
    vertex -331.5772028451804 137.5560218809411 2.005719012009996
  endloop
endfacet
facet normal -0.9238795325112836 0.3826834323650976 0.0
  outer loop
    vertex -331.5772028451804 137.5560218809411 0.005719012009999602
    vertex -331.07770073265726 138.7619266554285 2.005719012009996
    vertex -331.07770073265726 138.7619266554285 0.005719012009999602
  endloop
endfacet
facet normal -0.9914448613738096 0.13052619222005837 0.0
  outer loop
    vertex -331.5772028451804 137.5560218809411 2.005719012009996
    vertex -331.7475737137351 136.26192665542854 0.005719012009999602
    vertex -331.7475737137351 136.26192665542854 2.005719012009996
  endloop
endfacet
facet normal -0.9914448613738096 0.13052619222005837 0.0
  outer loop
    vertex -331.7475737137351 136.26192665542854 0.005719012009999602
    vertex -331.5772028451804 137.5560218809411 2.005719012009996
    vertex -331.5772028451804 137.5560218809411 0.005719012009999602
  endloop
endfacet
facet normal -0.9914448613738096 -0.13052619222005837 0.0
  outer loop
    vertex -331.7475737137351 136.26192665542854 2.005719012009996
    vertex -331.5772028451804 134.96783142991595 0.005719012009999602
    vertex -331.5772028451804 134.96783142991595 2.005719012009996
  endloop
endfacet
facet normal -0.9914448613738096 -0.13052619222005837 0.0
  outer loop
    vertex -331.5772028451804 134.96783142991595 0.005719012009999602
    vertex -331.7475737137351 136.26192665542854 2.005719012009996
    vertex -331.7475737137351 136.26192665542854 0.005719012009999602
  endloop
endfacet
facet normal -0.793353340291212 -0.608761429008751 0.0
  outer loop
    vertex -331.07770073265726 133.76192665542857 2.005719012009996
    vertex -330.28310761966776 132.72639274949583 0.005719012009999602
    vertex -330.28310761966776 132.72639274949583 2.005719012009996
  endloop
endfacet
facet normal -0.793353340291212 -0.608761429008751 0.0
  outer loop
    vertex -330.28310761966776 132.72639274949583 0.005719012009999602
    vertex -331.07770073265726 133.76192665542857 2.005719012009996
    vertex -331.07770073265726 133.76192665542857 0.005719012009999602
  endloop
endfacet
facet normal -0.6087614290087409 -0.7933533402912197 0.0
  outer loop
    vertex -329.2475737137351 131.9317996365064 2.005719012009996
    vertex -330.28310761966776 132.72639274949583 0.005719012009999602
    vertex -329.2475737137351 131.9317996365064 0.005719012009999602
  endloop
endfacet
facet normal -0.6087614290087409 -0.7933533402912197 0.0
  outer loop
    vertex -330.28310761966776 132.72639274949583 0.005719012009999602
    vertex -329.2475737137351 131.9317996365064 2.005719012009996
    vertex -330.28310761966776 132.72639274949583 2.005719012009996
  endloop
endfacet
facet normal -0.38268343236512214 -0.9238795325112735 0.0
  outer loop
    vertex -328.0416689392478 131.43229752398324 2.005719012009996
    vertex -329.2475737137351 131.9317996365064 0.005719012009999602
    vertex -328.0416689392478 131.43229752398324 0.005719012009999602
  endloop
endfacet
facet normal -0.38268343236512214 -0.9238795325112735 0.0
  outer loop
    vertex -329.2475737137351 131.9317996365064 0.005719012009999602
    vertex -328.0416689392478 131.43229752398324 2.005719012009996
    vertex -329.2475737137351 131.9317996365064 2.005719012009996
  endloop
endfacet
facet normal -0.0 -0.0 -1.0
  outer loop
    vertex -331.5772028451804 137.5560218809411 0.005719012009999602
    vertex -331.5772028451804 134.96783142991595 0.005719012009999602
    vertex -331.7475737137351 136.26192665542854 0.005719012009999602
  endloop
endfacet
facet normal -0.0 -0.0 -1.0
  outer loop
    vertex -331.5772028451804 134.96783142991595 0.005719012009999602
    vertex -331.5772028451804 137.5560218809411 0.005719012009999602
    vertex -331.07770073265726 138.7619266554285 0.005719012009999602
  endloop
endfacet
facet normal -0.0 -0.0 -1.0
  outer loop
    vertex -331.5772028451804 134.96783142991595 0.005719012009999602
    vertex -331.07770073265726 138.7619266554285 0.005719012009999602
    vertex -331.07770073265726 133.76192665542857 0.005719012009999602
  endloop
endfacet
facet normal -0.0 -0.0 -1.0
  outer loop
    vertex -331.07770073265726 133.76192665542857 0.005719012009999602
    vertex -331.07770073265726 138.7619266554285 0.005719012009999602
    vertex -330.28310761966776 139.79746056136122 0.005719012009999602
  endloop
endfacet
facet normal -0.0 -0.0 -1.0
  outer loop
    vertex -331.07770073265726 133.76192665542857 0.005719012009999602
    vertex -330.28310761966776 139.79746056136122 0.005719012009999602
    vertex -330.28310761966776 132.72639274949583 0.005719012009999602
  endloop
endfacet
facet normal -0.0 -0.0 -1.0
  outer loop
    vertex -330.28310761966776 132.72639274949583 0.005719012009999602
    vertex -330.28310761966776 139.79746056136122 0.005719012009999602
    vertex -329.2475737137351 140.59205367435064 0.005719012009999602
  endloop
endfacet
facet normal -0.0 -0.0 -1.0
  outer loop
    vertex -330.28310761966776 132.72639274949583 0.005719012009999602
    vertex -329.2475737137351 140.59205367435064 0.005719012009999602
    vertex -329.2475737137351 131.9317996365064 0.005719012009999602
  endloop
endfacet
facet normal -0.0 -0.0 -1.0
  outer loop
    vertex -329.2475737137351 131.9317996365064 0.005719012009999602
    vertex -329.2475737137351 140.59205367435064 0.005719012009999602
    vertex -328.0416689392478 141.0915557868738 0.005719012009999602
  endloop
endfacet
facet normal -0.0 -0.0 -1.0
  outer loop
    vertex -329.2475737137351 131.9317996365064 0.005719012009999602
    vertex -328.0416689392478 141.0915557868738 0.005719012009999602
    vertex -328.0416689392478 131.43229752398324 0.005719012009999602
  endloop
endfacet
facet normal -0.0 -0.0 -1.0
  outer loop
    vertex -328.0416689392478 131.43229752398324 0.005719012009999602
    vertex -328.0416689392478 141.0915557868738 0.005719012009999602
    vertex -326.74757371373516 141.26192665542848 0.005719012009999602
  endloop
endfacet
facet normal -0.0 -0.0 -1.0
  outer loop
    vertex -328.0416689392478 131.43229752398324 0.005719012009999602
    vertex -326.74757371373516 141.26192665542848 0.005719012009999602
    vertex -326.74757371373516 131.26192665542857 0.005719012009999602
  endloop
endfacet
facet normal -0.0 -0.0 -1.0
  outer loop
    vertex -326.74757371373516 131.26192665542857 0.005719012009999602
    vertex -326.74757371373516 141.26192665542848 0.005719012009999602
    vertex -319.07053795821156 141.26192665542848 0.005719012009999602
  endloop
endfacet
facet normal -0.0 -0.0 -1.0
  outer loop
    vertex -326.74757371373516 131.26192665542857 0.005719012009999602
    vertex -319.07053795821156 141.26192665542848 0.005719012009999602
    vertex -313.7496490958322 131.26192665542857 0.005719012009999602
  endloop
endfacet
facet normal -0.0 -0.0 -1.0
  outer loop
    vertex -313.7496490958322 131.26192665542857 0.005719012009999602
    vertex -319.07053795821156 141.26192665542848 0.005719012009999602
    vertex -310.60140884382105 164.3449329195506 0.005719012009999602
  endloop
endfacet
facet normal -0.0 -0.0 -1.0
  outer loop
    vertex -313.7496490958322 131.26192665542857 0.005719012009999602
    vertex -310.60140884382105 164.3449329195506 0.005719012009999602
    vertex -312.73329831400423 131.31370917246804 0.005719012009999602
  endloop
endfacet
facet normal -0.0 -0.0 -1.0
  outer loop
    vertex -312.73329831400423 131.31370917246804 0.005719012009999602
    vertex -310.60140884382105 164.3449329195506 0.005719012009999602
    vertex -311.7274733725119 131.4685204377729 0.005719012009999602
  endloop
endfacet
facet normal -0.0 -0.0 -1.0
  outer loop
    vertex -311.7274733725119 131.4685204377729 0.005719012009999602
    vertex -310.60140884382105 164.3449329195506 0.005719012009999602
    vertex -310.74259110078947 131.72475714794606 0.005719012009999602
  endloop
endfacet
facet normal -0.0 -0.0 -1.0
  outer loop
    vertex -310.74259110078947 131.72475714794606 0.005719012009999602
    vertex -310.60140884382105 164.3449329195506 0.005719012009999602
    vertex -309.7888514354406 132.07976558662563 0.005719012009999602
  endloop
endfacet
facet normal -0.0 -0.0 -1.0
  outer loop
    vertex -309.7888514354406 132.07976558662563 0.005719012009999602
    vertex -310.60140884382105 164.3449329195506 0.005719012009999602
    vertex -309.69735452009417 166.08160511724097 0.005719012009999602
  endloop
endfacet
facet normal -0.0 -0.0 -1.0
  outer loop
    vertex -309.7888514354406 132.07976558662563 0.005719012009999602
    vertex -309.69735452009417 166.08160511724097 0.005719012009999602
    vertex -308.8761317845597 132.52986910770645 0.005719012009999602
  endloop
endfacet
facet normal -0.0 -0.0 -1.0
  outer loop
    vertex -308.8761317845597 132.52986910770645 0.005719012009999602
    vertex -309.69735452009417 166.08160511724097 0.005719012009999602
    vertex -308.3746212605758 167.5251151680004 0.005719012009999602
  endloop
endfacet
facet normal -0.0 -0.0 -1.0
  outer loop
    vertex -308.8761317845597 132.52986910770645 0.005719012009999602
    vertex -308.3746212605758 167.5251151680004 0.005719012009999602
    vertex -308.0138847323217 133.07040621253847 0.005719012009999602
  endloop
endfacet
facet normal -0.0 -0.0 -1.0
  outer loop
    vertex -308.0138847323217 133.07040621253847 0.005719012009999602
    vertex -308.3746212605758 167.5251151680004 0.005719012009999602
    vertex -306.723351150982 168.57709024738298 0.005719012009999602
  endloop
endfacet
facet normal -0.0 -0.0 -1.0
  outer loop
    vertex -308.0138847323217 133.07040621253847 0.005719012009999602
    vertex -306.723351150982 168.57709024738298 0.005719012009999602
    vertex -307.21104014326147 133.6957788267535 0.005719012009999602
  endloop
endfacet
facet normal -0.0 -0.0 -1.0
  outer loop
    vertex -307.21104014326147 133.6957788267535 0.005719012009999602
    vertex -306.723351150982 168.57709024738298 0.005719012009999602
    vertex -306.4759126801017 134.39951027674104 0.005719012009999602
  endloop
endfacet
facet normal -0.0 -0.0 -1.0
  outer loop
    vertex -306.4759126801017 134.39951027674104 0.005719012009999602
    vertex -306.723351150982 168.57709024738298 0.005719012009999602
    vertex -304.85607552042865 169.16583999219975 0.005719012009999602
  endloop
endfacet
facet normal -0.0 -0.0 -1.0
  outer loop
    vertex -306.4759126801017 134.39951027674104 0.005719012009999602
    vertex -304.85607552042865 169.16583999219975 0.005719012009999602
    vertex -305.8161156929197 135.17431236534117 0.005719012009999602
  endloop
endfacet
facet normal -0.0 -0.0 -1.0
  outer loop
    vertex -305.8161156929197 135.17431236534117 0.005719012009999602
    vertex -304.85607552042865 169.16583999219975 0.005719012009999602
    vertex -305.23848237146217 136.01216085208284 0.005719012009999602
  endloop
endfacet
facet normal -0.0 -0.0 -1.0
  outer loop
    vertex -305.23848237146217 136.01216085208284 0.005719012009999602
    vertex -304.85607552042865 169.16583999219975 0.005719012009999602
    vertex -304.748994977191 136.90437855625765 0.005719012009999602
  endloop
endfacet
facet normal -0.0 -0.0 -1.0
  outer loop
    vertex -304.748994977191 136.90437855625765 0.005719012009999602
    vertex -304.85607552042865 169.16583999219975 0.005719012009999602
    vertex -302.9000461173192 169.25124208029624 0.005719012009999602
  endloop
endfacet
facet normal -0.0 -0.0 -1.0
  outer loop
    vertex -304.748994977191 136.90437855625765 0.005719012009999602
    vertex -302.9000461173192 169.25124208029624 0.005719012009999602
    vertex -304.352722887973 137.84172522217176 0.005719012009999602
  endloop
endfacet
facet normal -0.0 -0.0 -1.0
  outer loop
    vertex -304.352722887973 137.84172522217176 0.005719012009999602
    vertex -302.9000461173192 169.25124208029624 0.005719012009999602
    vertex -296.5060195320322 159.21463076966575 0.005719012009999602
  endloop
endfacet
facet normal -0.0 -0.0 -1.0
  outer loop
    vertex -296.5060195320322 159.21463076966575 0.005719012009999602
    vertex -302.9000461173192 169.25124208029624 0.005719012009999602
    vertex -300.9885631129842 168.8274765005025 0.005719012009999602
  endloop
endfacet
facet normal -0.0 -0.0 -1.0
  outer loop
    vertex -296.5060195320322 159.21463076966575 0.005719012009999602
    vertex -300.9885631129842 168.8274765005025 0.005719012009999602
    vertex -299.2518909152939 167.9234221767757 0.005719012009999602
  endloop
endfacet
facet normal -0.0 -0.0 -1.0
  outer loop
    vertex -296.5060195320322 159.21463076966575 0.005719012009999602
    vertex -299.2518909152939 167.9234221767757 0.005719012009999602
    vertex -297.8083808645344 166.60068891725732 0.005719012009999602
  endloop
endfacet
facet normal -0.0 -0.0 -1.0
  outer loop
    vertex -296.5060195320322 159.21463076966575 0.005719012009999602
    vertex -297.8083808645344 166.60068891725732 0.005719012009999602
    vertex -296.75640578515174 164.94941880766345 0.005719012009999602
  endloop
endfacet
facet normal -0.0 -0.0 -1.0
  outer loop
    vertex -296.5060195320322 159.21463076966575 0.005719012009999602
    vertex -296.75640578515174 164.94941880766345 0.005719012009999602
    vertex -296.16765604033503 163.08214317711028 0.005719012009999602
  endloop
endfacet
facet normal -0.0 -0.0 -1.0
  outer loop
    vertex -296.5060195320322 159.21463076966575 0.005719012009999602
    vertex -296.16765604033503 163.08214317711028 0.005719012009999602
    vertex -296.08225395223855 161.1261137740008 0.005719012009999602
  endloop
endfacet
facet normal -0.3007057995042938 0.9537169507482204 0.0
  outer loop
    vertex -306.723351150982 168.57709024738298 2.005719012009996
    vertex -304.85607552042865 169.16583999219975 0.005719012009999602
    vertex -306.723351150982 168.57709024738298 0.005719012009999602
  endloop
endfacet
facet normal -0.3007057995042938 0.9537169507482204 0.0
  outer loop
    vertex -304.85607552042865 169.16583999219975 0.005719012009999602
    vertex -306.723351150982 168.57709024738298 2.005719012009996
    vertex -304.85607552042865 169.16583999219975 2.005719012009996
  endloop
endfacet
facet normal -0.8870108331782163 0.4617486132350445 0.0
  outer loop
    vertex -309.69735452009417 166.08160511724097 2.005719012009996
    vertex -310.60140884382105 164.3449329195506 0.005719012009999602
    vertex -310.60140884382105 164.3449329195506 2.005719012009996
  endloop
endfacet
facet normal -0.8870108331782163 0.4617486132350445 0.0
  outer loop
    vertex -310.60140884382105 164.3449329195506 0.005719012009999602
    vertex -309.69735452009417 166.08160511724097 2.005719012009996
    vertex -309.69735452009417 166.08160511724097 0.005719012009999602
  endloop
endfacet
facet normal 0.9990482215818582 0.043619387365323864 0.0
  outer loop
    vertex -296.16765604033503 163.08214317711028 0.005719012009999602
    vertex -296.08225395223855 161.1261137740008 2.005719012009996
    vertex -296.08225395223855 161.1261137740008 0.005719012009999602
  endloop
endfacet
facet normal 0.9990482215818582 0.043619387365323864 0.0
  outer loop
    vertex -296.08225395223855 161.1261137740008 2.005719012009996
    vertex -296.16765604033503 163.08214317711028 0.005719012009999602
    vertex -296.16765604033503 163.08214317711028 2.005719012009996
  endloop
endfacet
facet normal 0.9537169507482253 0.3007057995042783 0.0
  outer loop
    vertex -296.75640578515174 164.94941880766345 0.005719012009999602
    vertex -296.16765604033503 163.08214317711028 2.005719012009996
    vertex -296.16765604033503 163.08214317711028 0.005719012009999602
  endloop
endfacet
facet normal 0.9537169507482253 0.3007057995042783 0.0
  outer loop
    vertex -296.16765604033503 163.08214317711028 2.005719012009996
    vertex -296.75640578515174 164.94941880766345 0.005719012009999602
    vertex -296.75640578515174 164.94941880766345 2.005719012009996
  endloop
endfacet
facet normal -0.7372773368101182 0.6755902076156666 0.0
  outer loop
    vertex -308.3746212605758 167.5251151680004 2.005719012009996
    vertex -309.69735452009417 166.08160511724097 0.005719012009999602
    vertex -309.69735452009417 166.08160511724097 2.005719012009996
  endloop
endfacet
facet normal -0.7372773368101182 0.6755902076156666 0.0
  outer loop
    vertex -309.69735452009417 166.08160511724097 0.005719012009999602
    vertex -308.3746212605758 167.5251151680004 2.005719012009996
    vertex -308.3746212605758 167.5251151680004 0.005719012009999602
  endloop
endfacet
facet normal -0.1305261922200494 0.9914448613738107 0.0
  outer loop
    vertex -328.0416689392478 141.0915557868738 2.005719012009996
    vertex -326.74757371373516 141.26192665542848 0.005719012009999602
    vertex -328.0416689392478 141.0915557868738 0.005719012009999602
  endloop
endfacet
facet normal -0.1305261922200494 0.9914448613738107 0.0
  outer loop
    vertex -326.74757371373516 141.26192665542848 0.005719012009999602
    vertex -328.0416689392478 141.0915557868738 2.005719012009996
    vertex -326.74757371373516 141.26192665542848 2.005719012009996
  endloop
endfacet
facet normal 0.9387346831405853 -0.3446406747163561 0.0
  outer loop
    vertex -296.5060195320322 159.21463076966575 0.005719012009999602
    vertex -304.352722887973 137.84172522217176 2.005719012009996
    vertex -304.352722887973 137.84172522217176 0.005719012009999602
  endloop
endfacet
facet normal 0.9387346831405853 -0.3446406747163561 0.0
  outer loop
    vertex -304.352722887973 137.84172522217176 2.005719012009996
    vertex -296.5060195320322 159.21463076966575 0.005719012009999602
    vertex -296.5060195320322 159.21463076966575 2.005719012009996
  endloop
endfacet
facet normal 0.6755902076156436 0.7372773368101393 0.0
  outer loop
    vertex -299.2518909152939 167.9234221767757 2.005719012009996
    vertex -297.8083808645344 166.60068891725732 0.005719012009999602
    vertex -299.2518909152939 167.9234221767757 0.005719012009999602
  endloop
endfacet
facet normal 0.6755902076156436 0.7372773368101393 0.0
  outer loop
    vertex -297.8083808645344 166.60068891725732 0.005719012009999602
    vertex -299.2518909152939 167.9234221767757 2.005719012009996
    vertex -297.8083808645344 166.60068891725732 2.005719012009996
  endloop
endfacet
facet normal 0.4617486132350272 0.8870108331782254 0.0
  outer loop
    vertex -300.9885631129842 168.8274765005025 2.005719012009996
    vertex -299.2518909152939 167.9234221767757 0.005719012009999602
    vertex -300.9885631129842 168.8274765005025 0.005719012009999602
  endloop
endfacet
facet normal 0.4617486132350272 0.8870108331782254 0.0
  outer loop
    vertex -299.2518909152939 167.9234221767757 0.005719012009999602
    vertex -300.9885631129842 168.8274765005025 2.005719012009996
    vertex -299.2518909152939 167.9234221767757 2.005719012009996
  endloop
endfacet
facet normal 0.8433914458128632 0.5372996083468592 0.0
  outer loop
    vertex -297.8083808645344 166.60068891725732 0.005719012009999602
    vertex -296.75640578515174 164.94941880766345 2.005719012009996
    vertex -296.75640578515174 164.94941880766345 0.005719012009999602
  endloop
endfacet
facet normal 0.8433914458128632 0.5372996083468592 0.0
  outer loop
    vertex -296.75640578515174 164.94941880766345 2.005719012009996
    vertex -297.8083808645344 166.60068891725732 0.005719012009999602
    vertex -297.8083808645344 166.60068891725732 2.005719012009996
  endloop
endfacet
facet normal -0.04361938736532588 0.9990482215818582 0.0
  outer loop
    vertex -304.85607552042865 169.16583999219975 2.005719012009996
    vertex -302.9000461173192 169.25124208029624 0.005719012009999602
    vertex -304.85607552042865 169.16583999219975 0.005719012009999602
  endloop
endfacet
facet normal -0.04361938736532588 0.9990482215818582 0.0
  outer loop
    vertex -302.9000461173192 169.25124208029624 0.005719012009999602
    vertex -304.85607552042865 169.16583999219975 2.005719012009996
    vertex -302.9000461173192 169.25124208029624 2.005719012009996
  endloop
endfacet
facet normal -0.5372996083468473 0.843391445812871 0.0
  outer loop
    vertex -308.3746212605758 167.5251151680004 2.005719012009996
    vertex -306.723351150982 168.57709024738298 0.005719012009999602
    vertex -308.3746212605758 167.5251151680004 0.005719012009999602
  endloop
endfacet
facet normal -0.5372996083468473 0.843391445812871 0.0
  outer loop
    vertex -306.723351150982 168.57709024738298 0.005719012009999602
    vertex -308.3746212605758 167.5251151680004 2.005719012009996
    vertex -306.723351150982 168.57709024738298 2.005719012009996
  endloop
endfacet
facet normal -0.38268343236512214 0.9238795325112735 0.0
  outer loop
    vertex -329.2475737137351 140.59205367435064 2.005719012009996
    vertex -328.0416689392478 141.0915557868738 0.005719012009999602
    vertex -329.2475737137351 140.59205367435064 0.005719012009999602
  endloop
endfacet
facet normal -0.38268343236512214 0.9238795325112735 0.0
  outer loop
    vertex -328.0416689392478 141.0915557868738 0.005719012009999602
    vertex -329.2475737137351 140.59205367435064 2.005719012009996
    vertex -328.0416689392478 141.0915557868738 2.005719012009996
  endloop
endfacet
facet normal -0.6087614290087409 0.7933533402912197 0.0
  outer loop
    vertex -330.28310761966776 139.79746056136122 2.005719012009996
    vertex -329.2475737137351 140.59205367435064 0.005719012009999602
    vertex -330.28310761966776 139.79746056136122 0.005719012009999602
  endloop
endfacet
facet normal -0.6087614290087409 0.7933533402912197 0.0
  outer loop
    vertex -329.2475737137351 140.59205367435064 0.005719012009999602
    vertex -330.28310761966776 139.79746056136122 2.005719012009996
    vertex -329.2475737137351 140.59205367435064 2.005719012009996
  endloop
endfacet
facet normal 0.21643961393808528 0.9762960071199372 0.0
  outer loop
    vertex -302.9000461173192 169.25124208029624 2.005719012009996
    vertex -300.9885631129842 168.8274765005025 0.005719012009999602
    vertex -302.9000461173192 169.25124208029624 0.005719012009999602
  endloop
endfacet
facet normal 0.21643961393808528 0.9762960071199372 0.0
  outer loop
    vertex -300.9885631129842 168.8274765005025 0.005719012009999602
    vertex -302.9000461173192 169.25124208029624 2.005719012009996
    vertex -300.9885631129842 168.8274765005025 2.005719012009996
  endloop
endfacet
facet normal 0.0 1.0 0.0
  outer loop
    vertex -326.74757371373516 141.26192665542848 2.005719012009996
    vertex -319.07053795821156 141.26192665542848 0.005719012009999602
    vertex -326.74757371373516 141.26192665542848 0.005719012009999602
  endloop
endfacet
facet normal 0.0 1.0 0.0
  outer loop
    vertex -319.07053795821156 141.26192665542848 0.005719012009999602
    vertex -326.74757371373516 141.26192665542848 2.005719012009996
    vertex -319.07053795821156 141.26192665542848 2.005719012009996
  endloop
endfacet
facet normal -0.9388058352496987 0.34444680823185975 0.0
  outer loop
    vertex -310.60140884382105 164.3449329195506 2.005719012009996
    vertex -319.07053795821156 141.26192665542848 0.005719012009999602
    vertex -319.07053795821156 141.26192665542848 2.005719012009996
  endloop
endfacet
facet normal -0.9388058352496987 0.34444680823185975 0.0
  outer loop
    vertex -319.07053795821156 141.26192665542848 0.005719012009999602
    vertex -310.60140884382105 164.3449329195506 2.005719012009996
    vertex -310.60140884382105 164.3449329195506 0.005719012009999602
  endloop
endfacet
facet normal 0.9762960071199471 -0.2164396139380414 0.0
  outer loop
    vertex -296.08225395223855 161.1261137740008 0.005719012009999602
    vertex -296.5060195320322 159.21463076966575 2.005719012009996
    vertex -296.5060195320322 159.21463076966575 0.005719012009999602
  endloop
endfacet
facet normal 0.9762960071199471 -0.2164396139380414 0.0
  outer loop
    vertex -296.5060195320322 159.21463076966575 2.005719012009996
    vertex -296.08225395223855 161.1261137740008 0.005719012009999602
    vertex -296.08225395223855 161.1261137740008 2.005719012009996
  endloop
endfacet
facet normal 0.0 0.0 1.0
  outer loop
    vertex -331.5772028451804 134.96783142991595 2.005719012009996
    vertex -331.5772028451804 137.5560218809411 2.005719012009996
    vertex -331.7475737137351 136.26192665542854 2.005719012009996
  endloop
endfacet
facet normal 0.0 0.0 1.0
  outer loop
    vertex -331.5772028451804 137.5560218809411 2.005719012009996
    vertex -331.5772028451804 134.96783142991595 2.005719012009996
    vertex -331.07770073265726 133.76192665542857 2.005719012009996
  endloop
endfacet
facet normal 0.0 0.0 1.0
  outer loop
    vertex -331.5772028451804 137.5560218809411 2.005719012009996
    vertex -331.07770073265726 133.76192665542857 2.005719012009996
    vertex -331.07770073265726 138.7619266554285 2.005719012009996
  endloop
endfacet
facet normal 0.0 0.0 1.0
  outer loop
    vertex -331.07770073265726 138.7619266554285 2.005719012009996
    vertex -331.07770073265726 133.76192665542857 2.005719012009996
    vertex -330.28310761966776 132.72639274949583 2.005719012009996
  endloop
endfacet
facet normal 0.0 0.0 1.0
  outer loop
    vertex -331.07770073265726 138.7619266554285 2.005719012009996
    vertex -330.28310761966776 132.72639274949583 2.005719012009996
    vertex -330.28310761966776 139.79746056136122 2.005719012009996
  endloop
endfacet
facet normal 0.0 0.0 1.0
  outer loop
    vertex -330.28310761966776 139.79746056136122 2.005719012009996
    vertex -330.28310761966776 132.72639274949583 2.005719012009996
    vertex -329.2475737137351 131.9317996365064 2.005719012009996
  endloop
endfacet
facet normal 0.0 0.0 1.0
  outer loop
    vertex -330.28310761966776 139.79746056136122 2.005719012009996
    vertex -329.2475737137351 131.9317996365064 2.005719012009996
    vertex -329.2475737137351 140.59205367435064 2.005719012009996
  endloop
endfacet
facet normal 0.0 0.0 1.0
  outer loop
    vertex -329.2475737137351 140.59205367435064 2.005719012009996
    vertex -329.2475737137351 131.9317996365064 2.005719012009996
    vertex -328.0416689392478 131.43229752398324 2.005719012009996
  endloop
endfacet
facet normal 0.0 0.0 1.0
  outer loop
    vertex -329.2475737137351 140.59205367435064 2.005719012009996
    vertex -328.0416689392478 131.43229752398324 2.005719012009996
    vertex -328.0416689392478 141.0915557868738 2.005719012009996
  endloop
endfacet
facet normal 0.0 0.0 1.0
  outer loop
    vertex -328.0416689392478 141.0915557868738 2.005719012009996
    vertex -328.0416689392478 131.43229752398324 2.005719012009996
    vertex -326.74757371373516 131.26192665542857 2.005719012009996
  endloop
endfacet
facet normal 0.0 0.0 1.0
  outer loop
    vertex -328.0416689392478 141.0915557868738 2.005719012009996
    vertex -326.74757371373516 131.26192665542857 2.005719012009996
    vertex -326.74757371373516 141.26192665542848 2.005719012009996
  endloop
endfacet
facet normal 0.0 0.0 1.0
  outer loop
    vertex -326.74757371373516 141.26192665542848 2.005719012009996
    vertex -326.74757371373516 131.26192665542857 2.005719012009996
    vertex -313.7496490958322 131.26192665542857 2.005719012009996
  endloop
endfacet
facet normal 0.0 0.0 1.0
  outer loop
    vertex -326.74757371373516 141.26192665542848 2.005719012009996
    vertex -313.7496490958322 131.26192665542857 2.005719012009996
    vertex -319.07053795821156 141.26192665542848 2.005719012009996
  endloop
endfacet
facet normal 0.0 0.0 1.0
  outer loop
    vertex -319.07053795821156 141.26192665542848 2.005719012009996
    vertex -313.7496490958322 131.26192665542857 2.005719012009996
    vertex -310.60140884382105 164.3449329195506 2.005719012009996
  endloop
endfacet
facet normal 0.0 0.0 1.0
  outer loop
    vertex -310.60140884382105 164.3449329195506 2.005719012009996
    vertex -313.7496490958322 131.26192665542857 2.005719012009996
    vertex -312.73329831400423 131.31370917246804 2.005719012009996
  endloop
endfacet
facet normal 0.0 0.0 1.0
  outer loop
    vertex -310.60140884382105 164.3449329195506 2.005719012009996
    vertex -312.73329831400423 131.31370917246804 2.005719012009996
    vertex -311.7274733725119 131.4685204377729 2.005719012009996
  endloop
endfacet
facet normal 0.0 0.0 1.0
  outer loop
    vertex -310.60140884382105 164.3449329195506 2.005719012009996
    vertex -311.7274733725119 131.4685204377729 2.005719012009996
    vertex -310.74259110078947 131.72475714794606 2.005719012009996
  endloop
endfacet
facet normal 0.0 0.0 1.0
  outer loop
    vertex -310.60140884382105 164.3449329195506 2.005719012009996
    vertex -310.74259110078947 131.72475714794606 2.005719012009996
    vertex -309.7888514354406 132.07976558662563 2.005719012009996
  endloop
endfacet
facet normal 0.0 0.0 1.0
  outer loop
    vertex -310.60140884382105 164.3449329195506 2.005719012009996
    vertex -309.7888514354406 132.07976558662563 2.005719012009996
    vertex -309.69735452009417 166.08160511724097 2.005719012009996
  endloop
endfacet
facet normal 0.0 0.0 1.0
  outer loop
    vertex -309.69735452009417 166.08160511724097 2.005719012009996
    vertex -309.7888514354406 132.07976558662563 2.005719012009996
    vertex -308.8761317845597 132.52986910770645 2.005719012009996
  endloop
endfacet
facet normal 0.0 0.0 1.0
  outer loop
    vertex -309.69735452009417 166.08160511724097 2.005719012009996
    vertex -308.8761317845597 132.52986910770645 2.005719012009996
    vertex -308.3746212605758 167.5251151680004 2.005719012009996
  endloop
endfacet
facet normal 0.0 0.0 1.0
  outer loop
    vertex -308.3746212605758 167.5251151680004 2.005719012009996
    vertex -308.8761317845597 132.52986910770645 2.005719012009996
    vertex -308.0138847323217 133.07040621253847 2.005719012009996
  endloop
endfacet
facet normal 0.0 0.0 1.0
  outer loop
    vertex -308.3746212605758 167.5251151680004 2.005719012009996
    vertex -308.0138847323217 133.07040621253847 2.005719012009996
    vertex -306.723351150982 168.57709024738298 2.005719012009996
  endloop
endfacet
facet normal 0.0 0.0 1.0
  outer loop
    vertex -306.723351150982 168.57709024738298 2.005719012009996
    vertex -308.0138847323217 133.07040621253847 2.005719012009996
    vertex -307.21104014326147 133.6957788267535 2.005719012009996
  endloop
endfacet
facet normal 0.0 0.0 1.0
  outer loop
    vertex -306.723351150982 168.57709024738298 2.005719012009996
    vertex -307.21104014326147 133.6957788267535 2.005719012009996
    vertex -306.4759126801017 134.39951027674104 2.005719012009996
  endloop
endfacet
facet normal 0.0 0.0 1.0
  outer loop
    vertex -306.723351150982 168.57709024738298 2.005719012009996
    vertex -306.4759126801017 134.39951027674104 2.005719012009996
    vertex -304.85607552042865 169.16583999219975 2.005719012009996
  endloop
endfacet
facet normal 0.0 0.0 1.0
  outer loop
    vertex -304.85607552042865 169.16583999219975 2.005719012009996
    vertex -306.4759126801017 134.39951027674104 2.005719012009996
    vertex -305.8161156929197 135.17431236534117 2.005719012009996
  endloop
endfacet
facet normal 0.0 0.0 1.0
  outer loop
    vertex -304.85607552042865 169.16583999219975 2.005719012009996
    vertex -305.8161156929197 135.17431236534117 2.005719012009996
    vertex -305.23848237146217 136.01216085208284 2.005719012009996
  endloop
endfacet
facet normal 0.0 0.0 1.0
  outer loop
    vertex -304.85607552042865 169.16583999219975 2.005719012009996
    vertex -305.23848237146217 136.01216085208284 2.005719012009996
    vertex -304.748994977191 136.90437855625765 2.005719012009996
  endloop
endfacet
facet normal 0.0 0.0 1.0
  outer loop
    vertex -304.85607552042865 169.16583999219975 2.005719012009996
    vertex -304.748994977191 136.90437855625765 2.005719012009996
    vertex -302.9000461173192 169.25124208029624 2.005719012009996
  endloop
endfacet
facet normal 0.0 0.0 1.0
  outer loop
    vertex -302.9000461173192 169.25124208029624 2.005719012009996
    vertex -304.748994977191 136.90437855625765 2.005719012009996
    vertex -304.352722887973 137.84172522217176 2.005719012009996
  endloop
endfacet
facet normal 0.0 0.0 1.0
  outer loop
    vertex -302.9000461173192 169.25124208029624 2.005719012009996
    vertex -304.352722887973 137.84172522217176 2.005719012009996
    vertex -296.5060195320322 159.21463076966575 2.005719012009996
  endloop
endfacet
facet normal 0.0 0.0 1.0
  outer loop
    vertex -302.9000461173192 169.25124208029624 2.005719012009996
    vertex -296.5060195320322 159.21463076966575 2.005719012009996
    vertex -300.9885631129842 168.8274765005025 2.005719012009996
  endloop
endfacet
facet normal 0.0 0.0 1.0
  outer loop
    vertex -300.9885631129842 168.8274765005025 2.005719012009996
    vertex -296.5060195320322 159.21463076966575 2.005719012009996
    vertex -299.2518909152939 167.9234221767757 2.005719012009996
  endloop
endfacet
facet normal 0.0 0.0 1.0
  outer loop
    vertex -299.2518909152939 167.9234221767757 2.005719012009996
    vertex -296.5060195320322 159.21463076966575 2.005719012009996
    vertex -297.8083808645344 166.60068891725732 2.005719012009996
  endloop
endfacet
facet normal 0.0 0.0 1.0
  outer loop
    vertex -297.8083808645344 166.60068891725732 2.005719012009996
    vertex -296.5060195320322 159.21463076966575 2.005719012009996
    vertex -296.75640578515174 164.94941880766345 2.005719012009996
  endloop
endfacet
facet normal 0.0 0.0 1.0
  outer loop
    vertex -296.75640578515174 164.94941880766345 2.005719012009996
    vertex -296.5060195320322 159.21463076966575 2.005719012009996
    vertex -296.16765604033503 163.08214317711028 2.005719012009996
  endloop
endfacet
facet normal 0.0 0.0 1.0
  outer loop
    vertex -296.16765604033503 163.08214317711028 2.005719012009996
    vertex -296.5060195320322 159.21463076966575 2.005719012009996
    vertex -296.08225395223855 161.1261137740008 2.005719012009996
  endloop
endfacet
facet normal 0.6145147093624947 -0.7889053631311737 0.0
  outer loop
    vertex -307.21104014326147 133.6957788267535 2.005719012009996
    vertex -308.0138847323217 133.07040621253847 0.005719012009999602
    vertex -307.21104014326147 133.6957788267535 0.005719012009999602
  endloop
endfacet
facet normal 0.6145147093624947 -0.7889053631311737 0.0
  outer loop
    vertex -308.0138847323217 133.07040621253847 0.005719012009999602
    vertex -307.21104014326147 133.6957788267535 2.005719012009996
    vertex -308.0138847323217 133.07040621253847 2.005719012009996
  endloop
endfacet
facet normal 0.7613497448831681 -0.6483413961535506 0.0
  outer loop
    vertex -305.8161156929197 135.17431236534117 0.005719012009999602
    vertex -306.4759126801017 134.39951027674104 2.005719012009996
    vertex -306.4759126801017 134.39951027674104 0.005719012009999602
  endloop
endfacet
facet normal 0.7613497448831681 -0.6483413961535506 0.0
  outer loop
    vertex -306.4759126801017 134.39951027674104 2.005719012009996
    vertex -305.8161156929197 135.17431236534117 0.005719012009999602
    vertex -305.8161156929197 135.17431236534117 2.005719012009996
  endloop
endfacet
facet normal -0.1305261922200494 -0.9914448613738107 0.0
  outer loop
    vertex -326.74757371373516 131.26192665542857 2.005719012009996
    vertex -328.0416689392478 131.43229752398324 0.005719012009999602
    vertex -326.74757371373516 131.26192665542857 0.005719012009999602
  endloop
endfacet
facet normal -0.1305261922200494 -0.9914448613738107 0.0
  outer loop
    vertex -328.0416689392478 131.43229752398324 0.005719012009999602
    vertex -326.74757371373516 131.26192665542857 2.005719012009996
    vertex -328.0416689392478 131.43229752398324 2.005719012009996
  endloop
endfacet
facet normal 0.25178785239533713 -0.9677824535432248 0.0
  outer loop
    vertex -310.74259110078947 131.72475714794606 2.005719012009996
    vertex -311.7274733725119 131.4685204377729 0.005719012009999602
    vertex -310.74259110078947 131.72475714794606 0.005719012009999602
  endloop
endfacet
facet normal 0.25178785239533713 -0.9677824535432248 0.0
  outer loop
    vertex -311.7274733725119 131.4685204377729 0.005719012009999602
    vertex -310.74259110078947 131.72475714794606 2.005719012009996
    vertex -311.7274733725119 131.4685204377729 2.005719012009996
  endloop
endfacet
facet normal 0.05088345361670718 -0.9987045980409004 0.0
  outer loop
    vertex -312.73329831400423 131.31370917246804 2.005719012009996
    vertex -313.7496490958322 131.26192665542857 0.005719012009999602
    vertex -312.73329831400423 131.31370917246804 0.005719012009999602
  endloop
endfacet
facet normal 0.05088345361670718 -0.9987045980409004 0.0
  outer loop
    vertex -313.7496490958322 131.26192665542857 0.005719012009999602
    vertex -312.73329831400423 131.31370917246804 2.005719012009996
    vertex -313.7496490958322 131.26192665542857 2.005719012009996
  endloop
endfacet
facet normal 0.15212338618994733 -0.9883615104677561 0.0
  outer loop
    vertex -311.7274733725119 131.4685204377729 2.005719012009996
    vertex -312.73329831400423 131.31370917246804 0.005719012009999602
    vertex -311.7274733725119 131.4685204377729 0.005719012009999602
  endloop
endfacet
facet normal 0.15212338618994733 -0.9883615104677561 0.0
  outer loop
    vertex -312.73329831400423 131.31370917246804 0.005719012009999602
    vertex -311.7274733725119 131.4685204377729 2.005719012009996
    vertex -312.73329831400423 131.31370917246804 2.005719012009996
  endloop
endfacet
facet normal 0.8767267557075231 -0.48098876891935977 0.0
  outer loop
    vertex -304.748994977191 136.90437855625765 0.005719012009999602
    vertex -305.23848237146217 136.01216085208284 2.005719012009996
    vertex -305.23848237146217 136.01216085208284 0.005719012009999602
  endloop
endfacet
facet normal 0.8767267557075231 -0.48098876891935977 0.0
  outer loop
    vertex -305.23848237146217 136.01216085208284 2.005719012009996
    vertex -304.748994977191 136.90437855625765 0.005719012009999602
    vertex -304.748994977191 136.90437855625765 2.005719012009996
  endloop
endfacet
facet normal 0.6915130557822594 -0.722363962059765 0.0
  outer loop
    vertex -306.4759126801017 134.39951027674104 2.005719012009996
    vertex -307.21104014326147 133.6957788267535 0.005719012009999602
    vertex -306.4759126801017 134.39951027674104 0.005719012009999602
  endloop
endfacet
facet normal 0.6915130557822594 -0.722363962059765 0.0
  outer loop
    vertex -307.21104014326147 133.6957788267535 0.005719012009999602
    vertex -306.4759126801017 134.39951027674104 2.005719012009996
    vertex -307.21104014326147 133.6957788267535 2.005719012009996
  endloop
endfacet
facet normal 0.82330151275673 -0.5676042803683566 0.0
  outer loop
    vertex -305.23848237146217 136.01216085208284 0.005719012009999602
    vertex -305.8161156929197 135.17431236534117 2.005719012009996
    vertex -305.8161156929197 135.17431236534117 0.005719012009999602
  endloop
endfacet
facet normal 0.82330151275673 -0.5676042803683566 0.0
  outer loop
    vertex -305.8161156929197 135.17431236534117 2.005719012009996
    vertex -305.23848237146217 136.01216085208284 0.005719012009999602
    vertex -305.23848237146217 136.01216085208284 2.005719012009996
  endloop
endfacet
facet normal 0.5311521392609612 -0.8472764631208072 0.0
  outer loop
    vertex -308.0138847323217 133.07040621253847 2.005719012009996
    vertex -308.8761317845597 132.52986910770645 0.005719012009999602
    vertex -308.0138847323217 133.07040621253847 0.005719012009999602
  endloop
endfacet
facet normal 0.5311521392609612 -0.8472764631208072 0.0
  outer loop
    vertex -308.8761317845597 132.52986910770645 0.005719012009999602
    vertex -308.0138847323217 133.07040621253847 2.005719012009996
    vertex -308.8761317845597 132.52986910770645 2.005719012009996
  endloop
endfacet
facet normal 0.4422886902189904 -0.8968727415326938 0.0
  outer loop
    vertex -308.8761317845597 132.52986910770645 2.005719012009996
    vertex -309.7888514354406 132.07976558662563 0.005719012009999602
    vertex -308.8761317845597 132.52986910770645 0.005719012009999602
  endloop
endfacet
facet normal 0.4422886902189904 -0.8968727415326938 0.0
  outer loop
    vertex -309.7888514354406 132.07976558662563 0.005719012009999602
    vertex -308.8761317845597 132.52986910770645 2.005719012009996
    vertex -309.7888514354406 132.07976558662563 2.005719012009996
  endloop
endfacet
facet normal 0.921072175024996 -0.3893918956459202 0.0
  outer loop
    vertex -304.352722887973 137.84172522217176 0.005719012009999602
    vertex -304.748994977191 136.90437855625765 2.005719012009996
    vertex -304.748994977191 136.90437855625765 0.005719012009999602
  endloop
endfacet
facet normal 0.921072175024996 -0.3893918956459202 0.0
  outer loop
    vertex -304.748994977191 136.90437855625765 2.005719012009996
    vertex -304.352722887973 137.84172522217176 0.005719012009999602
    vertex -304.352722887973 137.84172522217176 2.005719012009996
  endloop
endfacet
facet normal 0.0 -1.0 0.0
  outer loop
    vertex -313.7496490958322 131.26192665542857 2.005719012009996
    vertex -326.74757371373516 131.26192665542857 0.005719012009999602
    vertex -313.7496490958322 131.26192665542857 0.005719012009999602
  endloop
endfacet
facet normal 0.0 -1.0 0.0
  outer loop
    vertex -326.74757371373516 131.26192665542857 0.005719012009999602
    vertex -313.7496490958322 131.26192665542857 2.005719012009996
    vertex -326.74757371373516 131.26192665542857 2.005719012009996
  endloop
endfacet
facet normal 0.34884467684955833 -0.9371805543403722 0.0
  outer loop
    vertex -309.7888514354406 132.07976558662563 2.005719012009996
    vertex -310.74259110078947 131.72475714794606 0.005719012009999602
    vertex -309.7888514354406 132.07976558662563 0.005719012009999602
  endloop
endfacet
facet normal 0.34884467684955833 -0.9371805543403722 0.0
  outer loop
    vertex -310.74259110078947 131.72475714794606 0.005719012009999602
    vertex -309.7888514354406 132.07976558662563 2.005719012009996
    vertex -310.74259110078947 131.72475714794606 2.005719012009996
  endloop
endfacet
endsolid ProtoGlove
