solid ProtoGlove
facet normal 0.0 0.0 1.0
  outer loop
    vertex -51.57720284518057 134.96783142991595 2.0057190120100183
    vertex -51.57720284518057 137.5560218809411 2.0057190120100183
    vertex -51.747573713735235 136.26192665542854 2.0057190120100183
  endloop
endfacet
facet normal 0.0 0.0 1.0
  outer loop
    vertex -51.57720284518057 137.5560218809411 2.0057190120100183
    vertex -51.57720284518057 134.96783142991595 2.0057190120100183
    vertex -51.07770073265741 133.76192665542857 2.0057190120100183
  endloop
endfacet
facet normal 0.0 0.0 1.0
  outer loop
    vertex -51.57720284518057 137.5560218809411 2.0057190120100183
    vertex -51.07770073265741 133.76192665542857 2.0057190120100183
    vertex -51.07770073265741 138.7619266554285 2.0057190120100183
  endloop
endfacet
facet normal 0.0 0.0 1.0
  outer loop
    vertex -51.07770073265741 138.7619266554285 2.0057190120100183
    vertex -51.07770073265741 133.76192665542857 2.0057190120100183
    vertex -50.2831076196679 132.72639274949583 2.0057190120100183
  endloop
endfacet
facet normal 0.0 0.0 1.0
  outer loop
    vertex -51.07770073265741 138.7619266554285 2.0057190120100183
    vertex -50.2831076196679 132.72639274949583 2.0057190120100183
    vertex -50.2831076196679 139.79746056136122 2.0057190120100183
  endloop
endfacet
facet normal 0.0 0.0 1.0
  outer loop
    vertex -50.2831076196679 139.79746056136122 2.0057190120100183
    vertex -50.2831076196679 132.72639274949583 2.0057190120100183
    vertex -49.247573713735264 131.9317996365064 2.0057190120100183
  endloop
endfacet
facet normal 0.0 0.0 1.0
  outer loop
    vertex -50.2831076196679 139.79746056136122 2.0057190120100183
    vertex -49.247573713735264 131.9317996365064 2.0057190120100183
    vertex -49.247573713735264 140.59205367435064 2.0057190120100183
  endloop
endfacet
facet normal 0.0 0.0 1.0
  outer loop
    vertex -49.247573713735264 140.59205367435064 2.0057190120100183
    vertex -49.247573713735264 131.9317996365064 2.0057190120100183
    vertex -48.04166893924796 131.43229752398324 2.0057190120100183
  endloop
endfacet
facet normal 0.0 0.0 1.0
  outer loop
    vertex -49.247573713735264 140.59205367435064 2.0057190120100183
    vertex -48.04166893924796 131.43229752398324 2.0057190120100183
    vertex -48.04166893924796 141.0915557868738 2.0057190120100183
  endloop
endfacet
facet normal 0.0 0.0 1.0
  outer loop
    vertex -48.04166893924796 141.0915557868738 2.0057190120100183
    vertex -48.04166893924796 131.43229752398324 2.0057190120100183
    vertex -46.74757371373529 131.26192665542857 2.0057190120100183
  endloop
endfacet
facet normal 0.0 0.0 1.0
  outer loop
    vertex -48.04166893924796 141.0915557868738 2.0057190120100183
    vertex -46.74757371373529 131.26192665542857 2.0057190120100183
    vertex -46.74757371373529 141.26192665542848 2.0057190120100183
  endloop
endfacet
facet normal 0.0 0.0 1.0
  outer loop
    vertex -46.74757371373529 141.26192665542848 2.0057190120100183
    vertex -46.74757371373529 131.26192665542857 2.0057190120100183
    vertex -33.74964909583236 131.26192665542857 2.0057190120100183
  endloop
endfacet
facet normal 0.0 0.0 1.0
  outer loop
    vertex -46.74757371373529 141.26192665542848 2.0057190120100183
    vertex -33.74964909583236 131.26192665542857 2.0057190120100183
    vertex -39.07053795821169 141.26192665542848 2.0057190120100183
  endloop
endfacet
facet normal 0.0 0.0 1.0
  outer loop
    vertex -39.07053795821169 141.26192665542848 2.0057190120100183
    vertex -33.74964909583236 131.26192665542857 2.0057190120100183
    vertex -36.13326929832547 149.33200597333834 2.0057190120100183
  endloop
endfacet
facet normal 0.0 0.0 1.0
  outer loop
    vertex -36.13326929832547 149.33200597333834 2.0057190120100183
    vertex -33.74964909583236 131.26192665542857 2.0057190120100183
    vertex -35.229214974598555 151.06867817102872 2.0057190120100183
  endloop
endfacet
facet normal 0.0 0.0 1.0
  outer loop
    vertex -35.229214974598555 151.06867817102872 2.0057190120100183
    vertex -33.74964909583236 131.26192665542857 2.0057190120100183
    vertex -33.90648171508018 152.51218822178816 2.0057190120100183
  endloop
endfacet
facet normal 0.0 0.0 1.0
  outer loop
    vertex -33.90648171508018 152.51218822178816 2.0057190120100183
    vertex -33.74964909583236 131.26192665542857 2.0057190120100183
    vertex -32.25521160548642 153.56416330117074 2.0057190120100183
  endloop
endfacet
facet normal 0.0 0.0 1.0
  outer loop
    vertex -32.25521160548642 153.56416330117074 2.0057190120100183
    vertex -33.74964909583236 131.26192665542857 2.0057190120100183
    vertex -32.73329831400437 131.31370917246804 2.0057190120100183
  endloop
endfacet
facet normal 0.0 0.0 1.0
  outer loop
    vertex -32.25521160548642 153.56416330117074 2.0057190120100183
    vertex -32.73329831400437 131.31370917246804 2.0057190120100183
    vertex -31.727473372512044 131.4685204377729 2.0057190120100183
  endloop
endfacet
facet normal 0.0 0.0 1.0
  outer loop
    vertex -32.25521160548642 153.56416330117074 2.0057190120100183
    vertex -31.727473372512044 131.4685204377729 2.0057190120100183
    vertex -30.387935974933065 154.1529130459875 2.0057190120100183
  endloop
endfacet
facet normal 0.0 0.0 1.0
  outer loop
    vertex -30.387935974933065 154.1529130459875 2.0057190120100183
    vertex -31.727473372512044 131.4685204377729 2.0057190120100183
    vertex -30.742591100789614 131.72475714794606 2.0057190120100183
  endloop
endfacet
facet normal 0.0 0.0 1.0
  outer loop
    vertex -30.387935974933065 154.1529130459875 2.0057190120100183
    vertex -30.742591100789614 131.72475714794606 2.0057190120100183
    vertex -29.788851435440787 132.07976558662563 2.0057190120100183
  endloop
endfacet
facet normal 0.0 0.0 1.0
  outer loop
    vertex -30.387935974933065 154.1529130459875 2.0057190120100183
    vertex -29.788851435440787 132.07976558662563 2.0057190120100183
    vertex -28.431906571823657 154.23831513408402 2.0057190120100183
  endloop
endfacet
facet normal 0.0 0.0 1.0
  outer loop
    vertex -28.431906571823657 154.23831513408402 2.0057190120100183
    vertex -29.788851435440787 132.07976558662563 2.0057190120100183
    vertex -28.876131784559814 132.52986910770645 2.0057190120100183
  endloop
endfacet
facet normal 0.0 0.0 1.0
  outer loop
    vertex -28.431906571823657 154.23831513408402 2.0057190120100183
    vertex -28.876131784559814 132.52986910770645 2.0057190120100183
    vertex -28.01388473232186 133.07040621253847 2.0057190120100183
  endloop
endfacet
facet normal 0.0 0.0 1.0
  outer loop
    vertex -28.431906571823657 154.23831513408402 2.0057190120100183
    vertex -28.01388473232186 133.07040621253847 2.0057190120100183
    vertex -26.520423567488617 153.81454955429027 2.0057190120100183
  endloop
endfacet
facet normal 0.0 0.0 1.0
  outer loop
    vertex -26.520423567488617 153.81454955429027 2.0057190120100183
    vertex -28.01388473232186 133.07040621253847 2.0057190120100183
    vertex -27.21104014326163 133.6957788267535 2.0057190120100183
  endloop
endfacet
facet normal 0.0 0.0 1.0
  outer loop
    vertex -26.520423567488617 153.81454955429027 2.0057190120100183
    vertex -27.21104014326163 133.6957788267535 2.0057190120100183
    vertex -26.475912680101874 134.39951027674104 2.0057190120100183
  endloop
endfacet
facet normal 0.0 0.0 1.0
  outer loop
    vertex -26.520423567488617 153.81454955429027 2.0057190120100183
    vertex -26.475912680101874 134.39951027674104 2.0057190120100183
    vertex -24.783751369798342 152.91049523056344 2.0057190120100183
  endloop
endfacet
facet normal 0.0 0.0 1.0
  outer loop
    vertex -24.783751369798342 152.91049523056344 2.0057190120100183
    vertex -26.475912680101874 134.39951027674104 2.0057190120100183
    vertex -25.816115692919876 135.17431236534117 2.0057190120100183
  endloop
endfacet
facet normal 0.0 0.0 1.0
  outer loop
    vertex -24.783751369798342 152.91049523056344 2.0057190120100183
    vertex -25.816115692919876 135.17431236534117 2.0057190120100183
    vertex -25.238482371462304 136.01216085208284 2.0057190120100183
  endloop
endfacet
facet normal 0.0 0.0 1.0
  outer loop
    vertex -24.783751369798342 152.91049523056344 2.0057190120100183
    vertex -25.238482371462304 136.01216085208284 2.0057190120100183
    vertex -24.748994977191128 136.90437855625765 2.0057190120100183
  endloop
endfacet
facet normal 0.0 0.0 1.0
  outer loop
    vertex -24.783751369798342 152.91049523056344 2.0057190120100183
    vertex -24.748994977191128 136.90437855625765 2.0057190120100183
    vertex -23.34024131903881 151.58776197104507 2.0057190120100183
  endloop
endfacet
facet normal 0.0 0.0 1.0
  outer loop
    vertex -23.34024131903881 151.58776197104507 2.0057190120100183
    vertex -24.748994977191128 136.90437855625765 2.0057190120100183
    vertex -24.352722887973172 137.84172522217176 2.0057190120100183
  endloop
endfacet
facet normal 0.0 0.0 1.0
  outer loop
    vertex -23.34024131903881 151.58776197104507 2.0057190120100183
    vertex -24.352722887973172 137.84172522217176 2.0057190120100183
    vertex -22.037879986536606 144.2017038234535 2.0057190120100183
  endloop
endfacet
facet normal 0.0 0.0 1.0
  outer loop
    vertex -23.34024131903881 151.58776197104507 2.0057190120100183
    vertex -22.037879986536606 144.2017038234535 2.0057190120100183
    vertex -22.28826623965614 149.93649186145123 2.0057190120100183
  endloop
endfacet
facet normal 0.0 0.0 1.0
  outer loop
    vertex -22.28826623965614 149.93649186145123 2.0057190120100183
    vertex -22.037879986536606 144.2017038234535 2.0057190120100183
    vertex -21.69951649483947 148.06921623089804 2.0057190120100183
  endloop
endfacet
facet normal 0.0 0.0 1.0
  outer loop
    vertex -21.69951649483947 148.06921623089804 2.0057190120100183
    vertex -22.037879986536606 144.2017038234535 2.0057190120100183
    vertex -21.61411440674296 146.11318682778855 2.0057190120100183
  endloop
endfacet
facet normal 0.9537169507482253 0.3007057995042783 0.0
  outer loop
    vertex -22.28826623965614 149.93649186145123 0.005719012009999602
    vertex -21.69951649483947 148.06921623089804 2.0057190120100183
    vertex -21.69951649483947 148.06921623089804 0.005719012009999602
  endloop
endfacet
facet normal 0.9537169507482253 0.3007057995042783 0.0
  outer loop
    vertex -21.69951649483947 148.06921623089804 2.0057190120100183
    vertex -22.28826623965614 149.93649186145123 0.005719012009999602
    vertex -22.28826623965614 149.93649186145123 2.0057190120100183
  endloop
endfacet
facet normal -0.939692620785919 0.3420201433256402 0.0
  outer loop
    vertex -36.13326929832547 149.33200597333834 2.0057190120100183
    vertex -39.07053795821169 141.26192665542848 0.005719012009999602
    vertex -39.07053795821169 141.26192665542848 2.0057190120100183
  endloop
endfacet
facet normal -0.939692620785919 0.3420201433256402 0.0
  outer loop
    vertex -39.07053795821169 141.26192665542848 0.005719012009999602
    vertex -36.13326929832547 149.33200597333834 2.0057190120100183
    vertex -36.13326929832547 149.33200597333834 0.005719012009999602
  endloop
endfacet
facet normal -0.3007057995042938 0.9537169507482204 0.0
  outer loop
    vertex -32.25521160548642 153.56416330117074 2.0057190120100183
    vertex -30.387935974933065 154.1529130459875 0.005719012009999602
    vertex -32.25521160548642 153.56416330117074 0.005719012009999602
  endloop
endfacet
facet normal -0.3007057995042938 0.9537169507482204 0.0
  outer loop
    vertex -30.387935974933065 154.1529130459875 0.005719012009999602
    vertex -32.25521160548642 153.56416330117074 2.0057190120100183
    vertex -30.387935974933065 154.1529130459875 2.0057190120100183
  endloop
endfacet
facet normal -0.1305261922200494 0.9914448613738107 0.0
  outer loop
    vertex -48.04166893924796 141.0915557868738 2.0057190120100183
    vertex -46.74757371373529 141.26192665542848 0.005719012009999602
    vertex -48.04166893924796 141.0915557868738 0.005719012009999602
  endloop
endfacet
facet normal -0.1305261922200494 0.9914448613738107 0.0
  outer loop
    vertex -46.74757371373529 141.26192665542848 0.005719012009999602
    vertex -48.04166893924796 141.0915557868738 2.0057190120100183
    vertex -46.74757371373529 141.26192665542848 2.0057190120100183
  endloop
endfacet
facet normal -0.7372773368101182 0.6755902076156666 0.0
  outer loop
    vertex -33.90648171508018 152.51218822178816 2.0057190120100183
    vertex -35.229214974598555 151.06867817102872 0.005719012009999602
    vertex -35.229214974598555 151.06867817102872 2.0057190120100183
  endloop
endfacet
facet normal -0.7372773368101182 0.6755902076156666 0.0
  outer loop
    vertex -35.229214974598555 151.06867817102872 0.005719012009999602
    vertex -33.90648171508018 152.51218822178816 2.0057190120100183
    vertex -33.90648171508018 152.51218822178816 0.005719012009999602
  endloop
endfacet
facet normal 0.6755902076156436 0.7372773368101393 0.0
  outer loop
    vertex -24.783751369798342 152.91049523056344 2.0057190120100183
    vertex -23.34024131903881 151.58776197104507 0.005719012009999602
    vertex -24.783751369798342 152.91049523056344 0.005719012009999602
  endloop
endfacet
facet normal 0.6755902076156436 0.7372773368101393 0.0
  outer loop
    vertex -23.34024131903881 151.58776197104507 0.005719012009999602
    vertex -24.783751369798342 152.91049523056344 2.0057190120100183
    vertex -23.34024131903881 151.58776197104507 2.0057190120100183
  endloop
endfacet
facet normal 0.0 1.0 0.0
  outer loop
    vertex -46.74757371373529 141.26192665542848 2.0057190120100183
    vertex -39.07053795821169 141.26192665542848 0.005719012009999602
    vertex -46.74757371373529 141.26192665542848 0.005719012009999602
  endloop
endfacet
facet normal 0.0 1.0 0.0
  outer loop
    vertex -39.07053795821169 141.26192665542848 0.005719012009999602
    vertex -46.74757371373529 141.26192665542848 2.0057190120100183
    vertex -39.07053795821169 141.26192665542848 2.0057190120100183
  endloop
endfacet
facet normal -0.38268343236512214 0.9238795325112735 0.0
  outer loop
    vertex -49.247573713735264 140.59205367435064 2.0057190120100183
    vertex -48.04166893924796 141.0915557868738 0.005719012009999602
    vertex -49.247573713735264 140.59205367435064 0.005719012009999602
  endloop
endfacet
facet normal -0.38268343236512214 0.9238795325112735 0.0
  outer loop
    vertex -48.04166893924796 141.0915557868738 0.005719012009999602
    vertex -49.247573713735264 140.59205367435064 2.0057190120100183
    vertex -48.04166893924796 141.0915557868738 2.0057190120100183
  endloop
endfacet
facet normal -0.6087614290087409 0.7933533402912197 0.0
  outer loop
    vertex -50.2831076196679 139.79746056136122 2.0057190120100183
    vertex -49.247573713735264 140.59205367435064 0.005719012009999602
    vertex -50.2831076196679 139.79746056136122 0.005719012009999602
  endloop
endfacet
facet normal -0.6087614290087409 0.7933533402912197 0.0
  outer loop
    vertex -49.247573713735264 140.59205367435064 0.005719012009999602
    vertex -50.2831076196679 139.79746056136122 2.0057190120100183
    vertex -49.247573713735264 140.59205367435064 2.0057190120100183
  endloop
endfacet
facet normal -0.793353340291212 0.608761429008751 0.0
  outer loop
    vertex -50.2831076196679 139.79746056136122 2.0057190120100183
    vertex -51.07770073265741 138.7619266554285 0.005719012009999602
    vertex -51.07770073265741 138.7619266554285 2.0057190120100183
  endloop
endfacet
facet normal -0.793353340291212 0.608761429008751 0.0
  outer loop
    vertex -51.07770073265741 138.7619266554285 0.005719012009999602
    vertex -50.2831076196679 139.79746056136122 2.0057190120100183
    vertex -50.2831076196679 139.79746056136122 0.005719012009999602
  endloop
endfacet
facet normal 0.8433914458128632 0.5372996083468592 0.0
  outer loop
    vertex -23.34024131903881 151.58776197104507 0.005719012009999602
    vertex -22.28826623965614 149.93649186145123 2.0057190120100183
    vertex -22.28826623965614 149.93649186145123 0.005719012009999602
  endloop
endfacet
facet normal 0.8433914458128632 0.5372996083468592 0.0
  outer loop
    vertex -22.28826623965614 149.93649186145123 2.0057190120100183
    vertex -23.34024131903881 151.58776197104507 0.005719012009999602
    vertex -23.34024131903881 151.58776197104507 2.0057190120100183
  endloop
endfacet
facet normal -0.9238795325112836 0.3826834323650976 0.0
  outer loop
    vertex -51.07770073265741 138.7619266554285 2.0057190120100183
    vertex -51.57720284518057 137.5560218809411 0.005719012009999602
    vertex -51.57720284518057 137.5560218809411 2.0057190120100183
  endloop
endfacet
facet normal -0.9238795325112836 0.3826834323650976 0.0
  outer loop
    vertex -51.57720284518057 137.5560218809411 0.005719012009999602
    vertex -51.07770073265741 138.7619266554285 2.0057190120100183
    vertex -51.07770073265741 138.7619266554285 0.005719012009999602
  endloop
endfacet
facet normal 0.9762960071199471 -0.2164396139380414 0.0
  outer loop
    vertex -21.61411440674296 146.11318682778855 0.005719012009999602
    vertex -22.037879986536606 144.2017038234535 2.0057190120100183
    vertex -22.037879986536606 144.2017038234535 0.005719012009999602
  endloop
endfacet
facet normal 0.9762960071199471 -0.2164396139380414 0.0
  outer loop
    vertex -22.037879986536606 144.2017038234535 2.0057190120100183
    vertex -21.61411440674296 146.11318682778855 0.005719012009999602
    vertex -21.61411440674296 146.11318682778855 2.0057190120100183
  endloop
endfacet
facet normal 0.921072175024996 -0.3893918956459202 0.0
  outer loop
    vertex -24.352722887973172 137.84172522217176 0.005719012009999602
    vertex -24.748994977191128 136.90437855625765 2.0057190120100183
    vertex -24.748994977191128 136.90437855625765 0.005719012009999602
  endloop
endfacet
facet normal 0.921072175024996 -0.3893918956459202 0.0
  outer loop
    vertex -24.748994977191128 136.90437855625765 2.0057190120100183
    vertex -24.352722887973172 137.84172522217176 0.005719012009999602
    vertex -24.352722887973172 137.84172522217176 2.0057190120100183
  endloop
endfacet
facet normal 0.9990482215818582 0.043619387365323864 0.0
  outer loop
    vertex -21.69951649483947 148.06921623089804 0.005719012009999602
    vertex -21.61411440674296 146.11318682778855 2.0057190120100183
    vertex -21.61411440674296 146.11318682778855 0.005719012009999602
  endloop
endfacet
facet normal 0.9990482215818582 0.043619387365323864 0.0
  outer loop
    vertex -21.61411440674296 146.11318682778855 2.0057190120100183
    vertex -21.69951649483947 148.06921623089804 0.005719012009999602
    vertex -21.69951649483947 148.06921623089804 2.0057190120100183
  endloop
endfacet
facet normal -0.04361938736532588 0.9990482215818582 0.0
  outer loop
    vertex -30.387935974933065 154.1529130459875 2.0057190120100183
    vertex -28.431906571823657 154.23831513408402 0.005719012009999602
    vertex -30.387935974933065 154.1529130459875 0.005719012009999602
  endloop
endfacet
facet normal -0.04361938736532588 0.9990482215818582 0.0
  outer loop
    vertex -28.431906571823657 154.23831513408402 0.005719012009999602
    vertex -30.387935974933065 154.1529130459875 2.0057190120100183
    vertex -28.431906571823657 154.23831513408402 2.0057190120100183
  endloop
endfacet
facet normal 0.9396926207859075 -0.3420201433256711 0.0
  outer loop
    vertex -22.037879986536606 144.2017038234535 0.005719012009999602
    vertex -24.352722887973172 137.84172522217176 2.0057190120100183
    vertex -24.352722887973172 137.84172522217176 0.005719012009999602
  endloop
endfacet
facet normal 0.9396926207859075 -0.3420201433256711 0.0
  outer loop
    vertex -24.352722887973172 137.84172522217176 2.0057190120100183
    vertex -22.037879986536606 144.2017038234535 0.005719012009999602
    vertex -22.037879986536606 144.2017038234535 2.0057190120100183
  endloop
endfacet
facet normal 0.4617486132350272 0.8870108331782254 0.0
  outer loop
    vertex -26.520423567488617 153.81454955429027 2.0057190120100183
    vertex -24.783751369798342 152.91049523056344 0.005719012009999602
    vertex -26.520423567488617 153.81454955429027 0.005719012009999602
  endloop
endfacet
facet normal 0.4617486132350272 0.8870108331782254 0.0
  outer loop
    vertex -24.783751369798342 152.91049523056344 0.005719012009999602
    vertex -26.520423567488617 153.81454955429027 2.0057190120100183
    vertex -24.783751369798342 152.91049523056344 2.0057190120100183
  endloop
endfacet
facet normal 0.21643961393808528 0.9762960071199372 0.0
  outer loop
    vertex -28.431906571823657 154.23831513408402 2.0057190120100183
    vertex -26.520423567488617 153.81454955429027 0.005719012009999602
    vertex -28.431906571823657 154.23831513408402 0.005719012009999602
  endloop
endfacet
facet normal 0.21643961393808528 0.9762960071199372 0.0
  outer loop
    vertex -26.520423567488617 153.81454955429027 0.005719012009999602
    vertex -28.431906571823657 154.23831513408402 2.0057190120100183
    vertex -26.520423567488617 153.81454955429027 2.0057190120100183
  endloop
endfacet
facet normal -0.5372996083468473 0.843391445812871 0.0
  outer loop
    vertex -33.90648171508018 152.51218822178816 2.0057190120100183
    vertex -32.25521160548642 153.56416330117074 0.005719012009999602
    vertex -33.90648171508018 152.51218822178816 0.005719012009999602
  endloop
endfacet
facet normal -0.5372996083468473 0.843391445812871 0.0
  outer loop
    vertex -32.25521160548642 153.56416330117074 0.005719012009999602
    vertex -33.90648171508018 152.51218822178816 2.0057190120100183
    vertex -32.25521160548642 153.56416330117074 2.0057190120100183
  endloop
endfacet
facet normal -0.8870108331782163 0.4617486132350445 0.0
  outer loop
    vertex -35.229214974598555 151.06867817102872 2.0057190120100183
    vertex -36.13326929832547 149.33200597333834 0.005719012009999602
    vertex -36.13326929832547 149.33200597333834 2.0057190120100183
  endloop
endfacet
facet normal -0.8870108331782163 0.4617486132350445 0.0
  outer loop
    vertex -36.13326929832547 149.33200597333834 0.005719012009999602
    vertex -35.229214974598555 151.06867817102872 2.0057190120100183
    vertex -35.229214974598555 151.06867817102872 0.005719012009999602
  endloop
endfacet
facet normal 0.82330151275673 -0.5676042803683566 0.0
  outer loop
    vertex -25.238482371462304 136.01216085208284 0.005719012009999602
    vertex -25.816115692919876 135.17431236534117 2.0057190120100183
    vertex -25.816115692919876 135.17431236534117 0.005719012009999602
  endloop
endfacet
facet normal 0.82330151275673 -0.5676042803683566 0.0
  outer loop
    vertex -25.816115692919876 135.17431236534117 2.0057190120100183
    vertex -25.238482371462304 136.01216085208284 0.005719012009999602
    vertex -25.238482371462304 136.01216085208284 2.0057190120100183
  endloop
endfacet
facet normal -0.9238795325112836 -0.3826834323650976 0.0
  outer loop
    vertex -51.57720284518057 134.96783142991595 2.0057190120100183
    vertex -51.07770073265741 133.76192665542857 0.005719012009999602
    vertex -51.07770073265741 133.76192665542857 2.0057190120100183
  endloop
endfacet
facet normal -0.9238795325112836 -0.3826834323650976 0.0
  outer loop
    vertex -51.07770073265741 133.76192665542857 0.005719012009999602
    vertex -51.57720284518057 134.96783142991595 2.0057190120100183
    vertex -51.57720284518057 134.96783142991595 0.005719012009999602
  endloop
endfacet
facet normal -0.38268343236512214 -0.9238795325112735 0.0
  outer loop
    vertex -48.04166893924796 131.43229752398324 2.0057190120100183
    vertex -49.247573713735264 131.9317996365064 0.005719012009999602
    vertex -48.04166893924796 131.43229752398324 0.005719012009999602
  endloop
endfacet
facet normal -0.38268343236512214 -0.9238795325112735 0.0
  outer loop
    vertex -49.247573713735264 131.9317996365064 0.005719012009999602
    vertex -48.04166893924796 131.43229752398324 2.0057190120100183
    vertex -49.247573713735264 131.9317996365064 2.0057190120100183
  endloop
endfacet
facet normal 0.6145147093624947 -0.7889053631311737 0.0
  outer loop
    vertex -27.21104014326163 133.6957788267535 2.0057190120100183
    vertex -28.01388473232186 133.07040621253847 0.005719012009999602
    vertex -27.21104014326163 133.6957788267535 0.005719012009999602
  endloop
endfacet
facet normal 0.6145147093624947 -0.7889053631311737 0.0
  outer loop
    vertex -28.01388473232186 133.07040621253847 0.005719012009999602
    vertex -27.21104014326163 133.6957788267535 2.0057190120100183
    vertex -28.01388473232186 133.07040621253847 2.0057190120100183
  endloop
endfacet
facet normal 0.25178785239533713 -0.9677824535432248 0.0
  outer loop
    vertex -30.742591100789614 131.72475714794606 2.0057190120100183
    vertex -31.727473372512044 131.4685204377729 0.005719012009999602
    vertex -30.742591100789614 131.72475714794606 0.005719012009999602
  endloop
endfacet
facet normal 0.25178785239533713 -0.9677824535432248 0.0
  outer loop
    vertex -31.727473372512044 131.4685204377729 0.005719012009999602
    vertex -30.742591100789614 131.72475714794606 2.0057190120100183
    vertex -31.727473372512044 131.4685204377729 2.0057190120100183
  endloop
endfacet
facet normal 0.7613497448831681 -0.6483413961535506 0.0
  outer loop
    vertex -25.816115692919876 135.17431236534117 0.005719012009999602
    vertex -26.475912680101874 134.39951027674104 2.0057190120100183
    vertex -26.475912680101874 134.39951027674104 0.005719012009999602
  endloop
endfacet
facet normal 0.7613497448831681 -0.6483413961535506 0.0
  outer loop
    vertex -26.475912680101874 134.39951027674104 2.0057190120100183
    vertex -25.816115692919876 135.17431236534117 0.005719012009999602
    vertex -25.816115692919876 135.17431236534117 2.0057190120100183
  endloop
endfacet
facet normal 0.8767267557075231 -0.48098876891935977 0.0
  outer loop
    vertex -24.748994977191128 136.90437855625765 0.005719012009999602
    vertex -25.238482371462304 136.01216085208284 2.0057190120100183
    vertex -25.238482371462304 136.01216085208284 0.005719012009999602
  endloop
endfacet
facet normal 0.8767267557075231 -0.48098876891935977 0.0
  outer loop
    vertex -25.238482371462304 136.01216085208284 2.0057190120100183
    vertex -24.748994977191128 136.90437855625765 0.005719012009999602
    vertex -24.748994977191128 136.90437855625765 2.0057190120100183
  endloop
endfacet
facet normal -0.9914448613738096 0.13052619222005837 0.0
  outer loop
    vertex -51.57720284518057 137.5560218809411 2.0057190120100183
    vertex -51.747573713735235 136.26192665542854 0.005719012009999602
    vertex -51.747573713735235 136.26192665542854 2.0057190120100183
  endloop
endfacet
facet normal -0.9914448613738096 0.13052619222005837 0.0
  outer loop
    vertex -51.747573713735235 136.26192665542854 0.005719012009999602
    vertex -51.57720284518057 137.5560218809411 2.0057190120100183
    vertex -51.57720284518057 137.5560218809411 0.005719012009999602
  endloop
endfacet
facet normal -0.1305261922200494 -0.9914448613738107 0.0
  outer loop
    vertex -46.74757371373529 131.26192665542857 2.0057190120100183
    vertex -48.04166893924796 131.43229752398324 0.005719012009999602
    vertex -46.74757371373529 131.26192665542857 0.005719012009999602
  endloop
endfacet
facet normal -0.1305261922200494 -0.9914448613738107 0.0
  outer loop
    vertex -48.04166893924796 131.43229752398324 0.005719012009999602
    vertex -46.74757371373529 131.26192665542857 2.0057190120100183
    vertex -48.04166893924796 131.43229752398324 2.0057190120100183
  endloop
endfacet
facet normal 0.6915130557822594 -0.722363962059765 0.0
  outer loop
    vertex -26.475912680101874 134.39951027674104 2.0057190120100183
    vertex -27.21104014326163 133.6957788267535 0.005719012009999602
    vertex -26.475912680101874 134.39951027674104 0.005719012009999602
  endloop
endfacet
facet normal 0.6915130557822594 -0.722363962059765 0.0
  outer loop
    vertex -27.21104014326163 133.6957788267535 0.005719012009999602
    vertex -26.475912680101874 134.39951027674104 2.0057190120100183
    vertex -27.21104014326163 133.6957788267535 2.0057190120100183
  endloop
endfacet
facet normal 0.5311521392609612 -0.8472764631208072 0.0
  outer loop
    vertex -28.01388473232186 133.07040621253847 2.0057190120100183
    vertex -28.876131784559814 132.52986910770645 0.005719012009999602
    vertex -28.01388473232186 133.07040621253847 0.005719012009999602
  endloop
endfacet
facet normal 0.5311521392609612 -0.8472764631208072 0.0
  outer loop
    vertex -28.876131784559814 132.52986910770645 0.005719012009999602
    vertex -28.01388473232186 133.07040621253847 2.0057190120100183
    vertex -28.876131784559814 132.52986910770645 2.0057190120100183
  endloop
endfacet
facet normal -0.793353340291212 -0.608761429008751 0.0
  outer loop
    vertex -51.07770073265741 133.76192665542857 2.0057190120100183
    vertex -50.2831076196679 132.72639274949583 0.005719012009999602
    vertex -50.2831076196679 132.72639274949583 2.0057190120100183
  endloop
endfacet
facet normal -0.793353340291212 -0.608761429008751 0.0
  outer loop
    vertex -50.2831076196679 132.72639274949583 0.005719012009999602
    vertex -51.07770073265741 133.76192665542857 2.0057190120100183
    vertex -51.07770073265741 133.76192665542857 0.005719012009999602
  endloop
endfacet
facet normal 0.34884467684955833 -0.9371805543403722 0.0
  outer loop
    vertex -29.788851435440787 132.07976558662563 2.0057190120100183
    vertex -30.742591100789614 131.72475714794606 0.005719012009999602
    vertex -29.788851435440787 132.07976558662563 0.005719012009999602
  endloop
endfacet
facet normal 0.34884467684955833 -0.9371805543403722 0.0
  outer loop
    vertex -30.742591100789614 131.72475714794606 0.005719012009999602
    vertex -29.788851435440787 132.07976558662563 2.0057190120100183
    vertex -30.742591100789614 131.72475714794606 2.0057190120100183
  endloop
endfacet
facet normal 0.4422886902189904 -0.8968727415326938 0.0
  outer loop
    vertex -28.876131784559814 132.52986910770645 2.0057190120100183
    vertex -29.788851435440787 132.07976558662563 0.005719012009999602
    vertex -28.876131784559814 132.52986910770645 0.005719012009999602
  endloop
endfacet
facet normal 0.4422886902189904 -0.8968727415326938 0.0
  outer loop
    vertex -29.788851435440787 132.07976558662563 0.005719012009999602
    vertex -28.876131784559814 132.52986910770645 2.0057190120100183
    vertex -29.788851435440787 132.07976558662563 2.0057190120100183
  endloop
endfacet
facet normal -0.6087614290087409 -0.7933533402912197 0.0
  outer loop
    vertex -49.247573713735264 131.9317996365064 2.0057190120100183
    vertex -50.2831076196679 132.72639274949583 0.005719012009999602
    vertex -49.247573713735264 131.9317996365064 0.005719012009999602
  endloop
endfacet
facet normal -0.6087614290087409 -0.7933533402912197 0.0
  outer loop
    vertex -50.2831076196679 132.72639274949583 0.005719012009999602
    vertex -49.247573713735264 131.9317996365064 2.0057190120100183
    vertex -50.2831076196679 132.72639274949583 2.0057190120100183
  endloop
endfacet
facet normal 0.05088345361670718 -0.9987045980409004 0.0
  outer loop
    vertex -32.73329831400437 131.31370917246804 2.0057190120100183
    vertex -33.74964909583236 131.26192665542857 0.005719012009999602
    vertex -32.73329831400437 131.31370917246804 0.005719012009999602
  endloop
endfacet
facet normal 0.05088345361670718 -0.9987045980409004 0.0
  outer loop
    vertex -33.74964909583236 131.26192665542857 0.005719012009999602
    vertex -32.73329831400437 131.31370917246804 2.0057190120100183
    vertex -33.74964909583236 131.26192665542857 2.0057190120100183
  endloop
endfacet
facet normal 0.0 -1.0 0.0
  outer loop
    vertex -33.74964909583236 131.26192665542857 2.0057190120100183
    vertex -46.74757371373529 131.26192665542857 0.005719012009999602
    vertex -33.74964909583236 131.26192665542857 0.005719012009999602
  endloop
endfacet
facet normal 0.0 -1.0 0.0
  outer loop
    vertex -46.74757371373529 131.26192665542857 0.005719012009999602
    vertex -33.74964909583236 131.26192665542857 2.0057190120100183
    vertex -46.74757371373529 131.26192665542857 2.0057190120100183
  endloop
endfacet
facet normal -0.9914448613738096 -0.13052619222005837 0.0
  outer loop
    vertex -51.747573713735235 136.26192665542854 2.0057190120100183
    vertex -51.57720284518057 134.96783142991595 0.005719012009999602
    vertex -51.57720284518057 134.96783142991595 2.0057190120100183
  endloop
endfacet
facet normal -0.9914448613738096 -0.13052619222005837 0.0
  outer loop
    vertex -51.57720284518057 134.96783142991595 0.005719012009999602
    vertex -51.747573713735235 136.26192665542854 2.0057190120100183
    vertex -51.747573713735235 136.26192665542854 0.005719012009999602
  endloop
endfacet
facet normal 0.15212338618994733 -0.9883615104677561 0.0
  outer loop
    vertex -31.727473372512044 131.4685204377729 2.0057190120100183
    vertex -32.73329831400437 131.31370917246804 0.005719012009999602
    vertex -31.727473372512044 131.4685204377729 0.005719012009999602
  endloop
endfacet
facet normal 0.15212338618994733 -0.9883615104677561 0.0
  outer loop
    vertex -32.73329831400437 131.31370917246804 0.005719012009999602
    vertex -31.727473372512044 131.4685204377729 2.0057190120100183
    vertex -32.73329831400437 131.31370917246804 2.0057190120100183
  endloop
endfacet
facet normal -0.0 -0.0 -1.0
  outer loop
    vertex -51.57720284518057 137.5560218809411 0.005719012009999602
    vertex -51.57720284518057 134.96783142991595 0.005719012009999602
    vertex -51.747573713735235 136.26192665542854 0.005719012009999602
  endloop
endfacet
facet normal -0.0 -0.0 -1.0
  outer loop
    vertex -51.57720284518057 134.96783142991595 0.005719012009999602
    vertex -51.57720284518057 137.5560218809411 0.005719012009999602
    vertex -51.07770073265741 138.7619266554285 0.005719012009999602
  endloop
endfacet
facet normal -0.0 -0.0 -1.0
  outer loop
    vertex -51.57720284518057 134.96783142991595 0.005719012009999602
    vertex -51.07770073265741 138.7619266554285 0.005719012009999602
    vertex -51.07770073265741 133.76192665542857 0.005719012009999602
  endloop
endfacet
facet normal -0.0 -0.0 -1.0
  outer loop
    vertex -51.07770073265741 133.76192665542857 0.005719012009999602
    vertex -51.07770073265741 138.7619266554285 0.005719012009999602
    vertex -50.2831076196679 139.79746056136122 0.005719012009999602
  endloop
endfacet
facet normal -0.0 -0.0 -1.0
  outer loop
    vertex -51.07770073265741 133.76192665542857 0.005719012009999602
    vertex -50.2831076196679 139.79746056136122 0.005719012009999602
    vertex -50.2831076196679 132.72639274949583 0.005719012009999602
  endloop
endfacet
facet normal -0.0 -0.0 -1.0
  outer loop
    vertex -50.2831076196679 132.72639274949583 0.005719012009999602
    vertex -50.2831076196679 139.79746056136122 0.005719012009999602
    vertex -49.247573713735264 140.59205367435064 0.005719012009999602
  endloop
endfacet
facet normal -0.0 -0.0 -1.0
  outer loop
    vertex -50.2831076196679 132.72639274949583 0.005719012009999602
    vertex -49.247573713735264 140.59205367435064 0.005719012009999602
    vertex -49.247573713735264 131.9317996365064 0.005719012009999602
  endloop
endfacet
facet normal -0.0 -0.0 -1.0
  outer loop
    vertex -49.247573713735264 131.9317996365064 0.005719012009999602
    vertex -49.247573713735264 140.59205367435064 0.005719012009999602
    vertex -48.04166893924796 141.0915557868738 0.005719012009999602
  endloop
endfacet
facet normal -0.0 -0.0 -1.0
  outer loop
    vertex -49.247573713735264 131.9317996365064 0.005719012009999602
    vertex -48.04166893924796 141.0915557868738 0.005719012009999602
    vertex -48.04166893924796 131.43229752398324 0.005719012009999602
  endloop
endfacet
facet normal -0.0 -0.0 -1.0
  outer loop
    vertex -48.04166893924796 131.43229752398324 0.005719012009999602
    vertex -48.04166893924796 141.0915557868738 0.005719012009999602
    vertex -46.74757371373529 141.26192665542848 0.005719012009999602
  endloop
endfacet
facet normal -0.0 -0.0 -1.0
  outer loop
    vertex -48.04166893924796 131.43229752398324 0.005719012009999602
    vertex -46.74757371373529 141.26192665542848 0.005719012009999602
    vertex -46.74757371373529 131.26192665542857 0.005719012009999602
  endloop
endfacet
facet normal -0.0 -0.0 -1.0
  outer loop
    vertex -46.74757371373529 131.26192665542857 0.005719012009999602
    vertex -46.74757371373529 141.26192665542848 0.005719012009999602
    vertex -39.07053795821169 141.26192665542848 0.005719012009999602
  endloop
endfacet
facet normal -0.0 -0.0 -1.0
  outer loop
    vertex -46.74757371373529 131.26192665542857 0.005719012009999602
    vertex -39.07053795821169 141.26192665542848 0.005719012009999602
    vertex -33.74964909583236 131.26192665542857 0.005719012009999602
  endloop
endfacet
facet normal -0.0 -0.0 -1.0
  outer loop
    vertex -33.74964909583236 131.26192665542857 0.005719012009999602
    vertex -39.07053795821169 141.26192665542848 0.005719012009999602
    vertex -36.13326929832547 149.33200597333834 0.005719012009999602
  endloop
endfacet
facet normal -0.0 -0.0 -1.0
  outer loop
    vertex -33.74964909583236 131.26192665542857 0.005719012009999602
    vertex -36.13326929832547 149.33200597333834 0.005719012009999602
    vertex -35.229214974598555 151.06867817102872 0.005719012009999602
  endloop
endfacet
facet normal -0.0 -0.0 -1.0
  outer loop
    vertex -33.74964909583236 131.26192665542857 0.005719012009999602
    vertex -35.229214974598555 151.06867817102872 0.005719012009999602
    vertex -33.90648171508018 152.51218822178816 0.005719012009999602
  endloop
endfacet
facet normal -0.0 -0.0 -1.0
  outer loop
    vertex -33.74964909583236 131.26192665542857 0.005719012009999602
    vertex -33.90648171508018 152.51218822178816 0.005719012009999602
    vertex -32.25521160548642 153.56416330117074 0.005719012009999602
  endloop
endfacet
facet normal -0.0 -0.0 -1.0
  outer loop
    vertex -33.74964909583236 131.26192665542857 0.005719012009999602
    vertex -32.25521160548642 153.56416330117074 0.005719012009999602
    vertex -32.73329831400437 131.31370917246804 0.005719012009999602
  endloop
endfacet
facet normal -0.0 -0.0 -1.0
  outer loop
    vertex -32.73329831400437 131.31370917246804 0.005719012009999602
    vertex -32.25521160548642 153.56416330117074 0.005719012009999602
    vertex -31.727473372512044 131.4685204377729 0.005719012009999602
  endloop
endfacet
facet normal -0.0 -0.0 -1.0
  outer loop
    vertex -31.727473372512044 131.4685204377729 0.005719012009999602
    vertex -32.25521160548642 153.56416330117074 0.005719012009999602
    vertex -30.387935974933065 154.1529130459875 0.005719012009999602
  endloop
endfacet
facet normal -0.0 -0.0 -1.0
  outer loop
    vertex -31.727473372512044 131.4685204377729 0.005719012009999602
    vertex -30.387935974933065 154.1529130459875 0.005719012009999602
    vertex -30.742591100789614 131.72475714794606 0.005719012009999602
  endloop
endfacet
facet normal -0.0 -0.0 -1.0
  outer loop
    vertex -30.742591100789614 131.72475714794606 0.005719012009999602
    vertex -30.387935974933065 154.1529130459875 0.005719012009999602
    vertex -29.788851435440787 132.07976558662563 0.005719012009999602
  endloop
endfacet
facet normal -0.0 -0.0 -1.0
  outer loop
    vertex -29.788851435440787 132.07976558662563 0.005719012009999602
    vertex -30.387935974933065 154.1529130459875 0.005719012009999602
    vertex -28.431906571823657 154.23831513408402 0.005719012009999602
  endloop
endfacet
facet normal -0.0 -0.0 -1.0
  outer loop
    vertex -29.788851435440787 132.07976558662563 0.005719012009999602
    vertex -28.431906571823657 154.23831513408402 0.005719012009999602
    vertex -28.876131784559814 132.52986910770645 0.005719012009999602
  endloop
endfacet
facet normal -0.0 -0.0 -1.0
  outer loop
    vertex -28.876131784559814 132.52986910770645 0.005719012009999602
    vertex -28.431906571823657 154.23831513408402 0.005719012009999602
    vertex -28.01388473232186 133.07040621253847 0.005719012009999602
  endloop
endfacet
facet normal -0.0 -0.0 -1.0
  outer loop
    vertex -28.01388473232186 133.07040621253847 0.005719012009999602
    vertex -28.431906571823657 154.23831513408402 0.005719012009999602
    vertex -26.520423567488617 153.81454955429027 0.005719012009999602
  endloop
endfacet
facet normal -0.0 -0.0 -1.0
  outer loop
    vertex -28.01388473232186 133.07040621253847 0.005719012009999602
    vertex -26.520423567488617 153.81454955429027 0.005719012009999602
    vertex -27.21104014326163 133.6957788267535 0.005719012009999602
  endloop
endfacet
facet normal -0.0 -0.0 -1.0
  outer loop
    vertex -27.21104014326163 133.6957788267535 0.005719012009999602
    vertex -26.520423567488617 153.81454955429027 0.005719012009999602
    vertex -26.475912680101874 134.39951027674104 0.005719012009999602
  endloop
endfacet
facet normal -0.0 -0.0 -1.0
  outer loop
    vertex -26.475912680101874 134.39951027674104 0.005719012009999602
    vertex -26.520423567488617 153.81454955429027 0.005719012009999602
    vertex -24.783751369798342 152.91049523056344 0.005719012009999602
  endloop
endfacet
facet normal -0.0 -0.0 -1.0
  outer loop
    vertex -26.475912680101874 134.39951027674104 0.005719012009999602
    vertex -24.783751369798342 152.91049523056344 0.005719012009999602
    vertex -25.816115692919876 135.17431236534117 0.005719012009999602
  endloop
endfacet
facet normal -0.0 -0.0 -1.0
  outer loop
    vertex -25.816115692919876 135.17431236534117 0.005719012009999602
    vertex -24.783751369798342 152.91049523056344 0.005719012009999602
    vertex -25.238482371462304 136.01216085208284 0.005719012009999602
  endloop
endfacet
facet normal -0.0 -0.0 -1.0
  outer loop
    vertex -25.238482371462304 136.01216085208284 0.005719012009999602
    vertex -24.783751369798342 152.91049523056344 0.005719012009999602
    vertex -24.748994977191128 136.90437855625765 0.005719012009999602
  endloop
endfacet
facet normal -0.0 -0.0 -1.0
  outer loop
    vertex -24.748994977191128 136.90437855625765 0.005719012009999602
    vertex -24.783751369798342 152.91049523056344 0.005719012009999602
    vertex -23.34024131903881 151.58776197104507 0.005719012009999602
  endloop
endfacet
facet normal -0.0 -0.0 -1.0
  outer loop
    vertex -24.748994977191128 136.90437855625765 0.005719012009999602
    vertex -23.34024131903881 151.58776197104507 0.005719012009999602
    vertex -24.352722887973172 137.84172522217176 0.005719012009999602
  endloop
endfacet
facet normal -0.0 -0.0 -1.0
  outer loop
    vertex -24.352722887973172 137.84172522217176 0.005719012009999602
    vertex -23.34024131903881 151.58776197104507 0.005719012009999602
    vertex -22.037879986536606 144.2017038234535 0.005719012009999602
  endloop
endfacet
facet normal -0.0 -0.0 -1.0
  outer loop
    vertex -22.037879986536606 144.2017038234535 0.005719012009999602
    vertex -23.34024131903881 151.58776197104507 0.005719012009999602
    vertex -22.28826623965614 149.93649186145123 0.005719012009999602
  endloop
endfacet
facet normal -0.0 -0.0 -1.0
  outer loop
    vertex -22.037879986536606 144.2017038234535 0.005719012009999602
    vertex -22.28826623965614 149.93649186145123 0.005719012009999602
    vertex -21.69951649483947 148.06921623089804 0.005719012009999602
  endloop
endfacet
facet normal -0.0 -0.0 -1.0
  outer loop
    vertex -22.037879986536606 144.2017038234535 0.005719012009999602
    vertex -21.69951649483947 148.06921623089804 0.005719012009999602
    vertex -21.61411440674296 146.11318682778855 0.005719012009999602
  endloop
endfacet
endsolid ProtoGlove
