solid ProtoGlove
facet normal -0.9238795325112836 0.3826834323650976 0.0
  outer loop
    vertex -226.07770073265732 138.7619266554285 2.005719012009996
    vertex -226.57720284518047 137.5560218809411 0.005719012009999602
    vertex -226.57720284518047 137.5560218809411 2.005719012009996
  endloop
endfacet
facet normal -0.9238795325112836 0.3826834323650976 0.0
  outer loop
    vertex -226.57720284518047 137.5560218809411 0.005719012009999602
    vertex -226.07770073265732 138.7619266554285 2.005719012009996
    vertex -226.07770073265732 138.7619266554285 0.005719012009999602
  endloop
endfacet
facet normal -0.793353340291212 0.608761429008751 0.0
  outer loop
    vertex -225.28310761966782 139.79746056136122 2.005719012009996
    vertex -226.07770073265732 138.7619266554285 0.005719012009999602
    vertex -226.07770073265732 138.7619266554285 2.005719012009996
  endloop
endfacet
facet normal -0.793353340291212 0.608761429008751 0.0
  outer loop
    vertex -226.07770073265732 138.7619266554285 0.005719012009999602
    vertex -225.28310761966782 139.79746056136122 2.005719012009996
    vertex -225.28310761966782 139.79746056136122 0.005719012009999602
  endloop
endfacet
facet normal -0.38268343236512214 0.9238795325112735 0.0
  outer loop
    vertex -224.24757371373516 140.59205367435064 2.005719012009996
    vertex -223.04166893924787 141.0915557868738 0.005719012009999602
    vertex -224.24757371373516 140.59205367435064 0.005719012009999602
  endloop
endfacet
facet normal -0.38268343236512214 0.9238795325112735 0.0
  outer loop
    vertex -223.04166893924787 141.0915557868738 0.005719012009999602
    vertex -224.24757371373516 140.59205367435064 2.005719012009996
    vertex -223.04166893924787 141.0915557868738 2.005719012009996
  endloop
endfacet
facet normal -0.6087614290087409 0.7933533402912197 0.0
  outer loop
    vertex -225.28310761966782 139.79746056136122 2.005719012009996
    vertex -224.24757371373516 140.59205367435064 0.005719012009999602
    vertex -225.28310761966782 139.79746056136122 0.005719012009999602
  endloop
endfacet
facet normal -0.6087614290087409 0.7933533402912197 0.0
  outer loop
    vertex -224.24757371373516 140.59205367435064 0.005719012009999602
    vertex -225.28310761966782 139.79746056136122 2.005719012009996
    vertex -224.24757371373516 140.59205367435064 2.005719012009996
  endloop
endfacet
facet normal -0.1305261922200494 0.9914448613738107 0.0
  outer loop
    vertex -223.04166893924787 141.0915557868738 2.005719012009996
    vertex -221.7475737137352 141.26192665542848 0.005719012009999602
    vertex -223.04166893924787 141.0915557868738 0.005719012009999602
  endloop
endfacet
facet normal -0.1305261922200494 0.9914448613738107 0.0
  outer loop
    vertex -221.7475737137352 141.26192665542848 0.005719012009999602
    vertex -223.04166893924787 141.0915557868738 2.005719012009996
    vertex -221.7475737137352 141.26192665542848 2.005719012009996
  endloop
endfacet
facet normal -0.9388287942752546 0.3443842258868313 0.0
  outer loop
    vertex -207.66925289211932 158.71252482070705 2.005719012009996
    vertex -214.0705379582116 141.26192665542848 0.005719012009999602
    vertex -214.0705379582116 141.26192665542848 2.005719012009996
  endloop
endfacet
facet normal -0.9388287942752546 0.3443842258868313 0.0
  outer loop
    vertex -214.0705379582116 141.26192665542848 0.005719012009999602
    vertex -207.66925289211932 158.71252482070705 2.005719012009996
    vertex -207.66925289211932 158.71252482070705 0.005719012009999602
  endloop
endfacet
facet normal -0.8870108331782163 0.4617486132350445 0.0
  outer loop
    vertex -206.76519856839238 160.4491970183974 2.005719012009996
    vertex -207.66925289211932 158.71252482070705 0.005719012009999602
    vertex -207.66925289211932 158.71252482070705 2.005719012009996
  endloop
endfacet
facet normal -0.8870108331782163 0.4617486132350445 0.0
  outer loop
    vertex -207.66925289211932 158.71252482070705 0.005719012009999602
    vertex -206.76519856839238 160.4491970183974 2.005719012009996
    vertex -206.76519856839238 160.4491970183974 0.005719012009999602
  endloop
endfacet
facet normal 0.0 1.0 0.0
  outer loop
    vertex -221.7475737137352 141.26192665542848 2.005719012009996
    vertex -214.0705379582116 141.26192665542848 0.005719012009999602
    vertex -221.7475737137352 141.26192665542848 0.005719012009999602
  endloop
endfacet
facet normal 0.0 1.0 0.0
  outer loop
    vertex -214.0705379582116 141.26192665542848 0.005719012009999602
    vertex -221.7475737137352 141.26192665542848 2.005719012009996
    vertex -214.0705379582116 141.26192665542848 2.005719012009996
  endloop
endfacet
facet normal -0.9914448613738096 0.13052619222005837 0.0
  outer loop
    vertex -226.57720284518047 137.5560218809411 2.005719012009996
    vertex -226.74757371373514 136.26192665542854 0.005719012009999602
    vertex -226.74757371373514 136.26192665542854 2.005719012009996
  endloop
endfacet
facet normal -0.9914448613738096 0.13052619222005837 0.0
  outer loop
    vertex -226.74757371373514 136.26192665542854 0.005719012009999602
    vertex -226.57720284518047 137.5560218809411 2.005719012009996
    vertex -226.57720284518047 137.5560218809411 0.005719012009999602
  endloop
endfacet
facet normal -0.6087614290087409 -0.7933533402912197 0.0
  outer loop
    vertex -224.24757371373516 131.9317996365064 2.005719012009996
    vertex -225.28310761966782 132.72639274949583 0.005719012009999602
    vertex -224.24757371373516 131.9317996365064 0.005719012009999602
  endloop
endfacet
facet normal -0.6087614290087409 -0.7933533402912197 0.0
  outer loop
    vertex -225.28310761966782 132.72639274949583 0.005719012009999602
    vertex -224.24757371373516 131.9317996365064 2.005719012009996
    vertex -225.28310761966782 132.72639274949583 2.005719012009996
  endloop
endfacet
facet normal 0.05088345361670718 -0.9987045980409004 0.0
  outer loop
    vertex -207.7332983140043 131.31370917246804 2.005719012009996
    vertex -208.74964909583227 131.26192665542857 0.005719012009999602
    vertex -207.7332983140043 131.31370917246804 0.005719012009999602
  endloop
endfacet
facet normal 0.05088345361670718 -0.9987045980409004 0.0
  outer loop
    vertex -208.74964909583227 131.26192665542857 0.005719012009999602
    vertex -207.7332983140043 131.31370917246804 2.005719012009996
    vertex -208.74964909583227 131.26192665542857 2.005719012009996
  endloop
endfacet
facet normal 0.25178785239533713 -0.9677824535432248 0.0
  outer loop
    vertex -205.74259110078953 131.72475714794606 2.005719012009996
    vertex -206.72747337251195 131.4685204377729 0.005719012009999602
    vertex -205.74259110078953 131.72475714794606 0.005719012009999602
  endloop
endfacet
facet normal 0.25178785239533713 -0.9677824535432248 0.0
  outer loop
    vertex -206.72747337251195 131.4685204377729 0.005719012009999602
    vertex -205.74259110078953 131.72475714794606 2.005719012009996
    vertex -206.72747337251195 131.4685204377729 2.005719012009996
  endloop
endfacet
facet normal -0.9914448613738096 -0.13052619222005837 0.0
  outer loop
    vertex -226.74757371373514 136.26192665542854 2.005719012009996
    vertex -226.57720284518047 134.96783142991595 0.005719012009999602
    vertex -226.57720284518047 134.96783142991595 2.005719012009996
  endloop
endfacet
facet normal -0.9914448613738096 -0.13052619222005837 0.0
  outer loop
    vertex -226.57720284518047 134.96783142991595 0.005719012009999602
    vertex -226.74757371373514 136.26192665542854 2.005719012009996
    vertex -226.74757371373514 136.26192665542854 0.005719012009999602
  endloop
endfacet
facet normal -0.793353340291212 -0.608761429008751 0.0
  outer loop
    vertex -226.07770073265732 133.76192665542857 2.005719012009996
    vertex -225.28310761966782 132.72639274949583 0.005719012009999602
    vertex -225.28310761966782 132.72639274949583 2.005719012009996
  endloop
endfacet
facet normal -0.793353340291212 -0.608761429008751 0.0
  outer loop
    vertex -225.28310761966782 132.72639274949583 0.005719012009999602
    vertex -226.07770073265732 133.76192665542857 2.005719012009996
    vertex -226.07770073265732 133.76192665542857 0.005719012009999602
  endloop
endfacet
facet normal 0.34884467684955833 -0.9371805543403722 0.0
  outer loop
    vertex -204.7888514354407 132.07976558662563 2.005719012009996
    vertex -205.74259110078953 131.72475714794606 0.005719012009999602
    vertex -204.7888514354407 132.07976558662563 0.005719012009999602
  endloop
endfacet
facet normal 0.34884467684955833 -0.9371805543403722 0.0
  outer loop
    vertex -205.74259110078953 131.72475714794606 0.005719012009999602
    vertex -204.7888514354407 132.07976558662563 2.005719012009996
    vertex -205.74259110078953 131.72475714794606 2.005719012009996
  endloop
endfacet
facet normal 0.82330151275673 -0.5676042803683566 0.0
  outer loop
    vertex -200.2384823714622 136.01216085208284 0.005719012009999602
    vertex -200.8161156929198 135.17431236534117 2.005719012009996
    vertex -200.8161156929198 135.17431236534117 0.005719012009999602
  endloop
endfacet
facet normal 0.82330151275673 -0.5676042803683566 0.0
  outer loop
    vertex -200.8161156929198 135.17431236534117 2.005719012009996
    vertex -200.2384823714622 136.01216085208284 0.005719012009999602
    vertex -200.2384823714622 136.01216085208284 2.005719012009996
  endloop
endfacet
facet normal 0.7613497448831681 -0.6483413961535506 0.0
  outer loop
    vertex -200.8161156929198 135.17431236534117 0.005719012009999602
    vertex -201.47591268010177 134.39951027674104 2.005719012009996
    vertex -201.47591268010177 134.39951027674104 0.005719012009999602
  endloop
endfacet
facet normal 0.7613497448831681 -0.6483413961535506 0.0
  outer loop
    vertex -201.47591268010177 134.39951027674104 2.005719012009996
    vertex -200.8161156929198 135.17431236534117 0.005719012009999602
    vertex -200.8161156929198 135.17431236534117 2.005719012009996
  endloop
endfacet
facet normal -0.1305261922200494 -0.9914448613738107 0.0
  outer loop
    vertex -221.7475737137352 131.26192665542857 2.005719012009996
    vertex -223.04166893924787 131.43229752398324 0.005719012009999602
    vertex -221.7475737137352 131.26192665542857 0.005719012009999602
  endloop
endfacet
facet normal -0.1305261922200494 -0.9914448613738107 0.0
  outer loop
    vertex -223.04166893924787 131.43229752398324 0.005719012009999602
    vertex -221.7475737137352 131.26192665542857 2.005719012009996
    vertex -223.04166893924787 131.43229752398324 2.005719012009996
  endloop
endfacet
facet normal 0.6915130557822594 -0.722363962059765 0.0
  outer loop
    vertex -201.47591268010177 134.39951027674104 2.005719012009996
    vertex -202.21104014326153 133.6957788267535 0.005719012009999602
    vertex -201.47591268010177 134.39951027674104 0.005719012009999602
  endloop
endfacet
facet normal 0.6915130557822594 -0.722363962059765 0.0
  outer loop
    vertex -202.21104014326153 133.6957788267535 0.005719012009999602
    vertex -201.47591268010177 134.39951027674104 2.005719012009996
    vertex -202.21104014326153 133.6957788267535 2.005719012009996
  endloop
endfacet
facet normal -0.38268343236512214 -0.9238795325112735 0.0
  outer loop
    vertex -223.04166893924787 131.43229752398324 2.005719012009996
    vertex -224.24757371373516 131.9317996365064 0.005719012009999602
    vertex -223.04166893924787 131.43229752398324 0.005719012009999602
  endloop
endfacet
facet normal -0.38268343236512214 -0.9238795325112735 0.0
  outer loop
    vertex -224.24757371373516 131.9317996365064 0.005719012009999602
    vertex -223.04166893924787 131.43229752398324 2.005719012009996
    vertex -224.24757371373516 131.9317996365064 2.005719012009996
  endloop
endfacet
facet normal 0.0 -1.0 0.0
  outer loop
    vertex -208.74964909583227 131.26192665542857 2.005719012009996
    vertex -221.7475737137352 131.26192665542857 0.005719012009999602
    vertex -208.74964909583227 131.26192665542857 0.005719012009999602
  endloop
endfacet
facet normal 0.0 -1.0 0.0
  outer loop
    vertex -221.7475737137352 131.26192665542857 0.005719012009999602
    vertex -208.74964909583227 131.26192665542857 2.005719012009996
    vertex -221.7475737137352 131.26192665542857 2.005719012009996
  endloop
endfacet
facet normal 0.8767267557075231 -0.48098876891935977 0.0
  outer loop
    vertex -199.74899497719102 136.90437855625765 0.005719012009999602
    vertex -200.2384823714622 136.01216085208284 2.005719012009996
    vertex -200.2384823714622 136.01216085208284 0.005719012009999602
  endloop
endfacet
facet normal 0.8767267557075231 -0.48098876891935977 0.0
  outer loop
    vertex -200.2384823714622 136.01216085208284 2.005719012009996
    vertex -199.74899497719102 136.90437855625765 0.005719012009999602
    vertex -199.74899497719102 136.90437855625765 2.005719012009996
  endloop
endfacet
facet normal 0.6145147093624947 -0.7889053631311737 0.0
  outer loop
    vertex -202.21104014326153 133.6957788267535 2.005719012009996
    vertex -203.01388473232177 133.07040621253847 0.005719012009999602
    vertex -202.21104014326153 133.6957788267535 0.005719012009999602
  endloop
endfacet
facet normal 0.6145147093624947 -0.7889053631311737 0.0
  outer loop
    vertex -203.01388473232177 133.07040621253847 0.005719012009999602
    vertex -202.21104014326153 133.6957788267535 2.005719012009996
    vertex -203.01388473232177 133.07040621253847 2.005719012009996
  endloop
endfacet
facet normal 0.921072175024996 -0.3893918956459202 0.0
  outer loop
    vertex -199.35272288797307 137.84172522217176 0.005719012009999602
    vertex -199.74899497719102 136.90437855625765 2.005719012009996
    vertex -199.74899497719102 136.90437855625765 0.005719012009999602
  endloop
endfacet
facet normal 0.921072175024996 -0.3893918956459202 0.0
  outer loop
    vertex -199.74899497719102 136.90437855625765 2.005719012009996
    vertex -199.35272288797307 137.84172522217176 0.005719012009999602
    vertex -199.35272288797307 137.84172522217176 2.005719012009996
  endloop
endfacet
facet normal 0.15212338618994733 -0.9883615104677561 0.0
  outer loop
    vertex -206.72747337251195 131.4685204377729 2.005719012009996
    vertex -207.7332983140043 131.31370917246804 0.005719012009999602
    vertex -206.72747337251195 131.4685204377729 0.005719012009999602
  endloop
endfacet
facet normal 0.15212338618994733 -0.9883615104677561 0.0
  outer loop
    vertex -207.7332983140043 131.31370917246804 0.005719012009999602
    vertex -206.72747337251195 131.4685204377729 2.005719012009996
    vertex -207.7332983140043 131.31370917246804 2.005719012009996
  endloop
endfacet
facet normal -0.9238795325112836 -0.3826834323650976 0.0
  outer loop
    vertex -226.57720284518047 134.96783142991595 2.005719012009996
    vertex -226.07770073265732 133.76192665542857 0.005719012009999602
    vertex -226.07770073265732 133.76192665542857 2.005719012009996
  endloop
endfacet
facet normal -0.9238795325112836 -0.3826834323650976 0.0
  outer loop
    vertex -226.07770073265732 133.76192665542857 0.005719012009999602
    vertex -226.57720284518047 134.96783142991595 2.005719012009996
    vertex -226.57720284518047 134.96783142991595 0.005719012009999602
  endloop
endfacet
facet normal 0.4422886902189904 -0.8968727415326938 0.0
  outer loop
    vertex -203.87613178455973 132.52986910770645 2.005719012009996
    vertex -204.7888514354407 132.07976558662563 0.005719012009999602
    vertex -203.87613178455973 132.52986910770645 0.005719012009999602
  endloop
endfacet
facet normal 0.4422886902189904 -0.8968727415326938 0.0
  outer loop
    vertex -204.7888514354407 132.07976558662563 0.005719012009999602
    vertex -203.87613178455973 132.52986910770645 2.005719012009996
    vertex -204.7888514354407 132.07976558662563 2.005719012009996
  endloop
endfacet
facet normal 0.5311521392609612 -0.8472764631208072 0.0
  outer loop
    vertex -203.01388473232177 133.07040621253847 2.005719012009996
    vertex -203.87613178455973 132.52986910770645 0.005719012009999602
    vertex -203.01388473232177 133.07040621253847 0.005719012009999602
  endloop
endfacet
facet normal 0.5311521392609612 -0.8472764631208072 0.0
  outer loop
    vertex -203.87613178455973 132.52986910770645 0.005719012009999602
    vertex -203.01388473232177 133.07040621253847 2.005719012009996
    vertex -203.87613178455973 132.52986910770645 2.005719012009996
  endloop
endfacet
facet normal -0.0 -0.0 -1.0
  outer loop
    vertex -226.57720284518047 137.5560218809411 0.005719012009999602
    vertex -226.57720284518047 134.96783142991595 0.005719012009999602
    vertex -226.74757371373514 136.26192665542854 0.005719012009999602
  endloop
endfacet
facet normal -0.0 -0.0 -1.0
  outer loop
    vertex -226.57720284518047 134.96783142991595 0.005719012009999602
    vertex -226.57720284518047 137.5560218809411 0.005719012009999602
    vertex -226.07770073265732 138.7619266554285 0.005719012009999602
  endloop
endfacet
facet normal -0.0 -0.0 -1.0
  outer loop
    vertex -226.57720284518047 134.96783142991595 0.005719012009999602
    vertex -226.07770073265732 138.7619266554285 0.005719012009999602
    vertex -226.07770073265732 133.76192665542857 0.005719012009999602
  endloop
endfacet
facet normal -0.0 -0.0 -1.0
  outer loop
    vertex -226.07770073265732 133.76192665542857 0.005719012009999602
    vertex -226.07770073265732 138.7619266554285 0.005719012009999602
    vertex -225.28310761966782 139.79746056136122 0.005719012009999602
  endloop
endfacet
facet normal -0.0 -0.0 -1.0
  outer loop
    vertex -226.07770073265732 133.76192665542857 0.005719012009999602
    vertex -225.28310761966782 139.79746056136122 0.005719012009999602
    vertex -225.28310761966782 132.72639274949583 0.005719012009999602
  endloop
endfacet
facet normal -0.0 -0.0 -1.0
  outer loop
    vertex -225.28310761966782 132.72639274949583 0.005719012009999602
    vertex -225.28310761966782 139.79746056136122 0.005719012009999602
    vertex -224.24757371373516 140.59205367435064 0.005719012009999602
  endloop
endfacet
facet normal -0.0 -0.0 -1.0
  outer loop
    vertex -225.28310761966782 132.72639274949583 0.005719012009999602
    vertex -224.24757371373516 140.59205367435064 0.005719012009999602
    vertex -224.24757371373516 131.9317996365064 0.005719012009999602
  endloop
endfacet
facet normal -0.0 -0.0 -1.0
  outer loop
    vertex -224.24757371373516 131.9317996365064 0.005719012009999602
    vertex -224.24757371373516 140.59205367435064 0.005719012009999602
    vertex -223.04166893924787 141.0915557868738 0.005719012009999602
  endloop
endfacet
facet normal -0.0 -0.0 -1.0
  outer loop
    vertex -224.24757371373516 131.9317996365064 0.005719012009999602
    vertex -223.04166893924787 141.0915557868738 0.005719012009999602
    vertex -223.04166893924787 131.43229752398324 0.005719012009999602
  endloop
endfacet
facet normal -0.0 -0.0 -1.0
  outer loop
    vertex -223.04166893924787 131.43229752398324 0.005719012009999602
    vertex -223.04166893924787 141.0915557868738 0.005719012009999602
    vertex -221.7475737137352 141.26192665542848 0.005719012009999602
  endloop
endfacet
facet normal -0.0 -0.0 -1.0
  outer loop
    vertex -223.04166893924787 131.43229752398324 0.005719012009999602
    vertex -221.7475737137352 141.26192665542848 0.005719012009999602
    vertex -221.7475737137352 131.26192665542857 0.005719012009999602
  endloop
endfacet
facet normal -0.0 -0.0 -1.0
  outer loop
    vertex -221.7475737137352 131.26192665542857 0.005719012009999602
    vertex -221.7475737137352 141.26192665542848 0.005719012009999602
    vertex -214.0705379582116 141.26192665542848 0.005719012009999602
  endloop
endfacet
facet normal -0.0 -0.0 -1.0
  outer loop
    vertex -221.7475737137352 131.26192665542857 0.005719012009999602
    vertex -214.0705379582116 141.26192665542848 0.005719012009999602
    vertex -208.74964909583227 131.26192665542857 0.005719012009999602
  endloop
endfacet
facet normal -0.0 -0.0 -1.0
  outer loop
    vertex -208.74964909583227 131.26192665542857 0.005719012009999602
    vertex -214.0705379582116 141.26192665542848 0.005719012009999602
    vertex -207.66925289211932 158.71252482070705 0.005719012009999602
  endloop
endfacet
facet normal -0.0 -0.0 -1.0
  outer loop
    vertex -208.74964909583227 131.26192665542857 0.005719012009999602
    vertex -207.66925289211932 158.71252482070705 0.005719012009999602
    vertex -207.7332983140043 131.31370917246804 0.005719012009999602
  endloop
endfacet
facet normal -0.0 -0.0 -1.0
  outer loop
    vertex -207.7332983140043 131.31370917246804 0.005719012009999602
    vertex -207.66925289211932 158.71252482070705 0.005719012009999602
    vertex -206.72747337251195 131.4685204377729 0.005719012009999602
  endloop
endfacet
facet normal -0.0 -0.0 -1.0
  outer loop
    vertex -206.72747337251195 131.4685204377729 0.005719012009999602
    vertex -207.66925289211932 158.71252482070705 0.005719012009999602
    vertex -206.76519856839238 160.4491970183974 0.005719012009999602
  endloop
endfacet
facet normal -0.0 -0.0 -1.0
  outer loop
    vertex -206.72747337251195 131.4685204377729 0.005719012009999602
    vertex -206.76519856839238 160.4491970183974 0.005719012009999602
    vertex -205.442465308874 161.89270706915684 0.005719012009999602
  endloop
endfacet
facet normal -0.0 -0.0 -1.0
  outer loop
    vertex -206.72747337251195 131.4685204377729 0.005719012009999602
    vertex -205.442465308874 161.89270706915684 0.005719012009999602
    vertex -205.74259110078953 131.72475714794606 0.005719012009999602
  endloop
endfacet
facet normal -0.0 -0.0 -1.0
  outer loop
    vertex -205.74259110078953 131.72475714794606 0.005719012009999602
    vertex -205.442465308874 161.89270706915684 0.005719012009999602
    vertex -204.7888514354407 132.07976558662563 0.005719012009999602
  endloop
endfacet
facet normal -0.0 -0.0 -1.0
  outer loop
    vertex -204.7888514354407 132.07976558662563 0.005719012009999602
    vertex -205.442465308874 161.89270706915684 0.005719012009999602
    vertex -203.79119519928025 162.9446821485394 0.005719012009999602
  endloop
endfacet
facet normal -0.0 -0.0 -1.0
  outer loop
    vertex -204.7888514354407 132.07976558662563 0.005719012009999602
    vertex -203.79119519928025 162.9446821485394 0.005719012009999602
    vertex -203.87613178455973 132.52986910770645 0.005719012009999602
  endloop
endfacet
facet normal -0.0 -0.0 -1.0
  outer loop
    vertex -203.87613178455973 132.52986910770645 0.005719012009999602
    vertex -203.79119519928025 162.9446821485394 0.005719012009999602
    vertex -203.01388473232177 133.07040621253847 0.005719012009999602
  endloop
endfacet
facet normal -0.0 -0.0 -1.0
  outer loop
    vertex -203.01388473232177 133.07040621253847 0.005719012009999602
    vertex -203.79119519928025 162.9446821485394 0.005719012009999602
    vertex -201.9239195687269 163.53343189335618 0.005719012009999602
  endloop
endfacet
facet normal -0.0 -0.0 -1.0
  outer loop
    vertex -203.01388473232177 133.07040621253847 0.005719012009999602
    vertex -201.9239195687269 163.53343189335618 0.005719012009999602
    vertex -202.21104014326153 133.6957788267535 0.005719012009999602
  endloop
endfacet
facet normal -0.0 -0.0 -1.0
  outer loop
    vertex -202.21104014326153 133.6957788267535 0.005719012009999602
    vertex -201.9239195687269 163.53343189335618 0.005719012009999602
    vertex -201.47591268010177 134.39951027674104 0.005719012009999602
  endloop
endfacet
facet normal -0.0 -0.0 -1.0
  outer loop
    vertex -201.47591268010177 134.39951027674104 0.005719012009999602
    vertex -201.9239195687269 163.53343189335618 0.005719012009999602
    vertex -199.9678901656175 163.6188339814527 0.005719012009999602
  endloop
endfacet
facet normal -0.0 -0.0 -1.0
  outer loop
    vertex -201.47591268010177 134.39951027674104 0.005719012009999602
    vertex -199.9678901656175 163.6188339814527 0.005719012009999602
    vertex -200.8161156929198 135.17431236534117 0.005719012009999602
  endloop
endfacet
facet normal -0.0 -0.0 -1.0
  outer loop
    vertex -200.8161156929198 135.17431236534117 0.005719012009999602
    vertex -199.9678901656175 163.6188339814527 0.005719012009999602
    vertex -200.2384823714622 136.01216085208284 0.005719012009999602
  endloop
endfacet
facet normal -0.0 -0.0 -1.0
  outer loop
    vertex -200.2384823714622 136.01216085208284 0.005719012009999602
    vertex -199.9678901656175 163.6188339814527 0.005719012009999602
    vertex -199.74899497719102 136.90437855625765 0.005719012009999602
  endloop
endfacet
facet normal -0.0 -0.0 -1.0
  outer loop
    vertex -199.74899497719102 136.90437855625765 0.005719012009999602
    vertex -199.9678901656175 163.6188339814527 0.005719012009999602
    vertex -198.05640716128244 163.19506840165894 0.005719012009999602
  endloop
endfacet
facet normal -0.0 -0.0 -1.0
  outer loop
    vertex -199.74899497719102 136.90437855625765 0.005719012009999602
    vertex -198.05640716128244 163.19506840165894 0.005719012009999602
    vertex -199.35272288797307 137.84172522217176 0.005719012009999602
  endloop
endfacet
facet normal -0.0 -0.0 -1.0
  outer loop
    vertex -199.35272288797307 137.84172522217176 0.005719012009999602
    vertex -198.05640716128244 163.19506840165894 0.005719012009999602
    vertex -193.57386358033042 153.58222267082218 0.005719012009999602
  endloop
endfacet
facet normal -0.0 -0.0 -1.0
  outer loop
    vertex -193.57386358033042 153.58222267082218 0.005719012009999602
    vertex -198.05640716128244 163.19506840165894 0.005719012009999602
    vertex -196.31973496359217 162.29101407793212 0.005719012009999602
  endloop
endfacet
facet normal -0.0 -0.0 -1.0
  outer loop
    vertex -193.57386358033042 153.58222267082218 0.005719012009999602
    vertex -196.31973496359217 162.29101407793212 0.005719012009999602
    vertex -194.87622491283264 160.96828081841375 0.005719012009999602
  endloop
endfacet
facet normal -0.0 -0.0 -1.0
  outer loop
    vertex -193.57386358033042 153.58222267082218 0.005719012009999602
    vertex -194.87622491283264 160.96828081841375 0.005719012009999602
    vertex -193.82424983344998 159.3170107088199 0.005719012009999602
  endloop
endfacet
facet normal -0.0 -0.0 -1.0
  outer loop
    vertex -193.57386358033042 153.58222267082218 0.005719012009999602
    vertex -193.82424983344998 159.3170107088199 0.005719012009999602
    vertex -193.2355000886333 157.4497350782667 0.005719012009999602
  endloop
endfacet
facet normal -0.0 -0.0 -1.0
  outer loop
    vertex -193.57386358033042 153.58222267082218 0.005719012009999602
    vertex -193.2355000886333 157.4497350782667 0.005719012009999602
    vertex -193.1500980005368 155.49370567515723 0.005719012009999602
  endloop
endfacet
facet normal 0.8433914458128632 0.5372996083468592 0.0
  outer loop
    vertex -194.87622491283264 160.96828081841375 0.005719012009999602
    vertex -193.82424983344998 159.3170107088199 2.005719012009996
    vertex -193.82424983344998 159.3170107088199 0.005719012009999602
  endloop
endfacet
facet normal 0.8433914458128632 0.5372996083468592 0.0
  outer loop
    vertex -193.82424983344998 159.3170107088199 2.005719012009996
    vertex -194.87622491283264 160.96828081841375 0.005719012009999602
    vertex -194.87622491283264 160.96828081841375 2.005719012009996
  endloop
endfacet
facet normal -0.7372773368101182 0.6755902076156666 0.0
  outer loop
    vertex -205.442465308874 161.89270706915684 2.005719012009996
    vertex -206.76519856839238 160.4491970183974 0.005719012009999602
    vertex -206.76519856839238 160.4491970183974 2.005719012009996
  endloop
endfacet
facet normal -0.7372773368101182 0.6755902076156666 0.0
  outer loop
    vertex -206.76519856839238 160.4491970183974 0.005719012009999602
    vertex -205.442465308874 161.89270706915684 2.005719012009996
    vertex -205.442465308874 161.89270706915684 0.005719012009999602
  endloop
endfacet
facet normal 0.9387346831405857 -0.34464067471635457 0.0
  outer loop
    vertex -193.57386358033042 153.58222267082218 0.005719012009999602
    vertex -199.35272288797307 137.84172522217176 2.005719012009996
    vertex -199.35272288797307 137.84172522217176 0.005719012009999602
  endloop
endfacet
facet normal 0.9387346831405857 -0.34464067471635457 0.0
  outer loop
    vertex -199.35272288797307 137.84172522217176 2.005719012009996
    vertex -193.57386358033042 153.58222267082218 0.005719012009999602
    vertex -193.57386358033042 153.58222267082218 2.005719012009996
  endloop
endfacet
facet normal 0.9762960071199471 -0.2164396139380414 0.0
  outer loop
    vertex -193.1500980005368 155.49370567515723 0.005719012009999602
    vertex -193.57386358033042 153.58222267082218 2.005719012009996
    vertex -193.57386358033042 153.58222267082218 0.005719012009999602
  endloop
endfacet
facet normal 0.9762960071199471 -0.2164396139380414 0.0
  outer loop
    vertex -193.57386358033042 153.58222267082218 2.005719012009996
    vertex -193.1500980005368 155.49370567515723 0.005719012009999602
    vertex -193.1500980005368 155.49370567515723 2.005719012009996
  endloop
endfacet
facet normal 0.6755902076156436 0.7372773368101393 0.0
  outer loop
    vertex -196.31973496359217 162.29101407793212 2.005719012009996
    vertex -194.87622491283264 160.96828081841375 0.005719012009999602
    vertex -196.31973496359217 162.29101407793212 0.005719012009999602
  endloop
endfacet
facet normal 0.6755902076156436 0.7372773368101393 0.0
  outer loop
    vertex -194.87622491283264 160.96828081841375 0.005719012009999602
    vertex -196.31973496359217 162.29101407793212 2.005719012009996
    vertex -194.87622491283264 160.96828081841375 2.005719012009996
  endloop
endfacet
facet normal 0.21643961393808528 0.9762960071199372 0.0
  outer loop
    vertex -199.9678901656175 163.6188339814527 2.005719012009996
    vertex -198.05640716128244 163.19506840165894 0.005719012009999602
    vertex -199.9678901656175 163.6188339814527 0.005719012009999602
  endloop
endfacet
facet normal 0.21643961393808528 0.9762960071199372 0.0
  outer loop
    vertex -198.05640716128244 163.19506840165894 0.005719012009999602
    vertex -199.9678901656175 163.6188339814527 2.005719012009996
    vertex -198.05640716128244 163.19506840165894 2.005719012009996
  endloop
endfacet
facet normal -0.5372996083468473 0.843391445812871 0.0
  outer loop
    vertex -205.442465308874 161.89270706915684 2.005719012009996
    vertex -203.79119519928025 162.9446821485394 0.005719012009999602
    vertex -205.442465308874 161.89270706915684 0.005719012009999602
  endloop
endfacet
facet normal -0.5372996083468473 0.843391445812871 0.0
  outer loop
    vertex -203.79119519928025 162.9446821485394 0.005719012009999602
    vertex -205.442465308874 161.89270706915684 2.005719012009996
    vertex -203.79119519928025 162.9446821485394 2.005719012009996
  endloop
endfacet
facet normal 0.4617486132350272 0.8870108331782254 0.0
  outer loop
    vertex -198.05640716128244 163.19506840165894 2.005719012009996
    vertex -196.31973496359217 162.29101407793212 0.005719012009999602
    vertex -198.05640716128244 163.19506840165894 0.005719012009999602
  endloop
endfacet
facet normal 0.4617486132350272 0.8870108331782254 0.0
  outer loop
    vertex -196.31973496359217 162.29101407793212 0.005719012009999602
    vertex -198.05640716128244 163.19506840165894 2.005719012009996
    vertex -196.31973496359217 162.29101407793212 2.005719012009996
  endloop
endfacet
facet normal 0.9537169507482253 0.3007057995042783 0.0
  outer loop
    vertex -193.82424983344998 159.3170107088199 0.005719012009999602
    vertex -193.2355000886333 157.4497350782667 2.005719012009996
    vertex -193.2355000886333 157.4497350782667 0.005719012009999602
  endloop
endfacet
facet normal 0.9537169507482253 0.3007057995042783 0.0
  outer loop
    vertex -193.2355000886333 157.4497350782667 2.005719012009996
    vertex -193.82424983344998 159.3170107088199 0.005719012009999602
    vertex -193.82424983344998 159.3170107088199 2.005719012009996
  endloop
endfacet
facet normal 0.9990482215818582 0.043619387365323864 0.0
  outer loop
    vertex -193.2355000886333 157.4497350782667 0.005719012009999602
    vertex -193.1500980005368 155.49370567515723 2.005719012009996
    vertex -193.1500980005368 155.49370567515723 0.005719012009999602
  endloop
endfacet
facet normal 0.9990482215818582 0.043619387365323864 0.0
  outer loop
    vertex -193.1500980005368 155.49370567515723 2.005719012009996
    vertex -193.2355000886333 157.4497350782667 0.005719012009999602
    vertex -193.2355000886333 157.4497350782667 2.005719012009996
  endloop
endfacet
facet normal -0.3007057995042938 0.9537169507482204 0.0
  outer loop
    vertex -203.79119519928025 162.9446821485394 2.005719012009996
    vertex -201.9239195687269 163.53343189335618 0.005719012009999602
    vertex -203.79119519928025 162.9446821485394 0.005719012009999602
  endloop
endfacet
facet normal -0.3007057995042938 0.9537169507482204 0.0
  outer loop
    vertex -201.9239195687269 163.53343189335618 0.005719012009999602
    vertex -203.79119519928025 162.9446821485394 2.005719012009996
    vertex -201.9239195687269 163.53343189335618 2.005719012009996
  endloop
endfacet
facet normal -0.04361938736532588 0.9990482215818582 0.0
  outer loop
    vertex -201.9239195687269 163.53343189335618 2.005719012009996
    vertex -199.9678901656175 163.6188339814527 0.005719012009999602
    vertex -201.9239195687269 163.53343189335618 0.005719012009999602
  endloop
endfacet
facet normal -0.04361938736532588 0.9990482215818582 0.0
  outer loop
    vertex -199.9678901656175 163.6188339814527 0.005719012009999602
    vertex -201.9239195687269 163.53343189335618 2.005719012009996
    vertex -199.9678901656175 163.6188339814527 2.005719012009996
  endloop
endfacet
facet normal 0.0 0.0 1.0
  outer loop
    vertex -226.57720284518047 134.96783142991595 2.005719012009996
    vertex -226.57720284518047 137.5560218809411 2.005719012009996
    vertex -226.74757371373514 136.26192665542854 2.005719012009996
  endloop
endfacet
facet normal 0.0 0.0 1.0
  outer loop
    vertex -226.57720284518047 137.5560218809411 2.005719012009996
    vertex -226.57720284518047 134.96783142991595 2.005719012009996
    vertex -226.07770073265732 133.76192665542857 2.005719012009996
  endloop
endfacet
facet normal 0.0 0.0 1.0
  outer loop
    vertex -226.57720284518047 137.5560218809411 2.005719012009996
    vertex -226.07770073265732 133.76192665542857 2.005719012009996
    vertex -226.07770073265732 138.7619266554285 2.005719012009996
  endloop
endfacet
facet normal 0.0 0.0 1.0
  outer loop
    vertex -226.07770073265732 138.7619266554285 2.005719012009996
    vertex -226.07770073265732 133.76192665542857 2.005719012009996
    vertex -225.28310761966782 132.72639274949583 2.005719012009996
  endloop
endfacet
facet normal 0.0 0.0 1.0
  outer loop
    vertex -226.07770073265732 138.7619266554285 2.005719012009996
    vertex -225.28310761966782 132.72639274949583 2.005719012009996
    vertex -225.28310761966782 139.79746056136122 2.005719012009996
  endloop
endfacet
facet normal 0.0 0.0 1.0
  outer loop
    vertex -225.28310761966782 139.79746056136122 2.005719012009996
    vertex -225.28310761966782 132.72639274949583 2.005719012009996
    vertex -224.24757371373516 131.9317996365064 2.005719012009996
  endloop
endfacet
facet normal 0.0 0.0 1.0
  outer loop
    vertex -225.28310761966782 139.79746056136122 2.005719012009996
    vertex -224.24757371373516 131.9317996365064 2.005719012009996
    vertex -224.24757371373516 140.59205367435064 2.005719012009996
  endloop
endfacet
facet normal 0.0 0.0 1.0
  outer loop
    vertex -224.24757371373516 140.59205367435064 2.005719012009996
    vertex -224.24757371373516 131.9317996365064 2.005719012009996
    vertex -223.04166893924787 131.43229752398324 2.005719012009996
  endloop
endfacet
facet normal 0.0 0.0 1.0
  outer loop
    vertex -224.24757371373516 140.59205367435064 2.005719012009996
    vertex -223.04166893924787 131.43229752398324 2.005719012009996
    vertex -223.04166893924787 141.0915557868738 2.005719012009996
  endloop
endfacet
facet normal 0.0 0.0 1.0
  outer loop
    vertex -223.04166893924787 141.0915557868738 2.005719012009996
    vertex -223.04166893924787 131.43229752398324 2.005719012009996
    vertex -221.7475737137352 131.26192665542857 2.005719012009996
  endloop
endfacet
facet normal 0.0 0.0 1.0
  outer loop
    vertex -223.04166893924787 141.0915557868738 2.005719012009996
    vertex -221.7475737137352 131.26192665542857 2.005719012009996
    vertex -221.7475737137352 141.26192665542848 2.005719012009996
  endloop
endfacet
facet normal 0.0 0.0 1.0
  outer loop
    vertex -221.7475737137352 141.26192665542848 2.005719012009996
    vertex -221.7475737137352 131.26192665542857 2.005719012009996
    vertex -208.74964909583227 131.26192665542857 2.005719012009996
  endloop
endfacet
facet normal 0.0 0.0 1.0
  outer loop
    vertex -221.7475737137352 141.26192665542848 2.005719012009996
    vertex -208.74964909583227 131.26192665542857 2.005719012009996
    vertex -214.0705379582116 141.26192665542848 2.005719012009996
  endloop
endfacet
facet normal 0.0 0.0 1.0
  outer loop
    vertex -214.0705379582116 141.26192665542848 2.005719012009996
    vertex -208.74964909583227 131.26192665542857 2.005719012009996
    vertex -207.66925289211932 158.71252482070705 2.005719012009996
  endloop
endfacet
facet normal 0.0 0.0 1.0
  outer loop
    vertex -207.66925289211932 158.71252482070705 2.005719012009996
    vertex -208.74964909583227 131.26192665542857 2.005719012009996
    vertex -207.7332983140043 131.31370917246804 2.005719012009996
  endloop
endfacet
facet normal 0.0 0.0 1.0
  outer loop
    vertex -207.66925289211932 158.71252482070705 2.005719012009996
    vertex -207.7332983140043 131.31370917246804 2.005719012009996
    vertex -206.72747337251195 131.4685204377729 2.005719012009996
  endloop
endfacet
facet normal 0.0 0.0 1.0
  outer loop
    vertex -207.66925289211932 158.71252482070705 2.005719012009996
    vertex -206.72747337251195 131.4685204377729 2.005719012009996
    vertex -206.76519856839238 160.4491970183974 2.005719012009996
  endloop
endfacet
facet normal 0.0 0.0 1.0
  outer loop
    vertex -206.76519856839238 160.4491970183974 2.005719012009996
    vertex -206.72747337251195 131.4685204377729 2.005719012009996
    vertex -205.442465308874 161.89270706915684 2.005719012009996
  endloop
endfacet
facet normal 0.0 0.0 1.0
  outer loop
    vertex -205.442465308874 161.89270706915684 2.005719012009996
    vertex -206.72747337251195 131.4685204377729 2.005719012009996
    vertex -205.74259110078953 131.72475714794606 2.005719012009996
  endloop
endfacet
facet normal 0.0 0.0 1.0
  outer loop
    vertex -205.442465308874 161.89270706915684 2.005719012009996
    vertex -205.74259110078953 131.72475714794606 2.005719012009996
    vertex -204.7888514354407 132.07976558662563 2.005719012009996
  endloop
endfacet
facet normal 0.0 0.0 1.0
  outer loop
    vertex -205.442465308874 161.89270706915684 2.005719012009996
    vertex -204.7888514354407 132.07976558662563 2.005719012009996
    vertex -203.79119519928025 162.9446821485394 2.005719012009996
  endloop
endfacet
facet normal 0.0 0.0 1.0
  outer loop
    vertex -203.79119519928025 162.9446821485394 2.005719012009996
    vertex -204.7888514354407 132.07976558662563 2.005719012009996
    vertex -203.87613178455973 132.52986910770645 2.005719012009996
  endloop
endfacet
facet normal 0.0 0.0 1.0
  outer loop
    vertex -203.79119519928025 162.9446821485394 2.005719012009996
    vertex -203.87613178455973 132.52986910770645 2.005719012009996
    vertex -203.01388473232177 133.07040621253847 2.005719012009996
  endloop
endfacet
facet normal 0.0 0.0 1.0
  outer loop
    vertex -203.79119519928025 162.9446821485394 2.005719012009996
    vertex -203.01388473232177 133.07040621253847 2.005719012009996
    vertex -201.9239195687269 163.53343189335618 2.005719012009996
  endloop
endfacet
facet normal 0.0 0.0 1.0
  outer loop
    vertex -201.9239195687269 163.53343189335618 2.005719012009996
    vertex -203.01388473232177 133.07040621253847 2.005719012009996
    vertex -202.21104014326153 133.6957788267535 2.005719012009996
  endloop
endfacet
facet normal 0.0 0.0 1.0
  outer loop
    vertex -201.9239195687269 163.53343189335618 2.005719012009996
    vertex -202.21104014326153 133.6957788267535 2.005719012009996
    vertex -201.47591268010177 134.39951027674104 2.005719012009996
  endloop
endfacet
facet normal 0.0 0.0 1.0
  outer loop
    vertex -201.9239195687269 163.53343189335618 2.005719012009996
    vertex -201.47591268010177 134.39951027674104 2.005719012009996
    vertex -199.9678901656175 163.6188339814527 2.005719012009996
  endloop
endfacet
facet normal 0.0 0.0 1.0
  outer loop
    vertex -199.9678901656175 163.6188339814527 2.005719012009996
    vertex -201.47591268010177 134.39951027674104 2.005719012009996
    vertex -200.8161156929198 135.17431236534117 2.005719012009996
  endloop
endfacet
facet normal 0.0 0.0 1.0
  outer loop
    vertex -199.9678901656175 163.6188339814527 2.005719012009996
    vertex -200.8161156929198 135.17431236534117 2.005719012009996
    vertex -200.2384823714622 136.01216085208284 2.005719012009996
  endloop
endfacet
facet normal 0.0 0.0 1.0
  outer loop
    vertex -199.9678901656175 163.6188339814527 2.005719012009996
    vertex -200.2384823714622 136.01216085208284 2.005719012009996
    vertex -199.74899497719102 136.90437855625765 2.005719012009996
  endloop
endfacet
facet normal 0.0 0.0 1.0
  outer loop
    vertex -199.9678901656175 163.6188339814527 2.005719012009996
    vertex -199.74899497719102 136.90437855625765 2.005719012009996
    vertex -198.05640716128244 163.19506840165894 2.005719012009996
  endloop
endfacet
facet normal 0.0 0.0 1.0
  outer loop
    vertex -198.05640716128244 163.19506840165894 2.005719012009996
    vertex -199.74899497719102 136.90437855625765 2.005719012009996
    vertex -199.35272288797307 137.84172522217176 2.005719012009996
  endloop
endfacet
facet normal 0.0 0.0 1.0
  outer loop
    vertex -198.05640716128244 163.19506840165894 2.005719012009996
    vertex -199.35272288797307 137.84172522217176 2.005719012009996
    vertex -193.57386358033042 153.58222267082218 2.005719012009996
  endloop
endfacet
facet normal 0.0 0.0 1.0
  outer loop
    vertex -198.05640716128244 163.19506840165894 2.005719012009996
    vertex -193.57386358033042 153.58222267082218 2.005719012009996
    vertex -196.31973496359217 162.29101407793212 2.005719012009996
  endloop
endfacet
facet normal 0.0 0.0 1.0
  outer loop
    vertex -196.31973496359217 162.29101407793212 2.005719012009996
    vertex -193.57386358033042 153.58222267082218 2.005719012009996
    vertex -194.87622491283264 160.96828081841375 2.005719012009996
  endloop
endfacet
facet normal 0.0 0.0 1.0
  outer loop
    vertex -194.87622491283264 160.96828081841375 2.005719012009996
    vertex -193.57386358033042 153.58222267082218 2.005719012009996
    vertex -193.82424983344998 159.3170107088199 2.005719012009996
  endloop
endfacet
facet normal 0.0 0.0 1.0
  outer loop
    vertex -193.82424983344998 159.3170107088199 2.005719012009996
    vertex -193.57386358033042 153.58222267082218 2.005719012009996
    vertex -193.2355000886333 157.4497350782667 2.005719012009996
  endloop
endfacet
facet normal 0.0 0.0 1.0
  outer loop
    vertex -193.2355000886333 157.4497350782667 2.005719012009996
    vertex -193.57386358033042 153.58222267082218 2.005719012009996
    vertex -193.1500980005368 155.49370567515723 2.005719012009996
  endloop
endfacet
endsolid ProtoGlove
