solid ProtoGlove
facet normal 0.0 0.0 -1.0
  outer loop
    vertex -191.5772028451805 137.5560218809411 0.005719012009999602
    vertex -191.5772028451805 134.96783142991595 0.005719012009999602
    vertex -191.74757371373516 136.26192665542854 0.005719012009999602
  endloop
endfacet
facet normal 0.0 0.0 -1.0
  outer loop
    vertex -191.5772028451805 134.96783142991595 0.005719012009999602
    vertex -191.5772028451805 137.5560218809411 0.005719012009999602
    vertex -191.07770073265735 138.7619266554285 0.005719012009999602
  endloop
endfacet
facet normal 0.0 0.0 -1.0
  outer loop
    vertex -191.5772028451805 134.96783142991595 0.005719012009999602
    vertex -191.07770073265735 138.7619266554285 0.005719012009999602
    vertex -191.07770073265735 133.76192665542857 0.005719012009999602
  endloop
endfacet
facet normal 0.0 0.0 -1.0
  outer loop
    vertex -191.07770073265735 133.76192665542857 0.005719012009999602
    vertex -191.07770073265735 138.7619266554285 0.005719012009999602
    vertex -190.28310761966782 139.79746056136122 0.005719012009999602
  endloop
endfacet
facet normal 0.0 0.0 -1.0
  outer loop
    vertex -191.07770073265735 133.76192665542857 0.005719012009999602
    vertex -190.28310761966782 139.79746056136122 0.005719012009999602
    vertex -190.28310761966782 132.72639274949583 0.005719012009999602
  endloop
endfacet
facet normal 0.0 0.0 -1.0
  outer loop
    vertex -190.28310761966782 132.72639274949583 0.005719012009999602
    vertex -190.28310761966782 139.79746056136122 0.005719012009999602
    vertex -189.2475737137352 140.59205367435064 0.005719012009999602
  endloop
endfacet
facet normal 0.0 0.0 -1.0
  outer loop
    vertex -190.28310761966782 132.72639274949583 0.005719012009999602
    vertex -189.2475737137352 140.59205367435064 0.005719012009999602
    vertex -189.2475737137352 131.9317996365064 0.005719012009999602
  endloop
endfacet
facet normal 0.0 0.0 -1.0
  outer loop
    vertex -189.2475737137352 131.9317996365064 0.005719012009999602
    vertex -189.2475737137352 140.59205367435064 0.005719012009999602
    vertex -188.04166893924787 141.0915557868738 0.005719012009999602
  endloop
endfacet
facet normal 0.0 0.0 -1.0
  outer loop
    vertex -189.2475737137352 131.9317996365064 0.005719012009999602
    vertex -188.04166893924787 141.0915557868738 0.005719012009999602
    vertex -188.04166893924787 131.43229752398324 0.005719012009999602
  endloop
endfacet
facet normal 0.0 0.0 -1.0
  outer loop
    vertex -188.04166893924787 131.43229752398324 0.005719012009999602
    vertex -188.04166893924787 141.0915557868738 0.005719012009999602
    vertex -186.74757371373522 141.26192665542848 0.005719012009999602
  endloop
endfacet
facet normal 0.0 0.0 -1.0
  outer loop
    vertex -188.04166893924787 131.43229752398324 0.005719012009999602
    vertex -186.74757371373522 141.26192665542848 0.005719012009999602
    vertex -186.74757371373522 131.26192665542857 0.005719012009999602
  endloop
endfacet
facet normal 0.0 0.0 -1.0
  outer loop
    vertex -186.74757371373522 131.26192665542857 0.005719012009999602
    vertex -186.74757371373522 141.26192665542848 0.005719012009999602
    vertex -179.07053795821162 141.26192665542848 0.005719012009999602
  endloop
endfacet
facet normal 0.0 0.0 -1.0
  outer loop
    vertex -186.74757371373522 131.26192665542857 0.005719012009999602
    vertex -179.07053795821162 141.26192665542848 0.005719012009999602
    vertex -173.7496490958323 131.26192665542857 0.005719012009999602
  endloop
endfacet
facet normal 0.0 0.0 -1.0
  outer loop
    vertex -173.7496490958323 131.26192665542857 0.005719012009999602
    vertex -179.07053795821162 141.26192665542848 0.005719012009999602
    vertex -173.35853424155212 156.83505545442588 0.005719012009999602
  endloop
endfacet
facet normal 0.0 0.0 -1.0
  outer loop
    vertex -173.7496490958323 131.26192665542857 0.005719012009999602
    vertex -173.35853424155212 156.83505545442588 0.005719012009999602
    vertex -172.7332983140043 131.31370917246804 0.005719012009999602
  endloop
endfacet
facet normal 0.0 0.0 -1.0
  outer loop
    vertex -172.7332983140043 131.31370917246804 0.005719012009999602
    vertex -173.35853424155212 156.83505545442588 0.005719012009999602
    vertex -172.45447991782518 158.57172765211624 0.005719012009999602
  endloop
endfacet
facet normal 0.0 0.0 -1.0
  outer loop
    vertex -172.7332983140043 131.31370917246804 0.005719012009999602
    vertex -172.45447991782518 158.57172765211624 0.005719012009999602
    vertex -171.72747337251198 131.4685204377729 0.005719012009999602
  endloop
endfacet
facet normal 0.0 0.0 -1.0
  outer loop
    vertex -171.72747337251198 131.4685204377729 0.005719012009999602
    vertex -172.45447991782518 158.57172765211624 0.005719012009999602
    vertex -171.1317466583068 160.01523770287568 0.005719012009999602
  endloop
endfacet
facet normal 0.0 0.0 -1.0
  outer loop
    vertex -171.72747337251198 131.4685204377729 0.005719012009999602
    vertex -171.1317466583068 160.01523770287568 0.005719012009999602
    vertex -170.74259110078953 131.72475714794606 0.005719012009999602
  endloop
endfacet
facet normal 0.0 0.0 -1.0
  outer loop
    vertex -170.74259110078953 131.72475714794606 0.005719012009999602
    vertex -171.1317466583068 160.01523770287568 0.005719012009999602
    vertex -169.48047654871306 161.06721278225825 0.005719012009999602
  endloop
endfacet
facet normal 0.0 0.0 -1.0
  outer loop
    vertex -170.74259110078953 131.72475714794606 0.005719012009999602
    vertex -169.48047654871306 161.06721278225825 0.005719012009999602
    vertex -169.7888514354407 132.07976558662563 0.005719012009999602
  endloop
endfacet
facet normal 0.0 0.0 -1.0
  outer loop
    vertex -169.7888514354407 132.07976558662563 0.005719012009999602
    vertex -169.48047654871306 161.06721278225825 0.005719012009999602
    vertex -168.87613178455973 132.52986910770645 0.005719012009999602
  endloop
endfacet
facet normal 0.0 0.0 -1.0
  outer loop
    vertex -168.87613178455973 132.52986910770645 0.005719012009999602
    vertex -169.48047654871306 161.06721278225825 0.005719012009999602
    vertex -167.6132009181597 161.65596252707502 0.005719012009999602
  endloop
endfacet
facet normal 0.0 0.0 -1.0
  outer loop
    vertex -168.87613178455973 132.52986910770645 0.005719012009999602
    vertex -167.6132009181597 161.65596252707502 0.005719012009999602
    vertex -168.01388473232177 133.07040621253847 0.005719012009999602
  endloop
endfacet
facet normal 0.0 0.0 -1.0
  outer loop
    vertex -168.01388473232177 133.07040621253847 0.005719012009999602
    vertex -167.6132009181597 161.65596252707502 0.005719012009999602
    vertex -167.21104014326156 133.6957788267535 0.005719012009999602
  endloop
endfacet
facet normal 0.0 0.0 -1.0
  outer loop
    vertex -167.21104014326156 133.6957788267535 0.005719012009999602
    vertex -167.6132009181597 161.65596252707502 0.005719012009999602
    vertex -165.6571715150503 161.74136461517153 0.005719012009999602
  endloop
endfacet
facet normal 0.0 0.0 -1.0
  outer loop
    vertex -167.21104014326156 133.6957788267535 0.005719012009999602
    vertex -165.6571715150503 161.74136461517153 0.005719012009999602
    vertex -166.4759126801018 134.39951027674104 0.005719012009999602
  endloop
endfacet
facet normal 0.0 0.0 -1.0
  outer loop
    vertex -166.4759126801018 134.39951027674104 0.005719012009999602
    vertex -165.6571715150503 161.74136461517153 0.005719012009999602
    vertex -165.8161156929198 135.17431236534117 0.005719012009999602
  endloop
endfacet
facet normal 0.0 0.0 -1.0
  outer loop
    vertex -165.8161156929198 135.17431236534117 0.005719012009999602
    vertex -165.6571715150503 161.74136461517153 0.005719012009999602
    vertex -165.23848237146223 136.01216085208284 0.005719012009999602
  endloop
endfacet
facet normal 0.0 0.0 -1.0
  outer loop
    vertex -165.23848237146223 136.01216085208284 0.005719012009999602
    vertex -165.6571715150503 161.74136461517153 0.005719012009999602
    vertex -163.74568851071524 161.3175990353778 0.005719012009999602
  endloop
endfacet
facet normal 0.0 0.0 -1.0
  outer loop
    vertex -165.23848237146223 136.01216085208284 0.005719012009999602
    vertex -163.74568851071524 161.3175990353778 0.005719012009999602
    vertex -164.74899497719105 136.90437855625765 0.005719012009999602
  endloop
endfacet
facet normal 0.0 0.0 -1.0
  outer loop
    vertex -164.74899497719105 136.90437855625765 0.005719012009999602
    vertex -163.74568851071524 161.3175990353778 0.005719012009999602
    vertex -164.3527228879731 137.84172522217176 0.005719012009999602
  endloop
endfacet
facet normal 0.0 0.0 -1.0
  outer loop
    vertex -164.3527228879731 137.84172522217176 0.005719012009999602
    vertex -163.74568851071524 161.3175990353778 0.005719012009999602
    vertex -159.26314492976323 151.70475330454104 0.005719012009999602
  endloop
endfacet
facet normal 0.0 0.0 -1.0
  outer loop
    vertex -159.26314492976323 151.70475330454104 0.005719012009999602
    vertex -163.74568851071524 161.3175990353778 0.005719012009999602
    vertex -162.00901631302497 160.41354471165099 0.005719012009999602
  endloop
endfacet
facet normal 0.0 0.0 -1.0
  outer loop
    vertex -159.26314492976323 151.70475330454104 0.005719012009999602
    vertex -162.00901631302497 160.41354471165099 0.005719012009999602
    vertex -160.56550626226544 159.09081145213258 0.005719012009999602
  endloop
endfacet
facet normal 0.0 0.0 -1.0
  outer loop
    vertex -159.26314492976323 151.70475330454104 0.005719012009999602
    vertex -160.56550626226544 159.09081145213258 0.005719012009999602
    vertex -159.5135311828828 157.43954134253875 0.005719012009999602
  endloop
endfacet
facet normal 0.0 0.0 -1.0
  outer loop
    vertex -159.26314492976323 151.70475330454104 0.005719012009999602
    vertex -159.5135311828828 157.43954134253875 0.005719012009999602
    vertex -158.9247814380661 155.57226571198558 0.005719012009999602
  endloop
endfacet
facet normal 0.0 0.0 -1.0
  outer loop
    vertex -159.26314492976323 151.70475330454104 0.005719012009999602
    vertex -158.9247814380661 155.57226571198558 0.005719012009999602
    vertex -158.8393793499696 153.61623630887607 0.005719012009999602
  endloop
endfacet
facet normal 0.0 0.0 1.0
  outer loop
    vertex -191.5772028451805 134.96783142991595 2.005719012009996
    vertex -191.5772028451805 137.5560218809411 2.005719012009996
    vertex -191.74757371373516 136.26192665542854 2.005719012009996
  endloop
endfacet
facet normal 0.0 0.0 1.0
  outer loop
    vertex -191.5772028451805 137.5560218809411 2.005719012009996
    vertex -191.5772028451805 134.96783142991595 2.005719012009996
    vertex -191.07770073265735 133.76192665542857 2.005719012009996
  endloop
endfacet
facet normal 0.0 0.0 1.0
  outer loop
    vertex -191.5772028451805 137.5560218809411 2.005719012009996
    vertex -191.07770073265735 133.76192665542857 2.005719012009996
    vertex -191.07770073265735 138.7619266554285 2.005719012009996
  endloop
endfacet
facet normal 0.0 0.0 1.0
  outer loop
    vertex -191.07770073265735 138.7619266554285 2.005719012009996
    vertex -191.07770073265735 133.76192665542857 2.005719012009996
    vertex -190.28310761966782 132.72639274949583 2.005719012009996
  endloop
endfacet
facet normal 0.0 0.0 1.0
  outer loop
    vertex -191.07770073265735 138.7619266554285 2.005719012009996
    vertex -190.28310761966782 132.72639274949583 2.005719012009996
    vertex -190.28310761966782 139.79746056136122 2.005719012009996
  endloop
endfacet
facet normal 0.0 0.0 1.0
  outer loop
    vertex -190.28310761966782 139.79746056136122 2.005719012009996
    vertex -190.28310761966782 132.72639274949583 2.005719012009996
    vertex -189.2475737137352 131.9317996365064 2.005719012009996
  endloop
endfacet
facet normal 0.0 0.0 1.0
  outer loop
    vertex -190.28310761966782 139.79746056136122 2.005719012009996
    vertex -189.2475737137352 131.9317996365064 2.005719012009996
    vertex -189.2475737137352 140.59205367435064 2.005719012009996
  endloop
endfacet
facet normal 0.0 0.0 1.0
  outer loop
    vertex -189.2475737137352 140.59205367435064 2.005719012009996
    vertex -189.2475737137352 131.9317996365064 2.005719012009996
    vertex -188.04166893924787 131.43229752398324 2.005719012009996
  endloop
endfacet
facet normal 0.0 0.0 1.0
  outer loop
    vertex -189.2475737137352 140.59205367435064 2.005719012009996
    vertex -188.04166893924787 131.43229752398324 2.005719012009996
    vertex -188.04166893924787 141.0915557868738 2.005719012009996
  endloop
endfacet
facet normal 0.0 0.0 1.0
  outer loop
    vertex -188.04166893924787 141.0915557868738 2.005719012009996
    vertex -188.04166893924787 131.43229752398324 2.005719012009996
    vertex -186.74757371373522 131.26192665542857 2.005719012009996
  endloop
endfacet
facet normal 0.0 0.0 1.0
  outer loop
    vertex -188.04166893924787 141.0915557868738 2.005719012009996
    vertex -186.74757371373522 131.26192665542857 2.005719012009996
    vertex -186.74757371373522 141.26192665542848 2.005719012009996
  endloop
endfacet
facet normal 0.0 0.0 1.0
  outer loop
    vertex -186.74757371373522 141.26192665542848 2.005719012009996
    vertex -186.74757371373522 131.26192665542857 2.005719012009996
    vertex -173.7496490958323 131.26192665542857 2.005719012009996
  endloop
endfacet
facet normal 0.0 0.0 1.0
  outer loop
    vertex -186.74757371373522 141.26192665542848 2.005719012009996
    vertex -173.7496490958323 131.26192665542857 2.005719012009996
    vertex -179.07053795821162 141.26192665542848 2.005719012009996
  endloop
endfacet
facet normal 0.0 0.0 1.0
  outer loop
    vertex -179.07053795821162 141.26192665542848 2.005719012009996
    vertex -173.7496490958323 131.26192665542857 2.005719012009996
    vertex -173.35853424155212 156.83505545442588 2.005719012009996
  endloop
endfacet
facet normal 0.0 0.0 1.0
  outer loop
    vertex -173.35853424155212 156.83505545442588 2.005719012009996
    vertex -173.7496490958323 131.26192665542857 2.005719012009996
    vertex -172.7332983140043 131.31370917246804 2.005719012009996
  endloop
endfacet
facet normal 0.0 0.0 1.0
  outer loop
    vertex -173.35853424155212 156.83505545442588 2.005719012009996
    vertex -172.7332983140043 131.31370917246804 2.005719012009996
    vertex -172.45447991782518 158.57172765211624 2.005719012009996
  endloop
endfacet
facet normal 0.0 0.0 1.0
  outer loop
    vertex -172.45447991782518 158.57172765211624 2.005719012009996
    vertex -172.7332983140043 131.31370917246804 2.005719012009996
    vertex -171.72747337251198 131.4685204377729 2.005719012009996
  endloop
endfacet
facet normal 0.0 0.0 1.0
  outer loop
    vertex -172.45447991782518 158.57172765211624 2.005719012009996
    vertex -171.72747337251198 131.4685204377729 2.005719012009996
    vertex -171.1317466583068 160.01523770287568 2.005719012009996
  endloop
endfacet
facet normal 0.0 0.0 1.0
  outer loop
    vertex -171.1317466583068 160.01523770287568 2.005719012009996
    vertex -171.72747337251198 131.4685204377729 2.005719012009996
    vertex -170.74259110078953 131.72475714794606 2.005719012009996
  endloop
endfacet
facet normal 0.0 0.0 1.0
  outer loop
    vertex -171.1317466583068 160.01523770287568 2.005719012009996
    vertex -170.74259110078953 131.72475714794606 2.005719012009996
    vertex -169.48047654871306 161.06721278225825 2.005719012009996
  endloop
endfacet
facet normal 0.0 0.0 1.0
  outer loop
    vertex -169.48047654871306 161.06721278225825 2.005719012009996
    vertex -170.74259110078953 131.72475714794606 2.005719012009996
    vertex -169.7888514354407 132.07976558662563 2.005719012009996
  endloop
endfacet
facet normal 0.0 0.0 1.0
  outer loop
    vertex -169.48047654871306 161.06721278225825 2.005719012009996
    vertex -169.7888514354407 132.07976558662563 2.005719012009996
    vertex -168.87613178455973 132.52986910770645 2.005719012009996
  endloop
endfacet
facet normal 0.0 0.0 1.0
  outer loop
    vertex -169.48047654871306 161.06721278225825 2.005719012009996
    vertex -168.87613178455973 132.52986910770645 2.005719012009996
    vertex -167.6132009181597 161.65596252707502 2.005719012009996
  endloop
endfacet
facet normal 0.0 0.0 1.0
  outer loop
    vertex -167.6132009181597 161.65596252707502 2.005719012009996
    vertex -168.87613178455973 132.52986910770645 2.005719012009996
    vertex -168.01388473232177 133.07040621253847 2.005719012009996
  endloop
endfacet
facet normal 0.0 0.0 1.0
  outer loop
    vertex -167.6132009181597 161.65596252707502 2.005719012009996
    vertex -168.01388473232177 133.07040621253847 2.005719012009996
    vertex -167.21104014326156 133.6957788267535 2.005719012009996
  endloop
endfacet
facet normal 0.0 0.0 1.0
  outer loop
    vertex -167.6132009181597 161.65596252707502 2.005719012009996
    vertex -167.21104014326156 133.6957788267535 2.005719012009996
    vertex -165.6571715150503 161.74136461517153 2.005719012009996
  endloop
endfacet
facet normal 0.0 0.0 1.0
  outer loop
    vertex -165.6571715150503 161.74136461517153 2.005719012009996
    vertex -167.21104014326156 133.6957788267535 2.005719012009996
    vertex -166.4759126801018 134.39951027674104 2.005719012009996
  endloop
endfacet
facet normal 0.0 0.0 1.0
  outer loop
    vertex -165.6571715150503 161.74136461517153 2.005719012009996
    vertex -166.4759126801018 134.39951027674104 2.005719012009996
    vertex -165.8161156929198 135.17431236534117 2.005719012009996
  endloop
endfacet
facet normal 0.0 0.0 1.0
  outer loop
    vertex -165.6571715150503 161.74136461517153 2.005719012009996
    vertex -165.8161156929198 135.17431236534117 2.005719012009996
    vertex -165.23848237146223 136.01216085208284 2.005719012009996
  endloop
endfacet
facet normal 0.0 0.0 1.0
  outer loop
    vertex -165.6571715150503 161.74136461517153 2.005719012009996
    vertex -165.23848237146223 136.01216085208284 2.005719012009996
    vertex -163.74568851071524 161.3175990353778 2.005719012009996
  endloop
endfacet
facet normal 0.0 0.0 1.0
  outer loop
    vertex -163.74568851071524 161.3175990353778 2.005719012009996
    vertex -165.23848237146223 136.01216085208284 2.005719012009996
    vertex -164.74899497719105 136.90437855625765 2.005719012009996
  endloop
endfacet
facet normal 0.0 0.0 1.0
  outer loop
    vertex -163.74568851071524 161.3175990353778 2.005719012009996
    vertex -164.74899497719105 136.90437855625765 2.005719012009996
    vertex -164.3527228879731 137.84172522217176 2.005719012009996
  endloop
endfacet
facet normal 0.0 0.0 1.0
  outer loop
    vertex -163.74568851071524 161.3175990353778 2.005719012009996
    vertex -164.3527228879731 137.84172522217176 2.005719012009996
    vertex -159.26314492976323 151.70475330454104 2.005719012009996
  endloop
endfacet
facet normal 0.0 0.0 1.0
  outer loop
    vertex -163.74568851071524 161.3175990353778 2.005719012009996
    vertex -159.26314492976323 151.70475330454104 2.005719012009996
    vertex -162.00901631302497 160.41354471165099 2.005719012009996
  endloop
endfacet
facet normal 0.0 0.0 1.0
  outer loop
    vertex -162.00901631302497 160.41354471165099 2.005719012009996
    vertex -159.26314492976323 151.70475330454104 2.005719012009996
    vertex -160.56550626226544 159.09081145213258 2.005719012009996
  endloop
endfacet
facet normal 0.0 0.0 1.0
  outer loop
    vertex -160.56550626226544 159.09081145213258 2.005719012009996
    vertex -159.26314492976323 151.70475330454104 2.005719012009996
    vertex -159.5135311828828 157.43954134253875 2.005719012009996
  endloop
endfacet
facet normal 0.0 0.0 1.0
  outer loop
    vertex -159.5135311828828 157.43954134253875 2.005719012009996
    vertex -159.26314492976323 151.70475330454104 2.005719012009996
    vertex -158.9247814380661 155.57226571198558 2.005719012009996
  endloop
endfacet
facet normal 0.0 0.0 1.0
  outer loop
    vertex -158.9247814380661 155.57226571198558 2.005719012009996
    vertex -159.26314492976323 151.70475330454104 2.005719012009996
    vertex -158.8393793499696 153.61623630887607 2.005719012009996
  endloop
endfacet
facet normal 0.6755902076156436 0.7372773368101393 0.0
  outer loop
    vertex -162.00901631302497 160.41354471165099 2.005719012009996
    vertex -160.56550626226544 159.09081145213258 0.005719012009999602
    vertex -162.00901631302497 160.41354471165099 0.005719012009999602
  endloop
endfacet
facet normal 0.6755902076156436 0.7372773368101393 0.0
  outer loop
    vertex -160.56550626226544 159.09081145213258 0.005719012009999602
    vertex -162.00901631302497 160.41354471165099 2.005719012009996
    vertex -160.56550626226544 159.09081145213258 2.005719012009996
  endloop
endfacet
facet normal -0.04361938736532588 0.9990482215818582 0.0
  outer loop
    vertex -167.6132009181597 161.65596252707502 2.005719012009996
    vertex -165.6571715150503 161.74136461517153 0.005719012009999602
    vertex -167.6132009181597 161.65596252707502 0.005719012009999602
  endloop
endfacet
facet normal -0.04361938736532588 0.9990482215818582 0.0
  outer loop
    vertex -165.6571715150503 161.74136461517153 0.005719012009999602
    vertex -167.6132009181597 161.65596252707502 2.005719012009996
    vertex -165.6571715150503 161.74136461517153 2.005719012009996
  endloop
endfacet
facet normal -0.8870108331782163 0.4617486132350445 0.0
  outer loop
    vertex -172.45447991782518 158.57172765211624 2.005719012009996
    vertex -173.35853424155212 156.83505545442588 0.005719012009999602
    vertex -173.35853424155212 156.83505545442588 2.005719012009996
  endloop
endfacet
facet normal -0.8870108331782163 0.4617486132350445 0.0
  outer loop
    vertex -173.35853424155212 156.83505545442588 0.005719012009999602
    vertex -172.45447991782518 158.57172765211624 2.005719012009996
    vertex -172.45447991782518 158.57172765211624 0.005719012009999602
  endloop
endfacet
facet normal 0.9990482215818582 0.043619387365323864 0.0
  outer loop
    vertex -158.9247814380661 155.57226571198558 0.005719012009999602
    vertex -158.8393793499696 153.61623630887607 2.005719012009996
    vertex -158.8393793499696 153.61623630887607 0.005719012009999602
  endloop
endfacet
facet normal 0.9990482215818582 0.043619387365323864 0.0
  outer loop
    vertex -158.8393793499696 153.61623630887607 2.005719012009996
    vertex -158.9247814380661 155.57226571198558 0.005719012009999602
    vertex -158.9247814380661 155.57226571198558 2.005719012009996
  endloop
endfacet
facet normal -0.9388401366920274 0.3443533036520715 0.0
  outer loop
    vertex -173.35853424155212 156.83505545442588 2.005719012009996
    vertex -179.07053795821162 141.26192665542848 0.005719012009999602
    vertex -179.07053795821162 141.26192665542848 2.005719012009996
  endloop
endfacet
facet normal -0.9388401366920274 0.3443533036520715 0.0
  outer loop
    vertex -179.07053795821162 141.26192665542848 0.005719012009999602
    vertex -173.35853424155212 156.83505545442588 2.005719012009996
    vertex -173.35853424155212 156.83505545442588 0.005719012009999602
  endloop
endfacet
facet normal 0.976296007119947 -0.2164396139380414 0.0
  outer loop
    vertex -158.8393793499696 153.61623630887607 0.005719012009999602
    vertex -159.26314492976323 151.70475330454104 2.005719012009996
    vertex -159.26314492976323 151.70475330454104 0.005719012009999602
  endloop
endfacet
facet normal 0.976296007119947 -0.2164396139380414 0.0
  outer loop
    vertex -159.26314492976323 151.70475330454104 2.005719012009996
    vertex -158.8393793499696 153.61623630887607 0.005719012009999602
    vertex -158.8393793499696 153.61623630887607 2.005719012009996
  endloop
endfacet
facet normal 0.21643961393808528 0.9762960071199372 0.0
  outer loop
    vertex -165.6571715150503 161.74136461517153 2.005719012009996
    vertex -163.74568851071524 161.3175990353778 0.005719012009999602
    vertex -165.6571715150503 161.74136461517153 0.005719012009999602
  endloop
endfacet
facet normal 0.21643961393808528 0.9762960071199372 0.0
  outer loop
    vertex -163.74568851071524 161.3175990353778 0.005719012009999602
    vertex -165.6571715150503 161.74136461517153 2.005719012009996
    vertex -163.74568851071524 161.3175990353778 2.005719012009996
  endloop
endfacet
facet normal -0.3007057995042938 0.9537169507482204 0.0
  outer loop
    vertex -169.48047654871306 161.06721278225825 2.005719012009996
    vertex -167.6132009181597 161.65596252707502 0.005719012009999602
    vertex -169.48047654871306 161.06721278225825 0.005719012009999602
  endloop
endfacet
facet normal -0.3007057995042938 0.9537169507482204 0.0
  outer loop
    vertex -167.6132009181597 161.65596252707502 0.005719012009999602
    vertex -169.48047654871306 161.06721278225825 2.005719012009996
    vertex -167.6132009181597 161.65596252707502 2.005719012009996
  endloop
endfacet
facet normal 0.4617486132350272 0.8870108331782254 0.0
  outer loop
    vertex -163.74568851071524 161.3175990353778 2.005719012009996
    vertex -162.00901631302497 160.41354471165099 0.005719012009999602
    vertex -163.74568851071524 161.3175990353778 0.005719012009999602
  endloop
endfacet
facet normal 0.4617486132350272 0.8870108331782254 0.0
  outer loop
    vertex -162.00901631302497 160.41354471165099 0.005719012009999602
    vertex -163.74568851071524 161.3175990353778 2.005719012009996
    vertex -162.00901631302497 160.41354471165099 2.005719012009996
  endloop
endfacet
facet normal 0.921072175024996 -0.3893918956459202 0.0
  outer loop
    vertex -164.3527228879731 137.84172522217176 0.005719012009999602
    vertex -164.74899497719105 136.90437855625765 2.005719012009996
    vertex -164.74899497719105 136.90437855625765 0.005719012009999602
  endloop
endfacet
facet normal 0.921072175024996 -0.3893918956459202 0.0
  outer loop
    vertex -164.74899497719105 136.90437855625765 2.005719012009996
    vertex -164.3527228879731 137.84172522217176 0.005719012009999602
    vertex -164.3527228879731 137.84172522217176 2.005719012009996
  endloop
endfacet
facet normal 0.9537169507482253 0.3007057995042783 0.0
  outer loop
    vertex -159.5135311828828 157.43954134253875 0.005719012009999602
    vertex -158.9247814380661 155.57226571198558 2.005719012009996
    vertex -158.9247814380661 155.57226571198558 0.005719012009999602
  endloop
endfacet
facet normal 0.9537169507482253 0.3007057995042783 0.0
  outer loop
    vertex -158.9247814380661 155.57226571198558 2.005719012009996
    vertex -159.5135311828828 157.43954134253875 0.005719012009999602
    vertex -159.5135311828828 157.43954134253875 2.005719012009996
  endloop
endfacet
facet normal -0.5372996083468473 0.843391445812871 0.0
  outer loop
    vertex -171.1317466583068 160.01523770287568 2.005719012009996
    vertex -169.48047654871306 161.06721278225825 0.005719012009999602
    vertex -171.1317466583068 160.01523770287568 0.005719012009999602
  endloop
endfacet
facet normal -0.5372996083468473 0.843391445812871 0.0
  outer loop
    vertex -169.48047654871306 161.06721278225825 0.005719012009999602
    vertex -171.1317466583068 160.01523770287568 2.005719012009996
    vertex -169.48047654871306 161.06721278225825 2.005719012009996
  endloop
endfacet
facet normal -0.7372773368101182 0.6755902076156666 0.0
  outer loop
    vertex -171.1317466583068 160.01523770287568 2.005719012009996
    vertex -172.45447991782518 158.57172765211624 0.005719012009999602
    vertex -172.45447991782518 158.57172765211624 2.005719012009996
  endloop
endfacet
facet normal -0.7372773368101182 0.6755902076156666 0.0
  outer loop
    vertex -172.45447991782518 158.57172765211624 0.005719012009999602
    vertex -171.1317466583068 160.01523770287568 2.005719012009996
    vertex -171.1317466583068 160.01523770287568 0.005719012009999602
  endloop
endfacet
facet normal 0.8433914458128632 0.5372996083468592 0.0
  outer loop
    vertex -160.56550626226544 159.09081145213258 0.005719012009999602
    vertex -159.5135311828828 157.43954134253875 2.005719012009996
    vertex -159.5135311828828 157.43954134253875 0.005719012009999602
  endloop
endfacet
facet normal 0.8433914458128632 0.5372996083468592 0.0
  outer loop
    vertex -159.5135311828828 157.43954134253875 2.005719012009996
    vertex -160.56550626226544 159.09081145213258 0.005719012009999602
    vertex -160.56550626226544 159.09081145213258 2.005719012009996
  endloop
endfacet
facet normal 0.0 1.0 0.0
  outer loop
    vertex -186.74757371373522 141.26192665542848 2.005719012009996
    vertex -179.07053795821162 141.26192665542848 0.005719012009999602
    vertex -186.74757371373522 141.26192665542848 0.005719012009999602
  endloop
endfacet
facet normal 0.0 1.0 0.0
  outer loop
    vertex -179.07053795821162 141.26192665542848 0.005719012009999602
    vertex -186.74757371373522 141.26192665542848 2.005719012009996
    vertex -179.07053795821162 141.26192665542848 2.005719012009996
  endloop
endfacet
facet normal -0.38268343236512214 0.9238795325112735 0.0
  outer loop
    vertex -189.2475737137352 140.59205367435064 2.005719012009996
    vertex -188.04166893924787 141.0915557868738 0.005719012009999602
    vertex -189.2475737137352 140.59205367435064 0.005719012009999602
  endloop
endfacet
facet normal -0.38268343236512214 0.9238795325112735 0.0
  outer loop
    vertex -188.04166893924787 141.0915557868738 0.005719012009999602
    vertex -189.2475737137352 140.59205367435064 2.005719012009996
    vertex -188.04166893924787 141.0915557868738 2.005719012009996
  endloop
endfacet
facet normal -0.1305261922200494 0.9914448613738107 0.0
  outer loop
    vertex -188.04166893924787 141.0915557868738 2.005719012009996
    vertex -186.74757371373522 141.26192665542848 0.005719012009999602
    vertex -188.04166893924787 141.0915557868738 0.005719012009999602
  endloop
endfacet
facet normal -0.1305261922200494 0.9914448613738107 0.0
  outer loop
    vertex -186.74757371373522 141.26192665542848 0.005719012009999602
    vertex -188.04166893924787 141.0915557868738 2.005719012009996
    vertex -186.74757371373522 141.26192665542848 2.005719012009996
  endloop
endfacet
facet normal 0.9387346831405877 -0.3446406747163495 0.0
  outer loop
    vertex -159.26314492976323 151.70475330454104 0.005719012009999602
    vertex -164.3527228879731 137.84172522217176 2.005719012009996
    vertex -164.3527228879731 137.84172522217176 0.005719012009999602
  endloop
endfacet
facet normal 0.9387346831405877 -0.3446406747163495 0.0
  outer loop
    vertex -164.3527228879731 137.84172522217176 2.005719012009996
    vertex -159.26314492976323 151.70475330454104 0.005719012009999602
    vertex -159.26314492976323 151.70475330454104 2.005719012009996
  endloop
endfacet
facet normal -0.793353340291212 -0.608761429008751 0.0
  outer loop
    vertex -191.07770073265735 133.76192665542857 2.005719012009996
    vertex -190.28310761966782 132.72639274949583 0.005719012009999602
    vertex -190.28310761966782 132.72639274949583 2.005719012009996
  endloop
endfacet
facet normal -0.793353340291212 -0.608761429008751 0.0
  outer loop
    vertex -190.28310761966782 132.72639274949583 0.005719012009999602
    vertex -191.07770073265735 133.76192665542857 2.005719012009996
    vertex -191.07770073265735 133.76192665542857 0.005719012009999602
  endloop
endfacet
facet normal 0.0 -1.0 0.0
  outer loop
    vertex -173.7496490958323 131.26192665542857 2.005719012009996
    vertex -186.74757371373522 131.26192665542857 0.005719012009999602
    vertex -173.7496490958323 131.26192665542857 0.005719012009999602
  endloop
endfacet
facet normal 0.0 -1.0 0.0
  outer loop
    vertex -186.74757371373522 131.26192665542857 0.005719012009999602
    vertex -173.7496490958323 131.26192665542857 2.005719012009996
    vertex -186.74757371373522 131.26192665542857 2.005719012009996
  endloop
endfacet
facet normal 0.05088345361670718 -0.9987045980409004 0.0
  outer loop
    vertex -172.7332983140043 131.31370917246804 2.005719012009996
    vertex -173.7496490958323 131.26192665542857 0.005719012009999602
    vertex -172.7332983140043 131.31370917246804 0.005719012009999602
  endloop
endfacet
facet normal 0.05088345361670718 -0.9987045980409004 0.0
  outer loop
    vertex -173.7496490958323 131.26192665542857 0.005719012009999602
    vertex -172.7332983140043 131.31370917246804 2.005719012009996
    vertex -173.7496490958323 131.26192665542857 2.005719012009996
  endloop
endfacet
facet normal -0.9914448613738096 0.13052619222005837 0.0
  outer loop
    vertex -191.5772028451805 137.5560218809411 2.005719012009996
    vertex -191.74757371373516 136.26192665542854 0.005719012009999602
    vertex -191.74757371373516 136.26192665542854 2.005719012009996
  endloop
endfacet
facet normal -0.9914448613738096 0.13052619222005837 0.0
  outer loop
    vertex -191.74757371373516 136.26192665542854 0.005719012009999602
    vertex -191.5772028451805 137.5560218809411 2.005719012009996
    vertex -191.5772028451805 137.5560218809411 0.005719012009999602
  endloop
endfacet
facet normal -0.793353340291212 0.608761429008751 0.0
  outer loop
    vertex -190.28310761966782 139.79746056136122 2.005719012009996
    vertex -191.07770073265735 138.7619266554285 0.005719012009999602
    vertex -191.07770073265735 138.7619266554285 2.005719012009996
  endloop
endfacet
facet normal -0.793353340291212 0.608761429008751 0.0
  outer loop
    vertex -191.07770073265735 138.7619266554285 0.005719012009999602
    vertex -190.28310761966782 139.79746056136122 2.005719012009996
    vertex -190.28310761966782 139.79746056136122 0.005719012009999602
  endloop
endfacet
facet normal 0.25178785239533713 -0.9677824535432248 0.0
  outer loop
    vertex -170.74259110078953 131.72475714794606 2.005719012009996
    vertex -171.72747337251198 131.4685204377729 0.005719012009999602
    vertex -170.74259110078953 131.72475714794606 0.005719012009999602
  endloop
endfacet
facet normal 0.25178785239533713 -0.9677824535432248 0.0
  outer loop
    vertex -171.72747337251198 131.4685204377729 0.005719012009999602
    vertex -170.74259110078953 131.72475714794606 2.005719012009996
    vertex -171.72747337251198 131.4685204377729 2.005719012009996
  endloop
endfacet
facet normal -0.6087614290087409 -0.7933533402912197 0.0
  outer loop
    vertex -189.2475737137352 131.9317996365064 2.005719012009996
    vertex -190.28310761966782 132.72639274949583 0.005719012009999602
    vertex -189.2475737137352 131.9317996365064 0.005719012009999602
  endloop
endfacet
facet normal -0.6087614290087409 -0.7933533402912197 0.0
  outer loop
    vertex -190.28310761966782 132.72639274949583 0.005719012009999602
    vertex -189.2475737137352 131.9317996365064 2.005719012009996
    vertex -190.28310761966782 132.72639274949583 2.005719012009996
  endloop
endfacet
facet normal -0.6087614290087409 0.7933533402912197 0.0
  outer loop
    vertex -190.28310761966782 139.79746056136122 2.005719012009996
    vertex -189.2475737137352 140.59205367435064 0.005719012009999602
    vertex -190.28310761966782 139.79746056136122 0.005719012009999602
  endloop
endfacet
facet normal -0.6087614290087409 0.7933533402912197 0.0
  outer loop
    vertex -189.2475737137352 140.59205367435064 0.005719012009999602
    vertex -190.28310761966782 139.79746056136122 2.005719012009996
    vertex -189.2475737137352 140.59205367435064 2.005719012009996
  endloop
endfacet
facet normal 0.4422886902189904 -0.8968727415326938 0.0
  outer loop
    vertex -168.87613178455973 132.52986910770645 2.005719012009996
    vertex -169.7888514354407 132.07976558662563 0.005719012009999602
    vertex -168.87613178455973 132.52986910770645 0.005719012009999602
  endloop
endfacet
facet normal 0.4422886902189904 -0.8968727415326938 0.0
  outer loop
    vertex -169.7888514354407 132.07976558662563 0.005719012009999602
    vertex -168.87613178455973 132.52986910770645 2.005719012009996
    vertex -169.7888514354407 132.07976558662563 2.005719012009996
  endloop
endfacet
facet normal -0.9238795325112836 0.3826834323650976 0.0
  outer loop
    vertex -191.07770073265735 138.7619266554285 2.005719012009996
    vertex -191.5772028451805 137.5560218809411 0.005719012009999602
    vertex -191.5772028451805 137.5560218809411 2.005719012009996
  endloop
endfacet
facet normal -0.9238795325112836 0.3826834323650976 0.0
  outer loop
    vertex -191.5772028451805 137.5560218809411 0.005719012009999602
    vertex -191.07770073265735 138.7619266554285 2.005719012009996
    vertex -191.07770073265735 138.7619266554285 0.005719012009999602
  endloop
endfacet
facet normal 0.5311521392609612 -0.8472764631208072 0.0
  outer loop
    vertex -168.01388473232177 133.07040621253847 2.005719012009996
    vertex -168.87613178455973 132.52986910770645 0.005719012009999602
    vertex -168.01388473232177 133.07040621253847 0.005719012009999602
  endloop
endfacet
facet normal 0.5311521392609612 -0.8472764631208072 0.0
  outer loop
    vertex -168.87613178455973 132.52986910770645 0.005719012009999602
    vertex -168.01388473232177 133.07040621253847 2.005719012009996
    vertex -168.87613178455973 132.52986910770645 2.005719012009996
  endloop
endfacet
facet normal -0.38268343236512214 -0.9238795325112735 0.0
  outer loop
    vertex -188.04166893924787 131.43229752398324 2.005719012009996
    vertex -189.2475737137352 131.9317996365064 0.005719012009999602
    vertex -188.04166893924787 131.43229752398324 0.005719012009999602
  endloop
endfacet
facet normal -0.38268343236512214 -0.9238795325112735 0.0
  outer loop
    vertex -189.2475737137352 131.9317996365064 0.005719012009999602
    vertex -188.04166893924787 131.43229752398324 2.005719012009996
    vertex -189.2475737137352 131.9317996365064 2.005719012009996
  endloop
endfacet
facet normal -0.9238795325112836 -0.3826834323650976 0.0
  outer loop
    vertex -191.5772028451805 134.96783142991595 2.005719012009996
    vertex -191.07770073265735 133.76192665542857 0.005719012009999602
    vertex -191.07770073265735 133.76192665542857 2.005719012009996
  endloop
endfacet
facet normal -0.9238795325112836 -0.3826834323650976 0.0
  outer loop
    vertex -191.07770073265735 133.76192665542857 0.005719012009999602
    vertex -191.5772028451805 134.96783142991595 2.005719012009996
    vertex -191.5772028451805 134.96783142991595 0.005719012009999602
  endloop
endfacet
facet normal 0.15212338618994733 -0.9883615104677561 0.0
  outer loop
    vertex -171.72747337251198 131.4685204377729 2.005719012009996
    vertex -172.7332983140043 131.31370917246804 0.005719012009999602
    vertex -171.72747337251198 131.4685204377729 0.005719012009999602
  endloop
endfacet
facet normal 0.15212338618994733 -0.9883615104677561 0.0
  outer loop
    vertex -172.7332983140043 131.31370917246804 0.005719012009999602
    vertex -171.72747337251198 131.4685204377729 2.005719012009996
    vertex -172.7332983140043 131.31370917246804 2.005719012009996
  endloop
endfacet
facet normal 0.34884467684955833 -0.9371805543403722 0.0
  outer loop
    vertex -169.7888514354407 132.07976558662563 2.005719012009996
    vertex -170.74259110078953 131.72475714794606 0.005719012009999602
    vertex -169.7888514354407 132.07976558662563 0.005719012009999602
  endloop
endfacet
facet normal 0.34884467684955833 -0.9371805543403722 0.0
  outer loop
    vertex -170.74259110078953 131.72475714794606 0.005719012009999602
    vertex -169.7888514354407 132.07976558662563 2.005719012009996
    vertex -170.74259110078953 131.72475714794606 2.005719012009996
  endloop
endfacet
facet normal 0.6915130557822594 -0.722363962059765 0.0
  outer loop
    vertex -166.4759126801018 134.39951027674104 2.005719012009996
    vertex -167.21104014326156 133.6957788267535 0.005719012009999602
    vertex -166.4759126801018 134.39951027674104 0.005719012009999602
  endloop
endfacet
facet normal 0.6915130557822594 -0.722363962059765 0.0
  outer loop
    vertex -167.21104014326156 133.6957788267535 0.005719012009999602
    vertex -166.4759126801018 134.39951027674104 2.005719012009996
    vertex -167.21104014326156 133.6957788267535 2.005719012009996
  endloop
endfacet
facet normal -0.9914448613738096 -0.13052619222005837 0.0
  outer loop
    vertex -191.74757371373516 136.26192665542854 2.005719012009996
    vertex -191.5772028451805 134.96783142991595 0.005719012009999602
    vertex -191.5772028451805 134.96783142991595 2.005719012009996
  endloop
endfacet
facet normal -0.9914448613738096 -0.13052619222005837 0.0
  outer loop
    vertex -191.5772028451805 134.96783142991595 0.005719012009999602
    vertex -191.74757371373516 136.26192665542854 2.005719012009996
    vertex -191.74757371373516 136.26192665542854 0.005719012009999602
  endloop
endfacet
facet normal -0.1305261922200494 -0.9914448613738107 0.0
  outer loop
    vertex -186.74757371373522 131.26192665542857 2.005719012009996
    vertex -188.04166893924787 131.43229752398324 0.005719012009999602
    vertex -186.74757371373522 131.26192665542857 0.005719012009999602
  endloop
endfacet
facet normal -0.1305261922200494 -0.9914448613738107 0.0
  outer loop
    vertex -188.04166893924787 131.43229752398324 0.005719012009999602
    vertex -186.74757371373522 131.26192665542857 2.005719012009996
    vertex -188.04166893924787 131.43229752398324 2.005719012009996
  endloop
endfacet
facet normal 0.7613497448831681 -0.6483413961535506 0.0
  outer loop
    vertex -165.8161156929198 135.17431236534117 0.005719012009999602
    vertex -166.4759126801018 134.39951027674104 2.005719012009996
    vertex -166.4759126801018 134.39951027674104 0.005719012009999602
  endloop
endfacet
facet normal 0.7613497448831681 -0.6483413961535506 0.0
  outer loop
    vertex -166.4759126801018 134.39951027674104 2.005719012009996
    vertex -165.8161156929198 135.17431236534117 0.005719012009999602
    vertex -165.8161156929198 135.17431236534117 2.005719012009996
  endloop
endfacet
facet normal 0.82330151275673 -0.5676042803683566 0.0
  outer loop
    vertex -165.23848237146223 136.01216085208284 0.005719012009999602
    vertex -165.8161156929198 135.17431236534117 2.005719012009996
    vertex -165.8161156929198 135.17431236534117 0.005719012009999602
  endloop
endfacet
facet normal 0.82330151275673 -0.5676042803683566 0.0
  outer loop
    vertex -165.8161156929198 135.17431236534117 2.005719012009996
    vertex -165.23848237146223 136.01216085208284 0.005719012009999602
    vertex -165.23848237146223 136.01216085208284 2.005719012009996
  endloop
endfacet
facet normal 0.8767267557075231 -0.48098876891935977 0.0
  outer loop
    vertex -164.74899497719105 136.90437855625765 0.005719012009999602
    vertex -165.23848237146223 136.01216085208284 2.005719012009996
    vertex -165.23848237146223 136.01216085208284 0.005719012009999602
  endloop
endfacet
facet normal 0.8767267557075231 -0.48098876891935977 0.0
  outer loop
    vertex -165.23848237146223 136.01216085208284 2.005719012009996
    vertex -164.74899497719105 136.90437855625765 0.005719012009999602
    vertex -164.74899497719105 136.90437855625765 2.005719012009996
  endloop
endfacet
facet normal 0.6145147093624947 -0.7889053631311737 0.0
  outer loop
    vertex -167.21104014326156 133.6957788267535 2.005719012009996
    vertex -168.01388473232177 133.07040621253847 0.005719012009999602
    vertex -167.21104014326156 133.6957788267535 0.005719012009999602
  endloop
endfacet
facet normal 0.6145147093624947 -0.7889053631311737 0.0
  outer loop
    vertex -168.01388473232177 133.07040621253847 0.005719012009999602
    vertex -167.21104014326156 133.6957788267535 2.005719012009996
    vertex -168.01388473232177 133.07040621253847 2.005719012009996
  endloop
endfacet
endsolid ProtoGlove
