solid ProtoGlove baseplate
facet normal 0.31789465640851516 0.7549998089691342 -0.5735139718293557
  outer loop
    vertex 70.04099351561962 -496.6328868733423 118.00087279571235
    vertex 83.33529127608584 -502.76754812426765 117.29385976080627
    vertex 54.07550980684191 -503.5844251818262 100.00000000090432
  endloop
endfacet
facet normal 0.31789465640851516 0.7549998089691342 -0.5735139718293557
  outer loop
    vertex 80.0000000000004 -514.4999999999982 100.00000000092578
    vertex 54.07550980684191 -503.5844251818262 100.00000000090432
    vertex 83.33529127608584 -502.76754812426765 117.29385976080627
  endloop
endfacet
facet normal 0.2764336295600084 0.50480597360728 0.8177746495573744
  outer loop
    vertex 69.33581485110138 -496.93992902690934 118.42878017970939
    vertex 82.93980959793586 -503.21750012806206 117.70529694004571
    vertex 70.04099351561962 -496.6328868733423 118.00087279571235
  endloop
endfacet
facet normal 0.2764336295600084 0.50480597360728 0.8177746495573744
  outer loop
    vertex 83.33529127608584 -502.76754812426765 117.29385976080627
    vertex 70.04099351561962 -496.6328868733423 118.00087279571235
    vertex 82.93980959793586 -503.21750012806206 117.70529694004571
  endloop
endfacet
facet normal 0.5976828434958283 -0.7134545903657991 0.36572908836557033
  outer loop
    vertex 82.93980959793586 -503.21750012806206 117.70529694004571
    vertex 75.66894427594829 -512.676397589849 111.13534549229884
    vertex 80.0000000000004 -514.4999999999973 100.50000000092575
  endloop
endfacet
facet normal 0.8446649620457499 -0.35099433109921296 0.40415848553317296
  outer loop
    vertex 75.55257750928709 -513.1946064593708 110.92850226625121
    vertex 80.0000000000004 -514.4999999999973 100.50000000092575
    vertex 75.66894427594829 -512.676397589849 111.13534549229884
  endloop
endfacet
facet normal 0.8211483553005167 -0.5313982930091121 0.20816155450576873
  outer loop
    vertex 82.93980959793586 -503.21750012806206 117.70529694004571
    vertex 80.0000000000004 -514.4999999999973 100.50000000092575
    vertex 83.33529127608584 -502.76754812426765 117.29385976080627
  endloop
endfacet
facet normal 0.9618877486997398 -0.2734446176126831 3.9640543845338333e-13
  outer loop
    vertex 80.0000000000004 -514.4999999999973 100.50000000092575
    vertex 80.0000000000004 -514.4999999999982 100.00000000092578
    vertex 83.33529127608584 -502.76754812426765 117.29385976080627
  endloop
endfacet
facet normal 0.8760898075249856 -0.25982727983129117 0.40614829041411193
  outer loop
    vertex 75.60542716315763 -517.419603466994 108.11162343190539
    vertex 80.0000000000004 -514.4999999999973 100.50000000092575
    vertex 75.55257750928709 -513.1946064593708 110.92850226625121
  endloop
endfacet
facet normal -0.17087601422691948 -0.47009769515844296 0.8659154374236792
  outer loop
    vertex 55.35474344944411 -504.12304987342515 111.77016426811016
    vertex 75.66894427594829 -512.676397589849 111.13534549229884
    vertex 58.65529807391677 -501.5903375510153 113.7964681869463
  endloop
endfacet
facet normal -0.17087601422691948 -0.47009769515844296 0.8659154374236792
  outer loop
    vertex 69.33581485110138 -496.93992902690934 118.42878017970939
    vertex 58.65529807391677 -501.5903375510153 113.7964681869463
    vertex 75.66894427594829 -512.676397589849 111.13534549229884
  endloop
endfacet
facet normal -0.17087601422691948 -0.47009769515844296 0.8659154374236792
  outer loop
    vertex 82.93980959793586 -503.21750012806206 117.70529694004571
    vertex 69.33581485110138 -496.93992902690934 118.42878017970939
    vertex 75.66894427594829 -512.676397589849 111.13534549229884
  endloop
endfacet
facet normal -0.6830127018922383 0.6830127018927287 0.2588190451011266
  outer loop
    vertex 55.35474344944411 -504.12304987342515 111.77016426811016
    vertex 58.65529807391677 -501.5903375510153 113.7964681869463
    vertex 54.07550980684191 -503.5844251818126 106.97291168561782
  endloop
endfacet
facet normal -0.3992101743890307 0.916859442152547 -1.80085000553659e-12
  outer loop
    vertex 69.33581485110138 -496.93992902690934 118.42878017970939
    vertex 70.04099351561962 -496.6328868733423 118.00087279571235
    vertex 58.65529807391677 -501.5903375510153 113.7964681869463
  endloop
endfacet
facet normal -0.3992101743890307 0.916859442152547 -1.80085000553659e-12
  outer loop
    vertex 54.07550980684191 -503.5844251818262 100.00000000090432
    vertex 58.65529807391677 -501.5903375510153 113.7964681869463
    vertex 70.04099351561962 -496.6328868733423 118.00087279571235
  endloop
endfacet
facet normal -0.3992101743890307 0.916859442152547 -1.80085000553659e-12
  outer loop
    vertex 54.07550980684191 -503.5844251818126 106.97291168561782
    vertex 58.65529807391677 -501.5903375510153 113.7964681869463
    vertex 54.07550980684191 -503.5844251818262 100.00000000090432
  endloop
endfacet
facet normal -0.11639030097740666 0.34553645271660266 0.931159415826536
  outer loop
    vertex 12.456303630553782 -594.3252145221933 109.91415279590503
    vertex 12.500000000000044 -594.4999999999785 109.9844743611052
    vertex 36.6961619521176 -587.210407115376 110.30383804895173
  endloop
endfacet
facet normal -0.11639030097740666 0.34553645271660266 0.931159415826536
  outer loop
    vertex 32.49999999999983 -594.4999999999734 112.48437500108334
    vertex 36.6961619521176 -587.210407115376 110.30383804895173
    vertex 12.500000000000044 -594.4999999999785 109.9844743611052
  endloop
endfacet
facet normal -0.11639030097740666 0.34553645271660266 0.931159415826536
  outer loop
    vertex 34.580645161290235 -593.6239388794303 112.4193548397913
    vertex 36.6961619521176 -587.210407115376 110.30383804895173
    vertex 32.49999999999983 -594.4999999999734 112.48437500108334
  endloop
endfacet
facet normal -0.049359696198095195 -0.22392459945494145 0.9733557387462078
  outer loop
    vertex 3.71850817247292 -512.5918940962131 104.21850817339491
    vertex 31.10818014147753 -516.5810531741461 104.68973880409743
    vertex 6.01445332937964 -503.11797187402306 106.51445333028309
  endloop
endfacet
facet normal -0.049359696198095195 -0.22392459945494145 0.9733557387462078
  outer loop
    vertex 39.302314627903854 -512.3791651062436 106.07193242340975
    vertex 6.01445332937964 -503.11797187402306 106.51445333028309
    vertex 31.10818014147753 -516.5810531741461 104.68973880409743
  endloop
endfacet
facet normal -0.049359696198095195 -0.22392459945494145 0.9733557387462078
  outer loop
    vertex 35.677204826838164 -516.4267924222094 104.95692626406462
    vertex 39.302314627903854 -512.3791651062436 106.07193242340975
    vertex 31.10818014147753 -516.5810531741461 104.68973880409743
  endloop
endfacet
facet normal 0.707106781186545 -0.7071067811865501 1.3928854452961156e-12
  outer loop
    vertex 34.792893218813454 -518.9999999999975 100.5000000009346
    vertex 34.792893218813454 -518.9999999999984 100.00000000093462
    vertex 44.99999999999987 -508.79289321881106 100.5000000009147
  endloop
endfacet
facet normal 0.707106781186545 -0.7071067811865501 1.3928854452961156e-12
  outer loop
    vertex 44.99999999999987 -508.79289321881157 100.00000000091454
    vertex 44.99999999999987 -508.79289321881106 100.5000000009147
    vertex 34.792893218813454 -518.9999999999984 100.00000000093462
  endloop
endfacet
facet normal -0.7071067811865459 0.7071067811865491 -1.3928854452961138e-12
  outer loop
    vertex 35.20710678118651 -519.9999999999976 100.50000000093658
    vertex 52.349445512686884 -502.85766126849705 100.50000000090283
    vertex 35.20710678118651 -519.9999999999983 100.0000000009366
  endloop
endfacet
facet normal -0.7071067811865459 0.7071067811865491 -1.3928854452961138e-12
  outer loop
    vertex 52.349445512686884 -502.85766126849796 100.00000000090277
    vertex 35.20710678118651 -519.9999999999983 100.0000000009366
    vertex 52.349445512686884 -502.85766126849705 100.50000000090283
  endloop
endfacet
facet normal -0.033508760703414 0.26477556873694835 0.9637276903545663
  outer loop
    vertex 5.245759845647023 -565.4830393825823 102.38749903968026
    vertex 5.328952674461308 -565.8158106978389 102.48181759434985
    vertex 79.04798750225089 -555.274646978554 102.14893401654818
  endloop
endfacet
facet normal -0.033508760703414 0.26477556873694835 0.9637276903545663
  outer loop
    vertex 78.24465178897663 -560.4407848789363 103.54035228748438
    vertex 79.04798750225089 -555.274646978554 102.14893401654818
    vertex 5.328952674461308 -565.8158106978389 102.48181759434985
  endloop
endfacet
facet normal -0.0692367088221671 -0.3657422477427543 0.928137320856969
  outer loop
    vertex 36.787940403503804 -519.7014224185313 103.88382039420476
    vertex 78.22238699107913 -528.3189060029148 103.57891604860014
    vertex 39.101614516777325 -517.7452540940469 104.82726331064927
  endloop
endfacet
facet normal -0.0692367088221671 -0.3657422477427543 0.928137320856969
  outer loop
    vertex 77.12397239625663 -523.2830069474213 105.4814259345981
    vertex 39.101614516777325 -517.7452540940469 104.82726331064927
    vertex 78.22238699107913 -528.3189060029148 103.57891604860014
  endloop
endfacet
facet normal -0.026173748142778615 0.1607577950498845 0.9866467788620495
  outer loop
    vertex 6.805613906881964 -571.7224556275191 103.48338066169936
    vertex 7.711466428751578 -575.3458657149973 104.09778592300847
    vertex 23.755643850609093 -572.0090180690286 103.97972136993708
  endloop
endfacet
facet normal -0.17393814534187702 -0.5477787212849021 0.8183422230964901
  outer loop
    vertex 49.86643319737493 -508.4317040193737 108.65710083791213
    vertex 75.60542716315763 -517.419603466994 108.11162343190539
    vertex 52.57001307816333 -506.448836023217 110.55902954418167
  endloop
endfacet
facet normal -0.17393814534187702 -0.5477787212849021 0.8183422230964901
  outer loop
    vertex 75.55257750928709 -513.1946064593708 110.92850226625121
    vertex 52.57001307816333 -506.448836023217 110.55902954418167
    vertex 75.60542716315763 -517.419603466994 108.11162343190539
  endloop
endfacet
facet normal -0.11639030097740709 -0.34553645271293104 0.9311594158278984
  outer loop
    vertex 11.860816644618545 -494.49999999997885 109.90457961694912
    vertex 36.696161952117244 -501.78959288457986 110.30383804878325
    vertex 32.49999999999983 -494.4999999999736 112.48437500088637
  endloop
endfacet
facet normal -0.11639030097740709 -0.34553645271293104 0.9311594158278984
  outer loop
    vertex 34.580645161290235 -495.3760611205172 112.41935483959783
    vertex 32.49999999999983 -494.4999999999736 112.48437500088637
    vertex 36.696161952117244 -501.78959288457986 110.30383804878325
  endloop
endfacet
facet normal -0.07953940325017587 -0.285739243722766 0.9550008209040177
  outer loop
    vertex 46.259193890697176 -511.56935226555953 107.41786954840747
    vertex 75.70335578100286 -518.0137601607025 107.94200609028344
    vertex 49.86643319737493 -508.4317040193737 108.65710083791213
  endloop
endfacet
facet normal -0.07953940325017587 -0.285739243722766 0.9550008209040177
  outer loop
    vertex 75.60542716315763 -517.419603466994 108.11162343190539
    vertex 49.86643319737493 -508.4317040193737 108.65710083791213
    vertex 75.70335578100286 -518.0137601607025 107.94200609028344
  endloop
endfacet
facet normal -0.17393814534188584 -0.5477787212849128 0.8183422230964812
  outer loop
    vertex 9.969675586985465 -494.49999999997965 109.50261872716344
    vertex 38.093397373983755 -504.32063183393643 108.9066026269218
    vertex 11.860816644618545 -494.49999999997885 109.90457961694912
  endloop
endfacet
facet normal -0.17393814534188584 -0.5477787212849128 0.8183422230964812
  outer loop
    vertex 36.696161952117244 -501.78959288457986 110.30383804878325
    vertex 11.860816644618545 -494.49999999997885 109.90457961694912
    vertex 38.093397373983755 -504.32063183393643 108.9066026269218
  endloop
endfacet
facet normal -0.026173748142778158 -0.160757795045995 0.986646778862683
  outer loop
    vertex 1.93251062950726 -522.9338184779535 102.4325106304496
    vertex 78.24465178897663 -528.5592151210463 103.54035228742161
    vertex 2.209995417786527 -521.2759414493597 102.70999541872568
  endloop
endfacet
facet normal -0.026173748142778158 -0.160757795045995 0.986646778862683
  outer loop
    vertex 34.61272790690064 -521.7295489615857 103.49566667659958
    vertex 2.209995417786527 -521.2759414493597 102.70999541872568
    vertex 78.24465178897663 -528.5592151210463 103.54035228742161
  endloop
endfacet
facet normal -0.026173748142778158 -0.160757795045995 0.986646778862683
  outer loop
    vertex 36.787940403503804 -519.7014224185313 103.88382039420476
    vertex 34.61272790690064 -521.7295489615857 103.49566667659958
    vertex 78.24465178897663 -528.5592151210463 103.54035228742161
  endloop
endfacet
facet normal -0.026173748142778158 -0.160757795045995 0.986646778862683
  outer loop
    vertex 78.22238699107913 -528.3189060029148 103.57891604860014
    vertex 36.787940403503804 -519.7014224185313 103.88382039420476
    vertex 78.24465178897663 -528.5592151210463 103.54035228742161
  endloop
endfacet
facet normal -0.010165656186440959 -0.09675191254981444 0.9952566135687078
  outer loop
    vertex 0.8600203549386776 -533.6255053447182 101.36002035590214
    vertex 79.05518079201254 -533.854272119675 102.13647487316574
    vertex 1.8983196084783174 -523.0539395870771 102.398319609421
  endloop
endfacet
facet normal -0.010165656186440959 -0.09675191254981444 0.9952566135687078
  outer loop
    vertex 79.04798750225125 -533.7253530214339 102.14893401650576
    vertex 1.8983196084783174 -523.0539395870771 102.398319609421
    vertex 79.05518079201254 -533.854272119675 102.13647487316574
  endloop
endfacet
facet normal -0.049359696198095486 -0.22392459945494472 0.973355738746207
  outer loop
    vertex 39.101614516777325 -517.7452540940469 104.82726331064927
    vertex 77.12397239625663 -523.2830069474213 105.4814259345981
    vertex 43.69508929873205 -513.6013023498258 106.01353592224704
  endloop
endfacet
facet normal -0.049359696198095486 -0.22392459945494472 0.973355738746207
  outer loop
    vertex 77.07293878986842 -522.8875316765237 105.56981873375472
    vertex 43.69508929873205 -513.6013023498258 106.01353592224704
    vertex 77.12397239625663 -523.2830069474213 105.4814259345981
  endloop
endfacet
facet normal -0.010269568312112863 -0.16017379604959947 0.9870354051531001
  outer loop
    vertex 0.8507979397991448 -533.6817451308976 101.3507979407626
    vertex 79.54524751904951 -539.1163602473184 101.28765440284906
    vertex 0.8600203549386776 -533.6255053447182 101.36002035590214
  endloop
endfacet
facet normal -0.010269568312112863 -0.16017379604959947 0.9870354051531001
  outer loop
    vertex 79.05518079201254 -533.854272119675 102.13647487316574
    vertex 0.8600203549386776 -533.6255053447182 101.36002035590214
    vertex 79.54524751904951 -539.1163602473184 101.28765440284906
  endloop
endfacet
facet normal -0.1165465647288198 -0.4609438992307084 0.8797429283670894
  outer loop
    vertex 6.01445332937964 -503.11797187402306 106.51445333028309
    vertex 39.302314627903854 -512.3791651062436 106.07193242340975
    vertex 6.204860985249677 -502.802709147233 106.70486098615288
  endloop
endfacet
facet normal -0.1165465647288198 -0.4609438992307084 0.8797429283670894
  outer loop
    vertex 39.69891028731715 -510.13351097364233 107.30108971359982
    vertex 6.204860985249677 -502.802709147233 106.70486098615288
    vertex 39.302314627903854 -512.3791651062436 106.07193242340975
  endloop
endfacet
facet normal -0.1165465647288198 -0.4609438992307084 0.8797429283670894
  outer loop
    vertex 40.19605229715938 -511.2080394830928 106.80394770375975
    vertex 39.69891028731715 -510.13351097364233 107.30108971359982
    vertex 39.302314627903854 -512.3791651062436 106.07193242340975
  endloop
endfacet
facet normal -0.001428465011015542 0.032297190533312356 0.9994772888722221
  outer loop
    vertex 0.20095944808237504 -545.3038377923249 101.02626249455957
    vertex 2.673101777968435 -555.1924071118682 101.34933574477799
    vertex 12.16535554600754 -545.3138979734832 101.0436872394592
  endloop
endfacet
facet normal -0.001428465011015542 0.032297190533312356 0.9994772888722221
  outer loop
    vertex 79.54524751904951 -549.8836397526729 101.28765440287019
    vertex 12.16535554600754 -545.3138979734832 101.0436872394592
    vertex 2.673101777968435 -555.1924071118682 101.34933574477799
  endloop
endfacet
facet normal -0.001428465011015542 0.032297190533312356 0.9994772888722221
  outer loop
    vertex 79.54639865423717 -549.8218874218662 101.28566057823816
    vertex 12.16535554600754 -545.3138979734832 101.0436872394592
    vertex 79.54524751904951 -549.8836397526729 101.28765440287019
  endloop
endfacet
facet normal -0.010165656186440606 0.09675191255373657 0.9952566135683265
  outer loop
    vertex 2.7172652807378084 -555.3690611229467 101.37846224166053
    vertex 5.245759845647023 -565.4830393825823 102.38749903968026
    vertex 79.05518079201218 -555.1457278803134 102.13647487320763
  endloop
endfacet
facet normal -0.010165656186440606 0.09675191255373657 0.9952566135683265
  outer loop
    vertex 79.04798750225089 -555.274646978554 102.14893401654818
    vertex 79.05518079201218 -555.1457278803134 102.13647487320763
    vertex 5.245759845647023 -565.4830393825823 102.38749903968026
  endloop
endfacet
facet normal -0.010269568312112625 0.16017379605348717 0.987035405152469
  outer loop
    vertex 2.673101777968435 -555.1924071118682 101.34933574477799
    vertex 2.7172652807378084 -555.3690611229467 101.37846224166053
    vertex 79.54524751904951 -549.8836397526729 101.28765440287019
  endloop
endfacet
facet normal -0.010269568312112625 0.16017379605348717 0.987035405152469
  outer loop
    vertex 79.05518079201218 -555.1457278803134 102.13647487320763
    vertex 79.54524751904951 -549.8836397526729 101.28765440287019
    vertex 2.7172652807378084 -555.3690611229467 101.37846224166053
  endloop
endfacet
facet normal -0.11639030097739261 -0.34553645271290107 0.9311594158279114
  outer loop
    vertex 52.57001307816333 -506.448836023217 110.55902954418167
    vertex 75.55257750928709 -513.1946064593708 110.92850226625121
    vertex 55.35474344944411 -504.12304987342515 111.77016426811016
  endloop
endfacet
facet normal -0.11639030097739261 -0.34553645271290107 0.9311594158279114
  outer loop
    vertex 75.66894427594829 -512.676397589849 111.13534549229884
    vertex 55.35474344944411 -504.12304987342515 111.77016426811016
    vertex 75.55257750928709 -513.1946064593708 110.92850226625121
  endloop
endfacet
facet normal -0.02617374814277815 -0.16075779504599771 0.9866467788626828
  outer loop
    vertex 3.627836199098553 -512.8048260555523 104.12783620002115
    vertex 2.86807947019069 -517.3441135458202 103.36807947112202
    vertex 23.755643850609093 -516.9909819309522 103.97972136982872
  endloop
endfacet
facet normal -0.11654656472882093 -0.4609438992307114 0.8797429283670877
  outer loop
    vertex 43.69508929873205 -513.6013023498258 106.01353592224704
    vertex 77.07293878986842 -522.8875316765237 105.56981873375472
    vertex 46.259193890697176 -511.56935226555953 107.41786954840747
  endloop
endfacet
facet normal -0.11654656472882093 -0.4609438992307114 0.8797429283670877
  outer loop
    vertex 75.70335578100286 -518.0137601607025 107.94200609028344
    vertex 46.259193890697176 -511.56935226555953 107.41786954840747
    vertex 77.07293878986842 -522.8875316765237 105.56981873375472
  endloop
endfacet
facet normal -0.7071067811865444 1.391491605147565e-12 0.7071067811865508
  outer loop
    vertex 0.0 -494.4999999999976 100.50000000088635
    vertex 0.0 -518.9999999999975 100.5000000009346
    vertex 8.914757486411414 -494.4999999999799 109.41475748729762
  endloop
endfacet
facet normal -0.7071067811865444 1.391491605147565e-12 0.7071067811865508
  outer loop
    vertex 6.01445332937964 -503.11797187402306 106.51445333028309
    vertex 8.914757486411414 -494.4999999999799 109.41475748729762
    vertex 0.0 -518.9999999999975 100.5000000009346
  endloop
endfacet
facet normal -0.7071067811865444 1.391491605147565e-12 0.7071067811865508
  outer loop
    vertex 3.627836199098553 -512.8048260555523 104.12783620002115
    vertex 6.01445332937964 -503.11797187402306 106.51445333028309
    vertex 0.0 -518.9999999999975 100.5000000009346
  endloop
endfacet
facet normal -0.7071067811865444 1.391491605147565e-12 0.7071067811865508
  outer loop
    vertex 2.86807947019069 -517.3441135458202 103.36807947112202
    vertex 3.627836199098553 -512.8048260555523 104.12783620002115
    vertex 0.0 -518.9999999999975 100.5000000009346
  endloop
endfacet
facet normal -0.7071067811865444 1.391491605147565e-12 0.7071067811865508
  outer loop
    vertex 3.71850817247292 -512.5918940962131 104.21850817339491
    vertex 6.01445332937964 -503.11797187402306 106.51445333028309
    vertex 3.627836199098553 -512.8048260555523 104.12783620002115
  endloop
endfacet
facet normal -0.7071067811865444 1.391491605147565e-12 0.7071067811865508
  outer loop
    vertex 6.204860985249677 -502.802709147233 106.70486098615288
    vertex 8.914757486411414 -494.4999999999799 109.41475748729762
    vertex 6.01445332937964 -503.11797187402306 106.51445333028309
  endloop
endfacet
facet normal -0.7071067811865374 1.3924757456239392e-12 0.7071067811865578
  outer loop
    vertex 0.0 -519.9999999999976 100.50000000093658
    vertex 0.0 -520.4999999999975 100.5000000009377
    vertex 2.209995417786527 -521.2759414493597 102.70999541872568
  endloop
endfacet
facet normal -0.7071067811865374 1.3924757456239392e-12 0.7071067811865578
  outer loop
    vertex 1.8983196084783174 -523.0539395870771 102.398319609421
    vertex 2.209995417786527 -521.2759414493597 102.70999541872568
    vertex 0.0 -520.4999999999975 100.5000000009377
  endloop
endfacet
facet normal -0.7071067811865374 1.3924757456239392e-12 0.7071067811865578
  outer loop
    vertex 0.8507979397991448 -533.6817451308976 101.3507979407626
    vertex 1.8983196084783174 -523.0539395870771 102.398319609421
    vertex 0.0 -520.4999999999975 100.5000000009377
  endloop
endfacet
facet normal -0.7071067811865374 1.3924757456239392e-12 0.7071067811865578
  outer loop
    vertex 0.0 -543.9999999999976 100.50000000098389
    vertex 0.8507979397991448 -533.6817451308976 101.3507979407626
    vertex 0.0 -520.4999999999975 100.5000000009377
  endloop
endfacet
facet normal -0.7071067811865374 1.3924757456239392e-12 0.7071067811865578
  outer loop
    vertex 0.5267369504386863 -543.6958882798684 101.02673695142188
    vertex 0.8507979397991448 -533.6817451308976 101.3507979407626
    vertex 0.0 -543.9999999999976 100.50000000098389
  endloop
endfacet
facet normal -0.7071067811865374 1.3924757456239392e-12 0.7071067811865578
  outer loop
    vertex 0.8600203549386776 -533.6255053447182 101.36002035590214
    vertex 1.8983196084783174 -523.0539395870771 102.398319609421
    vertex 0.8507979397991448 -533.6817451308976 101.3507979407626
  endloop
endfacet
facet normal -0.7071067811865374 1.3924757456239392e-12 0.7071067811865578
  outer loop
    vertex 1.93251062950726 -522.9338184779535 102.4325106304496
    vertex 2.209995417786527 -521.2759414493597 102.70999541872568
    vertex 1.8983196084783174 -523.0539395870771 102.398319609421
  endloop
endfacet
facet normal -0.7071067811865422 -0.7071067811865529 1.3928854452961213e-12
  outer loop
    vertex 52.349445512686884 -586.142338731498 100.50000000106684
    vertex 35.20710678118651 -568.9999999999975 100.5000000010331
    vertex 52.349445512686884 -586.1423387314984 100.00000000106695
  endloop
endfacet
facet normal -0.7071067811865422 -0.7071067811865529 1.3928854452961213e-12
  outer loop
    vertex 35.20710678118651 -568.9999999999984 100.00000000103311
    vertex 52.349445512686884 -586.1423387314984 100.00000000106695
    vertex 35.20710678118651 -568.9999999999975 100.5000000010331
  endloop
endfacet
facet normal 1.0 0.0 0.0
  outer loop
    vertex 44.99999999999987 -589.2368421052613 100.00000000107296
    vertex 44.99999999999987 -580.2071067811847 100.00000000105537
    vertex 44.99999999999987 -589.2368421052574 102.00000000107305
  endloop
endfacet
facet normal 1.0 0.0 0.0
  outer loop
    vertex 44.99999999999987 -580.7755128541253 102.00000000105646
    vertex 44.99999999999987 -589.2368421052574 102.00000000107305
    vertex 44.99999999999987 -580.2071067811847 100.00000000105537
  endloop
endfacet
facet normal 1.0 0.0 0.0
  outer loop
    vertex 44.99999999999987 -580.207106781185 100.50000000105534
    vertex 44.99999999999987 -580.7755128541253 102.00000000105646
    vertex 44.99999999999987 -580.2071067811847 100.00000000105537
  endloop
endfacet
facet normal 0.683012701892216 -0.6830127018917113 0.2588190451038705
  outer loop
    vertex 34.792893218813454 -518.9999999999975 100.5000000009346
    vertex 44.99999999999987 -508.79289321881106 100.5000000009147
    vertex 35.677204826838164 -516.4267924222094 104.95692626406462
  endloop
endfacet
facet normal 0.683012701892216 -0.6830127018917113 0.2588190451038705
  outer loop
    vertex 39.302314627903854 -512.3791651062436 106.07193242340975
    vertex 35.677204826838164 -516.4267924222094 104.95692626406462
    vertex 44.99999999999987 -508.79289321881106 100.5000000009147
  endloop
endfacet
facet normal 0.683012701892216 -0.6830127018917113 0.2588190451038705
  outer loop
    vertex 40.19605229715938 -511.2080394830928 106.80394770375975
    vertex 39.302314627903854 -512.3791651062436 106.07193242340975
    vertex 44.99999999999987 -508.79289321881106 100.5000000009147
  endloop
endfacet
facet normal 0.683012701892216 -0.6830127018917113 0.2588190451038705
  outer loop
    vertex 44.99999999999987 -508.2244871458633 102.00000000091342
    vertex 40.19605229715938 -511.2080394830928 106.80394770375975
    vertex 44.99999999999987 -508.79289321881106 100.5000000009147
  endloop
endfacet
facet normal 0.9238795325112994 -0.38268343236505914 7.538241692505278e-13
  outer loop
    vertex 34.792893218813454 -569.9999999999982 100.00000000103509
    vertex 35.20710678118651 -568.9999999999984 100.00000000103311
    vertex 34.792893218813454 -569.9999999999975 100.50000000103508
  endloop
endfacet
facet normal 0.9238795325112994 -0.38268343236505914 7.538241692505278e-13
  outer loop
    vertex 35.20710678118651 -568.9999999999975 100.5000000010331
    vertex 34.792893218813454 -569.9999999999975 100.50000000103508
    vertex 35.20710678118651 -568.9999999999984 100.00000000103311
  endloop
endfacet
facet normal 0.9238795325112994 0.38268343236505914 -7.538241692505278e-13
  outer loop
    vertex 35.20710678118651 -519.9999999999983 100.0000000009366
    vertex 34.792893218813454 -518.9999999999984 100.00000000093462
    vertex 35.20710678118651 -519.9999999999976 100.50000000093658
  endloop
endfacet
facet normal 0.9238795325112994 0.38268343236505914 -7.538241692505278e-13
  outer loop
    vertex 34.792893218813454 -518.9999999999975 100.5000000009346
    vertex 35.20710678118651 -519.9999999999976 100.50000000093658
    vertex 34.792893218813454 -518.9999999999984 100.00000000093462
  endloop
endfacet
facet normal 0.707106781186545 0.7071067811865501 -1.3928854452961156e-12
  outer loop
    vertex 44.99999999999987 -580.207106781185 100.50000000105534
    vertex 44.99999999999987 -580.2071067811847 100.00000000105537
    vertex 34.792893218813454 -569.9999999999975 100.50000000103508
  endloop
endfacet
facet normal 0.707106781186545 0.7071067811865501 -1.3928854452961156e-12
  outer loop
    vertex 34.792893218813454 -569.9999999999982 100.00000000103509
    vertex 34.792893218813454 -569.9999999999975 100.50000000103508
    vertex 44.99999999999987 -580.2071067811847 100.00000000105537
  endloop
endfacet
facet normal -0.049359696198094265 0.22392459945877163 0.9733557387453267
  outer loop
    vertex 7.8274163564701835 -575.8096654258694 104.28920063735043
    vertex 10.063855587647032 -584.755422350573 106.46062154042193
    vertex 31.108180141477167 -572.4189468258321 104.68973880420742
  endloop
endfacet
facet normal -0.049359696198094265 0.22392459945877163 0.9733557387453267
  outer loop
    vertex 39.302314627903854 -576.6208348937297 106.07193242353632
    vertex 31.108180141477167 -572.4189468258321 104.68973880420742
    vertex 10.063855587647032 -584.755422350573 106.46062154042193
  endloop
endfacet
facet normal -0.049359696198094265 0.22392459945877163 0.9733557387453267
  outer loop
    vertex 35.677204826838164 -572.5732075777681 104.95692626417524
    vertex 31.108180141477167 -572.4189468258321 104.68973880420742
    vertex 39.302314627903854 -576.6208348937297 106.07193242353632
  endloop
endfacet
facet normal -0.026173748142778105 0.16075779504988605 0.9866467788620493
  outer loop
    vertex 5.328952674461308 -565.8158106978389 102.48181759434985
    vertex 5.79347331498894 -567.6738932599482 102.79688425104769
    vertex 78.24465178897663 -560.4407848789363 103.54035228748438
  endloop
endfacet
facet normal -0.026173748142778105 0.16075779504988605 0.9866467788620493
  outer loop
    vertex 34.61272790690064 -567.2704510383969 103.4956666766893
    vertex 78.24465178897663 -560.4407848789363 103.54035228748438
    vertex 5.79347331498894 -567.6738932599482 102.79688425104769
  endloop
endfacet
facet normal -0.026173748142778105 0.16075779504988605 0.9866467788620493
  outer loop
    vertex 36.78794040350416 -569.2985775814498 103.88382039430257
    vertex 78.24465178897663 -560.4407848789363 103.54035228748438
    vertex 34.61272790690064 -567.2704510383969 103.4956666766893
  endloop
endfacet
facet normal -0.026173748142778105 0.16075779504988605 0.9866467788620493
  outer loop
    vertex 78.22238699107876 -560.6810939970682 103.57891604866403
    vertex 78.24465178897663 -560.4407848789363 103.54035228748438
    vertex 36.78794040350416 -569.2985775814498 103.88382039430257
  endloop
endfacet
facet normal -0.0692367088221675 -0.36574224774275155 0.9281373208569701
  outer loop
    vertex 3.627836199098553 -512.8048260555523 104.12783620002115
    vertex 23.755643850609093 -516.9909819309522 103.97972136982872
    vertex 3.71850817247292 -512.5918940962131 104.21850817339491
  endloop
endfacet
facet normal -0.0692367088221675 -0.36574224774275155 0.9281373208569701
  outer loop
    vertex 31.10818014147753 -516.5810531741461 104.68973880409743
    vertex 3.71850817247292 -512.5918940962131 104.21850817339491
    vertex 23.755643850609093 -516.9909819309522 103.97972136982872
  endloop
endfacet
facet normal -0.11654656472881977 0.46094389923417184 0.8797429283652747
  outer loop
    vertex 10.063855587647032 -584.755422350573 106.46062154042193
    vertex 10.205423168558859 -585.3216926742199 106.77607513179099
    vertex 39.302314627903854 -576.6208348937297 106.07193242353632
  endloop
endfacet
facet normal -0.11654656472881977 0.46094389923417184 0.8797429283652747
  outer loop
    vertex 39.69891028731715 -578.8664890263262 107.30108971373534
    vertex 39.302314627903854 -576.6208348937297 106.07193242353632
    vertex 10.205423168558859 -585.3216926742199 106.77607513179099
  endloop
endfacet
facet normal -0.11654656472881977 0.46094389923417184 0.8797429283652747
  outer loop
    vertex 40.19605229715938 -577.7919605168773 106.80394770389086
    vertex 39.302314627903854 -576.6208348937297 106.07193242353632
    vertex 39.69891028731715 -578.8664890263262 107.30108971373534
  endloop
endfacet
facet normal -0.06923670882216768 0.3657422477464146 0.9281373208555266
  outer loop
    vertex 36.78794040350416 -569.2985775814498 103.88382039430257
    vertex 39.10161451677769 -571.2547459059309 104.82726331075472
    vertex 78.22238699107876 -560.6810939970682 103.57891604866403
  endloop
endfacet
facet normal -0.06923670882216768 0.3657422477464146 0.9281373208555266
  outer loop
    vertex 77.12397239625628 -565.7169930525539 105.48142593468164
    vertex 78.22238699107876 -560.6810939970682 103.57891604866403
    vertex 39.10161451677769 -571.2547459059309 104.82726331075472
  endloop
endfacet
facet normal -0.06923670882216901 0.3657422477464151 0.9281373208555262
  outer loop
    vertex 7.711466428751578 -575.3458657149973 104.09778592300847
    vertex 7.8274163564701835 -575.8096654258694 104.28920063735043
    vertex 23.755643850609093 -572.0090180690286 103.97972136993708
  endloop
endfacet
facet normal -0.06923670882216901 0.3657422477464151 0.9281373208555262
  outer loop
    vertex 31.108180141477167 -572.4189468258321 104.68973880420742
    vertex 23.755643850609093 -572.0090180690286 103.97972136993708
    vertex 7.8274163564701835 -575.8096654258694 104.28920063735043
  endloop
endfacet
facet normal -0.07953940325017105 0.28573924372653026 0.955000820902892
  outer loop
    vertex 46.259193890697176 -577.4306477344074 107.4178695485373
    vertex 49.86643319737493 -580.5682959805888 108.65710083805442
    vertex 75.70335578100286 -570.9862398392625 107.94200609038776
  endloop
endfacet
facet normal -0.07953940325017105 0.28573924372653026 0.955000820902892
  outer loop
    vertex 75.60542716315744 -571.5803965329704 108.11162343201202
    vertex 75.70335578100286 -570.9862398392625 107.94200609038776
    vertex 49.86643319737493 -580.5682959805888 108.65710083805442
  endloop
endfacet
facet normal -0.07953940325017082 -0.2857392437227635 0.9550008209040189
  outer loop
    vertex 6.204860985249677 -502.802709147233 106.70486098615288
    vertex 39.69891028731715 -510.13351097364233 107.30108971359982
    vertex 8.914757486411414 -494.4999999999799 109.41475748729762
  endloop
endfacet
facet normal -0.07953940325017082 -0.2857392437227635 0.9550008209040189
  outer loop
    vertex 9.969675586985465 -494.49999999997965 109.50261872716344
    vertex 8.914757486411414 -494.4999999999799 109.41475748729762
    vertex 39.69891028731715 -510.13351097364233 107.30108971359982
  endloop
endfacet
facet normal -0.07953940325017082 -0.2857392437227635 0.9550008209040189
  outer loop
    vertex 38.093397373983755 -504.32063183393643 108.9066026269218
    vertex 9.969675586985465 -494.49999999997965 109.50261872716344
    vertex 39.69891028731715 -510.13351097364233 107.30108971359982
  endloop
endfacet
facet normal -0.0493596961980928 0.2239245994587677 0.9733557387453278
  outer loop
    vertex 39.10161451677769 -571.2547459059309 104.82726331075472
    vertex 43.69508929873169 -575.3986976501465 106.01353592236862
    vertex 77.12397239625628 -565.7169930525539 105.48142593468164
  endloop
endfacet
facet normal -0.0493596961980928 0.2239245994587677 0.9733557387453278
  outer loop
    vertex 77.07293878986842 -566.1124683234511 105.5698187338399
    vertex 77.12397239625628 -565.7169930525539 105.48142593468164
    vertex 43.69508929873169 -575.3986976501465 106.01353592236862
  endloop
endfacet
facet normal -0.11639030097740738 0.3455364527166063 0.9311594158265345
  outer loop
    vertex 52.57001307816333 -582.5511639767379 110.55902954433176
    vertex 55.35474344944411 -584.8769501265249 111.7701642682693
    vertex 73.99357149404034 -576.2629881105427 110.90343934539993
  endloop
endfacet
facet normal -0.11639030097740738 0.3455364527166063 0.9311594158265345
  outer loop
    vertex 73.82643755031587 -577.0993947156325 111.1929238276017
    vertex 73.99357149404034 -576.2629881105427 110.90343934539993
    vertex 55.35474344944411 -584.8769501265249 111.7701642682693
  endloop
endfacet
facet normal -0.07953940325017131 0.2857392437265291 0.9550008209028922
  outer loop
    vertex 10.205423168558859 -585.3216926742199 106.77607513179099
    vertex 12.296841932344437 -593.6873677293568 109.45329991314495
    vertex 39.69891028731715 -578.8664890263262 107.30108971373534
  endloop
endfacet
facet normal -0.07953940325017131 0.2857392437265291 0.9550008209028922
  outer loop
    vertex 38.093397373983755 -584.6793681660255 108.90660262708005
    vertex 39.69891028731715 -578.8664890263262 107.30108971373534
    vertex 12.296841932344437 -593.6873677293568 109.45329991314495
  endloop
endfacet
facet normal -0.17393814534188343 0.5477787212881319 0.8183422230943268
  outer loop
    vertex 12.296841932344437 -593.6873677293568 109.45329991314495
    vertex 12.456303630553782 -594.3252145221933 109.91415279590503
    vertex 38.093397373983755 -584.6793681660255 108.90660262708005
  endloop
endfacet
facet normal -0.17393814534188343 0.5477787212881319 0.8183422230943268
  outer loop
    vertex 36.6961619521176 -587.210407115376 110.30383804895173
    vertex 38.093397373983755 -584.6793681660255 108.90660262708005
    vertex 12.456303630553782 -594.3252145221933 109.91415279590503
  endloop
endfacet
facet normal -0.11654656472881976 0.46094389923417384 0.8797429283652737
  outer loop
    vertex 43.69508929873169 -575.3986976501465 106.01353592236862
    vertex 46.259193890697176 -577.4306477344074 107.4178695485373
    vertex 77.07293878986842 -566.1124683234511 105.5698187338399
  endloop
endfacet
facet normal -0.11654656472881976 0.46094389923417384 0.8797429283652737
  outer loop
    vertex 75.70335578100286 -570.9862398392625 107.94200609038776
    vertex 77.07293878986842 -566.1124683234511 105.5698187338399
    vertex 46.259193890697176 -577.4306477344074 107.4178695485373
  endloop
endfacet
facet normal -0.03350876070341426 -0.26477556873315 0.9637276903556099
  outer loop
    vertex 1.8983196084783174 -523.0539395870771 102.398319609421
    vertex 79.04798750225125 -533.7253530214339 102.14893401650576
    vertex 1.93251062950726 -522.9338184779535 102.4325106304496
  endloop
endfacet
facet normal -0.03350876070341426 -0.26477556873315 0.9637276903556099
  outer loop
    vertex 78.24465178897663 -528.5592151210463 103.54035228742161
    vertex 1.93251062950726 -522.9338184779535 102.4325106304496
    vertex 79.04798750225125 -533.7253530214339 102.14893401650576
  endloop
endfacet
facet normal -0.17393814534188376 0.5477787212881345 0.818342223094325
  outer loop
    vertex 49.86643319737493 -580.5682959805888 108.65710083805442
    vertex 52.57001307816333 -582.5511639767379 110.55902954433176
    vertex 75.60542716315744 -571.5803965329704 108.11162343201202
  endloop
endfacet
facet normal -0.17393814534188376 0.5477787212881345 0.818342223094325
  outer loop
    vertex 73.99357149404034 -576.2629881105427 110.90343934539993
    vertex 75.60542716315744 -571.5803965329704 108.11162343201202
    vertex 52.57001307816333 -582.5511639767379 110.55902954433176
  endloop
endfacet
facet normal 0.0 1.9698374875698473e-12 1.0
  outer loop
    vertex 6.125000000000051 -568.9999999999975 100.5000000010331
    vertex 6.374999999999994 -569.9999999999975 100.50000000103508
    vertex 35.20710678118651 -568.9999999999975 100.5000000010331
  endloop
endfacet
facet normal 0.0 1.9698374875698473e-12 1.0
  outer loop
    vertex 34.792893218813454 -569.9999999999975 100.50000000103508
    vertex 35.20710678118651 -568.9999999999975 100.5000000010331
    vertex 6.374999999999994 -569.9999999999975 100.50000000103508
  endloop
endfacet
facet normal 1.0 -3.016901358731802e-15 1.0707995238627756e-13
  outer loop
    vertex 80.00000000000021 -574.4999999999984 100.00000000104394
    vertex 80.0000000000004 -514.4999999999982 100.00000000092578
    vertex 80.00000000000021 -574.4999999999975 100.500000001044
  endloop
endfacet
facet normal 1.0 -3.016901358731802e-15 1.0707995238627756e-13
  outer loop
    vertex 80.00000000000021 -545.4999999999976 100.50000000098699
    vertex 80.00000000000021 -574.4999999999975 100.500000001044
    vertex 80.0000000000004 -514.4999999999982 100.00000000092578
  endloop
endfacet
facet normal 1.0 -3.016901358731802e-15 1.0707995238627756e-13
  outer loop
    vertex 80.00000000000021 -544.9999999999974 100.50000000098586
    vertex 80.00000000000021 -545.4999999999976 100.50000000098699
    vertex 80.0000000000004 -514.4999999999982 100.00000000092578
  endloop
endfacet
facet normal 1.0 -3.016901358731802e-15 1.0707995238627756e-13
  outer loop
    vertex 80.00000000000021 -543.9999999999976 100.50000000098389
    vertex 80.00000000000021 -544.9999999999974 100.50000000098586
    vertex 80.0000000000004 -514.4999999999982 100.00000000092578
  endloop
endfacet
facet normal 1.0 -3.016901358731802e-15 1.0707995238627756e-13
  outer loop
    vertex 80.0000000000004 -514.4999999999973 100.50000000092575
    vertex 80.00000000000021 -543.9999999999976 100.50000000098389
    vertex 80.0000000000004 -514.4999999999982 100.00000000092578
  endloop
endfacet
facet normal 0.0 1.9698374875698473e-12 1.0
  outer loop
    vertex 0.0 -543.9999999999976 100.50000000098389
    vertex 0.0 -544.4999999999976 100.50000000098484
    vertex 80.00000000000021 -543.9999999999976 100.50000000098389
  endloop
endfacet
facet normal 0.0 1.9698374875698473e-12 1.0
  outer loop
    vertex 0.12499999999997156 -544.9999999999974 100.50000000098586
    vertex 80.00000000000021 -543.9999999999976 100.50000000098389
    vertex 0.0 -544.4999999999976 100.50000000098484
  endloop
endfacet
facet normal 0.0 1.9698374875698473e-12 1.0
  outer loop
    vertex 80.00000000000021 -544.9999999999974 100.50000000098586
    vertex 80.00000000000021 -543.9999999999976 100.50000000098389
    vertex 0.12499999999997156 -544.9999999999974 100.50000000098586
  endloop
endfacet
facet normal -0.6830127018922171 0.6830127018927334 0.2588190451011701
  outer loop
    vertex 55.35474344944411 -504.12304987342515 111.77016426811016
    vertex 54.07550980684191 -503.5844251818126 106.97291168561782
    vertex 52.57001307816333 -506.448836023217 110.55902954418167
  endloop
endfacet
facet normal -0.6830127018922171 0.6830127018927334 0.2588190451011701
  outer loop
    vertex 49.86643319737493 -508.4317040193737 108.65710083791213
    vertex 52.57001307816333 -506.448836023217 110.55902954418167
    vertex 54.07550980684191 -503.5844251818126 106.97291168561782
  endloop
endfacet
facet normal -0.6830127018922171 0.6830127018927334 0.2588190451011701
  outer loop
    vertex 46.259193890697176 -511.56935226555953 107.41786954840747
    vertex 49.86643319737493 -508.4317040193737 108.65710083791213
    vertex 54.07550980684191 -503.5844251818126 106.97291168561782
  endloop
endfacet
facet normal -0.6830127018922171 0.6830127018927334 0.2588190451011701
  outer loop
    vertex 43.69508929873205 -513.6013023498258 106.01353592224704
    vertex 46.259193890697176 -511.56935226555953 107.41786954840747
    vertex 54.07550980684191 -503.5844251818126 106.97291168561782
  endloop
endfacet
facet normal -0.6830127018922171 0.6830127018927334 0.2588190451011701
  outer loop
    vertex 52.349445512686884 -502.85766126849705 100.50000000090283
    vertex 43.69508929873205 -513.6013023498258 106.01353592224704
    vertex 54.07550980684191 -503.5844251818126 106.97291168561782
  endloop
endfacet
facet normal -0.6830127018922171 0.6830127018927334 0.2588190451011701
  outer loop
    vertex 39.101614516777325 -517.7452540940469 104.82726331064927
    vertex 43.69508929873205 -513.6013023498258 106.01353592224704
    vertex 52.349445512686884 -502.85766126849705 100.50000000090283
  endloop
endfacet
facet normal -0.6830127018922171 0.6830127018927334 0.2588190451011701
  outer loop
    vertex 36.787940403503804 -519.7014224185313 103.88382039420476
    vertex 39.101614516777325 -517.7452540940469 104.82726331064927
    vertex 52.349445512686884 -502.85766126849705 100.50000000090283
  endloop
endfacet
facet normal -0.6830127018922171 0.6830127018927334 0.2588190451011701
  outer loop
    vertex 34.61272790690064 -521.7295489615857 103.49566667659958
    vertex 36.787940403503804 -519.7014224185313 103.88382039420476
    vertex 52.349445512686884 -502.85766126849705 100.50000000090283
  endloop
endfacet
facet normal -0.6830127018922171 0.6830127018927334 0.2588190451011701
  outer loop
    vertex 35.20710678118651 -519.9999999999976 100.50000000093658
    vertex 34.61272790690064 -521.7295489615857 103.49566667659958
    vertex 52.349445512686884 -502.85766126849705 100.50000000090283
  endloop
endfacet
facet normal -0.9701425001453321 -0.24253562503633266 4.928254295781132e-13
  outer loop
    vertex 12.500000000000044 -594.4999999999785 109.9844743611052
    vertex 12.296841932344437 -593.6873677293568 109.45329991314495
    vertex 12.500000000000044 -594.4999999999983 100.00000000108335
  endloop
endfacet
facet normal -0.9701425001453321 -0.24253562503633266 4.928254295781132e-13
  outer loop
    vertex 6.374999999999994 -569.9999999999975 100.50000000103508
    vertex 12.500000000000044 -594.4999999999983 100.00000000108335
    vertex 12.296841932344437 -593.6873677293568 109.45329991314495
  endloop
endfacet
facet normal -0.9701425001453321 -0.24253562503633266 4.928254295781132e-13
  outer loop
    vertex 0.0 -544.4999999999983 100.00000000098487
    vertex 12.500000000000044 -594.4999999999983 100.00000000108335
    vertex 6.374999999999994 -569.9999999999975 100.50000000103508
  endloop
endfacet
facet normal -0.9701425001453321 -0.24253562503633266 4.928254295781132e-13
  outer loop
    vertex 12.456303630553782 -594.3252145221933 109.91415279590503
    vertex 12.296841932344437 -593.6873677293568 109.45329991314495
    vertex 12.500000000000044 -594.4999999999785 109.9844743611052
  endloop
endfacet
facet normal -0.9701425001453321 -0.24253562503633266 4.928254295781132e-13
  outer loop
    vertex 10.063855587647032 -584.755422350573 106.46062154042193
    vertex 6.374999999999994 -569.9999999999975 100.50000000103508
    vertex 12.296841932344437 -593.6873677293568 109.45329991314495
  endloop
endfacet
facet normal -0.9701425001453321 -0.24253562503633266 4.928254295781132e-13
  outer loop
    vertex 10.205423168558859 -585.3216926742199 106.77607513179099
    vertex 10.063855587647032 -584.755422350573 106.46062154042193
    vertex 12.296841932344437 -593.6873677293568 109.45329991314495
  endloop
endfacet
facet normal -0.9701425001453321 -0.24253562503633266 4.928254295781132e-13
  outer loop
    vertex 7.8274163564701835 -575.8096654258694 104.28920063735043
    vertex 6.374999999999994 -569.9999999999975 100.50000000103508
    vertex 10.063855587647032 -584.755422350573 106.46062154042193
  endloop
endfacet
facet normal -0.9701425001453321 -0.24253562503633266 4.928254295781132e-13
  outer loop
    vertex 7.711466428751578 -575.3458657149973 104.09778592300847
    vertex 6.374999999999994 -569.9999999999975 100.50000000103508
    vertex 7.8274163564701835 -575.8096654258694 104.28920063735043
  endloop
endfacet
facet normal -0.9701425001453321 -0.24253562503633266 4.928254295781132e-13
  outer loop
    vertex 6.805613906881964 -571.7224556275191 103.48338066169936
    vertex 6.374999999999994 -569.9999999999975 100.50000000103508
    vertex 7.711466428751578 -575.3458657149973 104.09778592300847
  endloop
endfacet
facet normal -0.9701425001453321 -0.24253562503633266 4.928254295781132e-13
  outer loop
    vertex 6.125000000000051 -568.9999999999975 100.5000000010331
    vertex 0.0 -544.4999999999983 100.00000000098487
    vertex 6.374999999999994 -569.9999999999975 100.50000000103508
  endloop
endfacet
facet normal -0.9701425001453321 -0.24253562503633266 4.928254295781132e-13
  outer loop
    vertex 5.245759845647023 -565.4830393825823 102.38749903968026
    vertex 0.0 -544.4999999999983 100.00000000098487
    vertex 6.125000000000051 -568.9999999999975 100.5000000010331
  endloop
endfacet
facet normal -0.9701425001453321 -0.24253562503633266 4.928254295781132e-13
  outer loop
    vertex 5.79347331498894 -567.6738932599482 102.79688425104769
    vertex 5.245759845647023 -565.4830393825823 102.38749903968026
    vertex 6.125000000000051 -568.9999999999975 100.5000000010331
  endloop
endfacet
facet normal -0.9701425001453321 -0.24253562503633266 4.928254295781132e-13
  outer loop
    vertex 5.328952674461308 -565.8158106978389 102.48181759434985
    vertex 5.245759845647023 -565.4830393825823 102.38749903968026
    vertex 5.79347331498894 -567.6738932599482 102.79688425104769
  endloop
endfacet
facet normal -0.9701425001453321 -0.24253562503633266 4.928254295781132e-13
  outer loop
    vertex 2.673101777968435 -555.1924071118682 101.34933574477799
    vertex 0.0 -544.4999999999983 100.00000000098487
    vertex 5.245759845647023 -565.4830393825823 102.38749903968026
  endloop
endfacet
facet normal -0.9701425001453321 -0.24253562503633266 4.928254295781132e-13
  outer loop
    vertex 2.7172652807378084 -555.3690611229467 101.37846224166053
    vertex 2.673101777968435 -555.1924071118682 101.34933574477799
    vertex 5.245759845647023 -565.4830393825823 102.38749903968026
  endloop
endfacet
facet normal -0.9701425001453321 -0.24253562503633266 4.928254295781132e-13
  outer loop
    vertex 0.12499999999997156 -544.9999999999974 100.50000000098586
    vertex 0.0 -544.4999999999983 100.00000000098487
    vertex 2.673101777968435 -555.1924071118682 101.34933574477799
  endloop
endfacet
facet normal -0.9701425001453321 -0.24253562503633266 4.928254295781132e-13
  outer loop
    vertex 0.20095944808237504 -545.3038377923249 101.02626249455957
    vertex 0.12499999999997156 -544.9999999999974 100.50000000098586
    vertex 2.673101777968435 -555.1924071118682 101.34933574477799
  endloop
endfacet
facet normal -0.9701425001453321 -0.24253562503633266 4.928254295781132e-13
  outer loop
    vertex 0.0 -544.4999999999976 100.50000000098484
    vertex 0.0 -544.4999999999983 100.00000000098487
    vertex 0.12499999999997156 -544.9999999999974 100.50000000098586
  endloop
endfacet
facet normal -1.1712049922181638e-16 -0.8660254037834768 0.5000000000016659
  outer loop
    vertex 79.68610202651348 -543.6861020265092 101.04368723945576
    vertex 12.16535554600754 -543.6861020265092 101.04368723945576
    vertex 80.00000000000021 -543.9999999999976 100.50000000098389
  endloop
endfacet
facet normal -1.1712049922181638e-16 -0.8660254037834768 0.5000000000016659
  outer loop
    vertex 0.5267369504386863 -543.6958882798684 101.02673695142188
    vertex 80.00000000000021 -543.9999999999976 100.50000000098389
    vertex 12.16535554600754 -543.6861020265092 101.04368723945576
  endloop
endfacet
facet normal -1.1712049922181638e-16 -0.8660254037834768 0.5000000000016659
  outer loop
    vertex 0.0 -543.9999999999976 100.50000000098389
    vertex 80.00000000000021 -543.9999999999976 100.50000000098389
    vertex 0.5267369504386863 -543.6958882798684 101.02673695142188
  endloop
endfacet
facet normal 0.0 1.9698374875698473e-12 1.0
  outer loop
    vertex 0.0 -518.9999999999975 100.5000000009346
    vertex 0.0 -519.9999999999976 100.50000000093658
    vertex 34.792893218813454 -518.9999999999975 100.5000000009346
  endloop
endfacet
facet normal 0.0 1.9698374875698473e-12 1.0
  outer loop
    vertex 35.20710678118651 -519.9999999999976 100.50000000093658
    vertex 34.792893218813454 -518.9999999999975 100.5000000009346
    vertex 0.0 -519.9999999999976 100.50000000093658
  endloop
endfacet
facet normal 1.8439932935698485e-16 -0.8660254037834549 0.5000000000017039
  outer loop
    vertex 35.677204826838164 -516.4267924222094 104.95692626406462
    vertex 31.10818014147753 -516.5810531741461 104.68973880409743
    vertex 34.792893218813454 -518.9999999999975 100.5000000009346
  endloop
endfacet
facet normal 1.8439932935698485e-16 -0.8660254037834549 0.5000000000017039
  outer loop
    vertex 23.755643850609093 -516.9909819309522 103.97972136982872
    vertex 34.792893218813454 -518.9999999999975 100.5000000009346
    vertex 31.10818014147753 -516.5810531741461 104.68973880409743
  endloop
endfacet
facet normal 1.8439932935698485e-16 -0.8660254037834549 0.5000000000017039
  outer loop
    vertex 2.86807947019069 -517.3441135458202 103.36807947112202
    vertex 34.792893218813454 -518.9999999999975 100.5000000009346
    vertex 23.755643850609093 -516.9909819309522 103.97972136982872
  endloop
endfacet
facet normal 1.8439932935698485e-16 -0.8660254037834549 0.5000000000017039
  outer loop
    vertex 0.0 -518.9999999999975 100.5000000009346
    vertex 34.792893218813454 -518.9999999999975 100.5000000009346
    vertex 2.86807947019069 -517.3441135458202 103.36807947112202
  endloop
endfacet
facet normal -1.0 0.0 0.0
  outer loop
    vertex 0.0 -544.4999999999983 100.00000000098487
    vertex 0.0 -544.4999999999976 100.50000000098484
    vertex 0.0 -494.49999999999835 100.00000000088637
  endloop
endfacet
facet normal -1.0 0.0 0.0
  outer loop
    vertex 0.0 -543.9999999999976 100.50000000098389
    vertex 0.0 -494.49999999999835 100.00000000088637
    vertex 0.0 -544.4999999999976 100.50000000098484
  endloop
endfacet
facet normal -1.0 0.0 0.0
  outer loop
    vertex 0.0 -520.4999999999975 100.5000000009377
    vertex 0.0 -494.49999999999835 100.00000000088637
    vertex 0.0 -543.9999999999976 100.50000000098389
  endloop
endfacet
facet normal -1.0 0.0 0.0
  outer loop
    vertex 0.0 -519.9999999999976 100.50000000093658
    vertex 0.0 -494.49999999999835 100.00000000088637
    vertex 0.0 -520.4999999999975 100.5000000009377
  endloop
endfacet
facet normal -1.0 0.0 0.0
  outer loop
    vertex 0.0 -518.9999999999975 100.5000000009346
    vertex 0.0 -494.49999999999835 100.00000000088637
    vertex 0.0 -519.9999999999976 100.50000000093658
  endloop
endfacet
facet normal -1.0 0.0 0.0
  outer loop
    vertex 0.0 -494.4999999999976 100.50000000088635
    vertex 0.0 -494.49999999999835 100.00000000088637
    vertex 0.0 -518.9999999999975 100.5000000009346
  endloop
endfacet
facet normal 2.1203645617333476e-16 0.8660254037854177 0.4999999999983043
  outer loop
    vertex 12.16535554600754 -545.3138979734832 101.0436872394592
    vertex 79.68610202651276 -545.3138979734832 101.0436872394592
    vertex 0.20095944808237504 -545.3038377923249 101.02626249455957
  endloop
endfacet
facet normal 2.1203645617333476e-16 0.8660254037854177 0.4999999999983043
  outer loop
    vertex 80.00000000000021 -544.9999999999974 100.50000000098586
    vertex 0.20095944808237504 -545.3038377923249 101.02626249455957
    vertex 79.68610202651276 -545.3138979734832 101.0436872394592
  endloop
endfacet
facet normal 2.1203645617333476e-16 0.8660254037854177 0.4999999999983043
  outer loop
    vertex 0.12499999999997156 -544.9999999999974 100.50000000098586
    vertex 0.20095944808237504 -545.3038377923249 101.02626249455957
    vertex 80.00000000000021 -544.9999999999974 100.50000000098586
  endloop
endfacet
facet normal -0.6830127018922167 -0.6830127018917117 0.25881904510386744
  outer loop
    vertex 55.35474344944411 -584.8769501265249 111.7701642682693
    vertex 49.86643319737493 -580.5682959805888 108.65710083805442
    vertex 52.349445512686884 -586.142338731498 100.50000000106684
  endloop
endfacet
facet normal -0.6830127018922167 -0.6830127018917117 0.25881904510386744
  outer loop
    vertex 35.20710678118651 -568.9999999999975 100.5000000010331
    vertex 52.349445512686884 -586.142338731498 100.50000000106684
    vertex 49.86643319737493 -580.5682959805888 108.65710083805442
  endloop
endfacet
facet normal -0.6830127018922167 -0.6830127018917117 0.25881904510386744
  outer loop
    vertex 52.57001307816333 -582.5511639767379 110.55902954433176
    vertex 49.86643319737493 -580.5682959805888 108.65710083805442
    vertex 55.35474344944411 -584.8769501265249 111.7701642682693
  endloop
endfacet
facet normal -0.6830127018922167 -0.6830127018917117 0.25881904510386744
  outer loop
    vertex 46.259193890697176 -577.4306477344074 107.4178695485373
    vertex 35.20710678118651 -568.9999999999975 100.5000000010331
    vertex 49.86643319737493 -580.5682959805888 108.65710083805442
  endloop
endfacet
facet normal -0.6830127018922167 -0.6830127018917117 0.25881904510386744
  outer loop
    vertex 43.69508929873169 -575.3986976501465 106.01353592236862
    vertex 35.20710678118651 -568.9999999999975 100.5000000010331
    vertex 46.259193890697176 -577.4306477344074 107.4178695485373
  endloop
endfacet
facet normal -0.6830127018922167 -0.6830127018917117 0.25881904510386744
  outer loop
    vertex 39.10161451677769 -571.2547459059309 104.82726331075472
    vertex 35.20710678118651 -568.9999999999975 100.5000000010331
    vertex 43.69508929873169 -575.3986976501465 106.01353592236862
  endloop
endfacet
facet normal -0.6830127018922167 -0.6830127018917117 0.25881904510386744
  outer loop
    vertex 36.78794040350416 -569.2985775814498 103.88382039430257
    vertex 35.20710678118651 -568.9999999999975 100.5000000010331
    vertex 39.10161451677769 -571.2547459059309 104.82726331075472
  endloop
endfacet
facet normal -0.6830127018922167 -0.6830127018917117 0.25881904510386744
  outer loop
    vertex 34.61272790690064 -567.2704510383969 103.4956666766893
    vertex 35.20710678118651 -568.9999999999975 100.5000000010331
    vertex 36.78794040350416 -569.2985775814498 103.88382039430257
  endloop
endfacet
facet normal 0.3880570000581579 0.9216353751380548 -1.7971199012032338e-12
  outer loop
    vertex 32.49999999999983 -494.4999999999736 112.48437500088637
    vertex 34.580645161290235 -495.3760611205172 112.41935483959783
    vertex 32.50000000000019 -494.4999999999982 100.00000000088654
  endloop
endfacet
facet normal 0.3880570000581579 0.9216353751380548 -1.7971199012032338e-12
  outer loop
    vertex 44.99999999999987 -499.7631578947312 102.00000000089668
    vertex 32.50000000000019 -494.4999999999982 100.00000000088654
    vertex 34.580645161290235 -495.3760611205172 112.41935483959783
  endloop
endfacet
facet normal 0.3880570000581579 0.9216353751380548 -1.7971199012032338e-12
  outer loop
    vertex 44.99999999999987 -499.7631578947353 100.00000000089676
    vertex 32.50000000000019 -494.4999999999982 100.00000000088654
    vertex 44.99999999999987 -499.7631578947312 102.00000000089668
  endloop
endfacet
facet normal 0.6830127018922154 0.6830127018927322 0.25881904510117787
  outer loop
    vertex 40.19605229715938 -577.7919605168773 106.80394770389086
    vertex 44.99999999999987 -580.7755128541253 102.00000000105646
    vertex 39.302314627903854 -576.6208348937297 106.07193242353632
  endloop
endfacet
facet normal 0.6830127018922154 0.6830127018927322 0.25881904510117787
  outer loop
    vertex 35.677204826838164 -572.5732075777681 104.95692626417524
    vertex 39.302314627903854 -576.6208348937297 106.07193242353632
    vertex 44.99999999999987 -580.7755128541253 102.00000000105646
  endloop
endfacet
facet normal 0.6830127018922154 0.6830127018927322 0.25881904510117787
  outer loop
    vertex 34.792893218813454 -569.9999999999975 100.50000000103508
    vertex 35.677204826838164 -572.5732075777681 104.95692626417524
    vertex 44.99999999999987 -580.7755128541253 102.00000000105646
  endloop
endfacet
facet normal 0.6830127018922154 0.6830127018927322 0.25881904510117787
  outer loop
    vertex 44.99999999999987 -580.207106781185 100.50000000105534
    vertex 34.792893218813454 -569.9999999999975 100.50000000103508
    vertex 44.99999999999987 -580.7755128541253 102.00000000105646
  endloop
endfacet
facet normal 0.7071067811865416 1.3924155893440167e-12 0.7071067811865536
  outer loop
    vertex 34.580645161290235 -495.3760611205172 112.41935483959783
    vertex 36.696161952117244 -501.78959288457986 110.30383804878325
    vertex 44.99999999999987 -499.7631578947312 102.00000000089668
  endloop
endfacet
facet normal 0.7071067811865416 1.3924155893440167e-12 0.7071067811865536
  outer loop
    vertex 38.093397373983755 -504.32063183393643 108.9066026269218
    vertex 44.99999999999987 -499.7631578947312 102.00000000089668
    vertex 36.696161952117244 -501.78959288457986 110.30383804878325
  endloop
endfacet
facet normal 0.7071067811865416 1.3924155893440167e-12 0.7071067811865536
  outer loop
    vertex 39.69891028731715 -510.13351097364233 107.30108971359982
    vertex 44.99999999999987 -499.7631578947312 102.00000000089668
    vertex 38.093397373983755 -504.32063183393643 108.9066026269218
  endloop
endfacet
facet normal 0.7071067811865416 1.3924155893440167e-12 0.7071067811865536
  outer loop
    vertex 40.19605229715938 -511.2080394830928 106.80394770375975
    vertex 44.99999999999987 -499.7631578947312 102.00000000089668
    vertex 39.69891028731715 -510.13351097364233 107.30108971359982
  endloop
endfacet
facet normal 0.7071067811865416 1.3924155893440167e-12 0.7071067811865536
  outer loop
    vertex 44.99999999999987 -508.2244871458633 102.00000000091342
    vertex 44.99999999999987 -499.7631578947312 102.00000000089668
    vertex 40.19605229715938 -511.2080394830928 106.80394770375975
  endloop
endfacet
facet normal 0.3880570000577683 -0.9216353751382187 1.3902218839867367e-12
  outer loop
    vertex 32.49999999999983 -594.4999999999734 112.48437500108334
    vertex 32.50000000000019 -594.4999999999878 100.0000000010834
    vertex 34.580645161290235 -593.6239388794303 112.4193548397913
  endloop
endfacet
facet normal 0.3880570000577683 -0.9216353751382187 1.3902218839867367e-12
  outer loop
    vertex 44.99999999999987 -589.2368421052574 102.00000000107305
    vertex 34.580645161290235 -593.6239388794303 112.4193548397913
    vertex 32.50000000000019 -594.4999999999878 100.0000000010834
  endloop
endfacet
facet normal 0.3880570000577683 -0.9216353751382187 1.3902218839867367e-12
  outer loop
    vertex 44.99999999999987 -589.2368421052613 100.00000000107296
    vertex 44.99999999999987 -589.2368421052574 102.00000000107305
    vertex 32.50000000000019 -594.4999999999878 100.0000000010834
  endloop
endfacet
facet normal 2.139286156232545e-13 -1.0 1.5870393769496307e-12
  outer loop
    vertex 32.49999999999983 -594.4999999999734 112.48437500108334
    vertex 12.500000000000044 -594.4999999999785 109.9844743611052
    vertex 32.50000000000019 -594.4999999999878 100.0000000010834
  endloop
endfacet
facet normal 2.139286156232545e-13 -1.0 1.5870393769496307e-12
  outer loop
    vertex 12.500000000000044 -594.4999999999983 100.00000000108335
    vertex 32.50000000000019 -594.4999999999878 100.0000000010834
    vertex 12.500000000000044 -594.4999999999785 109.9844743611052
  endloop
endfacet
facet normal 1.4572444494939966e-15 -0.8660254037834426 0.5000000000017253
  outer loop
    vertex 34.61272790690064 -567.2704510383969 103.4956666766893
    vertex 5.79347331498894 -567.6738932599482 102.79688425104769
    vertex 35.20710678118651 -568.9999999999975 100.5000000010331
  endloop
endfacet
facet normal 1.4572444494939966e-15 -0.8660254037834426 0.5000000000017253
  outer loop
    vertex 6.125000000000051 -568.9999999999975 100.5000000010331
    vertex 35.20710678118651 -568.9999999999975 100.5000000010331
    vertex 5.79347331498894 -567.6738932599482 102.79688425104769
  endloop
endfacet
facet normal 0.8660254037844394 9.84945226044161e-13 0.4999999999999987
  outer loop
    vertex 80.00000000000021 -543.9999999999976 100.50000000098389
    vertex 80.0000000000004 -514.4999999999973 100.50000000092575
    vertex 79.68610202651348 -543.6861020265092 101.04368723945576
  endloop
endfacet
facet normal 0.8660254037844394 9.84945226044161e-13 0.4999999999999987
  outer loop
    vertex 79.54639865423754 -539.1781125781257 101.2856605782174
    vertex 79.68610202651348 -543.6861020265092 101.04368723945576
    vertex 80.0000000000004 -514.4999999999973 100.50000000092575
  endloop
endfacet
facet normal 0.8660254037844394 9.84945226044161e-13 0.4999999999999987
  outer loop
    vertex 79.54524751904951 -539.1163602473184 101.28765440284906
    vertex 79.54639865423754 -539.1781125781257 101.2856605782174
    vertex 80.0000000000004 -514.4999999999973 100.50000000092575
  endloop
endfacet
facet normal 0.8660254037844394 9.84945226044161e-13 0.4999999999999987
  outer loop
    vertex 79.05518079201254 -533.854272119675 102.13647487316574
    vertex 79.54524751904951 -539.1163602473184 101.28765440284906
    vertex 80.0000000000004 -514.4999999999973 100.50000000092575
  endloop
endfacet
facet normal 0.8660254037844394 9.84945226044161e-13 0.4999999999999987
  outer loop
    vertex 79.04798750225125 -533.7253530214339 102.14893401650576
    vertex 79.05518079201254 -533.854272119675 102.13647487316574
    vertex 80.0000000000004 -514.4999999999973 100.50000000092575
  endloop
endfacet
facet normal 0.8660254037844394 9.84945226044161e-13 0.4999999999999987
  outer loop
    vertex 78.24465178897663 -528.5592151210463 103.54035228742161
    vertex 79.04798750225125 -533.7253530214339 102.14893401650576
    vertex 80.0000000000004 -514.4999999999973 100.50000000092575
  endloop
endfacet
facet normal 0.8660254037844394 9.84945226044161e-13 0.4999999999999987
  outer loop
    vertex 78.22238699107913 -528.3189060029148 103.57891604860014
    vertex 78.24465178897663 -528.5592151210463 103.54035228742161
    vertex 80.0000000000004 -514.4999999999973 100.50000000092575
  endloop
endfacet
facet normal 0.8660254037844394 9.84945226044161e-13 0.4999999999999987
  outer loop
    vertex 77.12397239625663 -523.2830069474213 105.4814259345981
    vertex 78.22238699107913 -528.3189060029148 103.57891604860014
    vertex 80.0000000000004 -514.4999999999973 100.50000000092575
  endloop
endfacet
facet normal 0.8660254037844394 9.84945226044161e-13 0.4999999999999987
  outer loop
    vertex 77.07293878986842 -522.8875316765237 105.56981873375472
    vertex 77.12397239625663 -523.2830069474213 105.4814259345981
    vertex 80.0000000000004 -514.4999999999973 100.50000000092575
  endloop
endfacet
facet normal 0.8660254037844394 9.84945226044161e-13 0.4999999999999987
  outer loop
    vertex 75.70335578100286 -518.0137601607025 107.94200609028344
    vertex 77.07293878986842 -522.8875316765237 105.56981873375472
    vertex 80.0000000000004 -514.4999999999973 100.50000000092575
  endloop
endfacet
facet normal 0.8660254037844394 9.84945226044161e-13 0.4999999999999987
  outer loop
    vertex 75.60542716315763 -517.419603466994 108.11162343190539
    vertex 75.70335578100286 -518.0137601607025 107.94200609028344
    vertex 80.0000000000004 -514.4999999999973 100.50000000092575
  endloop
endfacet
facet normal 0.38805700005806126 0.9216353751380953 -1.8028042039832833e-12
  outer loop
    vertex 54.07550980684191 -503.5844251818126 106.97291168561782
    vertex 54.07550980684191 -503.5844251818262 100.00000000090432
    vertex 52.349445512686884 -502.85766126849705 100.50000000090283
  endloop
endfacet
facet normal 0.38805700005806126 0.9216353751380953 -1.8028042039832833e-12
  outer loop
    vertex 52.349445512686884 -502.85766126849796 100.00000000090277
    vertex 52.349445512686884 -502.85766126849705 100.50000000090283
    vertex 54.07550980684191 -503.5844251818262 100.00000000090432
  endloop
endfacet
facet normal -6.785070373554887e-17 0.05359939492558744 0.9985625192563613
  outer loop
    vertex 12.16535554600754 -545.3138979734832 101.0436872394592
    vertex 79.54639865423717 -549.8218874218662 101.28566057823816
    vertex 79.68610202651276 -545.3138979734832 101.0436872394592
  endloop
endfacet
facet normal 0.3880570000581327 -0.9216353751380654 1.841919137114903e-12
  outer loop
    vertex 55.35474344944411 -584.8769501265249 111.7701642682693
    vertex 52.349445512686884 -586.142338731498 100.50000000106684
    vertex 73.82643755031587 -577.0993947156325 111.1929238276017
  endloop
endfacet
facet normal 0.3880570000581327 -0.9216353751380654 1.841919137114903e-12
  outer loop
    vertex 80.00000000000021 -574.4999999999975 100.500000001044
    vertex 73.82643755031587 -577.0993947156325 111.1929238276017
    vertex 52.349445512686884 -586.142338731498 100.50000000106684
  endloop
endfacet
facet normal 0.3880570000581327 -0.9216353751380654 1.841919137114903e-12
  outer loop
    vertex 52.349445512686884 -586.1423387314984 100.00000000106695
    vertex 80.00000000000021 -574.4999999999975 100.500000001044
    vertex 52.349445512686884 -586.142338731498 100.50000000106684
  endloop
endfacet
facet normal 0.3880570000581327 -0.9216353751380654 1.841919137114903e-12
  outer loop
    vertex 80.00000000000021 -574.4999999999984 100.00000000104394
    vertex 80.00000000000021 -574.4999999999975 100.500000001044
    vertex 52.349445512686884 -586.1423387314984 100.00000000106695
  endloop
endfacet
facet normal 1.0 0.0 0.0
  outer loop
    vertex 44.99999999999987 -508.79289321881157 100.00000000091454
    vertex 44.99999999999987 -499.7631578947353 100.00000000089676
    vertex 44.99999999999987 -508.79289321881106 100.5000000009147
  endloop
endfacet
facet normal 1.0 0.0 0.0
  outer loop
    vertex 44.99999999999987 -508.2244871458633 102.00000000091342
    vertex 44.99999999999987 -508.79289321881106 100.5000000009147
    vertex 44.99999999999987 -499.7631578947353 100.00000000089676
  endloop
endfacet
facet normal 1.0 0.0 0.0
  outer loop
    vertex 44.99999999999987 -499.7631578947312 102.00000000089668
    vertex 44.99999999999987 -508.2244871458633 102.00000000091342
    vertex 44.99999999999987 -499.7631578947353 100.00000000089676
  endloop
endfacet
facet normal -0.0014284650110158136 -0.03229719052937214 0.9994772888723495
  outer loop
    vertex 0.5267369504386863 -543.6958882798684 101.02673695142188
    vertex 12.16535554600754 -543.6861020265092 101.04368723945576
    vertex 0.8507979397991448 -533.6817451308976 101.3507979407626
  endloop
endfacet
facet normal -0.0014284650110158136 -0.03229719052937214 0.9994772888723495
  outer loop
    vertex 79.54524751904951 -539.1163602473184 101.28765440284906
    vertex 0.8507979397991448 -533.6817451308976 101.3507979407626
    vertex 12.16535554600754 -543.6861020265092 101.04368723945576
  endloop
endfacet
facet normal -0.0014284650110158136 -0.03229719052937214 0.9994772888723495
  outer loop
    vertex 79.54639865423754 -539.1781125781257 101.2856605782174
    vertex 79.54524751904951 -539.1163602473184 101.28765440284906
    vertex 12.16535554600754 -543.6861020265092 101.04368723945576
  endloop
endfacet
facet normal 4.926548178338094e-16 0.8660254037854249 0.4999999999982921
  outer loop
    vertex 34.61272790690064 -521.7295489615857 103.49566667659958
    vertex 35.20710678118651 -519.9999999999976 100.50000000093658
    vertex 2.209995417786527 -521.2759414493597 102.70999541872568
  endloop
endfacet
facet normal 4.926548178338094e-16 0.8660254037854249 0.4999999999982921
  outer loop
    vertex 0.0 -519.9999999999976 100.50000000093658
    vertex 2.209995417786527 -521.2759414493597 102.70999541872568
    vertex 35.20710678118651 -519.9999999999976 100.50000000093658
  endloop
endfacet
facet normal -1.1004088919250102e-14 1.0 -1.9599944097924013e-12
  outer loop
    vertex 32.49999999999983 -494.4999999999736 112.48437500088637
    vertex 32.50000000000019 -494.4999999999982 100.00000000088654
    vertex 11.860816644618545 -494.49999999997885 109.90457961694912
  endloop
endfacet
facet normal -1.1004088919250102e-14 1.0 -1.9599944097924013e-12
  outer loop
    vertex 9.969675586985465 -494.49999999997965 109.50261872716344
    vertex 11.860816644618545 -494.49999999997885 109.90457961694912
    vertex 32.50000000000019 -494.4999999999982 100.00000000088654
  endloop
endfacet
facet normal -1.1004088919250102e-14 1.0 -1.9599944097924013e-12
  outer loop
    vertex 8.914757486411414 -494.4999999999799 109.41475748729762
    vertex 9.969675586985465 -494.49999999997965 109.50261872716344
    vertex 32.50000000000019 -494.4999999999982 100.00000000088654
  endloop
endfacet
facet normal -1.1004088919250102e-14 1.0 -1.9599944097924013e-12
  outer loop
    vertex 0.0 -494.4999999999976 100.50000000088635
    vertex 8.914757486411414 -494.4999999999799 109.41475748729762
    vertex 32.50000000000019 -494.4999999999982 100.00000000088654
  endloop
endfacet
facet normal -1.1004088919250102e-14 1.0 -1.9599944097924013e-12
  outer loop
    vertex 0.0 -494.49999999999835 100.00000000088637
    vertex 0.0 -494.4999999999976 100.50000000088635
    vertex 32.50000000000019 -494.4999999999982 100.00000000088654
  endloop
endfacet
facet normal 1.4591549190439432e-17 -0.053599394921655164 0.9985625192565725
  outer loop
    vertex 79.54639865423754 -539.1781125781257 101.2856605782174
    vertex 12.16535554600754 -543.6861020265092 101.04368723945576
    vertex 79.68610202651348 -543.6861020265092 101.04368723945576
  endloop
endfacet
facet normal 1.8427181325897126e-16 0.8660254037854233 0.49999999999829453
  outer loop
    vertex 35.677204826838164 -572.5732075777681 104.95692626417524
    vertex 34.792893218813454 -569.9999999999975 100.50000000103508
    vertex 31.108180141477167 -572.4189468258321 104.68973880420742
  endloop
endfacet
facet normal 1.8427181325897126e-16 0.8660254037854233 0.49999999999829453
  outer loop
    vertex 23.755643850609093 -572.0090180690286 103.97972136993708
    vertex 31.108180141477167 -572.4189468258321 104.68973880420742
    vertex 34.792893218813454 -569.9999999999975 100.50000000103508
  endloop
endfacet
facet normal 1.8427181325897126e-16 0.8660254037854233 0.49999999999829453
  outer loop
    vertex 6.805613906881964 -571.7224556275191 103.48338066169936
    vertex 23.755643850609093 -572.0090180690286 103.97972136993708
    vertex 34.792893218813454 -569.9999999999975 100.50000000103508
  endloop
endfacet
facet normal 1.8427181325897126e-16 0.8660254037854233 0.49999999999829453
  outer loop
    vertex 6.374999999999994 -569.9999999999975 100.50000000103508
    vertex 6.805613906881964 -571.7224556275191 103.48338066169936
    vertex 34.792893218813454 -569.9999999999975 100.50000000103508
  endloop
endfacet
facet normal 0.7071067811865462 1.3989309193404429e-12 0.7071067811865489
  outer loop
    vertex 34.580645161290235 -593.6239388794303 112.4193548397913
    vertex 44.99999999999987 -589.2368421052574 102.00000000107305
    vertex 36.6961619521176 -587.210407115376 110.30383804895173
  endloop
endfacet
facet normal 0.7071067811865462 1.3989309193404429e-12 0.7071067811865489
  outer loop
    vertex 38.093397373983755 -584.6793681660255 108.90660262708005
    vertex 36.6961619521176 -587.210407115376 110.30383804895173
    vertex 44.99999999999987 -589.2368421052574 102.00000000107305
  endloop
endfacet
facet normal 0.7071067811865462 1.3989309193404429e-12 0.7071067811865489
  outer loop
    vertex 39.69891028731715 -578.8664890263262 107.30108971373534
    vertex 38.093397373983755 -584.6793681660255 108.90660262708005
    vertex 44.99999999999987 -589.2368421052574 102.00000000107305
  endloop
endfacet
facet normal 0.7071067811865462 1.3989309193404429e-12 0.7071067811865489
  outer loop
    vertex 40.19605229715938 -577.7919605168773 106.80394770389086
    vertex 39.69891028731715 -578.8664890263262 107.30108971373534
    vertex 44.99999999999987 -589.2368421052574 102.00000000107305
  endloop
endfacet
facet normal 0.7071067811865462 1.3989309193404429e-12 0.7071067811865489
  outer loop
    vertex 44.99999999999987 -580.7755128541253 102.00000000105646
    vertex 40.19605229715938 -577.7919605168773 106.80394770389086
    vertex 44.99999999999987 -589.2368421052574 102.00000000107305
  endloop
endfacet
facet normal 0.8660254037844405 9.866732304904672e-13 0.49999999999999695
  outer loop
    vertex 73.82643755031587 -577.0993947156325 111.1929238276017
    vertex 80.00000000000021 -574.4999999999975 100.500000001044
    vertex 73.99357149404034 -576.2629881105427 110.90343934539993
  endloop
endfacet
facet normal 0.8660254037844405 9.866732304904672e-13 0.49999999999999695
  outer loop
    vertex 75.60542716315744 -571.5803965329704 108.11162343201202
    vertex 73.99357149404034 -576.2629881105427 110.90343934539993
    vertex 80.00000000000021 -574.4999999999975 100.500000001044
  endloop
endfacet
facet normal 0.8660254037844405 9.866732304904672e-13 0.49999999999999695
  outer loop
    vertex 77.07293878986842 -566.1124683234511 105.5698187338399
    vertex 75.60542716315744 -571.5803965329704 108.11162343201202
    vertex 80.00000000000021 -574.4999999999975 100.500000001044
  endloop
endfacet
facet normal 0.8660254037844405 9.866732304904672e-13 0.49999999999999695
  outer loop
    vertex 78.22238699107876 -560.6810939970682 103.57891604866403
    vertex 77.07293878986842 -566.1124683234511 105.5698187338399
    vertex 80.00000000000021 -574.4999999999975 100.500000001044
  endloop
endfacet
facet normal 0.8660254037844405 9.866732304904672e-13 0.49999999999999695
  outer loop
    vertex 79.04798750225089 -555.274646978554 102.14893401654818
    vertex 78.22238699107876 -560.6810939970682 103.57891604866403
    vertex 80.00000000000021 -574.4999999999975 100.500000001044
  endloop
endfacet
facet normal 0.8660254037844405 9.866732304904672e-13 0.49999999999999695
  outer loop
    vertex 80.00000000000021 -545.4999999999976 100.50000000098699
    vertex 79.04798750225089 -555.274646978554 102.14893401654818
    vertex 80.00000000000021 -574.4999999999975 100.500000001044
  endloop
endfacet
facet normal 0.8660254037844405 9.866732304904672e-13 0.49999999999999695
  outer loop
    vertex 75.70335578100286 -570.9862398392625 107.94200609038776
    vertex 75.60542716315744 -571.5803965329704 108.11162343201202
    vertex 77.07293878986842 -566.1124683234511 105.5698187338399
  endloop
endfacet
facet normal 0.8660254037844405 9.866732304904672e-13 0.49999999999999695
  outer loop
    vertex 77.12397239625628 -565.7169930525539 105.48142593468164
    vertex 77.07293878986842 -566.1124683234511 105.5698187338399
    vertex 78.22238699107876 -560.6810939970682 103.57891604866403
  endloop
endfacet
facet normal 0.8660254037844405 9.866732304904672e-13 0.49999999999999695
  outer loop
    vertex 78.24465178897663 -560.4407848789363 103.54035228748438
    vertex 78.22238699107876 -560.6810939970682 103.57891604866403
    vertex 79.04798750225089 -555.274646978554 102.14893401654818
  endloop
endfacet
facet normal 0.8660254037844405 9.866732304904672e-13 0.49999999999999695
  outer loop
    vertex 79.05518079201218 -555.1457278803134 102.13647487320763
    vertex 79.04798750225089 -555.274646978554 102.14893401654818
    vertex 80.00000000000021 -545.4999999999976 100.50000000098699
  endloop
endfacet
facet normal 0.8660254037844405 9.866732304904672e-13 0.49999999999999695
  outer loop
    vertex 79.54524751904951 -549.8836397526729 101.28765440287019
    vertex 79.05518079201218 -555.1457278803134 102.13647487320763
    vertex 80.00000000000021 -545.4999999999976 100.50000000098699
  endloop
endfacet
facet normal 0.8660254037844405 9.866732304904672e-13 0.49999999999999695
  outer loop
    vertex 79.54639865423717 -549.8218874218662 101.28566057823816
    vertex 79.54524751904951 -549.8836397526729 101.28765440287019
    vertex 80.00000000000021 -545.4999999999976 100.50000000098699
  endloop
endfacet
facet normal 0.8660254037844405 9.866732304904672e-13 0.49999999999999695
  outer loop
    vertex 79.68610202651276 -545.3138979734832 101.0436872394592
    vertex 79.54639865423717 -549.8218874218662 101.28566057823816
    vertex 80.00000000000021 -545.4999999999976 100.50000000098699
  endloop
endfacet
facet normal 0.8660254037844405 9.866732304904672e-13 0.49999999999999695
  outer loop
    vertex 80.00000000000021 -544.9999999999974 100.50000000098586
    vertex 79.68610202651276 -545.3138979734832 101.0436872394592
    vertex 80.00000000000021 -545.4999999999976 100.50000000098699
  endloop
endfacet
facet normal -9.763599864285537e-16 -1.9693241973192594e-12 -1.0
  outer loop
    vertex 0.0 -544.4999999999983 100.00000000098487
    vertex 0.0 -494.49999999999835 100.00000000088637
    vertex 12.500000000000044 -594.4999999999983 100.00000000108335
  endloop
endfacet
facet normal -9.763599864285537e-16 -1.9693241973192594e-12 -1.0
  outer loop
    vertex 32.50000000000019 -494.4999999999982 100.00000000088654
    vertex 12.500000000000044 -594.4999999999983 100.00000000108335
    vertex 0.0 -494.49999999999835 100.00000000088637
  endloop
endfacet
facet normal -9.763599864285537e-16 -1.9693241973192594e-12 -1.0
  outer loop
    vertex 32.50000000000019 -594.4999999999878 100.0000000010834
    vertex 12.500000000000044 -594.4999999999983 100.00000000108335
    vertex 32.50000000000019 -494.4999999999982 100.00000000088654
  endloop
endfacet
facet normal -9.763599864285537e-16 -1.9693241973192594e-12 -1.0
  outer loop
    vertex 34.792893218813454 -569.9999999999982 100.00000000103509
    vertex 32.50000000000019 -594.4999999999878 100.0000000010834
    vertex 32.50000000000019 -494.4999999999982 100.00000000088654
  endloop
endfacet
facet normal -9.763599864285537e-16 -1.9693241973192594e-12 -1.0
  outer loop
    vertex 44.99999999999987 -589.2368421052613 100.00000000107296
    vertex 32.50000000000019 -594.4999999999878 100.0000000010834
    vertex 34.792893218813454 -569.9999999999982 100.00000000103509
  endloop
endfacet
facet normal -9.763599864285537e-16 -1.9693241973192594e-12 -1.0
  outer loop
    vertex 44.99999999999987 -580.2071067811847 100.00000000105537
    vertex 44.99999999999987 -589.2368421052613 100.00000000107296
    vertex 34.792893218813454 -569.9999999999982 100.00000000103509
  endloop
endfacet
facet normal -9.763599864285537e-16 -1.9693241973192594e-12 -1.0
  outer loop
    vertex 34.792893218813454 -569.9999999999982 100.00000000103509
    vertex 34.792893218813454 -518.9999999999984 100.00000000093462
    vertex 35.20710678118651 -568.9999999999984 100.00000000103311
  endloop
endfacet
facet normal -9.763599864285537e-16 -1.9693241973192594e-12 -1.0
  outer loop
    vertex 35.20710678118651 -519.9999999999983 100.0000000009366
    vertex 35.20710678118651 -568.9999999999984 100.00000000103311
    vertex 34.792893218813454 -518.9999999999984 100.00000000093462
  endloop
endfacet
facet normal -9.763599864285537e-16 -1.9693241973192594e-12 -1.0
  outer loop
    vertex 52.349445512686884 -586.1423387314984 100.00000000106695
    vertex 35.20710678118651 -568.9999999999984 100.00000000103311
    vertex 35.20710678118651 -519.9999999999983 100.0000000009366
  endloop
endfacet
facet normal -9.763599864285537e-16 -1.9693241973192594e-12 -1.0
  outer loop
    vertex 52.349445512686884 -502.85766126849796 100.00000000090277
    vertex 52.349445512686884 -586.1423387314984 100.00000000106695
    vertex 35.20710678118651 -519.9999999999983 100.0000000009366
  endloop
endfacet
facet normal -9.763599864285537e-16 -1.9693241973192594e-12 -1.0
  outer loop
    vertex 80.00000000000021 -574.4999999999984 100.00000000104394
    vertex 52.349445512686884 -586.1423387314984 100.00000000106695
    vertex 52.349445512686884 -502.85766126849796 100.00000000090277
  endloop
endfacet
facet normal -9.763599864285537e-16 -1.9693241973192594e-12 -1.0
  outer loop
    vertex 54.07550980684191 -503.5844251818262 100.00000000090432
    vertex 80.00000000000021 -574.4999999999984 100.00000000104394
    vertex 52.349445512686884 -502.85766126849796 100.00000000090277
  endloop
endfacet
facet normal -9.763599864285537e-16 -1.9693241973192594e-12 -1.0
  outer loop
    vertex 80.0000000000004 -514.4999999999982 100.00000000092578
    vertex 80.00000000000021 -574.4999999999984 100.00000000104394
    vertex 54.07550980684191 -503.5844251818262 100.00000000090432
  endloop
endfacet
facet normal -9.763599864285537e-16 -1.9693241973192594e-12 -1.0
  outer loop
    vertex 44.99999999999987 -499.7631578947353 100.00000000089676
    vertex 34.792893218813454 -518.9999999999984 100.00000000093462
    vertex 32.50000000000019 -494.4999999999982 100.00000000088654
  endloop
endfacet
facet normal -9.763599864285537e-16 -1.9693241973192594e-12 -1.0
  outer loop
    vertex 34.792893218813454 -569.9999999999982 100.00000000103509
    vertex 32.50000000000019 -494.4999999999982 100.00000000088654
    vertex 34.792893218813454 -518.9999999999984 100.00000000093462
  endloop
endfacet
facet normal -9.763599864285537e-16 -1.9693241973192594e-12 -1.0
  outer loop
    vertex 44.99999999999987 -508.79289321881157 100.00000000091454
    vertex 34.792893218813454 -518.9999999999984 100.00000000093462
    vertex 44.99999999999987 -499.7631578947353 100.00000000089676
  endloop
endfacet
endsolid ProtoGlove baseplate
