solid ProtoGlove baseplate
facet normal 0.2901956493302795 0.7660752605650062 -0.5735112730017042
  outer loop
    vertex 350.25377006025025 -509.5985754264346 111.81025121390411
    vertex 363.5551918263213 -515.346639375182 110.86269379621717
    vertex 339.82427644004406 -512.885356975836 102.14258474213518
  endloop
endfacet
facet normal 0.2901956493302795 0.7660752605650062 -0.5735112730017042
  outer loop
    vertex 359.6512657161883 -521.9999999999982 100.00000000094063
    vertex 339.82427644004406 -512.885356975836 102.14258474213518
    vertex 363.5551918263213 -515.346639375182 110.86269379621717
  endloop
endfacet
facet normal 0.2901956493302795 0.7660752605650062 -0.5735112730017042
  outer loop
    vertex 339.2929108236103 -514.2880866652929 100.00000000092543
    vertex 339.82427644004406 -512.885356975836 102.14258474213518
    vertex 359.6512657161883 -521.9999999999982 100.00000000094063
  endloop
endfacet
facet normal 0.5301177293447817 -0.7980177788866853 0.28660568315212115
  outer loop
    vertex 363.1578198451695 -515.7995955205032 111.2783853569812
    vertex 357.2933675969363 -521.1068086766331 107.34824575590785
    vertex 359.6512657161883 -521.9999999999973 100.5000000009406
  endloop
endfacet
facet normal 0.7890879739839126 -0.6072579368103324 0.09261731746721398
  outer loop
    vertex 363.1578198451695 -515.7995955205032 111.2783853569812
    vertex 359.6512657161883 -521.9999999999973 100.5000000009406
    vertex 363.5551918263213 -515.346639375182 110.86269379621717
  endloop
endfacet
facet normal 0.8842317694854726 -0.3071288150534174 0.3518608656791398
  outer loop
    vertex 356.7903260740333 -524.5597080545505 105.45529281854574
    vertex 359.6512657161883 -521.9999999999973 100.5000000009406
    vertex 357.1883435433014 -521.36480396894 107.24380491599419
  endloop
endfacet
facet normal 0.86248975685254 -0.5060745195368429 9.199473667288206e-13
  outer loop
    vertex 359.6512657161883 -521.9999999999973 100.5000000009406
    vertex 359.6512657161883 -521.9999999999982 100.00000000094063
    vertex 363.5551918263213 -515.346639375182 110.86269379621717
  endloop
endfacet
facet normal 0.8140958331918962 -0.4696675564425192 0.34155579457082197
  outer loop
    vertex 357.1883435433014 -521.36480396894 107.24380491599419
    vertex 359.6512657161883 -521.9999999999973 100.5000000009406
    vertex 357.2933675969363 -521.1068086766331 107.34824575590785
  endloop
endfacet
facet normal 0.2770069500194196 0.5063993682660938 0.8165946543179426
  outer loop
    vertex 349.4178392113073 -509.86201315322245 112.2571845257815
    vertex 363.1578198451695 -515.7995955205032 111.2783853569812
    vertex 350.25377006025025 -509.5985754264346 111.81025121390411
  endloop
endfacet
facet normal 0.2770069500194196 0.5063993682660938 0.8165946543179426
  outer loop
    vertex 363.5551918263213 -515.346639375182 110.86269379621717
    vertex 350.25377006025025 -509.5985754264346 111.81025121390411
    vertex 363.1578198451695 -515.7995955205032 111.2783853569812
  endloop
endfacet
facet normal -0.14568132138128406 -0.4797478965968747 0.8652276627058786
  outer loop
    vertex 339.2929108236103 -514.2880866652769 108.09826478811554
    vertex 357.2933675969363 -521.1068086766331 107.34824575590785
    vertex 339.82427644004406 -512.8853569758224 108.9655124449945
  endloop
endfacet
facet normal -0.14568132138128406 -0.4797478965968747 0.8652276627058786
  outer loop
    vertex 349.4178392113073 -509.86201315322245 112.2571845257815
    vertex 339.82427644004406 -512.8853569758224 108.9655124449945
    vertex 357.2933675969363 -521.1068086766331 107.34824575590785
  endloop
endfacet
facet normal -0.14568132138128406 -0.4797478965968747 0.8652276627058786
  outer loop
    vertex 363.1578198451695 -515.7995955205032 111.2783853569812
    vertex 349.4178392113073 -509.86201315322245 112.2571845257815
    vertex 357.2933675969363 -521.1068086766331 107.34824575590785
  endloop
endfacet
facet normal -1.0 0.0 0.0
  outer loop
    vertex 339.2929108236103 -515.6957863844787 100.00000000092817
    vertex 339.2929108236103 -515.6957863844777 100.50000000092832
    vertex 339.2929108236103 -514.2880866652929 100.00000000092543
  endloop
endfacet
facet normal -1.0 0.0 0.0
  outer loop
    vertex 339.2929108236103 -519.7723818200144 105.74197288441327
    vertex 339.2929108236103 -519.0372710723059 105.95866162552916
    vertex 339.2929108236103 -515.6957863844777 100.50000000092832
  endloop
endfacet
facet normal -1.0 0.0 0.0
  outer loop
    vertex 339.2929108236103 -516.7495108173775 107.19879183069644
    vertex 339.2929108236103 -515.6957863844777 100.50000000092832
    vertex 339.2929108236103 -519.0372710723059 105.95866162552916
  endloop
endfacet
facet normal -1.0 0.0 0.0
  outer loop
    vertex 339.2929108236103 -514.2880866652769 108.09826478811554
    vertex 339.2929108236103 -515.6957863844777 100.50000000092832
    vertex 339.2929108236103 -516.7495108173775 107.19879183069644
  endloop
endfacet
facet normal -1.0 0.0 0.0
  outer loop
    vertex 339.2929108236103 -514.2880866652929 100.00000000092543
    vertex 339.2929108236103 -515.6957863844777 100.50000000092832
    vertex 339.2929108236103 -514.2880866652769 108.09826478811554
  endloop
endfacet
facet normal -0.30057061718373446 0.9537595630376604 -1.8788729866476883e-12
  outer loop
    vertex 349.4178392113073 -509.86201315322245 112.2571845257815
    vertex 350.25377006025025 -509.5985754264346 111.81025121390411
    vertex 339.82427644004406 -512.8853569758224 108.9655124449945
  endloop
endfacet
facet normal -0.30057061718373446 0.9537595630376604 -1.8788729866476883e-12
  outer loop
    vertex 339.82427644004406 -512.885356975836 102.14258474213518
    vertex 339.82427644004406 -512.8853569758224 108.9655124449945
    vertex 350.25377006025025 -509.5985754264346 111.81025121390411
  endloop
endfacet
facet normal -0.9351531263017805 0.35424374428916366 -6.978041015169158e-13
  outer loop
    vertex 339.2929108236103 -514.2880866652929 100.00000000092543
    vertex 339.2929108236103 -514.2880866652769 108.09826478811554
    vertex 339.82427644004406 -512.885356975836 102.14258474213518
  endloop
endfacet
facet normal -0.9351531263017805 0.35424374428916366 -6.978041015169158e-13
  outer loop
    vertex 339.82427644004406 -512.8853569758224 108.9655124449945
    vertex 339.82427644004406 -512.885356975836 102.14258474213518
    vertex 339.2929108236103 -514.2880866652769 108.09826478811554
  endloop
endfacet
facet normal -0.12414942994566064 0.47287158687639347 0.8723413215990454
  outer loop
    vertex 340.01305006385314 -570.4483054943298 106.32436737621906
    vertex 340.0130500638528 -572.0647628156603 107.20060322534094
    vertex 340.7938629354724 -571.863388512201 107.20256723464604
  endloop
endfacet
facet normal -0.4026819343372365 0.019038874106743764 0.9151419458374581
  outer loop
    vertex 340.0130500638528 -572.0647628156603 107.20060322534094
    vertex 340.013050063853 -574.4391186300605 107.25000000104409
    vertex 341.7400376051911 -573.7849214555235 107.99630117233434
  endloop
endfacet
facet normal -0.09050939412793214 0.3418200376165126 0.9353967668633673
  outer loop
    vertex 340.7938629354724 -571.863388512201 107.20256723464604
    vertex 340.0130500638528 -572.0647628156603 107.20060322534094
    vertex 341.7400376051911 -573.7849214555235 107.99630117233434
  endloop
endfacet
facet normal -1.0 4.2830713277224986e-14 1.185445039823929e-14
  outer loop
    vertex 340.0130500638528 -574.4391186300728 101.10421774210134
    vertex 340.013050063853 -574.4391186300605 107.25000000104409
    vertex 340.01305006385314 -570.4483054943298 106.32436737621906
  endloop
endfacet
facet normal -1.0 4.2830713277224986e-14 1.185445039823929e-14
  outer loop
    vertex 340.0130500638528 -572.0647628156603 107.20060322534094
    vertex 340.01305006385314 -570.4483054943298 106.32436737621906
    vertex 340.013050063853 -574.4391186300605 107.25000000104409
  endloop
endfacet
facet normal -0.0008735463942417531 0.03184481783435092 0.9994924434400663
  outer loop
    vertex 299.81201396766727 -545.3035372764202 101.02574198574459
    vertex 301.17632451667686 -552.1233587840453 101.24422063815162
    vertex 312.0000068052891 -545.3098025673112 101.03659378789123
  endloop
endfacet
facet normal -0.0008735463942417531 0.03184481783435092 0.9994924434400663
  outer loop
    vertex 359.25967992354384 -548.4593664367801 101.17824648937552
    vertex 312.0000068052891 -545.3098025673112 101.03659378789123
    vertex 301.17632451667686 -552.1233587840453 101.24422063815162
  endloop
endfacet
facet normal -0.0008735463942417531 0.03184481783435092 0.9994924434400663
  outer loop
    vertex 359.26060509997825 -548.4090459278881 101.17664403678592
    vertex 312.0000068052891 -545.3098025673112 101.03659378789123
    vertex 359.25967992354384 -548.4593664367801 101.17824648937552
  endloop
endfacet
facet normal -0.04902693893006319 -0.31049275692970335 0.9493105957237283
  outer loop
    vertex 335.3536288316679 -528.2246575123753 102.84101232788548
    vertex 358.4365185174193 -532.5940929833051 102.60400386758164
    vertex 336.3383996954165 -526.1220768499813 103.57956551657755
  endloop
endfacet
facet normal -0.04902693893006319 -0.31049275692970335 0.9493105957237283
  outer loop
    vertex 357.7479512247003 -528.8389715752542 103.79663740299358
    vertex 336.3383996954165 -526.1220768499813 103.57956551657755
    vertex 358.4365185174193 -532.5940929833051 102.60400386758164
  endloop
endfacet
facet normal -0.09050939412789272 0.3418200376165405 0.9353967668633608
  outer loop
    vertex 311.18350827365185 -579.4999999999845 107.12808714576353
    vertex 326.65304269260105 -579.4999999999811 108.62492596037019
    vertex 336.32544457070975 -573.0158088532032 107.19132764630702
  endloop
endfacet
facet normal -0.09050939412789272 0.3418200376165405 0.9353967668633608
  outer loop
    vertex 336.9985937481646 -575.5810196323996 108.19386133304715
    vertex 336.32544457070975 -573.0158088532032 107.19132764630702
    vertex 326.65304269260105 -579.4999999999811 108.62492596037019
  endloop
endfacet
facet normal -0.9805711006119538 -0.19616400445714158 4.486686821169556e-13
  outer loop
    vertex 306.6530426926013 -579.4999999999853 106.67234579088631
    vertex 303.25217958977197 -562.4999999999975 100.50000000102055
    vertex 306.6530426926009 -579.4999999999983 100.00000000105406
  endloop
endfacet
facet normal -0.9805711006119538 -0.19616400445714158 4.486686821169556e-13
  outer loop
    vertex 299.65126571618856 -544.4999999999984 100.00000000098493
    vertex 306.6530426926009 -579.4999999999983 100.00000000105406
    vertex 303.25217958977197 -562.4999999999975 100.50000000102055
  endloop
endfacet
facet normal -0.9805711006119538 -0.19616400445714158 4.486686821169556e-13
  outer loop
    vertex 305.4720392056411 -573.5964811957124 104.8086699241114
    vertex 303.25217958977197 -562.4999999999975 100.50000000102055
    vertex 306.6530426926013 -579.4999999999853 106.67234579088631
  endloop
endfacet
facet normal -0.9805711006119538 -0.19616400445714158 4.486686821169556e-13
  outer loop
    vertex 305.53965351953667 -573.9344669662273 104.96023994389598
    vertex 305.4720392056411 -573.5964811957124 104.8086699241114
    vertex 306.6530426926013 -579.4999999999853 106.67234579088631
  endloop
endfacet
facet normal -0.9805711006119538 -0.19616400445714158 4.486686821169556e-13
  outer loop
    vertex 304.14506447978954 -566.9632914267092 103.25315662408707
    vertex 303.25217958977197 -562.4999999999975 100.50000000102055
    vertex 305.4720392056411 -573.5964811957124 104.8086699241114
  endloop
endfacet
facet normal -0.9805711006119538 -0.19616400445714158 4.486686821169556e-13
  outer loop
    vertex 304.09102116915375 -566.6931434516129 103.16200777559891
    vertex 303.25217958977197 -562.4999999999975 100.50000000102055
    vertex 304.14506447978954 -566.9632914267092 103.25315662408707
  endloop
endfacet
facet normal -0.9805711006119538 -0.19616400445714158 4.486686821169556e-13
  outer loop
    vertex 303.50382411238 -563.7579032895355 102.67875240951813
    vertex 303.25217958977197 -562.4999999999975 100.50000000102055
    vertex 304.09102116915375 -566.6931434516129 103.16200777559891
  endloop
endfacet
facet normal -0.9805711006119538 -0.19616400445714158 4.486686821169556e-13
  outer loop
    vertex 303.0521288190171 -561.4999999999976 100.50000000101839
    vertex 299.65126571618856 -544.4999999999984 100.00000000098493
    vertex 303.25217958977197 -562.4999999999975 100.50000000102055
  endloop
endfacet
facet normal -0.9805711006119538 -0.19616400445714158 4.486686821169556e-13
  outer loop
    vertex 302.6577223491276 -559.5284681313499 101.96913164171973
    vertex 299.65126571618856 -544.4999999999984 100.00000000098493
    vertex 303.0521288190171 -561.4999999999976 100.50000000101839
  endloop
endfacet
facet normal -0.9805711006119538 -0.19616400445714158 4.486686821169556e-13
  outer loop
    vertex 302.8615365794449 -560.5472806535334 102.15015831444099
    vertex 302.6577223491276 -559.5284681313499 101.96913164171973
    vertex 303.0521288190171 -561.4999999999976 100.50000000101839
  endloop
endfacet
facet normal -0.9805711006119538 -0.19616400445714158 4.486686821169556e-13
  outer loop
    vertex 302.6957289028872 -559.7184526718555 102.01370080241924
    vertex 302.6577223491276 -559.5284681313499 101.96913164171973
    vertex 302.8615365794449 -560.5472806535334 102.15015831444099
  endloop
endfacet
facet normal -0.9805711006119538 -0.19616400445714158 4.486686821169556e-13
  outer loop
    vertex 301.1961762822222 -552.2225924209388 101.25789515805336
    vertex 299.65126571618856 -544.4999999999984 100.00000000098493
    vertex 302.6577223491276 -559.5284681313499 101.96913164171973
  endloop
endfacet
facet normal -0.9805711006119538 -0.19616400445714158 4.486686821169556e-13
  outer loop
    vertex 301.17632451667686 -552.1233587840453 101.24422063815162
    vertex 299.65126571618856 -544.4999999999984 100.00000000098493
    vertex 301.1961762822222 -552.2225924209388 101.25789515805336
  endloop
endfacet
facet normal -0.9805711006119538 -0.19616400445714158 4.486686821169556e-13
  outer loop
    vertex 299.75129110156615 -544.9999999999975 100.50000000098595
    vertex 299.65126571618856 -544.4999999999984 100.00000000098493
    vertex 301.17632451667686 -552.1233587840453 101.24422063815162
  endloop
endfacet
facet normal -0.9805711006119538 -0.19616400445714158 4.486686821169556e-13
  outer loop
    vertex 299.81201396766727 -545.3035372764202 101.02574198574459
    vertex 299.75129110156615 -544.9999999999975 100.50000000098595
    vertex 301.17632451667686 -552.1233587840453 101.24422063815162
  endloop
endfacet
facet normal -0.9805711006119538 -0.19616400445714158 4.486686821169556e-13
  outer loop
    vertex 299.65126571618856 -544.4999999999977 100.50000000098491
    vertex 299.65126571618856 -544.4999999999984 100.00000000098493
    vertex 299.75129110156615 -544.9999999999975 100.50000000098595
  endloop
endfacet
facet normal -0.03791974880024464 -0.220950008247937 0.9745476830336026
  outer loop
    vertex 302.38659316213324 -521.8135567038412 103.23532744688521
    vertex 325.7921551890848 -524.7837472716393 103.47263692508109
    vertex 303.98714362244726 -515.0286722715906 104.83587790718579
  endloop
endfacet
facet normal -0.03791974880024464 -0.220950008247937 0.9745476830336026
  outer loop
    vertex 334.580507835645 -522.7516506600781 104.27531072075982
    vertex 303.98714362244726 -515.0286722715906 104.83587790718579
    vertex 325.7921551890848 -524.7837472716393 103.47263692508109
  endloop
endfacet
facet normal -0.03791974880024464 -0.220950008247937 0.9745476830336026
  outer loop
    vertex 334.0320915844107 -524.5707596161542 103.84154236576487
    vertex 334.580507835645 -522.7516506600781 104.27531072075982
    vertex 325.7921551890848 -524.7837472716393 103.47263692508109
  endloop
endfacet
facet normal 0.8660254037844282 9.867542987231697e-13 0.5000000000000181
  outer loop
    vertex 355.658090533891 -568.5126478096258 107.41638230029457
    vertex 359.6512657161887 -566.9999999999975 100.50000000102939
    vertex 355.7598027055863 -568.0036215867719 107.24021165116925
  endloop
endfacet
facet normal 0.8660254037844282 9.867542987231697e-13 0.5000000000000181
  outer loop
    vertex 356.7903260740337 -564.4402919454245 105.45529281862466
    vertex 355.7598027055863 -568.0036215867719 107.24021165116925
    vertex 359.6512657161887 -566.9999999999975 100.50000000102939
  endloop
endfacet
facet normal 0.8660254037844282 9.867542987231697e-13 0.5000000000000181
  outer loop
    vertex 357.7163403172819 -560.4079477086808 103.85138910077866
    vertex 356.7903260740337 -564.4402919454245 105.45529281862466
    vertex 359.6512657161887 -566.9999999999975 100.50000000102939
  endloop
endfacet
facet normal 0.8660254037844282 9.867542987231697e-13 0.5000000000000181
  outer loop
    vertex 358.43651851741964 -556.4059070166813 102.60400386762852
    vertex 357.7163403172819 -560.4079477086808 103.85138910077866
    vertex 359.6512657161887 -566.9999999999975 100.50000000102939
  endloop
endfacet
facet normal 0.8660254037844282 9.867542987231697e-13 0.5000000000000181
  outer loop
    vertex 358.95097189089523 -552.4256164484407 101.71294448663555
    vertex 358.43651851741964 -556.4059070166813 102.60400386762852
    vertex 359.6512657161887 -566.9999999999975 100.50000000102939
  endloop
endfacet
facet normal 0.8660254037844282 9.867542987231697e-13 0.5000000000000181
  outer loop
    vertex 359.6512657161887 -545.4999999999977 100.50000000098706
    vertex 358.95097189089523 -552.4256164484407 101.71294448663555
    vertex 359.6512657161887 -566.9999999999975 100.50000000102939
  endloop
endfacet
facet normal 0.8660254037844282 9.867542987231697e-13 0.5000000000000181
  outer loop
    vertex 356.8501799528142 -564.0755450948249 105.35162285954593
    vertex 356.7903260740337 -564.4402919454245 105.45529281862466
    vertex 357.7163403172819 -560.4079477086808 103.85138910077866
  endloop
endfacet
facet normal 0.8660254037844282 9.867542987231697e-13 0.5000000000000181
  outer loop
    vertex 357.7479512247006 -560.1610284247279 103.79663740305521
    vertex 357.7163403172819 -560.4079477086808 103.85138910077866
    vertex 358.43651851741964 -556.4059070166813 102.60400386762852
  endloop
endfacet
facet normal 0.8660254037844282 9.867542987231697e-13 0.5000000000000181
  outer loop
    vertex 358.4507514937628 -556.2506324801636 102.57935162945871
    vertex 358.43651851741964 -556.4059070166813 102.60400386762852
    vertex 358.95097189089523 -552.4256164484407 101.71294448663555
  endloop
endfacet
facet normal 0.8660254037844282 9.867542987231697e-13 0.5000000000000181
  outer loop
    vertex 358.95591522587347 -552.3358922620555 101.70438237929407
    vertex 358.95097189089523 -552.4256164484407 101.71294448663555
    vertex 359.6512657161887 -545.4999999999977 100.50000000098706
  endloop
endfacet
facet normal 0.8660254037844282 9.867542987231697e-13 0.5000000000000181
  outer loop
    vertex 359.25967992354384 -548.4593664367801 101.17824648937552
    vertex 358.95591522587347 -552.3358922620555 101.70438237929407
    vertex 359.6512657161887 -545.4999999999977 100.50000000098706
  endloop
endfacet
facet normal 0.8660254037844282 9.867542987231697e-13 0.5000000000000181
  outer loop
    vertex 359.26060509997825 -548.4090459278881 101.17664403678592
    vertex 359.25967992354384 -548.4593664367801 101.17824648937552
    vertex 359.6512657161887 -545.4999999999977 100.50000000098706
  endloop
endfacet
facet normal 0.8660254037844282 9.867542987231697e-13 0.5000000000000181
  outer loop
    vertex 359.341463148874 -545.3098025673112 101.03659378789123
    vertex 359.26060509997825 -548.4090459278881 101.17664403678592
    vertex 359.6512657161887 -545.4999999999977 100.50000000098706
  endloop
endfacet
facet normal 0.8660254037844282 9.867542987231697e-13 0.5000000000000181
  outer loop
    vertex 359.6512657161887 -544.9999999999975 100.50000000098595
    vertex 359.341463148874 -545.3098025673112 101.03659378789123
    vertex 359.6512657161887 -545.4999999999977 100.50000000098706
  endloop
endfacet
facet normal -0.061526466713918294 -0.2822066942302798 0.957378647989038
  outer loop
    vertex 339.2929108236103 -519.0372710723059 105.95866162552916
    vertex 339.2929108236103 -519.7723818200144 105.74197288441327
    vertex 356.7903260740333 -524.5597080545505 105.45529281854574
  endloop
endfacet
facet normal -0.061526466713918294 -0.2822066942302798 0.957378647989038
  outer loop
    vertex 338.5401961590537 -521.4063327528855 105.21195922041538
    vertex 356.8501799528142 -524.9244549051502 105.3516228594689
    vertex 339.2929108236103 -519.7723818200144 105.74197288441327
  endloop
endfacet
facet normal -0.061526466713918294 -0.2822066942302798 0.957378647989038
  outer loop
    vertex 356.7903260740333 -524.5597080545505 105.45529281854574
    vertex 339.2929108236103 -519.7723818200144 105.74197288441327
    vertex 356.8501799528142 -524.9244549051502 105.3516228594689
  endloop
endfacet
facet normal 8.667635910022424e-16 0.8660254037854226 0.499999999998296
  outer loop
    vertex 334.0703625845672 -564.4302296209048 103.84325577472195
    vertex 334.3045145852472 -562.4999999999975 100.50000000102055
    vertex 325.79215518908404 -564.2162527283438 103.4726369251586
  endloop
endfacet
facet normal 8.667635910022424e-16 0.8660254037854226 0.499999999998296
  outer loop
    vertex 318.57704477776286 -563.9510367981627 103.01326945910591
    vertex 325.79215518908404 -564.2162527283438 103.4726369251586
    vertex 334.3045145852472 -562.4999999999975 100.50000000102055
  endloop
endfacet
facet normal 8.667635910022424e-16 0.8660254037854226 0.499999999998296
  outer loop
    vertex 303.50382411238 -563.7579032895355 102.67875240951813
    vertex 318.57704477776286 -563.9510367981627 103.01326945910591
    vertex 334.3045145852472 -562.4999999999975 100.50000000102055
  endloop
endfacet
facet normal 8.667635910022424e-16 0.8660254037854226 0.499999999998296
  outer loop
    vertex 303.25217958977197 -562.4999999999975 100.50000000102055
    vertex 303.50382411238 -563.7579032895355 102.67875240951813
    vertex 334.3045145852472 -562.4999999999975 100.50000000102055
  endloop
endfacet
facet normal -0.12414942994569957 -0.4728715868729361 0.8723413216009138
  outer loop
    vertex 339.2929108236103 -516.7495108173775 107.19879183069644
    vertex 339.2929108236103 -519.0372710723059 105.95866162552916
    vertex 357.1883435433014 -521.36480396894 107.24380491599419
  endloop
endfacet
facet normal -0.12414942994569957 -0.4728715868729361 0.8723413216009138
  outer loop
    vertex 356.7903260740333 -524.5597080545505 105.45529281854574
    vertex 357.1883435433014 -521.36480396894 107.24380491599419
    vertex 339.2929108236103 -519.0372710723059 105.95866162552916
  endloop
endfacet
facet normal -0.01987618360114528 0.1585474740087114 0.9871512730128604
  outer loop
    vertex 302.6957289028872 -559.7184526718555 102.01370080241924
    vertex 302.8615365794449 -560.5472806535334 102.15015831444099
    vertex 358.4507514937628 -556.2506324801636 102.57935162945871
  endloop
endfacet
facet normal -0.01987618360114528 0.1585474740087114 0.9871512730128604
  outer loop
    vertex 335.1552649211714 -560.2037271111674 102.74521050493638
    vertex 358.4507514937628 -556.2506324801636 102.57935162945871
    vertex 302.8615365794449 -560.5472806535334 102.15015831444099
  endloop
endfacet
facet normal -0.01987618360114528 0.1585474740087114 0.9871512730128604
  outer loop
    vertex 335.3936359199949 -560.7677694153817 102.84060154669417
    vertex 358.4507514937628 -556.2506324801636 102.57935162945871
    vertex 335.1552649211714 -560.2037271111674 102.74521050493638
  endloop
endfacet
facet normal -0.01987618360114528 0.1585474740087114 0.9871512730128604
  outer loop
    vertex 358.43651851741964 -556.4059070166813 102.60400386762852
    vertex 358.4507514937628 -556.2506324801636 102.57935162945871
    vertex 335.3936359199949 -560.7677694153817 102.84060154669417
  endloop
endfacet
facet normal -0.0615264667139259 -0.2822066942303099 0.9573786479890288
  outer loop
    vertex 304.1005283991148 -514.7890162425242 104.94926268385267
    vertex 335.0674459952236 -520.739070595897 105.18547001480694
    vertex 305.76664678420696 -509.49999999998545 106.61538106893434
  endloop
endfacet
facet normal -0.0615264667139259 -0.2822066942303099 0.9573786479890288
  outer loop
    vertex 309.0748037008327 -509.49999999998477 106.82798159730716
    vertex 305.76664678420696 -509.49999999998545 106.61538106893434
    vertex 335.0674459952236 -520.739070595897 105.18547001480694
  endloop
endfacet
facet normal -0.0615264667139259 -0.2822066942303099 0.9573786479890288
  outer loop
    vertex 335.8503224045038 -517.9507404431686 106.05769863189025
    vertex 309.0748037008327 -509.49999999998477 106.82798159730716
    vertex 335.0674459952236 -520.739070595897 105.18547001480694
  endloop
endfacet
facet normal -0.06152646671392407 0.28220669423407985 0.9573786479879176
  outer loop
    vertex 305.53965351953667 -573.9344669662273 104.96023994389598
    vertex 306.6530426926013 -579.4999999999853 106.67234579088631
    vertex 335.11629150001613 -568.2515441171024 105.18584259529315
  endloop
endfacet
facet normal -0.06152646671392407 0.28220669423407985 0.9573786479879176
  outer loop
    vertex 309.07480370083164 -579.4999999999847 106.82798159744513
    vertex 335.11629150001613 -568.2515441171024 105.18584259529315
    vertex 306.6530426926013 -579.4999999999853 106.67234579088631
  endloop
endfacet
facet normal -0.06152646671392407 0.28220669423407985 0.9573786479879176
  outer loop
    vertex 335.90754864683623 -571.0311981281594 106.05605233710405
    vertex 335.11629150001613 -568.2515441171024 105.18584259529315
    vertex 309.07480370083164 -579.4999999999847 106.82798159744513
  endloop
endfacet
facet normal -0.049026938930062214 0.31049275693345096 0.9493105957225029
  outer loop
    vertex 304.09102116915375 -566.6931434516129 103.16200777559891
    vertex 304.14506447978954 -566.9632914267092 103.25315662408707
    vertex 318.57704477776286 -563.9510367981627 103.01326945910591
  endloop
endfacet
facet normal -0.049026938930062214 0.31049275693345096 0.9493105957225029
  outer loop
    vertex 325.79215518908404 -564.2162527283438 103.4726369251586
    vertex 318.57704477776286 -563.9510367981627 103.01326945910591
    vertex 304.14506447978954 -566.9632914267092 103.25315662408707
  endloop
endfacet
facet normal -0.0826807338382099 -0.39397018686935004 0.915396847334589
  outer loop
    vertex 337.4917169337852 -523.4865552881738 104.22196816314293
    vertex 357.7163403172819 -528.592052291301 103.85138910071599
    vertex 338.5401961590537 -521.4063327528855 105.21195922041538
  endloop
endfacet
facet normal -0.0826807338382099 -0.39397018686935004 0.915396847334589
  outer loop
    vertex 356.8501799528142 -524.9244549051502 105.3516228594689
    vertex 338.5401961590537 -521.4063327528855 105.21195922041538
    vertex 357.7163403172819 -528.592052291301 103.85138910071599
  endloop
endfacet
facet normal -0.08268073383820886 0.3939701868729622 0.9153968473330343
  outer loop
    vertex 305.4720392056411 -573.5964811957124 104.8086699241114
    vertex 305.53965351953667 -573.9344669662273 104.96023994389598
    vertex 334.62332222897646 -566.2375412891059 104.2745262257557
  endloop
endfacet
facet normal -0.08268073383820886 0.3939701868729622 0.9153968473330343
  outer loop
    vertex 335.11629150001613 -568.2515441171024 105.18584259529315
    vertex 334.62332222897646 -566.2375412891059 104.2745262257557
    vertex 305.53965351953667 -573.9344669662273 104.96023994389598
  endloop
endfacet
facet normal -1.2659241813119106e-16 0.8660254037854336 0.499999999998277
  outer loop
    vertex 312.0000068052891 -545.3098025673112 101.03659378789123
    vertex 359.341463148874 -545.3098025673112 101.03659378789123
    vertex 299.81201396766727 -545.3035372764202 101.02574198574459
  endloop
endfacet
facet normal -1.2659241813119106e-16 0.8660254037854336 0.499999999998277
  outer loop
    vertex 359.6512657161887 -544.9999999999975 100.50000000098595
    vertex 299.81201396766727 -545.3035372764202 101.02574198574459
    vertex 359.341463148874 -545.3098025673112 101.03659378789123
  endloop
endfacet
facet normal -1.2659241813119106e-16 0.8660254037854336 0.499999999998277
  outer loop
    vertex 299.75129110156615 -544.9999999999975 100.50000000098595
    vertex 299.81201396766727 -545.3035372764202 101.02574198574459
    vertex 359.6512657161887 -544.9999999999975 100.50000000098595
  endloop
endfacet
facet normal -0.12414942994570076 0.47287158687638065 0.8723413215990465
  outer loop
    vertex 309.07480370083164 -579.4999999999847 106.82798159744513
    vertex 311.18350827365185 -579.4999999999845 107.12808714576353
    vertex 335.90754864683623 -571.0311981281594 106.05605233710405
  endloop
endfacet
facet normal -0.12414942994570076 0.47287158687638065 0.8723413215990465
  outer loop
    vertex 336.32544457070975 -573.0158088532032 107.19132764630702
    vertex 335.90754864683623 -571.0311981281594 106.05605233710405
    vertex 311.18350827365185 -579.4999999999845 107.12808714576353
  endloop
endfacet
facet normal -0.019876183601146163 -0.1585474740048238 0.9871512730134846
  outer loop
    vertex 301.14927731908256 -529.1853619841304 101.99801160384882
    vertex 358.4507514937628 -532.7493675198228 102.57935162941268
    vertex 301.2721373683725 -528.4358106847043 102.12087165313741
  endloop
endfacet
facet normal -0.019876183601146163 -0.1585474740048238 0.9871512730134846
  outer loop
    vertex 335.11588652615643 -528.7958539657711 102.7444849088713
    vertex 301.2721373683725 -528.4358106847043 102.12087165313741
    vertex 358.4507514937628 -532.7493675198228 102.57935162941268
  endloop
endfacet
facet normal -0.019876183601146163 -0.1585474740048238 0.9871512730134846
  outer loop
    vertex 335.3536288316679 -528.2246575123753 102.84101232788548
    vertex 335.11588652615643 -528.7958539657711 102.7444849088713
    vertex 358.4507514937628 -532.7493675198228 102.57935162941268
  endloop
endfacet
facet normal -0.019876183601146163 -0.1585474740048238 0.9871512730134846
  outer loop
    vertex 358.4365185174193 -532.5940929833051 102.60400386758164
    vertex 335.3536288316679 -528.2246575123753 102.84101232788548
    vertex 358.4507514937628 -532.7493675198228 102.57935162941268
  endloop
endfacet
facet normal -1.9525787550723172e-16 -0.8660254037834538 0.500000000001706
  outer loop
    vertex 334.0320915844107 -524.5707596161542 103.84154236576487
    vertex 325.7921551890848 -524.7837472716393 103.47263692508109
    vertex 334.2528281838105 -526.4999999999976 100.50000000094944
  endloop
endfacet
facet normal -1.9525787550723172e-16 -0.8660254037834538 0.500000000001706
  outer loop
    vertex 318.57704477776355 -525.0489632018225 103.01326945902915
    vertex 334.2528281838105 -526.4999999999976 100.50000000094944
    vertex 325.7921551890848 -524.7837472716393 103.47263692508109
  endloop
endfacet
facet normal -1.9525787550723172e-16 -0.8660254037834538 0.500000000001706
  outer loop
    vertex 301.79202857993266 -525.2640299843395 102.64076286469115
    vertex 334.2528281838105 -526.4999999999976 100.50000000094944
    vertex 318.57704477776355 -525.0489632018225 103.01326945902915
  endloop
endfacet
facet normal -1.9525787550723172e-16 -0.8660254037834538 0.500000000001706
  outer loop
    vertex 299.65126571618856 -526.4999999999976 100.50000000094944
    vertex 334.2528281838105 -526.4999999999976 100.50000000094944
    vertex 301.79202857993266 -525.2640299843395 102.64076286469115
  endloop
endfacet
facet normal -0.03791974880024571 -0.22095000824793587 0.9745476830336028
  outer loop
    vertex 336.3383996954165 -526.1220768499813 103.57956551657755
    vertex 357.7479512247003 -528.8389715752542 103.79663740299358
    vertex 337.4917169337852 -523.4865552881738 104.22196816314293
  endloop
endfacet
facet normal -0.03791974880024571 -0.22095000824793587 0.9745476830336028
  outer loop
    vertex 357.7163403172819 -528.592052291301 103.85138910071599
    vertex 337.4917169337852 -523.4865552881738 104.22196816314293
    vertex 357.7479512247003 -528.8389715752542 103.79663740299358
  endloop
endfacet
facet normal 0.9365669630492183 0.35048869272027094 -6.909168909811004e-13
  outer loop
    vertex 338.92648722183606 -574.8507176278607 100.0000000010447
    vertex 334.3045145852472 -562.4999999999983 100.00000000102058
    vertex 338.92648722183606 -574.8507176278598 100.50000000104467
  endloop
endfacet
facet normal 0.9365669630492183 0.35048869272027094 -6.909168909811004e-13
  outer loop
    vertex 334.3045145852472 -562.4999999999975 100.50000000102055
    vertex 338.92648722183606 -574.8507176278598 100.50000000104467
    vertex 334.3045145852472 -562.4999999999983 100.00000000102058
  endloop
endfacet
facet normal -0.01987618360114542 -0.15854747400482366 0.9871512730134846
  outer loop
    vertex 302.33134137585165 -521.973761021294 103.18007566060359
    vertex 301.79202857993266 -525.2640299843395 102.64076286469115
    vertex 318.57704477776355 -525.0489632018225 103.01326945902915
  endloop
endfacet
facet normal -0.09050939412788175 0.3418200376165262 0.9353967668633671
  outer loop
    vertex 340.7938629354724 -571.863388512201 107.20256723464604
    vertex 341.7400376051911 -573.7849214555235 107.99630117233434
    vertex 355.7598027055863 -568.0036215867719 107.24021165116925
  endloop
endfacet
facet normal -0.09050939412788175 0.3418200376165262 0.9353967668633671
  outer loop
    vertex 355.658090533891 -568.5126478096258 107.41638230029457
    vertex 355.7598027055863 -568.0036215867719 107.24021165116925
    vertex 341.7400376051911 -573.7849214555235 107.99630117233434
  endloop
endfacet
facet normal -0.08268073383820984 -0.39397018686935265 0.9153968473345877
  outer loop
    vertex 303.98714362244726 -515.0286722715906 104.83587790718579
    vertex 334.580507835645 -522.7516506600781 104.27531072075982
    vertex 304.1005283991148 -514.7890162425242 104.94926268385267
  endloop
endfacet
facet normal -0.08268073383820984 -0.39397018686935265 0.9153968473345877
  outer loop
    vertex 335.0674459952236 -520.739070595897 105.18547001480694
    vertex 304.1005283991148 -514.7890162425242 104.94926268385267
    vertex 334.580507835645 -522.7516506600781 104.27531072075982
  endloop
endfacet
facet normal -1.0 0.0 0.0
  outer loop
    vertex 299.65126571618856 -544.4999999999984 100.00000000098493
    vertex 299.65126571618856 -544.4999999999977 100.50000000098491
    vertex 299.65126571618856 -509.49999999999847 100.00000000091589
  endloop
endfacet
facet normal -1.0 0.0 0.0
  outer loop
    vertex 299.65126571618856 -543.9999999999976 100.50000000098396
    vertex 299.65126571618856 -509.49999999999847 100.00000000091589
    vertex 299.65126571618856 -544.4999999999977 100.50000000098491
  endloop
endfacet
facet normal -1.0 0.0 0.0
  outer loop
    vertex 299.65126571618856 -527.9999999999977 100.50000000095245
    vertex 299.65126571618856 -509.49999999999847 100.00000000091589
    vertex 299.65126571618856 -543.9999999999976 100.50000000098396
  endloop
endfacet
facet normal -1.0 0.0 0.0
  outer loop
    vertex 299.65126571618856 -527.4999999999976 100.50000000095142
    vertex 299.65126571618856 -509.49999999999847 100.00000000091589
    vertex 299.65126571618856 -527.9999999999977 100.50000000095245
  endloop
endfacet
facet normal -1.0 0.0 0.0
  outer loop
    vertex 299.65126571618856 -526.4999999999976 100.50000000094944
    vertex 299.65126571618856 -509.49999999999847 100.00000000091589
    vertex 299.65126571618856 -527.4999999999976 100.50000000095142
  endloop
endfacet
facet normal -1.0 0.0 0.0
  outer loop
    vertex 299.65126571618856 -509.4999999999977 100.50000000091596
    vertex 299.65126571618856 -509.49999999999847 100.00000000091589
    vertex 299.65126571618856 -526.4999999999976 100.50000000094944
  endloop
endfacet
facet normal -0.019876183601145195 0.15854747400871078 0.9871512730128604
  outer loop
    vertex 303.50382411238 -563.7579032895355 102.67875240951813
    vertex 304.09102116915375 -566.6931434516129 103.16200777559891
    vertex 318.57704477776286 -563.9510367981627 103.01326945910591
  endloop
endfacet
facet normal 2.2377566063723042e-17 1.969831964915031e-12 1.0
  outer loop
    vertex 303.0521288190171 -561.4999999999976 100.50000000101839
    vertex 303.25217958977197 -562.4999999999975 100.50000000102055
    vertex 334.99801684713026 -561.4999999999976 100.50000000101839
  endloop
endfacet
facet normal 2.2377566063723042e-17 1.969831964915031e-12 1.0
  outer loop
    vertex 334.3045145852472 -562.4999999999975 100.50000000102055
    vertex 334.99801684713026 -561.4999999999976 100.50000000101839
    vertex 303.25217958977197 -562.4999999999975 100.50000000102055
  endloop
endfacet
facet normal -0.023805512561753808 0.22381200167482987 0.9743415650981837
  outer loop
    vertex 302.6577223491276 -559.5284681313499 101.96913164171973
    vertex 302.6957289028872 -559.7184526718555 102.01370080241924
    vertex 358.95097189089523 -552.4256164484407 101.71294448663555
  endloop
endfacet
facet normal -0.023805512561753808 0.22381200167482987 0.9743415650981837
  outer loop
    vertex 358.4507514937628 -556.2506324801636 102.57935162945871
    vertex 358.95097189089523 -552.4256164484407 101.71294448663555
    vertex 302.6957289028872 -559.7184526718555 102.01370080241924
  endloop
endfacet
facet normal -0.9365669630492113 -0.35048869272028965 6.903928012034849e-13
  outer loop
    vertex 339.8616478758757 -574.496471032002 100.00000000104427
    vertex 339.8616478758757 -574.4964710320011 100.50000000104416
    vertex 334.99801684713026 -561.4999999999985 100.00000000101842
  endloop
endfacet
facet normal -0.9365669630492113 -0.35048869272028965 6.903928012034849e-13
  outer loop
    vertex 334.99801684713026 -561.4999999999976 100.50000000101839
    vertex 334.99801684713026 -561.4999999999985 100.00000000101842
    vertex 339.8616478758757 -574.4964710320011 100.50000000104416
  endloop
endfacet
facet normal -0.08268073383820963 0.3939701868729632 0.915396847333034
  outer loop
    vertex 337.5581745079836 -565.4966681845269 104.22075045028872
    vertex 338.6208845427684 -567.5781635965478 105.21257468982779
    vertex 357.7163403172819 -560.4079477086808 103.85138910077866
  endloop
endfacet
facet normal -0.08268073383820963 0.3939701868729632 0.915396847333034
  outer loop
    vertex 356.8501799528142 -564.0755450948249 105.35162285954593
    vertex 357.7163403172819 -560.4079477086808 103.85138910077866
    vertex 338.6208845427684 -567.5781635965478 105.21257468982779
  endloop
endfacet
facet normal 0.3542437442893806 0.9351531263016983 -1.841607534180309e-12
  outer loop
    vertex 326.65304269260105 -509.49999999998147 108.62492596023213
    vertex 336.931222690034 -513.3934596531301 108.19666846034693
    vertex 326.6530426926007 -509.4999999999982 100.00000000091597
  endloop
endfacet
facet normal 0.3542437442893806 0.9351531263016983 -1.841607534180309e-12
  outer loop
    vertex 338.81222953057215 -514.1060006130003 100.50000000092506
    vertex 326.6530426926007 -509.4999999999982 100.00000000091597
    vertex 336.931222690034 -513.3934596531301 108.19666846034693
  endloop
endfacet
facet normal 0.3542437442893806 0.9351531263016983 -1.841607534180309e-12
  outer loop
    vertex 338.81222953057215 -514.106000613001 100.00000000092498
    vertex 326.6530426926007 -509.4999999999982 100.00000000091597
    vertex 338.81222953057215 -514.1060006130003 100.50000000092506
  endloop
endfacet
facet normal -0.12414942994570333 -0.4728715868729438 0.8723413216009094
  outer loop
    vertex 309.0748037008327 -509.49999999998477 106.82798159730716
    vertex 335.8503224045038 -517.9507404431686 106.05769863189025
    vertex 311.18350827365293 -509.49999999998437 107.12808714562539
  endloop
endfacet
facet normal -0.12414942994570333 -0.4728715868729438 0.8723413216009094
  outer loop
    vertex 336.26397701201887 -515.9683384536723 107.19117303442816
    vertex 311.18350827365293 -509.49999999998437 107.12808714562539
    vertex 335.8503224045038 -517.9507404431686 106.05769863189025
  endloop
endfacet
facet normal -0.007507460285898678 -0.09540262679067543 0.9954104564658213
  outer loop
    vertex 300.4030297898979 -536.778963392379 101.25176407467889
    vertex 358.95591522587347 -536.664107737934 101.70438237926317
    vertex 301.12736193407085 -529.2784372589299 101.97609621883694
  endloop
endfacet
facet normal -0.007507460285898678 -0.09540262679067543 0.9954104564658213
  outer loop
    vertex 358.95097189089523 -536.5743835515491 101.71294448660446
    vertex 301.12736193407085 -529.2784372589299 101.97609621883694
    vertex 358.95591522587347 -536.664107737934 101.70438237926317
  endloop
endfacet
facet normal -0.09050939412789727 -0.34182003761286783 0.9353967668647024
  outer loop
    vertex 311.18350827365293 -509.49999999998437 107.12808714562539
    vertex 336.26397701201887 -515.9683384536723 107.19117303442816
    vertex 326.65304269260105 -509.49999999998147 108.62492596023213
  endloop
endfacet
facet normal -0.09050939412789727 -0.34182003761286783 0.9353967668647024
  outer loop
    vertex 336.931222690034 -513.3934596531301 108.19666846034693
    vertex 326.65304269260105 -509.49999999998147 108.62492596023213
    vertex 336.26397701201887 -515.9683384536723 107.19117303442816
  endloop
endfacet
facet normal 0.8217325272618982 -0.5698733663190216 1.0237182147338689e-12
  outer loop
    vertex 334.3045145852472 -562.4999999999983 100.00000000102058
    vertex 334.99801684713026 -561.4999999999985 100.00000000101842
    vertex 334.3045145852472 -562.4999999999975 100.50000000102055
  endloop
endfacet
facet normal 0.8217325272618982 -0.5698733663190216 1.0237182147338689e-12
  outer loop
    vertex 334.99801684713026 -561.4999999999976 100.50000000101839
    vertex 334.3045145852472 -562.4999999999975 100.50000000102055
    vertex 334.99801684713026 -561.4999999999985 100.00000000101842
  endloop
endfacet
facet normal -0.06152646671392601 0.2822066942340831 0.9573786479879164
  outer loop
    vertex 338.6208845427684 -567.5781635965478 105.21257468982779
    vertex 339.6780478207381 -569.8411741285307 105.94758193482917
    vertex 356.8501799528142 -564.0755450948249 105.35162285954593
  endloop
endfacet
facet normal -0.06152646671392601 0.2822066942340831 0.9573786479879164
  outer loop
    vertex 356.7903260740337 -564.4402919454245 105.45529281862466
    vertex 356.8501799528142 -564.0755450948249 105.35162285954593
    vertex 339.6780478207381 -569.8411741285307 105.94758193482917
  endloop
endfacet
facet normal -0.04902693893006406 -0.3104927569297184 0.9493105957237233
  outer loop
    vertex 302.33134137585165 -521.973761021294 103.18007566060359
    vertex 318.57704477776355 -525.0489632018225 103.01326945902915
    vertex 302.38659316213324 -521.8135567038412 103.23532744688521
  endloop
endfacet
facet normal -0.04902693893006406 -0.3104927569297184 0.9493105957237233
  outer loop
    vertex 325.7921551890848 -524.7837472716393 103.47263692508109
    vertex 302.38659316213324 -521.8135567038412 103.23532744688521
    vertex 318.57704477776355 -525.0489632018225 103.01326945902915
  endloop
endfacet
facet normal -0.007394119245393388 0.13505572143713437 0.9908104153205498
  outer loop
    vertex 301.17632451667686 -552.1233587840453 101.24422063815162
    vertex 301.1961762822222 -552.2225924209388 101.25789515805336
    vertex 359.25967992354384 -548.4593664367801 101.17824648937552
  endloop
endfacet
facet normal -0.007394119245393388 0.13505572143713437 0.9908104153205498
  outer loop
    vertex 358.95591522587347 -552.3358922620555 101.70438237929407
    vertex 359.25967992354384 -548.4593664367801 101.17824648937552
    vertex 301.1961762822222 -552.2225924209388 101.25789515805336
  endloop
endfacet
facet normal -0.03791974880024471 0.22095000825177605 0.9745476830327322
  outer loop
    vertex 336.3923236392819 -562.8710801445108 103.58011225263382
    vertex 337.5581745079836 -565.4966681845269 104.22075045028872
    vertex 357.7479512247006 -560.1610284247279 103.79663740305521
  endloop
endfacet
facet normal -0.03791974880024471 0.22095000825177605 0.9745476830327322
  outer loop
    vertex 357.7163403172819 -560.4079477086808 103.85138910077866
    vertex 357.7479512247006 -560.1610284247279 103.79663740305521
    vertex 337.5581745079836 -565.4966681845269 104.22075045028872
  endloop
endfacet
facet normal 0.8201375933504683 0.5721663464179818 -1.0284029558075705e-12
  outer loop
    vertex 334.95047495803107 -527.4999999999983 100.00000000095145
    vertex 334.601651570921 -526.9999999999984 100.00000000095051
    vertex 334.95047495803107 -527.4999999999976 100.50000000095142
  endloop
endfacet
facet normal 0.8201375933504683 0.5721663464179818 -1.0284029558075705e-12
  outer loop
    vertex 334.2528281838105 -526.4999999999976 100.50000000094944
    vertex 334.95047495803107 -527.4999999999976 100.50000000095142
    vertex 334.601651570921 -526.9999999999984 100.00000000095051
  endloop
endfacet
facet normal 0.8201375933504683 0.5721663464179818 -1.0284029558075705e-12
  outer loop
    vertex 334.2528281838105 -526.4999999999984 100.00000000094947
    vertex 334.2528281838105 -526.4999999999976 100.50000000094944
    vertex 334.601651570921 -526.9999999999984 100.00000000095051
  endloop
endfacet
facet normal -3.965794769571335e-17 -0.045142462110602063 0.9989805594277563
  outer loop
    vertex 359.26060509997785 -540.5909540721038 101.17664403677037
    vertex 312.0000068052887 -543.6901974326815 101.03659378788824
    vertex 359.3414631488737 -543.6901974326815 101.03659378788824
  endloop
endfacet
facet normal -0.02380551256175471 -0.223812001670993 0.9743415650990651
  outer loop
    vertex 301.12736193407085 -529.2784372589299 101.97609621883694
    vertex 358.95097189089523 -536.5743835515491 101.71294448660446
    vertex 301.14927731908256 -529.1853619841304 101.99801160384882
  endloop
endfacet
facet normal -0.02380551256175471 -0.223812001670993 0.9743415650990651
  outer loop
    vertex 358.4507514937628 -532.7493675198228 102.57935162941268
    vertex 301.14927731908256 -529.1853619841304 101.99801160384882
    vertex 358.95097189089523 -536.5743835515491 101.71294448660446
  endloop
endfacet
facet normal 0.9385102606946583 -0.34525134405363983 6.80372491256204e-13
  outer loop
    vertex 334.2528281838105 -526.4999999999984 100.00000000094947
    vertex 338.81222953057215 -514.106000613001 100.00000000092498
    vertex 334.2528281838105 -526.4999999999976 100.50000000094944
  endloop
endfacet
facet normal 0.9385102606946583 -0.34525134405363983 6.80372491256204e-13
  outer loop
    vertex 338.81222953057215 -514.1060006130003 100.50000000092506
    vertex 334.2528281838105 -526.4999999999976 100.50000000094944
    vertex 338.81222953057215 -514.106000613001 100.00000000092498
  endloop
endfacet
facet normal -0.9385102606946549 0.3452513440536487 -6.201235910662254e-13
  outer loop
    vertex 334.95047495803107 -527.4999999999983 100.00000000095145
    vertex 334.95047495803107 -527.4999999999976 100.50000000095142
    vertex 339.2929108236103 -515.6957863844787 100.00000000092817
  endloop
endfacet
facet normal -0.9385102606946549 0.3452513440536487 -6.201235910662254e-13
  outer loop
    vertex 339.2929108236103 -515.6957863844777 100.50000000092832
    vertex 339.2929108236103 -515.6957863844787 100.00000000092817
    vertex 334.95047495803107 -527.4999999999976 100.50000000095142
  endloop
endfacet
facet normal -7.735263065401912e-17 0.045142462114536416 0.9989805594275785
  outer loop
    vertex 312.0000068052891 -545.3098025673112 101.03659378789123
    vertex 359.26060509997825 -548.4090459278881 101.17664403678592
    vertex 359.341463148874 -545.3098025673112 101.03659378789123
  endloop
endfacet
facet normal -0.007507460285898534 0.09540262679459961 0.9954104564654453
  outer loop
    vertex 301.1961762822222 -552.2225924209388 101.25789515805336
    vertex 302.6577223491276 -559.5284681313499 101.96913164171973
    vertex 358.95591522587347 -552.3358922620555 101.70438237929407
  endloop
endfacet
facet normal -0.007507460285898534 0.09540262679459961 0.9954104564654453
  outer loop
    vertex 358.95097189089523 -552.4256164484407 101.71294448663555
    vertex 358.95591522587347 -552.3358922620555 101.70438237929407
    vertex 302.6577223491276 -559.5284681313499 101.96913164171973
  endloop
endfacet
facet normal -0.12414942994570106 0.4728715868763718 0.8723413215990513
  outer loop
    vertex 339.6780478207381 -569.8411741285307 105.94758193482917
    vertex 340.01305006385314 -570.4483054943298 106.32436737621906
    vertex 356.7903260740337 -564.4402919454245 105.45529281862466
  endloop
endfacet
facet normal -0.12414942994570106 0.4728715868763718 0.8723413215990513
  outer loop
    vertex 340.7938629354724 -571.863388512201 107.20256723464604
    vertex 356.7903260740337 -564.4402919454245 105.45529281862466
    vertex 340.01305006385314 -570.4483054943298 106.32436737621906
  endloop
endfacet
facet normal -0.12414942994570106 0.4728715868763718 0.8723413215990513
  outer loop
    vertex 355.7598027055863 -568.0036215867719 107.24021165116925
    vertex 356.7903260740337 -564.4402919454245 105.45529281862466
    vertex 340.7938629354724 -571.863388512201 107.20256723464604
  endloop
endfacet
facet normal -0.04902693893006213 0.3104927569334432 0.9493105957225052
  outer loop
    vertex 335.3936359199949 -560.7677694153817 102.84060154669417
    vertex 336.3923236392819 -562.8710801445108 103.58011225263382
    vertex 358.43651851741964 -556.4059070166813 102.60400386762852
  endloop
endfacet
facet normal -0.04902693893006213 0.3104927569334432 0.9493105957225052
  outer loop
    vertex 357.7479512247006 -560.1610284247279 103.79663740305521
    vertex 358.43651851741964 -556.4059070166813 102.60400386762852
    vertex 336.3923236392819 -562.8710801445108 103.58011225263382
  endloop
endfacet
facet normal -0.00739411924539357 -0.13505572143322836 0.9908104153210823
  outer loop
    vertex 300.3963722643822 -536.8274405617547 101.2451065491636
    vertex 359.25967992354384 -540.5406335632124 101.17824648936006
    vertex 300.4030297898979 -536.778963392379 101.25176407467889
  endloop
endfacet
facet normal -0.00739411924539357 -0.13505572143322836 0.9908104153210823
  outer loop
    vertex 358.95591522587347 -536.664107737934 101.70438237926317
    vertex 300.4030297898979 -536.778963392379 101.25176407467889
    vertex 359.25967992354384 -540.5406335632124 101.17824648936006
  endloop
endfacet
facet normal -3.89252306369987e-17 -0.866025403783444 0.5000000000017228
  outer loop
    vertex 359.3414631488737 -543.6901974326815 101.03659378788824
    vertex 312.0000068052887 -543.6901974326815 101.03659378788824
    vertex 359.6512657161887 -543.9999999999976 100.50000000098396
  endloop
endfacet
facet normal -3.89252306369987e-17 -0.866025403783444 0.5000000000017228
  outer loop
    vertex 300.1773329693956 -543.6962749297451 101.02606725419031
    vertex 359.6512657161887 -543.9999999999976 100.50000000098396
    vertex 312.0000068052887 -543.6901974326815 101.03659378788824
  endloop
endfacet
facet normal -3.89252306369987e-17 -0.866025403783444 0.5000000000017228
  outer loop
    vertex 299.65126571618856 -543.9999999999976 100.50000000098396
    vertex 359.6512657161887 -543.9999999999976 100.50000000098396
    vertex 300.1773329693956 -543.6962749297451 101.02606725419031
  endloop
endfacet
facet normal 0.0 1.9698374875698473e-12 1.0
  outer loop
    vertex 299.65126571618856 -543.9999999999976 100.50000000098396
    vertex 299.65126571618856 -544.4999999999977 100.50000000098491
    vertex 359.6512657161887 -543.9999999999976 100.50000000098396
  endloop
endfacet
facet normal 0.0 1.9698374875698473e-12 1.0
  outer loop
    vertex 299.75129110156615 -544.9999999999975 100.50000000098595
    vertex 359.6512657161887 -543.9999999999976 100.50000000098396
    vertex 299.65126571618856 -544.4999999999977 100.50000000098491
  endloop
endfacet
facet normal 0.0 1.9698374875698473e-12 1.0
  outer loop
    vertex 359.6512657161887 -544.9999999999975 100.50000000098595
    vertex 359.6512657161887 -543.9999999999976 100.50000000098396
    vertex 299.75129110156615 -544.9999999999975 100.50000000098595
  endloop
endfacet
facet normal 1.0 8.051718936275976e-15 -2.1335273828501e-13
  outer loop
    vertex 359.6512657161887 -566.9999999999984 100.00000000102942
    vertex 359.6512657161883 -521.9999999999982 100.00000000094063
    vertex 359.6512657161887 -566.9999999999975 100.50000000102939
  endloop
endfacet
facet normal 1.0 8.051718936275976e-15 -2.1335273828501e-13
  outer loop
    vertex 359.6512657161887 -545.4999999999977 100.50000000098706
    vertex 359.6512657161887 -566.9999999999975 100.50000000102939
    vertex 359.6512657161883 -521.9999999999982 100.00000000094063
  endloop
endfacet
facet normal 1.0 8.051718936275976e-15 -2.1335273828501e-13
  outer loop
    vertex 359.6512657161887 -544.9999999999975 100.50000000098595
    vertex 359.6512657161887 -545.4999999999977 100.50000000098706
    vertex 359.6512657161883 -521.9999999999982 100.00000000094063
  endloop
endfacet
facet normal 1.0 8.051718936275976e-15 -2.1335273828501e-13
  outer loop
    vertex 359.6512657161887 -543.9999999999976 100.50000000098396
    vertex 359.6512657161887 -544.9999999999975 100.50000000098595
    vertex 359.6512657161883 -521.9999999999982 100.00000000094063
  endloop
endfacet
facet normal 1.0 8.051718936275976e-15 -2.1335273828501e-13
  outer loop
    vertex 359.6512657161883 -521.9999999999973 100.5000000009406
    vertex 359.6512657161887 -543.9999999999976 100.50000000098396
    vertex 359.6512657161883 -521.9999999999982 100.00000000094063
  endloop
endfacet
facet normal -1.0084768558284986e-17 1.9698339706890503e-12 1.0
  outer loop
    vertex 299.65126571618856 -526.4999999999976 100.50000000094944
    vertex 299.65126571618856 -527.4999999999976 100.50000000095142
    vertex 334.2528281838105 -526.4999999999976 100.50000000094944
  endloop
endfacet
facet normal -1.0084768558284986e-17 1.9698339706890503e-12 1.0
  outer loop
    vertex 334.95047495803107 -527.4999999999976 100.50000000095142
    vertex 334.2528281838105 -526.4999999999976 100.50000000094944
    vertex 299.65126571618856 -527.4999999999976 100.50000000095142
  endloop
endfacet
facet normal -0.0905093941278894 -0.34182003761283114 0.9353967668647167
  outer loop
    vertex 339.2929108236103 -514.2880866652769 108.09826478811554
    vertex 339.2929108236103 -516.7495108173775 107.19879183069644
    vertex 357.2933675969363 -521.1068086766331 107.34824575590785
  endloop
endfacet
facet normal -0.0905093941278894 -0.34182003761283114 0.9353967668647167
  outer loop
    vertex 357.1883435433014 -521.36480396894 107.24380491599419
    vertex 357.2933675969363 -521.1068086766331 107.34824575590785
    vertex 339.2929108236103 -516.7495108173775 107.19879183069644
  endloop
endfacet
facet normal -9.71395779503137e-15 1.0 -1.9669174311467056e-12
  outer loop
    vertex 326.65304269260105 -509.49999999998147 108.62492596023213
    vertex 326.6530426926007 -509.4999999999982 100.00000000091597
    vertex 311.18350827365293 -509.49999999998437 107.12808714562539
  endloop
endfacet
facet normal -9.71395779503137e-15 1.0 -1.9669174311467056e-12
  outer loop
    vertex 309.0748037008327 -509.49999999998477 106.82798159730716
    vertex 311.18350827365293 -509.49999999998437 107.12808714562539
    vertex 326.6530426926007 -509.4999999999982 100.00000000091597
  endloop
endfacet
facet normal -9.71395779503137e-15 1.0 -1.9669174311467056e-12
  outer loop
    vertex 305.76664678420696 -509.49999999998545 106.61538106893434
    vertex 309.0748037008327 -509.49999999998477 106.82798159730716
    vertex 326.6530426926007 -509.4999999999982 100.00000000091597
  endloop
endfacet
facet normal -9.71395779503137e-15 1.0 -1.9669174311467056e-12
  outer loop
    vertex 299.65126571618856 -509.4999999999977 100.50000000091596
    vertex 305.76664678420696 -509.49999999998545 106.61538106893434
    vertex 326.6530426926007 -509.4999999999982 100.00000000091597
  endloop
endfacet
facet normal -9.71395779503137e-15 1.0 -1.9669174311467056e-12
  outer loop
    vertex 299.65126571618856 -509.49999999999847 100.00000000091589
    vertex 299.65126571618856 -509.4999999999977 100.50000000091596
    vertex 326.6530426926007 -509.4999999999982 100.00000000091597
  endloop
endfacet
facet normal -3.2997336926333837e-16 -0.8660254037834508 0.5000000000017112
  outer loop
    vertex 335.1552649211714 -560.2037271111674 102.74521050493638
    vertex 302.8615365794449 -560.5472806535334 102.15015831444099
    vertex 334.99801684713026 -561.4999999999976 100.50000000101839
  endloop
endfacet
facet normal -3.2997336926333837e-16 -0.8660254037834508 0.5000000000017112
  outer loop
    vertex 303.0521288190171 -561.4999999999976 100.50000000101839
    vertex 334.99801684713026 -561.4999999999976 100.50000000101839
    vertex 302.8615365794449 -560.5472806535334 102.15015831444099
  endloop
endfacet
facet normal 0.9080171279327204 -0.3340337841484966 0.2528365607032525
  outer loop
    vertex 334.2528281838105 -526.4999999999976 100.50000000094944
    vertex 338.81222953057215 -514.1060006130003 100.50000000092506
    vertex 334.0320915844107 -524.5707596161542 103.84154236576487
  endloop
endfacet
facet normal 0.9080171279327204 -0.3340337841484966 0.2528365607032525
  outer loop
    vertex 334.580507835645 -522.7516506600781 104.27531072075982
    vertex 334.0320915844107 -524.5707596161542 103.84154236576487
    vertex 338.81222953057215 -514.1060006130003 100.50000000092506
  endloop
endfacet
facet normal 0.9080171279327204 -0.3340337841484966 0.2528365607032525
  outer loop
    vertex 335.0674459952236 -520.739070595897 105.18547001480694
    vertex 334.580507835645 -522.7516506600781 104.27531072075982
    vertex 338.81222953057215 -514.1060006130003 100.50000000092506
  endloop
endfacet
facet normal 0.9080171279327204 -0.3340337841484966 0.2528365607032525
  outer loop
    vertex 335.8503224045038 -517.9507404431686 106.05769863189025
    vertex 335.0674459952236 -520.739070595897 105.18547001480694
    vertex 338.81222953057215 -514.1060006130003 100.50000000092506
  endloop
endfacet
facet normal 0.9080171279327204 -0.3340337841484966 0.2528365607032525
  outer loop
    vertex 336.26397701201887 -515.9683384536723 107.19117303442816
    vertex 335.8503224045038 -517.9507404431686 106.05769863189025
    vertex 338.81222953057215 -514.1060006130003 100.50000000092506
  endloop
endfacet
facet normal 0.9080171279327204 -0.3340337841484966 0.2528365607032525
  outer loop
    vertex 336.931222690034 -513.3934596531301 108.19666846034693
    vertex 336.26397701201887 -515.9683384536723 107.19117303442816
    vertex 338.81222953057215 -514.1060006130003 100.50000000092506
  endloop
endfacet
facet normal -0.03791974880024399 0.22095000825177596 0.9745476830327322
  outer loop
    vertex 304.14506447978954 -566.9632914267092 103.25315662408707
    vertex 305.4720392056411 -573.5964811957124 104.8086699241114
    vertex 325.79215518908404 -564.2162527283438 103.4726369251586
  endloop
endfacet
facet normal -0.03791974880024399 0.22095000825177596 0.9745476830327322
  outer loop
    vertex 334.62332222897646 -566.2375412891059 104.2745262257557
    vertex 325.79215518908404 -564.2162527283438 103.4726369251586
    vertex 305.4720392056411 -573.5964811957124 104.8086699241114
  endloop
endfacet
facet normal -0.03791974880024399 0.22095000825177596 0.9745476830327322
  outer loop
    vertex 334.0703625845672 -564.4302296209048 103.84325577472195
    vertex 325.79215518908404 -564.2162527283438 103.4726369251586
    vertex 334.62332222897646 -566.2375412891059 104.2745262257557
  endloop
endfacet
facet normal -0.7071067811865368 1.3911878015344544e-12 0.7071067811865585
  outer loop
    vertex 299.65126571618856 -527.4999999999976 100.50000000095142
    vertex 299.65126571618856 -527.9999999999977 100.50000000095245
    vertex 301.2721373683725 -528.4358106847043 102.12087165313741
  endloop
endfacet
facet normal -0.7071067811865368 1.3911878015344544e-12 0.7071067811865585
  outer loop
    vertex 301.12736193407085 -529.2784372589299 101.97609621883694
    vertex 301.2721373683725 -528.4358106847043 102.12087165313741
    vertex 299.65126571618856 -527.9999999999977 100.50000000095245
  endloop
endfacet
facet normal -0.7071067811865368 1.3911878015344544e-12 0.7071067811865585
  outer loop
    vertex 299.65126571618856 -543.9999999999976 100.50000000098396
    vertex 301.12736193407085 -529.2784372589299 101.97609621883694
    vertex 299.65126571618856 -527.9999999999977 100.50000000095245
  endloop
endfacet
facet normal -0.7071067811865368 1.3911878015344544e-12 0.7071067811865585
  outer loop
    vertex 300.3963722643822 -536.8274405617547 101.2451065491636
    vertex 301.12736193407085 -529.2784372589299 101.97609621883694
    vertex 299.65126571618856 -543.9999999999976 100.50000000098396
  endloop
endfacet
facet normal -0.7071067811865368 1.3911878015344544e-12 0.7071067811865585
  outer loop
    vertex 300.1773329693956 -543.6962749297451 101.02606725419031
    vertex 300.3963722643822 -536.8274405617547 101.2451065491636
    vertex 299.65126571618856 -543.9999999999976 100.50000000098396
  endloop
endfacet
facet normal -0.7071067811865368 1.3911878015344544e-12 0.7071067811865585
  outer loop
    vertex 300.4030297898979 -536.778963392379 101.25176407467889
    vertex 301.12736193407085 -529.2784372589299 101.97609621883694
    vertex 300.3963722643822 -536.8274405617547 101.2451065491636
  endloop
endfacet
facet normal -0.7071067811865368 1.3911878015344544e-12 0.7071067811865585
  outer loop
    vertex 301.14927731908256 -529.1853619841304 101.99801160384882
    vertex 301.2721373683725 -528.4358106847043 102.12087165313741
    vertex 301.12736193407085 -529.2784372589299 101.97609621883694
  endloop
endfacet
facet normal -0.7071067811865472 1.3952477490352362e-12 0.707106781186548
  outer loop
    vertex 299.65126571618856 -509.4999999999977 100.50000000091596
    vertex 299.65126571618856 -526.4999999999976 100.50000000094944
    vertex 305.76664678420696 -509.49999999998545 106.61538106893434
  endloop
endfacet
facet normal -0.7071067811865472 1.3952477490352362e-12 0.707106781186548
  outer loop
    vertex 303.98714362244726 -515.0286722715906 104.83587790718579
    vertex 305.76664678420696 -509.49999999998545 106.61538106893434
    vertex 299.65126571618856 -526.4999999999976 100.50000000094944
  endloop
endfacet
facet normal -0.7071067811865472 1.3952477490352362e-12 0.707106781186548
  outer loop
    vertex 302.33134137585165 -521.973761021294 103.18007566060359
    vertex 303.98714362244726 -515.0286722715906 104.83587790718579
    vertex 299.65126571618856 -526.4999999999976 100.50000000094944
  endloop
endfacet
facet normal -0.7071067811865472 1.3952477490352362e-12 0.707106781186548
  outer loop
    vertex 301.79202857993266 -525.2640299843395 102.64076286469115
    vertex 302.33134137585165 -521.973761021294 103.18007566060359
    vertex 299.65126571618856 -526.4999999999976 100.50000000094944
  endloop
endfacet
facet normal -0.7071067811865472 1.3952477490352362e-12 0.707106781186548
  outer loop
    vertex 302.38659316213324 -521.8135567038412 103.23532744688521
    vertex 303.98714362244726 -515.0286722715906 104.83587790718579
    vertex 302.33134137585165 -521.973761021294 103.18007566060359
  endloop
endfacet
facet normal -0.7071067811865472 1.3952477490352362e-12 0.707106781186548
  outer loop
    vertex 304.1005283991148 -514.7890162425242 104.94926268385267
    vertex 305.76664678420696 -509.49999999998545 106.61538106893434
    vertex 303.98714362244726 -515.0286722715906 104.83587790718579
  endloop
endfacet
facet normal -0.0008735463942418586 -0.03184481783041257 0.999492443440192
  outer loop
    vertex 300.1773329693956 -543.6962749297451 101.02606725419031
    vertex 312.0000068052887 -543.6901974326815 101.03659378788824
    vertex 300.3963722643822 -536.8274405617547 101.2451065491636
  endloop
endfacet
facet normal -0.0008735463942418586 -0.03184481783041257 0.999492443440192
  outer loop
    vertex 359.25967992354384 -540.5406335632124 101.17824648936006
    vertex 300.3963722643822 -536.8274405617547 101.2451065491636
    vertex 312.0000068052887 -543.6901974326815 101.03659378788824
  endloop
endfacet
facet normal -0.0008735463942418586 -0.03184481783041257 0.999492443440192
  outer loop
    vertex 359.26060509997785 -540.5909540721038 101.17664403677037
    vertex 359.25967992354384 -540.5406335632124 101.17824648936006
    vertex 312.0000068052887 -543.6901974326815 101.03659378788824
  endloop
endfacet
facet normal 0.9046542176583579 0.33854608012131654 0.25881904510185477
  outer loop
    vertex 336.9985937481646 -575.5810196323996 108.19386133304715
    vertex 338.92648722183606 -574.8507176278598 100.50000000104467
    vertex 336.32544457070975 -573.0158088532032 107.19132764630702
  endloop
endfacet
facet normal 0.9046542176583579 0.33854608012131654 0.25881904510185477
  outer loop
    vertex 334.3045145852472 -562.4999999999975 100.50000000102055
    vertex 336.32544457070975 -573.0158088532032 107.19132764630702
    vertex 338.92648722183606 -574.8507176278598 100.50000000104467
  endloop
endfacet
facet normal 0.9046542176583579 0.33854608012131654 0.25881904510185477
  outer loop
    vertex 335.90754864683623 -571.0311981281594 106.05605233710405
    vertex 336.32544457070975 -573.0158088532032 107.19132764630702
    vertex 334.3045145852472 -562.4999999999975 100.50000000102055
  endloop
endfacet
facet normal 0.9046542176583579 0.33854608012131654 0.25881904510185477
  outer loop
    vertex 335.11629150001613 -568.2515441171024 105.18584259529315
    vertex 335.90754864683623 -571.0311981281594 106.05605233710405
    vertex 334.3045145852472 -562.4999999999975 100.50000000102055
  endloop
endfacet
facet normal 0.9046542176583579 0.33854608012131654 0.25881904510185477
  outer loop
    vertex 334.62332222897646 -566.2375412891059 104.2745262257557
    vertex 335.11629150001613 -568.2515441171024 105.18584259529315
    vertex 334.3045145852472 -562.4999999999975 100.50000000102055
  endloop
endfacet
facet normal 0.9046542176583579 0.33854608012131654 0.25881904510185477
  outer loop
    vertex 334.0703625845672 -564.4302296209048 103.84325577472195
    vertex 334.62332222897646 -566.2375412891059 104.2745262257557
    vertex 334.3045145852472 -562.4999999999975 100.50000000102055
  endloop
endfacet
facet normal 3.3597559469101156e-16 0.8660254037854224 0.4999999999982961
  outer loop
    vertex 335.11588652615643 -528.7958539657711 102.7444849088713
    vertex 334.95047495803107 -527.4999999999976 100.50000000095142
    vertex 301.2721373683725 -528.4358106847043 102.12087165313741
  endloop
endfacet
facet normal 3.3597559469101156e-16 0.8660254037854224 0.4999999999982961
  outer loop
    vertex 299.65126571618856 -527.4999999999976 100.50000000095142
    vertex 301.2721373683725 -528.4358106847043 102.12087165313741
    vertex 334.95047495803107 -527.4999999999976 100.50000000095142
  endloop
endfacet
facet normal 0.35424374428935823 -0.9351531263017067 1.8546166296911865e-12
  outer loop
    vertex 341.7400376051911 -573.7849214555235 107.99630117233434
    vertex 340.013050063853 -574.4391186300605 107.25000000104409
    vertex 355.658090533891 -568.5126478096258 107.41638230029457
  endloop
endfacet
facet normal 0.35424374428935823 -0.9351531263017067 1.8546166296911865e-12
  outer loop
    vertex 359.6512657161887 -566.9999999999975 100.50000000102939
    vertex 355.658090533891 -568.5126478096258 107.41638230029457
    vertex 340.013050063853 -574.4391186300605 107.25000000104409
  endloop
endfacet
facet normal 0.35424374428935823 -0.9351531263017067 1.8546166296911865e-12
  outer loop
    vertex 340.0130500638528 -574.4391186300728 101.10421774210134
    vertex 359.6512657161887 -566.9999999999975 100.50000000102939
    vertex 340.013050063853 -574.4391186300605 107.25000000104409
  endloop
endfacet
facet normal 0.35424374428935823 -0.9351531263017067 1.8546166296911865e-12
  outer loop
    vertex 340.013050063853 -574.4391186300749 100.00000000104393
    vertex 359.6512657161887 -566.9999999999975 100.50000000102939
    vertex 340.0130500638528 -574.4391186300728 101.10421774210134
  endloop
endfacet
facet normal 0.35424374428935823 -0.9351531263017067 1.8546166296911865e-12
  outer loop
    vertex 359.6512657161887 -566.9999999999984 100.00000000102942
    vertex 359.6512657161887 -566.9999999999975 100.50000000102939
    vertex 340.013050063853 -574.4391186300749 100.00000000104393
  endloop
endfacet
facet normal -0.9064072171270463 0.3334415435606373 0.2593119622537754
  outer loop
    vertex 335.11588652615643 -528.7958539657711 102.7444849088713
    vertex 335.3536288316679 -528.2246575123753 102.84101232788548
    vertex 334.95047495803107 -527.4999999999976 100.50000000095142
  endloop
endfacet
facet normal -0.9064072171270463 0.3334415435606373 0.2593119622537754
  outer loop
    vertex 336.3383996954165 -526.1220768499813 103.57956551657755
    vertex 334.95047495803107 -527.4999999999976 100.50000000095142
    vertex 335.3536288316679 -528.2246575123753 102.84101232788548
  endloop
endfacet
facet normal -0.9064072171270463 0.3334415435606373 0.2593119622537754
  outer loop
    vertex 339.2929108236103 -515.6957863844777 100.50000000092832
    vertex 334.95047495803107 -527.4999999999976 100.50000000095142
    vertex 336.3383996954165 -526.1220768499813 103.57956551657755
  endloop
endfacet
facet normal -0.9064072171270463 0.3334415435606373 0.2593119622537754
  outer loop
    vertex 337.4917169337852 -523.4865552881738 104.22196816314293
    vertex 339.2929108236103 -515.6957863844777 100.50000000092832
    vertex 336.3383996954165 -526.1220768499813 103.57956551657755
  endloop
endfacet
facet normal -0.9064072171270463 0.3334415435606373 0.2593119622537754
  outer loop
    vertex 338.5401961590537 -521.4063327528855 105.21195922041538
    vertex 339.2929108236103 -515.6957863844777 100.50000000092832
    vertex 337.4917169337852 -523.4865552881738 104.22196816314293
  endloop
endfacet
facet normal -0.9064072171270463 0.3334415435606373 0.2593119622537754
  outer loop
    vertex 339.2929108236103 -519.7723818200144 105.74197288441327
    vertex 339.2929108236103 -515.6957863844777 100.50000000092832
    vertex 338.5401961590537 -521.4063327528855 105.21195922041538
  endloop
endfacet
facet normal -0.9046542176583482 -0.3385460801202942 0.258819045103225
  outer loop
    vertex 339.8616478758757 -574.4964710320011 100.50000000104416
    vertex 340.0130500638528 -574.4391186300728 101.10421774210134
    vertex 334.99801684713026 -561.4999999999976 100.50000000101839
  endloop
endfacet
facet normal -0.9046542176583482 -0.3385460801202942 0.258819045103225
  outer loop
    vertex 340.01305006385314 -570.4483054943298 106.32436737621906
    vertex 334.99801684713026 -561.4999999999976 100.50000000101839
    vertex 340.0130500638528 -574.4391186300728 101.10421774210134
  endloop
endfacet
facet normal -0.9046542176583482 -0.3385460801202942 0.258819045103225
  outer loop
    vertex 339.6780478207381 -569.8411741285307 105.94758193482917
    vertex 334.99801684713026 -561.4999999999976 100.50000000101839
    vertex 340.01305006385314 -570.4483054943298 106.32436737621906
  endloop
endfacet
facet normal -0.9046542176583482 -0.3385460801202942 0.258819045103225
  outer loop
    vertex 338.6208845427684 -567.5781635965478 105.21257468982779
    vertex 334.99801684713026 -561.4999999999976 100.50000000101839
    vertex 339.6780478207381 -569.8411741285307 105.94758193482917
  endloop
endfacet
facet normal -0.9046542176583482 -0.3385460801202942 0.258819045103225
  outer loop
    vertex 337.5581745079836 -565.4966681845269 104.22075045028872
    vertex 334.99801684713026 -561.4999999999976 100.50000000101839
    vertex 338.6208845427684 -567.5781635965478 105.21257468982779
  endloop
endfacet
facet normal -0.9046542176583482 -0.3385460801202942 0.258819045103225
  outer loop
    vertex 336.3923236392819 -562.8710801445108 103.58011225263382
    vertex 334.99801684713026 -561.4999999999976 100.50000000101839
    vertex 337.5581745079836 -565.4966681845269 104.22075045028872
  endloop
endfacet
facet normal -0.9046542176583482 -0.3385460801202942 0.258819045103225
  outer loop
    vertex 335.3936359199949 -560.7677694153817 102.84060154669417
    vertex 334.99801684713026 -561.4999999999976 100.50000000101839
    vertex 336.3923236392819 -562.8710801445108 103.58011225263382
  endloop
endfacet
facet normal -0.9046542176583482 -0.3385460801202942 0.258819045103225
  outer loop
    vertex 335.1552649211714 -560.2037271111674 102.74521050493638
    vertex 334.99801684713026 -561.4999999999976 100.50000000101839
    vertex 335.3936359199949 -560.7677694153817 102.84060154669417
  endloop
endfacet
facet normal 0.8660254037844505 1.000124295808151e-12 0.4999999999999795
  outer loop
    vertex 359.6512657161887 -543.9999999999976 100.50000000098396
    vertex 359.6512657161883 -521.9999999999973 100.5000000009406
    vertex 359.3414631488737 -543.6901974326815 101.03659378788824
  endloop
endfacet
facet normal 0.8660254037844505 1.000124295808151e-12 0.4999999999999795
  outer loop
    vertex 359.26060509997785 -540.5909540721038 101.17664403677037
    vertex 359.3414631488737 -543.6901974326815 101.03659378788824
    vertex 359.6512657161883 -521.9999999999973 100.5000000009406
  endloop
endfacet
facet normal 0.8660254037844505 1.000124295808151e-12 0.4999999999999795
  outer loop
    vertex 359.25967992354384 -540.5406335632124 101.17824648936006
    vertex 359.26060509997785 -540.5909540721038 101.17664403677037
    vertex 359.6512657161883 -521.9999999999973 100.5000000009406
  endloop
endfacet
facet normal 0.8660254037844505 1.000124295808151e-12 0.4999999999999795
  outer loop
    vertex 358.95591522587347 -536.664107737934 101.70438237926317
    vertex 359.25967992354384 -540.5406335632124 101.17824648936006
    vertex 359.6512657161883 -521.9999999999973 100.5000000009406
  endloop
endfacet
facet normal 0.8660254037844505 1.000124295808151e-12 0.4999999999999795
  outer loop
    vertex 358.95097189089523 -536.5743835515491 101.71294448660446
    vertex 358.95591522587347 -536.664107737934 101.70438237926317
    vertex 359.6512657161883 -521.9999999999973 100.5000000009406
  endloop
endfacet
facet normal 0.8660254037844505 1.000124295808151e-12 0.4999999999999795
  outer loop
    vertex 358.4507514937628 -532.7493675198228 102.57935162941268
    vertex 358.95097189089523 -536.5743835515491 101.71294448660446
    vertex 359.6512657161883 -521.9999999999973 100.5000000009406
  endloop
endfacet
facet normal 0.8660254037844505 1.000124295808151e-12 0.4999999999999795
  outer loop
    vertex 358.4365185174193 -532.5940929833051 102.60400386758164
    vertex 358.4507514937628 -532.7493675198228 102.57935162941268
    vertex 359.6512657161883 -521.9999999999973 100.5000000009406
  endloop
endfacet
facet normal 0.8660254037844505 1.000124295808151e-12 0.4999999999999795
  outer loop
    vertex 357.7479512247003 -528.8389715752542 103.79663740299358
    vertex 358.4365185174193 -532.5940929833051 102.60400386758164
    vertex 359.6512657161883 -521.9999999999973 100.5000000009406
  endloop
endfacet
facet normal 0.8660254037844505 1.000124295808151e-12 0.4999999999999795
  outer loop
    vertex 357.7163403172819 -528.592052291301 103.85138910071599
    vertex 357.7479512247003 -528.8389715752542 103.79663740299358
    vertex 359.6512657161883 -521.9999999999973 100.5000000009406
  endloop
endfacet
facet normal 0.8660254037844505 1.000124295808151e-12 0.4999999999999795
  outer loop
    vertex 356.8501799528142 -524.9244549051502 105.3516228594689
    vertex 357.7163403172819 -528.592052291301 103.85138910071599
    vertex 359.6512657161883 -521.9999999999973 100.5000000009406
  endloop
endfacet
facet normal 0.8660254037844505 1.000124295808151e-12 0.4999999999999795
  outer loop
    vertex 356.7903260740333 -524.5597080545505 105.45529281854574
    vertex 356.8501799528142 -524.9244549051502 105.3516228594689
    vertex 359.6512657161883 -521.9999999999973 100.5000000009406
  endloop
endfacet
facet normal 0.3542437442893458 -0.9351531263017115 1.850773222163446e-12
  outer loop
    vertex 326.65304269260105 -579.4999999999811 108.62492596037019
    vertex 326.6530426926003 -579.4999999999983 100.00000000105406
    vertex 336.9985937481646 -575.5810196323996 108.19386133304715
  endloop
endfacet
facet normal 0.3542437442893458 -0.9351531263017115 1.850773222163446e-12
  outer loop
    vertex 338.92648722183606 -574.8507176278598 100.50000000104467
    vertex 336.9985937481646 -575.5810196323996 108.19386133304715
    vertex 326.6530426926003 -579.4999999999983 100.00000000105406
  endloop
endfacet
facet normal 0.3542437442893458 -0.9351531263017115 1.850773222163446e-12
  outer loop
    vertex 338.92648722183606 -574.8507176278607 100.0000000010447
    vertex 338.92648722183606 -574.8507176278598 100.50000000104467
    vertex 326.6530426926003 -579.4999999999983 100.00000000105406
  endloop
endfacet
facet normal 0.35424374429169325 -0.9351531263008223 1.7922113273429108e-12
  outer loop
    vertex 340.0130500638528 -574.4391186300728 101.10421774210134
    vertex 339.8616478758757 -574.4964710320011 100.50000000104416
    vertex 340.013050063853 -574.4391186300749 100.00000000104393
  endloop
endfacet
facet normal 0.35424374429169325 -0.9351531263008223 1.7922113273429108e-12
  outer loop
    vertex 339.8616478758757 -574.496471032002 100.00000000104427
    vertex 340.013050063853 -574.4391186300749 100.00000000104393
    vertex 339.8616478758757 -574.4964710320011 100.50000000104416
  endloop
endfacet
facet normal 3.0039360006441713e-16 -1.9720067599190914e-12 -1.0
  outer loop
    vertex 299.65126571618856 -544.4999999999984 100.00000000098493
    vertex 299.65126571618856 -509.49999999999847 100.00000000091589
    vertex 306.6530426926009 -579.4999999999983 100.00000000105406
  endloop
endfacet
facet normal 3.0039360006441713e-16 -1.9720067599190914e-12 -1.0
  outer loop
    vertex 326.6530426926007 -509.4999999999982 100.00000000091597
    vertex 306.6530426926009 -579.4999999999983 100.00000000105406
    vertex 299.65126571618856 -509.49999999999847 100.00000000091589
  endloop
endfacet
facet normal 3.0039360006441713e-16 -1.9720067599190914e-12 -1.0
  outer loop
    vertex 326.6530426926003 -579.4999999999983 100.00000000105406
    vertex 306.6530426926009 -579.4999999999983 100.00000000105406
    vertex 326.6530426926007 -509.4999999999982 100.00000000091597
  endloop
endfacet
facet normal 3.0039360006441713e-16 -1.9720067599190914e-12 -1.0
  outer loop
    vertex 334.3045145852472 -562.4999999999983 100.00000000102058
    vertex 326.6530426926003 -579.4999999999983 100.00000000105406
    vertex 326.6530426926007 -509.4999999999982 100.00000000091597
  endloop
endfacet
facet normal 3.0039360006441713e-16 -1.9720067599190914e-12 -1.0
  outer loop
    vertex 338.92648722183606 -574.8507176278607 100.0000000010447
    vertex 326.6530426926003 -579.4999999999983 100.00000000105406
    vertex 334.3045145852472 -562.4999999999983 100.00000000102058
  endloop
endfacet
facet normal 3.0039360006441713e-16 -1.9720067599190914e-12 -1.0
  outer loop
    vertex 334.2528281838105 -526.4999999999984 100.00000000094947
    vertex 334.3045145852472 -562.4999999999983 100.00000000102058
    vertex 326.6530426926007 -509.4999999999982 100.00000000091597
  endloop
endfacet
facet normal 3.0039360006441713e-16 -1.9720067599190914e-12 -1.0
  outer loop
    vertex 334.2528281838105 -526.4999999999984 100.00000000094947
    vertex 334.601651570921 -526.9999999999984 100.00000000095051
    vertex 334.3045145852472 -562.4999999999983 100.00000000102058
  endloop
endfacet
facet normal 3.0039360006441713e-16 -1.9720067599190914e-12 -1.0
  outer loop
    vertex 334.99801684713026 -561.4999999999985 100.00000000101842
    vertex 334.3045145852472 -562.4999999999983 100.00000000102058
    vertex 334.601651570921 -526.9999999999984 100.00000000095051
  endloop
endfacet
facet normal 3.0039360006441713e-16 -1.9720067599190914e-12 -1.0
  outer loop
    vertex 334.95047495803107 -527.4999999999983 100.00000000095145
    vertex 334.99801684713026 -561.4999999999985 100.00000000101842
    vertex 334.601651570921 -526.9999999999984 100.00000000095051
  endloop
endfacet
facet normal 3.0039360006441713e-16 -1.9720067599190914e-12 -1.0
  outer loop
    vertex 339.2929108236103 -515.6957863844787 100.00000000092817
    vertex 334.99801684713026 -561.4999999999985 100.00000000101842
    vertex 334.95047495803107 -527.4999999999983 100.00000000095145
  endloop
endfacet
facet normal 3.0039360006441713e-16 -1.9720067599190914e-12 -1.0
  outer loop
    vertex 339.8616478758757 -574.496471032002 100.00000000104427
    vertex 334.99801684713026 -561.4999999999985 100.00000000101842
    vertex 339.2929108236103 -515.6957863844787 100.00000000092817
  endloop
endfacet
facet normal 3.0039360006441713e-16 -1.9720067599190914e-12 -1.0
  outer loop
    vertex 339.2929108236103 -514.2880866652929 100.00000000092543
    vertex 339.8616478758757 -574.496471032002 100.00000000104427
    vertex 339.2929108236103 -515.6957863844787 100.00000000092817
  endloop
endfacet
facet normal 3.0039360006441713e-16 -1.9720067599190914e-12 -1.0
  outer loop
    vertex 359.6512657161883 -521.9999999999982 100.00000000094063
    vertex 339.8616478758757 -574.496471032002 100.00000000104427
    vertex 339.2929108236103 -514.2880866652929 100.00000000092543
  endloop
endfacet
facet normal 3.0039360006441713e-16 -1.9720067599190914e-12 -1.0
  outer loop
    vertex 340.013050063853 -574.4391186300749 100.00000000104393
    vertex 339.8616478758757 -574.496471032002 100.00000000104427
    vertex 359.6512657161883 -521.9999999999982 100.00000000094063
  endloop
endfacet
facet normal 3.0039360006441713e-16 -1.9720067599190914e-12 -1.0
  outer loop
    vertex 359.6512657161887 -566.9999999999984 100.00000000102942
    vertex 340.013050063853 -574.4391186300749 100.00000000104393
    vertex 359.6512657161883 -521.9999999999982 100.00000000094063
  endloop
endfacet
facet normal 3.0039360006441713e-16 -1.9720067599190914e-12 -1.0
  outer loop
    vertex 334.2528281838105 -526.4999999999984 100.00000000094947
    vertex 326.6530426926007 -509.4999999999982 100.00000000091597
    vertex 338.81222953057215 -514.106000613001 100.00000000092498
  endloop
endfacet
facet normal 4.747142925069689e-15 -1.0 1.9633015670839704e-12
  outer loop
    vertex 326.65304269260105 -579.4999999999811 108.62492596037019
    vertex 311.18350827365185 -579.4999999999845 107.12808714576353
    vertex 326.6530426926003 -579.4999999999983 100.00000000105406
  endloop
endfacet
facet normal 4.747142925069689e-15 -1.0 1.9633015670839704e-12
  outer loop
    vertex 309.07480370083164 -579.4999999999847 106.82798159744513
    vertex 326.6530426926003 -579.4999999999983 100.00000000105406
    vertex 311.18350827365185 -579.4999999999845 107.12808714576353
  endloop
endfacet
facet normal 4.747142925069689e-15 -1.0 1.9633015670839704e-12
  outer loop
    vertex 306.6530426926013 -579.4999999999853 106.67234579088631
    vertex 326.6530426926003 -579.4999999999983 100.00000000105406
    vertex 309.07480370083164 -579.4999999999847 106.82798159744513
  endloop
endfacet
facet normal 4.747142925069689e-15 -1.0 1.9633015670839704e-12
  outer loop
    vertex 306.6530426926009 -579.4999999999983 100.00000000105406
    vertex 326.6530426926003 -579.4999999999983 100.00000000105406
    vertex 306.6530426926013 -579.4999999999853 106.67234579088631
  endloop
endfacet
endsolid ProtoGlove baseplate
