solid ProtoGlove
facet normal 0.7071067811865452 -0.7071067811865499 5.75882146201297e-16
  outer loop
    vertex -31.051150928144473 21.131830999999853 0.34898575180951924
    vertex -32.05115092814447 20.131830999999863 -0.15101424819047563
    vertex -31.051150928144473 21.131830999999845 -0.15101424819047704
  endloop
endfacet
facet normal 0.7071067811865452 -0.7071067811865499 5.75882146201297e-16
  outer loop
    vertex -32.05115092814447 20.131830999999863 -0.15101424819047563
    vertex -31.051150928144473 21.131830999999853 0.34898575180951924
    vertex -32.05115092814447 20.13183099999986 1.7239857518095152
  endloop
endfacet
facet normal 0.7071067811865452 -0.7071067811865499 5.75882146201297e-16
  outer loop
    vertex -32.05115092814447 20.13183099999986 1.7239857518095152
    vertex -31.051150928144473 21.131830999999853 0.34898575180951924
    vertex -31.55115092814447 20.631830999999856 1.3489857518095216
  endloop
endfacet
facet normal 0.7071067811865452 -0.7071067811865499 5.75882146201297e-16
  outer loop
    vertex -32.05115092814447 20.13183099999986 1.7239857518095152
    vertex -31.55115092814447 20.631830999999856 1.3489857518095216
    vertex -31.051150928144484 21.131830999999845 2.0989857518095034
  endloop
endfacet
facet normal 3.795337600373129e-15 -1.0 2.59792187762289e-15
  outer loop
    vertex -29.636937365771352 21.131830999999856 0.34898575180951924
    vertex -31.051150928144473 21.131830999999845 -0.15101424819047704
    vertex -29.636937365771352 21.131830999999853 -0.15101424819047704
  endloop
endfacet
facet normal 3.795337600373129e-15 -1.0 2.59792187762289e-15
  outer loop
    vertex -31.051150928144473 21.131830999999845 -0.15101424819047704
    vertex -29.636937365771352 21.131830999999856 0.34898575180951924
    vertex -31.051150928144473 21.131830999999853 0.34898575180951924
  endloop
endfacet
facet normal 3.2654470844656015e-15 -0.8944271909999209 -0.447213595499948
  outer loop
    vertex -34.13693736577137 20.631830999999853 1.3489857518095187
    vertex -45.344044146957714 21.131830999999796 0.34898575180951497
    vertex -34.63693736577135 21.131830999999835 0.34898575180951075
  endloop
endfacet
facet normal 3.2654470844656015e-15 -0.8944271909999209 -0.447213595499948
  outer loop
    vertex -45.344044146957714 21.131830999999796 0.34898575180951497
    vertex -34.13693736577137 20.631830999999853 1.3489857518095187
    vertex -45.344044146957714 20.631830999999806 1.3489857518095145
  endloop
endfacet
facet normal -3.433851177599968e-15 0.8320502943378429 0.5547001962252305
  outer loop
    vertex -31.551150928144438 11.131830999999853 1.3489857518095203
    vertex -29.636937365771328 10.631830999999865 2.0989857518095003
    vertex -29.136937365771328 11.131830999999853 1.3489857518095187
  endloop
endfacet
facet normal -3.433851177599968e-15 0.8320502943378429 0.5547001962252305
  outer loop
    vertex -29.636937365771328 10.631830999999865 2.0989857518095003
    vertex -31.551150928144438 11.131830999999853 1.3489857518095203
    vertex -31.051150928144438 10.631830999999853 2.0989857518094976
  endloop
endfacet
facet normal -6.446239602602979e-15 0.8320502943378417 0.5547001962252319
  outer loop
    vertex -45.34404414695768 10.631830999999785 2.0989857518095003
    vertex -34.13693736577133 11.13183099999983 1.348985751809516
    vertex -45.34404414695769 11.131830999999785 1.3489857518095145
  endloop
endfacet
facet normal -6.446239602602979e-15 0.8320502943378417 0.5547001962252319
  outer loop
    vertex -34.13693736577133 11.13183099999983 1.348985751809516
    vertex -45.34404414695768 10.631830999999785 2.0989857518095003
    vertex -34.63693736577132 10.631830999999842 2.0989857518095034
  endloop
endfacet
facet normal 3.795337600373131e-15 -1.0 -5.980401359314176e-16
  outer loop
    vertex -32.05115092814447 20.13183099999986 1.7239857518095152
    vertex -33.63693736577137 20.13183099999986 -0.15101424819047563
    vertex -32.05115092814447 20.131830999999863 -0.15101424819047563
  endloop
endfacet
facet normal 3.795337600373131e-15 -1.0 -5.980401359314176e-16
  outer loop
    vertex -33.63693736577137 20.13183099999986 -0.15101424819047563
    vertex -32.05115092814447 20.13183099999986 1.7239857518095152
    vertex -33.63693736577137 20.131830999999853 1.7239857518095152
  endloop
endfacet
facet normal -1.0 -3.795337600373131e-15 -1.141604309112493e-16
  outer loop
    vertex -45.34404414695769 11.131830999999785 1.3489857518095145
    vertex -45.34404414695768 10.631830999999798 0.3489857518095136
    vertex -45.34404414695768 10.631830999999785 2.0989857518095003
  endloop
endfacet
facet normal -1.0 -3.795337600373131e-15 -1.141604309112493e-16
  outer loop
    vertex -45.344044146957714 21.1318309999998 2.0989857518094976
    vertex -45.344044146957714 21.131830999999796 0.34898575180951497
    vertex -45.344044146957714 20.631830999999806 1.3489857518095145
  endloop
endfacet
facet normal -1.0 -3.795337600373131e-15 -1.141604309112493e-16
  outer loop
    vertex -45.344044146957714 21.131830999999796 0.34898575180951497
    vertex -45.344044146957714 21.1318309999998 2.0989857518094976
    vertex -45.344044146957714 21.131830999999796 -0.15101424819048126
  endloop
endfacet
facet normal -1.0 -3.795337600373131e-15 -1.141604309112493e-16
  outer loop
    vertex -45.34404414695768 9.631830999999742 -1.151014248190488
    vertex -45.34404414695768 10.631830999999798 -0.15101424819048268
    vertex -45.34404414695773 22.13183099999983 -1.1510142481904992
  endloop
endfacet
facet normal -1.0 -3.795337600373131e-15 -1.141604309112493e-16
  outer loop
    vertex -45.34404414695768 10.631830999999798 -0.15101424819048268
    vertex -45.34404414695768 9.631830999999742 -1.151014248190488
    vertex -45.34404414695768 9.6318309999998 2.098985751809512
  endloop
endfacet
facet normal -1.0 -3.795337600373131e-15 -1.141604309112493e-16
  outer loop
    vertex -45.34404414695768 10.631830999999798 -0.15101424819048268
    vertex -45.34404414695768 9.6318309999998 2.098985751809512
    vertex -45.34404414695768 10.631830999999785 2.0989857518095003
  endloop
endfacet
facet normal -1.0 -3.795337600373131e-15 -1.141604309112493e-16
  outer loop
    vertex -45.34404414695768 10.631830999999798 -0.15101424819048268
    vertex -45.34404414695768 10.631830999999785 2.0989857518095003
    vertex -45.34404414695768 10.631830999999798 0.3489857518095136
  endloop
endfacet
facet normal -1.0 -3.795337600373131e-15 -1.141604309112493e-16
  outer loop
    vertex -45.34404414695773 22.13183099999983 -1.1510142481904992
    vertex -45.34404414695768 10.631830999999798 -0.15101424819048268
    vertex -45.344044146957714 21.131830999999796 -0.15101424819048126
  endloop
endfacet
facet normal -1.0 -3.795337600373131e-15 -1.141604309112493e-16
  outer loop
    vertex -45.34404414695773 22.13183099999983 -1.1510142481904992
    vertex -45.344044146957714 21.131830999999796 -0.15101424819048126
    vertex -45.344044146957714 21.1318309999998 2.0989857518094976
  endloop
endfacet
facet normal -1.0 -3.795337600373131e-15 -1.141604309112493e-16
  outer loop
    vertex -45.34404414695773 22.13183099999983 -1.1510142481904992
    vertex -45.344044146957714 21.1318309999998 2.0989857518094976
    vertex -45.34404414695773 22.131830999999792 2.098985751809506
  endloop
endfacet
facet normal -0.7071067811865464 -0.7071067811865487 -8.163480219388675e-16
  outer loop
    vertex -33.63693736577137 20.13183099999986 -0.15101424819047563
    vertex -34.63693736577135 21.131830999999835 0.34898575180951075
    vertex -34.63693736577135 21.131830999999835 -0.1510142481904855
  endloop
endfacet
facet normal -0.7071067811865464 -0.7071067811865487 -8.163480219388675e-16
  outer loop
    vertex -34.63693736577135 21.131830999999835 0.34898575180951075
    vertex -33.63693736577137 20.13183099999986 -0.15101424819047563
    vertex -33.63693736577137 20.131830999999853 1.7239857518095152
  endloop
endfacet
facet normal -0.7071067811865464 -0.7071067811865487 -8.163480219388675e-16
  outer loop
    vertex -34.63693736577135 21.131830999999835 0.34898575180951075
    vertex -33.63693736577137 20.131830999999853 1.7239857518095152
    vertex -34.13693736577137 20.631830999999853 1.3489857518095187
  endloop
endfacet
facet normal -0.7071067811865464 -0.7071067811865487 -8.163480219388675e-16
  outer loop
    vertex -34.13693736577137 20.631830999999853 1.3489857518095187
    vertex -33.63693736577137 20.131830999999853 1.7239857518095152
    vertex -34.63693736577135 21.131830999999835 2.0989857518095034
  endloop
endfacet
facet normal -5.002608322809066e-16 -5.411859003602226e-15 1.0
  outer loop
    vertex -45.344044146957714 21.1318309999998 2.0989857518094976
    vertex -29.222723803398274 22.131830999999856 2.098985751809512
    vertex -45.34404414695773 22.131830999999792 2.098985751809506
  endloop
endfacet
facet normal -5.002608322809066e-16 -5.411859003602226e-15 1.0
  outer loop
    vertex -29.222723803398274 22.131830999999856 2.098985751809512
    vertex -45.344044146957714 21.1318309999998 2.0989857518094976
    vertex -34.63693736577135 21.131830999999835 2.0989857518095034
  endloop
endfacet
facet normal -5.002608322809066e-16 -5.411859003602226e-15 1.0
  outer loop
    vertex -29.222723803398274 22.131830999999856 2.098985751809512
    vertex -34.63693736577135 21.131830999999835 2.0989857518095034
    vertex -31.051150928144484 21.131830999999845 2.0989857518095034
  endloop
endfacet
facet normal -5.002608322809066e-16 -5.411859003602226e-15 1.0
  outer loop
    vertex -29.222723803398274 22.131830999999856 2.098985751809512
    vertex -31.051150928144484 21.131830999999845 2.0989857518095034
    vertex -29.636937365771363 21.131830999999856 2.0989857518095034
  endloop
endfacet
facet normal -5.002608322809066e-16 -5.411859003602226e-15 1.0
  outer loop
    vertex -29.222723803398274 22.131830999999856 2.098985751809512
    vertex -29.636937365771363 21.131830999999856 2.0989857518095034
    vertex -27.844044146957906 19.338937781186406 2.098985751809489
  endloop
endfacet
facet normal -5.002608322809066e-16 -5.411859003602226e-15 1.0
  outer loop
    vertex -29.222723803398274 22.131830999999856 2.098985751809512
    vertex -27.844044146957906 19.338937781186406 2.098985751809489
    vertex -27.844044146957906 20.753151343559487 2.098985751809512
  endloop
endfacet
facet normal 3.808927394597127e-15 -0.8944271909999212 -0.4472135954999473
  outer loop
    vertex -29.136937365771352 20.63183099999987 1.348985751809523
    vertex -31.051150928144473 21.131830999999853 0.34898575180951924
    vertex -29.636937365771352 21.131830999999856 0.34898575180951924
  endloop
endfacet
facet normal 3.808927394597127e-15 -0.8944271909999212 -0.4472135954999473
  outer loop
    vertex -31.051150928144473 21.131830999999853 0.34898575180951924
    vertex -29.136937365771352 20.63183099999987 1.348985751809523
    vertex -31.55115092814447 20.631830999999856 1.3489857518095216
  endloop
endfacet
facet normal -3.523859213130634e-15 0.8944271909999204 -0.4472135954999491
  outer loop
    vertex -45.34404414695768 10.631830999999798 0.3489857518095136
    vertex -34.13693736577133 11.13183099999983 1.348985751809516
    vertex -34.63693736577132 10.631830999999842 0.3489857518095122
  endloop
endfacet
facet normal -3.523859213130634e-15 0.8944271909999204 -0.4472135954999491
  outer loop
    vertex -34.13693736577133 11.13183099999983 1.348985751809516
    vertex -45.34404414695768 10.631830999999798 0.3489857518095136
    vertex -45.34404414695769 11.131830999999785 1.3489857518095145
  endloop
endfacet
facet normal -4.933565971061581e-16 -5.801162973445006e-16 -1.0
  outer loop
    vertex -29.222723803398274 22.131830999999895 -1.151014248190495
    vertex -45.34404414695768 9.631830999999742 -1.151014248190488
    vertex -45.34404414695773 22.13183099999983 -1.1510142481904992
  endloop
endfacet
facet normal -4.933565971061581e-16 -5.801162973445006e-16 -1.0
  outer loop
    vertex -45.34404414695768 9.631830999999742 -1.151014248190488
    vertex -29.222723803398274 22.131830999999895 -1.151014248190495
    vertex -29.222723803398218 9.63183099999981 -1.1510142481904837
  endloop
endfacet
facet normal -4.933565971061581e-16 -5.801162973445006e-16 -1.0
  outer loop
    vertex -29.222723803398218 9.63183099999981 -1.1510142481904837
    vertex -29.222723803398274 22.131830999999895 -1.151014248190495
    vertex -27.844044146957906 20.75315134355949 -1.1510142481904908
  endloop
endfacet
facet normal -4.933565971061581e-16 -5.801162973445006e-16 -1.0
  outer loop
    vertex -29.222723803398218 9.63183099999981 -1.1510142481904837
    vertex -27.844044146957906 20.75315134355949 -1.1510142481904908
    vertex -27.844044146957895 11.010510656440202 -1.1510142481904992
  endloop
endfacet
facet normal 1.4228424147124007e-15 -0.3511234415883879 0.936329177569046
  outer loop
    vertex -33.63693736577137 20.131830999999853 1.7239857518095152
    vertex -31.051150928144484 21.131830999999845 2.0989857518095034
    vertex -34.63693736577135 21.131830999999835 2.0989857518095034
  endloop
endfacet
facet normal 1.4228424147124007e-15 -0.3511234415883879 0.936329177569046
  outer loop
    vertex -31.051150928144484 21.131830999999845 2.0989857518095034
    vertex -33.63693736577137 20.131830999999853 1.7239857518095152
    vertex -32.05115092814447 20.13183099999986 1.7239857518095152
  endloop
endfacet
facet normal 3.54250386918719e-16 -0.8320502943378436 0.5547001962252293
  outer loop
    vertex -34.13693736577137 20.631830999999853 1.3489857518095187
    vertex -45.344044146957714 21.1318309999998 2.0989857518094976
    vertex -45.344044146957714 20.631830999999806 1.3489857518095145
  endloop
endfacet
facet normal 3.54250386918719e-16 -0.8320502943378436 0.5547001962252293
  outer loop
    vertex -45.344044146957714 21.1318309999998 2.0989857518094976
    vertex -34.13693736577137 20.631830999999853 1.3489857518095187
    vertex -34.63693736577135 21.131830999999835 2.0989857518095034
  endloop
endfacet
facet normal -7.001652427619288e-16 8.05105744421704e-15 1.0
  outer loop
    vertex -29.222723803398218 9.631830999999854 2.0989857518095145
    vertex -45.34404414695768 10.631830999999785 2.0989857518095003
    vertex -45.34404414695768 9.6318309999998 2.098985751809512
  endloop
endfacet
facet normal -7.001652427619288e-16 8.05105744421704e-15 1.0
  outer loop
    vertex -45.34404414695768 10.631830999999785 2.0989857518095003
    vertex -29.222723803398218 9.631830999999854 2.0989857518095145
    vertex -34.63693736577132 10.631830999999842 2.0989857518095034
  endloop
endfacet
facet normal -7.001652427619288e-16 8.05105744421704e-15 1.0
  outer loop
    vertex -34.63693736577132 10.631830999999842 2.0989857518095034
    vertex -29.222723803398218 9.631830999999854 2.0989857518095145
    vertex -31.051150928144438 10.631830999999853 2.0989857518094976
  endloop
endfacet
facet normal -7.001652427619288e-16 8.05105744421704e-15 1.0
  outer loop
    vertex -31.051150928144438 10.631830999999853 2.0989857518094976
    vertex -29.222723803398218 9.631830999999854 2.0989857518095145
    vertex -29.636937365771328 10.631830999999865 2.0989857518095003
  endloop
endfacet
facet normal -7.001652427619288e-16 8.05105744421704e-15 1.0
  outer loop
    vertex -29.636937365771328 10.631830999999865 2.0989857518095003
    vertex -29.222723803398218 9.631830999999854 2.0989857518095145
    vertex -27.84404414695788 12.424724218813333 2.0989857518094865
  endloop
endfacet
facet normal -7.001652427619288e-16 8.05105744421704e-15 1.0
  outer loop
    vertex -27.84404414695788 12.424724218813333 2.0989857518094865
    vertex -29.222723803398218 9.631830999999854 2.0989857518095145
    vertex -27.84404414695788 11.010510656440223 2.0989857518095034
  endloop
endfacet
facet normal 4.379371781627573e-15 -1.0 1.1879386363489302e-15
  outer loop
    vertex -34.63693736577135 21.131830999999835 0.34898575180951075
    vertex -45.344044146957714 21.131830999999796 -0.15101424819048126
    vertex -34.63693736577135 21.131830999999835 -0.1510142481904855
  endloop
endfacet
facet normal 4.379371781627573e-15 -1.0 1.1879386363489302e-15
  outer loop
    vertex -45.344044146957714 21.131830999999796 -0.15101424819048126
    vertex -34.63693736577135 21.131830999999835 0.34898575180951075
    vertex -45.344044146957714 21.131830999999796 0.34898575180951497
  endloop
endfacet
facet normal -3.172183684085752e-15 0.8944271909999205 -0.4472135954999487
  outer loop
    vertex -31.051150928144448 10.631830999999853 0.3489857518095164
    vertex -29.136937365771328 11.131830999999853 1.3489857518095187
    vertex -29.636937365771328 10.631830999999865 0.34898575180951497
  endloop
endfacet
facet normal -3.172183684085752e-15 0.8944271909999205 -0.4472135954999487
  outer loop
    vertex -29.136937365771328 11.131830999999853 1.3489857518095187
    vertex -31.051150928144448 10.631830999999853 0.3489857518095164
    vertex -31.551150928144438 11.131830999999853 1.3489857518095203
  endloop
endfacet
facet normal 3.164484011894825e-15 -0.8320502943378445 0.5547001962252279
  outer loop
    vertex -29.136937365771352 20.63183099999987 1.348985751809523
    vertex -31.051150928144484 21.131830999999845 2.0989857518095034
    vertex -31.55115092814447 20.631830999999856 1.3489857518095216
  endloop
endfacet
facet normal 3.164484011894825e-15 -0.8320502943378445 0.5547001962252279
  outer loop
    vertex -31.051150928144484 21.131830999999845 2.0989857518095034
    vertex -29.136937365771352 20.63183099999987 1.348985751809523
    vertex -29.636937365771363 21.131830999999856 2.0989857518095034
  endloop
endfacet
facet normal -0.7071067811865523 0.7071067811865427 -1.1053376814002811e-15
  outer loop
    vertex -27.84404414695788 12.424724218813333 2.0989857518094865
    vertex -29.136937365771328 11.131830999999853 1.3489857518095187
    vertex -29.636937365771328 10.631830999999865 2.0989857518095003
  endloop
endfacet
facet normal -0.7071067811865523 0.7071067811865427 -1.1053376814002811e-15
  outer loop
    vertex -29.136937365771328 11.131830999999853 1.3489857518095187
    vertex -27.84404414695788 12.424724218813333 2.0989857518094865
    vertex -27.844044146957895 12.424724218813322 -0.15101424819048972
  endloop
endfacet
facet normal -0.7071067811865523 0.7071067811865427 -1.1053376814002811e-15
  outer loop
    vertex -29.136937365771328 11.131830999999853 1.3489857518095187
    vertex -29.636937365771328 10.631830999999865 -0.15101424819048126
    vertex -29.636937365771328 10.631830999999865 0.34898575180951497
  endloop
endfacet
facet normal -0.7071067811865523 0.7071067811865427 -1.1053376814002811e-15
  outer loop
    vertex -29.636937365771328 10.631830999999865 -0.15101424819048126
    vertex -29.136937365771328 11.131830999999853 1.3489857518095187
    vertex -27.844044146957895 12.424724218813322 -0.15101424819048972
  endloop
endfacet
facet normal -3.795337600373131e-15 1.0 2.220446049250294e-16
  outer loop
    vertex -33.63693736577133 11.63183099999984 1.7239857518095125
    vertex -32.051150928144445 11.63183099999984 -0.15101424819047704
    vertex -33.636937365771345 11.63183099999984 -0.15101424819047846
  endloop
endfacet
facet normal -3.795337600373131e-15 1.0 2.220446049250294e-16
  outer loop
    vertex -32.051150928144445 11.63183099999984 -0.15101424819047704
    vertex -33.63693736577133 11.63183099999984 1.7239857518095125
    vertex -32.05115092814444 11.63183099999985 1.7239857518095139
  endloop
endfacet
facet normal -3.795337600373131e-15 1.0 2.220446049250294e-16
  outer loop
    vertex -45.34404414695768 10.631830999999798 -0.15101424819048268
    vertex -34.63693736577132 10.631830999999842 0.3489857518095122
    vertex -34.63693736577132 10.631830999999842 -0.1510142481904841
  endloop
endfacet
facet normal -3.795337600373131e-15 1.0 2.220446049250294e-16
  outer loop
    vertex -34.63693736577132 10.631830999999842 0.3489857518095122
    vertex -45.34404414695768 10.631830999999798 -0.15101424819048268
    vertex -45.34404414695768 10.631830999999798 0.3489857518095136
  endloop
endfacet
facet normal -0.7071067811865538 0.7071067811865412 -3.431884155856796e-16
  outer loop
    vertex -33.63693736577133 11.63183099999984 1.7239857518095125
    vertex -34.13693736577133 11.13183099999983 1.348985751809516
    vertex -34.63693736577132 10.631830999999842 2.0989857518095034
  endloop
endfacet
facet normal -0.7071067811865538 0.7071067811865412 -3.431884155856796e-16
  outer loop
    vertex -34.13693736577133 11.13183099999983 1.348985751809516
    vertex -34.63693736577132 10.631830999999842 -0.1510142481904841
    vertex -34.63693736577132 10.631830999999842 0.3489857518095122
  endloop
endfacet
facet normal -0.7071067811865538 0.7071067811865412 -3.431884155856796e-16
  outer loop
    vertex -34.63693736577132 10.631830999999842 -0.1510142481904841
    vertex -34.13693736577133 11.13183099999983 1.348985751809516
    vertex -33.636937365771345 11.63183099999984 -0.15101424819047846
  endloop
endfacet
facet normal -0.7071067811865538 0.7071067811865412 -3.431884155856796e-16
  outer loop
    vertex -33.636937365771345 11.63183099999984 -0.15101424819047846
    vertex -34.13693736577133 11.13183099999983 1.348985751809516
    vertex -33.63693736577133 11.63183099999984 1.7239857518095125
  endloop
endfacet
facet normal 1.896389066122228e-16 -2.2204460492502887e-16 1.0
  outer loop
    vertex -45.34404414695768 10.631830999999798 -0.15101424819048268
    vertex -34.63693736577135 21.131830999999835 -0.1510142481904855
    vertex -45.344044146957714 21.131830999999796 -0.15101424819048126
  endloop
endfacet
facet normal 1.896389066122228e-16 -2.2204460492502887e-16 1.0
  outer loop
    vertex -34.63693736577135 21.131830999999835 -0.1510142481904855
    vertex -45.34404414695768 10.631830999999798 -0.15101424819048268
    vertex -34.63693736577132 10.631830999999842 -0.1510142481904841
  endloop
endfacet
facet normal 1.896389066122228e-16 -2.2204460492502887e-16 1.0
  outer loop
    vertex -34.63693736577135 21.131830999999835 -0.1510142481904855
    vertex -34.63693736577132 10.631830999999842 -0.1510142481904841
    vertex -33.63693736577137 20.13183099999986 -0.15101424819047563
  endloop
endfacet
facet normal 1.896389066122228e-16 -2.2204460492502887e-16 1.0
  outer loop
    vertex -33.63693736577137 20.13183099999986 -0.15101424819047563
    vertex -34.63693736577132 10.631830999999842 -0.1510142481904841
    vertex -33.636937365771345 11.63183099999984 -0.15101424819047846
  endloop
endfacet
facet normal 1.896389066122228e-16 -2.2204460492502887e-16 1.0
  outer loop
    vertex -33.63693736577137 20.13183099999986 -0.15101424819047563
    vertex -33.636937365771345 11.63183099999984 -0.15101424819047846
    vertex -32.05115092814447 20.131830999999863 -0.15101424819047563
  endloop
endfacet
facet normal 1.896389066122228e-16 -2.2204460492502887e-16 1.0
  outer loop
    vertex -32.05115092814447 20.131830999999863 -0.15101424819047563
    vertex -33.636937365771345 11.63183099999984 -0.15101424819047846
    vertex -32.051150928144445 11.63183099999984 -0.15101424819047704
  endloop
endfacet
facet normal 1.896389066122228e-16 -2.2204460492502887e-16 1.0
  outer loop
    vertex -32.05115092814447 20.131830999999863 -0.15101424819047563
    vertex -32.051150928144445 11.63183099999984 -0.15101424819047704
    vertex -31.051150928144473 21.131830999999845 -0.15101424819047704
  endloop
endfacet
facet normal 1.896389066122228e-16 -2.2204460492502887e-16 1.0
  outer loop
    vertex -31.051150928144473 21.131830999999845 -0.15101424819047704
    vertex -32.051150928144445 11.63183099999984 -0.15101424819047704
    vertex -31.051150928144448 10.631830999999853 -0.15101424819047987
  endloop
endfacet
facet normal 1.896389066122228e-16 -2.2204460492502887e-16 1.0
  outer loop
    vertex -31.051150928144473 21.131830999999845 -0.15101424819047704
    vertex -31.051150928144448 10.631830999999853 -0.15101424819047987
    vertex -29.636937365771352 21.131830999999853 -0.15101424819047704
  endloop
endfacet
facet normal 1.896389066122228e-16 -2.2204460492502887e-16 1.0
  outer loop
    vertex -29.636937365771352 21.131830999999853 -0.15101424819047704
    vertex -31.051150928144448 10.631830999999853 -0.15101424819047987
    vertex -29.636937365771328 10.631830999999865 -0.15101424819048126
  endloop
endfacet
facet normal 1.896389066122228e-16 -2.2204460492502887e-16 1.0
  outer loop
    vertex -29.636937365771352 21.131830999999853 -0.15101424819047704
    vertex -29.636937365771328 10.631830999999865 -0.15101424819048126
    vertex -27.844044146957906 19.33893778118641 -0.15101424819048692
  endloop
endfacet
facet normal 1.896389066122228e-16 -2.2204460492502887e-16 1.0
  outer loop
    vertex -27.844044146957906 19.33893778118641 -0.15101424819048692
    vertex -29.636937365771328 10.631830999999865 -0.15101424819048126
    vertex -27.844044146957895 12.424724218813322 -0.15101424819048972
  endloop
endfacet
facet normal -3.795337600373131e-15 1.0 2.220446049250294e-16
  outer loop
    vertex -31.051150928144448 10.631830999999853 -0.15101424819047987
    vertex -29.636937365771328 10.631830999999865 0.34898575180951497
    vertex -29.636937365771328 10.631830999999865 -0.15101424819048126
  endloop
endfacet
facet normal -3.795337600373131e-15 1.0 2.220446049250294e-16
  outer loop
    vertex -29.636937365771328 10.631830999999865 0.34898575180951497
    vertex -31.051150928144448 10.631830999999853 -0.15101424819047987
    vertex -31.051150928144448 10.631830999999853 0.3489857518095164
  endloop
endfacet
facet normal 0.7071067811865569 -0.7071067811865381 6.862905309106537e-15
  outer loop
    vertex -27.844044146957895 11.010510656440202 -1.1510142481904992
    vertex -29.222723803398218 9.631830999999854 2.0989857518095145
    vertex -29.222723803398218 9.63183099999981 -1.1510142481904837
  endloop
endfacet
facet normal 0.7071067811865569 -0.7071067811865381 6.862905309106537e-15
  outer loop
    vertex -29.222723803398218 9.631830999999854 2.0989857518095145
    vertex -27.844044146957895 11.010510656440202 -1.1510142481904992
    vertex -27.84404414695788 11.010510656440223 2.0989857518095034
  endloop
endfacet
facet normal 1.0 3.41034767123834e-15 -8.141554714492921e-16
  outer loop
    vertex -27.844044146957895 11.010510656440202 -1.1510142481904992
    vertex -27.844044146957895 12.424724218813322 -0.15101424819048972
    vertex -27.84404414695788 11.010510656440223 2.0989857518095034
  endloop
endfacet
facet normal 1.0 3.41034767123834e-15 -8.141554714492921e-16
  outer loop
    vertex -27.844044146957895 12.424724218813322 -0.15101424819048972
    vertex -27.844044146957895 11.010510656440202 -1.1510142481904992
    vertex -27.844044146957906 20.75315134355949 -1.1510142481904908
  endloop
endfacet
facet normal 1.0 3.41034767123834e-15 -8.141554714492921e-16
  outer loop
    vertex -27.844044146957895 12.424724218813322 -0.15101424819048972
    vertex -27.844044146957906 20.75315134355949 -1.1510142481904908
    vertex -27.844044146957906 19.33893778118641 -0.15101424819048692
  endloop
endfacet
facet normal 1.0 3.41034767123834e-15 -8.141554714492921e-16
  outer loop
    vertex -27.844044146957906 19.33893778118641 -0.15101424819048692
    vertex -27.844044146957906 20.75315134355949 -1.1510142481904908
    vertex -27.844044146957906 20.753151343559487 2.098985751809512
  endloop
endfacet
facet normal 1.0 3.41034767123834e-15 -8.141554714492921e-16
  outer loop
    vertex -27.844044146957906 20.753151343559487 2.098985751809512
    vertex -27.844044146957906 19.338937781186406 2.098985751809489
    vertex -27.844044146957906 19.33893778118641 -0.15101424819048692
  endloop
endfacet
facet normal 1.0 3.41034767123834e-15 -8.141554714492921e-16
  outer loop
    vertex -27.84404414695788 12.424724218813333 2.0989857518094865
    vertex -27.84404414695788 11.010510656440223 2.0989857518095034
    vertex -27.844044146957895 12.424724218813322 -0.15101424819048972
  endloop
endfacet
facet normal 0.7071067811865531 0.7071067811865419 5.032248922907134e-15
  outer loop
    vertex -27.844044146957906 20.75315134355949 -1.1510142481904908
    vertex -29.222723803398274 22.131830999999856 2.098985751809512
    vertex -27.844044146957906 20.753151343559487 2.098985751809512
  endloop
endfacet
facet normal 0.7071067811865531 0.7071067811865419 5.032248922907134e-15
  outer loop
    vertex -29.222723803398274 22.131830999999856 2.098985751809512
    vertex -27.844044146957906 20.75315134355949 -1.1510142481904908
    vertex -29.222723803398274 22.131830999999895 -1.151014248190495
  endloop
endfacet
facet normal 3.795337600373123e-15 -1.0 1.6046992794389792e-14
  outer loop
    vertex -29.222723803398218 9.63183099999981 -1.1510142481904837
    vertex -45.34404414695768 9.6318309999998 2.098985751809512
    vertex -45.34404414695768 9.631830999999742 -1.151014248190488
  endloop
endfacet
facet normal 3.795337600373123e-15 -1.0 1.6046992794389792e-14
  outer loop
    vertex -45.34404414695768 9.6318309999998 2.098985751809512
    vertex -29.222723803398218 9.63183099999981 -1.1510142481904837
    vertex -29.222723803398218 9.631830999999854 2.0989857518095145
  endloop
endfacet
facet normal -3.795337600373136e-15 1.0 1.128499003645908e-14
  outer loop
    vertex -45.34404414695773 22.131830999999792 2.098985751809506
    vertex -29.222723803398274 22.131830999999895 -1.151014248190495
    vertex -45.34404414695773 22.13183099999983 -1.1510142481904992
  endloop
endfacet
facet normal -3.795337600373136e-15 1.0 1.128499003645908e-14
  outer loop
    vertex -29.222723803398274 22.131830999999895 -1.151014248190495
    vertex -45.34404414695773 22.131830999999792 2.098985751809506
    vertex -29.222723803398274 22.131830999999856 2.098985751809512
  endloop
endfacet
facet normal -0.7071067811865462 -0.7071067811865488 3.787745056503832e-16
  outer loop
    vertex -27.844044146957906 19.338937781186406 2.098985751809489
    vertex -29.636937365771352 21.131830999999853 -0.15101424819047704
    vertex -27.844044146957906 19.33893778118641 -0.15101424819048692
  endloop
endfacet
facet normal -0.7071067811865462 -0.7071067811865488 3.787745056503832e-16
  outer loop
    vertex -29.636937365771352 21.131830999999853 -0.15101424819047704
    vertex -27.844044146957906 19.338937781186406 2.098985751809489
    vertex -29.636937365771352 21.131830999999856 0.34898575180951924
  endloop
endfacet
facet normal -0.7071067811865462 -0.7071067811865488 3.787745056503832e-16
  outer loop
    vertex -29.636937365771352 21.131830999999856 0.34898575180951924
    vertex -27.844044146957906 19.338937781186406 2.098985751809489
    vertex -29.136937365771352 20.63183099999987 1.348985751809523
  endloop
endfacet
facet normal -0.7071067811865462 -0.7071067811865488 3.787745056503832e-16
  outer loop
    vertex -29.136937365771352 20.63183099999987 1.348985751809523
    vertex -27.844044146957906 19.338937781186406 2.098985751809489
    vertex -29.636937365771363 21.131830999999856 2.0989857518095034
  endloop
endfacet
facet normal -1.1849049884444739e-15 0.3511234415883855 0.9363291775690469
  outer loop
    vertex -31.051150928144438 10.631830999999853 2.0989857518094976
    vertex -33.63693736577133 11.63183099999984 1.7239857518095125
    vertex -34.63693736577132 10.631830999999842 2.0989857518095034
  endloop
endfacet
facet normal -1.1849049884444739e-15 0.3511234415883855 0.9363291775690469
  outer loop
    vertex -33.63693736577133 11.63183099999984 1.7239857518095125
    vertex -31.051150928144438 10.631830999999853 2.0989857518094976
    vertex -32.05115092814444 11.63183099999985 1.7239857518095139
  endloop
endfacet
facet normal 0.7071067811865422 0.7071067811865528 9.353695278284601e-16
  outer loop
    vertex -32.051150928144445 11.63183099999984 -0.15101424819047704
    vertex -31.051150928144448 10.631830999999853 0.3489857518095164
    vertex -31.051150928144448 10.631830999999853 -0.15101424819047987
  endloop
endfacet
facet normal 0.7071067811865422 0.7071067811865528 9.353695278284601e-16
  outer loop
    vertex -31.051150928144448 10.631830999999853 0.3489857518095164
    vertex -32.051150928144445 11.63183099999984 -0.15101424819047704
    vertex -32.05115092814444 11.63183099999985 1.7239857518095139
  endloop
endfacet
facet normal 0.7071067811865422 0.7071067811865528 9.353695278284601e-16
  outer loop
    vertex -31.051150928144448 10.631830999999853 0.3489857518095164
    vertex -32.05115092814444 11.63183099999985 1.7239857518095139
    vertex -31.551150928144438 11.131830999999853 1.3489857518095203
  endloop
endfacet
facet normal 0.7071067811865422 0.7071067811865528 9.353695278284601e-16
  outer loop
    vertex -31.551150928144438 11.131830999999853 1.3489857518095203
    vertex -32.05115092814444 11.63183099999985 1.7239857518095139
    vertex -31.051150928144438 10.631830999999853 2.0989857518094976
  endloop
endfacet
endsolid ProtoGlove
