solid ProtoGlove baseplate
facet normal 1.0 0.0 0.0
  outer loop
    vertex 80.00000000000094 683.4999999998148 300.5000000013749
    vertex 80.00000000000094 623.499999999815 300.00000000125686
    vertex 80.00000000000094 683.4999999998151 300.0000000013748
  endloop
endfacet
facet normal 1.0 0.0 0.0
  outer loop
    vertex 80.00000000000094 623.499999999815 300.00000000125686
    vertex 80.00000000000094 683.4999999998148 300.5000000013749
    vertex 80.00000000000094 654.4999999998148 300.50000000131774
  endloop
endfacet
facet normal 1.0 0.0 0.0
  outer loop
    vertex 80.00000000000094 623.499999999815 300.00000000125686
    vertex 80.00000000000094 654.4999999998148 300.50000000131774
    vertex 80.00000000000094 653.9999999998148 300.5000000013167
  endloop
endfacet
facet normal 1.0 0.0 0.0
  outer loop
    vertex 80.00000000000094 623.499999999815 300.00000000125686
    vertex 80.00000000000094 653.9999999998148 300.5000000013167
    vertex 80.00000000000094 652.9999999998148 300.5000000013148
  endloop
endfacet
facet normal 1.0 0.0 0.0
  outer loop
    vertex 80.00000000000094 623.499999999815 300.00000000125686
    vertex 80.00000000000094 652.9999999998148 300.5000000013148
    vertex 80.00000000000094 623.4999999998148 300.50000000125675
  endloop
endfacet
facet normal -0.9701425001453321 0.24253562503633275 4.971590480964311e-13
  outer loop
    vertex 12.500000000000767 703.4999999998151 300.00000000141426
    vertex 6.375000000000716 678.9999999998148 300.500000001366
    vertex 12.500000000000767 703.4999999998095 302.88460001005666
  endloop
endfacet
facet normal -0.9701425001453321 0.24253562503633275 4.971590480964311e-13
  outer loop
    vertex 6.375000000000716 678.9999999998148 300.500000001366
    vertex 12.500000000000767 703.4999999998151 300.00000000141426
    vertex 7.219114195322617e-13 653.4999999998151 300.00000000131575
  endloop
endfacet
facet normal -0.9701425001453321 0.24253562503633275 4.971590480964311e-13
  outer loop
    vertex 12.500000000000767 703.4999999998095 302.88460001005666
    vertex 6.375000000000716 678.9999999998148 300.500000001366
    vertex 10.303290117527505 694.7131604699169 302.3232909775714
  endloop
endfacet
facet normal -0.9701425001453321 0.24253562503633275 4.971590480964311e-13
  outer loop
    vertex 12.500000000000767 703.4999999998095 302.88460001005666
    vertex 10.303290117527505 694.7131604699169 302.3232909775714
    vertex 10.463399705776048 695.3535988229113 302.48631714274853
  endloop
endfacet
facet normal -0.9701425001453321 0.24253562503633275 4.971590480964311e-13
  outer loop
    vertex 10.303290117527505 694.7131604699169 302.3232909775714
    vertex 6.375000000000716 678.9999999998148 300.500000001366
    vertex 8.01254166020008 685.5501666406076 302.5370800826639
  endloop
endfacet
facet normal -0.9701425001453321 0.24253562503633275 4.971590480964311e-13
  outer loop
    vertex 8.01254166020008 685.5501666406076 302.5370800826639
    vertex 6.375000000000716 678.9999999998148 300.500000001366
    vertex 7.885632000426609 685.0425280015135 302.47031012783106
  endloop
endfacet
facet normal -0.9701425001453321 0.24253562503633275 4.971590480964311e-13
  outer loop
    vertex 7.885632000426609 685.0425280015135 302.47031012783106
    vertex 6.375000000000716 678.9999999998148 300.500000001366
    vertex 6.722541324460056 680.390165297646 302.907836928141
  endloop
endfacet
facet normal -0.9701425001453321 0.24253562503633275 4.971590480964311e-13
  outer loop
    vertex 6.375000000000716 678.9999999998148 300.500000001366
    vertex 7.219114195322617e-13 653.4999999998151 300.00000000131575
    vertex 6.125000000000773 677.9999999998148 300.5000000013641
  endloop
endfacet
facet normal -0.9701425001453321 0.24253562503633275 4.971590480964311e-13
  outer loop
    vertex 6.125000000000773 677.9999999998148 300.5000000013641
    vertex 7.219114195322617e-13 653.4999999998151 300.00000000131575
    vertex 5.2457598456479255 674.483039382399 302.38749904001116
  endloop
endfacet
facet normal -0.9701425001453321 0.24253562503633275 4.971590480964311e-13
  outer loop
    vertex 6.125000000000773 677.9999999998148 300.5000000013641
    vertex 5.2457598456479255 674.483039382399 302.38749904001116
    vertex 5.7934733149896624 676.6738932597649 302.7968842513784
  endloop
endfacet
facet normal -0.9701425001453321 0.24253562503633275 4.971590480964311e-13
  outer loop
    vertex 5.7934733149896624 676.6738932597649 302.7968842513784
    vertex 5.2457598456479255 674.483039382399 302.38749904001116
    vertex 5.32895267446203 674.8158106976555 302.4818175946807
  endloop
endfacet
facet normal -0.9701425001453321 0.24253562503633275 4.971590480964311e-13
  outer loop
    vertex 5.2457598456479255 674.483039382399 302.38749904001116
    vertex 7.219114195322617e-13 653.4999999998151 300.00000000131575
    vertex 2.6731017779689763 664.1924071116852 301.34933574510904
  endloop
endfacet
facet normal -0.9701425001453321 0.24253562503633275 4.971590480964311e-13
  outer loop
    vertex 5.2457598456479255 674.483039382399 302.38749904001116
    vertex 2.6731017779689763 664.1924071116852 301.34933574510904
    vertex 2.7172652807387108 664.3690611227638 301.3784622419916
  endloop
endfacet
facet normal -0.9701425001453321 0.24253562503633275 4.971590480964311e-13
  outer loop
    vertex 2.6731017779689763 664.1924071116852 301.34933574510904
    vertex 7.219114195322617e-13 653.4999999998151 300.00000000131575
    vertex 0.12500000000069347 653.9999999998148 300.5000000013167
  endloop
endfacet
facet normal -0.9701425001453321 0.24253562503633275 4.971590480964311e-13
  outer loop
    vertex 2.6731017779689763 664.1924071116852 301.34933574510904
    vertex 0.12500000000069347 653.9999999998148 300.5000000013167
    vertex 0.20095944808309696 654.3038377921418 301.0262624948903
  endloop
endfacet
facet normal -0.9701425001453321 0.24253562503633275 4.971590480964311e-13
  outer loop
    vertex 0.12500000000069347 653.9999999998148 300.5000000013167
    vertex 7.219114195322617e-13 653.4999999998151 300.00000000131575
    vertex 7.219114195322617e-13 653.4999999998148 300.5000000013158
  endloop
endfacet
facet normal 0.0 -1.9698374875698473e-12 1.0
  outer loop
    vertex 35.20710678118723 677.9999999998148 300.5000000013641
    vertex 6.375000000000716 678.9999999998148 300.500000001366
    vertex 6.125000000000773 677.9999999998148 300.5000000013641
  endloop
endfacet
facet normal 0.0 -1.9698374875698473e-12 1.0
  outer loop
    vertex 6.375000000000716 678.9999999998148 300.500000001366
    vertex 35.20710678118723 677.9999999998148 300.5000000013641
    vertex 34.79289321881418 678.9999999998148 300.500000001366
  endloop
endfacet
facet normal -0.026173748142778112 -0.16075779504988605 0.9866467788620493
  outer loop
    vertex 78.24465178897717 669.4407848787531 303.54035228781527
    vertex 5.7934733149896624 676.6738932597649 302.7968842513784
    vertex 5.32895267446203 674.8158106976555 302.4818175946807
  endloop
endfacet
facet normal -0.026173748142778112 -0.16075779504988605 0.9866467788620493
  outer loop
    vertex 5.7934733149896624 676.6738932597649 302.7968842513784
    vertex 78.24465178897717 669.4407848787531 303.54035228781527
    vertex 34.612727906901185 676.2704510382138 303.49566667702004
  endloop
endfacet
facet normal -0.026173748142778112 -0.16075779504988605 0.9866467788620493
  outer loop
    vertex 34.612727906901185 676.2704510382138 303.49566667702004
    vertex 78.24465178897717 669.4407848787531 303.54035228781527
    vertex 36.787940403504884 678.2985775812668 303.8838203946333
  endloop
endfacet
facet normal -0.026173748142778112 -0.16075779504988605 0.9866467788620493
  outer loop
    vertex 36.787940403504884 678.2985775812668 303.8838203946333
    vertex 78.24465178897717 669.4407848787531 303.54035228781527
    vertex 78.22238699107949 669.6810939968848 303.5789160489948
  endloop
endfacet
facet normal -0.0692367088221677 -0.3657422477464146 0.9281373208555266
  outer loop
    vertex 78.22238699107949 669.6810939968848 303.5789160489948
    vertex 39.10161451677823 680.2547459057477 304.8272633110856
    vertex 36.787940403504884 678.2985775812668 303.8838203946333
  endloop
endfacet
facet normal -0.0692367088221677 -0.3657422477464146 0.9281373208555266
  outer loop
    vertex 39.10161451677823 680.2547459057477 304.8272633110856
    vertex 78.22238699107949 669.6810939968848 303.5789160489948
    vertex 77.123972396257 674.7169930523706 305.4814259350126
  endloop
endfacet
facet normal 7.68808563847906e-16 1.969554615902843e-12 -1.0
  outer loop
    vertex 45.000000000000774 698.2368421050784 300.000000001404
    vertex 34.79289321881418 678.999999999815 300.000000001366
    vertex 32.500000000001094 703.4999999998151 300.00000000141426
  endloop
endfacet
facet normal 7.68808563847906e-16 1.969554615902843e-12 -1.0
  outer loop
    vertex 34.79289321881418 678.999999999815 300.000000001366
    vertex 45.000000000000774 698.2368421050784 300.000000001404
    vertex 45.000000000000774 689.2071067810017 300.0000000013861
  endloop
endfacet
facet normal 7.68808563847906e-16 1.969554615902843e-12 -1.0
  outer loop
    vertex 35.20710678118723 677.999999999815 300.0000000013641
    vertex 34.79289321881418 627.999999999815 300.00000000126556
    vertex 34.79289321881418 678.999999999815 300.000000001366
  endloop
endfacet
facet normal 7.68808563847906e-16 1.969554615902843e-12 -1.0
  outer loop
    vertex 34.79289321881418 627.999999999815 300.00000000126556
    vertex 35.20710678118723 677.999999999815 300.0000000013641
    vertex 35.20710678118723 628.999999999815 300.0000000012675
  endloop
endfacet
facet normal 7.68808563847906e-16 1.969554615902843e-12 -1.0
  outer loop
    vertex 35.20710678118723 628.999999999815 300.0000000012675
    vertex 35.20710678118723 677.999999999815 300.0000000013641
    vertex 52.34944551268779 695.1423387313154 300.0000000013979
  endloop
endfacet
facet normal 7.68808563847906e-16 1.969554615902843e-12 -1.0
  outer loop
    vertex 35.20710678118723 628.999999999815 300.0000000012675
    vertex 52.34944551268779 695.1423387313154 300.0000000013979
    vertex 52.3494455126876 611.8576612683147 300.0000000012337
  endloop
endfacet
facet normal 7.68808563847906e-16 1.969554615902843e-12 -1.0
  outer loop
    vertex 52.3494455126876 611.8576612683147 300.0000000012337
    vertex 52.34944551268779 695.1423387313154 300.0000000013979
    vertex 80.00000000000094 623.499999999815 300.00000000125686
  endloop
endfacet
facet normal 7.68808563847906e-16 1.969554615902843e-12 -1.0
  outer loop
    vertex 80.00000000000094 623.499999999815 300.00000000125686
    vertex 52.34944551268779 695.1423387313154 300.0000000013979
    vertex 80.00000000000094 683.4999999998151 300.0000000013748
  endloop
endfacet
facet normal 7.68808563847906e-16 1.969554615902843e-12 -1.0
  outer loop
    vertex 12.500000000000767 703.4999999998151 300.00000000141426
    vertex 7.219114195322617e-13 603.4999999998151 300.00000000121724
    vertex 7.219114195322617e-13 653.4999999998151 300.00000000131575
  endloop
endfacet
facet normal 7.68808563847906e-16 1.969554615902843e-12 -1.0
  outer loop
    vertex 7.219114195322617e-13 603.4999999998151 300.00000000121724
    vertex 12.500000000000767 703.4999999998151 300.00000000141426
    vertex 32.50000000000091 603.4999999998151 300.00000000121724
  endloop
endfacet
facet normal 7.68808563847906e-16 1.969554615902843e-12 -1.0
  outer loop
    vertex 32.50000000000091 603.4999999998151 300.00000000121724
    vertex 12.500000000000767 703.4999999998151 300.00000000141426
    vertex 32.500000000001094 703.4999999998151 300.00000000141426
  endloop
endfacet
facet normal 7.68808563847906e-16 1.969554615902843e-12 -1.0
  outer loop
    vertex 32.50000000000091 603.4999999998151 300.00000000121724
    vertex 32.500000000001094 703.4999999998151 300.00000000141426
    vertex 34.79289321881418 627.999999999815 300.00000000126556
  endloop
endfacet
facet normal 7.68808563847906e-16 1.969554615902843e-12 -1.0
  outer loop
    vertex 32.50000000000091 603.4999999998151 300.00000000121724
    vertex 34.79289321881418 627.999999999815 300.00000000126556
    vertex 45.000000000000774 608.7631578945518 300.0000000012276
  endloop
endfacet
facet normal 7.68808563847906e-16 1.969554615902843e-12 -1.0
  outer loop
    vertex 34.79289321881418 627.999999999815 300.00000000126556
    vertex 32.500000000001094 703.4999999998151 300.00000000141426
    vertex 34.79289321881418 678.999999999815 300.000000001366
  endloop
endfacet
facet normal 7.68808563847906e-16 1.969554615902843e-12 -1.0
  outer loop
    vertex 45.000000000000774 608.7631578945518 300.0000000012276
    vertex 34.79289321881418 627.999999999815 300.00000000126556
    vertex 45.000000000000774 617.7928932186285 300.0000000012455
  endloop
endfacet
facet normal -0.03350876070341433 0.2647755687331506 0.9637276903556099
  outer loop
    vertex 1.932510629507982 631.9338184777703 302.4325106307804
    vertex 79.04798750225197 642.7253530212508 302.14893401683656
    vertex 1.8983196084790392 632.0539395868938 302.3983196097518
  endloop
endfacet
facet normal -0.03350876070341433 0.2647755687331506 0.9637276903556099
  outer loop
    vertex 79.04798750225197 642.7253530212508 302.14893401683656
    vertex 1.932510629507982 631.9338184777703 302.4325106307804
    vertex 78.24465178897754 637.5592151208632 303.54035228775257
  endloop
endfacet
facet normal -0.010269568312112629 -0.16017379605348717 0.9870354051524692
  outer loop
    vertex 79.54524751905005 658.8836397524899 301.28765440320103
    vertex 2.7172652807387108 664.3690611227638 301.3784622419916
    vertex 2.6731017779689763 664.1924071116852 301.34933574510904
  endloop
endfacet
facet normal -0.010269568312112629 -0.16017379605348717 0.9870354051524692
  outer loop
    vertex 2.7172652807387108 664.3690611227638 301.3784622419916
    vertex 79.54524751905005 658.8836397524899 301.28765440320103
    vertex 79.05518079201308 664.14572788013 302.1364748735386
  endloop
endfacet
facet normal -0.11639030097740778 -0.34553645271660705 0.9311594158265342
  outer loop
    vertex 73.99357149404125 685.2629881103592 310.9034393457307
    vertex 55.35474344944501 693.8769501263419 311.77016426860024
    vertex 52.57001307816405 691.5511639765549 310.5590295446625
  endloop
endfacet
facet normal -0.11639030097740778 -0.34553645271660705 0.9311594158265342
  outer loop
    vertex 55.35474344944501 693.8769501263419 311.77016426860024
    vertex 73.99357149404125 685.2629881103592 310.9034393457307
    vertex 73.8264375503166 686.0993947154494 311.1929238279327
  endloop
endfacet
facet normal -0.11654656472881979 -0.46094389923417395 0.8797429283652735
  outer loop
    vertex 77.07293878986896 675.1124683232678 305.5698187341708
    vertex 46.2591938906979 686.4306477342243 307.4178695488681
    vertex 43.69508929873259 684.3986976499635 306.01353592269953
  endloop
endfacet
facet normal -0.11654656472881979 -0.46094389923417395 0.8797429283652735
  outer loop
    vertex 46.2591938906979 686.4306477342243 307.4178695488681
    vertex 77.07293878986896 675.1124683232678 305.5698187341708
    vertex 75.70335578100357 679.9862398390793 307.94200609071856
  endloop
endfacet
facet normal -0.01016565618644096 0.09675191254981462 0.9952566135687078
  outer loop
    vertex 1.8983196084790392 632.0539395868938 302.3983196097518
    vertex 79.05518079201326 642.8542721194917 302.1364748734967
    vertex 0.8600203549393995 642.6255053445349 301.36002035623306
  endloop
endfacet
facet normal -0.01016565618644096 0.09675191254981462 0.9952566135687078
  outer loop
    vertex 79.05518079201326 642.8542721194917 302.1364748734967
    vertex 1.8983196084790392 632.0539395868938 302.3983196097518
    vertex 79.04798750225197 642.7253530212508 302.14893401683656
  endloop
endfacet
facet normal -0.001428465011015542 -0.03229719053331235 0.9994772888722221
  outer loop
    vertex 12.165355546008263 654.3138979733002 301.0436872397899
    vertex 2.6731017779689763 664.1924071116852 301.34933574510904
    vertex 0.20095944808309696 654.3038377921418 301.0262624948903
  endloop
endfacet
facet normal -0.001428465011015542 -0.03229719053331235 0.9994772888722221
  outer loop
    vertex 2.6731017779689763 664.1924071116852 301.34933574510904
    vertex 12.165355546008263 654.3138979733002 301.0436872397899
    vertex 79.54524751905005 658.8836397524899 301.28765440320103
  endloop
endfacet
facet normal -0.001428465011015542 -0.03229719053331235 0.9994772888722221
  outer loop
    vertex 79.54524751905005 658.8836397524899 301.28765440320103
    vertex 12.165355546008263 654.3138979733002 301.0436872397899
    vertex 79.54639865423789 658.8218874216835 301.28566057856915
  endloop
endfacet
facet normal -0.04935969619809284 -0.22392459945876786 0.9733557387453275
  outer loop
    vertex 77.123972396257 674.7169930523706 305.4814259350126
    vertex 43.69508929873259 684.3986976499635 306.01353592269953
    vertex 39.10161451677823 680.2547459057477 304.8272633110856
  endloop
endfacet
facet normal -0.04935969619809284 -0.22392459945876786 0.9733557387453275
  outer loop
    vertex 43.69508929873259 684.3986976499635 306.01353592269953
    vertex 77.123972396257 674.7169930523706 305.4814259350126
    vertex 77.07293878986896 675.1124683232678 305.5698187341708
  endloop
endfacet
facet normal -0.07953940325017106 -0.2857392437265301 0.955000820902892
  outer loop
    vertex 75.70335578100357 679.9862398390793 307.94200609071856
    vertex 49.86643319737547 689.5682959804055 308.6571008383852
    vertex 46.2591938906979 686.4306477342243 307.4178695488681
  endloop
endfacet
facet normal -0.07953940325017106 -0.2857392437265301 0.955000820902892
  outer loop
    vertex 49.86643319737547 689.5682959804055 308.6571008383852
    vertex 75.70335578100357 679.9862398390793 307.94200609071856
    vertex 75.60542716315817 680.5803965327874 308.1116234323429
  endloop
endfacet
facet normal -0.17393814534188404 -0.5477787212881351 0.8183422230943246
  outer loop
    vertex 75.60542716315817 680.5803965327874 308.1116234323429
    vertex 52.57001307816405 691.5511639765549 310.5590295446625
    vertex 49.86643319737547 689.5682959804055 308.6571008383852
  endloop
endfacet
facet normal -0.17393814534188404 -0.5477787212881351 0.8183422230943246
  outer loop
    vertex 52.57001307816405 691.5511639765549 310.5590295446625
    vertex 75.60542716315817 680.5803965327874 308.1116234323429
    vertex 73.99357149404125 685.2629881103592 310.9034393457307
  endloop
endfacet
facet normal -0.02617374814277815 0.16075779504599488 0.9866467788626833
  outer loop
    vertex 2.209995417787249 630.2759414491766 302.70999541905655
    vertex 78.24465178897754 637.5592151208632 303.54035228775257
    vertex 1.932510629507982 631.9338184777703 302.4325106307804
  endloop
endfacet
facet normal -0.02617374814277815 0.16075779504599488 0.9866467788626833
  outer loop
    vertex 78.24465178897754 637.5592151208632 303.54035228775257
    vertex 2.209995417787249 630.2759414491766 302.70999541905655
    vertex 34.612727906901185 630.7295489614025 303.4956666769303
  endloop
endfacet
facet normal -0.02617374814277815 0.16075779504599488 0.9866467788626833
  outer loop
    vertex 78.24465178897754 637.5592151208632 303.54035228775257
    vertex 34.612727906901185 630.7295489614025 303.4956666769303
    vertex 36.787940403504706 628.7014224183482 303.88382039453563
  endloop
endfacet
facet normal -0.02617374814277815 0.16075779504599488 0.9866467788626833
  outer loop
    vertex 78.24465178897754 637.5592151208632 303.54035228775257
    vertex 36.787940403504706 628.7014224183482 303.88382039453563
    vertex 78.22238699107984 637.3189060027314 303.57891604893115
  endloop
endfacet
facet normal -0.06923670882216713 0.3657422477427543 0.928137320856969
  outer loop
    vertex 39.10161451677804 626.7452540938637 304.8272633109801
    vertex 78.22238699107984 637.3189060027314 303.57891604893115
    vertex 36.787940403504706 628.7014224183482 303.88382039453563
  endloop
endfacet
facet normal -0.06923670882216713 0.3657422477427543 0.928137320856969
  outer loop
    vertex 78.22238699107984 637.3189060027314 303.57891604893115
    vertex 39.10161451677804 626.7452540938637 304.8272633109801
    vertex 77.12397239625736 632.2830069472379 305.48142593492906
  endloop
endfacet
facet normal -0.11639030097740775 0.34553645271293715 0.9311594158278961
  outer loop
    vertex 55.35474344944483 613.123049873242 311.77016426844114
    vertex 73.99357149404142 621.7370118892279 310.90343934560565
    vertex 52.57001307816405 615.4488360230337 310.55902954451267
  endloop
endfacet
facet normal -0.11639030097740775 0.34553645271293715 0.9311594158278961
  outer loop
    vertex 73.99357149404142 621.7370118892279 310.90343934560565
    vertex 55.35474344944483 613.123049873242 311.77016426844114
    vertex 73.82643755031677 620.9006052841366 311.1929238278042
  endloop
endfacet
facet normal -0.01026956831211288 0.16017379604959953 0.9870354051531001
  outer loop
    vertex 0.8600203549393995 642.6255053445349 301.36002035623306
    vertex 79.5452475190504 648.1163602471352 301.2876544031799
    vertex 0.8507979397998667 642.6817451307146 301.35079794109356
  endloop
endfacet
facet normal -0.01026956831211288 0.16017379604959953 0.9870354051531001
  outer loop
    vertex 79.5452475190504 648.1163602471352 301.2876544031799
    vertex 0.8600203549393995 642.6255053445349 301.36002035623306
    vertex 79.05518079201326 642.8542721194917 302.1364748734967
  endloop
endfacet
facet normal -0.079539403250174 0.2857392437227787 0.9550008209040141
  outer loop
    vertex 49.86643319737547 617.4317040191904 308.6571008382432
    vertex 75.70335578100375 627.0137601605195 307.94200609061414
    vertex 46.259193890697716 620.5693522653766 307.4178695487384
  endloop
endfacet
facet normal -0.079539403250174 0.2857392437227787 0.9550008209040141
  outer loop
    vertex 75.70335578100375 627.0137601605195 307.94200609061414
    vertex 49.86643319737547 617.4317040191904 308.6571008382432
    vertex 75.60542716315852 626.4196034668108 308.11162343223623
  endloop
endfacet
facet normal -0.11654656472882098 0.4609438992307114 0.8797429283670875
  outer loop
    vertex 46.259193890697716 620.5693522653766 307.4178695487384
    vertex 77.07293878986931 631.8875316763406 305.5698187340855
    vertex 43.695089298732775 622.6013023496429 306.01353592257783
  endloop
endfacet
facet normal -0.11654656472882098 0.4609438992307114 0.8797429283670875
  outer loop
    vertex 77.07293878986931 631.8875316763406 305.5698187340855
    vertex 46.259193890697716 620.5693522653766 307.4178695487384
    vertex 75.70335578100375 627.0137601605195 307.94200609061414
  endloop
endfacet
facet normal 0.0 -1.9698374875698473e-12 1.0
  outer loop
    vertex 80.00000000000094 652.9999999998148 300.5000000013148
    vertex 7.219114195322617e-13 653.4999999998148 300.5000000013158
    vertex 7.219114195322617e-13 652.9999999998148 300.5000000013148
  endloop
endfacet
facet normal 0.0 -1.9698374875698473e-12 1.0
  outer loop
    vertex 7.219114195322617e-13 653.4999999998148 300.5000000013158
    vertex 80.00000000000094 652.9999999998148 300.5000000013148
    vertex 0.12500000000069347 653.9999999998148 300.5000000013167
  endloop
endfacet
facet normal 0.0 -1.9698374875698473e-12 1.0
  outer loop
    vertex 0.12500000000069347 653.9999999998148 300.5000000013167
    vertex 80.00000000000094 652.9999999998148 300.5000000013148
    vertex 80.00000000000094 653.9999999998148 300.5000000013167
  endloop
endfacet
facet normal 0.3880570000581319 0.9216353751380657 1.816049357710125e-12
  outer loop
    vertex 45.000000000000774 698.2368421050744 302.000000001404
    vertex 32.500000000001094 703.4999999998042 305.3944852247706
    vertex 40.945074984606634 699.9441789536535 306.05492501680146
  endloop
endfacet
facet normal 0.3880570000581319 0.9216353751380657 1.816049357710125e-12
  outer loop
    vertex 32.500000000001094 703.4999999998042 305.3944852247706
    vertex 45.000000000000774 698.2368421050744 302.000000001404
    vertex 32.500000000001094 703.4999999998151 300.00000000141426
  endloop
endfacet
facet normal 0.3880570000581319 0.9216353751380657 1.816049357710125e-12
  outer loop
    vertex 32.500000000001094 703.4999999998151 300.00000000141426
    vertex 45.000000000000774 698.2368421050744 302.000000001404
    vertex 45.000000000000774 698.2368421050784 300.000000001404
  endloop
endfacet
facet normal -0.03350876070341402 -0.2647755687369483 0.9637276903545665
  outer loop
    vertex 79.0479875022518 664.2746469783708 302.14893401687897
    vertex 5.32895267446203 674.8158106976555 302.4818175946807
    vertex 5.2457598456479255 674.483039382399 302.38749904001116
  endloop
endfacet
facet normal -0.03350876070341402 -0.2647755687369483 0.9637276903545665
  outer loop
    vertex 5.32895267446203 674.8158106976555 302.4818175946807
    vertex 79.0479875022518 664.2746469783708 302.14893401687897
    vertex 78.24465178897717 669.4407848787531 303.54035228781527
  endloop
endfacet
facet normal -1.1724836002882718e-16 0.866025403783477 0.500000000001666
  outer loop
    vertex 80.00000000000094 652.9999999998148 300.5000000013148
    vertex 12.165355546008263 652.686102026326 301.0436872397867
    vertex 79.68610202651402 652.686102026326 301.0436872397867
  endloop
endfacet
facet normal -1.1724836002882718e-16 0.866025403783477 0.500000000001666
  outer loop
    vertex 12.165355546008263 652.686102026326 301.0436872397867
    vertex 80.00000000000094 652.9999999998148 300.5000000013148
    vertex 0.5267369504394083 652.6958882796852 301.0267369517529
  endloop
endfacet
facet normal -1.1724836002882718e-16 0.866025403783477 0.500000000001666
  outer loop
    vertex 0.5267369504394083 652.6958882796852 301.0267369517529
    vertex 80.00000000000094 652.9999999998148 300.5000000013148
    vertex 7.219114195322617e-13 652.9999999998148 300.5000000013148
  endloop
endfacet
facet normal -0.17393814534188243 0.5477787212849063 0.8183422230964863
  outer loop
    vertex 52.57001307816405 615.4488360230337 310.55902954451267
    vertex 75.60542716315852 626.4196034668108 308.11162343223623
    vertex 49.86643319737547 617.4317040191904 308.6571008382432
  endloop
endfacet
facet normal -0.17393814534188243 0.5477787212849063 0.8183422230964863
  outer loop
    vertex 75.60542716315852 626.4196034668108 308.11162343223623
    vertex 52.57001307816405 615.4488360230337 310.55902954451267
    vertex 73.99357149404142 621.7370118892279 310.90343934560565
  endloop
endfacet
facet normal -0.04935969619809551 0.2239245994549447 0.9733557387462072
  outer loop
    vertex 43.695089298732775 622.6013023496429 306.01353592257783
    vertex 77.12397239625736 632.2830069472379 305.48142593492906
    vertex 39.10161451677804 626.7452540938637 304.8272633109801
  endloop
endfacet
facet normal -0.04935969619809551 0.2239245994549447 0.9733557387462072
  outer loop
    vertex 77.12397239625736 632.2830069472379 305.48142593492906
    vertex 43.695089298732775 622.6013023496429 306.01353592257783
    vertex 77.07293878986931 631.8875316763406 305.5698187340855
  endloop
endfacet
facet normal -0.683012701892217 0.6830127018917117 0.25881904510386694
  outer loop
    vertex 52.34944551268779 695.1423387313149 300.5000000013979
    vertex 49.86643319737547 689.5682959804055 308.6571008383852
    vertex 55.35474344944501 693.8769501263419 311.77016426860024
  endloop
endfacet
facet normal -0.683012701892217 0.6830127018917117 0.25881904510386694
  outer loop
    vertex 49.86643319737547 689.5682959804055 308.6571008383852
    vertex 52.34944551268779 695.1423387313149 300.5000000013979
    vertex 35.20710678118723 677.9999999998148 300.5000000013641
  endloop
endfacet
facet normal -0.683012701892217 0.6830127018917117 0.25881904510386694
  outer loop
    vertex 55.35474344944501 693.8769501263419 311.77016426860024
    vertex 49.86643319737547 689.5682959804055 308.6571008383852
    vertex 52.57001307816405 691.5511639765549 310.5590295446625
  endloop
endfacet
facet normal -0.683012701892217 0.6830127018917117 0.25881904510386694
  outer loop
    vertex 49.86643319737547 689.5682959804055 308.6571008383852
    vertex 35.20710678118723 677.9999999998148 300.5000000013641
    vertex 46.2591938906979 686.4306477342243 307.4178695488681
  endloop
endfacet
facet normal -0.683012701892217 0.6830127018917117 0.25881904510386694
  outer loop
    vertex 46.2591938906979 686.4306477342243 307.4178695488681
    vertex 35.20710678118723 677.9999999998148 300.5000000013641
    vertex 43.69508929873259 684.3986976499635 306.01353592269953
  endloop
endfacet
facet normal -0.683012701892217 0.6830127018917117 0.25881904510386694
  outer loop
    vertex 43.69508929873259 684.3986976499635 306.01353592269953
    vertex 35.20710678118723 677.9999999998148 300.5000000013641
    vertex 39.10161451677823 680.2547459057477 304.8272633110856
  endloop
endfacet
facet normal -0.683012701892217 0.6830127018917117 0.25881904510386694
  outer loop
    vertex 39.10161451677823 680.2547459057477 304.8272633110856
    vertex 35.20710678118723 677.9999999998148 300.5000000013641
    vertex 36.787940403504884 678.2985775812668 303.8838203946333
  endloop
endfacet
facet normal -0.683012701892217 0.6830127018917117 0.25881904510386694
  outer loop
    vertex 36.787940403504884 678.2985775812668 303.8838203946333
    vertex 35.20710678118723 677.9999999998148 300.5000000013641
    vertex 34.612727906901185 676.2704510382138 303.49566667702004
  endloop
endfacet
facet normal -0.683012701892218 -0.683012701892729 0.25881904510117926
  outer loop
    vertex 52.57001307816405 615.4488360230337 310.55902954451267
    vertex 52.3494455126876 611.8576612683145 300.50000000123373
    vertex 55.35474344944483 613.123049873242 311.77016426844114
  endloop
endfacet
facet normal -0.683012701892218 -0.683012701892729 0.25881904510117926
  outer loop
    vertex 52.3494455126876 611.8576612683145 300.50000000123373
    vertex 52.57001307816405 615.4488360230337 310.55902954451267
    vertex 49.86643319737547 617.4317040191904 308.6571008382432
  endloop
endfacet
facet normal -0.683012701892218 -0.683012701892729 0.25881904510117926
  outer loop
    vertex 52.3494455126876 611.8576612683145 300.50000000123373
    vertex 49.86643319737547 617.4317040191904 308.6571008382432
    vertex 46.259193890697716 620.5693522653766 307.4178695487384
  endloop
endfacet
facet normal -0.683012701892218 -0.683012701892729 0.25881904510117926
  outer loop
    vertex 52.3494455126876 611.8576612683145 300.50000000123373
    vertex 46.259193890697716 620.5693522653766 307.4178695487384
    vertex 43.695089298732775 622.6013023496429 306.01353592257783
  endloop
endfacet
facet normal -0.683012701892218 -0.683012701892729 0.25881904510117926
  outer loop
    vertex 52.3494455126876 611.8576612683145 300.50000000123373
    vertex 43.695089298732775 622.6013023496429 306.01353592257783
    vertex 39.10161451677804 626.7452540938637 304.8272633109801
  endloop
endfacet
facet normal -0.683012701892218 -0.683012701892729 0.25881904510117926
  outer loop
    vertex 52.3494455126876 611.8576612683145 300.50000000123373
    vertex 39.10161451677804 626.7452540938637 304.8272633109801
    vertex 36.787940403504706 628.7014224183482 303.88382039453563
  endloop
endfacet
facet normal -0.683012701892218 -0.683012701892729 0.25881904510117926
  outer loop
    vertex 52.3494455126876 611.8576612683145 300.50000000123373
    vertex 36.787940403504706 628.7014224183482 303.88382039453563
    vertex 34.612727906901185 630.7295489614025 303.4956666769303
  endloop
endfacet
facet normal -0.683012701892218 -0.683012701892729 0.25881904510117926
  outer loop
    vertex 52.3494455126876 611.8576612683145 300.50000000123373
    vertex 34.612727906901185 630.7295489614025 303.4956666769303
    vertex 35.20710678118723 628.9999999998148 300.50000000126744
  endloop
endfacet
facet normal 0.0 -1.0 -1.9698374875698473e-12
  outer loop
    vertex 17.524691261242484 603.4999999998081 303.6318731644782
    vertex 32.50000000000091 603.4999999998151 300.00000000121724
    vertex 32.50000000000091 603.4999999998045 305.3944852245736
  endloop
endfacet
facet normal 0.0 -1.0 -1.9698374875698473e-12
  outer loop
    vertex 32.50000000000091 603.4999999998151 300.00000000121724
    vertex 17.524691261242484 603.4999999998081 303.6318731644782
    vertex 14.282041722731222 603.4999999998095 303.0268525609551
  endloop
endfacet
facet normal 0.0 -1.0 -1.9698374875698473e-12
  outer loop
    vertex 32.50000000000091 603.4999999998151 300.00000000121724
    vertex 14.282041722731222 603.4999999998095 303.0268525609551
    vertex 1.5070838748549533 603.4999999998112 302.0070838760714
  endloop
endfacet
facet normal 0.0 -1.0 -1.9698374875698473e-12
  outer loop
    vertex 32.50000000000091 603.4999999998151 300.00000000121724
    vertex 1.5070838748549533 603.4999999998112 302.0070838760714
    vertex 7.219114195322617e-13 603.4999999998148 300.5000000012173
  endloop
endfacet
facet normal 0.0 -1.0 -1.9698374875698473e-12
  outer loop
    vertex 32.50000000000091 603.4999999998151 300.00000000121724
    vertex 7.219114195322617e-13 603.4999999998148 300.5000000012173
    vertex 7.219114195322617e-13 603.4999999998151 300.00000000121724
  endloop
endfacet
facet normal 0.7071067811865452 0.7071067811865499 1.3928854452961152e-12
  outer loop
    vertex 45.000000000000774 617.7928932186283 300.50000000124555
    vertex 34.79289321881418 627.999999999815 300.00000000126556
    vertex 34.79289321881418 627.9999999998148 300.5000000012655
  endloop
endfacet
facet normal 0.7071067811865452 0.7071067811865499 1.3928854452961152e-12
  outer loop
    vertex 34.79289321881418 627.999999999815 300.00000000126556
    vertex 45.000000000000774 617.7928932186283 300.50000000124555
    vertex 45.000000000000774 617.7928932186285 300.0000000012455
  endloop
endfacet
facet normal -0.01016565618644061 -0.0967519125537366 0.9952566135683265
  outer loop
    vertex 79.05518079201308 664.14572788013 302.1364748735386
    vertex 5.2457598456479255 674.483039382399 302.38749904001116
    vertex 2.7172652807387108 664.3690611227638 301.3784622419916
  endloop
endfacet
facet normal -0.01016565618644061 -0.0967519125537366 0.9952566135683265
  outer loop
    vertex 5.2457598456479255 674.483039382399 302.38749904001116
    vertex 79.05518079201308 664.14572788013 302.1364748735386
    vertex 79.0479875022518 664.2746469783708 302.14893401687897
  endloop
endfacet
facet normal -0.11639030097740363 0.09276079275693139 0.9888623428796827
  outer loop
    vertex 32.50000000000091 603.4999999998045 305.3944852245736
    vertex 41.20176479230287 610.114301683835 305.7982352089281
    vertex 17.524691261242484 603.4999999998081 303.6318731644782
  endloop
endfacet
facet normal -0.11639030097740363 0.09276079275693139 0.9888623428796827
  outer loop
    vertex 41.20176479230287 610.114301683835 305.7982352089281
    vertex 32.50000000000091 603.4999999998045 305.3944852245736
    vertex 40.94507498460646 607.0558210459528 306.0549250166186
  endloop
endfacet
facet normal 2.1203645617333476e-16 -0.8660254037854177 0.4999999999983043
  outer loop
    vertex 12.165355546008263 654.3138979733002 301.0436872397899
    vertex 80.00000000000094 653.9999999998148 300.5000000013167
    vertex 79.68610202651367 654.3138979733002 301.0436872397899
  endloop
endfacet
facet normal 2.1203645617333476e-16 -0.8660254037854177 0.4999999999983043
  outer loop
    vertex 80.00000000000094 653.9999999998148 300.5000000013167
    vertex 12.165355546008263 654.3138979733002 301.0436872397899
    vertex 0.20095944808309696 654.3038377921418 301.0262624948903
  endloop
endfacet
facet normal 2.1203645617333476e-16 -0.8660254037854177 0.4999999999983043
  outer loop
    vertex 80.00000000000094 653.9999999998148 300.5000000013167
    vertex 0.20095944808309696 654.3038377921418 301.0262624948903
    vertex 0.12500000000069347 653.9999999998148 300.5000000013167
  endloop
endfacet
facet normal -0.0692367088221683 0.11306026775152941 0.9911728678729189
  outer loop
    vertex 1.6938883933293054 620.5890493830124 302.1938883945793
    vertex 29.232845973271044 626.2866144692393 303.4676707931606
    vertex 1.6803960287240214 620.699071223998 302.1803960299745
  endloop
endfacet
facet normal -0.0692367088221683 0.11306026775152941 0.9911728678729189
  outer loop
    vertex 29.232845973271044 626.2866144692393 303.4676707931606
    vertex 1.6938883933293054 620.5890493830124 302.1938883945793
    vertex 36.15767704835741 625.2840177209725 304.06575654470714
  endloop
endfacet
facet normal -0.0692367088221683 0.11306026775152941 0.9911728678729189
  outer loop
    vertex 29.232845973271044 626.2866144692393 303.4676707931606
    vertex 36.15767704835741 625.2840177209725 304.06575654470714
    vertex 35.4743215437206 626.0171508395669 303.9343954905434
  endloop
endfacet
facet normal -0.0795394032501711 0.028830514557624014 0.9964147152470949
  outer loop
    vertex 1.5070838748549533 603.4999999998112 302.0070838760714
    vertex 42.172242056585766 618.2039091216058 304.82775794466136
    vertex 1.3104457345509573 609.7535358452805 301.81044573577975
  endloop
endfacet
facet normal -0.0795394032501711 0.028830514557624014 0.9964147152470949
  outer loop
    vertex 42.172242056585766 618.2039091216058 304.82775794466136
    vertex 1.5070838748549533 603.4999999998112 302.0070838760714
    vertex 14.282041722731222 603.4999999998095 303.0268525609551
  endloop
endfacet
facet normal -0.0795394032501711 0.028830514557624014 0.9964147152470949
  outer loop
    vertex 42.172242056585766 618.2039091216058 304.82775794466136
    vertex 14.282041722731222 603.4999999998095 303.0268525609551
    vertex 42.03313757972706 613.0125333496593 304.9668624215096
  endloop
endfacet
facet normal 0.6830127018922147 -0.6830127018927307 0.25881904510118375
  outer loop
    vertex 40.82388126466167 686.4061865620813 304.12909172440607
    vertex 45.000000000000774 689.7755128539421 302.0000000013872
    vertex 42.310673345910615 688.105272601391 304.6893266554741
  endloop
endfacet
facet normal 0.6830127018922147 -0.6830127018927307 0.25881904510118375
  outer loop
    vertex 45.000000000000774 689.7755128539421 302.0000000013872
    vertex 40.82388126466167 686.4061865620813 304.12909172440607
    vertex 36.15767704835741 681.7159822786417 304.06575654481844
  endloop
endfacet
facet normal 0.6830127018922147 -0.6830127018927307 0.25881904510118375
  outer loop
    vertex 45.000000000000774 689.7755128539421 302.0000000013872
    vertex 36.15767704835741 681.7159822786417 304.06575654481844
    vertex 35.4743215437206 680.9828491600479 303.9343954906517
  endloop
endfacet
facet normal 0.6830127018922147 -0.6830127018927307 0.25881904510118375
  outer loop
    vertex 45.000000000000774 689.7755128539421 302.0000000013872
    vertex 35.4743215437206 680.9828491600479 303.9343954906517
    vertex 34.79289321881418 678.9999999998148 300.500000001366
  endloop
endfacet
facet normal 0.6830127018922147 -0.6830127018927307 0.25881904510118375
  outer loop
    vertex 45.000000000000774 689.7755128539421 302.0000000013872
    vertex 34.79289321881418 678.9999999998148 300.500000001366
    vertex 45.000000000000774 689.2071067810014 300.5000000013861
  endloop
endfacet
facet normal -0.1739381453418813 0.31731106123178443 0.9322334536021466
  outer loop
    vertex 17.524691261242484 603.4999999998081 303.6318731644782
    vertex 42.03313757972706 613.0125333496593 304.9668624215096
    vertex 14.282041722731222 603.4999999998095 303.0268525609551
  endloop
endfacet
facet normal -0.1739381453418813 0.31731106123178443 0.9322334536021466
  outer loop
    vertex 42.03313757972706 613.0125333496593 304.9668624215096
    vertex 17.524691261242484 603.4999999998081 303.6318731644782
    vertex 41.20176479230287 610.114301683835 305.7982352089281
  endloop
endfacet
facet normal -0.11654656472881914 0.21754339208166143 0.9690674748496702
  outer loop
    vertex 1.3104457345509573 609.7535358452805 301.81044573577975
    vertex 40.82388126466167 620.5938134375326 304.1290917242764
    vertex 1.2900052175371384 609.8336392582185 301.79000521876605
  endloop
endfacet
facet normal -0.11654656472881914 0.21754339208166143 0.9690674748496702
  outer loop
    vertex 40.82388126466167 620.5938134375326 304.1290917242764
    vertex 1.3104457345509573 609.7535358452805 301.81044573577975
    vertex 42.172242056585766 618.2039091216058 304.82775794466136
  endloop
endfacet
facet normal -0.11654656472881914 0.21754339208166143 0.9690674748496702
  outer loop
    vertex 40.82388126466167 620.5938134375326 304.1290917242764
    vertex 42.172242056585766 618.2039091216058 304.82775794466136
    vertex 42.310673345910615 618.8947273982205 304.68932665533765
  endloop
endfacet
facet normal -0.04935969619809514 -0.03562844909238911 0.9981453972275296
  outer loop
    vertex 40.82388126466167 620.5938134375326 304.1290917242764
    vertex 1.6938883933293054 620.5890493830124 302.1938883945793
    vertex 1.2900052175371384 609.8336392582185 301.79000521876605
  endloop
endfacet
facet normal -0.04935969619809514 -0.03562844909238911 0.9981453972275296
  outer loop
    vertex 1.6938883933293054 620.5890493830124 302.1938883945793
    vertex 40.82388126466167 620.5938134375326 304.1290917242764
    vertex 36.15767704835741 625.2840177209725 304.06575654470714
  endloop
endfacet
facet normal 3.3545089355015643e-16 -0.8660254037854243 0.49999999999829325
  outer loop
    vertex 2.209995417787249 630.2759414491766 302.70999541905655
    vertex 35.20710678118723 628.9999999998148 300.50000000126744
    vertex 34.612727906901185 630.7295489614025 303.4956666769303
  endloop
endfacet
facet normal 3.3545089355015643e-16 -0.8660254037854243 0.49999999999829325
  outer loop
    vertex 35.20710678118723 628.9999999998148 300.50000000126744
    vertex 2.209995417787249 630.2759414491766 302.70999541905655
    vertex 7.219114195322617e-13 628.9999999998148 300.50000000126744
  endloop
endfacet
facet normal 0.8660254037844397 -9.864163535430317e-13 0.4999999999999983
  outer loop
    vertex 73.99357149404125 685.2629881103592 310.9034393457307
    vertex 80.00000000000094 683.4999999998148 300.5000000013749
    vertex 73.8264375503166 686.0993947154494 311.1929238279327
  endloop
endfacet
facet normal 0.8660254037844397 -9.864163535430317e-13 0.4999999999999983
  outer loop
    vertex 80.00000000000094 683.4999999998148 300.5000000013749
    vertex 73.99357149404125 685.2629881103592 310.9034393457307
    vertex 75.60542716315817 680.5803965327874 308.1116234323429
  endloop
endfacet
facet normal 0.8660254037844397 -9.864163535430317e-13 0.4999999999999983
  outer loop
    vertex 80.00000000000094 683.4999999998148 300.5000000013749
    vertex 75.60542716315817 680.5803965327874 308.1116234323429
    vertex 77.07293878986896 675.1124683232678 305.5698187341708
  endloop
endfacet
facet normal 0.8660254037844397 -9.864163535430317e-13 0.4999999999999983
  outer loop
    vertex 80.00000000000094 683.4999999998148 300.5000000013749
    vertex 77.07293878986896 675.1124683232678 305.5698187341708
    vertex 78.22238699107949 669.6810939968848 303.5789160489948
  endloop
endfacet
facet normal 0.8660254037844397 -9.864163535430317e-13 0.4999999999999983
  outer loop
    vertex 80.00000000000094 683.4999999998148 300.5000000013749
    vertex 78.22238699107949 669.6810939968848 303.5789160489948
    vertex 79.0479875022518 664.2746469783708 302.14893401687897
  endloop
endfacet
facet normal 0.8660254037844397 -9.864163535430317e-13 0.4999999999999983
  outer loop
    vertex 80.00000000000094 683.4999999998148 300.5000000013749
    vertex 79.0479875022518 664.2746469783708 302.14893401687897
    vertex 80.00000000000094 654.4999999998148 300.50000000131774
  endloop
endfacet
facet normal 0.8660254037844397 -9.864163535430317e-13 0.4999999999999983
  outer loop
    vertex 77.07293878986896 675.1124683232678 305.5698187341708
    vertex 75.60542716315817 680.5803965327874 308.1116234323429
    vertex 75.70335578100357 679.9862398390793 307.94200609071856
  endloop
endfacet
facet normal 0.8660254037844397 -9.864163535430317e-13 0.4999999999999983
  outer loop
    vertex 78.22238699107949 669.6810939968848 303.5789160489948
    vertex 77.07293878986896 675.1124683232678 305.5698187341708
    vertex 77.123972396257 674.7169930523706 305.4814259350126
  endloop
endfacet
facet normal 0.8660254037844397 -9.864163535430317e-13 0.4999999999999983
  outer loop
    vertex 79.0479875022518 664.2746469783708 302.14893401687897
    vertex 78.22238699107949 669.6810939968848 303.5789160489948
    vertex 78.24465178897717 669.4407848787531 303.54035228781527
  endloop
endfacet
facet normal 0.8660254037844397 -9.864163535430317e-13 0.4999999999999983
  outer loop
    vertex 80.00000000000094 654.4999999998148 300.50000000131774
    vertex 79.0479875022518 664.2746469783708 302.14893401687897
    vertex 79.05518079201308 664.14572788013 302.1364748735386
  endloop
endfacet
facet normal 0.8660254037844397 -9.864163535430317e-13 0.4999999999999983
  outer loop
    vertex 80.00000000000094 654.4999999998148 300.50000000131774
    vertex 79.05518079201308 664.14572788013 302.1364748735386
    vertex 79.54524751905005 658.8836397524899 301.28765440320103
  endloop
endfacet
facet normal 0.8660254037844397 -9.864163535430317e-13 0.4999999999999983
  outer loop
    vertex 80.00000000000094 654.4999999998148 300.50000000131774
    vertex 79.54524751905005 658.8836397524899 301.28765440320103
    vertex 79.54639865423789 658.8218874216835 301.28566057856915
  endloop
endfacet
facet normal 0.8660254037844397 -9.864163535430317e-13 0.4999999999999983
  outer loop
    vertex 80.00000000000094 654.4999999998148 300.50000000131774
    vertex 79.54639865423789 658.8218874216835 301.28566057856915
    vertex 79.68610202651367 654.3138979733002 301.0436872397899
  endloop
endfacet
facet normal 0.8660254037844397 -9.864163535430317e-13 0.4999999999999983
  outer loop
    vertex 80.00000000000094 654.4999999998148 300.50000000131774
    vertex 79.68610202651367 654.3138979733002 301.0436872397899
    vertex 80.00000000000094 653.9999999998148 300.5000000013167
  endloop
endfacet
facet normal -0.7071067811865303 -1.3933848673729154e-12 0.7071067811865648
  outer loop
    vertex 1.5070838748549533 603.4999999998112 302.0070838760714
    vertex 7.219114195322617e-13 627.9999999998148 300.5000000012655
    vertex 7.219114195322617e-13 603.4999999998148 300.5000000012173
  endloop
endfacet
facet normal -0.7071067811865303 -1.3933848673729154e-12 0.7071067811865648
  outer loop
    vertex 7.219114195322617e-13 627.9999999998148 300.5000000012655
    vertex 1.5070838748549533 603.4999999998112 302.0070838760714
    vertex 1.2900052175371384 609.8336392582185 301.79000521876605
  endloop
endfacet
facet normal -0.7071067811865303 -1.3933848673729154e-12 0.7071067811865648
  outer loop
    vertex 1.2900052175371384 609.8336392582185 301.79000521876605
    vertex 1.5070838748549533 603.4999999998112 302.0070838760714
    vertex 1.3104457345509573 609.7535358452805 301.81044573577975
  endloop
endfacet
facet normal -0.7071067811865303 -1.3933848673729154e-12 0.7071067811865648
  outer loop
    vertex 1.6938883933293054 620.5890493830124 302.1938883945793
    vertex 1.6803960287240214 620.699071223998 302.1803960299745
    vertex 1.2900052175371384 609.8336392582185 301.79000521876605
  endloop
endfacet
facet normal -0.7071067811865303 -1.3933848673729154e-12 0.7071067811865648
  outer loop
    vertex 7.219114195322617e-13 627.9999999998148 300.5000000012655
    vertex 1.6803960287240214 620.699071223998 302.1803960299745
    vertex 2.2977929252735447 626.6733686358615 302.79779292653575
  endloop
endfacet
facet normal -0.7071067811865303 -1.3933848673729154e-12 0.7071067811865648
  outer loop
    vertex 1.6803960287240214 620.699071223998 302.1803960299745
    vertex 7.219114195322617e-13 627.9999999998148 300.5000000012655
    vertex 1.2900052175371384 609.8336392582185 301.79000521876605
  endloop
endfacet
facet normal 0.6830127018922153 0.6830127018917098 0.2588190451038762
  outer loop
    vertex 35.4743215437206 626.0171508395669 303.9343954905434
    vertex 45.000000000000774 617.7928932186283 300.50000000124555
    vertex 34.79289321881418 627.9999999998148 300.5000000012655
  endloop
endfacet
facet normal 0.6830127018922153 0.6830127018917098 0.2588190451038762
  outer loop
    vertex 45.000000000000774 617.7928932186283 300.50000000124555
    vertex 35.4743215437206 626.0171508395669 303.9343954905434
    vertex 36.15767704835741 625.2840177209725 304.06575654470714
  endloop
endfacet
facet normal 0.6830127018922153 0.6830127018917098 0.2588190451038762
  outer loop
    vertex 45.000000000000774 617.7928932186283 300.50000000124555
    vertex 36.15767704835741 625.2840177209725 304.06575654470714
    vertex 40.82388126466167 620.5938134375326 304.1290917242764
  endloop
endfacet
facet normal 0.6830127018922153 0.6830127018917098 0.2588190451038762
  outer loop
    vertex 45.000000000000774 617.7928932186283 300.50000000124555
    vertex 40.82388126466167 620.5938134375326 304.1290917242764
    vertex 42.310673345910615 618.8947273982205 304.68932665533765
  endloop
endfacet
facet normal 0.6830127018922153 0.6830127018917098 0.2588190451038762
  outer loop
    vertex 45.000000000000774 617.7928932186283 300.50000000124555
    vertex 42.310673345910615 618.8947273982205 304.68932665533765
    vertex 45.000000000000774 617.2244871456801 302.00000000124436
  endloop
endfacet
facet normal 0.9238795325112996 0.3826834323650591 7.538241709445936e-13
  outer loop
    vertex 34.79289321881418 678.9999999998148 300.500000001366
    vertex 35.20710678118723 677.999999999815 300.0000000013641
    vertex 34.79289321881418 678.999999999815 300.000000001366
  endloop
endfacet
facet normal 0.9238795325112996 0.3826834323650591 7.538241709445936e-13
  outer loop
    vertex 35.20710678118723 677.999999999815 300.0000000013641
    vertex 34.79289321881418 678.9999999998148 300.500000001366
    vertex 35.20710678118723 677.9999999998148 300.5000000013641
  endloop
endfacet
facet normal 0.0 -1.9698374875698473e-12 1.0
  outer loop
    vertex 34.79289321881418 627.9999999998148 300.5000000012655
    vertex 7.219114195322617e-13 628.9999999998148 300.50000000126744
    vertex 7.219114195322617e-13 627.9999999998148 300.5000000012655
  endloop
endfacet
facet normal 0.0 -1.9698374875698473e-12 1.0
  outer loop
    vertex 7.219114195322617e-13 628.9999999998148 300.50000000126744
    vertex 34.79289321881418 627.9999999998148 300.5000000012655
    vertex 35.20710678118723 628.9999999998148 300.50000000126744
  endloop
endfacet
facet normal -0.7071067811865375 -1.3924681597776486e-12 0.7071067811865577
  outer loop
    vertex 2.209995417787249 630.2759414491766 302.70999541905655
    vertex 7.219114195322617e-13 629.4999999998148 300.50000000126846
    vertex 7.219114195322617e-13 628.9999999998148 300.50000000126744
  endloop
endfacet
facet normal -0.7071067811865375 -1.3924681597776486e-12 0.7071067811865577
  outer loop
    vertex 7.219114195322617e-13 629.4999999998148 300.50000000126846
    vertex 2.209995417787249 630.2759414491766 302.70999541905655
    vertex 1.8983196084790392 632.0539395868938 302.3983196097518
  endloop
endfacet
facet normal -0.7071067811865375 -1.3924681597776486e-12 0.7071067811865577
  outer loop
    vertex 7.219114195322617e-13 629.4999999998148 300.50000000126846
    vertex 1.8983196084790392 632.0539395868938 302.3983196097518
    vertex 0.8507979397998667 642.6817451307146 301.35079794109356
  endloop
endfacet
facet normal -0.7071067811865375 -1.3924681597776486e-12 0.7071067811865577
  outer loop
    vertex 7.219114195322617e-13 629.4999999998148 300.50000000126846
    vertex 0.8507979397998667 642.6817451307146 301.35079794109356
    vertex 7.219114195322617e-13 652.9999999998148 300.5000000013148
  endloop
endfacet
facet normal -0.7071067811865375 -1.3924681597776486e-12 0.7071067811865577
  outer loop
    vertex 7.219114195322617e-13 652.9999999998148 300.5000000013148
    vertex 0.8507979397998667 642.6817451307146 301.35079794109356
    vertex 0.5267369504394083 652.6958882796852 301.0267369517529
  endloop
endfacet
facet normal -0.7071067811865375 -1.3924681597776486e-12 0.7071067811865577
  outer loop
    vertex 0.8507979397998667 642.6817451307146 301.35079794109356
    vertex 1.8983196084790392 632.0539395868938 302.3983196097518
    vertex 0.8600203549393995 642.6255053445349 301.36002035623306
  endloop
endfacet
facet normal -0.7071067811865375 -1.3924681597776486e-12 0.7071067811865577
  outer loop
    vertex 1.8983196084790392 632.0539395868938 302.3983196097518
    vertex 2.209995417787249 630.2759414491766 302.70999541905655
    vertex 1.932510629507982 631.9338184777703 302.4325106307804
  endloop
endfacet
facet normal -1.0 -0.0 0.0
  outer loop
    vertex 7.219114195322617e-13 603.4999999998151 300.00000000121724
    vertex 7.219114195322617e-13 653.4999999998148 300.5000000013158
    vertex 7.219114195322617e-13 653.4999999998151 300.00000000131575
  endloop
endfacet
facet normal -1.0 -0.0 0.0
  outer loop
    vertex 7.219114195322617e-13 653.4999999998148 300.5000000013158
    vertex 7.219114195322617e-13 603.4999999998151 300.00000000121724
    vertex 7.219114195322617e-13 652.9999999998148 300.5000000013148
  endloop
endfacet
facet normal -1.0 -0.0 0.0
  outer loop
    vertex 7.219114195322617e-13 652.9999999998148 300.5000000013148
    vertex 7.219114195322617e-13 603.4999999998151 300.00000000121724
    vertex 7.219114195322617e-13 629.4999999998148 300.50000000126846
  endloop
endfacet
facet normal -1.0 -0.0 0.0
  outer loop
    vertex 7.219114195322617e-13 629.4999999998148 300.50000000126846
    vertex 7.219114195322617e-13 603.4999999998151 300.00000000121724
    vertex 7.219114195322617e-13 628.9999999998148 300.50000000126744
  endloop
endfacet
facet normal -1.0 -0.0 0.0
  outer loop
    vertex 7.219114195322617e-13 628.9999999998148 300.50000000126744
    vertex 7.219114195322617e-13 603.4999999998151 300.00000000121724
    vertex 7.219114195322617e-13 627.9999999998148 300.5000000012655
  endloop
endfacet
facet normal -1.0 -0.0 0.0
  outer loop
    vertex 7.219114195322617e-13 627.9999999998148 300.5000000012655
    vertex 7.219114195322617e-13 603.4999999998151 300.00000000121724
    vertex 7.219114195322617e-13 603.4999999998148 300.5000000012173
  endloop
endfacet
facet normal 1.459154919043944e-17 0.05359939492165515 0.9985625192565725
  outer loop
    vertex 79.68610202651402 652.686102026326 301.0436872397867
    vertex 12.165355546008263 652.686102026326 301.0436872397867
    vertex 79.54639865423826 648.1781125779429 301.2856605785482
  endloop
endfacet
facet normal -0.7071067811865461 -0.7071067811865489 -1.3928854452961134e-12
  outer loop
    vertex 35.20710678118723 628.999999999815 300.0000000012675
    vertex 52.3494455126876 611.8576612683145 300.50000000123373
    vertex 35.20710678118723 628.9999999998148 300.50000000126744
  endloop
endfacet
facet normal -0.7071067811865461 -0.7071067811865489 -1.3928854452961134e-12
  outer loop
    vertex 52.3494455126876 611.8576612683145 300.50000000123373
    vertex 35.20710678118723 628.999999999815 300.0000000012675
    vertex 52.3494455126876 611.8576612683147 300.0000000012337
  endloop
endfacet
facet normal 0.7071067811865452 -0.7071067811865499 -1.3936768209606811e-12
  outer loop
    vertex 34.79289321881418 678.9999999998148 300.500000001366
    vertex 45.000000000000774 689.2071067810017 300.0000000013861
    vertex 45.000000000000774 689.2071067810014 300.5000000013861
  endloop
endfacet
facet normal 0.7071067811865452 -0.7071067811865499 -1.3936768209606811e-12
  outer loop
    vertex 45.000000000000774 689.2071067810017 300.0000000013861
    vertex 34.79289321881418 678.9999999998148 300.500000001366
    vertex 34.79289321881418 678.999999999815 300.000000001366
  endloop
endfacet
facet normal 1.4556153332843899e-15 0.8660254037834426 0.5000000000017251
  outer loop
    vertex 35.20710678118723 677.9999999998148 300.5000000013641
    vertex 5.7934733149896624 676.6738932597649 302.7968842513784
    vertex 34.612727906901185 676.2704510382138 303.49566667702004
  endloop
endfacet
facet normal 1.4556153332843899e-15 0.8660254037834426 0.5000000000017251
  outer loop
    vertex 5.7934733149896624 676.6738932597649 302.7968842513784
    vertex 35.20710678118723 677.9999999998148 300.5000000013641
    vertex 6.125000000000773 677.9999999998148 300.5000000013641
  endloop
endfacet
facet normal 1.0 0.0 0.0
  outer loop
    vertex 45.000000000000774 617.7928932186283 300.50000000124555
    vertex 45.000000000000774 608.7631578945518 300.0000000012276
    vertex 45.000000000000774 617.7928932186285 300.0000000012455
  endloop
endfacet
facet normal 1.0 0.0 0.0
  outer loop
    vertex 45.000000000000774 608.7631578945518 300.0000000012276
    vertex 45.000000000000774 617.7928932186283 300.50000000124555
    vertex 45.000000000000774 617.2244871456801 302.00000000124436
  endloop
endfacet
facet normal 1.0 0.0 0.0
  outer loop
    vertex 45.000000000000774 608.7631578945518 300.0000000012276
    vertex 45.000000000000774 617.2244871456801 302.00000000124436
    vertex 45.000000000000774 608.7631578945479 302.00000000122765
  endloop
endfacet
facet normal 0.7071067811865375 -1.3935343493588156e-12 0.7071067811865577
  outer loop
    vertex 45.000000000000774 608.7631578945479 302.00000000122765
    vertex 41.20176479230287 610.114301683835 305.7982352089281
    vertex 40.94507498460646 607.0558210459528 306.0549250166186
  endloop
endfacet
facet normal 0.7071067811865375 -1.3935343493588156e-12 0.7071067811865577
  outer loop
    vertex 41.20176479230287 610.114301683835 305.7982352089281
    vertex 45.000000000000774 608.7631578945479 302.00000000122765
    vertex 42.03313757972706 613.0125333496593 304.9668624215096
  endloop
endfacet
facet normal 0.7071067811865375 -1.3935343493588156e-12 0.7071067811865577
  outer loop
    vertex 42.03313757972706 613.0125333496593 304.9668624215096
    vertex 45.000000000000774 608.7631578945479 302.00000000122765
    vertex 42.172242056585766 618.2039091216058 304.82775794466136
  endloop
endfacet
facet normal 0.7071067811865375 -1.3935343493588156e-12 0.7071067811865577
  outer loop
    vertex 42.172242056585766 618.2039091216058 304.82775794466136
    vertex 45.000000000000774 608.7631578945479 302.00000000122765
    vertex 42.310673345910615 618.8947273982205 304.68932665533765
  endloop
endfacet
facet normal 0.7071067811865375 -1.3935343493588156e-12 0.7071067811865577
  outer loop
    vertex 42.310673345910615 618.8947273982205 304.68932665533765
    vertex 45.000000000000774 608.7631578945479 302.00000000122765
    vertex 45.000000000000774 617.2244871456801 302.00000000124436
  endloop
endfacet
facet normal 1.6729318610582228e-16 0.8660254037834546 0.5000000000017042
  outer loop
    vertex 34.79289321881418 627.9999999998148 300.5000000012655
    vertex 29.232845973271044 626.2866144692393 303.4676707931606
    vertex 35.4743215437206 626.0171508395669 303.9343954905434
  endloop
endfacet
facet normal 1.6729318610582228e-16 0.8660254037834546 0.5000000000017042
  outer loop
    vertex 29.232845973271044 626.2866144692393 303.4676707931606
    vertex 34.79289321881418 627.9999999998148 300.5000000012655
    vertex 2.2977929252735447 626.6733686358615 302.79779292653575
  endloop
endfacet
facet normal 1.6729318610582228e-16 0.8660254037834546 0.5000000000017042
  outer loop
    vertex 2.2977929252735447 626.6733686358615 302.79779292653575
    vertex 34.79289321881418 627.9999999998148 300.5000000012655
    vertex 7.219114195322617e-13 627.9999999998148 300.5000000012655
  endloop
endfacet
facet normal -6.785070373554889e-17 -0.05359939492558745 0.9985625192563613
  outer loop
    vertex 79.68610202651367 654.3138979733002 301.0436872397899
    vertex 79.54639865423789 658.8218874216835 301.28566057856915
    vertex 12.165355546008263 654.3138979733002 301.0436872397899
  endloop
endfacet
facet normal -0.0014284650110158157 0.0322971905293721 0.9994772888723495
  outer loop
    vertex 0.8507979397998667 642.6817451307146 301.35079794109356
    vertex 12.165355546008263 652.686102026326 301.0436872397867
    vertex 0.5267369504394083 652.6958882796852 301.0267369517529
  endloop
endfacet
facet normal -0.0014284650110158157 0.0322971905293721 0.9994772888723495
  outer loop
    vertex 12.165355546008263 652.686102026326 301.0436872397867
    vertex 0.8507979397998667 642.6817451307146 301.35079794109356
    vertex 79.5452475190504 648.1163602471352 301.2876544031799
  endloop
endfacet
facet normal -0.0014284650110158157 0.0322971905293721 0.9994772888723495
  outer loop
    vertex 12.165355546008263 652.686102026326 301.0436872397867
    vertex 79.5452475190504 648.1163602471352 301.2876544031799
    vertex 79.54639865423826 648.1781125779429 301.2856605785482
  endloop
endfacet
facet normal 1.0 0.0 0.0
  outer loop
    vertex 45.000000000000774 698.2368421050744 302.000000001404
    vertex 45.000000000000774 689.2071067810017 300.0000000013861
    vertex 45.000000000000774 698.2368421050784 300.000000001404
  endloop
endfacet
facet normal 1.0 0.0 0.0
  outer loop
    vertex 45.000000000000774 689.2071067810017 300.0000000013861
    vertex 45.000000000000774 698.2368421050744 302.000000001404
    vertex 45.000000000000774 689.7755128539421 302.0000000013872
  endloop
endfacet
facet normal 1.0 0.0 0.0
  outer loop
    vertex 45.000000000000774 689.2071067810017 300.0000000013861
    vertex 45.000000000000774 689.7755128539421 302.0000000013872
    vertex 45.000000000000774 689.2071067810014 300.5000000013861
  endloop
endfacet
facet normal -0.7071067811865425 0.7071067811865527 1.3928854452961207e-12
  outer loop
    vertex 52.34944551268779 695.1423387313154 300.0000000013979
    vertex 35.20710678118723 677.9999999998148 300.5000000013641
    vertex 52.34944551268779 695.1423387313149 300.5000000013979
  endloop
endfacet
facet normal -0.7071067811865425 0.7071067811865527 1.3928854452961207e-12
  outer loop
    vertex 35.20710678118723 677.9999999998148 300.5000000013641
    vertex 52.34944551268779 695.1423387313154 300.0000000013979
    vertex 35.20710678118723 677.999999999815 300.0000000013641
  endloop
endfacet
facet normal 0.3880570000581329 0.9216353751380654 1.8210780528518807e-12
  outer loop
    vertex 73.8264375503166 686.0993947154494 311.1929238279327
    vertex 52.34944551268779 695.1423387313149 300.5000000013979
    vertex 55.35474344944501 693.8769501263419 311.77016426860024
  endloop
endfacet
facet normal 0.3880570000581329 0.9216353751380654 1.8210780528518807e-12
  outer loop
    vertex 52.34944551268779 695.1423387313149 300.5000000013979
    vertex 73.8264375503166 686.0993947154494 311.1929238279327
    vertex 80.00000000000094 683.4999999998148 300.5000000013749
  endloop
endfacet
facet normal 0.3880570000581329 0.9216353751380654 1.8210780528518807e-12
  outer loop
    vertex 52.34944551268779 695.1423387313149 300.5000000013979
    vertex 80.00000000000094 683.4999999998148 300.5000000013749
    vertex 52.34944551268779 695.1423387313154 300.0000000013979
  endloop
endfacet
facet normal 0.3880570000581329 0.9216353751380654 1.8210780528518807e-12
  outer loop
    vertex 52.34944551268779 695.1423387313154 300.0000000013979
    vertex 80.00000000000094 683.4999999998148 300.5000000013749
    vertex 80.00000000000094 683.4999999998151 300.0000000013748
  endloop
endfacet
facet normal 0.8660254037844507 -9.913257371872342e-13 0.49999999999997913
  outer loop
    vertex 79.68610202651402 652.686102026326 301.0436872397867
    vertex 80.00000000000094 623.4999999998148 300.50000000125675
    vertex 80.00000000000094 652.9999999998148 300.5000000013148
  endloop
endfacet
facet normal 0.8660254037844507 -9.913257371872342e-13 0.49999999999997913
  outer loop
    vertex 80.00000000000094 623.4999999998148 300.50000000125675
    vertex 79.68610202651402 652.686102026326 301.0436872397867
    vertex 79.54639865423826 648.1781125779429 301.2856605785482
  endloop
endfacet
facet normal 0.8660254037844507 -9.913257371872342e-13 0.49999999999997913
  outer loop
    vertex 80.00000000000094 623.4999999998148 300.50000000125675
    vertex 79.54639865423826 648.1781125779429 301.2856605785482
    vertex 79.5452475190504 648.1163602471352 301.2876544031799
  endloop
endfacet
facet normal 0.8660254037844507 -9.913257371872342e-13 0.49999999999997913
  outer loop
    vertex 80.00000000000094 623.4999999998148 300.50000000125675
    vertex 79.5452475190504 648.1163602471352 301.2876544031799
    vertex 79.05518079201326 642.8542721194917 302.1364748734967
  endloop
endfacet
facet normal 0.8660254037844507 -9.913257371872342e-13 0.49999999999997913
  outer loop
    vertex 80.00000000000094 623.4999999998148 300.50000000125675
    vertex 79.05518079201326 642.8542721194917 302.1364748734967
    vertex 79.04798750225197 642.7253530212508 302.14893401683656
  endloop
endfacet
facet normal 0.8660254037844507 -9.913257371872342e-13 0.49999999999997913
  outer loop
    vertex 80.00000000000094 623.4999999998148 300.50000000125675
    vertex 79.04798750225197 642.7253530212508 302.14893401683656
    vertex 78.24465178897754 637.5592151208632 303.54035228775257
  endloop
endfacet
facet normal 0.8660254037844507 -9.913257371872342e-13 0.49999999999997913
  outer loop
    vertex 80.00000000000094 623.4999999998148 300.50000000125675
    vertex 78.24465178897754 637.5592151208632 303.54035228775257
    vertex 78.22238699107984 637.3189060027314 303.57891604893115
  endloop
endfacet
facet normal 0.8660254037844507 -9.913257371872342e-13 0.49999999999997913
  outer loop
    vertex 80.00000000000094 623.4999999998148 300.50000000125675
    vertex 78.22238699107984 637.3189060027314 303.57891604893115
    vertex 77.12397239625736 632.2830069472379 305.48142593492906
  endloop
endfacet
facet normal 0.8660254037844507 -9.913257371872342e-13 0.49999999999997913
  outer loop
    vertex 80.00000000000094 623.4999999998148 300.50000000125675
    vertex 77.12397239625736 632.2830069472379 305.48142593492906
    vertex 77.07293878986931 631.8875316763406 305.5698187340855
  endloop
endfacet
facet normal 0.8660254037844507 -9.913257371872342e-13 0.49999999999997913
  outer loop
    vertex 80.00000000000094 623.4999999998148 300.50000000125675
    vertex 77.07293878986931 631.8875316763406 305.5698187340855
    vertex 75.70335578100375 627.0137601605195 307.94200609061414
  endloop
endfacet
facet normal 0.8660254037844507 -9.913257371872342e-13 0.49999999999997913
  outer loop
    vertex 80.00000000000094 623.4999999998148 300.50000000125675
    vertex 75.70335578100375 627.0137601605195 307.94200609061414
    vertex 75.60542716315852 626.4196034668108 308.11162343223623
  endloop
endfacet
facet normal 0.8660254037844507 -9.913257371872342e-13 0.49999999999997913
  outer loop
    vertex 80.00000000000094 623.4999999998148 300.50000000125675
    vertex 75.60542716315852 626.4196034668108 308.11162343223623
    vertex 73.99357149404142 621.7370118892279 310.90343934560565
  endloop
endfacet
facet normal 0.8660254037844507 -9.913257371872342e-13 0.49999999999997913
  outer loop
    vertex 80.00000000000094 623.4999999998148 300.50000000125675
    vertex 73.99357149404142 621.7370118892279 310.90343934560565
    vertex 73.82643755031677 620.9006052841366 311.1929238278042
  endloop
endfacet
facet normal 0.3880570000581331 -0.9216353751380654 -1.810596851187276e-12
  outer loop
    vertex 52.3494455126876 611.8576612683145 300.50000000123373
    vertex 73.82643755031677 620.9006052841366 311.1929238278042
    vertex 55.35474344944483 613.123049873242 311.77016426844114
  endloop
endfacet
facet normal 0.3880570000581331 -0.9216353751380654 -1.810596851187276e-12
  outer loop
    vertex 73.82643755031677 620.9006052841366 311.1929238278042
    vertex 52.3494455126876 611.8576612683145 300.50000000123373
    vertex 80.00000000000094 623.4999999998148 300.50000000125675
  endloop
endfacet
facet normal 0.3880570000581331 -0.9216353751380654 -1.810596851187276e-12
  outer loop
    vertex 80.00000000000094 623.4999999998148 300.50000000125675
    vertex 52.3494455126876 611.8576612683145 300.50000000123373
    vertex 80.00000000000094 623.499999999815 300.00000000125686
  endloop
endfacet
facet normal 0.3880570000581331 -0.9216353751380654 -1.810596851187276e-12
  outer loop
    vertex 80.00000000000094 623.499999999815 300.00000000125686
    vertex 52.3494455126876 611.8576612683145 300.50000000123373
    vertex 52.3494455126876 611.8576612683147 300.0000000012337
  endloop
endfacet
facet normal -0.11639030097740483 -0.0927607927608246 0.9888623428793174
  outer loop
    vertex 41.20176479230287 696.8856983157723 305.7982352090991
    vertex 32.500000000001094 703.4999999998042 305.3944852247706
    vertex 17.524691261242666 703.4999999998081 303.63187316467514
  endloop
endfacet
facet normal -0.11639030097740483 -0.0927607927608246 0.9888623428793174
  outer loop
    vertex 32.500000000001094 703.4999999998042 305.3944852247706
    vertex 41.20176479230287 696.8856983157723 305.7982352090991
    vertex 40.945074984606634 699.9441789536535 306.05492501680146
  endloop
endfacet
facet normal 0.38805700005813504 -0.9216353751380644 -1.8137568664616421e-12
  outer loop
    vertex 32.50000000000091 603.4999999998045 305.3944852245736
    vertex 45.000000000000774 608.7631578945479 302.00000000122765
    vertex 40.94507498460646 607.0558210459528 306.0549250166186
  endloop
endfacet
facet normal 0.38805700005813504 -0.9216353751380644 -1.8137568664616421e-12
  outer loop
    vertex 45.000000000000774 608.7631578945479 302.00000000122765
    vertex 32.50000000000091 603.4999999998045 305.3944852245736
    vertex 32.50000000000091 603.4999999998151 300.00000000121724
  endloop
endfacet
facet normal 0.38805700005813504 -0.9216353751380644 -1.8137568664616421e-12
  outer loop
    vertex 45.000000000000774 608.7631578945479 302.00000000122765
    vertex 32.50000000000091 603.4999999998151 300.00000000121724
    vertex 45.000000000000774 608.7631578945518 300.0000000012276
  endloop
endfacet
facet normal 2.995172639278902e-16 -0.8660254037854224 0.4999999999982961
  outer loop
    vertex 29.232845973271044 680.713385530377 303.4676707932679
    vertex 34.79289321881418 678.9999999998148 300.500000001366
    vertex 35.4743215437206 680.9828491600479 303.9343954906517
  endloop
endfacet
facet normal 2.995172639278902e-16 -0.8660254037854224 0.4999999999982961
  outer loop
    vertex 34.79289321881418 678.9999999998148 300.500000001366
    vertex 29.232845973271044 680.713385530377 303.4676707932679
    vertex 6.722541324460056 680.390165297646 302.907836928141
  endloop
endfacet
facet normal 2.995172639278902e-16 -0.8660254037854224 0.4999999999982961
  outer loop
    vertex 34.79289321881418 678.9999999998148 300.500000001366
    vertex 6.722541324460056 680.390165297646 302.907836928141
    vertex 6.375000000000716 678.9999999998148 300.500000001366
  endloop
endfacet
facet normal -0.02617374814277872 0.10008287114258727 0.9946347841353703
  outer loop
    vertex 29.232845973271044 680.713385530377 303.4676707932679
    vertex 7.885632000426609 685.0425280015135 302.47031012783106
    vertex 6.722541324460056 680.390165297646 302.907836928141
  endloop
endfacet
facet normal -0.02617374814277794 -0.10008287114650485 0.9946347841349762
  outer loop
    vertex 29.232845973271044 626.2866144692393 303.4676707931606
    vertex 2.2977929252735447 626.6733686358615 302.79779292653575
    vertex 1.6803960287240214 620.699071223998 302.1803960299745
  endloop
endfacet
facet normal 0.7071067811865466 -1.3968141361973682e-12 0.7071067811865486
  outer loop
    vertex 41.20176479230287 696.8856983157723 305.7982352090991
    vertex 45.000000000000774 698.2368421050744 302.000000001404
    vertex 40.945074984606634 699.9441789536535 306.05492501680146
  endloop
endfacet
facet normal 0.7071067811865466 -1.3968141361973682e-12 0.7071067811865486
  outer loop
    vertex 45.000000000000774 698.2368421050744 302.000000001404
    vertex 41.20176479230287 696.8856983157723 305.7982352090991
    vertex 42.03313757972724 693.9874666499513 304.96686242166913
  endloop
endfacet
facet normal 0.7071067811865466 -1.3968141361973682e-12 0.7071067811865486
  outer loop
    vertex 45.000000000000774 698.2368421050744 302.000000001404
    vertex 42.03313757972724 693.9874666499513 304.96686242166913
    vertex 42.172242056585766 688.7960908780054 304.8277579448003
  endloop
endfacet
facet normal 0.7071067811865466 -1.3968141361973682e-12 0.7071067811865486
  outer loop
    vertex 45.000000000000774 698.2368421050744 302.000000001404
    vertex 42.172242056585766 688.7960908780054 304.8277579448003
    vertex 42.310673345910615 688.105272601391 304.6893266554741
  endloop
endfacet
facet normal 0.7071067811865466 -1.3968141361973682e-12 0.7071067811865486
  outer loop
    vertex 45.000000000000774 698.2368421050744 302.000000001404
    vertex 42.310673345910615 688.105272601391 304.6893266554741
    vertex 45.000000000000774 689.7755128539421 302.0000000013872
  endloop
endfacet
facet normal 6.0647768722322094e-15 1.0 1.980503465179963e-12
  outer loop
    vertex 32.500000000001094 703.4999999998151 300.00000000141426
    vertex 17.524691261242666 703.4999999998081 303.63187316467514
    vertex 32.500000000001094 703.4999999998042 305.3944852247706
  endloop
endfacet
facet normal 6.0647768722322094e-15 1.0 1.980503465179963e-12
  outer loop
    vertex 17.524691261242666 703.4999999998081 303.63187316467514
    vertex 32.500000000001094 703.4999999998151 300.00000000141426
    vertex 14.282041722731401 703.4999999998095 303.02685256115205
  endloop
endfacet
facet normal 6.0647768722322094e-15 1.0 1.980503465179963e-12
  outer loop
    vertex 14.282041722731401 703.4999999998095 303.02685256115205
    vertex 32.500000000001094 703.4999999998151 300.00000000141426
    vertex 12.500000000000767 703.4999999998095 302.88460001005666
  endloop
endfacet
facet normal 6.0647768722322094e-15 1.0 1.980503465179963e-12
  outer loop
    vertex 12.500000000000767 703.4999999998095 302.88460001005666
    vertex 32.500000000001094 703.4999999998151 300.00000000141426
    vertex 12.500000000000767 703.4999999998151 300.00000000141426
  endloop
endfacet
facet normal -0.06923670882216923 -0.11306026775543841 0.991172867872473
  outer loop
    vertex 29.232845973271044 680.713385530377 303.4676707932679
    vertex 8.01254166020008 685.5501666406076 302.5370800826639
    vertex 7.885632000426609 685.0425280015135 302.47031012783106
  endloop
endfacet
facet normal -0.06923670882216923 -0.11306026775543841 0.991172867872473
  outer loop
    vertex 8.01254166020008 685.5501666406076 302.5370800826639
    vertex 29.232845973271044 680.713385530377 303.4676707932679
    vertex 36.15767704835741 681.7159822786417 304.06575654481844
  endloop
endfacet
facet normal -0.06923670882216923 -0.11306026775543841 0.991172867872473
  outer loop
    vertex 36.15767704835741 681.7159822786417 304.06575654481844
    vertex 29.232845973271044 680.713385530377 303.4676707932679
    vertex 35.4743215437206 680.9828491600479 303.9343954906517
  endloop
endfacet
facet normal 0.9238795325112996 -0.3826834323650591 -7.538241709445936e-13
  outer loop
    vertex 35.20710678118723 628.9999999998148 300.50000000126744
    vertex 34.79289321881418 627.999999999815 300.00000000126556
    vertex 35.20710678118723 628.999999999815 300.0000000012675
  endloop
endfacet
facet normal 0.9238795325112996 -0.3826834323650591 -7.538241709445936e-13
  outer loop
    vertex 34.79289321881418 627.999999999815 300.00000000126556
    vertex 35.20710678118723 628.9999999998148 300.50000000126744
    vertex 34.79289321881418 627.9999999998148 300.5000000012655
  endloop
endfacet
facet normal -0.17393814534188748 -0.31731106123547187 0.9322334536008903
  outer loop
    vertex 42.03313757972724 693.9874666499513 304.96686242166913
    vertex 17.524691261242666 703.4999999998081 303.63187316467514
    vertex 14.282041722731401 703.4999999998095 303.02685256115205
  endloop
endfacet
facet normal -0.17393814534188748 -0.31731106123547187 0.9322334536008903
  outer loop
    vertex 17.524691261242666 703.4999999998081 303.63187316467514
    vertex 42.03313757972724 693.9874666499513 304.96686242166913
    vertex 41.20176479230287 696.8856983157723 305.7982352090991
  endloop
endfacet
facet normal -0.04935969619809417 0.03562844908846251 0.9981453972276699
  outer loop
    vertex 36.15767704835741 681.7159822786417 304.06575654481844
    vertex 10.303290117527505 694.7131604699169 302.3232909775714
    vertex 8.01254166020008 685.5501666406076 302.5370800826639
  endloop
endfacet
facet normal -0.04935969619809417 0.03562844908846251 0.9981453972276699
  outer loop
    vertex 10.303290117527505 694.7131604699169 302.3232909775714
    vertex 36.15767704835741 681.7159822786417 304.06575654481844
    vertex 40.82388126466167 686.4061865620813 304.12909172440607
  endloop
endfacet
facet normal -0.1165465647288201 -0.21754339208548226 0.9690674748488123
  outer loop
    vertex 40.82388126466167 686.4061865620813 304.12909172440607
    vertex 10.463399705776048 695.3535988229113 302.48631714274853
    vertex 10.303290117527505 694.7131604699169 302.3232909775714
  endloop
endfacet
facet normal -0.1165465647288201 -0.21754339208548226 0.9690674748488123
  outer loop
    vertex 10.463399705776048 695.3535988229113 302.48631714274853
    vertex 40.82388126466167 686.4061865620813 304.12909172440607
    vertex 42.172242056585766 688.7960908780054 304.8277579448003
  endloop
endfacet
facet normal -0.1165465647288201 -0.21754339208548226 0.9690674748488123
  outer loop
    vertex 42.172242056585766 688.7960908780054 304.8277579448003
    vertex 40.82388126466167 686.4061865620813 304.12909172440607
    vertex 42.310673345910615 688.105272601391 304.6893266554741
  endloop
endfacet
facet normal -0.07953940325017111 -0.028830514561550766 0.9964147152469814
  outer loop
    vertex 42.172242056585766 688.7960908780054 304.8277579448003
    vertex 12.500000000000767 703.4999999998095 302.88460001005666
    vertex 10.463399705776048 695.3535988229113 302.48631714274853
  endloop
endfacet
facet normal -0.07953940325017111 -0.028830514561550766 0.9964147152469814
  outer loop
    vertex 12.500000000000767 703.4999999998095 302.88460001005666
    vertex 42.172242056585766 688.7960908780054 304.8277579448003
    vertex 14.282041722731401 703.4999999998095 303.02685256115205
  endloop
endfacet
facet normal -0.07953940325017111 -0.028830514561550766 0.9964147152469814
  outer loop
    vertex 14.282041722731401 703.4999999998095 303.02685256115205
    vertex 42.172242056585766 688.7960908780054 304.8277579448003
    vertex 42.03313757972724 693.9874666499513 304.96686242166913
  endloop
endfacet
endsolid ProtoGlove baseplate
