solid ProtoGlove baseplate
facet normal -0.04435346540012283 0.22643460793244 0.9730160011209901
  outer loop
    vertex 140.46467399381083 626.1150323963017 305.4257098888682
    vertex 170.4541198576713 634.1619708973432 304.9200969138693
    vertex 136.50820166747107 629.688077664069 304.4138618189182
  endloop
endfacet
facet normal -0.04435346540012283 0.22643460793244 0.9730160011209901
  outer loop
    vertex 170.4541198576713 634.1619708973432 304.9200969138693
    vertex 140.46467399381083 626.1150323963017 305.4257098888682
    vertex 170.41061733173274 633.8296680417388 304.9954454990519
  endloop
endfacet
facet normal -0.008963808571514603 -0.15341192518959357 0.9881216682906595
  outer loop
    vertex 172.57244402373033 658.4058722280494 301.2510518314022
    vertex 100.1581514530229 663.1843935384156 301.3360355940622
    vertex 100.12780584113126 663.0478382849029 301.314559274624
  endloop
endfacet
facet normal -0.008963808571514603 -0.15341192518959357 0.9881216682906595
  outer loop
    vertex 100.1581514530229 663.1843935384156 301.3360355940622
    vertex 172.57244402373033 658.4058722280494 301.2510518314022
    vertex 172.144545806924 663.2045443310768 301.99219328338785
  endloop
endfacet
facet normal -0.008963808571514732 0.1534119251856972 0.9881216682912644
  outer loop
    vertex 98.82999340062659 643.8159782458775 301.32392940192295
    vertex 172.57244402373033 648.5941277715783 301.25105183138277
    vertex 98.82176819048459 643.8684759845537 301.31570419178104
  endloop
endfacet
facet normal -0.008963808571514732 0.1534119251856972 0.9881216682912644
  outer loop
    vertex 172.57244402373033 648.5941277715783 301.25105183138277
    vertex 98.82999340062659 643.8159782458775 301.32392940192295
    vertex 172.14454580692433 643.7954556685479 301.9921932833496
  endloop
endfacet
facet normal 2.1494346359932563e-16 -1.969496933063062e-12 1.0
  outer loop
    vertex 173.0060640000005 652.999999999816 300.50000000131473
    vertex 98.00606400000058 653.499999999816 300.5000000013158
    vertex 98.00606400000058 652.999999999816 300.50000000131473
  endloop
endfacet
facet normal 2.1494346359932563e-16 -1.969496933063062e-12 1.0
  outer loop
    vertex 98.00606400000058 653.499999999816 300.5000000013158
    vertex 173.0060640000005 652.999999999816 300.50000000131473
    vertex 98.11717511111166 653.999999999816 300.5000000013167
  endloop
endfacet
facet normal 2.1494346359932563e-16 -1.969496933063062e-12 1.0
  outer loop
    vertex 98.11717511111166 653.999999999816 300.5000000013167
    vertex 173.0060640000005 652.999999999816 300.50000000131473
    vertex 173.0060640000005 653.999999999816 300.5000000013167
  endloop
endfacet
facet normal -0.009043540797730218 0.09782982126762266 0.9951620674244898
  outer loop
    vertex 99.76419596569175 634.3992743709481 302.2581319669694
    vertex 172.14454580692433 643.7954556685479 301.9921932833496
    vertex 98.82999340062659 643.8159782458775 301.32392940192295
  endloop
endfacet
facet normal -0.009043540797730218 0.09782982126762266 0.9951620674244898
  outer loop
    vertex 172.14454580692433 643.7954556685479 301.9921932833496
    vertex 99.76419596569175 634.3992743709481 302.2581319669694
    vertex 172.13824649437186 643.6838852703963 302.00310401274265
  endloop
endfacet
facet normal -0.0234486851455633 0.1625478541263114 0.986421996046254
  outer loop
    vertex 100.06410553035994 632.6882108313678 302.5580415316342
    vertex 171.43578901326745 638.9682255191171 303.21979606016305
    vertex 99.79365129810557 634.2904479625669 302.2875872993832
  endloop
endfacet
facet normal -0.0234486851455633 0.1625478541263114 0.986421996046254
  outer loop
    vertex 171.43578901326745 638.9682255191171 303.21979606016305
    vertex 100.06410553035994 632.6882108313678 302.5580415316342
    vertex 132.66442520088742 633.096763259148 303.26567509410836
  endloop
endfacet
facet normal -0.0234486851455633 0.1625478541263114 0.986421996046254
  outer loop
    vertex 171.43578901326745 638.9682255191171 303.21979606016305
    vertex 132.66442520088742 633.096763259148 303.26567509410836
    vertex 134.26573902231618 631.6031406461726 303.5498677168959
  endloop
endfacet
facet normal -0.0234486851455633 0.1625478541263114 0.986421996046254
  outer loop
    vertex 171.43578901326745 638.9682255191171 303.21979606016305
    vertex 134.26573902231618 631.6031406461726 303.5498677168959
    vertex 171.41665789546494 638.7643794203052 303.25293212820196
  endloop
endfacet
facet normal -0.029151309691670367 -0.25379246774263453 0.9668193132433611
  outer loop
    vertex 172.13824649437186 663.3161147292284 302.0031040127813
    vertex 102.23936673753727 672.5498623187275 302.3194109919348
    vertex 102.18174982165307 672.2905861972483 302.2496131151951
  endloop
endfacet
facet normal -0.029151309691670367 -0.25379246774263453 0.9668193132433611
  outer loop
    vertex 102.23936673753727 672.5498623187275 302.3194109919348
    vertex 172.13824649437186 663.3161147292284 302.0031040127813
    vertex 171.43578901326745 668.0317744805028 303.2197960602203
  endloop
endfacet
facet normal -0.10146151595159156 -0.4435095737088603 0.8905081800912275
  outer loop
    vertex 170.41061733173274 673.1703319578742 304.99544549912946
    vertex 142.92943611320504 682.8688946669724 306.69461361454603
    vertex 140.46467399381083 680.8849676033109 305.4257098889762
  endloop
endfacet
facet normal -0.10146151595159156 -0.4435095737088603 0.8905081800912275
  outer loop
    vertex 142.92943611320504 682.8688946669724 306.69461361454603
    vertex 170.41061733173274 673.1703319578742 304.99544549912946
    vertex 169.20709459786127 677.6311854255514 307.08000802226786
  endloop
endfacet
facet normal -0.1014615159515941 0.4435095737053481 0.8905081800929765
  outer loop
    vertex 142.92943611320467 624.1311053326338 306.6946136144302
    vertex 170.41061733173274 633.8296680417388 304.9954454990519
    vertex 140.46467399381083 626.1150323963017 305.4257098888682
  endloop
endfacet
facet normal -0.1014615159515941 0.4435095737053481 0.8905081800929765
  outer loop
    vertex 170.41061733173274 633.8296680417388 304.9954454990519
    vertex 142.92943611320467 624.1311053326338 306.6946136144302
    vertex 169.20709459786164 629.368814574054 307.0800080221727
  endloop
endfacet
facet normal -0.15184418293215696 0.5290098709899196 0.8349202958994916
  outer loop
    vertex 148.6365513588627 619.4701373597865 309.4553527829791
    vertex 169.1238991733199 628.8722250740474 307.2241067244354
    vertex 146.04256597690585 621.4177419697656 307.74958079334095
  endloop
endfacet
facet normal -0.15184418293215696 0.5290098709899196 0.8349202958994916
  outer loop
    vertex 169.1238991733199 628.8722250740474 307.2241067244354
    vertex 148.6365513588627 619.4701373597865 309.4553527829791
    vertex 167.70259558244558 624.578924379934 309.6858767568007
  endloop
endfacet
facet normal 0.7071067811864769 -0.7071067811866182 -1.3928854452962489e-12
  outer loop
    vertex 132.79895721881257 676.499999999816 300.50000000136106
    vertex 134.60378472220327 678.3048275032068 300.0000000013647
    vertex 134.60378472220327 678.3048275032064 300.50000000136475
  endloop
endfacet
facet normal 0.7071067811864769 -0.7071067811866182 -1.3928854452962489e-12
  outer loop
    vertex 134.60378472220327 678.3048275032068 300.0000000013647
    vertex 132.79895721881257 676.499999999816 300.50000000136106
    vertex 132.79895721881257 676.4999999998165 300.00000000136106
  endloop
endfacet
facet normal -0.06020403665420886 0.3510699023600432 0.934411792320414
  outer loop
    vertex 136.50820166747107 629.688077664069 304.4138618189182
    vertex 171.41665789546494 638.7643794203052 303.25293212820196
    vertex 134.26573902231618 631.6031406461726 303.5498677168959
  endloop
endfacet
facet normal -0.06020403665420886 0.3510699023600432 0.934411792320414
  outer loop
    vertex 171.41665789546494 638.7643794203052 303.25293212820196
    vertex 136.50820166747107 629.688077664069 304.4138618189182
    vertex 170.4541198576713 634.1619708973432 304.9200969138693
  endloop
endfacet
facet normal -0.07160740951297744 0.2890119836016198 0.9546436257774406
  outer loop
    vertex 146.04256597690585 621.4177419697656 307.74958079334095
    vertex 169.20709459786164 629.368814574054 307.0800080221727
    vertex 142.92943611320467 624.1311053326338 306.6946136144302
  endloop
endfacet
facet normal -0.07160740951297744 0.2890119836016198 0.9546436257774406
  outer loop
    vertex 169.20709459786164 629.368814574054 307.0800080221727
    vertex 146.04256597690585 621.4177419697656 307.74958079334095
    vertex 169.1238991733199 628.8722250740474 307.2241067244354
  endloop
endfacet
facet normal -0.023448685145563232 -0.16254785413019696 0.9864219960456136
  outer loop
    vertex 171.43578901326745 668.0317744805028 303.2197960602203
    vertex 102.62377754417331 674.279710948589 302.61360263799367
    vertex 102.23936673753727 672.5498623187275 302.3194109919348
  endloop
endfacet
facet normal -0.023448685145563232 -0.16254785413019696 0.9864219960456136
  outer loop
    vertex 102.62377754417331 674.279710948589 302.61360263799367
    vertex 171.43578901326745 668.0317744805028 303.2197960602203
    vertex 132.66442520088668 673.9032367404719 303.2656750941888
  endloop
endfacet
facet normal -0.023448685145563232 -0.16254785413019696 0.9864219960456136
  outer loop
    vertex 132.66442520088668 673.9032367404719 303.2656750941888
    vertex 171.43578901326745 668.0317744805028 303.2197960602203
    vertex 134.2657390223158 675.3968593534468 303.5498677169822
  endloop
endfacet
facet normal -0.023448685145563232 -0.16254785413019696 0.9864219960456136
  outer loop
    vertex 134.2657390223158 675.3968593534468 303.5498677169822
    vertex 171.43578901326745 668.0317744805028 303.2197960602203
    vertex 171.41665789546494 668.2356205793146 303.2529321282601
  endloop
endfacet
facet normal -0.0291513096916704 0.25379246773882796 0.9668193132443603
  outer loop
    vertex 99.79365129810557 634.2904479625669 302.2875872993832
    vertex 172.13824649437186 643.6838852703963 302.00310401274265
    vertex 99.76419596569175 634.3992743709481 302.2581319669694
  endloop
endfacet
facet normal -0.0291513096916704 0.25379246773882796 0.9668193132443603
  outer loop
    vertex 172.13824649437186 643.6838852703963 302.00310401274265
    vertex 99.79365129810557 634.2904479625669 302.2875872993832
    vertex 171.43578901326745 638.9682255191171 303.21979606016305
  endloop
endfacet
facet normal 0.6830127018922179 0.6830127018917185 0.2588190451038468
  outer loop
    vertex 133.44692161836954 628.6145255947052 303.7657374672779
    vertex 134.0196445173722 629.2793127012578 300.50000000126806
    vertex 132.79895721881402 630.499999999816 300.5000000012705
  endloop
endfacet
facet normal 0.6830127018922179 0.6830127018917185 0.2588190451038468
  outer loop
    vertex 134.0196445173722 629.2793127012578 300.50000000126806
    vertex 133.44692161836954 628.6145255947052 303.7657374672779
    vertex 140.50606400000066 622.7928932186295 300.50000000125533
  endloop
endfacet
facet normal 0.6830127018922179 0.6830127018917185 0.2588190451038468
  outer loop
    vertex 140.50606400000066 622.7928932186295 300.50000000125533
    vertex 133.44692161836954 628.6145255947052 303.7657374672779
    vertex 133.67682470462034 628.3702813729926 303.80358312765253
  endloop
endfacet
facet normal 0.6830127018922179 0.6830127018917185 0.2588190451038468
  outer loop
    vertex 140.50606400000066 622.7928932186295 300.50000000125533
    vertex 133.67682470462034 628.3702813729926 303.80358312765253
    vertex 137.71733724422606 624.3127506604551 303.8484933786305
  endloop
endfacet
facet normal 0.6830127018922179 0.6830127018917185 0.2588190451038468
  outer loop
    vertex 140.50606400000066 622.7928932186295 300.50000000125533
    vertex 137.71733724422606 624.3127506604551 303.8484933786305
    vertex 138.42286903999099 623.5182816614223 304.08319496126626
  endloop
endfacet
facet normal 0.6830127018922179 0.6830127018917185 0.2588190451038468
  outer loop
    vertex 140.50606400000066 622.7928932186295 300.50000000125533
    vertex 138.42286903999099 623.5182816614223 304.08319496126626
    vertex 140.50606400000066 622.2244871456815 302.0000000012542
  endloop
endfacet
facet normal 0.8660254037844433 -9.834646354172814e-13 0.4999999999999924
  outer loop
    vertex 172.6932746522012 652.6872106520151 301.04176704376874
    vertex 173.0060640000005 625.999999999816 300.5000000012616
    vertex 173.0060640000005 652.999999999816 300.50000000131473
  endloop
endfacet
facet normal 0.8660254037844433 -9.834646354172814e-13 0.4999999999999924
  outer loop
    vertex 173.0060640000005 625.999999999816 300.5000000012616
    vertex 172.6932746522012 652.6872106520151 301.04176704376874
    vertex 172.57349819959586 648.6500470103986 301.24922594522343
  endloop
endfacet
facet normal 0.8660254037844433 -9.834646354172814e-13 0.4999999999999924
  outer loop
    vertex 173.0060640000005 625.999999999816 300.5000000012616
    vertex 172.57349819959586 648.6500470103986 301.24922594522343
    vertex 172.57244402373033 648.5941277715783 301.25105183138277
  endloop
endfacet
facet normal 0.8660254037844433 -9.834646354172814e-13 0.4999999999999924
  outer loop
    vertex 173.0060640000005 625.999999999816 300.5000000012616
    vertex 172.57244402373033 648.5941277715783 301.25105183138277
    vertex 172.14454580692433 643.7954556685479 301.9921932833496
  endloop
endfacet
facet normal 0.8660254037844433 -9.834646354172814e-13 0.4999999999999924
  outer loop
    vertex 173.0060640000005 625.999999999816 300.5000000012616
    vertex 172.14454580692433 643.7954556685479 301.9921932833496
    vertex 172.13824649437186 643.6838852703963 302.00310401274265
  endloop
endfacet
facet normal 0.8660254037844433 -9.834646354172814e-13 0.4999999999999924
  outer loop
    vertex 173.0060640000005 625.999999999816 300.5000000012616
    vertex 172.13824649437186 643.6838852703963 302.00310401274265
    vertex 171.43578901326745 638.9682255191171 303.21979606016305
  endloop
endfacet
facet normal 0.8660254037844433 -9.834646354172814e-13 0.4999999999999924
  outer loop
    vertex 173.0060640000005 625.999999999816 300.5000000012616
    vertex 171.43578901326745 638.9682255191171 303.21979606016305
    vertex 171.41665789546494 638.7643794203052 303.25293212820196
  endloop
endfacet
facet normal 0.8660254037844433 -9.834646354172814e-13 0.4999999999999924
  outer loop
    vertex 173.0060640000005 625.999999999816 300.5000000012616
    vertex 171.41665789546494 638.7643794203052 303.25293212820196
    vertex 170.4541198576713 634.1619708973432 304.9200969138693
  endloop
endfacet
facet normal 0.8660254037844433 -9.834646354172814e-13 0.4999999999999924
  outer loop
    vertex 173.0060640000005 625.999999999816 300.5000000012616
    vertex 170.4541198576713 634.1619708973432 304.9200969138693
    vertex 170.41061733173274 633.8296680417388 304.9954454990519
  endloop
endfacet
facet normal 0.8660254037844433 -9.834646354172814e-13 0.4999999999999924
  outer loop
    vertex 173.0060640000005 625.999999999816 300.5000000012616
    vertex 170.41061733173274 633.8296680417388 304.9954454990519
    vertex 169.20709459786164 629.368814574054 307.0800080221727
  endloop
endfacet
facet normal 0.8660254037844433 -9.834646354172814e-13 0.4999999999999924
  outer loop
    vertex 173.0060640000005 625.999999999816 300.5000000012616
    vertex 169.20709459786164 629.368814574054 307.0800080221727
    vertex 169.1238991733199 628.8722250740474 307.2241067244354
  endloop
endfacet
facet normal 0.8660254037844433 -9.834646354172814e-13 0.4999999999999924
  outer loop
    vertex 173.0060640000005 625.999999999816 300.5000000012616
    vertex 169.1238991733199 628.8722250740474 307.2241067244354
    vertex 167.70259558244558 624.578924379934 309.6858767568007
  endloop
endfacet
facet normal 0.8660254037844433 -9.834646354172814e-13 0.4999999999999924
  outer loop
    vertex 173.0060640000005 625.999999999816 300.5000000012616
    vertex 167.70259558244558 624.578924379934 309.6858767568007
    vertex 167.56077946016688 623.8823893454171 309.9315094859186
  endloop
endfacet
facet normal -0.07160740951297297 -0.28901198360537533 0.9546436257763039
  outer loop
    vertex 169.20709459786127 677.6311854255514 307.08000802226786
    vertex 146.0425659769066 685.5822580298361 307.74958079346743
    vertex 142.92943611320504 682.8688946669724 306.69461361454603
  endloop
endfacet
facet normal -0.07160740951297297 -0.28901198360537533 0.9546436257763039
  outer loop
    vertex 146.0425659769066 685.5822580298361 307.74958079346743
    vertex 169.20709459786127 677.6311854255514 307.08000802226786
    vertex 169.12389917331956 678.1277749255569 307.22410672453236
  endloop
endfacet
facet normal -0.6830127018922152 -0.6830127018927311 0.25881904510118087
  outer loop
    vertex 148.6365513588627 619.4701373597865 309.4553527829791
    vertex 148.3151808824551 616.3979898985483 300.50000000124277
    vertex 151.03868610238757 617.4571308173913 310.4822459311652
  endloop
endfacet
facet normal -0.6830127018922152 -0.6830127018927311 0.25881904510118087
  outer loop
    vertex 148.3151808824551 616.3979898985483 300.50000000124277
    vertex 148.6365513588627 619.4701373597865 309.4553527829791
    vertex 146.04256597690585 621.4177419697656 307.74958079334095
  endloop
endfacet
facet normal -0.6830127018922152 -0.6830127018927311 0.25881904510118087
  outer loop
    vertex 148.3151808824551 616.3979898985483 300.50000000124277
    vertex 146.04256597690585 621.4177419697656 307.74958079334095
    vertex 142.92943611320467 624.1311053326338 306.6946136144302
  endloop
endfacet
facet normal -0.6830127018922152 -0.6830127018927311 0.25881904510118087
  outer loop
    vertex 148.3151808824551 616.3979898985483 300.50000000124277
    vertex 142.92943611320467 624.1311053326338 306.6946136144302
    vertex 140.46467399381083 626.1150323963017 305.4257098888682
  endloop
endfacet
facet normal -0.6830127018922152 -0.6830127018927311 0.25881904510118087
  outer loop
    vertex 148.3151808824551 616.3979898985483 300.50000000124277
    vertex 140.46467399381083 626.1150323963017 305.4257098888682
    vertex 136.50820166747107 629.688077664069 304.4138618189182
  endloop
endfacet
facet normal -0.6830127018922152 -0.6830127018927311 0.25881904510118087
  outer loop
    vertex 148.3151808824551 616.3979898985483 300.50000000124277
    vertex 136.50820166747107 629.688077664069 304.4138618189182
    vertex 134.26573902231618 631.6031406461726 303.5498677168959
  endloop
endfacet
facet normal -0.6830127018922152 -0.6830127018927311 0.25881904510118087
  outer loop
    vertex 148.3151808824551 616.3979898985483 300.50000000124277
    vertex 134.26573902231618 631.6031406461726 303.5498677168959
    vertex 132.66442520088742 633.096763259148 303.26567509410836
  endloop
endfacet
facet normal -0.6830127018922152 -0.6830127018927311 0.25881904510118087
  outer loop
    vertex 148.3151808824551 616.3979898985483 300.50000000124277
    vertex 132.66442520088742 633.096763259148 303.26567509410836
    vertex 133.21317078118707 631.499999999816 300.5000000012725
  endloop
endfacet
facet normal -4.089147096952633e-17 -0.8660254037854216 0.49999999999829764
  outer loop
    vertex 100.06410553035994 632.6882108313678 302.5580415316342
    vertex 133.21317078118707 631.499999999816 300.5000000012725
    vertex 132.66442520088742 633.096763259148 303.26567509410836
  endloop
endfacet
facet normal -4.089147096952633e-17 -0.8660254037854216 0.49999999999829764
  outer loop
    vertex 133.21317078118707 631.499999999816 300.5000000012725
    vertex 100.06410553035994 632.6882108313678 302.5580415316342
    vertex 98.00606400000058 631.499999999816 300.5000000012725
  endloop
endfacet
facet normal -0.6830127018921767 0.6830127018917148 0.25881904510396525
  outer loop
    vertex 133.21317078118562 675.499999999816 300.5000000013591
    vertex 151.03868610238828 689.5428691822011 310.48224593130726
    vertex 148.3151808824551 690.6020101010838 300.5000000013891
  endloop
endfacet
facet normal -0.6830127018921767 0.6830127018917148 0.25881904510396525
  outer loop
    vertex 151.03868610238828 689.5428691822011 310.48224593130726
    vertex 133.21317078118562 675.499999999816 300.5000000013591
    vertex 146.0425659769066 685.5822580298361 307.74958079346743
  endloop
endfacet
facet normal -0.6830127018921767 0.6830127018917148 0.25881904510396525
  outer loop
    vertex 151.03868610238828 689.5428691822011 310.48224593130726
    vertex 146.0425659769066 685.5822580298361 307.74958079346743
    vertex 148.63655135886378 687.5298626398089 309.4553527831133
  endloop
endfacet
facet normal -0.6830127018921767 0.6830127018917148 0.25881904510396525
  outer loop
    vertex 146.0425659769066 685.5822580298361 307.74958079346743
    vertex 133.21317078118562 675.499999999816 300.5000000013591
    vertex 142.92943611320504 682.8688946669724 306.69461361454603
  endloop
endfacet
facet normal -0.6830127018921767 0.6830127018917148 0.25881904510396525
  outer loop
    vertex 142.92943611320504 682.8688946669724 306.69461361454603
    vertex 133.21317078118562 675.499999999816 300.5000000013591
    vertex 140.46467399381083 680.8849676033109 305.4257098889762
  endloop
endfacet
facet normal -0.6830127018921767 0.6830127018917148 0.25881904510396525
  outer loop
    vertex 140.46467399381083 680.8849676033109 305.4257098889762
    vertex 133.21317078118562 675.499999999816 300.5000000013591
    vertex 136.50820166747107 677.3119223355465 304.4138618190121
  endloop
endfacet
facet normal -0.6830127018921767 0.6830127018917148 0.25881904510396525
  outer loop
    vertex 136.50820166747107 677.3119223355465 304.4138618190121
    vertex 133.21317078118562 675.499999999816 300.5000000013591
    vertex 134.2657390223158 675.3968593534468 303.5498677169822
  endloop
endfacet
facet normal -0.6830127018921767 0.6830127018917148 0.25881904510396525
  outer loop
    vertex 134.2657390223158 675.3968593534468 303.5498677169822
    vertex 133.21317078118562 675.499999999816 300.5000000013591
    vertex 132.66442520088668 673.9032367404719 303.2656750941888
  endloop
endfacet
facet normal 0.8660254037844387 -9.86098836887299e-13 0.5000000000000002
  outer loop
    vertex 167.70259558244558 682.4210756196605 309.68587675691464
    vertex 173.0060640000005 680.999999999816 300.5000000013699
    vertex 167.56077946016688 683.1176106541764 309.9315094860352
  endloop
endfacet
facet normal 0.8660254037844387 -9.86098836887299e-13 0.5000000000000002
  outer loop
    vertex 173.0060640000005 680.999999999816 300.5000000013699
    vertex 167.70259558244558 682.4210756196605 309.68587675691464
    vertex 169.12389917331956 678.1277749255569 307.22410672453236
  endloop
endfacet
facet normal 0.8660254037844387 -9.86098836887299e-13 0.5000000000000002
  outer loop
    vertex 173.0060640000005 680.999999999816 300.5000000013699
    vertex 169.12389917331956 678.1277749255569 307.22410672453236
    vertex 170.41061733173274 673.1703319578742 304.99544549912946
  endloop
endfacet
facet normal 0.8660254037844387 -9.86098836887299e-13 0.5000000000000002
  outer loop
    vertex 173.0060640000005 680.999999999816 300.5000000013699
    vertex 170.41061733173274 673.1703319578742 304.99544549912946
    vertex 171.41665789546494 668.2356205793146 303.2529321282601
  endloop
endfacet
facet normal 0.8660254037844387 -9.86098836887299e-13 0.5000000000000002
  outer loop
    vertex 173.0060640000005 680.999999999816 300.5000000013699
    vertex 171.41665789546494 668.2356205793146 303.2529321282601
    vertex 172.13824649437186 663.3161147292284 302.0031040127813
  endloop
endfacet
facet normal 0.8660254037844387 -9.86098836887299e-13 0.5000000000000002
  outer loop
    vertex 173.0060640000005 680.999999999816 300.5000000013699
    vertex 172.13824649437186 663.3161147292284 302.0031040127813
    vertex 173.0060640000005 654.499999999816 300.5000000013177
  endloop
endfacet
facet normal 0.8660254037844387 -9.86098836887299e-13 0.5000000000000002
  outer loop
    vertex 170.41061733173274 673.1703319578742 304.99544549912946
    vertex 169.12389917331956 678.1277749255569 307.22410672453236
    vertex 169.20709459786127 677.6311854255514 307.08000802226786
  endloop
endfacet
facet normal 0.8660254037844387 -9.86098836887299e-13 0.5000000000000002
  outer loop
    vertex 171.41665789546494 668.2356205793146 303.2529321282601
    vertex 170.41061733173274 673.1703319578742 304.99544549912946
    vertex 170.4541198576713 672.8380291022701 304.9200969139455
  endloop
endfacet
facet normal 0.8660254037844387 -9.86098836887299e-13 0.5000000000000002
  outer loop
    vertex 172.13824649437186 663.3161147292284 302.0031040127813
    vertex 171.41665789546494 668.2356205793146 303.2529321282601
    vertex 171.43578901326745 668.0317744805028 303.2197960602203
  endloop
endfacet
facet normal 0.8660254037844387 -9.86098836887299e-13 0.5000000000000002
  outer loop
    vertex 173.0060640000005 654.499999999816 300.5000000013177
    vertex 172.13824649437186 663.3161147292284 302.0031040127813
    vertex 172.144545806924 663.2045443310768 301.99219328338785
  endloop
endfacet
facet normal 0.8660254037844387 -9.86098836887299e-13 0.5000000000000002
  outer loop
    vertex 173.0060640000005 654.499999999816 300.5000000013177
    vertex 172.144545806924 663.2045443310768 301.99219328338785
    vertex 172.57244402373033 658.4058722280494 301.2510518314022
  endloop
endfacet
facet normal 0.8660254037844387 -9.86098836887299e-13 0.5000000000000002
  outer loop
    vertex 173.0060640000005 654.499999999816 300.5000000013177
    vertex 172.57244402373033 658.4058722280494 301.2510518314022
    vertex 172.57349819959586 658.3499529892291 301.2492259452426
  endloop
endfacet
facet normal 0.8660254037844387 -9.86098836887299e-13 0.5000000000000002
  outer loop
    vertex 173.0060640000005 654.499999999816 300.5000000013177
    vertex 172.57349819959586 658.3499529892291 301.2492259452426
    vertex 172.6932746522012 654.3127893476135 301.04176704377187
  endloop
endfacet
facet normal 0.8660254037844387 -9.86098836887299e-13 0.5000000000000002
  outer loop
    vertex 173.0060640000005 654.499999999816 300.5000000013177
    vertex 172.6932746522012 654.3127893476135 301.04176704377187
    vertex 173.0060640000005 653.999999999816 300.5000000013167
  endloop
endfacet
facet normal -0.0012164098118077964 -0.03265769027382232 0.9994658551512148
  outer loop
    vertex 110.50260084116601 654.3127893476135 301.04176704377187
    vertex 100.12780584113126 663.0478382849029 301.314559274624
    vertex 98.18472344952619 654.3039675226809 301.02648719477304
  endloop
endfacet
facet normal -0.0012164098118077964 -0.03265769027382232 0.9994658551512148
  outer loop
    vertex 100.12780584113126 663.0478382849029 301.314559274624
    vertex 110.50260084116601 654.3127893476135 301.04176704377187
    vertex 172.57244402373033 658.4058722280494 301.2510518314022
  endloop
endfacet
facet normal -0.0012164098118077964 -0.03265769027382232 0.9994658551512148
  outer loop
    vertex 172.57244402373033 658.4058722280494 301.2510518314022
    vertex 110.50260084116601 654.3127893476135 301.04176704377187
    vertex 172.57349819959586 658.3499529892291 301.2492259452426
  endloop
endfacet
facet normal -0.06020403665420827 -0.35106990236372676 0.9344117923190302
  outer loop
    vertex 171.41665789546494 668.2356205793146 303.2529321282601
    vertex 136.50820166747107 677.3119223355465 304.4138618190121
    vertex 134.2657390223158 675.3968593534468 303.5498677169822
  endloop
endfacet
facet normal -0.06020403665420827 -0.35106990236372676 0.9344117923190302
  outer loop
    vertex 136.50820166747107 677.3119223355465 304.4138618190121
    vertex 171.41665789546494 668.2356205793146 303.2529321282601
    vertex 170.4541198576713 672.8380291022701 304.9200969139455
  endloop
endfacet
facet normal 1.9990824731346375e-16 0.8660254037834499 0.5000000000017123
  outer loop
    vertex 173.0060640000005 652.999999999816 300.50000000131473
    vertex 110.50260084116529 652.6872106520151 301.04176704376874
    vertex 172.6932746522012 652.6872106520151 301.04176704376874
  endloop
endfacet
facet normal 1.9990824731346375e-16 0.8660254037834499 0.5000000000017123
  outer loop
    vertex 110.50260084116529 652.6872106520151 301.04176704376874
    vertex 173.0060640000005 652.999999999816 300.50000000131473
    vertex 98.53298319616027 652.6957830600703 301.026919197474
  endloop
endfacet
facet normal 1.9990824731346375e-16 0.8660254037834499 0.5000000000017123
  outer loop
    vertex 98.53298319616027 652.6957830600703 301.026919197474
    vertex 173.0060640000005 652.999999999816 300.50000000131473
    vertex 98.00606400000058 652.999999999816 300.50000000131473
  endloop
endfacet
facet normal -0.10495263612509517 -0.34967593693061777 0.9309735137489618
  outer loop
    vertex 167.70259558244558 682.4210756196605 309.68587675691464
    vertex 151.03868610238828 689.5428691822011 310.48224593130726
    vertex 148.63655135886378 687.5298626398089 309.4553527831133
  endloop
endfacet
facet normal -0.10495263612509517 -0.34967593693061777 0.9309735137489618
  outer loop
    vertex 151.03868610238828 689.5428691822011 310.48224593130726
    vertex 167.70259558244558 682.4210756196605 309.68587675691464
    vertex 167.56077946016688 683.1176106541764 309.9315094860352
  endloop
endfacet
facet normal 1.1232597560293805e-16 -0.8660254037854253 0.49999999999829153
  outer loop
    vertex 124.46274515922399 678.0522985058585 303.18865988235336
    vertex 132.79895721881257 676.499999999816 300.50000000136106
    vertex 133.44692161836846 678.3854744049133 303.76573746737574
  endloop
endfacet
facet normal 1.1232597560293805e-16 -0.8660254037854253 0.49999999999829153
  outer loop
    vertex 132.79895721881257 676.499999999816 300.50000000136106
    vertex 124.46274515922399 678.0522985058585 303.18865988235336
    vertex 103.4018802340435 677.7811730530045 302.7190568227823
  endloop
endfacet
facet normal 1.1232597560293805e-16 -0.8660254037854253 0.49999999999829153
  outer loop
    vertex 132.79895721881257 676.499999999816 300.50000000136106
    vertex 103.4018802340435 677.7811730530045 302.7190568227823
    vertex 103.1171751111116 676.499999999816 300.50000000136106
  endloop
endfacet
facet normal -9.349950013617711e-17 0.8660254037834548 0.500000000001704
  outer loop
    vertex 133.21317078118562 675.499999999816 300.5000000013591
    vertex 102.62377754417331 674.279710948589 302.61360263799367
    vertex 132.66442520088668 673.9032367404719 303.2656750941888
  endloop
endfacet
facet normal -9.349950013617711e-17 0.8660254037834548 0.500000000001704
  outer loop
    vertex 102.62377754417331 674.279710948589 302.61360263799367
    vertex 133.21317078118562 675.499999999816 300.5000000013591
    vertex 102.89495288888943 675.499999999816 300.5000000013591
  endloop
endfacet
facet normal -4.412536247412728e-17 -1.0 -1.9640243231584597e-12
  outer loop
    vertex 113.26128406612513 608.4999999998098 303.29960267726165
    vertex 128.00606400000024 608.4999999998164 300.00000000122714
    vertex 128.00606400000024 608.4999999998067 304.8631258199119
  endloop
endfacet
facet normal -4.412536247412728e-17 -1.0 -1.9640243231584597e-12
  outer loop
    vertex 128.00606400000024 608.4999999998164 300.00000000122714
    vertex 113.26128406612513 608.4999999998098 303.29960267726165
    vertex 110.27790345559363 608.4999999998108 302.8194094206659
  endloop
endfacet
facet normal -4.412536247412728e-17 -1.0 -1.9640243231584597e-12
  outer loop
    vertex 128.00606400000024 608.4999999998164 300.00000000122714
    vertex 110.27790345559363 608.4999999998108 302.8194094206659
    vertex 99.5552793764313 608.4999999998123 302.0492153776582
  endloop
endfacet
facet normal -4.412536247412728e-17 -1.0 -1.9640243231584597e-12
  outer loop
    vertex 128.00606400000024 608.4999999998164 300.00000000122714
    vertex 99.5552793764313 608.4999999998123 302.0492153776582
    vertex 98.00606400000058 608.499999999816 300.50000000122714
  endloop
endfacet
facet normal -4.412536247412728e-17 -1.0 -1.9640243231584597e-12
  outer loop
    vertex 128.00606400000024 608.4999999998164 300.00000000122714
    vertex 98.00606400000058 608.499999999816 300.50000000122714
    vertex 98.00606400000058 608.4999999998164 300.00000000122714
  endloop
endfacet
facet normal -0.707106781186565 -1.393538486420295e-12 0.7071067811865301
  outer loop
    vertex 98.00606400000058 631.999999999816 300.5000000012734
    vertex 98.53298319616027 652.6957830600703 301.026919197474
    vertex 98.00606400000058 652.999999999816 300.50000000131473
  endloop
endfacet
facet normal -0.707106781186565 -1.393538486420295e-12 0.7071067811865301
  outer loop
    vertex 98.53298319616027 652.6957830600703 301.026919197474
    vertex 98.00606400000058 631.999999999816 300.5000000012734
    vertex 98.82176819048459 643.8684759845537 301.31570419178104
  endloop
endfacet
facet normal -0.707106781186565 -1.393538486420295e-12 0.7071067811865301
  outer loop
    vertex 98.82176819048459 643.8684759845537 301.31570419178104
    vertex 98.00606400000058 631.999999999816 300.5000000012734
    vertex 98.82999340062659 643.8159782458775 301.32392940192295
  endloop
endfacet
facet normal -0.707106781186565 -1.393538486420295e-12 0.7071067811865301
  outer loop
    vertex 98.82999340062659 643.8159782458775 301.32392940192295
    vertex 98.00606400000058 631.999999999816 300.5000000012734
    vertex 99.76419596569175 634.3992743709481 302.2581319669694
  endloop
endfacet
facet normal -0.707106781186565 -1.393538486420295e-12 0.7071067811865301
  outer loop
    vertex 99.76419596569175 634.3992743709481 302.2581319669694
    vertex 98.00606400000058 631.999999999816 300.5000000012734
    vertex 99.79365129810557 634.2904479625669 302.2875872993832
  endloop
endfacet
facet normal -0.707106781186565 -1.393538486420295e-12 0.7071067811865301
  outer loop
    vertex 99.79365129810557 634.2904479625669 302.2875872993832
    vertex 98.00606400000058 631.999999999816 300.5000000012734
    vertex 100.06410553035994 632.6882108313678 302.5580415316342
  endloop
endfacet
facet normal -0.707106781186565 -1.393538486420295e-12 0.7071067811865301
  outer loop
    vertex 100.06410553035994 632.6882108313678 302.5580415316342
    vertex 98.00606400000058 631.999999999816 300.5000000012734
    vertex 98.00606400000058 631.499999999816 300.5000000012725
  endloop
endfacet
facet normal 2.219351236707369e-17 -0.8660254037854234 0.4999999999982944
  outer loop
    vertex 98.18472344952619 654.3039675226809 301.02648719477304
    vertex 172.6932746522012 654.3127893476135 301.04176704377187
    vertex 110.50260084116601 654.3127893476135 301.04176704377187
  endloop
endfacet
facet normal 2.219351236707369e-17 -0.8660254037854234 0.4999999999982944
  outer loop
    vertex 172.6932746522012 654.3127893476135 301.04176704377187
    vertex 98.18472344952619 654.3039675226809 301.02648719477304
    vertex 173.0060640000005 653.999999999816 300.5000000013167
  endloop
endfacet
facet normal 2.219351236707369e-17 -0.8660254037854234 0.4999999999982944
  outer loop
    vertex 173.0060640000005 653.999999999816 300.5000000013167
    vertex 98.18472344952619 654.3039675226809 301.02648719477304
    vertex 98.11717511111166 653.999999999816 300.5000000013167
  endloop
endfacet
facet normal 0.7071067811865357 -1.3964229355167015e-12 0.7071067811865595
  outer loop
    vertex 140.50606400000066 613.3611111109235 302.0000000012367
    vertex 137.26170836004638 614.6367295162145 305.2443556411933
    vertex 137.02933689941227 612.0090505717991 305.47672710182223
  endloop
endfacet
facet normal 0.7071067811865357 -1.3964229355167015e-12 0.7071067811865595
  outer loop
    vertex 137.26170836004638 614.6367295162145 305.2443556411933
    vertex 140.50606400000066 613.3611111109235 302.0000000012367
    vertex 137.9802126198875 617.3052734145227 304.52585138135754
  endloop
endfacet
facet normal 0.7071067811865357 -1.3964229355167015e-12 0.7071067811865595
  outer loop
    vertex 137.9802126198875 617.3052734145227 304.52585138135754
    vertex 140.50606400000066 613.3611111109235 302.0000000012367
    vertex 138.11678240969366 621.853561215917 304.38928159156046
  endloop
endfacet
facet normal 0.7071067811865357 -1.3964229355167015e-12 0.7071067811865595
  outer loop
    vertex 138.11678240969366 621.853561215917 304.38928159156046
    vertex 140.50606400000066 613.3611111109235 302.0000000012367
    vertex 138.42286903999099 623.5182816614223 304.08319496126626
  endloop
endfacet
facet normal 0.7071067811865357 -1.3964229355167015e-12 0.7071067811865595
  outer loop
    vertex 138.42286903999099 623.5182816614223 304.08319496126626
    vertex 140.50606400000066 613.3611111109235 302.0000000012367
    vertex 140.50606400000066 622.2244871456815 302.0000000012542
  endloop
endfacet
facet normal 0.6830127018921718 -0.6830127018928044 0.25881904510110243
  outer loop
    vertex 137.7173372442257 682.6872493391625 303.8484933787456
    vertex 140.50606400000066 684.7755128539435 302.0000000013774
    vertex 138.42286903999099 683.4817183381942 304.0831949613845
  endloop
endfacet
facet normal 0.6830127018921718 -0.6830127018928044 0.25881904510110243
  outer loop
    vertex 140.50606400000066 684.7755128539435 302.0000000013774
    vertex 137.7173372442257 682.6872493391625 303.8484933787456
    vertex 133.6768247046196 678.6297186266253 303.8035831277515
  endloop
endfacet
facet normal 0.6830127018921718 -0.6830127018928044 0.25881904510110243
  outer loop
    vertex 140.50606400000066 684.7755128539435 302.0000000013774
    vertex 133.6768247046196 678.6297186266253 303.8035831277515
    vertex 133.44692161836846 678.3854744049133 303.76573746737574
  endloop
endfacet
facet normal 0.6830127018921718 -0.6830127018928044 0.25881904510110243
  outer loop
    vertex 140.50606400000066 684.7755128539435 302.0000000013774
    vertex 133.44692161836846 678.3854744049133 303.76573746737574
    vertex 132.79895721881257 676.499999999816 300.50000000136106
  endloop
endfacet
facet normal 0.6830127018921718 -0.6830127018928044 0.25881904510110243
  outer loop
    vertex 140.50606400000066 684.7755128539435 302.0000000013774
    vertex 132.79895721881257 676.499999999816 300.50000000136106
    vertex 134.60378472220327 678.3048275032064 300.50000000136475
  endloop
endfacet
facet normal 0.6830127018921718 -0.6830127018928044 0.25881904510110243
  outer loop
    vertex 140.50606400000066 684.7755128539435 302.0000000013774
    vertex 134.60378472220327 678.3048275032064 300.50000000136475
    vertex 140.50606400000066 684.2071067810027 300.5000000013762
  endloop
endfacet
facet normal 0.7071067811865317 -1.397117608822863e-12 0.7071067811865634
  outer loop
    vertex 137.26170836004638 692.3632704833976 305.2443556413466
    vertex 140.50606400000066 693.6388888887012 302.0000000013949
    vertex 137.02933689941227 694.990949427812 305.4767271019858
  endloop
endfacet
facet normal 0.7071067811865317 -1.397117608822863e-12 0.7071067811865634
  outer loop
    vertex 140.50606400000066 693.6388888887012 302.0000000013949
    vertex 137.26170836004638 692.3632704833976 305.2443556413466
    vertex 137.9802126198875 689.6947265850921 304.5258513815002
  endloop
endfacet
facet normal 0.7071067811865317 -1.397117608822863e-12 0.7071067811865634
  outer loop
    vertex 140.50606400000066 693.6388888887012 302.0000000013949
    vertex 137.9802126198875 689.6947265850921 304.5258513815002
    vertex 138.11678240969331 685.1464387836985 304.38928159168523
  endloop
endfacet
facet normal 0.7071067811865317 -1.397117608822863e-12 0.7071067811865634
  outer loop
    vertex 140.50606400000066 693.6388888887012 302.0000000013949
    vertex 138.11678240969331 685.1464387836985 304.38928159168523
    vertex 138.42286903999099 683.4817183381942 304.0831949613845
  endloop
endfacet
facet normal 0.7071067811865317 -1.397117608822863e-12 0.7071067811865634
  outer loop
    vertex 140.50606400000066 693.6388888887012 302.0000000013949
    vertex 138.42286903999099 683.4817183381942 304.0831949613845
    vertex 140.50606400000066 684.7755128539435 302.0000000013774
  endloop
endfacet
facet normal -0.7071067811865722 -1.3898671353689991e-12 0.7071067811865229
  outer loop
    vertex 98.00606400000058 608.499999999816 300.50000000122714
    vertex 100.15267184041832 629.2606553853014 302.64660784168575
    vertex 98.00606400000058 630.499999999816 300.5000000012705
  endloop
endfacet
facet normal -0.7071067811865722 -1.3898671353689991e-12 0.7071067811865229
  outer loop
    vertex 100.15267184041832 629.2606553853014 302.64660784168575
    vertex 98.00606400000058 608.499999999816 300.50000000122714
    vertex 99.64830356903575 624.2761039424161 302.14223957029355
  endloop
endfacet
facet normal -0.7071067811865722 -1.3898671353689991e-12 0.7071067811865229
  outer loop
    vertex 99.64830356903575 624.2761039424161 302.14223957029355
    vertex 98.00606400000058 608.499999999816 300.50000000122714
    vertex 99.65925664683168 624.17101088027 302.1531926480893
  endloop
endfacet
facet normal -0.7071067811865722 -1.3898671353689991e-12 0.7071067811865229
  outer loop
    vertex 99.65925664683168 624.17101088027 302.1531926480893
    vertex 98.00606400000058 608.499999999816 300.50000000122714
    vertex 99.32765207724407 614.6170787223451 301.8215880784828
  endloop
endfacet
facet normal -0.7071067811865722 -1.3898671353689991e-12 0.7071067811865229
  outer loop
    vertex 99.32765207724407 614.6170787223451 301.8215880784828
    vertex 98.00606400000058 608.499999999816 300.50000000122714
    vertex 99.34598053930243 614.5361873578508 301.8399165405408
  endloop
endfacet
facet normal -0.7071067811865722 -1.3898671353689991e-12 0.7071067811865229
  outer loop
    vertex 99.34598053930243 614.5361873578508 301.8399165405408
    vertex 98.00606400000058 608.499999999816 300.50000000122714
    vertex 99.5552793764313 608.4999999998123 302.0492153776582
  endloop
endfacet
facet normal -5.356951704281066e-16 0.8660254037834585 0.5000000000016981
  outer loop
    vertex 132.79895721881402 630.499999999816 300.5000000012705
    vertex 124.46274515922471 628.9477014937617 303.1886598822567
    vertex 133.44692161836954 628.6145255947052 303.7657374672779
  endloop
endfacet
facet normal -5.356951704281066e-16 0.8660254037834585 0.5000000000016981
  outer loop
    vertex 124.46274515922471 628.9477014937617 303.1886598822567
    vertex 132.79895721881402 630.499999999816 300.5000000012705
    vertex 100.15267184041832 629.2606553853014 302.64660784168575
  endloop
endfacet
facet normal -5.356951704281066e-16 0.8660254037834585 0.5000000000016981
  outer loop
    vertex 100.15267184041832 629.2606553853014 302.64660784168575
    vertex 132.79895721881402 630.499999999816 300.5000000012705
    vertex 98.00606400000058 630.499999999816 300.5000000012705
  endloop
endfacet
facet normal -0.7071067811865404 -0.7071067811865547 -1.4411593608346531e-12
  outer loop
    vertex 133.21317078118707 631.4999999998164 300.0000000012725
    vertex 148.3151808824551 616.3979898985483 300.50000000124277
    vertex 133.21317078118707 631.499999999816 300.5000000012725
  endloop
endfacet
facet normal -0.7071067811865404 -0.7071067811865547 -1.4411593608346531e-12
  outer loop
    vertex 148.3151808824551 616.3979898985483 300.50000000124277
    vertex 133.21317078118707 631.4999999998164 300.0000000012725
    vertex 148.3151808824551 616.3979898985488 300.0000000012428
  endloop
endfacet
facet normal 1.0 0.0 0.0
  outer loop
    vertex 173.0060640000005 680.999999999816 300.5000000013699
    vertex 173.0060640000005 625.9999999998164 300.00000000126164
    vertex 173.0060640000005 680.9999999998164 300.0000000013699
  endloop
endfacet
facet normal 1.0 0.0 0.0
  outer loop
    vertex 173.0060640000005 625.9999999998164 300.00000000126164
    vertex 173.0060640000005 680.999999999816 300.5000000013699
    vertex 173.0060640000005 654.499999999816 300.5000000013177
  endloop
endfacet
facet normal 1.0 0.0 0.0
  outer loop
    vertex 173.0060640000005 625.9999999998164 300.00000000126164
    vertex 173.0060640000005 654.499999999816 300.5000000013177
    vertex 173.0060640000005 653.999999999816 300.5000000013167
  endloop
endfacet
facet normal 1.0 0.0 0.0
  outer loop
    vertex 173.0060640000005 625.9999999998164 300.00000000126164
    vertex 173.0060640000005 653.999999999816 300.5000000013167
    vertex 173.0060640000005 652.999999999816 300.50000000131473
  endloop
endfacet
facet normal 1.0 0.0 0.0
  outer loop
    vertex 173.0060640000005 625.9999999998164 300.00000000126164
    vertex 173.0060640000005 652.999999999816 300.50000000131473
    vertex 173.0060640000005 625.999999999816 300.5000000012616
  endloop
endfacet
facet normal -1.362920808520797e-16 -1.9668543566317674e-12 1.0
  outer loop
    vertex 133.21317078118562 675.499999999816 300.5000000013591
    vertex 103.1171751111116 676.499999999816 300.50000000136106
    vertex 102.89495288888943 675.499999999816 300.5000000013591
  endloop
endfacet
facet normal -1.362920808520797e-16 -1.9668543566317674e-12 1.0
  outer loop
    vertex 103.1171751111116 676.499999999816 300.50000000136106
    vertex 133.21317078118562 675.499999999816 300.5000000013591
    vertex 132.79895721881257 676.499999999816 300.50000000136106
  endloop
endfacet
facet normal 1.0 0.0 0.0
  outer loop
    vertex 140.50606400000066 693.6388888887012 302.0000000013949
    vertex 140.50606400000066 684.207106781003 300.00000000137624
    vertex 140.50606400000066 693.6388888887052 300.0000000013949
  endloop
endfacet
facet normal 1.0 0.0 0.0
  outer loop
    vertex 140.50606400000066 684.207106781003 300.00000000137624
    vertex 140.50606400000066 693.6388888887012 302.0000000013949
    vertex 140.50606400000066 684.7755128539435 302.0000000013774
  endloop
endfacet
facet normal 1.0 0.0 0.0
  outer loop
    vertex 140.50606400000066 684.207106781003 300.00000000137624
    vertex 140.50606400000066 684.7755128539435 302.0000000013774
    vertex 140.50606400000066 684.2071067810027 300.5000000013762
  endloop
endfacet
facet normal -1.0 -0.0 0.0
  outer loop
    vertex 98.00606400000058 608.4999999998164 300.00000000122714
    vertex 98.00606400000058 653.499999999816 300.5000000013158
    vertex 98.00606400000058 653.4999999998164 300.00000000131575
  endloop
endfacet
facet normal -1.0 -0.0 0.0
  outer loop
    vertex 98.00606400000058 653.499999999816 300.5000000013158
    vertex 98.00606400000058 608.4999999998164 300.00000000122714
    vertex 98.00606400000058 652.999999999816 300.50000000131473
  endloop
endfacet
facet normal -1.0 -0.0 0.0
  outer loop
    vertex 98.00606400000058 652.999999999816 300.50000000131473
    vertex 98.00606400000058 608.4999999998164 300.00000000122714
    vertex 98.00606400000058 631.999999999816 300.5000000012734
  endloop
endfacet
facet normal -1.0 -0.0 0.0
  outer loop
    vertex 98.00606400000058 631.999999999816 300.5000000012734
    vertex 98.00606400000058 608.4999999998164 300.00000000122714
    vertex 98.00606400000058 631.499999999816 300.5000000012725
  endloop
endfacet
facet normal -1.0 -0.0 0.0
  outer loop
    vertex 98.00606400000058 631.499999999816 300.5000000012725
    vertex 98.00606400000058 608.4999999998164 300.00000000122714
    vertex 98.00606400000058 630.499999999816 300.5000000012705
  endloop
endfacet
facet normal -1.0 -0.0 0.0
  outer loop
    vertex 98.00606400000058 630.499999999816 300.5000000012705
    vertex 98.00606400000058 608.4999999998164 300.00000000122714
    vertex 98.00606400000058 608.499999999816 300.50000000122714
  endloop
endfacet
facet normal -6.82949374548922e-18 1.9698465551557996e-12 -1.0
  outer loop
    vertex 108.00606400000046 698.4999999998164 300.0000000014045
    vertex 98.00606400000058 608.4999999998164 300.00000000122714
    vertex 98.00606400000058 653.4999999998164 300.00000000131575
  endloop
endfacet
facet normal -6.82949374548922e-18 1.9698465551557996e-12 -1.0
  outer loop
    vertex 98.00606400000058 608.4999999998164 300.00000000122714
    vertex 108.00606400000046 698.4999999998164 300.0000000014045
    vertex 128.00606400000024 608.4999999998164 300.00000000122714
  endloop
endfacet
facet normal -6.82949374548922e-18 1.9698465551557996e-12 -1.0
  outer loop
    vertex 128.00606400000024 608.4999999998164 300.00000000122714
    vertex 108.00606400000046 698.4999999998164 300.0000000014045
    vertex 128.00606400000024 698.4999999998164 300.0000000014045
  endloop
endfacet
facet normal -6.82949374548922e-18 1.9698465551557996e-12 -1.0
  outer loop
    vertex 128.00606400000024 608.4999999998164 300.00000000122714
    vertex 128.00606400000024 698.4999999998164 300.0000000014045
    vertex 132.79895721881257 676.4999999998165 300.00000000136106
  endloop
endfacet
facet normal -6.82949374548922e-18 1.9698465551557996e-12 -1.0
  outer loop
    vertex 132.79895721881257 676.4999999998165 300.00000000136106
    vertex 128.00606400000024 698.4999999998164 300.0000000014045
    vertex 140.50606400000066 693.6388888887052 300.0000000013949
  endloop
endfacet
facet normal -6.82949374548922e-18 1.9698465551557996e-12 -1.0
  outer loop
    vertex 132.79895721881257 676.4999999998165 300.00000000136106
    vertex 140.50606400000066 693.6388888887052 300.0000000013949
    vertex 134.60378472220327 678.3048275032068 300.0000000013647
  endloop
endfacet
facet normal -6.82949374548922e-18 1.9698465551557996e-12 -1.0
  outer loop
    vertex 134.60378472220327 678.3048275032068 300.0000000013647
    vertex 140.50606400000066 693.6388888887052 300.0000000013949
    vertex 140.50606400000066 684.207106781003 300.00000000137624
  endloop
endfacet
facet normal -6.82949374548922e-18 1.9698465551557996e-12 -1.0
  outer loop
    vertex 133.21317078118562 675.4999999998164 300.0000000013591
    vertex 132.79895721881402 630.4999999998164 300.00000000127045
    vertex 132.79895721881257 676.4999999998165 300.00000000136106
  endloop
endfacet
facet normal -6.82949374548922e-18 1.9698465551557996e-12 -1.0
  outer loop
    vertex 132.79895721881402 630.4999999998164 300.00000000127045
    vertex 133.21317078118562 675.4999999998164 300.0000000013591
    vertex 133.21317078118707 631.4999999998164 300.0000000012725
  endloop
endfacet
facet normal -6.82949374548922e-18 1.9698465551557996e-12 -1.0
  outer loop
    vertex 133.21317078118707 631.4999999998164 300.0000000012725
    vertex 133.21317078118562 675.4999999998164 300.0000000013591
    vertex 148.31518088245582 690.6020101010837 300.00000000138886
  endloop
endfacet
facet normal -6.82949374548922e-18 1.9698465551557996e-12 -1.0
  outer loop
    vertex 133.21317078118707 631.4999999998164 300.0000000012725
    vertex 148.31518088245582 690.6020101010837 300.00000000138886
    vertex 148.3151808824551 616.3979898985488 300.0000000012428
  endloop
endfacet
facet normal -6.82949374548922e-18 1.9698465551557996e-12 -1.0
  outer loop
    vertex 148.3151808824551 616.3979898985488 300.0000000012428
    vertex 148.31518088245582 690.6020101010837 300.00000000138886
    vertex 173.0060640000005 625.9999999998164 300.00000000126164
  endloop
endfacet
facet normal -6.82949374548922e-18 1.9698465551557996e-12 -1.0
  outer loop
    vertex 173.0060640000005 625.9999999998164 300.00000000126164
    vertex 148.31518088245582 690.6020101010837 300.00000000138886
    vertex 173.0060640000005 680.9999999998164 300.0000000013699
  endloop
endfacet
facet normal -6.82949374548922e-18 1.9698465551557996e-12 -1.0
  outer loop
    vertex 128.00606400000024 608.4999999998164 300.00000000122714
    vertex 132.79895721881402 630.4999999998164 300.00000000127045
    vertex 140.50606400000066 613.3611111109275 300.0000000012367
  endloop
endfacet
facet normal -6.82949374548922e-18 1.9698465551557996e-12 -1.0
  outer loop
    vertex 132.79895721881402 630.4999999998164 300.00000000127045
    vertex 128.00606400000024 608.4999999998164 300.00000000122714
    vertex 132.79895721881257 676.4999999998165 300.00000000136106
  endloop
endfacet
facet normal -6.82949374548922e-18 1.9698465551557996e-12 -1.0
  outer loop
    vertex 140.50606400000066 613.3611111109275 300.0000000012367
    vertex 132.79895721881402 630.4999999998164 300.00000000127045
    vertex 134.0196445173722 629.2793127012582 300.00000000126806
  endloop
endfacet
facet normal -6.82949374548922e-18 1.9698465551557996e-12 -1.0
  outer loop
    vertex 140.50606400000066 613.3611111109275 300.0000000012367
    vertex 134.0196445173722 629.2793127012582 300.00000000126806
    vertex 140.50606400000066 622.79289321863 300.00000000125533
  endloop
endfacet
facet normal 0.9238795325112996 -0.38268343236505903 -7.538241709445934e-13
  outer loop
    vertex 133.21317078118707 631.499999999816 300.5000000012725
    vertex 132.79895721881402 630.4999999998164 300.00000000127045
    vertex 133.21317078118707 631.4999999998164 300.0000000012725
  endloop
endfacet
facet normal 0.9238795325112996 -0.38268343236505903 -7.538241709445934e-13
  outer loop
    vertex 132.79895721881402 630.4999999998164 300.00000000127045
    vertex 133.21317078118707 631.499999999816 300.5000000012725
    vertex 132.79895721881402 630.499999999816 300.5000000012705
  endloop
endfacet
facet normal 0.3624462611549432 0.932004671541298 1.827942082035577e-12
  outer loop
    vertex 140.50606400000066 693.6388888887012 302.0000000013949
    vertex 128.0060640000006 698.4999999998068 304.86312582008924
    vertex 137.02933689941227 694.990949427812 305.4767271019858
  endloop
endfacet
facet normal 0.3624462611549432 0.932004671541298 1.827942082035577e-12
  outer loop
    vertex 128.0060640000006 698.4999999998068 304.86312582008924
    vertex 140.50606400000066 693.6388888887012 302.0000000013949
    vertex 128.00606400000024 698.4999999998164 300.0000000014045
  endloop
endfacet
facet normal 0.3624462611549432 0.932004671541298 1.827942082035577e-12
  outer loop
    vertex 128.00606400000024 698.4999999998164 300.0000000014045
    vertex 140.50606400000066 693.6388888887012 302.0000000013949
    vertex 140.50606400000066 693.6388888887052 300.0000000013949
  endloop
endfacet
facet normal 1.0 0.0 0.0
  outer loop
    vertex 140.50606400000066 622.7928932186295 300.50000000125533
    vertex 140.50606400000066 613.3611111109275 300.0000000012367
    vertex 140.50606400000066 622.79289321863 300.00000000125533
  endloop
endfacet
facet normal 1.0 0.0 0.0
  outer loop
    vertex 140.50606400000066 613.3611111109275 300.0000000012367
    vertex 140.50606400000066 622.7928932186295 300.50000000125533
    vertex 140.50606400000066 622.2244871456815 302.0000000012542
  endloop
endfacet
facet normal 1.0 0.0 0.0
  outer loop
    vertex 140.50606400000066 613.3611111109275 300.0000000012367
    vertex 140.50606400000066 622.2244871456815 302.0000000012542
    vertex 140.50606400000066 613.3611111109235 302.0000000012367
  endloop
endfacet
facet normal 0.36244626115494893 0.9320046715412957 1.835334690382911e-12
  outer loop
    vertex 167.56077946016688 683.1176106541764 309.9315094860352
    vertex 148.3151808824551 690.6020101010838 300.5000000013891
    vertex 151.03868610238828 689.5428691822011 310.48224593130726
  endloop
endfacet
facet normal 0.36244626115494893 0.9320046715412957 1.835334690382911e-12
  outer loop
    vertex 148.3151808824551 690.6020101010838 300.5000000013891
    vertex 167.56077946016688 683.1176106541764 309.9315094860352
    vertex 173.0060640000005 680.999999999816 300.5000000013699
  endloop
endfacet
facet normal 0.36244626115494893 0.9320046715412957 1.835334690382911e-12
  outer loop
    vertex 148.3151808824551 690.6020101010838 300.5000000013891
    vertex 173.0060640000005 680.999999999816 300.5000000013699
    vertex 148.31518088245582 690.6020101010837 300.00000000138886
  endloop
endfacet
facet normal 0.36244626115494893 0.9320046715412957 1.835334690382911e-12
  outer loop
    vertex 148.31518088245582 690.6020101010837 300.00000000138886
    vertex 173.0060640000005 680.999999999816 300.5000000013699
    vertex 173.0060640000005 680.9999999998164 300.0000000013699
  endloop
endfacet
facet normal -0.10495263612510451 0.3496759369269717 0.9309735137503301
  outer loop
    vertex 151.03868610238757 617.4571308173913 310.4822459311652
    vertex 167.70259558244558 624.578924379934 309.6858767568007
    vertex 148.6365513588627 619.4701373597865 309.4553527829791
  endloop
endfacet
facet normal -0.10495263612510451 0.3496759369269717 0.9309735137503301
  outer loop
    vertex 167.70259558244558 624.578924379934 309.6858767568007
    vertex 151.03868610238757 617.4571308173913 310.4822459311652
    vertex 167.56077946016688 623.8823893454171 309.9315094859186
  endloop
endfacet
facet normal -0.00904354079772996 -0.09782982127154018 0.9951620674241047
  outer loop
    vertex 172.144545806924 663.2045443310768 301.99219328338785
    vertex 102.18174982165307 672.2905861972483 302.2496131151951
    vertex 100.1581514530229 663.1843935384156 301.3360355940622
  endloop
endfacet
facet normal -0.00904354079772996 -0.09782982127154018 0.9951620674241047
  outer loop
    vertex 102.18174982165307 672.2905861972483 302.2496131151951
    vertex 172.144545806924 663.2045443310768 301.99219328338785
    vertex 172.13824649437186 663.3161147292284 302.0031040127813
  endloop
endfacet
facet normal -0.707106781186493 0.7071067811866022 6.743163418700696e-13
  outer loop
    vertex 148.31518088245582 690.6020101010837 300.00000000138886
    vertex 133.21317078118562 675.499999999816 300.5000000013591
    vertex 148.3151808824551 690.6020101010838 300.5000000013891
  endloop
endfacet
facet normal -0.707106781186493 0.7071067811866022 6.743163418700696e-13
  outer loop
    vertex 133.21317078118562 675.499999999816 300.5000000013591
    vertex 148.31518088245582 690.6020101010837 300.00000000138886
    vertex 133.21317078118562 675.4999999998164 300.0000000013591
  endloop
endfacet
facet normal -0.15184418293215143 -0.5290098709931957 0.8349202958974168
  outer loop
    vertex 169.12389917331956 678.1277749255569 307.22410672453236
    vertex 148.63655135886378 687.5298626398089 309.4553527831133
    vertex 146.0425659769066 685.5822580298361 307.74958079346743
  endloop
endfacet
facet normal -0.15184418293215143 -0.5290098709931957 0.8349202958974168
  outer loop
    vertex 148.63655135886378 687.5298626398089 309.4553527831133
    vertex 169.12389917331956 678.1277749255569 307.22410672453236
    vertex 167.70259558244558 682.4210756196605 309.68587675691464
  endloop
endfacet
facet normal 0.7071067811865365 0.7071067811865586 1.4091086464197295e-12
  outer loop
    vertex 140.50606400000066 622.7928932186295 300.50000000125533
    vertex 134.0196445173722 629.2793127012582 300.00000000126806
    vertex 134.0196445173722 629.2793127012578 300.50000000126806
  endloop
endfacet
facet normal 0.7071067811865365 0.7071067811865586 1.4091086464197295e-12
  outer loop
    vertex 134.0196445173722 629.2793127012582 300.00000000126806
    vertex 140.50606400000066 622.7928932186295 300.50000000125533
    vertex 140.50606400000066 622.79289321863 300.00000000125533
  endloop
endfacet
facet normal 0.7071067811864854 -0.7071067811866097 -1.36083473088136e-12
  outer loop
    vertex 134.60378472220327 678.3048275032064 300.50000000136475
    vertex 140.50606400000066 684.207106781003 300.00000000137624
    vertex 140.50606400000066 684.2071067810027 300.5000000013762
  endloop
endfacet
facet normal 0.7071067811864854 -0.7071067811866097 -1.36083473088136e-12
  outer loop
    vertex 140.50606400000066 684.207106781003 300.00000000137624
    vertex 134.60378472220327 678.3048275032064 300.50000000136475
    vertex 134.60378472220327 678.3048275032068 300.0000000013647
  endloop
endfacet
facet normal 0.9238795325112996 0.38268343236505903 1.6430997147032517e-12
  outer loop
    vertex 132.79895721881257 676.499999999816 300.50000000136106
    vertex 133.21317078118562 675.4999999998164 300.0000000013591
    vertex 132.79895721881257 676.4999999998165 300.00000000136106
  endloop
endfacet
facet normal 0.9238795325112996 0.38268343236505903 1.6430997147032517e-12
  outer loop
    vertex 133.21317078118562 675.4999999998164 300.0000000013591
    vertex 132.79895721881257 676.499999999816 300.50000000136106
    vertex 133.21317078118562 675.499999999816 300.5000000013591
  endloop
endfacet
facet normal 0.0 -1.9698374875698473e-12 1.0
  outer loop
    vertex 132.79895721881402 630.499999999816 300.5000000012705
    vertex 98.00606400000058 631.499999999816 300.5000000012725
    vertex 98.00606400000058 630.499999999816 300.5000000012705
  endloop
endfacet
facet normal 0.0 -1.9698374875698473e-12 1.0
  outer loop
    vertex 98.00606400000058 631.499999999816 300.5000000012725
    vertex 132.79895721881402 630.499999999816 300.5000000012705
    vertex 133.21317078118707 631.499999999816 300.5000000012725
  endloop
endfacet
facet normal 0.3624462611549517 -0.9320046715412947 -1.8381048974129393e-12
  outer loop
    vertex 148.3151808824551 616.3979898985483 300.50000000124277
    vertex 167.56077946016688 623.8823893454171 309.9315094859186
    vertex 151.03868610238757 617.4571308173913 310.4822459311652
  endloop
endfacet
facet normal 0.3624462611549517 -0.9320046715412947 -1.8381048974129393e-12
  outer loop
    vertex 167.56077946016688 623.8823893454171 309.9315094859186
    vertex 148.3151808824551 616.3979898985483 300.50000000124277
    vertex 173.0060640000005 625.999999999816 300.5000000012616
  endloop
endfacet
facet normal 0.3624462611549517 -0.9320046715412947 -1.8381048974129393e-12
  outer loop
    vertex 173.0060640000005 625.999999999816 300.5000000012616
    vertex 148.3151808824551 616.3979898985483 300.50000000124277
    vertex 173.0060640000005 625.9999999998164 300.00000000126164
  endloop
endfacet
facet normal 0.3624462611549517 -0.9320046715412947 -1.8381048974129393e-12
  outer loop
    vertex 173.0060640000005 625.9999999998164 300.00000000126164
    vertex 148.3151808824551 616.3979898985483 300.50000000124277
    vertex 148.3151808824551 616.3979898985488 300.0000000012428
  endloop
endfacet
facet normal -0.04435346540012368 -0.22643460793628928 0.9730160011200942
  outer loop
    vertex 170.4541198576713 672.8380291022701 304.9200969139455
    vertex 140.46467399381083 680.8849676033109 305.4257098889762
    vertex 136.50820166747107 677.3119223355465 304.4138618190121
  endloop
endfacet
facet normal -0.04435346540012368 -0.22643460793628928 0.9730160011200942
  outer loop
    vertex 140.46467399381083 680.8849676033109 305.4257098889762
    vertex 170.4541198576713 672.8380291022701 304.9200969139455
    vertex 170.41061733173274 673.1703319578742 304.99544549912946
  endloop
endfacet
facet normal -7.077900418639939e-17 -0.05131957671354896 0.9986822823330463
  outer loop
    vertex 172.6932746522012 654.3127893476135 301.04176704377187
    vertex 172.57349819959586 658.3499529892291 301.2492259452426
    vertex 110.50260084116601 654.3127893476135 301.04176704377187
  endloop
endfacet
facet normal -7.7749663689601e-18 0.05131957670961567 0.9986822823332484
  outer loop
    vertex 172.6932746522012 652.6872106520151 301.04176704376874
    vertex 110.50260084116529 652.6872106520151 301.04176704376874
    vertex 172.57349819959586 648.6500470103986 301.24922594522343
  endloop
endfacet
facet normal -0.0012164098118079823 0.032657690269882376 0.9994658551513436
  outer loop
    vertex 98.82176819048459 643.8684759845537 301.31570419178104
    vertex 110.50260084116529 652.6872106520151 301.04176704376874
    vertex 98.53298319616027 652.6957830600703 301.026919197474
  endloop
endfacet
facet normal -0.0012164098118079823 0.032657690269882376 0.9994658551513436
  outer loop
    vertex 110.50260084116529 652.6872106520151 301.04176704376874
    vertex 98.82176819048459 643.8684759845537 301.31570419178104
    vertex 172.57244402373033 648.5941277715783 301.25105183138277
  endloop
endfacet
facet normal -0.0012164098118079823 0.032657690269882376 0.9994658551513436
  outer loop
    vertex 110.50260084116529 652.6872106520151 301.04176704376874
    vertex 172.57244402373033 648.5941277715783 301.25105183138277
    vertex 172.57349819959586 648.6500470103986 301.24922594522343
  endloop
endfacet
facet normal -0.9761870601839521 0.21693045781865933 4.4136280980529705e-13
  outer loop
    vertex 108.00606400000046 698.4999999998164 300.0000000014045
    vertex 103.1171751111116 676.499999999816 300.50000000136106
    vertex 108.00606400000046 698.499999999811 302.65622574467875
  endloop
endfacet
facet normal -0.9761870601839521 0.21693045781865933 4.4136280980529705e-13
  outer loop
    vertex 103.1171751111116 676.499999999816 300.50000000136106
    vertex 108.00606400000046 698.4999999998164 300.0000000014045
    vertex 98.00606400000058 653.4999999998164 300.00000000131575
  endloop
endfacet
facet normal -0.9761870601839521 0.21693045781865933 4.4136280980529705e-13
  outer loop
    vertex 108.00606400000046 698.499999999811 302.65622574467875
    vertex 103.1171751111116 676.499999999816 300.50000000136106
    vertex 106.25776548864123 690.632656698694 302.18748541649705
  endloop
endfacet
facet normal -0.9761870601839521 0.21693045781865933 4.4136280980529705e-13
  outer loop
    vertex 108.00606400000046 698.499999999811 302.65622574467875
    vertex 106.25776548864123 690.632656698694 302.18748541649705
    vertex 106.37009136496292 691.1381231421419 302.3017853127948
  endloop
endfacet
facet normal -0.9761870601839521 0.21693045781865933 4.4136280980529705e-13
  outer loop
    vertex 106.25776548864123 690.632656698694 302.18748541649705
    vertex 103.1171751111116 676.499999999816 300.50000000136106
    vertex 104.39374059399186 682.2445446727722 302.3828900568698
  endloop
endfacet
facet normal -0.9761870601839521 0.21693045781865933 4.4136280980529705e-13
  outer loop
    vertex 104.39374059399186 682.2445446727722 302.3828900568698
    vertex 103.1171751111116 676.499999999816 300.50000000136106
    vertex 104.30542843422324 681.8471399538131 302.33862964578003
  endloop
endfacet
facet normal -0.9761870601839521 0.21693045781865933 4.4136280980529705e-13
  outer loop
    vertex 104.30542843422324 681.8471399538131 302.33862964578003
    vertex 103.1171751111116 676.499999999816 300.50000000136106
    vertex 103.4018802340435 677.7811730530045 302.7190568227823
  endloop
endfacet
facet normal -0.9761870601839521 0.21693045781865933 4.4136280980529705e-13
  outer loop
    vertex 103.1171751111116 676.499999999816 300.50000000136106
    vertex 98.00606400000058 653.4999999998164 300.00000000131575
    vertex 102.89495288888943 675.499999999816 300.5000000013591
  endloop
endfacet
facet normal -0.9761870601839521 0.21693045781865933 4.4136280980529705e-13
  outer loop
    vertex 102.89495288888943 675.499999999816 300.5000000013591
    vertex 98.00606400000058 653.4999999998164 300.00000000131575
    vertex 102.18174982165307 672.2905861972483 302.2496131151951
  endloop
endfacet
facet normal -0.9761870601839521 0.21693045781865933 4.4136280980529705e-13
  outer loop
    vertex 102.89495288888943 675.499999999816 300.5000000013591
    vertex 102.18174982165307 672.2905861972483 302.2496131151951
    vertex 102.62377754417331 674.279710948589 302.61360263799367
  endloop
endfacet
facet normal -0.9761870601839521 0.21693045781865933 4.4136280980529705e-13
  outer loop
    vertex 102.62377754417331 674.279710948589 302.61360263799367
    vertex 102.18174982165307 672.2905861972483 302.2496131151951
    vertex 102.23936673753727 672.5498623187275 302.3194109919348
  endloop
endfacet
facet normal -0.9761870601839521 0.21693045781865933 4.4136280980529705e-13
  outer loop
    vertex 102.18174982165307 672.2905861972483 302.2496131151951
    vertex 98.00606400000058 653.4999999998164 300.00000000131575
    vertex 100.12780584113126 663.0478382849029 301.314559274624
  endloop
endfacet
facet normal -0.9761870601839521 0.21693045781865933 4.4136280980529705e-13
  outer loop
    vertex 102.18174982165307 672.2905861972483 302.2496131151951
    vertex 100.12780584113126 663.0478382849029 301.314559274624
    vertex 100.1581514530229 663.1843935384156 301.3360355940622
  endloop
endfacet
facet normal -0.9761870601839521 0.21693045781865933 4.4136280980529705e-13
  outer loop
    vertex 100.12780584113126 663.0478382849029 301.314559274624
    vertex 98.00606400000058 653.4999999998164 300.00000000131575
    vertex 98.11717511111166 653.999999999816 300.5000000013167
  endloop
endfacet
facet normal -0.9761870601839521 0.21693045781865933 4.4136280980529705e-13
  outer loop
    vertex 100.12780584113126 663.0478382849029 301.314559274624
    vertex 98.11717511111166 653.999999999816 300.5000000013167
    vertex 98.18472344952619 654.3039675226809 301.02648719477304
  endloop
endfacet
facet normal -0.9761870601839521 0.21693045781865933 4.4136280980529705e-13
  outer loop
    vertex 98.11717511111166 653.999999999816 300.5000000013167
    vertex 98.00606400000058 653.4999999998164 300.00000000131575
    vertex 98.00606400000058 653.499999999816 300.5000000013158
  endloop
endfacet
facet normal 0.7071067811865639 0.7071067811865311 1.3928854452960782e-12
  outer loop
    vertex 132.79895721881402 630.499999999816 300.5000000012705
    vertex 134.0196445173722 629.2793127012582 300.00000000126806
    vertex 132.79895721881402 630.4999999998164 300.00000000127045
  endloop
endfacet
facet normal 0.7071067811865639 0.7071067811865311 1.3928854452960782e-12
  outer loop
    vertex 134.0196445173722 629.2793127012582 300.00000000126806
    vertex 132.79895721881402 630.499999999816 300.5000000012705
    vertex 134.0196445173722 629.2793127012578 300.50000000126806
  endloop
endfacet
facet normal -0.15184418293215254 0.2948910230295801 0.9433889063616524
  outer loop
    vertex 113.26128406612513 608.4999999998098 303.29960267726165
    vertex 137.9802126198875 617.3052734145227 304.52585138135754
    vertex 110.27790345559363 608.4999999998108 302.8194094206659
  endloop
endfacet
facet normal -0.15184418293215254 0.2948910230295801 0.9433889063616524
  outer loop
    vertex 137.9802126198875 617.3052734145227 304.52585138135754
    vertex 113.26128406612513 608.4999999998098 303.29960267726165
    vertex 137.26170836004638 614.6367295162145 305.2443556411933
  endloop
endfacet
facet normal -0.10495263612510673 0.09680734246500686 0.9897541526132911
  outer loop
    vertex 128.00606400000024 608.4999999998067 304.8631258199119
    vertex 137.26170836004638 614.6367295162145 305.2443556411933
    vertex 113.26128406612513 608.4999999998098 303.29960267726165
  endloop
endfacet
facet normal -0.10495263612510673 0.09680734246500686 0.9897541526132911
  outer loop
    vertex 137.26170836004638 614.6367295162145 305.2443556411933
    vertex 128.00606400000024 608.4999999998067 304.8631258199119
    vertex 137.02933689941227 612.0090505717991 305.47672710182223
  endloop
endfacet
facet normal -0.0716074095129776 0.032084187430912556 0.9969167386596229
  outer loop
    vertex 99.5552793764313 608.4999999998123 302.0492153776582
    vertex 138.11678240969366 621.853561215917 304.38928159156046
    vertex 99.34598053930243 614.5361873578508 301.8399165405408
  endloop
endfacet
facet normal -0.0716074095129776 0.032084187430912556 0.9969167386596229
  outer loop
    vertex 138.11678240969366 621.853561215917 304.38928159156046
    vertex 99.5552793764313 608.4999999998123 302.0492153776582
    vertex 110.27790345559363 608.4999999998108 302.8194094206659
  endloop
endfacet
facet normal -0.0716074095129776 0.032084187430912556 0.9969167386596229
  outer loop
    vertex 138.11678240969366 621.853561215917 304.38928159156046
    vertex 110.27790345559363 608.4999999998108 302.8194094206659
    vertex 137.9802126198875 617.3052734145227 304.52585138135754
  endloop
endfacet
facet normal -0.10495263612510332 -0.09680734246888917 0.9897541526129117
  outer loop
    vertex 137.26170836004638 692.3632704833976 305.2443556413466
    vertex 128.0060640000006 698.4999999998068 304.86312582008924
    vertex 113.26128406612513 698.4999999998099 303.299602677439
  endloop
endfacet
facet normal -0.10495263612510332 -0.09680734246888917 0.9897541526129117
  outer loop
    vertex 128.0060640000006 698.4999999998068 304.86312582008924
    vertex 137.26170836004638 692.3632704833976 305.2443556413466
    vertex 137.02933689941227 694.990949427812 305.4767271019858
  endloop
endfacet
facet normal 0.3624462611549383 -0.9320046715413 -1.8297899733873807e-12
  outer loop
    vertex 128.00606400000024 608.4999999998067 304.8631258199119
    vertex 140.50606400000066 613.3611111109235 302.0000000012367
    vertex 137.02933689941227 612.0090505717991 305.47672710182223
  endloop
endfacet
facet normal 0.3624462611549383 -0.9320046715413 -1.8297899733873807e-12
  outer loop
    vertex 140.50606400000066 613.3611111109235 302.0000000012367
    vertex 128.00606400000024 608.4999999998067 304.8631258199119
    vertex 128.00606400000024 608.4999999998164 300.00000000122714
  endloop
endfacet
facet normal 0.3624462611549383 -0.9320046715413 -1.8297899733873807e-12
  outer loop
    vertex 140.50606400000066 613.3611111109235 302.0000000012367
    vertex 128.00606400000024 608.4999999998164 300.00000000122714
    vertex 140.50606400000066 613.3611111109275 300.0000000012367
  endloop
endfacet
facet normal -0.044353465400124706 0.03311603650807588 0.9984668738786461
  outer loop
    vertex 133.6768247046196 678.6297186266253 303.8035831277515
    vertex 106.25776548864123 690.632656698694 302.18748541649705
    vertex 104.39374059399186 682.2445446727722 302.3828900568698
  endloop
endfacet
facet normal -0.044353465400124706 0.03311603650807588 0.9984668738786461
  outer loop
    vertex 106.25776548864123 690.632656698694 302.18748541649705
    vertex 133.6768247046196 678.6297186266253 303.8035831277515
    vertex 137.7173372442257 682.6872493391625 303.8484933787456
  endloop
endfacet
facet normal -0.044353465400122916 -0.03311603651201687 0.9984668738785153
  outer loop
    vertex 137.71733724422606 624.3127506604551 303.8484933786305
    vertex 99.65925664683168 624.17101088027 302.1531926480893
    vertex 99.32765207724407 614.6170787223451 301.8215880784828
  endloop
endfacet
facet normal -0.044353465400122916 -0.03311603651201687 0.9984668738785153
  outer loop
    vertex 99.65925664683168 624.17101088027 302.1531926480893
    vertex 137.71733724422606 624.3127506604551 303.8484933786305
    vertex 133.67682470462034 628.3702813729926 303.80358312765253
  endloop
endfacet
facet normal -0.151844182932154 -0.2948910230333013 0.9433889063604891
  outer loop
    vertex 137.9802126198875 689.6947265850921 304.5258513815002
    vertex 113.26128406612513 698.4999999998099 303.299602677439
    vertex 110.27790345559363 698.4999999998107 302.81940942084333
  endloop
endfacet
facet normal -0.151844182932154 -0.2948910230333013 0.9433889063604891
  outer loop
    vertex 113.26128406612513 698.4999999998099 303.299602677439
    vertex 137.9802126198875 689.6947265850921 304.5258513815002
    vertex 137.26170836004638 692.3632704833976 305.2443556413466
  endloop
endfacet
facet normal -0.10146151595159748 -0.1979168746246671 0.9749535740329421
  outer loop
    vertex 137.7173372442257 682.6872493391625 303.8484933787456
    vertex 106.37009136496292 691.1381231421419 302.3017853127948
    vertex 106.25776548864123 690.632656698694 302.18748541649705
  endloop
endfacet
facet normal -0.10146151595159748 -0.1979168746246671 0.9749535740329421
  outer loop
    vertex 106.37009136496292 691.1381231421419 302.3017853127948
    vertex 137.7173372442257 682.6872493391625 303.8484933787456
    vertex 138.11678240969331 685.1464387836985 304.38928159168523
  endloop
endfacet
facet normal -0.10146151595159748 -0.1979168746246671 0.9749535740329421
  outer loop
    vertex 138.11678240969331 685.1464387836985 304.38928159168523
    vertex 137.7173372442257 682.6872493391625 303.8484933787456
    vertex 138.42286903999099 683.4817183381942 304.0831949613845
  endloop
endfacet
facet normal -0.10146151595159458 0.19791687462081498 0.9749535740337244
  outer loop
    vertex 99.34598053930243 614.5361873578508 301.8399165405408
    vertex 137.71733724422606 624.3127506604551 303.8484933786305
    vertex 99.32765207724407 614.6170787223451 301.8215880784828
  endloop
endfacet
facet normal -0.10146151595159458 0.19791687462081498 0.9749535740337244
  outer loop
    vertex 137.71733724422606 624.3127506604551 303.8484933786305
    vertex 99.34598053930243 614.5361873578508 301.8399165405408
    vertex 138.11678240969366 621.853561215917 304.38928159156046
  endloop
endfacet
facet normal -0.10146151595159458 0.19791687462081498 0.9749535740337244
  outer loop
    vertex 137.71733724422606 624.3127506604551 303.8484933786305
    vertex 138.11678240969366 621.853561215917 304.38928159156046
    vertex 138.42286903999099 623.5182816614223 304.08319496126626
  endloop
endfacet
facet normal 9.45906610794459e-16 1.0 1.9716374191209915e-12
  outer loop
    vertex 128.00606400000024 698.4999999998164 300.0000000014045
    vertex 113.26128406612513 698.4999999998099 303.299602677439
    vertex 128.0060640000006 698.4999999998068 304.86312582008924
  endloop
endfacet
facet normal 9.45906610794459e-16 1.0 1.9716374191209915e-12
  outer loop
    vertex 113.26128406612513 698.4999999998099 303.299602677439
    vertex 128.00606400000024 698.4999999998164 300.0000000014045
    vertex 110.27790345559363 698.4999999998107 302.81940942084333
  endloop
endfacet
facet normal 9.45906610794459e-16 1.0 1.9716374191209915e-12
  outer loop
    vertex 110.27790345559363 698.4999999998107 302.81940942084333
    vertex 128.00606400000024 698.4999999998164 300.0000000014045
    vertex 108.00606400000046 698.499999999811 302.65622574467875
  endloop
endfacet
facet normal 9.45906610794459e-16 1.0 1.9716374191209915e-12
  outer loop
    vertex 108.00606400000046 698.499999999811 302.65622574467875
    vertex 128.00606400000024 698.4999999998164 300.0000000014045
    vertex 108.00606400000046 698.4999999998164 300.0000000014045
  endloop
endfacet
facet normal -0.06020403665420864 -0.09726391770535697 0.9934360594840236
  outer loop
    vertex 124.46274515922399 678.0522985058585 303.18865988235336
    vertex 104.39374059399186 682.2445446727722 302.3828900568698
    vertex 104.30542843422324 681.8471399538131 302.33862964578003
  endloop
endfacet
facet normal -0.06020403665420864 -0.09726391770535697 0.9934360594840236
  outer loop
    vertex 104.39374059399186 682.2445446727722 302.3828900568698
    vertex 124.46274515922399 678.0522985058585 303.18865988235336
    vertex 133.6768247046196 678.6297186266253 303.8035831277515
  endloop
endfacet
facet normal -0.06020403665420864 -0.09726391770535697 0.9934360594840236
  outer loop
    vertex 133.6768247046196 678.6297186266253 303.8035831277515
    vertex 124.46274515922399 678.0522985058585 303.18865988235336
    vertex 133.44692161836846 678.3854744049133 303.76573746737574
  endloop
endfacet
facet normal -0.07160740951297634 -0.03208418743483551 0.9969167386594968
  outer loop
    vertex 138.11678240969331 685.1464387836985 304.38928159168523
    vertex 108.00606400000046 698.499999999811 302.65622574467875
    vertex 106.37009136496292 691.1381231421419 302.3017853127948
  endloop
endfacet
facet normal -0.07160740951297634 -0.03208418743483551 0.9969167386594968
  outer loop
    vertex 108.00606400000046 698.499999999811 302.65622574467875
    vertex 138.11678240969331 685.1464387836985 304.38928159168523
    vertex 110.27790345559363 698.4999999998107 302.81940942084333
  endloop
endfacet
facet normal -0.07160740951297634 -0.03208418743483551 0.9969167386594968
  outer loop
    vertex 110.27790345559363 698.4999999998107 302.81940942084333
    vertex 138.11678240969331 685.1464387836985 304.38928159168523
    vertex 137.9802126198875 689.6947265850921 304.5258513815002
  endloop
endfacet
facet normal -0.023448685145562122 0.09829562877242666 0.9948809619895126
  outer loop
    vertex 124.46274515922399 678.0522985058585 303.18865988235336
    vertex 104.30542843422324 681.8471399538131 302.33862964578003
    vertex 103.4018802340435 677.7811730530045 302.7190568227823
  endloop
endfacet
facet normal -0.06020403665420824 0.0972639177014436 0.9934360594844066
  outer loop
    vertex 99.65925664683168 624.17101088027 302.1531926480893
    vertex 124.46274515922471 628.9477014937617 303.1886598822567
    vertex 99.64830356903575 624.2761039424161 302.14223957029355
  endloop
endfacet
facet normal -0.06020403665420824 0.0972639177014436 0.9934360594844066
  outer loop
    vertex 124.46274515922471 628.9477014937617 303.1886598822567
    vertex 99.65925664683168 624.17101088027 302.1531926480893
    vertex 133.67682470462034 628.3702813729926 303.80358312765253
  endloop
endfacet
facet normal -0.06020403665420824 0.0972639177014436 0.9934360594844066
  outer loop
    vertex 124.46274515922471 628.9477014937617 303.1886598822567
    vertex 133.67682470462034 628.3702813729926 303.80358312765253
    vertex 133.44692161836954 628.6145255947052 303.7657374672779
  endloop
endfacet
facet normal -0.02344868514556143 -0.09829562877635316 0.9948809619891245
  outer loop
    vertex 124.46274515922471 628.9477014937617 303.1886598822567
    vertex 100.15267184041832 629.2606553853014 302.64660784168575
    vertex 99.64830356903575 624.2761039424161 302.14223957029355
  endloop
endfacet
endsolid ProtoGlove baseplate
