solid ProtoGlove baseplate
facet normal -0.04032932902627554 -0.0020735611623699337 0.9991842900908703
  outer loop
    vertex 230.88271442729263 627.6918214726813 303.643999753058
    vertex 193.6113685181718 627.0666162057994 302.13834680324624
    vertex 193.59286809122423 618.5116594004662 302.1198463762819
  endloop
endfacet
facet normal -0.04032932902627554 -0.0020735611623699337 0.9991842900908703
  outer loop
    vertex 193.6113685181718 627.0666162057994 302.13834680324624
    vertex 230.88271442729263 627.6918214726813 303.643999753058
    vertex 227.45841497805176 631.1657629049183 303.5129966233683
  endloop
endfacet
facet normal -0.09579191040989218 0.1254759914063453 0.9874612323937675
  outer loop
    vertex 221.97302171618932 613.4999999998054 304.9835224502575
    vertex 231.3061106074598 619.1819254023882 305.16691110997755
    vertex 208.518631162673 613.4999999998081 303.67833523658015
  endloop
endfacet
facet normal -0.09579191040989218 0.1254759914063453 0.9874612323937675
  outer loop
    vertex 231.3061106074598 619.1819254023882 305.16691110997755
    vertex 221.97302171618932 613.4999999998054 304.9835224502575
    vertex 231.04188473557116 616.9008236320724 305.4311369818618
  endloop
endfacet
facet normal -0.05394819685128274 0.11273448936708808 0.9921595269731764
  outer loop
    vertex 193.6113685181718 627.0666162057994 302.13834680324624
    vertex 217.70161957359625 631.5948937481924 302.9337154191059
    vertex 193.59931002558469 627.1669707151657 302.1262883106594
  endloop
endfacet
facet normal -0.05394819685128274 0.11273448936708808 0.9921595269731764
  outer loop
    vertex 217.70161957359625 631.5948937481924 302.9337154191059
    vertex 193.6113685181718 627.0666162057994 302.13834680324624
    vertex 227.45841497805176 631.1657629049183 303.5129966233683
  endloop
endfacet
facet normal -0.05394819685128274 0.11273448936708808 0.9921595269731764
  outer loop
    vertex 217.70161957359625 631.5948937481924 302.9337154191059
    vertex 227.45841497805176 631.1657629049183 303.5129966233683
    vertex 227.3603151686619 631.2703888858005 303.49577432806933
  endloop
endfacet
facet normal -0.09098365350634068 0.20788005914234173 0.9739136798534123
  outer loop
    vertex 193.6153903419581 618.4160005310413 302.14236862701534
    vertex 230.88271442729263 627.6918214726813 303.643999753058
    vertex 193.59286809122423 618.5116594004662 302.1198463762819
  endloop
endfacet
facet normal -0.09098365350634068 0.20788005914234173 0.9739136798534123
  outer loop
    vertex 230.88271442729263 627.6918214726813 303.643999753058
    vertex 193.6153903419581 618.4160005310413 302.14236862701534
    vertex 232.24372207163606 625.5453812307438 304.2292996458141
  endloop
endfacet
facet normal -0.09098365350634068 0.20788005914234173 0.9739136798534123
  outer loop
    vertex 230.88271442729263 627.6918214726813 303.643999753058
    vertex 232.24372207163606 625.5453812307438 304.2292996458141
    vertex 232.3418537796757 626.0480758838036 304.1311679377754
  endloop
endfacet
facet normal -0.021248657283894405 -0.06624529596903754 0.9975770924222379
  outer loop
    vertex 217.70161957359625 631.5948937481924 302.9337154191059
    vertex 193.9188630111183 631.8765680043826 302.4458412962023
    vertex 193.59931002558469 627.1669707151657 302.1262883106594
  endloop
endfacet
facet normal 0.3511234415883986 0.9363291775690421 1.8396273634591317e-12
  outer loop
    vertex 257.2569763461035 680.26851701358 308.66843019315735
    vertex 240.66909937523374 686.488970877673 300.5000000013808
    vertex 243.0599781485891 685.5923913376477 309.175465843079
  endloop
endfacet
facet normal 0.3511234415883986 0.9363291775690421 1.8396273634591317e-12
  outer loop
    vertex 240.66909937523374 686.488970877673 300.5000000013808
    vertex 257.2569763461035 680.26851701358 308.66843019315735
    vertex 261.97302171618924 678.4999999998145 300.50000000136504
  endloop
endfacet
facet normal 0.3511234415883986 0.9363291775690421 1.8396273634591317e-12
  outer loop
    vertex 240.66909937523374 686.488970877673 300.5000000013808
    vertex 261.97302171618924 678.4999999998145 300.50000000136504
    vertex 240.66909937523374 686.4889708776733 300.00000000138084
  endloop
endfacet
facet normal 0.3511234415883986 0.9363291775690421 1.8396273634591317e-12
  outer loop
    vertex 240.66909937523374 686.4889708776733 300.00000000138084
    vertex 261.97302171618924 678.4999999998145 300.50000000136504
    vertex 261.97302171618924 678.4999999998147 300.000000001365
  endloop
endfacet
facet normal 0.9238795325112996 0.3826834323650591 7.538241709445936e-13
  outer loop
    vertex 226.76591493500274 673.9999999998148 300.50000000135617
    vertex 227.18012849737582 672.999999999815 300.0000000013542
    vertex 226.76591493500274 673.999999999815 300.0000000013562
  endloop
endfacet
facet normal 0.9238795325112996 0.3826834323650591 7.538241709445936e-13
  outer loop
    vertex 227.18012849737582 672.999999999815 300.0000000013542
    vertex 226.76591493500274 673.9999999998148 300.50000000135617
    vertex 227.18012849737582 672.9999999998148 300.50000000135424
  endloop
endfacet
facet normal -0.04032932902627718 -0.22274714361948914 0.9740417112370748
  outer loop
    vertex 259.7450648552896 670.9917081013893 304.3589344815003
    vertex 233.59628542227796 677.7762035213468 304.8277688661444
    vertex 230.24673302033844 674.7421271214332 303.99524080994576
  endloop
endfacet
facet normal -0.04032932902627718 -0.22274714361948914 0.9740417112370748
  outer loop
    vertex 233.59628542227796 677.7762035213468 304.8277688661444
    vertex 259.7450648552896 670.9917081013893 304.3589344815003
    vertex 259.7088735490772 671.2723741121837 304.4216196626531
  endloop
endfacet
facet normal -3.0730247775017373e-17 0.8660254037834539 0.5000000000017054
  outer loop
    vertex 261.6608897145745 652.6642701421277 301.04062848677916
    vertex 192.50016879521678 652.6720536357634 301.02714708034193
    vertex 205.25244375673563 652.6642701421277 301.0406284867792
  endloop
endfacet
facet normal -3.0730247775017373e-17 0.8660254037834539 0.5000000000017054
  outer loop
    vertex 192.50016879521678 652.6720536357634 301.02714708034193
    vertex 261.6608897145745 652.6642701421277 301.04062848677916
    vertex 261.97302171618924 652.9764021437444 300.50000000131473
  endloop
endfacet
facet normal -3.0730247775017373e-17 0.8660254037834539 0.5000000000017054
  outer loop
    vertex 192.50016879521678 652.6720536357634 301.02714708034193
    vertex 261.97302171618924 652.9764021437444 300.50000000131473
    vertex 191.9730217161893 652.9764021437444 300.50000000131473
  endloop
endfacet
facet normal -0.05394819685128788 -0.33303244338177856 0.941370800328785
  outer loop
    vertex 260.57146796442663 666.8118302758779 302.92756230893394
    vertex 230.24673302033844 674.7421271214332 303.99524080994576
    vertex 228.07981140251525 672.8728540996448 303.2097585371418
  endloop
endfacet
facet normal -0.05394819685128788 -0.33303244338177856 0.941370800328785
  outer loop
    vertex 230.24673302033844 674.7421271214332 303.99524080994576
    vertex 260.57146796442663 666.8118302758779 302.92756230893394
    vertex 259.7450648552896 670.9917081013893 304.3589344815003
  endloop
endfacet
facet normal 0.8660254037844438 -9.809028141276208e-13 0.49999999999999106
  outer loop
    vertex 257.37429140791863 679.684854923702 308.46523454559895
    vertex 261.97302171618924 678.4999999998145 300.50000000136504
    vertex 257.2569763461035 680.26851701358 308.66843019315735
  endloop
endfacet
facet normal 0.8660254037844438 -9.809028141276208e-13 0.49999999999999106
  outer loop
    vertex 261.97302171618924 678.4999999998145 300.50000000136504
    vertex 257.37429140791863 679.684854923702 308.46523454559895
    vertex 258.60333722700756 675.7551290765414 306.336464742099
  endloop
endfacet
facet normal 0.8660254037844438 -9.809028141276208e-13 0.49999999999999106
  outer loop
    vertex 261.97302171618924 678.4999999998145 300.50000000136504
    vertex 258.60333722700756 675.7551290765414 306.336464742099
    vertex 259.7088735490772 671.2723741121837 304.4216196626531
  endloop
endfacet
facet normal 0.8660254037844438 -9.809028141276208e-13 0.49999999999999106
  outer loop
    vertex 261.97302171618924 678.4999999998145 300.50000000136504
    vertex 259.7088735490772 671.2723741121837 304.4216196626531
    vertex 260.57146796442663 666.8118302758779 302.92756230893394
  endloop
endfacet
facet normal 0.8660254037844438 -9.809028141276208e-13 0.49999999999999106
  outer loop
    vertex 261.97302171618924 678.4999999998145 300.50000000136504
    vertex 260.57146796442663 666.8118302758779 302.92756230893394
    vertex 261.18918104973784 662.3666196083833 301.8576518606659
  endloop
endfacet
facet normal 0.8660254037844438 -9.809028141276208e-13 0.49999999999999106
  outer loop
    vertex 261.97302171618924 678.4999999998145 300.50000000136504
    vertex 261.18918104973784 662.3666196083833 301.8576518606659
    vertex 261.97302171618924 653.9764021437444 300.50000000131666
  endloop
endfacet
facet normal 0.8660254037844438 -9.809028141276208e-13 0.49999999999999106
  outer loop
    vertex 259.7088735490772 671.2723741121837 304.4216196626531
    vertex 258.60333722700756 675.7551290765414 306.336464742099
    vertex 258.67225536176846 675.3379148404142 306.2170950311294
  endloop
endfacet
facet normal 0.8660254037844438 -9.809028141276208e-13 0.49999999999999106
  outer loop
    vertex 260.57146796442663 666.8118302758779 302.92756230893394
    vertex 259.7088735490772 671.2723741121837 304.4216196626531
    vertex 259.7450648552896 670.9917081013893 304.3589344815003
  endloop
endfacet
facet normal 0.8660254037844438 -9.809028141276208e-13 0.49999999999999106
  outer loop
    vertex 261.18918104973784 662.3666196083833 301.8576518606659
    vertex 260.57146796442663 666.8118302758779 302.92756230893394
    vertex 260.5875459072982 666.6377704701821 302.89971449499865
  endloop
endfacet
facet normal 0.8660254037844438 -9.809028141276208e-13 0.49999999999999106
  outer loop
    vertex 261.97302171618924 653.9764021437444 300.50000000131666
    vertex 261.18918104973784 662.3666196083833 301.8576518606659
    vertex 261.19460073334386 662.269035885623 301.84826469329886
  endloop
endfacet
facet normal 0.8660254037844438 -9.809028141276208e-13 0.49999999999999106
  outer loop
    vertex 261.97302171618924 653.9764021437444 300.50000000131666
    vertex 261.19460073334386 662.269035885623 301.84826469329886
    vertex 261.56047016667145 657.9310044861984 301.21456024583074
  endloop
endfacet
facet normal 0.8660254037844438 -9.809028141276208e-13 0.49999999999999106
  outer loop
    vertex 261.97302171618924 653.9764021437444 300.50000000131666
    vertex 261.56047016667145 657.9310044861984 301.21456024583074
    vertex 261.56142512312533 657.8794907862521 301.2129062127333
  endloop
endfacet
facet normal 0.8660254037844438 -9.809028141276208e-13 0.49999999999999106
  outer loop
    vertex 261.97302171618924 653.9764021437444 300.50000000131666
    vertex 261.56142512312533 657.8794907862521 301.2129062127333
    vertex 261.66225263511524 654.2871712248168 301.0382678391593
  endloop
endfacet
facet normal -0.0010370313630270616 0.03211125477647769 0.9994837626908365
  outer loop
    vertex 192.75342006422323 644.7976213381628 301.2803983493327
    vertex 205.25244375673563 652.6642701421277 301.0406284867792
    vertex 192.50016879521678 652.6720536357634 301.02714708034193
  endloop
endfacet
facet normal -0.0010370313630270616 0.03211125477647769 0.9994837626908365
  outer loop
    vertex 205.25244375673563 652.6642701421277 301.0406284867792
    vertex 192.75342006422323 644.7976213381628 301.2803983493327
    vertex 261.56047016667145 649.0689955134263 301.2145602458134
  endloop
endfacet
facet normal -0.0010370313630270616 0.03211125477647769 0.9994837626908365
  outer loop
    vertex 205.25244375673563 652.6642701421277 301.0406284867792
    vertex 261.56047016667145 649.0689955134263 301.2145602458134
    vertex 261.56142512312533 649.1205092133725 301.2129062127161
  endloop
endfacet
facet normal 0.7071067811865449 0.7071067811865501 1.3932811331283987e-12
  outer loop
    vertex 234.47302171618938 625.2928932186281 300.5000000012602
    vertex 226.76591493500274 632.999999999815 300.0000000012754
    vertex 226.76591493500274 632.9999999998148 300.50000000127534
  endloop
endfacet
facet normal 0.7071067811865449 0.7071067811865501 1.3932811331283987e-12
  outer loop
    vertex 226.76591493500274 632.999999999815 300.0000000012754
    vertex 234.47302171618938 625.2928932186281 300.5000000012602
    vertex 234.47302171618938 625.2928932186285 300.00000000126016
  endloop
endfacet
facet normal 0.0 -1.9698374875698473e-12 1.0
  outer loop
    vertex 226.76591493500274 632.9999999998148 300.50000000127534
    vertex 191.9730217161893 633.9999999998148 300.50000000127733
    vertex 191.9730217161893 632.9999999998148 300.50000000127534
  endloop
endfacet
facet normal 0.0 -1.9698374875698473e-12 1.0
  outer loop
    vertex 191.9730217161893 633.9999999998148 300.50000000127733
    vertex 226.76591493500274 632.9999999998148 300.50000000127534
    vertex 227.18012849737582 633.9999999998148 300.50000000127733
  endloop
endfacet
facet normal -9.808438762610222e-16 -0.8660254037854332 0.49999999999827727
  outer loop
    vertex 193.79483085052402 635.0518219939308 302.32180913561433
    vertex 227.18012849737582 633.9999999998148 300.50000000127733
    vertex 226.69014975745165 635.4257610042812 302.9694905004761
  endloop
endfacet
facet normal -9.808438762610222e-16 -0.8660254037854332 0.49999999999827727
  outer loop
    vertex 227.18012849737582 633.9999999998148 300.50000000127733
    vertex 193.79483085052402 635.0518219939308 302.32180913561433
    vertex 191.9730217161893 633.9999999998148 300.50000000127733
  endloop
endfacet
facet normal 1.0 0.0 0.0
  outer loop
    vertex 261.97302171618924 678.4999999998145 300.50000000136504
    vertex 261.97302171618924 628.4999999998147 300.00000000126647
    vertex 261.97302171618924 678.4999999998147 300.000000001365
  endloop
endfacet
facet normal 1.0 0.0 0.0
  outer loop
    vertex 261.97302171618924 628.4999999998147 300.00000000126647
    vertex 261.97302171618924 678.4999999998145 300.50000000136504
    vertex 261.97302171618924 653.9764021437444 300.50000000131666
  endloop
endfacet
facet normal 1.0 0.0 0.0
  outer loop
    vertex 261.97302171618924 628.4999999998147 300.00000000126647
    vertex 261.97302171618924 653.9764021437444 300.50000000131666
    vertex 261.97302171618924 652.9764021437444 300.50000000131473
  endloop
endfacet
facet normal 1.0 0.0 0.0
  outer loop
    vertex 261.97302171618924 628.4999999998147 300.00000000126647
    vertex 261.97302171618924 652.9764021437444 300.50000000131473
    vertex 261.97302171618924 628.4999999998145 300.5000000012665
  endloop
endfacet
facet normal -5.562387817335629e-16 0.8660254037834665 0.5000000000016839
  outer loop
    vertex 227.18012849737582 672.9999999998148 300.50000000135424
    vertex 196.57715915726192 671.9165497641023 302.37659085707094
    vertex 226.69014975745165 671.5742389953373 302.9694905005474
  endloop
endfacet
facet normal -5.562387817335629e-16 0.8660254037834665 0.5000000000016839
  outer loop
    vertex 196.57715915726192 671.9165497641023 302.37659085707094
    vertex 227.18012849737582 672.9999999998148 300.50000000135424
    vertex 196.84802171618927 672.9999999998148 300.50000000135424
  endloop
endfacet
facet normal -0.7071067811865736 -1.398002084704881e-12 0.7071067811865216
  outer loop
    vertex 191.9730217161893 634.4999999998148 300.50000000127835
    vertex 192.50016879521678 652.6720536357634 301.02714708034193
    vertex 191.9730217161893 652.9764021437444 300.50000000131473
  endloop
endfacet
facet normal -0.7071067811865736 -1.398002084704881e-12 0.7071067811865216
  outer loop
    vertex 192.50016879521678 652.6720536357634 301.02714708034193
    vertex 191.9730217161893 634.4999999998148 300.50000000127835
    vertex 192.75342006422323 644.7976213381628 301.2803983493327
  endloop
endfacet
facet normal -0.7071067811865736 -1.398002084704881e-12 0.7071067811865216
  outer loop
    vertex 192.75342006422323 644.7976213381628 301.2803983493327
    vertex 191.9730217161893 634.4999999998148 300.50000000127835
    vertex 192.76061943196143 644.7489688937695 301.28759771707075
  endloop
endfacet
facet normal -0.7071067811865736 -1.398002084704881e-12 0.7071067811865216
  outer loop
    vertex 192.76061943196143 644.7489688937695 301.28759771707075
    vertex 191.9730217161893 634.4999999998148 300.50000000127835
    vertex 193.5902328207037 636.2353563778489 302.1172111057964
  endloop
endfacet
facet normal -0.7071067811865736 -1.398002084704881e-12 0.7071067811865216
  outer loop
    vertex 193.5902328207037 636.2353563778489 302.1172111057964
    vertex 191.9730217161893 634.4999999998148 300.50000000127835
    vertex 193.61501971952774 636.1380124821441 302.14199800461995
  endloop
endfacet
facet normal -0.7071067811865736 -1.398002084704881e-12 0.7071067811865216
  outer loop
    vertex 193.61501971952774 636.1380124821441 302.14199800461995
    vertex 191.9730217161893 634.4999999998148 300.50000000127835
    vertex 193.79483085052402 635.0518219939308 302.32180913561433
  endloop
endfacet
facet normal -0.7071067811865736 -1.398002084704881e-12 0.7071067811865216
  outer loop
    vertex 193.79483085052402 635.0518219939308 302.32180913561433
    vertex 191.9730217161893 634.4999999998148 300.50000000127835
    vertex 191.9730217161893 633.9999999998148 300.50000000127733
  endloop
endfacet
facet normal -0.021248657283896386 -0.15985858540847822 0.986911205344651
  outer loop
    vertex 260.5875459072982 666.6377704701821 302.89971449499865
    vertex 196.57715915726192 671.9165497641023 302.37659085707094
    vertex 196.27162794876645 670.6944249301198 302.1720544469068
  endloop
endfacet
facet normal -0.021248657283896386 -0.15985858540847822 0.986911205344651
  outer loop
    vertex 196.57715915726192 671.9165497641023 302.37659085707094
    vertex 260.5875459072982 666.6377704701821 302.89971449499865
    vertex 226.69014975745165 671.5742389953373 302.9694905005474
  endloop
endfacet
facet normal -0.021248657283896386 -0.15985858540847822 0.986911205344651
  outer loop
    vertex 226.69014975745165 671.5742389953373 302.9694905005474
    vertex 260.5875459072982 666.6377704701821 302.89971449499865
    vertex 228.07981140251525 672.8728540996448 303.2097585371418
  endloop
endfacet
facet normal -0.021248657283896386 -0.15985858540847822 0.986911205344651
  outer loop
    vertex 228.07981140251525 672.8728540996448 303.2097585371418
    vertex 260.5875459072982 666.6377704701821 302.89971449499865
    vertex 260.57146796442663 666.8118302758779 302.92756230893394
  endloop
endfacet
facet normal 0.35112344158838416 -0.9363291775690473 -1.8486217382328805e-12
  outer loop
    vertex 240.66909937523408 620.5110291219564 300.5000000012507
    vertex 257.2569763461035 626.7314829860155 308.66843019305185
    vertex 243.0599781485891 621.4076086619475 309.1754658429526
  endloop
endfacet
facet normal 0.35112344158838416 -0.9363291775690473 -1.8486217382328805e-12
  outer loop
    vertex 257.2569763461035 626.7314829860155 308.66843019305185
    vertex 240.66909937523408 620.5110291219564 300.5000000012507
    vertex 261.97302171618924 628.4999999998145 300.5000000012665
  endloop
endfacet
facet normal 0.35112344158838416 -0.9363291775690473 -1.8486217382328805e-12
  outer loop
    vertex 261.97302171618924 628.4999999998145 300.5000000012665
    vertex 240.66909937523408 620.5110291219564 300.5000000012507
    vertex 261.97302171618924 628.4999999998147 300.00000000126647
  endloop
endfacet
facet normal 0.35112344158838416 -0.9363291775690473 -1.8486217382328805e-12
  outer loop
    vertex 261.97302171618924 628.4999999998147 300.00000000126647
    vertex 240.66909937523408 620.5110291219564 300.5000000012507
    vertex 240.66909937523408 620.5110291219568 300.0000000012507
  endloop
endfacet
facet normal 0.8660254037844427 -9.880555981088351e-13 0.49999999999999306
  outer loop
    vertex 261.6608897145745 652.6642701421277 301.04062848677916
    vertex 261.97302171618924 628.4999999998145 300.5000000012665
    vertex 261.97302171618924 652.9764021437444 300.50000000131473
  endloop
endfacet
facet normal 0.8660254037844427 -9.880555981088351e-13 0.49999999999999306
  outer loop
    vertex 261.97302171618924 628.4999999998145 300.5000000012665
    vertex 261.6608897145745 652.6642701421277 301.04062848677916
    vertex 261.56142512312533 649.1205092133725 301.2129062127161
  endloop
endfacet
facet normal 0.8660254037844427 -9.880555981088351e-13 0.49999999999999306
  outer loop
    vertex 261.97302171618924 628.4999999998145 300.5000000012665
    vertex 261.56142512312533 649.1205092133725 301.2129062127161
    vertex 261.56047016667145 649.0689955134263 301.2145602458134
  endloop
endfacet
facet normal 0.8660254037844427 -9.880555981088351e-13 0.49999999999999306
  outer loop
    vertex 261.97302171618924 628.4999999998145 300.5000000012665
    vertex 261.56047016667145 649.0689955134263 301.2145602458134
    vertex 261.19460073334386 644.7309641139997 301.8482646932643
  endloop
endfacet
facet normal 0.8660254037844427 -9.880555981088351e-13 0.49999999999999306
  outer loop
    vertex 261.97302171618924 628.4999999998145 300.5000000012665
    vertex 261.19460073334386 644.7309641139997 301.8482646932643
    vertex 261.18918104973784 644.6333803912387 301.85765186063105
  endloop
endfacet
facet normal 0.8660254037844427 -9.880555981088351e-13 0.49999999999999306
  outer loop
    vertex 261.97302171618924 628.4999999998145 300.5000000012665
    vertex 261.18918104973784 644.6333803912387 301.85765186063105
    vertex 260.5875459072982 640.3622295294358 302.899714494947
  endloop
endfacet
facet normal 0.8660254037844427 -9.880555981088351e-13 0.49999999999999306
  outer loop
    vertex 261.97302171618924 628.4999999998145 300.5000000012665
    vertex 260.5875459072982 640.3622295294358 302.899714494947
    vertex 260.5714679644263 640.18816972374 302.9275623088815
  endloop
endfacet
facet normal 0.8660254037844427 -9.880555981088351e-13 0.49999999999999306
  outer loop
    vertex 261.97302171618924 628.4999999998145 300.5000000012665
    vertex 260.5714679644263 640.18816972374 302.9275623088815
    vertex 259.7450648552896 636.008291898223 304.35893448143133
  endloop
endfacet
facet normal 0.8660254037844427 -9.880555981088351e-13 0.49999999999999306
  outer loop
    vertex 261.97302171618924 628.4999999998145 300.5000000012665
    vertex 259.7450648552896 636.008291898223 304.35893448143133
    vertex 259.7088735490769 635.7276258874289 304.42161966258317
  endloop
endfacet
facet normal 0.8660254037844427 -9.880555981088351e-13 0.49999999999999306
  outer loop
    vertex 261.97302171618924 628.4999999998145 300.5000000012665
    vertex 259.7088735490769 635.7276258874289 304.42161966258317
    vertex 258.67225536176846 631.6620851591907 306.21709503104336
  endloop
endfacet
facet normal 0.8660254037844427 -9.880555981088351e-13 0.49999999999999306
  outer loop
    vertex 261.97302171618924 628.4999999998145 300.5000000012665
    vertex 258.67225536176846 631.6620851591907 306.21709503104336
    vertex 258.60333722700756 631.2448709230637 306.33646474201123
  endloop
endfacet
facet normal 0.8660254037844427 -9.880555981088351e-13 0.49999999999999306
  outer loop
    vertex 261.97302171618924 628.4999999998145 300.5000000012665
    vertex 258.60333722700756 631.2448709230637 306.33646474201123
    vertex 257.37429140791863 627.3151450758943 308.46523454549583
  endloop
endfacet
facet normal 0.8660254037844427 -9.880555981088351e-13 0.49999999999999306
  outer loop
    vertex 261.97302171618924 628.4999999998145 300.5000000012665
    vertex 257.37429140791863 627.3151450758943 308.46523454549583
    vertex 257.2569763461035 626.7314829860155 308.66843019305185
  endloop
endfacet
facet normal -4.424533615948517e-18 -1.0 -1.9694547789436173e-12
  outer loop
    vertex 208.518631162673 613.4999999998081 303.67833523658015
    vertex 221.97302171618932 613.499999999815 300.00000000123697
    vertex 221.97302171618932 613.4999999998054 304.9835224502575
  endloop
endfacet
facet normal -4.424533615948517e-18 -1.0 -1.9694547789436173e-12
  outer loop
    vertex 221.97302171618932 613.499999999815 300.00000000123697
    vertex 208.518631162673 613.4999999998081 303.67833523658015
    vertex 205.30713587760638 613.4999999998088 303.2142930480162
  endloop
endfacet
facet normal -4.424533615948517e-18 -1.0 -1.9694547789436173e-12
  outer loop
    vertex 221.97302171618932 613.499999999815 300.00000000123697
    vertex 205.30713587760638 613.4999999998088 303.2142930480162
    vertex 193.9428047598697 613.4999999998103 302.4697830449176
  endloop
endfacet
facet normal -4.424533615948517e-18 -1.0 -1.9694547789436173e-12
  outer loop
    vertex 221.97302171618932 613.499999999815 300.00000000123697
    vertex 193.9428047598697 613.4999999998103 302.4697830449176
    vertex 191.9730217161893 613.4999999998148 300.50000000123697
  endloop
endfacet
facet normal -4.424533615948517e-18 -1.0 -1.9694547789436173e-12
  outer loop
    vertex 221.97302171618932 613.499999999815 300.00000000123697
    vertex 191.9730217161893 613.4999999998148 300.50000000123697
    vertex 191.9730217161893 613.499999999815 300.00000000123697
  endloop
endfacet
facet normal 0.9238795325112996 -0.38268343236505903 -7.537972443265041e-13
  outer loop
    vertex 227.18012849737582 633.9999999998148 300.50000000127733
    vertex 226.76591493500274 632.999999999815 300.0000000012754
    vertex 227.18012849737582 633.999999999815 300.00000000127733
  endloop
endfacet
facet normal 0.9238795325112996 -0.38268343236505903 -7.537972443265041e-13
  outer loop
    vertex 226.76591493500274 632.999999999815 300.0000000012754
    vertex 227.18012849737582 633.9999999998148 300.50000000127733
    vertex 226.76591493500274 632.9999999998148 300.50000000127534
  endloop
endfacet
facet normal -0.7071067811865535 0.7071067811865416 1.3928854452960988e-12
  outer loop
    vertex 227.18012849737582 672.999999999815 300.0000000013542
    vertex 240.66909937523374 686.488970877673 300.5000000013808
    vertex 240.66909937523374 686.4889708776733 300.00000000138084
  endloop
endfacet
facet normal -0.7071067811865535 0.7071067811865416 1.3928854452960988e-12
  outer loop
    vertex 240.66909937523374 686.488970877673 300.5000000013808
    vertex 227.18012849737582 672.999999999815 300.0000000013542
    vertex 227.18012849737582 672.9999999998148 300.50000000135424
  endloop
endfacet
facet normal -0.13643106009008854 -0.5045090585284554 0.8525591919071814
  outer loop
    vertex 258.60333722700756 675.7551290765414 306.336464742099
    vertex 241.04399898839992 683.8923265702259 308.34178089193796
    vertex 238.56479227696374 682.004626347832 306.8279825843737
  endloop
endfacet
facet normal -0.13643106009008854 -0.5045090585284554 0.8525591919071814
  outer loop
    vertex 241.04399898839992 683.8923265702259 308.34178089193796
    vertex 258.60333722700756 675.7551290765414 306.336464742099
    vertex 257.37429140791863 679.684854923702 308.46523454559895
  endloop
endfacet
facet normal -0.06524702696398882 0.2844354695883784 0.956472314869803
  outer loop
    vertex 238.57831948411294 624.9995924333431 306.8276507805457
    vertex 258.67225536176846 631.6620851591907 306.21709503104336
    vertex 235.95088455133282 627.2998920797711 305.96435435764465
  endloop
endfacet
facet normal -0.06524702696398882 0.2844354695883784 0.956472314869803
  outer loop
    vertex 258.67225536176846 631.6620851591907 306.21709503104336
    vertex 238.57831948411294 624.9995924333431 306.8276507805457
    vertex 258.60333722700756 631.2448709230637 306.33646474201123
  endloop
endfacet
facet normal -0.6830127018922263 -0.6830127018927294 0.2588190451011562
  outer loop
    vertex 241.04399898840026 623.1076734293716 308.3417808918183
    vertex 240.66909937523408 620.5110291219564 300.5000000012507
    vertex 243.0599781485891 621.4076086619475 309.1754658429526
  endloop
endfacet
facet normal -0.6830127018922263 -0.6830127018927294 0.2588190451011562
  outer loop
    vertex 240.66909937523408 620.5110291219564 300.5000000012507
    vertex 241.04399898840026 623.1076734293716 308.3417808918183
    vertex 238.57831948411294 624.9995924333431 306.8276507805457
  endloop
endfacet
facet normal -0.6830127018922263 -0.6830127018927294 0.2588190451011562
  outer loop
    vertex 240.66909937523408 620.5110291219564 300.5000000012507
    vertex 238.57831948411294 624.9995924333431 306.8276507805457
    vertex 235.95088455133282 627.2998920797711 305.96435435764465
  endloop
endfacet
facet normal -0.6830127018922263 -0.6830127018927294 0.2588190451011562
  outer loop
    vertex 240.66909937523408 620.5110291219564 300.5000000012507
    vertex 235.95088455133282 627.2998920797711 305.96435435764465
    vertex 233.5962854222783 629.2237964782641 304.8277688660488
  endloop
endfacet
facet normal -0.6830127018922263 -0.6830127018927294 0.2588190451011562
  outer loop
    vertex 240.66909937523408 620.5110291219564 300.5000000012507
    vertex 233.5962854222783 629.2237964782641 304.8277688660488
    vertex 230.24673302033878 632.2578728781809 303.99524080986197
  endloop
endfacet
facet normal -0.6830127018922263 -0.6830127018927294 0.2588190451011562
  outer loop
    vertex 240.66909937523408 620.5110291219564 300.5000000012507
    vertex 230.24673302033878 632.2578728781809 303.99524080986197
    vertex 228.079811402516 634.1271458999722 303.2097585370657
  endloop
endfacet
facet normal -0.6830127018922263 -0.6830127018927294 0.2588190451011562
  outer loop
    vertex 240.66909937523408 620.5110291219564 300.5000000012507
    vertex 228.079811402516 634.1271458999722 303.2097585370657
    vertex 226.69014975745165 635.4257610042812 302.9694905004761
  endloop
endfacet
facet normal -0.6830127018922263 -0.6830127018927294 0.2588190451011562
  outer loop
    vertex 240.66909937523408 620.5110291219564 300.5000000012507
    vertex 226.69014975745165 635.4257610042812 302.9694905004761
    vertex 227.18012849737582 633.9999999998148 300.50000000127733
  endloop
endfacet
facet normal -0.0010370313630273667 -0.0321112547804178 0.9994837626907099
  outer loop
    vertex 204.48086599011788 654.2871712248167 301.0382678391593
    vertex 194.1272946836049 662.1170918694768 301.27908375588703
    vertex 192.16793568876258 654.279655890108 301.02525089760746
  endloop
endfacet
facet normal -0.0010370313630273667 -0.0321112547804178 0.9994837626907099
  outer loop
    vertex 194.1272946836049 662.1170918694768 301.27908375588703
    vertex 204.48086599011788 654.2871712248167 301.0382678391593
    vertex 261.56047016667145 657.9310044861984 301.21456024583074
  endloop
endfacet
facet normal -0.0010370313630273667 -0.0321112547804178 0.9994837626907099
  outer loop
    vertex 261.56047016667145 657.9310044861984 301.21456024583074
    vertex 204.48086599011788 654.2871712248167 301.0382678391593
    vertex 261.56142512312533 657.8794907862521 301.2129062127333
  endloop
endfacet
facet normal -0.7071067811865702 -1.3923432860792026e-12 0.7071067811865248
  outer loop
    vertex 191.9730217161893 613.4999999998148 300.50000000123697
    vertex 193.9188630111183 631.8765680043826 302.4458412962023
    vertex 191.9730217161893 632.9999999998148 300.50000000127534
  endloop
endfacet
facet normal -0.7071067811865702 -1.3923432860792026e-12 0.7071067811865248
  outer loop
    vertex 193.9188630111183 631.8765680043826 302.4458412962023
    vertex 191.9730217161893 613.4999999998148 300.50000000123697
    vertex 193.59931002558469 627.1669707151657 302.1262883106594
  endloop
endfacet
facet normal -0.7071067811865702 -1.3923432860792026e-12 0.7071067811865248
  outer loop
    vertex 193.59931002558469 627.1669707151657 302.1262883106594
    vertex 191.9730217161893 613.4999999998148 300.50000000123697
    vertex 193.6113685181718 627.0666162057994 302.13834680324624
  endloop
endfacet
facet normal -0.7071067811865702 -1.3923432860792026e-12 0.7071067811865248
  outer loop
    vertex 193.6113685181718 627.0666162057994 302.13834680324624
    vertex 191.9730217161893 613.4999999998148 300.50000000123697
    vertex 193.59286809122423 618.5116594004662 302.1198463762819
  endloop
endfacet
facet normal -0.7071067811865702 -1.3923432860792026e-12 0.7071067811865248
  outer loop
    vertex 193.59286809122423 618.5116594004662 302.1198463762819
    vertex 191.9730217161893 613.4999999998148 300.50000000123697
    vertex 193.6153903419581 618.4160005310413 302.14236862701534
  endloop
endfacet
facet normal -0.7071067811865702 -1.3923432860792026e-12 0.7071067811865248
  outer loop
    vertex 193.6153903419581 618.4160005310413 302.14236862701534
    vertex 191.9730217161893 613.4999999998148 300.50000000123697
    vertex 193.9428047598697 613.4999999998103 302.4697830449176
  endloop
endfacet
facet normal 1.0 0.0 0.0
  outer loop
    vertex 234.47302171618938 625.2928932186281 300.5000000012602
    vertex 234.47302171618938 618.187499999815 300.0000000012462
    vertex 234.47302171618938 625.2928932186285 300.00000000126016
  endloop
endfacet
facet normal 1.0 0.0 0.0
  outer loop
    vertex 234.47302171618938 618.187499999815 300.0000000012462
    vertex 234.47302171618938 625.2928932186281 300.5000000012602
    vertex 234.47302171618938 624.7244871456801 302.000000001259
  endloop
endfacet
facet normal 1.0 0.0 0.0
  outer loop
    vertex 234.47302171618938 618.187499999815 300.0000000012462
    vertex 234.47302171618938 624.7244871456801 302.000000001259
    vertex 234.47302171618938 618.187499999811 302.0000000012462
  endloop
endfacet
facet normal -0.021248657283895005 0.15985858540460174 0.9869112053452789
  outer loop
    vertex 193.79483085052402 635.0518219939308 302.32180913561433
    vertex 260.5875459072982 640.3622295294358 302.899714494947
    vertex 193.61501971952774 636.1380124821441 302.14199800461995
  endloop
endfacet
facet normal -0.021248657283895005 0.15985858540460174 0.9869112053452789
  outer loop
    vertex 260.5875459072982 640.3622295294358 302.899714494947
    vertex 193.79483085052402 635.0518219939308 302.32180913561433
    vertex 226.69014975745165 635.4257610042812 302.9694905004761
  endloop
endfacet
facet normal -0.021248657283895005 0.15985858540460174 0.9869112053452789
  outer loop
    vertex 260.5875459072982 640.3622295294358 302.899714494947
    vertex 226.69014975745165 635.4257610042812 302.9694905004761
    vertex 228.079811402516 634.1271458999722 303.2097585370657
  endloop
endfacet
facet normal -0.021248657283895005 0.15985858540460174 0.9869112053452789
  outer loop
    vertex 260.5875459072982 640.3622295294358 302.899714494947
    vertex 228.079811402516 634.1271458999722 303.2097585370657
    vertex 260.5714679644263 640.18816972374 302.9275623088815
  endloop
endfacet
facet normal -0.7071067811865478 -0.7071067811865472 -1.39288544529611e-12
  outer loop
    vertex 240.66909937523408 620.5110291219568 300.0000000012507
    vertex 227.18012849737582 633.9999999998148 300.50000000127733
    vertex 227.18012849737582 633.999999999815 300.00000000127733
  endloop
endfacet
facet normal -0.7071067811865478 -0.7071067811865472 -1.39288544529611e-12
  outer loop
    vertex 227.18012849737582 633.9999999998148 300.50000000127733
    vertex 240.66909937523408 620.5110291219568 300.0000000012507
    vertex 240.66909937523408 620.5110291219564 300.5000000012507
  endloop
endfacet
facet normal -0.1364310600900793 0.5045090585250919 0.8525591919091735
  outer loop
    vertex 241.04399898840026 623.1076734293716 308.3417808918183
    vertex 258.60333722700756 631.2448709230637 306.33646474201123
    vertex 238.57831948411294 624.9995924333431 306.8276507805457
  endloop
endfacet
facet normal -0.1364310600900793 0.5045090585250919 0.8525591919091735
  outer loop
    vertex 258.60333722700756 631.2448709230637 306.33646474201123
    vertex 241.04399898840026 623.1076734293716 308.3417808918183
    vertex 257.37429140791863 627.3151450758943 308.46523454549583
  endloop
endfacet
facet normal 5.708674774206981e-19 1.9698342557017817e-12 -1.0
  outer loop
    vertex 201.97302171618918 693.499999999815 300.00000000139454
    vertex 191.9730217161893 613.499999999815 300.00000000123697
    vertex 191.9730217161893 653.4999999998151 300.00000000131575
  endloop
endfacet
facet normal 5.708674774206981e-19 1.9698342557017817e-12 -1.0
  outer loop
    vertex 191.9730217161893 613.499999999815 300.00000000123697
    vertex 201.97302171618918 693.499999999815 300.00000000139454
    vertex 221.97302171618932 613.499999999815 300.00000000123697
  endloop
endfacet
facet normal 5.708674774206981e-19 1.9698342557017817e-12 -1.0
  outer loop
    vertex 221.97302171618932 613.499999999815 300.00000000123697
    vertex 201.97302171618918 693.499999999815 300.00000000139454
    vertex 221.97302171618932 693.499999999815 300.00000000139454
  endloop
endfacet
facet normal 5.708674774206981e-19 1.9698342557017817e-12 -1.0
  outer loop
    vertex 221.97302171618932 613.499999999815 300.00000000123697
    vertex 221.97302171618932 693.499999999815 300.00000000139454
    vertex 226.76591493500274 673.999999999815 300.0000000013562
  endloop
endfacet
facet normal 5.708674774206981e-19 1.9698342557017817e-12 -1.0
  outer loop
    vertex 226.76591493500274 673.999999999815 300.0000000013562
    vertex 221.97302171618932 693.499999999815 300.00000000139454
    vertex 234.47302171618938 688.812499999815 300.0000000013854
  endloop
endfacet
facet normal 5.708674774206981e-19 1.9698342557017817e-12 -1.0
  outer loop
    vertex 226.76591493500274 673.999999999815 300.0000000013562
    vertex 234.47302171618938 688.812499999815 300.0000000013854
    vertex 234.47302171618938 681.7071067810018 300.00000000137135
  endloop
endfacet
facet normal 5.708674774206981e-19 1.9698342557017817e-12 -1.0
  outer loop
    vertex 227.18012849737582 672.999999999815 300.0000000013542
    vertex 226.76591493500274 632.999999999815 300.0000000012754
    vertex 226.76591493500274 673.999999999815 300.0000000013562
  endloop
endfacet
facet normal 5.708674774206981e-19 1.9698342557017817e-12 -1.0
  outer loop
    vertex 226.76591493500274 632.999999999815 300.0000000012754
    vertex 227.18012849737582 672.999999999815 300.0000000013542
    vertex 227.18012849737582 633.999999999815 300.00000000127733
  endloop
endfacet
facet normal 5.708674774206981e-19 1.9698342557017817e-12 -1.0
  outer loop
    vertex 227.18012849737582 633.999999999815 300.00000000127733
    vertex 227.18012849737582 672.999999999815 300.0000000013542
    vertex 240.66909937523374 686.4889708776733 300.00000000138084
  endloop
endfacet
facet normal 5.708674774206981e-19 1.9698342557017817e-12 -1.0
  outer loop
    vertex 227.18012849737582 633.999999999815 300.00000000127733
    vertex 240.66909937523374 686.4889708776733 300.00000000138084
    vertex 240.66909937523408 620.5110291219568 300.0000000012507
  endloop
endfacet
facet normal 5.708674774206981e-19 1.9698342557017817e-12 -1.0
  outer loop
    vertex 240.66909937523408 620.5110291219568 300.0000000012507
    vertex 240.66909937523374 686.4889708776733 300.00000000138084
    vertex 261.97302171618924 678.4999999998147 300.000000001365
  endloop
endfacet
facet normal 5.708674774206981e-19 1.9698342557017817e-12 -1.0
  outer loop
    vertex 240.66909937523408 620.5110291219568 300.0000000012507
    vertex 261.97302171618924 678.4999999998147 300.000000001365
    vertex 261.97302171618924 628.4999999998147 300.00000000126647
  endloop
endfacet
facet normal 5.708674774206981e-19 1.9698342557017817e-12 -1.0
  outer loop
    vertex 221.97302171618932 613.499999999815 300.00000000123697
    vertex 226.76591493500274 632.999999999815 300.0000000012754
    vertex 234.47302171618938 618.187499999815 300.0000000012462
  endloop
endfacet
facet normal 5.708674774206981e-19 1.9698342557017817e-12 -1.0
  outer loop
    vertex 226.76591493500274 632.999999999815 300.0000000012754
    vertex 221.97302171618932 613.499999999815 300.00000000123697
    vertex 226.76591493500274 673.999999999815 300.0000000013562
  endloop
endfacet
facet normal 5.708674774206981e-19 1.9698342557017817e-12 -1.0
  outer loop
    vertex 234.47302171618938 618.187499999815 300.0000000012462
    vertex 226.76591493500274 632.999999999815 300.0000000012754
    vertex 234.47302171618938 625.2928932186285 300.00000000126016
  endloop
endfacet
facet normal 0.6830127018922239 -0.6830127018927322 0.25881904510115566
  outer loop
    vertex 230.88271442729226 679.3081785269342 303.6439997531598
    vertex 234.47302171618938 682.2755128539424 302.0000000013724
    vertex 232.3418537796757 680.9519241158104 304.1311679378837
  endloop
endfacet
facet normal 0.6830127018922239 -0.6830127018927322 0.25881904510115566
  outer loop
    vertex 234.47302171618938 682.2755128539424 302.0000000013724
    vertex 230.88271442729226 679.3081785269342 303.6439997531598
    vertex 227.45841497805176 675.8342370946976 303.51299662345644
  endloop
endfacet
facet normal 0.6830127018922239 -0.6830127018927322 0.25881904510115566
  outer loop
    vertex 234.47302171618938 682.2755128539424 302.0000000013724
    vertex 227.45841497805176 675.8342370946976 303.51299662345644
    vertex 227.3603151686619 675.7296111138161 303.49577432815687
  endloop
endfacet
facet normal 0.6830127018922239 -0.6830127018927322 0.25881904510115566
  outer loop
    vertex 234.47302171618938 682.2755128539424 302.0000000013724
    vertex 227.3603151686619 675.7296111138161 303.49577432815687
    vertex 226.76591493500274 673.9999999998148 300.50000000135617
  endloop
endfacet
facet normal 0.6830127018922239 -0.6830127018927322 0.25881904510115566
  outer loop
    vertex 234.47302171618938 682.2755128539424 302.0000000013724
    vertex 226.76591493500274 673.9999999998148 300.50000000135617
    vertex 234.47302171618938 681.7071067810015 300.50000000137135
  endloop
endfacet
facet normal -2.697251121513522e-16 -0.8660254037854186 0.49999999999830297
  outer loop
    vertex 204.48086599011788 654.2871712248167 301.0382678391593
    vertex 261.97302171618924 653.9764021437444 300.50000000131666
    vertex 261.66225263511524 654.2871712248168 301.0382678391593
  endloop
endfacet
facet normal -2.697251121513522e-16 -0.8660254037854186 0.49999999999830297
  outer loop
    vertex 261.97302171618924 653.9764021437444 300.50000000131666
    vertex 204.48086599011788 654.2871712248167 301.0382678391593
    vertex 192.16793568876258 654.279655890108 301.02525089760746
  endloop
endfacet
facet normal -2.697251121513522e-16 -0.8660254037854186 0.49999999999830297
  outer loop
    vertex 261.97302171618924 653.9764021437444 300.50000000131666
    vertex 192.16793568876258 654.279655890108 301.02525089760746
    vertex 192.0921222521716 653.9764021437444 300.50000000131666
  endloop
endfacet
facet normal -0.09579191040989207 -0.34439049522992576 0.9339267084173735
  outer loop
    vertex 257.37429140791863 679.684854923702 308.46523454559895
    vertex 243.0599781485891 685.5923913376477 309.175465843079
    vertex 241.04399898839992 683.8923265702259 308.34178089193796
  endloop
endfacet
facet normal -0.09579191040989207 -0.34439049522992576 0.9339267084173735
  outer loop
    vertex 243.0599781485891 685.5923913376477 309.175465843079
    vertex 257.37429140791863 679.684854923702 308.46523454559895
    vertex 257.2569763461035 680.26851701358 308.66843019315735
  endloop
endfacet
facet normal 0.0 -1.9698374875698473e-12 1.0
  outer loop
    vertex 227.18012849737582 672.9999999998148 300.50000000135424
    vertex 197.0980217161892 673.9999999998148 300.50000000135617
    vertex 196.84802171618927 672.9999999998148 300.50000000135424
  endloop
endfacet
facet normal 0.0 -1.9698374875698473e-12 1.0
  outer loop
    vertex 197.0980217161892 673.9999999998148 300.50000000135617
    vertex 227.18012849737582 672.9999999998148 300.50000000135424
    vertex 226.76591493500274 673.9999999998148 300.50000000135617
  endloop
endfacet
facet normal 0.0 -1.9698374875698473e-12 1.0
  outer loop
    vertex 261.97302171618924 652.9764021437444 300.50000000131473
    vertex 191.9730217161893 653.4999999998148 300.50000000131575
    vertex 191.9730217161893 652.9764021437444 300.50000000131473
  endloop
endfacet
facet normal 0.0 -1.9698374875698473e-12 1.0
  outer loop
    vertex 191.9730217161893 653.4999999998148 300.50000000131575
    vertex 261.97302171618924 652.9764021437444 300.50000000131473
    vertex 192.0921222521716 653.9764021437444 300.50000000131666
  endloop
endfacet
facet normal 0.0 -1.9698374875698473e-12 1.0
  outer loop
    vertex 192.0921222521716 653.9764021437444 300.50000000131666
    vertex 261.97302171618924 652.9764021437444 300.50000000131473
    vertex 261.97302171618924 653.9764021437444 300.50000000131666
  endloop
endfacet
facet normal -0.0652470269639924 -0.2844354695921492 0.9564723148686813
  outer loop
    vertex 258.67225536176846 675.3379148404142 306.2170950311294
    vertex 238.56479227696374 682.004626347832 306.8279825843737
    vertex 235.95088455133282 679.7001079198352 305.96435435774805
  endloop
endfacet
facet normal -0.0652470269639924 -0.2844354695921492 0.9564723148686813
  outer loop
    vertex 238.56479227696374 682.004626347832 306.8279825843737
    vertex 258.67225536176846 675.3379148404142 306.2170950311294
    vertex 258.60333722700756 675.7551290765414 306.336464742099
  endloop
endfacet
facet normal -0.00812923732119862 0.09619819330056788 0.9953290024440574
  outer loop
    vertex 193.5902328207037 636.2353563778489 302.1172111057964
    vertex 261.19460073334386 644.7309641139997 301.8482646932643
    vertex 192.76061943196143 644.7489688937695 301.28759771707075
  endloop
endfacet
facet normal -0.00812923732119862 0.09619819330056788 0.9953290024440574
  outer loop
    vertex 261.19460073334386 644.7309641139997 301.8482646932643
    vertex 193.5902328207037 636.2353563778489 302.1172111057964
    vertex 261.18918104973784 644.6333803912387 301.85765186063105
  endloop
endfacet
facet normal -0.008067507100592983 -0.14520841903560067 0.9893681975737665
  outer loop
    vertex 261.56047016667145 657.9310044861984 301.21456024583074
    vertex 194.16087159325895 662.2513995080925 301.2990697245824
    vertex 194.1272946836049 662.1170918694768 301.27908375588703
  endloop
endfacet
facet normal -0.008067507100592983 -0.14520841903560067 0.9893681975737665
  outer loop
    vertex 194.16087159325895 662.2513995080925 301.2990697245824
    vertex 261.56047016667145 657.9310044861984 301.21456024583074
    vertex 261.19460073334386 662.269035885623 301.84826469329886
  endloop
endfacet
facet normal -0.040329329026276145 0.22274714361565276 0.9740417112379521
  outer loop
    vertex 233.5962854222783 629.2237964782641 304.8277688660488
    vertex 259.7450648552896 636.008291898223 304.35893448143133
    vertex 230.24673302033878 632.2578728781809 303.99524080986197
  endloop
endfacet
facet normal -0.040329329026276145 0.22274714361565276 0.9740417112379521
  outer loop
    vertex 259.7450648552896 636.008291898223 304.35893448143133
    vertex 233.5962854222783 629.2237964782641 304.8277688660488
    vertex 259.7088735490769 635.7276258874289 304.42161966258317
  endloop
endfacet
facet normal -0.008129237321199445 -0.09619819330448297 0.9953290024436791
  outer loop
    vertex 261.19460073334386 662.269035885623 301.84826469329886
    vertex 196.20788295194825 670.4394449428478 302.10716013155115
    vertex 194.16087159325895 662.2513995080925 301.2990697245824
  endloop
endfacet
facet normal -0.008129237321199445 -0.09619819330448297 0.9953290024436791
  outer loop
    vertex 196.20788295194825 670.4394449428478 302.10716013155115
    vertex 261.19460073334386 662.269035885623 301.84826469329886
    vertex 261.18918104973784 662.3666196083833 301.8576518606659
  endloop
endfacet
facet normal -0.0909836535063416 0.42163501581701734 0.9021894968528626
  outer loop
    vertex 235.95088455133282 627.2998920797711 305.96435435764465
    vertex 259.7088735490769 635.7276258874289 304.42161966258317
    vertex 233.5962854222783 629.2237964782641 304.8277688660488
  endloop
endfacet
facet normal -0.0909836535063416 0.42163501581701734 0.9021894968528626
  outer loop
    vertex 259.7088735490769 635.7276258874289 304.42161966258317
    vertex 235.95088455133282 627.2998920797711 305.96435435764465
    vertex 258.67225536176846 631.6620851591907 306.21709503104336
  endloop
endfacet
facet normal -0.09579191040989021 0.3443904952262633 0.9339267084187242
  outer loop
    vertex 243.0599781485891 621.4076086619475 309.1754658429526
    vertex 257.37429140791863 627.3151450758943 308.46523454549583
    vertex 241.04399898840026 623.1076734293716 308.3417808918183
  endloop
endfacet
facet normal -0.09579191040989021 0.3443904952262633 0.9339267084187242
  outer loop
    vertex 257.37429140791863 627.3151450758943 308.46523454549583
    vertex 243.0599781485891 621.4076086619475 309.1754658429526
    vertex 257.2569763461035 626.7314829860155 308.66843019305185
  endloop
endfacet
facet normal -0.00806750710059148 0.1452084190317052 0.9893681975743382
  outer loop
    vertex 192.76061943196143 644.7489688937695 301.28759771707075
    vertex 261.56047016667145 649.0689955134263 301.2145602458134
    vertex 192.75342006422323 644.7976213381628 301.2803983493327
  endloop
endfacet
facet normal -0.00806750710059148 0.1452084190317052 0.9893681975743382
  outer loop
    vertex 261.56047016667145 649.0689955134263 301.2145602458134
    vertex 192.76061943196143 644.7489688937695 301.28759771707075
    vertex 261.19460073334386 644.7309641139997 301.8482646932643
  endloop
endfacet
facet normal -0.026142084167937608 -0.24041753892860537 0.9703174730009086
  outer loop
    vertex 261.18918104973784 662.3666196083833 301.8576518606659
    vertex 196.27162794876645 670.6944249301198 302.1720544469068
    vertex 196.20788295194825 670.4394449428478 302.10716013155115
  endloop
endfacet
facet normal -0.026142084167937608 -0.24041753892860537 0.9703174730009086
  outer loop
    vertex 196.27162794876645 670.6944249301198 302.1720544469068
    vertex 261.18918104973784 662.3666196083833 301.8576518606659
    vertex 260.5875459072982 666.6377704701821 302.89971449499865
  endloop
endfacet
facet normal -1.0 -0.0 0.0
  outer loop
    vertex 191.9730217161893 613.499999999815 300.00000000123697
    vertex 191.9730217161893 653.4999999998148 300.50000000131575
    vertex 191.9730217161893 653.4999999998151 300.00000000131575
  endloop
endfacet
facet normal -1.0 -0.0 0.0
  outer loop
    vertex 191.9730217161893 653.4999999998148 300.50000000131575
    vertex 191.9730217161893 613.499999999815 300.00000000123697
    vertex 191.9730217161893 652.9764021437444 300.50000000131473
  endloop
endfacet
facet normal -1.0 -0.0 0.0
  outer loop
    vertex 191.9730217161893 652.9764021437444 300.50000000131473
    vertex 191.9730217161893 613.499999999815 300.00000000123697
    vertex 191.9730217161893 634.4999999998148 300.50000000127835
  endloop
endfacet
facet normal -1.0 -0.0 0.0
  outer loop
    vertex 191.9730217161893 634.4999999998148 300.50000000127835
    vertex 191.9730217161893 613.499999999815 300.00000000123697
    vertex 191.9730217161893 633.9999999998148 300.50000000127733
  endloop
endfacet
facet normal -1.0 -0.0 0.0
  outer loop
    vertex 191.9730217161893 633.9999999998148 300.50000000127733
    vertex 191.9730217161893 613.499999999815 300.00000000123697
    vertex 191.9730217161893 632.9999999998148 300.50000000127534
  endloop
endfacet
facet normal -1.0 -0.0 0.0
  outer loop
    vertex 191.9730217161893 632.9999999998148 300.50000000127534
    vertex 191.9730217161893 613.499999999815 300.00000000123697
    vertex 191.9730217161893 613.4999999998148 300.50000000123697
  endloop
endfacet
facet normal 2.2461628285884195e-16 0.04855703096207867 0.9988204116577453
  outer loop
    vertex 261.6608897145745 652.6642701421277 301.04062848677916
    vertex 205.25244375673563 652.6642701421277 301.0406284867792
    vertex 261.56142512312533 649.1205092133725 301.2129062127161
  endloop
endfacet
facet normal 1.0 0.0 0.0
  outer loop
    vertex 234.47302171618938 688.812499999811 302.0000000013854
    vertex 234.47302171618938 681.7071067810018 300.00000000137135
    vertex 234.47302171618938 688.812499999815 300.0000000013854
  endloop
endfacet
facet normal 1.0 0.0 0.0
  outer loop
    vertex 234.47302171618938 681.7071067810018 300.00000000137135
    vertex 234.47302171618938 688.812499999811 302.0000000013854
    vertex 234.47302171618938 682.2755128539424 302.0000000013724
  endloop
endfacet
facet normal 1.0 0.0 0.0
  outer loop
    vertex 234.47302171618938 681.7071067810018 300.00000000137135
    vertex 234.47302171618938 682.2755128539424 302.0000000013724
    vertex 234.47302171618938 681.7071067810015 300.50000000137135
  endloop
endfacet
facet normal -3.9899170130445984e-16 -0.048557030966015026 0.9988204116575539
  outer loop
    vertex 261.66225263511524 654.2871712248168 301.0382678391593
    vertex 261.56142512312533 657.8794907862521 301.2129062127333
    vertex 204.48086599011788 654.2871712248167 301.0382678391593
  endloop
endfacet
facet normal -0.026142084167934312 0.24041753892478507 0.9703174730018552
  outer loop
    vertex 193.61501971952774 636.1380124821441 302.14199800461995
    vertex 261.18918104973784 644.6333803912387 301.85765186063105
    vertex 193.5902328207037 636.2353563778489 302.1172111057964
  endloop
endfacet
facet normal -0.026142084167934312 0.24041753892478507 0.9703174730018552
  outer loop
    vertex 261.18918104973784 644.6333803912387 301.85765186063105
    vertex 193.61501971952774 636.1380124821441 302.14199800461995
    vertex 260.5875459072982 640.3622295294358 302.899714494947
  endloop
endfacet
facet normal -0.9701425001453311 0.24253562503633627 4.331892326453283e-13
  outer loop
    vertex 201.97302171618918 693.499999999815 300.00000000139454
    vertex 197.0980217161892 673.9999999998148 300.50000000135617
    vertex 201.97302171618918 693.4999999998091 302.99586564413823
  endloop
endfacet
facet normal -0.9701425001453311 0.24253562503633627 4.331892326453283e-13
  outer loop
    vertex 197.0980217161892 673.9999999998148 300.50000000135617
    vertex 201.97302171618918 693.499999999815 300.00000000139454
    vertex 191.9730217161893 653.4999999998151 300.00000000131575
  endloop
endfacet
facet normal -0.9701425001453311 0.24253562503633627 4.331892326453283e-13
  outer loop
    vertex 201.97302171618918 693.4999999998091 302.99586564413823
    vertex 197.0980217161892 673.9999999998148 300.50000000135617
    vertex 200.30688598629158 686.8354570802206 302.3942694178566
  endloop
endfacet
facet normal -0.9701425001453311 0.24253562503633627 4.331892326453283e-13
  outer loop
    vertex 201.97302171618918 693.4999999998091 302.99586564413823
    vertex 200.30688598629158 686.8354570802206 302.3942694178566
    vertex 200.42960760989197 687.3263435746212 302.51051295926226
  endloop
endfacet
facet normal -0.9701425001453311 0.24253562503633627 4.331892326453283e-13
  outer loop
    vertex 200.30688598629158 686.8354570802206 302.3942694178566
    vertex 197.0980217161892 673.9999999998148 300.50000000135617
    vertex 198.43531314328644 679.349165708199 302.33426447725947
  endloop
endfacet
facet normal -0.9701425001453311 0.24253562503633627 4.331892326453283e-13
  outer loop
    vertex 198.43531314328644 679.349165708199 302.33426447725947
    vertex 197.0980217161892 673.9999999998148 300.50000000135617
    vertex 198.33861050132128 678.9623551403394 302.2850548252947
  endloop
endfacet
facet normal -0.9701425001453311 0.24253562503633627 4.331892326453283e-13
  outer loop
    vertex 198.33861050132128 678.9623551403394 302.2850548252947
    vertex 197.0980217161892 673.9999999998148 300.50000000135617
    vertex 197.3891549315975 675.1645328614428 302.5170300847898
  endloop
endfacet
facet normal -0.9701425001453311 0.24253562503633627 4.331892326453283e-13
  outer loop
    vertex 197.0980217161892 673.9999999998148 300.50000000135617
    vertex 191.9730217161893 653.4999999998151 300.00000000131575
    vertex 196.84802171618927 672.9999999998148 300.50000000135424
  endloop
endfacet
facet normal -0.9701425001453311 0.24253562503633627 4.331892326453283e-13
  outer loop
    vertex 196.84802171618927 672.9999999998148 300.50000000135424
    vertex 191.9730217161893 653.4999999998151 300.00000000131575
    vertex 196.20788295194825 670.4394449428478 302.10716013155115
  endloop
endfacet
facet normal -0.9701425001453311 0.24253562503633627 4.331892326453283e-13
  outer loop
    vertex 196.84802171618927 672.9999999998148 300.50000000135424
    vertex 196.20788295194825 670.4394449428478 302.10716013155115
    vertex 196.57715915726192 671.9165497641023 302.37659085707094
  endloop
endfacet
facet normal -0.9701425001453311 0.24253562503633627 4.331892326453283e-13
  outer loop
    vertex 196.57715915726192 671.9165497641023 302.37659085707094
    vertex 196.20788295194825 670.4394449428478 302.10716013155115
    vertex 196.27162794876645 670.6944249301198 302.1720544469068
  endloop
endfacet
facet normal -0.9701425001453311 0.24253562503633627 4.331892326453283e-13
  outer loop
    vertex 196.20788295194825 670.4394449428478 302.10716013155115
    vertex 191.9730217161893 653.4999999998151 300.00000000131575
    vertex 194.1272946836049 662.1170918694768 301.27908375588703
  endloop
endfacet
facet normal -0.9701425001453311 0.24253562503633627 4.331892326453283e-13
  outer loop
    vertex 196.20788295194825 670.4394449428478 302.10716013155115
    vertex 194.1272946836049 662.1170918694768 301.27908375588703
    vertex 194.16087159325895 662.2513995080925 301.2990697245824
  endloop
endfacet
facet normal -0.9701425001453311 0.24253562503633627 4.331892326453283e-13
  outer loop
    vertex 194.1272946836049 662.1170918694768 301.27908375588703
    vertex 191.9730217161893 653.4999999998151 300.00000000131575
    vertex 192.0921222521716 653.9764021437444 300.50000000131666
  endloop
endfacet
facet normal -0.9701425001453311 0.24253562503633627 4.331892326453283e-13
  outer loop
    vertex 194.1272946836049 662.1170918694768 301.27908375588703
    vertex 192.0921222521716 653.9764021437444 300.50000000131666
    vertex 192.16793568876258 654.279655890108 301.02525089760746
  endloop
endfacet
facet normal -0.9701425001453311 0.24253562503633627 4.331892326453283e-13
  outer loop
    vertex 192.0921222521716 653.9764021437444 300.50000000131666
    vertex 191.9730217161893 653.4999999998151 300.00000000131575
    vertex 191.9730217161893 653.4999999998148 300.50000000131575
  endloop
endfacet
facet normal -0.6830933436178159 0.6830224717340129 0.25858032990038526
  outer loop
    vertex 227.18012849737582 672.9999999998148 300.50000000135424
    vertex 243.0599781485891 685.5923913376477 309.175465843079
    vertex 240.66909937523374 686.488970877673 300.5000000013808
  endloop
endfacet
facet normal -0.6830933436178159 0.6830224717340129 0.25858032990038526
  outer loop
    vertex 243.0599781485891 685.5923913376477 309.175465843079
    vertex 227.18012849737582 672.9999999998148 300.50000000135424
    vertex 238.56479227696374 682.004626347832 306.8279825843737
  endloop
endfacet
facet normal -0.6830933436178159 0.6830224717340129 0.25858032990038526
  outer loop
    vertex 243.0599781485891 685.5923913376477 309.175465843079
    vertex 238.56479227696374 682.004626347832 306.8279825843737
    vertex 241.04399898839992 683.8923265702259 308.34178089193796
  endloop
endfacet
facet normal -0.6830933436178159 0.6830224717340129 0.25858032990038526
  outer loop
    vertex 238.56479227696374 682.004626347832 306.8279825843737
    vertex 227.18012849737582 672.9999999998148 300.50000000135424
    vertex 235.95088455133282 679.7001079198352 305.96435435774805
  endloop
endfacet
facet normal -0.6830933436178159 0.6830224717340129 0.25858032990038526
  outer loop
    vertex 235.95088455133282 679.7001079198352 305.96435435774805
    vertex 227.18012849737582 672.9999999998148 300.50000000135424
    vertex 233.59628542227796 677.7762035213468 304.8277688661444
  endloop
endfacet
facet normal -0.6830933436178159 0.6830224717340129 0.25858032990038526
  outer loop
    vertex 233.59628542227796 677.7762035213468 304.8277688661444
    vertex 227.18012849737582 672.9999999998148 300.50000000135424
    vertex 230.24673302033844 674.7421271214332 303.99524080994576
  endloop
endfacet
facet normal -0.6830933436178159 0.6830224717340129 0.25858032990038526
  outer loop
    vertex 230.24673302033844 674.7421271214332 303.99524080994576
    vertex 227.18012849737582 672.9999999998148 300.50000000135424
    vertex 228.07981140251525 672.8728540996448 303.2097585371418
  endloop
endfacet
facet normal -0.6830933436178159 0.6830224717340129 0.25858032990038526
  outer loop
    vertex 228.07981140251525 672.8728540996448 303.2097585371418
    vertex 227.18012849737582 672.9999999998148 300.50000000135424
    vertex 226.69014975745165 671.5742389953373 302.9694905005474
  endloop
endfacet
facet normal -0.0909836535063483 -0.2078800591461918 0.9739136798525897
  outer loop
    vertex 230.88271442729226 679.3081785269342 303.6439997531598
    vertex 200.42960760989197 687.3263435746212 302.51051295926226
    vertex 200.30688598629158 686.8354570802206 302.3942694178566
  endloop
endfacet
facet normal -0.0909836535063483 -0.2078800591461918 0.9739136798525897
  outer loop
    vertex 200.42960760989197 687.3263435746212 302.51051295926226
    vertex 230.88271442729226 679.3081785269342 303.6439997531598
    vertex 232.2437220716357 681.4546187688693 304.2292996459244
  endloop
endfacet
facet normal -0.0909836535063483 -0.2078800591461918 0.9739136798525897
  outer loop
    vertex 232.2437220716357 681.4546187688693 304.2292996459244
    vertex 230.88271442729226 679.3081785269342 303.6439997531598
    vertex 232.3418537796757 680.9519241158104 304.1311679378837
  endloop
endfacet
facet normal -0.09098365350634705 -0.4216350158205769 0.9021894968511985
  outer loop
    vertex 259.7088735490772 671.2723741121837 304.4216196626531
    vertex 235.95088455133282 679.7001079198352 305.96435435774805
    vertex 233.59628542227796 677.7762035213468 304.8277688661444
  endloop
endfacet
facet normal -0.09098365350634705 -0.4216350158205769 0.9021894968511985
  outer loop
    vertex 235.95088455133282 679.7001079198352 305.96435435774805
    vertex 259.7088735490772 671.2723741121837 304.4216196626531
    vertex 258.67225536176846 675.3379148404142 306.2170950311294
  endloop
endfacet
facet normal -0.13643106009008166 0.2997944349293165 0.9441979996950368
  outer loop
    vertex 208.518631162673 613.4999999998081 303.67833523658015
    vertex 232.02295151129303 621.765826308029 304.4500702061495
    vertex 205.30713587760638 613.4999999998088 303.2142930480162
  endloop
endfacet
facet normal -0.13643106009008166 0.2997944349293165 0.9441979996950368
  outer loop
    vertex 232.02295151129303 621.765826308029 304.4500702061495
    vertex 208.518631162673 613.4999999998081 303.67833523658015
    vertex 231.3061106074598 619.1819254023882 305.16691110997755
  endloop
endfacet
facet normal -0.05394819685128284 0.3330324433780588 0.9413708003301012
  outer loop
    vertex 230.24673302033878 632.2578728781809 303.99524080986197
    vertex 260.5714679644263 640.18816972374 302.9275623088815
    vertex 228.079811402516 634.1271458999722 303.2097585370657
  endloop
endfacet
facet normal -0.05394819685128284 0.3330324433780588 0.9413708003301012
  outer loop
    vertex 260.5714679644263 640.18816972374 302.9275623088815
    vertex 230.24673302033878 632.2578728781809 303.99524080986197
    vertex 259.7450648552896 636.008291898223 304.35893448143133
  endloop
endfacet
facet normal 0.7071067811865486 -0.7071067811865465 -1.3928854452961085e-12
  outer loop
    vertex 234.47302171618938 681.7071067810015 300.50000000137135
    vertex 226.76591493500274 673.999999999815 300.0000000013562
    vertex 234.47302171618938 681.7071067810018 300.00000000137135
  endloop
endfacet
facet normal 0.7071067811865486 -0.7071067811865465 -1.3928854452961085e-12
  outer loop
    vertex 226.76591493500274 673.999999999815 300.0000000013562
    vertex 234.47302171618938 681.7071067810015 300.50000000137135
    vertex 226.76591493500274 673.9999999998148 300.50000000135617
  endloop
endfacet
facet normal -0.06524702696398861 0.061985951249376295 0.9959420501816713
  outer loop
    vertex 193.9428047598697 613.4999999998103 302.4697830449176
    vertex 232.24372207163606 625.5453812307438 304.2292996458141
    vertex 193.6153903419581 618.4160005310413 302.14236862701534
  endloop
endfacet
facet normal -0.06524702696398861 0.061985951249376295 0.9959420501816713
  outer loop
    vertex 232.24372207163606 625.5453812307438 304.2292996458141
    vertex 193.9428047598697 613.4999999998103 302.4697830449176
    vertex 205.30713587760638 613.4999999998088 303.2142930480162
  endloop
endfacet
facet normal -0.06524702696398861 0.061985951249376295 0.9959420501816713
  outer loop
    vertex 232.24372207163606 625.5453812307438 304.2292996458141
    vertex 205.30713587760638 613.4999999998088 303.2142930480162
    vertex 232.02295151129303 621.765826308029 304.4500702061495
  endloop
endfacet
facet normal -0.05394819685128695 -0.1127344893709965 0.9921595269727321
  outer loop
    vertex 217.70161957359554 675.4051062514263 302.93371541919225
    vertex 198.43531314328644 679.349165708199 302.33426447725947
    vertex 198.33861050132128 678.9623551403394 302.2850548252947
  endloop
endfacet
facet normal -0.05394819685128695 -0.1127344893709965 0.9921595269727321
  outer loop
    vertex 198.43531314328644 679.349165708199 302.33426447725947
    vertex 217.70161957359554 675.4051062514263 302.93371541919225
    vertex 227.45841497805176 675.8342370946976 303.51299662345644
  endloop
endfacet
facet normal -0.05394819685128695 -0.1127344893709965 0.9921595269727321
  outer loop
    vertex 227.45841497805176 675.8342370946976 303.51299662345644
    vertex 217.70161957359554 675.4051062514263 302.93371541919225
    vertex 227.3603151686619 675.7296111138161 303.49577432815687
  endloop
endfacet
facet normal -0.040329329026278546 0.002073561158429268 0.9991842900908783
  outer loop
    vertex 227.45841497805176 675.8342370946976 303.51299662345644
    vertex 200.30688598629158 686.8354570802206 302.3942694178566
    vertex 198.43531314328644 679.349165708199 302.33426447725947
  endloop
endfacet
facet normal -0.040329329026278546 0.002073561158429268 0.9991842900908783
  outer loop
    vertex 200.30688598629158 686.8354570802206 302.3942694178566
    vertex 227.45841497805176 675.8342370946976 303.51299662345644
    vertex 230.88271442729226 679.3081785269342 303.6439997531598
  endloop
endfacet
facet normal -0.021248657283897632 0.06624529596510376 0.9975770924224993
  outer loop
    vertex 217.70161957359554 675.4051062514263 302.93371541919225
    vertex 198.33861050132128 678.9623551403394 302.2850548252947
    vertex 197.3891549315975 675.1645328614428 302.5170300847898
  endloop
endfacet
facet normal -0.06524702696399078 -0.061985951253294015 0.9959420501814272
  outer loop
    vertex 232.2437220716357 681.4546187688693 304.2292996459244
    vertex 201.97302171618918 693.4999999998091 302.99586564413823
    vertex 200.42960760989197 687.3263435746212 302.51051295926226
  endloop
endfacet
facet normal -0.06524702696399078 -0.061985951253294015 0.9959420501814272
  outer loop
    vertex 201.97302171618918 693.4999999998091 302.99586564413823
    vertex 232.2437220716357 681.4546187688693 304.2292996459244
    vertex 204.47302171618898 693.4999999998096 303.15964783144545
  endloop
endfacet
facet normal -0.06524702696399078 -0.061985951253294015 0.9959420501814272
  outer loop
    vertex 204.47302171618898 693.4999999998096 303.15964783144545
    vertex 232.2437220716357 681.4546187688693 304.2292996459244
    vertex 205.30713587760675 693.4999999998087 303.21429304817383
  endloop
endfacet
facet normal -0.06524702696399078 -0.061985951253294015 0.9959420501814272
  outer loop
    vertex 205.30713587760675 693.4999999998087 303.21429304817383
    vertex 232.2437220716357 681.4546187688693 304.2292996459244
    vertex 232.02295151129303 685.2341736915834 304.4500702062746
  endloop
endfacet
facet normal -0.09579191040989522 -0.12547599141023338 0.9874612323932732
  outer loop
    vertex 231.3061106074598 687.8180745972214 305.1669111101128
    vertex 221.97302171618932 693.4999999998051 304.9835224504152
    vertex 208.518631162673 693.4999999998082 303.6783352367378
  endloop
endfacet
facet normal -0.09579191040989522 -0.12547599141023338 0.9874612323932732
  outer loop
    vertex 221.97302171618932 693.4999999998051 304.9835224504152
    vertex 231.3061106074598 687.8180745972214 305.1669111101128
    vertex 231.04188473557116 690.0991763675361 305.4311369820062
  endloop
endfacet
facet normal 8.657420523457097e-16 1.0 1.976331676919738e-12
  outer loop
    vertex 221.97302171618932 693.499999999815 300.00000000139454
    vertex 208.518631162673 693.4999999998082 303.6783352367378
    vertex 221.97302171618932 693.4999999998051 304.9835224504152
  endloop
endfacet
facet normal 8.657420523457097e-16 1.0 1.976331676919738e-12
  outer loop
    vertex 208.518631162673 693.4999999998082 303.6783352367378
    vertex 221.97302171618932 693.499999999815 300.00000000139454
    vertex 205.30713587760675 693.4999999998087 303.21429304817383
  endloop
endfacet
facet normal 8.657420523457097e-16 1.0 1.976331676919738e-12
  outer loop
    vertex 205.30713587760675 693.4999999998087 303.21429304817383
    vertex 221.97302171618932 693.499999999815 300.00000000139454
    vertex 204.47302171618898 693.4999999998096 303.15964783144545
  endloop
endfacet
facet normal 8.657420523457097e-16 1.0 1.976331676919738e-12
  outer loop
    vertex 204.47302171618898 693.4999999998096 303.15964783144545
    vertex 221.97302171618932 693.499999999815 300.00000000139454
    vertex 201.97302171618918 693.4999999998091 302.99586564413823
  endloop
endfacet
facet normal 8.657420523457097e-16 1.0 1.976331676919738e-12
  outer loop
    vertex 201.97302171618918 693.4999999998091 302.99586564413823
    vertex 221.97302171618932 693.499999999815 300.00000000139454
    vertex 201.97302171618918 693.499999999815 300.00000000139454
  endloop
endfacet
facet normal -0.1364310600900861 -0.29979443493303426 0.9441979996938555
  outer loop
    vertex 232.02295151129303 685.2341736915834 304.4500702062746
    vertex 208.518631162673 693.4999999998082 303.6783352367378
    vertex 205.30713587760675 693.4999999998087 303.21429304817383
  endloop
endfacet
facet normal -0.1364310600900861 -0.29979443493303426 0.9441979996938555
  outer loop
    vertex 208.518631162673 693.4999999998082 303.6783352367378
    vertex 232.02295151129303 685.2341736915834 304.4500702062746
    vertex 231.3061106074598 687.8180745972214 305.1669111101128
  endloop
endfacet
facet normal 0.35112344158839554 0.9363291775690432 1.8464195074430473e-12
  outer loop
    vertex 234.47302171618938 688.812499999811 302.0000000013854
    vertex 221.97302171618932 693.4999999998051 304.9835224504152
    vertex 231.04188473557116 690.0991763675361 305.4311369820062
  endloop
endfacet
facet normal 0.35112344158839554 0.9363291775690432 1.8464195074430473e-12
  outer loop
    vertex 221.97302171618932 693.4999999998051 304.9835224504152
    vertex 234.47302171618938 688.812499999811 302.0000000013854
    vertex 221.97302171618932 693.499999999815 300.00000000139454
  endloop
endfacet
facet normal 0.35112344158839554 0.9363291775690432 1.8464195074430473e-12
  outer loop
    vertex 221.97302171618932 693.499999999815 300.00000000139454
    vertex 234.47302171618938 688.812499999811 302.0000000013854
    vertex 234.47302171618938 688.812499999815 300.0000000013854
  endloop
endfacet
facet normal -3.5425019155922445e-16 -0.8660254037854253 0.4999999999982914
  outer loop
    vertex 217.70161957359554 675.4051062514263 302.93371541919225
    vertex 226.76591493500274 673.9999999998148 300.50000000135617
    vertex 227.3603151686619 675.7296111138161 303.49577432815687
  endloop
endfacet
facet normal -3.5425019155922445e-16 -0.8660254037854253 0.4999999999982914
  outer loop
    vertex 226.76591493500274 673.9999999998148 300.50000000135617
    vertex 217.70161957359554 675.4051062514263 302.93371541919225
    vertex 197.3891549315975 675.1645328614428 302.5170300847898
  endloop
endfacet
facet normal -3.5425019155922445e-16 -0.8660254037854253 0.4999999999982914
  outer loop
    vertex 226.76591493500274 673.9999999998148 300.50000000135617
    vertex 197.3891549315975 675.1645328614428 302.5170300847898
    vertex 197.0980217161892 673.9999999998148 300.50000000135617
  endloop
endfacet
facet normal 0.7071067811865441 -1.3932629695349954e-12 0.7071067811865509
  outer loop
    vertex 231.3061106074598 687.8180745972214 305.1669111101128
    vertex 234.47302171618938 688.812499999811 302.0000000013854
    vertex 231.04188473557116 690.0991763675361 305.4311369820062
  endloop
endfacet
facet normal 0.7071067811865441 -1.3932629695349954e-12 0.7071067811865509
  outer loop
    vertex 234.47302171618938 688.812499999811 302.0000000013854
    vertex 231.3061106074598 687.8180745972214 305.1669111101128
    vertex 232.02295151129303 685.2341736915834 304.4500702062746
  endloop
endfacet
facet normal 0.7071067811865441 -1.3932629695349954e-12 0.7071067811865509
  outer loop
    vertex 234.47302171618938 688.812499999811 302.0000000013854
    vertex 232.02295151129303 685.2341736915834 304.4500702062746
    vertex 232.2437220716357 681.4546187688693 304.2292996459244
  endloop
endfacet
facet normal 0.7071067811865441 -1.3932629695349954e-12 0.7071067811865509
  outer loop
    vertex 234.47302171618938 688.812499999811 302.0000000013854
    vertex 232.2437220716357 681.4546187688693 304.2292996459244
    vertex 232.3418537796757 680.9519241158104 304.1311679378837
  endloop
endfacet
facet normal 0.7071067811865441 -1.3932629695349954e-12 0.7071067811865509
  outer loop
    vertex 234.47302171618938 688.812499999811 302.0000000013854
    vertex 232.3418537796757 680.9519241158104 304.1311679378837
    vertex 234.47302171618938 682.2755128539424 302.0000000013724
  endloop
endfacet
facet normal 0.7071067811865418 -1.3988228719621155e-12 0.7071067811865533
  outer loop
    vertex 234.47302171618938 618.187499999811 302.0000000012462
    vertex 231.3061106074598 619.1819254023882 305.16691110997755
    vertex 231.04188473557116 616.9008236320724 305.4311369818618
  endloop
endfacet
facet normal 0.7071067811865418 -1.3988228719621155e-12 0.7071067811865533
  outer loop
    vertex 231.3061106074598 619.1819254023882 305.16691110997755
    vertex 234.47302171618938 618.187499999811 302.0000000012462
    vertex 232.02295151129303 621.765826308029 304.4500702061495
  endloop
endfacet
facet normal 0.7071067811865418 -1.3988228719621155e-12 0.7071067811865533
  outer loop
    vertex 232.02295151129303 621.765826308029 304.4500702061495
    vertex 234.47302171618938 618.187499999811 302.0000000012462
    vertex 232.24372207163606 625.5453812307438 304.2292996458141
  endloop
endfacet
facet normal 0.7071067811865418 -1.3988228719621155e-12 0.7071067811865533
  outer loop
    vertex 232.24372207163606 625.5453812307438 304.2292996458141
    vertex 234.47302171618938 618.187499999811 302.0000000012462
    vertex 232.3418537796757 626.0480758838036 304.1311679377754
  endloop
endfacet
facet normal 0.7071067811865418 -1.3988228719621155e-12 0.7071067811865533
  outer loop
    vertex 232.3418537796757 626.0480758838036 304.1311679377754
    vertex 234.47302171618938 618.187499999811 302.0000000012462
    vertex 234.47302171618938 624.7244871456801 302.000000001259
  endloop
endfacet
facet normal 0.6830127018922149 0.6830127018917156 0.2588190451038621
  outer loop
    vertex 227.3603151686619 631.2703888858005 303.49577432806933
    vertex 234.47302171618938 625.2928932186281 300.5000000012602
    vertex 226.76591493500274 632.9999999998148 300.50000000127534
  endloop
endfacet
facet normal 0.6830127018922149 0.6830127018917156 0.2588190451038621
  outer loop
    vertex 234.47302171618938 625.2928932186281 300.5000000012602
    vertex 227.3603151686619 631.2703888858005 303.49577432806933
    vertex 227.45841497805176 631.1657629049183 303.5129966233683
  endloop
endfacet
facet normal 0.6830127018922149 0.6830127018917156 0.2588190451038621
  outer loop
    vertex 234.47302171618938 625.2928932186281 300.5000000012602
    vertex 227.45841497805176 631.1657629049183 303.5129966233683
    vertex 230.88271442729263 627.6918214726813 303.643999753058
  endloop
endfacet
facet normal 0.6830127018922149 0.6830127018917156 0.2588190451038621
  outer loop
    vertex 234.47302171618938 625.2928932186281 300.5000000012602
    vertex 230.88271442729263 627.6918214726813 303.643999753058
    vertex 232.3418537796757 626.0480758838036 304.1311679377754
  endloop
endfacet
facet normal 0.6830127018922149 0.6830127018917156 0.2588190451038621
  outer loop
    vertex 234.47302171618938 625.2928932186281 300.5000000012602
    vertex 232.3418537796757 626.0480758838036 304.1311679377754
    vertex 234.47302171618938 624.7244871456801 302.000000001259
  endloop
endfacet
facet normal 5.851476404477854e-17 0.8660254037834585 0.5000000000016978
  outer loop
    vertex 226.76591493500274 632.9999999998148 300.50000000127534
    vertex 217.70161957359625 631.5948937481924 302.9337154191059
    vertex 227.3603151686619 631.2703888858005 303.49577432806933
  endloop
endfacet
facet normal 5.851476404477854e-17 0.8660254037834585 0.5000000000016978
  outer loop
    vertex 217.70161957359625 631.5948937481924 302.9337154191059
    vertex 226.76591493500274 632.9999999998148 300.50000000127534
    vertex 193.9188630111183 631.8765680043826 302.4458412962023
  endloop
endfacet
facet normal 5.851476404477854e-17 0.8660254037834585 0.5000000000016978
  outer loop
    vertex 193.9188630111183 631.8765680043826 302.4458412962023
    vertex 226.76591493500274 632.9999999998148 300.50000000127534
    vertex 191.9730217161893 632.9999999998148 300.50000000127534
  endloop
endfacet
facet normal 0.35112344158838643 -0.9363291775690465 -1.845713136771262e-12
  outer loop
    vertex 221.97302171618932 613.4999999998054 304.9835224502575
    vertex 234.47302171618938 618.187499999811 302.0000000012462
    vertex 231.04188473557116 616.9008236320724 305.4311369818618
  endloop
endfacet
facet normal 0.35112344158838643 -0.9363291775690465 -1.845713136771262e-12
  outer loop
    vertex 234.47302171618938 618.187499999811 302.0000000012462
    vertex 221.97302171618932 613.4999999998054 304.9835224502575
    vertex 221.97302171618932 613.499999999815 300.00000000123697
  endloop
endfacet
facet normal 0.35112344158838643 -0.9363291775690465 -1.845713136771262e-12
  outer loop
    vertex 234.47302171618938 618.187499999811 302.0000000012462
    vertex 221.97302171618932 613.499999999815 300.00000000123697
    vertex 234.47302171618938 618.187499999815 300.0000000012462
  endloop
endfacet
endsolid ProtoGlove baseplate
