solid ProtoGlove baseplate
facet normal 0.3713906763541155 0.9284766908852548 1.818165577160117e-12
  outer loop
    vertex 411.48004571618924 681.6999999998161 300.50000000137067
    vertex 406.9800457161896 683.4999999998086 304.11310236384145
    vertex 410.4860193439013 682.0976105487234 304.2097569268147
  endloop
endfacet
facet normal 0.3713906763541155 0.9284766908852548 1.818165577160117e-12
  outer loop
    vertex 406.9800457161896 683.4999999998086 304.11310236384145
    vertex 411.48004571618924 681.6999999998161 300.50000000137067
    vertex 406.9800457161896 683.4999999998164 300.0000000013742
  endloop
endfacet
facet normal 0.3713906763541155 0.9284766908852548 1.818165577160117e-12
  outer loop
    vertex 406.9800457161896 683.4999999998164 300.0000000013742
    vertex 411.48004571618924 681.6999999998161 300.50000000137067
    vertex 411.48004571618924 681.6999999998164 300.00000000137067
  endloop
endfacet
facet normal -1.0 -0.0 0.0
  outer loop
    vertex 381.98004571618947 623.4999999998164 300.0000000012561
    vertex 381.98004571618947 653.499999999816 300.50000000131513
    vertex 381.98004571618947 653.4999999998164 300.00000000131513
  endloop
endfacet
facet normal -1.0 -0.0 0.0
  outer loop
    vertex 381.98004571618947 653.499999999816 300.50000000131513
    vertex 381.98004571618947 623.4999999998164 300.0000000012561
    vertex 381.98004571618947 652.999999999816 300.5000000013141
  endloop
endfacet
facet normal -1.0 -0.0 0.0
  outer loop
    vertex 381.98004571618947 652.999999999816 300.5000000013141
    vertex 381.98004571618947 623.4999999998164 300.0000000012561
    vertex 381.98004571618947 638.999999999816 300.50000000128665
  endloop
endfacet
facet normal -1.0 -0.0 0.0
  outer loop
    vertex 381.98004571618947 638.999999999816 300.50000000128665
    vertex 381.98004571618947 623.4999999998164 300.0000000012561
    vertex 381.98004571618947 637.999999999816 300.50000000128455
  endloop
endfacet
facet normal -1.0 -0.0 0.0
  outer loop
    vertex 381.98004571618947 637.999999999816 300.50000000128455
    vertex 381.98004571618947 623.4999999998164 300.0000000012561
    vertex 381.98004571618947 623.499999999816 300.50000000125607
  endloop
endfacet
facet normal 0.0 -1.9698374875698473e-12 1.0
  outer loop
    vertex 431.9800457161893 652.999999999816 300.5000000013141
    vertex 381.98004571618947 653.499999999816 300.50000000131513
    vertex 381.98004571618947 652.999999999816 300.5000000013141
  endloop
endfacet
facet normal 0.0 -1.9698374875698473e-12 1.0
  outer loop
    vertex 381.98004571618947 653.499999999816 300.50000000131513
    vertex 431.9800457161893 652.999999999816 300.5000000013141
    vertex 382.0633790495228 653.999999999816 300.5000000013161
  endloop
endfacet
facet normal 0.0 -1.9698374875698473e-12 1.0
  outer loop
    vertex 382.0633790495228 653.999999999816 300.5000000013161
    vertex 431.9800457161893 652.999999999816 300.5000000013141
    vertex 431.9800457161893 653.999999999816 300.5000000013161
  endloop
endfacet
facet normal 1.0 0.0 0.0
  outer loop
    vertex 411.48004571618924 681.6999999998161 300.50000000137067
    vertex 411.48004571618924 668.9999999998164 300.0000000013457
    vertex 411.48004571618924 681.6999999998164 300.00000000137067
  endloop
endfacet
facet normal 1.0 0.0 0.0
  outer loop
    vertex 411.48004571618924 668.9999999998164 300.0000000013457
    vertex 411.48004571618924 681.6999999998161 300.50000000137067
    vertex 411.48004571618924 668.999999999816 300.5000000013457
  endloop
endfacet
facet normal 7.555705704191389e-16 1.0 1.9654023640838387e-12
  outer loop
    vertex 406.9800457161896 683.4999999998164 300.0000000013742
    vertex 398.1467744873885 683.4999999998099 303.3434565565358
    vertex 406.9800457161896 683.4999999998086 304.11310236384145
  endloop
endfacet
facet normal 7.555705704191389e-16 1.0 1.9654023640838387e-12
  outer loop
    vertex 398.1467744873885 683.4999999998099 303.3434565565358
    vertex 406.9800457161896 683.4999999998164 300.0000000013742
    vertex 394.902063904398 683.4999999998106 302.9618330612267
  endloop
endfacet
facet normal 7.555705704191389e-16 1.0 1.9654023640838387e-12
  outer loop
    vertex 394.902063904398 683.4999999998106 302.9618330612267
    vertex 406.9800457161896 683.4999999998164 300.0000000013742
    vertex 386.98004571618975 683.4999999998116 302.4981936832197
  endloop
endfacet
facet normal 7.555705704191389e-16 1.0 1.9654023640838387e-12
  outer loop
    vertex 386.98004571618975 683.4999999998116 302.4981936832197
    vertex 406.9800457161896 683.4999999998164 300.0000000013742
    vertex 386.9800457161894 683.4999999998164 300.0000000013742
  endloop
endfacet
facet normal -4.069497130131989e-17 -0.866025403785426 0.49999999999828976
  outer loop
    vertex 402.6751379588801 670.0778424734319 302.3668779282136
    vertex 411.48004571618924 668.999999999816 300.5000000013457
    vertex 410.875552203337 670.3025024974008 302.75600050415915
  endloop
endfacet
facet normal -4.069497130131989e-17 -0.866025403785426 0.49999999999828976
  outer loop
    vertex 411.48004571618924 668.999999999816 300.5000000013457
    vertex 402.6751379588801 670.0778424734319 302.3668779282136
    vertex 384.7115332505573 669.888925206021 302.0396636226295
  endloop
endfacet
facet normal -4.069497130131989e-17 -0.866025403785426 0.49999999999828976
  outer loop
    vertex 411.48004571618924 668.999999999816 300.5000000013457
    vertex 384.7115332505573 669.888925206021 302.0396636226295
    vertex 384.56337904952255 668.999999999816 300.5000000013457
  endloop
endfacet
facet normal -0.7071067811865689 -1.3878625775968447e-12 0.7071067811865263
  outer loop
    vertex 381.98004571618947 638.999999999816 300.50000000128665
    vertex 382.50522832151285 652.6967856812571 301.02518260663686
    vertex 381.98004571618947 652.999999999816 300.5000000013141
  endloop
endfacet
facet normal -0.7071067811865689 -1.3878625775968447e-12 0.7071067811865263
  outer loop
    vertex 382.50522832151285 652.6967856812571 301.02518260663686
    vertex 381.98004571618947 638.999999999816 300.50000000128665
    vertex 382.6897341654703 646.7300655970279 301.20968845058246
  endloop
endfacet
facet normal -0.7071067811865689 -1.3878625775968447e-12 0.7071067811865263
  outer loop
    vertex 382.6897341654703 646.7300655970279 301.20968845058246
    vertex 381.98004571618947 638.999999999816 300.50000000128665
    vertex 382.69579424227067 646.6811770993525 301.215748527383
  endloop
endfacet
facet normal -0.7071067811865689 -1.3878625775968447e-12 0.7071067811865263
  outer loop
    vertex 382.69579424227067 646.6811770993525 301.215748527383
    vertex 381.98004571618947 638.999999999816 300.50000000128665
    vertex 383.3145406510577 640.0698128205674 301.83449493615683
  endloop
endfacet
facet normal -0.7071067811865689 -1.3878625775968447e-12 0.7071067811865263
  outer loop
    vertex 383.3145406510577 640.0698128205674 301.83449493615683
    vertex 381.98004571618947 638.999999999816 300.50000000128665
    vertex 383.3334760205243 639.9803836169414 301.8534303056236
  endloop
endfacet
facet normal -0.7071067811865689 -1.3878625775968447e-12 0.7071067811865263
  outer loop
    vertex 383.3334760205243 639.9803836169414 301.8534303056236
    vertex 381.98004571618947 638.999999999816 300.50000000128665
    vertex 383.3624008994754 639.7981031369986 301.88235518457424
  endloop
endfacet
facet normal -0.9659258262890675 -5.089935589723858e-13 0.2588190451025235
  outer loop
    vertex 412.4800457161894 667.999999999816 300.50000000134366
    vertex 414.19207982928026 680.6151863545664 306.88939829571405
    vertex 412.4800457161894 681.2999999998161 300.50000000136987
  endloop
endfacet
facet normal -0.9659258262890675 -5.089935589723858e-13 0.2588190451025235
  outer loop
    vertex 414.19207982928026 680.6151863545664 306.88939829571405
    vertex 412.4800457161894 667.999999999816 300.50000000134366
    vertex 413.97563225213503 678.3861321915278 306.0816049406286
  endloop
endfacet
facet normal -0.9659258262890675 -5.089935589723858e-13 0.2588190451025235
  outer loop
    vertex 413.97563225213503 678.3861321915278 306.0816049406286
    vertex 412.4800457161894 667.999999999816 300.50000000134366
    vertex 413.7197132408335 676.4715528831052 305.12650218782505
  endloop
endfacet
facet normal -0.9659258262890675 -5.089935589723858e-13 0.2588190451025235
  outer loop
    vertex 413.7197132408335 676.4715528831052 305.12650218782505
    vertex 412.4800457161894 667.999999999816 300.50000000134366
    vertex 413.5363904823518 674.1133859366604 304.44233233898314
  endloop
endfacet
facet normal -0.9659258262890675 -5.089935589723858e-13 0.2588190451025235
  outer loop
    vertex 413.5363904823518 674.1133859366604 304.44233233898314
    vertex 412.4800457161894 667.999999999816 300.50000000134366
    vertex 413.32684631716245 672.1258840969953 303.6603028680633
  endloop
endfacet
facet normal -0.9659258262890675 -5.089935589723858e-13 0.2588190451025235
  outer loop
    vertex 413.32684631716245 672.1258840969953 303.6603028680633
    vertex 412.4800457161894 667.999999999816 300.50000000134366
    vertex 413.1802774337732 669.6602433802043 303.113300348441
  endloop
endfacet
facet normal -0.9659258262890675 -5.089935589723858e-13 0.2588190451025235
  outer loop
    vertex 413.1802774337732 669.6602433802043 303.113300348441
    vertex 412.4800457161894 667.999999999816 300.50000000134366
    vertex 413.017266803548 667.6157789413132 302.50493639426315
  endloop
endfacet
facet normal -0.9659258262890675 -5.089935589723858e-13 0.2588190451025235
  outer loop
    vertex 413.017266803548 667.6157789413132 302.50493639426315
    vertex 412.4800457161894 667.999999999816 300.50000000134366
    vertex 412.98752772549454 666.9065282411442 302.3939486439954
  endloop
endfacet
facet normal -0.7071067811866149 -1.4002453747942713e-12 0.7071067811864802
  outer loop
    vertex 381.98004571618947 623.499999999816 300.50000000125607
    vertex 383.4975969989941 637.1238413581759 302.0175512840879
    vertex 381.98004571618947 637.999999999816 300.50000000128455
  endloop
endfacet
facet normal -0.7071067811866149 -1.4002453747942713e-12 0.7071067811864802
  outer loop
    vertex 383.4975969989941 637.1238413581759 302.0175512840879
    vertex 381.98004571618947 623.499999999816 300.50000000125607
    vertex 383.3423185376261 633.065253887769 301.86227282271193
  endloop
endfacet
facet normal -0.7071067811866149 -1.4002453747942713e-12 0.7071067811864802
  outer loop
    vertex 383.3423185376261 633.065253887769 301.86227282271193
    vertex 381.98004571618947 623.499999999816 300.50000000125607
    vertex 383.35147299228305 632.9723335752901 301.87142727736864
  endloop
endfacet
facet normal -0.7071067811866149 -1.4002453747942713e-12 0.7071067811864802
  outer loop
    vertex 383.35147299228305 632.9723335752901 301.87142727736864
    vertex 381.98004571618947 623.499999999816 300.50000000125607
    vertex 383.51719862173087 626.3848321523678 302.0371529068035
  endloop
endfacet
facet normal -0.7071067811866149 -1.4002453747942713e-12 0.7071067811864802
  outer loop
    vertex 383.51719862173087 626.3848321523678 302.0371529068035
    vertex 381.98004571618947 623.499999999816 300.50000000125607
    vertex 383.5366248919394 626.2836605641693 302.0565791770118
  endloop
endfacet
facet normal -0.7071067811866149 -1.4002453747942713e-12 0.7071067811864802
  outer loop
    vertex 383.5366248919394 626.2836605641693 302.0565791770118
    vertex 381.98004571618947 623.499999999816 300.50000000125607
    vertex 383.7916364311352 623.4999999998118 302.31159071620186
  endloop
endfacet
facet normal -0.08586188915219725 -0.3320719768696145 0.9393380318975284
  outer loop
    vertex 428.7962878570394 674.364024912213 306.01443037240097
    vertex 414.19207982928026 680.6151863545664 306.88939829571405
    vertex 413.97563225213503 678.3861321915278 306.0816049406286
  endloop
endfacet
facet normal -0.08586188915219725 -0.3320719768696145 0.9393380318975284
  outer loop
    vertex 414.19207982928026 680.6151863545664 306.88939829571405
    vertex 428.7962878570394 674.364024912213 306.01443037240097
    vertex 428.7102277206502 674.8079271980203 306.16349090113414
  endloop
endfacet
facet normal -4.799361959969739e-16 0.8660254037834418 0.5000000000017265
  outer loop
    vertex 431.9800457161893 652.999999999816 300.5000000013141
    vertex 393.6299156893306 652.6922736779791 301.03299762555855
    vertex 431.6723193943541 652.6922736779791 301.03299762555855
  endloop
endfacet
facet normal -4.799361959969739e-16 0.8660254037834418 0.5000000000017265
  outer loop
    vertex 393.6299156893306 652.6922736779791 301.03299762555855
    vertex 431.9800457161893 652.999999999816 300.5000000013141
    vertex 382.50522832151285 652.6967856812571 301.02518260663686
  endloop
endfacet
facet normal -4.799361959969739e-16 0.8660254037834418 0.5000000000017265
  outer loop
    vertex 382.50522832151285 652.6967856812571 301.02518260663686
    vertex 431.9800457161893 652.999999999816 300.5000000013141
    vertex 381.98004571618947 652.999999999816 300.5000000013141
  endloop
endfacet
facet normal -4.7007257352166184e-17 0.8660254037834518 0.5000000000017096
  outer loop
    vertex 412.4800457161894 667.999999999816 300.50000000134366
    vertex 384.2621999962448 667.1929256801442 301.8978937284919
    vertex 412.98752772549454 666.9065282411442 302.3939486439954
  endloop
endfacet
facet normal -4.7007257352166184e-17 0.8660254037834518 0.5000000000017096
  outer loop
    vertex 384.2621999962448 667.1929256801442 301.8978937284919
    vertex 412.4800457161894 667.999999999816 300.50000000134366
    vertex 384.3967123828559 667.999999999816 300.50000000134366
  endloop
endfacet
facet normal -4.7007257352166184e-17 0.8660254037834518 0.5000000000017096
  outer loop
    vertex 384.3967123828559 667.999999999816 300.50000000134366
    vertex 412.4800457161894 667.999999999816 300.50000000134366
    vertex 411.9800457161895 667.999999999816 300.50000000134366
  endloop
endfacet
facet normal -0.07520693913193872 -0.3582361925686271 0.9305969840056104
  outer loop
    vertex 430.37344363280175 667.5663135280189 303.28271643731665
    vertex 413.5363904823518 674.1133859366604 304.44233233898314
    vertex 413.32684631716245 672.1258840969953 303.6603028680633
  endloop
endfacet
facet normal -0.07520693913193872 -0.3582361925686271 0.9305969840056104
  outer loop
    vertex 413.5363904823518 674.1133859366604 304.44233233898314
    vertex 430.37344363280175 667.5663135280189 303.28271643731665
    vertex 429.6780420252723 670.8411809266137 304.4871873532286
  endloop
endfacet
facet normal 0.8660254037844356 -9.847209611113116e-13 0.5000000000000056
  outer loop
    vertex 431.6723193943541 652.6922736779791 301.03299762555855
    vertex 431.9800457161893 633.499999999816 300.5000000012757
    vertex 431.9800457161893 652.999999999816 300.5000000013141
  endloop
endfacet
facet normal 0.8660254037844356 -9.847209611113116e-13 0.5000000000000056
  outer loop
    vertex 431.9800457161893 633.499999999816 300.5000000012757
    vertex 431.6723193943541 652.6922736779791 301.03299762555855
    vertex 431.61020971462443 650.0589667598757 301.1405747464872
  endloop
endfacet
facet normal 0.8660254037844356 -9.847209611113116e-13 0.5000000000000056
  outer loop
    vertex 431.9800457161893 633.499999999816 300.5000000012757
    vertex 431.61020971462443 650.0589667598757 301.1405747464872
    vertex 431.6093093374103 650.0084793167778 301.1421342455679
  endloop
endfacet
facet normal 0.8660254037844356 -9.847209611113116e-13 0.5000000000000056
  outer loop
    vertex 431.9800457161893 633.499999999816 300.5000000012757
    vertex 431.6093093374103 650.0084793167778 301.1421342455679
    vertex 431.36736348394976 646.590889938545 301.56119675643527
  endloop
endfacet
facet normal 0.8660254037844356 -9.847209611113116e-13 0.5000000000000056
  outer loop
    vertex 431.9800457161893 633.499999999816 300.5000000012757
    vertex 431.36736348394976 646.590889938545 301.56119675643527
    vertex 431.36288366325016 646.5070693688876 301.56895603349557
  endloop
endfacet
facet normal 0.8660254037844356 -9.847209611113116e-13 0.5000000000000056
  outer loop
    vertex 431.9800457161893 633.499999999816 300.5000000012757
    vertex 431.36288366325016 646.5070693688876 301.56895603349557
    vertex 430.96375731715176 643.1251362765015 302.2602631435702
  endloop
endfacet
facet normal 0.8660254037844356 -9.847209611113116e-13 0.5000000000000056
  outer loop
    vertex 431.9800457161893 633.499999999816 300.5000000012757
    vertex 430.96375731715176 643.1251362765015 302.2602631435702
    vertex 430.9513542666776 642.9856590220097 302.2817458571602
  endloop
endfacet
facet normal 0.8660254037844356 -9.847209611113116e-13 0.5000000000000056
  outer loop
    vertex 431.9800457161893 633.499999999816 300.5000000012757
    vertex 430.9513542666776 642.9856590220097 302.2817458571602
    vertex 430.40048154979195 639.6513765416341 303.23588539130327
  endloop
endfacet
facet normal 0.8660254037844356 -9.847209611113116e-13 0.5000000000000056
  outer loop
    vertex 431.9800457161893 633.499999999816 300.5000000012757
    vertex 430.40048154979195 639.6513765416341 303.23588539130327
    vertex 430.37344363280135 639.433686471601 303.28271643726134
  endloop
endfacet
facet normal 0.8660254037844356 -9.847209611113116e-13 0.5000000000000056
  outer loop
    vertex 431.9800457161893 633.499999999816 300.5000000012757
    vertex 430.37344363280135 639.433686471601 303.28271643726134
    vertex 429.6780420252723 636.1588190730014 304.48718735316027
  endloop
endfacet
facet normal 0.8660254037844356 -9.847209611113116e-13 0.5000000000000056
  outer loop
    vertex 431.9800457161893 633.499999999816 300.5000000012757
    vertex 429.6780420252723 636.1588190730014 304.48718735316027
    vertex 429.6272662997991 635.8398961216996 304.5751334894701
  endloop
endfacet
facet normal 0.8660254037844356 -9.847209611113116e-13 0.5000000000000056
  outer loop
    vertex 431.9800457161893 633.499999999816 300.5000000012757
    vertex 429.6272662997991 635.8398961216996 304.5751334894701
    vertex 428.7962878570394 632.6359750873961 306.0144303723187
  endloop
endfacet
facet normal 0.8660254037844356 -9.847209611113116e-13 0.5000000000000056
  outer loop
    vertex 431.9800457161893 633.499999999816 300.5000000012757
    vertex 428.7962878570394 632.6359750873961 306.0144303723187
    vertex 428.7102277206502 632.1920728015889 306.16349090105007
  endloop
endfacet
facet normal 0.0 -1.0 -1.9698374875698473e-12
  outer loop
    vertex 398.1467744873889 623.4999999998098 303.34345655641766
    vertex 406.9800457161896 623.4999999998164 300.0000000012561
    vertex 406.9800457161892 623.4999999998086 304.11310236372327
  endloop
endfacet
facet normal 0.0 -1.0 -1.9698374875698473e-12
  outer loop
    vertex 406.9800457161896 623.4999999998164 300.0000000012561
    vertex 398.1467744873889 623.4999999998098 303.34345655641766
    vertex 394.90206390439835 623.4999999998106 302.9618330611086
  endloop
endfacet
facet normal 0.0 -1.0 -1.9698374875698473e-12
  outer loop
    vertex 406.9800457161896 623.4999999998164 300.0000000012561
    vertex 394.90206390439835 623.4999999998106 302.9618330611086
    vertex 386.9800457161894 623.4999999998115 302.4981936831016
  endloop
endfacet
facet normal 0.0 -1.0 -1.9698374875698473e-12
  outer loop
    vertex 406.9800457161896 623.4999999998164 300.0000000012561
    vertex 386.9800457161894 623.4999999998115 302.4981936831016
    vertex 383.7916364311352 623.4999999998118 302.31159071620186
  endloop
endfacet
facet normal 0.0 -1.0 -1.9698374875698473e-12
  outer loop
    vertex 406.9800457161896 623.4999999998164 300.0000000012561
    vertex 383.7916364311352 623.4999999998118 302.31159071620186
    vertex 381.98004571618947 623.499999999816 300.50000000125607
  endloop
endfacet
facet normal 0.0 -1.0 -1.9698374875698473e-12
  outer loop
    vertex 406.9800457161896 623.4999999998164 300.0000000012561
    vertex 381.98004571618947 623.499999999816 300.50000000125607
    vertex 381.98004571618947 623.4999999998164 300.0000000012561
  endloop
endfacet
facet normal 0.8660254037844425 -9.851412492927364e-13 0.49999999999999345
  outer loop
    vertex 428.7962878570394 674.364024912213 306.01443037240097
    vertex 431.9800457161893 673.499999999816 300.5000000013546
    vertex 428.7102277206502 674.8079271980203 306.16349090113414
  endloop
endfacet
facet normal 0.8660254037844425 -9.851412492927364e-13 0.49999999999999345
  outer loop
    vertex 431.9800457161893 673.499999999816 300.5000000013546
    vertex 428.7962878570394 674.364024912213 306.01443037240097
    vertex 429.62726629979943 671.1601038779152 304.57513348953967
  endloop
endfacet
facet normal 0.8660254037844425 -9.851412492927364e-13 0.49999999999999345
  outer loop
    vertex 431.9800457161893 673.499999999816 300.5000000013546
    vertex 429.62726629979943 671.1601038779152 304.57513348953967
    vertex 430.37344363280175 667.5663135280189 303.28271643731665
  endloop
endfacet
facet normal 0.8660254037844425 -9.851412492927364e-13 0.49999999999999345
  outer loop
    vertex 431.9800457161893 673.499999999816 300.5000000013546
    vertex 430.37344363280175 667.5663135280189 303.28271643731665
    vertex 430.9513542666779 664.0143409776146 302.28174585720154
  endloop
endfacet
facet normal 0.8660254037844425 -9.851412492927364e-13 0.49999999999999345
  outer loop
    vertex 431.9800457161893 673.499999999816 300.5000000013546
    vertex 430.9513542666779 664.0143409776146 302.28174585720154
    vertex 431.36288366325016 660.492930630739 301.5689560335231
  endloop
endfacet
facet normal 0.8660254037844425 -9.851412492927364e-13 0.49999999999999345
  outer loop
    vertex 431.9800457161893 673.499999999816 300.5000000013546
    vertex 431.36288366325016 660.492930630739 301.5689560335231
    vertex 431.9800457161893 653.999999999816 300.5000000013161
  endloop
endfacet
facet normal 0.8660254037844425 -9.851412492927364e-13 0.49999999999999345
  outer loop
    vertex 430.37344363280175 667.5663135280189 303.28271643731665
    vertex 429.62726629979943 671.1601038779152 304.57513348953967
    vertex 429.6780420252723 670.8411809266137 304.4871873532286
  endloop
endfacet
facet normal 0.8660254037844425 -9.851412492927364e-13 0.49999999999999345
  outer loop
    vertex 430.9513542666779 664.0143409776146 302.28174585720154
    vertex 430.37344363280175 667.5663135280189 303.28271643731665
    vertex 430.4004815497923 667.3486234579858 303.2358853913577
  endloop
endfacet
facet normal 0.8660254037844425 -9.851412492927364e-13 0.49999999999999345
  outer loop
    vertex 431.36288366325016 660.492930630739 301.5689560335231
    vertex 430.9513542666779 664.0143409776146 302.28174585720154
    vertex 430.96375731715216 663.8748637231222 302.26026314361116
  endloop
endfacet
facet normal 0.8660254037844425 -9.851412492927364e-13 0.49999999999999345
  outer loop
    vertex 431.9800457161893 653.999999999816 300.5000000013161
    vertex 431.36288366325016 660.492930630739 301.5689560335231
    vertex 431.36736348394976 660.4091100610816 301.5611967564625
  endloop
endfacet
facet normal 0.8660254037844425 -9.851412492927364e-13 0.49999999999999345
  outer loop
    vertex 431.9800457161893 653.999999999816 300.5000000013161
    vertex 431.36736348394976 660.4091100610816 301.5611967564625
    vertex 431.6093093374103 656.9915206828505 301.14213424558176
  endloop
endfacet
facet normal 0.8660254037844425 -9.851412492927364e-13 0.49999999999999345
  outer loop
    vertex 431.9800457161893 653.999999999816 300.5000000013161
    vertex 431.6093093374103 656.9915206828505 301.14213424558176
    vertex 431.61020971462443 656.9410332397524 301.14057474650065
  endloop
endfacet
facet normal 0.8660254037844425 -9.851412492927364e-13 0.49999999999999345
  outer loop
    vertex 431.9800457161893 653.999999999816 300.5000000013161
    vertex 431.61020971462443 656.9410332397524 301.14057474650065
    vertex 431.6723193943541 654.3077263216496 301.03299762556173
  endloop
endfacet
facet normal 2.1666676774520363e-16 -0.866025403785426 0.4999999999982896
  outer loop
    vertex 383.3624008994754 639.7981031369986 301.88235518457424
    vertex 412.4800457161894 638.999999999816 300.50000000128665
    vertex 412.98752772549454 640.0934717584792 302.3939486439424
  endloop
endfacet
facet normal 2.1666676774520363e-16 -0.866025403785426 0.4999999999982896
  outer loop
    vertex 412.4800457161894 638.999999999816 300.50000000128665
    vertex 383.3624008994754 639.7981031369986 301.88235518457424
    vertex 381.98004571618947 638.999999999816 300.50000000128665
  endloop
endfacet
facet normal 2.1666676774520363e-16 -0.866025403785426 0.4999999999982896
  outer loop
    vertex 412.4800457161894 638.999999999816 300.50000000128665
    vertex 381.98004571618947 638.999999999816 300.50000000128665
    vertex 411.9800457161895 638.999999999816 300.50000000128665
  endloop
endfacet
facet normal -1.2180643565847147e-16 -0.8660254037854253 0.4999999999982912
  outer loop
    vertex 382.11388831569417 654.3030555968425 301.02490769288744
    vertex 431.6723193943541 654.3077263216496 301.03299762556173
    vertex 393.62991568933097 654.3077263216496 301.03299762556173
  endloop
endfacet
facet normal -1.2180643565847147e-16 -0.8660254037854253 0.4999999999982912
  outer loop
    vertex 431.6723193943541 654.3077263216496 301.03299762556173
    vertex 382.11388831569417 654.3030555968425 301.02490769288744
    vertex 431.9800457161893 653.999999999816 300.5000000013161
  endloop
endfacet
facet normal -1.2180643565847147e-16 -0.8660254037854253 0.4999999999982912
  outer loop
    vertex 431.9800457161893 653.999999999816 300.5000000013161
    vertex 382.11388831569417 654.3030555968425 301.02490769288744
    vertex 382.0633790495228 653.999999999816 300.5000000013161
  endloop
endfacet
facet normal -0.01859395543723763 0.15381661895076643 0.9879244467851542
  outer loop
    vertex 383.3624008994754 639.7981031369986 301.88235518457424
    vertex 430.96375731715176 643.1251362765015 302.2602631435702
    vertex 383.3334760205243 639.9803836169414 301.8534303056236
  endloop
endfacet
facet normal -0.01859395543723763 0.15381661895076643 0.9879244467851542
  outer loop
    vertex 430.96375731715176 643.1251362765015 302.2602631435702
    vertex 383.3624008994754 639.7981031369986 301.88235518457424
    vertex 412.98752772549454 640.0934717584792 302.3939486439424
  endloop
endfacet
facet normal -0.01859395543723763 0.15381661895076643 0.9879244467851542
  outer loop
    vertex 430.96375731715176 643.1251362765015 302.2602631435702
    vertex 412.98752772549454 640.0934717584792 302.3939486439424
    vertex 413.017266803548 639.384221058311 302.5049363942075
  endloop
endfacet
facet normal -0.01859395543723763 0.15381661895076643 0.9879244467851542
  outer loop
    vertex 430.96375731715176 643.1251362765015 302.2602631435702
    vertex 413.017266803548 639.384221058311 302.5049363942075
    vertex 430.9513542666776 642.9856590220097 302.2817458571602
  endloop
endfacet
facet normal -0.058210067627884415 -0.27398869312044316 0.959969678723713
  outer loop
    vertex 429.6780420252723 670.8411809266137 304.4871873532286
    vertex 413.7197132408335 676.4715528831052 305.12650218782505
    vertex 413.5363904823518 674.1133859366604 304.44233233898314
  endloop
endfacet
facet normal -0.058210067627884415 -0.27398869312044316 0.959969678723713
  outer loop
    vertex 413.7197132408335 676.4715528831052 305.12650218782505
    vertex 429.6780420252723 670.8411809266137 304.4871873532286
    vertex 429.62726629979943 671.1601038779152 304.57513348953967
  endloop
endfacet
facet normal 6.890868822902254e-18 0.8660254037834522 0.5000000000017089
  outer loop
    vertex 411.48004571618924 637.999999999816 300.50000000128455
    vertex 402.6751379588801 636.9221575261915 302.3668779281482
    vertex 410.875552203337 636.6974975022212 302.75600050409304
  endloop
endfacet
facet normal 6.890868822902254e-18 0.8660254037834522 0.5000000000017089
  outer loop
    vertex 402.6751379588801 636.9221575261915 302.3668779281482
    vertex 411.48004571618924 637.999999999816 300.50000000128455
    vertex 383.4975969989941 637.1238413581759 302.0175512840879
  endloop
endfacet
facet normal 6.890868822902254e-18 0.8660254037834522 0.5000000000017089
  outer loop
    vertex 383.4975969989941 637.1238413581759 302.0175512840879
    vertex 411.48004571618924 637.999999999816 300.50000000128455
    vertex 381.98004571618947 637.999999999816 300.50000000128455
  endloop
endfacet
facet normal -0.0582100676278845 0.08578389913119686 0.994611839199899
  outer loop
    vertex 383.7916364311352 623.4999999998118 302.31159071620186
    vertex 410.7609001093829 631.6866821128102 303.1838879439146
    vertex 383.5366248919394 626.2836605641693 302.0565791770118
  endloop
endfacet
facet normal -0.0582100676278845 0.08578389913119686 0.994611839199899
  outer loop
    vertex 410.7609001093829 631.6866821128102 303.1838879439146
    vertex 383.7916364311352 623.4999999998118 302.31159071620186
    vertex 386.9800457161894 623.4999999998115 302.4981936831016
  endloop
endfacet
facet normal -0.0582100676278845 0.08578389913119686 0.994611839199899
  outer loop
    vertex 410.7609001093829 631.6866821128102 303.1838879439146
    vertex 386.9800457161894 623.4999999998115 302.4981936831016
    vertex 394.90206390439835 623.4999999998106 302.9618330611086
  endloop
endfacet
facet normal -0.0582100676278845 0.08578389913119686 0.994611839199899
  outer loop
    vertex 410.7609001093829 631.6866821128102 303.1838879439146
    vertex 394.90206390439835 623.4999999998106 302.9618330611086
    vertex 410.69477835435225 628.7806698130622 303.43065769316775
  endloop
endfacet
facet normal 0.37139067635410766 -0.9284766908852579 -1.820475178354942e-12
  outer loop
    vertex 406.9800457161892 623.4999999998086 304.11310236372327
    vertex 411.48004571618924 625.299999999816 300.5000000012596
    vertex 410.4860193439013 624.9023894508929 304.2097569267019
  endloop
endfacet
facet normal 0.37139067635410766 -0.9284766908852579 -1.820475178354942e-12
  outer loop
    vertex 411.48004571618924 625.299999999816 300.5000000012596
    vertex 406.9800457161892 623.4999999998086 304.11310236372327
    vertex 406.9800457161896 623.4999999998164 300.0000000012561
  endloop
endfacet
facet normal 0.37139067635410766 -0.9284766908852579 -1.820475178354942e-12
  outer loop
    vertex 411.48004571618924 625.299999999816 300.5000000012596
    vertex 406.9800457161896 623.4999999998164 300.0000000012561
    vertex 411.48004571618924 625.2999999998164 300.00000000125965
  endloop
endfacet
facet normal 0.9659258262890777 -5.100771136036092e-13 0.2588190451024862
  outer loop
    vertex 410.875552203337 636.6974975022212 302.75600050409304
    vertex 411.48004571618924 625.299999999816 300.5000000012596
    vertex 411.48004571618924 637.999999999816 300.50000000128455
  endloop
endfacet
facet normal 0.9659258262890777 -5.100771136036092e-13 0.2588190451024862
  outer loop
    vertex 411.48004571618924 625.299999999816 300.5000000012596
    vertex 410.875552203337 636.6974975022212 302.75600050409304
    vertex 410.87216199600516 636.5614213856041 302.7686529301028
  endloop
endfacet
facet normal 0.9659258262890777 -5.100771136036092e-13 0.2588190451024862
  outer loop
    vertex 411.48004571618924 625.299999999816 300.5000000012596
    vertex 410.87216199600516 636.5614213856041 302.7686529301028
    vertex 410.8535973111887 633.6778836673013 302.8379372770586
  endloop
endfacet
facet normal 0.9659258262890777 -5.100771136036092e-13 0.2588190451024862
  outer loop
    vertex 411.48004571618924 625.299999999816 300.5000000012596
    vertex 410.8535973111887 633.6778836673013 302.8379372770586
    vertex 410.7609001093829 631.6866821128102 303.1838879439146
  endloop
endfacet
facet normal 0.9659258262890777 -5.100771136036092e-13 0.2588190451024862
  outer loop
    vertex 411.48004571618924 625.299999999816 300.5000000012596
    vertex 410.7609001093829 631.6866821128102 303.1838879439146
    vertex 410.69477835435225 628.7806698130622 303.43065769316775
  endloop
endfacet
facet normal 0.9659258262890777 -5.100771136036092e-13 0.2588190451024862
  outer loop
    vertex 411.48004571618924 625.299999999816 300.5000000012596
    vertex 410.69477835435225 628.7806698130622 303.43065769316775
    vertex 410.56069828501415 626.8177946385092 303.9310513242158
  endloop
endfacet
facet normal 0.9659258262890777 -5.100771136036092e-13 0.2588190451024862
  outer loop
    vertex 411.48004571618924 625.299999999816 300.5000000012596
    vertex 410.56069828501415 626.8177946385092 303.9310513242158
    vertex 410.4860193439013 624.9023894508929 304.2097569267019
  endloop
endfacet
facet normal 0.9659258262890934 -5.035813229354744e-13 0.25881904510242787
  outer loop
    vertex 410.5606982850145 680.182205361108 303.93105132432106
    vertex 411.48004571618924 681.6999999998161 300.50000000137067
    vertex 410.4860193439013 682.0976105487234 304.2097569268147
  endloop
endfacet
facet normal 0.9659258262890934 -5.035813229354744e-13 0.25881904510242787
  outer loop
    vertex 411.48004571618924 681.6999999998161 300.50000000137067
    vertex 410.5606982850145 680.182205361108 303.93105132432106
    vertex 411.48004571618924 668.999999999816 300.5000000013457
  endloop
endfacet
facet normal 0.9659258262890934 -5.035813229354744e-13 0.25881904510242787
  outer loop
    vertex 411.48004571618924 668.999999999816 300.5000000013457
    vertex 410.5606982850145 680.182205361108 303.93105132432106
    vertex 410.6947783543526 678.2193301865569 303.4306576932651
  endloop
endfacet
facet normal 0.9659258262890934 -5.035813229354744e-13 0.25881904510242787
  outer loop
    vertex 411.48004571618924 668.999999999816 300.5000000013457
    vertex 410.6947783543526 678.2193301865569 303.4306576932651
    vertex 410.7609001093829 675.3133178868098 303.1838879440005
  endloop
endfacet
facet normal 0.9659258262890934 -5.035813229354744e-13 0.25881904510242787
  outer loop
    vertex 411.48004571618924 668.999999999816 300.5000000013457
    vertex 410.7609001093829 675.3133178868098 303.1838879440005
    vertex 410.85359731118905 673.3221163323202 302.8379372771367
  endloop
endfacet
facet normal 0.9659258262890934 -5.035813229354744e-13 0.25881904510242787
  outer loop
    vertex 411.48004571618924 668.999999999816 300.5000000013457
    vertex 410.85359731118905 673.3221163323202 302.8379372771367
    vertex 410.8721619960055 670.4385786140176 302.7686529301696
  endloop
endfacet
facet normal 0.9659258262890934 -5.035813229354744e-13 0.25881904510242787
  outer loop
    vertex 411.48004571618924 668.999999999816 300.5000000013457
    vertex 410.8721619960055 670.4385786140176 302.7686529301696
    vertex 410.875552203337 670.3025024974008 302.75600050415915
  endloop
endfacet
facet normal 1.0 0.0 0.0
  outer loop
    vertex 411.48004571618924 637.999999999816 300.50000000128455
    vertex 411.48004571618924 625.2999999998164 300.00000000125965
    vertex 411.48004571618924 637.9999999998164 300.0000000012846
  endloop
endfacet
facet normal 1.0 0.0 0.0
  outer loop
    vertex 411.48004571618924 625.2999999998164 300.00000000125965
    vertex 411.48004571618924 637.999999999816 300.50000000128455
    vertex 411.48004571618924 625.299999999816 300.5000000012596
  endloop
endfacet
facet normal -1.0 -0.0 0.0
  outer loop
    vertex 412.4800457161894 667.9999999998164 300.0000000013437
    vertex 412.4800457161894 681.2999999998161 300.50000000136987
    vertex 412.4800457161894 681.2999999998165 300.00000000136987
  endloop
endfacet
facet normal -1.0 -0.0 0.0
  outer loop
    vertex 412.4800457161894 681.2999999998161 300.50000000136987
    vertex 412.4800457161894 667.9999999998164 300.0000000013437
    vertex 412.4800457161894 667.999999999816 300.50000000134366
  endloop
endfacet
facet normal 0.7071067811864998 -0.7071067811865953 -1.3078125613553702e-12
  outer loop
    vertex 411.48004571618924 637.999999999816 300.50000000128455
    vertex 412.4800457161894 638.9999999998164 300.00000000128665
    vertex 412.4800457161894 638.999999999816 300.50000000128665
  endloop
endfacet
facet normal 0.7071067811864998 -0.7071067811865953 -1.3078125613553702e-12
  outer loop
    vertex 412.4800457161894 638.9999999998164 300.00000000128665
    vertex 411.48004571618924 637.999999999816 300.50000000128455
    vertex 411.48004571618924 637.9999999998164 300.0000000012846
  endloop
endfacet
facet normal -2.737970799759679e-17 -0.040818433781096515 0.9991665804377459
  outer loop
    vertex 431.6723193943541 654.3077263216496 301.03299762556173
    vertex 431.61020971462443 656.9410332397524 301.14057474650065
    vertex 393.62991568933097 654.3077263216496 301.03299762556173
  endloop
endfacet
facet normal -0.02174430172997323 -0.2026858602841194 0.9790023633184767
  outer loop
    vertex 431.36288366325016 660.492930630739 301.5689560335231
    vertex 384.2235210239601 666.9608518464374 301.86103260246745
    vertex 384.19866847059666 666.8117365262556 301.82960880869075
  endloop
endfacet
facet normal -0.02174430172997323 -0.2026858602841194 0.9790023633184767
  outer loop
    vertex 384.2235210239601 666.9608518464374 301.86103260246745
    vertex 431.36288366325016 660.492930630739 301.5689560335231
    vertex 430.96375731715216 663.8748637231222 302.26026314361116
  endloop
endfacet
facet normal -0.04463175907440114 0.28165224392039995 0.958477970313626
  outer loop
    vertex 413.1802774337732 637.3397566194167 303.1133003483774
    vertex 430.9513542666776 642.9856590220097 302.2817458571602
    vertex 413.017266803548 639.384221058311 302.5049363942075
  endloop
endfacet
facet normal -0.04463175907440114 0.28165224392039995 0.958477970313626
  outer loop
    vertex 430.9513542666776 642.9856590220097 302.2817458571602
    vertex 413.1802774337732 637.3397566194167 303.1133003483774
    vertex 430.40048154979195 639.6513765416341 303.23588539130327
  endloop
endfacet
facet normal 0.7071067811864996 0.7071067811865954 1.4779583292370394e-12
  outer loop
    vertex 412.4800457161894 667.999999999816 300.50000000134366
    vertex 411.48004571618924 668.9999999998164 300.0000000013457
    vertex 411.48004571618924 668.999999999816 300.5000000013457
  endloop
endfacet
facet normal 0.7071067811864996 0.7071067811865954 1.4779583292370394e-12
  outer loop
    vertex 411.48004571618924 668.9999999998164 300.0000000013457
    vertex 412.4800457161894 667.999999999816 300.50000000134366
    vertex 412.4800457161894 667.9999999998164 300.0000000013437
  endloop
endfacet
facet normal -0.01859395543723741 -0.15381661895465878 0.9879244467845483
  outer loop
    vertex 430.96375731715216 663.8748637231222 302.26026314361116
    vertex 384.2621999962448 667.1929256801442 301.8978937284919
    vertex 384.2235210239601 666.9608518464374 301.86103260246745
  endloop
endfacet
facet normal -0.01859395543723741 -0.15381661895465878 0.9879244467845483
  outer loop
    vertex 384.2621999962448 667.1929256801442 301.8978937284919
    vertex 430.96375731715216 663.8748637231222 302.26026314361116
    vertex 412.98752772549454 666.9065282411442 302.3939486439954
  endloop
endfacet
facet normal -0.01859395543723741 -0.15381661895465878 0.9879244467845483
  outer loop
    vertex 412.98752772549454 666.9065282411442 302.3939486439954
    vertex 430.96375731715216 663.8748637231222 302.26026314361116
    vertex 413.017266803548 667.6157789413132 302.50493639426315
  endloop
endfacet
facet normal -0.01859395543723741 -0.15381661895465878 0.9879244467845483
  outer loop
    vertex 413.017266803548 667.6157789413132 302.50493639426315
    vertex 430.96375731715216 663.8748637231222 302.26026314361116
    vertex 430.9513542666779 664.0143409776146 302.28174585720154
  endloop
endfacet
facet normal 0.0 -1.9698374875698473e-12 1.0
  outer loop
    vertex 411.9800457161895 667.999999999816 300.50000000134366
    vertex 384.56337904952255 668.999999999816 300.5000000013457
    vertex 384.3967123828559 667.999999999816 300.50000000134366
  endloop
endfacet
facet normal 0.0 -1.9698374875698473e-12 1.0
  outer loop
    vertex 384.56337904952255 668.999999999816 300.5000000013457
    vertex 411.9800457161895 667.999999999816 300.50000000134366
    vertex 411.48004571618924 668.999999999816 300.5000000013457
  endloop
endfacet
facet normal 0.0 -1.9698374875698473e-12 1.0
  outer loop
    vertex 411.48004571618924 668.999999999816 300.5000000013457
    vertex 411.9800457161895 667.999999999816 300.50000000134366
    vertex 412.4800457161894 667.999999999816 300.50000000134366
  endloop
endfacet
facet normal -1.0 -0.0 0.0
  outer loop
    vertex 412.4800457161894 625.6999999998164 300.00000000126033
    vertex 412.4800457161894 638.999999999816 300.50000000128665
    vertex 412.4800457161894 638.9999999998164 300.00000000128665
  endloop
endfacet
facet normal -1.0 -0.0 0.0
  outer loop
    vertex 412.4800457161894 638.999999999816 300.50000000128665
    vertex 412.4800457161894 625.6999999998164 300.00000000126033
    vertex 412.4800457161894 625.6999999998161 300.50000000126033
  endloop
endfacet
facet normal -0.07520693913193835 0.3582361925649586 0.9305969840070228
  outer loop
    vertex 413.5363904823518 632.886614062955 304.4423323389019
    vertex 430.37344363280135 639.433686471601 303.28271643726134
    vertex 413.32684631716245 634.8741159026232 303.6603028679898
  endloop
endfacet
facet normal -0.07520693913193835 0.3582361925649586 0.9305969840070228
  outer loop
    vertex 430.37344363280135 639.433686471601 303.28271643726134
    vertex 413.5363904823518 632.886614062955 304.4423323389019
    vertex 429.6780420252723 636.1588190730014 304.48718735316027
  endloop
endfacet
facet normal -0.000689630972366254 0.030886404755910472 0.999522663280016
  outer loop
    vertex 382.6897341654703 646.7300655970279 301.20968845058246
    vertex 393.6299156893306 652.6922736779791 301.03299762555855
    vertex 382.50522832151285 652.6967856812571 301.02518260663686
  endloop
endfacet
facet normal -0.000689630972366254 0.030886404755910472 0.999522663280016
  outer loop
    vertex 393.6299156893306 652.6922736779791 301.03299762555855
    vertex 382.6897341654703 646.7300655970279 301.20968845058246
    vertex 431.6093093374103 650.0084793167778 301.1421342455679
  endloop
endfacet
facet normal -0.000689630972366254 0.030886404755910472 0.999522663280016
  outer loop
    vertex 393.6299156893306 652.6922736779791 301.03299762555855
    vertex 431.6093093374103 650.0084793167778 301.1421342455679
    vertex 431.61020971462443 650.0589667598757 301.1405747464872
  endloop
endfacet
facet normal -2.590541602849361e-17 0.04081843377715793 0.9991665804379068
  outer loop
    vertex 431.6723193943541 652.6922736779791 301.03299762555855
    vertex 393.6299156893306 652.6922736779791 301.03299762555855
    vertex 431.61020971462443 650.0589667598757 301.1405747464872
  endloop
endfacet
facet normal 0.0 1.9698374875698473e-12 -1.0
  outer loop
    vertex 431.9800457161893 673.4999999998164 300.0000000013546
    vertex 412.4800457161894 667.9999999998164 300.0000000013437
    vertex 412.4800457161894 681.2999999998165 300.00000000136987
  endloop
endfacet
facet normal 0.0 1.9698374875698473e-12 -1.0
  outer loop
    vertex 412.4800457161894 667.9999999998164 300.0000000013437
    vertex 431.9800457161893 673.4999999998164 300.0000000013546
    vertex 412.4800457161894 638.9999999998164 300.00000000128665
  endloop
endfacet
facet normal 0.0 1.9698374875698473e-12 -1.0
  outer loop
    vertex 412.4800457161894 638.9999999998164 300.00000000128665
    vertex 431.9800457161893 673.4999999998164 300.0000000013546
    vertex 412.4800457161894 625.6999999998164 300.00000000126033
  endloop
endfacet
facet normal 0.0 1.9698374875698473e-12 -1.0
  outer loop
    vertex 412.4800457161894 625.6999999998164 300.00000000126033
    vertex 431.9800457161893 673.4999999998164 300.0000000013546
    vertex 431.9800457161893 633.4999999998164 300.0000000012757
  endloop
endfacet
facet normal 0.0 1.9698374875698473e-12 -1.0
  outer loop
    vertex 412.4800457161894 667.9999999998164 300.0000000013437
    vertex 411.48004571618924 637.9999999998164 300.0000000012846
    vertex 411.48004571618924 668.9999999998164 300.0000000013457
  endloop
endfacet
facet normal 0.0 1.9698374875698473e-12 -1.0
  outer loop
    vertex 411.48004571618924 637.9999999998164 300.0000000012846
    vertex 412.4800457161894 667.9999999998164 300.0000000013437
    vertex 412.4800457161894 638.9999999998164 300.00000000128665
  endloop
endfacet
facet normal 0.0 1.9698374875698473e-12 -1.0
  outer loop
    vertex 386.9800457161894 683.4999999998164 300.0000000013742
    vertex 381.98004571618947 623.4999999998164 300.0000000012561
    vertex 381.98004571618947 653.4999999998164 300.00000000131513
  endloop
endfacet
facet normal 0.0 1.9698374875698473e-12 -1.0
  outer loop
    vertex 381.98004571618947 623.4999999998164 300.0000000012561
    vertex 386.9800457161894 683.4999999998164 300.0000000013742
    vertex 406.9800457161896 623.4999999998164 300.0000000012561
  endloop
endfacet
facet normal 0.0 1.9698374875698473e-12 -1.0
  outer loop
    vertex 406.9800457161896 623.4999999998164 300.0000000012561
    vertex 386.9800457161894 683.4999999998164 300.0000000013742
    vertex 406.9800457161896 683.4999999998164 300.0000000013742
  endloop
endfacet
facet normal 0.0 1.9698374875698473e-12 -1.0
  outer loop
    vertex 406.9800457161896 623.4999999998164 300.0000000012561
    vertex 406.9800457161896 683.4999999998164 300.0000000013742
    vertex 411.48004571618924 681.6999999998164 300.00000000137067
  endloop
endfacet
facet normal 0.0 1.9698374875698473e-12 -1.0
  outer loop
    vertex 406.9800457161896 623.4999999998164 300.0000000012561
    vertex 411.48004571618924 681.6999999998164 300.00000000137067
    vertex 411.48004571618924 625.2999999998164 300.00000000125965
  endloop
endfacet
facet normal 0.0 1.9698374875698473e-12 -1.0
  outer loop
    vertex 411.48004571618924 625.2999999998164 300.00000000125965
    vertex 411.48004571618924 681.6999999998164 300.00000000137067
    vertex 411.48004571618924 668.9999999998164 300.0000000013457
  endloop
endfacet
facet normal 0.0 1.9698374875698473e-12 -1.0
  outer loop
    vertex 411.48004571618924 625.2999999998164 300.00000000125965
    vertex 411.48004571618924 668.9999999998164 300.0000000013457
    vertex 411.48004571618924 637.9999999998164 300.0000000012846
  endloop
endfacet
facet normal 0.3713906763541041 0.9284766908852592 1.8221439435808236e-12
  outer loop
    vertex 428.7102277206502 674.8079271980203 306.16349090113414
    vertex 412.4800457161894 681.2999999998161 300.50000000136987
    vertex 414.19207982928026 680.6151863545664 306.88939829571405
  endloop
endfacet
facet normal 0.3713906763541041 0.9284766908852592 1.8221439435808236e-12
  outer loop
    vertex 412.4800457161894 681.2999999998161 300.50000000136987
    vertex 428.7102277206502 674.8079271980203 306.16349090113414
    vertex 431.9800457161893 673.499999999816 300.5000000013546
  endloop
endfacet
facet normal 0.3713906763541041 0.9284766908852592 1.8221439435808236e-12
  outer loop
    vertex 412.4800457161894 681.2999999998161 300.50000000136987
    vertex 431.9800457161893 673.499999999816 300.5000000013546
    vertex 412.4800457161894 681.2999999998165 300.00000000136987
  endloop
endfacet
facet normal 0.3713906763541041 0.9284766908852592 1.8221439435808236e-12
  outer loop
    vertex 412.4800457161894 681.2999999998165 300.00000000136987
    vertex 431.9800457161893 673.499999999816 300.5000000013546
    vertex 431.9800457161893 673.4999999998164 300.0000000013546
  endloop
endfacet
facet normal -0.03573207156613031 -0.2144209910439184 0.9760875256150633
  outer loop
    vertex 430.4004815497923 667.3486234579858 303.2358853913577
    vertex 413.32684631716245 672.1258840969953 303.6603028680633
    vertex 413.1802774337732 669.6602433802043 303.113300348441
  endloop
endfacet
facet normal -0.03573207156613031 -0.2144209910439184 0.9760875256150633
  outer loop
    vertex 413.32684631716245 672.1258840969953 303.6603028680633
    vertex 430.4004815497923 667.3486234579858 303.2358853913577
    vertex 430.37344363280175 667.5663135280189 303.28271643731665
  endloop
endfacet
facet normal 0.0 -1.9698374875698473e-12 1.0
  outer loop
    vertex 411.48004571618924 637.999999999816 300.50000000128455
    vertex 381.98004571618947 638.999999999816 300.50000000128665
    vertex 381.98004571618947 637.999999999816 300.50000000128455
  endloop
endfacet
facet normal 0.0 -1.9698374875698473e-12 1.0
  outer loop
    vertex 381.98004571618947 638.999999999816 300.50000000128665
    vertex 411.48004571618924 637.999999999816 300.50000000128455
    vertex 411.9800457161895 638.999999999816 300.50000000128665
  endloop
endfacet
facet normal 0.0 -1.9698374875698473e-12 1.0
  outer loop
    vertex 411.9800457161895 638.999999999816 300.50000000128665
    vertex 411.48004571618924 637.999999999816 300.50000000128455
    vertex 412.4800457161894 638.999999999816 300.50000000128665
  endloop
endfacet
facet normal -0.0752069391319372 -0.17408810910159692 0.9818539843458576
  outer loop
    vertex 410.85359731118905 673.3221163323202 302.8379372771367
    vertex 386.42070491288433 680.1439551799804 302.17600379599435
    vertex 386.3722892119926 679.8534609746314 302.1207890854076
  endloop
endfacet
facet normal -0.0752069391319372 -0.17408810910159692 0.9818539843458576
  outer loop
    vertex 386.42070491288433 680.1439551799804 302.17600379599435
    vertex 410.85359731118905 673.3221163323202 302.8379372771367
    vertex 410.7609001093829 675.3133178868098 303.1838879440005
  endloop
endfacet
facet normal -0.04463175907439876 -0.09359128030911139 0.994609812103232
  outer loop
    vertex 402.6751379588801 670.0778424734319 302.3668779282136
    vertex 385.357716359727 673.7660238610389 301.9368345430389
    vertex 385.3200761878969 673.5401828300585 301.91389419191955
  endloop
endfacet
facet normal -0.04463175907439876 -0.09359128030911139 0.994609812103232
  outer loop
    vertex 385.357716359727 673.7660238610389 301.9368345430389
    vertex 402.6751379588801 670.0778424734319 302.3668779282136
    vertex 410.8721619960055 670.4385786140176 302.7686529301696
  endloop
endfacet
facet normal -0.04463175907439876 -0.09359128030911139 0.994609812103232
  outer loop
    vertex 410.8721619960055 670.4385786140176 302.7686529301696
    vertex 402.6751379588801 670.0778424734319 302.3668779282136
    vertex 410.875552203337 670.3025024974008 302.75600050415915
  endloop
endfacet
facet normal -0.058210067627883486 -0.08578389913510809 0.9946118391995618
  outer loop
    vertex 410.7609001093829 675.3133178868098 303.1838879440005
    vertex 386.98004571618975 683.4999999998116 302.4981936832197
    vertex 386.42070491288433 680.1439551799804 302.17600379599435
  endloop
endfacet
facet normal -0.058210067627883486 -0.08578389913510809 0.9946118391995618
  outer loop
    vertex 386.98004571618975 683.4999999998116 302.4981936832197
    vertex 410.7609001093829 675.3133178868098 303.1838879440005
    vertex 394.902063904398 683.4999999998106 302.9618330612267
  endloop
endfacet
facet normal -0.058210067627883486 -0.08578389913510809 0.9946118391995618
  outer loop
    vertex 394.902063904398 683.4999999998106 302.9618330612267
    vertex 410.7609001093829 675.3133178868098 303.1838879440005
    vertex 410.6947783543526 678.2193301865569 303.4306576932651
  endloop
endfacet
facet normal -0.11301820666176028 0.25268748692649146 0.9609245125990563
  outer loop
    vertex 398.1467744873889 623.4999999998098 303.34345655641766
    vertex 410.69477835435225 628.7806698130622 303.43065769316775
    vertex 394.90206390439835 623.4999999998106 302.9618330611086
  endloop
endfacet
facet normal -0.11301820666176028 0.25268748692649146 0.9609245125990563
  outer loop
    vertex 410.69477835435225 628.7806698130622 303.43065769316775
    vertex 398.1467744873889 623.4999999998098 303.34345655641766
    vertex 410.56069828501415 626.8177946385092 303.9310513242158
  endloop
endfacet
facet normal -0.018593955437238966 -0.03751429677091187 0.9991230866910153
  outer loop
    vertex 402.6751379588801 636.9221575261915 302.3668779281482
    vertex 383.4975969989941 637.1238413581759 302.0175512840879
    vertex 383.3423185376261 633.065253887769 301.86227282271193
  endloop
endfacet
facet normal -0.035732071566130334 -0.024235193348311326 0.9990675024566473
  outer loop
    vertex 410.8721619960055 670.4385786140176 302.7686529301696
    vertex 386.3722892119926 679.8534609746314 302.1207890854076
    vertex 385.357716359727 673.7660238610389 301.9368345430389
  endloop
endfacet
facet normal -0.035732071566130334 -0.024235193348311326 0.9990675024566473
  outer loop
    vertex 386.3722892119926 679.8534609746314 302.1207890854076
    vertex 410.8721619960055 670.4385786140176 302.7686529301696
    vertex 410.85359731118905 673.3221163323202 302.8379372771367
  endloop
endfacet
facet normal -0.11301820666176353 -0.25268748693029786 0.9609245125980551
  outer loop
    vertex 410.6947783543526 678.2193301865569 303.4306576932651
    vertex 398.1467744873885 683.4999999998099 303.3434565565358
    vertex 394.902063904398 683.4999999998106 302.9618330612267
  endloop
endfacet
facet normal -0.11301820666176353 -0.25268748693029786 0.9609245125980551
  outer loop
    vertex 398.1467744873885 683.4999999998099 303.3434565565358
    vertex 410.6947783543526 678.2193301865569 303.4306576932651
    vertex 410.5606982850145 680.182205361108 303.93105132432106
  endloop
endfacet
facet normal -0.07520693913193666 0.1740881090977244 0.9818539843465444
  outer loop
    vertex 383.5366248919394 626.2836605641693 302.0565791770118
    vertex 410.8535973111887 633.6778836673013 302.8379372770586
    vertex 383.51719862173087 626.3848321523678 302.0371529068035
  endloop
endfacet
facet normal -0.07520693913193666 0.1740881090977244 0.9818539843465444
  outer loop
    vertex 410.8535973111887 633.6778836673013 302.8379372770586
    vertex 383.5366248919394 626.2836605641693 302.0565791770118
    vertex 410.7609001093829 631.6866821128102 303.1838879439146
  endloop
endfacet
facet normal -0.08586188915219954 0.1467367331671901 0.9854420668566145
  outer loop
    vertex 406.9800457161892 623.4999999998086 304.11310236372327
    vertex 410.56069828501415 626.8177946385092 303.9310513242158
    vertex 398.1467744873889 623.4999999998098 303.34345655641766
  endloop
endfacet
facet normal -0.08586188915219954 0.1467367331671901 0.9854420668566145
  outer loop
    vertex 410.56069828501415 626.8177946385092 303.9310513242158
    vertex 406.9800457161892 623.4999999998086 304.11310236372327
    vertex 410.4860193439013 624.9023894508929 304.2097569267019
  endloop
endfacet
facet normal -0.01859395543723796 0.03751429676698911 0.9991230866911626
  outer loop
    vertex 402.6751379588801 670.0778424734319 302.3668779282136
    vertex 385.3200761878969 673.5401828300585 301.91389419191955
    vertex 384.7115332505573 669.888925206021 302.0396636226295
  endloop
endfacet
facet normal -0.04463175907440098 0.09359128030520862 0.994609812103599
  outer loop
    vertex 383.35147299228305 632.9723335752901 301.87142727736864
    vertex 402.6751379588801 636.9221575261915 302.3668779281482
    vertex 383.3423185376261 633.065253887769 301.86227282271193
  endloop
endfacet
facet normal -0.04463175907440098 0.09359128030520862 0.994609812103599
  outer loop
    vertex 402.6751379588801 636.9221575261915 302.3668779281482
    vertex 383.35147299228305 632.9723335752901 301.87142727736864
    vertex 410.87216199600516 636.5614213856041 302.7686529301028
  endloop
endfacet
facet normal -0.04463175907440098 0.09359128030520862 0.994609812103599
  outer loop
    vertex 402.6751379588801 636.9221575261915 302.3668779281482
    vertex 410.87216199600516 636.5614213856041 302.7686529301028
    vertex 410.875552203337 636.6974975022212 302.75600050409304
  endloop
endfacet
facet normal -0.03573207156613046 0.02423519334437273 0.9990675024567428
  outer loop
    vertex 383.51719862173087 626.3848321523678 302.0371529068035
    vertex 410.87216199600516 636.5614213856041 302.7686529301028
    vertex 383.35147299228305 632.9723335752901 301.87142727736864
  endloop
endfacet
facet normal -0.03573207156613046 0.02423519334437273 0.9990675024567428
  outer loop
    vertex 410.87216199600516 636.5614213856041 302.7686529301028
    vertex 383.51719862173087 626.3848321523678 302.0371529068035
    vertex 410.8535973111887 633.6778836673013 302.8379372770586
  endloop
endfacet
facet normal -0.9863939238321439 0.16439898730535688 3.779877446442085e-13
  outer loop
    vertex 386.9800457161894 683.4999999998164 300.0000000013742
    vertex 384.56337904952255 668.999999999816 300.5000000013457
    vertex 386.98004571618975 683.4999999998116 302.4981936832197
  endloop
endfacet
facet normal -0.9863939238321439 0.16439898730535688 3.779877446442085e-13
  outer loop
    vertex 384.56337904952255 668.999999999816 300.5000000013457
    vertex 386.9800457161894 683.4999999998164 300.0000000013742
    vertex 381.98004571618947 653.4999999998164 300.00000000131513
  endloop
endfacet
facet normal -0.9863939238321439 0.16439898730535688 3.779877446442085e-13
  outer loop
    vertex 386.98004571618975 683.4999999998116 302.4981936832197
    vertex 384.56337904952255 668.999999999816 300.5000000013457
    vertex 386.3722892119926 679.8534609746314 302.1207890854076
  endloop
endfacet
facet normal -0.9863939238321439 0.16439898730535688 3.779877446442085e-13
  outer loop
    vertex 386.98004571618975 683.4999999998116 302.4981936832197
    vertex 386.3722892119926 679.8534609746314 302.1207890854076
    vertex 386.42070491288433 680.1439551799804 302.17600379599435
  endloop
endfacet
facet normal -0.9863939238321439 0.16439898730535688 3.779877446442085e-13
  outer loop
    vertex 386.3722892119926 679.8534609746314 302.1207890854076
    vertex 384.56337904952255 668.999999999816 300.5000000013457
    vertex 385.357716359727 673.7660238610389 301.9368345430389
  endloop
endfacet
facet normal -0.9863939238321439 0.16439898730535688 3.779877446442085e-13
  outer loop
    vertex 385.357716359727 673.7660238610389 301.9368345430389
    vertex 384.56337904952255 668.999999999816 300.5000000013457
    vertex 385.3200761878969 673.5401828300585 301.91389419191955
  endloop
endfacet
facet normal -0.9863939238321439 0.16439898730535688 3.779877446442085e-13
  outer loop
    vertex 385.3200761878969 673.5401828300585 301.91389419191955
    vertex 384.56337904952255 668.999999999816 300.5000000013457
    vertex 384.7115332505573 669.888925206021 302.0396636226295
  endloop
endfacet
facet normal -0.9863939238321439 0.16439898730535688 3.779877446442085e-13
  outer loop
    vertex 384.56337904952255 668.999999999816 300.5000000013457
    vertex 381.98004571618947 653.4999999998164 300.00000000131513
    vertex 384.3967123828559 667.999999999816 300.50000000134366
  endloop
endfacet
facet normal -0.9863939238321439 0.16439898730535688 3.779877446442085e-13
  outer loop
    vertex 384.3967123828559 667.999999999816 300.50000000134366
    vertex 381.98004571618947 653.4999999998164 300.00000000131513
    vertex 384.19866847059666 666.8117365262556 301.82960880869075
  endloop
endfacet
facet normal -0.9863939238321439 0.16439898730535688 3.779877446442085e-13
  outer loop
    vertex 384.3967123828559 667.999999999816 300.50000000134366
    vertex 384.19866847059666 666.8117365262556 301.82960880869075
    vertex 384.2621999962448 667.1929256801442 301.8978937284919
  endloop
endfacet
facet normal -0.9863939238321439 0.16439898730535688 3.779877446442085e-13
  outer loop
    vertex 384.2621999962448 667.1929256801442 301.8978937284919
    vertex 384.19866847059666 666.8117365262556 301.82960880869075
    vertex 384.2235210239601 666.9608518464374 301.86103260246745
  endloop
endfacet
facet normal -0.9863939238321439 0.16439898730535688 3.779877446442085e-13
  outer loop
    vertex 384.19866847059666 666.8117365262556 301.82960880869075
    vertex 381.98004571618947 653.4999999998164 300.00000000131513
    vertex 383.1166463150495 660.3196035929747 301.2187355402697
  endloop
endfacet
facet normal -0.9863939238321439 0.16439898730535688 3.779877446442085e-13
  outer loop
    vertex 383.1166463150495 660.3196035929747 301.2187355402697
    vertex 381.98004571618947 653.4999999998164 300.00000000131513
    vertex 383.1037438767228 660.2421889630145 301.20911673475064
  endloop
endfacet
facet normal -0.9863939238321439 0.16439898730535688 3.779877446442085e-13
  outer loop
    vertex 383.1037438767228 660.2421889630145 301.20911673475064
    vertex 381.98004571618947 653.4999999998164 300.00000000131513
    vertex 382.0633790495228 653.999999999816 300.5000000013161
  endloop
endfacet
facet normal -0.9863939238321439 0.16439898730535688 3.779877446442085e-13
  outer loop
    vertex 383.1037438767228 660.2421889630145 301.20911673475064
    vertex 382.0633790495228 653.999999999816 300.5000000013161
    vertex 382.11388831569417 654.3030555968425 301.02490769288744
  endloop
endfacet
facet normal -0.9863939238321439 0.16439898730535688 3.779877446442085e-13
  outer loop
    vertex 382.0633790495228 653.999999999816 300.5000000013161
    vertex 381.98004571618947 653.4999999998164 300.00000000131513
    vertex 381.98004571618947 653.499999999816 300.50000000131513
  endloop
endfacet
facet normal -0.11301820666176171 -0.4313979469693815 0.8950545772820574
  outer loop
    vertex 429.62726629979943 671.1601038779152 304.57513348953967
    vertex 413.97563225213503 678.3861321915278 306.0816049406286
    vertex 413.7197132408335 676.4715528831052 305.12650218782505
  endloop
endfacet
facet normal -0.11301820666176171 -0.4313979469693815 0.8950545772820574
  outer loop
    vertex 413.97563225213503 678.3861321915278 306.0816049406286
    vertex 429.62726629979943 671.1601038779152 304.57513348953967
    vertex 428.7962878570394 674.364024912213 306.01443037240097
  endloop
endfacet
facet normal -0.04463175907439906 -0.2816522439241693 0.9584779703125186
  outer loop
    vertex 430.9513542666779 664.0143409776146 302.28174585720154
    vertex 413.1802774337732 669.6602433802043 303.113300348441
    vertex 413.017266803548 667.6157789413132 302.50493639426315
  endloop
endfacet
facet normal -0.04463175907439906 -0.2816522439241693 0.9584779703125186
  outer loop
    vertex 413.1802774337732 669.6602433802043 303.113300348441
    vertex 430.9513542666779 664.0143409776146 302.28174585720154
    vertex 430.4004815497923 667.3486234579858 303.2358853913577
  endloop
endfacet
facet normal 0.3713906763541034 -0.9284766908852596 -1.83691591198148e-12
  outer loop
    vertex 412.4800457161894 625.6999999998161 300.50000000126033
    vertex 428.7102277206502 632.1920728015889 306.16349090105007
    vertex 414.19207982928026 626.384813645039 306.8893982956072
  endloop
endfacet
facet normal 0.3713906763541034 -0.9284766908852596 -1.83691591198148e-12
  outer loop
    vertex 428.7102277206502 632.1920728015889 306.16349090105007
    vertex 412.4800457161894 625.6999999998161 300.50000000126033
    vertex 431.9800457161893 633.499999999816 300.5000000012757
  endloop
endfacet
facet normal 0.3713906763541034 -0.9284766908852596 -1.83691591198148e-12
  outer loop
    vertex 431.9800457161893 633.499999999816 300.5000000012757
    vertex 412.4800457161894 625.6999999998161 300.50000000126033
    vertex 431.9800457161893 633.4999999998164 300.0000000012757
  endloop
endfacet
facet normal 0.3713906763541034 -0.9284766908852596 -1.83691591198148e-12
  outer loop
    vertex 431.9800457161893 633.4999999998164 300.0000000012757
    vertex 412.4800457161894 625.6999999998161 300.50000000126033
    vertex 412.4800457161894 625.6999999998164 300.00000000126033
  endloop
endfacet
facet normal 1.0 0.0 0.0
  outer loop
    vertex 431.9800457161893 673.499999999816 300.5000000013546
    vertex 431.9800457161893 633.4999999998164 300.0000000012757
    vertex 431.9800457161893 673.4999999998164 300.0000000013546
  endloop
endfacet
facet normal 1.0 0.0 0.0
  outer loop
    vertex 431.9800457161893 633.4999999998164 300.0000000012757
    vertex 431.9800457161893 673.499999999816 300.5000000013546
    vertex 431.9800457161893 653.999999999816 300.5000000013161
  endloop
endfacet
facet normal 1.0 0.0 0.0
  outer loop
    vertex 431.9800457161893 633.4999999998164 300.0000000012757
    vertex 431.9800457161893 653.999999999816 300.5000000013161
    vertex 431.9800457161893 652.999999999816 300.5000000013141
  endloop
endfacet
facet normal 1.0 0.0 0.0
  outer loop
    vertex 431.9800457161893 633.4999999998164 300.0000000012757
    vertex 431.9800457161893 652.999999999816 300.5000000013141
    vertex 431.9800457161893 633.499999999816 300.5000000012757
  endloop
endfacet
facet normal -0.006895248787494148 0.09253917746662849 0.9956851692065914
  outer loop
    vertex 383.3145406510577 640.0698128205674 301.83449493615683
    vertex 431.36736348394976 646.590889938545 301.56119675643527
    vertex 382.69579424227067 646.6811770993525 301.215748527383
  endloop
endfacet
facet normal -0.006895248787494148 0.09253917746662849 0.9956851692065914
  outer loop
    vertex 431.36736348394976 646.590889938545 301.56119675643527
    vertex 383.3145406510577 640.0698128205674 301.83449493615683
    vertex 431.36288366325016 646.5070693688876 301.56895603349557
  endloop
endfacet
facet normal -0.9659258262890622 -5.123492715711274e-13 0.25881904510254367
  outer loop
    vertex 412.4800457161894 638.999999999816 300.50000000128665
    vertex 413.017266803548 639.384221058311 302.5049363942075
    vertex 412.98752772549454 640.0934717584792 302.3939486439424
  endloop
endfacet
facet normal -0.9659258262890622 -5.123492715711274e-13 0.25881904510254367
  outer loop
    vertex 413.017266803548 639.384221058311 302.5049363942075
    vertex 412.4800457161894 638.999999999816 300.50000000128665
    vertex 413.1802774337732 637.3397566194167 303.1133003483774
  endloop
endfacet
facet normal -0.9659258262890622 -5.123492715711274e-13 0.25881904510254367
  outer loop
    vertex 413.1802774337732 637.3397566194167 303.1133003483774
    vertex 412.4800457161894 638.999999999816 300.50000000128665
    vertex 412.4800457161894 625.6999999998161 300.50000000126033
  endloop
endfacet
facet normal -0.9659258262890622 -5.123492715711274e-13 0.25881904510254367
  outer loop
    vertex 413.1802774337732 637.3397566194167 303.1133003483774
    vertex 412.4800457161894 625.6999999998161 300.50000000126033
    vertex 413.32684631716245 634.8741159026232 303.6603028679898
  endloop
endfacet
facet normal -0.9659258262890622 -5.123492715711274e-13 0.25881904510254367
  outer loop
    vertex 413.32684631716245 634.8741159026232 303.6603028679898
    vertex 412.4800457161894 625.6999999998161 300.50000000126033
    vertex 413.5363904823518 632.886614062955 304.4423323389019
  endloop
endfacet
facet normal -0.9659258262890622 -5.123492715711274e-13 0.25881904510254367
  outer loop
    vertex 413.5363904823518 632.886614062955 304.4423323389019
    vertex 412.4800457161894 625.6999999998161 300.50000000126033
    vertex 413.7197132408335 630.5284471165074 305.12650218773456
  endloop
endfacet
facet normal -0.9659258262890622 -5.123492715711274e-13 0.25881904510254367
  outer loop
    vertex 413.7197132408335 630.5284471165074 305.12650218773456
    vertex 412.4800457161894 625.6999999998161 300.50000000126033
    vertex 413.97563225213503 628.613867808081 306.0816049405306
  endloop
endfacet
facet normal -0.9659258262890622 -5.123492715711274e-13 0.25881904510254367
  outer loop
    vertex 413.97563225213503 628.613867808081 306.0816049405306
    vertex 412.4800457161894 625.6999999998161 300.50000000126033
    vertex 414.19207982928026 626.384813645039 306.8893982956072
  endloop
endfacet
facet normal -0.006817546493040224 0.12218042418645285 0.9924844910654442
  outer loop
    vertex 382.69579424227067 646.6811770993525 301.215748527383
    vertex 431.6093093374103 650.0084793167778 301.1421342455679
    vertex 382.6897341654703 646.7300655970279 301.20968845058246
  endloop
endfacet
facet normal -0.006817546493040224 0.12218042418645285 0.9924844910654442
  outer loop
    vertex 431.6093093374103 650.0084793167778 301.1421342455679
    vertex 382.69579424227067 646.6811770993525 301.215748527383
    vertex 431.36736348394976 646.590889938545 301.56119675643527
  endloop
endfacet
facet normal -0.021744301729973714 0.20268586028026525 0.9790023633192745
  outer loop
    vertex 383.3334760205243 639.9803836169414 301.8534303056236
    vertex 431.36288366325016 646.5070693688876 301.56895603349557
    vertex 383.3145406510577 640.0698128205674 301.83449493615683
  endloop
endfacet
facet normal -0.021744301729973714 0.20268586028026525 0.9790023633192745
  outer loop
    vertex 431.36288366325016 646.5070693688876 301.56895603349557
    vertex 383.3334760205243 639.9803836169414 301.8534303056236
    vertex 430.96375731715176 643.1251362765015 302.2602631435702
  endloop
endfacet
facet normal -0.0006896309723663531 -0.030886404759849117 0.9995226632798941
  outer loop
    vertex 393.62991568933097 654.3077263216496 301.03299762556173
    vertex 383.1037438767228 660.2421889630145 301.20911673475064
    vertex 382.11388831569417 654.3030555968425 301.02490769288744
  endloop
endfacet
facet normal -0.0006896309723663531 -0.030886404759849117 0.9995226632798941
  outer loop
    vertex 383.1037438767228 660.2421889630145 301.20911673475064
    vertex 393.62991568933097 654.3077263216496 301.03299762556173
    vertex 431.6093093374103 656.9915206828505 301.14213424558176
  endloop
endfacet
facet normal -0.0006896309723663531 -0.030886404759849117 0.9995226632798941
  outer loop
    vertex 431.6093093374103 656.9915206828505 301.14213424558176
    vertex 393.62991568933097 654.3077263216496 301.03299762556173
    vertex 431.61020971462443 656.9410332397524 301.14057474650065
  endloop
endfacet
facet normal -0.006817546493039995 -0.12218042419035957 0.9924844910649633
  outer loop
    vertex 431.6093093374103 656.9915206828505 301.14213424558176
    vertex 383.1166463150495 660.3196035929747 301.2187355402697
    vertex 383.1037438767228 660.2421889630145 301.20911673475064
  endloop
endfacet
facet normal -0.006817546493039995 -0.12218042419035957 0.9924844910649633
  outer loop
    vertex 383.1166463150495 660.3196035929747 301.2187355402697
    vertex 431.6093093374103 656.9915206828505 301.14213424558176
    vertex 431.36736348394976 660.4091100610816 301.5611967564625
  endloop
endfacet
facet normal -0.08586188915219868 0.33207197686591977 0.9393380318988346
  outer loop
    vertex 414.19207982928026 626.384813645039 306.8893982956072
    vertex 428.7962878570394 632.6359750873961 306.0144303723187
    vertex 413.97563225213503 628.613867808081 306.0816049405306
  endloop
endfacet
facet normal -0.08586188915219868 0.33207197686591977 0.9393380318988346
  outer loop
    vertex 428.7962878570394 632.6359750873961 306.0144303723187
    vertex 414.19207982928026 626.384813645039 306.8893982956072
    vertex 428.7102277206502 632.1920728015889 306.16349090105007
  endloop
endfacet
facet normal -0.058210067627886185 0.27398869311666585 0.9599696787247911
  outer loop
    vertex 413.7197132408335 630.5284471165074 305.12650218773456
    vertex 429.6780420252723 636.1588190730014 304.48718735316027
    vertex 413.5363904823518 632.886614062955 304.4423323389019
  endloop
endfacet
facet normal -0.058210067627886185 0.27398869311666585 0.9599696787247911
  outer loop
    vertex 429.6780420252723 636.1588190730014 304.48718735316027
    vertex 413.7197132408335 630.5284471165074 305.12650218773456
    vertex 429.6272662997991 635.8398961216996 304.5751334894701
  endloop
endfacet
facet normal -0.11301820666175821 0.4313979469658422 0.8950545772837635
  outer loop
    vertex 413.97563225213503 628.613867808081 306.0816049405306
    vertex 429.6272662997991 635.8398961216996 304.5751334894701
    vertex 413.7197132408335 630.5284471165074 305.12650218773456
  endloop
endfacet
facet normal -0.11301820666175821 0.4313979469658422 0.8950545772837635
  outer loop
    vertex 429.6272662997991 635.8398961216996 304.5751334894701
    vertex 413.97563225213503 628.613867808081 306.0816049405306
    vertex 428.7962878570394 632.6359750873961 306.0144303723187
  endloop
endfacet
facet normal -0.035732071566130494 0.21442099104006945 0.9760875256159088
  outer loop
    vertex 413.32684631716245 634.8741159026232 303.6603028679898
    vertex 430.40048154979195 639.6513765416341 303.23588539130327
    vertex 413.1802774337732 637.3397566194167 303.1133003483774
  endloop
endfacet
facet normal -0.035732071566130494 0.21442099104006945 0.9760875256159088
  outer loop
    vertex 430.40048154979195 639.6513765416341 303.23588539130327
    vertex 413.32684631716245 634.8741159026232 303.6603028679898
    vertex 430.37344363280135 639.433686471601 303.28271643726134
  endloop
endfacet
facet normal -0.0068952487874941815 -0.09253917747055224 0.9956851692062266
  outer loop
    vertex 431.36736348394976 660.4091100610816 301.5611967564625
    vertex 384.19866847059666 666.8117365262556 301.82960880869075
    vertex 383.1166463150495 660.3196035929747 301.2187355402697
  endloop
endfacet
facet normal -0.0068952487874941815 -0.09253917747055224 0.9956851692062266
  outer loop
    vertex 384.19866847059666 666.8117365262556 301.82960880869075
    vertex 431.36736348394976 660.4091100610816 301.5611967564625
    vertex 431.36288366325016 660.492930630739 301.5689560335231
  endloop
endfacet
facet normal -0.08586188915219682 -0.14673673317106994 0.985442066856037
  outer loop
    vertex 410.5606982850145 680.182205361108 303.93105132432106
    vertex 406.9800457161896 683.4999999998086 304.11310236384145
    vertex 398.1467744873885 683.4999999998099 303.3434565565358
  endloop
endfacet
facet normal -0.08586188915219682 -0.14673673317106994 0.985442066856037
  outer loop
    vertex 406.9800457161896 683.4999999998086 304.11310236384145
    vertex 410.5606982850145 680.182205361108 303.93105132432106
    vertex 410.4860193439013 682.0976105487234 304.2097569268147
  endloop
endfacet
endsolid ProtoGlove baseplate
