solid ProtoGlove baseplate
facet normal 0.3713906763540577 -0.9284766908852777 1.8150192451414218e-12
  outer loop
    vertex 410.4860193439006 -723.0976105489044 104.20975692677989
    vertex 406.98004571618884 -724.4999999999891 104.11310236380668
    vertex 411.48004571618856 -722.6999999999969 100.50000000133586
  endloop
endfacet
facet normal 0.3713906763540577 -0.9284766908852777 1.8150192451414218e-12
  outer loop
    vertex 406.98004571618867 -724.4999999999974 100.0000000013394
    vertex 411.48004571618856 -722.6999999999969 100.50000000133586
    vertex 406.98004571618884 -724.4999999999891 104.11310236380668
  endloop
endfacet
facet normal 0.3713906763540577 -0.9284766908852777 1.8150192451414218e-12
  outer loop
    vertex 411.48004571618856 -722.6999999999972 100.00000000133579
    vertex 411.48004571618856 -722.6999999999969 100.50000000133586
    vertex 406.98004571618867 -724.4999999999974 100.0000000013394
  endloop
endfacet
facet normal 0.8082479535138875 -0.4833204420745905 0.3363578390842632
  outer loop
    vertex 430.0075657886213 -673.9646980480028 106.00894025941663
    vertex 431.98004571618856 -674.4999999999962 100.50000000124099
    vertex 430.10144440792914 -673.7485594766817 106.0939300666524
  endloop
endfacet
facet normal 0.2999937167239069 0.49498671698042734 0.8154703672967613
  outer loop
    vertex 422.03347484147855 -663.6981305991055 110.27261176153299
    vertex 433.78716196358187 -669.1601605692465 109.26411404661667
    vertex 423.06539868809494 -663.5439534462487 109.79940472872869
  endloop
endfacet
facet normal 0.2999937167239069 0.49498671698042734 0.8154703672967613
  outer loop
    vertex 434.1877277086231 -668.7125863881333 108.84507922344523
    vertex 423.06539868809494 -663.5439534462487 109.79940472872869
    vertex 433.78716196358187 -669.1601605692465 109.26411404661667
  endloop
endfacet
facet normal 0.891352789884318 -0.2911608016766296 0.3474414936826995
  outer loop
    vertex 429.62726629979767 -676.8398961218803 104.57513348943533
    vertex 431.98004571618856 -674.4999999999962 100.50000000124099
    vertex 430.0075657886213 -673.9646980480028 106.00894025941663
  endloop
endfacet
facet normal 0.30422543176534583 0.7605635794122246 -0.5735764363525175
  outer loop
    vertex 423.06539868809494 -663.5439534462487 109.79940472872869
    vertex 434.1877277086231 -668.7125863881333 108.84507922344523
    vertex 413.2060161961756 -665.017019047493 102.61669170074273
  endloop
endfacet
facet normal 0.30422543176534583 0.7605635794122246 -0.5735764363525175
  outer loop
    vertex 431.98004571618856 -674.4999999999972 100.00000000124092
    vertex 413.2060161961756 -665.017019047493 102.61669170074273
    vertex 434.1877277086231 -668.7125863881333 108.84507922344523
  endloop
endfacet
facet normal 0.30422543176534583 0.7605635794122246 -0.5735764363525175
  outer loop
    vertex 412.48004571618793 -666.6999999999972 100.00000000122554
    vertex 413.2060161961756 -665.017019047493 102.61669170074273
    vertex 431.98004571618856 -674.4999999999972 100.00000000124092
  endloop
endfacet
facet normal 0.8093480658127608 -0.5607272245275294 0.17475894265758482
  outer loop
    vertex 433.78716196358187 -669.1601605692465 109.26411404661667
    vertex 431.98004571618856 -674.4999999999962 100.50000000124099
    vertex 434.1877277086231 -668.7125863881333 108.84507922344523
  endloop
endfacet
facet normal 0.627255983993416 -0.7158337215916678 0.3068094092049235
  outer loop
    vertex 433.78716196358187 -669.1601605692465 109.26411404661667
    vertex 430.10144440792914 -673.7485594766817 106.0939300666524
    vertex 431.98004571618856 -674.4999999999962 100.50000000124099
  endloop
endfacet
facet normal -0.14824689374966554 -0.47878302666796874 0.8653263383650326
  outer loop
    vertex 412.48004571618793 -666.6999999999842 106.97500000122521
    vertex 430.10144440792914 -673.7485594766817 106.0939300666524
    vertex 413.2060161961756 -665.0170190474823 108.0305619809996
  endloop
endfacet
facet normal -0.14824689374966554 -0.47878302666796874 0.8653263383650326
  outer loop
    vertex 422.03347484147855 -663.6981305991055 110.27261176153299
    vertex 413.2060161961756 -665.0170190474823 108.0305619809996
    vertex 430.10144440792914 -673.7485594766817 106.0939300666524
  endloop
endfacet
facet normal -0.14824689374966554 -0.47878302666796874 0.8653263383650326
  outer loop
    vertex 433.78716196358187 -669.1601605692465 109.26411404661667
    vertex 422.03347484147855 -663.6981305991055 110.27261176153299
    vertex 430.10144440792914 -673.7485594766817 106.0939300666524
  endloop
endfacet
facet normal 0.9343290447055715 -0.35641161066886407 7.044621595167866e-13
  outer loop
    vertex 431.98004571618856 -674.4999999999962 100.50000000124099
    vertex 431.98004571618856 -674.4999999999972 100.00000000124092
    vertex 434.1877277086231 -668.7125863881333 108.84507922344523
  endloop
endfacet
facet normal -0.1477673184884554 0.9890221532335519 -1.946535346797706e-12
  outer loop
    vertex 422.03347484147855 -663.6981305991055 110.27261176153299
    vertex 423.06539868809494 -663.5439534462487 109.79940472872869
    vertex 413.2060161961756 -665.0170190474823 108.0305619809996
  endloop
endfacet
facet normal -0.1477673184884554 0.9890221532335519 -1.946535346797706e-12
  outer loop
    vertex 413.2060161961756 -665.017019047493 102.61669170074273
    vertex 413.2060161961756 -665.0170190474823 108.0305619809996
    vertex 423.06539868809494 -663.5439534462487 109.79940472872869
  endloop
endfacet
facet normal -0.9182154400198356 0.39608131199184304 -7.48401440713018e-13
  outer loop
    vertex 412.48004571618793 -666.6999999999972 100.00000000122554
    vertex 412.48004571618793 -666.6999999999842 106.97500000122521
    vertex 413.2060161961756 -665.017019047493 102.61669170074273
  endloop
endfacet
facet normal -0.9182154400198356 0.39608131199184304 -7.48401440713018e-13
  outer loop
    vertex 413.2060161961756 -665.0170190474823 108.0305619809996
    vertex 413.2060161961756 -665.017019047493 102.61669170074273
    vertex 412.48004571618793 -666.6999999999842 106.97500000122521
  endloop
endfacet
facet normal -0.9659258262890742 -0.25881904510249915 5.152097212416631e-13
  outer loop
    vertex 413.5807575144254 -673.3159000425852 104.60791235675138
    vertex 413.04109732637994 -671.3018608019756 105.15002356600266
    vertex 412.48004571618793 -669.2079876870802 100.50000000123049
  endloop
endfacet
facet normal -0.9659258262890742 -0.25881904510249915 5.152097212416631e-13
  outer loop
    vertex 412.48004571618793 -669.2079876870691 106.08838368108958
    vertex 412.48004571618793 -669.2079876870802 100.50000000123049
    vertex 413.04109732637994 -671.3018608019756 105.15002356600266
  endloop
endfacet
facet normal -0.044631759074398744 0.09359128030911144 0.994609812103232
  outer loop
    vertex 385.3200761878962 -714.5401828302394 101.91389419188478
    vertex 385.3577163597263 -714.7660238612194 101.93683454300412
    vertex 402.67513795887936 -711.0778424736133 102.36687792817904
  endloop
endfacet
facet normal -0.044631759074398744 0.09359128030911144 0.994609812103232
  outer loop
    vertex 410.8721619960048 -711.4385786141984 102.76865293013488
    vertex 402.67513795887936 -711.0778424736133 102.36687792817904
    vertex 385.3577163597263 -714.7660238612194 101.93683454300412
  endloop
endfacet
facet normal -0.044631759074398744 0.09359128030911144 0.994609812103232
  outer loop
    vertex 410.8755522033363 -711.3025024975818 102.75600050412443
    vertex 402.67513795887936 -711.0778424736133 102.36687792817904
    vertex 410.8721619960048 -711.4385786141984 102.76865293013488
  endloop
endfacet
facet normal -0.035732071566130306 0.024235193348311306 0.9990675024566473
  outer loop
    vertex 385.3577163597263 -714.7660238612194 101.93683454300412
    vertex 386.37228921199187 -720.853460974812 102.12078908537296
    vertex 410.8721619960048 -711.4385786141984 102.76865293013488
  endloop
endfacet
facet normal -0.035732071566130306 0.024235193348311306 0.9990675024566473
  outer loop
    vertex 410.8535973111883 -714.3221163325013 102.83793727710196
    vertex 410.8721619960048 -711.4385786141984 102.76865293013488
    vertex 386.37228921199187 -720.853460974812 102.12078908537296
  endloop
endfacet
facet normal -0.11301820666176342 0.25268748693029763 0.9609245125980551
  outer loop
    vertex 394.90206390439727 -724.4999999999919 102.96183306119191
    vertex 398.1467744873878 -724.4999999999905 103.34345655650097
    vertex 410.6947783543519 -719.2193301867378 103.43065769323042
  endloop
endfacet
facet normal -0.11301820666176342 0.25268748693029763 0.9609245125980551
  outer loop
    vertex 410.56069828501376 -721.1822053612889 103.9310513242863
    vertex 410.6947783543519 -719.2193301867378 103.43065769323042
    vertex 398.1467744873878 -724.4999999999905 103.34345655650097
  endloop
endfacet
facet normal -0.07520693913193663 -0.17408810909772446 0.9818539843465444
  outer loop
    vertex 383.51719862173013 -667.3848321525485 102.03715290676874
    vertex 410.85359731118797 -674.6778836674825 102.83793727702381
    vertex 383.53662489193874 -667.2836605643504 102.05657917697708
  endloop
endfacet
facet normal -0.07520693913193663 -0.17408810909772446 0.9818539843465444
  outer loop
    vertex 410.76090010938213 -672.6866821129914 103.18388794387994
    vertex 383.53662489193874 -667.2836605643504 102.05657917697708
    vertex 410.85359731118797 -674.6778836674825 102.83793727702381
  endloop
endfacet
facet normal -0.01859395543723896 0.03751429677091187 0.9991230866910153
  outer loop
    vertex 383.3423185376254 -674.0652538879505 101.86227282267713
    vertex 383.4975969989934 -678.1238413583567 102.01755128405321
    vertex 402.67513795887936 -677.9221575263724 102.3668779281135
  endloop
endfacet
facet normal -0.08586188915221074 -0.14673673316725042 0.9854420668566045
  outer loop
    vertex 398.14677448738814 -664.4999999999905 103.3434565563829
    vertex 410.5606982850134 -667.81779463869 103.93105132418101
    vertex 406.98004571618844 -664.4999999999891 104.11310236368861
  endloop
endfacet
facet normal -0.08586188915221074 -0.14673673316725042 0.9854420668566045
  outer loop
    vertex 410.4860193439006 -665.9023894510742 104.20975692666713
    vertex 406.98004571618844 -664.4999999999891 104.11310236368861
    vertex 410.5606982850134 -667.81779463869 103.93105132418101
  endloop
endfacet
facet normal -0.018593955437237953 -0.03751429676698912 0.9991230866911626
  outer loop
    vertex 384.7115332505566 -710.888925206202 102.03966362259477
    vertex 385.3200761878962 -714.5401828302394 101.91389419188478
    vertex 402.67513795887936 -711.0778424736133 102.36687792817904
  endloop
endfacet
facet normal -0.04463175907440095 -0.09359128030520862 0.994609812103599
  outer loop
    vertex 383.3423185376254 -674.0652538879505 101.86227282267713
    vertex 402.67513795887936 -677.9221575263724 102.3668779281135
    vertex 383.3514729922823 -673.9723335754709 101.87142727733398
  endloop
endfacet
facet normal -0.04463175907440095 -0.09359128030520862 0.994609812103599
  outer loop
    vertex 410.8721619960044 -677.5614213857851 102.76865293006796
    vertex 383.3514729922823 -673.9723335754709 101.87142727733398
    vertex 402.67513795887936 -677.9221575263724 102.3668779281135
  endloop
endfacet
facet normal -0.04463175907440095 -0.09359128030520862 0.994609812103599
  outer loop
    vertex 410.8755522033363 -677.6974975024026 102.75600050405833
    vertex 410.8721619960044 -677.5614213857851 102.76865293006796
    vertex 402.67513795887936 -677.9221575263724 102.3668779281135
  endloop
endfacet
facet normal -0.035732071566130445 -0.024235193344372723 0.9990675024567428
  outer loop
    vertex 383.3514729922823 -673.9723335754709 101.87142727733398
    vertex 410.8721619960044 -677.5614213857851 102.76865293006796
    vertex 383.51719862173013 -667.3848321525485 102.03715290676874
  endloop
endfacet
facet normal -0.035732071566130445 -0.024235193344372723 0.9990675024567428
  outer loop
    vertex 410.85359731118797 -674.6778836674825 102.83793727702381
    vertex 383.51719862173013 -667.3848321525485 102.03715290676874
    vertex 410.8721619960044 -677.5614213857851 102.76865293006796
  endloop
endfacet
facet normal -0.9863939238321436 -0.16439898730535787 4.060662877626827e-13
  outer loop
    vertex 386.98004571618907 -724.4999999999924 102.49819368318494
    vertex 384.56337904952187 -709.9999999999975 100.50000000131105
    vertex 386.98004571618867 -724.4999999999974 100.0000000013394
  endloop
endfacet
facet normal -0.9863939238321436 -0.16439898730535787 4.060662877626827e-13
  outer loop
    vertex 381.9800457161887 -694.4999999999972 100.00000000128043
    vertex 386.98004571618867 -724.4999999999974 100.0000000013394
    vertex 384.56337904952187 -709.9999999999975 100.50000000131105
  endloop
endfacet
facet normal -0.9863939238321436 -0.16439898730535787 4.060662877626827e-13
  outer loop
    vertex 386.37228921199187 -720.853460974812 102.12078908537296
    vertex 384.56337904952187 -709.9999999999975 100.50000000131105
    vertex 386.98004571618907 -724.4999999999924 102.49819368318494
  endloop
endfacet
facet normal -0.9863939238321436 -0.16439898730535787 4.060662877626827e-13
  outer loop
    vertex 386.4207049128836 -721.1439551801616 102.17600379595955
    vertex 386.37228921199187 -720.853460974812 102.12078908537296
    vertex 386.98004571618907 -724.4999999999924 102.49819368318494
  endloop
endfacet
facet normal -0.9863939238321436 -0.16439898730535787 4.060662877626827e-13
  outer loop
    vertex 385.3577163597263 -714.7660238612194 101.93683454300412
    vertex 384.56337904952187 -709.9999999999975 100.50000000131105
    vertex 386.37228921199187 -720.853460974812 102.12078908537296
  endloop
endfacet
facet normal -0.9863939238321436 -0.16439898730535787 4.060662877626827e-13
  outer loop
    vertex 385.3200761878962 -714.5401828302394 101.91389419188478
    vertex 384.56337904952187 -709.9999999999975 100.50000000131105
    vertex 385.3577163597263 -714.7660238612194 101.93683454300412
  endloop
endfacet
facet normal -0.9863939238321436 -0.16439898730535787 4.060662877626827e-13
  outer loop
    vertex 384.7115332505566 -710.888925206202 102.03966362259477
    vertex 384.56337904952187 -709.9999999999975 100.50000000131105
    vertex 385.3200761878962 -714.5401828302394 101.91389419188478
  endloop
endfacet
facet normal -0.9863939238321436 -0.16439898730535787 4.060662877626827e-13
  outer loop
    vertex 384.39671238285524 -708.9999999999968 100.5000000013089
    vertex 381.9800457161887 -694.4999999999972 100.00000000128043
    vertex 384.56337904952187 -709.9999999999975 100.50000000131105
  endloop
endfacet
facet normal -0.9863939238321436 -0.16439898730535787 4.060662877626827e-13
  outer loop
    vertex 384.1986684705959 -707.8117365264366 101.82960880865595
    vertex 381.9800457161887 -694.4999999999972 100.00000000128043
    vertex 384.39671238285524 -708.9999999999968 100.5000000013089
  endloop
endfacet
facet normal -0.9863939238321436 -0.16439898730535787 4.060662877626827e-13
  outer loop
    vertex 384.26219999624414 -708.192925680325 101.89789372845706
    vertex 384.1986684705959 -707.8117365264366 101.82960880865595
    vertex 384.39671238285524 -708.9999999999968 100.5000000013089
  endloop
endfacet
facet normal -0.9863939238321436 -0.16439898730535787 4.060662877626827e-13
  outer loop
    vertex 384.2235210239594 -707.9608518466185 101.86103260243277
    vertex 384.1986684705959 -707.8117365264366 101.82960880865595
    vertex 384.26219999624414 -708.192925680325 101.89789372845706
  endloop
endfacet
facet normal -0.9863939238321436 -0.16439898730535787 4.060662877626827e-13
  outer loop
    vertex 383.11664631504874 -701.3196035931553 101.21873554023496
    vertex 381.9800457161887 -694.4999999999972 100.00000000128043
    vertex 384.1986684705959 -707.8117365264366 101.82960880865595
  endloop
endfacet
facet normal -0.9863939238321436 -0.16439898730535787 4.060662877626827e-13
  outer loop
    vertex 383.10374387672204 -701.2421889631953 101.20911673471585
    vertex 381.9800457161887 -694.4999999999972 100.00000000128043
    vertex 383.11664631504874 -701.3196035931553 101.21873554023496
  endloop
endfacet
facet normal -0.9863939238321436 -0.16439898730535787 4.060662877626827e-13
  outer loop
    vertex 382.06337904952204 -694.9999999999975 100.50000000128124
    vertex 381.9800457161887 -694.4999999999972 100.00000000128043
    vertex 383.10374387672204 -701.2421889631953 101.20911673471585
  endloop
endfacet
facet normal -0.9863939238321436 -0.16439898730535787 4.060662877626827e-13
  outer loop
    vertex 382.1138883156935 -695.3030555970231 101.02490769285262
    vertex 382.06337904952204 -694.9999999999975 100.50000000128124
    vertex 383.10374387672204 -701.2421889631953 101.20911673471585
  endloop
endfacet
facet normal -0.9863939238321436 -0.16439898730535787 4.060662877626827e-13
  outer loop
    vertex 381.9800457161887 -694.4999999999974 100.50000000128021
    vertex 381.9800457161887 -694.4999999999972 100.00000000128043
    vertex 382.06337904952204 -694.9999999999975 100.50000000128124
  endloop
endfacet
facet normal -0.11301820666177026 0.4313979469694386 0.8950545772820286
  outer loop
    vertex 413.7197132408328 -717.4715528832862 105.12650218779028
    vertex 413.9756322521345 -719.3861321917085 106.08160494059395
    vertex 429.62726629979875 -712.1601038780962 104.5751334895048
  endloop
endfacet
facet normal -0.11301820666177026 0.4313979469694386 0.8950545772820286
  outer loop
    vertex 428.79628785703864 -715.3640249123937 106.0144303723662
    vertex 429.62726629979875 -712.1601038780962 104.5751334895048
    vertex 413.9756322521345 -719.3861321917085 106.08160494059395
  endloop
endfacet
facet normal -0.006895248787494148 -0.09253917746662851 0.9956851692065914
  outer loop
    vertex 382.6957942422699 -687.6811770995332 101.21574852734835
    vertex 431.367363483949 -687.5908899387263 101.56119675640059
    vertex 383.314540651057 -681.0698128207486 101.83449493612201
  endloop
endfacet
facet normal -0.006895248787494148 -0.09253917746662851 0.9956851692065914
  outer loop
    vertex 431.3628836632495 -687.5070693690691 101.56895603346084
    vertex 383.314540651057 -681.0698128207486 101.83449493612201
    vertex 431.367363483949 -687.5908899387263 101.56119675640059
  endloop
endfacet
facet normal -0.021744301729973707 -0.20268586028026514 0.9790023633192745
  outer loop
    vertex 383.314540651057 -681.0698128207486 101.83449493612201
    vertex 431.3628836632495 -687.5070693690691 101.56895603346084
    vertex 383.33347602052356 -680.9803836171225 101.85343030558877
  endloop
endfacet
facet normal -0.021744301729973707 -0.20268586028026514 0.9790023633192745
  outer loop
    vertex 430.9637573171511 -684.1251362766827 102.2602631435355
    vertex 383.33347602052356 -680.9803836171225 101.85343030558877
    vertex 431.3628836632495 -687.5070693690691 101.56895603346084
  endloop
endfacet
facet normal -0.07520693913193831 -0.35823619256495864 0.9305969840070226
  outer loop
    vertex 413.32684631716177 -675.8741159028039 103.66030286795518
    vertex 430.3734436328007 -680.433686471782 103.28271643722661
    vertex 413.53639048235107 -673.8866140631357 104.44233233886719
  endloop
endfacet
facet normal -0.07520693913193831 -0.35823619256495864 0.9305969840070226
  outer loop
    vertex 429.67804202527157 -677.1588190731821 104.4871873531255
    vertex 413.53639048235107 -673.8866140631357 104.44233233886719
    vertex 430.3734436328007 -680.433686471782 103.28271643722661
  endloop
endfacet
facet normal -2.5905416028493597e-17 -0.040818433777157916 0.9991665804379068
  outer loop
    vertex 431.61020971462375 -691.0589667600569 101.14057474645251
    vertex 393.6299156893299 -693.6922736781602 101.03299762552385
    vertex 431.6723193943534 -693.6922736781602 101.03299762552385
  endloop
endfacet
facet normal -0.0006896309723663529 0.03088640475984913 0.9995226632798941
  outer loop
    vertex 382.1138883156935 -695.3030555970231 101.02490769285262
    vertex 383.10374387672204 -701.2421889631953 101.20911673471585
    vertex 393.62991568933023 -695.3077263218304 101.03299762552693
  endloop
endfacet
facet normal -0.0006896309723663529 0.03088640475984913 0.9995226632798941
  outer loop
    vertex 431.60930933740957 -697.9915206830311 101.14213424554706
    vertex 393.62991568933023 -695.3077263218304 101.03299762552693
    vertex 383.10374387672204 -701.2421889631953 101.20911673471585
  endloop
endfacet
facet normal -0.0006896309723663529 0.03088640475984913 0.9995226632798941
  outer loop
    vertex 431.61020971462375 -697.9410332399333 101.14057474646592
    vertex 393.62991568933023 -695.3077263218304 101.03299762552693
    vertex 431.60930933740957 -697.9915206830311 101.14213424554706
  endloop
endfacet
facet normal -0.04463175907440111 -0.28165224392039995 0.958477970313626
  outer loop
    vertex 413.01726680354733 -680.3842210584921 102.50493639417274
    vertex 430.95135426667684 -683.9856590221904 102.28174585712551
    vertex 413.1802774337725 -678.3397566195974 103.11330034834249
  endloop
endfacet
facet normal -0.04463175907440111 -0.28165224392039995 0.958477970313626
  outer loop
    vertex 430.4004815497912 -680.6513765418149 103.23588539126855
    vertex 413.1802774337725 -678.3397566195974 103.11330034834249
    vertex 430.95135426667684 -683.9856590221904 102.28174585712551
  endloop
endfacet
facet normal 0.0 1.9698374875698473e-12 1.0
  outer loop
    vertex 384.39671238285524 -708.9999999999968 100.5000000013089
    vertex 384.56337904952187 -709.9999999999975 100.50000000131105
    vertex 411.9800457161888 -708.9999999999968 100.5000000013089
  endloop
endfacet
facet normal 0.0 1.9698374875698473e-12 1.0
  outer loop
    vertex 411.48004571618856 -709.9999999999975 100.50000000131105
    vertex 411.9800457161888 -708.9999999999968 100.5000000013089
    vertex 384.56337904952187 -709.9999999999975 100.50000000131105
  endloop
endfacet
facet normal 0.0 1.9698374875698473e-12 1.0
  outer loop
    vertex 412.48004571618867 -708.9999999999968 100.5000000013089
    vertex 411.9800457161888 -708.9999999999968 100.5000000013089
    vertex 411.48004571618856 -709.9999999999975 100.50000000131105
  endloop
endfacet
facet normal 0.0 1.9698374875698473e-12 1.0
  outer loop
    vertex 381.9800457161887 -678.9999999999968 100.50000000124973
    vertex 381.9800457161887 -679.9999999999975 100.50000000125188
    vertex 411.48004571618856 -678.9999999999968 100.50000000124973
  endloop
endfacet
facet normal 0.0 1.9698374875698473e-12 1.0
  outer loop
    vertex 411.9800457161888 -679.9999999999975 100.50000000125188
    vertex 411.48004571618856 -678.9999999999968 100.50000000124973
    vertex 381.9800457161887 -679.9999999999975 100.50000000125188
  endloop
endfacet
facet normal 0.0 1.9698374875698473e-12 1.0
  outer loop
    vertex 412.48004571618867 -679.9999999999975 100.50000000125188
    vertex 411.48004571618856 -678.9999999999968 100.50000000124973
    vertex 411.9800457161888 -679.9999999999975 100.50000000125188
  endloop
endfacet
facet normal 1.0 -9.021073658990965e-15 -1.8047785488300892e-13
  outer loop
    vertex 431.9800457161882 -714.4999999999975 100.00000000131992
    vertex 431.98004571618856 -674.4999999999972 100.00000000124092
    vertex 431.9800457161882 -714.4999999999965 100.5000000013199
  endloop
endfacet
facet normal 1.0 -9.021073658990965e-15 -1.8047785488300892e-13
  outer loop
    vertex 431.98004571618856 -694.9999999999975 100.50000000128124
    vertex 431.9800457161882 -714.4999999999965 100.5000000013199
    vertex 431.98004571618856 -674.4999999999972 100.00000000124092
  endloop
endfacet
facet normal 1.0 -9.021073658990965e-15 -1.8047785488300892e-13
  outer loop
    vertex 431.98004571618856 -693.9999999999968 100.50000000127936
    vertex 431.98004571618856 -694.9999999999975 100.50000000128124
    vertex 431.98004571618856 -674.4999999999972 100.00000000124092
  endloop
endfacet
facet normal 1.0 -9.021073658990965e-15 -1.8047785488300892e-13
  outer loop
    vertex 431.98004571618856 -674.4999999999962 100.50000000124099
    vertex 431.98004571618856 -693.9999999999968 100.50000000127936
    vertex 431.98004571618856 -674.4999999999972 100.00000000124092
  endloop
endfacet
facet normal 0.7071067811864994 -0.7071067811865956 1.4779583276015767e-12
  outer loop
    vertex 411.48004571618856 -709.9999999999975 100.50000000131105
    vertex 411.48004571618856 -709.9999999999978 100.00000000131108
    vertex 412.48004571618867 -708.9999999999968 100.5000000013089
  endloop
endfacet
facet normal 0.7071067811864994 -0.7071067811865956 1.4779583276015767e-12
  outer loop
    vertex 412.48004571618867 -708.9999999999972 100.00000000130892
    vertex 412.48004571618867 -708.9999999999968 100.5000000013089
    vertex 411.48004571618856 -709.9999999999978 100.00000000131108
  endloop
endfacet
facet normal -0.0006896309723662538 -0.03088640475591047 0.999522663280016
  outer loop
    vertex 382.5052283215121 -693.6967856814383 101.02518260660214
    vertex 393.6299156893299 -693.6922736781602 101.03299762552385
    vertex 382.68973416546964 -687.7300655972093 101.20968845054769
  endloop
endfacet
facet normal -0.0006896309723662538 -0.03088640475591047 0.999522663280016
  outer loop
    vertex 431.60930933740957 -691.0084793169589 101.14213424553313
    vertex 382.68973416546964 -687.7300655972093 101.20968845054769
    vertex 393.6299156893299 -693.6922736781602 101.03299762552385
  endloop
endfacet
facet normal -0.0006896309723662538 -0.03088640475591047 0.999522663280016
  outer loop
    vertex 431.61020971462375 -691.0589667600569 101.14057474645251
    vertex 431.60930933740957 -691.0084793169589 101.14213424553313
    vertex 393.6299156893299 -693.6922736781602 101.03299762552385
  endloop
endfacet
facet normal -0.03573207156613049 -0.2144209910400695 0.9760875256159088
  outer loop
    vertex 413.1802774337725 -678.3397566195974 103.11330034834249
    vertex 430.4004815497912 -680.6513765418149 103.23588539126855
    vertex 413.32684631716177 -675.8741159028039 103.66030286795518
  endloop
endfacet
facet normal -0.03573207156613049 -0.2144209910400695 0.9760875256159088
  outer loop
    vertex 430.3734436328007 -680.433686471782 103.28271643722661
    vertex 413.32684631716177 -675.8741159028039 103.66030286795518
    vertex 430.4004815497912 -680.6513765418149 103.23588539126855
  endloop
endfacet
facet normal -0.0357320715661303 0.21442099104391846 0.9760875256150633
  outer loop
    vertex 413.1802774337725 -710.6602433803856 103.1133003484062
    vertex 413.32684631716177 -713.125884097176 103.6603028680286
    vertex 430.4004815497916 -708.3486234581669 103.23588539132308
  endloop
endfacet
facet normal -0.0357320715661303 0.21442099104391846 0.9760875256150633
  outer loop
    vertex 430.373443632801 -708.5663135281997 103.2827164372819
    vertex 430.4004815497916 -708.3486234581669 103.23588539132308
    vertex 413.32684631716177 -713.125884097176 103.6603028680286
  endloop
endfacet
facet normal -0.006817546493040222 -0.12218042418645285 0.9924844910654442
  outer loop
    vertex 382.68973416546964 -687.7300655972093 101.20968845054769
    vertex 431.60930933740957 -691.0084793169589 101.14213424553313
    vertex 382.6957942422699 -687.6811770995332 101.21574852734835
  endloop
endfacet
facet normal -0.006817546493040222 -0.12218042418645285 0.9924844910654442
  outer loop
    vertex 431.367363483949 -687.5908899387263 101.56119675640059
    vertex 382.6957942422699 -687.6811770995332 101.21574852734835
    vertex 431.60930933740957 -691.0084793169589 101.14213424553313
  endloop
endfacet
facet normal -0.04463175907439904 0.2816522439241696 0.9584779703125184
  outer loop
    vertex 413.01726680354733 -708.6157789414942 102.50493639422848
    vertex 413.1802774337725 -710.6602433803856 103.1133003484062
    vertex 430.9513542666772 -705.0143409777957 102.2817458571668
  endloop
endfacet
facet normal -0.04463175907439904 0.2816522439241696 0.9584779703125184
  outer loop
    vertex 430.4004815497916 -708.3486234581669 103.23588539132308
    vertex 430.9513542666772 -705.0143409777957 102.2817458571668
    vertex 413.1802774337725 -710.6602433803856 103.1133003484062
  endloop
endfacet
facet normal -2.7379707997596777e-17 0.040818433781096515 0.9991665804377459
  outer loop
    vertex 393.62991568933023 -695.3077263218304 101.03299762552693
    vertex 431.61020971462375 -697.9410332399333 101.14057474646592
    vertex 431.6723193943534 -695.3077263218304 101.03299762552693
  endloop
endfacet
facet normal -0.00689524878749418 0.09253917747055226 0.9956851692062266
  outer loop
    vertex 383.11664631504874 -701.3196035931553 101.21873554023496
    vertex 384.1986684705959 -707.8117365264366 101.82960880865595
    vertex 431.367363483949 -701.4091100612626 101.56119675642772
  endloop
endfacet
facet normal -0.00689524878749418 0.09253917747055226 0.9956851692062266
  outer loop
    vertex 431.3628836632495 -701.4929306309198 101.5689560334884
    vertex 431.367363483949 -701.4091100612626 101.56119675642772
    vertex 384.1986684705959 -707.8117365264366 101.82960880865595
  endloop
endfacet
facet normal -1.0 -5.5827952384757084e-14 -4.708186017452022e-15
  outer loop
    vertex 412.48004571618867 -679.9999999999978 100.0000000012519
    vertex 412.48004571618867 -679.9999999999975 100.50000000125188
    vertex 412.48004571618793 -666.6999999999972 100.00000000122554
  endloop
endfacet
facet normal -1.0 -5.5827952384757084e-14 -4.708186017452022e-15
  outer loop
    vertex 412.48004571618793 -669.2079876870802 100.50000000123049
    vertex 412.48004571618793 -666.6999999999972 100.00000000122554
    vertex 412.48004571618867 -679.9999999999975 100.50000000125188
  endloop
endfacet
facet normal -1.0 -5.5827952384757084e-14 -4.708186017452022e-15
  outer loop
    vertex 412.48004571618793 -669.2079876870691 106.08838368108958
    vertex 412.48004571618793 -666.6999999999972 100.00000000122554
    vertex 412.48004571618793 -669.2079876870802 100.50000000123049
  endloop
endfacet
facet normal -1.0 -5.5827952384757084e-14 -4.708186017452022e-15
  outer loop
    vertex 412.48004571618793 -666.6999999999842 106.97500000122521
    vertex 412.48004571618793 -666.6999999999972 100.00000000122554
    vertex 412.48004571618793 -669.2079876870691 106.08838368108958
  endloop
endfacet
facet normal -0.05821006762788794 -0.27398869311667406 0.9599696787247887
  outer loop
    vertex 413.04109732637994 -671.3018608019756 105.15002356600266
    vertex 413.5807575144254 -673.3159000425852 104.60791235675138
    vertex 429.62726629979767 -676.8398961218803 104.57513348943533
  endloop
endfacet
facet normal -0.05821006762788794 -0.27398869311667406 0.9599696787247887
  outer loop
    vertex 413.53639048235107 -673.8866140631357 104.44233233886719
    vertex 429.67804202527157 -677.1588190731821 104.4871873531255
    vertex 413.5807575144254 -673.3159000425852 104.60791235675138
  endloop
endfacet
facet normal -0.05821006762788794 -0.27398869311667406 0.9599696787247887
  outer loop
    vertex 429.62726629979767 -676.8398961218803 104.57513348943533
    vertex 413.5807575144254 -673.3159000425852 104.60791235675138
    vertex 429.67804202527157 -677.1588190731821 104.4871873531255
  endloop
endfacet
facet normal -0.02174430172997322 0.2026858602841194 0.9790023633184766
  outer loop
    vertex 384.1986684705959 -707.8117365264366 101.82960880865595
    vertex 384.2235210239594 -707.9608518466185 101.86103260243277
    vertex 431.3628836632495 -701.4929306309198 101.5689560334884
  endloop
endfacet
facet normal -0.02174430172997322 0.2026858602841194 0.9790023633184766
  outer loop
    vertex 430.9637573171514 -704.8748637233034 102.26026314357637
    vertex 431.3628836632495 -701.4929306309198 101.5689560334884
    vertex 384.2235210239594 -707.9608518466185 101.86103260243277
  endloop
endfacet
facet normal -0.11301820666177001 -0.43139794696586825 0.8950545772837495
  outer loop
    vertex 412.48004571618793 -669.2079876870691 106.08838368108958
    vertex 413.04109732637994 -671.3018608019756 105.15002356600266
    vertex 429.95931165806894 -673.9516025888729 106.0091589710898
  endloop
endfacet
facet normal -0.11301820666177001 -0.43139794696586825 0.8950545772837495
  outer loop
    vertex 429.62726629979767 -676.8398961218803 104.57513348943533
    vertex 429.95931165806894 -673.9516025888729 106.0091589710898
    vertex 413.04109732637994 -671.3018608019756 105.15002356600266
  endloop
endfacet
facet normal -0.11301820666177001 -0.43139794696586825 0.8950545772837495
  outer loop
    vertex 430.0075657886213 -673.9646980480028 106.00894025941663
    vertex 429.95931165806894 -673.9516025888729 106.0091589710898
    vertex 429.62726629979767 -676.8398961218803 104.57513348943533
  endloop
endfacet
facet normal -0.018593955437237394 0.15381661895465878 0.9879244467845483
  outer loop
    vertex 384.2235210239594 -707.9608518466185 101.86103260243277
    vertex 384.26219999624414 -708.192925680325 101.89789372845706
    vertex 430.9637573171514 -704.8748637233034 102.26026314357637
  endloop
endfacet
facet normal -0.018593955437237394 0.15381661895465878 0.9879244467845483
  outer loop
    vertex 412.98752772549386 -707.9065282413254 102.39394864396068
    vertex 430.9637573171514 -704.8748637233034 102.26026314357637
    vertex 384.26219999624414 -708.192925680325 101.89789372845706
  endloop
endfacet
facet normal -0.018593955437237394 0.15381661895465878 0.9879244467845483
  outer loop
    vertex 413.01726680354733 -708.6157789414942 102.50493639422848
    vertex 430.9637573171514 -704.8748637233034 102.26026314357637
    vertex 412.98752772549386 -707.9065282413254 102.39394864396068
  endloop
endfacet
facet normal -0.018593955437237394 0.15381661895465878 0.9879244467845483
  outer loop
    vertex 430.9513542666772 -705.0143409777957 102.2817458571668
    vertex 430.9637573171514 -704.8748637233034 102.26026314357637
    vertex 413.01726680354733 -708.6157789414942 102.50493639422848
  endloop
endfacet
facet normal -0.08586188915220073 -0.33207197686591156 0.9393380318988371
  outer loop
    vertex 412.48004571618793 -666.6999999999842 106.97500000122521
    vertex 412.48004571618793 -669.2079876870691 106.08838368108958
    vertex 430.10144440792914 -673.7485594766817 106.0939300666524
  endloop
endfacet
facet normal -0.08586188915220073 -0.33207197686591156 0.9393380318988371
  outer loop
    vertex 429.95931165806894 -673.9516025888729 106.0091589710898
    vertex 430.10144440792914 -673.7485594766817 106.0939300666524
    vertex 412.48004571618793 -669.2079876870691 106.08838368108958
  endloop
endfacet
facet normal -0.08586188915220073 -0.33207197686591156 0.9393380318988371
  outer loop
    vertex 430.0075657886213 -673.9646980480028 106.00894025941663
    vertex 430.10144440792914 -673.7485594766817 106.0939300666524
    vertex 429.95931165806894 -673.9516025888729 106.0091589710898
  endloop
endfacet
facet normal -0.0068175464930399915 0.12218042419035956 0.9924844910649633
  outer loop
    vertex 383.10374387672204 -701.2421889631953 101.20911673471585
    vertex 383.11664631504874 -701.3196035931553 101.21873554023496
    vertex 431.60930933740957 -697.9915206830311 101.14213424554706
  endloop
endfacet
facet normal -0.0068175464930399915 0.12218042419035956 0.9924844910649633
  outer loop
    vertex 431.367363483949 -701.4091100612626 101.56119675642772
    vertex 431.60930933740957 -697.9915206830311 101.14213424554706
    vertex 383.11664631504874 -701.3196035931553 101.21873554023496
  endloop
endfacet
facet normal -0.07520693913193717 0.17408810910159692 0.9818539843458576
  outer loop
    vertex 386.37228921199187 -720.853460974812 102.12078908537296
    vertex 386.4207049128836 -721.1439551801616 102.17600379595955
    vertex 410.8535973111883 -714.3221163325013 102.83793727710196
  endloop
endfacet
facet normal -0.07520693913193717 0.17408810910159692 0.9818539843458576
  outer loop
    vertex 410.76090010938213 -716.3133178869912 103.1838879439657
    vertex 410.8535973111883 -714.3221163325013 102.83793727710196
    vertex 386.4207049128836 -721.1439551801616 102.17600379595955
  endloop
endfacet
facet normal -0.0858618891521929 0.14673673317102534 0.9854420668560441
  outer loop
    vertex 398.1467744873878 -724.4999999999905 103.34345655650097
    vertex 406.98004571618884 -724.4999999999891 104.11310236380668
    vertex 410.56069828501376 -721.1822053612889 103.9310513242863
  endloop
endfacet
facet normal -0.0858618891521929 0.14673673317102534 0.9854420668560441
  outer loop
    vertex 410.4860193439006 -723.0976105489044 104.20975692677989
    vertex 410.56069828501376 -721.1822053612889 103.9310513242863
    vertex 406.98004571618884 -724.4999999999891 104.11310236380668
  endloop
endfacet
facet normal -0.058210067627889016 0.08578389913511565 0.9946118391995608
  outer loop
    vertex 386.4207049128836 -721.1439551801616 102.17600379595955
    vertex 386.98004571618907 -724.4999999999924 102.49819368318494
    vertex 410.76090010938213 -716.3133178869912 103.1838879439657
  endloop
endfacet
facet normal -0.058210067627889016 0.08578389913511565 0.9946118391995608
  outer loop
    vertex 394.90206390439727 -724.4999999999919 102.96183306119191
    vertex 410.76090010938213 -716.3133178869912 103.1838879439657
    vertex 386.98004571618907 -724.4999999999924 102.49819368318494
  endloop
endfacet
facet normal -0.058210067627889016 0.08578389913511565 0.9946118391995608
  outer loop
    vertex 410.6947783543519 -719.2193301867378 103.43065769323042
    vertex 410.76090010938213 -716.3133178869912 103.1838879439657
    vertex 394.90206390439727 -724.4999999999919 102.96183306119191
  endloop
endfacet
facet normal -0.11301820666176017 -0.25268748692649123 0.9609245125990563
  outer loop
    vertex 394.9020639043976 -664.4999999999917 102.96183306107395
    vertex 410.6947783543515 -669.7806698132435 103.43065769313296
    vertex 398.14677448738814 -664.4999999999905 103.3434565563829
  endloop
endfacet
facet normal -0.11301820666176017 -0.25268748692649123 0.9609245125990563
  outer loop
    vertex 410.5606982850134 -667.81779463869 103.93105132418101
    vertex 398.14677448738814 -664.4999999999905 103.3434565563829
    vertex 410.6947783543515 -669.7806698132435 103.43065769313296
  endloop
endfacet
facet normal -4.7007257352166147e-17 -0.8660254037834516 0.5000000000017097
  outer loop
    vertex 412.98752772549386 -707.9065282413254 102.39394864396068
    vertex 384.26219999624414 -708.192925680325 101.89789372845706
    vertex 412.48004571618867 -708.9999999999968 100.5000000013089
  endloop
endfacet
facet normal -4.7007257352166147e-17 -0.8660254037834516 0.5000000000017097
  outer loop
    vertex 384.39671238285524 -708.9999999999968 100.5000000013089
    vertex 412.48004571618867 -708.9999999999968 100.5000000013089
    vertex 384.26219999624414 -708.192925680325 101.89789372845706
  endloop
endfacet
facet normal -4.7007257352166147e-17 -0.8660254037834516 0.5000000000017097
  outer loop
    vertex 411.9800457161888 -708.9999999999968 100.5000000013089
    vertex 412.48004571618867 -708.9999999999968 100.5000000013089
    vertex 384.39671238285524 -708.9999999999968 100.5000000013089
  endloop
endfacet
facet normal 3.3855545567001885e-15 -1.0 1.9873112346827305e-12
  outer loop
    vertex 406.98004571618884 -724.4999999999891 104.11310236380668
    vertex 398.1467744873878 -724.4999999999905 103.34345655650097
    vertex 406.98004571618867 -724.4999999999974 100.0000000013394
  endloop
endfacet
facet normal 3.3855545567001885e-15 -1.0 1.9873112346827305e-12
  outer loop
    vertex 394.90206390439727 -724.4999999999919 102.96183306119191
    vertex 406.98004571618867 -724.4999999999974 100.0000000013394
    vertex 398.1467744873878 -724.4999999999905 103.34345655650097
  endloop
endfacet
facet normal 3.3855545567001885e-15 -1.0 1.9873112346827305e-12
  outer loop
    vertex 386.98004571618907 -724.4999999999924 102.49819368318494
    vertex 406.98004571618867 -724.4999999999974 100.0000000013394
    vertex 394.90206390439727 -724.4999999999919 102.96183306119191
  endloop
endfacet
facet normal 3.3855545567001885e-15 -1.0 1.9873112346827305e-12
  outer loop
    vertex 386.98004571618867 -724.4999999999974 100.0000000013394
    vertex 406.98004571618867 -724.4999999999974 100.0000000013394
    vertex 386.98004571618907 -724.4999999999924 102.49819368318494
  endloop
endfacet
facet normal -1.2180643565847147e-16 0.8660254037854253 0.4999999999982912
  outer loop
    vertex 393.62991568933023 -695.3077263218304 101.03299762552693
    vertex 431.6723193943534 -695.3077263218304 101.03299762552693
    vertex 382.1138883156935 -695.3030555970231 101.02490769285262
  endloop
endfacet
facet normal -1.2180643565847147e-16 0.8660254037854253 0.4999999999982912
  outer loop
    vertex 431.98004571618856 -694.9999999999975 100.50000000128124
    vertex 382.1138883156935 -695.3030555970231 101.02490769285262
    vertex 431.6723193943534 -695.3077263218304 101.03299762552693
  endloop
endfacet
facet normal -1.2180643565847147e-16 0.8660254037854253 0.4999999999982912
  outer loop
    vertex 382.06337904952204 -694.9999999999975 100.50000000128124
    vertex 382.1138883156935 -695.3030555970231 101.02490769285262
    vertex 431.98004571618856 -694.9999999999975 100.50000000128124
  endloop
endfacet
facet normal -1.562045750166352e-14 1.0 -2.001275263752508e-12
  outer loop
    vertex 406.98004571618844 -664.4999999999891 104.11310236368861
    vertex 406.98004571618884 -664.4999999999973 100.00000000122142
    vertex 398.14677448738814 -664.4999999999905 103.3434565563829
  endloop
endfacet
facet normal -1.562045750166352e-14 1.0 -2.001275263752508e-12
  outer loop
    vertex 394.9020639043976 -664.4999999999917 102.96183306107395
    vertex 398.14677448738814 -664.4999999999905 103.3434565563829
    vertex 406.98004571618884 -664.4999999999973 100.00000000122142
  endloop
endfacet
facet normal -1.562045750166352e-14 1.0 -2.001275263752508e-12
  outer loop
    vertex 383.79163643113446 -664.4999999999931 102.31159071616712
    vertex 394.9020639043976 -664.4999999999917 102.96183306107395
    vertex 406.98004571618884 -664.4999999999973 100.00000000122142
  endloop
endfacet
facet normal -1.562045750166352e-14 1.0 -2.001275263752508e-12
  outer loop
    vertex 381.9800457161887 -664.4999999999974 100.50000000122141
    vertex 383.79163643113446 -664.4999999999931 102.31159071616712
    vertex 406.98004571618884 -664.4999999999973 100.00000000122142
  endloop
endfacet
facet normal -1.562045750166352e-14 1.0 -2.001275263752508e-12
  outer loop
    vertex 381.9800457161887 -664.4999999999972 100.00000000122142
    vertex 381.9800457161887 -664.4999999999974 100.50000000122141
    vertex 406.98004571618884 -664.4999999999973 100.00000000122142
  endloop
endfacet
facet normal -0.018593955437237616 -0.15381661895076632 0.9879244467851542
  outer loop
    vertex 383.33347602052356 -680.9803836171225 101.85343030558877
    vertex 430.9637573171511 -684.1251362766827 102.2602631435355
    vertex 383.36240089947466 -680.79810313718 101.88235518453948
  endloop
endfacet
facet normal -0.018593955437237616 -0.15381661895076632 0.9879244467851542
  outer loop
    vertex 412.98752772549386 -681.0934717586603 102.39394864390768
    vertex 383.36240089947466 -680.79810313718 101.88235518453948
    vertex 430.9637573171511 -684.1251362766827 102.2602631435355
  endloop
endfacet
facet normal -0.018593955437237616 -0.15381661895076632 0.9879244467851542
  outer loop
    vertex 413.01726680354733 -680.3842210584921 102.50493639417274
    vertex 412.98752772549386 -681.0934717586603 102.39394864390768
    vertex 430.9637573171511 -684.1251362766827 102.2602631435355
  endloop
endfacet
facet normal -0.018593955437237616 -0.15381661895076632 0.9879244467851542
  outer loop
    vertex 430.95135426667684 -683.9856590221904 102.28174585712551
    vertex 413.01726680354733 -680.3842210584921 102.50493639417274
    vertex 430.9637573171511 -684.1251362766827 102.2602631435355
  endloop
endfacet
facet normal -4.069497130131989e-17 0.866025403785426 0.49999999999828976
  outer loop
    vertex 410.8755522033363 -711.3025024975818 102.75600050412443
    vertex 411.48004571618856 -709.9999999999975 100.50000000131105
    vertex 402.67513795887936 -711.0778424736133 102.36687792817904
  endloop
endfacet
facet normal -4.069497130131989e-17 0.866025403785426 0.49999999999828976
  outer loop
    vertex 384.7115332505566 -710.888925206202 102.03966362259477
    vertex 402.67513795887936 -711.0778424736133 102.36687792817904
    vertex 411.48004571618856 -709.9999999999975 100.50000000131105
  endloop
endfacet
facet normal -4.069497130131989e-17 0.866025403785426 0.49999999999828976
  outer loop
    vertex 384.56337904952187 -709.9999999999975 100.50000000131105
    vertex 384.7115332505566 -710.888925206202 102.03966362259477
    vertex 411.48004571618856 -709.9999999999975 100.50000000131105
  endloop
endfacet
facet normal -0.9659258262890673 4.965218373948784e-13 0.25881904510252485
  outer loop
    vertex 412.48004571618884 -722.2999999999964 100.50000000133527
    vertex 414.1920798292795 -721.6151863547473 106.88939829567933
    vertex 412.48004571618867 -708.9999999999968 100.5000000013089
  endloop
endfacet
facet normal -0.9659258262890673 4.965218373948784e-13 0.25881904510252485
  outer loop
    vertex 413.9756322521345 -719.3861321917085 106.08160494059395
    vertex 412.48004571618867 -708.9999999999968 100.5000000013089
    vertex 414.1920798292795 -721.6151863547473 106.88939829567933
  endloop
endfacet
facet normal -0.9659258262890673 4.965218373948784e-13 0.25881904510252485
  outer loop
    vertex 413.7197132408328 -717.4715528832862 105.12650218779028
    vertex 412.48004571618867 -708.9999999999968 100.5000000013089
    vertex 413.9756322521345 -719.3861321917085 106.08160494059395
  endloop
endfacet
facet normal -0.9659258262890673 4.965218373948784e-13 0.25881904510252485
  outer loop
    vertex 413.53639048235107 -715.1133859368415 104.44233233894833
    vertex 412.48004571618867 -708.9999999999968 100.5000000013089
    vertex 413.7197132408328 -717.4715528832862 105.12650218779028
  endloop
endfacet
facet normal -0.9659258262890673 4.965218373948784e-13 0.25881904510252485
  outer loop
    vertex 413.32684631716177 -713.125884097176 103.6603028680286
    vertex 412.48004571618867 -708.9999999999968 100.5000000013089
    vertex 413.53639048235107 -715.1133859368415 104.44233233894833
  endloop
endfacet
facet normal -0.9659258262890673 4.965218373948784e-13 0.25881904510252485
  outer loop
    vertex 413.1802774337725 -710.6602433803856 103.1133003484062
    vertex 412.48004571618867 -708.9999999999968 100.5000000013089
    vertex 413.32684631716177 -713.125884097176 103.6603028680286
  endloop
endfacet
facet normal -0.9659258262890673 4.965218373948784e-13 0.25881904510252485
  outer loop
    vertex 413.01726680354733 -708.6157789414942 102.50493639422848
    vertex 412.48004571618867 -708.9999999999968 100.5000000013089
    vertex 413.1802774337725 -710.6602433803856 103.1133003484062
  endloop
endfacet
facet normal -0.9659258262890673 4.965218373948784e-13 0.25881904510252485
  outer loop
    vertex 412.98752772549386 -707.9065282413254 102.39394864396068
    vertex 412.48004571618867 -708.9999999999968 100.5000000013089
    vertex 413.01726680354733 -708.6157789414942 102.50493639422848
  endloop
endfacet
facet normal -0.7071067811866147 1.4002453755610435e-12 0.7071067811864805
  outer loop
    vertex 381.9800457161887 -678.9999999999968 100.50000000124973
    vertex 383.4975969989934 -678.1238413583567 102.01755128405321
    vertex 381.9800457161887 -664.4999999999974 100.50000000122141
  endloop
endfacet
facet normal -0.7071067811866147 1.4002453755610435e-12 0.7071067811864805
  outer loop
    vertex 383.3423185376254 -674.0652538879505 101.86227282267713
    vertex 381.9800457161887 -664.4999999999974 100.50000000122141
    vertex 383.4975969989934 -678.1238413583567 102.01755128405321
  endloop
endfacet
facet normal -0.7071067811866147 1.4002453755610435e-12 0.7071067811864805
  outer loop
    vertex 383.3514729922823 -673.9723335754709 101.87142727733398
    vertex 381.9800457161887 -664.4999999999974 100.50000000122141
    vertex 383.3423185376254 -674.0652538879505 101.86227282267713
  endloop
endfacet
facet normal -0.7071067811866147 1.4002453755610435e-12 0.7071067811864805
  outer loop
    vertex 383.51719862173013 -667.3848321525485 102.03715290676874
    vertex 381.9800457161887 -664.4999999999974 100.50000000122141
    vertex 383.3514729922823 -673.9723335754709 101.87142727733398
  endloop
endfacet
facet normal -0.7071067811866147 1.4002453755610435e-12 0.7071067811864805
  outer loop
    vertex 383.53662489193874 -667.2836605643504 102.05657917697708
    vertex 381.9800457161887 -664.4999999999974 100.50000000122141
    vertex 383.51719862173013 -667.3848321525485 102.03715290676874
  endloop
endfacet
facet normal -0.7071067811866147 1.4002453755610435e-12 0.7071067811864805
  outer loop
    vertex 383.79163643113446 -664.4999999999931 102.31159071616712
    vertex 381.9800457161887 -664.4999999999974 100.50000000122141
    vertex 383.53662489193874 -667.2836605643504 102.05657917697708
  endloop
endfacet
facet normal -4.799361959969737e-16 -0.8660254037834418 0.5000000000017267
  outer loop
    vertex 431.6723193943534 -693.6922736781602 101.03299762552385
    vertex 393.6299156893299 -693.6922736781602 101.03299762552385
    vertex 431.98004571618856 -693.9999999999968 100.50000000127936
  endloop
endfacet
facet normal -4.799361959969737e-16 -0.8660254037834418 0.5000000000017267
  outer loop
    vertex 382.5052283215121 -693.6967856814383 101.02518260660214
    vertex 431.98004571618856 -693.9999999999968 100.50000000127936
    vertex 393.6299156893299 -693.6922736781602 101.03299762552385
  endloop
endfacet
facet normal -4.799361959969737e-16 -0.8660254037834418 0.5000000000017267
  outer loop
    vertex 381.9800457161887 -693.9999999999968 100.50000000127936
    vertex 431.98004571618856 -693.9999999999968 100.50000000127936
    vertex 382.5052283215121 -693.6967856814383 101.02518260660214
  endloop
endfacet
facet normal 0.8660254037844038 9.936392401031167e-13 0.5000000000000601
  outer loop
    vertex 431.98004571618856 -693.9999999999968 100.50000000127936
    vertex 431.98004571618856 -674.4999999999962 100.50000000124099
    vertex 431.6723193943534 -693.6922736781602 101.03299762552385
  endloop
endfacet
facet normal 0.8660254037844038 9.936392401031167e-13 0.5000000000000601
  outer loop
    vertex 431.61020971462375 -691.0589667600569 101.14057474645251
    vertex 431.6723193943534 -693.6922736781602 101.03299762552385
    vertex 431.98004571618856 -674.4999999999962 100.50000000124099
  endloop
endfacet
facet normal 0.8660254037844038 9.936392401031167e-13 0.5000000000000601
  outer loop
    vertex 431.60930933740957 -691.0084793169589 101.14213424553313
    vertex 431.61020971462375 -691.0589667600569 101.14057474645251
    vertex 431.98004571618856 -674.4999999999962 100.50000000124099
  endloop
endfacet
facet normal 0.8660254037844038 9.936392401031167e-13 0.5000000000000601
  outer loop
    vertex 431.367363483949 -687.5908899387263 101.56119675640059
    vertex 431.60930933740957 -691.0084793169589 101.14213424553313
    vertex 431.98004571618856 -674.4999999999962 100.50000000124099
  endloop
endfacet
facet normal 0.8660254037844038 9.936392401031167e-13 0.5000000000000601
  outer loop
    vertex 431.3628836632495 -687.5070693690691 101.56895603346084
    vertex 431.367363483949 -687.5908899387263 101.56119675640059
    vertex 431.98004571618856 -674.4999999999962 100.50000000124099
  endloop
endfacet
facet normal 0.8660254037844038 9.936392401031167e-13 0.5000000000000601
  outer loop
    vertex 430.9637573171511 -684.1251362766827 102.2602631435355
    vertex 431.3628836632495 -687.5070693690691 101.56895603346084
    vertex 431.98004571618856 -674.4999999999962 100.50000000124099
  endloop
endfacet
facet normal 0.8660254037844038 9.936392401031167e-13 0.5000000000000601
  outer loop
    vertex 430.95135426667684 -683.9856590221904 102.28174585712551
    vertex 430.9637573171511 -684.1251362766827 102.2602631435355
    vertex 431.98004571618856 -674.4999999999962 100.50000000124099
  endloop
endfacet
facet normal 0.8660254037844038 9.936392401031167e-13 0.5000000000000601
  outer loop
    vertex 430.4004815497912 -680.6513765418149 103.23588539126855
    vertex 430.95135426667684 -683.9856590221904 102.28174585712551
    vertex 431.98004571618856 -674.4999999999962 100.50000000124099
  endloop
endfacet
facet normal 0.8660254037844038 9.936392401031167e-13 0.5000000000000601
  outer loop
    vertex 430.3734436328007 -680.433686471782 103.28271643722661
    vertex 430.4004815497912 -680.6513765418149 103.23588539126855
    vertex 431.98004571618856 -674.4999999999962 100.50000000124099
  endloop
endfacet
facet normal 0.8660254037844038 9.936392401031167e-13 0.5000000000000601
  outer loop
    vertex 429.67804202527157 -677.1588190731821 104.4871873531255
    vertex 430.3734436328007 -680.433686471782 103.28271643722661
    vertex 431.98004571618856 -674.4999999999962 100.50000000124099
  endloop
endfacet
facet normal 0.8660254037844038 9.936392401031167e-13 0.5000000000000601
  outer loop
    vertex 429.62726629979767 -676.8398961218803 104.57513348943533
    vertex 429.67804202527157 -677.1588190731821 104.4871873531255
    vertex 431.98004571618856 -674.4999999999962 100.50000000124099
  endloop
endfacet
facet normal -0.07520693913193872 0.35823619256862754 0.9305969840056104
  outer loop
    vertex 413.32684631716177 -713.125884097176 103.6603028680286
    vertex 413.53639048235107 -715.1133859368415 104.44233233894833
    vertex 430.373443632801 -708.5663135281997 103.2827164372819
  endloop
endfacet
facet normal -0.07520693913193872 0.35823619256862754 0.9305969840056104
  outer loop
    vertex 429.67804202527157 -711.8411809267944 104.48718735319395
    vertex 430.373443632801 -708.5663135281997 103.2827164372819
    vertex 413.53639048235107 -715.1133859368415 104.44233233894833
  endloop
endfacet
facet normal -0.7071067811865687 1.3878625771883008e-12 0.7071067811865265
  outer loop
    vertex 381.9800457161887 -693.9999999999968 100.50000000127936
    vertex 382.5052283215121 -693.6967856814383 101.02518260660214
    vertex 381.9800457161887 -679.9999999999975 100.50000000125188
  endloop
endfacet
facet normal -0.7071067811865687 1.3878625771883008e-12 0.7071067811865265
  outer loop
    vertex 382.68973416546964 -687.7300655972093 101.20968845054769
    vertex 381.9800457161887 -679.9999999999975 100.50000000125188
    vertex 382.5052283215121 -693.6967856814383 101.02518260660214
  endloop
endfacet
facet normal -0.7071067811865687 1.3878625771883008e-12 0.7071067811865265
  outer loop
    vertex 382.6957942422699 -687.6811770995332 101.21574852734835
    vertex 381.9800457161887 -679.9999999999975 100.50000000125188
    vertex 382.68973416546964 -687.7300655972093 101.20968845054769
  endloop
endfacet
facet normal -0.7071067811865687 1.3878625771883008e-12 0.7071067811865265
  outer loop
    vertex 383.314540651057 -681.0698128207486 101.83449493612201
    vertex 381.9800457161887 -679.9999999999975 100.50000000125188
    vertex 382.6957942422699 -687.6811770995332 101.21574852734835
  endloop
endfacet
facet normal -0.7071067811865687 1.3878625771883008e-12 0.7071067811865265
  outer loop
    vertex 383.33347602052356 -680.9803836171225 101.85343030558877
    vertex 381.9800457161887 -679.9999999999975 100.50000000125188
    vertex 383.314540651057 -681.0698128207486 101.83449493612201
  endloop
endfacet
facet normal -0.7071067811865687 1.3878625771883008e-12 0.7071067811865265
  outer loop
    vertex 383.36240089947466 -680.79810313718 101.88235518453948
    vertex 381.9800457161887 -679.9999999999975 100.50000000125188
    vertex 383.33347602052356 -680.9803836171225 101.85343030558877
  endloop
endfacet
facet normal 6.8908688229022496e-18 -0.8660254037834519 0.500000000001709
  outer loop
    vertex 410.8755522033363 -677.6974975024026 102.75600050405833
    vertex 402.67513795887936 -677.9221575263724 102.3668779281135
    vertex 411.48004571618856 -678.9999999999968 100.50000000124973
  endloop
endfacet
facet normal 6.8908688229022496e-18 -0.8660254037834519 0.500000000001709
  outer loop
    vertex 383.4975969989934 -678.1238413583567 102.01755128405321
    vertex 411.48004571618856 -678.9999999999968 100.50000000124973
    vertex 402.67513795887936 -677.9221575263724 102.3668779281135
  endloop
endfacet
facet normal 6.8908688229022496e-18 -0.8660254037834519 0.500000000001709
  outer loop
    vertex 381.9800457161887 -678.9999999999968 100.50000000124973
    vertex 411.48004571618856 -678.9999999999968 100.50000000124973
    vertex 383.4975969989934 -678.1238413583567 102.01755128405321
  endloop
endfacet
facet normal 0.8660254037844737 9.66208779638582e-13 0.4999999999999397
  outer loop
    vertex 428.71022772064947 -715.8079271982007 106.16349090109944
    vertex 431.9800457161882 -714.4999999999965 100.5000000013199
    vertex 428.79628785703864 -715.3640249123937 106.0144303723662
  endloop
endfacet
facet normal 0.8660254037844737 9.66208779638582e-13 0.4999999999999397
  outer loop
    vertex 429.62726629979875 -712.1601038780962 104.5751334895048
    vertex 428.79628785703864 -715.3640249123937 106.0144303723662
    vertex 431.9800457161882 -714.4999999999965 100.5000000013199
  endloop
endfacet
facet normal 0.8660254037844737 9.66208779638582e-13 0.4999999999999397
  outer loop
    vertex 430.373443632801 -708.5663135281997 103.2827164372819
    vertex 429.62726629979875 -712.1601038780962 104.5751334895048
    vertex 431.9800457161882 -714.4999999999965 100.5000000013199
  endloop
endfacet
facet normal 0.8660254037844737 9.66208779638582e-13 0.4999999999999397
  outer loop
    vertex 430.9513542666772 -705.0143409777957 102.2817458571668
    vertex 430.373443632801 -708.5663135281997 103.2827164372819
    vertex 431.9800457161882 -714.4999999999965 100.5000000013199
  endloop
endfacet
facet normal 0.8660254037844737 9.66208779638582e-13 0.4999999999999397
  outer loop
    vertex 431.3628836632495 -701.4929306309198 101.5689560334884
    vertex 430.9513542666772 -705.0143409777957 102.2817458571668
    vertex 431.9800457161882 -714.4999999999965 100.5000000013199
  endloop
endfacet
facet normal 0.8660254037844737 9.66208779638582e-13 0.4999999999999397
  outer loop
    vertex 431.98004571618856 -694.9999999999975 100.50000000128124
    vertex 431.3628836632495 -701.4929306309198 101.5689560334884
    vertex 431.9800457161882 -714.4999999999965 100.5000000013199
  endloop
endfacet
facet normal 0.8660254037844737 9.66208779638582e-13 0.4999999999999397
  outer loop
    vertex 429.67804202527157 -711.8411809267944 104.48718735319395
    vertex 429.62726629979875 -712.1601038780962 104.5751334895048
    vertex 430.373443632801 -708.5663135281997 103.2827164372819
  endloop
endfacet
facet normal 0.8660254037844737 9.66208779638582e-13 0.4999999999999397
  outer loop
    vertex 430.4004815497916 -708.3486234581669 103.23588539132308
    vertex 430.373443632801 -708.5663135281997 103.2827164372819
    vertex 430.9513542666772 -705.0143409777957 102.2817458571668
  endloop
endfacet
facet normal 0.8660254037844737 9.66208779638582e-13 0.4999999999999397
  outer loop
    vertex 430.9637573171514 -704.8748637233034 102.26026314357637
    vertex 430.9513542666772 -705.0143409777957 102.2817458571668
    vertex 431.3628836632495 -701.4929306309198 101.5689560334884
  endloop
endfacet
facet normal 0.8660254037844737 9.66208779638582e-13 0.4999999999999397
  outer loop
    vertex 431.367363483949 -701.4091100612626 101.56119675642772
    vertex 431.3628836632495 -701.4929306309198 101.5689560334884
    vertex 431.98004571618856 -694.9999999999975 100.50000000128124
  endloop
endfacet
facet normal 0.8660254037844737 9.66208779638582e-13 0.4999999999999397
  outer loop
    vertex 431.60930933740957 -697.9915206830311 101.14213424554706
    vertex 431.367363483949 -701.4091100612626 101.56119675642772
    vertex 431.98004571618856 -694.9999999999975 100.50000000128124
  endloop
endfacet
facet normal 0.8660254037844737 9.66208779638582e-13 0.4999999999999397
  outer loop
    vertex 431.61020971462375 -697.9410332399333 101.14057474646592
    vertex 431.60930933740957 -697.9915206830311 101.14213424554706
    vertex 431.98004571618856 -694.9999999999975 100.50000000128124
  endloop
endfacet
facet normal 0.8660254037844737 9.66208779638582e-13 0.4999999999999397
  outer loop
    vertex 431.6723193943534 -695.3077263218304 101.03299762552693
    vertex 431.61020971462375 -697.9410332399333 101.14057474646592
    vertex 431.98004571618856 -694.9999999999975 100.50000000128124
  endloop
endfacet
facet normal -0.0858618891521998 0.3320719768696313 0.9393380318975223
  outer loop
    vertex 413.9756322521345 -719.3861321917085 106.08160494059395
    vertex 414.1920798292795 -721.6151863547473 106.88939829567933
    vertex 428.79628785703864 -715.3640249123937 106.0144303723662
  endloop
endfacet
facet normal -0.0858618891521998 0.3320719768696313 0.9393380318975223
  outer loop
    vertex 428.71022772064947 -715.8079271982007 106.16349090109944
    vertex 428.79628785703864 -715.3640249123937 106.0144303723662
    vertex 414.1920798292795 -721.6151863547473 106.88939829567933
  endloop
endfacet
facet normal 2.1666676774520368e-16 0.8660254037854263 0.49999999999828976
  outer loop
    vertex 412.98752772549386 -681.0934717586603 102.39394864390768
    vertex 412.48004571618867 -679.9999999999975 100.50000000125188
    vertex 383.36240089947466 -680.79810313718 101.88235518453948
  endloop
endfacet
facet normal 2.1666676774520368e-16 0.8660254037854263 0.49999999999828976
  outer loop
    vertex 381.9800457161887 -679.9999999999975 100.50000000125188
    vertex 383.36240089947466 -680.79810313718 101.88235518453948
    vertex 412.48004571618867 -679.9999999999975 100.50000000125188
  endloop
endfacet
facet normal 2.1666676774520368e-16 0.8660254037854263 0.49999999999828976
  outer loop
    vertex 411.9800457161888 -679.9999999999975 100.50000000125188
    vertex 381.9800457161887 -679.9999999999975 100.50000000125188
    vertex 412.48004571618867 -679.9999999999975 100.50000000125188
  endloop
endfacet
facet normal -0.0582100676278844 0.27398869312044316 0.959969678723713
  outer loop
    vertex 413.53639048235107 -715.1133859368415 104.44233233894833
    vertex 413.7197132408328 -717.4715528832862 105.12650218779028
    vertex 429.67804202527157 -711.8411809267944 104.48718735319395
  endloop
endfacet
facet normal -0.0582100676278844 0.27398869312044316 0.959969678723713
  outer loop
    vertex 429.62726629979875 -712.1601038780962 104.5751334895048
    vertex 429.67804202527157 -711.8411809267944 104.48718735319395
    vertex 413.7197132408328 -717.4715528832862 105.12650218779028
  endloop
endfacet
facet normal -0.058210067627888634 -0.08578389913120921 0.9946118391998978
  outer loop
    vertex 383.53662489193874 -667.2836605643504 102.05657917697708
    vertex 410.76090010938213 -672.6866821129914 103.18388794387994
    vertex 383.79163643113446 -664.4999999999931 102.31159071616712
  endloop
endfacet
facet normal -0.058210067627888634 -0.08578389913120921 0.9946118391998978
  outer loop
    vertex 394.9020639043976 -664.4999999999917 102.96183306107395
    vertex 383.79163643113446 -664.4999999999931 102.31159071616712
    vertex 410.76090010938213 -672.6866821129914 103.18388794387994
  endloop
endfacet
facet normal -0.058210067627888634 -0.08578389913120921 0.9946118391998978
  outer loop
    vertex 410.6947783543515 -669.7806698132435 103.43065769313296
    vertex 394.9020639043976 -664.4999999999917 102.96183306107395
    vertex 410.76090010938213 -672.6866821129914 103.18388794387994
  endloop
endfacet
facet normal 0.3713906763542159 0.9284766908852146 -1.7936246202861875e-12
  outer loop
    vertex 410.4860193439006 -665.9023894510742 104.20975692666713
    vertex 411.48004571618856 -666.2999999999971 100.50000000122502
    vertex 406.98004571618844 -664.4999999999891 104.11310236368861
  endloop
endfacet
facet normal 0.3713906763542159 0.9284766908852146 -1.7936246202861875e-12
  outer loop
    vertex 406.98004571618884 -664.4999999999973 100.00000000122142
    vertex 406.98004571618844 -664.4999999999891 104.11310236368861
    vertex 411.48004571618856 -666.2999999999971 100.50000000122502
  endloop
endfacet
facet normal 0.3713906763542159 0.9284766908852146 -1.7936246202861875e-12
  outer loop
    vertex 411.48004571618856 -666.2999999999975 100.00000000122495
    vertex 406.98004571618884 -664.4999999999973 100.00000000122142
    vertex 411.48004571618856 -666.2999999999971 100.50000000122502
  endloop
endfacet
facet normal 0.9659258262890775 5.100771148823043e-13 0.2588190451024864
  outer loop
    vertex 411.48004571618856 -678.9999999999968 100.50000000124973
    vertex 411.48004571618856 -666.2999999999971 100.50000000122502
    vertex 410.8755522033363 -677.6974975024026 102.75600050405833
  endloop
endfacet
facet normal 0.9659258262890775 5.100771148823043e-13 0.2588190451024864
  outer loop
    vertex 410.8721619960044 -677.5614213857851 102.76865293006796
    vertex 410.8755522033363 -677.6974975024026 102.75600050405833
    vertex 411.48004571618856 -666.2999999999971 100.50000000122502
  endloop
endfacet
facet normal 0.9659258262890775 5.100771148823043e-13 0.2588190451024864
  outer loop
    vertex 410.85359731118797 -674.6778836674825 102.83793727702381
    vertex 410.8721619960044 -677.5614213857851 102.76865293006796
    vertex 411.48004571618856 -666.2999999999971 100.50000000122502
  endloop
endfacet
facet normal 0.9659258262890775 5.100771148823043e-13 0.2588190451024864
  outer loop
    vertex 410.76090010938213 -672.6866821129914 103.18388794387994
    vertex 410.85359731118797 -674.6778836674825 102.83793727702381
    vertex 411.48004571618856 -666.2999999999971 100.50000000122502
  endloop
endfacet
facet normal 0.9659258262890775 5.100771148823043e-13 0.2588190451024864
  outer loop
    vertex 410.6947783543515 -669.7806698132435 103.43065769313296
    vertex 410.76090010938213 -672.6866821129914 103.18388794387994
    vertex 411.48004571618856 -666.2999999999971 100.50000000122502
  endloop
endfacet
facet normal 0.9659258262890775 5.100771148823043e-13 0.2588190451024864
  outer loop
    vertex 410.5606982850134 -667.81779463869 103.93105132418101
    vertex 410.6947783543515 -669.7806698132435 103.43065769313296
    vertex 411.48004571618856 -666.2999999999971 100.50000000122502
  endloop
endfacet
facet normal 0.9659258262890775 5.100771148823043e-13 0.2588190451024864
  outer loop
    vertex 410.4860193439006 -665.9023894510742 104.20975692666713
    vertex 410.5606982850134 -667.81779463869 103.93105132418101
    vertex 411.48004571618856 -666.2999999999971 100.50000000122502
  endloop
endfacet
facet normal 0.9659258262890932 5.035813233947487e-13 0.25881904510242804
  outer loop
    vertex 410.4860193439006 -723.0976105489044 104.20975692677989
    vertex 411.48004571618856 -722.6999999999969 100.50000000133586
    vertex 410.56069828501376 -721.1822053612889 103.9310513242863
  endloop
endfacet
facet normal 0.9659258262890932 5.035813233947487e-13 0.25881904510242804
  outer loop
    vertex 411.48004571618856 -709.9999999999975 100.50000000131105
    vertex 410.56069828501376 -721.1822053612889 103.9310513242863
    vertex 411.48004571618856 -722.6999999999969 100.50000000133586
  endloop
endfacet
facet normal 0.9659258262890932 5.035813233947487e-13 0.25881904510242804
  outer loop
    vertex 410.6947783543519 -719.2193301867378 103.43065769323042
    vertex 410.56069828501376 -721.1822053612889 103.9310513242863
    vertex 411.48004571618856 -709.9999999999975 100.50000000131105
  endloop
endfacet
facet normal 0.9659258262890932 5.035813233947487e-13 0.25881904510242804
  outer loop
    vertex 410.76090010938213 -716.3133178869912 103.1838879439657
    vertex 410.6947783543519 -719.2193301867378 103.43065769323042
    vertex 411.48004571618856 -709.9999999999975 100.50000000131105
  endloop
endfacet
facet normal 0.9659258262890932 5.035813233947487e-13 0.25881904510242804
  outer loop
    vertex 410.8535973111883 -714.3221163325013 102.83793727710196
    vertex 410.76090010938213 -716.3133178869912 103.1838879439657
    vertex 411.48004571618856 -709.9999999999975 100.50000000131105
  endloop
endfacet
facet normal 0.9659258262890932 5.035813233947487e-13 0.25881904510242804
  outer loop
    vertex 410.8721619960048 -711.4385786141984 102.76865293013488
    vertex 410.8535973111883 -714.3221163325013 102.83793727710196
    vertex 411.48004571618856 -709.9999999999975 100.50000000131105
  endloop
endfacet
facet normal 0.9659258262890932 5.035813233947487e-13 0.25881904510242804
  outer loop
    vertex 410.8755522033363 -711.3025024975818 102.75600050412443
    vertex 410.8721619960048 -711.4385786141984 102.76865293013488
    vertex 411.48004571618856 -709.9999999999975 100.50000000131105
  endloop
endfacet
facet normal 1.0 0.0 0.0
  outer loop
    vertex 411.48004571618856 -678.9999999999972 100.00000000124994
    vertex 411.48004571618856 -666.2999999999975 100.00000000122495
    vertex 411.48004571618856 -678.9999999999968 100.50000000124973
  endloop
endfacet
facet normal 1.0 0.0 0.0
  outer loop
    vertex 411.48004571618856 -666.2999999999971 100.50000000122502
    vertex 411.48004571618856 -678.9999999999968 100.50000000124973
    vertex 411.48004571618856 -666.2999999999975 100.00000000122495
  endloop
endfacet
facet normal 0.0 1.9698374875698473e-12 1.0
  outer loop
    vertex 381.9800457161887 -693.9999999999968 100.50000000127936
    vertex 381.9800457161887 -694.4999999999974 100.50000000128021
    vertex 431.98004571618856 -693.9999999999968 100.50000000127936
  endloop
endfacet
facet normal 0.0 1.9698374875698473e-12 1.0
  outer loop
    vertex 382.06337904952204 -694.9999999999975 100.50000000128124
    vertex 431.98004571618856 -693.9999999999968 100.50000000127936
    vertex 381.9800457161887 -694.4999999999974 100.50000000128021
  endloop
endfacet
facet normal 0.0 1.9698374875698473e-12 1.0
  outer loop
    vertex 431.98004571618856 -694.9999999999975 100.50000000128124
    vertex 431.98004571618856 -693.9999999999968 100.50000000127936
    vertex 382.06337904952204 -694.9999999999975 100.50000000128124
  endloop
endfacet
facet normal -1.0 -1.35697635250427e-14 1.5781287180669368e-26
  outer loop
    vertex 412.48004571618884 -722.2999999999972 100.00000000133528
    vertex 412.48004571618884 -722.2999999999964 100.50000000133527
    vertex 412.48004571618867 -708.9999999999972 100.00000000130892
  endloop
endfacet
facet normal -1.0 -1.35697635250427e-14 1.5781287180669368e-26
  outer loop
    vertex 412.48004571618867 -708.9999999999968 100.5000000013089
    vertex 412.48004571618867 -708.9999999999972 100.00000000130892
    vertex 412.48004571618884 -722.2999999999964 100.50000000133527
  endloop
endfacet
facet normal 0.7071067811864996 0.7071067811865955 -1.3078125629908337e-12
  outer loop
    vertex 412.48004571618867 -679.9999999999975 100.50000000125188
    vertex 412.48004571618867 -679.9999999999978 100.0000000012519
    vertex 411.48004571618856 -678.9999999999968 100.50000000124973
  endloop
endfacet
facet normal 0.7071067811864996 0.7071067811865955 -1.3078125629908337e-12
  outer loop
    vertex 411.48004571618856 -678.9999999999972 100.00000000124994
    vertex 411.48004571618856 -678.9999999999968 100.50000000124973
    vertex 412.48004571618867 -679.9999999999978 100.0000000012519
  endloop
endfacet
facet normal 1.0 0.0 0.0
  outer loop
    vertex 411.48004571618856 -722.6999999999972 100.00000000133579
    vertex 411.48004571618856 -709.9999999999978 100.00000000131108
    vertex 411.48004571618856 -722.6999999999969 100.50000000133586
  endloop
endfacet
facet normal 1.0 0.0 0.0
  outer loop
    vertex 411.48004571618856 -709.9999999999975 100.50000000131105
    vertex 411.48004571618856 -722.6999999999969 100.50000000133586
    vertex 411.48004571618856 -709.9999999999978 100.00000000131108
  endloop
endfacet
facet normal -1.0 0.0 0.0
  outer loop
    vertex 381.9800457161887 -694.4999999999974 100.50000000128021
    vertex 381.9800457161887 -693.9999999999968 100.50000000127936
    vertex 381.9800457161887 -694.4999999999972 100.00000000128043
  endloop
endfacet
facet normal -1.0 0.0 0.0
  outer loop
    vertex 381.9800457161887 -664.4999999999972 100.00000000122142
    vertex 381.9800457161887 -694.4999999999972 100.00000000128043
    vertex 381.9800457161887 -693.9999999999968 100.50000000127936
  endloop
endfacet
facet normal -1.0 0.0 0.0
  outer loop
    vertex 381.9800457161887 -679.9999999999975 100.50000000125188
    vertex 381.9800457161887 -664.4999999999972 100.00000000122142
    vertex 381.9800457161887 -693.9999999999968 100.50000000127936
  endloop
endfacet
facet normal -1.0 0.0 0.0
  outer loop
    vertex 381.9800457161887 -678.9999999999968 100.50000000124973
    vertex 381.9800457161887 -664.4999999999972 100.00000000122142
    vertex 381.9800457161887 -679.9999999999975 100.50000000125188
  endloop
endfacet
facet normal -1.0 0.0 0.0
  outer loop
    vertex 381.9800457161887 -664.4999999999974 100.50000000122141
    vertex 381.9800457161887 -664.4999999999972 100.00000000122142
    vertex 381.9800457161887 -678.9999999999968 100.50000000124973
  endloop
endfacet
facet normal -0.9659258262890601 4.495678344069007e-13 0.25881904510255144
  outer loop
    vertex 412.98752772549386 -681.0934717586603 102.39394864390768
    vertex 413.01726680354733 -680.3842210584921 102.50493639417274
    vertex 412.48004571618867 -679.9999999999975 100.50000000125188
  endloop
endfacet
facet normal -0.9659258262890601 4.495678344069007e-13 0.25881904510255144
  outer loop
    vertex 413.1802774337725 -678.3397566195974 103.11330034834249
    vertex 412.48004571618867 -679.9999999999975 100.50000000125188
    vertex 413.01726680354733 -680.3842210584921 102.50493639417274
  endloop
endfacet
facet normal -0.9659258262890601 4.495678344069007e-13 0.25881904510255144
  outer loop
    vertex 412.48004571618793 -669.2079876870802 100.50000000123049
    vertex 412.48004571618867 -679.9999999999975 100.50000000125188
    vertex 413.1802774337725 -678.3397566195974 103.11330034834249
  endloop
endfacet
facet normal -0.9659258262890601 4.495678344069007e-13 0.25881904510255144
  outer loop
    vertex 413.32684631716177 -675.8741159028039 103.66030286795518
    vertex 412.48004571618793 -669.2079876870802 100.50000000123049
    vertex 413.1802774337725 -678.3397566195974 103.11330034834249
  endloop
endfacet
facet normal -0.9659258262890601 4.495678344069007e-13 0.25881904510255144
  outer loop
    vertex 413.53639048235107 -673.8866140631357 104.44233233886719
    vertex 412.48004571618793 -669.2079876870802 100.50000000123049
    vertex 413.32684631716177 -675.8741159028039 103.66030286795518
  endloop
endfacet
facet normal -0.9659258262890601 4.495678344069007e-13 0.25881904510255144
  outer loop
    vertex 413.5807575144254 -673.3159000425852 104.60791235675138
    vertex 412.48004571618793 -669.2079876870802 100.50000000123049
    vertex 413.53639048235107 -673.8866140631357 104.44233233886719
  endloop
endfacet
facet normal 0.3713906763541044 -0.9284766908852592 1.858949592175835e-12
  outer loop
    vertex 414.1920798292795 -721.6151863547473 106.88939829567933
    vertex 412.48004571618884 -722.2999999999964 100.50000000133527
    vertex 428.71022772064947 -715.8079271982007 106.16349090109944
  endloop
endfacet
facet normal 0.3713906763541044 -0.9284766908852592 1.858949592175835e-12
  outer loop
    vertex 431.9800457161882 -714.4999999999965 100.5000000013199
    vertex 428.71022772064947 -715.8079271982007 106.16349090109944
    vertex 412.48004571618884 -722.2999999999964 100.50000000133527
  endloop
endfacet
facet normal 0.3713906763541044 -0.9284766908852592 1.858949592175835e-12
  outer loop
    vertex 412.48004571618884 -722.2999999999972 100.00000000133528
    vertex 431.9800457161882 -714.4999999999965 100.5000000013199
    vertex 412.48004571618884 -722.2999999999964 100.50000000133527
  endloop
endfacet
facet normal 0.3713906763541044 -0.9284766908852592 1.858949592175835e-12
  outer loop
    vertex 431.9800457161882 -714.4999999999975 100.00000000131992
    vertex 431.9800457161882 -714.4999999999965 100.5000000013199
    vertex 412.48004571618884 -722.2999999999972 100.00000000133528
  endloop
endfacet
facet normal -2.967404876982536e-16 -1.9668324534503927e-12 -1.0
  outer loop
    vertex 381.9800457161887 -694.4999999999972 100.00000000128043
    vertex 381.9800457161887 -664.4999999999972 100.00000000122142
    vertex 386.98004571618867 -724.4999999999974 100.0000000013394
  endloop
endfacet
facet normal -2.967404876982536e-16 -1.9668324534503927e-12 -1.0
  outer loop
    vertex 406.98004571618884 -664.4999999999973 100.00000000122142
    vertex 386.98004571618867 -724.4999999999974 100.0000000013394
    vertex 381.9800457161887 -664.4999999999972 100.00000000122142
  endloop
endfacet
facet normal -2.967404876982536e-16 -1.9668324534503927e-12 -1.0
  outer loop
    vertex 406.98004571618867 -724.4999999999974 100.0000000013394
    vertex 386.98004571618867 -724.4999999999974 100.0000000013394
    vertex 406.98004571618884 -664.4999999999973 100.00000000122142
  endloop
endfacet
facet normal -2.967404876982536e-16 -1.9668324534503927e-12 -1.0
  outer loop
    vertex 411.48004571618856 -722.6999999999972 100.00000000133579
    vertex 406.98004571618867 -724.4999999999974 100.0000000013394
    vertex 406.98004571618884 -664.4999999999973 100.00000000122142
  endloop
endfacet
facet normal -2.967404876982536e-16 -1.9668324534503927e-12 -1.0
  outer loop
    vertex 411.48004571618856 -666.2999999999975 100.00000000122495
    vertex 411.48004571618856 -722.6999999999972 100.00000000133579
    vertex 406.98004571618884 -664.4999999999973 100.00000000122142
  endloop
endfacet
facet normal -2.967404876982536e-16 -1.9668324534503927e-12 -1.0
  outer loop
    vertex 411.48004571618856 -709.9999999999978 100.00000000131108
    vertex 411.48004571618856 -722.6999999999972 100.00000000133579
    vertex 411.48004571618856 -666.2999999999975 100.00000000122495
  endloop
endfacet
facet normal -2.967404876982536e-16 -1.9668324534503927e-12 -1.0
  outer loop
    vertex 411.48004571618856 -678.9999999999972 100.00000000124994
    vertex 411.48004571618856 -709.9999999999978 100.00000000131108
    vertex 411.48004571618856 -666.2999999999975 100.00000000122495
  endloop
endfacet
facet normal -2.967404876982536e-16 -1.9668324534503927e-12 -1.0
  outer loop
    vertex 411.48004571618856 -709.9999999999978 100.00000000131108
    vertex 411.48004571618856 -678.9999999999972 100.00000000124994
    vertex 412.48004571618867 -708.9999999999972 100.00000000130892
  endloop
endfacet
facet normal -2.967404876982536e-16 -1.9668324534503927e-12 -1.0
  outer loop
    vertex 412.48004571618867 -679.9999999999978 100.0000000012519
    vertex 412.48004571618867 -708.9999999999972 100.00000000130892
    vertex 411.48004571618856 -678.9999999999972 100.00000000124994
  endloop
endfacet
facet normal -2.967404876982536e-16 -1.9668324534503927e-12 -1.0
  outer loop
    vertex 412.48004571618884 -722.2999999999972 100.00000000133528
    vertex 412.48004571618867 -708.9999999999972 100.00000000130892
    vertex 412.48004571618867 -679.9999999999978 100.0000000012519
  endloop
endfacet
facet normal -2.967404876982536e-16 -1.9668324534503927e-12 -1.0
  outer loop
    vertex 412.48004571618793 -666.6999999999972 100.00000000122554
    vertex 431.98004571618856 -674.4999999999972 100.00000000124092
    vertex 412.48004571618867 -679.9999999999978 100.0000000012519
  endloop
endfacet
facet normal -2.967404876982536e-16 -1.9668324534503927e-12 -1.0
  outer loop
    vertex 412.48004571618884 -722.2999999999972 100.00000000133528
    vertex 412.48004571618867 -679.9999999999978 100.0000000012519
    vertex 431.98004571618856 -674.4999999999972 100.00000000124092
  endloop
endfacet
facet normal -2.967404876982536e-16 -1.9668324534503927e-12 -1.0
  outer loop
    vertex 431.9800457161882 -714.4999999999975 100.00000000131992
    vertex 412.48004571618884 -722.2999999999972 100.00000000133528
    vertex 431.98004571618856 -674.4999999999972 100.00000000124092
  endloop
endfacet
endsolid ProtoGlove baseplate
