solid ProtoGlove baseplate
facet normal 0.8660254037844397 -9.8935316374184e-13 0.49999999999999806
  outer loop
    vertex 73.99357149404034 685.2629881107499 110.90343934573065
    vertex 80.00000000000021 683.5000000002055 100.50000000137476
    vertex 73.82643755031587 686.0993947158404 111.1929238279326
  endloop
endfacet
facet normal 0.8660254037844397 -9.8935316374184e-13 0.49999999999999806
  outer loop
    vertex 80.00000000000021 683.5000000002055 100.50000000137476
    vertex 73.99357149404034 685.2629881107499 110.90343934573065
    vertex 75.60542716315744 680.5803965331785 108.11162343234277
  endloop
endfacet
facet normal 0.8660254037844397 -9.8935316374184e-13 0.49999999999999806
  outer loop
    vertex 80.00000000000021 683.5000000002055 100.50000000137476
    vertex 75.60542716315744 680.5803965331785 108.11162343234277
    vertex 77.07293878986842 675.1124683236584 105.56981873417074
  endloop
endfacet
facet normal 0.8660254037844397 -9.8935316374184e-13 0.49999999999999806
  outer loop
    vertex 80.00000000000021 683.5000000002055 100.50000000137476
    vertex 77.07293878986842 675.1124683236584 105.56981873417074
    vertex 78.22238699107876 669.6810939972755 103.57891604899469
  endloop
endfacet
facet normal 0.8660254037844397 -9.8935316374184e-13 0.49999999999999806
  outer loop
    vertex 80.00000000000021 683.5000000002055 100.50000000137476
    vertex 78.22238699107876 669.6810939972755 103.57891604899469
    vertex 79.04798750225089 664.2746469787618 102.14893401687893
  endloop
endfacet
facet normal 0.8660254037844397 -9.8935316374184e-13 0.49999999999999806
  outer loop
    vertex 80.00000000000021 683.5000000002055 100.50000000137476
    vertex 79.04798750225089 664.2746469787618 102.14893401687893
    vertex 80.00000000000021 654.5000000002052 100.50000000131756
  endloop
endfacet
facet normal 0.8660254037844397 -9.8935316374184e-13 0.49999999999999806
  outer loop
    vertex 77.07293878986842 675.1124683236584 105.56981873417074
    vertex 75.60542716315744 680.5803965331785 108.11162343234277
    vertex 75.70335578100286 679.9862398394702 107.94200609071851
  endloop
endfacet
facet normal 0.8660254037844397 -9.8935316374184e-13 0.49999999999999806
  outer loop
    vertex 78.22238699107876 669.6810939972755 103.57891604899469
    vertex 77.07293878986842 675.1124683236584 105.56981873417074
    vertex 77.12397239625628 674.7169930527612 105.48142593501248
  endloop
endfacet
facet normal 0.8660254037844397 -9.8935316374184e-13 0.49999999999999806
  outer loop
    vertex 79.04798750225089 664.2746469787618 102.14893401687893
    vertex 78.22238699107876 669.6810939972755 103.57891604899469
    vertex 78.24465178897663 669.4407848791436 103.54035228781513
  endloop
endfacet
facet normal 0.8660254037844397 -9.8935316374184e-13 0.49999999999999806
  outer loop
    vertex 80.00000000000021 654.5000000002052 100.50000000131756
    vertex 79.04798750225089 664.2746469787618 102.14893401687893
    vertex 79.05518079201218 664.1457278805204 102.13647487353838
  endloop
endfacet
facet normal 0.8660254037844397 -9.8935316374184e-13 0.49999999999999806
  outer loop
    vertex 80.00000000000021 654.5000000002052 100.50000000131756
    vertex 79.05518079201218 664.1457278805204 102.13647487353838
    vertex 79.54524751904951 658.8836397528805 101.28765440320093
  endloop
endfacet
facet normal 0.8660254037844397 -9.8935316374184e-13 0.49999999999999806
  outer loop
    vertex 80.00000000000021 654.5000000002052 100.50000000131756
    vertex 79.54524751904951 658.8836397528805 101.28765440320093
    vertex 79.54639865423717 658.821887422074 101.2856605785691
  endloop
endfacet
facet normal 0.8660254037844397 -9.8935316374184e-13 0.49999999999999806
  outer loop
    vertex 80.00000000000021 654.5000000002052 100.50000000131756
    vertex 79.54639865423717 658.821887422074 101.2856605785691
    vertex 79.68610202651276 654.3138979736909 101.04368723978978
  endloop
endfacet
facet normal 0.8660254037844397 -9.8935316374184e-13 0.49999999999999806
  outer loop
    vertex 80.00000000000021 654.5000000002052 100.50000000131756
    vertex 79.68610202651276 654.3138979736909 101.04368723978978
    vertex 80.00000000000021 654.0000000002058 100.50000000131652
  endloop
endfacet
facet normal -0.11639030097740483 -0.09276079276082463 0.9888623428793174
  outer loop
    vertex 41.201764792301965 696.8856983161628 105.79823520909903
    vertex 32.50000000000055 703.5000000001946 105.3944852247704
    vertex 17.524691261241944 703.5000000001984 103.63187316467499
  endloop
endfacet
facet normal -0.11639030097740483 -0.09276079276082463 0.9888623428793174
  outer loop
    vertex 32.50000000000055 703.5000000001946 105.3944852247704
    vertex 41.201764792301965 696.8856983161628 105.79823520909903
    vertex 40.94507498460591 699.9441789540441 106.05492501680128
  endloop
endfacet
facet normal -0.7071067811865372 -1.3924681595968638e-12 0.7071067811865579
  outer loop
    vertex 2.209995417786527 630.2759414495673 102.70999541905643
    vertex 0.0 629.5000000002054 100.50000000126828
    vertex 0.0 629.0000000002058 100.50000000126724
  endloop
endfacet
facet normal -0.7071067811865372 -1.3924681595968638e-12 0.7071067811865579
  outer loop
    vertex 0.0 629.5000000002054 100.50000000126828
    vertex 2.209995417786527 630.2759414495673 102.70999541905643
    vertex 1.8983196084783174 632.0539395872844 102.39831960975165
  endloop
endfacet
facet normal -0.7071067811865372 -1.3924681595968638e-12 0.7071067811865579
  outer loop
    vertex 0.0 629.5000000002054 100.50000000126828
    vertex 1.8983196084783174 632.0539395872844 102.39831960975165
    vertex 0.8507979397991448 642.6817451311052 101.35079794109343
  endloop
endfacet
facet normal -0.7071067811865372 -1.3924681595968638e-12 0.7071067811865579
  outer loop
    vertex 0.0 629.5000000002054 100.50000000126828
    vertex 0.8507979397991448 642.6817451311052 101.35079794109343
    vertex 0.0 653.0000000002051 100.50000000131465
  endloop
endfacet
facet normal -0.7071067811865372 -1.3924681595968638e-12 0.7071067811865579
  outer loop
    vertex 0.0 653.0000000002051 100.50000000131465
    vertex 0.8507979397991448 642.6817451311052 101.35079794109343
    vertex 0.5267369504386863 652.6958882800759 101.0267369517529
  endloop
endfacet
facet normal -0.7071067811865372 -1.3924681595968638e-12 0.7071067811865579
  outer loop
    vertex 0.8507979397991448 642.6817451311052 101.35079794109343
    vertex 1.8983196084783174 632.0539395872844 102.39831960975165
    vertex 0.8600203549386776 642.6255053449257 101.36002035623297
  endloop
endfacet
facet normal -0.7071067811865372 -1.3924681595968638e-12 0.7071067811865579
  outer loop
    vertex 1.8983196084783174 632.0539395872844 102.39831960975165
    vertex 2.209995417786527 630.2759414495673 102.70999541905643
    vertex 1.93251062950726 631.9338184781608 102.43251063078034
  endloop
endfacet
facet normal 0.6830127018922152 0.6830127018917099 0.2588190451038764
  outer loop
    vertex 35.474321543719874 626.0171508399578 103.93439549054331
    vertex 44.99999999999987 617.7928932190185 100.50000000124544
    vertex 34.792893218813454 628.0000000002051 100.50000000126535
  endloop
endfacet
facet normal 0.6830127018922152 0.6830127018917099 0.2588190451038764
  outer loop
    vertex 44.99999999999987 617.7928932190185 100.50000000124544
    vertex 35.474321543719874 626.0171508399578 103.93439549054331
    vertex 36.15767704835687 625.2840177213629 104.06575654470704
  endloop
endfacet
facet normal 0.6830127018922152 0.6830127018917099 0.2588190451038764
  outer loop
    vertex 44.99999999999987 617.7928932190185 100.50000000124544
    vertex 36.15767704835687 625.2840177213629 104.06575654470704
    vertex 40.82388126466077 620.5938134379232 104.12909172427638
  endloop
endfacet
facet normal 0.6830127018922152 0.6830127018917099 0.2588190451038764
  outer loop
    vertex 44.99999999999987 617.7928932190185 100.50000000124544
    vertex 40.82388126466077 620.5938134379232 104.12909172427638
    vertex 42.3106733459099 618.8947273986112 104.6893266553375
  endloop
endfacet
facet normal 0.6830127018922152 0.6830127018917099 0.2588190451038764
  outer loop
    vertex 44.99999999999987 617.7928932190185 100.50000000124544
    vertex 42.3106733459099 618.8947273986112 104.6893266553375
    vertex 44.99999999999987 617.2244871460704 102.00000000124435
  endloop
endfacet
facet normal -0.7071067811865301 -1.3933848660862418e-12 0.7071067811865651
  outer loop
    vertex 1.5070838748542315 603.5000000002019 102.00708387607132
    vertex 0.0 628.0000000002051 100.50000000126535
    vertex 0.0 603.5000000002051 100.50000000121719
  endloop
endfacet
facet normal -0.7071067811865301 -1.3933848660862418e-12 0.7071067811865651
  outer loop
    vertex 0.0 628.0000000002051 100.50000000126535
    vertex 1.5070838748542315 603.5000000002019 102.00708387607132
    vertex 1.290005217536236 609.8336392586089 101.79000521876597
  endloop
endfacet
facet normal -0.7071067811865301 -1.3933848660862418e-12 0.7071067811865651
  outer loop
    vertex 1.290005217536236 609.8336392586089 101.79000521876597
    vertex 1.5070838748542315 603.5000000002019 102.00708387607132
    vertex 1.3104457345504157 609.7535358456712 101.8104457357796
  endloop
endfacet
facet normal -0.7071067811865301 -1.3933848660862418e-12 0.7071067811865651
  outer loop
    vertex 1.6938883933285835 620.5890493834028 102.19388839457916
    vertex 1.6803960287232995 620.6990712243888 102.1803960299743
    vertex 1.290005217536236 609.8336392586089 101.79000521876597
  endloop
endfacet
facet normal -0.7071067811865301 -1.3933848660862418e-12 0.7071067811865651
  outer loop
    vertex 0.0 628.0000000002051 100.50000000126535
    vertex 1.6803960287232995 620.6990712243888 102.1803960299743
    vertex 2.2977929252726423 626.6733686362518 102.79779292653569
  endloop
endfacet
facet normal -0.7071067811865301 -1.3933848660862418e-12 0.7071067811865651
  outer loop
    vertex 1.6803960287232995 620.6990712243888 102.1803960299743
    vertex 0.0 628.0000000002051 100.50000000126535
    vertex 1.290005217536236 609.8336392586089 101.79000521876597
  endloop
endfacet
facet normal 3.3545089355015633e-16 -0.866025403785424 0.4999999999982932
  outer loop
    vertex 2.209995417786527 630.2759414495673 102.70999541905643
    vertex 35.20710678118651 629.0000000002058 100.50000000126724
    vertex 34.61272790690064 630.7295489617933 103.49566667693014
  endloop
endfacet
facet normal 3.3545089355015633e-16 -0.866025403785424 0.4999999999982932
  outer loop
    vertex 35.20710678118651 629.0000000002058 100.50000000126724
    vertex 2.209995417786527 630.2759414495673 102.70999541905643
    vertex 0.0 629.0000000002058 100.50000000126724
  endloop
endfacet
facet normal 0.9238795325112994 0.3826834323650592 7.538241743327256e-13
  outer loop
    vertex 34.792893218813454 679.0000000002058 100.50000000136582
    vertex 35.20710678118651 678.0000000002054 100.00000000136404
    vertex 34.792893218813454 679.0000000002061 100.00000000136575
  endloop
endfacet
facet normal 0.9238795325112994 0.3826834323650592 7.538241743327256e-13
  outer loop
    vertex 35.20710678118651 678.0000000002054 100.00000000136404
    vertex 34.792893218813454 679.0000000002058 100.50000000136582
    vertex 35.20710678118651 678.0000000002051 100.50000000136403
  endloop
endfacet
facet normal 1.0 0.0 0.0
  outer loop
    vertex 44.99999999999987 698.2368421054648 102.00000000140389
    vertex 44.99999999999987 689.2071067813924 100.00000000138603
    vertex 44.99999999999987 698.2368421054687 100.00000000140398
  endloop
endfacet
facet normal 1.0 0.0 0.0
  outer loop
    vertex 44.99999999999987 689.2071067813924 100.00000000138603
    vertex 44.99999999999987 698.2368421054648 102.00000000140389
    vertex 44.99999999999987 689.7755128543329 102.00000000138705
  endloop
endfacet
facet normal 1.0 0.0 0.0
  outer loop
    vertex 44.99999999999987 689.2071067813924 100.00000000138603
    vertex 44.99999999999987 689.7755128543329 102.00000000138705
    vertex 44.99999999999987 689.2071067813921 100.50000000138591
  endloop
endfacet
facet normal 0.388057000058064 -0.9216353751380942 -1.8078566437610664e-12
  outer loop
    vertex 52.349445512686884 611.8576612687051 100.50000000123367
    vertex 54.07550980684118 612.5844251820336 100.00000000123525
    vertex 54.07550980684118 612.5844251820199 106.97291168594874
  endloop
endfacet
facet normal 0.388057000058064 -0.9216353751380942 -1.8078566437610664e-12
  outer loop
    vertex 54.07550980684118 612.5844251820336 100.00000000123525
    vertex 52.349445512686884 611.8576612687051 100.50000000123367
    vertex 52.349445512686884 611.8576612687052 100.0000000012336
  endloop
endfacet
facet normal -6.785070373554886e-17 -0.053599394925587435 0.9985625192563613
  outer loop
    vertex 79.68610202651276 654.3138979736909 101.04368723978978
    vertex 79.54639865423717 658.821887422074 101.2856605785691
    vertex 12.16535554600754 654.3138979736909 101.04368723978978
  endloop
endfacet
facet normal 0.707106781186545 -0.7071067811865501 -1.3936768214024717e-12
  outer loop
    vertex 34.792893218813454 679.0000000002058 100.50000000136582
    vertex 44.99999999999987 689.2071067813924 100.00000000138603
    vertex 44.99999999999987 689.2071067813921 100.50000000138591
  endloop
endfacet
facet normal 0.707106781186545 -0.7071067811865501 -1.3936768214024717e-12
  outer loop
    vertex 44.99999999999987 689.2071067813924 100.00000000138603
    vertex 34.792893218813454 679.0000000002058 100.50000000136582
    vertex 34.792893218813454 679.0000000002061 100.00000000136575
  endloop
endfacet
facet normal 0.38805700005813837 0.9216353751380629 1.8069742892489522e-12
  outer loop
    vertex 73.82643755031587 686.0993947158404 111.1929238279326
    vertex 52.349445512686884 695.1423387317059 100.50000000139777
    vertex 55.35474344944411 693.8769501267329 111.77016426860011
  endloop
endfacet
facet normal 0.38805700005813837 0.9216353751380629 1.8069742892489522e-12
  outer loop
    vertex 52.349445512686884 695.1423387317059 100.50000000139777
    vertex 73.82643755031587 686.0993947158404 111.1929238279326
    vertex 80.00000000000021 683.5000000002055 100.50000000137476
  endloop
endfacet
facet normal 0.38805700005813837 0.9216353751380629 1.8069742892489522e-12
  outer loop
    vertex 52.349445512686884 695.1423387317059 100.50000000139777
    vertex 80.00000000000021 683.5000000002055 100.50000000137476
    vertex 52.349445512686884 695.1423387317056 100.0000000013978
  endloop
endfacet
facet normal 0.38805700005813837 0.9216353751380629 1.8069742892489522e-12
  outer loop
    vertex 52.349445512686884 695.1423387317056 100.0000000013978
    vertex 80.00000000000021 683.5000000002055 100.50000000137476
    vertex 80.00000000000021 683.5000000002055 100.0000000013746
  endloop
endfacet
facet normal -1.0 -0.0 0.0
  outer loop
    vertex 0.0 653.5000000002054 100.0000000013157
    vertex 0.0 653.0000000002051 100.50000000131465
    vertex 0.0 653.5000000002058 100.5000000013155
  endloop
endfacet
facet normal -1.0 -0.0 0.0
  outer loop
    vertex 0.0 653.0000000002051 100.50000000131465
    vertex 0.0 653.5000000002054 100.0000000013157
    vertex 0.0 603.5000000002054 100.00000000121712
  endloop
endfacet
facet normal -1.0 -0.0 0.0
  outer loop
    vertex 0.0 653.0000000002051 100.50000000131465
    vertex 0.0 603.5000000002054 100.00000000121712
    vertex 0.0 629.5000000002054 100.50000000126828
  endloop
endfacet
facet normal -1.0 -0.0 0.0
  outer loop
    vertex 0.0 629.5000000002054 100.50000000126828
    vertex 0.0 603.5000000002054 100.00000000121712
    vertex 0.0 629.0000000002058 100.50000000126724
  endloop
endfacet
facet normal -1.0 -0.0 0.0
  outer loop
    vertex 0.0 629.0000000002058 100.50000000126724
    vertex 0.0 603.5000000002054 100.00000000121712
    vertex 0.0 628.0000000002051 100.50000000126535
  endloop
endfacet
facet normal -1.0 -0.0 0.0
  outer loop
    vertex 0.0 628.0000000002051 100.50000000126535
    vertex 0.0 603.5000000002054 100.00000000121712
    vertex 0.0 603.5000000002051 100.50000000121719
  endloop
endfacet
facet normal 0.8660254037844454 -9.884124995910845e-13 0.49999999999998856
  outer loop
    vertex 79.68610202651348 652.6861020267166 101.04368723978669
    vertex 80.00000000000021 623.5000000002057 100.5000000012566
    vertex 80.00000000000021 653.0000000002051 100.50000000131465
  endloop
endfacet
facet normal 0.8660254037844454 -9.884124995910845e-13 0.49999999999998856
  outer loop
    vertex 80.00000000000021 623.5000000002057 100.5000000012566
    vertex 79.68610202651348 652.6861020267166 101.04368723978669
    vertex 79.54639865423754 648.1781125783331 101.28566057854806
  endloop
endfacet
facet normal 0.8660254037844454 -9.884124995910845e-13 0.49999999999998856
  outer loop
    vertex 80.00000000000021 623.5000000002057 100.5000000012566
    vertex 79.54639865423754 648.1781125783331 101.28566057854806
    vertex 79.54524751904951 648.1163602475259 101.28765440317972
  endloop
endfacet
facet normal 0.8660254037844454 -9.884124995910845e-13 0.49999999999998856
  outer loop
    vertex 80.00000000000021 623.5000000002057 100.5000000012566
    vertex 79.54524751904951 648.1163602475259 101.28765440317972
    vertex 79.05518079201254 642.854272119882 102.13647487349657
  endloop
endfacet
facet normal 0.8660254037844454 -9.884124995910845e-13 0.49999999999998856
  outer loop
    vertex 80.00000000000021 623.5000000002057 100.5000000012566
    vertex 79.05518079201254 642.854272119882 102.13647487349657
    vertex 79.04798750225125 642.7253530216415 102.1489340168365
  endloop
endfacet
facet normal 0.8660254037844454 -9.884124995910845e-13 0.49999999999998856
  outer loop
    vertex 80.00000000000021 623.5000000002057 100.5000000012566
    vertex 79.04798750225125 642.7253530216415 102.1489340168365
    vertex 78.24465178897663 637.5592151212539 103.54035228775237
  endloop
endfacet
facet normal 0.8660254037844454 -9.884124995910845e-13 0.49999999999998856
  outer loop
    vertex 80.00000000000021 623.5000000002057 100.5000000012566
    vertex 78.24465178897663 637.5592151212539 103.54035228775237
    vertex 78.22238699107913 637.3189060031224 103.57891604893115
  endloop
endfacet
facet normal 0.8660254037844454 -9.884124995910845e-13 0.49999999999998856
  outer loop
    vertex 80.00000000000021 623.5000000002057 100.5000000012566
    vertex 78.22238699107913 637.3189060031224 103.57891604893115
    vertex 77.12397239625663 632.2830069476287 105.48142593492885
  endloop
endfacet
facet normal 0.8660254037844454 -9.884124995910845e-13 0.49999999999998856
  outer loop
    vertex 80.00000000000021 623.5000000002057 100.5000000012566
    vertex 77.12397239625663 632.2830069476287 105.48142593492885
    vertex 77.07293878986842 631.8875316767316 105.56981873408546
  endloop
endfacet
facet normal 0.8660254037844454 -9.884124995910845e-13 0.49999999999998856
  outer loop
    vertex 80.00000000000021 623.5000000002057 100.5000000012566
    vertex 77.07293878986842 631.8875316767316 105.56981873408546
    vertex 75.70335578100286 627.0137601609102 107.9420060906139
  endloop
endfacet
facet normal 0.8660254037844454 -9.884124995910845e-13 0.49999999999998856
  outer loop
    vertex 80.00000000000021 623.5000000002057 100.5000000012566
    vertex 75.70335578100286 627.0137601609102 107.9420060906139
    vertex 75.60542716315781 626.4196034672012 108.11162343223604
  endloop
endfacet
facet normal -0.7071067811865422 0.7071067811865529 1.3928854452961213e-12
  outer loop
    vertex 52.349445512686884 695.1423387317056 100.0000000013978
    vertex 35.20710678118651 678.0000000002051 100.50000000136403
    vertex 52.349445512686884 695.1423387317059 100.50000000139777
  endloop
endfacet
facet normal -0.7071067811865422 0.7071067811865529 1.3928854452961213e-12
  outer loop
    vertex 35.20710678118651 678.0000000002051 100.50000000136403
    vertex 52.349445512686884 695.1423387317056 100.0000000013978
    vertex 35.20710678118651 678.0000000002054 100.00000000136404
  endloop
endfacet
facet normal 0.7071067811865372 -1.3935343504607589e-12 0.7071067811865579
  outer loop
    vertex 44.99999999999987 608.7631578949383 102.00000000122752
    vertex 41.201764792301965 610.1143016842252 105.79823520892799
    vertex 40.945074984605554 607.0558210463433 106.05492501661857
  endloop
endfacet
facet normal 0.7071067811865372 -1.3935343504607589e-12 0.7071067811865579
  outer loop
    vertex 41.201764792301965 610.1143016842252 105.79823520892799
    vertex 44.99999999999987 608.7631578949383 102.00000000122752
    vertex 42.033137579726514 613.0125333500497 104.96686242150946
  endloop
endfacet
facet normal 0.7071067811865372 -1.3935343504607589e-12 0.7071067811865579
  outer loop
    vertex 42.033137579726514 613.0125333500497 104.96686242150946
    vertex 44.99999999999987 608.7631578949383 102.00000000122752
    vertex 42.17224205658522 618.2039091219967 104.82775794466116
  endloop
endfacet
facet normal 0.7071067811865372 -1.3935343504607589e-12 0.7071067811865579
  outer loop
    vertex 42.17224205658522 618.2039091219967 104.82775794466116
    vertex 44.99999999999987 608.7631578949383 102.00000000122752
    vertex 42.3106733459099 618.8947273986112 104.6893266553375
  endloop
endfacet
facet normal 0.7071067811865372 -1.3935343504607589e-12 0.7071067811865579
  outer loop
    vertex 42.3106733459099 618.8947273986112 104.6893266553375
    vertex 44.99999999999987 608.7631578949383 102.00000000122752
    vertex 44.99999999999987 617.2244871460704 102.00000000124435
  endloop
endfacet
facet normal -0.7071067811865459 -0.7071067811865491 -1.3928854452961138e-12
  outer loop
    vertex 35.20710678118651 629.0000000002054 100.00000000126744
    vertex 52.349445512686884 611.8576612687051 100.50000000123367
    vertex 35.20710678118651 629.0000000002058 100.50000000126724
  endloop
endfacet
facet normal -0.7071067811865459 -0.7071067811865491 -1.3928854452961138e-12
  outer loop
    vertex 52.349445512686884 611.8576612687051 100.50000000123367
    vertex 35.20710678118651 629.0000000002054 100.00000000126744
    vertex 52.349445512686884 611.8576612687052 100.0000000012336
  endloop
endfacet
facet normal -0.0014284650110158155 0.032297190529372105 0.9994772888723495
  outer loop
    vertex 0.8507979397991448 642.6817451311052 101.35079794109343
    vertex 12.16535554600754 652.6861020267166 101.04368723978669
    vertex 0.5267369504386863 652.6958882800759 101.0267369517529
  endloop
endfacet
facet normal -0.0014284650110158155 0.032297190529372105 0.9994772888723495
  outer loop
    vertex 12.16535554600754 652.6861020267166 101.04368723978669
    vertex 0.8507979397991448 642.6817451311052 101.35079794109343
    vertex 79.54524751904951 648.1163602475259 101.28765440317972
  endloop
endfacet
facet normal -0.0014284650110158155 0.032297190529372105 0.9994772888723495
  outer loop
    vertex 12.16535554600754 652.6861020267166 101.04368723978669
    vertex 79.54524751904951 648.1163602475259 101.28765440317972
    vertex 79.54639865423754 648.1781125783331 101.28566057854806
  endloop
endfacet
facet normal 1.455615333284389e-15 0.8660254037834426 0.5000000000017253
  outer loop
    vertex 35.20710678118651 678.0000000002051 100.50000000136403
    vertex 5.79347331498894 676.6738932601553 102.79688425137826
    vertex 34.61272790690064 676.2704510386048 103.49566667701998
  endloop
endfacet
facet normal 1.455615333284389e-15 0.8660254037834426 0.5000000000017253
  outer loop
    vertex 5.79347331498894 676.6738932601553 102.79688425137826
    vertex 35.20710678118651 678.0000000002051 100.50000000136403
    vertex 6.125000000000051 678.0000000002051 100.50000000136403
  endloop
endfacet
facet normal 1.0 0.0 0.0
  outer loop
    vertex 44.99999999999987 617.7928932190185 100.50000000124544
    vertex 44.99999999999987 608.7631578949422 100.0000000012275
    vertex 44.99999999999987 617.7928932190189 100.00000000124547
  endloop
endfacet
facet normal 1.0 0.0 0.0
  outer loop
    vertex 44.99999999999987 608.7631578949422 100.0000000012275
    vertex 44.99999999999987 617.7928932190185 100.50000000124544
    vertex 44.99999999999987 617.2244871460704 102.00000000124435
  endloop
endfacet
facet normal 1.0 0.0 0.0
  outer loop
    vertex 44.99999999999987 608.7631578949422 100.0000000012275
    vertex 44.99999999999987 617.2244871460704 102.00000000124435
    vertex 44.99999999999987 608.7631578949383 102.00000000122752
  endloop
endfacet
facet normal 0.0 -1.9698374875698473e-12 1.0
  outer loop
    vertex 34.792893218813454 628.0000000002051 100.50000000126535
    vertex 0.0 629.0000000002058 100.50000000126724
    vertex 0.0 628.0000000002051 100.50000000126535
  endloop
endfacet
facet normal 0.0 -1.9698374875698473e-12 1.0
  outer loop
    vertex 0.0 629.0000000002058 100.50000000126724
    vertex 34.792893218813454 628.0000000002051 100.50000000126535
    vertex 35.20710678118651 629.0000000002058 100.50000000126724
  endloop
endfacet
facet normal 1.4591549190439435e-17 0.05359939492165516 0.9985625192565725
  outer loop
    vertex 79.68610202651348 652.6861020267166 101.04368723978669
    vertex 12.16535554600754 652.6861020267166 101.04368723978669
    vertex 79.54639865423754 648.1781125783331 101.28566057854806
  endloop
endfacet
facet normal 2.995172639278902e-16 -0.8660254037854224 0.4999999999982961
  outer loop
    vertex 29.232845973270322 680.7133855307676 103.46767079326789
    vertex 34.792893218813454 679.0000000002058 100.50000000136582
    vertex 35.474321543719874 680.9828491604385 103.93439549065157
  endloop
endfacet
facet normal 2.995172639278902e-16 -0.8660254037854224 0.4999999999982961
  outer loop
    vertex 34.792893218813454 679.0000000002058 100.50000000136582
    vertex 29.232845973270322 680.7133855307676 103.46767079326789
    vertex 6.722541324459334 680.3901652980367 102.90783692814098
  endloop
endfacet
facet normal 2.995172639278902e-16 -0.8660254037854224 0.4999999999982961
  outer loop
    vertex 34.792893218813454 679.0000000002058 100.50000000136582
    vertex 6.722541324459334 680.3901652980367 102.90783692814098
    vertex 6.374999999999994 679.0000000002058 100.50000000136582
  endloop
endfacet
facet normal 1.6729318610582218e-16 0.8660254037834546 0.5000000000017042
  outer loop
    vertex 34.792893218813454 628.0000000002051 100.50000000126535
    vertex 29.232845973270322 626.2866144696302 103.46767079316055
    vertex 35.474321543719874 626.0171508399578 103.93439549054331
  endloop
endfacet
facet normal 1.6729318610582218e-16 0.8660254037834546 0.5000000000017042
  outer loop
    vertex 29.232845973270322 626.2866144696302 103.46767079316055
    vertex 34.792893218813454 628.0000000002051 100.50000000126535
    vertex 2.2977929252726423 626.6733686362518 102.79779292653569
  endloop
endfacet
facet normal 1.6729318610582218e-16 0.8660254037834546 0.5000000000017042
  outer loop
    vertex 2.2977929252726423 626.6733686362518 102.79779292653569
    vertex 34.792893218813454 628.0000000002051 100.50000000126535
    vertex 0.0 628.0000000002051 100.50000000126535
  endloop
endfacet
facet normal 0.38805700005813965 -0.9216353751380626 -1.8062745237194563e-12
  outer loop
    vertex 32.50000000000019 603.5000000001949 105.39448522457344
    vertex 44.99999999999987 608.7631578949383 102.00000000122752
    vertex 40.945074984605554 607.0558210463433 106.05492501661857
  endloop
endfacet
facet normal 0.38805700005813965 -0.9216353751380626 -1.8062745237194563e-12
  outer loop
    vertex 44.99999999999987 608.7631578949383 102.00000000122752
    vertex 32.50000000000019 603.5000000001949 105.39448522457344
    vertex 32.50000000000019 603.5000000002054 100.00000000121712
  endloop
endfacet
facet normal 0.38805700005813965 -0.9216353751380626 -1.8062745237194563e-12
  outer loop
    vertex 44.99999999999987 608.7631578949383 102.00000000122752
    vertex 32.50000000000019 603.5000000002054 100.00000000121712
    vertex 44.99999999999987 608.7631578949422 100.0000000012275
  endloop
endfacet
facet normal -0.06923670882216923 -0.11306026775543847 0.991172867872473
  outer loop
    vertex 29.232845973270322 680.7133855307676 103.46767079326789
    vertex 8.012541660199178 685.550166640998 102.53708008266388
    vertex 7.885632000426067 685.0425280019042 102.47031012783086
  endloop
endfacet
facet normal -0.06923670882216923 -0.11306026775543847 0.991172867872473
  outer loop
    vertex 8.012541660199178 685.550166640998 102.53708008266388
    vertex 29.232845973270322 680.7133855307676 103.46767079326789
    vertex 36.15767704835687 681.715982279032 104.06575654481833
  endloop
endfacet
facet normal -0.06923670882216923 -0.11306026775543847 0.991172867872473
  outer loop
    vertex 36.15767704835687 681.715982279032 104.06575654481833
    vertex 29.232845973270322 680.7133855307676 103.46767079326789
    vertex 35.474321543719874 680.9828491604385 103.93439549065157
  endloop
endfacet
facet normal 0.9238795325112994 -0.3826834323650592 -7.538241743327256e-13
  outer loop
    vertex 34.792893218813454 628.0000000002051 100.50000000126535
    vertex 35.20710678118651 629.0000000002054 100.00000000126744
    vertex 35.20710678118651 629.0000000002058 100.50000000126724
  endloop
endfacet
facet normal 0.9238795325112994 -0.3826834323650592 -7.538241743327256e-13
  outer loop
    vertex 35.20710678118651 629.0000000002054 100.00000000126744
    vertex 34.792893218813454 628.0000000002051 100.50000000126535
    vertex 34.792893218813454 628.0000000002054 100.00000000126538
  endloop
endfacet
facet normal -0.17393814534188493 -0.3173110612354545 0.9322334536008967
  outer loop
    vertex 42.033137579726514 693.9874666503416 104.96686242166909
    vertex 17.524691261241944 703.5000000001984 103.63187316467499
    vertex 14.28204172273068 703.5000000001996 103.02685256115207
  endloop
endfacet
facet normal -0.17393814534188493 -0.3173110612354545 0.9322334536008967
  outer loop
    vertex 17.524691261241944 703.5000000001984 103.63187316467499
    vertex 42.033137579726514 693.9874666503416 104.96686242166909
    vertex 41.201764792301965 696.8856983161628 105.79823520909903
  endloop
endfacet
facet normal 0.7071067811865464 -1.396814136571409e-12 0.7071067811865488
  outer loop
    vertex 41.201764792301965 696.8856983161628 105.79823520909903
    vertex 44.99999999999987 698.2368421054648 102.00000000140389
    vertex 40.94507498460591 699.9441789540441 106.05492501680128
  endloop
endfacet
facet normal 0.7071067811865464 -1.396814136571409e-12 0.7071067811865488
  outer loop
    vertex 44.99999999999987 698.2368421054648 102.00000000140389
    vertex 41.201764792301965 696.8856983161628 105.79823520909903
    vertex 42.033137579726514 693.9874666503416 104.96686242166909
  endloop
endfacet
facet normal 0.7071067811865464 -1.396814136571409e-12 0.7071067811865488
  outer loop
    vertex 44.99999999999987 698.2368421054648 102.00000000140389
    vertex 42.033137579726514 693.9874666503416 104.96686242166909
    vertex 42.17224205658522 688.7960908783963 104.82775794480017
  endloop
endfacet
facet normal 0.7071067811865464 -1.396814136571409e-12 0.7071067811865488
  outer loop
    vertex 44.99999999999987 698.2368421054648 102.00000000140389
    vertex 42.17224205658522 688.7960908783963 104.82775794480017
    vertex 42.3106733459099 688.1052726017815 104.68932665547412
  endloop
endfacet
facet normal 0.7071067811865464 -1.396814136571409e-12 0.7071067811865488
  outer loop
    vertex 44.99999999999987 698.2368421054648 102.00000000140389
    vertex 42.3106733459099 688.1052726017815 104.68932665547412
    vertex 44.99999999999987 689.7755128543329 102.00000000138705
  endloop
endfacet
facet normal -0.026173748142777925 -0.1000828711465048 0.9946347841349762
  outer loop
    vertex 29.232845973270322 626.2866144696302 103.46767079316055
    vertex 2.2977929252726423 626.6733686362518 102.79779292653569
    vertex 1.6803960287232995 620.6990712243888 102.1803960299743
  endloop
endfacet
facet normal -0.04935969619809414 0.03562844908846252 0.9981453972276699
  outer loop
    vertex 36.15767704835687 681.715982279032 104.06575654481833
    vertex 10.303290117526602 694.7131604703081 102.32329097757126
    vertex 8.012541660199178 685.550166640998 102.53708008266388
  endloop
endfacet
facet normal -0.04935969619809414 0.03562844908846252 0.9981453972276699
  outer loop
    vertex 10.303290117526602 694.7131604703081 102.32329097757126
    vertex 36.15767704835687 681.715982279032 104.06575654481833
    vertex 40.82388126466077 686.406186562472 104.12909172440584
  endloop
endfacet
facet normal -0.026173748142778706 0.10008287114258729 0.9946347841353703
  outer loop
    vertex 29.232845973270322 680.7133855307676 103.46767079326789
    vertex 7.885632000426067 685.0425280019042 102.47031012783086
    vertex 6.722541324459334 680.3901652980367 102.90783692814098
  endloop
endfacet
facet normal -0.11654656472882005 -0.21754339208548215 0.9690674748488123
  outer loop
    vertex 40.82388126466077 686.406186562472 104.12909172440584
    vertex 10.463399705775327 695.3535988233019 102.48631714274845
    vertex 10.303290117526602 694.7131604703081 102.32329097757126
  endloop
endfacet
facet normal -0.11654656472882005 -0.21754339208548215 0.9690674748488123
  outer loop
    vertex 10.463399705775327 695.3535988233019 102.48631714274845
    vertex 40.82388126466077 686.406186562472 104.12909172440584
    vertex 42.17224205658522 688.7960908783963 104.82775794480017
  endloop
endfacet
facet normal -0.11654656472882005 -0.21754339208548215 0.9690674748488123
  outer loop
    vertex 42.17224205658522 688.7960908783963 104.82775794480017
    vertex 40.82388126466077 686.406186562472 104.12909172440584
    vertex 42.3106733459099 688.1052726017815 104.68932665547412
  endloop
endfacet
facet normal -0.07953940325017664 -0.028830514561571645 0.9964147152469803
  outer loop
    vertex 42.17224205658522 688.7960908783963 104.82775794480017
    vertex 12.500000000000044 703.5000000002 102.88460001005667
    vertex 10.463399705775327 695.3535988233019 102.48631714274845
  endloop
endfacet
facet normal -0.07953940325017664 -0.028830514561571645 0.9964147152469803
  outer loop
    vertex 12.500000000000044 703.5000000002 102.88460001005667
    vertex 42.17224205658522 688.7960908783963 104.82775794480017
    vertex 14.28204172273068 703.5000000001996 103.02685256115207
  endloop
endfacet
facet normal -0.07953940325017664 -0.028830514561571645 0.9964147152469803
  outer loop
    vertex 14.28204172273068 703.5000000001996 103.02685256115207
    vertex 42.17224205658522 688.7960908783963 104.82775794480017
    vertex 42.033137579726514 693.9874666503416 104.96686242166909
  endloop
endfacet
facet normal -0.010269568312112624 -0.1601737960534872 0.987035405152469
  outer loop
    vertex 79.54524751904951 658.8836397528805 101.28765440320093
    vertex 2.7172652807378084 664.3690611231546 101.37846224199164
    vertex 2.673101777968435 664.1924071120754 101.349335745109
  endloop
endfacet
facet normal -0.010269568312112624 -0.1601737960534872 0.987035405152469
  outer loop
    vertex 2.7172652807378084 664.3690611231546 101.37846224199164
    vertex 79.54524751904951 658.8836397528805 101.28765440320093
    vertex 79.05518079201218 664.1457278805204 102.13647487353838
  endloop
endfacet
facet normal -0.026173748142778105 -0.16075779504988605 0.9866467788620493
  outer loop
    vertex 78.24465178897663 669.4407848791436 103.54035228781513
    vertex 5.79347331498894 676.6738932601553 102.79688425137826
    vertex 5.328952674461308 674.8158106980467 102.48181759468059
  endloop
endfacet
facet normal -0.026173748142778105 -0.16075779504988605 0.9866467788620493
  outer loop
    vertex 5.79347331498894 676.6738932601553 102.79688425137826
    vertex 78.24465178897663 669.4407848791436 103.54035228781513
    vertex 34.61272790690064 676.2704510386048 103.49566667701998
  endloop
endfacet
facet normal -0.026173748142778105 -0.16075779504988605 0.9866467788620493
  outer loop
    vertex 34.61272790690064 676.2704510386048 103.49566667701998
    vertex 78.24465178897663 669.4407848791436 103.54035228781513
    vertex 36.78794040350416 678.2985775816575 103.88382039463322
  endloop
endfacet
facet normal -0.026173748142778105 -0.16075779504988605 0.9866467788620493
  outer loop
    vertex 36.78794040350416 678.2985775816575 103.88382039463322
    vertex 78.24465178897663 669.4407848791436 103.54035228781513
    vertex 78.22238699107876 669.6810939972755 103.57891604899469
  endloop
endfacet
facet normal -0.07953940325017106 -0.2857392437265303 0.955000820902892
  outer loop
    vertex 75.70335578100286 679.9862398394702 107.94200609071851
    vertex 49.86643319737493 689.5682959807962 108.65710083838508
    vertex 46.259193890697176 686.4306477346147 107.41786954886796
  endloop
endfacet
facet normal -0.07953940325017106 -0.2857392437265303 0.955000820902892
  outer loop
    vertex 49.86643319737493 689.5682959807962 108.65710083838508
    vertex 75.70335578100286 679.9862398394702 107.94200609071851
    vertex 75.60542716315744 680.5803965331785 108.11162343234277
  endloop
endfacet
facet normal -0.11639030097740773 -0.34553645271660705 0.9311594158265344
  outer loop
    vertex 73.99357149404034 685.2629881107499 110.90343934573065
    vertex 55.35474344944411 693.8769501267329 111.77016426860011
    vertex 52.57001307816333 691.5511639769452 110.55902954466232
  endloop
endfacet
facet normal -0.11639030097740773 -0.34553645271660705 0.9311594158265344
  outer loop
    vertex 55.35474344944411 693.8769501267329 111.77016426860011
    vertex 73.99357149404034 685.2629881107499 110.90343934573065
    vertex 73.82643755031587 686.0993947158404 111.1929238279326
  endloop
endfacet
facet normal -0.11654656472881976 -0.46094389923417384 0.8797429283652737
  outer loop
    vertex 77.07293878986842 675.1124683236584 105.56981873417074
    vertex 46.259193890697176 686.4306477346147 107.41786954886796
    vertex 43.69508929873169 684.3986976503542 106.01353592269955
  endloop
endfacet
facet normal -0.11654656472881976 -0.46094389923417384 0.8797429283652737
  outer loop
    vertex 46.259193890697176 686.4306477346147 107.41786954886796
    vertex 77.07293878986842 675.1124683236584 105.56981873417074
    vertex 75.70335578100286 679.9862398394702 107.94200609071851
  endloop
endfacet
facet normal -0.0014284650110155416 -0.03229719053331236 0.9994772888722221
  outer loop
    vertex 12.16535554600754 654.3138979736909 101.04368723978978
    vertex 2.673101777968435 664.1924071120754 101.349335745109
    vertex 0.20095944808237504 654.3038377925328 101.02626249489023
  endloop
endfacet
facet normal -0.0014284650110155416 -0.03229719053331236 0.9994772888722221
  outer loop
    vertex 2.673101777968435 664.1924071120754 101.349335745109
    vertex 12.16535554600754 654.3138979736909 101.04368723978978
    vertex 79.54524751904951 658.8836397528805 101.28765440320093
  endloop
endfacet
facet normal -0.0014284650110155416 -0.03229719053331236 0.9994772888722221
  outer loop
    vertex 79.54524751904951 658.8836397528805 101.28765440320093
    vertex 12.16535554600754 654.3138979736909 101.04368723978978
    vertex 79.54639865423717 658.821887422074 101.2856605785691
  endloop
endfacet
facet normal -0.06923670882216768 -0.3657422477464146 0.9281373208555266
  outer loop
    vertex 78.22238699107876 669.6810939972755 103.57891604899469
    vertex 39.10161451677769 680.2547459061384 104.82726331108537
    vertex 36.78794040350416 678.2985775816575 103.88382039463322
  endloop
endfacet
facet normal -0.06923670882216768 -0.3657422477464146 0.9281373208555266
  outer loop
    vertex 39.10161451677769 680.2547459061384 104.82726331108537
    vertex 78.22238699107876 669.6810939972755 103.57891604899469
    vertex 77.12397239625628 674.7169930527612 105.48142593501248
  endloop
endfacet
facet normal -0.010165656186440955 0.0967519125498146 0.9952566135687078
  outer loop
    vertex 1.8983196084783174 632.0539395872844 102.39831960975165
    vertex 79.05518079201254 642.854272119882 102.13647487349657
    vertex 0.8600203549386776 642.6255053449257 101.36002035623297
  endloop
endfacet
facet normal -0.010165656186440955 0.0967519125498146 0.9952566135687078
  outer loop
    vertex 79.05518079201254 642.854272119882 102.13647487349657
    vertex 1.8983196084783174 632.0539395872844 102.39831960975165
    vertex 79.04798750225125 642.7253530216415 102.1489340168365
  endloop
endfacet
facet normal -0.0493596961980928 -0.2239245994587677 0.9733557387453278
  outer loop
    vertex 77.12397239625628 674.7169930527612 105.48142593501248
    vertex 43.69508929873169 684.3986976503542 106.01353592269955
    vertex 39.10161451677769 680.2547459061384 104.82726331108537
  endloop
endfacet
facet normal -0.0493596961980928 -0.2239245994587677 0.9733557387453278
  outer loop
    vertex 43.69508929873169 684.3986976503542 106.01353592269955
    vertex 77.12397239625628 674.7169930527612 105.48142593501248
    vertex 77.07293878986842 675.1124683236584 105.56981873417074
  endloop
endfacet
facet normal -0.0335087607034143 0.2647755687331508 0.9637276903556097
  outer loop
    vertex 1.93251062950726 631.9338184781608 102.43251063078034
    vertex 79.04798750225125 642.7253530216415 102.1489340168365
    vertex 1.8983196084783174 632.0539395872844 102.39831960975165
  endloop
endfacet
facet normal -0.0335087607034143 0.2647755687331508 0.9637276903556097
  outer loop
    vertex 79.04798750225125 642.7253530216415 102.1489340168365
    vertex 1.93251062950726 631.9338184781608 102.43251063078034
    vertex 78.24465178897663 637.5592151212539 103.54035228775237
  endloop
endfacet
facet normal -0.04935969619809548 0.2239245994549447 0.9733557387462072
  outer loop
    vertex 43.69508929873205 622.6013023500333 106.0135359225777
    vertex 77.12397239625663 632.2830069476287 105.48142593492885
    vertex 39.101614516777325 626.7452540942539 104.82726331097993
  endloop
endfacet
facet normal -0.04935969619809548 0.2239245994549447 0.9733557387462072
  outer loop
    vertex 77.12397239625663 632.2830069476287 105.48142593492885
    vertex 43.69508929873205 622.6013023500333 106.0135359225777
    vertex 77.07293878986842 631.8875316767316 105.56981873408546
  endloop
endfacet
facet normal -0.0692367088221671 0.3657422477427543 0.928137320856969
  outer loop
    vertex 39.101614516777325 626.7452540942539 104.82726331097993
    vertex 78.22238699107913 637.3189060031224 103.57891604893115
    vertex 36.787940403503804 628.701422418739 103.8838203945356
  endloop
endfacet
facet normal -0.0692367088221671 0.3657422477427543 0.928137320856969
  outer loop
    vertex 78.22238699107913 637.3189060031224 103.57891604893115
    vertex 39.101614516777325 626.7452540942539 104.82726331097993
    vertex 77.12397239625663 632.2830069476287 105.48142593492885
  endloop
endfacet
facet normal -0.11654656472882093 0.4609438992307114 0.8797429283670877
  outer loop
    vertex 46.259193890697176 620.5693522657673 107.4178695487385
    vertex 77.07293878986842 631.8875316767316 105.56981873408546
    vertex 43.69508929873205 622.6013023500333 106.0135359225777
  endloop
endfacet
facet normal -0.11654656472882093 0.4609438992307114 0.8797429283670877
  outer loop
    vertex 77.07293878986842 631.8875316767316 105.56981873408546
    vertex 46.259193890697176 620.5693522657673 107.4178695487385
    vertex 75.70335578100286 627.0137601609102 107.9420060906139
  endloop
endfacet
facet normal -0.033508760703414 -0.26477556873694835 0.9637276903545663
  outer loop
    vertex 79.04798750225089 664.2746469787618 102.14893401687893
    vertex 5.328952674461308 674.8158106980467 102.48181759468059
    vertex 5.245759845647023 674.4830393827895 102.38749904001112
  endloop
endfacet
facet normal -0.033508760703414 -0.26477556873694835 0.9637276903545663
  outer loop
    vertex 5.328952674461308 674.8158106980467 102.48181759468059
    vertex 79.04798750225089 664.2746469787618 102.14893401687893
    vertex 78.24465178897663 669.4407848791436 103.54035228781513
  endloop
endfacet
facet normal -0.11639030097740358 0.09276079275693144 0.9888623428796827
  outer loop
    vertex 32.50000000000019 603.5000000001949 105.39448522457344
    vertex 41.201764792301965 610.1143016842252 105.79823520892799
    vertex 17.524691261241582 603.5000000001983 103.63187316447792
  endloop
endfacet
facet normal -0.11639030097740358 0.09276079275693144 0.9888623428796827
  outer loop
    vertex 41.201764792301965 610.1143016842252 105.79823520892799
    vertex 32.50000000000019 603.5000000001949 105.39448522457344
    vertex 40.945074984605554 607.0558210463433 106.05492501661857
  endloop
endfacet
facet normal -0.026173748142778137 0.16075779504599494 0.9866467788626833
  outer loop
    vertex 2.209995417786527 630.2759414495673 102.70999541905643
    vertex 78.24465178897663 637.5592151212539 103.54035228775237
    vertex 1.93251062950726 631.9338184781608 102.43251063078034
  endloop
endfacet
facet normal -0.026173748142778137 0.16075779504599494 0.9866467788626833
  outer loop
    vertex 78.24465178897663 637.5592151212539 103.54035228775237
    vertex 2.209995417786527 630.2759414495673 102.70999541905643
    vertex 34.61272790690064 630.7295489617933 103.49566667693014
  endloop
endfacet
facet normal -0.026173748142778137 0.16075779504599494 0.9866467788626833
  outer loop
    vertex 78.24465178897663 637.5592151212539 103.54035228775237
    vertex 34.61272790690064 630.7295489617933 103.49566667693014
    vertex 36.787940403503804 628.701422418739 103.8838203945356
  endloop
endfacet
facet normal -0.026173748142778137 0.16075779504599494 0.9866467788626833
  outer loop
    vertex 78.24465178897663 637.5592151212539 103.54035228775237
    vertex 36.787940403503804 628.701422418739 103.8838203945356
    vertex 78.22238699107913 637.3189060031224 103.57891604893115
  endloop
endfacet
facet normal -0.17393814534188398 -0.5477787212881351 0.8183422230943246
  outer loop
    vertex 75.60542716315744 680.5803965331785 108.11162343234277
    vertex 52.57001307816333 691.5511639769452 110.55902954466232
    vertex 49.86643319737493 689.5682959807962 108.65710083838508
  endloop
endfacet
facet normal -0.17393814534188398 -0.5477787212881351 0.8183422230943246
  outer loop
    vertex 52.57001307816333 691.5511639769452 110.55902954466232
    vertex 75.60542716315744 680.5803965331785 108.11162343234277
    vertex 73.99357149404034 685.2629881107499 110.90343934573065
  endloop
endfacet
facet normal -0.07953940325015912 0.2857392437227579 0.9550008209040216
  outer loop
    vertex 49.86643319737493 617.4317040195812 108.65710083824315
    vertex 75.70335578100286 627.0137601609102 107.9420060906139
    vertex 46.259193890697176 620.5693522657673 107.4178695487385
  endloop
endfacet
facet normal -0.07953940325015912 0.2857392437227579 0.9550008209040216
  outer loop
    vertex 75.70335578100286 627.0137601609102 107.9420060906139
    vertex 49.86643319737493 617.4317040195812 108.65710083824315
    vertex 75.60542716315781 626.4196034672012 108.11162343223604
  endloop
endfacet
facet normal -0.010269568312112875 0.16017379604959947 0.9870354051531001
  outer loop
    vertex 0.8600203549386776 642.6255053449257 101.36002035623297
    vertex 79.54524751904951 648.1163602475259 101.28765440317972
    vertex 0.8507979397991448 642.6817451311052 101.35079794109343
  endloop
endfacet
facet normal -0.010269568312112875 0.16017379604959947 0.9870354051531001
  outer loop
    vertex 79.54524751904951 648.1163602475259 101.28765440317972
    vertex 0.8600203549386776 642.6255053449257 101.36002035623297
    vertex 79.05518079201254 642.854272119882 102.13647487349657
  endloop
endfacet
facet normal 0.0 -1.9698374875698473e-12 1.0
  outer loop
    vertex 80.00000000000021 653.0000000002051 100.50000000131465
    vertex 0.0 653.5000000002058 100.5000000013155
    vertex 0.0 653.0000000002051 100.50000000131465
  endloop
endfacet
facet normal 0.0 -1.9698374875698473e-12 1.0
  outer loop
    vertex 0.0 653.5000000002058 100.5000000013155
    vertex 80.00000000000021 653.0000000002051 100.50000000131465
    vertex 0.12499999999997156 654.0000000002058 100.50000000131652
  endloop
endfacet
facet normal 0.0 -1.9698374875698473e-12 1.0
  outer loop
    vertex 0.12499999999997156 654.0000000002058 100.50000000131652
    vertex 80.00000000000021 653.0000000002051 100.50000000131465
    vertex 80.00000000000021 654.0000000002058 100.50000000131652
  endloop
endfacet
facet normal -0.6830127018922169 0.6830127018917118 0.2588190451038671
  outer loop
    vertex 52.349445512686884 695.1423387317059 100.50000000139777
    vertex 49.86643319737493 689.5682959807962 108.65710083838508
    vertex 55.35474344944411 693.8769501267329 111.77016426860011
  endloop
endfacet
facet normal -0.6830127018922169 0.6830127018917118 0.2588190451038671
  outer loop
    vertex 49.86643319737493 689.5682959807962 108.65710083838508
    vertex 52.349445512686884 695.1423387317059 100.50000000139777
    vertex 35.20710678118651 678.0000000002051 100.50000000136403
  endloop
endfacet
facet normal -0.6830127018922169 0.6830127018917118 0.2588190451038671
  outer loop
    vertex 55.35474344944411 693.8769501267329 111.77016426860011
    vertex 49.86643319737493 689.5682959807962 108.65710083838508
    vertex 52.57001307816333 691.5511639769452 110.55902954466232
  endloop
endfacet
facet normal -0.6830127018922169 0.6830127018917118 0.2588190451038671
  outer loop
    vertex 49.86643319737493 689.5682959807962 108.65710083838508
    vertex 35.20710678118651 678.0000000002051 100.50000000136403
    vertex 46.259193890697176 686.4306477346147 107.41786954886796
  endloop
endfacet
facet normal -0.6830127018922169 0.6830127018917118 0.2588190451038671
  outer loop
    vertex 46.259193890697176 686.4306477346147 107.41786954886796
    vertex 35.20710678118651 678.0000000002051 100.50000000136403
    vertex 43.69508929873169 684.3986976503542 106.01353592269955
  endloop
endfacet
facet normal -0.6830127018922169 0.6830127018917118 0.2588190451038671
  outer loop
    vertex 43.69508929873169 684.3986976503542 106.01353592269955
    vertex 35.20710678118651 678.0000000002051 100.50000000136403
    vertex 39.10161451677769 680.2547459061384 104.82726331108537
  endloop
endfacet
facet normal -0.6830127018922169 0.6830127018917118 0.2588190451038671
  outer loop
    vertex 39.10161451677769 680.2547459061384 104.82726331108537
    vertex 35.20710678118651 678.0000000002051 100.50000000136403
    vertex 36.78794040350416 678.2985775816575 103.88382039463322
  endloop
endfacet
facet normal -0.6830127018922169 0.6830127018917118 0.2588190451038671
  outer loop
    vertex 36.78794040350416 678.2985775816575 103.88382039463322
    vertex 35.20710678118651 678.0000000002051 100.50000000136403
    vertex 34.61272790690064 676.2704510386048 103.49566667701998
  endloop
endfacet
facet normal -1.172483600288271e-16 0.8660254037834768 0.5000000000016659
  outer loop
    vertex 80.00000000000021 653.0000000002051 100.50000000131465
    vertex 12.16535554600754 652.6861020267166 101.04368723978669
    vertex 79.68610202651348 652.6861020267166 101.04368723978669
  endloop
endfacet
facet normal -1.172483600288271e-16 0.8660254037834768 0.5000000000016659
  outer loop
    vertex 12.16535554600754 652.6861020267166 101.04368723978669
    vertex 80.00000000000021 653.0000000002051 100.50000000131465
    vertex 0.5267369504386863 652.6958882800759 101.0267369517529
  endloop
endfacet
facet normal -1.172483600288271e-16 0.8660254037834768 0.5000000000016659
  outer loop
    vertex 0.5267369504386863 652.6958882800759 101.0267369517529
    vertex 80.00000000000021 653.0000000002051 100.50000000131465
    vertex 0.0 653.0000000002051 100.50000000131465
  endloop
endfacet
facet normal 2.1203645617333476e-16 -0.8660254037854177 0.4999999999983043
  outer loop
    vertex 0.20095944808237504 654.3038377925328 101.02626249489023
    vertex 79.68610202651276 654.3138979736909 101.04368723978978
    vertex 12.16535554600754 654.3138979736909 101.04368723978978
  endloop
endfacet
facet normal 2.1203645617333476e-16 -0.8660254037854177 0.4999999999983043
  outer loop
    vertex 79.68610202651276 654.3138979736909 101.04368723978978
    vertex 0.20095944808237504 654.3038377925328 101.02626249489023
    vertex 80.00000000000021 654.0000000002058 100.50000000131652
  endloop
endfacet
facet normal 2.1203645617333476e-16 -0.8660254037854177 0.4999999999983043
  outer loop
    vertex 80.00000000000021 654.0000000002058 100.50000000131652
    vertex 0.20095944808237504 654.3038377925328 101.02626249489023
    vertex 0.12499999999997156 654.0000000002058 100.50000000131652
  endloop
endfacet
facet normal -0.010165656186440606 -0.09675191255373657 0.9952566135683265
  outer loop
    vertex 79.05518079201218 664.1457278805204 102.13647487353838
    vertex 5.245759845647023 674.4830393827895 102.38749904001112
    vertex 2.7172652807378084 664.3690611231546 101.37846224199164
  endloop
endfacet
facet normal -0.010165656186440606 -0.09675191255373657 0.9952566135683265
  outer loop
    vertex 5.245759845647023 674.4830393827895 102.38749904001112
    vertex 79.05518079201218 664.1457278805204 102.13647487353838
    vertex 79.04798750225089 664.2746469787618 102.14893401687893
  endloop
endfacet
facet normal -0.6830127018922323 -0.6830127018927411 0.2588190451011101
  outer loop
    vertex 55.35474344944411 613.1230498736325 111.77016426844098
    vertex 54.07550980684118 612.5844251820199 106.97291168594874
    vertex 58.65529807391604 610.5903375512225 113.7964681872772
  endloop
endfacet
facet normal -0.6830127018922323 -0.6830127018927411 0.2588190451011101
  outer loop
    vertex 54.07550980684118 612.5844251820199 106.97291168594874
    vertex 55.35474344944411 613.1230498736325 111.77016426844098
    vertex 52.57001307816333 615.4488360234241 110.55902954451257
  endloop
endfacet
facet normal -0.6830127018922323 -0.6830127018927411 0.2588190451011101
  outer loop
    vertex 54.07550980684118 612.5844251820199 106.97291168594874
    vertex 52.57001307816333 615.4488360234241 110.55902954451257
    vertex 49.86643319737493 617.4317040195812 108.65710083824315
  endloop
endfacet
facet normal -0.6830127018922323 -0.6830127018927411 0.2588190451011101
  outer loop
    vertex 54.07550980684118 612.5844251820199 106.97291168594874
    vertex 49.86643319737493 617.4317040195812 108.65710083824315
    vertex 46.259193890697176 620.5693522657673 107.4178695487385
  endloop
endfacet
facet normal -0.6830127018922323 -0.6830127018927411 0.2588190451011101
  outer loop
    vertex 54.07550980684118 612.5844251820199 106.97291168594874
    vertex 46.259193890697176 620.5693522657673 107.4178695487385
    vertex 43.69508929873205 622.6013023500333 106.0135359225777
  endloop
endfacet
facet normal -0.6830127018922323 -0.6830127018927411 0.2588190451011101
  outer loop
    vertex 54.07550980684118 612.5844251820199 106.97291168594874
    vertex 43.69508929873205 622.6013023500333 106.0135359225777
    vertex 52.349445512686884 611.8576612687051 100.50000000123367
  endloop
endfacet
facet normal -0.6830127018922323 -0.6830127018927411 0.2588190451011101
  outer loop
    vertex 52.349445512686884 611.8576612687051 100.50000000123367
    vertex 43.69508929873205 622.6013023500333 106.0135359225777
    vertex 39.101614516777325 626.7452540942539 104.82726331097993
  endloop
endfacet
facet normal -0.6830127018922323 -0.6830127018927411 0.2588190451011101
  outer loop
    vertex 52.349445512686884 611.8576612687051 100.50000000123367
    vertex 39.101614516777325 626.7452540942539 104.82726331097993
    vertex 36.787940403503804 628.701422418739 103.8838203945356
  endloop
endfacet
facet normal -0.6830127018922323 -0.6830127018927411 0.2588190451011101
  outer loop
    vertex 52.349445512686884 611.8576612687051 100.50000000123367
    vertex 36.787940403503804 628.701422418739 103.8838203945356
    vertex 34.61272790690064 630.7295489617933 103.49566667693014
  endloop
endfacet
facet normal -0.6830127018922323 -0.6830127018927411 0.2588190451011101
  outer loop
    vertex 52.349445512686884 611.8576612687051 100.50000000123367
    vertex 34.61272790690064 630.7295489617933 103.49566667693014
    vertex 35.20710678118651 629.0000000002058 100.50000000126724
  endloop
endfacet
facet normal 0.707106781186545 0.7071067811865501 1.3928854452961156e-12
  outer loop
    vertex 44.99999999999987 617.7928932190185 100.50000000124544
    vertex 34.792893218813454 628.0000000002054 100.00000000126538
    vertex 34.792893218813454 628.0000000002051 100.50000000126535
  endloop
endfacet
facet normal 0.707106781186545 0.7071067811865501 1.3928854452961156e-12
  outer loop
    vertex 34.792893218813454 628.0000000002054 100.00000000126538
    vertex 44.99999999999987 617.7928932190185 100.50000000124544
    vertex 44.99999999999987 617.7928932190189 100.00000000124547
  endloop
endfacet
facet normal -0.06923670882216827 0.11306026775152936 0.9911728678729189
  outer loop
    vertex 1.6938883933285835 620.5890493834028 102.19388839457916
    vertex 29.232845973270322 626.2866144696302 103.46767079316055
    vertex 1.6803960287232995 620.6990712243888 102.1803960299743
  endloop
endfacet
facet normal -0.06923670882216827 0.11306026775152936 0.9911728678729189
  outer loop
    vertex 29.232845973270322 626.2866144696302 103.46767079316055
    vertex 1.6938883933285835 620.5890493834028 102.19388839457916
    vertex 36.15767704835687 625.2840177213629 104.06575654470704
  endloop
endfacet
facet normal -0.06923670882216827 0.11306026775152936 0.9911728678729189
  outer loop
    vertex 29.232845973270322 626.2866144696302 103.46767079316055
    vertex 36.15767704835687 625.2840177213629 104.06575654470704
    vertex 35.474321543719874 626.0171508399578 103.93439549054331
  endloop
endfacet
facet normal -0.07953940325017149 0.02883051455762525 0.996414715247095
  outer loop
    vertex 1.5070838748542315 603.5000000002019 102.00708387607132
    vertex 42.17224205658522 618.2039091219967 104.82775794466116
    vertex 1.3104457345504157 609.7535358456712 101.8104457357796
  endloop
endfacet
facet normal -0.07953940325017149 0.02883051455762525 0.996414715247095
  outer loop
    vertex 42.17224205658522 618.2039091219967 104.82775794466116
    vertex 1.5070838748542315 603.5000000002019 102.00708387607132
    vertex 14.282041722730499 603.5000000001997 103.02685256095492
  endloop
endfacet
facet normal -0.07953940325017149 0.02883051455762525 0.996414715247095
  outer loop
    vertex 42.17224205658522 618.2039091219967 104.82775794466116
    vertex 14.282041722730499 603.5000000001997 103.02685256095492
    vertex 42.033137579726514 613.0125333500497 104.96686242150946
  endloop
endfacet
facet normal 0.6830127018922146 -0.6830127018927308 0.2588190451011837
  outer loop
    vertex 40.82388126466077 686.406186562472 104.12909172440584
    vertex 44.99999999999987 689.7755128543329 102.00000000138705
    vertex 42.3106733459099 688.1052726017815 104.68932665547412
  endloop
endfacet
facet normal 0.6830127018922146 -0.6830127018927308 0.2588190451011837
  outer loop
    vertex 44.99999999999987 689.7755128543329 102.00000000138705
    vertex 40.82388126466077 686.406186562472 104.12909172440584
    vertex 36.15767704835687 681.715982279032 104.06575654481833
  endloop
endfacet
facet normal 0.6830127018922146 -0.6830127018927308 0.2588190451011837
  outer loop
    vertex 44.99999999999987 689.7755128543329 102.00000000138705
    vertex 36.15767704835687 681.715982279032 104.06575654481833
    vertex 35.474321543719874 680.9828491604385 103.93439549065157
  endloop
endfacet
facet normal 0.6830127018922146 -0.6830127018927308 0.2588190451011837
  outer loop
    vertex 44.99999999999987 689.7755128543329 102.00000000138705
    vertex 35.474321543719874 680.9828491604385 103.93439549065157
    vertex 34.792893218813454 679.0000000002058 100.50000000136582
  endloop
endfacet
facet normal 0.6830127018922146 -0.6830127018927308 0.2588190451011837
  outer loop
    vertex 44.99999999999987 689.7755128543329 102.00000000138705
    vertex 34.792893218813454 679.0000000002058 100.50000000136582
    vertex 44.99999999999987 689.2071067813921 100.50000000138591
  endloop
endfacet
facet normal -0.11654656472881908 0.21754339208166143 0.9690674748496702
  outer loop
    vertex 1.3104457345504157 609.7535358456712 101.8104457357796
    vertex 40.82388126466077 620.5938134379232 104.12909172427638
    vertex 1.290005217536236 609.8336392586089 101.79000521876597
  endloop
endfacet
facet normal -0.11654656472881908 0.21754339208166143 0.9690674748496702
  outer loop
    vertex 40.82388126466077 620.5938134379232 104.12909172427638
    vertex 1.3104457345504157 609.7535358456712 101.8104457357796
    vertex 42.17224205658522 618.2039091219967 104.82775794466116
  endloop
endfacet
facet normal -0.11654656472881908 0.21754339208166143 0.9690674748496702
  outer loop
    vertex 40.82388126466077 620.5938134379232 104.12909172427638
    vertex 42.17224205658522 618.2039091219967 104.82775794466116
    vertex 42.3106733459099 618.8947273986112 104.6893266553375
  endloop
endfacet
facet normal -0.04935969619809511 -0.035628449092389124 0.9981453972275296
  outer loop
    vertex 40.82388126466077 620.5938134379232 104.12909172427638
    vertex 1.6938883933285835 620.5890493834028 102.19388839457916
    vertex 1.290005217536236 609.8336392586089 101.79000521876597
  endloop
endfacet
facet normal -0.04935969619809511 -0.035628449092389124 0.9981453972275296
  outer loop
    vertex 1.6938883933285835 620.5890493834028 102.19388839457916
    vertex 40.82388126466077 620.5938134379232 104.12909172427638
    vertex 36.15767704835687 625.2840177213629 104.06575654470704
  endloop
endfacet
facet normal -0.1739381453418795 0.31731106123178127 0.9322334536021479
  outer loop
    vertex 17.524691261241582 603.5000000001983 103.63187316447792
    vertex 42.033137579726514 613.0125333500497 104.96686242150946
    vertex 14.282041722730499 603.5000000001997 103.02685256095492
  endloop
endfacet
facet normal -0.1739381453418795 0.31731106123178127 0.9322334536021479
  outer loop
    vertex 42.033137579726514 613.0125333500497 104.96686242150946
    vertex 17.524691261241582 603.5000000001983 103.63187316447792
    vertex 41.201764792301965 610.1143016842252 105.79823520892799
  endloop
endfacet
facet normal 1.0 0.0 0.0
  outer loop
    vertex 80.00000000000021 654.5000000002052 100.50000000131756
    vertex 80.00000000000021 683.5000000002055 100.0000000013746
    vertex 80.00000000000021 683.5000000002055 100.50000000137476
  endloop
endfacet
facet normal 1.0 0.0 0.0
  outer loop
    vertex 80.00000000000021 683.5000000002055 100.0000000013746
    vertex 80.00000000000021 654.5000000002052 100.50000000131756
    vertex 80.00000000000021 623.5000000002054 100.0000000012568
  endloop
endfacet
facet normal 1.0 0.0 0.0
  outer loop
    vertex 80.00000000000021 623.5000000002054 100.0000000012568
    vertex 80.00000000000021 654.5000000002052 100.50000000131756
    vertex 80.00000000000021 654.0000000002058 100.50000000131652
  endloop
endfacet
facet normal 1.0 0.0 0.0
  outer loop
    vertex 80.00000000000021 623.5000000002054 100.0000000012568
    vertex 80.00000000000021 654.0000000002058 100.50000000131652
    vertex 80.00000000000021 653.0000000002051 100.50000000131465
  endloop
endfacet
facet normal 1.0 0.0 0.0
  outer loop
    vertex 80.00000000000021 623.5000000002054 100.0000000012568
    vertex 80.00000000000021 653.0000000002051 100.50000000131465
    vertex 80.00000000000021 623.5000000002057 100.5000000012566
  endloop
endfacet
facet normal -0.9701425001453317 0.24253562503633366 5.148776130885201e-13
  outer loop
    vertex 12.500000000000044 703.5000000002057 100.00000000141428
    vertex 6.374999999999994 679.0000000002058 100.50000000136582
    vertex 12.500000000000044 703.5000000002 102.88460001005667
  endloop
endfacet
facet normal -0.9701425001453317 0.24253562503633366 5.148776130885201e-13
  outer loop
    vertex 6.374999999999994 679.0000000002058 100.50000000136582
    vertex 12.500000000000044 703.5000000002057 100.00000000141428
    vertex 0.0 653.5000000002054 100.0000000013157
  endloop
endfacet
facet normal -0.9701425001453317 0.24253562503633366 5.148776130885201e-13
  outer loop
    vertex 12.500000000000044 703.5000000002 102.88460001005667
    vertex 6.374999999999994 679.0000000002058 100.50000000136582
    vertex 10.303290117526602 694.7131604703081 102.32329097757126
  endloop
endfacet
facet normal -0.9701425001453317 0.24253562503633366 5.148776130885201e-13
  outer loop
    vertex 12.500000000000044 703.5000000002 102.88460001005667
    vertex 10.303290117526602 694.7131604703081 102.32329097757126
    vertex 10.463399705775327 695.3535988233019 102.48631714274845
  endloop
endfacet
facet normal -0.9701425001453317 0.24253562503633366 5.148776130885201e-13
  outer loop
    vertex 10.303290117526602 694.7131604703081 102.32329097757126
    vertex 6.374999999999994 679.0000000002058 100.50000000136582
    vertex 8.012541660199178 685.550166640998 102.53708008266388
  endloop
endfacet
facet normal -0.9701425001453317 0.24253562503633366 5.148776130885201e-13
  outer loop
    vertex 8.012541660199178 685.550166640998 102.53708008266388
    vertex 6.374999999999994 679.0000000002058 100.50000000136582
    vertex 7.885632000426067 685.0425280019042 102.47031012783086
  endloop
endfacet
facet normal -0.9701425001453317 0.24253562503633366 5.148776130885201e-13
  outer loop
    vertex 7.885632000426067 685.0425280019042 102.47031012783086
    vertex 6.374999999999994 679.0000000002058 100.50000000136582
    vertex 6.722541324459334 680.3901652980367 102.90783692814098
  endloop
endfacet
facet normal -0.9701425001453317 0.24253562503633366 5.148776130885201e-13
  outer loop
    vertex 6.374999999999994 679.0000000002058 100.50000000136582
    vertex 0.0 653.5000000002054 100.0000000013157
    vertex 6.125000000000051 678.0000000002051 100.50000000136403
  endloop
endfacet
facet normal -0.9701425001453317 0.24253562503633366 5.148776130885201e-13
  outer loop
    vertex 6.125000000000051 678.0000000002051 100.50000000136403
    vertex 0.0 653.5000000002054 100.0000000013157
    vertex 5.245759845647023 674.4830393827895 102.38749904001112
  endloop
endfacet
facet normal -0.9701425001453317 0.24253562503633366 5.148776130885201e-13
  outer loop
    vertex 6.125000000000051 678.0000000002051 100.50000000136403
    vertex 5.245759845647023 674.4830393827895 102.38749904001112
    vertex 5.79347331498894 676.6738932601553 102.79688425137826
  endloop
endfacet
facet normal -0.9701425001453317 0.24253562503633366 5.148776130885201e-13
  outer loop
    vertex 5.79347331498894 676.6738932601553 102.79688425137826
    vertex 5.245759845647023 674.4830393827895 102.38749904001112
    vertex 5.328952674461308 674.8158106980467 102.48181759468059
  endloop
endfacet
facet normal -0.9701425001453317 0.24253562503633366 5.148776130885201e-13
  outer loop
    vertex 5.245759845647023 674.4830393827895 102.38749904001112
    vertex 0.0 653.5000000002054 100.0000000013157
    vertex 2.673101777968435 664.1924071120754 101.349335745109
  endloop
endfacet
facet normal -0.9701425001453317 0.24253562503633366 5.148776130885201e-13
  outer loop
    vertex 5.245759845647023 674.4830393827895 102.38749904001112
    vertex 2.673101777968435 664.1924071120754 101.349335745109
    vertex 2.7172652807378084 664.3690611231546 101.37846224199164
  endloop
endfacet
facet normal -0.9701425001453317 0.24253562503633366 5.148776130885201e-13
  outer loop
    vertex 2.673101777968435 664.1924071120754 101.349335745109
    vertex 0.0 653.5000000002054 100.0000000013157
    vertex 0.12499999999997156 654.0000000002058 100.50000000131652
  endloop
endfacet
facet normal -0.9701425001453317 0.24253562503633366 5.148776130885201e-13
  outer loop
    vertex 2.673101777968435 664.1924071120754 101.349335745109
    vertex 0.12499999999997156 654.0000000002058 100.50000000131652
    vertex 0.20095944808237504 654.3038377925328 101.02626249489023
  endloop
endfacet
facet normal -0.9701425001453317 0.24253562503633366 5.148776130885201e-13
  outer loop
    vertex 0.12499999999997156 654.0000000002058 100.50000000131652
    vertex 0.0 653.5000000002054 100.0000000013157
    vertex 0.0 653.5000000002058 100.5000000013155
  endloop
endfacet
facet normal 0.0 -1.9698374875698473e-12 1.0
  outer loop
    vertex 35.20710678118651 678.0000000002051 100.50000000136403
    vertex 6.374999999999994 679.0000000002058 100.50000000136582
    vertex 6.125000000000051 678.0000000002051 100.50000000136403
  endloop
endfacet
facet normal 0.0 -1.9698374875698473e-12 1.0
  outer loop
    vertex 6.374999999999994 679.0000000002058 100.50000000136582
    vertex 35.20710678118651 678.0000000002051 100.50000000136403
    vertex 34.792893218813454 679.0000000002058 100.50000000136582
  endloop
endfacet
facet normal -9.664179674374581e-15 -1.0 -1.9730778403772656e-12
  outer loop
    vertex 17.524691261241582 603.5000000001983 103.63187316447792
    vertex 32.50000000000019 603.5000000002054 100.00000000121712
    vertex 32.50000000000019 603.5000000001949 105.39448522457344
  endloop
endfacet
facet normal -9.664179674374581e-15 -1.0 -1.9730778403772656e-12
  outer loop
    vertex 32.50000000000019 603.5000000002054 100.00000000121712
    vertex 17.524691261241582 603.5000000001983 103.63187316447792
    vertex 14.282041722730499 603.5000000001997 103.02685256095492
  endloop
endfacet
facet normal -9.664179674374581e-15 -1.0 -1.9730778403772656e-12
  outer loop
    vertex 32.50000000000019 603.5000000002054 100.00000000121712
    vertex 14.282041722730499 603.5000000001997 103.02685256095492
    vertex 1.5070838748542315 603.5000000002019 102.00708387607132
  endloop
endfacet
facet normal -9.664179674374581e-15 -1.0 -1.9730778403772656e-12
  outer loop
    vertex 32.50000000000019 603.5000000002054 100.00000000121712
    vertex 1.5070838748542315 603.5000000002019 102.00708387607132
    vertex 0.0 603.5000000002051 100.50000000121719
  endloop
endfacet
facet normal -9.664179674374581e-15 -1.0 -1.9730778403772656e-12
  outer loop
    vertex 32.50000000000019 603.5000000002054 100.00000000121712
    vertex 0.0 603.5000000002051 100.50000000121719
    vertex 0.0 603.5000000002054 100.00000000121712
  endloop
endfacet
facet normal 2.8837746739570675e-13 1.0 8.080375933656634e-13
  outer loop
    vertex 32.50000000000019 703.5000000001953 100.00000000141428
    vertex 17.524691261241944 703.5000000001984 103.63187316467499
    vertex 32.50000000000055 703.5000000001946 105.3944852247704
  endloop
endfacet
facet normal 2.8837746739570675e-13 1.0 8.080375933656634e-13
  outer loop
    vertex 17.524691261241944 703.5000000001984 103.63187316467499
    vertex 32.50000000000019 703.5000000001953 100.00000000141428
    vertex 14.28204172273068 703.5000000001996 103.02685256115207
  endloop
endfacet
facet normal 2.8837746739570675e-13 1.0 8.080375933656634e-13
  outer loop
    vertex 14.28204172273068 703.5000000001996 103.02685256115207
    vertex 32.50000000000019 703.5000000001953 100.00000000141428
    vertex 12.500000000000044 703.5000000002 102.88460001005667
  endloop
endfacet
facet normal 2.8837746739570675e-13 1.0 8.080375933656634e-13
  outer loop
    vertex 12.500000000000044 703.5000000002 102.88460001005667
    vertex 32.50000000000019 703.5000000001953 100.00000000141428
    vertex 12.500000000000044 703.5000000002057 100.00000000141428
  endloop
endfacet
facet normal 0.3880570000578279 0.9216353751381936 1.0511649065170129e-12
  outer loop
    vertex 44.99999999999987 698.2368421054648 102.00000000140389
    vertex 32.50000000000055 703.5000000001946 105.3944852247704
    vertex 40.94507498460591 699.9441789540441 106.05492501680128
  endloop
endfacet
facet normal 0.3880570000578279 0.9216353751381936 1.0511649065170129e-12
  outer loop
    vertex 32.50000000000055 703.5000000001946 105.3944852247704
    vertex 44.99999999999987 698.2368421054648 102.00000000140389
    vertex 32.50000000000019 703.5000000001953 100.00000000141428
  endloop
endfacet
facet normal 0.3880570000578279 0.9216353751381936 1.0511649065170129e-12
  outer loop
    vertex 32.50000000000019 703.5000000001953 100.00000000141428
    vertex 44.99999999999987 698.2368421054648 102.00000000140389
    vertex 44.99999999999987 698.2368421054687 100.00000000140398
  endloop
endfacet
facet normal -0.17087601422692256 0.4700976951584418 0.8659154374236792
  outer loop
    vertex 58.65529807391604 610.5903375512225 113.7964681872772
    vertex 75.66894427594757 621.6763975900562 111.13534549262977
    vertex 55.35474344944411 613.1230498736325 111.77016426844098
  endloop
endfacet
facet normal -0.17087601422692256 0.4700976951584418 0.8659154374236792
  outer loop
    vertex 75.66894427594757 621.6763975900562 111.13534549262977
    vertex 58.65529807391604 610.5903375512225 113.7964681872772
    vertex 69.33581485110065 605.9399290271166 118.42878018004028
  endloop
endfacet
facet normal -0.17087601422692256 0.4700976951584418 0.8659154374236792
  outer loop
    vertex 75.66894427594757 621.6763975900562 111.13534549262977
    vertex 69.33581485110065 605.9399290271166 118.42878018004028
    vertex 82.93980959793514 612.2175001282694 117.70529694037661
  endloop
endfacet
facet normal 0.31789465640851144 -0.7549998089691364 -0.5735139718293548
  outer loop
    vertex 54.07550980684118 612.5844251820336 100.00000000123525
    vertex 83.33529127608512 611.7675481244748 117.29385976113717
    vertex 70.0409935156189 605.6328868735495 118.00087279604325
  endloop
endfacet
facet normal 0.31789465640851144 -0.7549998089691364 -0.5735139718293548
  outer loop
    vertex 83.33529127608512 611.7675481244748 117.29385976113717
    vertex 54.07550980684118 612.5844251820336 100.00000000123525
    vertex 80.00000000000021 623.5000000002054 100.0000000012568
  endloop
endfacet
facet normal -0.17393814534187899 0.5477787212849121 0.818342223096483
  outer loop
    vertex 52.57001307816333 615.4488360234241 110.55902954451257
    vertex 75.60542716315781 626.4196034672012 108.11162343223604
    vertex 49.86643319737493 617.4317040195812 108.65710083824315
  endloop
endfacet
facet normal -0.17393814534187899 0.5477787212849121 0.818342223096483
  outer loop
    vertex 75.60542716315781 626.4196034672012 108.11162343223604
    vertex 52.57001307816333 615.4488360234241 110.55902954451257
    vertex 75.55257750928637 622.194606459578 110.92850226658213
  endloop
endfacet
facet normal 0.9618877486999491 0.2734446176119463 -8.797119636113963e-14
  outer loop
    vertex 83.33529127608512 611.7675481244748 117.29385976113717
    vertex 80.00000000000021 623.5000000002054 100.0000000012568
    vertex 80.00000000000021 623.5000000002057 100.5000000012566
  endloop
endfacet
facet normal 0.8211483553005441 0.531398293009063 0.20816155450578677
  outer loop
    vertex 83.33529127608512 611.7675481244748 117.29385976113717
    vertex 80.00000000000021 623.5000000002057 100.5000000012566
    vertex 82.93980959793514 612.2175001282694 117.70529694037661
  endloop
endfacet
facet normal 0.2764336295600084 -0.50480597360728 0.8177746495573744
  outer loop
    vertex 70.0409935156189 605.6328868735495 118.00087279604325
    vertex 82.93980959793514 612.2175001282694 117.70529694037661
    vertex 69.33581485110065 605.9399290271166 118.42878018004028
  endloop
endfacet
facet normal 0.2764336295600084 -0.50480597360728 0.8177746495573744
  outer loop
    vertex 82.93980959793514 612.2175001282694 117.70529694037661
    vertex 70.0409935156189 605.6328868735495 118.00087279604325
    vertex 83.33529127608512 611.7675481244748 117.29385976113717
  endloop
endfacet
facet normal -0.11639030097740397 0.3455364527129207 0.9311594158279027
  outer loop
    vertex 55.35474344944411 613.1230498736325 111.77016426844098
    vertex 75.55257750928637 622.194606459578 110.92850226658213
    vertex 52.57001307816333 615.4488360234241 110.55902954451257
  endloop
endfacet
facet normal -0.11639030097740397 0.3455364527129207 0.9311594158279027
  outer loop
    vertex 75.55257750928637 622.194606459578 110.92850226658213
    vertex 55.35474344944411 613.1230498736325 111.77016426844098
    vertex 75.66894427594757 621.6763975900562 111.13534549262977
  endloop
endfacet
facet normal 0.8760898075249964 0.25982727983115855 0.40614829041417294
  outer loop
    vertex 75.55257750928637 622.194606459578 110.92850226658213
    vertex 80.00000000000021 623.5000000002057 100.5000000012566
    vertex 75.60542716315781 626.4196034672012 108.11162343223604
  endloop
endfacet
facet normal 0.59768284349577 0.7134545903658064 0.3657290883656515
  outer loop
    vertex 80.00000000000021 623.5000000002057 100.5000000012566
    vertex 75.66894427594757 621.6763975900562 111.13534549262977
    vertex 82.93980959793514 612.2175001282694 117.70529694037661
  endloop
endfacet
facet normal 0.8446649620456931 0.35099433109927547 0.4041584855332372
  outer loop
    vertex 75.66894427594757 621.6763975900562 111.13534549262977
    vertex 80.00000000000021 623.5000000002057 100.5000000012566
    vertex 75.55257750928637 622.194606459578 110.92850226658213
  endloop
endfacet
facet normal -0.3992101743890265 -0.916859442152549 -1.809227005264219e-12
  outer loop
    vertex 58.65529807391604 610.5903375512225 113.7964681872772
    vertex 70.0409935156189 605.6328868735495 118.00087279604325
    vertex 69.33581485110065 605.9399290271166 118.42878018004028
  endloop
endfacet
facet normal -0.3992101743890265 -0.916859442152549 -1.809227005264219e-12
  outer loop
    vertex 70.0409935156189 605.6328868735495 118.00087279604325
    vertex 58.65529807391604 610.5903375512225 113.7964681872772
    vertex 54.07550980684118 612.5844251820336 100.00000000123525
  endloop
endfacet
facet normal -0.3992101743890265 -0.916859442152549 -1.809227005264219e-12
  outer loop
    vertex 54.07550980684118 612.5844251820336 100.00000000123525
    vertex 58.65529807391604 610.5903375512225 113.7964681872772
    vertex 54.07550980684118 612.5844251820199 106.97291168594874
  endloop
endfacet
facet normal 7.124227418598535e-16 1.970369940607422e-12 -1.0
  outer loop
    vertex 12.500000000000044 703.5000000002057 100.00000000141428
    vertex 0.0 603.5000000002054 100.00000000121712
    vertex 0.0 653.5000000002054 100.0000000013157
  endloop
endfacet
facet normal 7.124227418598535e-16 1.970369940607422e-12 -1.0
  outer loop
    vertex 0.0 603.5000000002054 100.00000000121712
    vertex 12.500000000000044 703.5000000002057 100.00000000141428
    vertex 32.50000000000019 603.5000000002054 100.00000000121712
  endloop
endfacet
facet normal 7.124227418598535e-16 1.970369940607422e-12 -1.0
  outer loop
    vertex 32.50000000000019 603.5000000002054 100.00000000121712
    vertex 12.500000000000044 703.5000000002057 100.00000000141428
    vertex 32.50000000000019 703.5000000001953 100.00000000141428
  endloop
endfacet
facet normal 7.124227418598535e-16 1.970369940607422e-12 -1.0
  outer loop
    vertex 32.50000000000019 603.5000000002054 100.00000000121712
    vertex 32.50000000000019 703.5000000001953 100.00000000141428
    vertex 34.792893218813454 679.0000000002061 100.00000000136575
  endloop
endfacet
facet normal 7.124227418598535e-16 1.970369940607422e-12 -1.0
  outer loop
    vertex 34.792893218813454 679.0000000002061 100.00000000136575
    vertex 32.50000000000019 703.5000000001953 100.00000000141428
    vertex 44.99999999999987 698.2368421054687 100.00000000140398
  endloop
endfacet
facet normal 7.124227418598535e-16 1.970369940607422e-12 -1.0
  outer loop
    vertex 34.792893218813454 679.0000000002061 100.00000000136575
    vertex 44.99999999999987 698.2368421054687 100.00000000140398
    vertex 44.99999999999987 689.2071067813924 100.00000000138603
  endloop
endfacet
facet normal 7.124227418598535e-16 1.970369940607422e-12 -1.0
  outer loop
    vertex 35.20710678118651 678.0000000002054 100.00000000136404
    vertex 34.792893218813454 628.0000000002054 100.00000000126538
    vertex 34.792893218813454 679.0000000002061 100.00000000136575
  endloop
endfacet
facet normal 7.124227418598535e-16 1.970369940607422e-12 -1.0
  outer loop
    vertex 34.792893218813454 628.0000000002054 100.00000000126538
    vertex 35.20710678118651 678.0000000002054 100.00000000136404
    vertex 35.20710678118651 629.0000000002054 100.00000000126744
  endloop
endfacet
facet normal 7.124227418598535e-16 1.970369940607422e-12 -1.0
  outer loop
    vertex 35.20710678118651 629.0000000002054 100.00000000126744
    vertex 35.20710678118651 678.0000000002054 100.00000000136404
    vertex 52.349445512686884 695.1423387317056 100.0000000013978
  endloop
endfacet
facet normal 7.124227418598535e-16 1.970369940607422e-12 -1.0
  outer loop
    vertex 35.20710678118651 629.0000000002054 100.00000000126744
    vertex 52.349445512686884 695.1423387317056 100.0000000013978
    vertex 52.349445512686884 611.8576612687052 100.0000000012336
  endloop
endfacet
facet normal 7.124227418598535e-16 1.970369940607422e-12 -1.0
  outer loop
    vertex 52.349445512686884 611.8576612687052 100.0000000012336
    vertex 52.349445512686884 695.1423387317056 100.0000000013978
    vertex 80.00000000000021 683.5000000002055 100.0000000013746
  endloop
endfacet
facet normal 7.124227418598535e-16 1.970369940607422e-12 -1.0
  outer loop
    vertex 52.349445512686884 611.8576612687052 100.0000000012336
    vertex 80.00000000000021 683.5000000002055 100.0000000013746
    vertex 54.07550980684118 612.5844251820336 100.00000000123525
  endloop
endfacet
facet normal 7.124227418598535e-16 1.970369940607422e-12 -1.0
  outer loop
    vertex 54.07550980684118 612.5844251820336 100.00000000123525
    vertex 80.00000000000021 683.5000000002055 100.0000000013746
    vertex 80.00000000000021 623.5000000002054 100.0000000012568
  endloop
endfacet
facet normal 7.124227418598535e-16 1.970369940607422e-12 -1.0
  outer loop
    vertex 32.50000000000019 603.5000000002054 100.00000000121712
    vertex 34.792893218813454 628.0000000002054 100.00000000126538
    vertex 44.99999999999987 608.7631578949422 100.0000000012275
  endloop
endfacet
facet normal 7.124227418598535e-16 1.970369940607422e-12 -1.0
  outer loop
    vertex 34.792893218813454 628.0000000002054 100.00000000126538
    vertex 32.50000000000019 603.5000000002054 100.00000000121712
    vertex 34.792893218813454 679.0000000002061 100.00000000136575
  endloop
endfacet
facet normal 7.124227418598535e-16 1.970369940607422e-12 -1.0
  outer loop
    vertex 44.99999999999987 608.7631578949422 100.0000000012275
    vertex 34.792893218813454 628.0000000002054 100.00000000126538
    vertex 44.99999999999987 617.7928932190189 100.00000000124547
  endloop
endfacet
endsolid ProtoGlove baseplate
