solid ProtoGlove baseplate
facet normal 0.866025403784501 9.84919709810551e-13 0.4999999999998919
  outer loop
    vertex 261.39567144700015 -269.716506350551 301.5000000004438
    vertex 261.97302171618963 -269.49999999960687 300.5000000004433
    vertex 261.39567144700015 -245.55375241272455 301.50000000039614
  endloop
endfacet
facet normal 0.866025403784501 9.84919709810551e-13 0.4999999999998919
  outer loop
    vertex 261.97302171618963 -244.97640214353697 300.50000000039495
    vertex 261.39567144700015 -245.55375241272455 301.50000000039614
    vertex 261.97302171618963 -269.49999999960687 300.5000000004433
  endloop
endfacet
facet normal 0.866025403784501 9.849186791325542e-13 0.4999999999998919
  outer loop
    vertex 261.97302171618963 -243.97640214353683 300.500000000393
    vertex 261.97302171618963 -219.4999999996069 300.5000000003448
    vertex 261.39567144700015 -243.3990518743453 301.50000000039194
  endloop
endfacet
facet normal 0.866025403784501 9.849186791325542e-13 0.4999999999998919
  outer loop
    vertex 261.39567144700015 -219.2834936486588 301.50000000034447
    vertex 261.39567144700015 -243.3990518743453 301.50000000039194
    vertex 261.97302171618963 -219.4999999996069 300.5000000003448
  endloop
endfacet
facet normal 0.35112344158839764 -0.9363291775690424 1.844416314680944e-12
  outer loop
    vertex 221.97302171618932 -284.4999999996054 301.5000000004729
    vertex 221.97302171618932 -284.4999999996083 300.0000000004728
    vertex 234.47302171618938 -279.81249999960517 301.50000000046373
  endloop
endfacet
facet normal 0.35112344158839764 -0.9363291775690424 1.844416314680944e-12
  outer loop
    vertex 234.47302171618938 -279.8124999996081 300.0000000004637
    vertex 234.47302171618938 -279.81249999960517 301.50000000046373
    vertex 221.97302171618932 -284.4999999996083 300.0000000004728
  endloop
endfacet
facet normal -0.9701425001453314 -0.2425356250363348 4.2188157635075274e-13
  outer loop
    vertex 201.97302171618955 -284.4999999996083 300.0000000004728
    vertex 201.97302171618955 -284.49999999960727 300.5000000004728
    vertex 191.97302171618966 -244.49999999960838 300.00000000039404
  endloop
endfacet
facet normal -0.9701425001453314 -0.2425356250363348 4.2188157635075274e-13
  outer loop
    vertex 197.09802171618958 -264.9999999996072 300.5000000004345
    vertex 191.97302171618966 -244.49999999960838 300.00000000039404
    vertex 201.97302171618955 -284.49999999960727 300.5000000004728
  endloop
endfacet
facet normal -0.9701425001453314 -0.2425356250363348 4.2188157635075274e-13
  outer loop
    vertex 196.84802171618963 -263.99999999960727 300.5000000004326
    vertex 191.97302171618966 -244.49999999960838 300.00000000039404
    vertex 197.09802171618958 -264.9999999996072 300.5000000004345
  endloop
endfacet
facet normal -0.9701425001453314 -0.2425356250363348 4.2188157635075274e-13
  outer loop
    vertex 192.09212225217198 -244.97640214353697 300.50000000039495
    vertex 191.97302171618966 -244.49999999960838 300.00000000039404
    vertex 196.84802171618963 -263.99999999960727 300.5000000004326
  endloop
endfacet
facet normal -0.9701425001453314 -0.2425356250363348 4.2188157635075274e-13
  outer loop
    vertex 191.97302171618966 -244.49999999960735 300.50000000039404
    vertex 191.97302171618966 -244.49999999960838 300.00000000039404
    vertex 192.09212225217198 -244.97640214353697 300.50000000039495
  endloop
endfacet
facet normal 0.9238795325112996 0.382683432365059 -8.094007106807582e-13
  outer loop
    vertex 227.18012849737616 -224.99999999960832 300.0000000003556
    vertex 226.7659149350031 -223.99999999960835 300.0000000003537
    vertex 227.18012849737616 -224.99999999960727 300.50000000035567
  endloop
endfacet
facet normal 0.9238795325112996 0.382683432365059 -8.094007106807582e-13
  outer loop
    vertex 226.7659149350031 -223.99999999960733 300.5000000003537
    vertex 227.18012849737616 -224.99999999960727 300.50000000035567
    vertex 226.7659149350031 -223.99999999960835 300.0000000003537
  endloop
endfacet
facet normal 0.0 1.0 -1.9698374875698473e-12
  outer loop
    vertex 192.97302171618944 -204.49999999960517 301.50000000031525
    vertex 221.97302171618932 -204.49999999960517 301.50000000031525
    vertex 191.97302171618966 -204.49999999960724 300.50000000031525
  endloop
endfacet
facet normal 0.0 1.0 -1.9698374875698473e-12
  outer loop
    vertex 221.97302171618932 -204.4999999996083 300.00000000031525
    vertex 191.97302171618966 -204.49999999960724 300.50000000031525
    vertex 221.97302171618932 -204.49999999960517 301.50000000031525
  endloop
endfacet
facet normal 0.0 1.0 -1.9698374875698473e-12
  outer loop
    vertex 191.97302171618966 -204.4999999996083 300.00000000031525
    vertex 191.97302171618966 -204.49999999960724 300.50000000031525
    vertex 221.97302171618932 -204.4999999996083 300.00000000031525
  endloop
endfacet
facet normal 1.0028179974510035e-18 -1.9698344047665104e-12 -1.0
  outer loop
    vertex 191.97302171618966 -244.49999999960838 300.00000000039404
    vertex 191.97302171618966 -204.4999999996083 300.00000000031525
    vertex 201.97302171618955 -284.4999999996083 300.0000000004728
  endloop
endfacet
facet normal 1.0028179974510035e-18 -1.9698344047665104e-12 -1.0
  outer loop
    vertex 221.97302171618932 -204.4999999996083 300.00000000031525
    vertex 201.97302171618955 -284.4999999996083 300.0000000004728
    vertex 191.97302171618966 -204.4999999996083 300.00000000031525
  endloop
endfacet
facet normal 1.0028179974510035e-18 -1.9698344047665104e-12 -1.0
  outer loop
    vertex 221.97302171618932 -284.4999999996083 300.0000000004728
    vertex 201.97302171618955 -284.4999999996083 300.0000000004728
    vertex 221.97302171618932 -204.4999999996083 300.00000000031525
  endloop
endfacet
facet normal 1.0028179974510035e-18 -1.9698344047665104e-12 -1.0
  outer loop
    vertex 226.7659149350031 -264.99999999960824 300.0000000004345
    vertex 221.97302171618932 -284.4999999996083 300.0000000004728
    vertex 221.97302171618932 -204.4999999996083 300.00000000031525
  endloop
endfacet
facet normal 1.0028179974510035e-18 -1.9698344047665104e-12 -1.0
  outer loop
    vertex 234.47302171618938 -279.8124999996081 300.0000000004637
    vertex 221.97302171618932 -284.4999999996083 300.0000000004728
    vertex 226.7659149350031 -264.99999999960824 300.0000000004345
  endloop
endfacet
facet normal 1.0028179974510035e-18 -1.9698344047665104e-12 -1.0
  outer loop
    vertex 234.47302171618938 -272.70710678079485 300.0000000004497
    vertex 234.47302171618938 -279.8124999996081 300.0000000004637
    vertex 226.7659149350031 -264.99999999960824 300.0000000004345
  endloop
endfacet
facet normal 1.0028179974510035e-18 -1.9698344047665104e-12 -1.0
  outer loop
    vertex 226.7659149350031 -264.99999999960824 300.0000000004345
    vertex 226.7659149350031 -223.99999999960835 300.0000000003537
    vertex 227.18012849737616 -263.9999999996083 300.0000000004326
  endloop
endfacet
facet normal 1.0028179974510035e-18 -1.9698344047665104e-12 -1.0
  outer loop
    vertex 227.18012849737616 -224.99999999960832 300.0000000003556
    vertex 227.18012849737616 -263.9999999996083 300.0000000004326
    vertex 226.7659149350031 -223.99999999960835 300.0000000003537
  endloop
endfacet
facet normal 1.0028179974510035e-18 -1.9698344047665104e-12 -1.0
  outer loop
    vertex 240.66909937523408 -277.4889708774664 300.0000000004591
    vertex 227.18012849737616 -263.9999999996083 300.0000000004326
    vertex 227.18012849737616 -224.99999999960832 300.0000000003556
  endloop
endfacet
facet normal 1.0028179974510035e-18 -1.9698344047665104e-12 -1.0
  outer loop
    vertex 240.66909937523408 -211.51102912175003 300.00000000032907
    vertex 240.66909937523408 -277.4889708774664 300.0000000004591
    vertex 227.18012849737616 -224.99999999960832 300.0000000003556
  endloop
endfacet
facet normal 1.0028179974510035e-18 -1.9698344047665104e-12 -1.0
  outer loop
    vertex 261.97302171618963 -269.49999999960795 300.00000000044326
    vertex 240.66909937523408 -277.4889708774664 300.0000000004591
    vertex 240.66909937523408 -211.51102912175003 300.00000000032907
  endloop
endfacet
facet normal 1.0028179974510035e-18 -1.9698344047665104e-12 -1.0
  outer loop
    vertex 261.97302171618963 -219.49999999960795 300.0000000003448
    vertex 261.97302171618963 -269.49999999960795 300.00000000044326
    vertex 240.66909937523408 -211.51102912175003 300.00000000032907
  endloop
endfacet
facet normal 1.0028179974510035e-18 -1.9698344047665104e-12 -1.0
  outer loop
    vertex 234.47302171618938 -209.18749999960812 300.0000000003245
    vertex 226.7659149350031 -223.99999999960835 300.0000000003537
    vertex 221.97302171618932 -204.4999999996083 300.00000000031525
  endloop
endfacet
facet normal 1.0028179974510035e-18 -1.9698344047665104e-12 -1.0
  outer loop
    vertex 226.7659149350031 -264.99999999960824 300.0000000004345
    vertex 221.97302171618932 -204.4999999996083 300.00000000031525
    vertex 226.7659149350031 -223.99999999960835 300.0000000003537
  endloop
endfacet
facet normal 1.0028179974510035e-18 -1.9698344047665104e-12 -1.0
  outer loop
    vertex 234.47302171618938 -216.29289321842174 300.0000000003385
    vertex 226.7659149350031 -223.99999999960835 300.0000000003537
    vertex 234.47302171618938 -209.18749999960812 300.0000000003245
  endloop
endfacet
facet normal -0.7071067811865511 -0.707106781186544 1.3920940696315378e-12
  outer loop
    vertex 240.66909937523408 -277.4889708774664 300.0000000004591
    vertex 240.66909937523408 -277.48897087746536 300.5000000004591
    vertex 227.18012849737616 -263.9999999996083 300.0000000004326
  endloop
endfacet
facet normal -0.7071067811865511 -0.707106781186544 1.3920940696315378e-12
  outer loop
    vertex 227.18012849737616 -263.99999999960727 300.5000000004326
    vertex 227.18012849737616 -263.9999999996083 300.0000000004326
    vertex 240.66909937523408 -277.48897087746536 300.5000000004591
  endloop
endfacet
facet normal 0.6830127018922195 -0.6830127018916875 0.258819045103924
  outer loop
    vertex 226.7659149350031 -223.99999999960733 300.5000000003537
    vertex 234.47302171618938 -216.2928932184207 300.5000000003385
    vertex 226.9643278222299 -223.4226497304156 301.50000000035254
  endloop
endfacet
facet normal 0.6830127018922195 -0.6830127018916875 0.258819045103924
  outer loop
    vertex 234.47302171618938 -215.91395583645556 301.50000000033776
    vertex 226.9643278222299 -223.4226497304156 301.50000000035254
    vertex 234.47302171618938 -216.2928932184207 300.5000000003385
  endloop
endfacet
facet normal 0.9238795325112996 -0.3826834323650591 7.538241709445936e-13
  outer loop
    vertex 226.7659149350031 -264.99999999960824 300.0000000004345
    vertex 227.18012849737616 -263.9999999996083 300.0000000004326
    vertex 226.7659149350031 -264.9999999996072 300.5000000004345
  endloop
endfacet
facet normal 0.9238795325112996 -0.3826834323650591 7.538241709445936e-13
  outer loop
    vertex 227.18012849737616 -263.99999999960727 300.5000000004326
    vertex 226.7659149350031 -264.9999999996072 300.5000000004345
    vertex 227.18012849737616 -263.9999999996083 300.0000000004326
  endloop
endfacet
facet normal 0.3511234415883857 0.9363291775690468 -1.8443580971556108e-12
  outer loop
    vertex 234.47302171618938 -209.1874999996052 301.5000000003245
    vertex 234.47302171618938 -209.18749999960812 300.0000000003245
    vertex 221.97302171618932 -204.49999999960517 301.50000000031525
  endloop
endfacet
facet normal 0.3511234415883857 0.9363291775690468 -1.8443580971556108e-12
  outer loop
    vertex 221.97302171618932 -204.4999999996083 300.00000000031525
    vertex 221.97302171618932 -204.49999999960517 301.50000000031525
    vertex 234.47302171618938 -209.18749999960812 300.0000000003245
  endloop
endfacet
facet normal -0.683012701892284 -0.6830127018917733 0.25881904510352727
  outer loop
    vertex 240.66909937523408 -277.48897087746536 300.5000000004591
    vertex 240.94469019847963 -277.38562431874647 301.50000000045884
    vertex 227.18012849737616 -263.99999999960727 300.5000000004326
  endloop
endfacet
facet normal -0.683012701892284 -0.6830127018917733 0.25881904510352727
  outer loop
    vertex 226.98171561014902 -263.42264973041586 301.50000000043144
    vertex 227.18012849737616 -263.99999999960727 300.5000000004326
    vertex 240.94469019847963 -277.38562431874647 301.50000000045884
  endloop
endfacet
facet normal -1.5643547009870303e-15 -1.0 2.001407002891508e-12
  outer loop
    vertex 221.97302171618932 -284.4999999996054 301.5000000004729
    vertex 203.003798122593 -284.4999999996052 301.5000000004729
    vertex 221.97302171618932 -284.4999999996083 300.0000000004728
  endloop
endfacet
facet normal -1.5643547009870303e-15 -1.0 2.001407002891508e-12
  outer loop
    vertex 201.97302171618955 -284.49999999960727 300.5000000004728
    vertex 221.97302171618932 -284.4999999996083 300.0000000004728
    vertex 203.003798122593 -284.4999999996052 301.5000000004729
  endloop
endfacet
facet normal -1.5643547009870303e-15 -1.0 2.001407002891508e-12
  outer loop
    vertex 201.97302171618955 -284.4999999996083 300.0000000004728
    vertex 221.97302171618932 -284.4999999996083 300.0000000004728
    vertex 201.97302171618955 -284.49999999960727 300.5000000004728
  endloop
endfacet
facet normal -0.7071067811865718 1.392889677331232e-12 0.7071067811865233
  outer loop
    vertex 191.97302171618966 -243.97640214353683 300.500000000393
    vertex 192.97302171618944 -243.3990518743453 301.50000000039194
    vertex 191.97302171618966 -225.49999999960735 300.50000000035664
  endloop
endfacet
facet normal -0.7071067811865718 1.392889677331232e-12 0.7071067811865233
  outer loop
    vertex 192.97302171618944 -225.57735026879485 301.5000000003568
    vertex 191.97302171618966 -225.49999999960735 300.50000000035664
    vertex 192.97302171618944 -243.3990518743453 301.50000000039194
  endloop
endfacet
facet normal -0.7071067811865718 1.392889677331232e-12 0.7071067811865233
  outer loop
    vertex 191.97302171618966 -224.99999999960727 300.50000000035567
    vertex 191.97302171618966 -225.49999999960735 300.50000000035664
    vertex 192.97302171618944 -225.57735026879485 301.5000000003568
  endloop
endfacet
facet normal -0.6830127018922298 0.6830127018927331 0.25881904510113724
  outer loop
    vertex 226.9817156101494 -225.57735026879485 301.5000000003568
    vertex 240.94469019847998 -211.61437568046426 301.5000000003294
    vertex 227.18012849737616 -224.99999999960727 300.50000000035567
  endloop
endfacet
facet normal -0.6830127018922298 0.6830127018927331 0.25881904510113724
  outer loop
    vertex 240.66909937523408 -211.51102912174898 300.50000000032907
    vertex 227.18012849737616 -224.99999999960727 300.50000000035567
    vertex 240.94469019847998 -211.61437568046426 301.5000000003294
  endloop
endfacet
facet normal 0.3511234415883993 -0.9363291775690417 1.7998251746413191e-12
  outer loop
    vertex 240.94469019847963 -277.38562431874647 301.50000000045884
    vertex 240.66909937523408 -277.48897087746536 300.5000000004591
    vertex 261.39567144700015 -269.716506350551 301.5000000004438
  endloop
endfacet
facet normal 0.3511234415883993 -0.9363291775690417 1.7998251746413191e-12
  outer loop
    vertex 261.97302171618963 -269.49999999960687 300.5000000004433
    vertex 261.39567144700015 -269.716506350551 301.5000000004438
    vertex 240.66909937523408 -277.48897087746536 300.5000000004591
  endloop
endfacet
facet normal 0.3511234415883993 -0.9363291775690417 1.7998251746413191e-12
  outer loop
    vertex 240.66909937523408 -277.4889708774664 300.0000000004591
    vertex 261.97302171618963 -269.49999999960687 300.5000000004433
    vertex 240.66909937523408 -277.48897087746536 300.5000000004591
  endloop
endfacet
facet normal 0.3511234415883993 -0.9363291775690417 1.7998251746413191e-12
  outer loop
    vertex 261.97302171618963 -269.49999999960795 300.00000000044326
    vertex 261.97302171618963 -269.49999999960687 300.5000000004433
    vertex 240.66909937523408 -277.4889708774664 300.0000000004591
  endloop
endfacet
facet normal -0.7071067811865526 0.7071067811865426 -1.3936768209606668e-12
  outer loop
    vertex 227.18012849737616 -224.99999999960832 300.0000000003556
    vertex 227.18012849737616 -224.99999999960727 300.50000000035567
    vertex 240.66909937523408 -211.51102912175003 300.00000000032907
  endloop
endfacet
facet normal -0.7071067811865526 0.7071067811865426 -1.3936768209606668e-12
  outer loop
    vertex 240.66909937523408 -211.51102912174898 300.50000000032907
    vertex 240.66909937523408 -211.51102912175003 300.00000000032907
    vertex 227.18012849737616 -224.99999999960727 300.50000000035567
  endloop
endfacet
facet normal -0.7071067811865719 1.3928859517835904e-12 0.7071067811865233
  outer loop
    vertex 191.97302171618966 -223.99999999960733 300.5000000003537
    vertex 192.97302171618944 -223.4226497304156 301.50000000035254
    vertex 191.97302171618966 -204.49999999960724 300.50000000031525
  endloop
endfacet
facet normal -0.7071067811865719 1.3928859517835904e-12 0.7071067811865233
  outer loop
    vertex 192.97302171618944 -204.49999999960517 301.50000000031525
    vertex 191.97302171618966 -204.49999999960724 300.50000000031525
    vertex 192.97302171618944 -223.4226497304156 301.50000000035254
  endloop
endfacet
facet normal 1.0 0.0 0.0
  outer loop
    vertex 234.47302171618938 -216.29289321842174 300.0000000003385
    vertex 234.47302171618938 -209.18749999960812 300.0000000003245
    vertex 234.47302171618938 -216.2928932184207 300.5000000003385
  endloop
endfacet
facet normal 1.0 0.0 0.0
  outer loop
    vertex 234.47302171618938 -215.91395583645556 301.50000000033776
    vertex 234.47302171618938 -216.2928932184207 300.5000000003385
    vertex 234.47302171618938 -209.18749999960812 300.0000000003245
  endloop
endfacet
facet normal 1.0 0.0 0.0
  outer loop
    vertex 234.47302171618938 -209.1874999996052 301.5000000003245
    vertex 234.47302171618938 -215.91395583645556 301.50000000033776
    vertex 234.47302171618938 -209.18749999960812 300.0000000003245
  endloop
endfacet
facet normal 0.35112344158837466 0.9363291775690509 -1.8468404884503426e-12
  outer loop
    vertex 261.39567144700015 -219.2834936486588 301.50000000034447
    vertex 261.97302171618963 -219.4999999996069 300.5000000003448
    vertex 240.94469019847998 -211.61437568046426 301.5000000003294
  endloop
endfacet
facet normal 0.35112344158837466 0.9363291775690509 -1.8468404884503426e-12
  outer loop
    vertex 240.66909937523408 -211.51102912174898 300.50000000032907
    vertex 240.94469019847998 -211.61437568046426 301.5000000003294
    vertex 261.97302171618963 -219.4999999996069 300.5000000003448
  endloop
endfacet
facet normal 0.35112344158837466 0.9363291775690509 -1.8468404884503426e-12
  outer loop
    vertex 261.97302171618963 -219.49999999960795 300.0000000003448
    vertex 240.66909937523408 -211.51102912174898 300.50000000032907
    vertex 261.97302171618963 -219.4999999996069 300.5000000003448
  endloop
endfacet
facet normal 0.35112344158837466 0.9363291775690509 -1.8468404884503426e-12
  outer loop
    vertex 240.66909937523408 -211.51102912175003 300.00000000032907
    vertex 240.66909937523408 -211.51102912174898 300.50000000032907
    vertex 261.97302171618963 -219.49999999960795 300.0000000003448
  endloop
endfacet
facet normal 0.7071067811865532 -0.7071067811865419 1.3928854452960994e-12
  outer loop
    vertex 226.7659149350031 -223.99999999960835 300.0000000003537
    vertex 234.47302171618938 -216.29289321842174 300.0000000003385
    vertex 226.7659149350031 -223.99999999960733 300.5000000003537
  endloop
endfacet
facet normal 0.7071067811865532 -0.7071067811865419 1.3928854452960994e-12
  outer loop
    vertex 234.47302171618938 -216.2928932184207 300.5000000003385
    vertex 226.7659149350031 -223.99999999960733 300.5000000003537
    vertex 234.47302171618938 -216.29289321842174 300.0000000003385
  endloop
endfacet
facet normal 0.7071067811865521 0.7071067811865429 -1.3932811331283845e-12
  outer loop
    vertex 234.47302171618938 -272.70710678079485 300.0000000004497
    vertex 226.7659149350031 -264.99999999960824 300.0000000004345
    vertex 234.47302171618938 -272.707106780794 300.50000000044975
  endloop
endfacet
facet normal 0.7071067811865521 0.7071067811865429 -1.3932811331283845e-12
  outer loop
    vertex 226.7659149350031 -264.9999999996072 300.5000000004345
    vertex 234.47302171618938 -272.707106780794 300.50000000044975
    vertex 226.7659149350031 -264.99999999960824 300.0000000004345
  endloop
endfacet
facet normal 1.0 0.0 0.0
  outer loop
    vertex 261.97302171618963 -269.49999999960795 300.00000000044326
    vertex 261.97302171618963 -219.49999999960795 300.0000000003448
    vertex 261.97302171618963 -269.49999999960687 300.5000000004433
  endloop
endfacet
facet normal 1.0 0.0 0.0
  outer loop
    vertex 261.97302171618963 -244.97640214353697 300.50000000039495
    vertex 261.97302171618963 -269.49999999960687 300.5000000004433
    vertex 261.97302171618963 -219.49999999960795 300.0000000003448
  endloop
endfacet
facet normal 1.0 0.0 0.0
  outer loop
    vertex 261.97302171618963 -243.97640214353683 300.500000000393
    vertex 261.97302171618963 -244.97640214353697 300.50000000039495
    vertex 261.97302171618963 -219.49999999960795 300.0000000003448
  endloop
endfacet
facet normal 1.0 0.0 0.0
  outer loop
    vertex 261.97302171618963 -219.4999999996069 300.5000000003448
    vertex 261.97302171618963 -243.97640214353683 300.500000000393
    vertex 261.97302171618963 -219.49999999960795 300.0000000003448
  endloop
endfacet
facet normal -1.0 0.0 0.0
  outer loop
    vertex 191.97302171618966 -244.49999999960838 300.00000000039404
    vertex 191.97302171618966 -244.49999999960735 300.50000000039404
    vertex 191.97302171618966 -204.4999999996083 300.00000000031525
  endloop
endfacet
facet normal -1.0 0.0 0.0
  outer loop
    vertex 191.97302171618966 -243.97640214353683 300.500000000393
    vertex 191.97302171618966 -204.4999999996083 300.00000000031525
    vertex 191.97302171618966 -244.49999999960735 300.50000000039404
  endloop
endfacet
facet normal -1.0 0.0 0.0
  outer loop
    vertex 191.97302171618966 -225.49999999960735 300.50000000035664
    vertex 191.97302171618966 -204.4999999996083 300.00000000031525
    vertex 191.97302171618966 -243.97640214353683 300.500000000393
  endloop
endfacet
facet normal -1.0 0.0 0.0
  outer loop
    vertex 191.97302171618966 -224.99999999960727 300.50000000035567
    vertex 191.97302171618966 -204.4999999996083 300.00000000031525
    vertex 191.97302171618966 -225.49999999960735 300.50000000035664
  endloop
endfacet
facet normal -1.0 0.0 0.0
  outer loop
    vertex 191.97302171618966 -223.99999999960733 300.5000000003537
    vertex 191.97302171618966 -204.4999999996083 300.00000000031525
    vertex 191.97302171618966 -224.99999999960727 300.50000000035567
  endloop
endfacet
facet normal -1.0 0.0 0.0
  outer loop
    vertex 191.97302171618966 -204.49999999960724 300.50000000031525
    vertex 191.97302171618966 -204.4999999996083 300.00000000031525
    vertex 191.97302171618966 -223.99999999960733 300.5000000003537
  endloop
endfacet
facet normal 0.0 1.9698374875698473e-12 1.0
  outer loop
    vertex 192.97302171618944 -204.49999999960517 301.50000000031525
    vertex 192.97302171618944 -223.4226497304156 301.50000000035254
    vertex 221.97302171618932 -204.49999999960517 301.50000000031525
  endloop
endfacet
facet normal 0.0 1.9698374875698473e-12 1.0
  outer loop
    vertex 226.9643278222299 -223.4226497304156 301.50000000035254
    vertex 221.97302171618932 -204.49999999960517 301.50000000031525
    vertex 192.97302171618944 -223.4226497304156 301.50000000035254
  endloop
endfacet
facet normal 0.0 1.9698374875698473e-12 1.0
  outer loop
    vertex 234.47302171618938 -209.1874999996052 301.5000000003245
    vertex 221.97302171618932 -204.49999999960517 301.50000000031525
    vertex 226.9643278222299 -223.4226497304156 301.50000000035254
  endloop
endfacet
facet normal 0.0 1.9698374875698473e-12 1.0
  outer loop
    vertex 234.47302171618938 -215.91395583645556 301.50000000033776
    vertex 234.47302171618938 -209.1874999996052 301.5000000003245
    vertex 226.9643278222299 -223.4226497304156 301.50000000035254
  endloop
endfacet
facet normal 0.6830127018922245 0.6830127018927179 0.2588190451011916
  outer loop
    vertex 234.47302171618938 -273.086044162755 301.5000000004505
    vertex 234.47302171618938 -272.707106780794 300.50000000044975
    vertex 226.96432782222954 -265.57735026879493 301.5000000004357
  endloop
endfacet
facet normal 0.6830127018922245 0.6830127018927179 0.2588190451011916
  outer loop
    vertex 226.7659149350031 -264.9999999996072 300.5000000004345
    vertex 226.96432782222954 -265.57735026879493 301.5000000004357
    vertex 234.47302171618938 -272.707106780794 300.50000000044975
  endloop
endfacet
facet normal -5.540763784345768e-16 0.8660254037854436 0.49999999999825945
  outer loop
    vertex 192.97302171618944 -225.57735026879485 301.5000000003568
    vertex 226.9817156101494 -225.57735026879485 301.5000000003568
    vertex 191.97302171618966 -224.99999999960727 300.50000000035567
  endloop
endfacet
facet normal -5.540763784345768e-16 0.8660254037854436 0.49999999999825945
  outer loop
    vertex 227.18012849737616 -224.99999999960727 300.50000000035567
    vertex 191.97302171618966 -224.99999999960727 300.50000000035567
    vertex 226.9817156101494 -225.57735026879485 301.5000000003568
  endloop
endfacet
facet normal 0.0 1.9698374875698473e-12 1.0
  outer loop
    vertex 191.97302171618966 -243.97640214353683 300.500000000393
    vertex 191.97302171618966 -244.49999999960735 300.50000000039404
    vertex 261.97302171618963 -243.97640214353683 300.500000000393
  endloop
endfacet
facet normal 0.0 1.9698374875698473e-12 1.0
  outer loop
    vertex 192.09212225217198 -244.97640214353697 300.50000000039495
    vertex 261.97302171618963 -243.97640214353683 300.500000000393
    vertex 191.97302171618966 -244.49999999960735 300.50000000039404
  endloop
endfacet
facet normal 0.0 1.9698374875698473e-12 1.0
  outer loop
    vertex 261.97302171618963 -244.97640214353697 300.50000000039495
    vertex 261.97302171618963 -243.97640214353683 300.500000000393
    vertex 192.09212225217198 -244.97640214353697 300.50000000039495
  endloop
endfacet
facet normal -4.757055792094169e-16 1.969584701446167e-12 1.0
  outer loop
    vertex 198.27313568989084 -265.57735026879493 301.50000000043565
    vertex 203.003798122593 -284.4999999996052 301.5000000004729
    vertex 226.96432782222954 -265.57735026879493 301.5000000004357
  endloop
endfacet
facet normal -4.757055792094169e-16 1.969584701446167e-12 1.0
  outer loop
    vertex 221.97302171618932 -284.4999999996054 301.5000000004729
    vertex 226.96432782222954 -265.57735026879493 301.5000000004357
    vertex 203.003798122593 -284.4999999996052 301.5000000004729
  endloop
endfacet
facet normal -4.757055792094169e-16 1.969584701446167e-12 1.0
  outer loop
    vertex 234.47302171618938 -279.81249999960517 301.50000000046373
    vertex 226.96432782222954 -265.57735026879493 301.5000000004357
    vertex 221.97302171618932 -284.4999999996054 301.5000000004729
  endloop
endfacet
facet normal -4.757055792094169e-16 1.969584701446167e-12 1.0
  outer loop
    vertex 234.47302171618938 -273.086044162755 301.5000000004505
    vertex 226.96432782222954 -265.57735026879493 301.5000000004357
    vertex 234.47302171618938 -279.81249999960517 301.50000000046373
  endloop
endfacet
facet normal 1.0 0.0 0.0
  outer loop
    vertex 234.47302171618938 -279.8124999996081 300.0000000004637
    vertex 234.47302171618938 -272.70710678079485 300.0000000004497
    vertex 234.47302171618938 -279.81249999960517 301.50000000046373
  endloop
endfacet
facet normal 1.0 0.0 0.0
  outer loop
    vertex 234.47302171618938 -273.086044162755 301.5000000004505
    vertex 234.47302171618938 -279.81249999960517 301.50000000046373
    vertex 234.47302171618938 -272.70710678079485 300.0000000004497
  endloop
endfacet
facet normal 1.0 0.0 0.0
  outer loop
    vertex 234.47302171618938 -272.707106780794 300.50000000044975
    vertex 234.47302171618938 -273.086044162755 301.5000000004505
    vertex 234.47302171618938 -272.70710678079485 300.0000000004497
  endloop
endfacet
facet normal -0.6859943405701552 -0.17149858514114397 0.7071067811867624
  outer loop
    vertex 192.09212225217198 -244.97640214353697 300.50000000039495
    vertex 196.84802171618963 -263.99999999960727 300.5000000004326
    vertex 193.2672362258736 -245.55375241272472 301.50000000039614
  endloop
endfacet
facet normal -0.6859943405701552 -0.17149858514114397 0.7071067811867624
  outer loop
    vertex 197.73446055529598 -263.4226497304155 301.5000000004314
    vertex 193.2672362258736 -245.55375241272472 301.50000000039614
    vertex 196.84802171618963 -263.99999999960727 300.5000000004326
  endloop
endfacet
facet normal -0.6859943405702886 -0.17149858514117777 0.7071067811866248
  outer loop
    vertex 197.09802171618958 -264.9999999996072 300.5000000004345
    vertex 201.97302171618955 -284.49999999960727 300.5000000004728
    vertex 198.27313568989084 -265.57735026879493 301.50000000043565
  endloop
endfacet
facet normal -0.6859943405702886 -0.17149858514117777 0.7071067811866248
  outer loop
    vertex 203.003798122593 -284.4999999996052 301.5000000004729
    vertex 198.27313568989084 -265.57735026879493 301.50000000043565
    vertex 201.97302171618955 -284.49999999960727 300.5000000004728
  endloop
endfacet
facet normal -5.974841146638415e-20 -0.8660254037834653 0.5000000000016858
  outer loop
    vertex 261.39567144700015 -243.3990518743453 301.50000000039194
    vertex 192.97302171618944 -243.3990518743453 301.50000000039194
    vertex 261.97302171618963 -243.97640214353683 300.500000000393
  endloop
endfacet
facet normal -5.974841146638415e-20 -0.8660254037834653 0.5000000000016858
  outer loop
    vertex 191.97302171618966 -243.97640214353683 300.500000000393
    vertex 261.97302171618963 -243.97640214353683 300.500000000393
    vertex 192.97302171618944 -243.3990518743453 301.50000000039194
  endloop
endfacet
facet normal 1.1225774081541772e-15 -0.8660254037834318 0.5000000000017439
  outer loop
    vertex 226.9643278222299 -223.4226497304156 301.50000000035254
    vertex 192.97302171618944 -223.4226497304156 301.50000000035254
    vertex 226.7659149350031 -223.99999999960733 300.5000000003537
  endloop
endfacet
facet normal 1.1225774081541772e-15 -0.8660254037834318 0.5000000000017439
  outer loop
    vertex 191.97302171618966 -223.99999999960733 300.5000000003537
    vertex 226.7659149350031 -223.99999999960733 300.5000000003537
    vertex 192.97302171618944 -223.4226497304156 301.50000000035254
  endloop
endfacet
facet normal 1.2312627292287123e-15 0.8660254037854176 0.49999999999830474
  outer loop
    vertex 226.96432782222954 -265.57735026879493 301.5000000004357
    vertex 226.7659149350031 -264.9999999996072 300.5000000004345
    vertex 198.27313568989084 -265.57735026879493 301.50000000043565
  endloop
endfacet
facet normal 1.2312627292287123e-15 0.8660254037854176 0.49999999999830474
  outer loop
    vertex 197.09802171618958 -264.9999999996072 300.5000000004345
    vertex 198.27313568989084 -265.57735026879493 301.50000000043565
    vertex 226.7659149350031 -264.9999999996072 300.5000000004345
  endloop
endfacet
facet normal 0.0 1.9698374875698473e-12 1.0
  outer loop
    vertex 196.84802171618963 -263.99999999960727 300.5000000004326
    vertex 197.09802171618958 -264.9999999996072 300.5000000004345
    vertex 227.18012849737616 -263.99999999960727 300.5000000004326
  endloop
endfacet
facet normal 0.0 1.9698374875698473e-12 1.0
  outer loop
    vertex 226.7659149350031 -264.9999999996072 300.5000000004345
    vertex 227.18012849737616 -263.99999999960727 300.5000000004326
    vertex 197.09802171618958 -264.9999999996072 300.5000000004345
  endloop
endfacet
facet normal -3.9492727694249976e-15 -0.8660254037834806 0.5000000000016595
  outer loop
    vertex 226.98171561014902 -263.42264973041586 301.50000000043144
    vertex 197.73446055529598 -263.4226497304155 301.5000000004314
    vertex 227.18012849737616 -263.99999999960727 300.5000000004326
  endloop
endfacet
facet normal -3.9492727694249976e-15 -0.8660254037834806 0.5000000000016595
  outer loop
    vertex 196.84802171618963 -263.99999999960727 300.5000000004326
    vertex 227.18012849737616 -263.99999999960727 300.5000000004326
    vertex 197.73446055529598 -263.4226497304155 301.5000000004314
  endloop
endfacet
facet normal -5.967899022591783e-16 0.8660254037854173 0.4999999999983053
  outer loop
    vertex 193.2672362258736 -245.55375241272472 301.50000000039614
    vertex 261.39567144700015 -245.55375241272455 301.50000000039614
    vertex 192.09212225217198 -244.97640214353697 300.50000000039495
  endloop
endfacet
facet normal -5.967899022591783e-16 0.8660254037854173 0.4999999999983053
  outer loop
    vertex 261.97302171618963 -244.97640214353697 300.50000000039495
    vertex 192.09212225217198 -244.97640214353697 300.50000000039495
    vertex 261.39567144700015 -245.55375241272455 301.50000000039614
  endloop
endfacet
facet normal 0.0 1.9698374875698473e-12 1.0
  outer loop
    vertex 191.97302171618966 -223.99999999960733 300.5000000003537
    vertex 191.97302171618966 -224.99999999960727 300.50000000035567
    vertex 226.7659149350031 -223.99999999960733 300.5000000003537
  endloop
endfacet
facet normal 0.0 1.9698374875698473e-12 1.0
  outer loop
    vertex 227.18012849737616 -224.99999999960727 300.50000000035567
    vertex 226.7659149350031 -223.99999999960733 300.5000000003537
    vertex 191.97302171618966 -224.99999999960727 300.50000000035567
  endloop
endfacet
facet normal -1.5613685477256525e-16 1.969914411124915e-12 1.0
  outer loop
    vertex 193.2672362258736 -245.55375241272472 301.50000000039614
    vertex 197.73446055529598 -263.4226497304155 301.5000000004314
    vertex 261.39567144700015 -245.55375241272455 301.50000000039614
  endloop
endfacet
facet normal -1.5613685477256525e-16 1.969914411124915e-12 1.0
  outer loop
    vertex 226.98171561014902 -263.42264973041586 301.50000000043144
    vertex 261.39567144700015 -245.55375241272455 301.50000000039614
    vertex 197.73446055529598 -263.4226497304155 301.5000000004314
  endloop
endfacet
facet normal -1.5613685477256525e-16 1.969914411124915e-12 1.0
  outer loop
    vertex 240.94469019847963 -277.38562431874647 301.50000000045884
    vertex 261.39567144700015 -245.55375241272455 301.50000000039614
    vertex 226.98171561014902 -263.42264973041586 301.50000000043144
  endloop
endfacet
facet normal -1.5613685477256525e-16 1.969914411124915e-12 1.0
  outer loop
    vertex 261.39567144700015 -269.716506350551 301.5000000004438
    vertex 261.39567144700015 -245.55375241272455 301.50000000039614
    vertex 240.94469019847963 -277.38562431874647 301.50000000045884
  endloop
endfacet
facet normal 0.0 1.9698374875698473e-12 1.0
  outer loop
    vertex 192.97302171618944 -225.57735026879485 301.5000000003568
    vertex 192.97302171618944 -243.3990518743453 301.50000000039194
    vertex 226.9817156101494 -225.57735026879485 301.5000000003568
  endloop
endfacet
facet normal 0.0 1.9698374875698473e-12 1.0
  outer loop
    vertex 261.39567144700015 -243.3990518743453 301.50000000039194
    vertex 226.9817156101494 -225.57735026879485 301.5000000003568
    vertex 192.97302171618944 -243.3990518743453 301.50000000039194
  endloop
endfacet
facet normal 0.0 1.9698374875698473e-12 1.0
  outer loop
    vertex 240.94469019847998 -211.61437568046426 301.5000000003294
    vertex 226.9817156101494 -225.57735026879485 301.5000000003568
    vertex 261.39567144700015 -243.3990518743453 301.50000000039194
  endloop
endfacet
facet normal 0.0 1.9698374875698473e-12 1.0
  outer loop
    vertex 261.39567144700015 -219.2834936486588 301.50000000034447
    vertex 240.94469019847998 -211.61437568046426 301.5000000003294
    vertex 261.39567144700015 -243.3990518743453 301.50000000039194
  endloop
endfacet
endsolid ProtoGlove baseplate
