solid ProtoGlove baseplate
facet normal -1.8760746633360835e-16 1.9699231021173093e-12 1.0
  outer loop
    vertex 300.88660432881176 -245.577350268795 301.50000000039626
    vertex 303.9564433135695 -260.92264973041557 301.5000000004265
    vertex 359.0739154470003 -245.577350268795 301.50000000039626
  endloop
endfacet
facet normal -1.8760746633360835e-16 1.9699231021173093e-12 1.0
  outer loop
    vertex 335.06805396559577 -260.92264973041574 301.5000000004265
    vertex 359.0739154470003 -245.577350268795 301.50000000039626
    vertex 303.9564433135695 -260.92264973041557 301.5000000004265
  endloop
endfacet
facet normal -1.8760746633360835e-16 1.9699231021173093e-12 1.0
  outer loop
    vertex 340.1122234179197 -274.40155094232705 301.500000000453
    vertex 359.0739154470003 -245.577350268795 301.50000000039626
    vertex 335.06805396559577 -260.92264973041574 301.5000000004265
  endloop
endfacet
facet normal -1.8760746633360835e-16 1.9699231021173093e-12 1.0
  outer loop
    vertex 359.0739154470003 -267.218705060169 301.50000000043883
    vertex 359.0739154470003 -245.577350268795 301.50000000039626
    vertex 340.1122234179197 -274.40155094232705 301.500000000453
  endloop
endfacet
facet normal -1.008476855828502e-17 1.9698339697667205e-12 1.0
  outer loop
    vertex 299.65126571618964 -226.4999999996073 300.50000000035874
    vertex 299.65126571618964 -227.49999999960724 300.5000000003606
    vertex 334.2528281838116 -226.4999999996073 300.50000000035874
  endloop
endfacet
facet normal -1.008476855828502e-17 1.9698339697667205e-12 1.0
  outer loop
    vertex 334.9504749580318 -227.49999999960724 300.5000000003606
    vertex 334.2528281838116 -226.4999999996073 300.50000000035874
    vertex 299.65126571618964 -227.49999999960724 300.5000000003606
  endloop
endfacet
facet normal 0.0 1.9698374875698473e-12 1.0
  outer loop
    vertex 300.6512657161894 -209.4999999996053 301.50000000032526
    vertex 300.6512657161898 -225.92264973041557 301.5000000003576
    vertex 326.6530426926018 -209.4999999996053 301.50000000032526
  endloop
endfacet
facet normal 0.0 1.9698374875698473e-12 1.0
  outer loop
    vertex 334.1867698863844 -225.92264973041574 301.5000000003576
    vertex 326.6530426926018 -209.4999999996053 301.50000000032526
    vertex 300.6512657161898 -225.92264973041557 301.5000000003576
  endloop
endfacet
facet normal 0.0 1.9698374875698473e-12 1.0
  outer loop
    vertex 338.5678371872553 -214.0134227701802 301.50000000033407
    vertex 326.6530426926018 -209.4999999996053 301.50000000032526
    vertex 334.1867698863844 -225.92264973041574 301.5000000003576
  endloop
endfacet
facet normal -1.1305960040822808e-15 -0.8660254037834306 0.5000000000017458
  outer loop
    vertex 334.1867698863844 -225.92264973041574 301.5000000003576
    vertex 300.6512657161898 -225.92264973041557 301.5000000003576
    vertex 334.2528281838116 -226.4999999996073 300.50000000035874
  endloop
endfacet
facet normal -1.1305960040822808e-15 -0.8660254037834306 0.5000000000017458
  outer loop
    vertex 299.65126571618964 -226.4999999996073 300.50000000035874
    vertex 334.2528281838116 -226.4999999996073 300.50000000035874
    vertex 300.6512657161898 -225.92264973041557 301.5000000003576
  endloop
endfacet
facet normal -1.1226054381403117e-18 1.96985128147967e-12 1.0
  outer loop
    vertex 300.6512657161894 -243.42264973041574 301.5000000003921
    vertex 359.0739154470003 -243.42264973041574 301.5000000003921
    vertex 300.6512657161898 -228.07735026879502 301.50000000036175
  endloop
endfacet
facet normal -1.1226054381403117e-18 1.96985128147967e-12 1.0
  outer loop
    vertex 335.0241718528258 -228.07735026879482 301.50000000036175
    vertex 300.6512657161898 -228.07735026879502 301.50000000036175
    vertex 359.0739154470003 -243.42264973041574 301.5000000003921
  endloop
endfacet
facet normal -1.1226054381403117e-18 1.96985128147967e-12 1.0
  outer loop
    vertex 339.9985224116658 -214.55537817463778 301.5000000003352
    vertex 335.0241718528258 -228.07735026879482 301.50000000036175
    vertex 359.0739154470003 -243.42264973041574 301.5000000003921
  endloop
endfacet
facet normal -1.1226054381403117e-18 1.96985128147967e-12 1.0
  outer loop
    vertex 359.0739154469999 -221.78129493904154 301.5000000003494
    vertex 339.9985224116658 -214.55537817463778 301.5000000003352
    vertex 359.0739154470003 -243.42264973041574 301.5000000003921
  endloop
endfacet
facet normal -3.324284672288141e-15 0.8660254037854337 0.4999999999982765
  outer loop
    vertex 300.6512657161898 -228.07735026879502 301.50000000036175
    vertex 335.0241718528258 -228.07735026879482 301.50000000036175
    vertex 299.65126571618964 -227.49999999960724 300.5000000003606
  endloop
endfacet
facet normal -3.324284672288141e-15 0.8660254037854337 0.4999999999982765
  outer loop
    vertex 334.9504749580318 -227.49999999960724 300.5000000003606
    vertex 299.65126571618964 -227.49999999960724 300.5000000003606
    vertex 335.0241718528258 -228.07735026879482 301.50000000036175
  endloop
endfacet
facet normal -0.9365669630492156 -0.3504886927202777 6.90392802836624e-13
  outer loop
    vertex 339.8616478758764 -274.4964710316118 300.00000000045316
    vertex 339.8616478758764 -274.4964710316108 300.5000000004532
    vertex 334.998016847131 -261.4999999996083 300.0000000004276
  endloop
endfacet
facet normal -0.9365669630492156 -0.3504886927202777 6.90392802836624e-13
  outer loop
    vertex 334.998016847131 -261.49999999960727 300.5000000004276
    vertex 334.998016847131 -261.4999999996083 300.0000000004276
    vertex 339.8616478758764 -274.4964710316108 300.5000000004532
  endloop
endfacet
facet normal 0.866025403784568 9.84921521133872e-13 0.4999999999997759
  outer loop
    vertex 359.0739154470003 -267.218705060169 301.50000000043883
    vertex 359.65126571618936 -266.99999999960727 300.50000000043843
    vertex 359.0739154470003 -245.577350268795 301.50000000039626
  endloop
endfacet
facet normal 0.866025403784568 9.84921521133872e-13 0.4999999999997759
  outer loop
    vertex 359.65126571618936 -245.4999999996073 300.500000000396
    vertex 359.0739154470003 -245.577350268795 301.50000000039626
    vertex 359.65126571618936 -266.99999999960727 300.50000000043843
  endloop
endfacet
facet normal 0.866025403784568 9.84921521133872e-13 0.4999999999997759
  outer loop
    vertex 359.65126571618936 -244.99999999960724 300.50000000039506
    vertex 359.0739154470003 -245.577350268795 301.50000000039626
    vertex 359.65126571618936 -245.4999999996073 300.500000000396
  endloop
endfacet
facet normal 1.0 0.0 0.0
  outer loop
    vertex 359.65126571618936 -266.99999999960835 300.00000000043843
    vertex 359.65126571618936 -221.99999999960826 300.00000000034987
    vertex 359.65126571618936 -266.99999999960727 300.50000000043843
  endloop
endfacet
facet normal 1.0 0.0 0.0
  outer loop
    vertex 359.65126571618936 -245.4999999996073 300.500000000396
    vertex 359.65126571618936 -266.99999999960727 300.50000000043843
    vertex 359.65126571618936 -221.99999999960826 300.00000000034987
  endloop
endfacet
facet normal 1.0 0.0 0.0
  outer loop
    vertex 359.65126571618936 -244.99999999960724 300.50000000039506
    vertex 359.65126571618936 -245.4999999996073 300.500000000396
    vertex 359.65126571618936 -221.99999999960826 300.00000000034987
  endloop
endfacet
facet normal 1.0 0.0 0.0
  outer loop
    vertex 359.65126571618936 -243.9999999996073 300.5000000003932
    vertex 359.65126571618936 -244.99999999960724 300.50000000039506
    vertex 359.65126571618936 -221.99999999960826 300.00000000034987
  endloop
endfacet
facet normal 1.0 0.0 0.0
  outer loop
    vertex 359.65126571618936 -221.9999999996074 300.50000000034987
    vertex 359.65126571618936 -243.9999999996073 300.5000000003932
    vertex 359.65126571618936 -221.99999999960826 300.00000000034987
  endloop
endfacet
facet normal -0.6933684746782164 -0.138708897774949 0.7071067811868746
  outer loop
    vertex 303.25217958977305 -262.4999999996072 300.5000000004295
    vertex 306.6530426926016 -279.4999999996073 300.500000000463
    vertex 304.3874928170179 -263.077350268795 301.5000000004307
  endloop
endfacet
facet normal -0.6933684746782164 -0.138708897774949 0.7071067811868746
  outer loop
    vertex 307.6728565534997 -279.49999999960505 301.50000000046305
    vertex 304.3874928170179 -263.077350268795 301.5000000004307
    vertex 306.6530426926016 -279.4999999996073 300.500000000463
  endloop
endfacet
facet normal -6.960996208859567e-16 0.8660254037854335 0.49999999999827727
  outer loop
    vertex 300.88660432881176 -245.577350268795 301.50000000039626
    vertex 359.0739154470003 -245.577350268795 301.50000000039626
    vertex 299.7512911015669 -244.99999999960724 300.50000000039506
  endloop
endfacet
facet normal -6.960996208859567e-16 0.8660254037854335 0.49999999999827727
  outer loop
    vertex 359.65126571618936 -244.99999999960724 300.50000000039506
    vertex 299.7512911015669 -244.99999999960724 300.50000000039506
    vertex 359.0739154470003 -245.577350268795 301.50000000039626
  endloop
endfacet
facet normal 0.35424374428936733 -0.9351531263017032 1.8056836075482978e-12
  outer loop
    vertex 340.1122234179197 -274.40155094232705 301.500000000453
    vertex 339.8616478758764 -274.4964710316108 300.5000000004532
    vertex 359.0739154470003 -267.218705060169 301.50000000043883
  endloop
endfacet
facet normal 0.35424374428936733 -0.9351531263017032 1.8056836075482978e-12
  outer loop
    vertex 359.65126571618936 -266.99999999960727 300.50000000043843
    vertex 359.0739154470003 -267.218705060169 301.50000000043883
    vertex 339.8616478758764 -274.4964710316108 300.5000000004532
  endloop
endfacet
facet normal 0.35424374428936733 -0.9351531263017032 1.8056836075482978e-12
  outer loop
    vertex 339.8616478758764 -274.4964710316118 300.00000000045316
    vertex 359.65126571618936 -266.99999999960727 300.50000000043843
    vertex 339.8616478758764 -274.4964710316108 300.5000000004532
  endloop
endfacet
facet normal 0.35424374428936733 -0.9351531263017032 1.8056836075482978e-12
  outer loop
    vertex 359.65126571618936 -266.99999999960835 300.00000000043843
    vertex 359.65126571618936 -266.99999999960727 300.50000000043843
    vertex 339.8616478758764 -274.4964710316118 300.00000000045316
  endloop
endfacet
facet normal 0.0 1.9698374875698473e-12 1.0
  outer loop
    vertex 299.65126571618964 -243.9999999996073 300.5000000003932
    vertex 299.65126571618964 -244.49999999960735 300.5000000003941
    vertex 359.65126571618936 -243.9999999996073 300.5000000003932
  endloop
endfacet
facet normal 0.0 1.9698374875698473e-12 1.0
  outer loop
    vertex 299.7512911015669 -244.99999999960724 300.50000000039506
    vertex 359.65126571618936 -243.9999999996073 300.5000000003932
    vertex 299.65126571618964 -244.49999999960735 300.5000000003941
  endloop
endfacet
facet normal 0.0 1.9698374875698473e-12 1.0
  outer loop
    vertex 359.65126571618936 -244.99999999960724 300.50000000039506
    vertex 359.65126571618936 -243.9999999996073 300.5000000003932
    vertex 299.7512911015669 -244.99999999960724 300.50000000039506
  endloop
endfacet
facet normal -0.6933684746782529 -0.13870889777495463 0.7071067811868377
  outer loop
    vertex 299.7512911015669 -244.99999999960724 300.50000000039506
    vertex 303.0521288190182 -261.49999999960727 300.5000000004276
    vertex 300.88660432881176 -245.577350268795 301.50000000039626
  endloop
endfacet
facet normal -0.6933684746782529 -0.13870889777495463 0.7071067811868377
  outer loop
    vertex 303.9564433135695 -260.92264973041557 301.5000000004265
    vertex 300.88660432881176 -245.577350268795 301.50000000039626
    vertex 303.0521288190182 -261.49999999960727 300.5000000004276
  endloop
endfacet
facet normal 5.484517084685444e-16 0.8660254037854083 0.49999999999832073
  outer loop
    vertex 304.3874928170179 -263.077350268795 301.5000000004307
    vertex 334.2344774667835 -263.077350268795 301.5000000004307
    vertex 303.25217958977305 -262.4999999996072 300.5000000004295
  endloop
endfacet
facet normal 5.484517084685444e-16 0.8660254037854083 0.49999999999832073
  outer loop
    vertex 334.30451458524794 -262.4999999996072 300.5000000004295
    vertex 303.25217958977305 -262.4999999996072 300.5000000004295
    vertex 334.2344774667835 -263.077350268795 301.5000000004307
  endloop
endfacet
facet normal -6.893955305915019e-16 -0.8660254037834382 0.5000000000017328
  outer loop
    vertex 335.06805396559577 -260.92264973041574 301.5000000004265
    vertex 303.9564433135695 -260.92264973041557 301.5000000004265
    vertex 334.998016847131 -261.49999999960727 300.5000000004276
  endloop
endfacet
facet normal -6.893955305915019e-16 -0.8660254037834382 0.5000000000017328
  outer loop
    vertex 303.0521288190182 -261.49999999960727 300.5000000004276
    vertex 334.998016847131 -261.49999999960727 300.5000000004276
    vertex 303.9564433135695 -260.92264973041557 301.5000000004265
  endloop
endfacet
facet normal -5.193609031838785e-16 1.969574550159096e-12 1.0
  outer loop
    vertex 304.3874928170179 -263.077350268795 301.5000000004307
    vertex 307.6728565534997 -279.49999999960505 301.50000000046305
    vertex 334.2344774667835 -263.077350268795 301.5000000004307
  endloop
endfacet
facet normal -5.193609031838785e-16 1.969574550159096e-12 1.0
  outer loop
    vertex 326.6530426926018 -279.4999999996053 301.50000000046305
    vertex 334.2344774667835 -263.077350268795 301.5000000004307
    vertex 307.6728565534997 -279.49999999960505 301.50000000046305
  endloop
endfacet
facet normal -5.193609031838785e-16 1.969574550159096e-12 1.0
  outer loop
    vertex 338.67591167979344 -274.9456377167494 301.50000000045407
    vertex 334.2344774667835 -263.077350268795 301.5000000004307
    vertex 326.6530426926018 -279.4999999996053 301.50000000046305
  endloop
endfacet
facet normal -3.254266686464548e-16 -0.8660254037834733 0.5000000000016722
  outer loop
    vertex 359.0739154470003 -243.42264973041574 301.5000000003921
    vertex 300.6512657161894 -243.42264973041574 301.5000000003921
    vertex 359.65126571618936 -243.9999999996073 300.5000000003932
  endloop
endfacet
facet normal -3.254266686464548e-16 -0.8660254037834733 0.5000000000016722
  outer loop
    vertex 299.65126571618964 -243.9999999996073 300.5000000003932
    vertex 359.65126571618936 -243.9999999996073 300.5000000003932
    vertex 300.6512657161894 -243.42264973041574 301.5000000003921
  endloop
endfacet
facet normal 1.6783174547792395e-17 1.969833346728594e-12 1.0
  outer loop
    vertex 303.0521288190182 -261.49999999960727 300.5000000004276
    vertex 303.25217958977305 -262.4999999996072 300.5000000004295
    vertex 334.998016847131 -261.49999999960727 300.5000000004276
  endloop
endfacet
facet normal 1.6783174547792395e-17 1.969833346728594e-12 1.0
  outer loop
    vertex 334.30451458524794 -262.4999999996072 300.5000000004295
    vertex 334.998016847131 -261.49999999960727 300.5000000004276
    vertex 303.25217958977305 -262.4999999996072 300.5000000004295
  endloop
endfacet
facet normal 0.904654217658349 0.3385460801213046 0.2588190451019007
  outer loop
    vertex 338.67591167979344 -274.9456377167494 301.50000000045407
    vertex 338.9264872218368 -274.8507176274694 300.5000000004539
    vertex 334.2344774667835 -263.077350268795 301.5000000004307
  endloop
endfacet
facet normal 0.904654217658349 0.3385460801213046 0.2588190451019007
  outer loop
    vertex 334.30451458524794 -262.4999999996072 300.5000000004295
    vertex 334.2344774667835 -263.077350268795 301.5000000004307
    vertex 338.9264872218368 -274.8507176274694 300.5000000004539
  endloop
endfacet
facet normal -0.7071067811865384 1.3891310383320776e-12 0.7071067811865567
  outer loop
    vertex 299.65126571618964 -209.49999999960738 300.50000000032526
    vertex 299.65126571618964 -226.4999999996073 300.50000000035874
    vertex 300.6512657161894 -209.4999999996053 301.50000000032526
  endloop
endfacet
facet normal -0.7071067811865384 1.3891310383320776e-12 0.7071067811865567
  outer loop
    vertex 300.6512657161898 -225.92264973041557 301.5000000003576
    vertex 300.6512657161894 -209.4999999996053 301.50000000032526
    vertex 299.65126571618964 -226.4999999996073 300.50000000035874
  endloop
endfacet
facet normal 0.9365669630492183 0.3504886927202708 -6.906548482314903e-13
  outer loop
    vertex 338.9264872218368 -274.85071762747043 300.0000000004539
    vertex 334.30451458524794 -262.4999999996083 300.0000000004295
    vertex 338.9264872218368 -274.8507176274694 300.5000000004539
  endloop
endfacet
facet normal 0.9365669630492183 0.3504886927202708 -6.906548482314903e-13
  outer loop
    vertex 334.30451458524794 -262.4999999996072 300.5000000004295
    vertex 338.9264872218368 -274.8507176274694 300.5000000004539
    vertex 334.30451458524794 -262.4999999996083 300.0000000004295
  endloop
endfacet
facet normal 1.6481630760588778e-17 -1.9697943500619597e-12 -1.0
  outer loop
    vertex 299.65126571618964 -244.49999999960838 300.0000000003941
    vertex 299.65126571618964 -209.4999999996084 300.0000000003252
    vertex 306.6530426926016 -279.4999999996082 300.000000000463
  endloop
endfacet
facet normal 1.6481630760588778e-17 -1.9697943500619597e-12 -1.0
  outer loop
    vertex 326.6530426926018 -209.4999999996084 300.0000000003252
    vertex 306.6530426926016 -279.4999999996082 300.000000000463
    vertex 299.65126571618964 -209.4999999996084 300.0000000003252
  endloop
endfacet
facet normal 1.6481630760588778e-17 -1.9697943500619597e-12 -1.0
  outer loop
    vertex 326.6530426926018 -279.4999999996082 300.000000000463
    vertex 306.6530426926016 -279.4999999996082 300.000000000463
    vertex 326.6530426926018 -209.4999999996084 300.0000000003252
  endloop
endfacet
facet normal 1.6481630760588778e-17 -1.9697943500619597e-12 -1.0
  outer loop
    vertex 334.30451458524794 -262.4999999996083 300.0000000004295
    vertex 326.6530426926018 -279.4999999996082 300.000000000463
    vertex 326.6530426926018 -209.4999999996084 300.0000000003252
  endloop
endfacet
facet normal 1.6481630760588778e-17 -1.9697943500619597e-12 -1.0
  outer loop
    vertex 338.9264872218368 -274.85071762747043 300.0000000004539
    vertex 326.6530426926018 -279.4999999996082 300.000000000463
    vertex 334.30451458524794 -262.4999999996083 300.0000000004295
  endloop
endfacet
facet normal 1.6481630760588778e-17 -1.9697943500619597e-12 -1.0
  outer loop
    vertex 334.2528281838116 -226.49999999960832 300.0000000003587
    vertex 334.30451458524794 -262.4999999996083 300.0000000004295
    vertex 326.6530426926018 -209.4999999996084 300.0000000003252
  endloop
endfacet
facet normal 1.6481630760588778e-17 -1.9697943500619597e-12 -1.0
  outer loop
    vertex 334.2528281838116 -226.49999999960832 300.0000000003587
    vertex 334.6016515709217 -226.9999999996084 300.0000000003597
    vertex 334.30451458524794 -262.4999999996083 300.0000000004295
  endloop
endfacet
facet normal 1.6481630760588778e-17 -1.9697943500619597e-12 -1.0
  outer loop
    vertex 334.998016847131 -261.4999999996083 300.0000000004276
    vertex 334.30451458524794 -262.4999999996083 300.0000000004295
    vertex 334.6016515709217 -226.9999999996084 300.0000000003597
  endloop
endfacet
facet normal 1.6481630760588778e-17 -1.9697943500619597e-12 -1.0
  outer loop
    vertex 334.9504749580318 -227.4999999996083 300.0000000003606
    vertex 334.998016847131 -261.4999999996083 300.0000000004276
    vertex 334.6016515709217 -226.9999999996084 300.0000000003597
  endloop
endfacet
facet normal 1.6481630760588778e-17 -1.9697943500619597e-12 -1.0
  outer loop
    vertex 339.74742573837773 -214.46026067653028 300.0000000003349
    vertex 334.998016847131 -261.4999999996083 300.0000000004276
    vertex 334.9504749580318 -227.4999999996083 300.0000000003606
  endloop
endfacet
facet normal 1.6481630760588778e-17 -1.9697943500619597e-12 -1.0
  outer loop
    vertex 339.8616478758764 -274.4964710316118 300.00000000045316
    vertex 334.998016847131 -261.4999999996083 300.0000000004276
    vertex 339.74742573837773 -214.46026067653028 300.0000000003349
  endloop
endfacet
facet normal 1.6481630760588778e-17 -1.9697943500619597e-12 -1.0
  outer loop
    vertex 359.65126571618936 -221.99999999960826 300.00000000034987
    vertex 339.8616478758764 -274.4964710316118 300.00000000045316
    vertex 339.74742573837773 -214.46026067653028 300.0000000003349
  endloop
endfacet
facet normal 1.6481630760588778e-17 -1.9697943500619597e-12 -1.0
  outer loop
    vertex 359.65126571618936 -266.99999999960835 300.00000000043843
    vertex 339.8616478758764 -274.4964710316118 300.00000000045316
    vertex 359.65126571618936 -221.99999999960826 300.00000000034987
  endloop
endfacet
facet normal 1.6481630760588778e-17 -1.9697943500619597e-12 -1.0
  outer loop
    vertex 334.2528281838116 -226.49999999960832 300.0000000003587
    vertex 326.6530426926018 -209.4999999996084 300.0000000003252
    vertex 338.8122295305729 -214.10600061261096 300.00000000033424
  endloop
endfacet
facet normal -0.9064072171270502 0.33344154356063893 0.2593119622537597
  outer loop
    vertex 335.0241718528258 -228.07735026879482 301.50000000036175
    vertex 339.9985224116658 -214.55537817463778 301.5000000003352
    vertex 334.9504749580318 -227.49999999960724 300.5000000003606
  endloop
endfacet
facet normal -0.9064072171270502 0.33344154356063893 0.2593119622537597
  outer loop
    vertex 339.74742573837773 -214.46026067652923 300.5000000003349
    vertex 334.9504749580318 -227.49999999960724 300.5000000003606
    vertex 339.9985224116658 -214.55537817463778 301.5000000003352
  endloop
endfacet
facet normal -1.0 0.0 0.0
  outer loop
    vertex 299.65126571618964 -244.49999999960838 300.0000000003941
    vertex 299.65126571618964 -244.49999999960735 300.5000000003941
    vertex 299.65126571618964 -209.4999999996084 300.0000000003252
  endloop
endfacet
facet normal -1.0 0.0 0.0
  outer loop
    vertex 299.65126571618964 -243.9999999996073 300.5000000003932
    vertex 299.65126571618964 -209.4999999996084 300.0000000003252
    vertex 299.65126571618964 -244.49999999960735 300.5000000003941
  endloop
endfacet
facet normal -1.0 0.0 0.0
  outer loop
    vertex 299.65126571618964 -227.99999999960733 300.5000000003616
    vertex 299.65126571618964 -209.4999999996084 300.0000000003252
    vertex 299.65126571618964 -243.9999999996073 300.5000000003932
  endloop
endfacet
facet normal -1.0 0.0 0.0
  outer loop
    vertex 299.65126571618964 -227.49999999960724 300.5000000003606
    vertex 299.65126571618964 -209.4999999996084 300.0000000003252
    vertex 299.65126571618964 -227.99999999960733 300.5000000003616
  endloop
endfacet
facet normal -1.0 0.0 0.0
  outer loop
    vertex 299.65126571618964 -226.4999999996073 300.50000000035874
    vertex 299.65126571618964 -209.4999999996084 300.0000000003252
    vertex 299.65126571618964 -227.49999999960724 300.5000000003606
  endloop
endfacet
facet normal -1.0 0.0 0.0
  outer loop
    vertex 299.65126571618964 -209.49999999960738 300.50000000032526
    vertex 299.65126571618964 -209.4999999996084 300.0000000003252
    vertex 299.65126571618964 -226.4999999996073 300.50000000035874
  endloop
endfacet
facet normal 0.8201375933505726 0.5721663464178323 -1.102406778410376e-12
  outer loop
    vertex 334.9504749580318 -227.4999999996083 300.0000000003606
    vertex 334.6016515709217 -226.9999999996084 300.0000000003597
    vertex 334.9504749580318 -227.49999999960724 300.5000000003606
  endloop
endfacet
facet normal 0.8201375933505726 0.5721663464178323 -1.102406778410376e-12
  outer loop
    vertex 334.2528281838116 -226.4999999996073 300.50000000035874
    vertex 334.9504749580318 -227.49999999960724 300.5000000003606
    vertex 334.6016515709217 -226.9999999996084 300.0000000003597
  endloop
endfacet
facet normal 0.8201375933505726 0.5721663464178323 -1.102406778410376e-12
  outer loop
    vertex 334.2528281838116 -226.49999999960832 300.0000000003587
    vertex 334.2528281838116 -226.4999999996073 300.50000000035874
    vertex 334.6016515709217 -226.9999999996084 300.0000000003597
  endloop
endfacet
facet normal 0.3542437442893681 -0.935153126301703 1.834164496490196e-12
  outer loop
    vertex 326.6530426926018 -279.4999999996053 301.50000000046305
    vertex 326.6530426926018 -279.4999999996082 300.000000000463
    vertex 338.67591167979344 -274.9456377167494 301.50000000045407
  endloop
endfacet
facet normal 0.3542437442893681 -0.935153126301703 1.834164496490196e-12
  outer loop
    vertex 338.9264872218368 -274.8507176274694 300.5000000004539
    vertex 338.67591167979344 -274.9456377167494 301.50000000045407
    vertex 326.6530426926018 -279.4999999996082 300.000000000463
  endloop
endfacet
facet normal 0.3542437442893681 -0.935153126301703 1.834164496490196e-12
  outer loop
    vertex 338.9264872218368 -274.85071762747043 300.0000000004539
    vertex 338.9264872218368 -274.8507176274694 300.5000000004539
    vertex 326.6530426926018 -279.4999999996082 300.000000000463
  endloop
endfacet
facet normal -0.9385102606946563 0.3452513440536454 -6.799751279575151e-13
  outer loop
    vertex 334.9504749580318 -227.4999999996083 300.0000000003606
    vertex 334.9504749580318 -227.49999999960724 300.5000000003606
    vertex 339.74742573837773 -214.46026067653028 300.0000000003349
  endloop
endfacet
facet normal -0.9385102606946563 0.3452513440536454 -6.799751279575151e-13
  outer loop
    vertex 339.74742573837773 -214.46026067652923 300.5000000003349
    vertex 339.74742573837773 -214.46026067653028 300.0000000003349
    vertex 334.9504749580318 -227.49999999960724 300.5000000003606
  endloop
endfacet
facet normal -0.7071067811865346 1.3962232182405576e-12 0.7071067811865606
  outer loop
    vertex 299.65126571618964 -227.49999999960724 300.5000000003606
    vertex 299.65126571618964 -227.99999999960733 300.5000000003616
    vertex 300.6512657161898 -228.07735026879502 301.50000000036175
  endloop
endfacet
facet normal -0.7071067811865346 1.3962232182405576e-12 0.7071067811865606
  outer loop
    vertex 299.65126571618964 -243.9999999996073 300.5000000003932
    vertex 300.6512657161898 -228.07735026879502 301.50000000036175
    vertex 299.65126571618964 -227.99999999960733 300.5000000003616
  endloop
endfacet
facet normal -0.7071067811865346 1.3962232182405576e-12 0.7071067811865606
  outer loop
    vertex 300.6512657161894 -243.42264973041574 301.5000000003921
    vertex 300.6512657161898 -228.07735026879502 301.50000000036175
    vertex 299.65126571618964 -243.9999999996073 300.5000000003932
  endloop
endfacet
facet normal -0.9805711006119545 -0.1961640044571389 4.3928319568318586e-13
  outer loop
    vertex 306.6530426926016 -279.4999999996082 300.000000000463
    vertex 306.6530426926016 -279.4999999996073 300.500000000463
    vertex 299.65126571618964 -244.49999999960838 300.0000000003941
  endloop
endfacet
facet normal -0.9805711006119545 -0.1961640044571389 4.3928319568318586e-13
  outer loop
    vertex 303.25217958977305 -262.4999999996072 300.5000000004295
    vertex 299.65126571618964 -244.49999999960838 300.0000000003941
    vertex 306.6530426926016 -279.4999999996073 300.500000000463
  endloop
endfacet
facet normal -0.9805711006119545 -0.1961640044571389 4.3928319568318586e-13
  outer loop
    vertex 303.0521288190182 -261.49999999960727 300.5000000004276
    vertex 299.65126571618964 -244.49999999960838 300.0000000003941
    vertex 303.25217958977305 -262.4999999996072 300.5000000004295
  endloop
endfacet
facet normal -0.9805711006119545 -0.1961640044571389 4.3928319568318586e-13
  outer loop
    vertex 299.7512911015669 -244.99999999960724 300.50000000039506
    vertex 299.65126571618964 -244.49999999960838 300.0000000003941
    vertex 303.0521288190182 -261.49999999960727 300.5000000004276
  endloop
endfacet
facet normal -0.9805711006119545 -0.1961640044571389 4.3928319568318586e-13
  outer loop
    vertex 299.65126571618964 -244.49999999960735 300.5000000003941
    vertex 299.65126571618964 -244.49999999960838 300.0000000003941
    vertex 299.7512911015669 -244.99999999960724 300.50000000039506
  endloop
endfacet
facet normal 0.3542437442893747 0.9351531263017007 -1.8499195658130777e-12
  outer loop
    vertex 338.5678371872553 -214.0134227701802 301.50000000033407
    vertex 338.8122295305729 -214.10600061260993 300.50000000033424
    vertex 326.6530426926018 -209.4999999996053 301.50000000032526
  endloop
endfacet
facet normal 0.3542437442893747 0.9351531263017007 -1.8499195658130777e-12
  outer loop
    vertex 326.6530426926018 -209.4999999996084 300.0000000003252
    vertex 326.6530426926018 -209.4999999996053 301.50000000032526
    vertex 338.8122295305729 -214.10600061260993 300.50000000033424
  endloop
endfacet
facet normal 0.3542437442893747 0.9351531263017007 -1.8499195658130777e-12
  outer loop
    vertex 338.8122295305729 -214.10600061261096 300.00000000033424
    vertex 326.6530426926018 -209.4999999996084 300.0000000003252
    vertex 338.8122295305729 -214.10600061260993 300.50000000033424
  endloop
endfacet
facet normal 0.35424374428936656 0.9351531263017037 -1.895129040121556e-12
  outer loop
    vertex 359.0739154469999 -221.78129493904154 301.5000000003494
    vertex 359.65126571618936 -221.9999999996074 300.50000000034987
    vertex 339.9985224116658 -214.55537817463778 301.5000000003352
  endloop
endfacet
facet normal 0.35424374428936656 0.9351531263017037 -1.895129040121556e-12
  outer loop
    vertex 339.74742573837773 -214.46026067652923 300.5000000003349
    vertex 339.9985224116658 -214.55537817463778 301.5000000003352
    vertex 359.65126571618936 -221.9999999996074 300.50000000034987
  endloop
endfacet
facet normal 0.35424374428936656 0.9351531263017037 -1.895129040121556e-12
  outer loop
    vertex 359.65126571618936 -221.99999999960826 300.00000000034987
    vertex 339.74742573837773 -214.46026067652923 300.5000000003349
    vertex 359.65126571618936 -221.9999999996074 300.50000000034987
  endloop
endfacet
facet normal 0.35424374428936656 0.9351531263017037 -1.895129040121556e-12
  outer loop
    vertex 339.74742573837773 -214.46026067653028 300.0000000003349
    vertex 339.74742573837773 -214.46026067652923 300.5000000003349
    vertex 359.65126571618936 -221.99999999960826 300.00000000034987
  endloop
endfacet
facet normal 0.866025403784535 9.88473449498449e-13 0.4999999999998336
  outer loop
    vertex 359.65126571618936 -243.9999999996073 300.5000000003932
    vertex 359.65126571618936 -221.9999999996074 300.50000000034987
    vertex 359.0739154470003 -243.42264973041574 301.5000000003921
  endloop
endfacet
facet normal 0.866025403784535 9.88473449498449e-13 0.4999999999998336
  outer loop
    vertex 359.0739154469999 -221.78129493904154 301.5000000003494
    vertex 359.0739154470003 -243.42264973041574 301.5000000003921
    vertex 359.65126571618936 -221.9999999996074 300.50000000034987
  endloop
endfacet
facet normal 0.9385102606946627 -0.3452513440536277 6.806350772231038e-13
  outer loop
    vertex 334.2528281838116 -226.49999999960832 300.0000000003587
    vertex 338.8122295305729 -214.10600061261096 300.00000000033424
    vertex 334.2528281838116 -226.4999999996073 300.50000000035874
  endloop
endfacet
facet normal 0.9385102606946627 -0.3452513440536277 6.806350772231038e-13
  outer loop
    vertex 338.8122295305729 -214.10600061260993 300.50000000033424
    vertex 334.2528281838116 -226.4999999996073 300.50000000035874
    vertex 338.8122295305729 -214.10600061261096 300.00000000033424
  endloop
endfacet
facet normal 0.8217325272618637 -0.5698733663190715 1.0978420081399181e-12
  outer loop
    vertex 334.30451458524794 -262.4999999996083 300.0000000004295
    vertex 334.998016847131 -261.4999999996083 300.0000000004276
    vertex 334.30451458524794 -262.4999999996072 300.5000000004295
  endloop
endfacet
facet normal 0.8217325272618637 -0.5698733663190715 1.0978420081399181e-12
  outer loop
    vertex 334.998016847131 -261.49999999960727 300.5000000004276
    vertex 334.30451458524794 -262.4999999996072 300.5000000004295
    vertex 334.998016847131 -261.4999999996083 300.0000000004276
  endloop
endfacet
facet normal 0.9080171279327164 -0.3340337841484845 0.2528365607032823
  outer loop
    vertex 334.2528281838116 -226.4999999996073 300.50000000035874
    vertex 338.8122295305729 -214.10600061260993 300.50000000033424
    vertex 334.1867698863844 -225.92264973041574 301.5000000003576
  endloop
endfacet
facet normal 0.9080171279327164 -0.3340337841484845 0.2528365607032823
  outer loop
    vertex 338.5678371872553 -214.0134227701802 301.50000000033407
    vertex 334.1867698863844 -225.92264973041574 301.5000000003576
    vertex 338.8122295305729 -214.10600061260993 300.50000000033424
  endloop
endfacet
facet normal 0.0 1.0 -1.9698374875698473e-12
  outer loop
    vertex 300.6512657161894 -209.4999999996053 301.50000000032526
    vertex 326.6530426926018 -209.4999999996053 301.50000000032526
    vertex 299.65126571618964 -209.49999999960738 300.50000000032526
  endloop
endfacet
facet normal 0.0 1.0 -1.9698374875698473e-12
  outer loop
    vertex 326.6530426926018 -209.4999999996084 300.0000000003252
    vertex 299.65126571618964 -209.49999999960738 300.50000000032526
    vertex 326.6530426926018 -209.4999999996053 301.50000000032526
  endloop
endfacet
facet normal 0.0 1.0 -1.9698374875698473e-12
  outer loop
    vertex 299.65126571618964 -209.4999999996084 300.0000000003252
    vertex 299.65126571618964 -209.49999999960738 300.50000000032526
    vertex 326.6530426926018 -209.4999999996084 300.0000000003252
  endloop
endfacet
facet normal -3.1297408469220814e-15 -1.0 2.0329655828389772e-12
  outer loop
    vertex 326.6530426926018 -279.4999999996053 301.50000000046305
    vertex 307.6728565534997 -279.49999999960505 301.50000000046305
    vertex 326.6530426926018 -279.4999999996082 300.000000000463
  endloop
endfacet
facet normal -3.1297408469220814e-15 -1.0 2.0329655828389772e-12
  outer loop
    vertex 306.6530426926016 -279.4999999996073 300.500000000463
    vertex 326.6530426926018 -279.4999999996082 300.000000000463
    vertex 307.6728565534997 -279.49999999960505 301.50000000046305
  endloop
endfacet
facet normal -3.1297408469220814e-15 -1.0 2.0329655828389772e-12
  outer loop
    vertex 306.6530426926016 -279.4999999996082 300.000000000463
    vertex 326.6530426926018 -279.4999999996082 300.000000000463
    vertex 306.6530426926016 -279.4999999996073 300.500000000463
  endloop
endfacet
facet normal -0.9046542176583651 -0.33854608012031323 0.2588190451031415
  outer loop
    vertex 339.8616478758764 -274.4964710316108 300.5000000004532
    vertex 340.1122234179197 -274.40155094232705 301.500000000453
    vertex 334.998016847131 -261.49999999960727 300.5000000004276
  endloop
endfacet
facet normal -0.9046542176583651 -0.33854608012031323 0.2588190451031415
  outer loop
    vertex 335.06805396559577 -260.92264973041574 301.5000000004265
    vertex 334.998016847131 -261.49999999960727 300.5000000004276
    vertex 340.1122234179197 -274.40155094232705 301.500000000453
  endloop
endfacet
endsolid ProtoGlove baseplate
