solid ProtoGlove
facet normal -0.3007057995042938 -0.9537169507482204 0.0
  outer loop
    vertex 2.0607481078621963 257.9935026761258 0.005719012009999602
    vertex 3.9280237384155545 257.404752931309 0.005719012009999602
    vertex 2.0607481078621963 257.9935026761258 2.005719012009996
  endloop
endfacet
facet normal -0.3007057995042938 -0.9537169507482204 0.0
  outer loop
    vertex 3.9280237384155545 257.404752931309 2.005719012009996
    vertex 2.0607481078621963 257.9935026761258 2.005719012009996
    vertex 3.9280237384155545 257.404752931309 0.005719012009999602
  endloop
endfacet
facet normal -0.5372996083468473 -0.843391445812871 0.0
  outer loop
    vertex 0.40947799826843506 259.04547775550833 0.005719012009999602
    vertex 2.0607481078621963 257.9935026761258 0.005719012009999602
    vertex 0.40947799826843506 259.04547775550833 2.005719012009996
  endloop
endfacet
facet normal -0.5372996083468473 -0.843391445812871 0.0
  outer loop
    vertex 2.0607481078621963 257.9935026761258 2.005719012009996
    vertex 0.40947799826843506 259.04547775550833 2.005719012009996
    vertex 2.0607481078621963 257.9935026761258 0.005719012009999602
  endloop
endfacet
facet normal -0.7372773368101182 -0.6755902076156666 0.0
  outer loop
    vertex -0.9132552612499388 260.4889878062678 2.005719012009996
    vertex -0.9132552612499388 260.4889878062678 0.005719012009999602
    vertex 0.40947799826843506 259.04547775550833 2.005719012009996
  endloop
endfacet
facet normal -0.7372773368101182 -0.6755902076156666 0.0
  outer loop
    vertex 0.40947799826843506 259.04547775550833 0.005719012009999602
    vertex 0.40947799826843506 259.04547775550833 2.005719012009996
    vertex -0.9132552612499388 260.4889878062678 0.005719012009999602
  endloop
endfacet
facet normal -0.8870108331782163 -0.4617486132350445 0.0
  outer loop
    vertex -1.8173095849768564 262.2256600039581 2.005719012009996
    vertex -1.8173095849768564 262.2256600039581 0.005719012009999602
    vertex -0.9132552612499388 260.4889878062678 2.005719012009996
  endloop
endfacet
facet normal -0.8870108331782163 -0.4617486132350445 0.0
  outer loop
    vertex -0.9132552612499388 260.4889878062678 0.005719012009999602
    vertex -0.9132552612499388 260.4889878062678 2.005719012009996
    vertex -1.8173095849768564 262.2256600039581 0.005719012009999602
  endloop
endfacet
facet normal -0.9656834497550955 -0.1702760428572838 -0.19611614950830153
  outer loop
    vertex 7.658035434848576 268.0112945366666 1.2557190631922874
    vertex 7.66386379862917 268.2661788632374 1.005719004147277
    vertex 7.967748103820734 266.54276528584944 1.005719004147277
  endloop
endfacet
facet normal -0.04034742819138071 0.9605140973526388 -0.27529030826599615
  outer loop
    vertex 6.93892724959659 262.2996499799947 1.2557190120104147
    vertex 6.794120258261751 262.4010449269128 1.630719012010194
    vertex 8.450868528683595 262.36316071497055 1.2557190631922874
  endloop
endfacet
facet normal -0.04034742819138071 0.9605140973526388 -0.27529030826599615
  outer loop
    vertex 8.306061537348755 262.46455566188877 1.6307190631920667
    vertex 8.450868528683595 262.36316071497055 1.2557190631922874
    vertex 6.794120258261751 262.4010449269128 1.630719012010194
  endloop
endfacet
facet normal -0.29060099008476664 0.9163876423240503 0.2752903077798449
  outer loop
    vertex 4.578302834061178 262.01033651430447 1.63071906631104
    vertex 3.13582084004096 261.5529026974008 1.6307190712148263
    vertex 4.476907887142905 261.8655295229696 2.0057190663108195
  endloop
endfacet
facet normal -0.29060099008476664 0.9163876423240503 0.2752903077798449
  outer loop
    vertex 3.034425893122867 261.4080957060659 2.005719071214606
    vertex 4.476907887142905 261.8655295229696 2.0057190663108195
    vertex 3.13582084004096 261.5529026974008 1.6307190712148263
  endloop
endfacet
facet normal 0.29060099008465334 -0.9163876423240759 0.2752903077798798
  outer loop
    vertex 5.882467307774161 267.57128564349694 1.6307190663110174
    vertex 7.32494930179438 268.0287194604006 1.6307190712148039
    vertex 5.9838622546924345 267.7160926348318 2.005719066310797
  endloop
endfacet
facet normal 0.29060099008465334 -0.9163876423240759 0.2752903077798798
  outer loop
    vertex 7.426344248712472 268.1735264517355 2.005719071214583
    vertex 5.9838622546924345 267.7160926348318 2.005719066310797
    vertex 7.32494930179438 268.0287194604006 1.6307190712148039
  endloop
endfacet
facet normal -0.1702760497784818 0.9656834682625596 -0.1961160523675464
  outer loop
    vertex 4.520319915241566 261.61932758994385 1.005719004147277
    vertex 2.7969063309069644 261.31544327699913 1.005719004147277
    vertex 3.034425893122867 261.4080957060659 1.255719071215047
  endloop
endfacet
facet normal -0.16473712512400324 0.9342706672082848 0.3162277660169406
  outer loop
    vertex 6.794120258261751 262.4010449269128 1.630719012010194
    vertex 4.578302834061178 262.01033651430447 1.63071906631104
    vertex 6.93892724959659 262.2996499799947 2.0057190120099735
  endloop
endfacet
facet normal -0.16473712512400324 0.9342706672082848 0.3162277660169406
  outer loop
    vertex 4.476907887142905 261.8655295229696 2.0057190663108195
    vertex 6.93892724959659 262.2996499799947 2.0057190120099735
    vertex 4.578302834061178 262.01033651430447 1.63071906631104
  endloop
endfacet
facet normal -0.9605140973526355 -0.04034742819120265 -0.2752903082660334
  outer loop
    vertex 7.658035434848576 268.0112945366666 1.2557190631922874
    vertex 7.721546169824011 266.4993532575793 1.2557190120104147
    vertex 7.556640487930483 267.86648754533167 1.6307190631919766
  endloop
endfacet
facet normal -0.9605140973526355 -0.04034742819120265 -0.2752903082660334
  outer loop
    vertex 7.620151222905737 266.35454626624454 1.630719012010194
    vertex 7.556640487930483 267.86648754533167 1.6307190631919766
    vertex 7.721546169824011 266.4993532575793 1.2557190120104147
  endloop
endfacet
facet normal 0.7409509097989572 -0.5188193977192891 0.42640143271135006
  outer loop
    vertex 2.009901613151565 267.21846144283154 2.005719063191824
    vertex 1.84766969808258 266.9867702566955 2.0057190712145605
    vertex 2.154708604486584 267.1170664959135 1.6307190631920443
  endloop
endfacet
facet normal 0.7409509097989572 -0.5188193977192891 0.42640143271135006
  outer loop
    vertex 1.9924766894174188 266.88537530977726 1.6307190712147586
    vertex 2.154708604486584 267.1170664959135 1.6307190631920443
    vertex 1.84766969808258 266.9867702566955 2.0057190712145605
  endloop
endfacet
facet normal 0.9656834800379118 0.17027604272712968 -0.19611600050749703
  outer loop
    vertex 1.7550172874471008 267.22428980676557 1.005719004147277
    vertex 1.84766969808258 266.9867702566955 1.255719071215002
    vertex 2.058901584593503 265.5008762196447 1.005719004147277
  endloop
endfacet
facet normal 0.16473713932499714 -0.9342706647042665 -0.3162277660169405
  outer loop
    vertex 3.5218428922389298 267.2819721778072 1.255719012010392
    vertex 5.9838622546924345 267.7160926348318 1.255719066311238
    vertex 3.666649883573769 267.180577230889 1.6307190120101716
  endloop
endfacet
facet normal 0.16473713932499714 -0.9342706647042665 -0.3162277660169405
  outer loop
    vertex 5.882467307774161 267.57128564349694 1.6307190663110174
    vertex 3.666649883573769 267.180577230889 1.6307190120101716
    vertex 5.9838622546924345 267.7160926348318 1.255719066311238
  endloop
endfacet
facet normal -0.9163876423240186 -0.2906009900848633 0.27529030777984903
  outer loop
    vertex 8.010859635514237 264.1387288420449 1.6307190663110174
    vertex 8.468293452417921 262.6962468480245 1.6307190712147135
    vertex 8.155666626849076 264.0373338951268 2.005719066310797
  endloop
endfacet
facet normal -0.9163876423240186 -0.2906009900848633 0.27529030777984903
  outer loop
    vertex 8.61310044375294 262.5948519011064 2.005719071214583
    vertex 8.155666626849076 264.0373338951268 2.005719066310797
    vertex 8.468293452417921 262.6962468480245 1.6307190712147135
  endloop
endfacet
facet normal 0.5188193977192247 0.7409509097990022 0.4264014327113499
  outer loop
    vertex 2.9041296539048567 261.71513461246974 1.6307190631920667
    vertex 2.8027347069867634 261.57032762113494 2.0057190631918687
    vertex 3.13582084004096 261.5529026974008 1.6307190712148263
  endloop
endfacet
facet normal 0.5188193977192247 0.7409509097990022 0.4264014327113499
  outer loop
    vertex 3.034425893122867 261.4080957060659 2.005719071214606
    vertex 3.13582084004096 261.5529026974008 1.6307190712148263
    vertex 2.8027347069867634 261.57032762113494 2.0057190631918687
  endloop
endfacet
facet normal 0.1702760517644623 -0.9656834795256146 -0.19611599518348316
  outer loop
    vertex 5.940450214294389 267.96229455029265 1.005719004147277
    vertex 7.66386379862917 268.2661788632374 1.005719004147277
    vertex 7.426344248712472 268.1735264517355 1.2557190712150244
  endloop
endfacet
facet normal 0.12278782607981248 -0.6963643083421691 -0.7071067103582926
  outer loop
    vertex 3.478430849036619 267.5281741091711 1.005719004147277
    vertex 5.940450214294389 267.96229455029265 1.005719004147277
    vertex 3.5218428922389298 267.2819721778072 1.255719012010392
  endloop
endfacet
facet normal 0.12278782607981248 -0.6963643083421691 -0.7071067103582926
  outer loop
    vertex 5.9838622546924345 267.7160926348318 1.255719066311238
    vertex 3.5218428922389298 267.2819721778072 1.255719012010392
    vertex 5.940450214294389 267.96229455029265 1.005719004147277
  endloop
endfacet
facet normal -0.6245976266395639 0.43734798892482973 -0.6469965543800301
  outer loop
    vertex 8.450868528683595 262.36316071497055 1.2557190631922874
    vertex 8.61310044375294 262.5948519011064 1.2557190712150244
    vertex 8.705752857886802 262.3573323362574 1.005719004147277
  endloop
endfacet
facet normal -0.5188193977192344 -0.740950909798999 0.42640143271134406
  outer loop
    vertex 7.556640487930483 267.86648754533167 1.6307190631919766
    vertex 7.658035434848576 268.0112945366666 2.005719063191846
    vertex 7.32494930179438 268.0287194604006 1.6307190712148039
  endloop
endfacet
facet normal -0.5188193977192344 -0.740950909798999 0.42640143271134406
  outer loop
    vertex 7.426344248712472 268.1735264517355 2.005719071214583
    vertex 7.32494930179438 268.0287194604006 1.6307190712148039
    vertex 7.658035434848576 268.0112945366666 2.005719063191846
  endloop
endfacet
facet normal 0.9605140973526359 0.040347428191320006 -0.2752903082660147
  outer loop
    vertex 2.8406189189294215 263.22707589155686 1.6307190120102166
    vertex 2.9041296539048567 261.71513461246974 1.6307190631920667
    vertex 2.739223972011148 263.0822689002219 1.2557190120104371
  endloop
endfacet
facet normal 0.9605140973526359 0.040347428191320006 -0.2752903082660147
  outer loop
    vertex 2.8027347069867634 261.57032762113494 1.25571906319231
    vertex 2.739223972011148 263.0822689002219 1.2557190120104371
    vertex 2.9041296539048567 261.71513461246974 1.6307190631920667
  endloop
endfacet
facet normal -0.9342706672082758 -0.1647371251239443 0.31622776601699837
  outer loop
    vertex 7.721546169824011 266.4993532575793 2.0057190120099735
    vertex 7.620151222905737 266.35454626624454 1.630719012010194
    vertex 8.155666626849076 264.0373338951268 2.005719066310797
  endloop
endfacet
facet normal -0.9342706672082758 -0.1647371251239443 0.31622776601699837
  outer loop
    vertex 8.010859635514237 264.1387288420449 1.6307190663110174
    vertex 8.155666626849076 264.0373338951268 2.005719066310797
    vertex 7.620151222905737 266.35454626624454 1.630719012010194
  endloop
endfacet
facet normal -0.21468436058642906 0.6769904402512901 -0.7039847790456557
  outer loop
    vertex 3.034425893122867 261.4080957060659 1.255719071215047
    vertex 4.476907887142905 261.8655295229696 1.2557190663112605
    vertex 4.520319915241566 261.61932758994385 1.005719004147277
  endloop
endfacet
facet normal 0.9342706647042447 0.1647371393250709 -0.31622776601696617
  outer loop
    vertex 2.3051035149862633 265.54428826267525 1.2557190663112154
    vertex 2.4499105063211024 265.44289331575726 1.630719066310995
    vertex 2.739223972011148 263.0822689002219 1.2557190120104371
  endloop
endfacet
facet normal 0.9342706647042447 0.1647371393250709 -0.31622776601696617
  outer loop
    vertex 2.8406189189294215 263.22707589155686 1.6307190120102166
    vertex 2.739223972011148 263.0822689002219 1.2557190120104371
    vertex 2.4499105063211024 265.44289331575726 1.630719066310995
  endloop
endfacet
facet normal 0.1702760428569117 -0.9656834497547331 -0.1961161495104092
  outer loop
    vertex 1.7550172874471008 267.22428980676557 1.005719004147277
    vertex 3.478430849036619 267.5281741091711 1.005719004147277
    vertex 2.009901613151565 267.21846144283154 1.2557190631922648
  endloop
endfacet
facet normal -0.04034744671922171 0.9605140947272601 0.27529031471069143
  outer loop
    vertex 6.794120258261751 262.4010449269128 1.630719012010194
    vertex 6.93892724959659 262.2996499799947 2.0057190120099735
    vertex 8.306061537348755 262.46455566188877 1.6307190631920667
  endloop
endfacet
facet normal -0.04034744671922171 0.9605140947272601 0.27529031471069143
  outer loop
    vertex 8.450868528683595 262.36316071497055 2.005719063191846
    vertex 8.306061537348755 262.46455566188877 1.6307190631920667
    vertex 6.93892724959659 262.2996499799947 2.0057190120099735
  endloop
endfacet
facet normal -0.9163876419532315 -0.2906009918389887 -0.2752903071624432
  outer loop
    vertex 8.010859635514237 264.1387288420449 1.6307190663110174
    vertex 8.155666626849076 264.0373338951268 1.255719066311238
    vertex 8.468293452417921 262.6962468480245 1.6307190712147135
  endloop
endfacet
facet normal -0.9163876419532315 -0.2906009918389887 -0.2752903071624432
  outer loop
    vertex 8.61310044375294 262.5948519011064 1.2557190712150244
    vertex 8.468293452417921 262.6962468480245 1.6307190712147135
    vertex 8.155666626849076 264.0373338951268 1.255719066311238
  endloop
endfacet
facet normal 0.6963642872252344 0.1227878223563759 -0.7071067318009854
  outer loop
    vertex 2.058901584593503 265.5008762196447 1.005719004147277
    vertex 2.3051035149862633 265.54428826267525 1.2557190663112154
    vertex 2.49302202571504 263.03885685438706 1.005719004147277
  endloop
endfacet
facet normal 0.6963642872252344 0.1227878223563759 -0.7071067318009854
  outer loop
    vertex 2.739223972011148 263.0822689002219 1.2557190120104371
    vertex 2.49302202571504 263.03885685438706 1.005719004147277
    vertex 2.3051035149862633 265.54428826267525 1.2557190663112154
  endloop
endfacet
facet normal 0.2146843661788796 -0.6769904578866484 -0.7039847603810746
  outer loop
    vertex 5.9838622546924345 267.7160926348318 1.255719066311238
    vertex 5.940450214294389 267.96229455029265 1.005719004147277
    vertex 7.426344248712472 268.1735264517355 1.2557190712150244
  endloop
endfacet
facet normal -0.6963643083423955 -0.1227878260799075 -0.7071067103580532
  outer loop
    vertex 7.721546169824011 266.4993532575793 1.2557190120104147
    vertex 7.967748103820734 266.54276528584944 1.005719004147277
    vertex 8.155666626849076 264.0373338951268 1.255719066311238
  endloop
endfacet
facet normal -0.6963643083423955 -0.1227878260799075 -0.7071067103580532
  outer loop
    vertex 8.401868544942271 264.0807459205918 1.005719004147277
    vertex 8.155666626849076 264.0373338951268 1.255719066311238
    vertex 7.967748103820734 266.54276528584944 1.005719004147277
  endloop
endfacet
facet normal -0.9656834795261159 -0.170276051764448 -0.19611599518102812
  outer loop
    vertex 8.61310044375294 262.5948519011064 1.2557190712150244
    vertex 8.401868544942271 264.0807459205918 1.005719004147277
    vertex 8.705752857886802 262.3573323362574 1.005719004147277
  endloop
endfacet
facet normal 0.29060099183880017 -0.9163876419533021 -0.2752903071624072
  outer loop
    vertex 5.9838622546924345 267.7160926348318 1.255719066311238
    vertex 7.426344248712472 268.1735264517355 1.2557190712150244
    vertex 5.882467307774161 267.57128564349694 1.6307190663110174
  endloop
endfacet
facet normal 0.29060099183880017 -0.9163876419533021 -0.2752903071624072
  outer loop
    vertex 7.32494930179438 268.0287194604006 1.6307190712148039
    vertex 5.882467307774161 267.57128564349694 1.6307190663110174
    vertex 7.426344248712472 268.1735264517355 1.2557190712150244
  endloop
endfacet
facet normal 0.934270667208285 0.16473712512395314 0.3162277660169662
  outer loop
    vertex 2.3051035149862633 265.54428826267525 2.0057190663107742
    vertex 2.739223972011148 263.0822689002219 2.005719012009996
    vertex 2.4499105063211024 265.44289331575726 1.630719066310995
  endloop
endfacet
facet normal 0.934270667208285 0.16473712512395314 0.3162277660169662
  outer loop
    vertex 2.8406189189294215 263.22707589155686 1.6307190120102166
    vertex 2.4499105063211024 265.44289331575726 1.630719066310995
    vertex 2.739223972011148 263.0822689002219 2.005719012009996
  endloop
endfacet
facet normal -0.17027604087131473 0.9656834384915227 -0.1961162066948576
  outer loop
    vertex 8.705752857886802 262.3573323362574 1.005719004147277
    vertex 6.982339280499335 262.0534480310654 1.005719004147277
    vertex 8.450868528683595 262.36316071497055 1.2557190631922874
  endloop
endfacet
facet normal -0.43734799817674114 -0.6245976398544629 -0.6469965353686463
  outer loop
    vertex 7.658035434848576 268.0112945366666 1.2557190631922874
    vertex 7.426344248712472 268.1735264517355 1.2557190712150244
    vertex 7.66386379862917 268.2661788632374 1.005719004147277
  endloop
endfacet
facet normal -0.6769904606003979 -0.2146843670394949 -0.7039847575089341
  outer loop
    vertex 8.155666626849076 264.0373338951268 1.255719066311238
    vertex 8.401868544942271 264.0807459205918 1.005719004147277
    vertex 8.61310044375294 262.5948519011064 1.2557190712150244
  endloop
endfacet
facet normal -0.7095892147646938 -0.029807041551434182 -0.7039848624534311
  outer loop
    vertex 7.658035434848576 268.0112945366666 1.2557190631922874
    vertex 7.967748103820734 266.54276528584944 1.005719004147277
    vertex 7.721546169824011 266.4993532575793 1.2557190120104147
  endloop
endfacet
facet normal 0.9163876419532734 0.29060099183888083 -0.2752903071624171
  outer loop
    vertex 1.84766969808258 266.9867702566955 1.255719071215002
    vertex 1.9924766894174188 266.88537530977726 1.6307190712147586
    vertex 2.3051035149862633 265.54428826267525 1.2557190663112154
  endloop
endfacet
facet normal 0.9163876419532734 0.29060099183888083 -0.2752903071624171
  outer loop
    vertex 2.4499105063211024 265.44289331575726 1.630719066310995
    vertex 2.3051035149862633 265.54428826267525 1.2557190663112154
    vertex 1.9924766894174188 266.88537530977726 1.6307190712147586
  endloop
endfacet
facet normal 0.1736481770485919 -0.9848077531212379 8.618536287930883e-09
  outer loop
    vertex 1.7550172478121786 267.224289785236 0.005719063487337195
    vertex 7.663863765885434 268.2661788512374 0.005719063487337195
    vertex 1.7550172874471008 267.22428980676557 1.005719004147277
  endloop
endfacet
facet normal 0.1736481770485919 -0.9848077531212379 8.618536287930883e-09
  outer loop
    vertex 7.66386379862917 268.2661788632374 1.005719004147277
    vertex 1.7550172874471008 267.22428980676557 1.005719004147277
    vertex 7.663863765885434 268.2661788512374 0.005719063487337195
  endloop
endfacet
facet normal 0.1736481770485919 -0.9848077531212379 8.618536287930883e-09
  outer loop
    vertex 3.478430849036619 267.5281741091711 1.005719004147277
    vertex 1.7550172874471008 267.22428980676557 1.005719004147277
    vertex 7.66386379862917 268.2661788632374 1.005719004147277
  endloop
endfacet
facet normal 0.1736481770485919 -0.9848077531212379 8.618536287930883e-09
  outer loop
    vertex 5.940450214294389 267.96229455029265 1.005719004147277
    vertex 3.478430849036619 267.5281741091711 1.005719004147277
    vertex 7.66386379862917 268.2661788632374 1.005719004147277
  endloop
endfacet
facet normal 0.040347446719106506 -0.9605140947272751 0.27529031471065674
  outer loop
    vertex 3.666649883573769 267.180577230889 1.6307190120101716
    vertex 3.5218428922389298 267.2819721778072 2.005719012009951
    vertex 2.154708604486584 267.1170664959135 1.6307190631920443
  endloop
endfacet
facet normal 0.040347446719106506 -0.9605140947272751 0.27529031471065674
  outer loop
    vertex 2.009901613151565 267.21846144283154 2.005719063191824
    vertex 2.154708604486584 267.1170664959135 1.6307190631920443
    vertex 3.5218428922389298 267.2819721778072 2.005719012009951
  endloop
endfacet
facet normal -0.1736481791211096 0.9848077527557969 -1.8686304106815457e-08
  outer loop
    vertex 8.705752859522292 262.3573323372943 0.005719069282796951
    vertex 2.796906317746158 261.3154432392448 0.00571907121460935
    vertex 8.705752857886802 262.3573323362574 1.005719004147277
  endloop
endfacet
facet normal -0.1736481791211096 0.9848077527557969 -1.8686304106815457e-08
  outer loop
    vertex 2.7969063309069644 261.31544327699913 1.005719004147277
    vertex 8.705752857886802 262.3573323362574 1.005719004147277
    vertex 2.796906317746158 261.3154432392448 0.00571907121460935
  endloop
endfacet
facet normal -0.1736481791211096 0.9848077527557969 -1.8686304106815457e-08
  outer loop
    vertex 6.982339280499335 262.0534480310654 1.005719004147277
    vertex 8.705752857886802 262.3573323362574 1.005719004147277
    vertex 2.7969063309069644 261.31544327699913 1.005719004147277
  endloop
endfacet
facet normal -0.1736481791211096 0.9848077527557969 -1.8686304106815457e-08
  outer loop
    vertex 4.520319915241566 261.61932758994385 1.005719004147277
    vertex 6.982339280499335 262.0534480310654 1.005719004147277
    vertex 2.7969063309069644 261.31544327699913 1.005719004147277
  endloop
endfacet
facet normal -0.16473713932513875 0.9342706647042415 -0.3162277660169405
  outer loop
    vertex 6.93892724959659 262.2996499799947 1.2557190120104147
    vertex 4.476907887142905 261.8655295229696 1.2557190663112605
    vertex 6.794120258261751 262.4010449269128 1.630719012010194
  endloop
endfacet
facet normal -0.16473713932513875 0.9342706647042415 -0.3162277660169405
  outer loop
    vertex 4.578302834061178 262.01033651430447 1.63071906631104
    vertex 6.794120258261751 262.4010449269128 1.630719012010194
    vertex 4.476907887142905 261.8655295229696 1.2557190663112605
  endloop
endfacet
facet normal 0.9848077533478098 0.17364817576363656 -2.87407421744836e-08
  outer loop
    vertex 1.7550172874471008 267.22428980676557 1.005719004147277
    vertex 2.058901584593503 265.5008762196447 1.005719004147277
    vertex 1.7550172478121786 267.224289785236 0.005719063487337195
  endloop
endfacet
facet normal 0.9848077533478098 0.17364817576363656 -2.87407421744836e-08
  outer loop
    vertex 2.796906317746158 261.3154432392448 0.00571907121460935
    vertex 1.7550172478121786 267.224289785236 0.005719063487337195
    vertex 2.058901584593503 265.5008762196447 1.005719004147277
  endloop
endfacet
facet normal 0.9848077533478098 0.17364817576363656 -2.87407421744836e-08
  outer loop
    vertex 2.49302202571504 263.03885685438706 1.005719004147277
    vertex 2.796906317746158 261.3154432392448 0.00571907121460935
    vertex 2.058901584593503 265.5008762196447 1.005719004147277
  endloop
endfacet
facet normal 0.9848077533478098 0.17364817576363656 -2.87407421744836e-08
  outer loop
    vertex 2.7969063309069644 261.31544327699913 1.005719004147277
    vertex 2.796906317746158 261.3154432392448 0.00571907121460935
    vertex 2.49302202571504 263.03885685438706 1.005719004147277
  endloop
endfacet
facet normal 0.965683438491764 0.17027604087125453 -0.19611620669372218
  outer loop
    vertex 2.49302202571504 263.03885685438706 1.005719004147277
    vertex 2.8027347069867634 261.57032762113494 1.25571906319231
    vertex 2.7969063309069644 261.31544327699913 1.005719004147277
  endloop
endfacet
facet normal 0.9163876423240507 0.2906009900847394 0.27529030777987307
  outer loop
    vertex 1.84766969808258 266.9867702566955 2.0057190712145605
    vertex 2.3051035149862633 265.54428826267525 2.0057190663107742
    vertex 1.9924766894174188 266.88537530977726 1.6307190712147586
  endloop
endfacet
facet normal 0.9163876423240507 0.2906009900847394 0.27529030777987307
  outer loop
    vertex 2.4499105063211024 265.44289331575726 1.630719066310995
    vertex 1.9924766894174188 266.88537530977726 1.6307190712147586
    vertex 2.3051035149862633 265.54428826267525 2.0057190663107742
  endloop
endfacet
facet normal 0.1647371251238617 -0.9342706672083099 0.31622776601694064
  outer loop
    vertex 3.666649883573769 267.180577230889 1.6307190120101716
    vertex 5.882467307774161 267.57128564349694 1.6307190663110174
    vertex 3.5218428922389298 267.2819721778072 2.005719012009951
  endloop
endfacet
facet normal 0.1647371251238617 -0.9342706672083099 0.31622776601694064
  outer loop
    vertex 5.9838622546924345 267.7160926348318 2.005719066310797
    vertex 3.5218428922389298 267.2819721778072 2.005719012009951
    vertex 5.882467307774161 267.57128564349694 1.6307190663110174
  endloop
endfacet
facet normal 0.6245976406206478 -0.4373479987136495 -0.6469965342660545
  outer loop
    vertex 1.84766969808258 266.9867702566955 1.255719071215002
    vertex 1.7550172874471008 267.22428980676557 1.005719004147277
    vertex 2.009901613151565 267.21846144283154 1.2557190631922648
  endloop
endfacet
facet normal -0.740950895924505 0.518819417533996 -0.42640143271142805
  outer loop
    vertex 8.468293452417921 262.6962468480245 1.6307190712147135
    vertex 8.61310044375294 262.5948519011064 1.2557190712150244
    vertex 8.306061537348755 262.46455566188877 1.6307190631920667
  endloop
endfacet
facet normal -0.740950895924505 0.518819417533996 -0.42640143271142805
  outer loop
    vertex 8.450868528683595 262.36316071497055 1.2557190631922874
    vertex 8.306061537348755 262.46455566188877 1.6307190631920667
    vertex 8.61310044375294 262.5948519011064 1.2557190712150244
  endloop
endfacet
facet normal 0.4373479796708589 0.6245976134253227 -0.6469965733921696
  outer loop
    vertex 2.7969063309069644 261.31544327699913 1.005719004147277
    vertex 2.8027347069867634 261.57032762113494 1.25571906319231
    vertex 3.034425893122867 261.4080957060659 1.255719071215047
  endloop
endfacet
facet normal -0.29060099183891347 0.9163876419532766 -0.2752903071623723
  outer loop
    vertex 4.476907887142905 261.8655295229696 1.2557190663112605
    vertex 3.034425893122867 261.4080957060659 1.255719071215047
    vertex 4.578302834061178 262.01033651430447 1.63071906631104
  endloop
endfacet
facet normal -0.29060099183891347 0.9163876419532766 -0.2752903071623723
  outer loop
    vertex 3.13582084004096 261.5529026974008 1.6307190712148263
    vertex 4.578302834061178 262.01033651430447 1.63071906631104
    vertex 3.034425893122867 261.4080957060659 1.255719071215047
  endloop
endfacet
facet normal -0.9342706647042333 -0.16473713932507383 -0.31622776601699826
  outer loop
    vertex 7.721546169824011 266.4993532575793 1.2557190120104147
    vertex 8.155666626849076 264.0373338951268 1.255719066311238
    vertex 7.620151222905737 266.35454626624454 1.630719012010194
  endloop
endfacet
facet normal -0.9342706647042333 -0.16473713932507383 -0.31622776601699826
  outer loop
    vertex 8.010859635514237 264.1387288420449 1.6307190663110174
    vertex 7.620151222905737 266.35454626624454 1.630719012010194
    vertex 8.155666626849076 264.0373338951268 1.255719066311238
  endloop
endfacet
facet normal -0.9605140947272769 -0.04034744671902807 0.27529031471066207
  outer loop
    vertex 7.658035434848576 268.0112945366666 2.005719063191846
    vertex 7.556640487930483 267.86648754533167 1.6307190631919766
    vertex 7.721546169824011 266.4993532575793 2.0057190120099735
  endloop
endfacet
facet normal -0.9605140947272769 -0.04034744671902807 0.27529031471066207
  outer loop
    vertex 7.620151222905737 266.35454626624454 1.630719012010194
    vertex 7.721546169824011 266.4993532575793 2.0057190120099735
    vertex 7.556640487930483 267.86648754533167 1.6307190631919766
  endloop
endfacet
facet normal 0.6769904375383404 0.21468435972606587 -0.7039847819169501
  outer loop
    vertex 2.058901584593503 265.5008762196447 1.005719004147277
    vertex 1.84766969808258 266.9867702566955 1.255719071215002
    vertex 2.3051035149862633 265.54428826267525 1.2557190663112154
  endloop
endfacet
facet normal 0.7409508959244631 -0.5188194175341029 -0.42640143271137093
  outer loop
    vertex 2.009901613151565 267.21846144283154 1.2557190631922648
    vertex 2.154708604486584 267.1170664959135 1.6307190631920443
    vertex 1.84766969808258 266.9867702566955 1.255719071215002
  endloop
endfacet
facet normal 0.7409508959244631 -0.5188194175341029 -0.42640143271137093
  outer loop
    vertex 1.9924766894174188 266.88537530977726 1.6307190712147586
    vertex 1.84766969808258 266.9867702566955 1.255719071215002
    vertex 2.154708604486584 267.1170664959135 1.6307190631920443
  endloop
endfacet
facet normal 0.7095891962798851 0.02980704077506411 -0.7039848811182668
  outer loop
    vertex 2.49302202571504 263.03885685438706 1.005719004147277
    vertex 2.739223972011148 263.0822689002219 1.2557190120104371
    vertex 2.8027347069867634 261.57032762113494 1.25571906319231
  endloop
endfacet
facet normal 0.9605140947272625 0.04034744671915716 0.27529031471069343
  outer loop
    vertex 2.8406189189294215 263.22707589155686 1.6307190120102166
    vertex 2.739223972011148 263.0822689002219 2.005719012009996
    vertex 2.9041296539048567 261.71513461246974 1.6307190631920667
  endloop
endfacet
facet normal 0.9605140947272625 0.04034744671915716 0.27529031471069343
  outer loop
    vertex 2.8027347069867634 261.57032762113494 2.0057190631918687
    vertex 2.9041296539048567 261.71513461246974 1.6307190631920667
    vertex 2.739223972011148 263.0822689002219 2.005719012009996
  endloop
endfacet
facet normal 0.02980704167095493 -0.70958921760851 -0.703984859581915
  outer loop
    vertex 3.478430849036619 267.5281741091711 1.005719004147277
    vertex 3.5218428922389298 267.2819721778072 1.255719012010392
    vertex 2.009901613151565 267.21846144283154 1.2557190631922648
  endloop
endfacet
facet normal -0.029807040655718514 0.7095891934357358 -0.7039848839901114
  outer loop
    vertex 6.982339280499335 262.0534480310654 1.005719004147277
    vertex 6.93892724959659 262.2996499799947 1.2557190120104147
    vertex 8.450868528683595 262.36316071497055 1.2557190631922874
  endloop
endfacet
facet normal -0.12278782235633198 0.6963642872249669 -0.7071067318012563
  outer loop
    vertex 4.476907887142905 261.8655295229696 1.2557190663112605
    vertex 6.93892724959659 262.2996499799947 1.2557190120104147
    vertex 4.520319915241566 261.61932758994385 1.005719004147277
  endloop
endfacet
facet normal -0.12278782235633198 0.6963642872249669 -0.7071067318012563
  outer loop
    vertex 6.982339280499335 262.0534480310654 1.005719004147277
    vertex 4.520319915241566 261.61932758994385 1.005719004147277
    vertex 6.93892724959659 262.2996499799947 1.2557190120104147
  endloop
endfacet
facet normal -0.9848077527493133 -0.17364817915788094 1.4662455573295348e-08
  outer loop
    vertex 7.66386379862917 268.2661788632374 1.005719004147277
    vertex 7.663863765885434 268.2661788512374 0.005719063487337195
    vertex 7.967748103820734 266.54276528584944 1.005719004147277
  endloop
endfacet
facet normal -0.9848077527493133 -0.17364817915788094 1.4662455573295348e-08
  outer loop
    vertex 8.705752859522292 262.3573323372943 0.005719069282796951
    vertex 7.967748103820734 266.54276528584944 1.005719004147277
    vertex 7.663863765885434 268.2661788512374 0.005719063487337195
  endloop
endfacet
facet normal -0.9848077527493133 -0.17364817915788094 1.4662455573295348e-08
  outer loop
    vertex 8.401868544942271 264.0807459205918 1.005719004147277
    vertex 7.967748103820734 266.54276528584944 1.005719004147277
    vertex 8.705752859522292 262.3573323372943 0.005719069282796951
  endloop
endfacet
facet normal -0.9848077527493133 -0.17364817915788094 1.4662455573295348e-08
  outer loop
    vertex 8.705752857886802 262.3573323362574 1.005719004147277
    vertex 8.401868544942271 264.0807459205918 1.005719004147277
    vertex 8.705752859522292 262.3573323372943 0.005719069282796951
  endloop
endfacet
facet normal -0.51881941753417 -0.7409508959243833 -0.42640143271142794
  outer loop
    vertex 7.658035434848576 268.0112945366666 1.2557190631922874
    vertex 7.556640487930483 267.86648754533167 1.6307190631919766
    vertex 7.426344248712472 268.1735264517355 1.2557190712150244
  endloop
endfacet
facet normal -0.51881941753417 -0.7409508959243833 -0.42640143271142794
  outer loop
    vertex 7.32494930179438 268.0287194604006 1.6307190712148039
    vertex 7.426344248712472 268.1735264517355 1.2557190712150244
    vertex 7.556640487930483 267.86648754533167 1.6307190631919766
  endloop
endfacet
facet normal 0.5188194175340941 0.7409508959244693 -0.42640143271137104
  outer loop
    vertex 2.8027347069867634 261.57032762113494 1.25571906319231
    vertex 2.9041296539048567 261.71513461246974 1.6307190631920667
    vertex 3.034425893122867 261.4080957060659 1.255719071215047
  endloop
endfacet
facet normal 0.5188194175340941 0.7409508959244693 -0.42640143271137104
  outer loop
    vertex 3.13582084004096 261.5529026974008 1.6307190712148263
    vertex 3.034425893122867 261.4080957060659 1.255719071215047
    vertex 2.9041296539048567 261.71513461246974 1.6307190631920667
  endloop
endfacet
facet normal 0.040347428191265466 -0.9605140973526536 -0.27529030826596124
  outer loop
    vertex 3.5218428922389298 267.2819721778072 1.255719012010392
    vertex 3.666649883573769 267.180577230889 1.6307190120101716
    vertex 2.009901613151565 267.21846144283154 1.2557190631922648
  endloop
endfacet
facet normal 0.040347428191265466 -0.9605140973526536 -0.27529030826596124
  outer loop
    vertex 2.154708604486584 267.1170664959135 1.6307190631920443
    vertex 2.009901613151565 267.21846144283154 1.2557190631922648
    vertex 3.666649883573769 267.180577230889 1.6307190120101716
  endloop
endfacet
facet normal -0.7409509097989649 0.5188193977192829 0.42640143271134384
  outer loop
    vertex 8.468293452417921 262.6962468480245 1.6307190712147135
    vertex 8.306061537348755 262.46455566188877 1.6307190631920667
    vertex 8.61310044375294 262.5948519011064 2.005719071214583
  endloop
endfacet
facet normal -0.7409509097989649 0.5188193977192829 0.42640143271134384
  outer loop
    vertex 8.450868528683595 262.36316071497055 2.005719063191846
    vertex 8.61310044375294 262.5948519011064 2.005719071214583
    vertex 8.306061537348755 262.46455566188877 1.6307190631920667
  endloop
endfacet
facet normal -0.0 0.0 -1.0
  outer loop
    vertex -16.747573713735253 273.4163540802961 0.005719012009999602
    vertex -16.57720284518059 274.7104493058087 0.005719012009999602
    vertex -16.57720284518059 272.1222588547835 0.005719012009999602
  endloop
endfacet
facet normal -0.0 0.0 -1.0
  outer loop
    vertex -16.07770073265743 270.9163540802962 0.005719012009999602
    vertex -16.57720284518059 272.1222588547835 0.005719012009999602
    vertex -16.57720284518059 274.7104493058087 0.005719012009999602
  endloop
endfacet
facet normal -0.0 0.0 -1.0
  outer loop
    vertex -16.07770073265743 275.9163540802961 0.005719012009999602
    vertex -16.07770073265743 270.9163540802962 0.005719012009999602
    vertex -16.57720284518059 274.7104493058087 0.005719012009999602
  endloop
endfacet
facet normal -0.0 0.0 -1.0
  outer loop
    vertex -15.28310761966792 269.8808201743634 0.005719012009999602
    vertex -16.07770073265743 270.9163540802962 0.005719012009999602
    vertex -16.07770073265743 275.9163540802961 0.005719012009999602
  endloop
endfacet
facet normal -0.0 0.0 -1.0
  outer loop
    vertex -15.28310761966792 276.9518879862288 0.005719012009999602
    vertex -15.28310761966792 269.8808201743634 0.005719012009999602
    vertex -16.07770073265743 275.9163540802961 0.005719012009999602
  endloop
endfacet
facet normal -0.0 0.0 -1.0
  outer loop
    vertex -14.247573713735282 269.086227061374 0.005719012009999602
    vertex -15.28310761966792 269.8808201743634 0.005719012009999602
    vertex -15.28310761966792 276.9518879862288 0.005719012009999602
  endloop
endfacet
facet normal -0.0 0.0 -1.0
  outer loop
    vertex -14.247573713735282 277.7464810992183 0.005719012009999602
    vertex -14.247573713735282 269.086227061374 0.005719012009999602
    vertex -15.28310761966792 276.9518879862288 0.005719012009999602
  endloop
endfacet
facet normal -0.0 0.0 -1.0
  outer loop
    vertex -13.041668939247979 268.5867249488509 0.005719012009999602
    vertex -14.247573713735282 269.086227061374 0.005719012009999602
    vertex -14.247573713735282 277.7464810992183 0.005719012009999602
  endloop
endfacet
facet normal -0.0 0.0 -1.0
  outer loop
    vertex -13.041668939247979 278.2459832117414 0.005719012009999602
    vertex -13.041668939247979 268.5867249488509 0.005719012009999602
    vertex -14.247573713735282 277.7464810992183 0.005719012009999602
  endloop
endfacet
facet normal -0.0 0.0 -1.0
  outer loop
    vertex -11.747573713735308 268.4163540802962 0.005719012009999602
    vertex -13.041668939247979 268.5867249488509 0.005719012009999602
    vertex -13.041668939247979 278.2459832117414 0.005719012009999602
  endloop
endfacet
facet normal -0.0 0.0 -1.0
  outer loop
    vertex -11.747573713735308 278.41635408029606 0.005719012009999602
    vertex -11.747573713735308 268.4163540802962 0.005719012009999602
    vertex -13.041668939247979 278.2459832117414 0.005719012009999602
  endloop
endfacet
facet normal -0.0 0.0 -1.0
  outer loop
    vertex -4.07053795821171 268.4163540802962 0.005719012009999602
    vertex -11.747573713735308 268.4163540802962 0.005719012009999602
    vertex -11.747573713735308 278.41635408029606 0.005719012009999602
  endloop
endfacet
facet normal -0.0 0.0 -1.0
  outer loop
    vertex 1.2503509041676202 278.41635408029606 0.005719012009999602
    vertex -4.07053795821171 268.4163540802962 0.005719012009999602
    vertex -11.747573713735308 278.41635408029606 0.005719012009999602
  endloop
endfacet
facet normal -0.0 0.0 -1.0
  outer loop
    vertex -1.8173095849768564 262.2256600039581 0.005719012009999602
    vertex -4.07053795821171 268.4163540802962 0.005719012009999602
    vertex 1.2503509041676202 278.41635408029606 0.005719012009999602
  endloop
endfacet
facet normal -0.0 0.0 -1.0
  outer loop
    vertex -0.9132552612499388 260.4889878062678 0.005719012009999602
    vertex -1.8173095849768564 262.2256600039581 0.005719012009999602
    vertex 1.2503509041676202 278.41635408029606 0.005719012009999602
  endloop
endfacet
facet normal -0.0 0.0 -1.0
  outer loop
    vertex 0.40947799826843506 259.04547775550833 0.005719012009999602
    vertex -0.9132552612499388 260.4889878062678 0.005719012009999602
    vertex 1.2503509041676202 278.41635408029606 0.005719012009999602
  endloop
endfacet
facet normal -0.0 0.0 -1.0
  outer loop
    vertex 2.0607481078621963 257.9935026761258 0.005719012009999602
    vertex 0.40947799826843506 259.04547775550833 0.005719012009999602
    vertex 1.2503509041676202 278.41635408029606 0.005719012009999602
  endloop
endfacet
facet normal -0.0 0.0 -1.0
  outer loop
    vertex 1.7550172478121786 267.224289785236 0.005719063487337195
    vertex 2.0607481078621963 257.9935026761258 0.005719012009999602
    vertex 1.2503509041676202 278.41635408029606 0.005719012009999602
  endloop
endfacet
facet normal -0.0 0.0 -1.0
  outer loop
    vertex 2.796906317746158 261.3154432392448 0.00571907121460935
    vertex 2.0607481078621963 257.9935026761258 0.005719012009999602
    vertex 1.7550172478121786 267.224289785236 0.005719063487337195
  endloop
endfacet
facet normal -0.0 0.0 -1.0
  outer loop
    vertex 3.9280237384155545 257.404752931309 0.005719012009999602
    vertex 2.0607481078621963 257.9935026761258 0.005719012009999602
    vertex 2.796906317746158 261.3154432392448 0.00571907121460935
  endloop
endfacet
facet normal -0.0 0.0 -1.0
  outer loop
    vertex 8.705752859522292 262.3573323372943 0.005719069282796951
    vertex 3.9280237384155545 257.404752931309 0.005719012009999602
    vertex 2.796906317746158 261.3154432392448 0.00571907121460935
  endloop
endfacet
facet normal -0.0 0.0 -1.0
  outer loop
    vertex 5.884053141524962 257.3193508432125 0.005719012009999602
    vertex 3.9280237384155545 257.404752931309 0.005719012009999602
    vertex 8.705752859522292 262.3573323372943 0.005719069282796951
  endloop
endfacet
facet normal -0.0 0.0 -1.0
  outer loop
    vertex 7.795536145860004 257.7431164230062 0.005719012009999602
    vertex 5.884053141524962 257.3193508432125 0.005719012009999602
    vertex 8.705752859522292 262.3573323372943 0.005719069282796951
  endloop
endfacet
facet normal -0.0 0.0 -1.0
  outer loop
    vertex 9.532208343550277 258.647170746733 0.005719012009999602
    vertex 7.795536145860004 257.7431164230062 0.005719012009999602
    vertex 8.705752859522292 262.3573323372943 0.005719069282796951
  endloop
endfacet
facet normal -0.0 0.0 -1.0
  outer loop
    vertex 9.183884307080104 274.50396837038346 0.005719012009999602
    vertex 9.532208343550277 258.647170746733 0.005719012009999602
    vertex 8.705752859522292 262.3573323372943 0.005719069282796951
  endloop
endfacet
facet normal -0.0 0.0 -1.0
  outer loop
    vertex 9.761517628537677 273.66611988364184 0.005719012009999602
    vertex 9.532208343550277 258.647170746733 0.005719012009999602
    vertex 9.183884307080104 274.50396837038346 0.005719012009999602
  endloop
endfacet
facet normal -0.0 0.0 -1.0
  outer loop
    vertex 10.97571839430981 259.9699040062514 0.005719012009999602
    vertex 9.532208343550277 258.647170746733 0.005719012009999602
    vertex 9.761517628537677 273.66611988364184 0.005719012009999602
  endloop
endfacet
facet normal -0.0 0.0 -1.0
  outer loop
    vertex 10.251005022808855 272.77390217946703 0.005719012009999602
    vertex 10.97571839430981 259.9699040062514 0.005719012009999602
    vertex 9.761517628537677 273.66611988364184 0.005719012009999602
  endloop
endfacet
facet normal -0.0 0.0 -1.0
  outer loop
    vertex 10.647277112026808 271.8365555135529 0.005719012009999602
    vertex 10.97571839430981 259.9699040062514 0.005719012009999602
    vertex 10.251005022808855 272.77390217946703 0.005719012009999602
  endloop
endfacet
facet normal -0.0 0.0 -1.0
  outer loop
    vertex 12.278079726812015 267.355962153843 0.005719012009999602
    vertex 10.97571839430981 259.9699040062514 0.005719012009999602
    vertex 10.647277112026808 271.8365555135529 0.005719012009999602
  endloop
endfacet
facet normal -0.0 0.0 -1.0
  outer loop
    vertex 12.02769347369248 261.6211741158453 0.005719012009999602
    vertex 10.97571839430981 259.9699040062514 0.005719012009999602
    vertex 12.278079726812015 267.355962153843 0.005719012009999602
  endloop
endfacet
facet normal -0.0 0.0 -1.0
  outer loop
    vertex 12.616443218509149 263.48844974639843 0.005719012009999602
    vertex 12.02769347369248 261.6211741158453 0.005719012009999602
    vertex 12.278079726812015 267.355962153843 0.005719012009999602
  endloop
endfacet
facet normal -0.0 0.0 -1.0
  outer loop
    vertex 12.701845306605659 265.44447914950797 0.005719012009999602
    vertex 12.616443218509149 263.48844974639843 0.005719012009999602
    vertex 12.278079726812015 267.355962153843 0.005719012009999602
  endloop
endfacet
facet normal -0.0 0.0 -1.0
  outer loop
    vertex 1.2503509041676202 278.41635408029606 0.005719012009999602
    vertex 2.2667016859956113 278.3645715632566 0.005719012009999602
    vertex 1.7550172478121786 267.224289785236 0.005719063487337195
  endloop
endfacet
facet normal -0.0 0.0 -1.0
  outer loop
    vertex 7.663863765885434 268.2661788512374 0.005719063487337195
    vertex 1.7550172478121786 267.224289785236 0.005719063487337195
    vertex 2.2667016859956113 278.3645715632566 0.005719012009999602
  endloop
endfacet
facet normal -0.0 0.0 -1.0
  outer loop
    vertex 3.2725266274879363 278.2097602979518 0.005719012009999602
    vertex 7.663863765885434 268.2661788512374 0.005719063487337195
    vertex 2.2667016859956113 278.3645715632566 0.005719012009999602
  endloop
endfacet
facet normal -0.0 0.0 -1.0
  outer loop
    vertex 4.257408899210369 277.9535235877786 0.005719012009999602
    vertex 7.663863765885434 268.2661788512374 0.005719063487337195
    vertex 3.2725266274879363 278.2097602979518 0.005719012009999602
  endloop
endfacet
facet normal -0.0 0.0 -1.0
  outer loop
    vertex 5.211148564559195 277.59851514909906 0.005719012009999602
    vertex 7.663863765885434 268.2661788512374 0.005719063487337195
    vertex 4.257408899210369 277.9535235877786 0.005719012009999602
  endloop
endfacet
facet normal -0.0 0.0 -1.0
  outer loop
    vertex 6.123868215440168 277.1484116280182 0.005719012009999602
    vertex 7.663863765885434 268.2661788512374 0.005719063487337195
    vertex 5.211148564559195 277.59851514909906 0.005719012009999602
  endloop
endfacet
facet normal -0.0 0.0 -1.0
  outer loop
    vertex 6.986115267678123 276.6078745231862 0.005719012009999602
    vertex 7.663863765885434 268.2661788512374 0.005719063487337195
    vertex 6.123868215440168 277.1484116280182 0.005719012009999602
  endloop
endfacet
facet normal -0.0 0.0 -1.0
  outer loop
    vertex 7.788959856738349 275.98250190897113 0.005719012009999602
    vertex 7.663863765885434 268.2661788512374 0.005719063487337195
    vertex 6.986115267678123 276.6078745231862 0.005719012009999602
  endloop
endfacet
facet normal -0.0 0.0 -1.0
  outer loop
    vertex 8.705752859522292 262.3573323372943 0.005719069282796951
    vertex 7.663863765885434 268.2661788512374 0.005719063487337195
    vertex 7.788959856738349 275.98250190897113 0.005719012009999602
  endloop
endfacet
facet normal -0.0 0.0 -1.0
  outer loop
    vertex 8.524087319898108 275.2787704589836 0.005719012009999602
    vertex 8.705752859522292 262.3573323372943 0.005719069282796951
    vertex 7.788959856738349 275.98250190897113 0.005719012009999602
  endloop
endfacet
facet normal -0.0 0.0 -1.0
  outer loop
    vertex 9.183884307080104 274.50396837038346 0.005719012009999602
    vertex 8.705752859522292 262.3573323372943 0.005719069282796951
    vertex 8.524087319898108 275.2787704589836 0.005719012009999602
  endloop
endfacet
facet normal 0.25178785239533713 0.9677824535432248 0.0
  outer loop
    vertex 4.257408899210369 277.9535235877786 0.005719012009999602
    vertex 3.2725266274879363 278.2097602979518 0.005719012009999602
    vertex 4.257408899210369 277.9535235877786 2.005719012009996
  endloop
endfacet
facet normal 0.25178785239533713 0.9677824535432248 0.0
  outer loop
    vertex 3.2725266274879363 278.2097602979518 2.005719012009996
    vertex 4.257408899210369 277.9535235877786 2.005719012009996
    vertex 3.2725266274879363 278.2097602979518 0.005719012009999602
  endloop
endfacet
facet normal 0.05088345361670718 0.9987045980409004 0.0
  outer loop
    vertex 2.2667016859956113 278.3645715632566 0.005719012009999602
    vertex 1.2503509041676202 278.41635408029606 0.005719012009999602
    vertex 2.2667016859956113 278.3645715632566 2.005719012009996
  endloop
endfacet
facet normal 0.05088345361670718 0.9987045980409004 0.0
  outer loop
    vertex 1.2503509041676202 278.41635408029606 2.005719012009996
    vertex 2.2667016859956113 278.3645715632566 2.005719012009996
    vertex 1.2503509041676202 278.41635408029606 0.005719012009999602
  endloop
endfacet
facet normal 0.34884467684955833 0.9371805543403722 0.0
  outer loop
    vertex 5.211148564559195 277.59851514909906 0.005719012009999602
    vertex 4.257408899210369 277.9535235877786 0.005719012009999602
    vertex 5.211148564559195 277.59851514909906 2.005719012009996
  endloop
endfacet
facet normal 0.34884467684955833 0.9371805543403722 0.0
  outer loop
    vertex 4.257408899210369 277.9535235877786 2.005719012009996
    vertex 5.211148564559195 277.59851514909906 2.005719012009996
    vertex 4.257408899210369 277.9535235877786 0.005719012009999602
  endloop
endfacet
facet normal 0.6145147093624947 0.7889053631311737 0.0
  outer loop
    vertex 7.788959856738349 275.98250190897113 0.005719012009999602
    vertex 6.986115267678123 276.6078745231862 0.005719012009999602
    vertex 7.788959856738349 275.98250190897113 2.005719012009996
  endloop
endfacet
facet normal 0.6145147093624947 0.7889053631311737 0.0
  outer loop
    vertex 6.986115267678123 276.6078745231862 2.005719012009996
    vertex 7.788959856738349 275.98250190897113 2.005719012009996
    vertex 6.986115267678123 276.6078745231862 0.005719012009999602
  endloop
endfacet
facet normal 0.8767267557075231 0.48098876891935977 0.0
  outer loop
    vertex 9.761517628537677 273.66611988364184 0.005719012009999602
    vertex 9.761517628537677 273.66611988364184 2.005719012009996
    vertex 10.251005022808855 272.77390217946703 0.005719012009999602
  endloop
endfacet
facet normal 0.8767267557075231 0.48098876891935977 0.0
  outer loop
    vertex 10.251005022808855 272.77390217946703 2.005719012009996
    vertex 10.251005022808855 272.77390217946703 0.005719012009999602
    vertex 9.761517628537677 273.66611988364184 2.005719012009996
  endloop
endfacet
facet normal 0.6915130557822594 0.722363962059765 0.0
  outer loop
    vertex 8.524087319898108 275.2787704589836 0.005719012009999602
    vertex 7.788959856738349 275.98250190897113 0.005719012009999602
    vertex 8.524087319898108 275.2787704589836 2.005719012009996
  endloop
endfacet
facet normal 0.6915130557822594 0.722363962059765 0.0
  outer loop
    vertex 7.788959856738349 275.98250190897113 2.005719012009996
    vertex 8.524087319898108 275.2787704589836 2.005719012009996
    vertex 7.788959856738349 275.98250190897113 0.005719012009999602
  endloop
endfacet
facet normal -0.9914448613738096 0.13052619222005837 0.0
  outer loop
    vertex -16.57720284518059 274.7104493058087 2.005719012009996
    vertex -16.57720284518059 274.7104493058087 0.005719012009999602
    vertex -16.747573713735253 273.4163540802961 2.005719012009996
  endloop
endfacet
facet normal -0.9914448613738096 0.13052619222005837 0.0
  outer loop
    vertex -16.747573713735253 273.4163540802961 0.005719012009999602
    vertex -16.747573713735253 273.4163540802961 2.005719012009996
    vertex -16.57720284518059 274.7104493058087 0.005719012009999602
  endloop
endfacet
facet normal 0.5311521392609612 0.8472764631208072 0.0
  outer loop
    vertex 6.986115267678123 276.6078745231862 0.005719012009999602
    vertex 6.123868215440168 277.1484116280182 0.005719012009999602
    vertex 6.986115267678123 276.6078745231862 2.005719012009996
  endloop
endfacet
facet normal 0.5311521392609612 0.8472764631208072 0.0
  outer loop
    vertex 6.123868215440168 277.1484116280182 2.005719012009996
    vertex 6.986115267678123 276.6078745231862 2.005719012009996
    vertex 6.123868215440168 277.1484116280182 0.005719012009999602
  endloop
endfacet
facet normal 0.82330151275673 0.5676042803683566 0.0
  outer loop
    vertex 9.183884307080104 274.50396837038346 0.005719012009999602
    vertex 9.183884307080104 274.50396837038346 2.005719012009996
    vertex 9.761517628537677 273.66611988364184 0.005719012009999602
  endloop
endfacet
facet normal 0.82330151275673 0.5676042803683566 0.0
  outer loop
    vertex 9.761517628537677 273.66611988364184 2.005719012009996
    vertex 9.761517628537677 273.66611988364184 0.005719012009999602
    vertex 9.183884307080104 274.50396837038346 2.005719012009996
  endloop
endfacet
facet normal -0.9238795325112836 0.3826834323650976 0.0
  outer loop
    vertex -16.07770073265743 275.9163540802961 2.005719012009996
    vertex -16.07770073265743 275.9163540802961 0.005719012009999602
    vertex -16.57720284518059 274.7104493058087 2.005719012009996
  endloop
endfacet
facet normal -0.9238795325112836 0.3826834323650976 0.0
  outer loop
    vertex -16.57720284518059 274.7104493058087 0.005719012009999602
    vertex -16.57720284518059 274.7104493058087 2.005719012009996
    vertex -16.07770073265743 275.9163540802961 0.005719012009999602
  endloop
endfacet
facet normal 0.921072175024996 0.3893918956459202 0.0
  outer loop
    vertex 10.251005022808855 272.77390217946703 0.005719012009999602
    vertex 10.251005022808855 272.77390217946703 2.005719012009996
    vertex 10.647277112026808 271.8365555135529 0.005719012009999602
  endloop
endfacet
facet normal 0.921072175024996 0.3893918956459202 0.0
  outer loop
    vertex 10.647277112026808 271.8365555135529 2.005719012009996
    vertex 10.647277112026808 271.8365555135529 0.005719012009999602
    vertex 10.251005022808855 272.77390217946703 2.005719012009996
  endloop
endfacet
facet normal -0.6087614290087409 0.7933533402912197 0.0
  outer loop
    vertex -14.247573713735282 277.7464810992183 0.005719012009999602
    vertex -15.28310761966792 276.9518879862288 0.005719012009999602
    vertex -14.247573713735282 277.7464810992183 2.005719012009996
  endloop
endfacet
facet normal -0.6087614290087409 0.7933533402912197 0.0
  outer loop
    vertex -15.28310761966792 276.9518879862288 2.005719012009996
    vertex -14.247573713735282 277.7464810992183 2.005719012009996
    vertex -15.28310761966792 276.9518879862288 0.005719012009999602
  endloop
endfacet
facet normal -0.9914448613738096 -0.13052619222005837 0.0
  outer loop
    vertex -16.747573713735253 273.4163540802961 2.005719012009996
    vertex -16.747573713735253 273.4163540802961 0.005719012009999602
    vertex -16.57720284518059 272.1222588547835 2.005719012009996
  endloop
endfacet
facet normal -0.9914448613738096 -0.13052619222005837 0.0
  outer loop
    vertex -16.57720284518059 272.1222588547835 0.005719012009999602
    vertex -16.57720284518059 272.1222588547835 2.005719012009996
    vertex -16.747573713735253 273.4163540802961 0.005719012009999602
  endloop
endfacet
facet normal 0.4422886902189904 0.8968727415326938 0.0
  outer loop
    vertex 6.123868215440168 277.1484116280182 0.005719012009999602
    vertex 5.211148564559195 277.59851514909906 0.005719012009999602
    vertex 6.123868215440168 277.1484116280182 2.005719012009996
  endloop
endfacet
facet normal 0.4422886902189904 0.8968727415326938 0.0
  outer loop
    vertex 5.211148564559195 277.59851514909906 2.005719012009996
    vertex 6.123868215440168 277.1484116280182 2.005719012009996
    vertex 5.211148564559195 277.59851514909906 0.005719012009999602
  endloop
endfacet
facet normal 0.9537169507482253 -0.3007057995042783 0.0
  outer loop
    vertex 12.616443218509149 263.48844974639843 0.005719012009999602
    vertex 12.616443218509149 263.48844974639843 2.005719012009996
    vertex 12.02769347369248 261.6211741158453 0.005719012009999602
  endloop
endfacet
facet normal 0.9537169507482253 -0.3007057995042783 0.0
  outer loop
    vertex 12.02769347369248 261.6211741158453 2.005719012009996
    vertex 12.02769347369248 261.6211741158453 0.005719012009999602
    vertex 12.616443218509149 263.48844974639843 2.005719012009996
  endloop
endfacet
facet normal -0.1305261922200494 0.9914448613738107 0.0
  outer loop
    vertex -11.747573713735308 278.41635408029606 0.005719012009999602
    vertex -13.041668939247979 278.2459832117414 0.005719012009999602
    vertex -11.747573713735308 278.41635408029606 2.005719012009996
  endloop
endfacet
facet normal -0.1305261922200494 0.9914448613738107 0.0
  outer loop
    vertex -13.041668939247979 278.2459832117414 2.005719012009996
    vertex -11.747573713735308 278.41635408029606 2.005719012009996
    vertex -13.041668939247979 278.2459832117414 0.005719012009999602
  endloop
endfacet
facet normal 0.0 1.0 0.0
  outer loop
    vertex 1.2503509041676202 278.41635408029606 0.005719012009999602
    vertex -11.747573713735308 278.41635408029606 0.005719012009999602
    vertex 1.2503509041676202 278.41635408029606 2.005719012009996
  endloop
endfacet
facet normal 0.0 1.0 0.0
  outer loop
    vertex -11.747573713735308 278.41635408029606 2.005719012009996
    vertex 1.2503509041676202 278.41635408029606 2.005719012009996
    vertex -11.747573713735308 278.41635408029606 0.005719012009999602
  endloop
endfacet
facet normal -0.38268343236512214 0.9238795325112735 0.0
  outer loop
    vertex -13.041668939247979 278.2459832117414 0.005719012009999602
    vertex -14.247573713735282 277.7464810992183 0.005719012009999602
    vertex -13.041668939247979 278.2459832117414 2.005719012009996
  endloop
endfacet
facet normal -0.38268343236512214 0.9238795325112735 0.0
  outer loop
    vertex -14.247573713735282 277.7464810992183 2.005719012009996
    vertex -13.041668939247979 278.2459832117414 2.005719012009996
    vertex -14.247573713735282 277.7464810992183 0.005719012009999602
  endloop
endfacet
facet normal -0.9238795325112836 -0.3826834323650976 0.0
  outer loop
    vertex -16.57720284518059 272.1222588547835 2.005719012009996
    vertex -16.57720284518059 272.1222588547835 0.005719012009999602
    vertex -16.07770073265743 270.9163540802962 2.005719012009996
  endloop
endfacet
facet normal -0.9238795325112836 -0.3826834323650976 0.0
  outer loop
    vertex -16.07770073265743 270.9163540802962 0.005719012009999602
    vertex -16.07770073265743 270.9163540802962 2.005719012009996
    vertex -16.57720284518059 272.1222588547835 0.005719012009999602
  endloop
endfacet
facet normal 0.0 0.0 1.0
  outer loop
    vertex 1.2503509041676202 278.41635408029606 2.005719012009996
    vertex 1.84766969808258 266.9867702566955 2.0057190712145605
    vertex 2.2667016859956113 278.3645715632566 2.005719012009996
  endloop
endfacet
facet normal 0.0 0.0 1.0
  outer loop
    vertex 2.009901613151565 267.21846144283154 2.005719063191824
    vertex 2.2667016859956113 278.3645715632566 2.005719012009996
    vertex 1.84766969808258 266.9867702566955 2.0057190712145605
  endloop
endfacet
facet normal 0.0 0.0 1.0
  outer loop
    vertex 3.5218428922389298 267.2819721778072 2.005719012009951
    vertex 2.2667016859956113 278.3645715632566 2.005719012009996
    vertex 2.009901613151565 267.21846144283154 2.005719063191824
  endloop
endfacet
facet normal 0.0 0.0 1.0
  outer loop
    vertex 3.2725266274879363 278.2097602979518 2.005719012009996
    vertex 2.2667016859956113 278.3645715632566 2.005719012009996
    vertex 3.5218428922389298 267.2819721778072 2.005719012009951
  endloop
endfacet
facet normal 0.0 0.0 1.0
  outer loop
    vertex 4.257408899210369 277.9535235877786 2.005719012009996
    vertex 3.2725266274879363 278.2097602979518 2.005719012009996
    vertex 3.5218428922389298 267.2819721778072 2.005719012009951
  endloop
endfacet
facet normal 0.0 0.0 1.0
  outer loop
    vertex 5.9838622546924345 267.7160926348318 2.005719066310797
    vertex 4.257408899210369 277.9535235877786 2.005719012009996
    vertex 3.5218428922389298 267.2819721778072 2.005719012009951
  endloop
endfacet
facet normal 0.0 0.0 1.0
  outer loop
    vertex 5.211148564559195 277.59851514909906 2.005719012009996
    vertex 4.257408899210369 277.9535235877786 2.005719012009996
    vertex 5.9838622546924345 267.7160926348318 2.005719066310797
  endloop
endfacet
facet normal 0.0 0.0 1.0
  outer loop
    vertex 6.123868215440168 277.1484116280182 2.005719012009996
    vertex 5.211148564559195 277.59851514909906 2.005719012009996
    vertex 5.9838622546924345 267.7160926348318 2.005719066310797
  endloop
endfacet
facet normal 0.0 0.0 1.0
  outer loop
    vertex 7.426344248712472 268.1735264517355 2.005719071214583
    vertex 6.123868215440168 277.1484116280182 2.005719012009996
    vertex 5.9838622546924345 267.7160926348318 2.005719066310797
  endloop
endfacet
facet normal 0.0 0.0 1.0
  outer loop
    vertex 6.986115267678123 276.6078745231862 2.005719012009996
    vertex 6.123868215440168 277.1484116280182 2.005719012009996
    vertex 7.426344248712472 268.1735264517355 2.005719071214583
  endloop
endfacet
facet normal 0.0 0.0 1.0
  outer loop
    vertex 7.788959856738349 275.98250190897113 2.005719012009996
    vertex 6.986115267678123 276.6078745231862 2.005719012009996
    vertex 7.426344248712472 268.1735264517355 2.005719071214583
  endloop
endfacet
facet normal 0.0 0.0 1.0
  outer loop
    vertex 7.658035434848576 268.0112945366666 2.005719063191846
    vertex 7.788959856738349 275.98250190897113 2.005719012009996
    vertex 7.426344248712472 268.1735264517355 2.005719071214583
  endloop
endfacet
facet normal 0.0 0.0 1.0
  outer loop
    vertex 7.721546169824011 266.4993532575793 2.0057190120099735
    vertex 7.788959856738349 275.98250190897113 2.005719012009996
    vertex 7.658035434848576 268.0112945366666 2.005719063191846
  endloop
endfacet
facet normal 0.0 0.0 1.0
  outer loop
    vertex 8.155666626849076 264.0373338951268 2.005719066310797
    vertex 7.788959856738349 275.98250190897113 2.005719012009996
    vertex 7.721546169824011 266.4993532575793 2.0057190120099735
  endloop
endfacet
facet normal 0.0 0.0 1.0
  outer loop
    vertex 8.524087319898108 275.2787704589836 2.005719012009996
    vertex 7.788959856738349 275.98250190897113 2.005719012009996
    vertex 8.155666626849076 264.0373338951268 2.005719066310797
  endloop
endfacet
facet normal 0.0 0.0 1.0
  outer loop
    vertex 8.61310044375294 262.5948519011064 2.005719071214583
    vertex 8.524087319898108 275.2787704589836 2.005719012009996
    vertex 8.155666626849076 264.0373338951268 2.005719066310797
  endloop
endfacet
facet normal 0.0 0.0 1.0
  outer loop
    vertex 9.183884307080104 274.50396837038346 2.005719012009996
    vertex 8.524087319898108 275.2787704589836 2.005719012009996
    vertex 8.61310044375294 262.5948519011064 2.005719071214583
  endloop
endfacet
facet normal 0.0 0.0 1.0
  outer loop
    vertex -16.747573713735253 273.4163540802961 2.005719012009996
    vertex -16.57720284518059 272.1222588547835 2.005719012009996
    vertex -16.57720284518059 274.7104493058087 2.005719012009996
  endloop
endfacet
facet normal 0.0 0.0 1.0
  outer loop
    vertex -16.07770073265743 275.9163540802961 2.005719012009996
    vertex -16.57720284518059 274.7104493058087 2.005719012009996
    vertex -16.57720284518059 272.1222588547835 2.005719012009996
  endloop
endfacet
facet normal 0.0 0.0 1.0
  outer loop
    vertex -16.07770073265743 270.9163540802962 2.005719012009996
    vertex -16.07770073265743 275.9163540802961 2.005719012009996
    vertex -16.57720284518059 272.1222588547835 2.005719012009996
  endloop
endfacet
facet normal 0.0 0.0 1.0
  outer loop
    vertex -15.28310761966792 276.9518879862288 2.005719012009996
    vertex -16.07770073265743 275.9163540802961 2.005719012009996
    vertex -16.07770073265743 270.9163540802962 2.005719012009996
  endloop
endfacet
facet normal 0.0 0.0 1.0
  outer loop
    vertex -15.28310761966792 269.8808201743634 2.005719012009996
    vertex -15.28310761966792 276.9518879862288 2.005719012009996
    vertex -16.07770073265743 270.9163540802962 2.005719012009996
  endloop
endfacet
facet normal 0.0 0.0 1.0
  outer loop
    vertex -14.247573713735282 277.7464810992183 2.005719012009996
    vertex -15.28310761966792 276.9518879862288 2.005719012009996
    vertex -15.28310761966792 269.8808201743634 2.005719012009996
  endloop
endfacet
facet normal 0.0 0.0 1.0
  outer loop
    vertex -14.247573713735282 269.086227061374 2.005719012009996
    vertex -14.247573713735282 277.7464810992183 2.005719012009996
    vertex -15.28310761966792 269.8808201743634 2.005719012009996
  endloop
endfacet
facet normal 0.0 0.0 1.0
  outer loop
    vertex -13.041668939247979 278.2459832117414 2.005719012009996
    vertex -14.247573713735282 277.7464810992183 2.005719012009996
    vertex -14.247573713735282 269.086227061374 2.005719012009996
  endloop
endfacet
facet normal 0.0 0.0 1.0
  outer loop
    vertex -13.041668939247979 268.5867249488509 2.005719012009996
    vertex -13.041668939247979 278.2459832117414 2.005719012009996
    vertex -14.247573713735282 269.086227061374 2.005719012009996
  endloop
endfacet
facet normal 0.0 0.0 1.0
  outer loop
    vertex -11.747573713735308 278.41635408029606 2.005719012009996
    vertex -13.041668939247979 278.2459832117414 2.005719012009996
    vertex -13.041668939247979 268.5867249488509 2.005719012009996
  endloop
endfacet
facet normal 0.0 0.0 1.0
  outer loop
    vertex -11.747573713735308 268.4163540802962 2.005719012009996
    vertex -11.747573713735308 278.41635408029606 2.005719012009996
    vertex -13.041668939247979 268.5867249488509 2.005719012009996
  endloop
endfacet
facet normal 0.0 0.0 1.0
  outer loop
    vertex 1.2503509041676202 278.41635408029606 2.005719012009996
    vertex -11.747573713735308 278.41635408029606 2.005719012009996
    vertex -11.747573713735308 268.4163540802962 2.005719012009996
  endloop
endfacet
facet normal 0.0 0.0 1.0
  outer loop
    vertex -4.07053795821171 268.4163540802962 2.005719012009996
    vertex 1.2503509041676202 278.41635408029606 2.005719012009996
    vertex -11.747573713735308 268.4163540802962 2.005719012009996
  endloop
endfacet
facet normal 0.0 0.0 1.0
  outer loop
    vertex -1.8173095849768564 262.2256600039581 2.005719012009996
    vertex 1.2503509041676202 278.41635408029606 2.005719012009996
    vertex -4.07053795821171 268.4163540802962 2.005719012009996
  endloop
endfacet
facet normal 0.0 0.0 1.0
  outer loop
    vertex -0.9132552612499388 260.4889878062678 2.005719012009996
    vertex 1.2503509041676202 278.41635408029606 2.005719012009996
    vertex -1.8173095849768564 262.2256600039581 2.005719012009996
  endloop
endfacet
facet normal 0.0 0.0 1.0
  outer loop
    vertex 0.40947799826843506 259.04547775550833 2.005719012009996
    vertex 1.2503509041676202 278.41635408029606 2.005719012009996
    vertex -0.9132552612499388 260.4889878062678 2.005719012009996
  endloop
endfacet
facet normal 0.0 0.0 1.0
  outer loop
    vertex 2.0607481078621963 257.9935026761258 2.005719012009996
    vertex 1.2503509041676202 278.41635408029606 2.005719012009996
    vertex 0.40947799826843506 259.04547775550833 2.005719012009996
  endloop
endfacet
facet normal 0.0 0.0 1.0
  outer loop
    vertex 1.84766969808258 266.9867702566955 2.0057190712145605
    vertex 1.2503509041676202 278.41635408029606 2.005719012009996
    vertex 2.0607481078621963 257.9935026761258 2.005719012009996
  endloop
endfacet
facet normal 0.0 0.0 1.0
  outer loop
    vertex 2.3051035149862633 265.54428826267525 2.0057190663107742
    vertex 1.84766969808258 266.9867702566955 2.0057190712145605
    vertex 2.0607481078621963 257.9935026761258 2.005719012009996
  endloop
endfacet
facet normal 0.0 0.0 1.0
  outer loop
    vertex 2.8027347069867634 261.57032762113494 2.0057190631918687
    vertex 2.3051035149862633 265.54428826267525 2.0057190663107742
    vertex 2.0607481078621963 257.9935026761258 2.005719012009996
  endloop
endfacet
facet normal 0.0 0.0 1.0
  outer loop
    vertex 3.9280237384155545 257.404752931309 2.005719012009996
    vertex 2.8027347069867634 261.57032762113494 2.0057190631918687
    vertex 2.0607481078621963 257.9935026761258 2.005719012009996
  endloop
endfacet
facet normal 0.0 0.0 1.0
  outer loop
    vertex 2.739223972011148 263.0822689002219 2.005719012009996
    vertex 2.3051035149862633 265.54428826267525 2.0057190663107742
    vertex 2.8027347069867634 261.57032762113494 2.0057190631918687
  endloop
endfacet
facet normal 0.0 0.0 1.0
  outer loop
    vertex 3.034425893122867 261.4080957060659 2.005719071214606
    vertex 2.8027347069867634 261.57032762113494 2.0057190631918687
    vertex 3.9280237384155545 257.404752931309 2.005719012009996
  endloop
endfacet
facet normal 0.0 0.0 1.0
  outer loop
    vertex 4.476907887142905 261.8655295229696 2.0057190663108195
    vertex 3.034425893122867 261.4080957060659 2.005719071214606
    vertex 3.9280237384155545 257.404752931309 2.005719012009996
  endloop
endfacet
facet normal 0.0 0.0 1.0
  outer loop
    vertex 5.884053141524962 257.3193508432125 2.005719012009996
    vertex 4.476907887142905 261.8655295229696 2.0057190663108195
    vertex 3.9280237384155545 257.404752931309 2.005719012009996
  endloop
endfacet
facet normal 0.0 0.0 1.0
  outer loop
    vertex 6.93892724959659 262.2996499799947 2.0057190120099735
    vertex 4.476907887142905 261.8655295229696 2.0057190663108195
    vertex 5.884053141524962 257.3193508432125 2.005719012009996
  endloop
endfacet
facet normal 0.0 0.0 1.0
  outer loop
    vertex 7.795536145860004 257.7431164230062 2.005719012009996
    vertex 6.93892724959659 262.2996499799947 2.0057190120099735
    vertex 5.884053141524962 257.3193508432125 2.005719012009996
  endloop
endfacet
facet normal 0.0 0.0 1.0
  outer loop
    vertex 8.450868528683595 262.36316071497055 2.005719063191846
    vertex 6.93892724959659 262.2996499799947 2.0057190120099735
    vertex 7.795536145860004 257.7431164230062 2.005719012009996
  endloop
endfacet
facet normal 0.0 0.0 1.0
  outer loop
    vertex 9.532208343550277 258.647170746733 2.005719012009996
    vertex 8.450868528683595 262.36316071497055 2.005719063191846
    vertex 7.795536145860004 257.7431164230062 2.005719012009996
  endloop
endfacet
facet normal 0.0 0.0 1.0
  outer loop
    vertex 8.61310044375294 262.5948519011064 2.005719071214583
    vertex 8.450868528683595 262.36316071497055 2.005719063191846
    vertex 9.532208343550277 258.647170746733 2.005719012009996
  endloop
endfacet
facet normal 0.0 0.0 1.0
  outer loop
    vertex 9.183884307080104 274.50396837038346 2.005719012009996
    vertex 8.61310044375294 262.5948519011064 2.005719071214583
    vertex 9.532208343550277 258.647170746733 2.005719012009996
  endloop
endfacet
facet normal 0.0 0.0 1.0
  outer loop
    vertex 9.761517628537677 273.66611988364184 2.005719012009996
    vertex 9.183884307080104 274.50396837038346 2.005719012009996
    vertex 9.532208343550277 258.647170746733 2.005719012009996
  endloop
endfacet
facet normal 0.0 0.0 1.0
  outer loop
    vertex 10.97571839430981 259.9699040062514 2.005719012009996
    vertex 9.761517628537677 273.66611988364184 2.005719012009996
    vertex 9.532208343550277 258.647170746733 2.005719012009996
  endloop
endfacet
facet normal 0.0 0.0 1.0
  outer loop
    vertex 10.251005022808855 272.77390217946703 2.005719012009996
    vertex 9.761517628537677 273.66611988364184 2.005719012009996
    vertex 10.97571839430981 259.9699040062514 2.005719012009996
  endloop
endfacet
facet normal 0.0 0.0 1.0
  outer loop
    vertex 10.647277112026808 271.8365555135529 2.005719012009996
    vertex 10.251005022808855 272.77390217946703 2.005719012009996
    vertex 10.97571839430981 259.9699040062514 2.005719012009996
  endloop
endfacet
facet normal 0.0 0.0 1.0
  outer loop
    vertex 12.278079726812015 267.355962153843 2.005719012009996
    vertex 10.647277112026808 271.8365555135529 2.005719012009996
    vertex 10.97571839430981 259.9699040062514 2.005719012009996
  endloop
endfacet
facet normal 0.0 0.0 1.0
  outer loop
    vertex 12.02769347369248 261.6211741158453 2.005719012009996
    vertex 12.278079726812015 267.355962153843 2.005719012009996
    vertex 10.97571839430981 259.9699040062514 2.005719012009996
  endloop
endfacet
facet normal 0.0 0.0 1.0
  outer loop
    vertex 12.616443218509149 263.48844974639843 2.005719012009996
    vertex 12.278079726812015 267.355962153843 2.005719012009996
    vertex 12.02769347369248 261.6211741158453 2.005719012009996
  endloop
endfacet
facet normal 0.0 0.0 1.0
  outer loop
    vertex 12.701845306605659 265.44447914950797 2.005719012009996
    vertex 12.278079726812015 267.355962153843 2.005719012009996
    vertex 12.616443218509149 263.48844974639843 2.005719012009996
  endloop
endfacet
facet normal 0.9990482215818582 -0.043619387365323864 0.0
  outer loop
    vertex 12.701845306605659 265.44447914950797 0.005719012009999602
    vertex 12.701845306605659 265.44447914950797 2.005719012009996
    vertex 12.616443218509149 263.48844974639843 0.005719012009999602
  endloop
endfacet
facet normal 0.9990482215818582 -0.043619387365323864 0.0
  outer loop
    vertex 12.616443218509149 263.48844974639843 2.005719012009996
    vertex 12.616443218509149 263.48844974639843 0.005719012009999602
    vertex 12.701845306605659 265.44447914950797 2.005719012009996
  endloop
endfacet
facet normal 0.15212338618994733 0.9883615104677561 0.0
  outer loop
    vertex 3.2725266274879363 278.2097602979518 0.005719012009999602
    vertex 2.2667016859956113 278.3645715632566 0.005719012009999602
    vertex 3.2725266274879363 278.2097602979518 2.005719012009996
  endloop
endfacet
facet normal 0.15212338618994733 0.9883615104677561 0.0
  outer loop
    vertex 2.2667016859956113 278.3645715632566 2.005719012009996
    vertex 3.2725266274879363 278.2097602979518 2.005719012009996
    vertex 2.2667016859956113 278.3645715632566 0.005719012009999602
  endloop
endfacet
facet normal 0.8433914458128632 -0.5372996083468592 0.0
  outer loop
    vertex 12.02769347369248 261.6211741158453 0.005719012009999602
    vertex 12.02769347369248 261.6211741158453 2.005719012009996
    vertex 10.97571839430981 259.9699040062514 0.005719012009999602
  endloop
endfacet
facet normal 0.8433914458128632 -0.5372996083468592 0.0
  outer loop
    vertex 10.97571839430981 259.9699040062514 2.005719012009996
    vertex 10.97571839430981 259.9699040062514 0.005719012009999602
    vertex 12.02769347369248 261.6211741158453 2.005719012009996
  endloop
endfacet
facet normal -0.793353340291212 0.608761429008751 0.0
  outer loop
    vertex -15.28310761966792 276.9518879862288 2.005719012009996
    vertex -15.28310761966792 276.9518879862288 0.005719012009999602
    vertex -16.07770073265743 275.9163540802961 2.005719012009996
  endloop
endfacet
facet normal -0.793353340291212 0.608761429008751 0.0
  outer loop
    vertex -16.07770073265743 275.9163540802961 0.005719012009999602
    vertex -16.07770073265743 275.9163540802961 2.005719012009996
    vertex -15.28310761966792 276.9518879862288 0.005719012009999602
  endloop
endfacet
facet normal 0.7613497448831681 0.6483413961535506 0.0
  outer loop
    vertex 8.524087319898108 275.2787704589836 0.005719012009999602
    vertex 8.524087319898108 275.2787704589836 2.005719012009996
    vertex 9.183884307080104 274.50396837038346 0.005719012009999602
  endloop
endfacet
facet normal 0.7613497448831681 0.6483413961535506 0.0
  outer loop
    vertex 9.183884307080104 274.50396837038346 2.005719012009996
    vertex 9.183884307080104 274.50396837038346 0.005719012009999602
    vertex 8.524087319898108 275.2787704589836 2.005719012009996
  endloop
endfacet
facet normal 0.9396926207859082 0.3420201433256691 0.0
  outer loop
    vertex 10.647277112026808 271.8365555135529 0.005719012009999602
    vertex 10.647277112026808 271.8365555135529 2.005719012009996
    vertex 12.278079726812015 267.355962153843 0.005719012009999602
  endloop
endfacet
facet normal 0.9396926207859082 0.3420201433256691 0.0
  outer loop
    vertex 12.278079726812015 267.355962153843 2.005719012009996
    vertex 12.278079726812015 267.355962153843 0.005719012009999602
    vertex 10.647277112026808 271.8365555135529 2.005719012009996
  endloop
endfacet
facet normal -0.1305261922200494 -0.9914448613738107 0.0
  outer loop
    vertex -13.041668939247979 268.5867249488509 0.005719012009999602
    vertex -11.747573713735308 268.4163540802962 0.005719012009999602
    vertex -13.041668939247979 268.5867249488509 2.005719012009996
  endloop
endfacet
facet normal -0.1305261922200494 -0.9914448613738107 0.0
  outer loop
    vertex -11.747573713735308 268.4163540802962 2.005719012009996
    vertex -13.041668939247979 268.5867249488509 2.005719012009996
    vertex -11.747573713735308 268.4163540802962 0.005719012009999602
  endloop
endfacet
facet normal -0.38268343236512214 -0.9238795325112735 0.0
  outer loop
    vertex -14.247573713735282 269.086227061374 0.005719012009999602
    vertex -13.041668939247979 268.5867249488509 0.005719012009999602
    vertex -14.247573713735282 269.086227061374 2.005719012009996
  endloop
endfacet
facet normal -0.38268343236512214 -0.9238795325112735 0.0
  outer loop
    vertex -13.041668939247979 268.5867249488509 2.005719012009996
    vertex -14.247573713735282 269.086227061374 2.005719012009996
    vertex -13.041668939247979 268.5867249488509 0.005719012009999602
  endloop
endfacet
facet normal -0.9396926207859227 -0.34202014332562924 0.0
  outer loop
    vertex -4.07053795821171 268.4163540802962 2.005719012009996
    vertex -4.07053795821171 268.4163540802962 0.005719012009999602
    vertex -1.8173095849768564 262.2256600039581 2.005719012009996
  endloop
endfacet
facet normal -0.9396926207859227 -0.34202014332562924 0.0
  outer loop
    vertex -1.8173095849768564 262.2256600039581 0.005719012009999602
    vertex -1.8173095849768564 262.2256600039581 2.005719012009996
    vertex -4.07053795821171 268.4163540802962 0.005719012009999602
  endloop
endfacet
facet normal -0.04361938736532588 -0.9990482215818582 0.0
  outer loop
    vertex 3.9280237384155545 257.404752931309 0.005719012009999602
    vertex 5.884053141524962 257.3193508432125 0.005719012009999602
    vertex 3.9280237384155545 257.404752931309 2.005719012009996
  endloop
endfacet
facet normal -0.04361938736532588 -0.9990482215818582 0.0
  outer loop
    vertex 5.884053141524962 257.3193508432125 2.005719012009996
    vertex 3.9280237384155545 257.404752931309 2.005719012009996
    vertex 5.884053141524962 257.3193508432125 0.005719012009999602
  endloop
endfacet
facet normal 0.6755902076156436 -0.7372773368101393 0.0
  outer loop
    vertex 9.532208343550277 258.647170746733 0.005719012009999602
    vertex 10.97571839430981 259.9699040062514 0.005719012009999602
    vertex 9.532208343550277 258.647170746733 2.005719012009996
  endloop
endfacet
facet normal 0.6755902076156436 -0.7372773368101393 0.0
  outer loop
    vertex 10.97571839430981 259.9699040062514 2.005719012009996
    vertex 9.532208343550277 258.647170746733 2.005719012009996
    vertex 10.97571839430981 259.9699040062514 0.005719012009999602
  endloop
endfacet
facet normal 0.9762960071199471 0.2164396139380414 0.0
  outer loop
    vertex 12.278079726812015 267.355962153843 0.005719012009999602
    vertex 12.278079726812015 267.355962153843 2.005719012009996
    vertex 12.701845306605659 265.44447914950797 0.005719012009999602
  endloop
endfacet
facet normal 0.9762960071199471 0.2164396139380414 0.0
  outer loop
    vertex 12.701845306605659 265.44447914950797 2.005719012009996
    vertex 12.701845306605659 265.44447914950797 0.005719012009999602
    vertex 12.278079726812015 267.355962153843 2.005719012009996
  endloop
endfacet
facet normal -0.6087614290087409 -0.7933533402912197 0.0
  outer loop
    vertex -15.28310761966792 269.8808201743634 0.005719012009999602
    vertex -14.247573713735282 269.086227061374 0.005719012009999602
    vertex -15.28310761966792 269.8808201743634 2.005719012009996
  endloop
endfacet
facet normal -0.6087614290087409 -0.7933533402912197 0.0
  outer loop
    vertex -14.247573713735282 269.086227061374 2.005719012009996
    vertex -15.28310761966792 269.8808201743634 2.005719012009996
    vertex -14.247573713735282 269.086227061374 0.005719012009999602
  endloop
endfacet
facet normal 0.4617486132350272 -0.8870108331782254 0.0
  outer loop
    vertex 7.795536145860004 257.7431164230062 0.005719012009999602
    vertex 9.532208343550277 258.647170746733 0.005719012009999602
    vertex 7.795536145860004 257.7431164230062 2.005719012009996
  endloop
endfacet
facet normal 0.4617486132350272 -0.8870108331782254 0.0
  outer loop
    vertex 9.532208343550277 258.647170746733 2.005719012009996
    vertex 7.795536145860004 257.7431164230062 2.005719012009996
    vertex 9.532208343550277 258.647170746733 0.005719012009999602
  endloop
endfacet
facet normal 0.21643961393808528 -0.9762960071199372 0.0
  outer loop
    vertex 5.884053141524962 257.3193508432125 0.005719012009999602
    vertex 7.795536145860004 257.7431164230062 0.005719012009999602
    vertex 5.884053141524962 257.3193508432125 2.005719012009996
  endloop
endfacet
facet normal 0.21643961393808528 -0.9762960071199372 0.0
  outer loop
    vertex 7.795536145860004 257.7431164230062 2.005719012009996
    vertex 5.884053141524962 257.3193508432125 2.005719012009996
    vertex 7.795536145860004 257.7431164230062 0.005719012009999602
  endloop
endfacet
facet normal 0.0 -1.0 0.0
  outer loop
    vertex -11.747573713735308 268.4163540802962 0.005719012009999602
    vertex -4.07053795821171 268.4163540802962 0.005719012009999602
    vertex -11.747573713735308 268.4163540802962 2.005719012009996
  endloop
endfacet
facet normal 0.0 -1.0 0.0
  outer loop
    vertex -4.07053795821171 268.4163540802962 2.005719012009996
    vertex -11.747573713735308 268.4163540802962 2.005719012009996
    vertex -4.07053795821171 268.4163540802962 0.005719012009999602
  endloop
endfacet
facet normal -0.793353340291212 -0.608761429008751 0.0
  outer loop
    vertex -16.07770073265743 270.9163540802962 2.005719012009996
    vertex -16.07770073265743 270.9163540802962 0.005719012009999602
    vertex -15.28310761966792 269.8808201743634 2.005719012009996
  endloop
endfacet
facet normal -0.793353340291212 -0.608761429008751 0.0
  outer loop
    vertex -15.28310761966792 269.8808201743634 0.005719012009999602
    vertex -15.28310761966792 269.8808201743634 2.005719012009996
    vertex -16.07770073265743 270.9163540802962 0.005719012009999602
  endloop
endfacet
endsolid ProtoGlove
