solid ProtoGlove
facet normal 0.1647371251238617 0.9342706672083099 0.31622776601694064
  outer loop
    vertex -236.6408190654707 105.53368201313916 2.005719012009928
    vertex -234.28019464993548 105.24436854744938 1.630719066310995
    vertex -236.49601207413588 105.63507696005733 1.630719012010149
  endloop
endfacet
facet normal 0.1647371251238617 0.9342706672083099 0.31622776601694064
  outer loop
    vertex -234.28019464993548 105.24436854744938 1.630719066310995
    vertex -236.6408190654707 105.53368201313916 2.005719012009928
    vertex -234.1787997030172 105.09956155611454 2.0057190663107742
  endloop
endfacet
facet normal -0.1736481791211096 -0.9848077527557969 -1.8686304106815457e-08
  outer loop
    vertex -231.45690909982284 110.45832185468892 1.0057190041472543
    vertex -237.36575563996348 111.50021095170153 0.00571907121458679
    vertex -231.45690909818734 110.45832185365208 0.005719069282774391
  endloop
endfacet
facet normal -0.1736481791211096 -0.9848077527557969 -1.8686304106815457e-08
  outer loop
    vertex -237.36575563996348 111.50021095170153 0.00571907121458679
    vertex -231.45690909982284 110.45832185468892 1.0057190041472543
    vertex -237.36575562680267 111.50021091394719 1.0057190041472543
  endloop
endfacet
facet normal -0.1736481791211096 -0.9848077527557969 -1.8686304106815457e-08
  outer loop
    vertex -237.36575562680267 111.50021091394719 1.0057190041472543
    vertex -231.45690909982284 110.45832185468892 1.0057190041472543
    vertex -233.1803226772103 110.76220615988093 1.0057190041472543
  endloop
endfacet
facet normal -0.1736481791211096 -0.9848077527557969 -1.8686304106815457e-08
  outer loop
    vertex -237.36575562680267 111.50021091394719 1.0057190041472543
    vertex -233.1803226772103 110.76220615988093 1.0057190041472543
    vertex -235.64234204246807 111.19632660100247 1.0057190041472543
  endloop
endfacet
facet normal -0.12278782235633198 -0.6963642872249669 -0.7071067318012563
  outer loop
    vertex -235.64234204246807 111.19632660100247 1.0057190041472543
    vertex -233.22373470811306 110.51600421095166 1.255719012010392
    vertex -235.68575407056673 110.95012466797672 1.255719066311238
  endloop
endfacet
facet normal -0.12278782235633198 -0.6963642872249669 -0.7071067318012563
  outer loop
    vertex -233.22373470811306 110.51600421095166 1.255719012010392
    vertex -235.64234204246807 111.19632660100247 1.0057190041472543
    vertex -233.1803226772103 110.76220615988093 1.0057190041472543
  endloop
endfacet
facet normal -0.9605140947272767 0.04034744671902806 0.275290314710662
  outer loop
    vertex -232.44111578788562 106.31630093336703 2.005719012009951
    vertex -232.60602146977917 104.94916664561468 1.630719063191954
    vertex -232.50462652286106 104.80435965427975 2.005719063191824
  endloop
endfacet
facet normal -0.9605140947272767 0.04034744671902806 0.275290314710662
  outer loop
    vertex -232.60602146977917 104.94916664561468 1.630719063191954
    vertex -232.44111578788562 106.31630093336703 2.005719012009951
    vertex -232.5425107348039 106.46110792470178 1.6307190120101716
  endloop
endfacet
facet normal -0.6769904606003979 0.2146843670394949 -0.7039847575089341
  outer loop
    vertex -231.5495615139567 110.22080228983994 1.255719071215002
    vertex -231.76079341276738 108.73490827035451 1.0057190041472543
    vertex -232.00699533086058 108.77832029581954 1.2557190663112154
  endloop
endfacet
facet normal -0.740950895924505 -0.518819417533996 -0.42640143271142805
  outer loop
    vertex -231.85660042036088 110.3510985290576 1.6307190631920443
    vertex -231.5495615139567 110.22080228983994 1.255719071215002
    vertex -231.69436850529172 110.11940734292185 1.630719071214691
  endloop
endfacet
facet normal -0.740950895924505 -0.518819417533996 -0.42640143271142805
  outer loop
    vertex -231.5495615139567 110.22080228983994 1.255719071215002
    vertex -231.85660042036088 110.3510985290576 1.6307190631920443
    vertex -231.71179342902605 110.45249347597577 1.2557190631922648
  endloop
endfacet
facet normal 0.1736481770485919 0.9848077531212379 8.618536287930883e-09
  outer loop
    vertex -238.40764467026256 105.59136438418078 1.0057190041472543
    vertex -232.49879819182422 104.54947533970896 0.005719063487314635
    vertex -238.40764470989745 105.59136440571034 0.005719063487314635
  endloop
endfacet
facet normal 0.1736481770485919 0.9848077531212379 8.618536287930883e-09
  outer loop
    vertex -232.49879819182422 104.54947533970896 0.005719063487314635
    vertex -238.40764467026256 105.59136438418078 1.0057190041472543
    vertex -232.49879815908048 104.5494753277089 1.0057190041472543
  endloop
endfacet
facet normal 0.1736481770485919 0.9848077531212379 8.618536287930883e-09
  outer loop
    vertex -232.49879815908048 104.5494753277089 1.0057190041472543
    vertex -238.40764467026256 105.59136438418078 1.0057190041472543
    vertex -236.68423110867303 105.28748008177524 1.0057190041472543
  endloop
endfacet
facet normal 0.1736481770485919 0.9848077531212379 8.618536287930883e-09
  outer loop
    vertex -232.49879815908048 104.5494753277089 1.0057190041472543
    vertex -236.68423110867303 105.28748008177524 1.0057190041472543
    vertex -234.22221174341524 104.85335964065371 1.0057190041472543
  endloop
endfacet
facet normal 0.040347428191265466 0.9605140973526536 -0.27529030826596124
  outer loop
    vertex -238.1527603445581 105.59719274811478 1.2557190631922424
    vertex -236.49601207413588 105.63507696005733 1.630719012010149
    vertex -236.6408190654707 105.53368201313916 1.2557190120103696
  endloop
endfacet
facet normal 0.040347428191265466 0.9605140973526536 -0.27529030826596124
  outer loop
    vertex -236.49601207413588 105.63507696005733 1.630719012010149
    vertex -238.1527603445581 105.59719274811478 1.2557190631922424
    vertex -238.00795335322306 105.69858769503287 1.6307190631920216
  endloop
endfacet
facet normal -0.29060099183891347 -0.9163876419532766 -0.2752903071623723
  outer loop
    vertex -235.58435912364845 110.80531767664188 1.6307190663110174
    vertex -237.1282360645868 111.40755848488041 1.2557190712150244
    vertex -235.68575407056673 110.95012466797672 1.255719066311238
  endloop
endfacet
facet normal -0.29060099183891347 -0.9163876419532766 -0.2752903071623723
  outer loop
    vertex -237.1282360645868 111.40755848488041 1.2557190712150244
    vertex -235.58435912364845 110.80531767664188 1.6307190663110174
    vertex -237.02684111766868 111.26275149354557 1.6307190712148039
  endloop
endfacet
facet normal 0.9848077533478098 -0.17364817576363656 -2.87407421744836e-08
  outer loop
    vertex -238.40764470989745 105.59136440571034 0.005719063487314635
    vertex -238.10376037311613 107.31477797130168 1.0057190041472543
    vertex -238.40764467026256 105.59136438418078 1.0057190041472543
  endloop
endfacet
facet normal 0.9848077533478098 -0.17364817576363656 -2.87407421744836e-08
  outer loop
    vertex -238.10376037311613 107.31477797130168 1.0057190041472543
    vertex -238.40764470989745 105.59136440571034 0.005719063487314635
    vertex -237.36575563996348 111.50021095170153 0.00571907121458679
  endloop
endfacet
facet normal 0.9848077533478098 -0.17364817576363656 -2.87407421744836e-08
  outer loop
    vertex -238.10376037311613 107.31477797130168 1.0057190041472543
    vertex -237.36575563996348 111.50021095170153 0.00571907121458679
    vertex -237.6696399319946 109.77679733655927 1.0057190041472543
  endloop
endfacet
facet normal 0.9848077533478098 -0.17364817576363656 -2.87407421744836e-08
  outer loop
    vertex -237.6696399319946 109.77679733655927 1.0057190041472543
    vertex -237.36575563996348 111.50021095170153 0.00571907121458679
    vertex -237.36575562680267 111.50021091394719 1.0057190041472543
  endloop
endfacet
facet normal 0.9605140973526359 -0.040347428191320006 -0.2752903082660147
  outer loop
    vertex -237.42343798569848 109.73338529072441 1.2557190120104147
    vertex -237.2585323038048 111.10051957847658 1.6307190631920443
    vertex -237.3220430387802 109.58857829938948 1.630719012010194
  endloop
endfacet
facet normal 0.9605140973526359 -0.040347428191320006 -0.2752903082660147
  outer loop
    vertex -237.2585323038048 111.10051957847658 1.6307190631920443
    vertex -237.42343798569848 109.73338529072441 1.2557190120104147
    vertex -237.35992725072288 111.24532656981143 1.2557190631922874
  endloop
endfacet
facet normal 0.9656834384917637 -0.1702760408712545 -0.19611620669372212
  outer loop
    vertex -237.36575562680267 111.50021091394719 1.0057190041472543
    vertex -237.35992725072288 111.24532656981143 1.2557190631922874
    vertex -237.6696399319946 109.77679733655927 1.0057190041472543
  endloop
endfacet
facet normal 0.1702760428569117 0.9656834497547331 -0.1961161495104092
  outer loop
    vertex -238.1527603445581 105.59719274811478 1.2557190631922424
    vertex -236.68423110867303 105.28748008177524 1.0057190041472543
    vertex -238.40764467026256 105.59136438418078 1.0057190041472543
  endloop
endfacet
facet normal -0.6245976266395639 -0.43734798892482973 -0.6469965543800301
  outer loop
    vertex -231.45690909982284 110.45832185468892 1.0057190041472543
    vertex -231.5495615139567 110.22080228983994 1.255719071215002
    vertex -231.71179342902605 110.45249347597577 1.2557190631922648
  endloop
endfacet
facet normal 0.1702760517644623 0.9656834795256146 -0.19611599518348316
  outer loop
    vertex -232.73631770899718 104.64212773921086 1.255719071215002
    vertex -232.49879815908048 104.5494753277089 1.0057190041472543
    vertex -234.22221174341524 104.85335964065371 1.0057190041472543
  endloop
endfacet
facet normal 0.12278782607981248 0.6963643083421691 -0.7071067103582926
  outer loop
    vertex -236.6408190654707 105.53368201313916 1.2557190120103696
    vertex -234.22221174341524 104.85335964065371 1.0057190041472543
    vertex -236.68423110867303 105.28748008177524 1.0057190041472543
  endloop
endfacet
facet normal 0.12278782607981248 0.6963643083421691 -0.7071067103582926
  outer loop
    vertex -234.22221174341524 104.85335964065371 1.0057190041472543
    vertex -236.6408190654707 105.53368201313916 1.2557190120103696
    vertex -234.1787997030172 105.09956155611454 1.2557190663112154
  endloop
endfacet
facet normal 0.6963642872252344 -0.1227878223563759 -0.7071067318009854
  outer loop
    vertex -237.6696399319946 109.77679733655927 1.0057190041472543
    vertex -237.8575584427234 107.2713659282711 1.255719066311193
    vertex -238.10376037311613 107.31477797130168 1.0057190041472543
  endloop
endfacet
facet normal 0.6963642872252344 -0.1227878223563759 -0.7071067318009854
  outer loop
    vertex -237.8575584427234 107.2713659282711 1.255719066311193
    vertex -237.6696399319946 109.77679733655927 1.0057190041472543
    vertex -237.42343798569848 109.73338529072441 1.2557190120104147
  endloop
endfacet
facet normal 0.02980704167095493 0.70958921760851 -0.703984859581915
  outer loop
    vertex -238.1527603445581 105.59719274811478 1.2557190631922424
    vertex -236.6408190654707 105.53368201313916 1.2557190120103696
    vertex -236.68423110867303 105.28748008177524 1.0057190041472543
  endloop
endfacet
facet normal -0.6963643083423955 0.1227878260799075 -0.7071067103580532
  outer loop
    vertex -232.00699533086058 108.77832029581954 1.2557190663112154
    vertex -232.19491385388892 106.27288890509692 1.0057190041472543
    vertex -232.44111578788562 106.31630093336703 1.255719012010392
  endloop
endfacet
facet normal -0.6963643083423955 0.1227878260799075 -0.7071067103580532
  outer loop
    vertex -232.19491385388892 106.27288890509692 1.0057190041472543
    vertex -232.00699533086058 108.77832029581954 1.2557190663112154
    vertex -231.76079341276738 108.73490827035451 1.0057190041472543
  endloop
endfacet
facet normal -0.029807040655718514 -0.7095891934357358 -0.7039848839901114
  outer loop
    vertex -231.71179342902605 110.45249347597577 1.2557190631922648
    vertex -233.22373470811306 110.51600421095166 1.255719012010392
    vertex -233.1803226772103 110.76220615988093 1.0057190041472543
  endloop
endfacet
facet normal 0.7409508959244631 0.5188194175341029 -0.42640143271137093
  outer loop
    vertex -238.31499225962708 105.82888393425088 1.2557190712149793
    vertex -238.00795335322306 105.69858769503287 1.6307190631920216
    vertex -238.1527603445581 105.59719274811478 1.2557190631922424
  endloop
endfacet
facet normal 0.7409508959244631 0.5188194175341029 -0.42640143271137093
  outer loop
    vertex -238.00795335322306 105.69858769503287 1.6307190631920216
    vertex -238.31499225962708 105.82888393425088 1.2557190712149793
    vertex -238.17018526829222 105.93027888116906 1.6307190712147361
  endloop
endfacet
facet normal 0.040347446719106506 0.9605140947272751 0.27529031471065674
  outer loop
    vertex -238.00795335322306 105.69858769503287 1.6307190631920216
    vertex -236.6408190654707 105.53368201313916 2.005719012009928
    vertex -236.49601207413588 105.63507696005733 1.630719012010149
  endloop
endfacet
facet normal 0.040347446719106506 0.9605140947272751 0.27529031471065674
  outer loop
    vertex -236.6408190654707 105.53368201313916 2.005719012009928
    vertex -238.00795335322306 105.69858769503287 1.6307190631920216
    vertex -238.1527603445581 105.59719274811478 2.005719063191801
  endloop
endfacet
facet normal 0.5188194175340941 -0.7409508959244693 -0.42640143271137104
  outer loop
    vertex -237.1282360645868 111.40755848488041 1.2557190712150244
    vertex -237.2585323038048 111.10051957847658 1.6307190631920443
    vertex -237.35992725072288 111.24532656981143 1.2557190631922874
  endloop
endfacet
facet normal 0.5188194175340941 -0.7409508959244693 -0.42640143271137104
  outer loop
    vertex -237.2585323038048 111.10051957847658 1.6307190631920443
    vertex -237.1282360645868 111.40755848488041 1.2557190712150244
    vertex -237.02684111766868 111.26275149354557 1.6307190712148039
  endloop
endfacet
facet normal -0.7095892147646938 0.029807041551434182 -0.7039848624534311
  outer loop
    vertex -232.44111578788562 106.31630093336703 1.255719012010392
    vertex -232.19491385388892 106.27288890509692 1.0057190041472543
    vertex -232.50462652286106 104.80435965427975 1.2557190631922648
  endloop
endfacet
facet normal -0.7409509097989649 -0.5188193977192829 0.42640143271134384
  outer loop
    vertex -231.5495615139567 110.22080228983994 2.0057190712145605
    vertex -231.85660042036088 110.3510985290576 1.6307190631920443
    vertex -231.69436850529172 110.11940734292185 1.630719071214691
  endloop
endfacet
facet normal -0.7409509097989649 -0.5188193977192829 0.42640143271134384
  outer loop
    vertex -231.85660042036088 110.3510985290576 1.6307190631920443
    vertex -231.5495615139567 110.22080228983994 2.0057190712145605
    vertex -231.71179342902605 110.45249347597577 2.005719063191824
  endloop
endfacet
facet normal -0.43734799817674114 0.6245976398544629 -0.6469965353686463
  outer loop
    vertex -232.49879815908048 104.5494753277089 1.0057190041472543
    vertex -232.73631770899718 104.64212773921086 1.255719071215002
    vertex -232.50462652286106 104.80435965427975 1.2557190631922648
  endloop
endfacet
facet normal 0.2906009918388001 0.9163876419533019 -0.27529030716240716
  outer loop
    vertex -234.28019464993548 105.24436854744938 1.630719066310995
    vertex -232.73631770899718 104.64212773921086 1.255719071215002
    vertex -234.1787997030172 105.09956155611454 1.2557190663112154
  endloop
endfacet
facet normal 0.2906009918388001 0.9163876419533019 -0.27529030716240716
  outer loop
    vertex -232.73631770899718 104.64212773921086 1.255719071215002
    vertex -234.28019464993548 105.24436854744938 1.630719066310995
    vertex -232.83771265591525 104.7869347305457 1.6307190712147812
  endloop
endfacet
facet normal -0.21468436058642906 -0.6769904402512901 -0.7039847790456557
  outer loop
    vertex -235.64234204246807 111.19632660100247 1.0057190041472543
    vertex -235.68575407056673 110.95012466797672 1.255719066311238
    vertex -237.1282360645868 111.40755848488041 1.2557190712150244
  endloop
endfacet
facet normal -0.51881941753417 0.7409508959243833 -0.42640143271142794
  outer loop
    vertex -232.73631770899718 104.64212773921086 1.255719071215002
    vertex -232.60602146977917 104.94916664561468 1.630719063191954
    vertex -232.50462652286106 104.80435965427975 1.2557190631922648
  endloop
endfacet
facet normal -0.51881941753417 0.7409508959243833 -0.42640143271142794
  outer loop
    vertex -232.60602146977917 104.94916664561468 1.630719063191954
    vertex -232.73631770899718 104.64212773921086 1.255719071215002
    vertex -232.83771265591525 104.7869347305457 1.6307190712147812
  endloop
endfacet
facet normal -0.9656834795261157 0.17027605176444796 -0.19611599518102807
  outer loop
    vertex -231.45690909982284 110.45832185468892 1.0057190041472543
    vertex -231.76079341276738 108.73490827035451 1.0057190041472543
    vertex -231.5495615139567 110.22080228983994 1.255719071215002
  endloop
endfacet
facet normal 0.7095891962798851 -0.02980704077506411 -0.7039848811182668
  outer loop
    vertex -237.35992725072288 111.24532656981143 1.2557190631922874
    vertex -237.42343798569848 109.73338529072441 1.2557190120104147
    vertex -237.6696399319946 109.77679733655927 1.0057190041472543
  endloop
endfacet
facet normal 0.6245976406206478 0.4373479987136495 -0.6469965342660545
  outer loop
    vertex -238.1527603445581 105.59719274811478 1.2557190631922424
    vertex -238.40764467026256 105.59136438418078 1.0057190041472543
    vertex -238.31499225962708 105.82888393425088 1.2557190712149793
  endloop
endfacet
facet normal -0.16473713932513875 -0.9342706647042415 -0.3162277660169405
  outer loop
    vertex -233.3685416994479 110.41460926403356 1.6307190120101716
    vertex -235.68575407056673 110.95012466797672 1.255719066311238
    vertex -233.22373470811306 110.51600421095166 1.255719012010392
  endloop
endfacet
facet normal -0.16473713932513875 -0.9342706647042415 -0.3162277660169405
  outer loop
    vertex -235.68575407056673 110.95012466797672 1.255719066311238
    vertex -233.3685416994479 110.41460926403356 1.6307190120101716
    vertex -235.58435912364845 110.80531767664188 1.6307190663110174
  endloop
endfacet
facet normal 0.9163876423240505 -0.29060099008473933 0.275290307779873
  outer loop
    vertex -238.17018526829222 105.93027888116906 1.6307190712147361
    vertex -237.8575584427234 107.2713659282711 2.0057190663107516
    vertex -238.31499225962708 105.82888393425088 2.005719071214538
  endloop
endfacet
facet normal 0.9163876423240505 -0.29060099008473933 0.275290307779873
  outer loop
    vertex -237.8575584427234 107.2713659282711 2.0057190663107516
    vertex -238.17018526829222 105.93027888116906 1.6307190712147361
    vertex -237.71275145138853 107.3727608751891 1.6307190663109723
  endloop
endfacet
facet normal -0.9342706647042333 0.16473713932507383 -0.31622776601699826
  outer loop
    vertex -232.5425107348039 106.46110792470178 1.6307190120101716
    vertex -232.00699533086058 108.77832029581954 1.2557190663112154
    vertex -232.44111578788562 106.31630093336703 1.255719012010392
  endloop
endfacet
facet normal -0.9342706647042333 0.16473713932507383 -0.31622776601699826
  outer loop
    vertex -232.00699533086058 108.77832029581954 1.2557190663112154
    vertex -232.5425107348039 106.46110792470178 1.6307190120101716
    vertex -232.1518023221954 108.67692534890145 1.630719066310995
  endloop
endfacet
facet normal 0.4373479796708589 -0.6245976134253227 -0.6469965733921696
  outer loop
    vertex -237.1282360645868 111.40755848488041 1.2557190712150244
    vertex -237.35992725072288 111.24532656981143 1.2557190631922874
    vertex -237.36575562680267 111.50021091394719 1.0057190041472543
  endloop
endfacet
facet normal 0.6769904375383404 -0.21468435972606587 -0.7039847819169501
  outer loop
    vertex -237.8575584427234 107.2713659282711 1.255719066311193
    vertex -238.31499225962708 105.82888393425088 1.2557190712149793
    vertex -238.10376037311613 107.31477797130168 1.0057190041472543
  endloop
endfacet
facet normal -0.9848077527493131 0.17364817915788092 1.4662455573295345e-08
  outer loop
    vertex -232.19491385388892 106.27288890509692 1.0057190041472543
    vertex -232.49879819182422 104.54947533970896 0.005719063487314635
    vertex -232.49879815908048 104.5494753277089 1.0057190041472543
  endloop
endfacet
facet normal -0.9848077527493131 0.17364817915788092 1.4662455573295345e-08
  outer loop
    vertex -232.49879819182422 104.54947533970896 0.005719063487314635
    vertex -232.19491385388892 106.27288890509692 1.0057190041472543
    vertex -231.45690909818734 110.45832185365208 0.005719069282774391
  endloop
endfacet
facet normal -0.9848077527493131 0.17364817915788092 1.4662455573295345e-08
  outer loop
    vertex -231.45690909818734 110.45832185365208 0.005719069282774391
    vertex -232.19491385388892 106.27288890509692 1.0057190041472543
    vertex -231.76079341276738 108.73490827035451 1.0057190041472543
  endloop
endfacet
facet normal -0.9848077527493131 0.17364817915788092 1.4662455573295345e-08
  outer loop
    vertex -231.45690909818734 110.45832185365208 0.005719069282774391
    vertex -231.76079341276738 108.73490827035451 1.0057190041472543
    vertex -231.45690909982284 110.45832185468892 1.0057190041472543
  endloop
endfacet
facet normal 0.9163876419532734 -0.29060099183888083 -0.2752903071624171
  outer loop
    vertex -237.8575584427234 107.2713659282711 1.255719066311193
    vertex -238.17018526829222 105.93027888116906 1.6307190712147361
    vertex -238.31499225962708 105.82888393425088 1.2557190712149793
  endloop
endfacet
facet normal 0.9163876419532734 -0.29060099183888083 -0.2752903071624171
  outer loop
    vertex -238.17018526829222 105.93027888116906 1.6307190712147361
    vertex -237.8575584427234 107.2713659282711 1.255719066311193
    vertex -237.71275145138853 107.3727608751891 1.6307190663109723
  endloop
endfacet
facet normal 0.9605140947272625 -0.04034744671915716 0.27529031471069343
  outer loop
    vertex -237.2585323038048 111.10051957847658 1.6307190631920443
    vertex -237.42343798569848 109.73338529072441 2.0057190120099735
    vertex -237.3220430387802 109.58857829938948 1.630719012010194
  endloop
endfacet
facet normal 0.9605140947272625 -0.04034744671915716 0.27529031471069343
  outer loop
    vertex -237.42343798569848 109.73338529072441 2.0057190120099735
    vertex -237.2585323038048 111.10051957847658 1.6307190631920443
    vertex -237.35992725072288 111.24532656981143 2.005719063191846
  endloop
endfacet
facet normal -0.04034742819138071 -0.9605140973526388 -0.27529030826599615
  outer loop
    vertex -231.71179342902605 110.45249347597577 1.2557190631922648
    vertex -233.3685416994479 110.41460926403356 1.6307190120101716
    vertex -233.22373470811306 110.51600421095166 1.255719012010392
  endloop
endfacet
facet normal -0.04034742819138071 -0.9605140973526388 -0.27529030826599615
  outer loop
    vertex -233.3685416994479 110.41460926403356 1.6307190120101716
    vertex -231.71179342902605 110.45249347597577 1.2557190631922648
    vertex -231.85660042036088 110.3510985290576 1.6307190631920443
  endloop
endfacet
facet normal -0.9656834497550955 0.1702760428572838 -0.19611614950830153
  outer loop
    vertex -232.19491385388892 106.27288890509692 1.0057190041472543
    vertex -232.49879815908048 104.5494753277089 1.0057190041472543
    vertex -232.50462652286106 104.80435965427975 1.2557190631922648
  endloop
endfacet
facet normal 0.7409509097989572 0.5188193977192891 0.42640143271135006
  outer loop
    vertex -238.00795335322306 105.69858769503287 1.6307190631920216
    vertex -238.31499225962708 105.82888393425088 2.005719071214538
    vertex -238.1527603445581 105.59719274811478 2.005719063191801
  endloop
endfacet
facet normal 0.7409509097989572 0.5188193977192891 0.42640143271135006
  outer loop
    vertex -238.31499225962708 105.82888393425088 2.005719071214538
    vertex -238.00795335322306 105.69858769503287 1.6307190631920216
    vertex -238.17018526829222 105.93027888116906 1.6307190712147361
  endloop
endfacet
facet normal -0.16473712512400324 -0.9342706672082848 0.3162277660169406
  outer loop
    vertex -233.22373470811306 110.51600421095166 2.005719012009951
    vertex -235.58435912364845 110.80531767664188 1.6307190663110174
    vertex -233.3685416994479 110.41460926403356 1.6307190120101716
  endloop
endfacet
facet normal -0.16473712512400324 -0.9342706672082848 0.3162277660169406
  outer loop
    vertex -235.58435912364845 110.80531767664188 1.6307190663110174
    vertex -233.22373470811306 110.51600421095166 2.005719012009951
    vertex -235.68575407056673 110.95012466797672 2.005719066310797
  endloop
endfacet
facet normal 0.9656834800379118 -0.17027604272712968 -0.19611600050749703
  outer loop
    vertex -238.10376037311613 107.31477797130168 1.0057190041472543
    vertex -238.31499225962708 105.82888393425088 1.2557190712149793
    vertex -238.40764467026256 105.59136438418078 1.0057190041472543
  endloop
endfacet
facet normal -0.29060099008476664 -0.9163876423240503 0.2752903077798449
  outer loop
    vertex -235.68575407056673 110.95012466797672 2.005719066310797
    vertex -237.02684111766868 111.26275149354557 1.6307190712148039
    vertex -235.58435912364845 110.80531767664188 1.6307190663110174
  endloop
endfacet
facet normal -0.29060099008476664 -0.9163876423240503 0.2752903077798449
  outer loop
    vertex -237.02684111766868 111.26275149354557 1.6307190712148039
    vertex -235.68575407056673 110.95012466797672 2.005719066310797
    vertex -237.1282360645868 111.40755848488041 2.005719071214583
  endloop
endfacet
facet normal 0.16473713932499714 0.9342706647042665 -0.3162277660169405
  outer loop
    vertex -236.49601207413588 105.63507696005733 1.630719012010149
    vertex -234.1787997030172 105.09956155611454 1.2557190663112154
    vertex -236.6408190654707 105.53368201313916 1.2557190120103696
  endloop
endfacet
facet normal 0.16473713932499714 0.9342706647042665 -0.3162277660169405
  outer loop
    vertex -234.1787997030172 105.09956155611454 1.2557190663112154
    vertex -236.49601207413588 105.63507696005733 1.630719012010149
    vertex -234.28019464993548 105.24436854744938 1.630719066310995
  endloop
endfacet
facet normal -0.1702760497784818 -0.9656834682625596 -0.1961160523675464
  outer loop
    vertex -237.1282360645868 111.40755848488041 1.2557190712150244
    vertex -237.36575562680267 111.50021091394719 1.0057190041472543
    vertex -235.64234204246807 111.19632660100247 1.0057190041472543
  endloop
endfacet
facet normal -0.9605140973526355 0.04034742819120265 -0.2752903082660334
  outer loop
    vertex -232.60602146977917 104.94916664561468 1.630719063191954
    vertex -232.44111578788562 106.31630093336703 1.255719012010392
    vertex -232.50462652286106 104.80435965427975 1.2557190631922648
  endloop
endfacet
facet normal -0.9605140973526355 0.04034742819120265 -0.2752903082660334
  outer loop
    vertex -232.44111578788562 106.31630093336703 1.255719012010392
    vertex -232.60602146977917 104.94916664561468 1.630719063191954
    vertex -232.5425107348039 106.46110792470178 1.6307190120101716
  endloop
endfacet
facet normal 0.29060099008465334 0.9163876423240759 0.2752903077798798
  outer loop
    vertex -234.1787997030172 105.09956155611454 2.0057190663107742
    vertex -232.83771265591525 104.7869347305457 1.6307190712147812
    vertex -234.28019464993548 105.24436854744938 1.630719066310995
  endloop
endfacet
facet normal 0.29060099008465334 0.9163876423240759 0.2752903077798798
  outer loop
    vertex -232.83771265591525 104.7869347305457 1.6307190712147812
    vertex -234.1787997030172 105.09956155611454 2.0057190663107742
    vertex -232.73631770899718 104.64212773921086 2.0057190712145605
  endloop
endfacet
facet normal -0.9163876423240186 0.2906009900848633 0.27529030777984903
  outer loop
    vertex -232.00699533086058 108.77832029581954 2.0057190663107742
    vertex -231.69436850529172 110.11940734292185 1.630719071214691
    vertex -232.1518023221954 108.67692534890145 1.630719066310995
  endloop
endfacet
facet normal -0.9163876423240186 0.2906009900848633 0.27529030777984903
  outer loop
    vertex -231.69436850529172 110.11940734292185 1.630719071214691
    vertex -232.00699533086058 108.77832029581954 2.0057190663107742
    vertex -231.5495615139567 110.22080228983994 2.0057190712145605
  endloop
endfacet
facet normal -0.5188193977192344 0.740950909798999 0.42640143271134406
  outer loop
    vertex -232.83771265591525 104.7869347305457 1.6307190712147812
    vertex -232.50462652286106 104.80435965427975 2.005719063191824
    vertex -232.60602146977917 104.94916664561468 1.630719063191954
  endloop
endfacet
facet normal -0.5188193977192344 0.740950909798999 0.42640143271134406
  outer loop
    vertex -232.50462652286106 104.80435965427975 2.005719063191824
    vertex -232.83771265591525 104.7869347305457 1.6307190712147812
    vertex -232.73631770899718 104.64212773921086 2.0057190712145605
  endloop
endfacet
facet normal -0.17027604087131473 -0.9656834384915227 -0.1961162066948576
  outer loop
    vertex -231.71179342902605 110.45249347597577 1.2557190631922648
    vertex -233.1803226772103 110.76220615988093 1.0057190041472543
    vertex -231.45690909982284 110.45832185468892 1.0057190041472543
  endloop
endfacet
facet normal -0.04034744671922171 -0.9605140947272601 0.27529031471069143
  outer loop
    vertex -231.85660042036088 110.3510985290576 1.6307190631920443
    vertex -233.22373470811306 110.51600421095166 2.005719012009951
    vertex -233.3685416994479 110.41460926403356 1.6307190120101716
  endloop
endfacet
facet normal -0.04034744671922171 -0.9605140947272601 0.27529031471069143
  outer loop
    vertex -233.22373470811306 110.51600421095166 2.005719012009951
    vertex -231.85660042036088 110.3510985290576 1.6307190631920443
    vertex -231.71179342902605 110.45249347597577 2.005719063191824
  endloop
endfacet
facet normal -0.9342706672082756 0.16473712512394428 0.3162277660169983
  outer loop
    vertex -232.00699533086058 108.77832029581954 2.0057190663107742
    vertex -232.5425107348039 106.46110792470178 1.6307190120101716
    vertex -232.44111578788562 106.31630093336703 2.005719012009951
  endloop
endfacet
facet normal -0.9342706672082756 0.16473712512394428 0.3162277660169983
  outer loop
    vertex -232.5425107348039 106.46110792470178 1.6307190120101716
    vertex -232.00699533086058 108.77832029581954 2.0057190663107742
    vertex -232.1518023221954 108.67692534890145 1.630719066310995
  endloop
endfacet
facet normal 0.5188193977192247 -0.7409509097990022 0.4264014327113499
  outer loop
    vertex -237.02684111766868 111.26275149354557 1.6307190712148039
    vertex -237.35992725072288 111.24532656981143 2.005719063191846
    vertex -237.2585323038048 111.10051957847658 1.6307190631920443
  endloop
endfacet
facet normal 0.5188193977192247 -0.7409509097990022 0.4264014327113499
  outer loop
    vertex -237.35992725072288 111.24532656981143 2.005719063191846
    vertex -237.02684111766868 111.26275149354557 1.6307190712148039
    vertex -237.1282360645868 111.40755848488041 2.005719071214583
  endloop
endfacet
facet normal 0.934270667208285 -0.16473712512395314 0.3162277660169662
  outer loop
    vertex -237.71275145138853 107.3727608751891 1.6307190663109723
    vertex -237.42343798569848 109.73338529072441 2.0057190120099735
    vertex -237.8575584427234 107.2713659282711 2.0057190663107516
  endloop
endfacet
facet normal 0.934270667208285 -0.16473712512395314 0.3162277660169662
  outer loop
    vertex -237.42343798569848 109.73338529072441 2.0057190120099735
    vertex -237.71275145138853 107.3727608751891 1.6307190663109723
    vertex -237.3220430387802 109.58857829938948 1.630719012010194
  endloop
endfacet
facet normal 0.2146843661788796 0.6769904578866484 -0.7039847603810746
  outer loop
    vertex -232.73631770899718 104.64212773921086 1.255719071215002
    vertex -234.22221174341524 104.85335964065371 1.0057190041472543
    vertex -234.1787997030172 105.09956155611454 1.2557190663112154
  endloop
endfacet
facet normal -0.9163876419532315 0.2906009918389887 -0.2752903071624432
  outer loop
    vertex -231.69436850529172 110.11940734292185 1.630719071214691
    vertex -232.00699533086058 108.77832029581954 1.2557190663112154
    vertex -232.1518023221954 108.67692534890145 1.630719066310995
  endloop
endfacet
facet normal -0.9163876419532315 0.2906009918389887 -0.2752903071624432
  outer loop
    vertex -232.00699533086058 108.77832029581954 1.2557190663112154
    vertex -231.69436850529172 110.11940734292185 1.630719071214691
    vertex -231.5495615139567 110.22080228983994 1.255719071215002
  endloop
endfacet
facet normal 0.9342706647042447 -0.1647371393250709 -0.31622776601696617
  outer loop
    vertex -237.42343798569848 109.73338529072441 1.2557190120104147
    vertex -237.71275145138853 107.3727608751891 1.6307190663109723
    vertex -237.8575584427234 107.2713659282711 1.255719066311193
  endloop
endfacet
facet normal 0.9342706647042447 -0.1647371393250709 -0.31622776601696617
  outer loop
    vertex -237.71275145138853 107.3727608751891 1.6307190663109723
    vertex -237.42343798569848 109.73338529072441 1.2557190120104147
    vertex -237.3220430387802 109.58857829938948 1.630719012010194
  endloop
endfacet
facet normal -0.0 -0.0 -1.0
  outer loop
    vertex -261.57720284518047 87.5560218809411 0.005719012009999602
    vertex -261.57720284518047 84.96783142991593 0.005719012009999602
    vertex -261.7475737137351 86.26192665542851 0.005719012009999602
  endloop
endfacet
facet normal -0.0 -0.0 -1.0
  outer loop
    vertex -261.57720284518047 84.96783142991593 0.005719012009999602
    vertex -261.57720284518047 87.5560218809411 0.005719012009999602
    vertex -261.0777007326573 88.7619266554285 0.005719012009999602
  endloop
endfacet
facet normal -0.0 -0.0 -1.0
  outer loop
    vertex -261.57720284518047 84.96783142991593 0.005719012009999602
    vertex -261.0777007326573 88.7619266554285 0.005719012009999602
    vertex -261.0777007326573 83.76192665542854 0.005719012009999602
  endloop
endfacet
facet normal -0.0 -0.0 -1.0
  outer loop
    vertex -261.0777007326573 83.76192665542854 0.005719012009999602
    vertex -261.0777007326573 88.7619266554285 0.005719012009999602
    vertex -260.28310761966776 89.79746056136122 0.005719012009999602
  endloop
endfacet
facet normal -0.0 -0.0 -1.0
  outer loop
    vertex -261.0777007326573 83.76192665542854 0.005719012009999602
    vertex -260.28310761966776 89.79746056136122 0.005719012009999602
    vertex -260.28310761966776 82.72639274949582 0.005719012009999602
  endloop
endfacet
facet normal -0.0 -0.0 -1.0
  outer loop
    vertex -260.28310761966776 82.72639274949582 0.005719012009999602
    vertex -260.28310761966776 89.79746056136122 0.005719012009999602
    vertex -259.24757371373516 90.59205367435064 0.005719012009999602
  endloop
endfacet
facet normal -0.0 -0.0 -1.0
  outer loop
    vertex -260.28310761966776 82.72639274949582 0.005719012009999602
    vertex -259.24757371373516 90.59205367435064 0.005719012009999602
    vertex -259.24757371373516 81.9317996365064 0.005719012009999602
  endloop
endfacet
facet normal -0.0 -0.0 -1.0
  outer loop
    vertex -259.24757371373516 81.9317996365064 0.005719012009999602
    vertex -259.24757371373516 90.59205367435064 0.005719012009999602
    vertex -258.04166893924787 91.0915557868738 0.005719012009999602
  endloop
endfacet
facet normal -0.0 -0.0 -1.0
  outer loop
    vertex -259.24757371373516 81.9317996365064 0.005719012009999602
    vertex -258.04166893924787 91.0915557868738 0.005719012009999602
    vertex -258.04166893924787 81.43229752398324 0.005719012009999602
  endloop
endfacet
facet normal -0.0 -0.0 -1.0
  outer loop
    vertex -258.04166893924787 81.43229752398324 0.005719012009999602
    vertex -258.04166893924787 91.0915557868738 0.005719012009999602
    vertex -256.74757371373516 91.26192665542847 0.005719012009999602
  endloop
endfacet
facet normal -0.0 -0.0 -1.0
  outer loop
    vertex -258.04166893924787 81.43229752398324 0.005719012009999602
    vertex -256.74757371373516 91.26192665542847 0.005719012009999602
    vertex -256.74757371373516 81.26192665542857 0.005719012009999602
  endloop
endfacet
facet normal -0.0 -0.0 -1.0
  outer loop
    vertex -256.74757371373516 81.26192665542857 0.005719012009999602
    vertex -256.74757371373516 91.26192665542847 0.005719012009999602
    vertex -249.0705379582116 91.26192665542847 0.005719012009999602
  endloop
endfacet
facet normal -0.0 -0.0 -1.0
  outer loop
    vertex -256.74757371373516 81.26192665542857 0.005719012009999602
    vertex -249.0705379582116 91.26192665542847 0.005719012009999602
    vertex -243.74964909583224 81.26192665542857 0.005719012009999602
  endloop
endfacet
facet normal -0.0 -0.0 -1.0
  outer loop
    vertex -243.74964909583224 81.26192665542857 0.005719012009999602
    vertex -249.0705379582116 91.26192665542847 0.005719012009999602
    vertex -241.97997154268649 110.58999418698819 0.005719012009999602
  endloop
endfacet
facet normal -0.0 -0.0 -1.0
  outer loop
    vertex -243.74964909583224 81.26192665542857 0.005719012009999602
    vertex -241.97997154268649 110.58999418698819 0.005719012009999602
    vertex -242.73329831400426 81.31370917246804 0.005719012009999602
  endloop
endfacet
facet normal -0.0 -0.0 -1.0
  outer loop
    vertex -242.73329831400426 81.31370917246804 0.005719012009999602
    vertex -241.97997154268649 110.58999418698819 0.005719012009999602
    vertex -241.72747337251192 81.46852043777288 0.005719012009999602
  endloop
endfacet
facet normal -0.0 -0.0 -1.0
  outer loop
    vertex -241.72747337251192 81.46852043777288 0.005719012009999602
    vertex -241.97997154268649 110.58999418698819 0.005719012009999602
    vertex -241.07591721895957 112.32666638467856 0.005719012009999602
  endloop
endfacet
facet normal -0.0 -0.0 -1.0
  outer loop
    vertex -241.72747337251192 81.46852043777288 0.005719012009999602
    vertex -241.07591721895957 112.32666638467856 0.005719012009999602
    vertex -240.7425911007895 81.72475714794605 0.005719012009999602
  endloop
endfacet
facet normal -0.0 -0.0 -1.0
  outer loop
    vertex -240.7425911007895 81.72475714794605 0.005719012009999602
    vertex -241.07591721895957 112.32666638467856 0.005719012009999602
    vertex -239.7531839594412 113.770176435438 0.005719012009999602
  endloop
endfacet
facet normal -0.0 -0.0 -1.0
  outer loop
    vertex -240.7425911007895 81.72475714794605 0.005719012009999602
    vertex -239.7531839594412 113.770176435438 0.005719012009999602
    vertex -239.78885143544068 82.07976558662561 0.005719012009999602
  endloop
endfacet
facet normal -0.0 -0.0 -1.0
  outer loop
    vertex -239.78885143544068 82.07976558662561 0.005719012009999602
    vertex -239.7531839594412 113.770176435438 0.005719012009999602
    vertex -238.8761317845597 82.52986910770643 0.005719012009999602
  endloop
endfacet
facet normal -0.0 -0.0 -1.0
  outer loop
    vertex -238.8761317845597 82.52986910770643 0.005719012009999602
    vertex -239.7531839594412 113.770176435438 0.005719012009999602
    vertex -238.40764470989745 105.59136440571034 0.005719063487314635
  endloop
endfacet
facet normal -0.0 -0.0 -1.0
  outer loop
    vertex -238.40764470989745 105.59136440571034 0.005719063487314635
    vertex -239.7531839594412 113.770176435438 0.005719012009999602
    vertex -238.10191384984745 114.82215151482058 0.005719012009999602
  endloop
endfacet
facet normal -0.0 -0.0 -1.0
  outer loop
    vertex -238.40764470989745 105.59136440571034 0.005719063487314635
    vertex -238.10191384984745 114.82215151482058 0.005719012009999602
    vertex -237.36575563996348 111.50021095170153 0.00571907121458679
  endloop
endfacet
facet normal -0.0 -0.0 -1.0
  outer loop
    vertex -237.36575563996348 111.50021095170153 0.00571907121458679
    vertex -238.10191384984745 114.82215151482058 0.005719012009999602
    vertex -236.23463821929408 115.41090125963734 0.005719012009999602
  endloop
endfacet
facet normal -0.0 -0.0 -1.0
  outer loop
    vertex -237.36575563996348 111.50021095170153 0.00571907121458679
    vertex -236.23463821929408 115.41090125963734 0.005719012009999602
    vertex -231.45690909818734 110.45832185365208 0.005719069282774391
  endloop
endfacet
facet normal -0.0 -0.0 -1.0
  outer loop
    vertex -231.45690909818734 110.45832185365208 0.005719069282774391
    vertex -236.23463821929408 115.41090125963734 0.005719012009999602
    vertex -234.2786088161847 115.49630334773384 0.005719012009999602
  endloop
endfacet
facet normal -0.0 -0.0 -1.0
  outer loop
    vertex -231.45690909818734 110.45832185365208 0.005719069282774391
    vertex -234.2786088161847 115.49630334773384 0.005719012009999602
    vertex -232.36712581184963 115.07253776794012 0.005719012009999602
  endloop
endfacet
facet normal -0.0 -0.0 -1.0
  outer loop
    vertex -231.45690909818734 110.45832185365208 0.005719069282774391
    vertex -232.36712581184963 115.07253776794012 0.005719012009999602
    vertex -230.63045361415936 114.16848344421328 0.005719012009999602
  endloop
endfacet
facet normal -0.0 -0.0 -1.0
  outer loop
    vertex -238.40764470989745 105.59136440571034 0.005719063487314635
    vertex -238.01388473232174 83.07040621253847 0.005719012009999602
    vertex -238.8761317845597 82.52986910770643 0.005719012009999602
  endloop
endfacet
facet normal -0.0 -0.0 -1.0
  outer loop
    vertex -238.01388473232174 83.07040621253847 0.005719012009999602
    vertex -238.40764470989745 105.59136440571034 0.005719063487314635
    vertex -232.49879819182422 104.54947533970896 0.005719063487314635
  endloop
endfacet
facet normal -0.0 -0.0 -1.0
  outer loop
    vertex -238.01388473232174 83.07040621253847 0.005719012009999602
    vertex -232.49879819182422 104.54947533970896 0.005719063487314635
    vertex -237.21104014326153 83.6957788267535 0.005719012009999602
  endloop
endfacet
facet normal -0.0 -0.0 -1.0
  outer loop
    vertex -237.21104014326153 83.6957788267535 0.005719012009999602
    vertex -232.49879819182422 104.54947533970896 0.005719063487314635
    vertex -236.47591268010177 84.39951027674104 0.005719012009999602
  endloop
endfacet
facet normal -0.0 -0.0 -1.0
  outer loop
    vertex -236.47591268010177 84.39951027674104 0.005719012009999602
    vertex -232.49879819182422 104.54947533970896 0.005719063487314635
    vertex -235.81611569291977 85.17431236534117 0.005719012009999602
  endloop
endfacet
facet normal -0.0 -0.0 -1.0
  outer loop
    vertex -235.81611569291977 85.17431236534117 0.005719012009999602
    vertex -232.49879819182422 104.54947533970896 0.005719063487314635
    vertex -235.2384823714622 86.01216085208283 0.005719012009999602
  endloop
endfacet
facet normal -0.0 -0.0 -1.0
  outer loop
    vertex -235.2384823714622 86.01216085208283 0.005719012009999602
    vertex -232.49879819182422 104.54947533970896 0.005719063487314635
    vertex -234.74899497719102 86.90437855625763 0.005719012009999602
  endloop
endfacet
facet normal -0.0 -0.0 -1.0
  outer loop
    vertex -234.74899497719102 86.90437855625763 0.005719012009999602
    vertex -232.49879819182422 104.54947533970896 0.005719063487314635
    vertex -234.35272288797307 87.84172522217175 0.005719012009999602
  endloop
endfacet
facet normal -0.0 -0.0 -1.0
  outer loop
    vertex -234.35272288797307 87.84172522217175 0.005719012009999602
    vertex -232.49879819182422 104.54947533970896 0.005719063487314635
    vertex -227.88458223089762 105.45969203710334 0.005719012009999602
  endloop
endfacet
facet normal -0.0 -0.0 -1.0
  outer loop
    vertex -227.88458223089762 105.45969203710334 0.005719012009999602
    vertex -232.49879819182422 104.54947533970896 0.005719063487314635
    vertex -231.45690909818734 110.45832185365208 0.005719069282774391
  endloop
endfacet
facet normal -0.0 -0.0 -1.0
  outer loop
    vertex -227.88458223089762 105.45969203710334 0.005719012009999602
    vertex -231.45690909818734 110.45832185365208 0.005719069282774391
    vertex -230.63045361415936 114.16848344421328 0.005719012009999602
  endloop
endfacet
facet normal -0.0 -0.0 -1.0
  outer loop
    vertex -227.88458223089762 105.45969203710334 0.005719012009999602
    vertex -230.63045361415936 114.16848344421328 0.005719012009999602
    vertex -229.18694356339984 112.84575018469491 0.005719012009999602
  endloop
endfacet
facet normal -0.0 -0.0 -1.0
  outer loop
    vertex -227.88458223089762 105.45969203710334 0.005719012009999602
    vertex -229.18694356339984 112.84575018469491 0.005719012009999602
    vertex -228.13496848401715 111.19448007510105 0.005719012009999602
  endloop
endfacet
facet normal -0.0 -0.0 -1.0
  outer loop
    vertex -227.88458223089762 105.45969203710334 0.005719012009999602
    vertex -228.13496848401715 111.19448007510105 0.005719012009999602
    vertex -227.5462187392005 109.32720444454789 0.005719012009999602
  endloop
endfacet
facet normal -0.0 -0.0 -1.0
  outer loop
    vertex -227.88458223089762 105.45969203710334 0.005719012009999602
    vertex -227.5462187392005 109.32720444454789 0.005719012009999602
    vertex -227.46081665110398 107.37117504143839 0.005719012009999602
  endloop
endfacet
facet normal 0.0 0.0 1.0
  outer loop
    vertex -238.01388473232174 83.07040621253847 2.0057190120099735
    vertex -238.31499225962708 105.82888393425088 2.005719071214538
    vertex -238.8761317845597 82.52986910770643 2.0057190120099735
  endloop
endfacet
facet normal 0.0 0.0 1.0
  outer loop
    vertex -238.31499225962708 105.82888393425088 2.005719071214538
    vertex -238.01388473232174 83.07040621253847 2.0057190120099735
    vertex -238.1527603445581 105.59719274811478 2.005719063191801
  endloop
endfacet
facet normal 0.0 0.0 1.0
  outer loop
    vertex -238.1527603445581 105.59719274811478 2.005719063191801
    vertex -238.01388473232174 83.07040621253847 2.0057190120099735
    vertex -236.6408190654707 105.53368201313916 2.005719012009928
  endloop
endfacet
facet normal 0.0 0.0 1.0
  outer loop
    vertex -236.6408190654707 105.53368201313916 2.005719012009928
    vertex -238.01388473232174 83.07040621253847 2.0057190120099735
    vertex -237.21104014326153 83.6957788267535 2.0057190120099735
  endloop
endfacet
facet normal 0.0 0.0 1.0
  outer loop
    vertex -236.6408190654707 105.53368201313916 2.005719012009928
    vertex -237.21104014326153 83.6957788267535 2.0057190120099735
    vertex -236.47591268010177 84.39951027674104 2.0057190120099735
  endloop
endfacet
facet normal 0.0 0.0 1.0
  outer loop
    vertex -236.6408190654707 105.53368201313916 2.005719012009928
    vertex -236.47591268010177 84.39951027674104 2.0057190120099735
    vertex -234.1787997030172 105.09956155611454 2.0057190663107742
  endloop
endfacet
facet normal 0.0 0.0 1.0
  outer loop
    vertex -234.1787997030172 105.09956155611454 2.0057190663107742
    vertex -236.47591268010177 84.39951027674104 2.0057190120099735
    vertex -235.81611569291977 85.17431236534117 2.0057190120099735
  endloop
endfacet
facet normal 0.0 0.0 1.0
  outer loop
    vertex -234.1787997030172 105.09956155611454 2.0057190663107742
    vertex -235.81611569291977 85.17431236534117 2.0057190120099735
    vertex -235.2384823714622 86.01216085208283 2.0057190120099735
  endloop
endfacet
facet normal 0.0 0.0 1.0
  outer loop
    vertex -234.1787997030172 105.09956155611454 2.0057190663107742
    vertex -235.2384823714622 86.01216085208283 2.0057190120099735
    vertex -234.74899497719102 86.90437855625763 2.0057190120099735
  endloop
endfacet
facet normal 0.0 0.0 1.0
  outer loop
    vertex -234.1787997030172 105.09956155611454 2.0057190663107742
    vertex -234.74899497719102 86.90437855625763 2.0057190120099735
    vertex -234.35272288797307 87.84172522217175 2.0057190120099735
  endloop
endfacet
facet normal 0.0 0.0 1.0
  outer loop
    vertex -234.1787997030172 105.09956155611454 2.0057190663107742
    vertex -234.35272288797307 87.84172522217175 2.0057190120099735
    vertex -232.73631770899718 104.64212773921086 2.0057190712145605
  endloop
endfacet
facet normal 0.0 0.0 1.0
  outer loop
    vertex -232.73631770899718 104.64212773921086 2.0057190712145605
    vertex -234.35272288797307 87.84172522217175 2.0057190120099735
    vertex -227.88458223089762 105.45969203710334 2.0057190120099735
  endloop
endfacet
facet normal 0.0 0.0 1.0
  outer loop
    vertex -232.73631770899718 104.64212773921086 2.0057190712145605
    vertex -227.88458223089762 105.45969203710334 2.0057190120099735
    vertex -232.50462652286106 104.80435965427975 2.005719063191824
  endloop
endfacet
facet normal 0.0 0.0 1.0
  outer loop
    vertex -232.50462652286106 104.80435965427975 2.005719063191824
    vertex -227.88458223089762 105.45969203710334 2.0057190120099735
    vertex -232.44111578788562 106.31630093336703 2.005719012009951
  endloop
endfacet
facet normal 0.0 0.0 1.0
  outer loop
    vertex -232.44111578788562 106.31630093336703 2.005719012009951
    vertex -227.88458223089762 105.45969203710334 2.0057190120099735
    vertex -232.00699533086058 108.77832029581954 2.0057190663107742
  endloop
endfacet
facet normal 0.0 0.0 1.0
  outer loop
    vertex -232.00699533086058 108.77832029581954 2.0057190663107742
    vertex -227.88458223089762 105.45969203710334 2.0057190120099735
    vertex -231.5495615139567 110.22080228983994 2.0057190712145605
  endloop
endfacet
facet normal 0.0 0.0 1.0
  outer loop
    vertex -231.5495615139567 110.22080228983994 2.0057190712145605
    vertex -227.88458223089762 105.45969203710334 2.0057190120099735
    vertex -230.63045361415936 114.16848344421328 2.0057190120099735
  endloop
endfacet
facet normal 0.0 0.0 1.0
  outer loop
    vertex -230.63045361415936 114.16848344421328 2.0057190120099735
    vertex -227.88458223089762 105.45969203710334 2.0057190120099735
    vertex -229.18694356339984 112.84575018469491 2.0057190120099735
  endloop
endfacet
facet normal 0.0 0.0 1.0
  outer loop
    vertex -229.18694356339984 112.84575018469491 2.0057190120099735
    vertex -227.88458223089762 105.45969203710334 2.0057190120099735
    vertex -228.13496848401715 111.19448007510105 2.0057190120099735
  endloop
endfacet
facet normal 0.0 0.0 1.0
  outer loop
    vertex -228.13496848401715 111.19448007510105 2.0057190120099735
    vertex -227.88458223089762 105.45969203710334 2.0057190120099735
    vertex -227.5462187392005 109.32720444454789 2.0057190120099735
  endloop
endfacet
facet normal 0.0 0.0 1.0
  outer loop
    vertex -227.5462187392005 109.32720444454789 2.0057190120099735
    vertex -227.88458223089762 105.45969203710334 2.0057190120099735
    vertex -227.46081665110398 107.37117504143839 2.0057190120099735
  endloop
endfacet
facet normal 0.0 0.0 1.0
  outer loop
    vertex -261.57720284518047 84.96783142991593 2.0057190120099735
    vertex -261.57720284518047 87.5560218809411 2.0057190120099735
    vertex -261.7475737137351 86.26192665542851 2.0057190120099735
  endloop
endfacet
facet normal 0.0 0.0 1.0
  outer loop
    vertex -261.57720284518047 87.5560218809411 2.0057190120099735
    vertex -261.57720284518047 84.96783142991593 2.0057190120099735
    vertex -261.0777007326573 83.76192665542854 2.0057190120099735
  endloop
endfacet
facet normal 0.0 0.0 1.0
  outer loop
    vertex -261.57720284518047 87.5560218809411 2.0057190120099735
    vertex -261.0777007326573 83.76192665542854 2.0057190120099735
    vertex -261.0777007326573 88.7619266554285 2.0057190120099735
  endloop
endfacet
facet normal 0.0 0.0 1.0
  outer loop
    vertex -261.0777007326573 88.7619266554285 2.0057190120099735
    vertex -261.0777007326573 83.76192665542854 2.0057190120099735
    vertex -260.28310761966776 82.72639274949582 2.0057190120099735
  endloop
endfacet
facet normal 0.0 0.0 1.0
  outer loop
    vertex -261.0777007326573 88.7619266554285 2.0057190120099735
    vertex -260.28310761966776 82.72639274949582 2.0057190120099735
    vertex -260.28310761966776 89.79746056136122 2.0057190120099735
  endloop
endfacet
facet normal 0.0 0.0 1.0
  outer loop
    vertex -260.28310761966776 89.79746056136122 2.0057190120099735
    vertex -260.28310761966776 82.72639274949582 2.0057190120099735
    vertex -259.24757371373516 81.9317996365064 2.0057190120099735
  endloop
endfacet
facet normal 0.0 0.0 1.0
  outer loop
    vertex -260.28310761966776 89.79746056136122 2.0057190120099735
    vertex -259.24757371373516 81.9317996365064 2.0057190120099735
    vertex -259.24757371373516 90.59205367435064 2.0057190120099735
  endloop
endfacet
facet normal 0.0 0.0 1.0
  outer loop
    vertex -259.24757371373516 90.59205367435064 2.0057190120099735
    vertex -259.24757371373516 81.9317996365064 2.0057190120099735
    vertex -258.04166893924787 81.43229752398324 2.0057190120099735
  endloop
endfacet
facet normal 0.0 0.0 1.0
  outer loop
    vertex -259.24757371373516 90.59205367435064 2.0057190120099735
    vertex -258.04166893924787 81.43229752398324 2.0057190120099735
    vertex -258.04166893924787 91.0915557868738 2.0057190120099735
  endloop
endfacet
facet normal 0.0 0.0 1.0
  outer loop
    vertex -258.04166893924787 91.0915557868738 2.0057190120099735
    vertex -258.04166893924787 81.43229752398324 2.0057190120099735
    vertex -256.74757371373516 81.26192665542857 2.0057190120099735
  endloop
endfacet
facet normal 0.0 0.0 1.0
  outer loop
    vertex -258.04166893924787 91.0915557868738 2.0057190120099735
    vertex -256.74757371373516 81.26192665542857 2.0057190120099735
    vertex -256.74757371373516 91.26192665542847 2.0057190120099735
  endloop
endfacet
facet normal 0.0 0.0 1.0
  outer loop
    vertex -256.74757371373516 91.26192665542847 2.0057190120099735
    vertex -256.74757371373516 81.26192665542857 2.0057190120099735
    vertex -243.74964909583224 81.26192665542857 2.0057190120099735
  endloop
endfacet
facet normal 0.0 0.0 1.0
  outer loop
    vertex -256.74757371373516 91.26192665542847 2.0057190120099735
    vertex -243.74964909583224 81.26192665542857 2.0057190120099735
    vertex -249.0705379582116 91.26192665542847 2.0057190120099735
  endloop
endfacet
facet normal 0.0 0.0 1.0
  outer loop
    vertex -249.0705379582116 91.26192665542847 2.0057190120099735
    vertex -243.74964909583224 81.26192665542857 2.0057190120099735
    vertex -241.97997154268649 110.58999418698819 2.0057190120099735
  endloop
endfacet
facet normal 0.0 0.0 1.0
  outer loop
    vertex -241.97997154268649 110.58999418698819 2.0057190120099735
    vertex -243.74964909583224 81.26192665542857 2.0057190120099735
    vertex -242.73329831400426 81.31370917246804 2.0057190120099735
  endloop
endfacet
facet normal 0.0 0.0 1.0
  outer loop
    vertex -241.97997154268649 110.58999418698819 2.0057190120099735
    vertex -242.73329831400426 81.31370917246804 2.0057190120099735
    vertex -241.72747337251192 81.46852043777288 2.0057190120099735
  endloop
endfacet
facet normal 0.0 0.0 1.0
  outer loop
    vertex -241.97997154268649 110.58999418698819 2.0057190120099735
    vertex -241.72747337251192 81.46852043777288 2.0057190120099735
    vertex -241.07591721895957 112.32666638467856 2.0057190120099735
  endloop
endfacet
facet normal 0.0 0.0 1.0
  outer loop
    vertex -241.07591721895957 112.32666638467856 2.0057190120099735
    vertex -241.72747337251192 81.46852043777288 2.0057190120099735
    vertex -240.7425911007895 81.72475714794605 2.0057190120099735
  endloop
endfacet
facet normal 0.0 0.0 1.0
  outer loop
    vertex -241.07591721895957 112.32666638467856 2.0057190120099735
    vertex -240.7425911007895 81.72475714794605 2.0057190120099735
    vertex -239.7531839594412 113.770176435438 2.0057190120099735
  endloop
endfacet
facet normal 0.0 0.0 1.0
  outer loop
    vertex -239.7531839594412 113.770176435438 2.0057190120099735
    vertex -240.7425911007895 81.72475714794605 2.0057190120099735
    vertex -239.78885143544068 82.07976558662561 2.0057190120099735
  endloop
endfacet
facet normal 0.0 0.0 1.0
  outer loop
    vertex -239.7531839594412 113.770176435438 2.0057190120099735
    vertex -239.78885143544068 82.07976558662561 2.0057190120099735
    vertex -238.8761317845597 82.52986910770643 2.0057190120099735
  endloop
endfacet
facet normal 0.0 0.0 1.0
  outer loop
    vertex -239.7531839594412 113.770176435438 2.0057190120099735
    vertex -238.8761317845597 82.52986910770643 2.0057190120099735
    vertex -238.10191384984745 114.82215151482058 2.0057190120099735
  endloop
endfacet
facet normal 0.0 0.0 1.0
  outer loop
    vertex -238.10191384984745 114.82215151482058 2.0057190120099735
    vertex -238.8761317845597 82.52986910770643 2.0057190120099735
    vertex -238.31499225962708 105.82888393425088 2.005719071214538
  endloop
endfacet
facet normal 0.0 0.0 1.0
  outer loop
    vertex -238.10191384984745 114.82215151482058 2.0057190120099735
    vertex -238.31499225962708 105.82888393425088 2.005719071214538
    vertex -237.8575584427234 107.2713659282711 2.0057190663107516
  endloop
endfacet
facet normal 0.0 0.0 1.0
  outer loop
    vertex -238.10191384984745 114.82215151482058 2.0057190120099735
    vertex -237.8575584427234 107.2713659282711 2.0057190663107516
    vertex -237.35992725072288 111.24532656981143 2.005719063191846
  endloop
endfacet
facet normal 0.0 0.0 1.0
  outer loop
    vertex -238.10191384984745 114.82215151482058 2.0057190120099735
    vertex -237.35992725072288 111.24532656981143 2.005719063191846
    vertex -236.23463821929408 115.41090125963734 2.0057190120099735
  endloop
endfacet
facet normal 0.0 0.0 1.0
  outer loop
    vertex -237.35992725072288 111.24532656981143 2.005719063191846
    vertex -237.8575584427234 107.2713659282711 2.0057190663107516
    vertex -237.42343798569848 109.73338529072441 2.0057190120099735
  endloop
endfacet
facet normal 0.0 0.0 1.0
  outer loop
    vertex -236.23463821929408 115.41090125963734 2.0057190120099735
    vertex -237.35992725072288 111.24532656981143 2.005719063191846
    vertex -237.1282360645868 111.40755848488041 2.005719071214583
  endloop
endfacet
facet normal 0.0 0.0 1.0
  outer loop
    vertex -236.23463821929408 115.41090125963734 2.0057190120099735
    vertex -237.1282360645868 111.40755848488041 2.005719071214583
    vertex -235.68575407056673 110.95012466797672 2.005719066310797
  endloop
endfacet
facet normal 0.0 0.0 1.0
  outer loop
    vertex -236.23463821929408 115.41090125963734 2.0057190120099735
    vertex -235.68575407056673 110.95012466797672 2.005719066310797
    vertex -234.2786088161847 115.49630334773384 2.0057190120099735
  endloop
endfacet
facet normal 0.0 0.0 1.0
  outer loop
    vertex -234.2786088161847 115.49630334773384 2.0057190120099735
    vertex -235.68575407056673 110.95012466797672 2.005719066310797
    vertex -233.22373470811306 110.51600421095166 2.005719012009951
  endloop
endfacet
facet normal 0.0 0.0 1.0
  outer loop
    vertex -234.2786088161847 115.49630334773384 2.0057190120099735
    vertex -233.22373470811306 110.51600421095166 2.005719012009951
    vertex -232.36712581184963 115.07253776794012 2.0057190120099735
  endloop
endfacet
facet normal 0.0 0.0 1.0
  outer loop
    vertex -232.36712581184963 115.07253776794012 2.0057190120099735
    vertex -233.22373470811306 110.51600421095166 2.005719012009951
    vertex -231.71179342902605 110.45249347597577 2.005719063191824
  endloop
endfacet
facet normal 0.0 0.0 1.0
  outer loop
    vertex -232.36712581184963 115.07253776794012 2.0057190120099735
    vertex -231.71179342902605 110.45249347597577 2.005719063191824
    vertex -230.63045361415936 114.16848344421328 2.0057190120099735
  endloop
endfacet
facet normal 0.0 0.0 1.0
  outer loop
    vertex -230.63045361415936 114.16848344421328 2.0057190120099735
    vertex -231.71179342902605 110.45249347597577 2.005719063191824
    vertex -231.5495615139567 110.22080228983994 2.0057190712145605
  endloop
endfacet
facet normal -0.3007057995042938 0.9537169507482204 0.0
  outer loop
    vertex -238.10191384984745 114.82215151482058 2.0057190120099735
    vertex -236.23463821929408 115.41090125963734 0.005719012009999602
    vertex -238.10191384984745 114.82215151482058 0.005719012009999602
  endloop
endfacet
facet normal -0.3007057995042938 0.9537169507482204 0.0
  outer loop
    vertex -236.23463821929408 115.41090125963734 0.005719012009999602
    vertex -238.10191384984745 114.82215151482058 2.0057190120099735
    vertex -236.23463821929408 115.41090125963734 2.0057190120099735
  endloop
endfacet
facet normal 0.0 1.0 0.0
  outer loop
    vertex -256.74757371373516 91.26192665542847 2.0057190120099735
    vertex -249.0705379582116 91.26192665542847 0.005719012009999602
    vertex -256.74757371373516 91.26192665542847 0.005719012009999602
  endloop
endfacet
facet normal 0.0 1.0 0.0
  outer loop
    vertex -249.0705379582116 91.26192665542847 0.005719012009999602
    vertex -256.74757371373516 91.26192665542847 2.0057190120099735
    vertex -249.0705379582116 91.26192665542847 2.0057190120099735
  endloop
endfacet
facet normal -0.04361938736532588 0.9990482215818582 0.0
  outer loop
    vertex -236.23463821929408 115.41090125963734 2.0057190120099735
    vertex -234.2786088161847 115.49630334773384 0.005719012009999602
    vertex -236.23463821929408 115.41090125963734 0.005719012009999602
  endloop
endfacet
facet normal -0.04361938736532588 0.9990482215818582 0.0
  outer loop
    vertex -234.2786088161847 115.49630334773384 0.005719012009999602
    vertex -236.23463821929408 115.41090125963734 2.0057190120099735
    vertex -234.2786088161847 115.49630334773384 2.0057190120099735
  endloop
endfacet
facet normal 0.9387346831405843 -0.3446406747163585 0.0
  outer loop
    vertex -227.88458223089762 105.45969203710334 0.005719012009999602
    vertex -234.35272288797307 87.84172522217175 2.0057190120099735
    vertex -234.35272288797307 87.84172522217175 0.005719012009999602
  endloop
endfacet
facet normal 0.9387346831405843 -0.3446406747163585 0.0
  outer loop
    vertex -234.35272288797307 87.84172522217175 2.0057190120099735
    vertex -227.88458223089762 105.45969203710334 0.005719012009999602
    vertex -227.88458223089762 105.45969203710334 2.0057190120099735
  endloop
endfacet
facet normal -0.9914448613738096 -0.13052619222005837 0.0
  outer loop
    vertex -261.7475737137351 86.26192665542851 2.0057190120099735
    vertex -261.57720284518047 84.96783142991593 0.005719012009999602
    vertex -261.57720284518047 84.96783142991593 2.0057190120099735
  endloop
endfacet
facet normal -0.9914448613738096 -0.13052619222005837 0.0
  outer loop
    vertex -261.57720284518047 84.96783142991593 0.005719012009999602
    vertex -261.7475737137351 86.26192665542851 2.0057190120099735
    vertex -261.7475737137351 86.26192665542851 0.005719012009999602
  endloop
endfacet
facet normal 0.6755902076156436 0.7372773368101393 0.0
  outer loop
    vertex -230.63045361415936 114.16848344421328 2.0057190120099735
    vertex -229.18694356339984 112.84575018469491 0.005719012009999602
    vertex -230.63045361415936 114.16848344421328 0.005719012009999602
  endloop
endfacet
facet normal 0.6755902076156436 0.7372773368101393 0.0
  outer loop
    vertex -229.18694356339984 112.84575018469491 0.005719012009999602
    vertex -230.63045361415936 114.16848344421328 2.0057190120099735
    vertex -229.18694356339984 112.84575018469491 2.0057190120099735
  endloop
endfacet
facet normal -0.8870108331782163 0.4617486132350445 0.0
  outer loop
    vertex -241.07591721895957 112.32666638467856 2.0057190120099735
    vertex -241.97997154268649 110.58999418698819 0.005719012009999602
    vertex -241.97997154268649 110.58999418698819 2.0057190120099735
  endloop
endfacet
facet normal -0.8870108331782163 0.4617486132350445 0.0
  outer loop
    vertex -241.97997154268649 110.58999418698819 0.005719012009999602
    vertex -241.07591721895957 112.32666638467856 2.0057190120099735
    vertex -241.07591721895957 112.32666638467856 0.005719012009999602
  endloop
endfacet
facet normal 0.6145147093624946 -0.7889053631311734 0.0
  outer loop
    vertex -237.21104014326153 83.6957788267535 2.0057190120099735
    vertex -238.01388473232174 83.07040621253847 0.005719012009999602
    vertex -237.21104014326153 83.6957788267535 0.005719012009999602
  endloop
endfacet
facet normal 0.6145147093624946 -0.7889053631311734 0.0
  outer loop
    vertex -238.01388473232174 83.07040621253847 0.005719012009999602
    vertex -237.21104014326153 83.6957788267535 2.0057190120099735
    vertex -238.01388473232174 83.07040621253847 2.0057190120099735
  endloop
endfacet
facet normal 0.4617486132350272 0.8870108331782254 0.0
  outer loop
    vertex -232.36712581184963 115.07253776794012 2.0057190120099735
    vertex -230.63045361415936 114.16848344421328 0.005719012009999602
    vertex -232.36712581184963 115.07253776794012 0.005719012009999602
  endloop
endfacet
facet normal 0.4617486132350272 0.8870108331782254 0.0
  outer loop
    vertex -230.63045361415936 114.16848344421328 0.005719012009999602
    vertex -232.36712581184963 115.07253776794012 2.0057190120099735
    vertex -230.63045361415936 114.16848344421328 2.0057190120099735
  endloop
endfacet
facet normal -0.1305261922200494 -0.9914448613738107 0.0
  outer loop
    vertex -256.74757371373516 81.26192665542857 2.0057190120099735
    vertex -258.04166893924787 81.43229752398324 0.005719012009999602
    vertex -256.74757371373516 81.26192665542857 0.005719012009999602
  endloop
endfacet
facet normal -0.1305261922200494 -0.9914448613738107 0.0
  outer loop
    vertex -258.04166893924787 81.43229752398324 0.005719012009999602
    vertex -256.74757371373516 81.26192665542857 2.0057190120099735
    vertex -258.04166893924787 81.43229752398324 2.0057190120099735
  endloop
endfacet
facet normal -0.38268343236512203 0.9238795325112733 0.0
  outer loop
    vertex -259.24757371373516 90.59205367435064 2.0057190120099735
    vertex -258.04166893924787 91.0915557868738 0.005719012009999602
    vertex -259.24757371373516 90.59205367435064 0.005719012009999602
  endloop
endfacet
facet normal -0.38268343236512203 0.9238795325112733 0.0
  outer loop
    vertex -258.04166893924787 91.0915557868738 0.005719012009999602
    vertex -259.24757371373516 90.59205367435064 2.0057190120099735
    vertex -258.04166893924787 91.0915557868738 2.0057190120099735
  endloop
endfacet
facet normal -0.793353340291212 0.608761429008751 0.0
  outer loop
    vertex -260.28310761966776 89.79746056136122 2.0057190120099735
    vertex -261.0777007326573 88.7619266554285 0.005719012009999602
    vertex -261.0777007326573 88.7619266554285 2.0057190120099735
  endloop
endfacet
facet normal -0.793353340291212 0.608761429008751 0.0
  outer loop
    vertex -261.0777007326573 88.7619266554285 0.005719012009999602
    vertex -260.28310761966776 89.79746056136122 2.0057190120099735
    vertex -260.28310761966776 89.79746056136122 0.005719012009999602
  endloop
endfacet
facet normal 0.8433914458128632 0.5372996083468592 0.0
  outer loop
    vertex -229.18694356339984 112.84575018469491 0.005719012009999602
    vertex -228.13496848401715 111.19448007510105 2.0057190120099735
    vertex -228.13496848401715 111.19448007510105 0.005719012009999602
  endloop
endfacet
facet normal 0.8433914458128632 0.5372996083468592 0.0
  outer loop
    vertex -228.13496848401715 111.19448007510105 2.0057190120099735
    vertex -229.18694356339984 112.84575018469491 0.005719012009999602
    vertex -229.18694356339984 112.84575018469491 2.0057190120099735
  endloop
endfacet
facet normal -0.5372996083468472 0.8433914458128707 0.0
  outer loop
    vertex -239.7531839594412 113.770176435438 2.0057190120099735
    vertex -238.10191384984745 114.82215151482058 0.005719012009999602
    vertex -239.7531839594412 113.770176435438 0.005719012009999602
  endloop
endfacet
facet normal -0.5372996083468472 0.8433914458128707 0.0
  outer loop
    vertex -238.10191384984745 114.82215151482058 0.005719012009999602
    vertex -239.7531839594412 113.770176435438 2.0057190120099735
    vertex -238.10191384984745 114.82215151482058 2.0057190120099735
  endloop
endfacet
facet normal -0.9914448613738096 0.13052619222005837 0.0
  outer loop
    vertex -261.57720284518047 87.5560218809411 2.0057190120099735
    vertex -261.7475737137351 86.26192665542851 0.005719012009999602
    vertex -261.7475737137351 86.26192665542851 2.0057190120099735
  endloop
endfacet
facet normal -0.9914448613738096 0.13052619222005837 0.0
  outer loop
    vertex -261.7475737137351 86.26192665542851 0.005719012009999602
    vertex -261.57720284518047 87.5560218809411 2.0057190120099735
    vertex -261.57720284518047 87.5560218809411 0.005719012009999602
  endloop
endfacet
facet normal 0.9537169507482253 0.3007057995042783 0.0
  outer loop
    vertex -228.13496848401715 111.19448007510105 0.005719012009999602
    vertex -227.5462187392005 109.32720444454789 2.0057190120099735
    vertex -227.5462187392005 109.32720444454789 0.005719012009999602
  endloop
endfacet
facet normal 0.9537169507482253 0.3007057995042783 0.0
  outer loop
    vertex -227.5462187392005 109.32720444454789 2.0057190120099735
    vertex -228.13496848401715 111.19448007510105 0.005719012009999602
    vertex -228.13496848401715 111.19448007510105 2.0057190120099735
  endloop
endfacet
facet normal -0.9238795325112836 0.3826834323650976 0.0
  outer loop
    vertex -261.0777007326573 88.7619266554285 2.0057190120099735
    vertex -261.57720284518047 87.5560218809411 0.005719012009999602
    vertex -261.57720284518047 87.5560218809411 2.0057190120099735
  endloop
endfacet
facet normal -0.9238795325112836 0.3826834323650976 0.0
  outer loop
    vertex -261.57720284518047 87.5560218809411 0.005719012009999602
    vertex -261.0777007326573 88.7619266554285 2.0057190120099735
    vertex -261.0777007326573 88.7619266554285 0.005719012009999602
  endloop
endfacet
facet normal 0.9762960071199471 -0.2164396139380414 0.0
  outer loop
    vertex -227.46081665110398 107.37117504143839 0.005719012009999602
    vertex -227.88458223089762 105.45969203710334 2.0057190120099735
    vertex -227.88458223089762 105.45969203710334 0.005719012009999602
  endloop
endfacet
facet normal 0.9762960071199471 -0.2164396139380414 0.0
  outer loop
    vertex -227.88458223089762 105.45969203710334 2.0057190120099735
    vertex -227.46081665110398 107.37117504143839 0.005719012009999602
    vertex -227.46081665110398 107.37117504143839 2.0057190120099735
  endloop
endfacet
facet normal 0.9990482215818582 0.043619387365323864 0.0
  outer loop
    vertex -227.5462187392005 109.32720444454789 0.005719012009999602
    vertex -227.46081665110398 107.37117504143839 2.0057190120099735
    vertex -227.46081665110398 107.37117504143839 0.005719012009999602
  endloop
endfacet
facet normal 0.9990482215818582 0.043619387365323864 0.0
  outer loop
    vertex -227.46081665110398 107.37117504143839 2.0057190120099735
    vertex -227.5462187392005 109.32720444454789 0.005719012009999602
    vertex -227.5462187392005 109.32720444454789 2.0057190120099735
  endloop
endfacet
facet normal -0.7372773368101182 0.6755902076156666 0.0
  outer loop
    vertex -239.7531839594412 113.770176435438 2.0057190120099735
    vertex -241.07591721895957 112.32666638467856 0.005719012009999602
    vertex -241.07591721895957 112.32666638467856 2.0057190120099735
  endloop
endfacet
facet normal -0.7372773368101182 0.6755902076156666 0.0
  outer loop
    vertex -241.07591721895957 112.32666638467856 0.005719012009999602
    vertex -239.7531839594412 113.770176435438 2.0057190120099735
    vertex -239.7531839594412 113.770176435438 0.005719012009999602
  endloop
endfacet
facet normal -0.9238795325112836 -0.3826834323650976 0.0
  outer loop
    vertex -261.57720284518047 84.96783142991593 2.0057190120099735
    vertex -261.0777007326573 83.76192665542854 0.005719012009999602
    vertex -261.0777007326573 83.76192665542854 2.0057190120099735
  endloop
endfacet
facet normal -0.9238795325112836 -0.3826834323650976 0.0
  outer loop
    vertex -261.0777007326573 83.76192665542854 0.005719012009999602
    vertex -261.57720284518047 84.96783142991593 2.0057190120099735
    vertex -261.57720284518047 84.96783142991593 0.005719012009999602
  endloop
endfacet
facet normal -0.1305261922200494 0.9914448613738107 0.0
  outer loop
    vertex -258.04166893924787 91.0915557868738 2.0057190120099735
    vertex -256.74757371373516 91.26192665542847 0.005719012009999602
    vertex -258.04166893924787 91.0915557868738 0.005719012009999602
  endloop
endfacet
facet normal -0.1305261922200494 0.9914448613738107 0.0
  outer loop
    vertex -256.74757371373516 91.26192665542847 0.005719012009999602
    vertex -258.04166893924787 91.0915557868738 2.0057190120099735
    vertex -256.74757371373516 91.26192665542847 2.0057190120099735
  endloop
endfacet
facet normal -0.793353340291212 -0.608761429008751 0.0
  outer loop
    vertex -261.0777007326573 83.76192665542854 2.0057190120099735
    vertex -260.28310761966776 82.72639274949582 0.005719012009999602
    vertex -260.28310761966776 82.72639274949582 2.0057190120099735
  endloop
endfacet
facet normal -0.793353340291212 -0.608761429008751 0.0
  outer loop
    vertex -260.28310761966776 82.72639274949582 0.005719012009999602
    vertex -261.0777007326573 83.76192665542854 2.0057190120099735
    vertex -261.0777007326573 83.76192665542854 0.005719012009999602
  endloop
endfacet
facet normal -0.9388196548523305 0.3444091399236537 0.0
  outer loop
    vertex -241.97997154268649 110.58999418698819 2.0057190120099735
    vertex -249.0705379582116 91.26192665542847 0.005719012009999602
    vertex -249.0705379582116 91.26192665542847 2.0057190120099735
  endloop
endfacet
facet normal -0.9388196548523305 0.3444091399236537 0.0
  outer loop
    vertex -249.0705379582116 91.26192665542847 0.005719012009999602
    vertex -241.97997154268649 110.58999418698819 2.0057190120099735
    vertex -241.97997154268649 110.58999418698819 0.005719012009999602
  endloop
endfacet
facet normal -0.6087614290087409 0.7933533402912197 0.0
  outer loop
    vertex -260.28310761966776 89.79746056136122 2.0057190120099735
    vertex -259.24757371373516 90.59205367435064 0.005719012009999602
    vertex -260.28310761966776 89.79746056136122 0.005719012009999602
  endloop
endfacet
facet normal -0.6087614290087409 0.7933533402912197 0.0
  outer loop
    vertex -259.24757371373516 90.59205367435064 0.005719012009999602
    vertex -260.28310761966776 89.79746056136122 2.0057190120099735
    vertex -259.24757371373516 90.59205367435064 2.0057190120099735
  endloop
endfacet
facet normal 0.21643961393808528 0.9762960071199372 0.0
  outer loop
    vertex -234.2786088161847 115.49630334773384 2.0057190120099735
    vertex -232.36712581184963 115.07253776794012 0.005719012009999602
    vertex -234.2786088161847 115.49630334773384 0.005719012009999602
  endloop
endfacet
facet normal 0.21643961393808528 0.9762960071199372 0.0
  outer loop
    vertex -232.36712581184963 115.07253776794012 0.005719012009999602
    vertex -234.2786088161847 115.49630334773384 2.0057190120099735
    vertex -232.36712581184963 115.07253776794012 2.0057190120099735
  endloop
endfacet
facet normal -0.6087614290087409 -0.7933533402912197 0.0
  outer loop
    vertex -259.24757371373516 81.9317996365064 2.0057190120099735
    vertex -260.28310761966776 82.72639274949582 0.005719012009999602
    vertex -259.24757371373516 81.9317996365064 0.005719012009999602
  endloop
endfacet
facet normal -0.6087614290087409 -0.7933533402912197 0.0
  outer loop
    vertex -260.28310761966776 82.72639274949582 0.005719012009999602
    vertex -259.24757371373516 81.9317996365064 2.0057190120099735
    vertex -260.28310761966776 82.72639274949582 2.0057190120099735
  endloop
endfacet
facet normal 0.34884467684955833 -0.9371805543403722 0.0
  outer loop
    vertex -239.78885143544068 82.07976558662561 2.0057190120099735
    vertex -240.7425911007895 81.72475714794605 0.005719012009999602
    vertex -239.78885143544068 82.07976558662561 0.005719012009999602
  endloop
endfacet
facet normal 0.34884467684955833 -0.9371805543403722 0.0
  outer loop
    vertex -240.7425911007895 81.72475714794605 0.005719012009999602
    vertex -239.78885143544068 82.07976558662561 2.0057190120099735
    vertex -240.7425911007895 81.72475714794605 2.0057190120099735
  endloop
endfacet
facet normal 0.921072175024996 -0.3893918956459202 0.0
  outer loop
    vertex -234.35272288797307 87.84172522217175 0.005719012009999602
    vertex -234.74899497719102 86.90437855625763 2.0057190120099735
    vertex -234.74899497719102 86.90437855625763 0.005719012009999602
  endloop
endfacet
facet normal 0.921072175024996 -0.3893918956459202 0.0
  outer loop
    vertex -234.74899497719102 86.90437855625763 2.0057190120099735
    vertex -234.35272288797307 87.84172522217175 0.005719012009999602
    vertex -234.35272288797307 87.84172522217175 2.0057190120099735
  endloop
endfacet
facet normal 0.82330151275673 -0.5676042803683566 0.0
  outer loop
    vertex -235.2384823714622 86.01216085208283 0.005719012009999602
    vertex -235.81611569291977 85.17431236534117 2.0057190120099735
    vertex -235.81611569291977 85.17431236534117 0.005719012009999602
  endloop
endfacet
facet normal 0.82330151275673 -0.5676042803683566 0.0
  outer loop
    vertex -235.81611569291977 85.17431236534117 2.0057190120099735
    vertex -235.2384823714622 86.01216085208283 0.005719012009999602
    vertex -235.2384823714622 86.01216085208283 2.0057190120099735
  endloop
endfacet
facet normal 0.05088345361670718 -0.9987045980409004 0.0
  outer loop
    vertex -242.73329831400426 81.31370917246804 2.0057190120099735
    vertex -243.74964909583224 81.26192665542857 0.005719012009999602
    vertex -242.73329831400426 81.31370917246804 0.005719012009999602
  endloop
endfacet
facet normal 0.05088345361670718 -0.9987045980409004 0.0
  outer loop
    vertex -243.74964909583224 81.26192665542857 0.005719012009999602
    vertex -242.73329831400426 81.31370917246804 2.0057190120099735
    vertex -243.74964909583224 81.26192665542857 2.0057190120099735
  endloop
endfacet
facet normal 0.7613497448831681 -0.6483413961535506 0.0
  outer loop
    vertex -235.81611569291977 85.17431236534117 0.005719012009999602
    vertex -236.47591268010177 84.39951027674104 2.0057190120099735
    vertex -236.47591268010177 84.39951027674104 0.005719012009999602
  endloop
endfacet
facet normal 0.7613497448831681 -0.6483413961535506 0.0
  outer loop
    vertex -236.47591268010177 84.39951027674104 2.0057190120099735
    vertex -235.81611569291977 85.17431236534117 0.005719012009999602
    vertex -235.81611569291977 85.17431236534117 2.0057190120099735
  endloop
endfacet
facet normal -0.38268343236512203 -0.9238795325112733 0.0
  outer loop
    vertex -258.04166893924787 81.43229752398324 2.0057190120099735
    vertex -259.24757371373516 81.9317996365064 0.005719012009999602
    vertex -258.04166893924787 81.43229752398324 0.005719012009999602
  endloop
endfacet
facet normal -0.38268343236512203 -0.9238795325112733 0.0
  outer loop
    vertex -259.24757371373516 81.9317996365064 0.005719012009999602
    vertex -258.04166893924787 81.43229752398324 2.0057190120099735
    vertex -259.24757371373516 81.9317996365064 2.0057190120099735
  endloop
endfacet
facet normal 0.5311521392609612 -0.8472764631208072 0.0
  outer loop
    vertex -238.01388473232174 83.07040621253847 2.0057190120099735
    vertex -238.8761317845597 82.52986910770643 0.005719012009999602
    vertex -238.01388473232174 83.07040621253847 0.005719012009999602
  endloop
endfacet
facet normal 0.5311521392609612 -0.8472764631208072 0.0
  outer loop
    vertex -238.8761317845597 82.52986910770643 0.005719012009999602
    vertex -238.01388473232174 83.07040621253847 2.0057190120099735
    vertex -238.8761317845597 82.52986910770643 2.0057190120099735
  endloop
endfacet
facet normal 0.4422886902189904 -0.8968727415326938 0.0
  outer loop
    vertex -238.8761317845597 82.52986910770643 2.0057190120099735
    vertex -239.78885143544068 82.07976558662561 0.005719012009999602
    vertex -238.8761317845597 82.52986910770643 0.005719012009999602
  endloop
endfacet
facet normal 0.4422886902189904 -0.8968727415326938 0.0
  outer loop
    vertex -239.78885143544068 82.07976558662561 0.005719012009999602
    vertex -238.8761317845597 82.52986910770643 2.0057190120099735
    vertex -239.78885143544068 82.07976558662561 2.0057190120099735
  endloop
endfacet
facet normal 0.25178785239533713 -0.9677824535432248 0.0
  outer loop
    vertex -240.7425911007895 81.72475714794605 2.0057190120099735
    vertex -241.72747337251192 81.46852043777288 0.005719012009999602
    vertex -240.7425911007895 81.72475714794605 0.005719012009999602
  endloop
endfacet
facet normal 0.25178785239533713 -0.9677824535432248 0.0
  outer loop
    vertex -241.72747337251192 81.46852043777288 0.005719012009999602
    vertex -240.7425911007895 81.72475714794605 2.0057190120099735
    vertex -241.72747337251192 81.46852043777288 2.0057190120099735
  endloop
endfacet
facet normal 0.8767267557075231 -0.48098876891935977 0.0
  outer loop
    vertex -234.74899497719102 86.90437855625763 0.005719012009999602
    vertex -235.2384823714622 86.01216085208283 2.0057190120099735
    vertex -235.2384823714622 86.01216085208283 0.005719012009999602
  endloop
endfacet
facet normal 0.8767267557075231 -0.48098876891935977 0.0
  outer loop
    vertex -235.2384823714622 86.01216085208283 2.0057190120099735
    vertex -234.74899497719102 86.90437855625763 0.005719012009999602
    vertex -234.74899497719102 86.90437855625763 2.0057190120099735
  endloop
endfacet
facet normal 0.0 -1.0 0.0
  outer loop
    vertex -243.74964909583224 81.26192665542857 2.0057190120099735
    vertex -256.74757371373516 81.26192665542857 0.005719012009999602
    vertex -243.74964909583224 81.26192665542857 0.005719012009999602
  endloop
endfacet
facet normal 0.0 -1.0 0.0
  outer loop
    vertex -256.74757371373516 81.26192665542857 0.005719012009999602
    vertex -243.74964909583224 81.26192665542857 2.0057190120099735
    vertex -256.74757371373516 81.26192665542857 2.0057190120099735
  endloop
endfacet
facet normal 0.15212338618994733 -0.9883615104677561 0.0
  outer loop
    vertex -241.72747337251192 81.46852043777288 2.0057190120099735
    vertex -242.73329831400426 81.31370917246804 0.005719012009999602
    vertex -241.72747337251192 81.46852043777288 0.005719012009999602
  endloop
endfacet
facet normal 0.15212338618994733 -0.9883615104677561 0.0
  outer loop
    vertex -242.73329831400426 81.31370917246804 0.005719012009999602
    vertex -241.72747337251192 81.46852043777288 2.0057190120099735
    vertex -242.73329831400426 81.31370917246804 2.0057190120099735
  endloop
endfacet
facet normal 0.6915130557822594 -0.722363962059765 0.0
  outer loop
    vertex -236.47591268010177 84.39951027674104 2.0057190120099735
    vertex -237.21104014326153 83.6957788267535 0.005719012009999602
    vertex -236.47591268010177 84.39951027674104 0.005719012009999602
  endloop
endfacet
facet normal 0.6915130557822594 -0.722363962059765 0.0
  outer loop
    vertex -237.21104014326153 83.6957788267535 0.005719012009999602
    vertex -236.47591268010177 84.39951027674104 2.0057190120099735
    vertex -237.21104014326153 83.6957788267535 2.0057190120099735
  endloop
endfacet
endsolid ProtoGlove
