solid ProtoGlove
facet normal -0.9656834497550955 -0.1702760428572838 -0.19611614950830153
  outer loop
    vertex -95.28984370519728 262.3731388119511 1.2557190631922874
    vertex -95.28401534141669 262.62802313852194 1.005719004147277
    vertex -94.98013103622513 260.9046095611339 1.005719004147277
  endloop
endfacet
facet normal 0.16473713932499714 -0.9342706647042665 -0.3162277660169405
  outer loop
    vertex -99.42603624780693 261.6438164530917 1.255719012010392
    vertex -96.96401688535343 262.0779369101163 1.255719066311238
    vertex -99.28122925647209 261.54242150617347 1.6307190120101716
  endloop
endfacet
facet normal 0.16473713932499714 -0.9342706647042665 -0.3162277660169405
  outer loop
    vertex -97.06541183227169 261.93312991878145 1.6307190663110174
    vertex -99.28122925647209 261.54242150617347 1.6307190120101716
    vertex -96.96401688535343 262.0779369101163 1.255719066311238
  endloop
endfacet
facet normal 0.7409509097989572 -0.5188193977192891 0.42640143271135006
  outer loop
    vertex -100.9379775268943 261.58030571811605 2.005719063191824
    vertex -101.10020944196327 261.34861453197993 2.0057190712145605
    vertex -100.79317053555927 261.47891077119795 1.6307190631920443
  endloop
endfacet
facet normal 0.7409509097989572 -0.5188193977192891 0.42640143271135006
  outer loop
    vertex -100.95540245062844 261.24721958506177 1.6307190712147586
    vertex -100.79317053555927 261.47891077119795 1.6307190631920443
    vertex -101.10020944196327 261.34861453197993 2.0057190712145605
  endloop
endfacet
facet normal -0.9605140973526355 -0.04034742819120265 -0.2752903082660334
  outer loop
    vertex -95.28984370519728 262.3731388119511 1.2557190631922874
    vertex -95.22633297022185 260.8611975328638 1.2557190120104147
    vertex -95.39123865211538 262.2283318206161 1.6307190631919766
  endloop
endfacet
facet normal -0.9605140973526355 -0.04034742819120265 -0.2752903082660334
  outer loop
    vertex -95.32772791714012 260.71639054152905 1.630719012010194
    vertex -95.39123865211538 262.2283318206161 1.6307190631919766
    vertex -95.22633297022185 260.8611975328638 1.2557190120104147
  endloop
endfacet
facet normal -0.1702760497784818 0.9656834682625596 -0.1961160523675464
  outer loop
    vertex -98.4275592248043 255.98117186522836 1.005719004147277
    vertex -100.15097280913889 255.67728755228364 1.005719004147277
    vertex -99.913453246923 255.7699399813504 1.255719071215047
  endloop
endfacet
facet normal -0.16473712512400324 0.9342706672082848 0.3162277660169406
  outer loop
    vertex -96.15375888178411 256.76288920219724 1.630719012010194
    vertex -98.36957630598468 256.3721807895889 1.63071906631104
    vertex -96.00895189044927 256.6614942552792 2.0057190120099735
  endloop
endfacet
facet normal -0.16473712512400324 0.9342706672082848 0.3162277660169406
  outer loop
    vertex -98.47097125290296 256.2273737982541 2.0057190663108195
    vertex -96.00895189044927 256.6614942552792 2.0057190120099735
    vertex -98.36957630598468 256.3721807895889 1.63071906631104
  endloop
endfacet
facet normal 0.9656834800379118 0.17027604272712968 -0.19611600050749703
  outer loop
    vertex -101.19286185259875 261.5861340820501 1.005719004147277
    vertex -101.10020944196327 261.34861453197993 1.255719071215002
    vertex -100.88897755545236 259.86272049492914 1.005719004147277
  endloop
endfacet
facet normal -0.29060099008476664 0.9163876423240503 0.2752903077798449
  outer loop
    vertex -98.36957630598468 256.3721807895889 1.63071906631104
    vertex -99.81205830000489 255.91474697268526 1.6307190712148263
    vertex -98.47097125290296 256.2273737982541 2.0057190663108195
  endloop
endfacet
facet normal -0.29060099008476664 0.9163876423240503 0.2752903077798449
  outer loop
    vertex -99.913453246923 255.7699399813504 2.005719071214606
    vertex -98.47097125290296 256.2273737982541 2.0057190663108195
    vertex -99.81205830000489 255.91474697268526 1.6307190712148263
  endloop
endfacet
facet normal 0.2906009918388001 -0.9163876419533019 -0.27529030716240716
  outer loop
    vertex -96.96401688535343 262.0779369101163 1.255719066311238
    vertex -95.52153489133339 262.53537072701994 1.2557190712150244
    vertex -97.06541183227169 261.93312991878145 1.6307190663110174
  endloop
endfacet
facet normal 0.2906009918388001 -0.9163876419533019 -0.27529030716240716
  outer loop
    vertex -95.62292983825148 262.39056373568513 1.6307190712148039
    vertex -97.06541183227169 261.93312991878145 1.6307190663110174
    vertex -95.52153489133339 262.53537072701994 1.2557190712150244
  endloop
endfacet
facet normal -0.6245976266395639 0.43734798892482973 -0.6469965543800301
  outer loop
    vertex -94.49701061136227 256.72500499025506 1.2557190631922874
    vertex -94.33477869629291 256.9566961763909 1.2557190712150244
    vertex -94.24212628215906 256.7191766115419 1.005719004147277
  endloop
endfacet
facet normal 0.2146843661788796 -0.6769904578866484 -0.7039847603810746
  outer loop
    vertex -96.96401688535343 262.0779369101163 1.255719066311238
    vertex -97.00742892575147 262.3241388255771 1.005719004147277
    vertex -95.52153489133339 262.53537072701994 1.2557190712150244
  endloop
endfacet
facet normal 0.9342706647042447 0.1647371393250709 -0.31622776601696617
  outer loop
    vertex -100.6427756250596 259.9061325379597 1.2557190663112154
    vertex -100.49796863372475 259.8047375910417 1.630719066310995
    vertex -100.20865516803471 257.4441131755064 1.2557190120104371
  endloop
endfacet
facet normal 0.9342706647042447 0.1647371393250709 -0.31622776601696617
  outer loop
    vertex -100.10726022111643 257.5889201668413 1.6307190120102166
    vertex -100.20865516803471 257.4441131755064 1.2557190120104371
    vertex -100.49796863372475 259.8047375910417 1.630719066310995
  endloop
endfacet
facet normal 0.29060099008465334 -0.9163876423240759 0.2752903077798798
  outer loop
    vertex -97.06541183227169 261.93312991878145 1.6307190663110174
    vertex -95.62292983825148 262.39056373568513 1.6307190712148039
    vertex -96.96401688535343 262.0779369101163 2.005719066310797
  endloop
endfacet
facet normal 0.29060099008465334 -0.9163876423240759 0.2752903077798798
  outer loop
    vertex -95.52153489133339 262.53537072701994 2.005719071214583
    vertex -96.96401688535343 262.0779369101163 2.005719066310797
    vertex -95.62292983825148 262.39056373568513 1.6307190712148039
  endloop
endfacet
facet normal 0.6963642872252344 0.1227878223563759 -0.7071067318009854
  outer loop
    vertex -100.88897755545236 259.86272049492914 1.005719004147277
    vertex -100.6427756250596 259.9061325379597 1.2557190663112154
    vertex -100.45485711433082 257.4007011296716 1.005719004147277
  endloop
endfacet
facet normal 0.6963642872252344 0.1227878223563759 -0.7071067318009854
  outer loop
    vertex -100.20865516803471 257.4441131755064 1.2557190120104371
    vertex -100.45485711433082 257.4007011296716 1.005719004147277
    vertex -100.6427756250596 259.9061325379597 1.2557190663112154
  endloop
endfacet
facet normal -0.9163876419532315 -0.2906009918389887 -0.2752903071624432
  outer loop
    vertex -94.93701950453162 258.5005731173294 1.6307190663110174
    vertex -94.79221251319679 258.3991781704113 1.255719066311238
    vertex -94.47958568762793 257.058091123309 1.6307190712147135
  endloop
endfacet
facet normal -0.9163876419532315 -0.2906009918389887 -0.2752903071624432
  outer loop
    vertex -94.33477869629291 256.9566961763909 1.2557190712150244
    vertex -94.47958568762793 257.058091123309 1.6307190712147135
    vertex -94.79221251319679 258.3991781704113 1.255719066311238
  endloop
endfacet
facet normal 0.12278782607981248 -0.6963643083421691 -0.7071067103582926
  outer loop
    vertex -99.46944829100924 261.8900183844556 1.005719004147277
    vertex -97.00742892575147 262.3241388255771 1.005719004147277
    vertex -99.42603624780693 261.6438164530917 1.255719012010392
  endloop
endfacet
facet normal 0.12278782607981248 -0.6963643083421691 -0.7071067103582926
  outer loop
    vertex -96.96401688535343 262.0779369101163 1.255719066311238
    vertex -99.42603624780693 261.6438164530917 1.255719012010392
    vertex -97.00742892575147 262.3241388255771 1.005719004147277
  endloop
endfacet
facet normal 0.934270667208285 0.16473712512395314 0.3162277660169662
  outer loop
    vertex -100.6427756250596 259.9061325379597 2.0057190663107742
    vertex -100.20865516803471 257.4441131755064 2.005719012009996
    vertex -100.49796863372475 259.8047375910417 1.630719066310995
  endloop
endfacet
facet normal 0.934270667208285 0.16473712512395314 0.3162277660169662
  outer loop
    vertex -100.10726022111643 257.5889201668413 1.6307190120102166
    vertex -100.49796863372475 259.8047375910417 1.630719066310995
    vertex -100.20865516803471 257.4441131755064 2.005719012009996
  endloop
endfacet
facet normal 0.5188193977192247 0.7409509097990022 0.4264014327113499
  outer loop
    vertex -100.043749486141 256.07697888775425 1.6307190631920667
    vertex -100.1451444330591 255.9321718964194 2.0057190631918687
    vertex -99.81205830000489 255.91474697268526 1.6307190712148263
  endloop
endfacet
facet normal 0.5188193977192247 0.7409509097990022 0.4264014327113499
  outer loop
    vertex -99.913453246923 255.7699399813504 2.005719071214606
    vertex -99.81205830000489 255.91474697268526 1.6307190712148263
    vertex -100.1451444330591 255.9321718964194 2.0057190631918687
  endloop
endfacet
facet normal -0.9656834795261157 -0.17027605176444796 -0.19611599518102807
  outer loop
    vertex -94.33477869629291 256.9566961763909 1.2557190712150244
    vertex -94.54601059510358 258.44259019587633 1.005719004147277
    vertex -94.24212628215906 256.7191766115419 1.005719004147277
  endloop
endfacet
facet normal 0.1702760517644623 -0.9656834795256146 -0.19611599518348316
  outer loop
    vertex -97.00742892575147 262.3241388255771 1.005719004147277
    vertex -95.28401534141669 262.62802313852194 1.005719004147277
    vertex -95.52153489133339 262.53537072701994 1.2557190712150244
  endloop
endfacet
facet normal -0.17027604087131473 0.9656834384915227 -0.1961162066948576
  outer loop
    vertex -94.24212628215906 256.7191766115419 1.005719004147277
    vertex -95.96553985954652 256.4152923063499 1.005719004147277
    vertex -94.49701061136227 256.72500499025506 1.2557190631922874
  endloop
endfacet
facet normal -0.04034744671922171 0.9605140947272601 0.27529031471069143
  outer loop
    vertex -96.15375888178411 256.76288920219724 1.630719012010194
    vertex -96.00895189044927 256.6614942552792 2.0057190120099735
    vertex -94.6418176026971 256.8263999371732 1.6307190631920667
  endloop
endfacet
facet normal -0.04034744671922171 0.9605140947272601 0.27529031471069143
  outer loop
    vertex -94.49701061136227 256.72500499025506 2.005719063191846
    vertex -94.6418176026971 256.8263999371732 1.6307190631920667
    vertex -96.00895189044927 256.6614942552792 2.0057190120099735
  endloop
endfacet
facet normal -0.9342706672082756 -0.16473712512394428 0.3162277660169983
  outer loop
    vertex -95.22633297022185 260.8611975328638 2.0057190120099735
    vertex -95.32772791714012 260.71639054152905 1.630719012010194
    vertex -94.79221251319679 258.3991781704113 2.005719066310797
  endloop
endfacet
facet normal -0.9342706672082756 -0.16473712512394428 0.3162277660169983
  outer loop
    vertex -94.93701950453162 258.5005731173294 1.6307190663110174
    vertex -94.79221251319679 258.3991781704113 2.005719066310797
    vertex -95.32772791714012 260.71639054152905 1.630719012010194
  endloop
endfacet
facet normal -0.5188193977192344 -0.740950909798999 0.42640143271134406
  outer loop
    vertex -95.39123865211538 262.2283318206161 1.6307190631919766
    vertex -95.28984370519728 262.3731388119511 2.005719063191846
    vertex -95.62292983825148 262.39056373568513 1.6307190712148039
  endloop
endfacet
facet normal -0.5188193977192344 -0.740950909798999 0.42640143271134406
  outer loop
    vertex -95.52153489133339 262.53537072701994 2.005719071214583
    vertex -95.62292983825148 262.39056373568513 1.6307190712148039
    vertex -95.28984370519728 262.3731388119511 2.005719063191846
  endloop
endfacet
facet normal 0.9605140973526359 0.040347428191320006 -0.2752903082660147
  outer loop
    vertex -100.10726022111643 257.5889201668413 1.6307190120102166
    vertex -100.043749486141 256.07697888775425 1.6307190631920667
    vertex -100.20865516803471 257.4441131755064 1.2557190120104371
  endloop
endfacet
facet normal 0.9605140973526359 0.040347428191320006 -0.2752903082660147
  outer loop
    vertex -100.1451444330591 255.9321718964194 1.25571906319231
    vertex -100.20865516803471 257.4441131755064 1.2557190120104371
    vertex -100.043749486141 256.07697888775425 1.6307190631920667
  endloop
endfacet
facet normal -0.21468436058642906 0.6769904402512901 -0.7039847790456557
  outer loop
    vertex -99.913453246923 255.7699399813504 1.255719071215047
    vertex -98.47097125290296 256.2273737982541 1.2557190663112605
    vertex -98.4275592248043 255.98117186522836 1.005719004147277
  endloop
endfacet
facet normal -0.9163876423240186 -0.2906009900848633 0.27529030777984903
  outer loop
    vertex -94.93701950453162 258.5005731173294 1.6307190663110174
    vertex -94.47958568762793 257.058091123309 1.6307190712147135
    vertex -94.79221251319679 258.3991781704113 2.005719066310797
  endloop
endfacet
facet normal -0.9163876423240186 -0.2906009900848633 0.27529030777984903
  outer loop
    vertex -94.33477869629291 256.9566961763909 2.005719071214583
    vertex -94.79221251319679 258.3991781704113 2.005719066310797
    vertex -94.47958568762793 257.058091123309 1.6307190712147135
  endloop
endfacet
facet normal 0.1702760428569117 -0.9656834497547331 -0.1961161495104092
  outer loop
    vertex -101.19286185259875 261.5861340820501 1.005719004147277
    vertex -99.46944829100924 261.8900183844556 1.005719004147277
    vertex -100.9379775268943 261.58030571811605 1.2557190631922648
  endloop
endfacet
facet normal 0.1736481770485919 -0.9848077531212379 8.618536287930883e-09
  outer loop
    vertex -101.19286189223368 261.58613406052046 0.005719063487337195
    vertex -95.28401537416042 262.62802312652184 0.005719063487337195
    vertex -101.19286185259875 261.5861340820501 1.005719004147277
  endloop
endfacet
facet normal 0.1736481770485919 -0.9848077531212379 8.618536287930883e-09
  outer loop
    vertex -95.28401534141669 262.62802313852194 1.005719004147277
    vertex -101.19286185259875 261.5861340820501 1.005719004147277
    vertex -95.28401537416042 262.62802312652184 0.005719063487337195
  endloop
endfacet
facet normal 0.1736481770485919 -0.9848077531212379 8.618536287930883e-09
  outer loop
    vertex -99.46944829100924 261.8900183844556 1.005719004147277
    vertex -101.19286185259875 261.5861340820501 1.005719004147277
    vertex -95.28401534141669 262.62802313852194 1.005719004147277
  endloop
endfacet
facet normal 0.1736481770485919 -0.9848077531212379 8.618536287930883e-09
  outer loop
    vertex -97.00742892575147 262.3241388255771 1.005719004147277
    vertex -99.46944829100924 261.8900183844556 1.005719004147277
    vertex -95.28401534141669 262.62802313852194 1.005719004147277
  endloop
endfacet
facet normal 0.9848077533478098 0.17364817576363656 -2.87407421744836e-08
  outer loop
    vertex -101.19286185259875 261.5861340820501 1.005719004147277
    vertex -100.88897755545236 259.86272049492914 1.005719004147277
    vertex -101.19286189223368 261.58613406052046 0.005719063487337195
  endloop
endfacet
facet normal 0.9848077533478098 0.17364817576363656 -2.87407421744836e-08
  outer loop
    vertex -100.1509728222997 255.6772875145293 0.00571907121460935
    vertex -101.19286189223368 261.58613406052046 0.005719063487337195
    vertex -100.88897755545236 259.86272049492914 1.005719004147277
  endloop
endfacet
facet normal 0.9848077533478098 0.17364817576363656 -2.87407421744836e-08
  outer loop
    vertex -100.45485711433082 257.4007011296716 1.005719004147277
    vertex -100.1509728222997 255.6772875145293 0.00571907121460935
    vertex -100.88897755545236 259.86272049492914 1.005719004147277
  endloop
endfacet
facet normal 0.9848077533478098 0.17364817576363656 -2.87407421744836e-08
  outer loop
    vertex -100.15097280913889 255.67728755228364 1.005719004147277
    vertex -100.1509728222997 255.6772875145293 0.00571907121460935
    vertex -100.45485711433082 257.4007011296716 1.005719004147277
  endloop
endfacet
facet normal -0.16473713932513875 0.9342706647042415 -0.3162277660169405
  outer loop
    vertex -96.00895189044927 256.6614942552792 1.2557190120104147
    vertex -98.47097125290296 256.2273737982541 1.2557190663112605
    vertex -96.15375888178411 256.76288920219724 1.630719012010194
  endloop
endfacet
facet normal -0.16473713932513875 0.9342706647042415 -0.3162277660169405
  outer loop
    vertex -98.36957630598468 256.3721807895889 1.63071906631104
    vertex -96.15375888178411 256.76288920219724 1.630719012010194
    vertex -98.47097125290296 256.2273737982541 1.2557190663112605
  endloop
endfacet
facet normal 0.7409508959244631 -0.5188194175341029 -0.42640143271137093
  outer loop
    vertex -100.9379775268943 261.58030571811605 1.2557190631922648
    vertex -100.79317053555927 261.47891077119795 1.6307190631920443
    vertex -101.10020944196327 261.34861453197993 1.255719071215002
  endloop
endfacet
facet normal 0.7409508959244631 -0.5188194175341029 -0.42640143271137093
  outer loop
    vertex -100.95540245062844 261.24721958506177 1.6307190712147586
    vertex -101.10020944196327 261.34861453197993 1.255719071215002
    vertex -100.79317053555927 261.47891077119795 1.6307190631920443
  endloop
endfacet
facet normal -0.029807040655718514 0.7095891934357358 -0.7039848839901114
  outer loop
    vertex -95.96553985954652 256.4152923063499 1.005719004147277
    vertex -96.00895189044927 256.6614942552792 1.2557190120104147
    vertex -94.49701061136227 256.72500499025506 1.2557190631922874
  endloop
endfacet
facet normal 0.9163876423240505 0.29060099008473933 0.275290307779873
  outer loop
    vertex -101.10020944196327 261.34861453197993 2.0057190712145605
    vertex -100.6427756250596 259.9061325379597 2.0057190663107742
    vertex -100.95540245062844 261.24721958506177 1.6307190712147586
  endloop
endfacet
facet normal 0.9163876423240505 0.29060099008473933 0.275290307779873
  outer loop
    vertex -100.49796863372475 259.8047375910417 1.630719066310995
    vertex -100.95540245062844 261.24721958506177 1.6307190712147586
    vertex -100.6427756250596 259.9061325379597 2.0057190663107742
  endloop
endfacet
facet normal -0.51881941753417 -0.7409508959243833 -0.42640143271142794
  outer loop
    vertex -95.28984370519728 262.3731388119511 1.2557190631922874
    vertex -95.39123865211538 262.2283318206161 1.6307190631919766
    vertex -95.52153489133339 262.53537072701994 1.2557190712150244
  endloop
endfacet
facet normal -0.51881941753417 -0.7409508959243833 -0.42640143271142794
  outer loop
    vertex -95.62292983825148 262.39056373568513 1.6307190712148039
    vertex -95.52153489133339 262.53537072701994 1.2557190712150244
    vertex -95.39123865211538 262.2283318206161 1.6307190631919766
  endloop
endfacet
facet normal -0.7095892147646938 -0.029807041551434182 -0.7039848624534311
  outer loop
    vertex -95.28984370519728 262.3731388119511 1.2557190631922874
    vertex -94.98013103622513 260.9046095611339 1.005719004147277
    vertex -95.22633297022185 260.8611975328638 1.2557190120104147
  endloop
endfacet
facet normal 0.9163876419532734 0.29060099183888083 -0.2752903071624171
  outer loop
    vertex -101.10020944196327 261.34861453197993 1.255719071215002
    vertex -100.95540245062844 261.24721958506177 1.6307190712147586
    vertex -100.6427756250596 259.9061325379597 1.2557190663112154
  endloop
endfacet
facet normal 0.9163876419532734 0.29060099183888083 -0.2752903071624171
  outer loop
    vertex -100.49796863372475 259.8047375910417 1.630719066310995
    vertex -100.6427756250596 259.9061325379597 1.2557190663112154
    vertex -100.95540245062844 261.24721958506177 1.6307190712147586
  endloop
endfacet
facet normal 0.9656834384917637 0.1702760408712545 -0.19611620669372212
  outer loop
    vertex -100.45485711433082 257.4007011296716 1.005719004147277
    vertex -100.1451444330591 255.9321718964194 1.25571906319231
    vertex -100.15097280913889 255.67728755228364 1.005719004147277
  endloop
endfacet
facet normal -0.43734799817674114 -0.6245976398544629 -0.6469965353686463
  outer loop
    vertex -95.28984370519728 262.3731388119511 1.2557190631922874
    vertex -95.52153489133339 262.53537072701994 1.2557190712150244
    vertex -95.28401534141669 262.62802313852194 1.005719004147277
  endloop
endfacet
facet normal 0.6245976406206478 -0.4373479987136495 -0.6469965342660545
  outer loop
    vertex -101.10020944196327 261.34861453197993 1.255719071215002
    vertex -101.19286185259875 261.5861340820501 1.005719004147277
    vertex -100.9379775268943 261.58030571811605 1.2557190631922648
  endloop
endfacet
facet normal -0.7409509097989649 0.5188193977192829 0.42640143271134384
  outer loop
    vertex -94.47958568762793 257.058091123309 1.6307190712147135
    vertex -94.6418176026971 256.8263999371732 1.6307190631920667
    vertex -94.33477869629291 256.9566961763909 2.005719071214583
  endloop
endfacet
facet normal -0.7409509097989649 0.5188193977192829 0.42640143271134384
  outer loop
    vertex -94.49701061136227 256.72500499025506 2.005719063191846
    vertex -94.33477869629291 256.9566961763909 2.005719071214583
    vertex -94.6418176026971 256.8263999371732 1.6307190631920667
  endloop
endfacet
facet normal -0.9848077527493131 -0.17364817915788092 1.4662455573295345e-08
  outer loop
    vertex -95.28401534141669 262.62802313852194 1.005719004147277
    vertex -95.28401537416042 262.62802312652184 0.005719063487337195
    vertex -94.98013103622513 260.9046095611339 1.005719004147277
  endloop
endfacet
facet normal -0.9848077527493131 -0.17364817915788092 1.4662455573295345e-08
  outer loop
    vertex -94.24212628052356 256.71917661257874 0.005719069282796951
    vertex -94.98013103622513 260.9046095611339 1.005719004147277
    vertex -95.28401537416042 262.62802312652184 0.005719063487337195
  endloop
endfacet
facet normal -0.9848077527493131 -0.17364817915788092 1.4662455573295345e-08
  outer loop
    vertex -94.54601059510358 258.44259019587633 1.005719004147277
    vertex -94.98013103622513 260.9046095611339 1.005719004147277
    vertex -94.24212628052356 256.71917661257874 0.005719069282796951
  endloop
endfacet
facet normal -0.9848077527493131 -0.17364817915788092 1.4662455573295345e-08
  outer loop
    vertex -94.24212628215906 256.7191766115419 1.005719004147277
    vertex -94.54601059510358 258.44259019587633 1.005719004147277
    vertex -94.24212628052356 256.71917661257874 0.005719069282796951
  endloop
endfacet
facet normal -0.740950895924505 0.518819417533996 -0.42640143271142805
  outer loop
    vertex -94.47958568762793 257.058091123309 1.6307190712147135
    vertex -94.33477869629291 256.9566961763909 1.2557190712150244
    vertex -94.6418176026971 256.8263999371732 1.6307190631920667
  endloop
endfacet
facet normal -0.740950895924505 0.518819417533996 -0.42640143271142805
  outer loop
    vertex -94.49701061136227 256.72500499025506 1.2557190631922874
    vertex -94.6418176026971 256.8263999371732 1.6307190631920667
    vertex -94.33477869629291 256.9566961763909 1.2557190712150244
  endloop
endfacet
facet normal 0.7095891962798851 0.02980704077506411 -0.7039848811182668
  outer loop
    vertex -100.45485711433082 257.4007011296716 1.005719004147277
    vertex -100.20865516803471 257.4441131755064 1.2557190120104371
    vertex -100.1451444330591 255.9321718964194 1.25571906319231
  endloop
endfacet
facet normal -0.12278782235633198 0.6963642872249669 -0.7071067318012563
  outer loop
    vertex -98.47097125290296 256.2273737982541 1.2557190663112605
    vertex -96.00895189044927 256.6614942552792 1.2557190120104147
    vertex -98.4275592248043 255.98117186522836 1.005719004147277
  endloop
endfacet
facet normal -0.12278782235633198 0.6963642872249669 -0.7071067318012563
  outer loop
    vertex -95.96553985954652 256.4152923063499 1.005719004147277
    vertex -98.4275592248043 255.98117186522836 1.005719004147277
    vertex -96.00895189044927 256.6614942552792 1.2557190120104147
  endloop
endfacet
facet normal 0.040347428191265466 -0.9605140973526536 -0.27529030826596124
  outer loop
    vertex -99.42603624780693 261.6438164530917 1.255719012010392
    vertex -99.28122925647209 261.54242150617347 1.6307190120101716
    vertex -100.9379775268943 261.58030571811605 1.2557190631922648
  endloop
endfacet
facet normal 0.040347428191265466 -0.9605140973526536 -0.27529030826596124
  outer loop
    vertex -100.79317053555927 261.47891077119795 1.6307190631920443
    vertex -100.9379775268943 261.58030571811605 1.2557190631922648
    vertex -99.28122925647209 261.54242150617347 1.6307190120101716
  endloop
endfacet
facet normal -0.6769904606003979 -0.2146843670394949 -0.7039847575089341
  outer loop
    vertex -94.79221251319679 258.3991781704113 1.255719066311238
    vertex -94.54601059510358 258.44259019587633 1.005719004147277
    vertex -94.33477869629291 256.9566961763909 1.2557190712150244
  endloop
endfacet
facet normal 0.040347446719106506 -0.9605140947272751 0.27529031471065674
  outer loop
    vertex -99.28122925647209 261.54242150617347 1.6307190120101716
    vertex -99.42603624780693 261.6438164530917 2.005719012009951
    vertex -100.79317053555927 261.47891077119795 1.6307190631920443
  endloop
endfacet
facet normal 0.040347446719106506 -0.9605140947272751 0.27529031471065674
  outer loop
    vertex -100.9379775268943 261.58030571811605 2.005719063191824
    vertex -100.79317053555927 261.47891077119795 1.6307190631920443
    vertex -99.42603624780693 261.6438164530917 2.005719012009951
  endloop
endfacet
facet normal 0.02980704167095493 -0.70958921760851 -0.703984859581915
  outer loop
    vertex -99.46944829100924 261.8900183844556 1.005719004147277
    vertex -99.42603624780693 261.6438164530917 1.255719012010392
    vertex -100.9379775268943 261.58030571811605 1.2557190631922648
  endloop
endfacet
facet normal 0.6769904375383404 0.21468435972606587 -0.7039847819169501
  outer loop
    vertex -100.88897755545236 259.86272049492914 1.005719004147277
    vertex -101.10020944196327 261.34861453197993 1.255719071215002
    vertex -100.6427756250596 259.9061325379597 1.2557190663112154
  endloop
endfacet
facet normal 0.4373479796708589 0.6245976134253227 -0.6469965733921696
  outer loop
    vertex -100.15097280913889 255.67728755228364 1.005719004147277
    vertex -100.1451444330591 255.9321718964194 1.25571906319231
    vertex -99.913453246923 255.7699399813504 1.255719071215047
  endloop
endfacet
facet normal -0.9605140947272767 -0.04034744671902806 0.275290314710662
  outer loop
    vertex -95.28984370519728 262.3731388119511 2.005719063191846
    vertex -95.39123865211538 262.2283318206161 1.6307190631919766
    vertex -95.22633297022185 260.8611975328638 2.0057190120099735
  endloop
endfacet
facet normal -0.9605140947272767 -0.04034744671902806 0.275290314710662
  outer loop
    vertex -95.32772791714012 260.71639054152905 1.630719012010194
    vertex -95.22633297022185 260.8611975328638 2.0057190120099735
    vertex -95.39123865211538 262.2283318206161 1.6307190631919766
  endloop
endfacet
facet normal -0.29060099183891347 0.9163876419532766 -0.2752903071623723
  outer loop
    vertex -98.47097125290296 256.2273737982541 1.2557190663112605
    vertex -99.913453246923 255.7699399813504 1.255719071215047
    vertex -98.36957630598468 256.3721807895889 1.63071906631104
  endloop
endfacet
facet normal -0.29060099183891347 0.9163876419532766 -0.2752903071623723
  outer loop
    vertex -99.81205830000489 255.91474697268526 1.6307190712148263
    vertex -98.36957630598468 256.3721807895889 1.63071906631104
    vertex -99.913453246923 255.7699399813504 1.255719071215047
  endloop
endfacet
facet normal 0.5188194175340941 0.7409508959244693 -0.42640143271137104
  outer loop
    vertex -100.1451444330591 255.9321718964194 1.25571906319231
    vertex -100.043749486141 256.07697888775425 1.6307190631920667
    vertex -99.913453246923 255.7699399813504 1.255719071215047
  endloop
endfacet
facet normal 0.5188194175340941 0.7409508959244693 -0.42640143271137104
  outer loop
    vertex -99.81205830000489 255.91474697268526 1.6307190712148263
    vertex -99.913453246923 255.7699399813504 1.255719071215047
    vertex -100.043749486141 256.07697888775425 1.6307190631920667
  endloop
endfacet
facet normal 0.1647371251238617 -0.9342706672083099 0.31622776601694064
  outer loop
    vertex -99.28122925647209 261.54242150617347 1.6307190120101716
    vertex -97.06541183227169 261.93312991878145 1.6307190663110174
    vertex -99.42603624780693 261.6438164530917 2.005719012009951
  endloop
endfacet
facet normal 0.1647371251238617 -0.9342706672083099 0.31622776601694064
  outer loop
    vertex -96.96401688535343 262.0779369101163 2.005719066310797
    vertex -99.42603624780693 261.6438164530917 2.005719012009951
    vertex -97.06541183227169 261.93312991878145 1.6307190663110174
  endloop
endfacet
facet normal -0.6963643083423955 -0.1227878260799075 -0.7071067103580532
  outer loop
    vertex -95.22633297022185 260.8611975328638 1.2557190120104147
    vertex -94.98013103622513 260.9046095611339 1.005719004147277
    vertex -94.79221251319679 258.3991781704113 1.255719066311238
  endloop
endfacet
facet normal -0.6963643083423955 -0.1227878260799075 -0.7071067103580532
  outer loop
    vertex -94.54601059510358 258.44259019587633 1.005719004147277
    vertex -94.79221251319679 258.3991781704113 1.255719066311238
    vertex -94.98013103622513 260.9046095611339 1.005719004147277
  endloop
endfacet
facet normal -0.9342706647042333 -0.16473713932507383 -0.31622776601699826
  outer loop
    vertex -95.22633297022185 260.8611975328638 1.2557190120104147
    vertex -94.79221251319679 258.3991781704113 1.255719066311238
    vertex -95.32772791714012 260.71639054152905 1.630719012010194
  endloop
endfacet
facet normal -0.9342706647042333 -0.16473713932507383 -0.31622776601699826
  outer loop
    vertex -94.93701950453162 258.5005731173294 1.6307190663110174
    vertex -95.32772791714012 260.71639054152905 1.630719012010194
    vertex -94.79221251319679 258.3991781704113 1.255719066311238
  endloop
endfacet
facet normal -0.1736481791211096 0.9848077527557969 -1.8686304106815457e-08
  outer loop
    vertex -94.24212628052356 256.71917661257874 0.005719069282796951
    vertex -100.1509728222997 255.6772875145293 0.00571907121460935
    vertex -94.24212628215906 256.7191766115419 1.005719004147277
  endloop
endfacet
facet normal -0.1736481791211096 0.9848077527557969 -1.8686304106815457e-08
  outer loop
    vertex -100.15097280913889 255.67728755228364 1.005719004147277
    vertex -94.24212628215906 256.7191766115419 1.005719004147277
    vertex -100.1509728222997 255.6772875145293 0.00571907121460935
  endloop
endfacet
facet normal -0.1736481791211096 0.9848077527557969 -1.8686304106815457e-08
  outer loop
    vertex -95.96553985954652 256.4152923063499 1.005719004147277
    vertex -94.24212628215906 256.7191766115419 1.005719004147277
    vertex -100.15097280913889 255.67728755228364 1.005719004147277
  endloop
endfacet
facet normal -0.1736481791211096 0.9848077527557969 -1.8686304106815457e-08
  outer loop
    vertex -98.4275592248043 255.98117186522836 1.005719004147277
    vertex -95.96553985954652 256.4152923063499 1.005719004147277
    vertex -100.15097280913889 255.67728755228364 1.005719004147277
  endloop
endfacet
facet normal 0.9605140947272625 0.04034744671915716 0.27529031471069343
  outer loop
    vertex -100.10726022111643 257.5889201668413 1.6307190120102166
    vertex -100.20865516803471 257.4441131755064 2.005719012009996
    vertex -100.043749486141 256.07697888775425 1.6307190631920667
  endloop
endfacet
facet normal 0.9605140947272625 0.04034744671915716 0.27529031471069343
  outer loop
    vertex -100.1451444330591 255.9321718964194 2.0057190631918687
    vertex -100.043749486141 256.07697888775425 1.6307190631920667
    vertex -100.20865516803471 257.4441131755064 2.005719012009996
  endloop
endfacet
facet normal -0.04034742819138071 0.9605140973526388 -0.27529030826599615
  outer loop
    vertex -96.00895189044927 256.6614942552792 1.2557190120104147
    vertex -96.15375888178411 256.76288920219724 1.630719012010194
    vertex -94.49701061136227 256.72500499025506 1.2557190631922874
  endloop
endfacet
facet normal -0.04034742819138071 0.9605140973526388 -0.27529030826599615
  outer loop
    vertex -94.6418176026971 256.8263999371732 1.6307190631920667
    vertex -94.49701061136227 256.72500499025506 1.2557190631922874
    vertex -96.15375888178411 256.76288920219724 1.630719012010194
  endloop
endfacet
facet normal 0.9762960071199471 0.2164396139380414 0.0
  outer loop
    vertex -90.66979941323385 261.7178064291275 0.005719012009999602
    vertex -90.66979941323385 261.7178064291275 2.005719012009996
    vertex -90.2460338334402 259.8063234247924 0.005719012009999602
  endloop
endfacet
facet normal 0.9762960071199471 0.2164396139380414 0.0
  outer loop
    vertex -90.2460338334402 259.8063234247924 2.005719012009996
    vertex -90.2460338334402 259.8063234247924 0.005719012009999602
    vertex -90.66979941323385 261.7178064291275 2.005719012009996
  endloop
endfacet
facet normal -0.3007057995042938 -0.9537169507482204 0.0
  outer loop
    vertex -100.88713103218366 252.35534695141024 0.005719012009999602
    vertex -99.01985540163031 251.76659720659347 0.005719012009999602
    vertex -100.88713103218366 252.35534695141024 2.005719012009996
  endloop
endfacet
facet normal -0.3007057995042938 -0.9537169507482204 0.0
  outer loop
    vertex -99.01985540163031 251.76659720659347 2.005719012009996
    vertex -100.88713103218366 252.35534695141024 2.005719012009996
    vertex -99.01985540163031 251.76659720659347 0.005719012009999602
  endloop
endfacet
facet normal -0.9396926207859146 -0.3420201433256515 0.0
  outer loop
    vertex -109.07053795821166 268.4163540802962 2.005719012009996
    vertex -109.07053795821166 268.4163540802962 0.005719012009999602
    vertex -104.76518872502271 256.58750427924264 2.005719012009996
  endloop
endfacet
facet normal -0.9396926207859146 -0.3420201433256515 0.0
  outer loop
    vertex -104.76518872502271 256.58750427924264 0.005719012009999602
    vertex -104.76518872502271 256.58750427924264 2.005719012009996
    vertex -109.07053795821166 268.4163540802962 0.005719012009999602
  endloop
endfacet
facet normal -0.6087614290087409 -0.7933533402912197 0.0
  outer loop
    vertex -120.28310761966786 269.8808201743634 0.005719012009999602
    vertex -119.24757371373522 269.086227061374 0.005719012009999602
    vertex -120.28310761966786 269.8808201743634 2.005719012009996
  endloop
endfacet
facet normal -0.6087614290087409 -0.7933533402912197 0.0
  outer loop
    vertex -119.24757371373522 269.086227061374 2.005719012009996
    vertex -120.28310761966786 269.8808201743634 2.005719012009996
    vertex -119.24757371373522 269.086227061374 0.005719012009999602
  endloop
endfacet
facet normal -0.8870108331782163 -0.4617486132350445 0.0
  outer loop
    vertex -104.76518872502271 256.58750427924264 2.005719012009996
    vertex -104.76518872502271 256.58750427924264 0.005719012009999602
    vertex -103.8611344012958 254.85083208155226 2.005719012009996
  endloop
endfacet
facet normal -0.8870108331782163 -0.4617486132350445 0.0
  outer loop
    vertex -103.8611344012958 254.85083208155226 0.005719012009999602
    vertex -103.8611344012958 254.85083208155226 2.005719012009996
    vertex -104.76518872502271 256.58750427924264 0.005719012009999602
  endloop
endfacet
facet normal 0.921072175024996 0.3893918956459202 0.0
  outer loop
    vertex -94.74899497719109 272.77390217946703 0.005719012009999602
    vertex -94.74899497719109 272.77390217946703 2.005719012009996
    vertex -94.35272288797313 271.8365555135529 0.005719012009999602
  endloop
endfacet
facet normal 0.921072175024996 0.3893918956459202 0.0
  outer loop
    vertex -94.35272288797313 271.8365555135529 2.005719012009996
    vertex -94.35272288797313 271.8365555135529 0.005719012009999602
    vertex -94.74899497719109 272.77390217946703 2.005719012009996
  endloop
endfacet
facet normal 0.0 0.0 1.0
  outer loop
    vertex -101.72747337251201 278.2097602979518 2.005719012009996
    vertex -101.10020944196327 261.34861453197993 2.0057190712145605
    vertex -100.74259110078957 277.9535235877786 2.005719012009996
  endloop
endfacet
facet normal 0.0 0.0 1.0
  outer loop
    vertex -100.9379775268943 261.58030571811605 2.005719063191824
    vertex -100.74259110078957 277.9535235877786 2.005719012009996
    vertex -101.10020944196327 261.34861453197993 2.0057190712145605
  endloop
endfacet
facet normal 0.0 0.0 1.0
  outer loop
    vertex -99.42603624780693 261.6438164530917 2.005719012009951
    vertex -100.74259110078957 277.9535235877786 2.005719012009996
    vertex -100.9379775268943 261.58030571811605 2.005719063191824
  endloop
endfacet
facet normal 0.0 0.0 1.0
  outer loop
    vertex -99.78885143544075 277.59851514909906 2.005719012009996
    vertex -100.74259110078957 277.9535235877786 2.005719012009996
    vertex -99.42603624780693 261.6438164530917 2.005719012009951
  endloop
endfacet
facet normal 0.0 0.0 1.0
  outer loop
    vertex -98.87613178455977 277.1484116280182 2.005719012009996
    vertex -99.78885143544075 277.59851514909906 2.005719012009996
    vertex -99.42603624780693 261.6438164530917 2.005719012009951
  endloop
endfacet
facet normal 0.0 0.0 1.0
  outer loop
    vertex -96.96401688535343 262.0779369101163 2.005719066310797
    vertex -98.87613178455977 277.1484116280182 2.005719012009996
    vertex -99.42603624780693 261.6438164530917 2.005719012009951
  endloop
endfacet
facet normal 0.0 0.0 1.0
  outer loop
    vertex -98.01388473232181 276.6078745231862 2.005719012009996
    vertex -98.87613178455977 277.1484116280182 2.005719012009996
    vertex -96.96401688535343 262.0779369101163 2.005719066310797
  endloop
endfacet
facet normal 0.0 0.0 1.0
  outer loop
    vertex -97.2110401432616 275.98250190897113 2.005719012009996
    vertex -98.01388473232181 276.6078745231862 2.005719012009996
    vertex -96.96401688535343 262.0779369101163 2.005719066310797
  endloop
endfacet
facet normal 0.0 0.0 1.0
  outer loop
    vertex -96.47591268010183 275.2787704589836 2.005719012009996
    vertex -97.2110401432616 275.98250190897113 2.005719012009996
    vertex -96.96401688535343 262.0779369101163 2.005719066310797
  endloop
endfacet
facet normal 0.0 0.0 1.0
  outer loop
    vertex -95.52153489133339 262.53537072701994 2.005719071214583
    vertex -96.47591268010183 275.2787704589836 2.005719012009996
    vertex -96.96401688535343 262.0779369101163 2.005719066310797
  endloop
endfacet
facet normal 0.0 0.0 1.0
  outer loop
    vertex -95.81611569291984 274.50396837038346 2.005719012009996
    vertex -96.47591268010183 275.2787704589836 2.005719012009996
    vertex -95.52153489133339 262.53537072701994 2.005719071214583
  endloop
endfacet
facet normal 0.0 0.0 1.0
  outer loop
    vertex -95.23848237146227 273.66611988364184 2.005719012009996
    vertex -95.81611569291984 274.50396837038346 2.005719012009996
    vertex -95.52153489133339 262.53537072701994 2.005719071214583
  endloop
endfacet
facet normal 0.0 0.0 1.0
  outer loop
    vertex -95.28984370519728 262.3731388119511 2.005719063191846
    vertex -95.23848237146227 273.66611988364184 2.005719012009996
    vertex -95.52153489133339 262.53537072701994 2.005719071214583
  endloop
endfacet
facet normal 0.0 0.0 1.0
  outer loop
    vertex -95.22633297022185 260.8611975328638 2.0057190120099735
    vertex -95.23848237146227 273.66611988364184 2.005719012009996
    vertex -95.28984370519728 262.3731388119511 2.005719063191846
  endloop
endfacet
facet normal 0.0 0.0 1.0
  outer loop
    vertex -94.74899497719109 272.77390217946703 2.005719012009996
    vertex -95.23848237146227 273.66611988364184 2.005719012009996
    vertex -95.22633297022185 260.8611975328638 2.0057190120099735
  endloop
endfacet
facet normal 0.0 0.0 1.0
  outer loop
    vertex -94.79221251319679 258.3991781704113 2.005719066310797
    vertex -94.74899497719109 272.77390217946703 2.005719012009996
    vertex -95.22633297022185 260.8611975328638 2.0057190120099735
  endloop
endfacet
facet normal 0.0 0.0 1.0
  outer loop
    vertex -94.33477869629291 256.9566961763909 2.005719071214583
    vertex -94.74899497719109 272.77390217946703 2.005719012009996
    vertex -94.79221251319679 258.3991781704113 2.005719066310797
  endloop
endfacet
facet normal 0.0 0.0 1.0
  outer loop
    vertex -94.35272288797313 271.8365555135529 2.005719012009996
    vertex -94.74899497719109 272.77390217946703 2.005719012009996
    vertex -94.33477869629291 256.9566961763909 2.005719071214583
  endloop
endfacet
facet normal 0.0 0.0 1.0
  outer loop
    vertex -90.66979941323385 261.7178064291275 2.005719012009996
    vertex -94.35272288797313 271.8365555135529 2.005719012009996
    vertex -94.33477869629291 256.9566961763909 2.005719071214583
  endloop
endfacet
facet normal 0.0 0.0 1.0
  outer loop
    vertex -93.41567079649558 253.00901502201754 2.005719012009996
    vertex -90.66979941323385 261.7178064291275 2.005719012009996
    vertex -94.33477869629291 256.9566961763909 2.005719071214583
  endloop
endfacet
facet normal 0.0 0.0 1.0
  outer loop
    vertex -91.97216074573605 254.3317482815359 2.005719012009996
    vertex -90.66979941323385 261.7178064291275 2.005719012009996
    vertex -93.41567079649558 253.00901502201754 2.005719012009996
  endloop
endfacet
facet normal 0.0 0.0 1.0
  outer loop
    vertex -90.92018566635338 255.98301839112978 2.005719012009996
    vertex -90.66979941323385 261.7178064291275 2.005719012009996
    vertex -91.97216074573605 254.3317482815359 2.005719012009996
  endloop
endfacet
facet normal 0.0 0.0 1.0
  outer loop
    vertex -90.33143592153671 257.85029402168294 2.005719012009996
    vertex -90.66979941323385 261.7178064291275 2.005719012009996
    vertex -90.92018566635338 255.98301839112978 2.005719012009996
  endloop
endfacet
facet normal 0.0 0.0 1.0
  outer loop
    vertex -90.2460338334402 259.8063234247924 2.005719012009996
    vertex -90.66979941323385 261.7178064291275 2.005719012009996
    vertex -90.33143592153671 257.85029402168294 2.005719012009996
  endloop
endfacet
facet normal 0.0 0.0 1.0
  outer loop
    vertex -121.74757371373519 273.4163540802961 2.005719012009996
    vertex -121.57720284518054 272.1222588547835 2.005719012009996
    vertex -121.57720284518054 274.7104493058087 2.005719012009996
  endloop
endfacet
facet normal 0.0 0.0 1.0
  outer loop
    vertex -121.07770073265738 275.9163540802961 2.005719012009996
    vertex -121.57720284518054 274.7104493058087 2.005719012009996
    vertex -121.57720284518054 272.1222588547835 2.005719012009996
  endloop
endfacet
facet normal 0.0 0.0 1.0
  outer loop
    vertex -121.07770073265738 270.9163540802962 2.005719012009996
    vertex -121.07770073265738 275.9163540802961 2.005719012009996
    vertex -121.57720284518054 272.1222588547835 2.005719012009996
  endloop
endfacet
facet normal 0.0 0.0 1.0
  outer loop
    vertex -120.28310761966786 276.9518879862288 2.005719012009996
    vertex -121.07770073265738 275.9163540802961 2.005719012009996
    vertex -121.07770073265738 270.9163540802962 2.005719012009996
  endloop
endfacet
facet normal 0.0 0.0 1.0
  outer loop
    vertex -120.28310761966786 269.8808201743634 2.005719012009996
    vertex -120.28310761966786 276.9518879862288 2.005719012009996
    vertex -121.07770073265738 270.9163540802962 2.005719012009996
  endloop
endfacet
facet normal 0.0 0.0 1.0
  outer loop
    vertex -119.24757371373522 277.7464810992183 2.005719012009996
    vertex -120.28310761966786 276.9518879862288 2.005719012009996
    vertex -120.28310761966786 269.8808201743634 2.005719012009996
  endloop
endfacet
facet normal 0.0 0.0 1.0
  outer loop
    vertex -119.24757371373522 269.086227061374 2.005719012009996
    vertex -119.24757371373522 277.7464810992183 2.005719012009996
    vertex -120.28310761966786 269.8808201743634 2.005719012009996
  endloop
endfacet
facet normal 0.0 0.0 1.0
  outer loop
    vertex -118.04166893924793 278.2459832117414 2.005719012009996
    vertex -119.24757371373522 277.7464810992183 2.005719012009996
    vertex -119.24757371373522 269.086227061374 2.005719012009996
  endloop
endfacet
facet normal 0.0 0.0 1.0
  outer loop
    vertex -118.04166893924793 268.5867249488509 2.005719012009996
    vertex -118.04166893924793 278.2459832117414 2.005719012009996
    vertex -119.24757371373522 269.086227061374 2.005719012009996
  endloop
endfacet
facet normal 0.0 0.0 1.0
  outer loop
    vertex -116.74757371373525 278.41635408029606 2.005719012009996
    vertex -118.04166893924793 278.2459832117414 2.005719012009996
    vertex -118.04166893924793 268.5867249488509 2.005719012009996
  endloop
endfacet
facet normal 0.0 0.0 1.0
  outer loop
    vertex -116.74757371373525 268.4163540802962 2.005719012009996
    vertex -116.74757371373525 278.41635408029606 2.005719012009996
    vertex -118.04166893924793 268.5867249488509 2.005719012009996
  endloop
endfacet
facet normal 0.0 0.0 1.0
  outer loop
    vertex -103.74964909583232 278.41635408029606 2.005719012009996
    vertex -116.74757371373525 278.41635408029606 2.005719012009996
    vertex -116.74757371373525 268.4163540802962 2.005719012009996
  endloop
endfacet
facet normal 0.0 0.0 1.0
  outer loop
    vertex -109.07053795821166 268.4163540802962 2.005719012009996
    vertex -103.74964909583232 278.41635408029606 2.005719012009996
    vertex -116.74757371373525 268.4163540802962 2.005719012009996
  endloop
endfacet
facet normal 0.0 0.0 1.0
  outer loop
    vertex -104.76518872502271 256.58750427924264 2.005719012009996
    vertex -103.74964909583232 278.41635408029606 2.005719012009996
    vertex -109.07053795821166 268.4163540802962 2.005719012009996
  endloop
endfacet
facet normal 0.0 0.0 1.0
  outer loop
    vertex -103.8611344012958 254.85083208155226 2.005719012009996
    vertex -103.74964909583232 278.41635408029606 2.005719012009996
    vertex -104.76518872502271 256.58750427924264 2.005719012009996
  endloop
endfacet
facet normal 0.0 0.0 1.0
  outer loop
    vertex -102.53840114177743 253.4073220307928 2.005719012009996
    vertex -103.74964909583232 278.41635408029606 2.005719012009996
    vertex -103.8611344012958 254.85083208155226 2.005719012009996
  endloop
endfacet
facet normal 0.0 0.0 1.0
  outer loop
    vertex -102.73329831400433 278.3645715632566 2.005719012009996
    vertex -103.74964909583232 278.41635408029606 2.005719012009996
    vertex -102.53840114177743 253.4073220307928 2.005719012009996
  endloop
endfacet
facet normal 0.0 0.0 1.0
  outer loop
    vertex -101.72747337251201 278.2097602979518 2.005719012009996
    vertex -102.73329831400433 278.3645715632566 2.005719012009996
    vertex -102.53840114177743 253.4073220307928 2.005719012009996
  endloop
endfacet
facet normal 0.0 0.0 1.0
  outer loop
    vertex -100.88713103218366 252.35534695141024 2.005719012009996
    vertex -101.72747337251201 278.2097602979518 2.005719012009996
    vertex -102.53840114177743 253.4073220307928 2.005719012009996
  endloop
endfacet
facet normal 0.0 0.0 1.0
  outer loop
    vertex -101.10020944196327 261.34861453197993 2.0057190712145605
    vertex -101.72747337251201 278.2097602979518 2.005719012009996
    vertex -100.88713103218366 252.35534695141024 2.005719012009996
  endloop
endfacet
facet normal 0.0 0.0 1.0
  outer loop
    vertex -100.6427756250596 259.9061325379597 2.0057190663107742
    vertex -101.10020944196327 261.34861453197993 2.0057190712145605
    vertex -100.88713103218366 252.35534695141024 2.005719012009996
  endloop
endfacet
facet normal 0.0 0.0 1.0
  outer loop
    vertex -100.1451444330591 255.9321718964194 2.0057190631918687
    vertex -100.6427756250596 259.9061325379597 2.0057190663107742
    vertex -100.88713103218366 252.35534695141024 2.005719012009996
  endloop
endfacet
facet normal 0.0 0.0 1.0
  outer loop
    vertex -99.01985540163031 251.76659720659347 2.005719012009996
    vertex -100.1451444330591 255.9321718964194 2.0057190631918687
    vertex -100.88713103218366 252.35534695141024 2.005719012009996
  endloop
endfacet
facet normal 0.0 0.0 1.0
  outer loop
    vertex -100.20865516803471 257.4441131755064 2.005719012009996
    vertex -100.6427756250596 259.9061325379597 2.0057190663107742
    vertex -100.1451444330591 255.9321718964194 2.0057190631918687
  endloop
endfacet
facet normal 0.0 0.0 1.0
  outer loop
    vertex -99.913453246923 255.7699399813504 2.005719071214606
    vertex -100.1451444330591 255.9321718964194 2.0057190631918687
    vertex -99.01985540163031 251.76659720659347 2.005719012009996
  endloop
endfacet
facet normal 0.0 0.0 1.0
  outer loop
    vertex -98.47097125290296 256.2273737982541 2.0057190663108195
    vertex -99.913453246923 255.7699399813504 2.005719071214606
    vertex -99.01985540163031 251.76659720659347 2.005719012009996
  endloop
endfacet
facet normal 0.0 0.0 1.0
  outer loop
    vertex -97.0638259985209 251.681195118497 2.005719012009996
    vertex -98.47097125290296 256.2273737982541 2.0057190663108195
    vertex -99.01985540163031 251.76659720659347 2.005719012009996
  endloop
endfacet
facet normal 0.0 0.0 1.0
  outer loop
    vertex -96.00895189044927 256.6614942552792 2.0057190120099735
    vertex -98.47097125290296 256.2273737982541 2.0057190663108195
    vertex -97.0638259985209 251.681195118497 2.005719012009996
  endloop
endfacet
facet normal 0.0 0.0 1.0
  outer loop
    vertex -95.15234299418586 252.1049606982907 2.005719012009996
    vertex -96.00895189044927 256.6614942552792 2.0057190120099735
    vertex -97.0638259985209 251.681195118497 2.005719012009996
  endloop
endfacet
facet normal 0.0 0.0 1.0
  outer loop
    vertex -94.49701061136227 256.72500499025506 2.005719063191846
    vertex -96.00895189044927 256.6614942552792 2.0057190120099735
    vertex -95.15234299418586 252.1049606982907 2.005719012009996
  endloop
endfacet
facet normal 0.0 0.0 1.0
  outer loop
    vertex -93.41567079649558 253.00901502201754 2.005719012009996
    vertex -94.49701061136227 256.72500499025506 2.005719063191846
    vertex -95.15234299418586 252.1049606982907 2.005719012009996
  endloop
endfacet
facet normal 0.0 0.0 1.0
  outer loop
    vertex -94.33477869629291 256.9566961763909 2.005719071214583
    vertex -94.49701061136227 256.72500499025506 2.005719063191846
    vertex -93.41567079649558 253.00901502201754 2.005719012009996
  endloop
endfacet
facet normal 0.6755902076156436 -0.7372773368101393 0.0
  outer loop
    vertex -93.41567079649558 253.00901502201754 0.005719012009999602
    vertex -91.97216074573605 254.3317482815359 0.005719012009999602
    vertex -93.41567079649558 253.00901502201754 2.005719012009996
  endloop
endfacet
facet normal 0.6755902076156436 -0.7372773368101393 0.0
  outer loop
    vertex -91.97216074573605 254.3317482815359 2.005719012009996
    vertex -93.41567079649558 253.00901502201754 2.005719012009996
    vertex -91.97216074573605 254.3317482815359 0.005719012009999602
  endloop
endfacet
facet normal -0.6087614290087409 0.7933533402912197 0.0
  outer loop
    vertex -119.24757371373522 277.7464810992183 0.005719012009999602
    vertex -120.28310761966786 276.9518879862288 0.005719012009999602
    vertex -119.24757371373522 277.7464810992183 2.005719012009996
  endloop
endfacet
facet normal -0.6087614290087409 0.7933533402912197 0.0
  outer loop
    vertex -120.28310761966786 276.9518879862288 2.005719012009996
    vertex -119.24757371373522 277.7464810992183 2.005719012009996
    vertex -120.28310761966786 276.9518879862288 0.005719012009999602
  endloop
endfacet
facet normal -0.7372773368101182 -0.6755902076156666 0.0
  outer loop
    vertex -103.8611344012958 254.85083208155226 2.005719012009996
    vertex -103.8611344012958 254.85083208155226 0.005719012009999602
    vertex -102.53840114177743 253.4073220307928 2.005719012009996
  endloop
endfacet
facet normal -0.7372773368101182 -0.6755902076156666 0.0
  outer loop
    vertex -102.53840114177743 253.4073220307928 0.005719012009999602
    vertex -102.53840114177743 253.4073220307928 2.005719012009996
    vertex -103.8611344012958 254.85083208155226 0.005719012009999602
  endloop
endfacet
facet normal 0.939692620785907 0.34202014332567293 0.0
  outer loop
    vertex -94.35272288797313 271.8365555135529 0.005719012009999602
    vertex -94.35272288797313 271.8365555135529 2.005719012009996
    vertex -90.66979941323385 261.7178064291275 0.005719012009999602
  endloop
endfacet
facet normal 0.939692620785907 0.34202014332567293 0.0
  outer loop
    vertex -90.66979941323385 261.7178064291275 2.005719012009996
    vertex -90.66979941323385 261.7178064291275 0.005719012009999602
    vertex -94.35272288797313 271.8365555135529 2.005719012009996
  endloop
endfacet
facet normal 0.9990482215818582 -0.043619387365323864 0.0
  outer loop
    vertex -90.2460338334402 259.8063234247924 0.005719012009999602
    vertex -90.2460338334402 259.8063234247924 2.005719012009996
    vertex -90.33143592153671 257.85029402168294 0.005719012009999602
  endloop
endfacet
facet normal 0.9990482215818582 -0.043619387365323864 0.0
  outer loop
    vertex -90.33143592153671 257.85029402168294 2.005719012009996
    vertex -90.33143592153671 257.85029402168294 0.005719012009999602
    vertex -90.2460338334402 259.8063234247924 2.005719012009996
  endloop
endfacet
facet normal 0.9537169507482253 -0.3007057995042783 0.0
  outer loop
    vertex -90.33143592153671 257.85029402168294 0.005719012009999602
    vertex -90.33143592153671 257.85029402168294 2.005719012009996
    vertex -90.92018566635338 255.98301839112978 0.005719012009999602
  endloop
endfacet
facet normal 0.9537169507482253 -0.3007057995042783 0.0
  outer loop
    vertex -90.92018566635338 255.98301839112978 2.005719012009996
    vertex -90.92018566635338 255.98301839112978 0.005719012009999602
    vertex -90.33143592153671 257.85029402168294 2.005719012009996
  endloop
endfacet
facet normal 0.8433914458128632 -0.5372996083468592 0.0
  outer loop
    vertex -90.92018566635338 255.98301839112978 0.005719012009999602
    vertex -90.92018566635338 255.98301839112978 2.005719012009996
    vertex -91.97216074573605 254.3317482815359 0.005719012009999602
  endloop
endfacet
facet normal 0.8433914458128632 -0.5372996083468592 0.0
  outer loop
    vertex -91.97216074573605 254.3317482815359 2.005719012009996
    vertex -91.97216074573605 254.3317482815359 0.005719012009999602
    vertex -90.92018566635338 255.98301839112978 2.005719012009996
  endloop
endfacet
facet normal -0.04361938736532588 -0.9990482215818582 0.0
  outer loop
    vertex -99.01985540163031 251.76659720659347 0.005719012009999602
    vertex -97.0638259985209 251.681195118497 0.005719012009999602
    vertex -99.01985540163031 251.76659720659347 2.005719012009996
  endloop
endfacet
facet normal -0.04361938736532588 -0.9990482215818582 0.0
  outer loop
    vertex -97.0638259985209 251.681195118497 2.005719012009996
    vertex -99.01985540163031 251.76659720659347 2.005719012009996
    vertex -97.0638259985209 251.681195118497 0.005719012009999602
  endloop
endfacet
facet normal 0.4617486132350272 -0.8870108331782254 0.0
  outer loop
    vertex -95.15234299418586 252.1049606982907 0.005719012009999602
    vertex -93.41567079649558 253.00901502201754 0.005719012009999602
    vertex -95.15234299418586 252.1049606982907 2.005719012009996
  endloop
endfacet
facet normal 0.4617486132350272 -0.8870108331782254 0.0
  outer loop
    vertex -93.41567079649558 253.00901502201754 2.005719012009996
    vertex -95.15234299418586 252.1049606982907 2.005719012009996
    vertex -93.41567079649558 253.00901502201754 0.005719012009999602
  endloop
endfacet
facet normal -0.5372996083468472 -0.8433914458128707 0.0
  outer loop
    vertex -102.53840114177743 253.4073220307928 0.005719012009999602
    vertex -100.88713103218366 252.35534695141024 0.005719012009999602
    vertex -102.53840114177743 253.4073220307928 2.005719012009996
  endloop
endfacet
facet normal -0.5372996083468472 -0.8433914458128707 0.0
  outer loop
    vertex -100.88713103218366 252.35534695141024 2.005719012009996
    vertex -102.53840114177743 253.4073220307928 2.005719012009996
    vertex -100.88713103218366 252.35534695141024 0.005719012009999602
  endloop
endfacet
facet normal 0.21643961393808528 -0.9762960071199372 0.0
  outer loop
    vertex -97.0638259985209 251.681195118497 0.005719012009999602
    vertex -95.15234299418586 252.1049606982907 0.005719012009999602
    vertex -97.0638259985209 251.681195118497 2.005719012009996
  endloop
endfacet
facet normal 0.21643961393808528 -0.9762960071199372 0.0
  outer loop
    vertex -95.15234299418586 252.1049606982907 2.005719012009996
    vertex -97.0638259985209 251.681195118497 2.005719012009996
    vertex -95.15234299418586 252.1049606982907 0.005719012009999602
  endloop
endfacet
facet normal 0.0 -1.0 0.0
  outer loop
    vertex -116.74757371373525 268.4163540802962 0.005719012009999602
    vertex -109.07053795821166 268.4163540802962 0.005719012009999602
    vertex -116.74757371373525 268.4163540802962 2.005719012009996
  endloop
endfacet
facet normal 0.0 -1.0 0.0
  outer loop
    vertex -109.07053795821166 268.4163540802962 2.005719012009996
    vertex -116.74757371373525 268.4163540802962 2.005719012009996
    vertex -109.07053795821166 268.4163540802962 0.005719012009999602
  endloop
endfacet
facet normal 0.15212338618994733 0.9883615104677561 0.0
  outer loop
    vertex -101.72747337251201 278.2097602979518 0.005719012009999602
    vertex -102.73329831400433 278.3645715632566 0.005719012009999602
    vertex -101.72747337251201 278.2097602979518 2.005719012009996
  endloop
endfacet
facet normal 0.15212338618994733 0.9883615104677561 0.0
  outer loop
    vertex -102.73329831400433 278.3645715632566 2.005719012009996
    vertex -101.72747337251201 278.2097602979518 2.005719012009996
    vertex -102.73329831400433 278.3645715632566 0.005719012009999602
  endloop
endfacet
facet normal -0.9914448613738096 0.13052619222005837 0.0
  outer loop
    vertex -121.57720284518054 274.7104493058087 2.005719012009996
    vertex -121.57720284518054 274.7104493058087 0.005719012009999602
    vertex -121.74757371373519 273.4163540802961 2.005719012009996
  endloop
endfacet
facet normal -0.9914448613738096 0.13052619222005837 0.0
  outer loop
    vertex -121.74757371373519 273.4163540802961 0.005719012009999602
    vertex -121.74757371373519 273.4163540802961 2.005719012009996
    vertex -121.57720284518054 274.7104493058087 0.005719012009999602
  endloop
endfacet
facet normal 0.6915130557822594 0.722363962059765 0.0
  outer loop
    vertex -96.47591268010183 275.2787704589836 0.005719012009999602
    vertex -97.2110401432616 275.98250190897113 0.005719012009999602
    vertex -96.47591268010183 275.2787704589836 2.005719012009996
  endloop
endfacet
facet normal 0.6915130557822594 0.722363962059765 0.0
  outer loop
    vertex -97.2110401432616 275.98250190897113 2.005719012009996
    vertex -96.47591268010183 275.2787704589836 2.005719012009996
    vertex -97.2110401432616 275.98250190897113 0.005719012009999602
  endloop
endfacet
facet normal -0.9238795325112836 -0.3826834323650976 0.0
  outer loop
    vertex -121.57720284518054 272.1222588547835 2.005719012009996
    vertex -121.57720284518054 272.1222588547835 0.005719012009999602
    vertex -121.07770073265738 270.9163540802962 2.005719012009996
  endloop
endfacet
facet normal -0.9238795325112836 -0.3826834323650976 0.0
  outer loop
    vertex -121.07770073265738 270.9163540802962 0.005719012009999602
    vertex -121.07770073265738 270.9163540802962 2.005719012009996
    vertex -121.57720284518054 272.1222588547835 0.005719012009999602
  endloop
endfacet
facet normal -0.38268343236512203 -0.9238795325112733 0.0
  outer loop
    vertex -119.24757371373522 269.086227061374 0.005719012009999602
    vertex -118.04166893924793 268.5867249488509 0.005719012009999602
    vertex -119.24757371373522 269.086227061374 2.005719012009996
  endloop
endfacet
facet normal -0.38268343236512203 -0.9238795325112733 0.0
  outer loop
    vertex -118.04166893924793 268.5867249488509 2.005719012009996
    vertex -119.24757371373522 269.086227061374 2.005719012009996
    vertex -118.04166893924793 268.5867249488509 0.005719012009999602
  endloop
endfacet
facet normal 0.7613497448831681 0.6483413961535506 0.0
  outer loop
    vertex -96.47591268010183 275.2787704589836 0.005719012009999602
    vertex -96.47591268010183 275.2787704589836 2.005719012009996
    vertex -95.81611569291984 274.50396837038346 0.005719012009999602
  endloop
endfacet
facet normal 0.7613497448831681 0.6483413961535506 0.0
  outer loop
    vertex -95.81611569291984 274.50396837038346 2.005719012009996
    vertex -95.81611569291984 274.50396837038346 0.005719012009999602
    vertex -96.47591268010183 275.2787704589836 2.005719012009996
  endloop
endfacet
facet normal 0.0 1.0 0.0
  outer loop
    vertex -103.74964909583232 278.41635408029606 0.005719012009999602
    vertex -116.74757371373525 278.41635408029606 0.005719012009999602
    vertex -103.74964909583232 278.41635408029606 2.005719012009996
  endloop
endfacet
facet normal 0.0 1.0 0.0
  outer loop
    vertex -116.74757371373525 278.41635408029606 2.005719012009996
    vertex -103.74964909583232 278.41635408029606 2.005719012009996
    vertex -116.74757371373525 278.41635408029606 0.005719012009999602
  endloop
endfacet
facet normal -0.9238795325112836 0.3826834323650976 0.0
  outer loop
    vertex -121.07770073265738 275.9163540802961 2.005719012009996
    vertex -121.07770073265738 275.9163540802961 0.005719012009999602
    vertex -121.57720284518054 274.7104493058087 2.005719012009996
  endloop
endfacet
facet normal -0.9238795325112836 0.3826834323650976 0.0
  outer loop
    vertex -121.57720284518054 274.7104493058087 0.005719012009999602
    vertex -121.57720284518054 274.7104493058087 2.005719012009996
    vertex -121.07770073265738 275.9163540802961 0.005719012009999602
  endloop
endfacet
facet normal -0.9914448613738096 -0.13052619222005837 0.0
  outer loop
    vertex -121.74757371373519 273.4163540802961 2.005719012009996
    vertex -121.74757371373519 273.4163540802961 0.005719012009999602
    vertex -121.57720284518054 272.1222588547835 2.005719012009996
  endloop
endfacet
facet normal -0.9914448613738096 -0.13052619222005837 0.0
  outer loop
    vertex -121.57720284518054 272.1222588547835 0.005719012009999602
    vertex -121.57720284518054 272.1222588547835 2.005719012009996
    vertex -121.74757371373519 273.4163540802961 0.005719012009999602
  endloop
endfacet
facet normal 0.05088345361670718 0.9987045980409004 0.0
  outer loop
    vertex -102.73329831400433 278.3645715632566 0.005719012009999602
    vertex -103.74964909583232 278.41635408029606 0.005719012009999602
    vertex -102.73329831400433 278.3645715632566 2.005719012009996
  endloop
endfacet
facet normal 0.05088345361670718 0.9987045980409004 0.0
  outer loop
    vertex -103.74964909583232 278.41635408029606 2.005719012009996
    vertex -102.73329831400433 278.3645715632566 2.005719012009996
    vertex -103.74964909583232 278.41635408029606 0.005719012009999602
  endloop
endfacet
facet normal -0.1305261922200494 -0.9914448613738107 0.0
  outer loop
    vertex -118.04166893924793 268.5867249488509 0.005719012009999602
    vertex -116.74757371373525 268.4163540802962 0.005719012009999602
    vertex -118.04166893924793 268.5867249488509 2.005719012009996
  endloop
endfacet
facet normal -0.1305261922200494 -0.9914448613738107 0.0
  outer loop
    vertex -116.74757371373525 268.4163540802962 2.005719012009996
    vertex -118.04166893924793 268.5867249488509 2.005719012009996
    vertex -116.74757371373525 268.4163540802962 0.005719012009999602
  endloop
endfacet
facet normal 0.25178785239533713 0.9677824535432248 0.0
  outer loop
    vertex -100.74259110078957 277.9535235877786 0.005719012009999602
    vertex -101.72747337251201 278.2097602979518 0.005719012009999602
    vertex -100.74259110078957 277.9535235877786 2.005719012009996
  endloop
endfacet
facet normal 0.25178785239533713 0.9677824535432248 0.0
  outer loop
    vertex -101.72747337251201 278.2097602979518 2.005719012009996
    vertex -100.74259110078957 277.9535235877786 2.005719012009996
    vertex -101.72747337251201 278.2097602979518 0.005719012009999602
  endloop
endfacet
facet normal -0.793353340291212 -0.608761429008751 0.0
  outer loop
    vertex -121.07770073265738 270.9163540802962 2.005719012009996
    vertex -121.07770073265738 270.9163540802962 0.005719012009999602
    vertex -120.28310761966786 269.8808201743634 2.005719012009996
  endloop
endfacet
facet normal -0.793353340291212 -0.608761429008751 0.0
  outer loop
    vertex -120.28310761966786 269.8808201743634 0.005719012009999602
    vertex -120.28310761966786 269.8808201743634 2.005719012009996
    vertex -121.07770073265738 270.9163540802962 0.005719012009999602
  endloop
endfacet
facet normal 0.5311521392609612 0.8472764631208072 0.0
  outer loop
    vertex -98.01388473232181 276.6078745231862 0.005719012009999602
    vertex -98.87613178455977 277.1484116280182 0.005719012009999602
    vertex -98.01388473232181 276.6078745231862 2.005719012009996
  endloop
endfacet
facet normal 0.5311521392609612 0.8472764631208072 0.0
  outer loop
    vertex -98.87613178455977 277.1484116280182 2.005719012009996
    vertex -98.01388473232181 276.6078745231862 2.005719012009996
    vertex -98.87613178455977 277.1484116280182 0.005719012009999602
  endloop
endfacet
facet normal 0.34884467684955833 0.9371805543403722 0.0
  outer loop
    vertex -99.78885143544075 277.59851514909906 0.005719012009999602
    vertex -100.74259110078957 277.9535235877786 0.005719012009999602
    vertex -99.78885143544075 277.59851514909906 2.005719012009996
  endloop
endfacet
facet normal 0.34884467684955833 0.9371805543403722 0.0
  outer loop
    vertex -100.74259110078957 277.9535235877786 2.005719012009996
    vertex -99.78885143544075 277.59851514909906 2.005719012009996
    vertex -100.74259110078957 277.9535235877786 0.005719012009999602
  endloop
endfacet
facet normal 0.82330151275673 0.5676042803683566 0.0
  outer loop
    vertex -95.81611569291984 274.50396837038346 0.005719012009999602
    vertex -95.81611569291984 274.50396837038346 2.005719012009996
    vertex -95.23848237146227 273.66611988364184 0.005719012009999602
  endloop
endfacet
facet normal 0.82330151275673 0.5676042803683566 0.0
  outer loop
    vertex -95.23848237146227 273.66611988364184 2.005719012009996
    vertex -95.23848237146227 273.66611988364184 0.005719012009999602
    vertex -95.81611569291984 274.50396837038346 2.005719012009996
  endloop
endfacet
facet normal -0.38268343236512203 0.9238795325112733 0.0
  outer loop
    vertex -118.04166893924793 278.2459832117414 0.005719012009999602
    vertex -119.24757371373522 277.7464810992183 0.005719012009999602
    vertex -118.04166893924793 278.2459832117414 2.005719012009996
  endloop
endfacet
facet normal -0.38268343236512203 0.9238795325112733 0.0
  outer loop
    vertex -119.24757371373522 277.7464810992183 2.005719012009996
    vertex -118.04166893924793 278.2459832117414 2.005719012009996
    vertex -119.24757371373522 277.7464810992183 0.005719012009999602
  endloop
endfacet
facet normal 0.4422886902189904 0.8968727415326938 0.0
  outer loop
    vertex -98.87613178455977 277.1484116280182 0.005719012009999602
    vertex -99.78885143544075 277.59851514909906 0.005719012009999602
    vertex -98.87613178455977 277.1484116280182 2.005719012009996
  endloop
endfacet
facet normal 0.4422886902189904 0.8968727415326938 0.0
  outer loop
    vertex -99.78885143544075 277.59851514909906 2.005719012009996
    vertex -98.87613178455977 277.1484116280182 2.005719012009996
    vertex -99.78885143544075 277.59851514909906 0.005719012009999602
  endloop
endfacet
facet normal -0.793353340291212 0.608761429008751 0.0
  outer loop
    vertex -120.28310761966786 276.9518879862288 2.005719012009996
    vertex -120.28310761966786 276.9518879862288 0.005719012009999602
    vertex -121.07770073265738 275.9163540802961 2.005719012009996
  endloop
endfacet
facet normal -0.793353340291212 0.608761429008751 0.0
  outer loop
    vertex -121.07770073265738 275.9163540802961 0.005719012009999602
    vertex -121.07770073265738 275.9163540802961 2.005719012009996
    vertex -120.28310761966786 276.9518879862288 0.005719012009999602
  endloop
endfacet
facet normal 0.8767267557075231 0.48098876891935977 0.0
  outer loop
    vertex -95.23848237146227 273.66611988364184 0.005719012009999602
    vertex -95.23848237146227 273.66611988364184 2.005719012009996
    vertex -94.74899497719109 272.77390217946703 0.005719012009999602
  endloop
endfacet
facet normal 0.8767267557075231 0.48098876891935977 0.0
  outer loop
    vertex -94.74899497719109 272.77390217946703 2.005719012009996
    vertex -94.74899497719109 272.77390217946703 0.005719012009999602
    vertex -95.23848237146227 273.66611988364184 2.005719012009996
  endloop
endfacet
facet normal 0.6145147093624946 0.7889053631311734 0.0
  outer loop
    vertex -97.2110401432616 275.98250190897113 0.005719012009999602
    vertex -98.01388473232181 276.6078745231862 0.005719012009999602
    vertex -97.2110401432616 275.98250190897113 2.005719012009996
  endloop
endfacet
facet normal 0.6145147093624946 0.7889053631311734 0.0
  outer loop
    vertex -98.01388473232181 276.6078745231862 2.005719012009996
    vertex -97.2110401432616 275.98250190897113 2.005719012009996
    vertex -98.01388473232181 276.6078745231862 0.005719012009999602
  endloop
endfacet
facet normal -0.1305261922200494 0.9914448613738107 0.0
  outer loop
    vertex -116.74757371373525 278.41635408029606 0.005719012009999602
    vertex -118.04166893924793 278.2459832117414 0.005719012009999602
    vertex -116.74757371373525 278.41635408029606 2.005719012009996
  endloop
endfacet
facet normal -0.1305261922200494 0.9914448613738107 0.0
  outer loop
    vertex -118.04166893924793 278.2459832117414 2.005719012009996
    vertex -116.74757371373525 278.41635408029606 2.005719012009996
    vertex -118.04166893924793 278.2459832117414 0.005719012009999602
  endloop
endfacet
facet normal -0.0 0.0 -1.0
  outer loop
    vertex -121.74757371373519 273.4163540802961 0.005719012009999602
    vertex -121.57720284518054 274.7104493058087 0.005719012009999602
    vertex -121.57720284518054 272.1222588547835 0.005719012009999602
  endloop
endfacet
facet normal -0.0 0.0 -1.0
  outer loop
    vertex -121.07770073265738 270.9163540802962 0.005719012009999602
    vertex -121.57720284518054 272.1222588547835 0.005719012009999602
    vertex -121.57720284518054 274.7104493058087 0.005719012009999602
  endloop
endfacet
facet normal -0.0 0.0 -1.0
  outer loop
    vertex -121.07770073265738 275.9163540802961 0.005719012009999602
    vertex -121.07770073265738 270.9163540802962 0.005719012009999602
    vertex -121.57720284518054 274.7104493058087 0.005719012009999602
  endloop
endfacet
facet normal -0.0 0.0 -1.0
  outer loop
    vertex -120.28310761966786 269.8808201743634 0.005719012009999602
    vertex -121.07770073265738 270.9163540802962 0.005719012009999602
    vertex -121.07770073265738 275.9163540802961 0.005719012009999602
  endloop
endfacet
facet normal -0.0 0.0 -1.0
  outer loop
    vertex -120.28310761966786 276.9518879862288 0.005719012009999602
    vertex -120.28310761966786 269.8808201743634 0.005719012009999602
    vertex -121.07770073265738 275.9163540802961 0.005719012009999602
  endloop
endfacet
facet normal -0.0 0.0 -1.0
  outer loop
    vertex -119.24757371373522 269.086227061374 0.005719012009999602
    vertex -120.28310761966786 269.8808201743634 0.005719012009999602
    vertex -120.28310761966786 276.9518879862288 0.005719012009999602
  endloop
endfacet
facet normal -0.0 0.0 -1.0
  outer loop
    vertex -119.24757371373522 277.7464810992183 0.005719012009999602
    vertex -119.24757371373522 269.086227061374 0.005719012009999602
    vertex -120.28310761966786 276.9518879862288 0.005719012009999602
  endloop
endfacet
facet normal -0.0 0.0 -1.0
  outer loop
    vertex -118.04166893924793 268.5867249488509 0.005719012009999602
    vertex -119.24757371373522 269.086227061374 0.005719012009999602
    vertex -119.24757371373522 277.7464810992183 0.005719012009999602
  endloop
endfacet
facet normal -0.0 0.0 -1.0
  outer loop
    vertex -118.04166893924793 278.2459832117414 0.005719012009999602
    vertex -118.04166893924793 268.5867249488509 0.005719012009999602
    vertex -119.24757371373522 277.7464810992183 0.005719012009999602
  endloop
endfacet
facet normal -0.0 0.0 -1.0
  outer loop
    vertex -116.74757371373525 268.4163540802962 0.005719012009999602
    vertex -118.04166893924793 268.5867249488509 0.005719012009999602
    vertex -118.04166893924793 278.2459832117414 0.005719012009999602
  endloop
endfacet
facet normal -0.0 0.0 -1.0
  outer loop
    vertex -116.74757371373525 278.41635408029606 0.005719012009999602
    vertex -116.74757371373525 268.4163540802962 0.005719012009999602
    vertex -118.04166893924793 278.2459832117414 0.005719012009999602
  endloop
endfacet
facet normal -0.0 0.0 -1.0
  outer loop
    vertex -109.07053795821166 268.4163540802962 0.005719012009999602
    vertex -116.74757371373525 268.4163540802962 0.005719012009999602
    vertex -116.74757371373525 278.41635408029606 0.005719012009999602
  endloop
endfacet
facet normal -0.0 0.0 -1.0
  outer loop
    vertex -103.74964909583232 278.41635408029606 0.005719012009999602
    vertex -109.07053795821166 268.4163540802962 0.005719012009999602
    vertex -116.74757371373525 278.41635408029606 0.005719012009999602
  endloop
endfacet
facet normal -0.0 0.0 -1.0
  outer loop
    vertex -104.76518872502271 256.58750427924264 0.005719012009999602
    vertex -109.07053795821166 268.4163540802962 0.005719012009999602
    vertex -103.74964909583232 278.41635408029606 0.005719012009999602
  endloop
endfacet
facet normal -0.0 0.0 -1.0
  outer loop
    vertex -103.8611344012958 254.85083208155226 0.005719012009999602
    vertex -104.76518872502271 256.58750427924264 0.005719012009999602
    vertex -103.74964909583232 278.41635408029606 0.005719012009999602
  endloop
endfacet
facet normal -0.0 0.0 -1.0
  outer loop
    vertex -102.53840114177743 253.4073220307928 0.005719012009999602
    vertex -103.8611344012958 254.85083208155226 0.005719012009999602
    vertex -103.74964909583232 278.41635408029606 0.005719012009999602
  endloop
endfacet
facet normal -0.0 0.0 -1.0
  outer loop
    vertex -102.73329831400433 278.3645715632566 0.005719012009999602
    vertex -102.53840114177743 253.4073220307928 0.005719012009999602
    vertex -103.74964909583232 278.41635408029606 0.005719012009999602
  endloop
endfacet
facet normal -0.0 0.0 -1.0
  outer loop
    vertex -101.72747337251201 278.2097602979518 0.005719012009999602
    vertex -102.53840114177743 253.4073220307928 0.005719012009999602
    vertex -102.73329831400433 278.3645715632566 0.005719012009999602
  endloop
endfacet
facet normal -0.0 0.0 -1.0
  outer loop
    vertex -101.19286189223368 261.58613406052046 0.005719063487337195
    vertex -102.53840114177743 253.4073220307928 0.005719012009999602
    vertex -101.72747337251201 278.2097602979518 0.005719012009999602
  endloop
endfacet
facet normal -0.0 0.0 -1.0
  outer loop
    vertex -100.88713103218366 252.35534695141024 0.005719012009999602
    vertex -102.53840114177743 253.4073220307928 0.005719012009999602
    vertex -101.19286189223368 261.58613406052046 0.005719063487337195
  endloop
endfacet
facet normal -0.0 0.0 -1.0
  outer loop
    vertex -100.1509728222997 255.6772875145293 0.00571907121460935
    vertex -100.88713103218366 252.35534695141024 0.005719012009999602
    vertex -101.19286189223368 261.58613406052046 0.005719063487337195
  endloop
endfacet
facet normal -0.0 0.0 -1.0
  outer loop
    vertex -99.01985540163031 251.76659720659347 0.005719012009999602
    vertex -100.88713103218366 252.35534695141024 0.005719012009999602
    vertex -100.1509728222997 255.6772875145293 0.00571907121460935
  endloop
endfacet
facet normal -0.0 0.0 -1.0
  outer loop
    vertex -94.24212628052356 256.71917661257874 0.005719069282796951
    vertex -99.01985540163031 251.76659720659347 0.005719012009999602
    vertex -100.1509728222997 255.6772875145293 0.00571907121460935
  endloop
endfacet
facet normal -0.0 0.0 -1.0
  outer loop
    vertex -97.0638259985209 251.681195118497 0.005719012009999602
    vertex -99.01985540163031 251.76659720659347 0.005719012009999602
    vertex -94.24212628052356 256.71917661257874 0.005719069282796951
  endloop
endfacet
facet normal -0.0 0.0 -1.0
  outer loop
    vertex -95.15234299418586 252.1049606982907 0.005719012009999602
    vertex -97.0638259985209 251.681195118497 0.005719012009999602
    vertex -94.24212628052356 256.71917661257874 0.005719069282796951
  endloop
endfacet
facet normal -0.0 0.0 -1.0
  outer loop
    vertex -93.41567079649558 253.00901502201754 0.005719012009999602
    vertex -95.15234299418586 252.1049606982907 0.005719012009999602
    vertex -94.24212628052356 256.71917661257874 0.005719069282796951
  endloop
endfacet
facet normal -0.0 0.0 -1.0
  outer loop
    vertex -101.72747337251201 278.2097602979518 0.005719012009999602
    vertex -100.74259110078957 277.9535235877786 0.005719012009999602
    vertex -101.19286189223368 261.58613406052046 0.005719063487337195
  endloop
endfacet
facet normal -0.0 0.0 -1.0
  outer loop
    vertex -95.28401537416042 262.62802312652184 0.005719063487337195
    vertex -101.19286189223368 261.58613406052046 0.005719063487337195
    vertex -100.74259110078957 277.9535235877786 0.005719012009999602
  endloop
endfacet
facet normal -0.0 0.0 -1.0
  outer loop
    vertex -99.78885143544075 277.59851514909906 0.005719012009999602
    vertex -95.28401537416042 262.62802312652184 0.005719063487337195
    vertex -100.74259110078957 277.9535235877786 0.005719012009999602
  endloop
endfacet
facet normal -0.0 0.0 -1.0
  outer loop
    vertex -98.87613178455977 277.1484116280182 0.005719012009999602
    vertex -95.28401537416042 262.62802312652184 0.005719063487337195
    vertex -99.78885143544075 277.59851514909906 0.005719012009999602
  endloop
endfacet
facet normal -0.0 0.0 -1.0
  outer loop
    vertex -98.01388473232181 276.6078745231862 0.005719012009999602
    vertex -95.28401537416042 262.62802312652184 0.005719063487337195
    vertex -98.87613178455977 277.1484116280182 0.005719012009999602
  endloop
endfacet
facet normal -0.0 0.0 -1.0
  outer loop
    vertex -97.2110401432616 275.98250190897113 0.005719012009999602
    vertex -95.28401537416042 262.62802312652184 0.005719063487337195
    vertex -98.01388473232181 276.6078745231862 0.005719012009999602
  endloop
endfacet
facet normal -0.0 0.0 -1.0
  outer loop
    vertex -96.47591268010183 275.2787704589836 0.005719012009999602
    vertex -95.28401537416042 262.62802312652184 0.005719063487337195
    vertex -97.2110401432616 275.98250190897113 0.005719012009999602
  endloop
endfacet
facet normal -0.0 0.0 -1.0
  outer loop
    vertex -95.81611569291984 274.50396837038346 0.005719012009999602
    vertex -95.28401537416042 262.62802312652184 0.005719063487337195
    vertex -96.47591268010183 275.2787704589836 0.005719012009999602
  endloop
endfacet
facet normal -0.0 0.0 -1.0
  outer loop
    vertex -95.23848237146227 273.66611988364184 0.005719012009999602
    vertex -95.28401537416042 262.62802312652184 0.005719063487337195
    vertex -95.81611569291984 274.50396837038346 0.005719012009999602
  endloop
endfacet
facet normal -0.0 0.0 -1.0
  outer loop
    vertex -94.24212628052356 256.71917661257874 0.005719069282796951
    vertex -95.28401537416042 262.62802312652184 0.005719063487337195
    vertex -95.23848237146227 273.66611988364184 0.005719012009999602
  endloop
endfacet
facet normal -0.0 0.0 -1.0
  outer loop
    vertex -94.74899497719109 272.77390217946703 0.005719012009999602
    vertex -94.24212628052356 256.71917661257874 0.005719069282796951
    vertex -95.23848237146227 273.66611988364184 0.005719012009999602
  endloop
endfacet
facet normal -0.0 0.0 -1.0
  outer loop
    vertex -94.35272288797313 271.8365555135529 0.005719012009999602
    vertex -94.24212628052356 256.71917661257874 0.005719069282796951
    vertex -94.74899497719109 272.77390217946703 0.005719012009999602
  endloop
endfacet
facet normal -0.0 0.0 -1.0
  outer loop
    vertex -90.66979941323385 261.7178064291275 0.005719012009999602
    vertex -94.24212628052356 256.71917661257874 0.005719069282796951
    vertex -94.35272288797313 271.8365555135529 0.005719012009999602
  endloop
endfacet
facet normal -0.0 0.0 -1.0
  outer loop
    vertex -93.41567079649558 253.00901502201754 0.005719012009999602
    vertex -94.24212628052356 256.71917661257874 0.005719069282796951
    vertex -90.66979941323385 261.7178064291275 0.005719012009999602
  endloop
endfacet
facet normal -0.0 0.0 -1.0
  outer loop
    vertex -91.97216074573605 254.3317482815359 0.005719012009999602
    vertex -93.41567079649558 253.00901502201754 0.005719012009999602
    vertex -90.66979941323385 261.7178064291275 0.005719012009999602
  endloop
endfacet
facet normal -0.0 0.0 -1.0
  outer loop
    vertex -90.92018566635338 255.98301839112978 0.005719012009999602
    vertex -91.97216074573605 254.3317482815359 0.005719012009999602
    vertex -90.66979941323385 261.7178064291275 0.005719012009999602
  endloop
endfacet
facet normal -0.0 0.0 -1.0
  outer loop
    vertex -90.33143592153671 257.85029402168294 0.005719012009999602
    vertex -90.92018566635338 255.98301839112978 0.005719012009999602
    vertex -90.66979941323385 261.7178064291275 0.005719012009999602
  endloop
endfacet
facet normal -0.0 0.0 -1.0
  outer loop
    vertex -90.2460338334402 259.8063234247924 0.005719012009999602
    vertex -90.33143592153671 257.85029402168294 0.005719012009999602
    vertex -90.66979941323385 261.7178064291275 0.005719012009999602
  endloop
endfacet
endsolid ProtoGlove
