solid ProtoGlove
facet normal 0.7409509097989572 -0.5188193977192891 0.42640143271135006
  outer loop
    vertex -203.8420416939909 255.95855735389105 2.005719063191824
    vertex -204.00427360905988 255.72686616775493 2.0057190712145605
    vertex -203.69723470265586 255.85716240697295 1.6307190631920443
  endloop
endfacet
facet normal 0.7409509097989572 -0.5188193977192891 0.42640143271135006
  outer loop
    vertex -203.85946661772502 255.62547122083674 1.6307190712147586
    vertex -203.69723470265586 255.85716240697295 1.6307190631920443
    vertex -204.00427360905988 255.72686616775493 2.0057190712145605
  endloop
endfacet
facet normal -0.17027604087131473 0.9656834384915227 -0.1961162066948576
  outer loop
    vertex -197.14619044925564 251.09742824731688 1.005719004147277
    vertex -198.86960402664312 250.79354394212487 1.005719004147277
    vertex -197.40107477845885 251.10325662603003 1.2557190631922874
  endloop
endfacet
facet normal 0.29060099008465334 -0.9163876423240759 0.2752903077798798
  outer loop
    vertex -199.96947599936829 256.3113815545564 1.6307190663110174
    vertex -198.52699400534806 256.7688153714601 1.6307190712148039
    vertex -199.86808105245 256.4561885458913 2.005719066310797
  endloop
endfacet
facet normal 0.29060099008465334 -0.9163876423240759 0.2752903077798798
  outer loop
    vertex -198.42559905842998 256.91362236279497 2.005719071214583
    vertex -199.86808105245 256.4561885458913 2.005719066310797
    vertex -198.52699400534806 256.7688153714601 1.6307190712148039
  endloop
endfacet
facet normal -0.04034744671922171 0.9605140947272601 0.27529031471069143
  outer loop
    vertex -199.0578230488807 251.14114083797224 1.630719012010194
    vertex -198.91301605754586 251.03974589105417 2.0057190120099735
    vertex -197.54588176979368 251.20465157294822 1.6307190631920667
  endloop
endfacet
facet normal -0.04034744671922171 0.9605140947272601 0.27529031471069143
  outer loop
    vertex -197.40107477845885 251.10325662603003 2.005719063191846
    vertex -197.54588176979368 251.20465157294822 1.6307190631920667
    vertex -198.91301605754586 251.03974589105417 2.0057190120099735
  endloop
endfacet
facet normal -0.29060099008476664 0.9163876423240503 0.2752903077798449
  outer loop
    vertex -201.27364047308126 250.75043242536393 1.63071906631104
    vertex -202.71612246710148 250.29299860846024 1.6307190712148263
    vertex -201.37503541999953 250.6056254340291 2.0057190663108195
  endloop
endfacet
facet normal -0.29060099008476664 0.9163876423240503 0.2752903077798449
  outer loop
    vertex -202.8175174140196 250.1481916171254 2.005719071214606
    vertex -201.37503541999953 250.6056254340291 2.0057190663108195
    vertex -202.71612246710148 250.29299860846024 1.6307190712148263
  endloop
endfacet
facet normal -0.1702760497784818 0.9656834682625596 -0.1961160523675464
  outer loop
    vertex -201.33162339190088 250.35942350100333 1.005719004147277
    vertex -203.0550369762355 250.05553918805862 1.005719004147277
    vertex -202.8175174140196 250.1481916171254 1.255719071215047
  endloop
endfacet
facet normal -0.9605140973526355 -0.04034742819120265 -0.2752903082660334
  outer loop
    vertex -198.19390787229386 256.75139044772607 1.2557190631922874
    vertex -198.13039713731843 255.2394491686388 1.2557190120104147
    vertex -198.29530281921197 256.60658345639115 1.6307190631919766
  endloop
endfacet
facet normal -0.9605140973526355 -0.04034742819120265 -0.2752903082660334
  outer loop
    vertex -198.2317920842367 255.09464217730402 1.630719012010194
    vertex -198.29530281921197 256.60658345639115 1.6307190631919766
    vertex -198.13039713731843 255.2394491686388 1.2557190120104147
  endloop
endfacet
facet normal -0.9342706672082756 -0.16473712512394428 0.3162277660169983
  outer loop
    vertex -198.13039713731843 255.2394491686388 2.0057190120099735
    vertex -198.2317920842367 255.09464217730402 1.630719012010194
    vertex -197.69627668029338 252.77742980618626 2.005719066310797
  endloop
endfacet
facet normal -0.9342706672082756 -0.16473712512394428 0.3162277660169983
  outer loop
    vertex -197.8410836716282 252.87882475310437 1.6307190663110174
    vertex -197.69627668029338 252.77742980618626 2.005719066310797
    vertex -198.2317920842367 255.09464217730402 1.630719012010194
  endloop
endfacet
facet normal 0.2906009918388001 -0.9163876419533019 -0.27529030716240716
  outer loop
    vertex -199.86808105245 256.4561885458913 1.255719066311238
    vertex -198.42559905842998 256.91362236279497 1.2557190712150244
    vertex -199.96947599936829 256.3113815545564 1.6307190663110174
  endloop
endfacet
facet normal 0.2906009918388001 -0.9163876419533019 -0.27529030716240716
  outer loop
    vertex -198.52699400534806 256.7688153714601 1.6307190712148039
    vertex -199.96947599936829 256.3113815545564 1.6307190663110174
    vertex -198.42559905842998 256.91362236279497 1.2557190712150244
  endloop
endfacet
facet normal 0.1702760428569117 -0.9656834497547331 -0.1961161495104092
  outer loop
    vertex -204.09692601969536 255.96438571782505 1.005719004147277
    vertex -202.37351245810584 256.26827002023055 1.005719004147277
    vertex -203.8420416939909 255.95855735389105 1.2557190631922648
  endloop
endfacet
facet normal -0.6963643083423955 -0.1227878260799075 -0.7071067103580532
  outer loop
    vertex -198.13039713731843 255.2394491686388 1.2557190120104147
    vertex -197.88419520332172 255.2828611969089 1.005719004147277
    vertex -197.69627668029338 252.77742980618626 1.255719066311238
  endloop
endfacet
facet normal -0.6963643083423955 -0.1227878260799075 -0.7071067103580532
  outer loop
    vertex -197.4500747622002 252.8208418316513 1.005719004147277
    vertex -197.69627668029338 252.77742980618626 1.255719066311238
    vertex -197.88419520332172 255.2828611969089 1.005719004147277
  endloop
endfacet
facet normal 0.02980704167095493 -0.70958921760851 -0.703984859581915
  outer loop
    vertex -202.37351245810584 256.26827002023055 1.005719004147277
    vertex -202.3301004149035 256.02206808886666 1.255719012010392
    vertex -203.8420416939909 255.95855735389105 1.2557190631922648
  endloop
endfacet
facet normal -0.029807040655718514 0.7095891934357358 -0.7039848839901114
  outer loop
    vertex -198.86960402664312 250.79354394212487 1.005719004147277
    vertex -198.91301605754586 251.03974589105417 1.2557190120104147
    vertex -197.40107477845885 251.10325662603003 1.2557190631922874
  endloop
endfacet
facet normal 0.5188194175340941 0.7409508959244693 -0.42640143271137104
  outer loop
    vertex -203.04920860015568 250.3104235321944 1.25571906319231
    vertex -202.9478136532376 250.45523052352922 1.6307190631920667
    vertex -202.8175174140196 250.1481916171254 1.255719071215047
  endloop
endfacet
facet normal 0.5188194175340941 0.7409508959244693 -0.42640143271137104
  outer loop
    vertex -202.71612246710148 250.29299860846024 1.6307190712148263
    vertex -202.8175174140196 250.1481916171254 1.255719071215047
    vertex -202.9478136532376 250.45523052352922 1.6307190631920667
  endloop
endfacet
facet normal -0.43734799817674114 -0.6245976398544629 -0.6469965353686463
  outer loop
    vertex -198.19390787229386 256.75139044772607 1.2557190631922874
    vertex -198.42559905842998 256.91362236279497 1.2557190712150244
    vertex -198.18807950851328 257.0062747742969 1.005719004147277
  endloop
endfacet
facet normal 0.5188193977192247 0.7409509097990022 0.4264014327113499
  outer loop
    vertex -202.9478136532376 250.45523052352922 1.6307190631920667
    vertex -203.04920860015568 250.3104235321944 2.0057190631918687
    vertex -202.71612246710148 250.29299860846024 1.6307190712148263
  endloop
endfacet
facet normal 0.5188193977192247 0.7409509097990022 0.4264014327113499
  outer loop
    vertex -202.8175174140196 250.1481916171254 2.005719071214606
    vertex -202.71612246710148 250.29299860846024 1.6307190712148263
    vertex -203.04920860015568 250.3104235321944 2.0057190631918687
  endloop
endfacet
facet normal 0.9656834384917637 0.1702760408712545 -0.19611620669372212
  outer loop
    vertex -203.3589212814274 251.77895276544655 1.005719004147277
    vertex -203.04920860015568 250.3104235321944 1.25571906319231
    vertex -203.0550369762355 250.05553918805862 1.005719004147277
  endloop
endfacet
facet normal 0.040347446719106506 -0.9605140947272751 0.27529031471065674
  outer loop
    vertex -202.18529342356868 255.92067314194847 1.6307190120101716
    vertex -202.3301004149035 256.02206808886666 2.005719012009951
    vertex -203.69723470265586 255.85716240697295 1.6307190631920443
  endloop
endfacet
facet normal 0.040347446719106506 -0.9605140947272751 0.27529031471065674
  outer loop
    vertex -203.8420416939909 255.95855735389105 2.005719063191824
    vertex -203.69723470265586 255.85716240697295 1.6307190631920443
    vertex -202.3301004149035 256.02206808886666 2.005719012009951
  endloop
endfacet
facet normal -0.5188193977192344 -0.740950909798999 0.42640143271134406
  outer loop
    vertex -198.29530281921197 256.60658345639115 1.6307190631919766
    vertex -198.19390787229386 256.75139044772607 2.005719063191846
    vertex -198.52699400534806 256.7688153714601 1.6307190712148039
  endloop
endfacet
facet normal -0.5188193977192344 -0.740950909798999 0.42640143271134406
  outer loop
    vertex -198.42559905842998 256.91362236279497 2.005719071214583
    vertex -198.52699400534806 256.7688153714601 1.6307190712148039
    vertex -198.19390787229386 256.75139044772607 2.005719063191846
  endloop
endfacet
facet normal -0.6245976266395639 0.43734798892482973 -0.6469965543800301
  outer loop
    vertex -197.40107477845885 251.10325662603003 1.2557190631922874
    vertex -197.23884286338952 251.33494781216586 1.2557190712150244
    vertex -197.14619044925564 251.09742824731688 1.005719004147277
  endloop
endfacet
facet normal 0.1702760517644623 -0.9656834795256146 -0.19611599518348316
  outer loop
    vertex -199.91149309284805 256.7023904613521 1.005719004147277
    vertex -198.18807950851328 257.0062747742969 1.005719004147277
    vertex -198.42559905842998 256.91362236279497 1.2557190712150244
  endloop
endfacet
facet normal 0.2146843661788796 -0.6769904578866484 -0.7039847603810746
  outer loop
    vertex -199.86808105245 256.4561885458913 1.255719066311238
    vertex -199.91149309284805 256.7023904613521 1.005719004147277
    vertex -198.42559905842998 256.91362236279497 1.2557190712150244
  endloop
endfacet
facet normal -0.9656834795261157 -0.17027605176444796 -0.19611599518102807
  outer loop
    vertex -197.23884286338952 251.33494781216586 1.2557190712150244
    vertex -197.4500747622002 252.8208418316513 1.005719004147277
    vertex -197.14619044925564 251.09742824731688 1.005719004147277
  endloop
endfacet
facet normal -0.9163876423240186 -0.2906009900848633 0.27529030777984903
  outer loop
    vertex -197.8410836716282 252.87882475310437 1.6307190663110174
    vertex -197.38364985472452 251.43634275908397 1.6307190712147135
    vertex -197.69627668029338 252.77742980618626 2.005719066310797
  endloop
endfacet
facet normal -0.9163876423240186 -0.2906009900848633 0.27529030777984903
  outer loop
    vertex -197.23884286338952 251.33494781216586 2.005719071214583
    vertex -197.69627668029338 252.77742980618626 2.005719066310797
    vertex -197.38364985472452 251.43634275908397 1.6307190712147135
  endloop
endfacet
facet normal 0.934270667208285 0.16473712512395314 0.3162277660169662
  outer loop
    vertex -203.5468397921562 254.2843841737347 2.0057190663107742
    vertex -203.1127193351313 251.8223648112814 2.005719012009996
    vertex -203.40203280082136 254.18298922681672 1.630719066310995
  endloop
endfacet
facet normal 0.934270667208285 0.16473712512395314 0.3162277660169662
  outer loop
    vertex -203.01132438821304 251.96717180261632 1.6307190120102166
    vertex -203.40203280082136 254.18298922681672 1.630719066310995
    vertex -203.1127193351313 251.8223648112814 2.005719012009996
  endloop
endfacet
facet normal 0.12278782607981248 -0.6963643083421691 -0.7071067103582926
  outer loop
    vertex -202.37351245810584 256.26827002023055 1.005719004147277
    vertex -199.91149309284805 256.7023904613521 1.005719004147277
    vertex -202.3301004149035 256.02206808886666 1.255719012010392
  endloop
endfacet
facet normal 0.12278782607981248 -0.6963643083421691 -0.7071067103582926
  outer loop
    vertex -199.86808105245 256.4561885458913 1.255719066311238
    vertex -202.3301004149035 256.02206808886666 1.255719012010392
    vertex -199.91149309284805 256.7023904613521 1.005719004147277
  endloop
endfacet
facet normal -0.21468436058642906 0.6769904402512901 -0.7039847790456557
  outer loop
    vertex -202.8175174140196 250.1481916171254 1.255719071215047
    vertex -201.37503541999953 250.6056254340291 1.2557190663112605
    vertex -201.33162339190088 250.35942350100333 1.005719004147277
  endloop
endfacet
facet normal 0.9605140973526359 0.040347428191320006 -0.2752903082660147
  outer loop
    vertex -203.01132438821304 251.96717180261632 1.6307190120102166
    vertex -202.9478136532376 250.45523052352922 1.6307190631920667
    vertex -203.1127193351313 251.8223648112814 1.2557190120104371
  endloop
endfacet
facet normal 0.9605140973526359 0.040347428191320006 -0.2752903082660147
  outer loop
    vertex -203.04920860015568 250.3104235321944 1.25571906319231
    vertex -203.1127193351313 251.8223648112814 1.2557190120104371
    vertex -202.9478136532376 250.45523052352922 1.6307190631920667
  endloop
endfacet
facet normal -0.51881941753417 -0.7409508959243833 -0.42640143271142794
  outer loop
    vertex -198.19390787229386 256.75139044772607 1.2557190631922874
    vertex -198.29530281921197 256.60658345639115 1.6307190631919766
    vertex -198.42559905842998 256.91362236279497 1.2557190712150244
  endloop
endfacet
facet normal -0.51881941753417 -0.7409508959243833 -0.42640143271142794
  outer loop
    vertex -198.52699400534806 256.7688153714601 1.6307190712148039
    vertex -198.42559905842998 256.91362236279497 1.2557190712150244
    vertex -198.29530281921197 256.60658345639115 1.6307190631919766
  endloop
endfacet
facet normal -0.7095892147646938 -0.029807041551434182 -0.7039848624534311
  outer loop
    vertex -198.19390787229386 256.75139044772607 1.2557190631922874
    vertex -197.88419520332172 255.2828611969089 1.005719004147277
    vertex -198.13039713731843 255.2394491686388 1.2557190120104147
  endloop
endfacet
facet normal 0.7409508959244631 -0.5188194175341029 -0.42640143271137093
  outer loop
    vertex -203.8420416939909 255.95855735389105 1.2557190631922648
    vertex -203.69723470265586 255.85716240697295 1.6307190631920443
    vertex -204.00427360905988 255.72686616775493 1.255719071215002
  endloop
endfacet
facet normal 0.7409508959244631 -0.5188194175341029 -0.42640143271137093
  outer loop
    vertex -203.85946661772502 255.62547122083674 1.6307190712147586
    vertex -204.00427360905988 255.72686616775493 1.255719071215002
    vertex -203.69723470265586 255.85716240697295 1.6307190631920443
  endloop
endfacet
facet normal -0.7409509097989649 0.5188193977192829 0.42640143271134384
  outer loop
    vertex -197.38364985472452 251.43634275908397 1.6307190712147135
    vertex -197.54588176979368 251.20465157294822 1.6307190631920667
    vertex -197.23884286338952 251.33494781216586 2.005719071214583
  endloop
endfacet
facet normal -0.7409509097989649 0.5188193977192829 0.42640143271134384
  outer loop
    vertex -197.40107477845885 251.10325662603003 2.005719063191846
    vertex -197.23884286338952 251.33494781216586 2.005719071214583
    vertex -197.54588176979368 251.20465157294822 1.6307190631920667
  endloop
endfacet
facet normal 0.9342706647042447 0.1647371393250709 -0.31622776601696617
  outer loop
    vertex -203.5468397921562 254.2843841737347 1.2557190663112154
    vertex -203.40203280082136 254.18298922681672 1.630719066310995
    vertex -203.1127193351313 251.8223648112814 1.2557190120104371
  endloop
endfacet
facet normal 0.9342706647042447 0.1647371393250709 -0.31622776601696617
  outer loop
    vertex -203.01132438821304 251.96717180261632 1.6307190120102166
    vertex -203.1127193351313 251.8223648112814 1.2557190120104371
    vertex -203.40203280082136 254.18298922681672 1.630719066310995
  endloop
endfacet
facet normal 0.9163876423240505 0.29060099008473933 0.275290307779873
  outer loop
    vertex -204.00427360905988 255.72686616775493 2.0057190712145605
    vertex -203.5468397921562 254.2843841737347 2.0057190663107742
    vertex -203.85946661772502 255.62547122083674 1.6307190712147586
  endloop
endfacet
facet normal 0.9163876423240505 0.29060099008473933 0.275290307779873
  outer loop
    vertex -203.40203280082136 254.18298922681672 1.630719066310995
    vertex -203.85946661772502 255.62547122083674 1.6307190712147586
    vertex -203.5468397921562 254.2843841737347 2.0057190663107742
  endloop
endfacet
facet normal 0.6963642872252344 0.1227878223563759 -0.7071067318009854
  outer loop
    vertex -203.79304172254894 254.24097213070414 1.005719004147277
    vertex -203.5468397921562 254.2843841737347 1.2557190663112154
    vertex -203.3589212814274 251.77895276544655 1.005719004147277
  endloop
endfacet
facet normal 0.6963642872252344 0.1227878223563759 -0.7071067318009854
  outer loop
    vertex -203.1127193351313 251.8223648112814 1.2557190120104371
    vertex -203.3589212814274 251.77895276544655 1.005719004147277
    vertex -203.5468397921562 254.2843841737347 1.2557190663112154
  endloop
endfacet
facet normal -0.9163876419532315 -0.2906009918389887 -0.2752903071624432
  outer loop
    vertex -197.8410836716282 252.87882475310437 1.6307190663110174
    vertex -197.69627668029338 252.77742980618626 1.255719066311238
    vertex -197.38364985472452 251.43634275908397 1.6307190712147135
  endloop
endfacet
facet normal -0.9163876419532315 -0.2906009918389887 -0.2752903071624432
  outer loop
    vertex -197.23884286338952 251.33494781216586 1.2557190712150244
    vertex -197.38364985472452 251.43634275908397 1.6307190712147135
    vertex -197.69627668029338 252.77742980618626 1.255719066311238
  endloop
endfacet
facet normal -0.16473713932513875 0.9342706647042415 -0.3162277660169405
  outer loop
    vertex -198.91301605754586 251.03974589105417 1.2557190120104147
    vertex -201.37503541999953 250.6056254340291 1.2557190663112605
    vertex -199.0578230488807 251.14114083797224 1.630719012010194
  endloop
endfacet
facet normal -0.16473713932513875 0.9342706647042415 -0.3162277660169405
  outer loop
    vertex -201.27364047308126 250.75043242536393 1.63071906631104
    vertex -199.0578230488807 251.14114083797224 1.630719012010194
    vertex -201.37503541999953 250.6056254340291 1.2557190663112605
  endloop
endfacet
facet normal 0.4373479796708589 0.6245976134253227 -0.6469965733921696
  outer loop
    vertex -203.0550369762355 250.05553918805862 1.005719004147277
    vertex -203.04920860015568 250.3104235321944 1.25571906319231
    vertex -202.8175174140196 250.1481916171254 1.255719071215047
  endloop
endfacet
facet normal -0.9848077527493131 -0.17364817915788092 1.4662455573295345e-08
  outer loop
    vertex -198.18807950851328 257.0062747742969 1.005719004147277
    vertex -198.18807954125703 257.00627476229687 0.005719063487337195
    vertex -197.88419520332172 255.2828611969089 1.005719004147277
  endloop
endfacet
facet normal -0.9848077527493131 -0.17364817915788092 1.4662455573295345e-08
  outer loop
    vertex -197.14619044762017 251.09742824835374 0.005719069282796951
    vertex -197.88419520332172 255.2828611969089 1.005719004147277
    vertex -198.18807954125703 257.00627476229687 0.005719063487337195
  endloop
endfacet
facet normal -0.9848077527493131 -0.17364817915788092 1.4662455573295345e-08
  outer loop
    vertex -197.4500747622002 252.8208418316513 1.005719004147277
    vertex -197.88419520332172 255.2828611969089 1.005719004147277
    vertex -197.14619044762017 251.09742824835374 0.005719069282796951
  endloop
endfacet
facet normal -0.9848077527493131 -0.17364817915788092 1.4662455573295345e-08
  outer loop
    vertex -197.14619044925564 251.09742824731688 1.005719004147277
    vertex -197.4500747622002 252.8208418316513 1.005719004147277
    vertex -197.14619044762017 251.09742824835374 0.005719069282796951
  endloop
endfacet
facet normal 0.9605140947272625 0.04034744671915716 0.27529031471069343
  outer loop
    vertex -203.01132438821304 251.96717180261632 1.6307190120102166
    vertex -203.1127193351313 251.8223648112814 2.005719012009996
    vertex -202.9478136532376 250.45523052352922 1.6307190631920667
  endloop
endfacet
facet normal 0.9605140947272625 0.04034744671915716 0.27529031471069343
  outer loop
    vertex -203.04920860015568 250.3104235321944 2.0057190631918687
    vertex -202.9478136532376 250.45523052352922 1.6307190631920667
    vertex -203.1127193351313 251.8223648112814 2.005719012009996
  endloop
endfacet
facet normal 0.1647371251238617 -0.9342706672083099 0.31622776601694064
  outer loop
    vertex -202.18529342356868 255.92067314194847 1.6307190120101716
    vertex -199.96947599936829 256.3113815545564 1.6307190663110174
    vertex -202.3301004149035 256.02206808886666 2.005719012009951
  endloop
endfacet
facet normal 0.1647371251238617 -0.9342706672083099 0.31622776601694064
  outer loop
    vertex -199.86808105245 256.4561885458913 2.005719066310797
    vertex -202.3301004149035 256.02206808886666 2.005719012009951
    vertex -199.96947599936829 256.3113815545564 1.6307190663110174
  endloop
endfacet
facet normal 0.6245976406206478 -0.4373479987136495 -0.6469965342660545
  outer loop
    vertex -204.00427360905988 255.72686616775493 1.255719071215002
    vertex -204.09692601969536 255.96438571782505 1.005719004147277
    vertex -203.8420416939909 255.95855735389105 1.2557190631922648
  endloop
endfacet
facet normal 0.6769904375383404 0.21468435972606587 -0.7039847819169501
  outer loop
    vertex -203.79304172254894 254.24097213070414 1.005719004147277
    vertex -204.00427360905988 255.72686616775493 1.255719071215002
    vertex -203.5468397921562 254.2843841737347 1.2557190663112154
  endloop
endfacet
facet normal -0.740950895924505 0.518819417533996 -0.42640143271142805
  outer loop
    vertex -197.38364985472452 251.43634275908397 1.6307190712147135
    vertex -197.23884286338952 251.33494781216586 1.2557190712150244
    vertex -197.54588176979368 251.20465157294822 1.6307190631920667
  endloop
endfacet
facet normal -0.740950895924505 0.518819417533996 -0.42640143271142805
  outer loop
    vertex -197.40107477845885 251.10325662603003 1.2557190631922874
    vertex -197.54588176979368 251.20465157294822 1.6307190631920667
    vertex -197.23884286338952 251.33494781216586 1.2557190712150244
  endloop
endfacet
facet normal -0.12278782235633198 0.6963642872249669 -0.7071067318012563
  outer loop
    vertex -201.37503541999953 250.6056254340291 1.2557190663112605
    vertex -198.91301605754586 251.03974589105417 1.2557190120104147
    vertex -201.33162339190088 250.35942350100333 1.005719004147277
  endloop
endfacet
facet normal -0.12278782235633198 0.6963642872249669 -0.7071067318012563
  outer loop
    vertex -198.86960402664312 250.79354394212487 1.005719004147277
    vertex -201.33162339190088 250.35942350100333 1.005719004147277
    vertex -198.91301605754586 251.03974589105417 1.2557190120104147
  endloop
endfacet
facet normal 0.040347428191265466 -0.9605140973526536 -0.27529030826596124
  outer loop
    vertex -202.3301004149035 256.02206808886666 1.255719012010392
    vertex -202.18529342356868 255.92067314194847 1.6307190120101716
    vertex -203.8420416939909 255.95855735389105 1.2557190631922648
  endloop
endfacet
facet normal 0.040347428191265466 -0.9605140973526536 -0.27529030826596124
  outer loop
    vertex -203.69723470265586 255.85716240697295 1.6307190631920443
    vertex -203.8420416939909 255.95855735389105 1.2557190631922648
    vertex -202.18529342356868 255.92067314194847 1.6307190120101716
  endloop
endfacet
facet normal -0.6769904606003979 -0.2146843670394949 -0.7039847575089341
  outer loop
    vertex -197.69627668029338 252.77742980618626 1.255719066311238
    vertex -197.4500747622002 252.8208418316513 1.005719004147277
    vertex -197.23884286338952 251.33494781216586 1.2557190712150244
  endloop
endfacet
facet normal 0.7095891962798851 0.02980704077506411 -0.7039848811182668
  outer loop
    vertex -203.3589212814274 251.77895276544655 1.005719004147277
    vertex -203.1127193351313 251.8223648112814 1.2557190120104371
    vertex -203.04920860015568 250.3104235321944 1.25571906319231
  endloop
endfacet
facet normal -0.9342706647042333 -0.16473713932507383 -0.31622776601699826
  outer loop
    vertex -198.13039713731843 255.2394491686388 1.2557190120104147
    vertex -197.69627668029338 252.77742980618626 1.255719066311238
    vertex -198.2317920842367 255.09464217730402 1.630719012010194
  endloop
endfacet
facet normal -0.9342706647042333 -0.16473713932507383 -0.31622776601699826
  outer loop
    vertex -197.8410836716282 252.87882475310437 1.6307190663110174
    vertex -198.2317920842367 255.09464217730402 1.630719012010194
    vertex -197.69627668029338 252.77742980618626 1.255719066311238
  endloop
endfacet
facet normal 0.9163876419532734 0.29060099183888083 -0.2752903071624171
  outer loop
    vertex -204.00427360905988 255.72686616775493 1.255719071215002
    vertex -203.85946661772502 255.62547122083674 1.6307190712147586
    vertex -203.5468397921562 254.2843841737347 1.2557190663112154
  endloop
endfacet
facet normal 0.9163876419532734 0.29060099183888083 -0.2752903071624171
  outer loop
    vertex -203.40203280082136 254.18298922681672 1.630719066310995
    vertex -203.5468397921562 254.2843841737347 1.2557190663112154
    vertex -203.85946661772502 255.62547122083674 1.6307190712147586
  endloop
endfacet
facet normal -0.9605140947272767 -0.04034744671902806 0.275290314710662
  outer loop
    vertex -198.19390787229386 256.75139044772607 2.005719063191846
    vertex -198.29530281921197 256.60658345639115 1.6307190631919766
    vertex -198.13039713731843 255.2394491686388 2.0057190120099735
  endloop
endfacet
facet normal -0.9605140947272767 -0.04034744671902806 0.275290314710662
  outer loop
    vertex -198.2317920842367 255.09464217730402 1.630719012010194
    vertex -198.13039713731843 255.2394491686388 2.0057190120099735
    vertex -198.29530281921197 256.60658345639115 1.6307190631919766
  endloop
endfacet
facet normal 0.1736481770485919 -0.9848077531212379 8.618536287930883e-09
  outer loop
    vertex -204.09692605933026 255.96438569629547 0.005719063487337195
    vertex -198.18807954125703 257.00627476229687 0.005719063487337195
    vertex -204.09692601969536 255.96438571782505 1.005719004147277
  endloop
endfacet
facet normal 0.1736481770485919 -0.9848077531212379 8.618536287930883e-09
  outer loop
    vertex -198.18807950851328 257.0062747742969 1.005719004147277
    vertex -204.09692601969536 255.96438571782505 1.005719004147277
    vertex -198.18807954125703 257.00627476229687 0.005719063487337195
  endloop
endfacet
facet normal 0.1736481770485919 -0.9848077531212379 8.618536287930883e-09
  outer loop
    vertex -202.37351245810584 256.26827002023055 1.005719004147277
    vertex -204.09692601969536 255.96438571782505 1.005719004147277
    vertex -198.18807950851328 257.0062747742969 1.005719004147277
  endloop
endfacet
facet normal 0.1736481770485919 -0.9848077531212379 8.618536287930883e-09
  outer loop
    vertex -199.91149309284805 256.7023904613521 1.005719004147277
    vertex -202.37351245810584 256.26827002023055 1.005719004147277
    vertex -198.18807950851328 257.0062747742969 1.005719004147277
  endloop
endfacet
facet normal -0.1736481791211096 0.9848077527557969 -1.8686304106815457e-08
  outer loop
    vertex -197.14619044762017 251.09742824835374 0.005719069282796951
    vertex -203.05503698939629 250.05553915030427 0.00571907121460935
    vertex -197.14619044925564 251.09742824731688 1.005719004147277
  endloop
endfacet
facet normal -0.1736481791211096 0.9848077527557969 -1.8686304106815457e-08
  outer loop
    vertex -203.0550369762355 250.05553918805862 1.005719004147277
    vertex -197.14619044925564 251.09742824731688 1.005719004147277
    vertex -203.05503698939629 250.05553915030427 0.00571907121460935
  endloop
endfacet
facet normal -0.1736481791211096 0.9848077527557969 -1.8686304106815457e-08
  outer loop
    vertex -198.86960402664312 250.79354394212487 1.005719004147277
    vertex -197.14619044925564 251.09742824731688 1.005719004147277
    vertex -203.0550369762355 250.05553918805862 1.005719004147277
  endloop
endfacet
facet normal -0.1736481791211096 0.9848077527557969 -1.8686304106815457e-08
  outer loop
    vertex -201.33162339190088 250.35942350100333 1.005719004147277
    vertex -198.86960402664312 250.79354394212487 1.005719004147277
    vertex -203.0550369762355 250.05553918805862 1.005719004147277
  endloop
endfacet
facet normal -0.29060099183891347 0.9163876419532766 -0.2752903071623723
  outer loop
    vertex -201.37503541999953 250.6056254340291 1.2557190663112605
    vertex -202.8175174140196 250.1481916171254 1.255719071215047
    vertex -201.27364047308126 250.75043242536393 1.63071906631104
  endloop
endfacet
facet normal -0.29060099183891347 0.9163876419532766 -0.2752903071623723
  outer loop
    vertex -202.71612246710148 250.29299860846024 1.6307190712148263
    vertex -201.27364047308126 250.75043242536393 1.63071906631104
    vertex -202.8175174140196 250.1481916171254 1.255719071215047
  endloop
endfacet
facet normal 0.9848077533478098 0.17364817576363656 -2.87407421744836e-08
  outer loop
    vertex -204.09692601969536 255.96438571782505 1.005719004147277
    vertex -203.79304172254894 254.24097213070414 1.005719004147277
    vertex -204.09692605933026 255.96438569629547 0.005719063487337195
  endloop
endfacet
facet normal 0.9848077533478098 0.17364817576363656 -2.87407421744836e-08
  outer loop
    vertex -203.05503698939629 250.05553915030427 0.00571907121460935
    vertex -204.09692605933026 255.96438569629547 0.005719063487337195
    vertex -203.79304172254894 254.24097213070414 1.005719004147277
  endloop
endfacet
facet normal 0.9848077533478098 0.17364817576363656 -2.87407421744836e-08
  outer loop
    vertex -203.3589212814274 251.77895276544655 1.005719004147277
    vertex -203.05503698939629 250.05553915030427 0.00571907121460935
    vertex -203.79304172254894 254.24097213070414 1.005719004147277
  endloop
endfacet
facet normal 0.9848077533478098 0.17364817576363656 -2.87407421744836e-08
  outer loop
    vertex -203.0550369762355 250.05553918805862 1.005719004147277
    vertex -203.05503698939629 250.05553915030427 0.00571907121460935
    vertex -203.3589212814274 251.77895276544655 1.005719004147277
  endloop
endfacet
facet normal -0.04034742819138071 0.9605140973526388 -0.27529030826599615
  outer loop
    vertex -198.91301605754586 251.03974589105417 1.2557190120104147
    vertex -199.0578230488807 251.14114083797224 1.630719012010194
    vertex -197.40107477845885 251.10325662603003 1.2557190631922874
  endloop
endfacet
facet normal -0.04034742819138071 0.9605140973526388 -0.27529030826599615
  outer loop
    vertex -197.54588176979368 251.20465157294822 1.6307190631920667
    vertex -197.40107477845885 251.10325662603003 1.2557190631922874
    vertex -199.0578230488807 251.14114083797224 1.630719012010194
  endloop
endfacet
facet normal -0.9656834497550955 -0.1702760428572838 -0.19611614950830153
  outer loop
    vertex -198.19390787229386 256.75139044772607 1.2557190631922874
    vertex -198.18807950851328 257.0062747742969 1.005719004147277
    vertex -197.88419520332172 255.2828611969089 1.005719004147277
  endloop
endfacet
facet normal 0.9656834800379118 0.17027604272712968 -0.19611600050749703
  outer loop
    vertex -204.09692601969536 255.96438571782505 1.005719004147277
    vertex -204.00427360905988 255.72686616775493 1.255719071215002
    vertex -203.79304172254894 254.24097213070414 1.005719004147277
  endloop
endfacet
facet normal -0.16473712512400324 0.9342706672082848 0.3162277660169406
  outer loop
    vertex -199.0578230488807 251.14114083797224 1.630719012010194
    vertex -201.27364047308126 250.75043242536393 1.63071906631104
    vertex -198.91301605754586 251.03974589105417 2.0057190120099735
  endloop
endfacet
facet normal -0.16473712512400324 0.9342706672082848 0.3162277660169406
  outer loop
    vertex -201.37503541999953 250.6056254340291 2.0057190663108195
    vertex -198.91301605754586 251.03974589105417 2.0057190120099735
    vertex -201.27364047308126 250.75043242536393 1.63071906631104
  endloop
endfacet
facet normal 0.16473713932499714 -0.9342706647042665 -0.3162277660169405
  outer loop
    vertex -202.3301004149035 256.02206808886666 1.255719012010392
    vertex -199.86808105245 256.4561885458913 1.255719066311238
    vertex -202.18529342356868 255.92067314194847 1.6307190120101716
  endloop
endfacet
facet normal 0.16473713932499714 -0.9342706647042665 -0.3162277660169405
  outer loop
    vertex -199.96947599936829 256.3113815545564 1.6307190663110174
    vertex -202.18529342356868 255.92067314194847 1.6307190120101716
    vertex -199.86808105245 256.4561885458913 1.255719066311238
  endloop
endfacet
facet normal -0.793353340291212 -0.608761429008751 0.0
  outer loop
    vertex -226.07770073265732 270.9163540802962 2.005719012009996
    vertex -226.07770073265732 270.9163540802962 0.005719012009999602
    vertex -225.28310761966782 269.8808201743634 2.005719012009996
  endloop
endfacet
facet normal -0.793353340291212 -0.608761429008751 0.0
  outer loop
    vertex -225.28310761966782 269.8808201743634 0.005719012009999602
    vertex -225.28310761966782 269.8808201743634 2.005719012009996
    vertex -226.07770073265732 270.9163540802962 0.005719012009999602
  endloop
endfacet
facet normal -0.9914448613738096 -0.13052619222005837 0.0
  outer loop
    vertex -226.74757371373514 273.4163540802961 2.005719012009996
    vertex -226.74757371373514 273.4163540802961 0.005719012009999602
    vertex -226.57720284518047 272.1222588547835 2.005719012009996
  endloop
endfacet
facet normal -0.9914448613738096 -0.13052619222005837 0.0
  outer loop
    vertex -226.57720284518047 272.1222588547835 0.005719012009999602
    vertex -226.57720284518047 272.1222588547835 2.005719012009996
    vertex -226.74757371373514 273.4163540802961 0.005719012009999602
  endloop
endfacet
facet normal -0.6087614290087409 -0.7933533402912197 0.0
  outer loop
    vertex -225.28310761966782 269.8808201743634 0.005719012009999602
    vertex -224.24757371373516 269.086227061374 0.005719012009999602
    vertex -225.28310761966782 269.8808201743634 2.005719012009996
  endloop
endfacet
facet normal -0.6087614290087409 -0.7933533402912197 0.0
  outer loop
    vertex -224.24757371373516 269.086227061374 2.005719012009996
    vertex -225.28310761966782 269.8808201743634 2.005719012009996
    vertex -224.24757371373516 269.086227061374 0.005719012009999602
  endloop
endfacet
facet normal 0.0 -1.0 0.0
  outer loop
    vertex -221.7475737137352 268.4163540802962 0.005719012009999602
    vertex -214.0705379582116 268.4163540802962 0.005719012009999602
    vertex -221.7475737137352 268.4163540802962 2.005719012009996
  endloop
endfacet
facet normal 0.0 -1.0 0.0
  outer loop
    vertex -214.0705379582116 268.4163540802962 2.005719012009996
    vertex -221.7475737137352 268.4163540802962 2.005719012009996
    vertex -214.0705379582116 268.4163540802962 0.005719012009999602
  endloop
endfacet
facet normal -0.38268343236512203 -0.9238795325112733 0.0
  outer loop
    vertex -224.24757371373516 269.086227061374 0.005719012009999602
    vertex -223.04166893924787 268.5867249488509 0.005719012009999602
    vertex -224.24757371373516 269.086227061374 2.005719012009996
  endloop
endfacet
facet normal -0.38268343236512203 -0.9238795325112733 0.0
  outer loop
    vertex -223.04166893924787 268.5867249488509 2.005719012009996
    vertex -224.24757371373516 269.086227061374 2.005719012009996
    vertex -223.04166893924787 268.5867249488509 0.005719012009999602
  endloop
endfacet
facet normal -0.1305261922200494 -0.9914448613738107 0.0
  outer loop
    vertex -223.04166893924787 268.5867249488509 0.005719012009999602
    vertex -221.7475737137352 268.4163540802962 0.005719012009999602
    vertex -223.04166893924787 268.5867249488509 2.005719012009996
  endloop
endfacet
facet normal -0.1305261922200494 -0.9914448613738107 0.0
  outer loop
    vertex -221.7475737137352 268.4163540802962 2.005719012009996
    vertex -223.04166893924787 268.5867249488509 2.005719012009996
    vertex -221.7475737137352 268.4163540802962 0.005719012009999602
  endloop
endfacet
facet normal -0.9388287942752546 -0.3443842258868313 0.0
  outer loop
    vertex -214.0705379582116 268.4163540802962 2.005719012009996
    vertex -214.0705379582116 268.4163540802962 0.005719012009999602
    vertex -207.66925289211932 250.9657559150176 2.005719012009996
  endloop
endfacet
facet normal -0.9388287942752546 -0.3443842258868313 0.0
  outer loop
    vertex -207.66925289211932 250.9657559150176 0.005719012009999602
    vertex -207.66925289211932 250.9657559150176 2.005719012009996
    vertex -214.0705379582116 268.4163540802962 0.005719012009999602
  endloop
endfacet
facet normal -0.8870108331782163 -0.4617486132350445 0.0
  outer loop
    vertex -207.66925289211932 250.9657559150176 2.005719012009996
    vertex -207.66925289211932 250.9657559150176 0.005719012009999602
    vertex -206.76519856839238 249.22908371732726 2.005719012009996
  endloop
endfacet
facet normal -0.8870108331782163 -0.4617486132350445 0.0
  outer loop
    vertex -206.76519856839238 249.22908371732726 0.005719012009999602
    vertex -206.76519856839238 249.22908371732726 2.005719012009996
    vertex -207.66925289211932 250.9657559150176 0.005719012009999602
  endloop
endfacet
facet normal -0.9238795325112836 -0.3826834323650976 0.0
  outer loop
    vertex -226.57720284518047 272.1222588547835 2.005719012009996
    vertex -226.57720284518047 272.1222588547835 0.005719012009999602
    vertex -226.07770073265732 270.9163540802962 2.005719012009996
  endloop
endfacet
facet normal -0.9238795325112836 -0.3826834323650976 0.0
  outer loop
    vertex -226.07770073265732 270.9163540802962 0.005719012009999602
    vertex -226.07770073265732 270.9163540802962 2.005719012009996
    vertex -226.57720284518047 272.1222588547835 0.005719012009999602
  endloop
endfacet
facet normal 0.82330151275673 0.5676042803683566 0.0
  outer loop
    vertex -200.8161156929198 274.50396837038346 0.005719012009999602
    vertex -200.8161156929198 274.50396837038346 2.005719012009996
    vertex -200.2384823714622 273.66611988364184 0.005719012009999602
  endloop
endfacet
facet normal 0.82330151275673 0.5676042803683566 0.0
  outer loop
    vertex -200.2384823714622 273.66611988364184 2.005719012009996
    vertex -200.2384823714622 273.66611988364184 0.005719012009999602
    vertex -200.8161156929198 274.50396837038346 2.005719012009996
  endloop
endfacet
facet normal 0.7613497448831681 0.6483413961535506 0.0
  outer loop
    vertex -201.47591268010177 275.2787704589836 0.005719012009999602
    vertex -201.47591268010177 275.2787704589836 2.005719012009996
    vertex -200.8161156929198 274.50396837038346 0.005719012009999602
  endloop
endfacet
facet normal 0.7613497448831681 0.6483413961535506 0.0
  outer loop
    vertex -200.8161156929198 274.50396837038346 2.005719012009996
    vertex -200.8161156929198 274.50396837038346 0.005719012009999602
    vertex -201.47591268010177 275.2787704589836 2.005719012009996
  endloop
endfacet
facet normal -0.1305261922200494 0.9914448613738107 0.0
  outer loop
    vertex -221.7475737137352 278.41635408029606 0.005719012009999602
    vertex -223.04166893924787 278.2459832117414 0.005719012009999602
    vertex -221.7475737137352 278.41635408029606 2.005719012009996
  endloop
endfacet
facet normal -0.1305261922200494 0.9914448613738107 0.0
  outer loop
    vertex -223.04166893924787 278.2459832117414 2.005719012009996
    vertex -221.7475737137352 278.41635408029606 2.005719012009996
    vertex -223.04166893924787 278.2459832117414 0.005719012009999602
  endloop
endfacet
facet normal -0.38268343236512203 0.9238795325112733 0.0
  outer loop
    vertex -223.04166893924787 278.2459832117414 0.005719012009999602
    vertex -224.24757371373516 277.7464810992183 0.005719012009999602
    vertex -223.04166893924787 278.2459832117414 2.005719012009996
  endloop
endfacet
facet normal -0.38268343236512203 0.9238795325112733 0.0
  outer loop
    vertex -224.24757371373516 277.7464810992183 2.005719012009996
    vertex -223.04166893924787 278.2459832117414 2.005719012009996
    vertex -224.24757371373516 277.7464810992183 0.005719012009999602
  endloop
endfacet
facet normal 0.8767267557075231 0.48098876891935977 0.0
  outer loop
    vertex -200.2384823714622 273.66611988364184 0.005719012009999602
    vertex -200.2384823714622 273.66611988364184 2.005719012009996
    vertex -199.74899497719102 272.77390217946703 0.005719012009999602
  endloop
endfacet
facet normal 0.8767267557075231 0.48098876891935977 0.0
  outer loop
    vertex -199.74899497719102 272.77390217946703 2.005719012009996
    vertex -199.74899497719102 272.77390217946703 0.005719012009999602
    vertex -200.2384823714622 273.66611988364184 2.005719012009996
  endloop
endfacet
facet normal -0.9914448613738096 0.13052619222005837 0.0
  outer loop
    vertex -226.57720284518047 274.7104493058087 2.005719012009996
    vertex -226.57720284518047 274.7104493058087 0.005719012009999602
    vertex -226.74757371373514 273.4163540802961 2.005719012009996
  endloop
endfacet
facet normal -0.9914448613738096 0.13052619222005837 0.0
  outer loop
    vertex -226.74757371373514 273.4163540802961 0.005719012009999602
    vertex -226.74757371373514 273.4163540802961 2.005719012009996
    vertex -226.57720284518047 274.7104493058087 0.005719012009999602
  endloop
endfacet
facet normal 0.34884467684955833 0.9371805543403722 0.0
  outer loop
    vertex -204.7888514354407 277.59851514909906 0.005719012009999602
    vertex -205.74259110078953 277.9535235877786 0.005719012009999602
    vertex -204.7888514354407 277.59851514909906 2.005719012009996
  endloop
endfacet
facet normal 0.34884467684955833 0.9371805543403722 0.0
  outer loop
    vertex -205.74259110078953 277.9535235877786 2.005719012009996
    vertex -204.7888514354407 277.59851514909906 2.005719012009996
    vertex -205.74259110078953 277.9535235877786 0.005719012009999602
  endloop
endfacet
facet normal 0.6915130557822594 0.722363962059765 0.0
  outer loop
    vertex -201.47591268010177 275.2787704589836 0.005719012009999602
    vertex -202.21104014326153 275.98250190897113 0.005719012009999602
    vertex -201.47591268010177 275.2787704589836 2.005719012009996
  endloop
endfacet
facet normal 0.6915130557822594 0.722363962059765 0.0
  outer loop
    vertex -202.21104014326153 275.98250190897113 2.005719012009996
    vertex -201.47591268010177 275.2787704589836 2.005719012009996
    vertex -202.21104014326153 275.98250190897113 0.005719012009999602
  endloop
endfacet
facet normal 0.921072175024996 0.3893918956459202 0.0
  outer loop
    vertex -199.74899497719102 272.77390217946703 0.005719012009999602
    vertex -199.74899497719102 272.77390217946703 2.005719012009996
    vertex -199.35272288797307 271.8365555135529 0.005719012009999602
  endloop
endfacet
facet normal 0.921072175024996 0.3893918956459202 0.0
  outer loop
    vertex -199.35272288797307 271.8365555135529 2.005719012009996
    vertex -199.35272288797307 271.8365555135529 0.005719012009999602
    vertex -199.74899497719102 272.77390217946703 2.005719012009996
  endloop
endfacet
facet normal -0.6087614290087409 0.7933533402912197 0.0
  outer loop
    vertex -224.24757371373516 277.7464810992183 0.005719012009999602
    vertex -225.28310761966782 276.9518879862288 0.005719012009999602
    vertex -224.24757371373516 277.7464810992183 2.005719012009996
  endloop
endfacet
facet normal -0.6087614290087409 0.7933533402912197 0.0
  outer loop
    vertex -225.28310761966782 276.9518879862288 2.005719012009996
    vertex -224.24757371373516 277.7464810992183 2.005719012009996
    vertex -225.28310761966782 276.9518879862288 0.005719012009999602
  endloop
endfacet
facet normal 0.6145147093624946 0.7889053631311734 0.0
  outer loop
    vertex -202.21104014326153 275.98250190897113 0.005719012009999602
    vertex -203.01388473232177 276.6078745231862 0.005719012009999602
    vertex -202.21104014326153 275.98250190897113 2.005719012009996
  endloop
endfacet
facet normal 0.6145147093624946 0.7889053631311734 0.0
  outer loop
    vertex -203.01388473232177 276.6078745231862 2.005719012009996
    vertex -202.21104014326153 275.98250190897113 2.005719012009996
    vertex -203.01388473232177 276.6078745231862 0.005719012009999602
  endloop
endfacet
facet normal 0.0 1.0 0.0
  outer loop
    vertex -208.74964909583227 278.41635408029606 0.005719012009999602
    vertex -221.7475737137352 278.41635408029606 0.005719012009999602
    vertex -208.74964909583227 278.41635408029606 2.005719012009996
  endloop
endfacet
facet normal 0.0 1.0 0.0
  outer loop
    vertex -221.7475737137352 278.41635408029606 2.005719012009996
    vertex -208.74964909583227 278.41635408029606 2.005719012009996
    vertex -221.7475737137352 278.41635408029606 0.005719012009999602
  endloop
endfacet
facet normal 0.05088345361670718 0.9987045980409004 0.0
  outer loop
    vertex -207.7332983140043 278.3645715632566 0.005719012009999602
    vertex -208.74964909583227 278.41635408029606 0.005719012009999602
    vertex -207.7332983140043 278.3645715632566 2.005719012009996
  endloop
endfacet
facet normal 0.05088345361670718 0.9987045980409004 0.0
  outer loop
    vertex -208.74964909583227 278.41635408029606 2.005719012009996
    vertex -207.7332983140043 278.3645715632566 2.005719012009996
    vertex -208.74964909583227 278.41635408029606 0.005719012009999602
  endloop
endfacet
facet normal -0.793353340291212 0.608761429008751 0.0
  outer loop
    vertex -225.28310761966782 276.9518879862288 2.005719012009996
    vertex -225.28310761966782 276.9518879862288 0.005719012009999602
    vertex -226.07770073265732 275.9163540802961 2.005719012009996
  endloop
endfacet
facet normal -0.793353340291212 0.608761429008751 0.0
  outer loop
    vertex -226.07770073265732 275.9163540802961 0.005719012009999602
    vertex -226.07770073265732 275.9163540802961 2.005719012009996
    vertex -225.28310761966782 276.9518879862288 0.005719012009999602
  endloop
endfacet
facet normal 0.25178785239533713 0.9677824535432248 0.0
  outer loop
    vertex -205.74259110078953 277.9535235877786 0.005719012009999602
    vertex -206.72747337251195 278.2097602979518 0.005719012009999602
    vertex -205.74259110078953 277.9535235877786 2.005719012009996
  endloop
endfacet
facet normal 0.25178785239533713 0.9677824535432248 0.0
  outer loop
    vertex -206.72747337251195 278.2097602979518 2.005719012009996
    vertex -205.74259110078953 277.9535235877786 2.005719012009996
    vertex -206.72747337251195 278.2097602979518 0.005719012009999602
  endloop
endfacet
facet normal 0.6755902076156436 -0.7372773368101393 0.0
  outer loop
    vertex -196.31973496359217 247.38726665779254 0.005719012009999602
    vertex -194.87622491283264 248.7099999173109 0.005719012009999602
    vertex -196.31973496359217 247.38726665779254 2.005719012009996
  endloop
endfacet
facet normal 0.6755902076156436 -0.7372773368101393 0.0
  outer loop
    vertex -194.87622491283264 248.7099999173109 2.005719012009996
    vertex -196.31973496359217 247.38726665779254 2.005719012009996
    vertex -194.87622491283264 248.7099999173109 0.005719012009999602
  endloop
endfacet
facet normal 0.9537169507482253 -0.3007057995042783 0.0
  outer loop
    vertex -193.2355000886333 252.22854565745794 0.005719012009999602
    vertex -193.2355000886333 252.22854565745794 2.005719012009996
    vertex -193.82424983344998 250.36127002690475 0.005719012009999602
  endloop
endfacet
facet normal 0.9537169507482253 -0.3007057995042783 0.0
  outer loop
    vertex -193.82424983344998 250.36127002690475 2.005719012009996
    vertex -193.82424983344998 250.36127002690475 0.005719012009999602
    vertex -193.2355000886333 252.22854565745794 2.005719012009996
  endloop
endfacet
facet normal 0.9990482215818582 -0.043619387365323864 0.0
  outer loop
    vertex -193.1500980005368 254.18457506056743 0.005719012009999602
    vertex -193.1500980005368 254.18457506056743 2.005719012009996
    vertex -193.2355000886333 252.22854565745794 0.005719012009999602
  endloop
endfacet
facet normal 0.9990482215818582 -0.043619387365323864 0.0
  outer loop
    vertex -193.2355000886333 252.22854565745794 2.005719012009996
    vertex -193.2355000886333 252.22854565745794 0.005719012009999602
    vertex -193.1500980005368 254.18457506056743 2.005719012009996
  endloop
endfacet
facet normal 0.9387346831405857 0.34464067471635457 0.0
  outer loop
    vertex -199.35272288797307 271.8365555135529 0.005719012009999602
    vertex -199.35272288797307 271.8365555135529 2.005719012009996
    vertex -193.57386358033042 256.0960580649025 0.005719012009999602
  endloop
endfacet
facet normal 0.9387346831405857 0.34464067471635457 0.0
  outer loop
    vertex -193.57386358033042 256.0960580649025 2.005719012009996
    vertex -193.57386358033042 256.0960580649025 0.005719012009999602
    vertex -199.35272288797307 271.8365555135529 2.005719012009996
  endloop
endfacet
facet normal 0.4422886902189904 0.8968727415326938 0.0
  outer loop
    vertex -203.87613178455973 277.1484116280182 0.005719012009999602
    vertex -204.7888514354407 277.59851514909906 0.005719012009999602
    vertex -203.87613178455973 277.1484116280182 2.005719012009996
  endloop
endfacet
facet normal 0.4422886902189904 0.8968727415326938 0.0
  outer loop
    vertex -204.7888514354407 277.59851514909906 2.005719012009996
    vertex -203.87613178455973 277.1484116280182 2.005719012009996
    vertex -204.7888514354407 277.59851514909906 0.005719012009999602
  endloop
endfacet
facet normal -0.3007057995042938 -0.9537169507482204 0.0
  outer loop
    vertex -203.79119519928025 246.73359858718524 0.005719012009999602
    vertex -201.9239195687269 246.14484884236848 0.005719012009999602
    vertex -203.79119519928025 246.73359858718524 2.005719012009996
  endloop
endfacet
facet normal -0.3007057995042938 -0.9537169507482204 0.0
  outer loop
    vertex -201.9239195687269 246.14484884236848 2.005719012009996
    vertex -203.79119519928025 246.73359858718524 2.005719012009996
    vertex -201.9239195687269 246.14484884236848 0.005719012009999602
  endloop
endfacet
facet normal -0.04361938736532588 -0.9990482215818582 0.0
  outer loop
    vertex -201.9239195687269 246.14484884236848 0.005719012009999602
    vertex -199.9678901656175 246.05944675427196 0.005719012009999602
    vertex -201.9239195687269 246.14484884236848 2.005719012009996
  endloop
endfacet
facet normal -0.04361938736532588 -0.9990482215818582 0.0
  outer loop
    vertex -199.9678901656175 246.05944675427196 2.005719012009996
    vertex -201.9239195687269 246.14484884236848 2.005719012009996
    vertex -199.9678901656175 246.05944675427196 0.005719012009999602
  endloop
endfacet
facet normal 0.8433914458128632 -0.5372996083468592 0.0
  outer loop
    vertex -193.82424983344998 250.36127002690475 0.005719012009999602
    vertex -193.82424983344998 250.36127002690475 2.005719012009996
    vertex -194.87622491283264 248.7099999173109 0.005719012009999602
  endloop
endfacet
facet normal 0.8433914458128632 -0.5372996083468592 0.0
  outer loop
    vertex -194.87622491283264 248.7099999173109 2.005719012009996
    vertex -194.87622491283264 248.7099999173109 0.005719012009999602
    vertex -193.82424983344998 250.36127002690475 2.005719012009996
  endloop
endfacet
facet normal -0.7372773368101182 -0.6755902076156666 0.0
  outer loop
    vertex -206.76519856839238 249.22908371732726 2.005719012009996
    vertex -206.76519856839238 249.22908371732726 0.005719012009999602
    vertex -205.442465308874 247.7855736665678 2.005719012009996
  endloop
endfacet
facet normal -0.7372773368101182 -0.6755902076156666 0.0
  outer loop
    vertex -205.442465308874 247.7855736665678 0.005719012009999602
    vertex -205.442465308874 247.7855736665678 2.005719012009996
    vertex -206.76519856839238 249.22908371732726 0.005719012009999602
  endloop
endfacet
facet normal 0.9762960071199471 0.2164396139380414 0.0
  outer loop
    vertex -193.57386358033042 256.0960580649025 0.005719012009999602
    vertex -193.57386358033042 256.0960580649025 2.005719012009996
    vertex -193.1500980005368 254.18457506056743 0.005719012009999602
  endloop
endfacet
facet normal 0.9762960071199471 0.2164396139380414 0.0
  outer loop
    vertex -193.1500980005368 254.18457506056743 2.005719012009996
    vertex -193.1500980005368 254.18457506056743 0.005719012009999602
    vertex -193.57386358033042 256.0960580649025 2.005719012009996
  endloop
endfacet
facet normal -0.5372996083468472 -0.8433914458128707 0.0
  outer loop
    vertex -205.442465308874 247.7855736665678 0.005719012009999602
    vertex -203.79119519928025 246.73359858718524 0.005719012009999602
    vertex -205.442465308874 247.7855736665678 2.005719012009996
  endloop
endfacet
facet normal -0.5372996083468472 -0.8433914458128707 0.0
  outer loop
    vertex -203.79119519928025 246.73359858718524 2.005719012009996
    vertex -205.442465308874 247.7855736665678 2.005719012009996
    vertex -203.79119519928025 246.73359858718524 0.005719012009999602
  endloop
endfacet
facet normal 0.4617486132350272 -0.8870108331782254 0.0
  outer loop
    vertex -198.05640716128244 246.4832123340657 0.005719012009999602
    vertex -196.31973496359217 247.38726665779254 0.005719012009999602
    vertex -198.05640716128244 246.4832123340657 2.005719012009996
  endloop
endfacet
facet normal 0.4617486132350272 -0.8870108331782254 0.0
  outer loop
    vertex -196.31973496359217 247.38726665779254 2.005719012009996
    vertex -198.05640716128244 246.4832123340657 2.005719012009996
    vertex -196.31973496359217 247.38726665779254 0.005719012009999602
  endloop
endfacet
facet normal 0.0 0.0 1.0
  outer loop
    vertex -204.7888514354407 277.59851514909906 2.005719012009996
    vertex -204.00427360905988 255.72686616775493 2.0057190712145605
    vertex -203.87613178455973 277.1484116280182 2.005719012009996
  endloop
endfacet
facet normal 0.0 0.0 1.0
  outer loop
    vertex -203.8420416939909 255.95855735389105 2.005719063191824
    vertex -203.87613178455973 277.1484116280182 2.005719012009996
    vertex -204.00427360905988 255.72686616775493 2.0057190712145605
  endloop
endfacet
facet normal 0.0 0.0 1.0
  outer loop
    vertex -203.01388473232177 276.6078745231862 2.005719012009996
    vertex -203.87613178455973 277.1484116280182 2.005719012009996
    vertex -203.8420416939909 255.95855735389105 2.005719063191824
  endloop
endfacet
facet normal 0.0 0.0 1.0
  outer loop
    vertex -202.3301004149035 256.02206808886666 2.005719012009951
    vertex -203.01388473232177 276.6078745231862 2.005719012009996
    vertex -203.8420416939909 255.95855735389105 2.005719063191824
  endloop
endfacet
facet normal 0.0 0.0 1.0
  outer loop
    vertex -202.21104014326153 275.98250190897113 2.005719012009996
    vertex -203.01388473232177 276.6078745231862 2.005719012009996
    vertex -202.3301004149035 256.02206808886666 2.005719012009951
  endloop
endfacet
facet normal 0.0 0.0 1.0
  outer loop
    vertex -199.86808105245 256.4561885458913 2.005719066310797
    vertex -202.21104014326153 275.98250190897113 2.005719012009996
    vertex -202.3301004149035 256.02206808886666 2.005719012009951
  endloop
endfacet
facet normal 0.0 0.0 1.0
  outer loop
    vertex -201.47591268010177 275.2787704589836 2.005719012009996
    vertex -202.21104014326153 275.98250190897113 2.005719012009996
    vertex -199.86808105245 256.4561885458913 2.005719066310797
  endloop
endfacet
facet normal 0.0 0.0 1.0
  outer loop
    vertex -200.8161156929198 274.50396837038346 2.005719012009996
    vertex -201.47591268010177 275.2787704589836 2.005719012009996
    vertex -199.86808105245 256.4561885458913 2.005719066310797
  endloop
endfacet
facet normal 0.0 0.0 1.0
  outer loop
    vertex -200.2384823714622 273.66611988364184 2.005719012009996
    vertex -200.8161156929198 274.50396837038346 2.005719012009996
    vertex -199.86808105245 256.4561885458913 2.005719066310797
  endloop
endfacet
facet normal 0.0 0.0 1.0
  outer loop
    vertex -199.74899497719102 272.77390217946703 2.005719012009996
    vertex -200.2384823714622 273.66611988364184 2.005719012009996
    vertex -199.86808105245 256.4561885458913 2.005719066310797
  endloop
endfacet
facet normal 0.0 0.0 1.0
  outer loop
    vertex -198.42559905842998 256.91362236279497 2.005719071214583
    vertex -199.74899497719102 272.77390217946703 2.005719012009996
    vertex -199.86808105245 256.4561885458913 2.005719066310797
  endloop
endfacet
facet normal 0.0 0.0 1.0
  outer loop
    vertex -199.35272288797307 271.8365555135529 2.005719012009996
    vertex -199.74899497719102 272.77390217946703 2.005719012009996
    vertex -198.42559905842998 256.91362236279497 2.005719071214583
  endloop
endfacet
facet normal 0.0 0.0 1.0
  outer loop
    vertex -193.57386358033042 256.0960580649025 2.005719012009996
    vertex -199.35272288797307 271.8365555135529 2.005719012009996
    vertex -198.42559905842998 256.91362236279497 2.005719071214583
  endloop
endfacet
facet normal 0.0 0.0 1.0
  outer loop
    vertex -198.19390787229386 256.75139044772607 2.005719063191846
    vertex -193.57386358033042 256.0960580649025 2.005719012009996
    vertex -198.42559905842998 256.91362236279497 2.005719071214583
  endloop
endfacet
facet normal 0.0 0.0 1.0
  outer loop
    vertex -198.13039713731843 255.2394491686388 2.0057190120099735
    vertex -193.57386358033042 256.0960580649025 2.005719012009996
    vertex -198.19390787229386 256.75139044772607 2.005719063191846
  endloop
endfacet
facet normal 0.0 0.0 1.0
  outer loop
    vertex -197.69627668029338 252.77742980618626 2.005719066310797
    vertex -193.57386358033042 256.0960580649025 2.005719012009996
    vertex -198.13039713731843 255.2394491686388 2.0057190120099735
  endloop
endfacet
facet normal 0.0 0.0 1.0
  outer loop
    vertex -197.23884286338952 251.33494781216586 2.005719071214583
    vertex -193.57386358033042 256.0960580649025 2.005719012009996
    vertex -197.69627668029338 252.77742980618626 2.005719066310797
  endloop
endfacet
facet normal 0.0 0.0 1.0
  outer loop
    vertex -196.31973496359217 247.38726665779254 2.005719012009996
    vertex -193.57386358033042 256.0960580649025 2.005719012009996
    vertex -197.23884286338952 251.33494781216586 2.005719071214583
  endloop
endfacet
facet normal 0.0 0.0 1.0
  outer loop
    vertex -194.87622491283264 248.7099999173109 2.005719012009996
    vertex -193.57386358033042 256.0960580649025 2.005719012009996
    vertex -196.31973496359217 247.38726665779254 2.005719012009996
  endloop
endfacet
facet normal 0.0 0.0 1.0
  outer loop
    vertex -193.82424983344998 250.36127002690475 2.005719012009996
    vertex -193.57386358033042 256.0960580649025 2.005719012009996
    vertex -194.87622491283264 248.7099999173109 2.005719012009996
  endloop
endfacet
facet normal 0.0 0.0 1.0
  outer loop
    vertex -193.2355000886333 252.22854565745794 2.005719012009996
    vertex -193.57386358033042 256.0960580649025 2.005719012009996
    vertex -193.82424983344998 250.36127002690475 2.005719012009996
  endloop
endfacet
facet normal 0.0 0.0 1.0
  outer loop
    vertex -193.1500980005368 254.18457506056743 2.005719012009996
    vertex -193.57386358033042 256.0960580649025 2.005719012009996
    vertex -193.2355000886333 252.22854565745794 2.005719012009996
  endloop
endfacet
facet normal 0.0 0.0 1.0
  outer loop
    vertex -226.74757371373514 273.4163540802961 2.005719012009996
    vertex -226.57720284518047 272.1222588547835 2.005719012009996
    vertex -226.57720284518047 274.7104493058087 2.005719012009996
  endloop
endfacet
facet normal 0.0 0.0 1.0
  outer loop
    vertex -226.07770073265732 275.9163540802961 2.005719012009996
    vertex -226.57720284518047 274.7104493058087 2.005719012009996
    vertex -226.57720284518047 272.1222588547835 2.005719012009996
  endloop
endfacet
facet normal 0.0 0.0 1.0
  outer loop
    vertex -226.07770073265732 270.9163540802962 2.005719012009996
    vertex -226.07770073265732 275.9163540802961 2.005719012009996
    vertex -226.57720284518047 272.1222588547835 2.005719012009996
  endloop
endfacet
facet normal 0.0 0.0 1.0
  outer loop
    vertex -225.28310761966782 276.9518879862288 2.005719012009996
    vertex -226.07770073265732 275.9163540802961 2.005719012009996
    vertex -226.07770073265732 270.9163540802962 2.005719012009996
  endloop
endfacet
facet normal 0.0 0.0 1.0
  outer loop
    vertex -225.28310761966782 269.8808201743634 2.005719012009996
    vertex -225.28310761966782 276.9518879862288 2.005719012009996
    vertex -226.07770073265732 270.9163540802962 2.005719012009996
  endloop
endfacet
facet normal 0.0 0.0 1.0
  outer loop
    vertex -224.24757371373516 277.7464810992183 2.005719012009996
    vertex -225.28310761966782 276.9518879862288 2.005719012009996
    vertex -225.28310761966782 269.8808201743634 2.005719012009996
  endloop
endfacet
facet normal 0.0 0.0 1.0
  outer loop
    vertex -224.24757371373516 269.086227061374 2.005719012009996
    vertex -224.24757371373516 277.7464810992183 2.005719012009996
    vertex -225.28310761966782 269.8808201743634 2.005719012009996
  endloop
endfacet
facet normal 0.0 0.0 1.0
  outer loop
    vertex -223.04166893924787 278.2459832117414 2.005719012009996
    vertex -224.24757371373516 277.7464810992183 2.005719012009996
    vertex -224.24757371373516 269.086227061374 2.005719012009996
  endloop
endfacet
facet normal 0.0 0.0 1.0
  outer loop
    vertex -223.04166893924787 268.5867249488509 2.005719012009996
    vertex -223.04166893924787 278.2459832117414 2.005719012009996
    vertex -224.24757371373516 269.086227061374 2.005719012009996
  endloop
endfacet
facet normal 0.0 0.0 1.0
  outer loop
    vertex -221.7475737137352 278.41635408029606 2.005719012009996
    vertex -223.04166893924787 278.2459832117414 2.005719012009996
    vertex -223.04166893924787 268.5867249488509 2.005719012009996
  endloop
endfacet
facet normal 0.0 0.0 1.0
  outer loop
    vertex -221.7475737137352 268.4163540802962 2.005719012009996
    vertex -221.7475737137352 278.41635408029606 2.005719012009996
    vertex -223.04166893924787 268.5867249488509 2.005719012009996
  endloop
endfacet
facet normal 0.0 0.0 1.0
  outer loop
    vertex -208.74964909583227 278.41635408029606 2.005719012009996
    vertex -221.7475737137352 278.41635408029606 2.005719012009996
    vertex -221.7475737137352 268.4163540802962 2.005719012009996
  endloop
endfacet
facet normal 0.0 0.0 1.0
  outer loop
    vertex -214.0705379582116 268.4163540802962 2.005719012009996
    vertex -208.74964909583227 278.41635408029606 2.005719012009996
    vertex -221.7475737137352 268.4163540802962 2.005719012009996
  endloop
endfacet
facet normal 0.0 0.0 1.0
  outer loop
    vertex -207.66925289211932 250.9657559150176 2.005719012009996
    vertex -208.74964909583227 278.41635408029606 2.005719012009996
    vertex -214.0705379582116 268.4163540802962 2.005719012009996
  endloop
endfacet
facet normal 0.0 0.0 1.0
  outer loop
    vertex -207.7332983140043 278.3645715632566 2.005719012009996
    vertex -208.74964909583227 278.41635408029606 2.005719012009996
    vertex -207.66925289211932 250.9657559150176 2.005719012009996
  endloop
endfacet
facet normal 0.0 0.0 1.0
  outer loop
    vertex -206.72747337251195 278.2097602979518 2.005719012009996
    vertex -207.7332983140043 278.3645715632566 2.005719012009996
    vertex -207.66925289211932 250.9657559150176 2.005719012009996
  endloop
endfacet
facet normal 0.0 0.0 1.0
  outer loop
    vertex -206.76519856839238 249.22908371732726 2.005719012009996
    vertex -206.72747337251195 278.2097602979518 2.005719012009996
    vertex -207.66925289211932 250.9657559150176 2.005719012009996
  endloop
endfacet
facet normal 0.0 0.0 1.0
  outer loop
    vertex -205.442465308874 247.7855736665678 2.005719012009996
    vertex -206.72747337251195 278.2097602979518 2.005719012009996
    vertex -206.76519856839238 249.22908371732726 2.005719012009996
  endloop
endfacet
facet normal 0.0 0.0 1.0
  outer loop
    vertex -205.74259110078953 277.9535235877786 2.005719012009996
    vertex -206.72747337251195 278.2097602979518 2.005719012009996
    vertex -205.442465308874 247.7855736665678 2.005719012009996
  endloop
endfacet
facet normal 0.0 0.0 1.0
  outer loop
    vertex -204.7888514354407 277.59851514909906 2.005719012009996
    vertex -205.74259110078953 277.9535235877786 2.005719012009996
    vertex -205.442465308874 247.7855736665678 2.005719012009996
  endloop
endfacet
facet normal 0.0 0.0 1.0
  outer loop
    vertex -203.79119519928025 246.73359858718524 2.005719012009996
    vertex -204.7888514354407 277.59851514909906 2.005719012009996
    vertex -205.442465308874 247.7855736665678 2.005719012009996
  endloop
endfacet
facet normal 0.0 0.0 1.0
  outer loop
    vertex -204.00427360905988 255.72686616775493 2.0057190712145605
    vertex -204.7888514354407 277.59851514909906 2.005719012009996
    vertex -203.79119519928025 246.73359858718524 2.005719012009996
  endloop
endfacet
facet normal 0.0 0.0 1.0
  outer loop
    vertex -203.5468397921562 254.2843841737347 2.0057190663107742
    vertex -204.00427360905988 255.72686616775493 2.0057190712145605
    vertex -203.79119519928025 246.73359858718524 2.005719012009996
  endloop
endfacet
facet normal 0.0 0.0 1.0
  outer loop
    vertex -203.04920860015568 250.3104235321944 2.0057190631918687
    vertex -203.5468397921562 254.2843841737347 2.0057190663107742
    vertex -203.79119519928025 246.73359858718524 2.005719012009996
  endloop
endfacet
facet normal 0.0 0.0 1.0
  outer loop
    vertex -201.9239195687269 246.14484884236848 2.005719012009996
    vertex -203.04920860015568 250.3104235321944 2.0057190631918687
    vertex -203.79119519928025 246.73359858718524 2.005719012009996
  endloop
endfacet
facet normal 0.0 0.0 1.0
  outer loop
    vertex -203.1127193351313 251.8223648112814 2.005719012009996
    vertex -203.5468397921562 254.2843841737347 2.0057190663107742
    vertex -203.04920860015568 250.3104235321944 2.0057190631918687
  endloop
endfacet
facet normal 0.0 0.0 1.0
  outer loop
    vertex -202.8175174140196 250.1481916171254 2.005719071214606
    vertex -203.04920860015568 250.3104235321944 2.0057190631918687
    vertex -201.9239195687269 246.14484884236848 2.005719012009996
  endloop
endfacet
facet normal 0.0 0.0 1.0
  outer loop
    vertex -201.37503541999953 250.6056254340291 2.0057190663108195
    vertex -202.8175174140196 250.1481916171254 2.005719071214606
    vertex -201.9239195687269 246.14484884236848 2.005719012009996
  endloop
endfacet
facet normal 0.0 0.0 1.0
  outer loop
    vertex -199.9678901656175 246.05944675427196 2.005719012009996
    vertex -201.37503541999953 250.6056254340291 2.0057190663108195
    vertex -201.9239195687269 246.14484884236848 2.005719012009996
  endloop
endfacet
facet normal 0.0 0.0 1.0
  outer loop
    vertex -198.91301605754586 251.03974589105417 2.0057190120099735
    vertex -201.37503541999953 250.6056254340291 2.0057190663108195
    vertex -199.9678901656175 246.05944675427196 2.005719012009996
  endloop
endfacet
facet normal 0.0 0.0 1.0
  outer loop
    vertex -198.05640716128244 246.4832123340657 2.005719012009996
    vertex -198.91301605754586 251.03974589105417 2.0057190120099735
    vertex -199.9678901656175 246.05944675427196 2.005719012009996
  endloop
endfacet
facet normal 0.0 0.0 1.0
  outer loop
    vertex -197.40107477845885 251.10325662603003 2.005719063191846
    vertex -198.91301605754586 251.03974589105417 2.0057190120099735
    vertex -198.05640716128244 246.4832123340657 2.005719012009996
  endloop
endfacet
facet normal 0.0 0.0 1.0
  outer loop
    vertex -196.31973496359217 247.38726665779254 2.005719012009996
    vertex -197.40107477845885 251.10325662603003 2.005719063191846
    vertex -198.05640716128244 246.4832123340657 2.005719012009996
  endloop
endfacet
facet normal 0.0 0.0 1.0
  outer loop
    vertex -197.23884286338952 251.33494781216586 2.005719071214583
    vertex -197.40107477845885 251.10325662603003 2.005719063191846
    vertex -196.31973496359217 247.38726665779254 2.005719012009996
  endloop
endfacet
facet normal 0.5311521392609612 0.8472764631208072 0.0
  outer loop
    vertex -203.01388473232177 276.6078745231862 0.005719012009999602
    vertex -203.87613178455973 277.1484116280182 0.005719012009999602
    vertex -203.01388473232177 276.6078745231862 2.005719012009996
  endloop
endfacet
facet normal 0.5311521392609612 0.8472764631208072 0.0
  outer loop
    vertex -203.87613178455973 277.1484116280182 2.005719012009996
    vertex -203.01388473232177 276.6078745231862 2.005719012009996
    vertex -203.87613178455973 277.1484116280182 0.005719012009999602
  endloop
endfacet
facet normal 0.21643961393808528 -0.9762960071199372 0.0
  outer loop
    vertex -199.9678901656175 246.05944675427196 0.005719012009999602
    vertex -198.05640716128244 246.4832123340657 0.005719012009999602
    vertex -199.9678901656175 246.05944675427196 2.005719012009996
  endloop
endfacet
facet normal 0.21643961393808528 -0.9762960071199372 0.0
  outer loop
    vertex -198.05640716128244 246.4832123340657 2.005719012009996
    vertex -199.9678901656175 246.05944675427196 2.005719012009996
    vertex -198.05640716128244 246.4832123340657 0.005719012009999602
  endloop
endfacet
facet normal 0.15212338618994733 0.9883615104677561 0.0
  outer loop
    vertex -206.72747337251195 278.2097602979518 0.005719012009999602
    vertex -207.7332983140043 278.3645715632566 0.005719012009999602
    vertex -206.72747337251195 278.2097602979518 2.005719012009996
  endloop
endfacet
facet normal 0.15212338618994733 0.9883615104677561 0.0
  outer loop
    vertex -207.7332983140043 278.3645715632566 2.005719012009996
    vertex -206.72747337251195 278.2097602979518 2.005719012009996
    vertex -207.7332983140043 278.3645715632566 0.005719012009999602
  endloop
endfacet
facet normal -0.0 0.0 -1.0
  outer loop
    vertex -226.74757371373514 273.4163540802961 0.005719012009999602
    vertex -226.57720284518047 274.7104493058087 0.005719012009999602
    vertex -226.57720284518047 272.1222588547835 0.005719012009999602
  endloop
endfacet
facet normal -0.0 0.0 -1.0
  outer loop
    vertex -226.07770073265732 270.9163540802962 0.005719012009999602
    vertex -226.57720284518047 272.1222588547835 0.005719012009999602
    vertex -226.57720284518047 274.7104493058087 0.005719012009999602
  endloop
endfacet
facet normal -0.0 0.0 -1.0
  outer loop
    vertex -226.07770073265732 275.9163540802961 0.005719012009999602
    vertex -226.07770073265732 270.9163540802962 0.005719012009999602
    vertex -226.57720284518047 274.7104493058087 0.005719012009999602
  endloop
endfacet
facet normal -0.0 0.0 -1.0
  outer loop
    vertex -225.28310761966782 269.8808201743634 0.005719012009999602
    vertex -226.07770073265732 270.9163540802962 0.005719012009999602
    vertex -226.07770073265732 275.9163540802961 0.005719012009999602
  endloop
endfacet
facet normal -0.0 0.0 -1.0
  outer loop
    vertex -225.28310761966782 276.9518879862288 0.005719012009999602
    vertex -225.28310761966782 269.8808201743634 0.005719012009999602
    vertex -226.07770073265732 275.9163540802961 0.005719012009999602
  endloop
endfacet
facet normal -0.0 0.0 -1.0
  outer loop
    vertex -224.24757371373516 269.086227061374 0.005719012009999602
    vertex -225.28310761966782 269.8808201743634 0.005719012009999602
    vertex -225.28310761966782 276.9518879862288 0.005719012009999602
  endloop
endfacet
facet normal -0.0 0.0 -1.0
  outer loop
    vertex -224.24757371373516 277.7464810992183 0.005719012009999602
    vertex -224.24757371373516 269.086227061374 0.005719012009999602
    vertex -225.28310761966782 276.9518879862288 0.005719012009999602
  endloop
endfacet
facet normal -0.0 0.0 -1.0
  outer loop
    vertex -223.04166893924787 268.5867249488509 0.005719012009999602
    vertex -224.24757371373516 269.086227061374 0.005719012009999602
    vertex -224.24757371373516 277.7464810992183 0.005719012009999602
  endloop
endfacet
facet normal -0.0 0.0 -1.0
  outer loop
    vertex -223.04166893924787 278.2459832117414 0.005719012009999602
    vertex -223.04166893924787 268.5867249488509 0.005719012009999602
    vertex -224.24757371373516 277.7464810992183 0.005719012009999602
  endloop
endfacet
facet normal -0.0 0.0 -1.0
  outer loop
    vertex -221.7475737137352 268.4163540802962 0.005719012009999602
    vertex -223.04166893924787 268.5867249488509 0.005719012009999602
    vertex -223.04166893924787 278.2459832117414 0.005719012009999602
  endloop
endfacet
facet normal -0.0 0.0 -1.0
  outer loop
    vertex -221.7475737137352 278.41635408029606 0.005719012009999602
    vertex -221.7475737137352 268.4163540802962 0.005719012009999602
    vertex -223.04166893924787 278.2459832117414 0.005719012009999602
  endloop
endfacet
facet normal -0.0 0.0 -1.0
  outer loop
    vertex -214.0705379582116 268.4163540802962 0.005719012009999602
    vertex -221.7475737137352 268.4163540802962 0.005719012009999602
    vertex -221.7475737137352 278.41635408029606 0.005719012009999602
  endloop
endfacet
facet normal -0.0 0.0 -1.0
  outer loop
    vertex -208.74964909583227 278.41635408029606 0.005719012009999602
    vertex -214.0705379582116 268.4163540802962 0.005719012009999602
    vertex -221.7475737137352 278.41635408029606 0.005719012009999602
  endloop
endfacet
facet normal -0.0 0.0 -1.0
  outer loop
    vertex -207.66925289211932 250.9657559150176 0.005719012009999602
    vertex -214.0705379582116 268.4163540802962 0.005719012009999602
    vertex -208.74964909583227 278.41635408029606 0.005719012009999602
  endloop
endfacet
facet normal -0.0 0.0 -1.0
  outer loop
    vertex -207.7332983140043 278.3645715632566 0.005719012009999602
    vertex -207.66925289211932 250.9657559150176 0.005719012009999602
    vertex -208.74964909583227 278.41635408029606 0.005719012009999602
  endloop
endfacet
facet normal -0.0 0.0 -1.0
  outer loop
    vertex -206.72747337251195 278.2097602979518 0.005719012009999602
    vertex -207.66925289211932 250.9657559150176 0.005719012009999602
    vertex -207.7332983140043 278.3645715632566 0.005719012009999602
  endloop
endfacet
facet normal -0.0 0.0 -1.0
  outer loop
    vertex -206.76519856839238 249.22908371732726 0.005719012009999602
    vertex -207.66925289211932 250.9657559150176 0.005719012009999602
    vertex -206.72747337251195 278.2097602979518 0.005719012009999602
  endloop
endfacet
facet normal -0.0 0.0 -1.0
  outer loop
    vertex -205.442465308874 247.7855736665678 0.005719012009999602
    vertex -206.76519856839238 249.22908371732726 0.005719012009999602
    vertex -206.72747337251195 278.2097602979518 0.005719012009999602
  endloop
endfacet
facet normal -0.0 0.0 -1.0
  outer loop
    vertex -205.74259110078953 277.9535235877786 0.005719012009999602
    vertex -205.442465308874 247.7855736665678 0.005719012009999602
    vertex -206.72747337251195 278.2097602979518 0.005719012009999602
  endloop
endfacet
facet normal -0.0 0.0 -1.0
  outer loop
    vertex -204.7888514354407 277.59851514909906 0.005719012009999602
    vertex -205.442465308874 247.7855736665678 0.005719012009999602
    vertex -205.74259110078953 277.9535235877786 0.005719012009999602
  endloop
endfacet
facet normal -0.0 0.0 -1.0
  outer loop
    vertex -204.09692605933026 255.96438569629547 0.005719063487337195
    vertex -205.442465308874 247.7855736665678 0.005719012009999602
    vertex -204.7888514354407 277.59851514909906 0.005719012009999602
  endloop
endfacet
facet normal -0.0 0.0 -1.0
  outer loop
    vertex -203.79119519928025 246.73359858718524 0.005719012009999602
    vertex -205.442465308874 247.7855736665678 0.005719012009999602
    vertex -204.09692605933026 255.96438569629547 0.005719063487337195
  endloop
endfacet
facet normal -0.0 0.0 -1.0
  outer loop
    vertex -203.05503698939629 250.05553915030427 0.00571907121460935
    vertex -203.79119519928025 246.73359858718524 0.005719012009999602
    vertex -204.09692605933026 255.96438569629547 0.005719063487337195
  endloop
endfacet
facet normal -0.0 0.0 -1.0
  outer loop
    vertex -201.9239195687269 246.14484884236848 0.005719012009999602
    vertex -203.79119519928025 246.73359858718524 0.005719012009999602
    vertex -203.05503698939629 250.05553915030427 0.00571907121460935
  endloop
endfacet
facet normal -0.0 0.0 -1.0
  outer loop
    vertex -197.14619044762017 251.09742824835374 0.005719069282796951
    vertex -201.9239195687269 246.14484884236848 0.005719012009999602
    vertex -203.05503698939629 250.05553915030427 0.00571907121460935
  endloop
endfacet
facet normal -0.0 0.0 -1.0
  outer loop
    vertex -199.9678901656175 246.05944675427196 0.005719012009999602
    vertex -201.9239195687269 246.14484884236848 0.005719012009999602
    vertex -197.14619044762017 251.09742824835374 0.005719069282796951
  endloop
endfacet
facet normal -0.0 0.0 -1.0
  outer loop
    vertex -198.05640716128244 246.4832123340657 0.005719012009999602
    vertex -199.9678901656175 246.05944675427196 0.005719012009999602
    vertex -197.14619044762017 251.09742824835374 0.005719069282796951
  endloop
endfacet
facet normal -0.0 0.0 -1.0
  outer loop
    vertex -196.31973496359217 247.38726665779254 0.005719012009999602
    vertex -198.05640716128244 246.4832123340657 0.005719012009999602
    vertex -197.14619044762017 251.09742824835374 0.005719069282796951
  endloop
endfacet
facet normal -0.0 0.0 -1.0
  outer loop
    vertex -204.7888514354407 277.59851514909906 0.005719012009999602
    vertex -203.87613178455973 277.1484116280182 0.005719012009999602
    vertex -204.09692605933026 255.96438569629547 0.005719063487337195
  endloop
endfacet
facet normal -0.0 0.0 -1.0
  outer loop
    vertex -198.18807954125703 257.00627476229687 0.005719063487337195
    vertex -204.09692605933026 255.96438569629547 0.005719063487337195
    vertex -203.87613178455973 277.1484116280182 0.005719012009999602
  endloop
endfacet
facet normal -0.0 0.0 -1.0
  outer loop
    vertex -203.01388473232177 276.6078745231862 0.005719012009999602
    vertex -198.18807954125703 257.00627476229687 0.005719063487337195
    vertex -203.87613178455973 277.1484116280182 0.005719012009999602
  endloop
endfacet
facet normal -0.0 0.0 -1.0
  outer loop
    vertex -202.21104014326153 275.98250190897113 0.005719012009999602
    vertex -198.18807954125703 257.00627476229687 0.005719063487337195
    vertex -203.01388473232177 276.6078745231862 0.005719012009999602
  endloop
endfacet
facet normal -0.0 0.0 -1.0
  outer loop
    vertex -201.47591268010177 275.2787704589836 0.005719012009999602
    vertex -198.18807954125703 257.00627476229687 0.005719063487337195
    vertex -202.21104014326153 275.98250190897113 0.005719012009999602
  endloop
endfacet
facet normal -0.0 0.0 -1.0
  outer loop
    vertex -200.8161156929198 274.50396837038346 0.005719012009999602
    vertex -198.18807954125703 257.00627476229687 0.005719063487337195
    vertex -201.47591268010177 275.2787704589836 0.005719012009999602
  endloop
endfacet
facet normal -0.0 0.0 -1.0
  outer loop
    vertex -200.2384823714622 273.66611988364184 0.005719012009999602
    vertex -198.18807954125703 257.00627476229687 0.005719063487337195
    vertex -200.8161156929198 274.50396837038346 0.005719012009999602
  endloop
endfacet
facet normal -0.0 0.0 -1.0
  outer loop
    vertex -199.74899497719102 272.77390217946703 0.005719012009999602
    vertex -198.18807954125703 257.00627476229687 0.005719063487337195
    vertex -200.2384823714622 273.66611988364184 0.005719012009999602
  endloop
endfacet
facet normal -0.0 0.0 -1.0
  outer loop
    vertex -199.35272288797307 271.8365555135529 0.005719012009999602
    vertex -198.18807954125703 257.00627476229687 0.005719063487337195
    vertex -199.74899497719102 272.77390217946703 0.005719012009999602
  endloop
endfacet
facet normal -0.0 0.0 -1.0
  outer loop
    vertex -193.57386358033042 256.0960580649025 0.005719012009999602
    vertex -198.18807954125703 257.00627476229687 0.005719063487337195
    vertex -199.35272288797307 271.8365555135529 0.005719012009999602
  endloop
endfacet
facet normal -0.0 0.0 -1.0
  outer loop
    vertex -197.14619044762017 251.09742824835374 0.005719069282796951
    vertex -198.18807954125703 257.00627476229687 0.005719063487337195
    vertex -193.57386358033042 256.0960580649025 0.005719012009999602
  endloop
endfacet
facet normal -0.0 0.0 -1.0
  outer loop
    vertex -196.31973496359217 247.38726665779254 0.005719012009999602
    vertex -197.14619044762017 251.09742824835374 0.005719069282796951
    vertex -193.57386358033042 256.0960580649025 0.005719012009999602
  endloop
endfacet
facet normal -0.0 0.0 -1.0
  outer loop
    vertex -194.87622491283264 248.7099999173109 0.005719012009999602
    vertex -196.31973496359217 247.38726665779254 0.005719012009999602
    vertex -193.57386358033042 256.0960580649025 0.005719012009999602
  endloop
endfacet
facet normal -0.0 0.0 -1.0
  outer loop
    vertex -193.82424983344998 250.36127002690475 0.005719012009999602
    vertex -194.87622491283264 248.7099999173109 0.005719012009999602
    vertex -193.57386358033042 256.0960580649025 0.005719012009999602
  endloop
endfacet
facet normal -0.0 0.0 -1.0
  outer loop
    vertex -193.2355000886333 252.22854565745794 0.005719012009999602
    vertex -193.82424983344998 250.36127002690475 0.005719012009999602
    vertex -193.57386358033042 256.0960580649025 0.005719012009999602
  endloop
endfacet
facet normal -0.0 0.0 -1.0
  outer loop
    vertex -193.1500980005368 254.18457506056743 0.005719012009999602
    vertex -193.2355000886333 252.22854565745794 0.005719012009999602
    vertex -193.57386358033042 256.0960580649025 0.005719012009999602
  endloop
endfacet
facet normal -0.9238795325112836 0.3826834323650976 0.0
  outer loop
    vertex -226.07770073265732 275.9163540802961 2.005719012009996
    vertex -226.07770073265732 275.9163540802961 0.005719012009999602
    vertex -226.57720284518047 274.7104493058087 2.005719012009996
  endloop
endfacet
facet normal -0.9238795325112836 0.3826834323650976 0.0
  outer loop
    vertex -226.57720284518047 274.7104493058087 0.005719012009999602
    vertex -226.57720284518047 274.7104493058087 2.005719012009996
    vertex -226.07770073265732 275.9163540802961 0.005719012009999602
  endloop
endfacet
endsolid ProtoGlove
