solid ProtoGlove
facet normal -3.5932020021337465e-16 0.6087614290087409 0.7933533402912196
  outer loop
    vertex -300.00000000000017 -128.61816900000065 -0.2180015462982837
    vertex -324.89644660940684 -128.5146156094074 -0.29746085759723706
    vertex -325.0000000000001 -128.61816900000065 -0.21800154629829496
  endloop
endfacet
facet normal -3.5932020021337465e-16 0.6087614290087409 0.7933533402912196
  outer loop
    vertex -324.89644660940684 -128.5146156094074 -0.29746085759723706
    vertex -300.00000000000017 -128.61816900000065 -0.2180015462982837
    vertex -300.10355339059345 -128.5146156094074 -0.2974608575972258
  endloop
endfacet
facet normal 3.736471612488326e-16 -0.11196447610329371 -0.9937122098932442
  outer loop
    vertex -297.5000000000002 -132.62774633823892 0.14402727432418344
    vertex -327.5000000000003 -133.37086806413643 0.2277569838846813
    vertex -327.5000000000003 -132.62774633823892 0.14402727432417217
  endloop
endfacet
facet normal 3.736471612488326e-16 -0.11196447610329371 -0.9937122098932442
  outer loop
    vertex -327.5000000000003 -133.37086806413643 0.2277569838846813
    vertex -297.5000000000002 -132.62774633823892 0.14402727432418344
    vertex -297.5000000000002 -133.37086806413643 0.22775698388469257
  endloop
endfacet
facet normal 9.995413994522581e-17 0.5078217901011522 0.8614621462945782
  outer loop
    vertex -297.5000000000002 -131.11816900000068 1.2557190120728934
    vertex -325.0000000000001 -128.61816900000065 -0.21800154629829496
    vertex -327.5000000000001 -131.11816900000062 1.2557190120728823
  endloop
endfacet
facet normal 9.995413994522581e-17 0.5078217901011522 0.8614621462945782
  outer loop
    vertex -325.0000000000001 -128.61816900000065 -0.21800154629829496
    vertex -297.5000000000002 -131.11816900000068 1.2557190120728934
    vertex -300.00000000000017 -128.61816900000065 -0.2180015462982837
  endloop
endfacet
facet normal 3.5983667426290676e-16 -0.33027906195517426 -0.9438833303083652
  outer loop
    vertex -326.8465897563362 -130.46475875633672 -0.43554350148507504
    vertex -327.5000000000003 -131.1706172558916 -0.18855293006570972
    vertex -327.5000000000003 -131.11816900000068 -0.2069053685510786
  endloop
endfacet
facet normal 3.5983667426290676e-16 -0.33027906195517426 -0.9438833303083652
  outer loop
    vertex -327.5000000000003 -131.1706172558916 -0.18855293006570972
    vertex -326.8465897563362 -130.46475875633672 -0.43554350148507504
    vertex -297.5000000000002 -131.1706172558916 -0.18855293006569845
  endloop
endfacet
facet normal 3.5983667426290676e-16 -0.33027906195517426 -0.9438833303083652
  outer loop
    vertex -297.5000000000002 -131.1706172558916 -0.18855293006569845
    vertex -326.8465897563362 -130.46475875633672 -0.43554350148507504
    vertex -298.1534102436641 -130.46475875633672 -0.43554350148506377
  endloop
endfacet
facet normal 3.5983667426290676e-16 -0.33027906195517426 -0.9438833303083652
  outer loop
    vertex -297.5000000000002 -131.1706172558916 -0.18855293006569845
    vertex -298.1534102436641 -130.46475875633672 -0.43554350148506377
    vertex -297.5000000000002 -131.11816900000068 -0.2069053685510673
  endloop
endfacet
facet normal 4.3633216080327003e-16 -0.13052619221998144 -0.9914448613738197
  outer loop
    vertex -325.2500000000002 -128.86816900000065 -1.1510142481905108
    vertex -299.62059047744896 -128.99757852255192 -1.1339771613350422
    vertex -325.37940952255144 -128.99757852255192 -1.1339771613350533
  endloop
endfacet
facet normal 4.3633216080327003e-16 -0.13052619221998144 -0.9914448613738197
  outer loop
    vertex -299.62059047744896 -128.99757852255192 -1.1339771613350422
    vertex -325.2500000000002 -128.86816900000065 -1.1510142481905108
    vertex -299.7500000000002 -128.86816900000065 -1.1510142481904995
  endloop
endfacet
facet normal 3.6945623673209793e-16 0.18591160716291807 -0.9825664732332877
  outer loop
    vertex -297.5000000000002 -135.60859166176243 0.14402727432418344
    vertex -327.5000000000003 -136.3433783395638 0.004998133891124381
    vertex -327.5000000000003 -135.60859166176243 0.14402727432417217
  endloop
endfacet
facet normal 3.6945623673209793e-16 0.18591160716291807 -0.9825664732332877
  outer loop
    vertex -327.5000000000003 -136.3433783395638 0.004998133891124381
    vertex -297.5000000000002 -135.60859166176243 0.14402727432418344
    vertex -297.5000000000002 -136.3433783395638 0.004998133891135661
  endloop
endfacet
facet normal 4.025659665377086e-16 -0.3826834323650834 -0.9238795325112895
  outer loop
    vertex -325.37940952255144 -128.99757852255192 -1.1339771613350533
    vertex -299.50000000000017 -129.11816900000068 -1.0840269500827173
    vertex -325.50000000000017 -129.11816900000068 -1.0840269500827284
  endloop
endfacet
facet normal 4.025659665377086e-16 -0.3826834323650834 -0.9238795325112895
  outer loop
    vertex -299.50000000000017 -129.11816900000068 -1.0840269500827173
    vertex -325.37940952255144 -128.99757852255192 -1.1339771613350533
    vertex -299.62059047744896 -128.99757852255192 -1.1339771613350422
  endloop
endfacet
facet normal -2.777462291399534e-16 0.7933533402912517 0.6087614290086991
  outer loop
    vertex -324.89644660940684 -128.5146156094074 -0.29746085759723706
    vertex -300.18301270189244 -128.43515629810844 -0.4010142481905009
    vertex -324.8169872981081 -128.43515629810844 -0.4010142481905122
  endloop
endfacet
facet normal -2.777462291399534e-16 0.7933533402912517 0.6087614290086991
  outer loop
    vertex -300.18301270189244 -128.43515629810844 -0.4010142481905009
    vertex -324.89644660940684 -128.5146156094074 -0.29746085759723706
    vertex -300.10355339059345 -128.5146156094074 -0.2974608575972258
  endloop
endfacet
facet normal -3.160826845020058e-20 0.3826834323651318 -0.9238795325112694
  outer loop
    vertex -325.0000000000001 -128.61816900000065 -1.0840269500827284
    vertex -299.8794095225515 -128.73875947744938 -1.1339771613350422
    vertex -325.1205904774489 -128.73875947744938 -1.1339771613350422
  endloop
endfacet
facet normal -3.160826845020058e-20 0.3826834323651318 -0.9238795325112694
  outer loop
    vertex -299.8794095225515 -128.73875947744938 -1.1339771613350422
    vertex -325.0000000000001 -128.61816900000065 -1.0840269500827284
    vertex -300.00000000000017 -128.61816900000065 -1.0840269500827284
  endloop
endfacet
facet normal -0.7071067811865436 0.7071067811865515 2.259440987310748e-14
  outer loop
    vertex -325.37940952255144 -128.99757852255192 -1.1339771613350533
    vertex -325.1205904774489 -128.73875947744938 -1.1339771613350422
    vertex -325.2500000000002 -128.86816900000065 -1.1510142481905108
  endloop
endfacet
facet normal -0.7071067811865436 0.7071067811865515 2.259440987310748e-14
  outer loop
    vertex -325.1205904774489 -128.73875947744938 -1.1339771613350422
    vertex -325.37940952255144 -128.99757852255192 -1.1339771613350533
    vertex -325.50000000000017 -129.11816900000068 -1.0840269500827284
  endloop
endfacet
facet normal -0.7071067811865436 0.7071067811865515 2.259440987310748e-14
  outer loop
    vertex -325.1205904774489 -128.73875947744938 -1.1339771613350422
    vertex -325.50000000000017 -129.11816900000068 -1.0840269500827284
    vertex -325.0000000000001 -128.61816900000065 -1.0840269500827284
  endloop
endfacet
facet normal -0.7071067811865436 0.7071067811865515 2.259440987310748e-14
  outer loop
    vertex -325.0000000000001 -128.61816900000065 -1.0840269500827284
    vertex -325.50000000000017 -129.11816900000068 -1.0840269500827284
    vertex -326.16116260882467 -129.7793316088251 -0.7345923089029223
  endloop
endfacet
facet normal -0.7071067811865436 0.7071067811865515 2.259440987310748e-14
  outer loop
    vertex -325.0000000000001 -128.61816900000065 -1.0840269500827284
    vertex -326.16116260882467 -129.7793316088251 -0.7345923089029223
    vertex -324.89644660940684 -128.5146156094074 -1.0045676387837863
  endloop
endfacet
facet normal -0.7071067811865436 0.7071067811865515 2.259440987310748e-14
  outer loop
    vertex -324.89644660940684 -128.5146156094074 -1.0045676387837863
    vertex -326.16116260882467 -129.7793316088251 -0.7345923089029223
    vertex -324.8169872981081 -128.43515629810844 -0.9010142481905112
  endloop
endfacet
facet normal -0.7071067811865436 0.7071067811865515 2.259440987310748e-14
  outer loop
    vertex -324.8169872981081 -128.43515629810844 -0.9010142481905112
    vertex -326.16116260882467 -129.7793316088251 -0.7345923089029223
    vertex -324.7670370868557 -128.38520608685613 -0.7804237707417675
  endloop
endfacet
facet normal -0.7071067811865436 0.7071067811865515 2.259440987310748e-14
  outer loop
    vertex -324.7670370868557 -128.38520608685613 -0.7804237707417675
    vertex -326.16116260882467 -129.7793316088251 -0.7345923089029223
    vertex -324.75000000000017 -128.36816900000068 -0.6510142481905117
  endloop
endfacet
facet normal -0.7071067811865436 0.7071067811865515 2.259440987310748e-14
  outer loop
    vertex -324.75000000000017 -128.36816900000068 -0.6510142481905117
    vertex -326.16116260882467 -129.7793316088251 -0.7345923089029223
    vertex -326.8465897563362 -130.46475875633672 -0.43554350148507504
  endloop
endfacet
facet normal -0.7071067811865436 0.7071067811865515 2.259440987310748e-14
  outer loop
    vertex -324.75000000000017 -128.36816900000068 -0.6510142481905117
    vertex -326.8465897563362 -130.46475875633672 -0.43554350148507504
    vertex -324.7670370868557 -128.38520608685613 -0.5216047256392448
  endloop
endfacet
facet normal -0.7071067811865436 0.7071067811865515 2.259440987310748e-14
  outer loop
    vertex -324.7670370868557 -128.38520608685613 -0.5216047256392448
    vertex -326.8465897563362 -130.46475875633672 -0.43554350148507504
    vertex -324.8169872981081 -128.43515629810844 -0.4010142481905122
  endloop
endfacet
facet normal -0.7071067811865436 0.7071067811865515 2.259440987310748e-14
  outer loop
    vertex -324.8169872981081 -128.43515629810844 -0.4010142481905122
    vertex -326.8465897563362 -130.46475875633672 -0.43554350148507504
    vertex -327.5000000000003 -131.11816900000068 -0.2069053685510786
  endloop
endfacet
facet normal -0.7071067811865436 0.7071067811865515 2.259440987310748e-14
  outer loop
    vertex -324.8169872981081 -128.43515629810844 -0.4010142481905122
    vertex -327.5000000000003 -131.11816900000068 -0.2069053685510786
    vertex -324.89644660940684 -128.5146156094074 -0.29746085759723706
  endloop
endfacet
facet normal -0.7071067811865436 0.7071067811865515 2.259440987310748e-14
  outer loop
    vertex -324.89644660940684 -128.5146156094074 -0.29746085759723706
    vertex -327.5000000000003 -131.11816900000068 -0.2069053685510786
    vertex -325.0000000000001 -128.61816900000065 -0.21800154629829496
  endloop
endfacet
facet normal -0.7071067811865436 0.7071067811865515 2.259440987310748e-14
  outer loop
    vertex -325.0000000000001 -128.61816900000065 -0.21800154629829496
    vertex -327.5000000000003 -131.11816900000068 -0.2069053685510786
    vertex -327.5000000000001 -131.11816900000062 1.2557190120728823
  endloop
endfacet
facet normal 1.7883040868003e-16 0.6087614290087681 -0.7933533402911987
  outer loop
    vertex -324.89644660940684 -128.5146156094074 -1.0045676387837863
    vertex -300.00000000000017 -128.61816900000065 -1.0840269500827284
    vertex -325.0000000000001 -128.61816900000065 -1.0840269500827284
  endloop
endfacet
facet normal 1.7883040868003e-16 0.6087614290087681 -0.7933533402911987
  outer loop
    vertex -300.00000000000017 -128.61816900000065 -1.0840269500827284
    vertex -324.89644660940684 -128.5146156094074 -1.0045676387837863
    vertex -300.10355339059345 -128.5146156094074 -1.0045676387837752
  endloop
endfacet
facet normal -7.271750450503747e-16 -0.5078217901011522 0.8614621462945782
  outer loop
    vertex -325.0000000000001 -139.61816900000065 -0.21800154629829496
    vertex -297.5000000000002 -137.11816900000068 1.2557190120728934
    vertex -327.5000000000001 -137.11816900000068 1.2557190120728823
  endloop
endfacet
facet normal -7.271750450503747e-16 -0.5078217901011522 0.8614621462945782
  outer loop
    vertex -297.5000000000002 -137.11816900000068 1.2557190120728934
    vertex -325.0000000000001 -139.61816900000065 -0.21800154629829496
    vertex -300.00000000000017 -139.61816900000068 -0.2180015462982837
  endloop
endfacet
facet normal -0.7071067811865424 -0.7071067811865527 2.855682358962215e-14
  outer loop
    vertex -325.1205904774489 -139.49757852255192 -1.1339771613350422
    vertex -325.37940952255144 -139.23875947744943 -1.1339771613350422
    vertex -325.2500000000002 -139.36816900000065 -1.1510142481905108
  endloop
endfacet
facet normal -0.7071067811865424 -0.7071067811865527 2.855682358962215e-14
  outer loop
    vertex -325.37940952255144 -139.23875947744943 -1.1339771613350422
    vertex -325.1205904774489 -139.49757852255192 -1.1339771613350422
    vertex -325.0000000000001 -139.61816900000065 -1.0840269500827284
  endloop
endfacet
facet normal -0.7071067811865424 -0.7071067811865527 2.855682358962215e-14
  outer loop
    vertex -325.37940952255144 -139.23875947744943 -1.1339771613350422
    vertex -325.0000000000001 -139.61816900000065 -1.0840269500827284
    vertex -325.50000000000017 -139.11816900000065 -1.0840269500827284
  endloop
endfacet
facet normal -0.7071067811865424 -0.7071067811865527 2.855682358962215e-14
  outer loop
    vertex -325.50000000000017 -139.11816900000065 -1.0840269500827284
    vertex -325.0000000000001 -139.61816900000065 -1.0840269500827284
    vertex -324.89644660940684 -139.72172239059395 -1.0045676387837863
  endloop
endfacet
facet normal -0.7071067811865424 -0.7071067811865527 2.855682358962215e-14
  outer loop
    vertex -325.50000000000017 -139.11816900000065 -1.0840269500827284
    vertex -324.89644660940684 -139.72172239059395 -1.0045676387837863
    vertex -326.16116260882467 -138.45700639117624 -0.7345923089029223
  endloop
endfacet
facet normal -0.7071067811865424 -0.7071067811865527 2.855682358962215e-14
  outer loop
    vertex -326.16116260882467 -138.45700639117624 -0.7345923089029223
    vertex -324.89644660940684 -139.72172239059395 -1.0045676387837863
    vertex -324.8169872981081 -139.8011817018929 -0.9010142481905112
  endloop
endfacet
facet normal -0.7071067811865424 -0.7071067811865527 2.855682358962215e-14
  outer loop
    vertex -326.16116260882467 -138.45700639117624 -0.7345923089029223
    vertex -324.8169872981081 -139.8011817018929 -0.9010142481905112
    vertex -324.7670370868557 -139.85113191314517 -0.7804237707417675
  endloop
endfacet
facet normal -0.7071067811865424 -0.7071067811865527 2.855682358962215e-14
  outer loop
    vertex -326.16116260882467 -138.45700639117624 -0.7345923089029223
    vertex -324.7670370868557 -139.85113191314517 -0.7804237707417675
    vertex -324.75000000000017 -139.86816900000068 -0.6510142481905117
  endloop
endfacet
facet normal -0.7071067811865424 -0.7071067811865527 2.855682358962215e-14
  outer loop
    vertex -326.16116260882467 -138.45700639117624 -0.7345923089029223
    vertex -324.75000000000017 -139.86816900000068 -0.6510142481905117
    vertex -326.8465897563362 -137.7715792436646 -0.43554350148507504
  endloop
endfacet
facet normal -0.7071067811865424 -0.7071067811865527 2.855682358962215e-14
  outer loop
    vertex -326.8465897563362 -137.7715792436646 -0.43554350148507504
    vertex -324.75000000000017 -139.86816900000068 -0.6510142481905117
    vertex -324.7670370868557 -139.85113191314522 -0.521604725639256
  endloop
endfacet
facet normal -0.7071067811865424 -0.7071067811865527 2.855682358962215e-14
  outer loop
    vertex -326.8465897563362 -137.7715792436646 -0.43554350148507504
    vertex -324.7670370868557 -139.85113191314522 -0.521604725639256
    vertex -324.8169872981081 -139.8011817018929 -0.4010142481905122
  endloop
endfacet
facet normal -0.7071067811865424 -0.7071067811865527 2.855682358962215e-14
  outer loop
    vertex -326.8465897563362 -137.7715792436646 -0.43554350148507504
    vertex -324.8169872981081 -139.8011817018929 -0.4010142481905122
    vertex -327.5000000000003 -137.11816900000068 -0.2069053685510786
  endloop
endfacet
facet normal -0.7071067811865424 -0.7071067811865527 2.855682358962215e-14
  outer loop
    vertex -327.5000000000003 -137.11816900000068 -0.2069053685510786
    vertex -324.8169872981081 -139.8011817018929 -0.4010142481905122
    vertex -324.89644660940684 -139.72172239059395 -0.29746085759723706
  endloop
endfacet
facet normal -0.7071067811865424 -0.7071067811865527 2.855682358962215e-14
  outer loop
    vertex -327.5000000000003 -137.11816900000068 -0.2069053685510786
    vertex -324.89644660940684 -139.72172239059395 -0.29746085759723706
    vertex -325.0000000000001 -139.61816900000065 -0.21800154629829496
  endloop
endfacet
facet normal -0.7071067811865424 -0.7071067811865527 2.855682358962215e-14
  outer loop
    vertex -327.5000000000003 -137.11816900000068 -0.2069053685510786
    vertex -325.0000000000001 -139.61816900000065 -0.21800154629829496
    vertex -327.5000000000001 -137.11816900000068 1.2557190120728823
  endloop
endfacet
facet normal 8.794027799848078e-17 0.9238795325112578 -0.3826834323651597
  outer loop
    vertex -324.7670370868557 -128.38520608685613 -0.7804237707417675
    vertex -300.18301270189244 -128.43515629810844 -0.9010142481905
    vertex -324.8169872981081 -128.43515629810844 -0.9010142481905112
  endloop
endfacet
facet normal 8.794027799848078e-17 0.9238795325112578 -0.3826834323651597
  outer loop
    vertex -300.18301270189244 -128.43515629810844 -0.9010142481905
    vertex -324.7670370868557 -128.38520608685613 -0.7804237707417675
    vertex -300.2329629131447 -128.38520608685613 -0.7804237707417675
  endloop
endfacet
facet normal -1.9438376113164733e-16 -0.6087614290086573 -0.7933533402912838
  outer loop
    vertex -300.00000000000017 -139.61816900000068 -1.0840269500827173
    vertex -324.89644660940684 -139.72172239059395 -1.0045676387837863
    vertex -325.0000000000001 -139.61816900000065 -1.0840269500827284
  endloop
endfacet
facet normal -1.9438376113164733e-16 -0.6087614290086573 -0.7933533402912838
  outer loop
    vertex -324.89644660940684 -139.72172239059395 -1.0045676387837863
    vertex -300.00000000000017 -139.61816900000068 -1.0840269500827173
    vertex -300.10355339059345 -139.72172239059395 -1.0045676387837752
  endloop
endfacet
facet normal 3.6920478755305103e-16 -0.39989202431973586 -0.9165622558699786
  outer loop
    vertex -326.16116260882467 -129.7793316088251 -0.7345923089029223
    vertex -298.1534102436641 -130.46475875633672 -0.43554350148506377
    vertex -326.8465897563362 -130.46475875633672 -0.43554350148507504
  endloop
endfacet
facet normal 3.6920478755305103e-16 -0.39989202431973586 -0.9165622558699786
  outer loop
    vertex -298.1534102436641 -130.46475875633672 -0.43554350148506377
    vertex -326.16116260882467 -129.7793316088251 -0.7345923089029223
    vertex -298.8388373911758 -129.7793316088251 -0.7345923089029109
  endloop
endfacet
facet normal 2.024160113371778e-16 0.3826834323650464 -0.9238795325113047
  outer loop
    vertex -299.50000000000017 -139.11816900000065 -1.0840269500827173
    vertex -325.37940952255144 -139.23875947744943 -1.1339771613350422
    vertex -325.50000000000017 -139.11816900000065 -1.0840269500827284
  endloop
endfacet
facet normal 2.024160113371778e-16 0.3826834323650464 -0.9238795325113047
  outer loop
    vertex -325.37940952255144 -139.23875947744943 -1.1339771613350422
    vertex -299.50000000000017 -139.11816900000065 -1.0840269500827173
    vertex -299.62059047744896 -139.23875947744943 -1.1339771613350422
  endloop
endfacet
facet normal 0.7071067811865513 -0.7071067811865437 -1.0355771191841087e-14
  outer loop
    vertex -300.2329629131447 -139.85113191314522 -0.7804237707417675
    vertex -300.2329629131447 -139.85113191314522 -0.5216047256392334
    vertex -300.2500000000002 -139.86816900000068 -0.6510142481905005
  endloop
endfacet
facet normal 0.7071067811865513 -0.7071067811865437 -1.0355771191841087e-14
  outer loop
    vertex -300.2329629131447 -139.85113191314522 -0.5216047256392334
    vertex -300.2329629131447 -139.85113191314522 -0.7804237707417675
    vertex -300.18301270189244 -139.8011817018929 -0.9010142481905
  endloop
endfacet
facet normal 0.7071067811865513 -0.7071067811865437 -1.0355771191841087e-14
  outer loop
    vertex -300.2329629131447 -139.85113191314522 -0.5216047256392334
    vertex -300.18301270189244 -139.8011817018929 -0.9010142481905
    vertex -300.18301270189244 -139.8011817018929 -0.4010142481905009
  endloop
endfacet
facet normal 0.7071067811865513 -0.7071067811865437 -1.0355771191841087e-14
  outer loop
    vertex -300.18301270189244 -139.8011817018929 -0.4010142481905009
    vertex -300.18301270189244 -139.8011817018929 -0.9010142481905
    vertex -300.10355339059345 -139.72172239059395 -1.0045676387837752
  endloop
endfacet
facet normal 0.7071067811865513 -0.7071067811865437 -1.0355771191841087e-14
  outer loop
    vertex -300.18301270189244 -139.8011817018929 -0.4010142481905009
    vertex -300.10355339059345 -139.72172239059395 -1.0045676387837752
    vertex -300.10355339059345 -139.72172239059395 -0.2974608575972258
  endloop
endfacet
facet normal 0.7071067811865513 -0.7071067811865437 -1.0355771191841087e-14
  outer loop
    vertex -300.10355339059345 -139.72172239059395 -0.2974608575972258
    vertex -300.10355339059345 -139.72172239059395 -1.0045676387837752
    vertex -300.00000000000017 -139.61816900000068 -1.0840269500827173
  endloop
endfacet
facet normal 0.7071067811865513 -0.7071067811865437 -1.0355771191841087e-14
  outer loop
    vertex -300.10355339059345 -139.72172239059395 -0.2974608575972258
    vertex -300.00000000000017 -139.61816900000068 -1.0840269500827173
    vertex -300.00000000000017 -139.61816900000068 -0.2180015462982837
  endloop
endfacet
facet normal 0.7071067811865513 -0.7071067811865437 -1.0355771191841087e-14
  outer loop
    vertex -300.00000000000017 -139.61816900000068 -0.2180015462982837
    vertex -300.00000000000017 -139.61816900000068 -1.0840269500827173
    vertex -299.8794095225515 -139.49757852255192 -1.1339771613350422
  endloop
endfacet
facet normal 0.7071067811865513 -0.7071067811865437 -1.0355771191841087e-14
  outer loop
    vertex -300.00000000000017 -139.61816900000068 -0.2180015462982837
    vertex -299.8794095225515 -139.49757852255192 -1.1339771613350422
    vertex -297.5000000000002 -137.11816900000068 1.2557190120728934
  endloop
endfacet
facet normal 0.7071067811865513 -0.7071067811865437 -1.0355771191841087e-14
  outer loop
    vertex -297.5000000000002 -137.11816900000068 1.2557190120728934
    vertex -299.8794095225515 -139.49757852255192 -1.1339771613350422
    vertex -299.7500000000002 -139.3681690000007 -1.1510142481904995
  endloop
endfacet
facet normal 0.7071067811865513 -0.7071067811865437 -1.0355771191841087e-14
  outer loop
    vertex -297.5000000000002 -137.11816900000068 1.2557190120728934
    vertex -299.7500000000002 -139.3681690000007 -1.1510142481904995
    vertex -299.62059047744896 -139.23875947744943 -1.1339771613350422
  endloop
endfacet
facet normal 0.7071067811865513 -0.7071067811865437 -1.0355771191841087e-14
  outer loop
    vertex -297.5000000000002 -137.11816900000068 1.2557190120728934
    vertex -299.62059047744896 -139.23875947744943 -1.1339771613350422
    vertex -299.50000000000017 -139.11816900000065 -1.0840269500827173
  endloop
endfacet
facet normal 0.7071067811865513 -0.7071067811865437 -1.0355771191841087e-14
  outer loop
    vertex -297.5000000000002 -137.11816900000068 1.2557190120728934
    vertex -299.50000000000017 -139.11816900000065 -1.0840269500827173
    vertex -298.8388373911758 -138.45700639117624 -0.7345923089029109
  endloop
endfacet
facet normal 0.7071067811865513 -0.7071067811865437 -1.0355771191841087e-14
  outer loop
    vertex -297.5000000000002 -137.11816900000068 1.2557190120728934
    vertex -298.8388373911758 -138.45700639117624 -0.7345923089029109
    vertex -298.1534102436641 -137.7715792436646 -0.43554350148506377
  endloop
endfacet
facet normal 0.7071067811865513 -0.7071067811865437 -1.0355771191841087e-14
  outer loop
    vertex -297.5000000000002 -137.11816900000068 1.2557190120728934
    vertex -298.1534102436641 -137.7715792436646 -0.43554350148506377
    vertex -297.5000000000002 -137.11816900000068 -0.2069053685510673
  endloop
endfacet
facet normal 2.77778608736555e-16 0.7933533402912517 -0.6087614290086991
  outer loop
    vertex -324.8169872981081 -128.43515629810844 -0.9010142481905112
    vertex -300.10355339059345 -128.5146156094074 -1.0045676387837752
    vertex -324.89644660940684 -128.5146156094074 -1.0045676387837863
  endloop
endfacet
facet normal 2.77778608736555e-16 0.7933533402912517 -0.6087614290086991
  outer loop
    vertex -300.10355339059345 -128.5146156094074 -1.0045676387837752
    vertex -324.8169872981081 -128.43515629810844 -0.9010142481905112
    vertex -300.18301270189244 -128.43515629810844 -0.9010142481905
  endloop
endfacet
facet normal -9.132989526062687e-16 -0.6087614290086573 0.7933533402912838
  outer loop
    vertex -324.89644660940684 -139.72172239059395 -0.29746085759723706
    vertex -300.00000000000017 -139.61816900000068 -0.2180015462982837
    vertex -325.0000000000001 -139.61816900000065 -0.21800154629829496
  endloop
endfacet
facet normal -9.132989526062687e-16 -0.6087614290086573 0.7933533402912838
  outer loop
    vertex -300.00000000000017 -139.61816900000068 -0.2180015462982837
    vertex -324.89644660940684 -139.72172239059395 -0.29746085759723706
    vertex -300.10355339059345 -139.72172239059395 -0.2974608575972258
  endloop
endfacet
facet normal 0.7071067811865511 0.7071067811865439 -6.7469418371085964e-15
  outer loop
    vertex -298.1534102436641 -130.46475875633672 -0.43554350148506377
    vertex -297.5000000000002 -131.11816900000068 1.2557190120728934
    vertex -297.5000000000002 -131.11816900000068 -0.2069053685510673
  endloop
endfacet
facet normal 0.7071067811865511 0.7071067811865439 -6.7469418371085964e-15
  outer loop
    vertex -297.5000000000002 -131.11816900000068 1.2557190120728934
    vertex -298.1534102436641 -130.46475875633672 -0.43554350148506377
    vertex -300.00000000000017 -128.61816900000065 -0.2180015462982837
  endloop
endfacet
facet normal 0.7071067811865511 0.7071067811865439 -6.7469418371085964e-15
  outer loop
    vertex -300.00000000000017 -128.61816900000065 -0.2180015462982837
    vertex -298.1534102436641 -130.46475875633672 -0.43554350148506377
    vertex -298.8388373911758 -129.7793316088251 -0.7345923089029109
  endloop
endfacet
facet normal 0.7071067811865511 0.7071067811865439 -6.7469418371085964e-15
  outer loop
    vertex -300.00000000000017 -128.61816900000065 -0.2180015462982837
    vertex -298.8388373911758 -129.7793316088251 -0.7345923089029109
    vertex -299.50000000000017 -129.11816900000068 -1.0840269500827173
  endloop
endfacet
facet normal 0.7071067811865511 0.7071067811865439 -6.7469418371085964e-15
  outer loop
    vertex -300.00000000000017 -128.61816900000065 -0.2180015462982837
    vertex -299.50000000000017 -129.11816900000068 -1.0840269500827173
    vertex -299.62059047744896 -128.99757852255192 -1.1339771613350422
  endloop
endfacet
facet normal 0.7071067811865511 0.7071067811865439 -6.7469418371085964e-15
  outer loop
    vertex -300.00000000000017 -128.61816900000065 -0.2180015462982837
    vertex -299.62059047744896 -128.99757852255192 -1.1339771613350422
    vertex -299.7500000000002 -128.86816900000065 -1.1510142481904995
  endloop
endfacet
facet normal 0.7071067811865511 0.7071067811865439 -6.7469418371085964e-15
  outer loop
    vertex -300.00000000000017 -128.61816900000065 -0.2180015462982837
    vertex -299.7500000000002 -128.86816900000065 -1.1510142481904995
    vertex -299.8794095225515 -128.73875947744938 -1.1339771613350422
  endloop
endfacet
facet normal 0.7071067811865511 0.7071067811865439 -6.7469418371085964e-15
  outer loop
    vertex -300.00000000000017 -128.61816900000065 -0.2180015462982837
    vertex -299.8794095225515 -128.73875947744938 -1.1339771613350422
    vertex -300.00000000000017 -128.61816900000065 -1.0840269500827284
  endloop
endfacet
facet normal 0.7071067811865511 0.7071067811865439 -6.7469418371085964e-15
  outer loop
    vertex -300.00000000000017 -128.61816900000065 -0.2180015462982837
    vertex -300.00000000000017 -128.61816900000065 -1.0840269500827284
    vertex -300.10355339059345 -128.5146156094074 -1.0045676387837752
  endloop
endfacet
facet normal 0.7071067811865511 0.7071067811865439 -6.7469418371085964e-15
  outer loop
    vertex -300.00000000000017 -128.61816900000065 -0.2180015462982837
    vertex -300.10355339059345 -128.5146156094074 -1.0045676387837752
    vertex -300.10355339059345 -128.5146156094074 -0.2974608575972258
  endloop
endfacet
facet normal 0.7071067811865511 0.7071067811865439 -6.7469418371085964e-15
  outer loop
    vertex -300.10355339059345 -128.5146156094074 -0.2974608575972258
    vertex -300.10355339059345 -128.5146156094074 -1.0045676387837752
    vertex -300.18301270189244 -128.43515629810844 -0.9010142481905
  endloop
endfacet
facet normal 0.7071067811865511 0.7071067811865439 -6.7469418371085964e-15
  outer loop
    vertex -300.10355339059345 -128.5146156094074 -0.2974608575972258
    vertex -300.18301270189244 -128.43515629810844 -0.9010142481905
    vertex -300.18301270189244 -128.43515629810844 -0.4010142481905009
  endloop
endfacet
facet normal 0.7071067811865511 0.7071067811865439 -6.7469418371085964e-15
  outer loop
    vertex -300.18301270189244 -128.43515629810844 -0.4010142481905009
    vertex -300.18301270189244 -128.43515629810844 -0.9010142481905
    vertex -300.2329629131447 -128.38520608685613 -0.7804237707417675
  endloop
endfacet
facet normal 0.7071067811865511 0.7071067811865439 -6.7469418371085964e-15
  outer loop
    vertex -300.18301270189244 -128.43515629810844 -0.4010142481905009
    vertex -300.2329629131447 -128.38520608685613 -0.7804237707417675
    vertex -300.2329629131447 -128.38520608685613 -0.5216047256392448
  endloop
endfacet
facet normal 0.7071067811865511 0.7071067811865439 -6.7469418371085964e-15
  outer loop
    vertex -300.2329629131447 -128.38520608685613 -0.5216047256392448
    vertex -300.2329629131447 -128.38520608685613 -0.7804237707417675
    vertex -300.2500000000002 -128.36816900000068 -0.6510142481905005
  endloop
endfacet
facet normal 3.0014156149851055e-17 0.991444861373819 -0.13052619221998707
  outer loop
    vertex -324.75000000000017 -128.36816900000068 -0.6510142481905117
    vertex -300.2329629131447 -128.38520608685613 -0.7804237707417675
    vertex -324.7670370868557 -128.38520608685613 -0.7804237707417675
  endloop
endfacet
facet normal 3.0014156149851055e-17 0.991444861373819 -0.13052619221998707
  outer loop
    vertex -300.2329629131447 -128.38520608685613 -0.7804237707417675
    vertex -324.75000000000017 -128.36816900000068 -0.6510142481905117
    vertex -300.2500000000002 -128.36816900000068 -0.6510142481905005
  endloop
endfacet
facet normal 3.6304901873229617e-16 -0.258819045102519 -0.965925826289069
  outer loop
    vertex -297.5000000000002 -131.1706172558916 -0.18855293006569845
    vertex -327.5000000000003 -131.89295966043753 0.004998133891124381
    vertex -327.5000000000003 -131.1706172558916 -0.18855293006570972
  endloop
endfacet
facet normal 3.6304901873229617e-16 -0.258819045102519 -0.965925826289069
  outer loop
    vertex -327.5000000000003 -131.89295966043753 0.004998133891124381
    vertex -297.5000000000002 -131.1706172558916 -0.18855293006569845
    vertex -297.5000000000002 -131.89295966043753 0.004998133891135661
  endloop
endfacet
facet normal -9.010322585066623e-17 -0.991444861373819 0.13052619221998707
  outer loop
    vertex -300.2500000000002 -139.86816900000068 -0.6510142481905005
    vertex -324.7670370868557 -139.85113191314522 -0.521604725639256
    vertex -324.75000000000017 -139.86816900000068 -0.6510142481905117
  endloop
endfacet
facet normal -9.010322585066623e-17 -0.991444861373819 0.13052619221998707
  outer loop
    vertex -324.7670370868557 -139.85113191314522 -0.521604725639256
    vertex -300.2500000000002 -139.86816900000068 -0.6510142481905005
    vertex -300.2329629131447 -139.85113191314522 -0.5216047256392334
  endloop
endfacet
facet normal -1.0 7.763880274264359e-29 1.4725699015232303e-14
  outer loop
    vertex -327.5000000000003 -131.99316900000065 3.0057190120728903
    vertex -327.5000000000003 -135.74316900000065 2.505719012072891
    vertex -327.5000000000003 -136.24316900000068 3.0057190120728903
  endloop
endfacet
facet normal -1.0 7.763880274264359e-29 1.4725699015232303e-14
  outer loop
    vertex -327.5000000000003 -135.74316900000065 2.505719012072891
    vertex -327.5000000000003 -131.99316900000065 3.0057190120728903
    vertex -327.5000000000003 -132.49316900000068 2.505719012072891
  endloop
endfacet
facet normal -1.0 7.763880274264359e-29 1.4725699015232303e-14
  outer loop
    vertex -327.5000000000003 -132.49316900000068 2.505719012072891
    vertex -327.5000000000003 -131.99316900000065 3.0057190120728903
    vertex -327.5000000000001 -132.49316900000068 0.7557190120728944
  endloop
endfacet
facet normal -1.0 7.763880274264359e-29 1.4725699015232303e-14
  outer loop
    vertex -327.5000000000003 -136.24316900000068 3.0057190120728903
    vertex -327.5000000000003 -137.11816900000068 -0.2069053685510786
    vertex -327.5000000000001 -137.11816900000068 1.2557190120728823
  endloop
endfacet
facet normal -1.0 7.763880274264359e-29 1.4725699015232303e-14
  outer loop
    vertex -327.5000000000003 -137.11816900000068 -0.2069053685510786
    vertex -327.5000000000003 -136.24316900000068 3.0057190120728903
    vertex -327.5000000000003 -137.06572074410968 -0.18855293006570972
  endloop
endfacet
facet normal -1.0 7.763880274264359e-29 1.4725699015232303e-14
  outer loop
    vertex -327.5000000000003 -137.06572074410968 -0.18855293006570972
    vertex -327.5000000000003 -136.24316900000068 3.0057190120728903
    vertex -327.5000000000003 -136.3433783395638 0.004998133891124381
  endloop
endfacet
facet normal -1.0 7.763880274264359e-29 1.4725699015232303e-14
  outer loop
    vertex -327.5000000000003 -136.3433783395638 0.004998133891124381
    vertex -327.5000000000003 -136.24316900000068 3.0057190120728903
    vertex -327.5000000000003 -135.60859166176243 0.14402727432417217
  endloop
endfacet
facet normal -1.0 7.763880274264359e-29 1.4725699015232303e-14
  outer loop
    vertex -327.5000000000003 -135.60859166176243 0.14402727432417217
    vertex -327.5000000000003 -136.24316900000068 3.0057190120728903
    vertex -327.5000000000001 -135.74316900000065 0.7557190120728944
  endloop
endfacet
facet normal -1.0 7.763880274264359e-29 1.4725699015232303e-14
  outer loop
    vertex -327.5000000000001 -135.74316900000065 0.7557190120728944
    vertex -327.5000000000003 -136.24316900000068 3.0057190120728903
    vertex -327.5000000000003 -135.74316900000065 2.505719012072891
  endloop
endfacet
facet normal -1.0 7.763880274264359e-29 1.4725699015232303e-14
  outer loop
    vertex -327.5000000000003 -135.60859166176243 0.14402727432417217
    vertex -327.5000000000001 -135.74316900000065 0.7557190120728944
    vertex -327.5000000000001 -132.49316900000068 0.7557190120728944
  endloop
endfacet
facet normal -1.0 7.763880274264359e-29 1.4725699015232303e-14
  outer loop
    vertex -327.5000000000003 -135.60859166176243 0.14402727432417217
    vertex -327.5000000000001 -132.49316900000068 0.7557190120728944
    vertex -327.5000000000003 -134.8654699358649 0.2277569838846813
  endloop
endfacet
facet normal -1.0 7.763880274264359e-29 1.4725699015232303e-14
  outer loop
    vertex -327.5000000000003 -134.8654699358649 0.2277569838846813
    vertex -327.5000000000001 -132.49316900000068 0.7557190120728944
    vertex -327.5000000000003 -134.11816900000068 0.25571901207288406
  endloop
endfacet
facet normal -1.0 7.763880274264359e-29 1.4725699015232303e-14
  outer loop
    vertex -327.5000000000003 -134.11816900000068 0.25571901207288406
    vertex -327.5000000000001 -132.49316900000068 0.7557190120728944
    vertex -327.5000000000003 -133.37086806413643 0.2277569838846813
  endloop
endfacet
facet normal -1.0 7.763880274264359e-29 1.4725699015232303e-14
  outer loop
    vertex -327.5000000000003 -133.37086806413643 0.2277569838846813
    vertex -327.5000000000001 -132.49316900000068 0.7557190120728944
    vertex -327.5000000000003 -132.62774633823892 0.14402727432417217
  endloop
endfacet
facet normal -1.0 7.763880274264359e-29 1.4725699015232303e-14
  outer loop
    vertex -327.5000000000003 -132.62774633823892 0.14402727432417217
    vertex -327.5000000000001 -132.49316900000068 0.7557190120728944
    vertex -327.5000000000003 -131.89295966043753 0.004998133891124381
  endloop
endfacet
facet normal -1.0 7.763880274264359e-29 1.4725699015232303e-14
  outer loop
    vertex -327.5000000000003 -131.89295966043753 0.004998133891124381
    vertex -327.5000000000001 -132.49316900000068 0.7557190120728944
    vertex -327.5000000000003 -131.99316900000065 3.0057190120728903
  endloop
endfacet
facet normal -1.0 7.763880274264359e-29 1.4725699015232303e-14
  outer loop
    vertex -327.5000000000003 -131.89295966043753 0.004998133891124381
    vertex -327.5000000000003 -131.99316900000065 3.0057190120728903
    vertex -327.5000000000001 -131.11816900000062 1.2557190120728823
  endloop
endfacet
facet normal -1.0 7.763880274264359e-29 1.4725699015232303e-14
  outer loop
    vertex -327.5000000000003 -131.89295966043753 0.004998133891124381
    vertex -327.5000000000001 -131.11816900000062 1.2557190120728823
    vertex -327.5000000000003 -131.1706172558916 -0.18855293006570972
  endloop
endfacet
facet normal -1.0 7.763880274264359e-29 1.4725699015232303e-14
  outer loop
    vertex -327.5000000000003 -131.1706172558916 -0.18855293006570972
    vertex -327.5000000000001 -131.11816900000062 1.2557190120728823
    vertex -327.5000000000003 -131.11816900000068 -0.2069053685510786
  endloop
endfacet
facet normal 5.304744397563454e-16 0.33027906195516876 -0.943883330308367
  outer loop
    vertex -297.5000000000002 -137.06572074410974 -0.18855293006569845
    vertex -327.5000000000003 -137.11816900000068 -0.2069053685510786
    vertex -327.5000000000003 -137.06572074410968 -0.18855293006570972
  endloop
endfacet
facet normal 5.304744397563454e-16 0.33027906195516876 -0.943883330308367
  outer loop
    vertex -327.5000000000003 -137.11816900000068 -0.2069053685510786
    vertex -297.5000000000002 -137.06572074410974 -0.18855293006569845
    vertex -326.8465897563362 -137.7715792436646 -0.43554350148507504
  endloop
endfacet
facet normal 5.304744397563454e-16 0.33027906195516876 -0.943883330308367
  outer loop
    vertex -326.8465897563362 -137.7715792436646 -0.43554350148507504
    vertex -297.5000000000002 -137.06572074410974 -0.18855293006569845
    vertex -298.1534102436641 -137.7715792436646 -0.43554350148506377
  endloop
endfacet
facet normal 5.304744397563454e-16 0.33027906195516876 -0.943883330308367
  outer loop
    vertex -298.1534102436641 -137.7715792436646 -0.43554350148506377
    vertex -297.5000000000002 -137.06572074410974 -0.18855293006569845
    vertex -297.5000000000002 -137.11816900000068 -0.2069053685510673
  endloop
endfacet
facet normal -8.798119708353088e-17 0.9238795325112579 0.38268343236515967
  outer loop
    vertex -324.8169872981081 -128.43515629810844 -0.4010142481905122
    vertex -300.2329629131447 -128.38520608685613 -0.5216047256392448
    vertex -324.7670370868557 -128.38520608685613 -0.5216047256392448
  endloop
endfacet
facet normal -8.798119708353088e-17 0.9238795325112579 0.38268343236515967
  outer loop
    vertex -300.2329629131447 -128.38520608685613 -0.5216047256392448
    vertex -324.8169872981081 -128.43515629810844 -0.4010142481905122
    vertex -300.18301270189244 -128.43515629810844 -0.4010142481905009
  endloop
endfacet
facet normal 3.735182761251723e-16 0.4672686282730668 -0.8841153935046073
  outer loop
    vertex -298.8388373911758 -138.45700639117624 -0.7345923089029109
    vertex -325.50000000000017 -139.11816900000065 -1.0840269500827284
    vertex -326.16116260882467 -138.45700639117624 -0.7345923089029223
  endloop
endfacet
facet normal 3.735182761251723e-16 0.4672686282730668 -0.8841153935046073
  outer loop
    vertex -325.50000000000017 -139.11816900000065 -1.0840269500827284
    vertex -298.8388373911758 -138.45700639117624 -0.7345923089029109
    vertex -299.50000000000017 -139.11816900000065 -1.0840269500827173
  endloop
endfacet
facet normal 3.689196897360944e-16 0.39989202431973586 -0.9165622558699786
  outer loop
    vertex -298.1534102436641 -137.7715792436646 -0.43554350148506377
    vertex -326.16116260882467 -138.45700639117624 -0.7345923089029223
    vertex -326.8465897563362 -137.7715792436646 -0.43554350148507504
  endloop
endfacet
facet normal 3.689196897360944e-16 0.39989202431973586 -0.9165622558699786
  outer loop
    vertex -326.16116260882467 -138.45700639117624 -0.7345923089029223
    vertex -298.1534102436641 -137.7715792436646 -0.43554350148506377
    vertex -298.8388373911758 -138.45700639117624 -0.7345923089029109
  endloop
endfacet
facet normal 1.0488352151376777e-16 -0.1305261922200463 -0.9914448613738112
  outer loop
    vertex -299.7500000000002 -139.3681690000007 -1.1510142481904995
    vertex -325.1205904774489 -139.49757852255192 -1.1339771613350422
    vertex -325.2500000000002 -139.36816900000065 -1.1510142481905108
  endloop
endfacet
facet normal 1.0488352151376777e-16 -0.1305261922200463 -0.9914448613738112
  outer loop
    vertex -325.1205904774489 -139.49757852255192 -1.1339771613350422
    vertex -299.7500000000002 -139.3681690000007 -1.1510142481904995
    vertex -299.8794095225515 -139.49757852255192 -1.1339771613350422
  endloop
endfacet
facet normal 3.7570966623407177e-16 -0.03739119427633206 -0.9993007047883984
  outer loop
    vertex -297.5000000000002 -133.37086806413643 0.22775698388469257
    vertex -327.5000000000003 -134.11816900000068 0.25571901207288406
    vertex -327.5000000000003 -133.37086806413643 0.2277569838846813
  endloop
endfacet
facet normal 3.7570966623407177e-16 -0.03739119427633206 -0.9993007047883984
  outer loop
    vertex -327.5000000000003 -134.11816900000068 0.25571901207288406
    vertex -297.5000000000002 -133.37086806413643 0.22775698388469257
    vertex -297.5000000000002 -134.11816900000068 0.2557190120728953
  endloop
endfacet
facet normal 5.577673257174091e-16 0.25881904510252646 -0.9659258262890668
  outer loop
    vertex -297.5000000000002 -136.3433783395638 0.004998133891135661
    vertex -327.5000000000003 -137.06572074410968 -0.18855293006570972
    vertex -327.5000000000003 -136.3433783395638 0.004998133891124381
  endloop
endfacet
facet normal 5.577673257174091e-16 0.25881904510252646 -0.9659258262890668
  outer loop
    vertex -327.5000000000003 -137.06572074410968 -0.18855293006570972
    vertex -297.5000000000002 -136.3433783395638 0.004998133891135661
    vertex -297.5000000000002 -137.06572074410974 -0.18855293006569845
  endloop
endfacet
facet normal 2.2153386641889573e-16 0.13052619222002393 -0.991444861373814
  outer loop
    vertex -325.1205904774489 -128.73875947744938 -1.1339771613350422
    vertex -299.7500000000002 -128.86816900000065 -1.1510142481904995
    vertex -325.2500000000002 -128.86816900000065 -1.1510142481905108
  endloop
endfacet
facet normal 2.2153386641889573e-16 0.13052619222002393 -0.991444861373814
  outer loop
    vertex -299.7500000000002 -128.86816900000065 -1.1510142481904995
    vertex -325.1205904774489 -128.73875947744938 -1.1339771613350422
    vertex -299.8794095225515 -128.73875947744938 -1.1339771613350422
  endloop
endfacet
facet normal -1.3563885512775504e-16 -0.3826834323651076 -0.9238795325112795
  outer loop
    vertex -299.8794095225515 -139.49757852255192 -1.1339771613350422
    vertex -325.0000000000001 -139.61816900000065 -1.0840269500827284
    vertex -325.1205904774489 -139.49757852255192 -1.1339771613350422
  endloop
endfacet
facet normal -1.3563885512775504e-16 -0.3826834323651076 -0.9238795325112795
  outer loop
    vertex -325.0000000000001 -139.61816900000065 -1.0840269500827284
    vertex -299.8794095225515 -139.49757852255192 -1.1339771613350422
    vertex -300.00000000000017 -139.61816900000068 -1.0840269500827173
  endloop
endfacet
facet normal 3.6945623673209837e-16 -0.18591160716291805 -0.9825664732332877
  outer loop
    vertex -297.5000000000002 -131.89295966043753 0.004998133891135661
    vertex -327.5000000000003 -132.62774633823892 0.14402727432417217
    vertex -327.5000000000003 -131.89295966043753 0.004998133891124381
  endloop
endfacet
facet normal 3.6945623673209837e-16 -0.18591160716291805 -0.9825664732332877
  outer loop
    vertex -327.5000000000003 -132.62774633823892 0.14402727432417217
    vertex -297.5000000000002 -131.89295966043753 0.004998133891135661
    vertex -297.5000000000002 -132.62774633823892 0.14402727432418344
  endloop
endfacet
facet normal 2.778271875030921e-16 -0.7933533402912517 -0.6087614290086992
  outer loop
    vertex -300.10355339059345 -139.72172239059395 -1.0045676387837752
    vertex -324.8169872981081 -139.8011817018929 -0.9010142481905112
    vertex -324.89644660940684 -139.72172239059395 -1.0045676387837863
  endloop
endfacet
facet normal 2.778271875030921e-16 -0.7933533402912517 -0.6087614290086992
  outer loop
    vertex -324.8169872981081 -139.8011817018929 -0.9010142481905112
    vertex -300.10355339059345 -139.72172239059395 -1.0045676387837752
    vertex -300.18301270189244 -139.8011817018929 -0.9010142481905
  endloop
endfacet
facet normal 3.735182761251723e-16 -0.4672686282730668 -0.8841153935046073
  outer loop
    vertex -325.50000000000017 -129.11816900000068 -1.0840269500827284
    vertex -298.8388373911758 -129.7793316088251 -0.7345923089029109
    vertex -326.16116260882467 -129.7793316088251 -0.7345923089029223
  endloop
endfacet
facet normal 3.735182761251723e-16 -0.4672686282730668 -0.8841153935046073
  outer loop
    vertex -298.8388373911758 -129.7793316088251 -0.7345923089029109
    vertex -325.50000000000017 -129.11816900000068 -1.0840269500827284
    vertex -299.50000000000017 -129.11816900000068 -1.0840269500827173
  endloop
endfacet
facet normal 3.7364716124883257e-16 0.11196447610329369 -0.9937122098932442
  outer loop
    vertex -297.5000000000002 -134.8654699358649 0.22775698388469257
    vertex -327.5000000000003 -135.60859166176243 0.14402727432417217
    vertex -327.5000000000003 -134.8654699358649 0.2277569838846813
  endloop
endfacet
facet normal 3.7364716124883257e-16 0.11196447610329369 -0.9937122098932442
  outer loop
    vertex -327.5000000000003 -135.60859166176243 0.14402727432417217
    vertex -297.5000000000002 -134.8654699358649 0.22775698388469257
    vertex -297.5000000000002 -135.60859166176243 0.14402727432418344
  endloop
endfacet
facet normal -7.580620964909775e-16 -0.9238795325113189 -0.3826834323650121
  outer loop
    vertex -300.18301270189244 -139.8011817018929 -0.9010142481905
    vertex -324.7670370868557 -139.85113191314517 -0.7804237707417675
    vertex -324.8169872981081 -139.8011817018929 -0.9010142481905112
  endloop
endfacet
facet normal -7.580620964909775e-16 -0.9238795325113189 -0.3826834323650121
  outer loop
    vertex -324.7670370868557 -139.85113191314517 -0.7804237707417675
    vertex -300.18301270189244 -139.8011817018929 -0.9010142481905
    vertex -300.2329629131447 -139.85113191314522 -0.7804237707417675
  endloop
endfacet
facet normal 3.757096662340717e-16 0.03739119427633205 -0.9993007047883984
  outer loop
    vertex -297.5000000000002 -134.11816900000068 0.2557190120728953
    vertex -327.5000000000003 -134.8654699358649 0.2277569838846813
    vertex -327.5000000000003 -134.11816900000068 0.25571901207288406
  endloop
endfacet
facet normal 3.757096662340717e-16 0.03739119427633205 -0.9993007047883984
  outer loop
    vertex -327.5000000000003 -134.8654699358649 0.2277569838846813
    vertex -297.5000000000002 -134.11816900000068 0.2557190120728953
    vertex -297.5000000000002 -134.8654699358649 0.22775698388469257
  endloop
endfacet
facet normal 1.0 0.0 0.0
  outer loop
    vertex -297.5000000000002 -137.06572074410974 -0.18855293006569845
    vertex -297.5000000000002 -137.11816900000068 1.2557190120728934
    vertex -297.5000000000002 -137.11816900000068 -0.2069053685510673
  endloop
endfacet
facet normal 1.0 0.0 0.0
  outer loop
    vertex -297.5000000000002 -137.11816900000068 1.2557190120728934
    vertex -297.5000000000002 -137.06572074410974 -0.18855293006569845
    vertex -297.5000000000002 -136.24316900000068 3.0057190120728903
  endloop
endfacet
facet normal 1.0 0.0 0.0
  outer loop
    vertex -297.5000000000002 -136.24316900000068 3.0057190120728903
    vertex -297.5000000000002 -137.06572074410974 -0.18855293006569845
    vertex -297.5000000000002 -136.3433783395638 0.004998133891135661
  endloop
endfacet
facet normal 1.0 0.0 0.0
  outer loop
    vertex -297.5000000000002 -136.24316900000068 3.0057190120728903
    vertex -297.5000000000002 -136.3433783395638 0.004998133891135661
    vertex -297.5000000000002 -135.60859166176243 0.14402727432418344
  endloop
endfacet
facet normal 1.0 0.0 0.0
  outer loop
    vertex -297.5000000000002 -136.24316900000068 3.0057190120728903
    vertex -297.5000000000002 -135.60859166176243 0.14402727432418344
    vertex -297.5000000000002 -135.74316900000065 0.7557190120728944
  endloop
endfacet
facet normal 1.0 0.0 0.0
  outer loop
    vertex -297.5000000000002 -135.74316900000065 0.7557190120728944
    vertex -297.5000000000002 -135.60859166176243 0.14402727432418344
    vertex -297.5000000000002 -132.49316900000068 0.7557190120728944
  endloop
endfacet
facet normal 1.0 0.0 0.0
  outer loop
    vertex -297.5000000000002 -132.49316900000068 0.7557190120728944
    vertex -297.5000000000002 -135.60859166176243 0.14402727432418344
    vertex -297.5000000000002 -134.8654699358649 0.22775698388469257
  endloop
endfacet
facet normal 1.0 0.0 0.0
  outer loop
    vertex -297.5000000000002 -132.49316900000068 0.7557190120728944
    vertex -297.5000000000002 -134.8654699358649 0.22775698388469257
    vertex -297.5000000000002 -134.11816900000068 0.2557190120728953
  endloop
endfacet
facet normal 1.0 0.0 0.0
  outer loop
    vertex -297.5000000000002 -132.49316900000068 0.7557190120728944
    vertex -297.5000000000002 -134.11816900000068 0.2557190120728953
    vertex -297.5000000000002 -133.37086806413643 0.22775698388469257
  endloop
endfacet
facet normal 1.0 0.0 0.0
  outer loop
    vertex -297.5000000000002 -132.49316900000068 0.7557190120728944
    vertex -297.5000000000002 -133.37086806413643 0.22775698388469257
    vertex -297.5000000000002 -132.62774633823892 0.14402727432418344
  endloop
endfacet
facet normal 1.0 0.0 0.0
  outer loop
    vertex -297.5000000000002 -132.49316900000068 0.7557190120728944
    vertex -297.5000000000002 -132.62774633823892 0.14402727432418344
    vertex -297.5000000000002 -131.89295966043753 0.004998133891135661
  endloop
endfacet
facet normal 1.0 0.0 0.0
  outer loop
    vertex -297.5000000000002 -132.49316900000068 0.7557190120728944
    vertex -297.5000000000002 -131.89295966043753 0.004998133891135661
    vertex -297.5000000000002 -132.49316900000068 2.505719012072891
  endloop
endfacet
facet normal 1.0 0.0 0.0
  outer loop
    vertex -297.5000000000002 -132.49316900000068 2.505719012072891
    vertex -297.5000000000002 -131.89295966043753 0.004998133891135661
    vertex -297.5000000000002 -131.99316900000065 3.0057190120728903
  endloop
endfacet
facet normal 1.0 0.0 0.0
  outer loop
    vertex -297.5000000000002 -131.99316900000065 3.0057190120728903
    vertex -297.5000000000002 -131.89295966043753 0.004998133891135661
    vertex -297.5000000000002 -131.11816900000068 1.2557190120728934
  endloop
endfacet
facet normal 1.0 0.0 0.0
  outer loop
    vertex -297.5000000000002 -131.11816900000068 1.2557190120728934
    vertex -297.5000000000002 -131.89295966043753 0.004998133891135661
    vertex -297.5000000000002 -131.1706172558916 -0.18855293006569845
  endloop
endfacet
facet normal 1.0 0.0 0.0
  outer loop
    vertex -297.5000000000002 -131.11816900000068 1.2557190120728934
    vertex -297.5000000000002 -131.1706172558916 -0.18855293006569845
    vertex -297.5000000000002 -131.11816900000068 -0.2069053685510673
  endloop
endfacet
facet normal 1.0 0.0 0.0
  outer loop
    vertex -297.5000000000002 -136.24316900000068 3.0057190120728903
    vertex -297.5000000000002 -135.74316900000065 2.505719012072891
    vertex -297.5000000000002 -131.99316900000065 3.0057190120728903
  endloop
endfacet
facet normal 1.0 0.0 0.0
  outer loop
    vertex -297.5000000000002 -135.74316900000065 2.505719012072891
    vertex -297.5000000000002 -136.24316900000068 3.0057190120728903
    vertex -297.5000000000002 -135.74316900000065 0.7557190120728944
  endloop
endfacet
facet normal 1.0 0.0 0.0
  outer loop
    vertex -297.5000000000002 -131.99316900000065 3.0057190120728903
    vertex -297.5000000000002 -135.74316900000065 2.505719012072891
    vertex -297.5000000000002 -132.49316900000068 2.505719012072891
  endloop
endfacet
facet normal -3.0014156149851055e-17 0.991444861373819 0.13052619221998704
  outer loop
    vertex -324.7670370868557 -128.38520608685613 -0.5216047256392448
    vertex -300.2500000000002 -128.36816900000068 -0.6510142481905005
    vertex -324.75000000000017 -128.36816900000068 -0.6510142481905117
  endloop
endfacet
facet normal -3.0014156149851055e-17 0.991444861373819 0.13052619221998704
  outer loop
    vertex -300.2500000000002 -128.36816900000068 -0.6510142481905005
    vertex -324.7670370868557 -128.38520608685613 -0.5216047256392448
    vertex -300.2329629131447 -128.38520608685613 -0.5216047256392448
  endloop
endfacet
facet normal -8.8288712775506e-16 -0.9914448613737967 -0.13052619222015696
  outer loop
    vertex -300.2500000000002 -139.86816900000068 -0.6510142481905005
    vertex -324.7670370868557 -139.85113191314517 -0.7804237707417675
    vertex -300.2329629131447 -139.85113191314522 -0.7804237707417675
  endloop
endfacet
facet normal -8.8288712775506e-16 -0.9914448613737967 -0.13052619222015696
  outer loop
    vertex -324.7670370868557 -139.85113191314517 -0.7804237707417675
    vertex -300.2500000000002 -139.86816900000068 -0.6510142481905005
    vertex -324.75000000000017 -139.86816900000068 -0.6510142481905117
  endloop
endfacet
facet normal 3.3136075592632917e-16 0.13052619222004627 -0.9914448613738112
  outer loop
    vertex -299.62059047744896 -139.23875947744943 -1.1339771613350422
    vertex -325.2500000000002 -139.36816900000065 -1.1510142481905108
    vertex -325.37940952255144 -139.23875947744943 -1.1339771613350422
  endloop
endfacet
facet normal 3.3136075592632917e-16 0.13052619222004627 -0.9914448613738112
  outer loop
    vertex -325.2500000000002 -139.36816900000065 -1.1510142481905108
    vertex -299.62059047744896 -139.23875947744943 -1.1339771613350422
    vertex -299.7500000000002 -139.3681690000007 -1.1510142481904995
  endloop
endfacet
facet normal -2.6314056249614673e-16 -0.9238795325112578 0.38268343236515967
  outer loop
    vertex -300.2329629131447 -139.85113191314522 -0.5216047256392334
    vertex -324.8169872981081 -139.8011817018929 -0.4010142481905122
    vertex -324.7670370868557 -139.85113191314522 -0.521604725639256
  endloop
endfacet
facet normal -2.6314056249614673e-16 -0.9238795325112578 0.38268343236515967
  outer loop
    vertex -324.8169872981081 -139.8011817018929 -0.4010142481905122
    vertex -300.2329629131447 -139.85113191314522 -0.5216047256392334
    vertex -300.18301270189244 -139.8011817018929 -0.4010142481905009
  endloop
endfacet
facet normal -2.778856681052838e-16 -0.7933533402912517 0.6087614290086992
  outer loop
    vertex -300.18301270189244 -139.8011817018929 -0.4010142481905009
    vertex -324.89644660940684 -139.72172239059395 -0.29746085759723706
    vertex -324.8169872981081 -139.8011817018929 -0.4010142481905122
  endloop
endfacet
facet normal -2.778856681052838e-16 -0.7933533402912517 0.6087614290086992
  outer loop
    vertex -324.89644660940684 -139.72172239059395 -0.29746085759723706
    vertex -300.18301270189244 -139.8011817018929 -0.4010142481905009
    vertex -300.10355339059345 -139.72172239059395 -0.2974608575972258
  endloop
endfacet
facet normal 5.894894577665099e-16 0.8944271909999153 0.44721359549995915
  outer loop
    vertex -327.5000000000003 -131.99316900000065 3.0057190120728903
    vertex -297.5000000000002 -131.11816900000068 1.2557190120728934
    vertex -327.5000000000001 -131.11816900000062 1.2557190120728823
  endloop
endfacet
facet normal 5.894894577665099e-16 0.8944271909999153 0.44721359549995915
  outer loop
    vertex -297.5000000000002 -131.11816900000068 1.2557190120728934
    vertex -327.5000000000003 -131.99316900000065 3.0057190120728903
    vertex -297.5000000000002 -131.99316900000065 3.0057190120728903
  endloop
endfacet
facet normal 0.0 0.0 -1.0
  outer loop
    vertex -297.5000000000002 -132.49316900000068 2.505719012072891
    vertex -327.5000000000003 -135.74316900000065 2.505719012072891
    vertex -327.5000000000003 -132.49316900000068 2.505719012072891
  endloop
endfacet
facet normal 0.0 0.0 -1.0
  outer loop
    vertex -327.5000000000003 -135.74316900000065 2.505719012072891
    vertex -297.5000000000002 -132.49316900000068 2.505719012072891
    vertex -297.5000000000002 -135.74316900000065 2.505719012072891
  endloop
endfacet
facet normal 0.0 0.0 1.0
  outer loop
    vertex -297.5000000000002 -135.74316900000065 0.7557190120728944
    vertex -327.5000000000001 -132.49316900000068 0.7557190120728944
    vertex -327.5000000000001 -135.74316900000065 0.7557190120728944
  endloop
endfacet
facet normal 0.0 0.0 1.0
  outer loop
    vertex -327.5000000000001 -132.49316900000068 0.7557190120728944
    vertex -297.5000000000002 -135.74316900000065 0.7557190120728944
    vertex -297.5000000000002 -132.49316900000068 0.7557190120728944
  endloop
endfacet
facet normal -8.341831949526129e-17 -0.89442719099992 0.44721359549994993
  outer loop
    vertex -297.5000000000002 -137.11816900000068 1.2557190120728934
    vertex -327.5000000000003 -136.24316900000068 3.0057190120728903
    vertex -327.5000000000001 -137.11816900000068 1.2557190120728823
  endloop
endfacet
facet normal -8.341831949526129e-17 -0.89442719099992 0.44721359549994993
  outer loop
    vertex -327.5000000000003 -136.24316900000068 3.0057190120728903
    vertex -297.5000000000002 -137.11816900000068 1.2557190120728934
    vertex -297.5000000000002 -136.24316900000068 3.0057190120728903
  endloop
endfacet
facet normal 0.0 1.0 0.0
  outer loop
    vertex -327.5000000000003 -135.74316900000065 2.505719012072891
    vertex -297.5000000000002 -135.74316900000065 0.7557190120728944
    vertex -327.5000000000001 -135.74316900000065 0.7557190120728944
  endloop
endfacet
facet normal 0.0 1.0 0.0
  outer loop
    vertex -297.5000000000002 -135.74316900000065 0.7557190120728944
    vertex -327.5000000000003 -135.74316900000065 2.505719012072891
    vertex -297.5000000000002 -135.74316900000065 2.505719012072891
  endloop
endfacet
facet normal 0.0 0.0 1.0
  outer loop
    vertex -297.5000000000002 -136.24316900000068 3.0057190120728903
    vertex -327.5000000000003 -131.99316900000065 3.0057190120728903
    vertex -327.5000000000003 -136.24316900000068 3.0057190120728903
  endloop
endfacet
facet normal 0.0 0.0 1.0
  outer loop
    vertex -327.5000000000003 -131.99316900000065 3.0057190120728903
    vertex -297.5000000000002 -136.24316900000068 3.0057190120728903
    vertex -297.5000000000002 -131.99316900000065 3.0057190120728903
  endloop
endfacet
facet normal 0.0 -1.0 0.0
  outer loop
    vertex -297.5000000000002 -132.49316900000068 2.505719012072891
    vertex -327.5000000000001 -132.49316900000068 0.7557190120728944
    vertex -297.5000000000002 -132.49316900000068 0.7557190120728944
  endloop
endfacet
facet normal 0.0 -1.0 0.0
  outer loop
    vertex -327.5000000000001 -132.49316900000068 0.7557190120728944
    vertex -297.5000000000002 -132.49316900000068 2.505719012072891
    vertex -327.5000000000003 -132.49316900000068 2.505719012072891
  endloop
endfacet
endsolid ProtoGlove
