solid ProtoGlove
facet normal -0.7071067811865444 -0.7071067811865508 3.169493607199793e-14
  outer loop
    vertex -330.120590477449 -119.497578522552 -1.1339771613350422
    vertex -330.37940952255155 -119.23875947744946 -1.1339771613350422
    vertex -330.2500000000004 -119.36816900000073 -1.1510142481904995
  endloop
endfacet
facet normal -0.7071067811865444 -0.7071067811865508 3.169493607199793e-14
  outer loop
    vertex -330.37940952255155 -119.23875947744946 -1.1339771613350422
    vertex -330.120590477449 -119.497578522552 -1.1339771613350422
    vertex -330.0000000000002 -119.61816900000072 -1.0840269500827284
  endloop
endfacet
facet normal -0.7071067811865444 -0.7071067811865508 3.169493607199793e-14
  outer loop
    vertex -330.37940952255155 -119.23875947744946 -1.1339771613350422
    vertex -330.0000000000002 -119.61816900000072 -1.0840269500827284
    vertex -330.50000000000034 -119.1181690000007 -1.0840269500827173
  endloop
endfacet
facet normal -0.7071067811865444 -0.7071067811865508 3.169493607199793e-14
  outer loop
    vertex -330.50000000000034 -119.1181690000007 -1.0840269500827173
    vertex -330.0000000000002 -119.61816900000072 -1.0840269500827284
    vertex -329.896446609407 -119.72172239059398 -1.0045676387837752
  endloop
endfacet
facet normal -0.7071067811865444 -0.7071067811865508 3.169493607199793e-14
  outer loop
    vertex -330.50000000000034 -119.1181690000007 -1.0840269500827173
    vertex -329.896446609407 -119.72172239059398 -1.0045676387837752
    vertex -331.16116260882484 -118.45700639117628 -0.7345923089029109
  endloop
endfacet
facet normal -0.7071067811865444 -0.7071067811865508 3.169493607199793e-14
  outer loop
    vertex -331.16116260882484 -118.45700639117628 -0.7345923089029109
    vertex -329.896446609407 -119.72172239059398 -1.0045676387837752
    vertex -329.8169872981082 -119.80118170189293 -0.9010142481905
  endloop
endfacet
facet normal -0.7071067811865444 -0.7071067811865508 3.169493607199793e-14
  outer loop
    vertex -331.16116260882484 -118.45700639117628 -0.7345923089029109
    vertex -329.8169872981082 -119.80118170189293 -0.9010142481905
    vertex -329.7670370868558 -119.85113191314525 -0.7804237707417675
  endloop
endfacet
facet normal -0.7071067811865444 -0.7071067811865508 3.169493607199793e-14
  outer loop
    vertex -331.16116260882484 -118.45700639117628 -0.7345923089029109
    vertex -329.7670370868558 -119.85113191314525 -0.7804237707417675
    vertex -329.7500000000003 -119.8681690000007 -0.6510142481905005
  endloop
endfacet
facet normal -0.7071067811865444 -0.7071067811865508 3.169493607199793e-14
  outer loop
    vertex -331.16116260882484 -118.45700639117628 -0.7345923089029109
    vertex -329.7500000000003 -119.8681690000007 -0.6510142481905005
    vertex -331.8465897563363 -117.77157924366465 -0.43554350148506377
  endloop
endfacet
facet normal -0.7071067811865444 -0.7071067811865508 3.169493607199793e-14
  outer loop
    vertex -331.8465897563363 -117.77157924366465 -0.43554350148506377
    vertex -329.7500000000003 -119.8681690000007 -0.6510142481905005
    vertex -329.7670370868558 -119.85113191314525 -0.5216047256392448
  endloop
endfacet
facet normal -0.7071067811865444 -0.7071067811865508 3.169493607199793e-14
  outer loop
    vertex -331.8465897563363 -117.77157924366465 -0.43554350148506377
    vertex -329.7670370868558 -119.85113191314525 -0.5216047256392448
    vertex -329.8169872981082 -119.80118170189293 -0.4010142481905009
  endloop
endfacet
facet normal -0.7071067811865444 -0.7071067811865508 3.169493607199793e-14
  outer loop
    vertex -331.8465897563363 -117.77157924366465 -0.43554350148506377
    vertex -329.8169872981082 -119.80118170189293 -0.4010142481905009
    vertex -332.5000000000004 -117.1181690000007 -0.2069053685510673
  endloop
endfacet
facet normal -0.7071067811865444 -0.7071067811865508 3.169493607199793e-14
  outer loop
    vertex -332.5000000000004 -117.1181690000007 -0.2069053685510673
    vertex -329.8169872981082 -119.80118170189293 -0.4010142481905009
    vertex -329.896446609407 -119.72172239059398 -0.2974608575972258
  endloop
endfacet
facet normal -0.7071067811865444 -0.7071067811865508 3.169493607199793e-14
  outer loop
    vertex -332.5000000000004 -117.1181690000007 -0.2069053685510673
    vertex -329.896446609407 -119.72172239059398 -0.2974608575972258
    vertex -330.0000000000002 -119.61816900000072 -0.2180015462982837
  endloop
endfacet
facet normal -0.7071067811865444 -0.7071067811865508 3.169493607199793e-14
  outer loop
    vertex -332.5000000000004 -117.1181690000007 -0.2069053685510673
    vertex -330.0000000000002 -119.61816900000072 -0.2180015462982837
    vertex -332.5000000000002 -117.1181690000007 1.2557190120728934
  endloop
endfacet
facet normal -0.7071067811865444 0.7071067811865508 2.8870634837859473e-14
  outer loop
    vertex -330.37940952255155 -108.99757852255195 -1.1339771613350422
    vertex -330.120590477449 -108.73875947744946 -1.1339771613350422
    vertex -330.2500000000004 -108.86816900000068 -1.1510142481904995
  endloop
endfacet
facet normal -0.7071067811865444 0.7071067811865508 2.8870634837859473e-14
  outer loop
    vertex -330.120590477449 -108.73875947744946 -1.1339771613350422
    vertex -330.37940952255155 -108.99757852255195 -1.1339771613350422
    vertex -330.50000000000034 -109.11816900000072 -1.0840269500827173
  endloop
endfacet
facet normal -0.7071067811865444 0.7071067811865508 2.8870634837859473e-14
  outer loop
    vertex -330.120590477449 -108.73875947744946 -1.1339771613350422
    vertex -330.50000000000034 -109.11816900000072 -1.0840269500827173
    vertex -330.0000000000002 -108.61816900000069 -1.0840269500827173
  endloop
endfacet
facet normal -0.7071067811865444 0.7071067811865508 2.8870634837859473e-14
  outer loop
    vertex -330.0000000000002 -108.61816900000069 -1.0840269500827173
    vertex -330.50000000000034 -109.11816900000072 -1.0840269500827173
    vertex -331.16116260882484 -109.77933160882513 -0.7345923089029109
  endloop
endfacet
facet normal -0.7071067811865444 0.7071067811865508 2.8870634837859473e-14
  outer loop
    vertex -330.0000000000002 -108.61816900000069 -1.0840269500827173
    vertex -331.16116260882484 -109.77933160882513 -0.7345923089029109
    vertex -329.896446609407 -108.51461560940743 -1.0045676387837752
  endloop
endfacet
facet normal -0.7071067811865444 0.7071067811865508 2.8870634837859473e-14
  outer loop
    vertex -329.896446609407 -108.51461560940743 -1.0045676387837752
    vertex -331.16116260882484 -109.77933160882513 -0.7345923089029109
    vertex -329.8169872981082 -108.4351562981085 -0.9010142481905
  endloop
endfacet
facet normal -0.7071067811865444 0.7071067811865508 2.8870634837859473e-14
  outer loop
    vertex -329.8169872981082 -108.4351562981085 -0.9010142481905
    vertex -331.16116260882484 -109.77933160882513 -0.7345923089029109
    vertex -329.7670370868558 -108.38520608685616 -0.7804237707417675
  endloop
endfacet
facet normal -0.7071067811865444 0.7071067811865508 2.8870634837859473e-14
  outer loop
    vertex -329.7670370868558 -108.38520608685616 -0.7804237707417675
    vertex -331.16116260882484 -109.77933160882513 -0.7345923089029109
    vertex -329.7500000000003 -108.3681690000007 -0.6510142481905005
  endloop
endfacet
facet normal -0.7071067811865444 0.7071067811865508 2.8870634837859473e-14
  outer loop
    vertex -329.7500000000003 -108.3681690000007 -0.6510142481905005
    vertex -331.16116260882484 -109.77933160882513 -0.7345923089029109
    vertex -331.8465897563363 -110.46475875633676 -0.43554350148506377
  endloop
endfacet
facet normal -0.7071067811865444 0.7071067811865508 2.8870634837859473e-14
  outer loop
    vertex -329.7500000000003 -108.3681690000007 -0.6510142481905005
    vertex -331.8465897563363 -110.46475875633676 -0.43554350148506377
    vertex -329.7670370868558 -108.38520608685616 -0.5216047256392334
  endloop
endfacet
facet normal -0.7071067811865444 0.7071067811865508 2.8870634837859473e-14
  outer loop
    vertex -329.7670370868558 -108.38520608685616 -0.5216047256392334
    vertex -331.8465897563363 -110.46475875633676 -0.43554350148506377
    vertex -329.8169872981082 -108.4351562981085 -0.4010142481905009
  endloop
endfacet
facet normal -0.7071067811865444 0.7071067811865508 2.8870634837859473e-14
  outer loop
    vertex -329.8169872981082 -108.4351562981085 -0.4010142481905009
    vertex -331.8465897563363 -110.46475875633676 -0.43554350148506377
    vertex -332.5000000000004 -111.11816900000072 -0.2069053685510673
  endloop
endfacet
facet normal -0.7071067811865444 0.7071067811865508 2.8870634837859473e-14
  outer loop
    vertex -329.8169872981082 -108.4351562981085 -0.4010142481905009
    vertex -332.5000000000004 -111.11816900000072 -0.2069053685510673
    vertex -329.896446609407 -108.51461560940743 -0.2974608575972258
  endloop
endfacet
facet normal -0.7071067811865444 0.7071067811865508 2.8870634837859473e-14
  outer loop
    vertex -329.896446609407 -108.51461560940743 -0.2974608575972258
    vertex -332.5000000000004 -111.11816900000072 -0.2069053685510673
    vertex -330.0000000000002 -108.61816900000069 -0.2180015462982837
  endloop
endfacet
facet normal -0.7071067811865444 0.7071067811865508 2.8870634837859473e-14
  outer loop
    vertex -330.0000000000002 -108.61816900000069 -0.2180015462982837
    vertex -332.5000000000004 -111.11816900000072 -0.2069053685510673
    vertex -332.5000000000002 -111.11816900000072 1.2557190120728934
  endloop
endfacet
facet normal 0.0 -0.11196447610329369 -0.9937122098932442
  outer loop
    vertex -297.5000000000003 -112.62774633823895 0.14402727432418344
    vertex -332.5000000000004 -113.37086806413649 0.22775698388469257
    vertex -332.5000000000004 -112.62774633823895 0.14402727432418344
  endloop
endfacet
facet normal 0.0 -0.11196447610329369 -0.9937122098932442
  outer loop
    vertex -332.5000000000004 -113.37086806413649 0.22775698388469257
    vertex -297.5000000000003 -112.62774633823895 0.14402727432418344
    vertex -297.5000000000003 -113.37086806413649 0.22775698388469257
  endloop
endfacet
facet normal -1.7179990597836443e-19 0.3998920243197358 -0.9165622558699786
  outer loop
    vertex -298.1534102436642 -117.77157924366465 -0.43554350148506377
    vertex -331.16116260882484 -118.45700639117628 -0.7345923089029109
    vertex -331.8465897563363 -117.77157924366465 -0.43554350148506377
  endloop
endfacet
facet normal -1.7179990597836443e-19 0.3998920243197358 -0.9165622558699786
  outer loop
    vertex -331.16116260882484 -118.45700639117628 -0.7345923089029109
    vertex -298.1534102436642 -117.77157924366465 -0.43554350148506377
    vertex -298.8388373911759 -118.45700639117628 -0.7345923089029109
  endloop
endfacet
facet normal 0.0 -0.258819045102519 -0.965925826289069
  outer loop
    vertex -297.5000000000003 -111.17061725589164 -0.18855293006569845
    vertex -332.5000000000004 -111.89295966043757 0.004998133891135661
    vertex -332.5000000000004 -111.17061725589164 -0.18855293006569845
  endloop
endfacet
facet normal 0.0 -0.258819045102519 -0.965925826289069
  outer loop
    vertex -332.5000000000004 -111.89295966043757 0.004998133891135661
    vertex -297.5000000000003 -111.17061725589164 -0.18855293006569845
    vertex -297.5000000000003 -111.89295966043757 0.004998133891135661
  endloop
endfacet
facet normal -1.0 5.291060883313303e-32 1.4725699015232423e-14
  outer loop
    vertex -332.5000000000004 -111.99316900000069 3.0057190120728903
    vertex -332.5000000000004 -115.7431690000007 2.505719012072891
    vertex -332.5000000000004 -116.24316900000072 3.0057190120728903
  endloop
endfacet
facet normal -1.0 5.291060883313303e-32 1.4725699015232423e-14
  outer loop
    vertex -332.5000000000004 -115.7431690000007 2.505719012072891
    vertex -332.5000000000004 -111.99316900000069 3.0057190120728903
    vertex -332.5000000000004 -112.49316900000072 2.505719012072891
  endloop
endfacet
facet normal -1.0 5.291060883313303e-32 1.4725699015232423e-14
  outer loop
    vertex -332.5000000000004 -112.49316900000072 2.505719012072891
    vertex -332.5000000000004 -111.99316900000069 3.0057190120728903
    vertex -332.5000000000002 -112.49316900000072 0.7557190120728944
  endloop
endfacet
facet normal -1.0 5.291060883313303e-32 1.4725699015232423e-14
  outer loop
    vertex -332.5000000000004 -116.24316900000072 3.0057190120728903
    vertex -332.5000000000004 -117.1181690000007 -0.2069053685510673
    vertex -332.5000000000002 -117.1181690000007 1.2557190120728934
  endloop
endfacet
facet normal -1.0 5.291060883313303e-32 1.4725699015232423e-14
  outer loop
    vertex -332.5000000000004 -117.1181690000007 -0.2069053685510673
    vertex -332.5000000000004 -116.24316900000072 3.0057190120728903
    vertex -332.5000000000004 -117.06572074410977 -0.18855293006569845
  endloop
endfacet
facet normal -1.0 5.291060883313303e-32 1.4725699015232423e-14
  outer loop
    vertex -332.5000000000004 -117.06572074410977 -0.18855293006569845
    vertex -332.5000000000004 -116.24316900000072 3.0057190120728903
    vertex -332.5000000000004 -116.34337833956384 0.004998133891135661
  endloop
endfacet
facet normal -1.0 5.291060883313303e-32 1.4725699015232423e-14
  outer loop
    vertex -332.5000000000004 -116.34337833956384 0.004998133891135661
    vertex -332.5000000000004 -116.24316900000072 3.0057190120728903
    vertex -332.5000000000004 -115.60859166176247 0.14402727432418344
  endloop
endfacet
facet normal -1.0 5.291060883313303e-32 1.4725699015232423e-14
  outer loop
    vertex -332.5000000000004 -115.60859166176247 0.14402727432418344
    vertex -332.5000000000004 -116.24316900000072 3.0057190120728903
    vertex -332.5000000000002 -115.7431690000007 0.7557190120728944
  endloop
endfacet
facet normal -1.0 5.291060883313303e-32 1.4725699015232423e-14
  outer loop
    vertex -332.5000000000002 -115.7431690000007 0.7557190120728944
    vertex -332.5000000000004 -116.24316900000072 3.0057190120728903
    vertex -332.5000000000004 -115.7431690000007 2.505719012072891
  endloop
endfacet
facet normal -1.0 5.291060883313303e-32 1.4725699015232423e-14
  outer loop
    vertex -332.5000000000004 -115.60859166176247 0.14402727432418344
    vertex -332.5000000000002 -115.7431690000007 0.7557190120728944
    vertex -332.5000000000002 -112.49316900000072 0.7557190120728944
  endloop
endfacet
facet normal -1.0 5.291060883313303e-32 1.4725699015232423e-14
  outer loop
    vertex -332.5000000000004 -115.60859166176247 0.14402727432418344
    vertex -332.5000000000002 -112.49316900000072 0.7557190120728944
    vertex -332.5000000000004 -114.86546993586494 0.22775698388469257
  endloop
endfacet
facet normal -1.0 5.291060883313303e-32 1.4725699015232423e-14
  outer loop
    vertex -332.5000000000004 -114.86546993586494 0.22775698388469257
    vertex -332.5000000000002 -112.49316900000072 0.7557190120728944
    vertex -332.5000000000004 -114.1181690000007 0.2557190120728953
  endloop
endfacet
facet normal -1.0 5.291060883313303e-32 1.4725699015232423e-14
  outer loop
    vertex -332.5000000000004 -114.1181690000007 0.2557190120728953
    vertex -332.5000000000002 -112.49316900000072 0.7557190120728944
    vertex -332.5000000000004 -113.37086806413649 0.22775698388469257
  endloop
endfacet
facet normal -1.0 5.291060883313303e-32 1.4725699015232423e-14
  outer loop
    vertex -332.5000000000004 -113.37086806413649 0.22775698388469257
    vertex -332.5000000000002 -112.49316900000072 0.7557190120728944
    vertex -332.5000000000004 -112.62774633823895 0.14402727432418344
  endloop
endfacet
facet normal -1.0 5.291060883313303e-32 1.4725699015232423e-14
  outer loop
    vertex -332.5000000000004 -112.62774633823895 0.14402727432418344
    vertex -332.5000000000002 -112.49316900000072 0.7557190120728944
    vertex -332.5000000000004 -111.89295966043757 0.004998133891135661
  endloop
endfacet
facet normal -1.0 5.291060883313303e-32 1.4725699015232423e-14
  outer loop
    vertex -332.5000000000004 -111.89295966043757 0.004998133891135661
    vertex -332.5000000000002 -112.49316900000072 0.7557190120728944
    vertex -332.5000000000004 -111.99316900000069 3.0057190120728903
  endloop
endfacet
facet normal -1.0 5.291060883313303e-32 1.4725699015232423e-14
  outer loop
    vertex -332.5000000000004 -111.89295966043757 0.004998133891135661
    vertex -332.5000000000004 -111.99316900000069 3.0057190120728903
    vertex -332.5000000000002 -111.11816900000072 1.2557190120728934
  endloop
endfacet
facet normal -1.0 5.291060883313303e-32 1.4725699015232423e-14
  outer loop
    vertex -332.5000000000004 -111.89295966043757 0.004998133891135661
    vertex -332.5000000000002 -111.11816900000072 1.2557190120728934
    vertex -332.5000000000004 -111.17061725589164 -0.18855293006569845
  endloop
endfacet
facet normal -1.0 5.291060883313303e-32 1.4725699015232423e-14
  outer loop
    vertex -332.5000000000004 -111.17061725589164 -0.18855293006569845
    vertex -332.5000000000002 -111.11816900000072 1.2557190120728934
    vertex -332.5000000000004 -111.11816900000072 -0.2069053685510673
  endloop
endfacet
facet normal 2.7623687704097877e-19 0.3302790619551742 -0.9438833303083652
  outer loop
    vertex -297.5000000000003 -117.06572074410977 -0.18855293006569845
    vertex -332.5000000000004 -117.1181690000007 -0.2069053685510673
    vertex -332.5000000000004 -117.06572074410977 -0.18855293006569845
  endloop
endfacet
facet normal 2.7623687704097877e-19 0.3302790619551742 -0.9438833303083652
  outer loop
    vertex -332.5000000000004 -117.1181690000007 -0.2069053685510673
    vertex -297.5000000000003 -117.06572074410977 -0.18855293006569845
    vertex -331.8465897563363 -117.77157924366465 -0.43554350148506377
  endloop
endfacet
facet normal 2.7623687704097877e-19 0.3302790619551742 -0.9438833303083652
  outer loop
    vertex -331.8465897563363 -117.77157924366465 -0.43554350148506377
    vertex -297.5000000000003 -117.06572074410977 -0.18855293006569845
    vertex -298.1534102436642 -117.77157924366465 -0.43554350148506377
  endloop
endfacet
facet normal 2.7623687704097877e-19 0.3302790619551742 -0.9438833303083652
  outer loop
    vertex -298.1534102436642 -117.77157924366465 -0.43554350148506377
    vertex -297.5000000000003 -117.06572074410977 -0.18855293006569845
    vertex -297.5000000000003 -117.1181690000007 -0.2069053685510673
  endloop
endfacet
facet normal -9.52819143734292e-20 0.6087614290087409 0.7933533402912198
  outer loop
    vertex -300.0000000000003 -108.61816900000069 -0.2180015462982837
    vertex -329.896446609407 -108.51461560940743 -0.2974608575972258
    vertex -330.0000000000002 -108.61816900000069 -0.2180015462982837
  endloop
endfacet
facet normal -9.52819143734292e-20 0.6087614290087409 0.7933533402912198
  outer loop
    vertex -329.896446609407 -108.51461560940743 -0.2974608575972258
    vertex -300.0000000000003 -108.61816900000069 -0.2180015462982837
    vertex -300.1035533905935 -108.51461560940743 -0.2974608575972258
  endloop
endfacet
facet normal 0.7071067811865512 0.7071067811865439 -7.060753085346206e-15
  outer loop
    vertex -298.1534102436642 -110.46475875633676 -0.43554350148506377
    vertex -297.5000000000003 -111.11816900000072 1.2557190120728934
    vertex -297.5000000000003 -111.11816900000072 -0.2069053685510673
  endloop
endfacet
facet normal 0.7071067811865512 0.7071067811865439 -7.060753085346206e-15
  outer loop
    vertex -297.5000000000003 -111.11816900000072 1.2557190120728934
    vertex -298.1534102436642 -110.46475875633676 -0.43554350148506377
    vertex -300.0000000000003 -108.61816900000069 -0.2180015462982837
  endloop
endfacet
facet normal 0.7071067811865512 0.7071067811865439 -7.060753085346206e-15
  outer loop
    vertex -300.0000000000003 -108.61816900000069 -0.2180015462982837
    vertex -298.1534102436642 -110.46475875633676 -0.43554350148506377
    vertex -298.8388373911759 -109.77933160882513 -0.7345923089029109
  endloop
endfacet
facet normal 0.7071067811865512 0.7071067811865439 -7.060753085346206e-15
  outer loop
    vertex -300.0000000000003 -108.61816900000069 -0.2180015462982837
    vertex -298.8388373911759 -109.77933160882513 -0.7345923089029109
    vertex -299.5000000000003 -109.11816900000072 -1.0840269500827173
  endloop
endfacet
facet normal 0.7071067811865512 0.7071067811865439 -7.060753085346206e-15
  outer loop
    vertex -300.0000000000003 -108.61816900000069 -0.2180015462982837
    vertex -299.5000000000003 -109.11816900000072 -1.0840269500827173
    vertex -299.62059047744907 -108.99757852255195 -1.1339771613350422
  endloop
endfacet
facet normal 0.7071067811865512 0.7071067811865439 -7.060753085346206e-15
  outer loop
    vertex -300.0000000000003 -108.61816900000069 -0.2180015462982837
    vertex -299.62059047744907 -108.99757852255195 -1.1339771613350422
    vertex -299.75000000000034 -108.86816900000068 -1.1510142481904995
  endloop
endfacet
facet normal 0.7071067811865512 0.7071067811865439 -7.060753085346206e-15
  outer loop
    vertex -300.0000000000003 -108.61816900000069 -0.2180015462982837
    vertex -299.75000000000034 -108.86816900000068 -1.1510142481904995
    vertex -299.8794095225516 -108.73875947744942 -1.1339771613350422
  endloop
endfacet
facet normal 0.7071067811865512 0.7071067811865439 -7.060753085346206e-15
  outer loop
    vertex -300.0000000000003 -108.61816900000069 -0.2180015462982837
    vertex -299.8794095225516 -108.73875947744942 -1.1339771613350422
    vertex -300.0000000000003 -108.61816900000069 -1.0840269500827284
  endloop
endfacet
facet normal 0.7071067811865512 0.7071067811865439 -7.060753085346206e-15
  outer loop
    vertex -300.0000000000003 -108.61816900000069 -0.2180015462982837
    vertex -300.0000000000003 -108.61816900000069 -1.0840269500827284
    vertex -300.1035533905935 -108.51461560940743 -1.0045676387837752
  endloop
endfacet
facet normal 0.7071067811865512 0.7071067811865439 -7.060753085346206e-15
  outer loop
    vertex -300.0000000000003 -108.61816900000069 -0.2180015462982837
    vertex -300.1035533905935 -108.51461560940743 -1.0045676387837752
    vertex -300.1035533905935 -108.51461560940743 -0.2974608575972258
  endloop
endfacet
facet normal 0.7071067811865512 0.7071067811865439 -7.060753085346206e-15
  outer loop
    vertex -300.1035533905935 -108.51461560940743 -0.2974608575972258
    vertex -300.1035533905935 -108.51461560940743 -1.0045676387837752
    vertex -300.1830127018925 -108.4351562981085 -0.9010142481905
  endloop
endfacet
facet normal 0.7071067811865512 0.7071067811865439 -7.060753085346206e-15
  outer loop
    vertex -300.1035533905935 -108.51461560940743 -0.2974608575972258
    vertex -300.1830127018925 -108.4351562981085 -0.9010142481905
    vertex -300.1830127018925 -108.4351562981085 -0.4010142481905009
  endloop
endfacet
facet normal 0.7071067811865512 0.7071067811865439 -7.060753085346206e-15
  outer loop
    vertex -300.1830127018925 -108.4351562981085 -0.4010142481905009
    vertex -300.1830127018925 -108.4351562981085 -0.9010142481905
    vertex -300.2329629131448 -108.38520608685616 -0.7804237707417675
  endloop
endfacet
facet normal 0.7071067811865512 0.7071067811865439 -7.060753085346206e-15
  outer loop
    vertex -300.1830127018925 -108.4351562981085 -0.4010142481905009
    vertex -300.2329629131448 -108.38520608685616 -0.7804237707417675
    vertex -300.2329629131448 -108.38520608685616 -0.5216047256392448
  endloop
endfacet
facet normal 0.7071067811865512 0.7071067811865439 -7.060753085346206e-15
  outer loop
    vertex -300.2329629131448 -108.38520608685616 -0.5216047256392448
    vertex -300.2329629131448 -108.38520608685616 -0.7804237707417675
    vertex -300.2500000000003 -108.3681690000007 -0.6510142481905005
  endloop
endfacet
facet normal -9.528191437342918e-20 -0.6087614290087408 0.7933533402912197
  outer loop
    vertex -329.896446609407 -119.72172239059398 -0.2974608575972258
    vertex -300.0000000000003 -119.61816900000072 -0.2180015462982837
    vertex -330.0000000000002 -119.61816900000072 -0.2180015462982837
  endloop
endfacet
facet normal -9.528191437342918e-20 -0.6087614290087408 0.7933533402912197
  outer loop
    vertex -300.0000000000003 -119.61816900000072 -0.2180015462982837
    vertex -329.896446609407 -119.72172239059398 -0.2974608575972258
    vertex -300.1035533905935 -119.72172239059398 -0.2974608575972258
  endloop
endfacet
facet normal 1.0698184367851474e-18 0.507821790101149 0.8614621462945803
  outer loop
    vertex -297.5000000000003 -111.11816900000072 1.2557190120728934
    vertex -330.0000000000002 -108.61816900000069 -0.2180015462982837
    vertex -332.5000000000002 -111.11816900000072 1.2557190120728934
  endloop
endfacet
facet normal 1.0698184367851474e-18 0.507821790101149 0.8614621462945803
  outer loop
    vertex -330.0000000000002 -108.61816900000069 -0.2180015462982837
    vertex -297.5000000000003 -111.11816900000072 1.2557190120728934
    vertex -300.0000000000003 -108.61816900000069 -0.2180015462982837
  endloop
endfacet
facet normal 0.0 0.258819045102519 -0.965925826289069
  outer loop
    vertex -297.5000000000003 -116.34337833956384 0.004998133891135661
    vertex -332.5000000000004 -117.06572074410977 -0.18855293006569845
    vertex -332.5000000000004 -116.34337833956384 0.004998133891135661
  endloop
endfacet
facet normal 0.0 0.258819045102519 -0.965925826289069
  outer loop
    vertex -332.5000000000004 -117.06572074410977 -0.18855293006569845
    vertex -297.5000000000003 -116.34337833956384 0.004998133891135661
    vertex -297.5000000000003 -117.06572074410977 -0.18855293006569845
  endloop
endfacet
facet normal 1.0 0.0 0.0
  outer loop
    vertex -297.5000000000003 -117.06572074410977 -0.18855293006569845
    vertex -297.5000000000003 -117.1181690000007 1.2557190120728934
    vertex -297.5000000000003 -117.1181690000007 -0.2069053685510673
  endloop
endfacet
facet normal 1.0 0.0 0.0
  outer loop
    vertex -297.5000000000003 -117.1181690000007 1.2557190120728934
    vertex -297.5000000000003 -117.06572074410977 -0.18855293006569845
    vertex -297.5000000000003 -116.24316900000072 3.0057190120728903
  endloop
endfacet
facet normal 1.0 0.0 0.0
  outer loop
    vertex -297.5000000000003 -116.24316900000072 3.0057190120728903
    vertex -297.5000000000003 -117.06572074410977 -0.18855293006569845
    vertex -297.5000000000003 -116.34337833956384 0.004998133891135661
  endloop
endfacet
facet normal 1.0 0.0 0.0
  outer loop
    vertex -297.5000000000003 -116.24316900000072 3.0057190120728903
    vertex -297.5000000000003 -116.34337833956384 0.004998133891135661
    vertex -297.5000000000003 -115.60859166176247 0.14402727432418344
  endloop
endfacet
facet normal 1.0 0.0 0.0
  outer loop
    vertex -297.5000000000003 -116.24316900000072 3.0057190120728903
    vertex -297.5000000000003 -115.60859166176247 0.14402727432418344
    vertex -297.5000000000003 -115.7431690000007 0.7557190120728944
  endloop
endfacet
facet normal 1.0 0.0 0.0
  outer loop
    vertex -297.5000000000003 -115.7431690000007 0.7557190120728944
    vertex -297.5000000000003 -115.60859166176247 0.14402727432418344
    vertex -297.5000000000003 -112.49316900000072 0.7557190120728944
  endloop
endfacet
facet normal 1.0 0.0 0.0
  outer loop
    vertex -297.5000000000003 -112.49316900000072 0.7557190120728944
    vertex -297.5000000000003 -115.60859166176247 0.14402727432418344
    vertex -297.5000000000003 -114.86546993586494 0.22775698388469257
  endloop
endfacet
facet normal 1.0 0.0 0.0
  outer loop
    vertex -297.5000000000003 -112.49316900000072 0.7557190120728944
    vertex -297.5000000000003 -114.86546993586494 0.22775698388469257
    vertex -297.5000000000003 -114.1181690000007 0.2557190120728953
  endloop
endfacet
facet normal 1.0 0.0 0.0
  outer loop
    vertex -297.5000000000003 -112.49316900000072 0.7557190120728944
    vertex -297.5000000000003 -114.1181690000007 0.2557190120728953
    vertex -297.5000000000003 -113.37086806413649 0.22775698388469257
  endloop
endfacet
facet normal 1.0 0.0 0.0
  outer loop
    vertex -297.5000000000003 -112.49316900000072 0.7557190120728944
    vertex -297.5000000000003 -113.37086806413649 0.22775698388469257
    vertex -297.5000000000003 -112.62774633823895 0.14402727432418344
  endloop
endfacet
facet normal 1.0 0.0 0.0
  outer loop
    vertex -297.5000000000003 -112.49316900000072 0.7557190120728944
    vertex -297.5000000000003 -112.62774633823895 0.14402727432418344
    vertex -297.5000000000003 -111.89295966043757 0.004998133891135661
  endloop
endfacet
facet normal 1.0 0.0 0.0
  outer loop
    vertex -297.5000000000003 -112.49316900000072 0.7557190120728944
    vertex -297.5000000000003 -111.89295966043757 0.004998133891135661
    vertex -297.5000000000003 -112.49316900000072 2.505719012072891
  endloop
endfacet
facet normal 1.0 0.0 0.0
  outer loop
    vertex -297.5000000000003 -112.49316900000072 2.505719012072891
    vertex -297.5000000000003 -111.89295966043757 0.004998133891135661
    vertex -297.5000000000003 -111.99316900000069 3.0057190120728903
  endloop
endfacet
facet normal 1.0 0.0 0.0
  outer loop
    vertex -297.5000000000003 -111.99316900000069 3.0057190120728903
    vertex -297.5000000000003 -111.89295966043757 0.004998133891135661
    vertex -297.5000000000003 -111.11816900000072 1.2557190120728934
  endloop
endfacet
facet normal 1.0 0.0 0.0
  outer loop
    vertex -297.5000000000003 -111.11816900000072 1.2557190120728934
    vertex -297.5000000000003 -111.89295966043757 0.004998133891135661
    vertex -297.5000000000003 -111.17061725589164 -0.18855293006569845
  endloop
endfacet
facet normal 1.0 0.0 0.0
  outer loop
    vertex -297.5000000000003 -111.11816900000072 1.2557190120728934
    vertex -297.5000000000003 -111.17061725589164 -0.18855293006569845
    vertex -297.5000000000003 -111.11816900000072 -0.2069053685510673
  endloop
endfacet
facet normal 1.0 0.0 0.0
  outer loop
    vertex -297.5000000000003 -116.24316900000072 3.0057190120728903
    vertex -297.5000000000003 -115.7431690000007 2.505719012072891
    vertex -297.5000000000003 -111.99316900000069 3.0057190120728903
  endloop
endfacet
facet normal 1.0 0.0 0.0
  outer loop
    vertex -297.5000000000003 -115.7431690000007 2.505719012072891
    vertex -297.5000000000003 -116.24316900000072 3.0057190120728903
    vertex -297.5000000000003 -115.7431690000007 0.7557190120728944
  endloop
endfacet
facet normal 1.0 0.0 0.0
  outer loop
    vertex -297.5000000000003 -111.99316900000069 3.0057190120728903
    vertex -297.5000000000003 -115.7431690000007 2.505719012072891
    vertex -297.5000000000003 -112.49316900000072 2.505719012072891
  endloop
endfacet
facet normal -2.4961545177073782e-17 -0.991444861373819 0.13052619221998704
  outer loop
    vertex -300.2329629131448 -119.85113191314525 -0.5216047256392334
    vertex -329.7500000000003 -119.8681690000007 -0.6510142481905005
    vertex -300.2500000000003 -119.8681690000007 -0.6510142481905005
  endloop
endfacet
facet normal -2.4961545177073782e-17 -0.991444861373819 0.13052619221998704
  outer loop
    vertex -329.7500000000003 -119.8681690000007 -0.6510142481905005
    vertex -300.2329629131448 -119.85113191314525 -0.5216047256392334
    vertex -329.7670370868558 -119.85113191314525 -0.5216047256392448
  endloop
endfacet
facet normal 2.4961545177073782e-17 0.991444861373819 0.13052619221998704
  outer loop
    vertex -329.7670370868558 -108.38520608685616 -0.5216047256392334
    vertex -300.2500000000003 -108.3681690000007 -0.6510142481905005
    vertex -329.7500000000003 -108.3681690000007 -0.6510142481905005
  endloop
endfacet
facet normal 2.4961545177073782e-17 0.991444861373819 0.13052619221998704
  outer loop
    vertex -300.2500000000003 -108.3681690000007 -0.6510142481905005
    vertex -329.7670370868558 -108.38520608685616 -0.5216047256392334
    vertex -300.2329629131448 -108.38520608685616 -0.5216047256392448
  endloop
endfacet
facet normal 0.0 0.03739119427633205 -0.9993007047883984
  outer loop
    vertex -297.5000000000003 -114.1181690000007 0.2557190120728953
    vertex -332.5000000000004 -114.86546993586494 0.22775698388469257
    vertex -332.5000000000004 -114.1181690000007 0.2557190120728953
  endloop
endfacet
facet normal 0.0 0.03739119427633205 -0.9993007047883984
  outer loop
    vertex -332.5000000000004 -114.86546993586494 0.22775698388469257
    vertex -297.5000000000003 -114.1181690000007 0.2557190120728953
    vertex -297.5000000000003 -114.86546993586494 0.22775698388469257
  endloop
endfacet
facet normal -1.7179990597836443e-19 -0.3998920243197358 -0.9165622558699786
  outer loop
    vertex -331.16116260882484 -109.77933160882513 -0.7345923089029109
    vertex -298.1534102436642 -110.46475875633676 -0.43554350148506377
    vertex -331.8465897563363 -110.46475875633676 -0.43554350148506377
  endloop
endfacet
facet normal -1.7179990597836443e-19 -0.3998920243197358 -0.9165622558699786
  outer loop
    vertex -298.1534102436642 -110.46475875633676 -0.43554350148506377
    vertex -331.16116260882484 -109.77933160882513 -0.7345923089029109
    vertex -298.8388373911759 -109.77933160882513 -0.7345923089029109
  endloop
endfacet
facet normal 1.500929393264692e-16 -0.6087614290087682 -0.7933533402911987
  outer loop
    vertex -300.0000000000003 -119.61816900000072 -1.0840269500827173
    vertex -329.896446609407 -119.72172239059398 -1.0045676387837752
    vertex -330.0000000000002 -119.61816900000072 -1.0840269500827284
  endloop
endfacet
facet normal 1.500929393264692e-16 -0.6087614290087682 -0.7933533402911987
  outer loop
    vertex -329.896446609407 -119.72172239059398 -1.0045676387837752
    vertex -300.0000000000003 -119.61816900000072 -1.0840269500827173
    vertex -300.1035533905935 -119.72172239059398 -1.0045676387837752
  endloop
endfacet
facet normal 0.0 0.9914448613738197 -0.13052619221998146
  outer loop
    vertex -329.7500000000003 -108.3681690000007 -0.6510142481905005
    vertex -300.2329629131448 -108.38520608685616 -0.7804237707417675
    vertex -329.7670370868558 -108.38520608685616 -0.7804237707417675
  endloop
endfacet
facet normal 0.0 0.9914448613738197 -0.13052619221998146
  outer loop
    vertex -300.2329629131448 -108.38520608685616 -0.7804237707417675
    vertex -329.7500000000003 -108.3681690000007 -0.6510142481905005
    vertex -300.2500000000003 -108.3681690000007 -0.6510142481905005
  endloop
endfacet
facet normal 1.1199620858038003e-20 -0.7933533402912517 -0.6087614290086991
  outer loop
    vertex -300.1830127018925 -119.80118170189293 -0.9010142481905
    vertex -329.896446609407 -119.72172239059398 -1.0045676387837752
    vertex -300.1035533905935 -119.72172239059398 -1.0045676387837752
  endloop
endfacet
facet normal 1.1199620858038003e-20 -0.7933533402912517 -0.6087614290086991
  outer loop
    vertex -329.896446609407 -119.72172239059398 -1.0045676387837752
    vertex -300.1830127018925 -119.80118170189293 -0.9010142481905
    vertex -329.8169872981082 -119.80118170189293 -0.9010142481905
  endloop
endfacet
facet normal 9.654368688355822e-17 -0.13052619222000383 -0.9914448613738168
  outer loop
    vertex -299.75000000000034 -119.36816900000073 -1.1510142481904995
    vertex -330.120590477449 -119.497578522552 -1.1339771613350422
    vertex -330.2500000000004 -119.36816900000073 -1.1510142481904995
  endloop
endfacet
facet normal 9.654368688355822e-17 -0.13052619222000383 -0.9914448613738168
  outer loop
    vertex -330.120590477449 -119.497578522552 -1.1339771613350422
    vertex -299.75000000000034 -119.36816900000073 -1.1510142481904995
    vertex -299.8794095225516 -119.49757852255195 -1.1339771613350422
  endloop
endfacet
facet normal -5.614392427999092e-20 0.38268343236508334 -0.9238795325112895
  outer loop
    vertex -299.5000000000003 -119.1181690000007 -1.0840269500827173
    vertex -330.37940952255155 -119.23875947744946 -1.1339771613350422
    vertex -330.50000000000034 -119.1181690000007 -1.0840269500827173
  endloop
endfacet
facet normal -5.614392427999092e-20 0.38268343236508334 -0.9238795325112895
  outer loop
    vertex -330.37940952255155 -119.23875947744946 -1.1339771613350422
    vertex -299.5000000000003 -119.1181690000007 -1.0840269500827173
    vertex -299.62059047744907 -119.23875947744946 -1.1339771613350422
  endloop
endfacet
facet normal -2.270119899796669e-19 -0.46726862827306676 -0.8841153935046073
  outer loop
    vertex -330.50000000000034 -109.11816900000072 -1.0840269500827173
    vertex -298.8388373911759 -109.77933160882513 -0.7345923089029109
    vertex -331.16116260882484 -109.77933160882513 -0.7345923089029109
  endloop
endfacet
facet normal -2.270119899796669e-19 -0.46726862827306676 -0.8841153935046073
  outer loop
    vertex -298.8388373911759 -109.77933160882513 -0.7345923089029109
    vertex -330.50000000000034 -109.11816900000072 -1.0840269500827173
    vertex -299.5000000000003 -109.11816900000072 -1.0840269500827173
  endloop
endfacet
facet normal 1.1199620858038003e-20 0.7933533402912517 0.6087614290086991
  outer loop
    vertex -329.896446609407 -108.51461560940743 -0.2974608575972258
    vertex -300.1830127018925 -108.4351562981085 -0.4010142481905009
    vertex -329.8169872981082 -108.4351562981085 -0.4010142481905009
  endloop
endfacet
facet normal 1.1199620858038003e-20 0.7933533402912517 0.6087614290086991
  outer loop
    vertex -300.1830127018925 -108.4351562981085 -0.4010142481905009
    vertex -329.896446609407 -108.51461560940743 -0.2974608575972258
    vertex -300.1035533905935 -108.51461560940743 -0.2974608575972258
  endloop
endfacet
facet normal 1.1199620858038003e-20 -0.7933533402912517 0.6087614290086991
  outer loop
    vertex -300.1035533905935 -119.72172239059398 -0.2974608575972258
    vertex -329.8169872981082 -119.80118170189293 -0.4010142481905009
    vertex -300.1830127018925 -119.80118170189293 -0.4010142481905009
  endloop
endfacet
facet normal 1.1199620858038003e-20 -0.7933533402912517 0.6087614290086991
  outer loop
    vertex -329.8169872981082 -119.80118170189293 -0.4010142481905009
    vertex -300.1035533905935 -119.72172239059398 -0.2974608575972258
    vertex -329.896446609407 -119.72172239059398 -0.2974608575972258
  endloop
endfacet
facet normal 0.0 -0.03739119427633205 -0.9993007047883984
  outer loop
    vertex -297.5000000000003 -113.37086806413649 0.22775698388469257
    vertex -332.5000000000004 -114.1181690000007 0.2557190120728953
    vertex -332.5000000000004 -113.37086806413649 0.22775698388469257
  endloop
endfacet
facet normal 0.0 -0.03739119427633205 -0.9993007047883984
  outer loop
    vertex -332.5000000000004 -114.1181690000007 0.2557190120728953
    vertex -297.5000000000003 -113.37086806413649 0.22775698388469257
    vertex -297.5000000000003 -114.1181690000007 0.2557190120728953
  endloop
endfacet
facet normal -2.5514676980790886e-19 0.46726862827306676 -0.8841153935046073
  outer loop
    vertex -298.8388373911759 -118.45700639117628 -0.7345923089029109
    vertex -330.50000000000034 -119.1181690000007 -1.0840269500827173
    vertex -331.16116260882484 -118.45700639117628 -0.7345923089029109
  endloop
endfacet
facet normal -2.5514676980790886e-19 0.46726862827306676 -0.8841153935046073
  outer loop
    vertex -330.50000000000034 -119.1181690000007 -1.0840269500827173
    vertex -298.8388373911759 -118.45700639117628 -0.7345923089029109
    vertex -299.5000000000003 -119.1181690000007 -1.0840269500827173
  endloop
endfacet
facet normal -7.284219730134384e-17 -0.923879532511258 0.3826834323651597
  outer loop
    vertex -300.2329629131448 -119.85113191314525 -0.5216047256392334
    vertex -329.8169872981082 -119.80118170189293 -0.4010142481905009
    vertex -329.7670370868558 -119.85113191314525 -0.5216047256392448
  endloop
endfacet
facet normal -7.284219730134384e-17 -0.923879532511258 0.3826834323651597
  outer loop
    vertex -329.8169872981082 -119.80118170189293 -0.4010142481905009
    vertex -300.2329629131448 -119.85113191314525 -0.5216047256392334
    vertex -300.1830127018925 -119.80118170189293 -0.4010142481905009
  endloop
endfacet
facet normal -4.600505347039861e-16 0.3826834323651076 -0.9238795325112795
  outer loop
    vertex -330.0000000000002 -108.61816900000069 -1.0840269500827173
    vertex -299.8794095225516 -108.73875947744942 -1.1339771613350422
    vertex -330.120590477449 -108.73875947744946 -1.1339771613350422
  endloop
endfacet
facet normal -4.600505347039861e-16 0.3826834323651076 -0.9238795325112795
  outer loop
    vertex -299.8794095225516 -108.73875947744942 -1.1339771613350422
    vertex -330.0000000000002 -108.61816900000069 -1.0840269500827173
    vertex -300.0000000000003 -108.61816900000069 -1.0840269500827284
  endloop
endfacet
facet normal 0.0 -0.9914448613738197 -0.13052619221998146
  outer loop
    vertex -300.2500000000003 -119.8681690000007 -0.6510142481905005
    vertex -329.7670370868558 -119.85113191314525 -0.7804237707417675
    vertex -300.2329629131448 -119.85113191314525 -0.7804237707417675
  endloop
endfacet
facet normal 0.0 -0.9914448613738197 -0.13052619221998146
  outer loop
    vertex -329.7670370868558 -119.85113191314525 -0.7804237707417675
    vertex -300.2500000000003 -119.8681690000007 -0.6510142481905005
    vertex -329.7500000000003 -119.8681690000007 -0.6510142481905005
  endloop
endfacet
facet normal 0.7071067811865515 -0.7071067811865436 -1.035577119184109e-14
  outer loop
    vertex -300.2329629131448 -119.85113191314525 -0.7804237707417675
    vertex -300.2329629131448 -119.85113191314525 -0.5216047256392334
    vertex -300.2500000000003 -119.8681690000007 -0.6510142481905005
  endloop
endfacet
facet normal 0.7071067811865515 -0.7071067811865436 -1.035577119184109e-14
  outer loop
    vertex -300.2329629131448 -119.85113191314525 -0.5216047256392334
    vertex -300.2329629131448 -119.85113191314525 -0.7804237707417675
    vertex -300.1830127018925 -119.80118170189293 -0.9010142481905
  endloop
endfacet
facet normal 0.7071067811865515 -0.7071067811865436 -1.035577119184109e-14
  outer loop
    vertex -300.2329629131448 -119.85113191314525 -0.5216047256392334
    vertex -300.1830127018925 -119.80118170189293 -0.9010142481905
    vertex -300.1830127018925 -119.80118170189293 -0.4010142481905009
  endloop
endfacet
facet normal 0.7071067811865515 -0.7071067811865436 -1.035577119184109e-14
  outer loop
    vertex -300.1830127018925 -119.80118170189293 -0.4010142481905009
    vertex -300.1830127018925 -119.80118170189293 -0.9010142481905
    vertex -300.1035533905935 -119.72172239059398 -1.0045676387837752
  endloop
endfacet
facet normal 0.7071067811865515 -0.7071067811865436 -1.035577119184109e-14
  outer loop
    vertex -300.1830127018925 -119.80118170189293 -0.4010142481905009
    vertex -300.1035533905935 -119.72172239059398 -1.0045676387837752
    vertex -300.1035533905935 -119.72172239059398 -0.2974608575972258
  endloop
endfacet
facet normal 0.7071067811865515 -0.7071067811865436 -1.035577119184109e-14
  outer loop
    vertex -300.1035533905935 -119.72172239059398 -0.2974608575972258
    vertex -300.1035533905935 -119.72172239059398 -1.0045676387837752
    vertex -300.0000000000003 -119.61816900000072 -1.0840269500827173
  endloop
endfacet
facet normal 0.7071067811865515 -0.7071067811865436 -1.035577119184109e-14
  outer loop
    vertex -300.1035533905935 -119.72172239059398 -0.2974608575972258
    vertex -300.0000000000003 -119.61816900000072 -1.0840269500827173
    vertex -300.0000000000003 -119.61816900000072 -0.2180015462982837
  endloop
endfacet
facet normal 0.7071067811865515 -0.7071067811865436 -1.035577119184109e-14
  outer loop
    vertex -300.0000000000003 -119.61816900000072 -0.2180015462982837
    vertex -300.0000000000003 -119.61816900000072 -1.0840269500827173
    vertex -299.8794095225516 -119.49757852255195 -1.1339771613350422
  endloop
endfacet
facet normal 0.7071067811865515 -0.7071067811865436 -1.035577119184109e-14
  outer loop
    vertex -300.0000000000003 -119.61816900000072 -0.2180015462982837
    vertex -299.8794095225516 -119.49757852255195 -1.1339771613350422
    vertex -297.5000000000003 -117.1181690000007 1.2557190120728934
  endloop
endfacet
facet normal 0.7071067811865515 -0.7071067811865436 -1.035577119184109e-14
  outer loop
    vertex -297.5000000000003 -117.1181690000007 1.2557190120728934
    vertex -299.8794095225516 -119.49757852255195 -1.1339771613350422
    vertex -299.75000000000034 -119.36816900000073 -1.1510142481904995
  endloop
endfacet
facet normal 0.7071067811865515 -0.7071067811865436 -1.035577119184109e-14
  outer loop
    vertex -297.5000000000003 -117.1181690000007 1.2557190120728934
    vertex -299.75000000000034 -119.36816900000073 -1.1510142481904995
    vertex -299.62059047744907 -119.23875947744946 -1.1339771613350422
  endloop
endfacet
facet normal 0.7071067811865515 -0.7071067811865436 -1.035577119184109e-14
  outer loop
    vertex -297.5000000000003 -117.1181690000007 1.2557190120728934
    vertex -299.62059047744907 -119.23875947744946 -1.1339771613350422
    vertex -299.5000000000003 -119.1181690000007 -1.0840269500827173
  endloop
endfacet
facet normal 0.7071067811865515 -0.7071067811865436 -1.035577119184109e-14
  outer loop
    vertex -297.5000000000003 -117.1181690000007 1.2557190120728934
    vertex -299.5000000000003 -119.1181690000007 -1.0840269500827173
    vertex -298.8388373911759 -118.45700639117628 -0.7345923089029109
  endloop
endfacet
facet normal 0.7071067811865515 -0.7071067811865436 -1.035577119184109e-14
  outer loop
    vertex -297.5000000000003 -117.1181690000007 1.2557190120728934
    vertex -298.8388373911759 -118.45700639117628 -0.7345923089029109
    vertex -298.1534102436642 -117.77157924366465 -0.43554350148506377
  endloop
endfacet
facet normal 0.7071067811865515 -0.7071067811865436 -1.035577119184109e-14
  outer loop
    vertex -297.5000000000003 -117.1181690000007 1.2557190120728934
    vertex -298.1534102436642 -117.77157924366465 -0.43554350148506377
    vertex -297.5000000000003 -117.1181690000007 -0.2069053685510673
  endloop
endfacet
facet normal 1.7313616423633804e-19 -0.3302790619551742 -0.9438833303083652
  outer loop
    vertex -331.8465897563363 -110.46475875633676 -0.43554350148506377
    vertex -332.5000000000004 -111.17061725589164 -0.18855293006569845
    vertex -332.5000000000004 -111.11816900000072 -0.2069053685510673
  endloop
endfacet
facet normal 1.7313616423633804e-19 -0.3302790619551742 -0.9438833303083652
  outer loop
    vertex -332.5000000000004 -111.17061725589164 -0.18855293006569845
    vertex -331.8465897563363 -110.46475875633676 -0.43554350148506377
    vertex -297.5000000000003 -111.17061725589164 -0.18855293006569845
  endloop
endfacet
facet normal 1.7313616423633804e-19 -0.3302790619551742 -0.9438833303083652
  outer loop
    vertex -297.5000000000003 -111.17061725589164 -0.18855293006569845
    vertex -331.8465897563363 -110.46475875633676 -0.43554350148506377
    vertex -298.1534102436642 -110.46475875633676 -0.43554350148506377
  endloop
endfacet
facet normal 1.7313616423633804e-19 -0.3302790619551742 -0.9438833303083652
  outer loop
    vertex -297.5000000000003 -111.17061725589164 -0.18855293006569845
    vertex -298.1534102436642 -110.46475875633676 -0.43554350148506377
    vertex -297.5000000000003 -111.11816900000072 -0.2069053685510673
  endloop
endfacet
facet normal 4.600065636908827e-16 -0.38268343236510755 -0.9238795325112795
  outer loop
    vertex -299.8794095225516 -119.49757852255195 -1.1339771613350422
    vertex -330.0000000000002 -119.61816900000072 -1.0840269500827284
    vertex -330.120590477449 -119.497578522552 -1.1339771613350422
  endloop
endfacet
facet normal 4.600065636908827e-16 -0.38268343236510755 -0.9238795325112795
  outer loop
    vertex -330.0000000000002 -119.61816900000072 -1.0840269500827284
    vertex -299.8794095225516 -119.49757852255195 -1.1339771613350422
    vertex -300.0000000000003 -119.61816900000072 -1.0840269500827173
  endloop
endfacet
facet normal -4.347213341997667e-21 0.13052619221998146 -0.9914448613738197
  outer loop
    vertex -299.62059047744907 -119.23875947744946 -1.1339771613350422
    vertex -330.2500000000004 -119.36816900000073 -1.1510142481904995
    vertex -330.37940952255155 -119.23875947744946 -1.1339771613350422
  endloop
endfacet
facet normal -4.347213341997667e-21 0.13052619221998146 -0.9914448613738197
  outer loop
    vertex -330.2500000000004 -119.36816900000073 -1.1510142481904995
    vertex -299.62059047744907 -119.23875947744946 -1.1339771613350422
    vertex -299.75000000000034 -119.36816900000073 -1.1510142481904995
  endloop
endfacet
facet normal -1.1221604715528521e-19 0.9238795325112517 -0.38268343236517505
  outer loop
    vertex -329.7670370868558 -108.38520608685616 -0.7804237707417675
    vertex -300.1830127018925 -108.4351562981085 -0.9010142481905
    vertex -329.8169872981082 -108.4351562981085 -0.9010142481905
  endloop
endfacet
facet normal -1.1221604715528521e-19 0.9238795325112517 -0.38268343236517505
  outer loop
    vertex -300.1830127018925 -108.4351562981085 -0.9010142481905
    vertex -329.7670370868558 -108.38520608685616 -0.7804237707417675
    vertex -300.2329629131448 -108.38520608685616 -0.7804237707417675
  endloop
endfacet
facet normal 0.0 0.11196447610329369 -0.9937122098932442
  outer loop
    vertex -297.5000000000003 -114.86546993586494 0.22775698388469257
    vertex -332.5000000000004 -115.60859166176247 0.14402727432418344
    vertex -332.5000000000004 -114.86546993586494 0.22775698388469257
  endloop
endfacet
facet normal 0.0 0.11196447610329369 -0.9937122098932442
  outer loop
    vertex -332.5000000000004 -115.60859166176247 0.14402727432418344
    vertex -297.5000000000003 -114.86546993586494 0.22775698388469257
    vertex -297.5000000000003 -115.60859166176247 0.14402727432418344
  endloop
endfacet
facet normal -9.653273350876505e-17 0.13052619222000386 -0.9914448613738168
  outer loop
    vertex -330.120590477449 -108.73875947744946 -1.1339771613350422
    vertex -299.75000000000034 -108.86816900000068 -1.1510142481904995
    vertex -330.2500000000004 -108.86816900000068 -1.1510142481904995
  endloop
endfacet
facet normal -9.653273350876505e-17 0.13052619222000386 -0.9914448613738168
  outer loop
    vertex -299.75000000000034 -108.86816900000068 -1.1510142481904995
    vertex -330.120590477449 -108.73875947744946 -1.1339771613350422
    vertex -299.8794095225516 -108.73875947744942 -1.1339771613350422
  endloop
endfacet
facet normal 0.0 -0.507821790101149 0.8614621462945803
  outer loop
    vertex -330.0000000000002 -119.61816900000072 -0.2180015462982837
    vertex -297.5000000000003 -117.1181690000007 1.2557190120728934
    vertex -332.5000000000002 -117.1181690000007 1.2557190120728934
  endloop
endfacet
facet normal 0.0 -0.507821790101149 0.8614621462945803
  outer loop
    vertex -297.5000000000003 -117.1181690000007 1.2557190120728934
    vertex -330.0000000000002 -119.61816900000072 -0.2180015462982837
    vertex -300.0000000000003 -119.61816900000072 -0.2180015462982837
  endloop
endfacet
facet normal 7.274010327474405e-17 0.923879532511258 0.3826834323651597
  outer loop
    vertex -329.7670370868558 -108.38520608685616 -0.5216047256392334
    vertex -300.1830127018925 -108.4351562981085 -0.4010142481905009
    vertex -300.2329629131448 -108.38520608685616 -0.5216047256392448
  endloop
endfacet
facet normal 7.274010327474405e-17 0.923879532511258 0.3826834323651597
  outer loop
    vertex -300.1830127018925 -108.4351562981085 -0.4010142481905009
    vertex -329.7670370868558 -108.38520608685616 -0.5216047256392334
    vertex -329.8169872981082 -108.4351562981085 -0.4010142481905009
  endloop
endfacet
facet normal 0.0 0.18591160716291805 -0.9825664732332877
  outer loop
    vertex -297.5000000000003 -115.60859166176247 0.14402727432418344
    vertex -332.5000000000004 -116.34337833956384 0.004998133891135661
    vertex -332.5000000000004 -115.60859166176247 0.14402727432418344
  endloop
endfacet
facet normal 0.0 0.18591160716291805 -0.9825664732332877
  outer loop
    vertex -332.5000000000004 -116.34337833956384 0.004998133891135661
    vertex -297.5000000000003 -115.60859166176247 0.14402727432418344
    vertex -297.5000000000003 -116.34337833956384 0.004998133891135661
  endloop
endfacet
facet normal 5.61439242799909e-20 -0.38268343236508334 -0.9238795325112895
  outer loop
    vertex -330.37940952255155 -108.99757852255195 -1.1339771613350422
    vertex -299.5000000000003 -109.11816900000072 -1.0840269500827173
    vertex -330.50000000000034 -109.11816900000072 -1.0840269500827173
  endloop
endfacet
facet normal 5.61439242799909e-20 -0.38268343236508334 -0.9238795325112895
  outer loop
    vertex -299.5000000000003 -109.11816900000072 -1.0840269500827173
    vertex -330.37940952255155 -108.99757852255195 -1.1339771613350422
    vertex -299.62059047744907 -108.99757852255195 -1.1339771613350422
  endloop
endfacet
facet normal -1.5028350315521604e-16 0.6087614290087681 -0.7933533402911987
  outer loop
    vertex -329.896446609407 -108.51461560940743 -1.0045676387837752
    vertex -300.0000000000003 -108.61816900000069 -1.0840269500827284
    vertex -330.0000000000002 -108.61816900000069 -1.0840269500827173
  endloop
endfacet
facet normal -1.5028350315521604e-16 0.6087614290087681 -0.7933533402911987
  outer loop
    vertex -300.0000000000003 -108.61816900000069 -1.0840269500827284
    vertex -329.896446609407 -108.51461560940743 -1.0045676387837752
    vertex -300.1035533905935 -108.51461560940743 -1.0045676387837752
  endloop
endfacet
facet normal 1.0122020555718089e-20 -0.9238795325112517 -0.38268343236517494
  outer loop
    vertex -300.2329629131448 -119.85113191314525 -0.7804237707417675
    vertex -329.8169872981082 -119.80118170189293 -0.9010142481905
    vertex -300.1830127018925 -119.80118170189293 -0.9010142481905
  endloop
endfacet
facet normal 1.0122020555718089e-20 -0.9238795325112517 -0.38268343236517494
  outer loop
    vertex -329.8169872981082 -119.80118170189293 -0.9010142481905
    vertex -300.2329629131448 -119.85113191314525 -0.7804237707417675
    vertex -329.7670370868558 -119.85113191314525 -0.7804237707417675
  endloop
endfacet
facet normal 0.0 -0.18591160716291805 -0.9825664732332877
  outer loop
    vertex -297.5000000000003 -111.89295966043757 0.004998133891135661
    vertex -332.5000000000004 -112.62774633823895 0.14402727432418344
    vertex -332.5000000000004 -111.89295966043757 0.004998133891135661
  endloop
endfacet
facet normal 0.0 -0.18591160716291805 -0.9825664732332877
  outer loop
    vertex -332.5000000000004 -112.62774633823895 0.14402727432418344
    vertex -297.5000000000003 -111.89295966043757 0.004998133891135661
    vertex -297.5000000000003 -112.62774633823895 0.14402727432418344
  endloop
endfacet
facet normal 1.1199620858038003e-20 0.7933533402912517 -0.6087614290086991
  outer loop
    vertex -329.8169872981082 -108.4351562981085 -0.9010142481905
    vertex -300.1035533905935 -108.51461560940743 -1.0045676387837752
    vertex -329.896446609407 -108.51461560940743 -1.0045676387837752
  endloop
endfacet
facet normal 1.1199620858038003e-20 0.7933533402912517 -0.6087614290086991
  outer loop
    vertex -300.1035533905935 -108.51461560940743 -1.0045676387837752
    vertex -329.8169872981082 -108.4351562981085 -0.9010142481905
    vertex -300.1830127018925 -108.4351562981085 -0.9010142481905
  endloop
endfacet
facet normal -4.347213341997667e-21 -0.13052619221998146 -0.9914448613738197
  outer loop
    vertex -330.2500000000004 -108.86816900000068 -1.1510142481904995
    vertex -299.62059047744907 -108.99757852255195 -1.1339771613350422
    vertex -330.37940952255155 -108.99757852255195 -1.1339771613350422
  endloop
endfacet
facet normal -4.347213341997667e-21 -0.13052619221998146 -0.9914448613738197
  outer loop
    vertex -299.62059047744907 -108.99757852255195 -1.1339771613350422
    vertex -330.2500000000004 -108.86816900000068 -1.1510142481904995
    vertex -299.75000000000034 -108.86816900000068 -1.1510142481904995
  endloop
endfacet
facet normal 0.0 0.0 1.0
  outer loop
    vertex -297.5000000000003 -115.7431690000007 0.7557190120728944
    vertex -332.5000000000002 -112.49316900000072 0.7557190120728944
    vertex -332.5000000000002 -115.7431690000007 0.7557190120728944
  endloop
endfacet
facet normal 0.0 0.0 1.0
  outer loop
    vertex -332.5000000000002 -112.49316900000072 0.7557190120728944
    vertex -297.5000000000003 -115.7431690000007 0.7557190120728944
    vertex -297.5000000000003 -112.49316900000072 0.7557190120728944
  endloop
endfacet
facet normal 0.0 -1.0 0.0
  outer loop
    vertex -297.5000000000003 -112.49316900000072 2.505719012072891
    vertex -332.5000000000002 -112.49316900000072 0.7557190120728944
    vertex -297.5000000000003 -112.49316900000072 0.7557190120728944
  endloop
endfacet
facet normal 0.0 -1.0 0.0
  outer loop
    vertex -332.5000000000002 -112.49316900000072 0.7557190120728944
    vertex -297.5000000000003 -112.49316900000072 2.505719012072891
    vertex -332.5000000000004 -112.49316900000072 2.505719012072891
  endloop
endfacet
facet normal 0.0 1.0 0.0
  outer loop
    vertex -332.5000000000004 -115.7431690000007 2.505719012072891
    vertex -297.5000000000003 -115.7431690000007 0.7557190120728944
    vertex -332.5000000000002 -115.7431690000007 0.7557190120728944
  endloop
endfacet
facet normal 0.0 1.0 0.0
  outer loop
    vertex -297.5000000000003 -115.7431690000007 0.7557190120728944
    vertex -332.5000000000004 -115.7431690000007 2.505719012072891
    vertex -297.5000000000003 -115.7431690000007 2.505719012072891
  endloop
endfacet
facet normal 0.0 0.0 -1.0
  outer loop
    vertex -297.5000000000003 -112.49316900000072 2.505719012072891
    vertex -332.5000000000004 -115.7431690000007 2.505719012072891
    vertex -332.5000000000004 -112.49316900000072 2.505719012072891
  endloop
endfacet
facet normal 0.0 0.0 -1.0
  outer loop
    vertex -332.5000000000004 -115.7431690000007 2.505719012072891
    vertex -297.5000000000003 -112.49316900000072 2.505719012072891
    vertex -297.5000000000003 -115.7431690000007 2.505719012072891
  endloop
endfacet
facet normal 8.17159048115727e-19 0.8944271909999194 0.447213595499951
  outer loop
    vertex -332.5000000000004 -111.99316900000069 3.0057190120728903
    vertex -297.5000000000003 -111.11816900000072 1.2557190120728934
    vertex -332.5000000000002 -111.11816900000072 1.2557190120728934
  endloop
endfacet
facet normal 8.17159048115727e-19 0.8944271909999194 0.447213595499951
  outer loop
    vertex -297.5000000000003 -111.11816900000072 1.2557190120728934
    vertex -332.5000000000004 -111.99316900000069 3.0057190120728903
    vertex -297.5000000000003 -111.99316900000069 3.0057190120728903
  endloop
endfacet
facet normal 0.0 0.0 1.0
  outer loop
    vertex -297.5000000000003 -116.24316900000072 3.0057190120728903
    vertex -332.5000000000004 -111.99316900000069 3.0057190120728903
    vertex -332.5000000000004 -116.24316900000072 3.0057190120728903
  endloop
endfacet
facet normal 0.0 0.0 1.0
  outer loop
    vertex -332.5000000000004 -111.99316900000069 3.0057190120728903
    vertex -297.5000000000003 -116.24316900000072 3.0057190120728903
    vertex -297.5000000000003 -111.99316900000069 3.0057190120728903
  endloop
endfacet
facet normal 8.17159048115727e-19 -0.8944271909999194 0.447213595499951
  outer loop
    vertex -297.5000000000003 -116.24316900000072 3.0057190120728903
    vertex -332.5000000000002 -117.1181690000007 1.2557190120728934
    vertex -297.5000000000003 -117.1181690000007 1.2557190120728934
  endloop
endfacet
facet normal 8.17159048115727e-19 -0.8944271909999194 0.447213595499951
  outer loop
    vertex -332.5000000000002 -117.1181690000007 1.2557190120728934
    vertex -297.5000000000003 -116.24316900000072 3.0057190120728903
    vertex -332.5000000000004 -116.24316900000072 3.0057190120728903
  endloop
endfacet
endsolid ProtoGlove
