solid ProtoGlove
facet normal -0.7071067811865447 -0.7071067811865503 1.3023166801860691e-14
  outer loop
    vertex -180.120590477449 -179.4975785225519 -1.1156247228496843
    vertex -180.37940952255155 -179.23875947744935 -1.1156247228496843
    vertex -180.25000000000028 -179.36816900000062 -1.1326618097051415
  endloop
endfacet
facet normal -0.7071067811865447 -0.7071067811865503 1.3023166801860691e-14
  outer loop
    vertex -180.37940952255155 -179.23875947744935 -1.1156247228496843
    vertex -180.120590477449 -179.4975785225519 -1.1156247228496843
    vertex -180.0000000000003 -179.61816900000062 -1.0656745115973705
  endloop
endfacet
facet normal -0.7071067811865447 -0.7071067811865503 1.3023166801860691e-14
  outer loop
    vertex -180.37940952255155 -179.23875947744935 -1.1156247228496843
    vertex -180.0000000000003 -179.61816900000062 -1.0656745115973705
    vertex -180.50000000000028 -179.11816900000062 -1.0656745115973594
  endloop
endfacet
facet normal -0.7071067811865447 -0.7071067811865503 1.3023166801860691e-14
  outer loop
    vertex -180.50000000000028 -179.11816900000062 -1.0656745115973594
    vertex -180.0000000000003 -179.61816900000062 -1.0656745115973705
    vertex -179.89644660940698 -179.7217223905939 -0.9862152002984171
  endloop
endfacet
facet normal -0.7071067811865447 -0.7071067811865503 1.3023166801860691e-14
  outer loop
    vertex -180.50000000000028 -179.11816900000062 -1.0656745115973594
    vertex -179.89644660940698 -179.7217223905939 -0.9862152002984171
    vertex -181.1611626088247 -178.4570063911762 -0.716239870417553
  endloop
endfacet
facet normal -0.7071067811865447 -0.7071067811865503 1.3023166801860691e-14
  outer loop
    vertex -181.1611626088247 -178.4570063911762 -0.716239870417553
    vertex -179.89644660940698 -179.7217223905939 -0.9862152002984171
    vertex -179.81698729810805 -179.80118170189283 -0.8826618097051421
  endloop
endfacet
facet normal -0.7071067811865447 -0.7071067811865503 1.3023166801860691e-14
  outer loop
    vertex -181.1611626088247 -178.4570063911762 -0.716239870417553
    vertex -179.81698729810805 -179.80118170189283 -0.8826618097051421
    vertex -179.76703708685574 -179.85113191314514 -0.7620713322564096
  endloop
endfacet
facet normal -0.7071067811865447 -0.7071067811865503 1.3023166801860691e-14
  outer loop
    vertex -181.1611626088247 -178.4570063911762 -0.716239870417553
    vertex -179.76703708685574 -179.85113191314514 -0.7620713322564096
    vertex -179.75000000000026 -179.86816900000062 -0.6326618097051537
  endloop
endfacet
facet normal -0.7071067811865447 -0.7071067811865503 1.3023166801860691e-14
  outer loop
    vertex -181.1611626088247 -178.4570063911762 -0.716239870417553
    vertex -179.75000000000026 -179.86816900000062 -0.6326618097051537
    vertex -181.84658975633633 -177.77157924366458 -0.4171910629997058
  endloop
endfacet
facet normal -0.7071067811865447 -0.7071067811865503 1.3023166801860691e-14
  outer loop
    vertex -181.84658975633633 -177.77157924366458 -0.4171910629997058
    vertex -179.75000000000026 -179.86816900000062 -0.6326618097051537
    vertex -179.76703708685574 -179.85113191314517 -0.5032522871538868
  endloop
endfacet
facet normal -0.7071067811865447 -0.7071067811865503 1.3023166801860691e-14
  outer loop
    vertex -181.84658975633633 -177.77157924366458 -0.4171910629997058
    vertex -179.76703708685574 -179.85113191314517 -0.5032522871538868
    vertex -179.81698729810805 -179.80118170189283 -0.38266180970514296
  endloop
endfacet
facet normal -0.7071067811865447 -0.7071067811865503 1.3023166801860691e-14
  outer loop
    vertex -181.84658975633633 -177.77157924366458 -0.4171910629997058
    vertex -179.81698729810805 -179.80118170189283 -0.38266180970514296
    vertex -182.50000000000028 -177.11816900000065 -0.1885529300657094
  endloop
endfacet
facet normal -0.7071067811865447 -0.7071067811865503 1.3023166801860691e-14
  outer loop
    vertex -182.50000000000028 -177.11816900000065 -0.1885529300657094
    vertex -179.81698729810805 -179.80118170189283 -0.38266180970514296
    vertex -179.89644660940698 -179.7217223905939 -0.27910841911186784
  endloop
endfacet
facet normal -0.7071067811865447 -0.7071067811865503 1.3023166801860691e-14
  outer loop
    vertex -182.50000000000028 -177.11816900000065 -0.1885529300657094
    vertex -179.89644660940698 -179.7217223905939 -0.27910841911186784
    vertex -180.00000000000026 -179.61816900000062 -0.19964910781292575
  endloop
endfacet
facet normal -0.7071067811865447 -0.7071067811865503 1.3023166801860691e-14
  outer loop
    vertex -182.50000000000028 -177.11816900000065 -0.1885529300657094
    vertex -180.00000000000026 -179.61816900000062 -0.19964910781292575
    vertex -182.50000000000028 -177.11816900000062 1.2740714505582513
  endloop
endfacet
facet normal 5.330792977252943e-16 -0.6087614290087263 -0.793353340291231
  outer loop
    vertex -165.00000000000028 -179.61816900000062 -1.0656745115973594
    vertex -179.89644660940698 -179.7217223905939 -0.9862152002984171
    vertex -180.0000000000003 -179.61816900000062 -1.0656745115973705
  endloop
endfacet
facet normal 5.330792977252943e-16 -0.6087614290087263 -0.793353340291231
  outer loop
    vertex -179.89644660940698 -179.7217223905939 -0.9862152002984171
    vertex -165.00000000000028 -179.61816900000062 -1.0656745115973594
    vertex -165.10355339059356 -179.7217223905939 -0.9862152002984171
  endloop
endfacet
facet normal -1.7276233695473606e-16 0.6087614290086991 0.7933533402912517
  outer loop
    vertex -165.00000000000028 -168.61816900000062 -0.19964910781292575
    vertex -179.89644660940698 -168.51461560940734 -0.27910841911186784
    vertex -180.00000000000026 -168.61816900000062 -0.19964910781292575
  endloop
endfacet
facet normal -1.7276233695473606e-16 0.6087614290086991 0.7933533402912517
  outer loop
    vertex -179.89644660940698 -168.51461560940734 -0.27910841911186784
    vertex -165.00000000000028 -168.61816900000062 -0.19964910781292575
    vertex -165.10355339059356 -168.51461560940734 -0.27910841911186784
  endloop
endfacet
facet normal 2.4734202258472723e-16 0.5078217901011524 0.8614621462945782
  outer loop
    vertex -162.50000000000026 -171.11816900000062 1.2740714505582513
    vertex -180.00000000000026 -168.61816900000062 -0.19964910781292575
    vertex -182.50000000000028 -171.1181690000006 1.2740714505582513
  endloop
endfacet
facet normal 2.4734202258472723e-16 0.5078217901011524 0.8614621462945782
  outer loop
    vertex -180.00000000000026 -168.61816900000062 -0.19964910781292575
    vertex -162.50000000000026 -171.11816900000062 1.2740714505582513
    vertex -165.00000000000028 -168.61816900000062 -0.19964910781292575
  endloop
endfacet
facet normal 1.3230892561170402e-16 -0.3302790619551663 -0.9438833303083678
  outer loop
    vertex -181.84658975633633 -170.46475875633666 -0.4171910629997058
    vertex -182.50000000000028 -171.17061725589159 -0.1702004915803405
    vertex -182.50000000000028 -171.11816900000062 -0.1885529300657094
  endloop
endfacet
facet normal 1.3230892561170402e-16 -0.3302790619551663 -0.9438833303083678
  outer loop
    vertex -182.50000000000028 -171.17061725589159 -0.1702004915803405
    vertex -181.84658975633633 -170.46475875633666 -0.4171910629997058
    vertex -162.50000000000026 -171.17061725589159 -0.1702004915803405
  endloop
endfacet
facet normal 1.3230892561170402e-16 -0.3302790619551663 -0.9438833303083678
  outer loop
    vertex -162.50000000000026 -171.17061725589159 -0.1702004915803405
    vertex -181.84658975633633 -170.46475875633666 -0.4171910629997058
    vertex -163.1534102436642 -170.46475875633666 -0.4171910629997058
  endloop
endfacet
facet normal 1.3230892561170402e-16 -0.3302790619551663 -0.9438833303083678
  outer loop
    vertex -162.50000000000026 -171.17061725589159 -0.1702004915803405
    vertex -163.1534102436642 -170.46475875633666 -0.4171910629997058
    vertex -162.50000000000026 -171.11816900000062 -0.1885529300657094
  endloop
endfacet
facet normal -1.5888700749645168e-16 0.46726862827306054 -0.8841153935046107
  outer loop
    vertex -163.83883739117584 -178.4570063911762 -0.716239870417553
    vertex -180.50000000000028 -179.11816900000062 -1.0656745115973594
    vertex -181.1611626088247 -178.4570063911762 -0.716239870417553
  endloop
endfacet
facet normal -1.5888700749645168e-16 0.46726862827306054 -0.8841153935046107
  outer loop
    vertex -180.50000000000028 -179.11816900000062 -1.0656745115973594
    vertex -163.83883739117584 -178.4570063911762 -0.716239870417553
    vertex -164.50000000000026 -179.11816900000062 -1.0656745115973594
  endloop
endfacet
facet normal 3.9016676771205905e-16 -0.13052619222003511 -0.9914448613738127
  outer loop
    vertex -180.25000000000028 -168.86816900000062 -1.1326618097051528
    vertex -164.62059047744904 -168.99757852255186 -1.1156247228496843
    vertex -180.37940952255155 -168.99757852255186 -1.1156247228496843
  endloop
endfacet
facet normal 3.9016676771205905e-16 -0.13052619222003511 -0.9914448613738127
  outer loop
    vertex -164.62059047744904 -168.99757852255186 -1.1156247228496843
    vertex -180.25000000000028 -168.86816900000062 -1.1326618097051528
    vertex -164.75000000000028 -168.86816900000062 -1.1326618097051415
  endloop
endfacet
facet normal 2.3057756723767977e-16 -0.6087614290086991 0.7933533402912517
  outer loop
    vertex -179.89644660940698 -179.7217223905939 -0.27910841911186784
    vertex -165.00000000000028 -179.61816900000062 -0.19964910781292575
    vertex -180.00000000000026 -179.61816900000062 -0.19964910781292575
  endloop
endfacet
facet normal 2.3057756723767977e-16 -0.6087614290086991 0.7933533402912517
  outer loop
    vertex -165.00000000000028 -179.61816900000062 -0.19964910781292575
    vertex -179.89644660940698 -179.7217223905939 -0.27910841911186784
    vertex -165.10355339059356 -179.7217223905939 -0.27910841911186784
  endloop
endfacet
facet normal -2.509284554709037e-16 0.3826834323650859 -0.9238795325112884
  outer loop
    vertex -180.00000000000026 -168.61816900000062 -1.0656745115973705
    vertex -164.87940952255155 -168.73875947744935 -1.1156247228496843
    vertex -180.120590477449 -168.73875947744935 -1.1156247228496843
  endloop
endfacet
facet normal -2.509284554709037e-16 0.3826834323650859 -0.9238795325112884
  outer loop
    vertex -164.87940952255155 -168.73875947744935 -1.1156247228496843
    vertex -180.00000000000026 -168.61816900000062 -1.0656745115973705
    vertex -165.00000000000028 -168.61816900000062 -1.0656745115973705
  endloop
endfacet
facet normal -1.8412794337320243e-17 0.037391194276331204 -0.9993007047883984
  outer loop
    vertex -162.50000000000026 -174.11816900000062 0.27407145055825327
    vertex -182.50000000000028 -174.86546993586487 0.2461094223700505
    vertex -182.50000000000028 -174.11816900000062 0.27407145055825327
  endloop
endfacet
facet normal -1.8412794337320243e-17 0.037391194276331204 -0.9993007047883984
  outer loop
    vertex -182.50000000000028 -174.86546993586487 0.2461094223700505
    vertex -162.50000000000026 -174.11816900000062 0.27407145055825327
    vertex -162.50000000000026 -174.86546993586484 0.2461094223700505
  endloop
endfacet
facet normal 1.600448381430583e-16 -0.5078217901011506 0.8614621462945793
  outer loop
    vertex -180.00000000000026 -179.61816900000062 -0.19964910781292575
    vertex -162.50000000000026 -177.11816900000062 1.2740714505582513
    vertex -182.50000000000028 -177.11816900000062 1.2740714505582513
  endloop
endfacet
facet normal 1.600448381430583e-16 -0.5078217901011506 0.8614621462945793
  outer loop
    vertex -162.50000000000026 -177.11816900000062 1.2740714505582513
    vertex -180.00000000000026 -179.61816900000062 -0.19964910781292575
    vertex -165.00000000000028 -179.61816900000062 -0.19964910781292575
  endloop
endfacet
facet normal 6.284403269401228e-16 -0.38268343236512276 -0.9238795325112731
  outer loop
    vertex -164.87940952255155 -179.49757852255186 -1.1156247228496843
    vertex -180.0000000000003 -179.61816900000062 -1.0656745115973705
    vertex -180.120590477449 -179.4975785225519 -1.1156247228496843
  endloop
endfacet
facet normal 6.284403269401228e-16 -0.38268343236512276 -0.9238795325112731
  outer loop
    vertex -180.0000000000003 -179.61816900000062 -1.0656745115973705
    vertex -164.87940952255155 -179.49757852255186 -1.1156247228496843
    vertex -165.00000000000028 -179.61816900000062 -1.0656745115973594
  endloop
endfacet
facet normal -2.5505611927307247e-16 0.3998920243197385 -0.9165622558699773
  outer loop
    vertex -163.1534102436642 -177.77157924366458 -0.4171910629997058
    vertex -181.1611626088247 -178.4570063911762 -0.716239870417553
    vertex -181.84658975633633 -177.77157924366458 -0.4171910629997058
  endloop
endfacet
facet normal -2.5505611927307247e-16 0.3998920243197385 -0.9165622558699773
  outer loop
    vertex -181.1611626088247 -178.4570063911762 -0.716239870417553
    vertex -163.1534102436642 -177.77157924366458 -0.4171910629997058
    vertex -163.83883739117584 -178.4570063911762 -0.716239870417553
  endloop
endfacet
facet normal 1.0197145140867282e-16 -0.3826834323651444 -0.9238795325112642
  outer loop
    vertex -180.37940952255155 -168.99757852255186 -1.1156247228496843
    vertex -164.50000000000026 -169.11816900000062 -1.0656745115973594
    vertex -180.50000000000028 -169.11816900000062 -1.0656745115973594
  endloop
endfacet
facet normal 1.0197145140867282e-16 -0.3826834323651444 -0.9238795325112642
  outer loop
    vertex -164.50000000000026 -169.11816900000062 -1.0656745115973594
    vertex -180.37940952255155 -168.99757852255186 -1.1156247228496843
    vertex -164.62059047744904 -168.99757852255186 -1.1156247228496843
  endloop
endfacet
facet normal 5.658993566618512e-16 -0.9238795325112731 0.3826834323651228
  outer loop
    vertex -165.2329629131448 -179.85113191314514 -0.5032522871538755
    vertex -179.81698729810805 -179.80118170189283 -0.38266180970514296
    vertex -179.76703708685574 -179.85113191314517 -0.5032522871538868
  endloop
endfacet
facet normal 5.658993566618512e-16 -0.9238795325112731 0.3826834323651228
  outer loop
    vertex -179.81698729810805 -179.80118170189283 -0.38266180970514296
    vertex -165.2329629131448 -179.85113191314514 -0.5032522871538755
    vertex -165.1830127018925 -179.80118170189283 -0.38266180970514296
  endloop
endfacet
facet normal 0.7071067811865468 0.7071067811865483 -2.5104899859008637e-15
  outer loop
    vertex -164.87940952255155 -168.73875947744935 -1.1156247228496843
    vertex -164.62059047744904 -168.99757852255186 -1.1156247228496843
    vertex -164.75000000000028 -168.86816900000062 -1.1326618097051415
  endloop
endfacet
facet normal 0.7071067811865468 0.7071067811865483 -2.5104899859008637e-15
  outer loop
    vertex -164.62059047744904 -168.99757852255186 -1.1156247228496843
    vertex -164.87940952255155 -168.73875947744935 -1.1156247228496843
    vertex -165.00000000000028 -168.61816900000062 -1.0656745115973705
  endloop
endfacet
facet normal 0.7071067811865468 0.7071067811865483 -2.5104899859008637e-15
  outer loop
    vertex -164.62059047744904 -168.99757852255186 -1.1156247228496843
    vertex -165.00000000000028 -168.61816900000062 -1.0656745115973705
    vertex -164.50000000000026 -169.11816900000062 -1.0656745115973594
  endloop
endfacet
facet normal 0.7071067811865468 0.7071067811865483 -2.5104899859008637e-15
  outer loop
    vertex -164.50000000000026 -169.11816900000062 -1.0656745115973594
    vertex -165.00000000000028 -168.61816900000062 -1.0656745115973705
    vertex -165.10355339059356 -168.51461560940734 -0.9862152002984171
  endloop
endfacet
facet normal 0.7071067811865468 0.7071067811865483 -2.5104899859008637e-15
  outer loop
    vertex -164.50000000000026 -169.11816900000062 -1.0656745115973594
    vertex -165.10355339059356 -168.51461560940734 -0.9862152002984171
    vertex -163.83883739117584 -169.77933160882503 -0.716239870417553
  endloop
endfacet
facet normal 0.7071067811865468 0.7071067811865483 -2.5104899859008637e-15
  outer loop
    vertex -163.83883739117584 -169.77933160882503 -0.716239870417553
    vertex -165.10355339059356 -168.51461560940734 -0.9862152002984171
    vertex -165.1830127018925 -168.4351562981084 -0.8826618097051421
  endloop
endfacet
facet normal 0.7071067811865468 0.7071067811865483 -2.5104899859008637e-15
  outer loop
    vertex -163.83883739117584 -169.77933160882503 -0.716239870417553
    vertex -165.1830127018925 -168.4351562981084 -0.8826618097051421
    vertex -165.2329629131448 -168.38520608685607 -0.7620713322564096
  endloop
endfacet
facet normal 0.7071067811865468 0.7071067811865483 -2.5104899859008637e-15
  outer loop
    vertex -163.83883739117584 -169.77933160882503 -0.716239870417553
    vertex -165.2329629131448 -168.38520608685607 -0.7620713322564096
    vertex -165.25000000000028 -168.36816900000062 -0.6326618097051425
  endloop
endfacet
facet normal 0.7071067811865468 0.7071067811865483 -2.5104899859008637e-15
  outer loop
    vertex -163.83883739117584 -169.77933160882503 -0.716239870417553
    vertex -165.25000000000028 -168.36816900000062 -0.6326618097051425
    vertex -163.1534102436642 -170.46475875633666 -0.4171910629997058
  endloop
endfacet
facet normal 0.7071067811865468 0.7071067811865483 -2.5104899859008637e-15
  outer loop
    vertex -163.1534102436642 -170.46475875633666 -0.4171910629997058
    vertex -165.25000000000028 -168.36816900000062 -0.6326618097051425
    vertex -165.2329629131448 -168.38520608685607 -0.5032522871538868
  endloop
endfacet
facet normal 0.7071067811865468 0.7071067811865483 -2.5104899859008637e-15
  outer loop
    vertex -163.1534102436642 -170.46475875633666 -0.4171910629997058
    vertex -165.2329629131448 -168.38520608685607 -0.5032522871538868
    vertex -165.1830127018925 -168.4351562981084 -0.38266180970514296
  endloop
endfacet
facet normal 0.7071067811865468 0.7071067811865483 -2.5104899859008637e-15
  outer loop
    vertex -163.1534102436642 -170.46475875633666 -0.4171910629997058
    vertex -165.1830127018925 -168.4351562981084 -0.38266180970514296
    vertex -162.50000000000026 -171.11816900000062 -0.1885529300657094
  endloop
endfacet
facet normal 0.7071067811865468 0.7071067811865483 -2.5104899859008637e-15
  outer loop
    vertex -162.50000000000026 -171.11816900000062 -0.1885529300657094
    vertex -165.1830127018925 -168.4351562981084 -0.38266180970514296
    vertex -165.10355339059356 -168.51461560940734 -0.27910841911186784
  endloop
endfacet
facet normal 0.7071067811865468 0.7071067811865483 -2.5104899859008637e-15
  outer loop
    vertex -162.50000000000026 -171.11816900000062 -0.1885529300657094
    vertex -165.10355339059356 -168.51461560940734 -0.27910841911186784
    vertex -165.00000000000028 -168.61816900000062 -0.19964910781292575
  endloop
endfacet
facet normal 0.7071067811865468 0.7071067811865483 -2.5104899859008637e-15
  outer loop
    vertex -162.50000000000026 -171.11816900000062 -0.1885529300657094
    vertex -165.00000000000028 -168.61816900000062 -0.19964910781292575
    vertex -162.50000000000026 -171.11816900000062 1.2740714505582513
  endloop
endfacet
facet normal -2.2069839684898545e-16 0.3302790619551674 -0.9438833303083676
  outer loop
    vertex -162.50000000000026 -177.06572074410965 -0.1702004915803405
    vertex -182.50000000000028 -177.11816900000065 -0.1885529300657094
    vertex -182.50000000000028 -177.06572074410965 -0.1702004915803405
  endloop
endfacet
facet normal -2.2069839684898545e-16 0.3302790619551674 -0.9438833303083676
  outer loop
    vertex -182.50000000000028 -177.11816900000065 -0.1885529300657094
    vertex -162.50000000000026 -177.06572074410965 -0.1702004915803405
    vertex -181.84658975633633 -177.77157924366458 -0.4171910629997058
  endloop
endfacet
facet normal -2.2069839684898545e-16 0.3302790619551674 -0.9438833303083676
  outer loop
    vertex -181.84658975633633 -177.77157924366458 -0.4171910629997058
    vertex -162.50000000000026 -177.06572074410965 -0.1702004915803405
    vertex -163.1534102436642 -177.77157924366458 -0.4171910629997058
  endloop
endfacet
facet normal -2.2069839684898545e-16 0.3302790619551674 -0.9438833303083676
  outer loop
    vertex -163.1534102436642 -177.77157924366458 -0.4171910629997058
    vertex -162.50000000000026 -177.06572074410965 -0.1702004915803405
    vertex -162.50000000000026 -177.11816900000062 -0.1885529300657094
  endloop
endfacet
facet normal 5.93227994310509e-16 -0.1859116071629125 -0.9825664732332886
  outer loop
    vertex -162.50000000000026 -171.89295966043747 0.023350572376493604
    vertex -182.50000000000028 -172.6277463382389 0.16237971280953012
    vertex -182.50000000000028 -171.89295966043747 0.023350572376482324
  endloop
endfacet
facet normal 5.93227994310509e-16 -0.1859116071629125 -0.9825664732332886
  outer loop
    vertex -182.50000000000028 -172.6277463382389 0.16237971280953012
    vertex -162.50000000000026 -171.89295966043747 0.023350572376493604
    vertex -162.50000000000026 -172.6277463382389 0.1623797128095414
  endloop
endfacet
facet normal -6.745134232866077e-16 0.9914448613738127 0.1305261922200351
  outer loop
    vertex -179.76703708685574 -168.38520608685607 -0.5032522871538868
    vertex -165.25000000000028 -168.36816900000062 -0.6326618097051425
    vertex -179.75000000000026 -168.36816900000062 -0.6326618097051425
  endloop
endfacet
facet normal -6.745134232866077e-16 0.9914448613738127 0.1305261922200351
  outer loop
    vertex -165.25000000000028 -168.36816900000062 -0.6326618097051425
    vertex -179.76703708685574 -168.38520608685607 -0.5032522871538868
    vertex -165.2329629131448 -168.38520608685607 -0.5032522871538868
  endloop
endfacet
facet normal 9.536931064136587e-17 -0.13052619221998707 -0.991444861373819
  outer loop
    vertex -164.75000000000028 -179.36816900000062 -1.1326618097051415
    vertex -180.120590477449 -179.4975785225519 -1.1156247228496843
    vertex -180.25000000000028 -179.36816900000062 -1.1326618097051415
  endloop
endfacet
facet normal 9.536931064136587e-17 -0.13052619221998707 -0.991444861373819
  outer loop
    vertex -180.120590477449 -179.4975785225519 -1.1156247228496843
    vertex -164.75000000000028 -179.36816900000062 -1.1326618097051415
    vertex -164.87940952255155 -179.49757852255186 -1.1156247228496843
  endloop
endfacet
facet normal -2.888399415006203e-16 0.9914448613738086 -0.13052619222006637
  outer loop
    vertex -179.75000000000026 -168.36816900000062 -0.6326618097051425
    vertex -165.2329629131448 -168.38520608685607 -0.7620713322564096
    vertex -179.76703708685574 -168.38520608685607 -0.7620713322564096
  endloop
endfacet
facet normal -2.888399415006203e-16 0.9914448613738086 -0.13052619222006637
  outer loop
    vertex -165.2329629131448 -168.38520608685607 -0.7620713322564096
    vertex -179.75000000000026 -168.36816900000062 -0.6326618097051425
    vertex -165.25000000000028 -168.36816900000062 -0.6326618097051425
  endloop
endfacet
facet normal 4.3586343976162726e-16 -0.9914448613738077 -0.130526192220072
  outer loop
    vertex -165.25000000000028 -179.86816900000062 -0.6326618097051425
    vertex -179.76703708685574 -179.85113191314514 -0.7620713322564096
    vertex -165.2329629131448 -179.85113191314514 -0.7620713322564096
  endloop
endfacet
facet normal 4.3586343976162726e-16 -0.9914448613738077 -0.130526192220072
  outer loop
    vertex -179.76703708685574 -179.85113191314514 -0.7620713322564096
    vertex -165.25000000000028 -179.86816900000062 -0.6326618097051425
    vertex -179.75000000000026 -179.86816900000062 -0.6326618097051537
  endloop
endfacet
facet normal -1.1932324517684367e-16 0.9238795325112884 -0.38268343236508595
  outer loop
    vertex -179.76703708685574 -168.38520608685607 -0.7620713322564096
    vertex -165.1830127018925 -168.4351562981084 -0.8826618097051421
    vertex -179.81698729810805 -168.4351562981084 -0.8826618097051533
  endloop
endfacet
facet normal -1.1932324517684367e-16 0.9238795325112884 -0.38268343236508595
  outer loop
    vertex -165.1830127018925 -168.4351562981084 -0.8826618097051421
    vertex -179.76703708685574 -168.38520608685607 -0.7620713322564096
    vertex -165.2329629131448 -168.38520608685607 -0.7620713322564096
  endloop
endfacet
facet normal -1.3591268406704865e-16 0.3826834323651444 -0.9238795325112642
  outer loop
    vertex -164.50000000000026 -179.11816900000062 -1.0656745115973594
    vertex -180.37940952255155 -179.23875947744935 -1.1156247228496843
    vertex -180.50000000000028 -179.11816900000062 -1.0656745115973594
  endloop
endfacet
facet normal -1.3591268406704865e-16 0.3826834323651444 -0.9238795325112642
  outer loop
    vertex -180.37940952255155 -179.23875947744935 -1.1156247228496843
    vertex -164.50000000000026 -179.11816900000062 -1.0656745115973594
    vertex -164.62059047744904 -179.23875947744935 -1.1156247228496843
  endloop
endfacet
facet normal 1.2636872697587677e-16 0.25881904510252135 -0.9659258262890682
  outer loop
    vertex -162.50000000000026 -176.34337833956377 0.023350572376493604
    vertex -182.50000000000028 -177.06572074410965 -0.1702004915803405
    vertex -182.50000000000028 -176.34337833956377 0.023350572376482324
  endloop
endfacet
facet normal 1.2636872697587677e-16 0.25881904510252135 -0.9659258262890682
  outer loop
    vertex -182.50000000000028 -177.06572074410965 -0.1702004915803405
    vertex -162.50000000000026 -176.34337833956377 0.023350572376493604
    vertex -162.50000000000026 -177.06572074410965 -0.1702004915803405
  endloop
endfacet
facet normal 1.0 0.0 0.0
  outer loop
    vertex -162.50000000000026 -177.06572074410965 -0.1702004915803405
    vertex -162.50000000000026 -177.11816900000062 1.2740714505582513
    vertex -162.50000000000026 -177.11816900000062 -0.1885529300657094
  endloop
endfacet
facet normal 1.0 0.0 0.0
  outer loop
    vertex -162.50000000000026 -177.11816900000062 1.2740714505582513
    vertex -162.50000000000026 -177.06572074410965 -0.1702004915803405
    vertex -162.50000000000026 -176.34337833956377 0.023350572376493604
  endloop
endfacet
facet normal 1.0 0.0 0.0
  outer loop
    vertex -162.50000000000026 -177.11816900000062 1.2740714505582513
    vertex -162.50000000000026 -176.34337833956377 0.023350572376493604
    vertex -162.50000000000026 -171.11816900000062 1.2740714505582513
  endloop
endfacet
facet normal 1.0 0.0 0.0
  outer loop
    vertex -162.50000000000026 -171.11816900000062 1.2740714505582513
    vertex -162.50000000000026 -176.34337833956377 0.023350572376493604
    vertex -162.50000000000026 -175.60859166176235 0.1623797128095414
  endloop
endfacet
facet normal 1.0 0.0 0.0
  outer loop
    vertex -162.50000000000026 -171.11816900000062 1.2740714505582513
    vertex -162.50000000000026 -175.60859166176235 0.1623797128095414
    vertex -162.50000000000026 -174.86546993586484 0.2461094223700505
  endloop
endfacet
facet normal 1.0 0.0 0.0
  outer loop
    vertex -162.50000000000026 -171.11816900000062 1.2740714505582513
    vertex -162.50000000000026 -174.86546993586484 0.2461094223700505
    vertex -162.50000000000026 -174.11816900000062 0.27407145055825327
  endloop
endfacet
facet normal 1.0 0.0 0.0
  outer loop
    vertex -162.50000000000026 -171.11816900000062 1.2740714505582513
    vertex -162.50000000000026 -174.11816900000062 0.27407145055825327
    vertex -162.50000000000026 -173.37086806413637 0.2461094223700505
  endloop
endfacet
facet normal 1.0 0.0 0.0
  outer loop
    vertex -162.50000000000026 -171.11816900000062 1.2740714505582513
    vertex -162.50000000000026 -173.37086806413637 0.2461094223700505
    vertex -162.50000000000026 -172.6277463382389 0.1623797128095414
  endloop
endfacet
facet normal 1.0 0.0 0.0
  outer loop
    vertex -162.50000000000026 -171.11816900000062 1.2740714505582513
    vertex -162.50000000000026 -172.6277463382389 0.1623797128095414
    vertex -162.50000000000026 -171.89295966043747 0.023350572376493604
  endloop
endfacet
facet normal 1.0 0.0 0.0
  outer loop
    vertex -162.50000000000026 -171.11816900000062 1.2740714505582513
    vertex -162.50000000000026 -171.89295966043747 0.023350572376493604
    vertex -162.50000000000026 -171.17061725589159 -0.1702004915803405
  endloop
endfacet
facet normal 1.0 0.0 0.0
  outer loop
    vertex -162.50000000000026 -171.11816900000062 1.2740714505582513
    vertex -162.50000000000026 -171.17061725589159 -0.1702004915803405
    vertex -162.50000000000026 -171.11816900000062 -0.1885529300657094
  endloop
endfacet
facet normal 0.0 0.0 1.0
  outer loop
    vertex -162.50000000000026 -177.11816900000062 1.2740714505582513
    vertex -182.50000000000028 -171.1181690000006 1.2740714505582513
    vertex -182.50000000000028 -177.11816900000062 1.2740714505582513
  endloop
endfacet
facet normal 0.0 0.0 1.0
  outer loop
    vertex -182.50000000000028 -171.1181690000006 1.2740714505582513
    vertex -162.50000000000026 -177.11816900000062 1.2740714505582513
    vertex -162.50000000000026 -171.11816900000062 1.2740714505582513
  endloop
endfacet
facet normal -1.0 0.0 0.0
  outer loop
    vertex -182.50000000000028 -177.11816900000062 1.2740714505582513
    vertex -182.50000000000028 -177.06572074410965 -0.1702004915803405
    vertex -182.50000000000028 -177.11816900000065 -0.1885529300657094
  endloop
endfacet
facet normal -1.0 0.0 0.0
  outer loop
    vertex -182.50000000000028 -177.06572074410965 -0.1702004915803405
    vertex -182.50000000000028 -177.11816900000062 1.2740714505582513
    vertex -182.50000000000028 -176.34337833956377 0.023350572376482324
  endloop
endfacet
facet normal -1.0 0.0 0.0
  outer loop
    vertex -182.50000000000028 -176.34337833956377 0.023350572376482324
    vertex -182.50000000000028 -177.11816900000062 1.2740714505582513
    vertex -182.50000000000028 -171.1181690000006 1.2740714505582513
  endloop
endfacet
facet normal -1.0 0.0 0.0
  outer loop
    vertex -182.50000000000028 -176.34337833956377 0.023350572376482324
    vertex -182.50000000000028 -171.1181690000006 1.2740714505582513
    vertex -182.50000000000028 -175.60859166176235 0.16237971280953012
  endloop
endfacet
facet normal -1.0 0.0 0.0
  outer loop
    vertex -182.50000000000028 -175.60859166176235 0.16237971280953012
    vertex -182.50000000000028 -171.1181690000006 1.2740714505582513
    vertex -182.50000000000028 -174.86546993586487 0.2461094223700505
  endloop
endfacet
facet normal -1.0 0.0 0.0
  outer loop
    vertex -182.50000000000028 -174.86546993586487 0.2461094223700505
    vertex -182.50000000000028 -171.1181690000006 1.2740714505582513
    vertex -182.50000000000028 -174.11816900000062 0.27407145055825327
  endloop
endfacet
facet normal -1.0 0.0 0.0
  outer loop
    vertex -182.50000000000028 -174.11816900000062 0.27407145055825327
    vertex -182.50000000000028 -171.1181690000006 1.2740714505582513
    vertex -182.50000000000028 -173.37086806413637 0.2461094223700505
  endloop
endfacet
facet normal -1.0 0.0 0.0
  outer loop
    vertex -182.50000000000028 -173.37086806413637 0.2461094223700505
    vertex -182.50000000000028 -171.1181690000006 1.2740714505582513
    vertex -182.50000000000028 -172.6277463382389 0.16237971280953012
  endloop
endfacet
facet normal -1.0 0.0 0.0
  outer loop
    vertex -182.50000000000028 -172.6277463382389 0.16237971280953012
    vertex -182.50000000000028 -171.1181690000006 1.2740714505582513
    vertex -182.50000000000028 -171.89295966043747 0.023350572376482324
  endloop
endfacet
facet normal -1.0 0.0 0.0
  outer loop
    vertex -182.50000000000028 -171.89295966043747 0.023350572376482324
    vertex -182.50000000000028 -171.1181690000006 1.2740714505582513
    vertex -182.50000000000028 -171.17061725589159 -0.1702004915803405
  endloop
endfacet
facet normal -1.0 0.0 0.0
  outer loop
    vertex -182.50000000000028 -171.17061725589159 -0.1702004915803405
    vertex -182.50000000000028 -171.1181690000006 1.2740714505582513
    vertex -182.50000000000028 -171.11816900000062 -0.1885529300657094
  endloop
endfacet
facet normal -0.7071067811865452 0.7071067811865498 3.922640602970064e-15
  outer loop
    vertex -180.37940952255155 -168.99757852255186 -1.1156247228496843
    vertex -180.120590477449 -168.73875947744935 -1.1156247228496843
    vertex -180.25000000000028 -168.86816900000062 -1.1326618097051528
  endloop
endfacet
facet normal -0.7071067811865452 0.7071067811865498 3.922640602970064e-15
  outer loop
    vertex -180.120590477449 -168.73875947744935 -1.1156247228496843
    vertex -180.37940952255155 -168.99757852255186 -1.1156247228496843
    vertex -180.50000000000028 -169.11816900000062 -1.0656745115973594
  endloop
endfacet
facet normal -0.7071067811865452 0.7071067811865498 3.922640602970064e-15
  outer loop
    vertex -180.120590477449 -168.73875947744935 -1.1156247228496843
    vertex -180.50000000000028 -169.11816900000062 -1.0656745115973594
    vertex -180.00000000000026 -168.61816900000062 -1.0656745115973705
  endloop
endfacet
facet normal -0.7071067811865452 0.7071067811865498 3.922640602970064e-15
  outer loop
    vertex -180.00000000000026 -168.61816900000062 -1.0656745115973705
    vertex -180.50000000000028 -169.11816900000062 -1.0656745115973594
    vertex -179.89644660940698 -168.51461560940734 -0.9862152002984171
  endloop
endfacet
facet normal -0.7071067811865452 0.7071067811865498 3.922640602970064e-15
  outer loop
    vertex -179.89644660940698 -168.51461560940734 -0.9862152002984171
    vertex -180.50000000000028 -169.11816900000062 -1.0656745115973594
    vertex -181.1611626088247 -169.77933160882503 -0.716239870417553
  endloop
endfacet
facet normal -0.7071067811865452 0.7071067811865498 3.922640602970064e-15
  outer loop
    vertex -179.89644660940698 -168.51461560940734 -0.9862152002984171
    vertex -181.1611626088247 -169.77933160882503 -0.716239870417553
    vertex -179.81698729810805 -168.4351562981084 -0.8826618097051533
  endloop
endfacet
facet normal -0.7071067811865452 0.7071067811865498 3.922640602970064e-15
  outer loop
    vertex -179.81698729810805 -168.4351562981084 -0.8826618097051533
    vertex -181.1611626088247 -169.77933160882503 -0.716239870417553
    vertex -179.76703708685574 -168.38520608685607 -0.7620713322564096
  endloop
endfacet
facet normal -0.7071067811865452 0.7071067811865498 3.922640602970064e-15
  outer loop
    vertex -179.76703708685574 -168.38520608685607 -0.7620713322564096
    vertex -181.1611626088247 -169.77933160882503 -0.716239870417553
    vertex -179.75000000000026 -168.36816900000062 -0.6326618097051425
  endloop
endfacet
facet normal -0.7071067811865452 0.7071067811865498 3.922640602970064e-15
  outer loop
    vertex -179.75000000000026 -168.36816900000062 -0.6326618097051425
    vertex -181.1611626088247 -169.77933160882503 -0.716239870417553
    vertex -181.84658975633633 -170.46475875633666 -0.4171910629997058
  endloop
endfacet
facet normal -0.7071067811865452 0.7071067811865498 3.922640602970064e-15
  outer loop
    vertex -179.75000000000026 -168.36816900000062 -0.6326618097051425
    vertex -181.84658975633633 -170.46475875633666 -0.4171910629997058
    vertex -179.76703708685574 -168.38520608685607 -0.5032522871538868
  endloop
endfacet
facet normal -0.7071067811865452 0.7071067811865498 3.922640602970064e-15
  outer loop
    vertex -179.76703708685574 -168.38520608685607 -0.5032522871538868
    vertex -181.84658975633633 -170.46475875633666 -0.4171910629997058
    vertex -179.81698729810805 -168.4351562981084 -0.38266180970514296
  endloop
endfacet
facet normal -0.7071067811865452 0.7071067811865498 3.922640602970064e-15
  outer loop
    vertex -179.81698729810805 -168.4351562981084 -0.38266180970514296
    vertex -181.84658975633633 -170.46475875633666 -0.4171910629997058
    vertex -182.50000000000028 -171.11816900000062 -0.1885529300657094
  endloop
endfacet
facet normal -0.7071067811865452 0.7071067811865498 3.922640602970064e-15
  outer loop
    vertex -179.81698729810805 -168.4351562981084 -0.38266180970514296
    vertex -182.50000000000028 -171.11816900000062 -0.1885529300657094
    vertex -179.89644660940698 -168.51461560940734 -0.27910841911186784
  endloop
endfacet
facet normal -0.7071067811865452 0.7071067811865498 3.922640602970064e-15
  outer loop
    vertex -179.89644660940698 -168.51461560940734 -0.27910841911186784
    vertex -182.50000000000028 -171.11816900000062 -0.1885529300657094
    vertex -180.00000000000026 -168.61816900000062 -0.19964910781292575
  endloop
endfacet
facet normal -0.7071067811865452 0.7071067811865498 3.922640602970064e-15
  outer loop
    vertex -180.00000000000026 -168.61816900000062 -0.19964910781292575
    vertex -182.50000000000028 -171.11816900000062 -0.1885529300657094
    vertex -182.50000000000028 -171.1181690000006 1.2740714505582513
  endloop
endfacet
facet normal 2.8343168557997536e-16 0.13052619222002954 -0.9914448613738134
  outer loop
    vertex -180.120590477449 -168.73875947744935 -1.1156247228496843
    vertex -164.75000000000028 -168.86816900000062 -1.1326618097051415
    vertex -180.25000000000028 -168.86816900000062 -1.1326618097051528
  endloop
endfacet
facet normal 2.8343168557997536e-16 0.13052619222002954 -0.9914448613738134
  outer loop
    vertex -164.75000000000028 -168.86816900000062 -1.1326618097051415
    vertex -180.120590477449 -168.73875947744935 -1.1156247228496843
    vertex -164.87940952255155 -168.73875947744935 -1.1156247228496843
  endloop
endfacet
facet normal -1.7288737092169326e-16 0.6087614290087535 -0.79335334029121
  outer loop
    vertex -179.89644660940698 -168.51461560940734 -0.9862152002984171
    vertex -165.00000000000028 -168.61816900000062 -1.0656745115973705
    vertex -180.00000000000026 -168.61816900000062 -1.0656745115973705
  endloop
endfacet
facet normal -1.7288737092169326e-16 0.6087614290087535 -0.79335334029121
  outer loop
    vertex -165.00000000000028 -168.61816900000062 -1.0656745115973705
    vertex -179.89644660940698 -168.51461560940734 -0.9862152002984171
    vertex -165.10355339059356 -168.51461560940734 -0.9862152002984171
  endloop
endfacet
facet normal 3.354287059392057e-16 -0.11196447610330705 -0.9937122098932428
  outer loop
    vertex -162.50000000000026 -172.6277463382389 0.1623797128095414
    vertex -182.50000000000028 -173.37086806413637 0.2461094223700505
    vertex -182.50000000000028 -172.6277463382389 0.16237971280953012
  endloop
endfacet
facet normal 3.354287059392057e-16 -0.11196447610330705 -0.9937122098932428
  outer loop
    vertex -182.50000000000028 -173.37086806413637 0.2461094223700505
    vertex -162.50000000000026 -172.6277463382389 0.1623797128095414
    vertex -162.50000000000026 -173.37086806413637 0.2461094223700505
  endloop
endfacet
facet normal 0.707106781186547 -0.7071067811865481 -2.9812068582572745e-15
  outer loop
    vertex -164.62059047744904 -179.23875947744935 -1.1156247228496843
    vertex -164.87940952255155 -179.49757852255186 -1.1156247228496843
    vertex -164.75000000000028 -179.36816900000062 -1.1326618097051415
  endloop
endfacet
facet normal 0.707106781186547 -0.7071067811865481 -2.9812068582572745e-15
  outer loop
    vertex -164.87940952255155 -179.49757852255186 -1.1156247228496843
    vertex -164.62059047744904 -179.23875947744935 -1.1156247228496843
    vertex -164.50000000000026 -179.11816900000062 -1.0656745115973594
  endloop
endfacet
facet normal 0.707106781186547 -0.7071067811865481 -2.9812068582572745e-15
  outer loop
    vertex -164.87940952255155 -179.49757852255186 -1.1156247228496843
    vertex -164.50000000000026 -179.11816900000062 -1.0656745115973594
    vertex -165.00000000000028 -179.61816900000062 -1.0656745115973594
  endloop
endfacet
facet normal 0.707106781186547 -0.7071067811865481 -2.9812068582572745e-15
  outer loop
    vertex -165.00000000000028 -179.61816900000062 -1.0656745115973594
    vertex -164.50000000000026 -179.11816900000062 -1.0656745115973594
    vertex -163.83883739117584 -178.4570063911762 -0.716239870417553
  endloop
endfacet
facet normal 0.707106781186547 -0.7071067811865481 -2.9812068582572745e-15
  outer loop
    vertex -165.00000000000028 -179.61816900000062 -1.0656745115973594
    vertex -163.83883739117584 -178.4570063911762 -0.716239870417553
    vertex -165.10355339059356 -179.7217223905939 -0.9862152002984171
  endloop
endfacet
facet normal 0.707106781186547 -0.7071067811865481 -2.9812068582572745e-15
  outer loop
    vertex -165.10355339059356 -179.7217223905939 -0.9862152002984171
    vertex -163.83883739117584 -178.4570063911762 -0.716239870417553
    vertex -165.1830127018925 -179.80118170189283 -0.8826618097051421
  endloop
endfacet
facet normal 0.707106781186547 -0.7071067811865481 -2.9812068582572745e-15
  outer loop
    vertex -165.1830127018925 -179.80118170189283 -0.8826618097051421
    vertex -163.83883739117584 -178.4570063911762 -0.716239870417553
    vertex -165.2329629131448 -179.85113191314514 -0.7620713322564096
  endloop
endfacet
facet normal 0.707106781186547 -0.7071067811865481 -2.9812068582572745e-15
  outer loop
    vertex -165.2329629131448 -179.85113191314514 -0.7620713322564096
    vertex -163.83883739117584 -178.4570063911762 -0.716239870417553
    vertex -165.25000000000028 -179.86816900000062 -0.6326618097051425
  endloop
endfacet
facet normal 0.707106781186547 -0.7071067811865481 -2.9812068582572745e-15
  outer loop
    vertex -165.25000000000028 -179.86816900000062 -0.6326618097051425
    vertex -163.83883739117584 -178.4570063911762 -0.716239870417553
    vertex -163.1534102436642 -177.77157924366458 -0.4171910629997058
  endloop
endfacet
facet normal 0.707106781186547 -0.7071067811865481 -2.9812068582572745e-15
  outer loop
    vertex -165.25000000000028 -179.86816900000062 -0.6326618097051425
    vertex -163.1534102436642 -177.77157924366458 -0.4171910629997058
    vertex -165.2329629131448 -179.85113191314514 -0.5032522871538755
  endloop
endfacet
facet normal 0.707106781186547 -0.7071067811865481 -2.9812068582572745e-15
  outer loop
    vertex -165.2329629131448 -179.85113191314514 -0.5032522871538755
    vertex -163.1534102436642 -177.77157924366458 -0.4171910629997058
    vertex -165.1830127018925 -179.80118170189283 -0.38266180970514296
  endloop
endfacet
facet normal 0.707106781186547 -0.7071067811865481 -2.9812068582572745e-15
  outer loop
    vertex -165.1830127018925 -179.80118170189283 -0.38266180970514296
    vertex -163.1534102436642 -177.77157924366458 -0.4171910629997058
    vertex -162.50000000000026 -177.11816900000062 -0.1885529300657094
  endloop
endfacet
facet normal 0.707106781186547 -0.7071067811865481 -2.9812068582572745e-15
  outer loop
    vertex -165.1830127018925 -179.80118170189283 -0.38266180970514296
    vertex -162.50000000000026 -177.11816900000062 -0.1885529300657094
    vertex -165.10355339059356 -179.7217223905939 -0.27910841911186784
  endloop
endfacet
facet normal 0.707106781186547 -0.7071067811865481 -2.9812068582572745e-15
  outer loop
    vertex -165.10355339059356 -179.7217223905939 -0.27910841911186784
    vertex -162.50000000000026 -177.11816900000062 -0.1885529300657094
    vertex -165.00000000000028 -179.61816900000062 -0.19964910781292575
  endloop
endfacet
facet normal 0.707106781186547 -0.7071067811865481 -2.9812068582572745e-15
  outer loop
    vertex -165.00000000000028 -179.61816900000062 -0.19964910781292575
    vertex -162.50000000000026 -177.11816900000062 -0.1885529300657094
    vertex -162.50000000000026 -177.11816900000062 1.2740714505582513
  endloop
endfacet
facet normal 3.2732284751113013e-16 -0.2588190451025195 -0.9659258262890688
  outer loop
    vertex -162.50000000000026 -171.17061725589159 -0.1702004915803405
    vertex -182.50000000000028 -171.89295966043747 0.023350572376482324
    vertex -182.50000000000028 -171.17061725589159 -0.1702004915803405
  endloop
endfacet
facet normal 3.2732284751113013e-16 -0.2588190451025195 -0.9659258262890688
  outer loop
    vertex -182.50000000000028 -171.89295966043747 0.023350572376482324
    vertex -162.50000000000026 -171.17061725589159 -0.1702004915803405
    vertex -162.50000000000026 -171.89295966043747 0.023350572376493604
  endloop
endfacet
facet normal -2.2800772531566126e-16 0.7933533402912517 0.6087614290086991
  outer loop
    vertex -179.89644660940698 -168.51461560940734 -0.27910841911186784
    vertex -165.1830127018925 -168.4351562981084 -0.38266180970514296
    vertex -179.81698729810805 -168.4351562981084 -0.38266180970514296
  endloop
endfacet
facet normal -2.2800772531566126e-16 0.7933533402912517 0.6087614290086991
  outer loop
    vertex -165.1830127018925 -168.4351562981084 -0.38266180970514296
    vertex -179.89644660940698 -168.51461560940734 -0.27910841911186784
    vertex -165.10355339059356 -168.51461560940734 -0.27910841911186784
  endloop
endfacet
facet normal 1.8412794337320243e-17 -0.037391194276331204 -0.9993007047883984
  outer loop
    vertex -162.50000000000026 -173.37086806413637 0.2461094223700505
    vertex -182.50000000000028 -174.11816900000062 0.27407145055825327
    vertex -182.50000000000028 -173.37086806413637 0.2461094223700505
  endloop
endfacet
facet normal 1.8412794337320243e-17 -0.037391194276331204 -0.9993007047883984
  outer loop
    vertex -182.50000000000028 -174.11816900000062 0.27407145055825327
    vertex -162.50000000000026 -173.37086806413637 0.2461094223700505
    vertex -162.50000000000026 -174.11816900000062 0.27407145055825327
  endloop
endfacet
facet normal -4.709025109471523e-17 0.13052619221999262 -0.9914448613738182
  outer loop
    vertex -164.62059047744904 -179.23875947744935 -1.1156247228496843
    vertex -180.25000000000028 -179.36816900000062 -1.1326618097051415
    vertex -180.37940952255155 -179.23875947744935 -1.1156247228496843
  endloop
endfacet
facet normal -4.709025109471523e-17 0.13052619221999262 -0.9914448613738182
  outer loop
    vertex -180.25000000000028 -179.36816900000062 -1.1326618097051415
    vertex -164.62059047744904 -179.23875947744935 -1.1156247228496843
    vertex -164.75000000000028 -179.36816900000062 -1.1326618097051415
  endloop
endfacet
facet normal 1.1938768528038602e-16 -0.46726862827306054 -0.8841153935046107
  outer loop
    vertex -180.50000000000028 -169.11816900000062 -1.0656745115973594
    vertex -163.83883739117584 -169.77933160882503 -0.716239870417553
    vertex -181.1611626088247 -169.77933160882503 -0.716239870417553
  endloop
endfacet
facet normal 1.1938768528038602e-16 -0.46726862827306054 -0.8841153935046107
  outer loop
    vertex -163.83883739117584 -169.77933160882503 -0.716239870417553
    vertex -180.50000000000028 -169.11816900000062 -1.0656745115973594
    vertex -164.50000000000026 -169.11816900000062 -1.0656745115973594
  endloop
endfacet
facet normal 3.040103004208817e-16 -0.7933533402912517 -0.6087614290086991
  outer loop
    vertex -165.1830127018925 -179.80118170189283 -0.8826618097051421
    vertex -179.89644660940698 -179.7217223905939 -0.9862152002984171
    vertex -165.10355339059356 -179.7217223905939 -0.9862152002984171
  endloop
endfacet
facet normal 3.040103004208817e-16 -0.7933533402912517 -0.6087614290086991
  outer loop
    vertex -179.89644660940698 -179.7217223905939 -0.9862152002984171
    vertex -165.1830127018925 -179.80118170189283 -0.8826618097051421
    vertex -179.81698729810805 -179.80118170189283 -0.8826618097051421
  endloop
endfacet
facet normal 1.933610412921453e-16 0.11196447610330619 -0.9937122098932428
  outer loop
    vertex -162.50000000000026 -174.86546993586484 0.2461094223700505
    vertex -182.50000000000028 -175.60859166176235 0.16237971280953012
    vertex -182.50000000000028 -174.86546993586487 0.2461094223700505
  endloop
endfacet
facet normal 1.933610412921453e-16 0.11196447610330619 -0.9937122098932428
  outer loop
    vertex -182.50000000000028 -175.60859166176235 0.16237971280953012
    vertex -162.50000000000026 -174.86546993586484 0.2461094223700505
    vertex -162.50000000000026 -175.60859166176235 0.1623797128095414
  endloop
endfacet
facet normal 4.033664244670536e-16 0.18591160716291236 -0.9825664732332888
  outer loop
    vertex -162.50000000000026 -175.60859166176235 0.1623797128095414
    vertex -182.50000000000028 -176.34337833956377 0.023350572376482324
    vertex -182.50000000000028 -175.60859166176235 0.16237971280953012
  endloop
endfacet
facet normal 4.033664244670536e-16 0.18591160716291236 -0.9825664732332888
  outer loop
    vertex -182.50000000000028 -176.34337833956377 0.023350572376482324
    vertex -162.50000000000026 -175.60859166176235 0.1623797128095414
    vertex -162.50000000000026 -176.34337833956377 0.023350572376493604
  endloop
endfacet
facet normal -6.239185548697995e-16 0.9238795325112795 0.3826834323651075
  outer loop
    vertex -179.81698729810805 -168.4351562981084 -0.38266180970514296
    vertex -165.2329629131448 -168.38520608685607 -0.5032522871538868
    vertex -179.76703708685574 -168.38520608685607 -0.5032522871538868
  endloop
endfacet
facet normal -6.239185548697995e-16 0.9238795325112795 0.3826834323651075
  outer loop
    vertex -165.2329629131448 -168.38520608685607 -0.5032522871538868
    vertex -179.81698729810805 -168.4351562981084 -0.38266180970514296
    vertex -165.1830127018925 -168.4351562981084 -0.38266180970514296
  endloop
endfacet
facet normal 2.2315772324853037e-16 -0.3998920243197384 -0.9165622558699773
  outer loop
    vertex -181.1611626088247 -169.77933160882503 -0.716239870417553
    vertex -163.1534102436642 -170.46475875633666 -0.4171910629997058
    vertex -181.84658975633633 -170.46475875633666 -0.4171910629997058
  endloop
endfacet
facet normal 2.2315772324853037e-16 -0.3998920243197384 -0.9165622558699773
  outer loop
    vertex -163.1534102436642 -170.46475875633666 -0.4171910629997058
    vertex -181.1611626088247 -169.77933160882503 -0.716239870417553
    vertex -163.83883739117584 -169.77933160882503 -0.716239870417553
  endloop
endfacet
facet normal 3.571542543216224e-16 -0.9238795325112822 -0.3826834323651012
  outer loop
    vertex -165.2329629131448 -179.85113191314514 -0.7620713322564096
    vertex -179.81698729810805 -179.80118170189283 -0.8826618097051421
    vertex -165.1830127018925 -179.80118170189283 -0.8826618097051421
  endloop
endfacet
facet normal 3.571542543216224e-16 -0.9238795325112822 -0.3826834323651012
  outer loop
    vertex -179.81698729810805 -179.80118170189283 -0.8826618097051421
    vertex -165.2329629131448 -179.85113191314514 -0.7620713322564096
    vertex -179.76703708685574 -179.85113191314514 -0.7620713322564096
  endloop
endfacet
facet normal 4.284128739352301e-18 0.7933533402912357 -0.60876142900872
  outer loop
    vertex -179.81698729810805 -168.4351562981084 -0.8826618097051533
    vertex -165.10355339059356 -168.51461560940734 -0.9862152002984171
    vertex -179.89644660940698 -168.51461560940734 -0.9862152002984171
  endloop
endfacet
facet normal 4.284128739352301e-18 0.7933533402912357 -0.60876142900872
  outer loop
    vertex -165.10355339059356 -168.51461560940734 -0.9862152002984171
    vertex -179.81698729810805 -168.4351562981084 -0.8826618097051533
    vertex -165.1830127018925 -168.4351562981084 -0.8826618097051421
  endloop
endfacet
facet normal 3.040103004208817e-16 -0.7933533402912517 0.6087614290086992
  outer loop
    vertex -165.10355339059356 -179.7217223905939 -0.27910841911186784
    vertex -179.81698729810805 -179.80118170189283 -0.38266180970514296
    vertex -165.1830127018925 -179.80118170189283 -0.38266180970514296
  endloop
endfacet
facet normal 3.040103004208817e-16 -0.7933533402912517 0.6087614290086992
  outer loop
    vertex -179.81698729810805 -179.80118170189283 -0.38266180970514296
    vertex -165.10355339059356 -179.7217223905939 -0.27910841911186784
    vertex -179.89644660940698 -179.7217223905939 -0.27910841911186784
  endloop
endfacet
facet normal 6.694297699160546e-16 -0.991444861373814 0.13052619222002393
  outer loop
    vertex -165.25000000000028 -179.86816900000062 -0.6326618097051425
    vertex -179.76703708685574 -179.85113191314517 -0.5032522871538868
    vertex -179.75000000000026 -179.86816900000062 -0.6326618097051537
  endloop
endfacet
facet normal 6.694297699160546e-16 -0.991444861373814 0.13052619222002393
  outer loop
    vertex -179.76703708685574 -179.85113191314517 -0.5032522871538868
    vertex -165.25000000000028 -179.86816900000062 -0.6326618097051425
    vertex -165.2329629131448 -179.85113191314514 -0.5032522871538755
  endloop
endfacet
endsolid ProtoGlove
