solid ProtoGlove
facet normal -0.7071067811865461 -0.7071067811865489 1.1924827433029065e-14
  outer loop
    vertex -185.12059047744907 -159.4975785225519 -1.1156247228496954
    vertex -185.37940952255155 -159.23875947744938 -1.1156247228496954
    vertex -185.25000000000028 -159.36816900000065 -1.1326618097051528
  endloop
endfacet
facet normal -0.7071067811865461 -0.7071067811865489 1.1924827433029065e-14
  outer loop
    vertex -185.37940952255155 -159.23875947744938 -1.1156247228496954
    vertex -185.12059047744907 -159.4975785225519 -1.1156247228496954
    vertex -185.00000000000028 -159.61816900000065 -1.0656745115973818
  endloop
endfacet
facet normal -0.7071067811865461 -0.7071067811865489 1.1924827433029065e-14
  outer loop
    vertex -185.37940952255155 -159.23875947744938 -1.1156247228496954
    vertex -185.00000000000028 -159.61816900000065 -1.0656745115973818
    vertex -185.5000000000003 -159.11816900000065 -1.0656745115973818
  endloop
endfacet
facet normal -0.7071067811865461 -0.7071067811865489 1.1924827433029065e-14
  outer loop
    vertex -185.5000000000003 -159.11816900000065 -1.0656745115973818
    vertex -185.00000000000028 -159.61816900000065 -1.0656745115973818
    vertex -184.89644660940704 -159.7217223905939 -0.9862152002984397
  endloop
endfacet
facet normal -0.7071067811865461 -0.7071067811865489 1.1924827433029065e-14
  outer loop
    vertex -185.5000000000003 -159.11816900000065 -1.0656745115973818
    vertex -184.89644660940704 -159.7217223905939 -0.9862152002984397
    vertex -186.16116260882472 -158.4570063911762 -0.7162398704175756
  endloop
endfacet
facet normal -0.7071067811865461 -0.7071067811865489 1.1924827433029065e-14
  outer loop
    vertex -186.16116260882472 -158.4570063911762 -0.7162398704175756
    vertex -184.89644660940704 -159.7217223905939 -0.9862152002984397
    vertex -184.81698729810807 -159.80118170189286 -0.8826618097051646
  endloop
endfacet
facet normal -0.7071067811865461 -0.7071067811865489 1.1924827433029065e-14
  outer loop
    vertex -186.16116260882472 -158.4570063911762 -0.7162398704175756
    vertex -184.81698729810807 -159.80118170189286 -0.8826618097051646
    vertex -184.76703708685577 -159.85113191314517 -0.7620713322564208
  endloop
endfacet
facet normal -0.7071067811865461 -0.7071067811865489 1.1924827433029065e-14
  outer loop
    vertex -186.16116260882472 -158.4570063911762 -0.7162398704175756
    vertex -184.76703708685577 -159.85113191314517 -0.7620713322564208
    vertex -184.7500000000003 -159.86816900000065 -0.6326618097051651
  endloop
endfacet
facet normal -0.7071067811865461 -0.7071067811865489 1.1924827433029065e-14
  outer loop
    vertex -186.16116260882472 -158.4570063911762 -0.7162398704175756
    vertex -184.7500000000003 -159.86816900000065 -0.6326618097051651
    vertex -186.84658975633636 -157.7715792436646 -0.4171910629997171
  endloop
endfacet
facet normal -0.7071067811865461 -0.7071067811865489 1.1924827433029065e-14
  outer loop
    vertex -186.84658975633636 -157.7715792436646 -0.4171910629997171
    vertex -184.7500000000003 -159.86816900000065 -0.6326618097051651
    vertex -184.76703708685577 -159.85113191314517 -0.503252287153898
  endloop
endfacet
facet normal -0.7071067811865461 -0.7071067811865489 1.1924827433029065e-14
  outer loop
    vertex -186.84658975633636 -157.7715792436646 -0.4171910629997171
    vertex -184.76703708685577 -159.85113191314517 -0.503252287153898
    vertex -184.81698729810807 -159.80118170189286 -0.38266180970515423
  endloop
endfacet
facet normal -0.7071067811865461 -0.7071067811865489 1.1924827433029065e-14
  outer loop
    vertex -186.84658975633636 -157.7715792436646 -0.4171910629997171
    vertex -184.81698729810807 -159.80118170189286 -0.38266180970515423
    vertex -187.5000000000003 -157.11816900000065 -0.18855293006572066
  endloop
endfacet
facet normal -0.7071067811865461 -0.7071067811865489 1.1924827433029065e-14
  outer loop
    vertex -187.5000000000003 -157.11816900000065 -0.18855293006572066
    vertex -184.81698729810807 -159.80118170189286 -0.38266180970515423
    vertex -184.89644660940704 -159.7217223905939 -0.27910841911187917
  endloop
endfacet
facet normal -0.7071067811865461 -0.7071067811865489 1.1924827433029065e-14
  outer loop
    vertex -187.5000000000003 -157.11816900000065 -0.18855293006572066
    vertex -184.89644660940704 -159.7217223905939 -0.27910841911187917
    vertex -185.00000000000028 -159.61816900000065 -0.19964910781293702
  endloop
endfacet
facet normal -0.7071067811865461 -0.7071067811865489 1.1924827433029065e-14
  outer loop
    vertex -187.5000000000003 -157.11816900000065 -0.18855293006572066
    vertex -185.00000000000028 -159.61816900000065 -0.19964910781293702
    vertex -187.50000000000026 -157.11816900000062 1.2740714505582402
  endloop
endfacet
facet normal 6.800689238190376e-17 0.6087614290086992 0.7933533402912517
  outer loop
    vertex -165.00000000000028 -148.61816900000068 -0.19964910781292575
    vertex -184.89644660940704 -148.51461560940737 -0.27910841911187917
    vertex -185.00000000000028 -148.61816900000065 -0.19964910781293702
  endloop
endfacet
facet normal 6.800689238190376e-17 0.6087614290086992 0.7933533402912517
  outer loop
    vertex -184.89644660940704 -148.51461560940737 -0.27910841911187917
    vertex -165.00000000000028 -148.61816900000068 -0.19964910781292575
    vertex -165.10355339059356 -148.51461560940737 -0.27910841911186784
  endloop
endfacet
facet normal 2.3035832534035524e-16 0.5078217901011522 0.8614621462945782
  outer loop
    vertex -162.50000000000026 -151.11816900000065 1.2740714505582513
    vertex -185.00000000000028 -148.61816900000065 -0.19964910781293702
    vertex -187.50000000000026 -151.11816900000062 1.2740714505582402
  endloop
endfacet
facet normal 2.3035832534035524e-16 0.5078217901011522 0.8614621462945782
  outer loop
    vertex -185.00000000000028 -148.61816900000065 -0.19964910781293702
    vertex -162.50000000000026 -151.11816900000065 1.2740714505582513
    vertex -165.00000000000028 -148.61816900000068 -0.19964910781292575
  endloop
endfacet
facet normal 4.678082940227945e-16 0.037391194276331204 -0.9993007047883984
  outer loop
    vertex -162.50000000000026 -154.11816900000065 0.27407145055825327
    vertex -187.5000000000003 -154.8654699358649 0.24610942237003924
    vertex -187.5000000000003 -154.11816900000065 0.274071450558242
  endloop
endfacet
facet normal 4.678082940227945e-16 0.037391194276331204 -0.9993007047883984
  outer loop
    vertex -187.5000000000003 -154.8654699358649 0.24610942237003924
    vertex -162.50000000000026 -154.11816900000065 0.27407145055825327
    vertex -162.50000000000026 -154.8654699358649 0.2461094223700505
  endloop
endfacet
facet normal 5.599476654269239e-16 0.33027906195516743 -0.9438833303083676
  outer loop
    vertex -162.50000000000026 -157.0657207441097 -0.1702004915803405
    vertex -187.5000000000003 -157.11816900000065 -0.18855293006572066
    vertex -187.5000000000003 -157.06572074410968 -0.17020049158035178
  endloop
endfacet
facet normal 5.599476654269239e-16 0.33027906195516743 -0.9438833303083676
  outer loop
    vertex -187.5000000000003 -157.11816900000065 -0.18855293006572066
    vertex -162.50000000000026 -157.0657207441097 -0.1702004915803405
    vertex -186.84658975633636 -157.7715792436646 -0.4171910629997171
  endloop
endfacet
facet normal 5.599476654269239e-16 0.33027906195516743 -0.9438833303083676
  outer loop
    vertex -186.84658975633636 -157.7715792436646 -0.4171910629997171
    vertex -162.50000000000026 -157.0657207441097 -0.1702004915803405
    vertex -163.1534102436642 -157.7715792436646 -0.4171910629997058
  endloop
endfacet
facet normal 5.599476654269239e-16 0.33027906195516743 -0.9438833303083676
  outer loop
    vertex -163.1534102436642 -157.7715792436646 -0.4171910629997058
    vertex -162.50000000000026 -157.0657207441097 -0.1702004915803405
    vertex -162.50000000000026 -157.11816900000065 -0.1885529300657094
  endloop
endfacet
facet normal 3.816858876806733e-16 -0.6087614290086992 -0.7933533402912516
  outer loop
    vertex -165.00000000000028 -159.61816900000065 -1.0656745115973594
    vertex -184.89644660940704 -159.7217223905939 -0.9862152002984397
    vertex -185.00000000000028 -159.61816900000065 -1.0656745115973818
  endloop
endfacet
facet normal 3.816858876806733e-16 -0.6087614290086992 -0.7933533402912516
  outer loop
    vertex -184.89644660940704 -159.7217223905939 -0.9862152002984397
    vertex -165.00000000000028 -159.61816900000065 -1.0656745115973594
    vertex -165.10355339059356 -159.72172239059392 -0.9862152002984171
  endloop
endfacet
facet normal 7.043621646340786e-16 -0.13052619222003514 -0.9914448613738127
  outer loop
    vertex -185.25000000000028 -148.86816900000062 -1.1326618097051642
    vertex -164.62059047744904 -148.99757852255192 -1.1156247228496843
    vertex -185.37940952255155 -148.9975785225519 -1.1156247228496954
  endloop
endfacet
facet normal 7.043621646340786e-16 -0.13052619222003514 -0.9914448613738127
  outer loop
    vertex -164.62059047744904 -148.99757852255192 -1.1156247228496843
    vertex -185.25000000000028 -148.86816900000062 -1.1326618097051642
    vertex -164.75000000000028 -148.86816900000065 -1.1326618097051415
  endloop
endfacet
facet normal -7.990915189868301e-16 -0.5078217901011506 0.8614621462945793
  outer loop
    vertex -185.00000000000028 -159.61816900000065 -0.19964910781293702
    vertex -162.50000000000026 -157.11816900000065 1.2740714505582513
    vertex -187.50000000000026 -157.11816900000062 1.2740714505582402
  endloop
endfacet
facet normal -7.990915189868301e-16 -0.5078217901011506 0.8614621462945793
  outer loop
    vertex -162.50000000000026 -157.11816900000065 1.2740714505582513
    vertex -185.00000000000028 -159.61816900000065 -0.19964910781293702
    vertex -165.00000000000028 -159.61816900000065 -0.19964910781292575
  endloop
endfacet
facet normal 7.317648661825955e-16 0.38268343236508595 -0.9238795325112884
  outer loop
    vertex -185.00000000000028 -148.61816900000065 -1.0656745115973818
    vertex -164.87940952255155 -148.73875947744938 -1.1156247228496843
    vertex -185.12059047744907 -148.73875947744938 -1.1156247228496954
  endloop
endfacet
facet normal 7.317648661825955e-16 0.38268343236508595 -0.9238795325112884
  outer loop
    vertex -164.87940952255155 -148.73875947744938 -1.1156247228496843
    vertex -185.00000000000028 -148.61816900000065 -1.0656745115973818
    vertex -165.00000000000028 -148.61816900000068 -1.0656745115973705
  endloop
endfacet
facet normal 2.5495533822580455e-16 -0.3302790619551664 -0.9438833303083678
  outer loop
    vertex -186.84658975633636 -150.4647587563367 -0.4171910629997171
    vertex -187.5000000000003 -151.17061725589159 -0.17020049158035178
    vertex -187.5000000000003 -151.11816900000065 -0.18855293006572066
  endloop
endfacet
facet normal 2.5495533822580455e-16 -0.3302790619551664 -0.9438833303083678
  outer loop
    vertex -187.5000000000003 -151.17061725589159 -0.17020049158035178
    vertex -186.84658975633636 -150.4647587563367 -0.4171910629997171
    vertex -162.50000000000026 -151.1706172558916 -0.1702004915803405
  endloop
endfacet
facet normal 2.5495533822580455e-16 -0.3302790619551664 -0.9438833303083678
  outer loop
    vertex -162.50000000000026 -151.1706172558916 -0.1702004915803405
    vertex -186.84658975633636 -150.4647587563367 -0.4171910629997171
    vertex -163.1534102436642 -150.4647587563367 -0.4171910629997058
  endloop
endfacet
facet normal 2.5495533822580455e-16 -0.3302790619551664 -0.9438833303083678
  outer loop
    vertex -162.50000000000026 -151.1706172558916 -0.1702004915803405
    vertex -163.1534102436642 -150.4647587563367 -0.4171910629997058
    vertex -162.50000000000026 -151.11816900000065 -0.1885529300657094
  endloop
endfacet
facet normal 4.399855855582064e-16 -0.3826834323651076 -0.9238795325112795
  outer loop
    vertex -185.37940952255155 -148.9975785225519 -1.1156247228496954
    vertex -164.50000000000026 -149.11816900000065 -1.0656745115973594
    vertex -185.5000000000003 -149.11816900000065 -1.0656745115973818
  endloop
endfacet
facet normal 4.399855855582064e-16 -0.3826834323651076 -0.9238795325112795
  outer loop
    vertex -164.50000000000026 -149.11816900000065 -1.0656745115973594
    vertex -185.37940952255155 -148.9975785225519 -1.1156247228496954
    vertex -164.62059047744904 -148.99757852255192 -1.1156247228496843
  endloop
endfacet
facet normal -0.7071067811865467 0.7071067811865483 5.962413716514515e-15
  outer loop
    vertex -185.37940952255155 -148.9975785225519 -1.1156247228496954
    vertex -185.12059047744907 -148.73875947744938 -1.1156247228496954
    vertex -185.25000000000028 -148.86816900000062 -1.1326618097051642
  endloop
endfacet
facet normal -0.7071067811865467 0.7071067811865483 5.962413716514515e-15
  outer loop
    vertex -185.12059047744907 -148.73875947744938 -1.1156247228496954
    vertex -185.37940952255155 -148.9975785225519 -1.1156247228496954
    vertex -185.5000000000003 -149.11816900000065 -1.0656745115973818
  endloop
endfacet
facet normal -0.7071067811865467 0.7071067811865483 5.962413716514515e-15
  outer loop
    vertex -185.12059047744907 -148.73875947744938 -1.1156247228496954
    vertex -185.5000000000003 -149.11816900000065 -1.0656745115973818
    vertex -185.00000000000028 -148.61816900000065 -1.0656745115973818
  endloop
endfacet
facet normal -0.7071067811865467 0.7071067811865483 5.962413716514515e-15
  outer loop
    vertex -185.00000000000028 -148.61816900000065 -1.0656745115973818
    vertex -185.5000000000003 -149.11816900000065 -1.0656745115973818
    vertex -186.16116260882472 -149.77933160882506 -0.7162398704175643
  endloop
endfacet
facet normal -0.7071067811865467 0.7071067811865483 5.962413716514515e-15
  outer loop
    vertex -185.00000000000028 -148.61816900000065 -1.0656745115973818
    vertex -186.16116260882472 -149.77933160882506 -0.7162398704175643
    vertex -184.89644660940704 -148.51461560940737 -0.9862152002984397
  endloop
endfacet
facet normal -0.7071067811865467 0.7071067811865483 5.962413716514515e-15
  outer loop
    vertex -184.89644660940704 -148.51461560940737 -0.9862152002984397
    vertex -186.16116260882472 -149.77933160882506 -0.7162398704175643
    vertex -184.81698729810807 -148.4351562981084 -0.8826618097051646
  endloop
endfacet
facet normal -0.7071067811865467 0.7071067811865483 5.962413716514515e-15
  outer loop
    vertex -184.81698729810807 -148.4351562981084 -0.8826618097051646
    vertex -186.16116260882472 -149.77933160882506 -0.7162398704175643
    vertex -184.76703708685577 -148.3852060868561 -0.7620713322564208
  endloop
endfacet
facet normal -0.7071067811865467 0.7071067811865483 5.962413716514515e-15
  outer loop
    vertex -184.76703708685577 -148.3852060868561 -0.7620713322564208
    vertex -186.16116260882472 -149.77933160882506 -0.7162398704175643
    vertex -184.7500000000003 -148.36816900000062 -0.6326618097051537
  endloop
endfacet
facet normal -0.7071067811865467 0.7071067811865483 5.962413716514515e-15
  outer loop
    vertex -184.7500000000003 -148.36816900000062 -0.6326618097051537
    vertex -186.16116260882472 -149.77933160882506 -0.7162398704175643
    vertex -186.84658975633636 -150.4647587563367 -0.4171910629997171
  endloop
endfacet
facet normal -0.7071067811865467 0.7071067811865483 5.962413716514515e-15
  outer loop
    vertex -184.7500000000003 -148.36816900000062 -0.6326618097051537
    vertex -186.84658975633636 -150.4647587563367 -0.4171910629997171
    vertex -184.76703708685577 -148.3852060868561 -0.503252287153898
  endloop
endfacet
facet normal -0.7071067811865467 0.7071067811865483 5.962413716514515e-15
  outer loop
    vertex -184.76703708685577 -148.3852060868561 -0.503252287153898
    vertex -186.84658975633636 -150.4647587563367 -0.4171910629997171
    vertex -184.81698729810807 -148.4351562981084 -0.38266180970515423
  endloop
endfacet
facet normal -0.7071067811865467 0.7071067811865483 5.962413716514515e-15
  outer loop
    vertex -184.81698729810807 -148.4351562981084 -0.38266180970515423
    vertex -186.84658975633636 -150.4647587563367 -0.4171910629997171
    vertex -187.5000000000003 -151.11816900000065 -0.18855293006572066
  endloop
endfacet
facet normal -0.7071067811865467 0.7071067811865483 5.962413716514515e-15
  outer loop
    vertex -184.81698729810807 -148.4351562981084 -0.38266180970515423
    vertex -187.5000000000003 -151.11816900000065 -0.18855293006572066
    vertex -184.89644660940704 -148.51461560940737 -0.27910841911187917
  endloop
endfacet
facet normal -0.7071067811865467 0.7071067811865483 5.962413716514515e-15
  outer loop
    vertex -184.89644660940704 -148.51461560940737 -0.27910841911187917
    vertex -187.5000000000003 -151.11816900000065 -0.18855293006572066
    vertex -185.00000000000028 -148.61816900000065 -0.19964910781293702
  endloop
endfacet
facet normal -0.7071067811865467 0.7071067811865483 5.962413716514515e-15
  outer loop
    vertex -185.00000000000028 -148.61816900000065 -0.19964910781293702
    vertex -187.5000000000003 -151.11816900000065 -0.18855293006572066
    vertex -187.50000000000026 -151.11816900000062 1.2740714505582402
  endloop
endfacet
facet normal 8.590315119197887e-16 0.3998920243197449 -0.9165622558699745
  outer loop
    vertex -163.1534102436642 -157.7715792436646 -0.4171910629997058
    vertex -186.16116260882472 -158.4570063911762 -0.7162398704175756
    vertex -186.84658975633636 -157.7715792436646 -0.4171910629997171
  endloop
endfacet
facet normal 8.590315119197887e-16 0.3998920243197449 -0.9165622558699745
  outer loop
    vertex -186.16116260882472 -158.4570063911762 -0.7162398704175756
    vertex -163.1534102436642 -157.7715792436646 -0.4171910629997058
    vertex -163.83883739117584 -158.45700639117624 -0.716239870417553
  endloop
endfacet
facet normal 3.3252187895297434e-16 0.7933533402912517 0.6087614290086991
  outer loop
    vertex -184.89644660940704 -148.51461560940737 -0.27910841911187917
    vertex -165.1830127018925 -148.43515629810844 -0.38266180970514296
    vertex -184.81698729810807 -148.4351562981084 -0.38266180970515423
  endloop
endfacet
facet normal 3.3252187895297434e-16 0.7933533402912517 0.6087614290086991
  outer loop
    vertex -165.1830127018925 -148.43515629810844 -0.38266180970514296
    vertex -184.89644660940704 -148.51461560940737 -0.27910841911187917
    vertex -165.10355339059356 -148.51461560940737 -0.27910841911186784
  endloop
endfacet
facet normal 4.3406266367366953e-16 -0.037391194276331204 -0.9993007047883984
  outer loop
    vertex -162.50000000000026 -153.3708680641364 0.2461094223700505
    vertex -187.5000000000003 -154.11816900000065 0.274071450558242
    vertex -187.5000000000003 -153.3708680641364 0.24610942237003924
  endloop
endfacet
facet normal 4.3406266367366953e-16 -0.037391194276331204 -0.9993007047883984
  outer loop
    vertex -187.5000000000003 -154.11816900000065 0.274071450558242
    vertex -162.50000000000026 -153.3708680641364 0.2461094223700505
    vertex -162.50000000000026 -154.11816900000065 0.27407145055825327
  endloop
endfacet
facet normal -4.511946372076636e-16 2.694915937357315e-32 1.0
  outer loop
    vertex -162.50000000000026 -157.11816900000065 1.2740714505582513
    vertex -187.50000000000026 -151.11816900000062 1.2740714505582402
    vertex -187.50000000000026 -157.11816900000062 1.2740714505582402
  endloop
endfacet
facet normal -4.511946372076636e-16 2.694915937357315e-32 1.0
  outer loop
    vertex -187.50000000000026 -151.11816900000062 1.2740714505582402
    vertex -162.50000000000026 -157.11816900000065 1.2740714505582513
    vertex -162.50000000000026 -151.11816900000065 1.2740714505582513
  endloop
endfacet
facet normal 1.191117414159143e-15 0.6087614290087263 -0.7933533402912307
  outer loop
    vertex -184.89644660940704 -148.51461560940737 -0.9862152002984397
    vertex -165.00000000000028 -148.61816900000068 -1.0656745115973705
    vertex -185.00000000000028 -148.61816900000065 -1.0656745115973818
  endloop
endfacet
facet normal 1.191117414159143e-15 0.6087614290087263 -0.7933533402912307
  outer loop
    vertex -165.00000000000028 -148.61816900000068 -1.0656745115973705
    vertex -184.89644660940704 -148.51461560940737 -0.9862152002984397
    vertex -165.10355339059356 -148.51461560940737 -0.9862152002984171
  endloop
endfacet
facet normal -8.631097147843883e-16 -0.9238795325112731 0.38268343236512276
  outer loop
    vertex -165.2329629131448 -159.85113191314517 -0.5032522871538755
    vertex -184.81698729810807 -159.80118170189286 -0.38266180970515423
    vertex -184.76703708685577 -159.85113191314517 -0.503252287153898
  endloop
endfacet
facet normal -8.631097147843883e-16 -0.9238795325112731 0.38268343236512276
  outer loop
    vertex -184.81698729810807 -159.80118170189286 -0.38266180970515423
    vertex -165.2329629131448 -159.85113191314517 -0.5032522871538755
    vertex -165.1830127018925 -159.8011817018929 -0.38266180970514296
  endloop
endfacet
facet normal -9.676401938370153e-16 -0.6087614290086992 0.7933533402912517
  outer loop
    vertex -184.89644660940704 -159.7217223905939 -0.27910841911187917
    vertex -165.00000000000028 -159.61816900000065 -0.19964910781292575
    vertex -185.00000000000028 -159.61816900000065 -0.19964910781293702
  endloop
endfacet
facet normal -9.676401938370153e-16 -0.6087614290086992 0.7933533402912517
  outer loop
    vertex -165.00000000000028 -159.61816900000065 -0.19964910781292575
    vertex -184.89644660940704 -159.7217223905939 -0.27910841911187917
    vertex -165.10355339059356 -159.72172239059392 -0.27910841911186784
  endloop
endfacet
facet normal 4.973115930918937e-16 0.9914448613738127 0.13052619222003511
  outer loop
    vertex -184.76703708685577 -148.3852060868561 -0.503252287153898
    vertex -165.25000000000028 -148.36816900000065 -0.6326618097051425
    vertex -184.7500000000003 -148.36816900000062 -0.6326618097051537
  endloop
endfacet
facet normal 4.973115930918937e-16 0.9914448613738127 0.13052619222003511
  outer loop
    vertex -165.25000000000028 -148.36816900000065 -0.6326618097051425
    vertex -184.76703708685577 -148.3852060868561 -0.503252287153898
    vertex -165.2329629131448 -148.3852060868561 -0.5032522871538868
  endloop
endfacet
facet normal 9.287146817449578e-16 0.18591160716291252 -0.9825664732332886
  outer loop
    vertex -162.50000000000026 -155.6085916617624 0.1623797128095414
    vertex -187.5000000000003 -156.3433783395638 0.023350572376471045
    vertex -187.5000000000003 -155.6085916617624 0.16237971280951882
  endloop
endfacet
facet normal 9.287146817449578e-16 0.18591160716291252 -0.9825664732332886
  outer loop
    vertex -187.5000000000003 -156.3433783395638 0.023350572376471045
    vertex -162.50000000000026 -155.6085916617624 0.1623797128095414
    vertex -162.50000000000026 -156.3433783395638 0.023350572376493604
  endloop
endfacet
facet normal 5.614530191904681e-16 -0.3826834323651228 -0.9238795325112731
  outer loop
    vertex -164.87940952255155 -159.49757852255192 -1.1156247228496843
    vertex -185.00000000000028 -159.61816900000065 -1.0656745115973818
    vertex -185.12059047744907 -159.4975785225519 -1.1156247228496954
  endloop
endfacet
facet normal 5.614530191904681e-16 -0.3826834323651228 -0.9238795325112731
  outer loop
    vertex -185.00000000000028 -159.61816900000065 -1.0656745115973818
    vertex -164.87940952255155 -159.49757852255192 -1.1156247228496843
    vertex -165.00000000000028 -159.61816900000065 -1.0656745115973594
  endloop
endfacet
facet normal 6.976601126365889e-16 0.11196447610330616 -0.9937122098932428
  outer loop
    vertex -162.50000000000026 -154.8654699358649 0.2461094223700505
    vertex -187.5000000000003 -155.6085916617624 0.16237971280951882
    vertex -187.5000000000003 -154.8654699358649 0.24610942237003924
  endloop
endfacet
facet normal 6.976601126365889e-16 0.11196447610330616 -0.9937122098932428
  outer loop
    vertex -187.5000000000003 -155.6085916617624 0.16237971280951882
    vertex -162.50000000000026 -154.8654699358649 0.2461094223700505
    vertex -162.50000000000026 -155.6085916617624 0.1623797128095414
  endloop
endfacet
facet normal 3.179509710858592e-16 -0.4672686282730663 -0.8841153935046075
  outer loop
    vertex -185.5000000000003 -149.11816900000065 -1.0656745115973818
    vertex -163.83883739117584 -149.7793316088251 -0.716239870417553
    vertex -186.16116260882472 -149.77933160882506 -0.7162398704175643
  endloop
endfacet
facet normal 3.179509710858592e-16 -0.4672686282730663 -0.8841153935046075
  outer loop
    vertex -163.83883739117584 -149.7793316088251 -0.716239870417553
    vertex -185.5000000000003 -149.11816900000065 -1.0656745115973818
    vertex -164.50000000000026 -149.11816900000065 -1.0656745115973594
  endloop
endfacet
facet normal 1.5802397802048606e-17 -0.7933533402912517 -0.6087614290086992
  outer loop
    vertex -165.10355339059356 -159.72172239059392 -0.9862152002984171
    vertex -184.81698729810807 -159.80118170189286 -0.8826618097051646
    vertex -184.89644660940704 -159.7217223905939 -0.9862152002984397
  endloop
endfacet
facet normal 1.5802397802048606e-17 -0.7933533402912517 -0.6087614290086992
  outer loop
    vertex -184.81698729810807 -159.80118170189286 -0.8826618097051646
    vertex -165.10355339059356 -159.72172239059392 -0.9862152002984171
    vertex -165.1830127018925 -159.8011817018929 -0.8826618097051421
  endloop
endfacet
facet normal 0.7071067811865471 -0.707106781186548 -2.9812068582572737e-15
  outer loop
    vertex -164.62059047744904 -159.23875947744938 -1.1156247228496843
    vertex -164.87940952255155 -159.49757852255192 -1.1156247228496843
    vertex -164.75000000000028 -159.36816900000065 -1.1326618097051415
  endloop
endfacet
facet normal 0.7071067811865471 -0.707106781186548 -2.9812068582572737e-15
  outer loop
    vertex -164.87940952255155 -159.49757852255192 -1.1156247228496843
    vertex -164.62059047744904 -159.23875947744938 -1.1156247228496843
    vertex -164.50000000000026 -159.11816900000068 -1.0656745115973594
  endloop
endfacet
facet normal 0.7071067811865471 -0.707106781186548 -2.9812068582572737e-15
  outer loop
    vertex -164.87940952255155 -159.49757852255192 -1.1156247228496843
    vertex -164.50000000000026 -159.11816900000068 -1.0656745115973594
    vertex -165.00000000000028 -159.61816900000065 -1.0656745115973594
  endloop
endfacet
facet normal 0.7071067811865471 -0.707106781186548 -2.9812068582572737e-15
  outer loop
    vertex -165.00000000000028 -159.61816900000065 -1.0656745115973594
    vertex -164.50000000000026 -159.11816900000068 -1.0656745115973594
    vertex -163.83883739117584 -158.45700639117624 -0.716239870417553
  endloop
endfacet
facet normal 0.7071067811865471 -0.707106781186548 -2.9812068582572737e-15
  outer loop
    vertex -165.00000000000028 -159.61816900000065 -1.0656745115973594
    vertex -163.83883739117584 -158.45700639117624 -0.716239870417553
    vertex -165.10355339059356 -159.72172239059392 -0.9862152002984171
  endloop
endfacet
facet normal 0.7071067811865471 -0.707106781186548 -2.9812068582572737e-15
  outer loop
    vertex -165.10355339059356 -159.72172239059392 -0.9862152002984171
    vertex -163.83883739117584 -158.45700639117624 -0.716239870417553
    vertex -165.1830127018925 -159.8011817018929 -0.8826618097051421
  endloop
endfacet
facet normal 0.7071067811865471 -0.707106781186548 -2.9812068582572737e-15
  outer loop
    vertex -165.1830127018925 -159.8011817018929 -0.8826618097051421
    vertex -163.83883739117584 -158.45700639117624 -0.716239870417553
    vertex -165.2329629131448 -159.85113191314517 -0.7620713322564096
  endloop
endfacet
facet normal 0.7071067811865471 -0.707106781186548 -2.9812068582572737e-15
  outer loop
    vertex -165.2329629131448 -159.85113191314517 -0.7620713322564096
    vertex -163.83883739117584 -158.45700639117624 -0.716239870417553
    vertex -165.25000000000028 -159.86816900000065 -0.6326618097051425
  endloop
endfacet
facet normal 0.7071067811865471 -0.707106781186548 -2.9812068582572737e-15
  outer loop
    vertex -165.25000000000028 -159.86816900000065 -0.6326618097051425
    vertex -163.83883739117584 -158.45700639117624 -0.716239870417553
    vertex -163.1534102436642 -157.7715792436646 -0.4171910629997058
  endloop
endfacet
facet normal 0.7071067811865471 -0.707106781186548 -2.9812068582572737e-15
  outer loop
    vertex -165.25000000000028 -159.86816900000065 -0.6326618097051425
    vertex -163.1534102436642 -157.7715792436646 -0.4171910629997058
    vertex -165.2329629131448 -159.85113191314517 -0.5032522871538755
  endloop
endfacet
facet normal 0.7071067811865471 -0.707106781186548 -2.9812068582572737e-15
  outer loop
    vertex -165.2329629131448 -159.85113191314517 -0.5032522871538755
    vertex -163.1534102436642 -157.7715792436646 -0.4171910629997058
    vertex -165.1830127018925 -159.8011817018929 -0.38266180970514296
  endloop
endfacet
facet normal 0.7071067811865471 -0.707106781186548 -2.9812068582572737e-15
  outer loop
    vertex -165.1830127018925 -159.8011817018929 -0.38266180970514296
    vertex -163.1534102436642 -157.7715792436646 -0.4171910629997058
    vertex -162.50000000000026 -157.11816900000065 -0.1885529300657094
  endloop
endfacet
facet normal 0.7071067811865471 -0.707106781186548 -2.9812068582572737e-15
  outer loop
    vertex -165.1830127018925 -159.8011817018929 -0.38266180970514296
    vertex -162.50000000000026 -157.11816900000065 -0.1885529300657094
    vertex -165.10355339059356 -159.72172239059392 -0.27910841911186784
  endloop
endfacet
facet normal 0.7071067811865471 -0.707106781186548 -2.9812068582572737e-15
  outer loop
    vertex -165.10355339059356 -159.72172239059392 -0.27910841911186784
    vertex -162.50000000000026 -157.11816900000065 -0.1885529300657094
    vertex -165.00000000000028 -159.61816900000065 -0.19964910781292575
  endloop
endfacet
facet normal 0.7071067811865471 -0.707106781186548 -2.9812068582572737e-15
  outer loop
    vertex -165.00000000000028 -159.61816900000065 -0.19964910781292575
    vertex -162.50000000000026 -157.11816900000065 -0.1885529300657094
    vertex -162.50000000000026 -157.11816900000065 1.2740714505582513
  endloop
endfacet
facet normal 6.49104348293117e-16 0.13052619221999265 -0.9914448613738182
  outer loop
    vertex -164.62059047744904 -159.23875947744938 -1.1156247228496843
    vertex -185.25000000000028 -159.36816900000065 -1.1326618097051528
    vertex -185.37940952255155 -159.23875947744938 -1.1156247228496954
  endloop
endfacet
facet normal 6.49104348293117e-16 0.13052619221999265 -0.9914448613738182
  outer loop
    vertex -185.25000000000028 -159.36816900000065 -1.1326618097051528
    vertex -164.62059047744904 -159.23875947744938 -1.1156247228496843
    vertex -164.75000000000028 -159.36816900000065 -1.1326618097051415
  endloop
endfacet
facet normal 4.786240019294898e-16 -0.2588190451025195 -0.9659258262890688
  outer loop
    vertex -162.50000000000026 -151.1706172558916 -0.1702004915803405
    vertex -187.5000000000003 -151.8929596604375 0.023350572376471045
    vertex -187.5000000000003 -151.17061725589159 -0.17020049158035178
  endloop
endfacet
facet normal 4.786240019294898e-16 -0.2588190451025195 -0.9659258262890688
  outer loop
    vertex -187.5000000000003 -151.8929596604375 0.023350572376471045
    vertex -162.50000000000026 -151.1706172558916 -0.1702004915803405
    vertex -162.50000000000026 -151.89295966043753 0.023350572376493604
  endloop
endfacet
facet normal 0.7071067811865466 0.7071067811865485 -2.039773113544452e-15
  outer loop
    vertex -164.87940952255155 -148.73875947744938 -1.1156247228496843
    vertex -164.62059047744904 -148.99757852255192 -1.1156247228496843
    vertex -164.75000000000028 -148.86816900000065 -1.1326618097051415
  endloop
endfacet
facet normal 0.7071067811865466 0.7071067811865485 -2.039773113544452e-15
  outer loop
    vertex -164.62059047744904 -148.99757852255192 -1.1156247228496843
    vertex -164.87940952255155 -148.73875947744938 -1.1156247228496843
    vertex -165.00000000000028 -148.61816900000068 -1.0656745115973705
  endloop
endfacet
facet normal 0.7071067811865466 0.7071067811865485 -2.039773113544452e-15
  outer loop
    vertex -164.62059047744904 -148.99757852255192 -1.1156247228496843
    vertex -165.00000000000028 -148.61816900000068 -1.0656745115973705
    vertex -164.50000000000026 -149.11816900000065 -1.0656745115973594
  endloop
endfacet
facet normal 0.7071067811865466 0.7071067811865485 -2.039773113544452e-15
  outer loop
    vertex -164.50000000000026 -149.11816900000065 -1.0656745115973594
    vertex -165.00000000000028 -148.61816900000068 -1.0656745115973705
    vertex -165.10355339059356 -148.51461560940737 -0.9862152002984171
  endloop
endfacet
facet normal 0.7071067811865466 0.7071067811865485 -2.039773113544452e-15
  outer loop
    vertex -164.50000000000026 -149.11816900000065 -1.0656745115973594
    vertex -165.10355339059356 -148.51461560940737 -0.9862152002984171
    vertex -163.83883739117584 -149.7793316088251 -0.716239870417553
  endloop
endfacet
facet normal 0.7071067811865466 0.7071067811865485 -2.039773113544452e-15
  outer loop
    vertex -163.83883739117584 -149.7793316088251 -0.716239870417553
    vertex -165.10355339059356 -148.51461560940737 -0.9862152002984171
    vertex -165.1830127018925 -148.43515629810844 -0.8826618097051421
  endloop
endfacet
facet normal 0.7071067811865466 0.7071067811865485 -2.039773113544452e-15
  outer loop
    vertex -163.83883739117584 -149.7793316088251 -0.716239870417553
    vertex -165.1830127018925 -148.43515629810844 -0.8826618097051421
    vertex -165.2329629131448 -148.38520608685613 -0.7620713322564096
  endloop
endfacet
facet normal 0.7071067811865466 0.7071067811865485 -2.039773113544452e-15
  outer loop
    vertex -163.83883739117584 -149.7793316088251 -0.716239870417553
    vertex -165.2329629131448 -148.38520608685613 -0.7620713322564096
    vertex -165.25000000000028 -148.36816900000065 -0.6326618097051425
  endloop
endfacet
facet normal 0.7071067811865466 0.7071067811865485 -2.039773113544452e-15
  outer loop
    vertex -163.83883739117584 -149.7793316088251 -0.716239870417553
    vertex -165.25000000000028 -148.36816900000065 -0.6326618097051425
    vertex -163.1534102436642 -150.4647587563367 -0.4171910629997058
  endloop
endfacet
facet normal 0.7071067811865466 0.7071067811865485 -2.039773113544452e-15
  outer loop
    vertex -163.1534102436642 -150.4647587563367 -0.4171910629997058
    vertex -165.25000000000028 -148.36816900000065 -0.6326618097051425
    vertex -165.2329629131448 -148.3852060868561 -0.5032522871538868
  endloop
endfacet
facet normal 0.7071067811865466 0.7071067811865485 -2.039773113544452e-15
  outer loop
    vertex -163.1534102436642 -150.4647587563367 -0.4171910629997058
    vertex -165.2329629131448 -148.3852060868561 -0.5032522871538868
    vertex -165.1830127018925 -148.43515629810844 -0.38266180970514296
  endloop
endfacet
facet normal 0.7071067811865466 0.7071067811865485 -2.039773113544452e-15
  outer loop
    vertex -163.1534102436642 -150.4647587563367 -0.4171910629997058
    vertex -165.1830127018925 -148.43515629810844 -0.38266180970514296
    vertex -162.50000000000026 -151.11816900000065 -0.1885529300657094
  endloop
endfacet
facet normal 0.7071067811865466 0.7071067811865485 -2.039773113544452e-15
  outer loop
    vertex -162.50000000000026 -151.11816900000065 -0.1885529300657094
    vertex -165.1830127018925 -148.43515629810844 -0.38266180970514296
    vertex -165.10355339059356 -148.51461560940737 -0.27910841911186784
  endloop
endfacet
facet normal 0.7071067811865466 0.7071067811865485 -2.039773113544452e-15
  outer loop
    vertex -162.50000000000026 -151.11816900000065 -0.1885529300657094
    vertex -165.10355339059356 -148.51461560940737 -0.27910841911186784
    vertex -165.00000000000028 -148.61816900000068 -0.19964910781292575
  endloop
endfacet
facet normal 0.7071067811865466 0.7071067811865485 -2.039773113544452e-15
  outer loop
    vertex -162.50000000000026 -151.11816900000065 -0.1885529300657094
    vertex -165.00000000000028 -148.61816900000068 -0.19964910781292575
    vertex -162.50000000000026 -151.11816900000065 1.2740714505582513
  endloop
endfacet
facet normal 7.609290708717937e-16 -0.1859116071629125 -0.9825664732332886
  outer loop
    vertex -162.50000000000026 -151.89295966043753 0.023350572376493604
    vertex -187.5000000000003 -152.6277463382389 0.16237971280951882
    vertex -187.5000000000003 -151.8929596604375 0.023350572376471045
  endloop
endfacet
facet normal 7.609290708717937e-16 -0.1859116071629125 -0.9825664732332886
  outer loop
    vertex -187.5000000000003 -152.6277463382389 0.16237971280951882
    vertex -162.50000000000026 -151.89295966043753 0.023350572376493604
    vertex -162.50000000000026 -152.62774633823892 0.1623797128095414
  endloop
endfacet
facet normal 1.2843271857091678e-15 0.46726862827306054 -0.8841153935046107
  outer loop
    vertex -163.83883739117584 -158.45700639117624 -0.716239870417553
    vertex -185.5000000000003 -159.11816900000065 -1.0656745115973818
    vertex -186.16116260882472 -158.4570063911762 -0.7162398704175756
  endloop
endfacet
facet normal 1.2843271857091678e-15 0.46726862827306054 -0.8841153935046107
  outer loop
    vertex -185.5000000000003 -159.11816900000065 -1.0656745115973818
    vertex -163.83883739117584 -158.45700639117624 -0.716239870417553
    vertex -164.50000000000026 -159.11816900000068 -1.0656745115973594
  endloop
endfacet
facet normal 6.218739837911274e-16 -0.11196447610330702 -0.9937122098932428
  outer loop
    vertex -162.50000000000026 -152.62774633823892 0.1623797128095414
    vertex -187.5000000000003 -153.3708680641364 0.24610942237003924
    vertex -187.5000000000003 -152.6277463382389 0.16237971280951882
  endloop
endfacet
facet normal 6.218739837911274e-16 -0.11196447610330702 -0.9937122098932428
  outer loop
    vertex -187.5000000000003 -153.3708680641364 0.24610942237003924
    vertex -162.50000000000026 -152.62774633823892 0.1623797128095414
    vertex -162.50000000000026 -153.3708680641364 0.2461094223700505
  endloop
endfacet
facet normal -1.0 2.618949321439091e-30 3.201185501189459e-14
  outer loop
    vertex -187.50000000000026 -157.11816900000062 1.2740714505582402
    vertex -187.5000000000003 -157.06572074410968 -0.17020049158035178
    vertex -187.5000000000003 -157.11816900000065 -0.18855293006572066
  endloop
endfacet
facet normal -1.0 2.618949321439091e-30 3.201185501189459e-14
  outer loop
    vertex -187.5000000000003 -157.06572074410968 -0.17020049158035178
    vertex -187.50000000000026 -157.11816900000062 1.2740714505582402
    vertex -187.5000000000003 -156.3433783395638 0.023350572376471045
  endloop
endfacet
facet normal -1.0 2.618949321439091e-30 3.201185501189459e-14
  outer loop
    vertex -187.5000000000003 -156.3433783395638 0.023350572376471045
    vertex -187.50000000000026 -157.11816900000062 1.2740714505582402
    vertex -187.50000000000026 -151.11816900000062 1.2740714505582402
  endloop
endfacet
facet normal -1.0 2.618949321439091e-30 3.201185501189459e-14
  outer loop
    vertex -187.5000000000003 -156.3433783395638 0.023350572376471045
    vertex -187.50000000000026 -151.11816900000062 1.2740714505582402
    vertex -187.5000000000003 -155.6085916617624 0.16237971280951882
  endloop
endfacet
facet normal -1.0 2.618949321439091e-30 3.201185501189459e-14
  outer loop
    vertex -187.5000000000003 -155.6085916617624 0.16237971280951882
    vertex -187.50000000000026 -151.11816900000062 1.2740714505582402
    vertex -187.5000000000003 -154.8654699358649 0.24610942237003924
  endloop
endfacet
facet normal -1.0 2.618949321439091e-30 3.201185501189459e-14
  outer loop
    vertex -187.5000000000003 -154.8654699358649 0.24610942237003924
    vertex -187.50000000000026 -151.11816900000062 1.2740714505582402
    vertex -187.5000000000003 -154.11816900000065 0.274071450558242
  endloop
endfacet
facet normal -1.0 2.618949321439091e-30 3.201185501189459e-14
  outer loop
    vertex -187.5000000000003 -154.11816900000065 0.274071450558242
    vertex -187.50000000000026 -151.11816900000062 1.2740714505582402
    vertex -187.5000000000003 -153.3708680641364 0.24610942237003924
  endloop
endfacet
facet normal -1.0 2.618949321439091e-30 3.201185501189459e-14
  outer loop
    vertex -187.5000000000003 -153.3708680641364 0.24610942237003924
    vertex -187.50000000000026 -151.11816900000062 1.2740714505582402
    vertex -187.5000000000003 -152.6277463382389 0.16237971280951882
  endloop
endfacet
facet normal -1.0 2.618949321439091e-30 3.201185501189459e-14
  outer loop
    vertex -187.5000000000003 -152.6277463382389 0.16237971280951882
    vertex -187.50000000000026 -151.11816900000062 1.2740714505582402
    vertex -187.5000000000003 -151.8929596604375 0.023350572376471045
  endloop
endfacet
facet normal -1.0 2.618949321439091e-30 3.201185501189459e-14
  outer loop
    vertex -187.5000000000003 -151.8929596604375 0.023350572376471045
    vertex -187.50000000000026 -151.11816900000062 1.2740714505582402
    vertex -187.5000000000003 -151.17061725589159 -0.17020049158035178
  endloop
endfacet
facet normal -1.0 2.618949321439091e-30 3.201185501189459e-14
  outer loop
    vertex -187.5000000000003 -151.17061725589159 -0.17020049158035178
    vertex -187.50000000000026 -151.11816900000062 1.2740714505582402
    vertex -187.5000000000003 -151.11816900000065 -0.18855293006572066
  endloop
endfacet
facet normal 8.977029914361586e-16 0.13052619222002954 -0.9914448613738134
  outer loop
    vertex -185.12059047744907 -148.73875947744938 -1.1156247228496954
    vertex -164.75000000000028 -148.86816900000065 -1.1326618097051415
    vertex -185.25000000000028 -148.86816900000062 -1.1326618097051642
  endloop
endfacet
facet normal 8.977029914361586e-16 0.13052619222002954 -0.9914448613738134
  outer loop
    vertex -164.75000000000028 -148.86816900000065 -1.1326618097051415
    vertex -185.12059047744907 -148.73875947744938 -1.1156247228496954
    vertex -164.87940952255155 -148.73875947744938 -1.1156247228496843
  endloop
endfacet
facet normal -1.0291704324630204e-15 -0.7933533402912517 0.6087614290086991
  outer loop
    vertex -165.1830127018925 -159.8011817018929 -0.38266180970514296
    vertex -184.89644660940704 -159.7217223905939 -0.27910841911187917
    vertex -184.81698729810807 -159.80118170189286 -0.38266180970515423
  endloop
endfacet
facet normal -1.0291704324630204e-15 -0.7933533402912517 0.6087614290086991
  outer loop
    vertex -184.89644660940704 -159.7217223905939 -0.27910841911187917
    vertex -165.1830127018925 -159.8011817018929 -0.38266180970514296
    vertex -165.10355339059356 -159.72172239059392 -0.27910841911186784
  endloop
endfacet
facet normal 1.3774947092180444e-15 0.7933533402912517 -0.6087614290086992
  outer loop
    vertex -184.81698729810807 -148.4351562981084 -0.8826618097051646
    vertex -165.10355339059356 -148.51461560940737 -0.9862152002984171
    vertex -184.89644660940704 -148.51461560940737 -0.9862152002984397
  endloop
endfacet
facet normal 1.3774947092180444e-15 0.7933533402912517 -0.6087614290086992
  outer loop
    vertex -165.10355339059356 -148.51461560940737 -0.9862152002984171
    vertex -184.81698729810807 -148.4351562981084 -0.8826618097051646
    vertex -165.1830127018925 -148.43515629810844 -0.8826618097051421
  endloop
endfacet
facet normal 1.0 0.0 0.0
  outer loop
    vertex -162.50000000000026 -157.0657207441097 -0.1702004915803405
    vertex -162.50000000000026 -157.11816900000065 1.2740714505582513
    vertex -162.50000000000026 -157.11816900000065 -0.1885529300657094
  endloop
endfacet
facet normal 1.0 0.0 0.0
  outer loop
    vertex -162.50000000000026 -157.11816900000065 1.2740714505582513
    vertex -162.50000000000026 -157.0657207441097 -0.1702004915803405
    vertex -162.50000000000026 -156.3433783395638 0.023350572376493604
  endloop
endfacet
facet normal 1.0 0.0 0.0
  outer loop
    vertex -162.50000000000026 -157.11816900000065 1.2740714505582513
    vertex -162.50000000000026 -156.3433783395638 0.023350572376493604
    vertex -162.50000000000026 -151.11816900000065 1.2740714505582513
  endloop
endfacet
facet normal 1.0 0.0 0.0
  outer loop
    vertex -162.50000000000026 -151.11816900000065 1.2740714505582513
    vertex -162.50000000000026 -156.3433783395638 0.023350572376493604
    vertex -162.50000000000026 -155.6085916617624 0.1623797128095414
  endloop
endfacet
facet normal 1.0 0.0 0.0
  outer loop
    vertex -162.50000000000026 -151.11816900000065 1.2740714505582513
    vertex -162.50000000000026 -155.6085916617624 0.1623797128095414
    vertex -162.50000000000026 -154.8654699358649 0.2461094223700505
  endloop
endfacet
facet normal 1.0 0.0 0.0
  outer loop
    vertex -162.50000000000026 -151.11816900000065 1.2740714505582513
    vertex -162.50000000000026 -154.8654699358649 0.2461094223700505
    vertex -162.50000000000026 -154.11816900000065 0.27407145055825327
  endloop
endfacet
facet normal 1.0 0.0 0.0
  outer loop
    vertex -162.50000000000026 -151.11816900000065 1.2740714505582513
    vertex -162.50000000000026 -154.11816900000065 0.27407145055825327
    vertex -162.50000000000026 -153.3708680641364 0.2461094223700505
  endloop
endfacet
facet normal 1.0 0.0 0.0
  outer loop
    vertex -162.50000000000026 -151.11816900000065 1.2740714505582513
    vertex -162.50000000000026 -153.3708680641364 0.2461094223700505
    vertex -162.50000000000026 -152.62774633823892 0.1623797128095414
  endloop
endfacet
facet normal 1.0 0.0 0.0
  outer loop
    vertex -162.50000000000026 -151.11816900000065 1.2740714505582513
    vertex -162.50000000000026 -152.62774633823892 0.1623797128095414
    vertex -162.50000000000026 -151.89295966043753 0.023350572376493604
  endloop
endfacet
facet normal 1.0 0.0 0.0
  outer loop
    vertex -162.50000000000026 -151.11816900000065 1.2740714505582513
    vertex -162.50000000000026 -151.89295966043753 0.023350572376493604
    vertex -162.50000000000026 -151.1706172558916 -0.1702004915803405
  endloop
endfacet
facet normal 1.0 0.0 0.0
  outer loop
    vertex -162.50000000000026 -151.11816900000065 1.2740714505582513
    vertex -162.50000000000026 -151.1706172558916 -0.1702004915803405
    vertex -162.50000000000026 -151.11816900000065 -0.1885529300657094
  endloop
endfacet
facet normal 1.129131518181947e-15 0.9238795325112884 -0.3826834323650859
  outer loop
    vertex -184.76703708685577 -148.3852060868561 -0.7620713322564208
    vertex -165.1830127018925 -148.43515629810844 -0.8826618097051421
    vertex -184.81698729810807 -148.4351562981084 -0.8826618097051646
  endloop
endfacet
facet normal 1.129131518181947e-15 0.9238795325112884 -0.3826834323650859
  outer loop
    vertex -165.1830127018925 -148.43515629810844 -0.8826618097051421
    vertex -184.76703708685577 -148.3852060868561 -0.7620713322564208
    vertex -165.2329629131448 -148.38520608685613 -0.7620713322564096
  endloop
endfacet
facet normal 1.0603197655110147e-15 0.3826834323651076 -0.9238795325112795
  outer loop
    vertex -164.50000000000026 -159.11816900000068 -1.0656745115973594
    vertex -185.37940952255155 -159.23875947744938 -1.1156247228496954
    vertex -185.5000000000003 -159.11816900000065 -1.0656745115973818
  endloop
endfacet
facet normal 1.0603197655110147e-15 0.3826834323651076 -0.9238795325112795
  outer loop
    vertex -185.37940952255155 -159.23875947744938 -1.1156247228496954
    vertex -164.50000000000026 -159.11816900000068 -1.0656745115973594
    vertex -164.62059047744904 -159.23875947744938 -1.1156247228496843
  endloop
endfacet
facet normal 3.1237468270424273e-16 0.9238795325112795 0.38268343236510755
  outer loop
    vertex -184.81698729810807 -148.4351562981084 -0.38266180970515423
    vertex -165.2329629131448 -148.3852060868561 -0.5032522871538868
    vertex -184.76703708685577 -148.3852060868561 -0.503252287153898
  endloop
endfacet
facet normal 3.1237468270424273e-16 0.9238795325112795 0.38268343236510755
  outer loop
    vertex -165.2329629131448 -148.3852060868561 -0.5032522871538868
    vertex -184.81698729810807 -148.4351562981084 -0.38266180970515423
    vertex -165.1830127018925 -148.43515629810844 -0.38266180970514296
  endloop
endfacet
facet normal 9.34918455695561e-16 0.9914448613738086 -0.1305261922200664
  outer loop
    vertex -184.7500000000003 -148.36816900000062 -0.6326618097051537
    vertex -165.2329629131448 -148.38520608685613 -0.7620713322564096
    vertex -184.76703708685577 -148.3852060868561 -0.7620713322564208
  endloop
endfacet
facet normal 9.34918455695561e-16 0.9914448613738086 -0.1305261922200664
  outer loop
    vertex -165.2329629131448 -148.38520608685613 -0.7620713322564096
    vertex -184.7500000000003 -148.36816900000062 -0.6326618097051537
    vertex -165.25000000000028 -148.36816900000065 -0.6326618097051425
  endloop
endfacet
facet normal -4.672718843997379e-16 -0.9238795325112884 -0.38268343236508595
  outer loop
    vertex -165.1830127018925 -159.8011817018929 -0.8826618097051421
    vertex -184.76703708685577 -159.85113191314517 -0.7620713322564208
    vertex -184.81698729810807 -159.80118170189286 -0.8826618097051646
  endloop
endfacet
facet normal -4.672718843997379e-16 -0.9238795325112884 -0.38268343236508595
  outer loop
    vertex -184.76703708685577 -159.85113191314517 -0.7620713322564208
    vertex -165.1830127018925 -159.8011817018929 -0.8826618097051421
    vertex -165.2329629131448 -159.85113191314517 -0.7620713322564096
  endloop
endfacet
facet normal 7.70604907874764e-16 0.25881904510252135 -0.9659258262890682
  outer loop
    vertex -162.50000000000026 -156.3433783395638 0.023350572376493604
    vertex -187.5000000000003 -157.06572074410968 -0.17020049158035178
    vertex -187.5000000000003 -156.3433783395638 0.023350572376471045
  endloop
endfacet
facet normal 7.70604907874764e-16 0.25881904510252135 -0.9659258262890682
  outer loop
    vertex -187.5000000000003 -157.06572074410968 -0.17020049158035178
    vertex -162.50000000000026 -156.3433783395638 0.023350572376493604
    vertex -162.50000000000026 -157.0657207441097 -0.1702004915803405
  endloop
endfacet
facet normal -7.236255122520753e-16 -0.991444861373814 0.13052619222002393
  outer loop
    vertex -165.25000000000028 -159.86816900000065 -0.6326618097051425
    vertex -184.76703708685577 -159.85113191314517 -0.503252287153898
    vertex -184.7500000000003 -159.86816900000065 -0.6326618097051651
  endloop
endfacet
facet normal -7.236255122520753e-16 -0.991444861373814 0.13052619222002393
  outer loop
    vertex -184.76703708685577 -159.85113191314517 -0.503252287153898
    vertex -165.25000000000028 -159.86816900000065 -0.6326618097051425
    vertex -165.2329629131448 -159.85113191314517 -0.5032522871538755
  endloop
endfacet
facet normal 2.561575012867177e-16 -0.3998920243197385 -0.9165622558699773
  outer loop
    vertex -186.16116260882472 -149.77933160882506 -0.7162398704175643
    vertex -163.1534102436642 -150.4647587563367 -0.4171910629997058
    vertex -186.84658975633636 -150.4647587563367 -0.4171910629997171
  endloop
endfacet
facet normal 2.561575012867177e-16 -0.3998920243197385 -0.9165622558699773
  outer loop
    vertex -163.1534102436642 -150.4647587563367 -0.4171910629997058
    vertex -186.16116260882472 -149.77933160882506 -0.7162398704175643
    vertex -163.83883739117584 -149.7793316088251 -0.716239870417553
  endloop
endfacet
facet normal 4.764687065692071e-16 -0.13052619221998707 -0.991444861373819
  outer loop
    vertex -164.75000000000028 -159.36816900000065 -1.1326618097051415
    vertex -185.12059047744907 -159.4975785225519 -1.1156247228496954
    vertex -185.25000000000028 -159.36816900000065 -1.1326618097051528
  endloop
endfacet
facet normal 4.764687065692071e-16 -0.13052619221998707 -0.991444861373819
  outer loop
    vertex -185.12059047744907 -159.4975785225519 -1.1156247228496954
    vertex -164.75000000000028 -159.36816900000065 -1.1326618097051415
    vertex -164.87940952255155 -159.49757852255192 -1.1156247228496843
  endloop
endfacet
facet normal -7.463315126800054e-16 -0.9914448613738077 -0.130526192220072
  outer loop
    vertex -165.2329629131448 -159.85113191314517 -0.7620713322564096
    vertex -184.7500000000003 -159.86816900000065 -0.6326618097051651
    vertex -184.76703708685577 -159.85113191314517 -0.7620713322564208
  endloop
endfacet
facet normal -7.463315126800054e-16 -0.9914448613738077 -0.130526192220072
  outer loop
    vertex -184.7500000000003 -159.86816900000065 -0.6326618097051651
    vertex -165.2329629131448 -159.85113191314517 -0.7620713322564096
    vertex -165.25000000000028 -159.86816900000065 -0.6326618097051425
  endloop
endfacet
endsolid ProtoGlove
