solid ProtoGlove
facet normal -1.4385967060370702e-15 0.8320502943381215 0.5547001962248125
  outer loop
    vertex 6.448849071855482 -49.3681689999984 2.098985751915451
    vertex 7.155955853042043 -48.86816899999879 1.3489857519152169
    vertex 5.948849071855506 -48.868168999998794 1.3489857519152164
  endloop
endfacet
facet normal -1.4385967060370702e-15 0.8320502943381215 0.5547001962248125
  outer loop
    vertex 7.155955853042043 -48.86816899999879 1.3489857519152169
    vertex 6.448849071855482 -49.3681689999984 2.098985751915451
    vertex 7.155955853042043 -49.3681689999984 2.098985751915451
  endloop
endfacet
facet normal 4.2653216269563744e-15 -0.8320502943375641 0.5547001962256488
  outer loop
    vertex 7.155955853042031 -39.36816899999877 1.348985751910458
    vertex 6.448849071855469 -38.86816899999841 2.0989857519101935
    vertex 5.948849071855476 -39.36816899999877 1.348985751910456
  endloop
endfacet
facet normal 4.2653216269563744e-15 -0.8320502943375641 0.5547001962256488
  outer loop
    vertex 6.448849071855469 -38.86816899999841 2.0989857519101935
    vertex 7.155955853042031 -39.36816899999877 1.348985751910458
    vertex 7.1559558530420295 -38.868168999998396 2.0989857519101913
  endloop
endfacet
facet normal 1.0 3.136380044569035e-15 2.8291090297663758e-15
  outer loop
    vertex 7.1559558530420295 -38.868168999998396 2.0989857519101913
    vertex 7.155955853042031 -38.86816899999953 -0.15101424808978944
    vertex 7.155955853042019 -37.86816899999841 2.098985751909702
  endloop
endfacet
facet normal 1.0 3.136380044569035e-15 2.8291090297663758e-15
  outer loop
    vertex 7.155955853042031 -38.86816899999953 -0.15101424808978944
    vertex 7.1559558530420295 -38.868168999998396 2.0989857519101913
    vertex 7.155955853042031 -38.868168999999284 0.3489857519102068
  endloop
endfacet
facet normal 1.0 3.136380044569035e-15 2.8291090297663758e-15
  outer loop
    vertex 7.155955853042031 -38.868168999999284 0.3489857519102068
    vertex 7.1559558530420295 -38.868168999998396 2.0989857519101913
    vertex 7.155955853042031 -39.36816899999877 1.348985751910458
  endloop
endfacet
facet normal 1.0 3.136380044569035e-15 2.8291090297663758e-15
  outer loop
    vertex 7.155955853042043 -49.3681689999984 2.098985751915451
    vertex 7.155955853042055 -49.36816899999927 0.3489857519154689
    vertex 7.155955853042043 -48.86816899999879 1.3489857519152169
  endloop
endfacet
facet normal 1.0 3.136380044569035e-15 2.8291090297663758e-15
  outer loop
    vertex 7.15595585304202 -37.86816899999998 -1.1510142480902947
    vertex 7.155955853042031 -38.86816899999953 -0.15101424808978944
    vertex 7.155955853042067 -50.368169000000066 -1.151014248084045
  endloop
endfacet
facet normal 1.0 3.136380044569035e-15 2.8291090297663758e-15
  outer loop
    vertex 7.155955853042031 -38.86816899999953 -0.15101424808978944
    vertex 7.15595585304202 -37.86816899999998 -1.1510142480902947
    vertex 7.155955853042019 -37.86816899999841 2.098985751909702
  endloop
endfacet
facet normal 1.0 3.136380044569035e-15 2.8291090297663758e-15
  outer loop
    vertex 7.155955853042067 -50.368169000000066 -1.151014248084045
    vertex 7.155955853042031 -38.86816899999953 -0.15101424808978944
    vertex 7.155955853042055 -49.368168999999526 -0.15101424808452737
  endloop
endfacet
facet normal 1.0 3.136380044569035e-15 2.8291090297663758e-15
  outer loop
    vertex 7.155955853042067 -50.368169000000066 -1.151014248084045
    vertex 7.155955853042055 -49.368168999999526 -0.15101424808452737
    vertex 7.155955853042055 -49.36816899999927 0.3489857519154689
  endloop
endfacet
facet normal 1.0 3.136380044569035e-15 2.8291090297663758e-15
  outer loop
    vertex 7.155955853042067 -50.368169000000066 -1.151014248084045
    vertex 7.155955853042055 -49.36816899999927 0.3489857519154689
    vertex 7.155955853042043 -49.3681689999984 2.098985751915451
  endloop
endfacet
facet normal 1.0 3.136380044569035e-15 2.8291090297663758e-15
  outer loop
    vertex 7.155955853042067 -50.368169000000066 -1.151014248084045
    vertex 7.155955853042043 -49.3681689999984 2.098985751915451
    vertex 7.1559558530420535 -50.368168999998396 2.0989857519159574
  endloop
endfacet
facet normal -1.3597874108027674e-15 0.8944271909996968 -0.44721359550039597
  outer loop
    vertex 5.948849071855506 -48.868168999998794 1.3489857519152164
    vertex 7.155955853042055 -49.36816899999927 0.3489857519154689
    vertex 6.448849071855495 -49.368168999999284 0.3489857519154615
  endloop
endfacet
facet normal -1.3597874108027674e-15 0.8944271909996968 -0.44721359550039597
  outer loop
    vertex 7.155955853042055 -49.36816899999927 0.3489857519154689
    vertex 5.948849071855506 -48.868168999998794 1.3489857519152164
    vertex 7.155955853042043 -48.86816899999879 1.3489857519152169
  endloop
endfacet
facet normal -3.258844724482353e-15 1.0 -5.009859913372178e-13
  outer loop
    vertex 2.1559558530420646 -49.36816899999954 -0.15101424808452754
    vertex 2.8630626342286245 -49.36816899999929 0.34898575191546327
    vertex 2.863062634228625 -49.36816899999954 -0.151014248084533
  endloop
endfacet
facet normal -3.258844724482353e-15 1.0 -5.009859913372178e-13
  outer loop
    vertex 2.8630626342286245 -49.36816899999929 0.34898575191546327
    vertex 2.1559558530420646 -49.36816899999954 -0.15101424808452754
    vertex 2.1559558530420637 -49.36816899999929 0.3489857519154687
  endloop
endfacet
facet normal 3.1363800445676173e-15 -1.0 5.011109142402898e-13
  outer loop
    vertex 7.155955853042031 -38.86816899999953 -0.15101424808978944
    vertex 6.448849071855471 -38.86816899999928 0.3489857519102024
    vertex 6.448849071855471 -38.86816899999953 -0.15101424808979383
  endloop
endfacet
facet normal 3.1363800445676173e-15 -1.0 5.011109142402898e-13
  outer loop
    vertex 6.448849071855471 -38.86816899999928 0.3489857519102024
    vertex 7.155955853042031 -38.86816899999953 -0.15101424808978944
    vertex 7.155955853042031 -38.868168999999284 0.3489857519102068
  endloop
endfacet
facet normal 1.4525122781621053e-15 -0.8320502943375656 0.5547001962256464
  outer loop
    vertex 2.8630626342286116 -38.868168999998424 2.09898575191019
    vertex 2.1559558530420513 -39.368168999998794 1.3489857519104578
    vertex 3.363062634228588 -39.36816899999879 1.3489857519104553
  endloop
endfacet
facet normal 1.4525122781621053e-15 -0.8320502943375656 0.5547001962256464
  outer loop
    vertex 2.1559558530420513 -39.368168999998794 1.3489857519104578
    vertex 2.8630626342286116 -38.868168999998424 2.09898575191019
    vertex 2.1559558530420513 -38.86816899999842 2.098985751910189
  endloop
endfacet
facet normal -0.7071067811865535 0.7071067811865416 -3.527817380859404e-13
  outer loop
    vertex 2.863062634228625 -49.36816899999954 -0.151014248084533
    vertex 3.863062634228617 -48.36816899999861 1.7239857519149608
    vertex 3.8630626342286005 -48.36816899999955 -0.15101424808503003
  endloop
endfacet
facet normal -0.7071067811865535 0.7071067811865416 -3.527817380859404e-13
  outer loop
    vertex 3.863062634228617 -48.36816899999861 1.7239857519149608
    vertex 2.863062634228625 -49.36816899999954 -0.151014248084533
    vertex 3.363062634228618 -48.8681689999988 1.3489857519152157
  endloop
endfacet
facet normal -0.7071067811865535 0.7071067811865416 -3.527817380859404e-13
  outer loop
    vertex 3.363062634228618 -48.8681689999988 1.3489857519152157
    vertex 2.863062634228625 -49.36816899999954 -0.151014248084533
    vertex 2.8630626342286245 -49.36816899999929 0.34898575191546327
  endloop
endfacet
facet normal -0.7071067811865535 0.7071067811865416 -3.527817380859404e-13
  outer loop
    vertex 2.8630626342286245 -49.36816899999841 2.0989857519154524
    vertex 3.863062634228617 -48.36816899999861 1.7239857519149608
    vertex 3.363062634228618 -48.8681689999988 1.3489857519152157
  endloop
endfacet
facet normal 5.829400602694806e-16 5.904394588016279e-13 1.0
  outer loop
    vertex 7.155955853042043 -49.3681689999984 2.098985751915451
    vertex 2.1559558530420753 -50.36816899999841 2.0989857519159645
    vertex 7.1559558530420535 -50.368168999998396 2.0989857519159574
  endloop
endfacet
facet normal 5.829400602694806e-16 5.904394588016279e-13 1.0
  outer loop
    vertex 2.1559558530420753 -50.36816899999841 2.0989857519159645
    vertex 7.155955853042043 -49.3681689999984 2.098985751915451
    vertex 6.448849071855482 -49.3681689999984 2.098985751915451
  endloop
endfacet
facet normal 5.829400602694806e-16 5.904394588016279e-13 1.0
  outer loop
    vertex 2.1559558530420753 -50.36816899999841 2.0989857519159645
    vertex 6.448849071855482 -49.3681689999984 2.098985751915451
    vertex 2.8630626342286245 -49.36816899999841 2.0989857519154524
  endloop
endfacet
facet normal 5.829400602694806e-16 5.904394588016279e-13 1.0
  outer loop
    vertex 2.1559558530420753 -50.36816899999841 2.0989857519159645
    vertex 2.8630626342286245 -49.36816899999841 2.0989857519154524
    vertex 2.1559558530420637 -49.368168999998424 2.09898575191545
  endloop
endfacet
facet normal -4.45519960076943e-15 0.83205029433812 0.5547001962248149
  outer loop
    vertex 2.1559558530420637 -48.8681689999988 1.3489857519152182
    vertex 2.8630626342286245 -49.36816899999841 2.0989857519154524
    vertex 3.363062634228618 -48.8681689999988 1.3489857519152157
  endloop
endfacet
facet normal -4.45519960076943e-15 0.83205029433812 0.5547001962248149
  outer loop
    vertex 2.8630626342286245 -49.36816899999841 2.0989857519154524
    vertex 2.1559558530420637 -48.8681689999988 1.3489857519152182
    vertex 2.1559558530420637 -49.368168999998424 2.09898575191545
  endloop
endfacet
facet normal -1.0 -3.2588447244810146e-15 2.670498664309593e-15
  outer loop
    vertex 2.155955853042029 -37.868169000000016 -1.1510142480903076
    vertex 2.1559558530420406 -38.86816899999955 -0.1510142480897882
    vertex 2.1559558530420397 -37.868168999998424 2.098985751909695
  endloop
endfacet
facet normal -1.0 -3.2588447244810146e-15 2.670498664309593e-15
  outer loop
    vertex 2.1559558530420406 -38.86816899999955 -0.1510142480897882
    vertex 2.155955853042029 -37.868169000000016 -1.1510142480903076
    vertex 2.1559558530420757 -50.3681690000001 -1.151014248084031
  endloop
endfacet
facet normal -1.0 -3.2588447244810146e-15 2.670498664309593e-15
  outer loop
    vertex 2.1559558530420406 -38.86816899999955 -0.1510142480897882
    vertex 2.1559558530420757 -50.3681690000001 -1.151014248084031
    vertex 2.1559558530420646 -49.36816899999954 -0.15101424808452754
  endloop
endfacet
facet normal -1.0 -3.2588447244810146e-15 2.670498664309593e-15
  outer loop
    vertex 2.1559558530420646 -49.36816899999954 -0.15101424808452754
    vertex 2.1559558530420757 -50.3681690000001 -1.151014248084031
    vertex 2.1559558530420637 -49.36816899999929 0.3489857519154687
  endloop
endfacet
facet normal -1.0 -3.2588447244810146e-15 2.670498664309593e-15
  outer loop
    vertex 2.1559558530420637 -49.36816899999929 0.3489857519154687
    vertex 2.1559558530420757 -50.3681690000001 -1.151014248084031
    vertex 2.1559558530420637 -49.368168999998424 2.09898575191545
  endloop
endfacet
facet normal -1.0 -3.2588447244810146e-15 2.670498664309593e-15
  outer loop
    vertex 2.1559558530420637 -49.368168999998424 2.09898575191545
    vertex 2.1559558530420757 -50.3681690000001 -1.151014248084031
    vertex 2.1559558530420753 -50.36816899999841 2.0989857519159645
  endloop
endfacet
facet normal -1.0 -3.2588447244810146e-15 2.670498664309593e-15
  outer loop
    vertex 2.1559558530420637 -49.368168999998424 2.09898575191545
    vertex 2.1559558530420637 -48.8681689999988 1.3489857519152182
    vertex 2.1559558530420637 -49.36816899999929 0.3489857519154687
  endloop
endfacet
facet normal -1.0 -3.2588447244810146e-15 2.670498664309593e-15
  outer loop
    vertex 2.1559558530420406 -38.86816899999955 -0.1510142480897882
    vertex 2.1559558530420513 -38.86816899999842 2.098985751910189
    vertex 2.1559558530420397 -37.868168999998424 2.098985751909695
  endloop
endfacet
facet normal -1.0 -3.2588447244810146e-15 2.670498664309593e-15
  outer loop
    vertex 2.1559558530420513 -38.86816899999842 2.098985751910189
    vertex 2.1559558530420406 -38.86816899999955 -0.1510142480897882
    vertex 2.1559558530420397 -38.868168999999305 0.3489857519102081
  endloop
endfacet
facet normal -1.0 -3.2588447244810146e-15 2.670498664309593e-15
  outer loop
    vertex 2.1559558530420513 -38.86816899999842 2.098985751910189
    vertex 2.1559558530420397 -38.868168999999305 0.3489857519102081
    vertex 2.1559558530420513 -39.368168999998794 1.3489857519104578
  endloop
endfacet
facet normal -1.600224128762955e-16 5.010772826268111e-13 1.0
  outer loop
    vertex 7.155955853042031 -38.86816899999953 -0.15101424808978944
    vertex 6.448849071855495 -49.368168999999526 -0.15101424808453479
    vertex 7.155955853042055 -49.368168999999526 -0.15101424808452737
  endloop
endfacet
facet normal -1.600224128762955e-16 5.010772826268111e-13 1.0
  outer loop
    vertex 6.448849071855495 -49.368168999999526 -0.15101424808453479
    vertex 7.155955853042031 -38.86816899999953 -0.15101424808978944
    vertex 6.448849071855471 -38.86816899999953 -0.15101424808979383
  endloop
endfacet
facet normal -1.600224128762955e-16 5.010772826268111e-13 1.0
  outer loop
    vertex 6.448849071855495 -49.368168999999526 -0.15101424808453479
    vertex 6.448849071855471 -38.86816899999953 -0.15101424808979383
    vertex 5.448849071855507 -48.36816899999955 -0.1510142480850297
  endloop
endfacet
facet normal -1.600224128762955e-16 5.010772826268111e-13 1.0
  outer loop
    vertex 5.448849071855507 -48.36816899999955 -0.1510142480850297
    vertex 6.448849071855471 -38.86816899999953 -0.15101424808979383
    vertex 5.448849071855495 -39.868168999999526 -0.15101424808928837
  endloop
endfacet
facet normal -1.600224128762955e-16 5.010772826268111e-13 1.0
  outer loop
    vertex 5.448849071855507 -48.36816899999955 -0.1510142480850297
    vertex 5.448849071855495 -39.868168999999526 -0.15101424808928837
    vertex 3.8630626342286005 -48.36816899999955 -0.15101424808503003
  endloop
endfacet
facet normal -1.600224128762955e-16 5.010772826268111e-13 1.0
  outer loop
    vertex 3.8630626342286005 -48.36816899999955 -0.15101424808503003
    vertex 5.448849071855495 -39.868168999999526 -0.15101424808928837
    vertex 3.863062634228588 -39.868168999999526 -0.1510142480892889
  endloop
endfacet
facet normal -1.600224128762955e-16 5.010772826268111e-13 1.0
  outer loop
    vertex 3.8630626342286005 -48.36816899999955 -0.15101424808503003
    vertex 3.863062634228588 -39.868168999999526 -0.1510142480892889
    vertex 2.863062634228625 -49.36816899999954 -0.151014248084533
  endloop
endfacet
facet normal -1.600224128762955e-16 5.010772826268111e-13 1.0
  outer loop
    vertex 2.863062634228625 -49.36816899999954 -0.151014248084533
    vertex 3.863062634228588 -39.868168999999526 -0.1510142480892889
    vertex 2.863062634228601 -38.86816899999955 -0.1510142480897965
  endloop
endfacet
facet normal -1.600224128762955e-16 5.010772826268111e-13 1.0
  outer loop
    vertex 2.863062634228625 -49.36816899999954 -0.151014248084533
    vertex 2.863062634228601 -38.86816899999955 -0.1510142480897965
    vertex 2.1559558530420646 -49.36816899999954 -0.15101424808452754
  endloop
endfacet
facet normal -1.600224128762955e-16 5.010772826268111e-13 1.0
  outer loop
    vertex 2.1559558530420646 -49.36816899999954 -0.15101424808452754
    vertex 2.863062634228601 -38.86816899999955 -0.1510142480897965
    vertex 2.1559558530420406 -38.86816899999955 -0.1510142480897882
  endloop
endfacet
facet normal 4.250739775538875e-15 -0.8944271910001445 -0.4472135954995011
  outer loop
    vertex 7.155955853042031 -38.868168999999284 0.3489857519102068
    vertex 5.948849071855476 -39.36816899999877 1.348985751910456
    vertex 6.448849071855471 -38.86816899999928 0.3489857519102024
  endloop
endfacet
facet normal 4.250739775538875e-15 -0.8944271910001445 -0.4472135954995011
  outer loop
    vertex 5.948849071855476 -39.36816899999877 1.348985751910456
    vertex 7.155955853042031 -38.868168999999284 0.3489857519102068
    vertex 7.155955853042031 -39.36816899999877 1.348985751910458
  endloop
endfacet
facet normal 1.5402558622765298e-15 -0.894427191000145 -0.4472135954994997
  outer loop
    vertex 3.363062634228588 -39.36816899999879 1.3489857519104553
    vertex 2.1559558530420397 -38.868168999999305 0.3489857519102081
    vertex 2.8630626342286005 -38.8681689999993 0.34898575191019976
  endloop
endfacet
facet normal 1.5402558622765298e-15 -0.894427191000145 -0.4472135954994997
  outer loop
    vertex 2.1559558530420397 -38.868168999999305 0.3489857519102081
    vertex 3.363062634228588 -39.36816899999879 1.3489857519104553
    vertex 2.1559558530420513 -39.368168999998794 1.3489857519104578
  endloop
endfacet
facet normal -5.555913843451455e-16 1.0 -5.035844911391522e-13
  outer loop
    vertex 3.863062634228617 -48.36816899999861 1.7239857519149608
    vertex 5.448849071855507 -48.36816899999955 -0.1510142480850297
    vertex 3.8630626342286005 -48.36816899999955 -0.15101424808503003
  endloop
endfacet
facet normal -5.555913843451455e-16 1.0 -5.035844911391522e-13
  outer loop
    vertex 5.448849071855507 -48.36816899999955 -0.1510142480850297
    vertex 3.863062634228617 -48.36816899999861 1.7239857519149608
    vertex 5.448849071855501 -48.3681689999986 1.7239857519149613
  endloop
endfacet
facet normal 0.7071067811865533 -0.7071067811865417 3.559199337189479e-13
  outer loop
    vertex 5.448849071855477 -39.868168999998595 1.7239857519107027
    vertex 5.948849071855476 -39.36816899999877 1.348985751910456
    vertex 6.448849071855469 -38.86816899999841 2.0989857519101935
  endloop
endfacet
facet normal 0.7071067811865533 -0.7071067811865417 3.559199337189479e-13
  outer loop
    vertex 5.948849071855476 -39.36816899999877 1.348985751910456
    vertex 5.448849071855477 -39.868168999998595 1.7239857519107027
    vertex 5.448849071855495 -39.868168999999526 -0.15101424808928837
  endloop
endfacet
facet normal 0.7071067811865533 -0.7071067811865417 3.559199337189479e-13
  outer loop
    vertex 6.448849071855471 -38.86816899999928 0.3489857519102024
    vertex 5.448849071855495 -39.868168999999526 -0.15101424808928837
    vertex 6.448849071855471 -38.86816899999953 -0.15101424808979383
  endloop
endfacet
facet normal 0.7071067811865533 -0.7071067811865417 3.559199337189479e-13
  outer loop
    vertex 5.448849071855495 -39.868168999999526 -0.15101424808928837
    vertex 6.448849071855471 -38.86816899999928 0.3489857519102024
    vertex 5.948849071855476 -39.36816899999877 1.348985751910456
  endloop
endfacet
facet normal -1.161989280666507e-15 0.3511234415888555 0.9363291775688707
  outer loop
    vertex 5.448849071855501 -48.3681689999986 1.7239857519149613
    vertex 2.8630626342286245 -49.36816899999841 2.0989857519154524
    vertex 6.448849071855482 -49.3681689999984 2.098985751915451
  endloop
endfacet
facet normal -1.161989280666507e-15 0.3511234415888555 0.9363291775688707
  outer loop
    vertex 2.8630626342286245 -49.36816899999841 2.0989857519154524
    vertex 5.448849071855501 -48.3681689999986 1.7239857519149613
    vertex 3.863062634228617 -48.36816899999861 1.7239857519149608
  endloop
endfacet
facet normal -6.377614485904388e-15 1.0 -6.585524953803131e-13
  outer loop
    vertex 2.1559558530420397 -37.868168999998424 2.098985751909695
    vertex 7.15595585304202 -37.86816899999998 -1.1510142480902947
    vertex 2.155955853042029 -37.868169000000016 -1.1510142480903076
  endloop
endfacet
facet normal -6.377614485904388e-15 1.0 -6.585524953803131e-13
  outer loop
    vertex 7.15595585304202 -37.86816899999998 -1.1510142480902947
    vertex 2.1559558530420397 -37.868168999998424 2.098985751909695
    vertex 7.155955853042019 -37.86816899999841 2.098985751909702
  endloop
endfacet
facet normal 6.063246727752179e-16 -0.35112344158791636 0.9363291775692227
  outer loop
    vertex 2.8630626342286116 -38.868168999998424 2.09898575191019
    vertex 5.448849071855477 -39.868168999998595 1.7239857519107027
    vertex 6.448849071855469 -38.86816899999841 2.0989857519101935
  endloop
endfacet
facet normal 6.063246727752179e-16 -0.35112344158791636 0.9363291775692227
  outer loop
    vertex 5.448849071855477 -39.868168999998595 1.7239857519107027
    vertex 2.8630626342286116 -38.868168999998424 2.09898575191019
    vertex 3.863062634228593 -39.868168999998595 1.723985751910702
  endloop
endfacet
facet normal 3.8428789057367985e-15 -1.0 5.023959745784918e-13
  outer loop
    vertex 2.8630626342286005 -38.8681689999993 0.34898575191019976
    vertex 2.1559558530420406 -38.86816899999955 -0.1510142480897882
    vertex 2.863062634228601 -38.86816899999955 -0.1510142480897965
  endloop
endfacet
facet normal 3.8428789057367985e-15 -1.0 5.023959745784918e-13
  outer loop
    vertex 2.1559558530420406 -38.86816899999955 -0.1510142480897882
    vertex 2.8630626342286005 -38.8681689999993 0.34898575191019976
    vertex 2.1559558530420397 -38.868168999999305 0.3489857519102081
  endloop
endfacet
facet normal -3.720414225822063e-15 1.0 -4.997009309990158e-13
  outer loop
    vertex 6.448849071855495 -49.368168999999284 0.3489857519154615
    vertex 7.155955853042055 -49.368168999999526 -0.15101424808452737
    vertex 6.448849071855495 -49.368168999999526 -0.15101424808453479
  endloop
endfacet
facet normal -3.720414225822063e-15 1.0 -4.997009309990158e-13
  outer loop
    vertex 7.155955853042055 -49.368168999999526 -0.15101424808452737
    vertex 6.448849071855495 -49.368168999999284 0.3489857519154615
    vertex 7.155955853042055 -49.36816899999927 0.3489857519154689
  endloop
endfacet
facet normal -4.289342803370794e-15 0.8944271909996963 -0.4472135955003974
  outer loop
    vertex 2.1559558530420637 -49.36816899999929 0.3489857519154687
    vertex 3.363062634228618 -48.8681689999988 1.3489857519152157
    vertex 2.8630626342286245 -49.36816899999929 0.34898575191546327
  endloop
endfacet
facet normal -4.289342803370794e-15 0.8944271909996963 -0.4472135955003974
  outer loop
    vertex 3.363062634228618 -48.8681689999988 1.3489857519152157
    vertex 2.1559558530420637 -49.36816899999929 0.3489857519154687
    vertex 2.1559558530420637 -48.8681689999988 1.3489857519152182
  endloop
endfacet
facet normal -9.852044292219342e-16 4.921166274437453e-13 1.0
  outer loop
    vertex 7.155955853042019 -37.86816899999841 2.098985751909702
    vertex 6.448849071855469 -38.86816899999841 2.0989857519101935
    vertex 7.1559558530420295 -38.868168999998396 2.0989857519101913
  endloop
endfacet
facet normal -9.852044292219342e-16 4.921166274437453e-13 1.0
  outer loop
    vertex 6.448849071855469 -38.86816899999841 2.0989857519101935
    vertex 7.155955853042019 -37.86816899999841 2.098985751909702
    vertex 2.1559558530420397 -37.868168999998424 2.098985751909695
  endloop
endfacet
facet normal -9.852044292219342e-16 4.921166274437453e-13 1.0
  outer loop
    vertex 6.448849071855469 -38.86816899999841 2.0989857519101935
    vertex 2.1559558530420397 -37.868168999998424 2.098985751909695
    vertex 2.8630626342286116 -38.868168999998424 2.09898575191019
  endloop
endfacet
facet normal -9.852044292219342e-16 4.921166274437453e-13 1.0
  outer loop
    vertex 2.8630626342286116 -38.868168999998424 2.09898575191019
    vertex 2.1559558530420397 -37.868168999998424 2.098985751909695
    vertex 2.1559558530420513 -38.86816899999842 2.098985751910189
  endloop
endfacet
facet normal 6.220949681317076e-15 -1.0 6.777861129277379e-13
  outer loop
    vertex 7.1559558530420535 -50.368168999998396 2.0989857519159574
    vertex 2.1559558530420757 -50.3681690000001 -1.151014248084031
    vertex 7.155955853042067 -50.368169000000066 -1.151014248084045
  endloop
endfacet
facet normal 6.220949681317076e-15 -1.0 6.777861129277379e-13
  outer loop
    vertex 2.1559558530420757 -50.3681690000001 -1.151014248084031
    vertex 7.1559558530420535 -50.368168999998396 2.0989857519159574
    vertex 2.1559558530420753 -50.36816899999841 2.0989857519159645
  endloop
endfacet
facet normal 0.7071067811865468 0.7071067811865482 -3.5291705856746457e-13
  outer loop
    vertex 5.448849071855507 -48.36816899999955 -0.1510142480850297
    vertex 6.448849071855495 -49.368168999999284 0.3489857519154615
    vertex 6.448849071855495 -49.368168999999526 -0.15101424808453479
  endloop
endfacet
facet normal 0.7071067811865468 0.7071067811865482 -3.5291705856746457e-13
  outer loop
    vertex 6.448849071855495 -49.368168999999284 0.3489857519154615
    vertex 5.448849071855507 -48.36816899999955 -0.1510142480850297
    vertex 5.448849071855501 -48.3681689999986 1.7239857519149613
  endloop
endfacet
facet normal 0.7071067811865468 0.7071067811865482 -3.5291705856746457e-13
  outer loop
    vertex 6.448849071855495 -49.368168999999284 0.3489857519154615
    vertex 5.448849071855501 -48.3681689999986 1.7239857519149613
    vertex 5.948849071855506 -48.868168999998794 1.3489857519152164
  endloop
endfacet
facet normal 0.7071067811865468 0.7071067811865482 -3.5291705856746457e-13
  outer loop
    vertex 5.948849071855506 -48.868168999998794 1.3489857519152164
    vertex 5.448849071855501 -48.3681689999986 1.7239857519149613
    vertex 6.448849071855482 -49.3681689999984 2.098985751915451
  endloop
endfacet
facet normal 1.0001604662272855e-15 -1.0 4.978192263303875e-13
  outer loop
    vertex 5.448849071855477 -39.868168999998595 1.7239857519107027
    vertex 3.863062634228588 -39.868168999999526 -0.1510142480892889
    vertex 5.448849071855495 -39.868168999999526 -0.15101424808928837
  endloop
endfacet
facet normal 1.0001604662272855e-15 -1.0 4.978192263303875e-13
  outer loop
    vertex 3.863062634228588 -39.868168999999526 -0.1510142480892889
    vertex 5.448849071855477 -39.868168999998595 1.7239857519107027
    vertex 3.863062634228593 -39.868168999998595 1.723985751910702
  endloop
endfacet
facet normal -0.7071067811865467 -0.7071067811865483 3.5556030430746385e-13
  outer loop
    vertex 3.863062634228593 -39.868168999998595 1.723985751910702
    vertex 2.863062634228601 -38.86816899999955 -0.1510142480897965
    vertex 3.863062634228588 -39.868168999999526 -0.1510142480892889
  endloop
endfacet
facet normal -0.7071067811865467 -0.7071067811865483 3.5556030430746385e-13
  outer loop
    vertex 2.863062634228601 -38.86816899999955 -0.1510142480897965
    vertex 3.863062634228593 -39.868168999998595 1.723985751910702
    vertex 2.8630626342286005 -38.8681689999993 0.34898575191019976
  endloop
endfacet
facet normal -0.7071067811865467 -0.7071067811865483 3.5556030430746385e-13
  outer loop
    vertex 2.8630626342286005 -38.8681689999993 0.34898575191019976
    vertex 3.863062634228593 -39.868168999998595 1.723985751910702
    vertex 3.363062634228588 -39.36816899999879 1.3489857519104553
  endloop
endfacet
facet normal -0.7071067811865467 -0.7071067811865483 3.5556030430746385e-13
  outer loop
    vertex 3.363062634228588 -39.36816899999879 1.3489857519104553
    vertex 3.863062634228593 -39.868168999998595 1.723985751910702
    vertex 2.8630626342286116 -38.868168999998424 2.09898575191019
  endloop
endfacet
facet normal 1.6338002115887274e-16 -6.680825359544649e-13 -1.0
  outer loop
    vertex 2.1559558530420757 -50.3681690000001 -1.151014248084031
    vertex 7.15595585304202 -37.86816899999998 -1.1510142480902947
    vertex 7.155955853042067 -50.368169000000066 -1.151014248084045
  endloop
endfacet
facet normal 1.6338002115887274e-16 -6.680825359544649e-13 -1.0
  outer loop
    vertex 7.15595585304202 -37.86816899999998 -1.1510142480902947
    vertex 2.1559558530420757 -50.3681690000001 -1.151014248084031
    vertex 2.155955853042029 -37.868169000000016 -1.1510142480903076
  endloop
endfacet
endsolid ProtoGlove
