solid ProtoGlove
facet normal -0.7071067811865461 -0.7071067811865489 1.1924827433029123e-14
  outer loop
    vertex -240.12059047744896 -119.49757852255195 -1.1156247228496843
    vertex -240.37940952255144 -119.23875947744942 -1.1156247228496843
    vertex -240.25000000000017 -119.36816900000069 -1.1326618097051415
  endloop
endfacet
facet normal -0.7071067811865461 -0.7071067811865489 1.1924827433029123e-14
  outer loop
    vertex -240.37940952255144 -119.23875947744942 -1.1156247228496843
    vertex -240.12059047744896 -119.49757852255195 -1.1156247228496843
    vertex -240.0000000000002 -119.61816900000068 -1.0656745115973705
  endloop
endfacet
facet normal -0.7071067811865461 -0.7071067811865489 1.1924827433029123e-14
  outer loop
    vertex -240.37940952255144 -119.23875947744942 -1.1156247228496843
    vertex -240.0000000000002 -119.61816900000068 -1.0656745115973705
    vertex -240.50000000000023 -119.1181690000007 -1.0656745115973594
  endloop
endfacet
facet normal -0.7071067811865461 -0.7071067811865489 1.1924827433029123e-14
  outer loop
    vertex -240.50000000000023 -119.1181690000007 -1.0656745115973594
    vertex -240.0000000000002 -119.61816900000068 -1.0656745115973705
    vertex -239.89644660940692 -119.72172239059397 -0.9862152002984171
  endloop
endfacet
facet normal -0.7071067811865461 -0.7071067811865489 1.1924827433029123e-14
  outer loop
    vertex -240.50000000000023 -119.1181690000007 -1.0656745115973594
    vertex -239.89644660940692 -119.72172239059397 -0.9862152002984171
    vertex -241.16116260882464 -118.45700639117626 -0.716239870417553
  endloop
endfacet
facet normal -0.7071067811865461 -0.7071067811865489 1.1924827433029123e-14
  outer loop
    vertex -241.16116260882464 -118.45700639117626 -0.716239870417553
    vertex -239.89644660940692 -119.72172239059397 -0.9862152002984171
    vertex -239.816987298108 -119.8011817018929 -0.8826618097051421
  endloop
endfacet
facet normal -0.7071067811865461 -0.7071067811865489 1.1924827433029123e-14
  outer loop
    vertex -241.16116260882464 -118.45700639117626 -0.716239870417553
    vertex -239.816987298108 -119.8011817018929 -0.8826618097051421
    vertex -239.76703708685565 -119.85113191314521 -0.7620713322564096
  endloop
endfacet
facet normal -0.7071067811865461 -0.7071067811865489 1.1924827433029123e-14
  outer loop
    vertex -241.16116260882464 -118.45700639117626 -0.716239870417553
    vertex -239.76703708685565 -119.85113191314521 -0.7620713322564096
    vertex -239.7500000000002 -119.86816900000069 -0.6326618097051425
  endloop
endfacet
facet normal -0.7071067811865461 -0.7071067811865489 1.1924827433029123e-14
  outer loop
    vertex -241.16116260882464 -118.45700639117626 -0.716239870417553
    vertex -239.7500000000002 -119.86816900000069 -0.6326618097051425
    vertex -241.84658975633627 -117.77157924366465 -0.4171910629997058
  endloop
endfacet
facet normal -0.7071067811865461 -0.7071067811865489 1.1924827433029123e-14
  outer loop
    vertex -241.84658975633627 -117.77157924366465 -0.4171910629997058
    vertex -239.7500000000002 -119.86816900000069 -0.6326618097051425
    vertex -239.76703708685565 -119.85113191314522 -0.5032522871538868
  endloop
endfacet
facet normal -0.7071067811865461 -0.7071067811865489 1.1924827433029123e-14
  outer loop
    vertex -241.84658975633627 -117.77157924366465 -0.4171910629997058
    vertex -239.76703708685565 -119.85113191314522 -0.5032522871538868
    vertex -239.816987298108 -119.8011817018929 -0.38266180970514296
  endloop
endfacet
facet normal -0.7071067811865461 -0.7071067811865489 1.1924827433029123e-14
  outer loop
    vertex -241.84658975633627 -117.77157924366465 -0.4171910629997058
    vertex -239.816987298108 -119.8011817018929 -0.38266180970514296
    vertex -242.5000000000002 -117.1181690000007 -0.1885529300657094
  endloop
endfacet
facet normal -0.7071067811865461 -0.7071067811865489 1.1924827433029123e-14
  outer loop
    vertex -242.5000000000002 -117.1181690000007 -0.1885529300657094
    vertex -239.816987298108 -119.8011817018929 -0.38266180970514296
    vertex -239.89644660940692 -119.72172239059397 -0.27910841911186784
  endloop
endfacet
facet normal -0.7071067811865461 -0.7071067811865489 1.1924827433029123e-14
  outer loop
    vertex -242.5000000000002 -117.1181690000007 -0.1885529300657094
    vertex -239.89644660940692 -119.72172239059397 -0.27910841911186784
    vertex -240.0000000000002 -119.61816900000068 -0.19964910781292575
  endloop
endfacet
facet normal -0.7071067811865461 -0.7071067811865489 1.1924827433029123e-14
  outer loop
    vertex -242.5000000000002 -117.1181690000007 -0.1885529300657094
    vertex -240.0000000000002 -119.61816900000068 -0.19964910781292575
    vertex -242.50000000000017 -117.11816900000068 1.2740714505582513
  endloop
endfacet
facet normal -0.7071067811865471 0.707106781186548 4.864074347682926e-15
  outer loop
    vertex -240.37940952255144 -108.99757852255195 -1.1156247228496843
    vertex -240.12059047744896 -108.73875947744942 -1.1156247228496843
    vertex -240.25000000000017 -108.86816900000068 -1.1326618097051415
  endloop
endfacet
facet normal -0.7071067811865471 0.707106781186548 4.864074347682926e-15
  outer loop
    vertex -240.12059047744896 -108.73875947744942 -1.1156247228496843
    vertex -240.37940952255144 -108.99757852255195 -1.1156247228496843
    vertex -240.50000000000023 -109.11816900000068 -1.0656745115973594
  endloop
endfacet
facet normal -0.7071067811865471 0.707106781186548 4.864074347682926e-15
  outer loop
    vertex -240.12059047744896 -108.73875947744942 -1.1156247228496843
    vertex -240.50000000000023 -109.11816900000068 -1.0656745115973594
    vertex -240.0000000000002 -108.61816900000069 -1.0656745115973594
  endloop
endfacet
facet normal -0.7071067811865471 0.707106781186548 4.864074347682926e-15
  outer loop
    vertex -240.0000000000002 -108.61816900000069 -1.0656745115973594
    vertex -240.50000000000023 -109.11816900000068 -1.0656745115973594
    vertex -241.16116260882464 -109.7793316088251 -0.716239870417553
  endloop
endfacet
facet normal -0.7071067811865471 0.707106781186548 4.864074347682926e-15
  outer loop
    vertex -240.0000000000002 -108.61816900000069 -1.0656745115973594
    vertex -241.16116260882464 -109.7793316088251 -0.716239870417553
    vertex -239.89644660940692 -108.51461560940741 -0.9862152002984171
  endloop
endfacet
facet normal -0.7071067811865471 0.707106781186548 4.864074347682926e-15
  outer loop
    vertex -239.89644660940692 -108.51461560940741 -0.9862152002984171
    vertex -241.16116260882464 -109.7793316088251 -0.716239870417553
    vertex -239.816987298108 -108.43515629810847 -0.8826618097051421
  endloop
endfacet
facet normal -0.7071067811865471 0.707106781186548 4.864074347682926e-15
  outer loop
    vertex -239.816987298108 -108.43515629810847 -0.8826618097051421
    vertex -241.16116260882464 -109.7793316088251 -0.716239870417553
    vertex -239.76703708685565 -108.38520608685616 -0.7620713322564096
  endloop
endfacet
facet normal -0.7071067811865471 0.707106781186548 4.864074347682926e-15
  outer loop
    vertex -239.76703708685565 -108.38520608685616 -0.7620713322564096
    vertex -241.16116260882464 -109.7793316088251 -0.716239870417553
    vertex -239.7500000000002 -108.36816900000069 -0.6326618097051425
  endloop
endfacet
facet normal -0.7071067811865471 0.707106781186548 4.864074347682926e-15
  outer loop
    vertex -239.7500000000002 -108.36816900000069 -0.6326618097051425
    vertex -241.16116260882464 -109.7793316088251 -0.716239870417553
    vertex -241.84658975633627 -110.46475875633674 -0.4171910629997058
  endloop
endfacet
facet normal -0.7071067811865471 0.707106781186548 4.864074347682926e-15
  outer loop
    vertex -239.7500000000002 -108.36816900000069 -0.6326618097051425
    vertex -241.84658975633627 -110.46475875633674 -0.4171910629997058
    vertex -239.76703708685565 -108.38520608685616 -0.5032522871538755
  endloop
endfacet
facet normal -0.7071067811865471 0.707106781186548 4.864074347682926e-15
  outer loop
    vertex -239.76703708685565 -108.38520608685616 -0.5032522871538755
    vertex -241.84658975633627 -110.46475875633674 -0.4171910629997058
    vertex -239.816987298108 -108.43515629810847 -0.38266180970514296
  endloop
endfacet
facet normal -0.7071067811865471 0.707106781186548 4.864074347682926e-15
  outer loop
    vertex -239.816987298108 -108.43515629810847 -0.38266180970514296
    vertex -241.84658975633627 -110.46475875633674 -0.4171910629997058
    vertex -242.5000000000002 -111.11816900000069 -0.1885529300657094
  endloop
endfacet
facet normal -0.7071067811865471 0.707106781186548 4.864074347682926e-15
  outer loop
    vertex -239.816987298108 -108.43515629810847 -0.38266180970514296
    vertex -242.5000000000002 -111.11816900000069 -0.1885529300657094
    vertex -239.89644660940692 -108.51461560940741 -0.27910841911186784
  endloop
endfacet
facet normal -0.7071067811865471 0.707106781186548 4.864074347682926e-15
  outer loop
    vertex -239.89644660940692 -108.51461560940741 -0.27910841911186784
    vertex -242.5000000000002 -111.11816900000069 -0.1885529300657094
    vertex -240.0000000000002 -108.61816900000069 -0.19964910781292575
  endloop
endfacet
facet normal -0.7071067811865471 0.707106781186548 4.864074347682926e-15
  outer loop
    vertex -240.0000000000002 -108.61816900000069 -0.19964910781292575
    vertex -242.5000000000002 -111.11816900000069 -0.1885529300657094
    vertex -242.50000000000017 -111.11816900000066 1.2740714505582513
  endloop
endfacet
facet normal -1.0 2.684004937565877e-30 3.201185501189463e-14
  outer loop
    vertex -242.50000000000017 -117.11816900000068 1.2740714505582513
    vertex -242.5000000000002 -117.06572074410973 -0.1702004915803405
    vertex -242.5000000000002 -117.1181690000007 -0.1885529300657094
  endloop
endfacet
facet normal -1.0 2.684004937565877e-30 3.201185501189463e-14
  outer loop
    vertex -242.5000000000002 -117.06572074410973 -0.1702004915803405
    vertex -242.50000000000017 -117.11816900000068 1.2740714505582513
    vertex -242.5000000000002 -116.34337833956384 0.023350572376493604
  endloop
endfacet
facet normal -1.0 2.684004937565877e-30 3.201185501189463e-14
  outer loop
    vertex -242.5000000000002 -116.34337833956384 0.023350572376493604
    vertex -242.50000000000017 -117.11816900000068 1.2740714505582513
    vertex -242.50000000000017 -111.11816900000066 1.2740714505582513
  endloop
endfacet
facet normal -1.0 2.684004937565877e-30 3.201185501189463e-14
  outer loop
    vertex -242.5000000000002 -116.34337833956384 0.023350572376493604
    vertex -242.50000000000017 -111.11816900000066 1.2740714505582513
    vertex -242.5000000000002 -115.60859166176243 0.1623797128095414
  endloop
endfacet
facet normal -1.0 2.684004937565877e-30 3.201185501189463e-14
  outer loop
    vertex -242.5000000000002 -115.60859166176243 0.1623797128095414
    vertex -242.50000000000017 -111.11816900000066 1.2740714505582513
    vertex -242.5000000000002 -114.86546993586494 0.2461094223700505
  endloop
endfacet
facet normal -1.0 2.684004937565877e-30 3.201185501189463e-14
  outer loop
    vertex -242.5000000000002 -114.86546993586494 0.2461094223700505
    vertex -242.50000000000017 -111.11816900000066 1.2740714505582513
    vertex -242.5000000000002 -114.11816900000069 0.27407145055825327
  endloop
endfacet
facet normal -1.0 2.684004937565877e-30 3.201185501189463e-14
  outer loop
    vertex -242.5000000000002 -114.11816900000069 0.27407145055825327
    vertex -242.50000000000017 -111.11816900000066 1.2740714505582513
    vertex -242.5000000000002 -113.37086806413643 0.2461094223700505
  endloop
endfacet
facet normal -1.0 2.684004937565877e-30 3.201185501189463e-14
  outer loop
    vertex -242.5000000000002 -113.37086806413643 0.2461094223700505
    vertex -242.50000000000017 -111.11816900000066 1.2740714505582513
    vertex -242.5000000000002 -112.62774633823895 0.1623797128095414
  endloop
endfacet
facet normal -1.0 2.684004937565877e-30 3.201185501189463e-14
  outer loop
    vertex -242.5000000000002 -112.62774633823895 0.1623797128095414
    vertex -242.50000000000017 -111.11816900000066 1.2740714505582513
    vertex -242.5000000000002 -111.89295966043754 0.023350572376493604
  endloop
endfacet
facet normal -1.0 2.684004937565877e-30 3.201185501189463e-14
  outer loop
    vertex -242.5000000000002 -111.89295966043754 0.023350572376493604
    vertex -242.50000000000017 -111.11816900000066 1.2740714505582513
    vertex -242.5000000000002 -111.17061725589164 -0.1702004915803405
  endloop
endfacet
facet normal -1.0 2.684004937565877e-30 3.201185501189463e-14
  outer loop
    vertex -242.5000000000002 -111.17061725589164 -0.1702004915803405
    vertex -242.50000000000017 -111.11816900000066 1.2740714505582513
    vertex -242.5000000000002 -111.11816900000069 -0.1885529300657094
  endloop
endfacet
facet normal 0.7071067811865468 0.7071067811865483 -2.6673956100196674e-15
  outer loop
    vertex -209.87940952255144 -108.73875947744942 -1.1156247228496843
    vertex -209.6205904774489 -108.99757852255195 -1.1156247228496843
    vertex -209.75000000000017 -108.86816900000068 -1.1326618097051415
  endloop
endfacet
facet normal 0.7071067811865468 0.7071067811865483 -2.6673956100196674e-15
  outer loop
    vertex -209.6205904774489 -108.99757852255195 -1.1156247228496843
    vertex -209.87940952255144 -108.73875947744942 -1.1156247228496843
    vertex -210.00000000000017 -108.61816900000069 -1.0656745115973705
  endloop
endfacet
facet normal 0.7071067811865468 0.7071067811865483 -2.6673956100196674e-15
  outer loop
    vertex -209.6205904774489 -108.99757852255195 -1.1156247228496843
    vertex -210.00000000000017 -108.61816900000069 -1.0656745115973705
    vertex -209.50000000000014 -109.11816900000068 -1.0656745115973594
  endloop
endfacet
facet normal 0.7071067811865468 0.7071067811865483 -2.6673956100196674e-15
  outer loop
    vertex -209.50000000000014 -109.11816900000068 -1.0656745115973594
    vertex -210.00000000000017 -108.61816900000069 -1.0656745115973705
    vertex -210.10355339059342 -108.51461560940741 -0.9862152002984171
  endloop
endfacet
facet normal 0.7071067811865468 0.7071067811865483 -2.6673956100196674e-15
  outer loop
    vertex -209.50000000000014 -109.11816900000068 -1.0656745115973594
    vertex -210.10355339059342 -108.51461560940741 -0.9862152002984171
    vertex -208.83883739117573 -109.7793316088251 -0.716239870417553
  endloop
endfacet
facet normal 0.7071067811865468 0.7071067811865483 -2.6673956100196674e-15
  outer loop
    vertex -208.83883739117573 -109.7793316088251 -0.716239870417553
    vertex -210.10355339059342 -108.51461560940741 -0.9862152002984171
    vertex -210.18301270189235 -108.43515629810847 -0.8826618097051421
  endloop
endfacet
facet normal 0.7071067811865468 0.7071067811865483 -2.6673956100196674e-15
  outer loop
    vertex -208.83883739117573 -109.7793316088251 -0.716239870417553
    vertex -210.18301270189235 -108.43515629810847 -0.8826618097051421
    vertex -210.2329629131447 -108.38520608685616 -0.7620713322564096
  endloop
endfacet
facet normal 0.7071067811865468 0.7071067811865483 -2.6673956100196674e-15
  outer loop
    vertex -208.83883739117573 -109.7793316088251 -0.716239870417553
    vertex -210.2329629131447 -108.38520608685616 -0.7620713322564096
    vertex -210.25000000000014 -108.36816900000069 -0.6326618097051425
  endloop
endfacet
facet normal 0.7071067811865468 0.7071067811865483 -2.6673956100196674e-15
  outer loop
    vertex -208.83883739117573 -109.7793316088251 -0.716239870417553
    vertex -210.25000000000014 -108.36816900000069 -0.6326618097051425
    vertex -208.1534102436641 -110.46475875633672 -0.4171910629997058
  endloop
endfacet
facet normal 0.7071067811865468 0.7071067811865483 -2.6673956100196674e-15
  outer loop
    vertex -208.1534102436641 -110.46475875633672 -0.4171910629997058
    vertex -210.25000000000014 -108.36816900000069 -0.6326618097051425
    vertex -210.2329629131447 -108.38520608685614 -0.5032522871538868
  endloop
endfacet
facet normal 0.7071067811865468 0.7071067811865483 -2.6673956100196674e-15
  outer loop
    vertex -208.1534102436641 -110.46475875633672 -0.4171910629997058
    vertex -210.2329629131447 -108.38520608685614 -0.5032522871538868
    vertex -210.18301270189235 -108.43515629810847 -0.38266180970514296
  endloop
endfacet
facet normal 0.7071067811865468 0.7071067811865483 -2.6673956100196674e-15
  outer loop
    vertex -208.1534102436641 -110.46475875633672 -0.4171910629997058
    vertex -210.18301270189235 -108.43515629810847 -0.38266180970514296
    vertex -207.50000000000014 -111.11816900000069 -0.1885529300657094
  endloop
endfacet
facet normal 0.7071067811865468 0.7071067811865483 -2.6673956100196674e-15
  outer loop
    vertex -207.50000000000014 -111.11816900000069 -0.1885529300657094
    vertex -210.18301270189235 -108.43515629810847 -0.38266180970514296
    vertex -210.10355339059342 -108.51461560940741 -0.27910841911186784
  endloop
endfacet
facet normal 0.7071067811865468 0.7071067811865483 -2.6673956100196674e-15
  outer loop
    vertex -207.50000000000014 -111.11816900000069 -0.1885529300657094
    vertex -210.10355339059342 -108.51461560940741 -0.27910841911186784
    vertex -210.00000000000017 -108.61816900000069 -0.19964910781292575
  endloop
endfacet
facet normal 0.7071067811865468 0.7071067811865483 -2.6673956100196674e-15
  outer loop
    vertex -207.50000000000014 -111.11816900000069 -0.1885529300657094
    vertex -210.00000000000017 -108.61816900000069 -0.19964910781292575
    vertex -207.50000000000014 -111.11816900000069 1.2740714505582513
  endloop
endfacet
facet normal 0.7071067811865471 -0.707106781186548 -2.9812068582572737e-15
  outer loop
    vertex -209.6205904774489 -119.23875947744942 -1.1156247228496843
    vertex -209.87940952255144 -119.49757852255195 -1.1156247228496843
    vertex -209.75000000000017 -119.36816900000069 -1.1326618097051415
  endloop
endfacet
facet normal 0.7071067811865471 -0.707106781186548 -2.9812068582572737e-15
  outer loop
    vertex -209.87940952255144 -119.49757852255195 -1.1156247228496843
    vertex -209.6205904774489 -119.23875947744942 -1.1156247228496843
    vertex -209.50000000000014 -119.1181690000007 -1.0656745115973594
  endloop
endfacet
facet normal 0.7071067811865471 -0.707106781186548 -2.9812068582572737e-15
  outer loop
    vertex -209.87940952255144 -119.49757852255195 -1.1156247228496843
    vertex -209.50000000000014 -119.1181690000007 -1.0656745115973594
    vertex -210.00000000000017 -119.61816900000068 -1.0656745115973594
  endloop
endfacet
facet normal 0.7071067811865471 -0.707106781186548 -2.9812068582572737e-15
  outer loop
    vertex -210.00000000000017 -119.61816900000068 -1.0656745115973594
    vertex -209.50000000000014 -119.1181690000007 -1.0656745115973594
    vertex -208.83883739117573 -118.45700639117626 -0.716239870417553
  endloop
endfacet
facet normal 0.7071067811865471 -0.707106781186548 -2.9812068582572737e-15
  outer loop
    vertex -210.00000000000017 -119.61816900000068 -1.0656745115973594
    vertex -208.83883739117573 -118.45700639117626 -0.716239870417553
    vertex -210.10355339059342 -119.72172239059397 -0.9862152002984171
  endloop
endfacet
facet normal 0.7071067811865471 -0.707106781186548 -2.9812068582572737e-15
  outer loop
    vertex -210.10355339059342 -119.72172239059397 -0.9862152002984171
    vertex -208.83883739117573 -118.45700639117626 -0.716239870417553
    vertex -210.18301270189235 -119.8011817018929 -0.8826618097051421
  endloop
endfacet
facet normal 0.7071067811865471 -0.707106781186548 -2.9812068582572737e-15
  outer loop
    vertex -210.18301270189235 -119.8011817018929 -0.8826618097051421
    vertex -208.83883739117573 -118.45700639117626 -0.716239870417553
    vertex -210.2329629131447 -119.85113191314521 -0.7620713322564096
  endloop
endfacet
facet normal 0.7071067811865471 -0.707106781186548 -2.9812068582572737e-15
  outer loop
    vertex -210.2329629131447 -119.85113191314521 -0.7620713322564096
    vertex -208.83883739117573 -118.45700639117626 -0.716239870417553
    vertex -210.25000000000014 -119.86816900000069 -0.6326618097051425
  endloop
endfacet
facet normal 0.7071067811865471 -0.707106781186548 -2.9812068582572737e-15
  outer loop
    vertex -210.25000000000014 -119.86816900000069 -0.6326618097051425
    vertex -208.83883739117573 -118.45700639117626 -0.716239870417553
    vertex -208.1534102436641 -117.77157924366463 -0.4171910629997058
  endloop
endfacet
facet normal 0.7071067811865471 -0.707106781186548 -2.9812068582572737e-15
  outer loop
    vertex -210.25000000000014 -119.86816900000069 -0.6326618097051425
    vertex -208.1534102436641 -117.77157924366463 -0.4171910629997058
    vertex -210.2329629131447 -119.85113191314521 -0.5032522871538755
  endloop
endfacet
facet normal 0.7071067811865471 -0.707106781186548 -2.9812068582572737e-15
  outer loop
    vertex -210.2329629131447 -119.85113191314521 -0.5032522871538755
    vertex -208.1534102436641 -117.77157924366463 -0.4171910629997058
    vertex -210.18301270189235 -119.8011817018929 -0.38266180970514296
  endloop
endfacet
facet normal 0.7071067811865471 -0.707106781186548 -2.9812068582572737e-15
  outer loop
    vertex -210.18301270189235 -119.8011817018929 -0.38266180970514296
    vertex -208.1534102436641 -117.77157924366463 -0.4171910629997058
    vertex -207.50000000000014 -117.11816900000068 -0.1885529300657094
  endloop
endfacet
facet normal 0.7071067811865471 -0.707106781186548 -2.9812068582572737e-15
  outer loop
    vertex -210.18301270189235 -119.8011817018929 -0.38266180970514296
    vertex -207.50000000000014 -117.11816900000068 -0.1885529300657094
    vertex -210.10355339059342 -119.72172239059397 -0.27910841911186784
  endloop
endfacet
facet normal 0.7071067811865471 -0.707106781186548 -2.9812068582572737e-15
  outer loop
    vertex -210.10355339059342 -119.72172239059397 -0.27910841911186784
    vertex -207.50000000000014 -117.11816900000068 -0.1885529300657094
    vertex -210.00000000000017 -119.61816900000068 -0.19964910781292575
  endloop
endfacet
facet normal 0.7071067811865471 -0.707106781186548 -2.9812068582572737e-15
  outer loop
    vertex -210.00000000000017 -119.61816900000068 -0.19964910781292575
    vertex -207.50000000000014 -117.11816900000068 -0.1885529300657094
    vertex -207.50000000000014 -117.11816900000068 1.2740714505582513
  endloop
endfacet
facet normal 1.0 0.0 0.0
  outer loop
    vertex -207.50000000000014 -117.06572074410973 -0.1702004915803405
    vertex -207.50000000000014 -117.11816900000068 1.2740714505582513
    vertex -207.50000000000014 -117.11816900000068 -0.1885529300657094
  endloop
endfacet
facet normal 1.0 0.0 0.0
  outer loop
    vertex -207.50000000000014 -117.11816900000068 1.2740714505582513
    vertex -207.50000000000014 -117.06572074410973 -0.1702004915803405
    vertex -207.50000000000014 -116.34337833956383 0.023350572376493604
  endloop
endfacet
facet normal 1.0 0.0 0.0
  outer loop
    vertex -207.50000000000014 -117.11816900000068 1.2740714505582513
    vertex -207.50000000000014 -116.34337833956383 0.023350572376493604
    vertex -207.50000000000014 -111.11816900000069 1.2740714505582513
  endloop
endfacet
facet normal 1.0 0.0 0.0
  outer loop
    vertex -207.50000000000014 -111.11816900000069 1.2740714505582513
    vertex -207.50000000000014 -116.34337833956383 0.023350572376493604
    vertex -207.50000000000014 -115.60859166176243 0.1623797128095414
  endloop
endfacet
facet normal 1.0 0.0 0.0
  outer loop
    vertex -207.50000000000014 -111.11816900000069 1.2740714505582513
    vertex -207.50000000000014 -115.60859166176243 0.1623797128095414
    vertex -207.50000000000014 -114.86546993586494 0.2461094223700505
  endloop
endfacet
facet normal 1.0 0.0 0.0
  outer loop
    vertex -207.50000000000014 -111.11816900000069 1.2740714505582513
    vertex -207.50000000000014 -114.86546993586494 0.2461094223700505
    vertex -207.50000000000014 -114.11816900000069 0.27407145055825327
  endloop
endfacet
facet normal 1.0 0.0 0.0
  outer loop
    vertex -207.50000000000014 -111.11816900000069 1.2740714505582513
    vertex -207.50000000000014 -114.11816900000069 0.27407145055825327
    vertex -207.50000000000014 -113.37086806413643 0.2461094223700505
  endloop
endfacet
facet normal 1.0 0.0 0.0
  outer loop
    vertex -207.50000000000014 -111.11816900000069 1.2740714505582513
    vertex -207.50000000000014 -113.37086806413643 0.2461094223700505
    vertex -207.50000000000014 -112.62774633823895 0.1623797128095414
  endloop
endfacet
facet normal 1.0 0.0 0.0
  outer loop
    vertex -207.50000000000014 -111.11816900000069 1.2740714505582513
    vertex -207.50000000000014 -112.62774633823895 0.1623797128095414
    vertex -207.50000000000014 -111.89295966043754 0.023350572376493604
  endloop
endfacet
facet normal 1.0 0.0 0.0
  outer loop
    vertex -207.50000000000014 -111.11816900000069 1.2740714505582513
    vertex -207.50000000000014 -111.89295966043754 0.023350572376493604
    vertex -207.50000000000014 -111.17061725589164 -0.1702004915803405
  endloop
endfacet
facet normal 1.0 0.0 0.0
  outer loop
    vertex -207.50000000000014 -111.11816900000069 1.2740714505582513
    vertex -207.50000000000014 -111.17061725589164 -0.1702004915803405
    vertex -207.50000000000014 -111.11816900000069 -0.1885529300657094
  endloop
endfacet
facet normal -4.161697396045506e-17 0.2588190451025284 -0.9659258262890663
  outer loop
    vertex -207.50000000000014 -116.34337833956383 0.023350572376493604
    vertex -242.5000000000002 -117.06572074410973 -0.1702004915803405
    vertex -242.5000000000002 -116.34337833956384 0.023350572376493604
  endloop
endfacet
facet normal -4.161697396045506e-17 0.2588190451025284 -0.9659258262890663
  outer loop
    vertex -242.5000000000002 -117.06572074410973 -0.1702004915803405
    vertex -207.50000000000014 -116.34337833956383 0.023350572376493604
    vertex -207.50000000000014 -117.06572074410973 -0.1702004915803405
  endloop
endfacet
facet normal 0.0 0.6087614290086991 0.7933533402912517
  outer loop
    vertex -210.00000000000017 -108.61816900000069 -0.19964910781292575
    vertex -239.89644660940692 -108.51461560940741 -0.27910841911186784
    vertex -240.0000000000002 -108.61816900000069 -0.19964910781292575
  endloop
endfacet
facet normal 0.0 0.6087614290086991 0.7933533402912517
  outer loop
    vertex -239.89644660940692 -108.51461560940741 -0.27910841911186784
    vertex -210.00000000000017 -108.61816900000069 -0.19964910781292575
    vertex -210.10355339059342 -108.51461560940741 -0.27910841911186784
  endloop
endfacet
facet normal 1.8781111878729644e-16 0.5078217901011522 0.8614621462945782
  outer loop
    vertex -207.50000000000014 -111.11816900000069 1.2740714505582513
    vertex -240.0000000000002 -108.61816900000069 -0.19964910781292575
    vertex -242.50000000000017 -111.11816900000066 1.2740714505582513
  endloop
endfacet
facet normal 1.8781111878729644e-16 0.5078217901011522 0.8614621462945782
  outer loop
    vertex -240.0000000000002 -108.61816900000069 -0.19964910781292575
    vertex -207.50000000000014 -111.11816900000069 1.2740714505582513
    vertex -210.00000000000017 -108.61816900000069 -0.19964910781292575
  endloop
endfacet
facet normal -6.980237754641225e-17 0.39989202431973847 -0.9165622558699773
  outer loop
    vertex -208.1534102436641 -117.77157924366463 -0.4171910629997058
    vertex -241.16116260882464 -118.45700639117626 -0.716239870417553
    vertex -241.84658975633627 -117.77157924366465 -0.4171910629997058
  endloop
endfacet
facet normal -6.980237754641225e-17 0.39989202431973847 -0.9165622558699773
  outer loop
    vertex -241.16116260882464 -118.45700639117626 -0.716239870417553
    vertex -208.1534102436641 -117.77157924366463 -0.4171910629997058
    vertex -208.83883739117573 -118.45700639117626 -0.716239870417553
  endloop
endfacet
facet normal -7.152245519956624e-17 0.33027906195516743 -0.9438833303083676
  outer loop
    vertex -207.50000000000014 -117.06572074410973 -0.1702004915803405
    vertex -242.5000000000002 -117.1181690000007 -0.1885529300657094
    vertex -242.5000000000002 -117.06572074410973 -0.1702004915803405
  endloop
endfacet
facet normal -7.152245519956624e-17 0.33027906195516743 -0.9438833303083676
  outer loop
    vertex -242.5000000000002 -117.1181690000007 -0.1885529300657094
    vertex -207.50000000000014 -117.06572074410973 -0.1702004915803405
    vertex -241.84658975633627 -117.77157924366465 -0.4171910629997058
  endloop
endfacet
facet normal -7.152245519956624e-17 0.33027906195516743 -0.9438833303083676
  outer loop
    vertex -241.84658975633627 -117.77157924366465 -0.4171910629997058
    vertex -207.50000000000014 -117.06572074410973 -0.1702004915803405
    vertex -208.1534102436641 -117.77157924366463 -0.4171910629997058
  endloop
endfacet
facet normal -7.152245519956624e-17 0.33027906195516743 -0.9438833303083676
  outer loop
    vertex -208.1534102436641 -117.77157924366463 -0.4171910629997058
    vertex -207.50000000000014 -117.06572074410973 -0.1702004915803405
    vertex -207.50000000000014 -117.11816900000068 -0.1885529300657094
  endloop
endfacet
facet normal 1.810569161759776e-17 -0.11196447610329954 -0.9937122098932435
  outer loop
    vertex -207.50000000000014 -112.62774633823895 0.1623797128095414
    vertex -242.5000000000002 -113.37086806413643 0.2461094223700505
    vertex -242.5000000000002 -112.62774633823895 0.1623797128095414
  endloop
endfacet
facet normal 1.810569161759776e-17 -0.11196447610329954 -0.9937122098932435
  outer loop
    vertex -242.5000000000002 -113.37086806413643 0.2461094223700505
    vertex -207.50000000000014 -112.62774633823895 0.1623797128095414
    vertex -207.50000000000014 -113.37086806413643 0.2461094223700505
  endloop
endfacet
facet normal 0.0 -0.25881904510252646 -0.9659258262890668
  outer loop
    vertex -207.50000000000014 -111.17061725589164 -0.1702004915803405
    vertex -242.5000000000002 -111.89295966043754 0.023350572376493604
    vertex -242.5000000000002 -111.17061725589164 -0.1702004915803405
  endloop
endfacet
facet normal 0.0 -0.25881904510252646 -0.9659258262890668
  outer loop
    vertex -242.5000000000002 -111.89295966043754 0.023350572376493604
    vertex -207.50000000000014 -111.17061725589164 -0.1702004915803405
    vertex -207.50000000000014 -111.89295966043754 0.023350572376493604
  endloop
endfacet
facet normal 0.0 -0.6087614290086991 0.7933533402912517
  outer loop
    vertex -239.89644660940692 -119.72172239059397 -0.27910841911186784
    vertex -210.00000000000017 -119.61816900000068 -0.19964910781292575
    vertex -240.0000000000002 -119.61816900000068 -0.19964910781292575
  endloop
endfacet
facet normal 0.0 -0.6087614290086991 0.7933533402912517
  outer loop
    vertex -210.00000000000017 -119.61816900000068 -0.19964910781292575
    vertex -239.89644660940692 -119.72172239059397 -0.27910841911186784
    vertex -210.10355339059342 -119.72172239059397 -0.27910841911186784
  endloop
endfacet
facet normal 0.0 0.46726862827306054 -0.8841153935046107
  outer loop
    vertex -208.83883739117573 -118.45700639117626 -0.716239870417553
    vertex -240.50000000000023 -119.1181690000007 -1.0656745115973594
    vertex -241.16116260882464 -118.45700639117626 -0.716239870417553
  endloop
endfacet
facet normal 0.0 0.46726862827306054 -0.8841153935046107
  outer loop
    vertex -240.50000000000023 -119.1181690000007 -1.0656745115973594
    vertex -208.83883739117573 -118.45700639117626 -0.716239870417553
    vertex -209.50000000000014 -119.1181690000007 -1.0656745115973594
  endloop
endfacet
facet normal 0.0 0.9238795325112822 -0.38268343236510116
  outer loop
    vertex -239.76703708685565 -108.38520608685616 -0.7620713322564096
    vertex -210.18301270189235 -108.43515629810847 -0.8826618097051421
    vertex -239.816987298108 -108.43515629810847 -0.8826618097051421
  endloop
endfacet
facet normal 0.0 0.9238795325112822 -0.38268343236510116
  outer loop
    vertex -210.18301270189235 -108.43515629810847 -0.8826618097051421
    vertex -239.76703708685565 -108.38520608685616 -0.7620713322564096
    vertex -210.2329629131447 -108.38520608685616 -0.7620713322564096
  endloop
endfacet
facet normal 0.0 0.3826834323651444 -0.9238795325112642
  outer loop
    vertex -209.50000000000014 -119.1181690000007 -1.0656745115973594
    vertex -240.37940952255144 -119.23875947744942 -1.1156247228496843
    vertex -240.50000000000023 -119.1181690000007 -1.0656745115973594
  endloop
endfacet
facet normal 0.0 0.3826834323651444 -0.9238795325112642
  outer loop
    vertex -240.37940952255144 -119.23875947744942 -1.1156247228496843
    vertex -209.50000000000014 -119.1181690000007 -1.0656745115973594
    vertex -209.6205904774489 -119.23875947744942 -1.1156247228496843
  endloop
endfacet
facet normal -2.4427552623865777e-16 0.38268343236512276 -0.9238795325112731
  outer loop
    vertex -240.0000000000002 -108.61816900000069 -1.0656745115973594
    vertex -209.87940952255144 -108.73875947744942 -1.1156247228496843
    vertex -240.12059047744896 -108.73875947744942 -1.1156247228496843
  endloop
endfacet
facet normal -2.4427552623865777e-16 0.38268343236512276 -0.9238795325112731
  outer loop
    vertex -209.87940952255144 -108.73875947744942 -1.1156247228496843
    vertex -240.0000000000002 -108.61816900000069 -1.0656745115973594
    vertex -210.00000000000017 -108.61816900000069 -1.0656745115973705
  endloop
endfacet
facet normal 6.0123410081045466e-18 -0.037391194276331204 -0.9993007047883984
  outer loop
    vertex -207.50000000000014 -113.37086806413643 0.2461094223700505
    vertex -242.5000000000002 -114.11816900000069 0.27407145055825327
    vertex -242.5000000000002 -113.37086806413643 0.2461094223700505
  endloop
endfacet
facet normal 6.0123410081045466e-18 -0.037391194276331204 -0.9993007047883984
  outer loop
    vertex -242.5000000000002 -114.11816900000069 0.27407145055825327
    vertex -207.50000000000014 -113.37086806413643 0.2461094223700505
    vertex -207.50000000000014 -114.11816900000069 0.27407145055825327
  endloop
endfacet
facet normal -1.0301606951362815e-16 0.9238795325112731 0.3826834323651228
  outer loop
    vertex -239.76703708685565 -108.38520608685616 -0.5032522871538755
    vertex -210.18301270189235 -108.43515629810847 -0.38266180970514296
    vertex -210.2329629131447 -108.38520608685614 -0.5032522871538868
  endloop
endfacet
facet normal -1.0301606951362815e-16 0.9238795325112731 0.3826834323651228
  outer loop
    vertex -210.18301270189235 -108.43515629810847 -0.38266180970514296
    vertex -239.76703708685565 -108.38520608685616 -0.5032522871538755
    vertex -239.816987298108 -108.43515629810847 -0.38266180970514296
  endloop
endfacet
facet normal 2.442535407321065e-16 -0.38268343236512276 -0.9238795325112731
  outer loop
    vertex -209.87940952255144 -119.49757852255195 -1.1156247228496843
    vertex -240.0000000000002 -119.61816900000068 -1.0656745115973705
    vertex -240.12059047744896 -119.49757852255195 -1.1156247228496843
  endloop
endfacet
facet normal 2.442535407321065e-16 -0.38268343236512276 -0.9238795325112731
  outer loop
    vertex -240.0000000000002 -119.61816900000068 -1.0656745115973705
    vertex -209.87940952255144 -119.49757852255195 -1.1156247228496843
    vertex -210.00000000000017 -119.61816900000068 -1.0656745115973594
  endloop
endfacet
facet normal 1.0301606951362815e-16 -0.9238795325112731 0.3826834323651228
  outer loop
    vertex -210.2329629131447 -119.85113191314521 -0.5032522871538755
    vertex -239.816987298108 -119.8011817018929 -0.38266180970514296
    vertex -239.76703708685565 -119.85113191314522 -0.5032522871538868
  endloop
endfacet
facet normal 1.0301606951362815e-16 -0.9238795325112731 0.3826834323651228
  outer loop
    vertex -239.816987298108 -119.8011817018929 -0.38266180970514296
    vertex -210.2329629131447 -119.85113191314521 -0.5032522871538755
    vertex -210.18301270189235 -119.8011817018929 -0.38266180970514296
  endloop
endfacet
facet normal -5.995740265450565e-17 0.18591160716291252 -0.9825664732332886
  outer loop
    vertex -207.50000000000014 -115.60859166176243 0.1623797128095414
    vertex -242.5000000000002 -116.34337833956384 0.023350572376493604
    vertex -242.5000000000002 -115.60859166176243 0.1623797128095414
  endloop
endfacet
facet normal -5.995740265450565e-17 0.18591160716291252 -0.9825664732332886
  outer loop
    vertex -242.5000000000002 -116.34337833956384 0.023350572376493604
    vertex -207.50000000000014 -115.60859166176243 0.1623797128095414
    vertex -207.50000000000014 -116.34337833956383 0.023350572376493604
  endloop
endfacet
facet normal 1.416154151470039e-31 -0.13052619221999265 -0.9914448613738182
  outer loop
    vertex -240.25000000000017 -108.86816900000068 -1.1326618097051415
    vertex -209.6205904774489 -108.99757852255195 -1.1156247228496843
    vertex -240.37940952255144 -108.99757852255195 -1.1156247228496843
  endloop
endfacet
facet normal 1.416154151470039e-31 -0.13052619221999265 -0.9914448613738182
  outer loop
    vertex -209.6205904774489 -108.99757852255195 -1.1156247228496843
    vertex -240.25000000000017 -108.86816900000068 -1.1326618097051415
    vertex -209.75000000000017 -108.86816900000068 -1.1326618097051415
  endloop
endfacet
facet normal 0.0 0.7933533402912517 -0.6087614290086991
  outer loop
    vertex -239.816987298108 -108.43515629810847 -0.8826618097051421
    vertex -210.10355339059342 -108.51461560940741 -0.9862152002984171
    vertex -239.89644660940692 -108.51461560940741 -0.9862152002984171
  endloop
endfacet
facet normal 0.0 0.7933533402912517 -0.6087614290086991
  outer loop
    vertex -210.10355339059342 -108.51461560940741 -0.9862152002984171
    vertex -239.816987298108 -108.43515629810847 -0.8826618097051421
    vertex -210.18301270189235 -108.43515629810847 -0.8826618097051421
  endloop
endfacet
facet normal 7.383755556451435e-20 -0.9238795325112822 -0.38268343236510116
  outer loop
    vertex -210.2329629131447 -119.85113191314521 -0.7620713322564096
    vertex -239.816987298108 -119.8011817018929 -0.8826618097051421
    vertex -210.18301270189235 -119.8011817018929 -0.8826618097051421
  endloop
endfacet
facet normal 7.383755556451435e-20 -0.9238795325112822 -0.38268343236510116
  outer loop
    vertex -239.816987298108 -119.8011817018929 -0.8826618097051421
    vertex -210.2329629131447 -119.85113191314521 -0.7620713322564096
    vertex -239.76703708685565 -119.85113191314521 -0.7620713322564096
  endloop
endfacet
facet normal -6.777171172080038e-20 -0.3826834323651444 -0.9238795325112642
  outer loop
    vertex -240.37940952255144 -108.99757852255195 -1.1156247228496843
    vertex -209.50000000000014 -109.11816900000068 -1.0656745115973594
    vertex -240.50000000000023 -109.11816900000068 -1.0656745115973594
  endloop
endfacet
facet normal -6.777171172080038e-20 -0.3826834323651444 -0.9238795325112642
  outer loop
    vertex -209.50000000000014 -109.11816900000068 -1.0656745115973594
    vertex -240.37940952255144 -108.99757852255195 -1.1156247228496843
    vertex -209.6205904774489 -108.99757852255195 -1.1156247228496843
  endloop
endfacet
facet normal 0.0 0.0 1.0
  outer loop
    vertex -207.50000000000014 -117.11816900000068 1.2740714505582513
    vertex -242.50000000000017 -111.11816900000066 1.2740714505582513
    vertex -242.50000000000017 -117.11816900000068 1.2740714505582513
  endloop
endfacet
facet normal 0.0 0.0 1.0
  outer loop
    vertex -242.50000000000017 -111.11816900000066 1.2740714505582513
    vertex -207.50000000000014 -117.11816900000068 1.2740714505582513
    vertex -207.50000000000014 -111.11816900000069 1.2740714505582513
  endloop
endfacet
facet normal 0.0 -0.18591160716291252 -0.9825664732332886
  outer loop
    vertex -207.50000000000014 -111.89295966043754 0.023350572376493604
    vertex -242.5000000000002 -112.62774633823895 0.1623797128095414
    vertex -242.5000000000002 -111.89295966043754 0.023350572376493604
  endloop
endfacet
facet normal 0.0 -0.18591160716291252 -0.9825664732332886
  outer loop
    vertex -242.5000000000002 -112.62774633823895 0.1623797128095414
    vertex -207.50000000000014 -111.89295966043754 0.023350572376493604
    vertex -207.50000000000014 -112.62774633823895 0.1623797128095414
  endloop
endfacet
facet normal 0.0 -0.7933533402912517 -0.6087614290086991
  outer loop
    vertex -210.18301270189235 -119.8011817018929 -0.8826618097051421
    vertex -239.89644660940692 -119.72172239059397 -0.9862152002984171
    vertex -210.10355339059342 -119.72172239059397 -0.9862152002984171
  endloop
endfacet
facet normal 0.0 -0.7933533402912517 -0.6087614290086991
  outer loop
    vertex -239.89644660940692 -119.72172239059397 -0.9862152002984171
    vertex -210.18301270189235 -119.8011817018929 -0.8826618097051421
    vertex -239.816987298108 -119.8011817018929 -0.8826618097051421
  endloop
endfacet
facet normal -1.6460041540376053e-16 0.9914448613738134 0.1305261922200295
  outer loop
    vertex -239.76703708685565 -108.38520608685616 -0.5032522871538755
    vertex -210.25000000000014 -108.36816900000069 -0.6326618097051425
    vertex -239.7500000000002 -108.36816900000069 -0.6326618097051425
  endloop
endfacet
facet normal -1.6460041540376053e-16 0.9914448613738134 0.1305261922200295
  outer loop
    vertex -210.25000000000014 -108.36816900000069 -0.6326618097051425
    vertex -239.76703708685565 -108.38520608685616 -0.5032522871538755
    vertex -210.2329629131447 -108.38520608685614 -0.5032522871538868
  endloop
endfacet
facet normal 1.6460041540376053e-16 -0.9914448613738134 0.1305261922200295
  outer loop
    vertex -210.2329629131447 -119.85113191314521 -0.5032522871538755
    vertex -239.7500000000002 -119.86816900000069 -0.6326618097051425
    vertex -210.25000000000014 -119.86816900000069 -0.6326618097051425
  endloop
endfacet
facet normal 1.6460041540376053e-16 -0.9914448613738134 0.1305261922200295
  outer loop
    vertex -239.7500000000002 -119.86816900000069 -0.6326618097051425
    vertex -210.2329629131447 -119.85113191314521 -0.5032522871538755
    vertex -239.76703708685565 -119.85113191314522 -0.5032522871538868
  endloop
endfacet
facet normal -3.621138323519525e-17 0.11196447610329874 -0.9937122098932437
  outer loop
    vertex -207.50000000000014 -114.86546993586494 0.2461094223700505
    vertex -242.5000000000002 -115.60859166176243 0.1623797128095414
    vertex -242.5000000000002 -114.86546993586494 0.2461094223700505
  endloop
endfacet
facet normal -3.621138323519525e-17 0.11196447610329874 -0.9937122098932437
  outer loop
    vertex -242.5000000000002 -115.60859166176243 0.1623797128095414
    vertex -207.50000000000014 -114.86546993586494 0.2461094223700505
    vertex -207.50000000000014 -115.60859166176243 0.1623797128095414
  endloop
endfacet
facet normal 0.0 0.9914448613738086 -0.1305261922200664
  outer loop
    vertex -239.7500000000002 -108.36816900000069 -0.6326618097051425
    vertex -210.2329629131447 -108.38520608685616 -0.7620713322564096
    vertex -239.76703708685565 -108.38520608685616 -0.7620713322564096
  endloop
endfacet
facet normal 0.0 0.9914448613738086 -0.1305261922200664
  outer loop
    vertex -210.2329629131447 -108.38520608685616 -0.7620713322564096
    vertex -239.7500000000002 -108.36816900000069 -0.6326618097051425
    vertex -210.25000000000014 -108.36816900000069 -0.6326618097051425
  endloop
endfacet
facet normal -6.012341008104547e-18 0.037391194276331204 -0.9993007047883984
  outer loop
    vertex -207.50000000000014 -114.11816900000069 0.27407145055825327
    vertex -242.5000000000002 -114.86546993586494 0.2461094223700505
    vertex -242.5000000000002 -114.11816900000069 0.27407145055825327
  endloop
endfacet
facet normal -6.012341008104547e-18 0.037391194276331204 -0.9993007047883984
  outer loop
    vertex -242.5000000000002 -114.86546993586494 0.2461094223700505
    vertex -207.50000000000014 -114.11816900000069 0.27407145055825327
    vertex -207.50000000000014 -114.86546993586494 0.2461094223700505
  endloop
endfacet
facet normal 6.285438265717555e-20 -0.7933533402912517 0.6087614290086991
  outer loop
    vertex -210.10355339059342 -119.72172239059397 -0.27910841911186784
    vertex -239.816987298108 -119.8011817018929 -0.38266180970514296
    vertex -210.18301270189235 -119.8011817018929 -0.38266180970514296
  endloop
endfacet
facet normal 6.285438265717555e-20 -0.7933533402912517 0.6087614290086991
  outer loop
    vertex -239.816987298108 -119.8011817018929 -0.38266180970514296
    vertex -210.10355339059342 -119.72172239059397 -0.27910841911186784
    vertex -239.89644660940692 -119.72172239059397 -0.27910841911186784
  endloop
endfacet
facet normal 3.465649673112698e-17 -0.3302790619551663 -0.943883330308368
  outer loop
    vertex -241.84658975633627 -110.46475875633674 -0.4171910629997058
    vertex -242.5000000000002 -111.17061725589164 -0.1702004915803405
    vertex -242.5000000000002 -111.11816900000069 -0.1885529300657094
  endloop
endfacet
facet normal 3.465649673112698e-17 -0.3302790619551663 -0.943883330308368
  outer loop
    vertex -242.5000000000002 -111.17061725589164 -0.1702004915803405
    vertex -241.84658975633627 -110.46475875633674 -0.4171910629997058
    vertex -207.50000000000014 -111.17061725589164 -0.1702004915803405
  endloop
endfacet
facet normal 3.465649673112698e-17 -0.3302790619551663 -0.943883330308368
  outer loop
    vertex -207.50000000000014 -111.17061725589164 -0.1702004915803405
    vertex -241.84658975633627 -110.46475875633674 -0.4171910629997058
    vertex -208.1534102436641 -110.46475875633672 -0.4171910629997058
  endloop
endfacet
facet normal 3.465649673112698e-17 -0.3302790619551663 -0.943883330308368
  outer loop
    vertex -207.50000000000014 -111.17061725589164 -0.1702004915803405
    vertex -208.1534102436641 -110.46475875633672 -0.4171910629997058
    vertex -207.50000000000014 -111.11816900000069 -0.1885529300657094
  endloop
endfacet
facet normal 0.0 0.13052619221999262 -0.9914448613738182
  outer loop
    vertex -209.6205904774489 -119.23875947744942 -1.1156247228496843
    vertex -240.25000000000017 -119.36816900000069 -1.1326618097051415
    vertex -240.37940952255144 -119.23875947744942 -1.1156247228496843
  endloop
endfacet
facet normal 0.0 0.13052619221999262 -0.9914448613738182
  outer loop
    vertex -240.25000000000017 -119.36816900000069 -1.1326618097051415
    vertex -209.6205904774489 -119.23875947744942 -1.1156247228496843
    vertex -209.75000000000017 -119.36816900000069 -1.1326618097051415
  endloop
endfacet
facet normal 6.980237754641225e-17 -0.3998920243197385 -0.9165622558699773
  outer loop
    vertex -241.16116260882464 -109.7793316088251 -0.716239870417553
    vertex -208.1534102436641 -110.46475875633672 -0.4171910629997058
    vertex -241.84658975633627 -110.46475875633674 -0.4171910629997058
  endloop
endfacet
facet normal 6.980237754641225e-17 -0.3998920243197385 -0.9165622558699773
  outer loop
    vertex -208.1534102436641 -110.46475875633672 -0.4171910629997058
    vertex -241.16116260882464 -109.7793316088251 -0.716239870417553
    vertex -208.83883739117573 -109.7793316088251 -0.716239870417553
  endloop
endfacet
facet normal 2.4134288782653413e-17 -0.13052619221998707 -0.991444861373819
  outer loop
    vertex -209.75000000000017 -119.36816900000069 -1.1326618097051415
    vertex -240.12059047744896 -119.49757852255195 -1.1156247228496843
    vertex -240.25000000000017 -119.36816900000069 -1.1326618097051415
  endloop
endfacet
facet normal 2.4134288782653413e-17 -0.13052619221998707 -0.991444861373819
  outer loop
    vertex -240.12059047744896 -119.49757852255195 -1.1156247228496843
    vertex -209.75000000000017 -119.36816900000069 -1.1326618097051415
    vertex -209.87940952255144 -119.49757852255195 -1.1156247228496843
  endloop
endfacet
facet normal 0.0 0.7933533402912517 0.6087614290086991
  outer loop
    vertex -239.89644660940692 -108.51461560940741 -0.27910841911186784
    vertex -210.18301270189235 -108.43515629810847 -0.38266180970514296
    vertex -239.816987298108 -108.43515629810847 -0.38266180970514296
  endloop
endfacet
facet normal 0.0 0.7933533402912517 0.6087614290086991
  outer loop
    vertex -210.18301270189235 -108.43515629810847 -0.38266180970514296
    vertex -239.89644660940692 -108.51461560940741 -0.27910841911186784
    vertex -210.10355339059342 -108.51461560940741 -0.27910841911186784
  endloop
endfacet
facet normal 5.92892349894928e-19 -0.5078217901011506 0.8614621462945793
  outer loop
    vertex -240.0000000000002 -119.61816900000068 -0.19964910781292575
    vertex -207.50000000000014 -117.11816900000068 1.2740714505582513
    vertex -242.50000000000017 -117.11816900000068 1.2740714505582513
  endloop
endfacet
facet normal 5.92892349894928e-19 -0.5078217901011506 0.8614621462945793
  outer loop
    vertex -207.50000000000014 -117.11816900000068 1.2740714505582513
    vertex -240.0000000000002 -119.61816900000068 -0.19964910781292575
    vertex -210.00000000000017 -119.61816900000068 -0.19964910781292575
  endloop
endfacet
facet normal -1.5018822124084823e-16 0.6087614290087263 -0.793353340291231
  outer loop
    vertex -239.89644660940692 -108.51461560940741 -0.9862152002984171
    vertex -210.00000000000017 -108.61816900000069 -1.0656745115973705
    vertex -240.0000000000002 -108.61816900000069 -1.0656745115973594
  endloop
endfacet
facet normal -1.5018822124084823e-16 0.6087614290087263 -0.793353340291231
  outer loop
    vertex -210.00000000000017 -108.61816900000069 -1.0656745115973705
    vertex -239.89644660940692 -108.51461560940741 -0.9862152002984171
    vertex -210.10355339059342 -108.51461560940741 -0.9862152002984171
  endloop
endfacet
facet normal 0.0 -0.9914448613738086 -0.1305261922200664
  outer loop
    vertex -210.25000000000014 -119.86816900000069 -0.6326618097051425
    vertex -239.76703708685565 -119.85113191314521 -0.7620713322564096
    vertex -210.2329629131447 -119.85113191314521 -0.7620713322564096
  endloop
endfacet
facet normal 0.0 -0.9914448613738086 -0.1305261922200664
  outer loop
    vertex -239.76703708685565 -119.85113191314521 -0.7620713322564096
    vertex -210.25000000000014 -119.86816900000069 -0.6326618097051425
    vertex -239.7500000000002 -119.86816900000069 -0.6326618097051425
  endloop
endfacet
facet normal -2.4129867160791924e-17 0.13052619221998707 -0.991444861373819
  outer loop
    vertex -240.12059047744896 -108.73875947744942 -1.1156247228496843
    vertex -209.75000000000017 -108.86816900000068 -1.1326618097051415
    vertex -240.25000000000017 -108.86816900000068 -1.1326618097051415
  endloop
endfacet
facet normal -2.4129867160791924e-17 0.13052619221998707 -0.991444861373819
  outer loop
    vertex -209.75000000000017 -108.86816900000068 -1.1326618097051415
    vertex -240.12059047744896 -108.73875947744942 -1.1156247228496843
    vertex -209.87940952255144 -108.73875947744942 -1.1156247228496843
  endloop
endfacet
facet normal 1.5018822124084823e-16 -0.6087614290087263 -0.793353340291231
  outer loop
    vertex -210.00000000000017 -119.61816900000068 -1.0656745115973594
    vertex -239.89644660940692 -119.72172239059397 -0.9862152002984171
    vertex -240.0000000000002 -119.61816900000068 -1.0656745115973705
  endloop
endfacet
facet normal 1.5018822124084823e-16 -0.6087614290087263 -0.793353340291231
  outer loop
    vertex -239.89644660940692 -119.72172239059397 -0.9862152002984171
    vertex -210.00000000000017 -119.61816900000068 -1.0656745115973594
    vertex -210.10355339059342 -119.72172239059397 -0.9862152002984171
  endloop
endfacet
facet normal 0.0 -0.4672686282730604 -0.8841153935046107
  outer loop
    vertex -240.50000000000023 -109.11816900000068 -1.0656745115973594
    vertex -208.83883739117573 -109.7793316088251 -0.716239870417553
    vertex -241.16116260882464 -109.7793316088251 -0.716239870417553
  endloop
endfacet
facet normal 0.0 -0.4672686282730604 -0.8841153935046107
  outer loop
    vertex -208.83883739117573 -109.7793316088251 -0.716239870417553
    vertex -240.50000000000023 -109.11816900000068 -1.0656745115973594
    vertex -209.50000000000014 -109.11816900000068 -1.0656745115973594
  endloop
endfacet
endsolid ProtoGlove
