solid ProtoGlove baseplate
facet normal -0.11654656472882008 -0.46094389923071105 0.8797429283670878
  outer loop
    vertex 6.01445332937964 -353.117971874024 106.51445332998749
    vertex 77.07293878986842 -372.8875316765246 105.56981873345947
    vertex 6.204860985250039 -352.8027091472341 106.70486098585737
  endloop
endfacet
facet normal -0.11654656472882008 -0.46094389923071105 0.8797429283670878
  outer loop
    vertex 75.70335578100286 -368.01376016070395 107.94200608998773
    vertex 6.204860985250039 -352.8027091472341 106.70486098585737
    vertex 77.07293878986842 -372.8875316765246 105.56981873345947
  endloop
endfacet
facet normal -0.01016565618644063 0.09675191255373752 0.9952566135683265
  outer loop
    vertex 2.7172652807378084 -405.36906112294815 101.3784622413652
    vertex 5.245759845647023 -415.48303938258346 102.38749903938478
    vertex 79.05518079201218 -405.1457278803145 102.13647487291239
  endloop
endfacet
facet normal -0.01016565618644063 0.09675191255373752 0.9952566135683265
  outer loop
    vertex 79.04798750225089 -405.27464697855527 102.14893401625275
    vertex 79.05518079201218 -405.1457278803145 102.13647487291239
    vertex 5.245759845647023 -415.48303938258346 102.38749903938478
  endloop
endfacet
facet normal -0.04935969619809424 0.22392459945877302 0.9733557387453264
  outer loop
    vertex 7.827416356469822 -425.8096654258705 104.28920063705512
    vertex 10.063855587647032 -434.75542235057446 106.46062154012668
    vertex 77.12397239625628 -415.71699305255527 105.4814259343865
  endloop
endfacet
facet normal -0.04935969619809424 0.22392459945877302 0.9733557387453264
  outer loop
    vertex 77.07293878986842 -416.11246832345205 105.56981873354438
    vertex 77.12397239625628 -415.71699305255527 105.4814259343865
    vertex 10.063855587647032 -434.75542235057446 106.46062154012668
  endloop
endfacet
facet normal -0.7071067811865472 1.3929818139285862e-12 0.7071067811865479
  outer loop
    vertex 0.0 -394.49999999999847 100.50000000068951
    vertex 0.8507979397991448 -383.6817451308988 101.35079794046717
    vertex 0.0 -344.49999999999847 100.5000000005911
  endloop
endfacet
facet normal -0.7071067811865472 1.3929818139285862e-12 0.7071067811865479
  outer loop
    vertex 1.8983196084783174 -373.053939587078 102.39831960912566
    vertex 0.0 -344.49999999999847 100.5000000005911
    vertex 0.8507979397991448 -383.6817451308988 101.35079794046717
  endloop
endfacet
facet normal -0.7071067811865472 1.3929818139285862e-12 0.7071067811865479
  outer loop
    vertex 3.6278361990989136 -362.8048260555539 104.12783619972564
    vertex 0.0 -344.49999999999847 100.5000000005911
    vertex 1.8983196084783174 -373.053939587078 102.39831960912566
  endloop
endfacet
facet normal -0.7071067811865472 1.3929818139285862e-12 0.7071067811865479
  outer loop
    vertex 6.01445332937964 -353.117971874024 106.51445332998749
    vertex 0.0 -344.49999999999847 100.5000000005911
    vertex 3.6278361990989136 -362.8048260555539 104.12783619972564
  endloop
endfacet
facet normal -0.7071067811865472 1.3929818139285862e-12 0.7071067811865479
  outer loop
    vertex 8.914757486411053 -344.49999999998096 109.41475748700243
    vertex 0.0 -344.49999999999847 100.5000000005911
    vertex 6.01445332937964 -353.117971874024 106.51445332998749
  endloop
endfacet
facet normal -0.7071067811865472 1.3929818139285862e-12 0.7071067811865479
  outer loop
    vertex 0.49999999999988626 -394.4999999999974 101.00000000068958
    vertex 0.8507979397991448 -383.6817451308988 101.35079794046717
    vertex 0.0 -394.49999999999847 100.50000000068951
  endloop
endfacet
facet normal -0.7071067811865472 1.3929818139285862e-12 0.7071067811865479
  outer loop
    vertex 0.5018020307668791 -394.4664279720869 101.00180203145648
    vertex 0.8507979397991448 -383.6817451308988 101.35079794046717
    vertex 0.49999999999988626 -394.4999999999974 101.00000000068958
  endloop
endfacet
facet normal -0.7071067811865472 1.3929818139285862e-12 0.7071067811865479
  outer loop
    vertex 0.8600203549386776 -383.6255053447194 101.36002035560671
    vertex 1.8983196084783174 -373.053939587078 102.39831960912566
    vertex 0.8507979397991448 -383.6817451308988 101.35079794046717
  endloop
endfacet
facet normal -0.7071067811865472 1.3929818139285862e-12 0.7071067811865479
  outer loop
    vertex 1.93251062950726 -372.93381847795456 102.43251063015427
    vertex 3.6278361990989136 -362.8048260555539 104.12783619972564
    vertex 1.8983196084783174 -373.053939587078 102.39831960912566
  endloop
endfacet
facet normal -0.7071067811865472 1.3929818139285862e-12 0.7071067811865479
  outer loop
    vertex 3.71850817247292 -362.5918940962139 104.21850817309958
    vertex 6.01445332937964 -353.117971874024 106.51445332998749
    vertex 3.6278361990989136 -362.8048260555539 104.12783619972564
  endloop
endfacet
facet normal -0.7071067811865472 1.3929818139285862e-12 0.7071067811865479
  outer loop
    vertex 6.204860985250039 -352.8027091472341 106.70486098585737
    vertex 8.914757486411053 -344.49999999998096 109.41475748700243
    vertex 6.01445332937964 -353.117971874024 106.51445332998749
  endloop
endfacet
facet normal -0.7071067811865472 1.3929818139285862e-12 0.7071067811865479
  outer loop
    vertex 0.0 -394.49999999999847 100.50000000068951
    vertex 0.5751658597794573 -396.8006634391144 101.07516586047325
    vertex 0.49999999999988626 -394.4999999999974 101.00000000068958
  endloop
endfacet
facet normal -0.7071067811865472 1.3929818139285862e-12 0.7071067811865479
  outer loop
    vertex 0.5018020307668791 -394.5335720279081 101.00180203145656
    vertex 0.49999999999988626 -394.4999999999974 101.00000000068958
    vertex 0.5751658597794573 -396.8006634391144 101.07516586047325
  endloop
endfacet
facet normal -0.11639030097740638 0.3455364527165992 0.9311594158265374
  outer loop
    vertex 12.456303630553782 -444.32521452219436 109.91415279560958
    vertex 12.500000000000044 -444.49999999997976 109.98447436080978
    vertex 73.99357149404034 -426.2629881105437 110.90343934510449
  endloop
endfacet
facet normal -0.11639030097740638 0.3455364527165992 0.9311594158265374
  outer loop
    vertex 32.50000000000019 -444.4999999999749 112.48437500078803
    vertex 73.99357149404034 -426.2629881105437 110.90343934510449
    vertex 12.500000000000044 -444.49999999997976 109.98447436080978
  endloop
endfacet
facet normal -0.11639030097740638 0.3455364527165992 0.9311594158265374
  outer loop
    vertex 73.82643755031587 -427.0993947156338 111.19292382730632
    vertex 73.99357149404034 -426.2629881105437 110.90343934510449
    vertex 32.50000000000019 -444.4999999999749 112.48437500078803
  endloop
endfacet
facet normal -0.9701425001453323 -0.2425356250363315 4.913543720870296e-13
  outer loop
    vertex 12.500000000000044 -444.49999999997976 109.98447436080978
    vertex 12.296841932344437 -443.6873677293576 109.45329991284946
    vertex 12.500000000000044 -444.49999999999955 100.00000000078794
  endloop
endfacet
facet normal -0.9701425001453323 -0.2425356250363315 4.913543720870296e-13
  outer loop
    vertex 10.063855587647032 -434.75542235057446 106.46062154012668
    vertex 12.500000000000044 -444.49999999999955 100.00000000078794
    vertex 12.296841932344437 -443.6873677293576 109.45329991284946
  endloop
endfacet
facet normal -0.9701425001453323 -0.2425356250363315 4.913543720870296e-13
  outer loop
    vertex 7.711466428751578 -425.34586571499835 104.09778592271287
    vertex 12.500000000000044 -444.49999999999955 100.00000000078794
    vertex 10.063855587647032 -434.75542235057446 106.46062154012668
  endloop
endfacet
facet normal -0.9701425001453323 -0.2425356250363315 4.913543720870296e-13
  outer loop
    vertex 5.245759845647023 -415.48303938258346 102.38749903938478
    vertex 12.500000000000044 -444.49999999999955 100.00000000078794
    vertex 7.711466428751578 -425.34586571499835 104.09778592271287
  endloop
endfacet
facet normal -0.9701425001453323 -0.2425356250363315 4.913543720870296e-13
  outer loop
    vertex 0.0 -394.4999999999994 100.00000000068971
    vertex 12.500000000000044 -444.49999999999955 100.00000000078794
    vertex 5.245759845647023 -415.48303938258346 102.38749903938478
  endloop
endfacet
facet normal -0.9701425001453323 -0.2425356250363315 4.913543720870296e-13
  outer loop
    vertex 12.456303630553782 -444.32521452219436 109.91415279560958
    vertex 12.296841932344437 -443.6873677293576 109.45329991284946
    vertex 12.500000000000044 -444.49999999997976 109.98447436080978
  endloop
endfacet
facet normal -0.9701425001453323 -0.2425356250363315 4.913543720870296e-13
  outer loop
    vertex 10.205423168558498 -435.3216926742206 106.77607513149576
    vertex 10.063855587647032 -434.75542235057446 106.46062154012668
    vertex 12.296841932344437 -443.6873677293576 109.45329991284946
  endloop
endfacet
facet normal -0.9701425001453323 -0.2425356250363315 4.913543720870296e-13
  outer loop
    vertex 7.827416356469822 -425.8096654258705 104.28920063705512
    vertex 7.711466428751578 -425.34586571499835 104.09778592271287
    vertex 10.063855587647032 -434.75542235057446 106.46062154012668
  endloop
endfacet
facet normal -0.9701425001453323 -0.2425356250363315 4.913543720870296e-13
  outer loop
    vertex 5.328952674461308 -415.8158106978398 102.48181759405452
    vertex 5.245759845647023 -415.48303938258346 102.38749903938478
    vertex 7.711466428751578 -425.34586571499835 104.09778592271287
  endloop
endfacet
facet normal -0.9701425001453323 -0.2425356250363315 4.913543720870296e-13
  outer loop
    vertex 2.673101777968435 -405.1924071118693 101.34933574448266
    vertex 0.0 -394.4999999999994 100.00000000068971
    vertex 5.245759845647023 -415.48303938258346 102.38749903938478
  endloop
endfacet
facet normal -0.9701425001453323 -0.2425356250363315 4.913543720870296e-13
  outer loop
    vertex 2.7172652807378084 -405.36906112294815 101.3784622413652
    vertex 2.673101777968435 -405.1924071118693 101.34933574448266
    vertex 5.245759845647023 -415.48303938258346 102.38749903938478
  endloop
endfacet
facet normal -0.9701425001453323 -0.2425356250363315 4.913543720870296e-13
  outer loop
    vertex 0.5751658597794573 -396.8006634391144 101.07516586047325
    vertex 0.0 -394.4999999999994 100.00000000068971
    vertex 2.673101777968435 -405.1924071118693 101.34933574448266
  endloop
endfacet
facet normal -0.9701425001453323 -0.2425356250363315 4.913543720870296e-13
  outer loop
    vertex 0.0 -394.49999999999847 100.50000000068951
    vertex 0.0 -394.4999999999994 100.00000000068971
    vertex 0.5751658597794573 -396.8006634391144 101.07516586047325
  endloop
endfacet
facet normal -1.0 0.0 0.0
  outer loop
    vertex 0.0 -394.4999999999994 100.00000000068971
    vertex 0.0 -394.49999999999847 100.50000000068951
    vertex 0.0 -344.4999999999994 100.00000000059113
  endloop
endfacet
facet normal -1.0 0.0 0.0
  outer loop
    vertex 0.0 -344.49999999999847 100.5000000005911
    vertex 0.0 -344.4999999999994 100.00000000059113
    vertex 0.0 -394.49999999999847 100.50000000068951
  endloop
endfacet
facet normal 1.0 0.0 0.0
  outer loop
    vertex 80.00000000000021 -424.4999999999993 100.00000000074861
    vertex 80.00000000000021 -364.49999999999943 100.00000000063037
    vertex 80.00000000000021 -424.49999999999847 100.50000000074867
  endloop
endfacet
facet normal 1.0 0.0 0.0
  outer loop
    vertex 80.00000000000021 -364.4999999999986 100.50000000063034
    vertex 80.00000000000021 -424.49999999999847 100.50000000074867
    vertex 80.00000000000021 -364.49999999999943 100.00000000063037
  endloop
endfacet
facet normal 0.38805700005812593 0.9216353751380681 -1.8243423852531844e-12
  outer loop
    vertex 32.50000000000019 -344.49999999997476 112.48437500059097
    vertex 55.39373004755468 -354.13946528315694 111.76894593662396
    vertex 32.49999999999983 -344.4999999999994 100.00000000059113
  endloop
endfacet
facet normal 0.38805700005812593 0.9216353751380681 -1.8243423852531844e-12
  outer loop
    vertex 55.39373004755468 -354.13946528318013 100.0000000006101
    vertex 32.49999999999983 -344.4999999999994 100.00000000059113
    vertex 55.39373004755468 -354.13946528315694 111.76894593662396
  endloop
endfacet
facet normal -0.001428465011015757 -0.0322971905293723 0.9994772888723493
  outer loop
    vertex 0.5018020307668791 -394.4664279720869 101.00180203145648
    vertex 79.54639865423754 -389.1781125781265 101.28566057792189
    vertex 0.8507979397991448 -383.6817451308988 101.35079794046717
  endloop
endfacet
facet normal -0.001428465011015757 -0.0322971905293723 0.9994772888723493
  outer loop
    vertex 79.54524751904951 -389.1163602473195 101.28765440255363
    vertex 0.8507979397991448 -383.6817451308988 101.35079794046717
    vertex 79.54639865423754 -389.1781125781265 101.28566057792189
  endloop
endfacet
facet normal 1.5214725779050944e-17 -0.053599394921655656 0.9985625192565725
  outer loop
    vertex 0.49999999999988626 -394.4999999999974 101.00000000068958
    vertex 79.7113248654053 -394.4999999999973 101.00000000068958
    vertex 0.5018020307668791 -394.4664279720869 101.00180203145648
  endloop
endfacet
facet normal 1.5214725779050944e-17 -0.053599394921655656 0.9985625192565725
  outer loop
    vertex 79.54639865423754 -389.1781125781265 101.28566057792189
    vertex 0.5018020307668791 -394.4664279720869 101.00180203145648
    vertex 79.7113248654053 -394.4999999999973 101.00000000068958
  endloop
endfacet
facet normal -1.2374643633628104e-16 0.05359939492558702 0.9985625192563615
  outer loop
    vertex 0.49999999999988626 -394.4999999999974 101.00000000068958
    vertex 0.5018020307668791 -394.5335720279081 101.00180203145656
    vertex 79.7113248654053 -394.4999999999973 101.00000000068958
  endloop
endfacet
facet normal -1.2374643633628104e-16 0.05359939492558702 0.9985625192563615
  outer loop
    vertex 79.54639865423754 -399.82188742186713 101.28566057794283
    vertex 79.7113248654053 -394.4999999999973 101.00000000068958
    vertex 0.5018020307668791 -394.5335720279081 101.00180203145656
  endloop
endfacet
facet normal -0.026173748142778022 0.1607577950498829 0.9866467788620498
  outer loop
    vertex 5.328952674461308 -415.8158106978398 102.48181759405452
    vertex 7.711466428751578 -425.34586571499835 104.09778592271287
    vertex 78.24465178897663 -410.44078487893773 103.54035228718905
  endloop
endfacet
facet normal -0.026173748142778022 0.1607577950498829 0.9866467788620498
  outer loop
    vertex 78.22238699107876 -410.68109399706907 103.5789160483687
    vertex 78.24465178897663 -410.44078487893773 103.54035228718905
    vertex 7.711466428751578 -425.34586571499835 104.09778592271287
  endloop
endfacet
facet normal -0.0014284650110155653 0.03229719053331265 0.9994772888722221
  outer loop
    vertex 0.5018020307668791 -394.5335720279081 101.00180203145656
    vertex 0.5751658597794573 -396.8006634391144 101.07516586047325
    vertex 79.54639865423754 -399.82188742186713 101.28566057794283
  endloop
endfacet
facet normal -0.0014284650110155653 0.03229719053331265 0.9994772888722221
  outer loop
    vertex 2.673101777968435 -405.1924071118693 101.34933574448266
    vertex 79.54639865423754 -399.82188742186713 101.28566057794283
    vertex 0.5751658597794573 -396.8006634391144 101.07516586047325
  endloop
endfacet
facet normal -0.0014284650110155653 0.03229719053331265 0.9994772888722221
  outer loop
    vertex 79.54524751904951 -399.8836397526741 101.28765440257486
    vertex 79.54639865423754 -399.82188742186713 101.28566057794283
    vertex 2.673101777968435 -405.1924071118693 101.34933574448266
  endloop
endfacet
facet normal -0.11654656472881944 0.46094389923417406 0.8797429283652737
  outer loop
    vertex 10.063855587647032 -434.75542235057446 106.46062154012668
    vertex 10.205423168558498 -435.3216926742206 106.77607513149576
    vertex 77.07293878986842 -416.11246832345205 105.56981873354438
  endloop
endfacet
facet normal -0.11654656472881944 0.46094389923417406 0.8797429283652737
  outer loop
    vertex 75.70335578100286 -420.98623983926393 107.94200609009225
    vertex 77.07293878986842 -416.11246832345205 105.56981873354438
    vertex 10.205423168558498 -435.3216926742206 106.77607513149576
  endloop
endfacet
facet normal -0.0692367088221672 -0.365742247742748 0.9281373208569715
  outer loop
    vertex 3.6278361990989136 -362.8048260555539 104.12783619972564
    vertex 78.22238699107876 -378.31890600291575 103.57891604830489
    vertex 3.71850817247292 -362.5918940962139 104.21850817309958
  endloop
endfacet
facet normal -0.0692367088221672 -0.365742247742748 0.9281373208569715
  outer loop
    vertex 77.12397239625663 -373.28300694742245 105.48142593430286
    vertex 3.71850817247292 -362.5918940962139 104.21850817309958
    vertex 78.22238699107876 -378.31890600291575 103.57891604830489
  endloop
endfacet
facet normal -0.03350876070341407 -0.2647755687331485 0.9637276903556102
  outer loop
    vertex 1.8983196084783174 -373.053939587078 102.39831960912566
    vertex 79.04798750225089 -383.7253530214353 102.14893401621016
    vertex 1.93251062950726 -372.93381847795456 102.43251063015427
  endloop
endfacet
facet normal -0.03350876070341407 -0.2647755687331485 0.9637276903556102
  outer loop
    vertex 78.24465178897663 -378.5592151210478 103.5403522871262
    vertex 1.93251062950726 -372.93381847795456 102.43251063015427
    vertex 79.04798750225089 -383.7253530214353 102.14893401621016
  endloop
endfacet
facet normal -0.06923670882216915 0.36574224774641784 0.9281373208555252
  outer loop
    vertex 7.711466428751578 -425.34586571499835 104.09778592271287
    vertex 7.827416356469822 -425.8096654258705 104.28920063705512
    vertex 78.22238699107876 -410.68109399706907 103.5789160483687
  endloop
endfacet
facet normal -0.06923670882216915 0.36574224774641784 0.9281373208555252
  outer loop
    vertex 77.12397239625628 -415.71699305255527 105.4814259343865
    vertex 78.22238699107876 -410.68109399706907 103.5789160483687
    vertex 7.827416356469822 -425.8096654258705 104.28920063705512
  endloop
endfacet
facet normal -0.03350876070341395 0.2647755687369466 0.963727690354567
  outer loop
    vertex 5.245759845647023 -415.48303938258346 102.38749903938478
    vertex 5.328952674461308 -415.8158106978398 102.48181759405452
    vertex 79.04798750225089 -405.27464697855527 102.14893401625275
  endloop
endfacet
facet normal -0.03350876070341395 0.2647755687369466 0.963727690354567
  outer loop
    vertex 78.24465178897663 -410.44078487893773 103.54035228718905
    vertex 79.04798750225089 -405.27464697855527 102.14893401625275
    vertex 5.328952674461308 -415.8158106978398 102.48181759405452
  endloop
endfacet
facet normal -0.010269568312113031 -0.16017379604959905 0.9870354051531001
  outer loop
    vertex 0.8507979397991448 -383.6817451308988 101.35079794046717
    vertex 79.54524751904951 -389.1163602473195 101.28765440255363
    vertex 0.8600203549386776 -383.6255053447194 101.36002035560671
  endloop
endfacet
facet normal -0.010269568312113031 -0.16017379604959905 0.9870354051531001
  outer loop
    vertex 79.05518079201218 -383.85427211967607 102.13647487287041
    vertex 0.8600203549386776 -383.6255053447194 101.36002035560671
    vertex 79.54524751904951 -389.1163602473195 101.28765440255363
  endloop
endfacet
facet normal -0.17393814534188165 0.5477787212881239 0.8183422230943327
  outer loop
    vertex 12.296841932344437 -443.6873677293576 109.45329991284946
    vertex 12.456303630553782 -444.32521452219436 109.91415279560958
    vertex 75.60542716315744 -421.58039653297163 108.1116234317167
  endloop
endfacet
facet normal -0.17393814534188165 0.5477787212881239 0.8183422230943327
  outer loop
    vertex 73.99357149404034 -426.2629881105437 110.90343934510449
    vertex 75.60542716315744 -421.58039653297163 108.1116234317167
    vertex 12.456303630553782 -444.32521452219436 109.91415279560958
  endloop
endfacet
facet normal -0.0795394032501741 -0.2857392437227795 0.955000820904014
  outer loop
    vertex 6.204860985250039 -352.8027091472341 106.70486098585737
    vertex 75.70335578100286 -368.01376016070395 107.94200608998773
    vertex 8.914757486411053 -344.49999999998096 109.41475748700243
  endloop
endfacet
facet normal -0.0795394032501741 -0.2857392437227795 0.955000820904014
  outer loop
    vertex 9.969675586985465 -344.4999999999807 109.50261872686815
    vertex 8.914757486411053 -344.49999999998096 109.41475748700243
    vertex 75.70335578100286 -368.01376016070395 107.94200608998773
  endloop
endfacet
facet normal -0.0795394032501741 -0.2857392437227795 0.955000820904014
  outer loop
    vertex 75.60542716315744 -367.419603466995 108.11162343161014
    vertex 9.969675586985465 -344.4999999999807 109.50261872686815
    vertex 75.70335578100286 -368.01376016070395 107.94200608998773
  endloop
endfacet
facet normal -0.07953940325017031 0.28573924372652487 0.9550008209028936
  outer loop
    vertex 10.205423168558498 -435.3216926742206 106.77607513149576
    vertex 12.296841932344437 -443.6873677293576 109.45329991284946
    vertex 75.70335578100286 -420.98623983926393 107.94200609009225
  endloop
endfacet
facet normal -0.07953940325017031 0.28573924372652487 0.9550008209028936
  outer loop
    vertex 75.60542716315744 -421.58039653297163 108.1116234317167
    vertex 75.70335578100286 -420.98623983926393 107.94200609009225
    vertex 12.296841932344437 -443.6873677293576 109.45329991284946
  endloop
endfacet
facet normal -0.01016565618644111 -0.09675191254981684 0.9952566135687075
  outer loop
    vertex 0.8600203549386776 -383.6255053447194 101.36002035560671
    vertex 79.05518079201218 -383.85427211967607 102.13647487287041
    vertex 1.8983196084783174 -373.053939587078 102.39831960912566
  endloop
endfacet
facet normal -0.01016565618644111 -0.09675191254981684 0.9952566135687075
  outer loop
    vertex 79.04798750225089 -383.7253530214353 102.14893401621016
    vertex 1.8983196084783174 -373.053939587078 102.39831960912566
    vertex 79.05518079201218 -383.85427211967607 102.13647487287041
  endloop
endfacet
facet normal -0.04935969619809552 -0.22392459945494372 0.9733557387462074
  outer loop
    vertex 3.71850817247292 -362.5918940962139 104.21850817309958
    vertex 77.12397239625663 -373.28300694742245 105.48142593430286
    vertex 6.01445332937964 -353.117971874024 106.51445332998749
  endloop
endfacet
facet normal -0.04935969619809552 -0.22392459945494372 0.9733557387462074
  outer loop
    vertex 77.07293878986842 -372.8875316765246 105.56981873345947
    vertex 6.01445332937964 -353.117971874024 106.51445332998749
    vertex 77.12397239625663 -373.28300694742245 105.48142593430286
  endloop
endfacet
facet normal -0.01026956831211251 0.16017379605348497 0.9870354051524695
  outer loop
    vertex 2.673101777968435 -405.1924071118693 101.34933574448266
    vertex 2.7172652807378084 -405.36906112294815 101.3784622413652
    vertex 79.54524751904951 -399.8836397526741 101.28765440257486
  endloop
endfacet
facet normal -0.01026956831211251 0.16017379605348497 0.9870354051524695
  outer loop
    vertex 79.05518079201218 -405.1457278803145 102.13647487291239
    vertex 79.54524751904951 -399.8836397526741 101.28765440257486
    vertex 2.7172652807378084 -405.36906112294815 101.3784622413652
  endloop
endfacet
facet normal -0.026173748142778296 -0.16075779504599563 0.986646778862683
  outer loop
    vertex 1.93251062950726 -372.93381847795456 102.43251063015427
    vertex 78.24465178897663 -378.5592151210478 103.5403522871262
    vertex 3.6278361990989136 -362.8048260555539 104.12783619972564
  endloop
endfacet
facet normal -0.026173748142778296 -0.16075779504599563 0.986646778862683
  outer loop
    vertex 78.22238699107876 -378.31890600291575 103.57891604830489
    vertex 3.6278361990989136 -362.8048260555539 104.12783619972564
    vertex 78.24465178897663 -378.5592151210478 103.5403522871262
  endloop
endfacet
facet normal -2.3119009179708054e-15 1.0 -1.9669097370849383e-12
  outer loop
    vertex 32.50000000000019 -344.49999999997476 112.48437500059097
    vertex 32.49999999999983 -344.4999999999994 100.00000000059113
    vertex 11.860816644618545 -344.49999999998 109.90457961665388
  endloop
endfacet
facet normal -2.3119009179708054e-15 1.0 -1.9669097370849383e-12
  outer loop
    vertex 9.969675586985465 -344.4999999999807 109.50261872686815
    vertex 11.860816644618545 -344.49999999998 109.90457961665388
    vertex 32.49999999999983 -344.4999999999994 100.00000000059113
  endloop
endfacet
facet normal -2.3119009179708054e-15 1.0 -1.9669097370849383e-12
  outer loop
    vertex 8.914757486411053 -344.49999999998096 109.41475748700243
    vertex 9.969675586985465 -344.4999999999807 109.50261872686815
    vertex 32.49999999999983 -344.4999999999994 100.00000000059113
  endloop
endfacet
facet normal -2.3119009179708054e-15 1.0 -1.9669097370849383e-12
  outer loop
    vertex 0.0 -344.49999999999847 100.5000000005911
    vertex 8.914757486411053 -344.49999999998096 109.41475748700243
    vertex 32.49999999999983 -344.4999999999994 100.00000000059113
  endloop
endfacet
facet normal -2.3119009179708054e-15 1.0 -1.9669097370849383e-12
  outer loop
    vertex 0.0 -344.4999999999994 100.00000000059113
    vertex 0.0 -344.49999999999847 100.5000000005911
    vertex 32.49999999999983 -344.4999999999994 100.00000000059113
  endloop
endfacet
facet normal 0.38805700005802285 -0.9216353751381116 1.4047984241608226e-12
  outer loop
    vertex 32.50000000000019 -444.4999999999749 112.48437500078803
    vertex 32.50000000000019 -444.49999999998914 100.00000000078798
    vertex 73.82643755031587 -427.0993947156338 111.19292382730632
  endloop
endfacet
facet normal 0.38805700005802285 -0.9216353751381116 1.4047984241608226e-12
  outer loop
    vertex 80.00000000000021 -424.49999999999847 100.50000000074867
    vertex 73.82643755031587 -427.0993947156338 111.19292382730632
    vertex 32.50000000000019 -444.49999999998914 100.00000000078798
  endloop
endfacet
facet normal 0.38805700005802285 -0.9216353751381116 1.4047984241608226e-12
  outer loop
    vertex 80.00000000000021 -424.4999999999993 100.00000000074861
    vertex 80.00000000000021 -424.49999999999847 100.50000000074867
    vertex 32.50000000000019 -444.49999999998914 100.00000000078798
  endloop
endfacet
facet normal 2.1160633312067655e-13 -1.0 1.578796606836505e-12
  outer loop
    vertex 32.50000000000019 -444.4999999999749 112.48437500078803
    vertex 12.500000000000044 -444.49999999997976 109.98447436080978
    vertex 32.50000000000019 -444.49999999998914 100.00000000078798
  endloop
endfacet
facet normal 2.1160633312067655e-13 -1.0 1.578796606836505e-12
  outer loop
    vertex 12.500000000000044 -444.49999999999955 100.00000000078794
    vertex 32.50000000000019 -444.49999999998914 100.00000000078798
    vertex 12.500000000000044 -444.49999999997976 109.98447436080978
  endloop
endfacet
facet normal 0.8660254037844424 9.831544004368814e-13 0.4999999999999938
  outer loop
    vertex 73.82643755031587 -427.0993947156338 111.19292382730632
    vertex 80.00000000000021 -424.49999999999847 100.50000000074867
    vertex 73.99357149404034 -426.2629881105437 110.90343934510449
  endloop
endfacet
facet normal 0.8660254037844424 9.831544004368814e-13 0.4999999999999938
  outer loop
    vertex 75.60542716315744 -421.58039653297163 108.1116234317167
    vertex 73.99357149404034 -426.2629881105437 110.90343934510449
    vertex 80.00000000000021 -424.49999999999847 100.50000000074867
  endloop
endfacet
facet normal 0.8660254037844424 9.831544004368814e-13 0.4999999999999938
  outer loop
    vertex 77.07293878986842 -416.11246832345205 105.56981873354438
    vertex 75.60542716315744 -421.58039653297163 108.1116234317167
    vertex 80.00000000000021 -424.49999999999847 100.50000000074867
  endloop
endfacet
facet normal 0.8660254037844424 9.831544004368814e-13 0.4999999999999938
  outer loop
    vertex 78.22238699107876 -410.68109399706907 103.5789160483687
    vertex 77.07293878986842 -416.11246832345205 105.56981873354438
    vertex 80.00000000000021 -424.49999999999847 100.50000000074867
  endloop
endfacet
facet normal 0.8660254037844424 9.831544004368814e-13 0.4999999999999938
  outer loop
    vertex 79.04798750225089 -405.27464697855527 102.14893401625275
    vertex 78.22238699107876 -410.68109399706907 103.5789160483687
    vertex 80.00000000000021 -424.49999999999847 100.50000000074867
  endloop
endfacet
facet normal 0.8660254037844424 9.831544004368814e-13 0.4999999999999938
  outer loop
    vertex 79.54524751904951 -399.8836397526741 101.28765440257486
    vertex 79.04798750225089 -405.27464697855527 102.14893401625275
    vertex 80.00000000000021 -424.49999999999847 100.50000000074867
  endloop
endfacet
facet normal 0.8660254037844424 9.831544004368814e-13 0.4999999999999938
  outer loop
    vertex 79.7113248654053 -394.4999999999973 101.00000000068958
    vertex 79.54524751904951 -399.8836397526741 101.28765440257486
    vertex 80.00000000000021 -424.49999999999847 100.50000000074867
  endloop
endfacet
facet normal 0.8660254037844424 9.831544004368814e-13 0.4999999999999938
  outer loop
    vertex 80.00000000000021 -364.4999999999986 100.50000000063034
    vertex 79.7113248654053 -394.4999999999973 101.00000000068958
    vertex 80.00000000000021 -424.49999999999847 100.50000000074867
  endloop
endfacet
facet normal 0.8660254037844424 9.831544004368814e-13 0.4999999999999938
  outer loop
    vertex 75.70335578100286 -420.98623983926393 107.94200609009225
    vertex 75.60542716315744 -421.58039653297163 108.1116234317167
    vertex 77.07293878986842 -416.11246832345205 105.56981873354438
  endloop
endfacet
facet normal 0.8660254037844424 9.831544004368814e-13 0.4999999999999938
  outer loop
    vertex 77.12397239625628 -415.71699305255527 105.4814259343865
    vertex 77.07293878986842 -416.11246832345205 105.56981873354438
    vertex 78.22238699107876 -410.68109399706907 103.5789160483687
  endloop
endfacet
facet normal 0.8660254037844424 9.831544004368814e-13 0.4999999999999938
  outer loop
    vertex 78.24465178897663 -410.44078487893773 103.54035228718905
    vertex 78.22238699107876 -410.68109399706907 103.5789160483687
    vertex 79.04798750225089 -405.27464697855527 102.14893401625275
  endloop
endfacet
facet normal 0.8660254037844424 9.831544004368814e-13 0.4999999999999938
  outer loop
    vertex 79.05518079201218 -405.1457278803145 102.13647487291239
    vertex 79.04798750225089 -405.27464697855527 102.14893401625275
    vertex 79.54524751904951 -399.8836397526741 101.28765440257486
  endloop
endfacet
facet normal 0.8660254037844424 9.831544004368814e-13 0.4999999999999938
  outer loop
    vertex 79.54639865423754 -399.82188742186713 101.28566057794283
    vertex 79.54524751904951 -399.8836397526741 101.28765440257486
    vertex 79.7113248654053 -394.4999999999973 101.00000000068958
  endloop
endfacet
facet normal 0.8660254037844424 9.831544004368814e-13 0.4999999999999938
  outer loop
    vertex 79.54639865423754 -389.1781125781265 101.28566057792189
    vertex 79.7113248654053 -394.4999999999973 101.00000000068958
    vertex 80.00000000000021 -364.4999999999986 100.50000000063034
  endloop
endfacet
facet normal 0.8660254037844424 9.831544004368814e-13 0.4999999999999938
  outer loop
    vertex 79.54524751904951 -389.1163602473195 101.28765440255363
    vertex 79.54639865423754 -389.1781125781265 101.28566057792189
    vertex 80.00000000000021 -364.4999999999986 100.50000000063034
  endloop
endfacet
facet normal 0.8660254037844424 9.831544004368814e-13 0.4999999999999938
  outer loop
    vertex 79.05518079201218 -383.85427211967607 102.13647487287041
    vertex 79.54524751904951 -389.1163602473195 101.28765440255363
    vertex 80.00000000000021 -364.4999999999986 100.50000000063034
  endloop
endfacet
facet normal 0.8660254037844424 9.831544004368814e-13 0.4999999999999938
  outer loop
    vertex 79.04798750225089 -383.7253530214353 102.14893401621016
    vertex 79.05518079201218 -383.85427211967607 102.13647487287041
    vertex 80.00000000000021 -364.4999999999986 100.50000000063034
  endloop
endfacet
facet normal 0.8660254037844424 9.831544004368814e-13 0.4999999999999938
  outer loop
    vertex 78.24465178897663 -378.5592151210478 103.5403522871262
    vertex 79.04798750225089 -383.7253530214353 102.14893401621016
    vertex 80.00000000000021 -364.4999999999986 100.50000000063034
  endloop
endfacet
facet normal 0.8660254037844424 9.831544004368814e-13 0.4999999999999938
  outer loop
    vertex 78.22238699107876 -378.31890600291575 103.57891604830489
    vertex 78.24465178897663 -378.5592151210478 103.5403522871262
    vertex 80.00000000000021 -364.4999999999986 100.50000000063034
  endloop
endfacet
facet normal 0.8660254037844424 9.831544004368814e-13 0.4999999999999938
  outer loop
    vertex 77.12397239625663 -373.28300694742245 105.48142593430286
    vertex 78.22238699107876 -378.31890600291575 103.57891604830489
    vertex 80.00000000000021 -364.4999999999986 100.50000000063034
  endloop
endfacet
facet normal 0.8660254037844424 9.831544004368814e-13 0.4999999999999938
  outer loop
    vertex 77.07293878986842 -372.8875316765246 105.56981873345947
    vertex 77.12397239625663 -373.28300694742245 105.48142593430286
    vertex 80.00000000000021 -364.4999999999986 100.50000000063034
  endloop
endfacet
facet normal 0.8660254037844424 9.831544004368814e-13 0.4999999999999938
  outer loop
    vertex 75.70335578100286 -368.01376016070395 107.94200608998773
    vertex 77.07293878986842 -372.8875316765246 105.56981873345947
    vertex 80.00000000000021 -364.4999999999986 100.50000000063034
  endloop
endfacet
facet normal 0.8660254037844424 9.831544004368814e-13 0.4999999999999938
  outer loop
    vertex 75.60542716315744 -367.419603466995 108.11162343161014
    vertex 75.70335578100286 -368.01376016070395 107.94200608998773
    vertex 80.00000000000021 -364.4999999999986 100.50000000063034
  endloop
endfacet
facet normal 0.961887748699708 -0.27344461761279515 4.569525178052228e-13
  outer loop
    vertex 80.00000000000021 -364.4999999999986 100.50000000063034
    vertex 80.00000000000021 -364.49999999999943 100.00000000063037
    vertex 83.33529127608584 -352.7675481242687 117.29385976051101
  endloop
endfacet
facet normal -0.3992101743890291 0.9168594421525477 -1.8062774704639548e-12
  outer loop
    vertex 69.33581485110138 -346.93992902691053 118.42878017941412
    vertex 70.04099351561962 -346.6328868733434 118.00087279541708
    vertex 55.9758155476418 -352.7570122204482 112.63433349787101
  endloop
endfacet
facet normal -0.3992101743890291 0.9168594421525477 -1.8062774704639548e-12
  outer loop
    vertex 55.9758155476418 -352.75701222046894 102.14256971759032
    vertex 55.9758155476418 -352.7570122204482 112.63433349787101
    vertex 70.04099351561962 -346.6328868733434 118.00087279541708
  endloop
endfacet
facet normal 0.8211483553005618 -0.5313982930090609 0.20816155450572135
  outer loop
    vertex 82.93980959793586 -353.21750012806325 117.70529693975044
    vertex 80.00000000000021 -364.4999999999986 100.50000000063034
    vertex 83.33529127608584 -352.7675481242687 117.29385976051101
  endloop
endfacet
facet normal 0.2764336295600084 0.50480597360728 0.8177746495573744
  outer loop
    vertex 69.33581485110138 -346.93992902691053 118.42878017941412
    vertex 82.93980959793586 -353.21750012806325 117.70529693975044
    vertex 70.04099351561962 -346.6328868733434 118.00087279541708
  endloop
endfacet
facet normal 0.2764336295600084 0.50480597360728 0.8177746495573744
  outer loop
    vertex 83.33529127608584 -352.7675481242687 117.29385976051101
    vertex 70.04099351561962 -346.6328868733434 118.00087279541708
    vertex 82.93980959793586 -353.21750012806325 117.70529693975044
  endloop
endfacet
facet normal -0.17087601422692164 -0.4700976951584421 0.8659154374236792
  outer loop
    vertex 55.39373004755468 -354.13946528315694 111.76894593662396
    vertex 75.66894427594829 -362.6763975898502 111.1353454920036
    vertex 55.9758155476418 -352.7570122204482 112.63433349787101
  endloop
endfacet
facet normal -0.17087601422692164 -0.4700976951584421 0.8659154374236792
  outer loop
    vertex 69.33581485110138 -346.93992902691053 118.42878017941412
    vertex 55.9758155476418 -352.7570122204482 112.63433349787101
    vertex 75.66894427594829 -362.6763975898502 111.1353454920036
  endloop
endfacet
facet normal -0.17087601422692164 -0.4700976951584421 0.8659154374236792
  outer loop
    vertex 82.93980959793586 -353.21750012806325 117.70529693975044
    vertex 69.33581485110138 -346.93992902691053 118.42878017941412
    vertex 75.66894427594829 -362.6763975898502 111.1353454920036
  endloop
endfacet
facet normal -0.9216353751380743 0.3880570000581119 -7.648931503704249e-13
  outer loop
    vertex 55.39373004755468 -354.13946528318013 100.0000000006101
    vertex 55.39373004755468 -354.13946528315694 111.76894593662396
    vertex 55.9758155476418 -352.75701222046894 102.14256971759032
  endloop
endfacet
facet normal -0.9216353751380743 0.3880570000581119 -7.648931503704249e-13
  outer loop
    vertex 55.9758155476418 -352.7570122204482 112.63433349787101
    vertex 55.9758155476418 -352.75701222046894 102.14256971759032
    vertex 55.39373004755468 -354.13946528315694 111.76894593662396
  endloop
endfacet
facet normal 0.31789465640851394 0.7549998089691335 -0.5735139718293575
  outer loop
    vertex 70.04099351561962 -346.6328868733434 118.00087279541708
    vertex 83.33529127608584 -352.7675481242687 117.29385976051101
    vertex 55.9758155476418 -352.75701222046894 102.14256971759032
  endloop
endfacet
facet normal 0.31789465640851394 0.7549998089691335 -0.5735139718293575
  outer loop
    vertex 80.00000000000021 -364.49999999999943 100.00000000063037
    vertex 55.9758155476418 -352.75701222046894 102.14256971759032
    vertex 83.33529127608584 -352.7675481242687 117.29385976051101
  endloop
endfacet
facet normal 0.31789465640851394 0.7549998089691335 -0.5735139718293575
  outer loop
    vertex 55.39373004755468 -354.13946528318013 100.0000000006101
    vertex 55.9758155476418 -352.75701222046894 102.14256971759032
    vertex 80.00000000000021 -364.49999999999943 100.00000000063037
  endloop
endfacet
facet normal 0.597682843495831 -0.7134545903657982 0.3657290883655677
  outer loop
    vertex 82.93980959793586 -353.21750012806325 117.70529693975044
    vertex 75.66894427594829 -362.6763975898502 111.1353454920036
    vertex 80.00000000000021 -364.4999999999986 100.50000000063034
  endloop
endfacet
facet normal -0.1163903009773993 -0.3455364527129135 0.931159415827906
  outer loop
    vertex 11.860816644618545 -344.49999999998 109.90457961665388
    vertex 75.55257750928709 -363.1946064593719 110.92850226595596
    vertex 32.50000000000019 -344.49999999997476 112.48437500059097
  endloop
endfacet
facet normal -0.1163903009773993 -0.3455364527129135 0.931159415827906
  outer loop
    vertex 55.39373004755468 -354.13946528315694 111.76894593662396
    vertex 32.50000000000019 -344.49999999997476 112.48437500059097
    vertex 75.55257750928709 -363.1946064593719 110.92850226595596
  endloop
endfacet
facet normal -0.1163903009773993 -0.3455364527129135 0.931159415827906
  outer loop
    vertex 75.66894427594829 -362.6763975898502 111.1353454920036
    vertex 55.39373004755468 -354.13946528315694 111.76894593662396
    vertex 75.55257750928709 -363.1946064593719 110.92850226595596
  endloop
endfacet
facet normal 0.8446649620457498 -0.35099433109922845 0.40415848553316003
  outer loop
    vertex 75.55257750928709 -363.1946064593719 110.92850226595596
    vertex 80.00000000000021 -364.4999999999986 100.50000000063034
    vertex 75.66894427594829 -362.6763975898502 111.1353454920036
  endloop
endfacet
facet normal 0.8760898075249816 -0.2598272798313253 0.40614829041409867
  outer loop
    vertex 75.60542716315744 -367.419603466995 108.11162343161014
    vertex 80.00000000000021 -364.4999999999986 100.50000000063034
    vertex 75.55257750928709 -363.1946064593719 110.92850226595596
  endloop
endfacet
facet normal -0.17393814534187665 -0.5477787212848901 0.8183422230964984
  outer loop
    vertex 9.969675586985465 -344.4999999999807 109.50261872686815
    vertex 75.60542716315744 -367.419603466995 108.11162343161014
    vertex 11.860816644618545 -344.49999999998 109.90457961665388
  endloop
endfacet
facet normal -0.17393814534187665 -0.5477787212848901 0.8183422230964984
  outer loop
    vertex 75.55257750928709 -363.1946064593719 110.92850226595596
    vertex 11.860816644618545 -344.49999999998 109.90457961665388
    vertex 75.60542716315744 -367.419603466995 108.11162343161014
  endloop
endfacet
facet normal -9.698450186477276e-16 -1.9685080159755368e-12 -1.0
  outer loop
    vertex 0.0 -394.4999999999994 100.00000000068971
    vertex 0.0 -344.4999999999994 100.00000000059113
    vertex 12.500000000000044 -444.49999999999955 100.00000000078794
  endloop
endfacet
facet normal -9.698450186477276e-16 -1.9685080159755368e-12 -1.0
  outer loop
    vertex 32.49999999999983 -344.4999999999994 100.00000000059113
    vertex 12.500000000000044 -444.49999999999955 100.00000000078794
    vertex 0.0 -344.4999999999994 100.00000000059113
  endloop
endfacet
facet normal -9.698450186477276e-16 -1.9685080159755368e-12 -1.0
  outer loop
    vertex 32.50000000000019 -444.49999999998914 100.00000000078798
    vertex 12.500000000000044 -444.49999999999955 100.00000000078794
    vertex 32.49999999999983 -344.4999999999994 100.00000000059113
  endloop
endfacet
facet normal -9.698450186477276e-16 -1.9685080159755368e-12 -1.0
  outer loop
    vertex 55.39373004755468 -354.13946528318013 100.0000000006101
    vertex 32.50000000000019 -444.49999999998914 100.00000000078798
    vertex 32.49999999999983 -344.4999999999994 100.00000000059113
  endloop
endfacet
facet normal -9.698450186477276e-16 -1.9685080159755368e-12 -1.0
  outer loop
    vertex 80.00000000000021 -424.4999999999993 100.00000000074861
    vertex 32.50000000000019 -444.49999999998914 100.00000000078798
    vertex 55.39373004755468 -354.13946528318013 100.0000000006101
  endloop
endfacet
facet normal -9.698450186477276e-16 -1.9685080159755368e-12 -1.0
  outer loop
    vertex 80.00000000000021 -364.49999999999943 100.00000000063037
    vertex 80.00000000000021 -424.4999999999993 100.00000000074861
    vertex 55.39373004755468 -354.13946528318013 100.0000000006101
  endloop
endfacet
endsolid ProtoGlove baseplate
