solid ProtoGlove baseplate
facet normal 0.3511234415884053 0.9363291775690396 1.8623504185526218e-12
  outer loop
    vertex 257.2569763461024 380.2685170139732 108.66843019256623
    vertex 221.97302171619046 393.5000000002081 100.00000000080341
    vertex 221.97302171618824 393.50000000018855 109.92857142937491
  endloop
endfacet
facet normal 0.3511234415884053 0.9363291775690396 1.8623504185526218e-12
  outer loop
    vertex 221.97302171619046 393.5000000002081 100.00000000080341
    vertex 257.2569763461024 380.2685170139732 108.66843019256623
    vertex 261.97302171618816 378.50000000020685 100.50000000077394
  endloop
endfacet
facet normal 0.3511234415884053 0.9363291775690396 1.8623504185526218e-12
  outer loop
    vertex 221.97302171619046 393.5000000002081 100.00000000080341
    vertex 261.97302171618816 378.50000000020685 100.50000000077394
    vertex 261.97302171618816 378.5000000002078 100.00000000077395
  endloop
endfacet
facet normal -0.97014250014533 0.2425356250363408 4.310225729663077e-13
  outer loop
    vertex 201.97302171618847 393.5000000002081 100.0000000008035
    vertex 201.95368930548693 393.4226703573882 107.72600239413812
    vertex 201.9730217161881 393.5000000001927 107.77485653467096
  endloop
endfacet
facet normal -0.97014250014533 0.2425356250363408 4.310225729663077e-13
  outer loop
    vertex 201.95368930548693 393.4226703573882 107.72600239413812
    vertex 201.97302171618847 393.5000000002081 100.0000000008035
    vertex 200.12616290305522 386.11256474766606 105.34835547060096
  endloop
endfacet
facet normal -0.97014250014533 0.2425356250363408 4.310225729663077e-13
  outer loop
    vertex 200.12616290305522 386.11256474766606 105.34835547060096
    vertex 201.97302171618847 393.5000000002081 100.0000000008035
    vertex 198.20925555599317 378.44493535942115 103.46919000562067
  endloop
endfacet
facet normal -0.97014250014533 0.2425356250363408 4.310225729663077e-13
  outer loop
    vertex 198.20925555599317 378.44493535942115 103.46919000562067
    vertex 201.97302171618847 393.5000000002081 100.0000000008035
    vertex 196.20788295194717 370.4394449432406 102.10716013096003
  endloop
endfacet
facet normal -0.97014250014533 0.2425356250363408 4.310225729663077e-13
  outer loop
    vertex 196.20788295194717 370.4394449432406 102.10716013096003
    vertex 201.97302171618847 393.5000000002081 100.0000000008035
    vertex 191.9730217161882 353.5000000002081 100.00000000072494
  endloop
endfacet
facet normal -0.97014250014533 0.2425356250363408 4.310225729663077e-13
  outer loop
    vertex 201.95368930548693 393.4226703573882 107.72600239413812
    vertex 200.12616290305522 386.11256474766606 105.34835547060096
    vertex 200.2371844405102 386.5566508974855 105.56709379175092
  endloop
endfacet
facet normal -0.97014250014533 0.2425356250363408 4.310225729663077e-13
  outer loop
    vertex 200.12616290305522 386.11256474766606 105.34835547060096
    vertex 198.20925555599317 378.44493535942115 103.46919000562067
    vertex 198.29901210653037 378.80396156156996 103.60134789425867
  endloop
endfacet
facet normal -0.97014250014533 0.2425356250363408 4.310225729663077e-13
  outer loop
    vertex 198.20925555599317 378.44493535942115 103.46919000562067
    vertex 196.20788295194717 370.4394449432406 102.10716013096003
    vertex 196.27162794876537 370.6944249305128 102.17205444631601
  endloop
endfacet
facet normal -0.97014250014533 0.2425356250363408 4.310225729663077e-13
  outer loop
    vertex 196.20788295194717 370.4394449432406 102.10716013096003
    vertex 191.9730217161882 353.5000000002081 100.00000000072494
    vertex 194.12729468360416 362.1170918698696 101.27908375529596
  endloop
endfacet
facet normal -0.97014250014533 0.2425356250363408 4.310225729663077e-13
  outer loop
    vertex 196.20788295194717 370.4394449432406 102.10716013096003
    vertex 194.12729468360416 362.1170918698696 101.27908375529596
    vertex 194.16087159325824 362.2513995084856 101.29906972399155
  endloop
endfacet
facet normal -0.97014250014533 0.2425356250363408 4.310225729663077e-13
  outer loop
    vertex 194.12729468360416 362.1170918698696 101.27908375529596
    vertex 191.9730217161882 353.5000000002081 100.00000000072494
    vertex 192.54743654127344 355.7976593005475 101.0744148258148
  endloop
endfacet
facet normal -0.97014250014533 0.2425356250363408 4.310225729663077e-13
  outer loop
    vertex 192.54743654127344 355.7976593005475 101.0744148258148
    vertex 191.9730217161882 353.5000000002081 100.00000000072494
    vertex 191.9730217161882 353.50000000020714 100.50000000072473
  endloop
endfacet
facet normal -0.13643106009008538 -0.5045090585284451 0.852559191907188
  outer loop
    vertex 258.6033372270065 375.7551290769341 106.3364647415079
    vertex 201.9730217161881 393.5000000001927 107.77485653467096
    vertex 201.95368930548693 393.4226703573882 107.72600239413812
  endloop
endfacet
facet normal -0.13643106009008538 -0.5045090585284451 0.852559191907188
  outer loop
    vertex 201.9730217161881 393.5000000001927 107.77485653467096
    vertex 258.6033372270065 375.7551290769341 106.3364647415079
    vertex 203.7541180914464 393.50000000019213 108.05987705747492
  endloop
endfacet
facet normal -0.13643106009008538 -0.5045090585284451 0.852559191907188
  outer loop
    vertex 203.7541180914464 393.50000000019213 108.05987705747492
    vertex 258.6033372270065 375.7551290769341 106.3364647415079
    vertex 257.37429140791755 379.6848549240953 108.465234545008
  endloop
endfacet
facet normal -0.06524702696399123 0.28443546958839433 0.9564723148697981
  outer loop
    vertex 199.02203359635658 313.5000000001933 107.54901188081436
    vertex 258.6722553617673 331.66208515958374 106.21709503045223
    vertex 197.00415295179275 319.8226511836115 105.53113123626281
  endloop
endfacet
facet normal -0.06524702696399123 0.28443546958839433 0.9564723148697981
  outer loop
    vertex 258.6722553617673 331.66208515958374 106.21709503045223
    vertex 199.02203359635658 313.5000000001933 107.54901188081436
    vertex 201.70573759736473 313.500000000193 107.73208430705702
  endloop
endfacet
facet normal -0.06524702696399123 0.28443546958839433 0.9564723148697981
  outer loop
    vertex 258.6722553617673 331.66208515958374 106.21709503045223
    vertex 201.70573759736473 313.500000000193 107.73208430705702
    vertex 258.6033372270065 331.2448709234563 106.33646474142031
  endloop
endfacet
facet normal -0.0010370313630274249 -0.0321112547804173 0.9994837626907099
  outer loop
    vertex 261.56142512312425 357.87949078664536 101.21290621214234
    vertex 192.54743654127344 355.7976593005475 101.0744148258148
    vertex 192.4745561643725 353.5315636715563 101.00153444890928
  endloop
endfacet
facet normal -0.0010370313630274249 -0.0321112547804173 0.9994837626907099
  outer loop
    vertex 192.54743654127344 355.7976593005475 101.0744148258148
    vertex 261.56142512312425 357.87949078664536 101.21290621214234
    vertex 194.12729468360416 362.1170918698696 101.27908375529596
  endloop
endfacet
facet normal -0.0010370313630274249 -0.0321112547804173 0.9994837626907099
  outer loop
    vertex 194.12729468360416 362.1170918698696 101.27908375529596
    vertex 261.56142512312425 357.87949078664536 101.21290621214234
    vertex 261.56047016667037 357.93100448659135 101.2145602452397
  endloop
endfacet
facet normal -0.7071067811865457 -1.394584325725895e-12 0.7071067811865495
  outer loop
    vertex 191.9730217161882 313.50000000020725 100.50000000064581
    vertex 192.75342006422215 344.79762133855553 101.28039834874168
    vertex 191.9730217161882 353.50000000020714 100.50000000072473
  endloop
endfacet
facet normal -0.7071067811865457 -1.394584325725895e-12 0.7071067811865495
  outer loop
    vertex 192.75342006422215 344.79762133855553 101.28039834874168
    vertex 191.9730217161882 313.50000000020725 100.50000000064581
    vertex 193.590232820703 336.2353563782418 102.11721110520533
  endloop
endfacet
facet normal -0.7071067811865457 -1.394584325725895e-12 0.7071067811865495
  outer loop
    vertex 193.590232820703 336.2353563782418 102.11721110520533
    vertex 191.9730217161882 313.50000000020725 100.50000000064581
    vertex 194.97034229980696 327.95087475083386 103.49732058429306
  endloop
endfacet
facet normal -0.7071067811865457 -1.394584325725895e-12 0.7071067811865495
  outer loop
    vertex 194.97034229980696 327.95087475083386 103.49732058429306
    vertex 191.9730217161882 313.50000000020725 100.50000000064581
    vertex 196.8719918163249 320.0769229621227 105.39897010079567
  endloop
endfacet
facet normal -0.7071067811865457 -1.394584325725895e-12 0.7071067811865495
  outer loop
    vertex 196.8719918163249 320.0769229621227 105.39897010079567
    vertex 191.9730217161882 313.50000000020725 100.50000000064581
    vertex 199.02203359635658 313.5000000001933 107.54901188081436
  endloop
endfacet
facet normal -0.7071067811865457 -1.394584325725895e-12 0.7071067811865495
  outer loop
    vertex 191.9730217161882 353.50000000020714 100.50000000072473
    vertex 192.75342006422215 344.79762133855553 101.28039834874168
    vertex 192.4730217161881 353.5000000002062 101.0000000007248
  endloop
endfacet
facet normal -0.7071067811865457 -1.394584325725895e-12 0.7071067811865495
  outer loop
    vertex 192.4730217161881 353.5000000002062 101.0000000007248
    vertex 192.75342006422215 344.79762133855553 101.28039834874168
    vertex 192.4745561643725 353.46843632885617 101.00153444890901
  endloop
endfacet
facet normal -0.7071067811865457 -1.394584325725895e-12 0.7071067811865495
  outer loop
    vertex 192.75342006422215 344.79762133855553 101.28039834874168
    vertex 193.590232820703 336.2353563782418 102.11721110520533
    vertex 192.76061943196035 344.74896889416266 101.28759771647978
  endloop
endfacet
facet normal -0.7071067811865457 -1.394584325725895e-12 0.7071067811865495
  outer loop
    vertex 193.590232820703 336.2353563782418 102.11721110520533
    vertex 194.97034229980696 327.95087475083386 103.49732058429306
    vertex 193.61501971952666 336.1380124825369 102.14199800402909
  endloop
endfacet
facet normal -0.7071067811865457 -1.394584325725895e-12 0.7071067811865495
  outer loop
    vertex 194.97034229980696 327.95087475083386 103.49732058429306
    vertex 196.8719918163249 320.0769229621227 105.39897010079567
    vertex 195.0341157351405 327.78093939125745 103.56109401962637
  endloop
endfacet
facet normal -0.7071067811865457 -1.394584325725895e-12 0.7071067811865495
  outer loop
    vertex 196.8719918163249 320.0769229621227 105.39897010079567
    vertex 199.02203359635658 313.5000000001933 107.54901188081436
    vertex 197.00415295179275 319.8226511836115 105.53113123626281
  endloop
endfacet
facet normal -0.7071067811865457 -1.394584325725895e-12 0.7071067811865495
  outer loop
    vertex 192.4730217161881 353.5000000002062 101.0000000007248
    vertex 192.54743654127344 355.7976593005475 101.0744148258148
    vertex 191.9730217161882 353.50000000020714 100.50000000072473
  endloop
endfacet
facet normal -0.7071067811865457 -1.394584325725895e-12 0.7071067811865495
  outer loop
    vertex 192.54743654127344 355.7976593005475 101.0744148258148
    vertex 192.4730217161881 353.5000000002062 101.0000000007248
    vertex 192.4745561643725 353.5315636715563 101.00153444890928
  endloop
endfacet
facet normal -1.0 -0.0 0.0
  outer loop
    vertex 191.9730217161882 313.5000000002081 100.00000000064601
    vertex 191.9730217161882 353.50000000020714 100.50000000072473
    vertex 191.9730217161882 353.5000000002081 100.00000000072494
  endloop
endfacet
facet normal -1.0 -0.0 0.0
  outer loop
    vertex 191.9730217161882 353.50000000020714 100.50000000072473
    vertex 191.9730217161882 313.5000000002081 100.00000000064601
    vertex 191.9730217161882 313.50000000020725 100.50000000064581
  endloop
endfacet
facet normal -0.008067507100591498 0.14520841903170573 0.989368197574338
  outer loop
    vertex 192.76061943196035 344.74896889416266 101.28759771647978
    vertex 261.56047016667037 349.06899551381923 101.21456024522227
    vertex 192.75342006422215 344.79762133855553 101.28039834874168
  endloop
endfacet
facet normal -0.008067507100591498 0.14520841903170573 0.989368197574338
  outer loop
    vertex 261.56047016667037 349.06899551381923 101.21456024522227
    vertex 192.76061943196035 344.74896889416266 101.28759771647978
    vertex 261.1946007333428 344.73096411439246 101.84826469267324
  endloop
endfacet
facet normal -0.02614208416793719 -0.24041753892860238 0.9703174730009095
  outer loop
    vertex 261.18918104973676 362.36661960877626 101.85765186007488
    vertex 196.27162794876537 370.6944249305128 102.17205444631601
    vertex 196.20788295194717 370.4394449432406 102.10716013096003
  endloop
endfacet
facet normal -0.02614208416793719 -0.24041753892860238 0.9703174730009095
  outer loop
    vertex 196.27162794876537 370.6944249305128 102.17205444631601
    vertex 261.18918104973676 362.36661960877626 101.85765186007488
    vertex 260.5875459072971 366.6377704705753 102.8997144944075
  endloop
endfacet
facet normal 1.0 0.0 0.0
  outer loop
    vertex 261.97302171618816 378.50000000020685 100.50000000077394
    vertex 261.97302171618816 328.5000000002078 100.00000000067566
    vertex 261.97302171618816 378.5000000002078 100.00000000077395
  endloop
endfacet
facet normal 1.0 0.0 0.0
  outer loop
    vertex 261.97302171618816 328.5000000002078 100.00000000067566
    vertex 261.97302171618816 378.50000000020685 100.50000000077394
    vertex 261.97302171618816 328.5000000002069 100.50000000067563
  endloop
endfacet
facet normal -0.008129237321199504 -0.09619819330448408 0.9953290024436788
  outer loop
    vertex 261.1946007333428 362.2690358860158 101.84826469270766
    vertex 196.20788295194717 370.4394449432406 102.10716013096003
    vertex 194.16087159325824 362.2513995084856 101.29906972399155
  endloop
endfacet
facet normal -0.008129237321199504 -0.09619819330448408 0.9953290024436788
  outer loop
    vertex 196.20788295194717 370.4394449432406 102.10716013096003
    vertex 261.1946007333428 362.2690358860158 101.84826469270766
    vertex 261.18918104973676 362.36661960877626 101.85765186007488
  endloop
endfacet
facet normal -4.10628591122942e-16 -0.04855703096601517 0.9988204116575539
  outer loop
    vertex 261.6843465815933 353.5000000002058 101.0000000007248
    vertex 192.4745561643725 353.5315636715563 101.00153444890928
    vertex 192.4730217161881 353.5000000002062 101.0000000007248
  endloop
endfacet
facet normal -4.10628591122942e-16 -0.04855703096601517 0.9988204116575539
  outer loop
    vertex 192.4745561643725 353.5315636715563 101.00153444890928
    vertex 261.6843465815933 353.5000000002058 101.0000000007248
    vertex 261.56142512312425 357.87949078664536 101.21290621214234
  endloop
endfacet
facet normal -0.09579191040989772 -0.344390495229946 0.9339267084173656
  outer loop
    vertex 257.37429140791755 379.6848549240953 108.465234545008
    vertex 221.97302171618824 393.50000000018855 109.92857142937491
    vertex 203.7541180914464 393.50000000019213 108.05987705747492
  endloop
endfacet
facet normal -0.09579191040989772 -0.344390495229946 0.9339267084173656
  outer loop
    vertex 221.97302171618824 393.50000000018855 109.92857142937491
    vertex 257.37429140791755 379.6848549240953 108.465234545008
    vertex 257.2569763461024 380.2685170139732 108.66843019256623
  endloop
endfacet
facet normal -0.008129237321198511 0.09619819330056782 0.9953290024440573
  outer loop
    vertex 193.590232820703 336.2353563782418 102.11721110520533
    vertex 261.1946007333428 344.73096411439246 101.84826469267324
    vertex 192.76061943196035 344.74896889416266 101.28759771647978
  endloop
endfacet
facet normal -0.008129237321198511 0.09619819330056782 0.9953290024440573
  outer loop
    vertex 261.1946007333428 344.73096411439246 101.84826469267324
    vertex 193.590232820703 336.2353563782418 102.11721110520533
    vertex 261.18918104973676 344.6333803916318 101.85765186004004
  endloop
endfacet
facet normal -0.04032932902627895 -0.22274714361949252 0.974041711237074
  outer loop
    vertex 259.74506485528855 370.99170810178265 104.35893448090927
    vertex 200.12616290305522 386.11256474766606 105.34835547060096
    vertex 198.29901210653037 378.80396156156996 103.60134789425867
  endloop
endfacet
facet normal -0.04032932902627895 -0.22274714361949252 0.974041711237074
  outer loop
    vertex 200.12616290305522 386.11256474766606 105.34835547060096
    vertex 259.74506485528855 370.99170810178265 104.35893448090927
    vertex 259.70887354907615 371.2723741125765 104.42161966206223
  endloop
endfacet
facet normal -0.008067507100593063 -0.1452084190355998 0.9893681975737667
  outer loop
    vertex 261.56047016667037 357.93100448659135 101.2145602452397
    vertex 194.16087159325824 362.2513995084856 101.29906972399155
    vertex 194.12729468360416 362.1170918698696 101.27908375529596
  endloop
endfacet
facet normal -0.008067507100593063 -0.1452084190355998 0.9893681975737667
  outer loop
    vertex 194.16087159325824 362.2513995084856 101.29906972399155
    vertex 261.56047016667037 357.93100448659135 101.2145602452397
    vertex 261.1946007333428 362.2690358860158 101.84826469270766
  endloop
endfacet
facet normal -0.02124865728389464 0.15985858540459918 0.9869112053452794
  outer loop
    vertex 194.97034229980696 327.95087475083386 103.49732058429306
    vertex 260.5875459072971 340.3622295298289 102.8997144943559
    vertex 193.61501971952666 336.1380124825369 102.14199800402909
  endloop
endfacet
facet normal -0.02124865728389464 0.15985858540459918 0.9869112053452794
  outer loop
    vertex 260.5875459072971 340.3622295298289 102.8997144943559
    vertex 194.97034229980696 327.95087475083386 103.49732058429306
    vertex 260.57146796442555 340.188169724133 102.92756230829036
  endloop
endfacet
facet normal 2.6394048031557184e-16 0.04855703096207885 0.9988204116577453
  outer loop
    vertex 192.4745561643725 353.46843632885617 101.00153444890901
    vertex 261.6843465815933 353.5000000002058 101.0000000007248
    vertex 192.4730217161881 353.5000000002062 101.0000000007248
  endloop
endfacet
facet normal 2.6394048031557184e-16 0.04855703096207885 0.9988204116577453
  outer loop
    vertex 261.6843465815933 353.5000000002058 101.0000000007248
    vertex 192.4745561643725 353.46843632885617 101.00153444890901
    vertex 261.56142512312425 349.1205092137658 101.21290621212499
  endloop
endfacet
facet normal -0.09098365350633912 0.42163501581700813 0.9021894968528673
  outer loop
    vertex 197.00415295179275 319.8226511836115 105.53113123626281
    vertex 259.7088735490758 335.72762588782183 104.42161966199207
    vertex 196.8719918163249 320.0769229621227 105.39897010079567
  endloop
endfacet
facet normal -0.09098365350633912 0.42163501581700813 0.9021894968528673
  outer loop
    vertex 259.7088735490758 335.72762588782183 104.42161966199207
    vertex 197.00415295179275 319.8226511836115 105.53113123626281
    vertex 258.6722553617673 331.66208515958374 106.21709503045223
  endloop
endfacet
facet normal -0.05394819685128698 -0.33303244338177224 0.9413708003287874
  outer loop
    vertex 260.57146796442555 366.8118302762709 102.92756230834284
    vertex 198.29901210653037 378.80396156156996 103.60134789425867
    vertex 198.20925555599317 378.44493535942115 103.46919000562067
  endloop
endfacet
facet normal -0.05394819685128698 -0.33303244338177224 0.9413708003287874
  outer loop
    vertex 198.29901210653037 378.80396156156996 103.60134789425867
    vertex 260.57146796442555 366.8118302762709 102.92756230834284
    vertex 259.74506485528855 370.99170810178265 104.35893448090927
  endloop
endfacet
facet normal -0.02124865728389679 -0.1598585854084892 0.9869112053446492
  outer loop
    vertex 260.5875459072971 366.6377704705753 102.8997144944075
    vertex 198.20925555599317 378.44493535942115 103.46919000562067
    vertex 196.27162794876537 370.6944249305128 102.17205444631601
  endloop
endfacet
facet normal -0.02124865728389679 -0.1598585854084892 0.9869112053446492
  outer loop
    vertex 198.20925555599317 378.44493535942115 103.46919000562067
    vertex 260.5875459072971 366.6377704705753 102.8997144944075
    vertex 260.57146796442555 366.8118302762709 102.92756230834284
  endloop
endfacet
facet normal -0.06524702696399132 -0.2844354695921468 0.9564723148686821
  outer loop
    vertex 258.6722553617677 375.3379148408074 106.21709503053846
    vertex 201.95368930548693 393.4226703573882 107.72600239413812
    vertex 200.2371844405102 386.5566508974855 105.56709379175092
  endloop
endfacet
facet normal -0.06524702696399132 -0.2844354695921468 0.9564723148686821
  outer loop
    vertex 201.95368930548693 393.4226703573882 107.72600239413812
    vertex 258.6722553617677 375.3379148408074 106.21709503053846
    vertex 258.6033372270065 375.7551290769341 106.3364647415079
  endloop
endfacet
facet normal 0.3511234415883776 -0.9363291775690499 -1.844718788293635e-12
  outer loop
    vertex 221.97302171618824 313.5000000002081 100.00000000064593
    vertex 238.5303927947216 319.7090141546394 109.33723674785354
    vertex 221.97302171618824 313.5000000001885 109.92857142921731
  endloop
endfacet
facet normal 0.3511234415883776 -0.9363291775690499 -1.844718788293635e-12
  outer loop
    vertex 238.5303927947216 319.7090141546394 109.33723674785354
    vertex 221.97302171618824 313.5000000002081 100.00000000064593
    vertex 238.5303927947216 319.7090141546578 100.0000000006583
  endloop
endfacet
facet normal -0.026142084167934038 0.2404175389247837 0.9703174730018557
  outer loop
    vertex 193.61501971952666 336.1380124825369 102.14199800402909
    vertex 261.18918104973676 344.6333803916318 101.85765186004004
    vertex 193.590232820703 336.2353563782418 102.11721110520533
  endloop
endfacet
facet normal -0.026142084167934038 0.2404175389247837 0.9703174730018557
  outer loop
    vertex 261.18918104973676 344.6333803916318 101.85765186004004
    vertex 193.61501971952666 336.1380124825369 102.14199800402909
    vertex 260.5875459072971 340.3622295298289 102.8997144943559
  endloop
endfacet
facet normal -0.0909836535063461 -0.4216350158205708 0.9021894968512015
  outer loop
    vertex 259.70887354907615 371.2723741125765 104.42161966206223
    vertex 200.2371844405102 386.5566508974855 105.56709379175092
    vertex 200.12616290305522 386.11256474766606 105.34835547060096
  endloop
endfacet
facet normal -0.0909836535063461 -0.4216350158205708 0.9021894968512015
  outer loop
    vertex 200.2371844405102 386.5566508974855 105.56709379175092
    vertex 259.70887354907615 371.2723741125765 104.42161966206223
    vertex 258.6722553617677 375.3379148408074 106.21709503053846
  endloop
endfacet
facet normal -0.001037031363026989 0.032111254776476736 0.9994837626908365
  outer loop
    vertex 192.75342006422215 344.79762133855553 101.28039834874168
    vertex 261.56142512312425 349.1205092137658 101.21290621212499
    vertex 192.4745561643725 353.46843632885617 101.00153444890901
  endloop
endfacet
facet normal -0.001037031363026989 0.032111254776476736 0.9994837626908365
  outer loop
    vertex 261.56142512312425 349.1205092137658 101.21290621212499
    vertex 192.75342006422215 344.79762133855553 101.28039834874168
    vertex 261.56047016667037 349.06899551381923 101.21456024522227
  endloop
endfacet
facet normal -0.05394819685128369 0.3330324433780673 0.9413708003300982
  outer loop
    vertex 195.0341157351405 327.78093939125745 103.56109401962637
    vertex 260.57146796442555 340.188169724133 102.92756230829036
    vertex 194.97034229980696 327.95087475083386 103.49732058429306
  endloop
endfacet
facet normal -0.05394819685128369 0.3330324433780673 0.9413708003300982
  outer loop
    vertex 260.57146796442555 340.188169724133 102.92756230829036
    vertex 195.0341157351405 327.78093939125745 103.56109401962637
    vertex 259.74506485528855 336.00829189861605 104.35893448084042
  endloop
endfacet
facet normal -0.04032932902627627 0.22274714361565376 0.9740417112379519
  outer loop
    vertex 196.8719918163249 320.0769229621227 105.39897010079567
    vertex 259.74506485528855 336.00829189861605 104.35893448084042
    vertex 195.0341157351405 327.78093939125745 103.56109401962637
  endloop
endfacet
facet normal -0.04032932902627627 0.22274714361565376 0.9740417112379519
  outer loop
    vertex 259.74506485528855 336.00829189861605 104.35893448084042
    vertex 196.8719918163249 320.0769229621227 105.39897010079567
    vertex 259.7088735490758 335.72762588782183 104.42161966199207
  endloop
endfacet
facet normal -3.4378317360220985e-15 -1.0 -1.9655260996726006e-12
  outer loop
    vertex 203.7541180914457 313.5000000001922 108.05987705731737
    vertex 221.97302171618824 313.5000000002081 100.00000000064593
    vertex 221.97302171618824 313.5000000001885 109.92857142921731
  endloop
endfacet
facet normal -3.4378317360220985e-15 -1.0 -1.9655260996726006e-12
  outer loop
    vertex 221.97302171618824 313.5000000002081 100.00000000064593
    vertex 203.7541180914457 313.5000000001922 108.05987705731737
    vertex 201.70573759736473 313.500000000193 107.73208430705702
  endloop
endfacet
facet normal -3.4378317360220985e-15 -1.0 -1.9655260996726006e-12
  outer loop
    vertex 221.97302171618824 313.5000000002081 100.00000000064593
    vertex 201.70573759736473 313.500000000193 107.73208430705702
    vertex 199.02203359635658 313.5000000001933 107.54901188081436
  endloop
endfacet
facet normal -3.4378317360220985e-15 -1.0 -1.9655260996726006e-12
  outer loop
    vertex 221.97302171618824 313.5000000002081 100.00000000064593
    vertex 199.02203359635658 313.5000000001933 107.54901188081436
    vertex 191.9730217161882 313.50000000020725 100.50000000064581
  endloop
endfacet
facet normal -3.4378317360220985e-15 -1.0 -1.9655260996726006e-12
  outer loop
    vertex 221.97302171618824 313.5000000002081 100.00000000064593
    vertex 191.9730217161882 313.50000000020725 100.50000000064581
    vertex 191.9730217161882 313.5000000002081 100.00000000064601
  endloop
endfacet
facet normal 0.8660254037844407 -9.878446664050185e-13 0.4999999999999962
  outer loop
    vertex 257.37429140791755 379.6848549240953 108.465234545008
    vertex 261.97302171618816 378.50000000020685 100.50000000077394
    vertex 257.2569763461024 380.2685170139732 108.66843019256623
  endloop
endfacet
facet normal 0.8660254037844407 -9.878446664050185e-13 0.4999999999999962
  outer loop
    vertex 261.97302171618816 378.50000000020685 100.50000000077394
    vertex 257.37429140791755 379.6848549240953 108.465234545008
    vertex 258.6033372270065 375.7551290769341 106.3364647415079
  endloop
endfacet
facet normal 0.8660254037844407 -9.878446664050185e-13 0.4999999999999962
  outer loop
    vertex 261.97302171618816 378.50000000020685 100.50000000077394
    vertex 258.6033372270065 375.7551290769341 106.3364647415079
    vertex 259.70887354907615 371.2723741125765 104.42161966206223
  endloop
endfacet
facet normal 0.8660254037844407 -9.878446664050185e-13 0.4999999999999962
  outer loop
    vertex 261.97302171618816 378.50000000020685 100.50000000077394
    vertex 259.70887354907615 371.2723741125765 104.42161966206223
    vertex 260.57146796442555 366.8118302762709 102.92756230834284
  endloop
endfacet
facet normal 0.8660254037844407 -9.878446664050185e-13 0.4999999999999962
  outer loop
    vertex 261.97302171618816 378.50000000020685 100.50000000077394
    vertex 260.57146796442555 366.8118302762709 102.92756230834284
    vertex 261.18918104973676 362.36661960877626 101.85765186007488
  endloop
endfacet
facet normal 0.8660254037844407 -9.878446664050185e-13 0.4999999999999962
  outer loop
    vertex 261.97302171618816 378.50000000020685 100.50000000077394
    vertex 261.18918104973676 362.36661960877626 101.85765186007488
    vertex 261.56047016667037 357.93100448659135 101.2145602452397
  endloop
endfacet
facet normal 0.8660254037844407 -9.878446664050185e-13 0.4999999999999962
  outer loop
    vertex 261.97302171618816 378.50000000020685 100.50000000077394
    vertex 261.56047016667037 357.93100448659135 101.2145602452397
    vertex 261.6843465815933 353.5000000002058 101.0000000007248
  endloop
endfacet
facet normal 0.8660254037844407 -9.878446664050185e-13 0.4999999999999962
  outer loop
    vertex 261.97302171618816 378.50000000020685 100.50000000077394
    vertex 261.6843465815933 353.5000000002058 101.0000000007248
    vertex 261.97302171618816 328.5000000002069 100.50000000067563
  endloop
endfacet
facet normal 0.8660254037844407 -9.878446664050185e-13 0.4999999999999962
  outer loop
    vertex 259.70887354907615 371.2723741125765 104.42161966206223
    vertex 258.6033372270065 375.7551290769341 106.3364647415079
    vertex 258.6722553617677 375.3379148408074 106.21709503053846
  endloop
endfacet
facet normal 0.8660254037844407 -9.878446664050185e-13 0.4999999999999962
  outer loop
    vertex 260.57146796442555 366.8118302762709 102.92756230834284
    vertex 259.70887354907615 371.2723741125765 104.42161966206223
    vertex 259.74506485528855 370.99170810178265 104.35893448090927
  endloop
endfacet
facet normal 0.8660254037844407 -9.878446664050185e-13 0.4999999999999962
  outer loop
    vertex 261.18918104973676 362.36661960877626 101.85765186007488
    vertex 260.57146796442555 366.8118302762709 102.92756230834284
    vertex 260.5875459072971 366.6377704705753 102.8997144944075
  endloop
endfacet
facet normal 0.8660254037844407 -9.878446664050185e-13 0.4999999999999962
  outer loop
    vertex 261.56047016667037 357.93100448659135 101.2145602452397
    vertex 261.18918104973676 362.36661960877626 101.85765186007488
    vertex 261.1946007333428 362.2690358860158 101.84826469270766
  endloop
endfacet
facet normal 0.8660254037844407 -9.878446664050185e-13 0.4999999999999962
  outer loop
    vertex 261.6843465815933 353.5000000002058 101.0000000007248
    vertex 261.56047016667037 357.93100448659135 101.2145602452397
    vertex 261.56142512312425 357.87949078664536 101.21290621214234
  endloop
endfacet
facet normal 0.8660254037844407 -9.878446664050185e-13 0.4999999999999962
  outer loop
    vertex 261.97302171618816 328.5000000002069 100.50000000067563
    vertex 261.6843465815933 353.5000000002058 101.0000000007248
    vertex 261.56142512312425 349.1205092137658 101.21290621212499
  endloop
endfacet
facet normal 0.8660254037844407 -9.878446664050185e-13 0.4999999999999962
  outer loop
    vertex 261.97302171618816 328.5000000002069 100.50000000067563
    vertex 261.56142512312425 349.1205092137658 101.21290621212499
    vertex 261.56047016667037 349.06899551381923 101.21456024522227
  endloop
endfacet
facet normal 0.8660254037844407 -9.878446664050185e-13 0.4999999999999962
  outer loop
    vertex 261.97302171618816 328.5000000002069 100.50000000067563
    vertex 261.56047016667037 349.06899551381923 101.21456024522227
    vertex 261.1946007333428 344.73096411439246 101.84826469267324
  endloop
endfacet
facet normal 0.8660254037844407 -9.878446664050185e-13 0.4999999999999962
  outer loop
    vertex 261.97302171618816 328.5000000002069 100.50000000067563
    vertex 261.1946007333428 344.73096411439246 101.84826469267324
    vertex 261.18918104973676 344.6333803916318 101.85765186004004
  endloop
endfacet
facet normal 0.8660254037844407 -9.878446664050185e-13 0.4999999999999962
  outer loop
    vertex 261.97302171618816 328.5000000002069 100.50000000067563
    vertex 261.18918104973676 344.6333803916318 101.85765186004004
    vertex 260.5875459072971 340.3622295298289 102.8997144943559
  endloop
endfacet
facet normal 0.8660254037844407 -9.878446664050185e-13 0.4999999999999962
  outer loop
    vertex 261.97302171618816 328.5000000002069 100.50000000067563
    vertex 260.5875459072971 340.3622295298289 102.8997144943559
    vertex 260.57146796442555 340.188169724133 102.92756230829036
  endloop
endfacet
facet normal 0.8660254037844407 -9.878446664050185e-13 0.4999999999999962
  outer loop
    vertex 261.97302171618816 328.5000000002069 100.50000000067563
    vertex 260.57146796442555 340.188169724133 102.92756230829036
    vertex 259.74506485528855 336.00829189861605 104.35893448084042
  endloop
endfacet
facet normal 0.8660254037844407 -9.878446664050185e-13 0.4999999999999962
  outer loop
    vertex 261.97302171618816 328.5000000002069 100.50000000067563
    vertex 259.74506485528855 336.00829189861605 104.35893448084042
    vertex 259.7088735490758 335.72762588782183 104.42161966199207
  endloop
endfacet
facet normal 0.8660254037844407 -9.878446664050185e-13 0.4999999999999962
  outer loop
    vertex 261.97302171618816 328.5000000002069 100.50000000067563
    vertex 259.7088735490758 335.72762588782183 104.42161966199207
    vertex 258.6722553617673 331.66208515958374 106.21709503045223
  endloop
endfacet
facet normal 0.8660254037844407 -9.878446664050185e-13 0.4999999999999962
  outer loop
    vertex 261.97302171618816 328.5000000002069 100.50000000067563
    vertex 258.6722553617673 331.66208515958374 106.21709503045223
    vertex 258.6033372270065 331.2448709234563 106.33646474142031
  endloop
endfacet
facet normal 0.26495428385892367 -0.5116897292989053 0.81729605920671
  outer loop
    vertex 252.4113381172068 314.577271017815 113.82620495749227
    vertex 265.3302139542048 320.6317834330428 113.42869945968681
    vertex 251.5248419001818 314.82619464968155 114.26943802102014
  endloop
endfacet
facet normal 0.26495428385892367 -0.5116897292989053 0.81729605920671
  outer loop
    vertex 265.3302139542048 320.6317834330428 113.42869945968681
    vertex 252.4113381172068 314.577271017815 113.82620495749227
    vertex 265.72598294037044 320.1764937216518 113.01535137893728
  endloop
endfacet
facet normal -0.9363291775691029 -0.3511234415882359 -6.921582568438393e-13
  outer loop
    vertex 239.047622710562 318.32973437907856 102.10426110010172
    vertex 238.5303927947216 319.7090141546394 109.33723674785354
    vertex 238.5303927947216 319.7090141546578 100.0000000006583
  endloop
endfacet
facet normal -0.9363291775691029 -0.3511234415882359 -6.921582568438393e-13
  outer loop
    vertex 238.5303927947216 319.7090141546394 109.33723674785354
    vertex 239.047622710562 318.32973437907856 102.10426110010172
    vertex 239.047622710562 318.3297343790626 110.18898675307008
  endloop
endfacet
facet normal -0.09579191040989503 0.3443904952262664 0.9339267084187226
  outer loop
    vertex 221.97302171618824 313.5000000001885 109.92857142921731
    vertex 259.0109306519403 327.73682235174016 108.47760720114618
    vertex 203.7541180914457 313.5000000001922 108.05987705731737
  endloop
endfacet
facet normal -0.09579191040989503 0.3443904952262664 0.9339267084187226
  outer loop
    vertex 259.0109306519403 327.73682235174016 108.47760720114618
    vertex 221.97302171618824 313.5000000001885 109.92857142921731
    vertex 238.5303927947216 319.7090141546394 109.33723674785354
  endloop
endfacet
facet normal -0.09579191040989503 0.3443904952262664 0.9339267084187226
  outer loop
    vertex 259.0109306519403 327.73682235174016 108.47760720114618
    vertex 238.5303927947216 319.7090141546394 109.33723674785354
    vertex 259.12858852330703 327.4333375528603 108.60158690041939
  endloop
endfacet
facet normal 0.2876458364770341 -0.7670555639376363 -0.5734855138447198
  outer loop
    vertex 239.047622710562 318.32973437907856 102.10426110010172
    vertex 265.72598294037044 320.1764937216518 113.01535137893728
    vertex 252.4113381172068 314.577271017815 113.82620495749227
  endloop
endfacet
facet normal 0.2876458364770341 -0.7670555639376363 -0.5734855138447198
  outer loop
    vertex 265.72598294037044 320.1764937216518 113.01535137893728
    vertex 239.047622710562 318.32973437907856 102.10426110010172
    vertex 261.97302171618816 328.5000000002078 100.00000000067566
  endloop
endfacet
facet normal 0.2876458364770341 -0.7670555639376363 -0.5734855138447198
  outer loop
    vertex 261.97302171618816 328.5000000002078 100.00000000067566
    vertex 239.047622710562 318.32973437907856 102.10426110010172
    vertex 238.5303927947216 319.7090141546578 100.0000000006583
  endloop
endfacet
facet normal 0.8066884244641833 0.5741655408842805 0.1399561270418537
  outer loop
    vertex 265.72598294037044 320.1764937216518 113.01535137893728
    vertex 261.97302171618816 328.5000000002069 100.50000000067563
    vertex 265.3302139542048 320.6317834330428 113.42869945968681
  endloop
endfacet
facet normal 0.9116186420880307 0.41103704382643536 8.138594297817613e-13
  outer loop
    vertex 265.72598294037044 320.1764937216518 113.01535137893728
    vertex 261.97302171618816 328.5000000002078 100.00000000067566
    vertex 261.97302171618816 328.5000000002069 100.50000000067563
  endloop
endfacet
facet normal 0.5861986056529743 0.7507058459114497 0.3046505008118048
  outer loop
    vertex 261.97302171618816 328.5000000002069 100.50000000067563
    vertex 259.12858852330703 327.4333375528603 108.60158690041939
    vertex 265.3302139542048 320.6317834330428 113.42869945968681
  endloop
endfacet
facet normal -0.13643106009008094 0.5045090585250932 0.8525591919091722
  outer loop
    vertex 203.7541180914457 313.5000000001922 108.05987705731737
    vertex 258.6033372270065 331.2448709234563 106.33646474142031
    vertex 201.70573759736473 313.500000000193 107.73208430705702
  endloop
endfacet
facet normal -0.13643106009008094 0.5045090585250932 0.8525591919091722
  outer loop
    vertex 258.6033372270065 331.2448709234563 106.33646474142031
    vertex 203.7541180914457 313.5000000001922 108.05987705731737
    vertex 259.0109306519403 327.73682235174016 108.47760720114618
  endloop
endfacet
facet normal -0.270339531921994 -0.9627650479115855 -1.896300092712963e-12
  outer loop
    vertex 239.047622710562 318.3297343790626 110.18898675307008
    vertex 252.4113381172068 314.577271017815 113.82620495749227
    vertex 251.5248419001818 314.82619464968155 114.26943802102014
  endloop
endfacet
facet normal -0.270339531921994 -0.9627650479115855 -1.896300092712963e-12
  outer loop
    vertex 252.4113381172068 314.577271017815 113.82620495749227
    vertex 239.047622710562 318.3297343790626 110.18898675307008
    vertex 239.047622710562 318.32973437907856 102.10426110010172
  endloop
endfacet
facet normal 0.8779066611021769 0.319619257815981 0.35654372021617387
  outer loop
    vertex 259.0109306519403 327.73682235174016 108.47760720114618
    vertex 261.97302171618816 328.5000000002069 100.50000000067563
    vertex 258.6033372270065 331.2448709234563 106.33646474142031
  endloop
endfacet
facet normal 0.8176714571585634 0.45896714585014997 0.34750906057016523
  outer loop
    vertex 259.12858852330703 327.4333375528603 108.60158690041939
    vertex 261.97302171618816 328.5000000002069 100.50000000067563
    vertex 259.0109306519403 327.73682235174016 108.47760720114618
  endloop
endfacet
facet normal -2.718819550887577e-15 1.0 1.979043252020715e-12
  outer loop
    vertex 221.97302171619046 393.5000000002081 100.00000000080341
    vertex 203.7541180914464 393.50000000019213 108.05987705747492
    vertex 221.97302171618824 393.50000000018855 109.92857142937491
  endloop
endfacet
facet normal -2.718819550887577e-15 1.0 1.979043252020715e-12
  outer loop
    vertex 203.7541180914464 393.50000000019213 108.05987705747492
    vertex 221.97302171619046 393.5000000002081 100.00000000080341
    vertex 201.9730217161881 393.5000000001927 107.77485653467096
  endloop
endfacet
facet normal -2.718819550887577e-15 1.0 1.979043252020715e-12
  outer loop
    vertex 201.9730217161881 393.5000000001927 107.77485653467096
    vertex 221.97302171619046 393.5000000002081 100.00000000080341
    vertex 201.97302171618847 393.5000000002081 100.0000000008035
  endloop
endfacet
facet normal 7.33519854457237e-16 1.9686449181047286e-12 -1.0
  outer loop
    vertex 201.97302171618847 393.5000000002081 100.0000000008035
    vertex 191.9730217161882 313.5000000002081 100.00000000064601
    vertex 191.9730217161882 353.5000000002081 100.00000000072494
  endloop
endfacet
facet normal 7.33519854457237e-16 1.9686449181047286e-12 -1.0
  outer loop
    vertex 191.9730217161882 313.5000000002081 100.00000000064601
    vertex 201.97302171618847 393.5000000002081 100.0000000008035
    vertex 221.97302171618824 313.5000000002081 100.00000000064593
  endloop
endfacet
facet normal 7.33519854457237e-16 1.9686449181047286e-12 -1.0
  outer loop
    vertex 221.97302171618824 313.5000000002081 100.00000000064593
    vertex 201.97302171618847 393.5000000002081 100.0000000008035
    vertex 221.97302171619046 393.5000000002081 100.00000000080341
  endloop
endfacet
facet normal 7.33519854457237e-16 1.9686449181047286e-12 -1.0
  outer loop
    vertex 221.97302171618824 313.5000000002081 100.00000000064593
    vertex 221.97302171619046 393.5000000002081 100.00000000080341
    vertex 238.5303927947216 319.7090141546578 100.0000000006583
  endloop
endfacet
facet normal 7.33519854457237e-16 1.9686449181047286e-12 -1.0
  outer loop
    vertex 238.5303927947216 319.7090141546578 100.0000000006583
    vertex 221.97302171619046 393.5000000002081 100.00000000080341
    vertex 261.97302171618816 378.5000000002078 100.00000000077395
  endloop
endfacet
facet normal 7.33519854457237e-16 1.9686449181047286e-12 -1.0
  outer loop
    vertex 238.5303927947216 319.7090141546578 100.0000000006583
    vertex 261.97302171618816 378.5000000002078 100.00000000077395
    vertex 261.97302171618816 328.5000000002078 100.00000000067566
  endloop
endfacet
facet normal -0.14859014529512532 0.47865363028070956 0.8653390497026421
  outer loop
    vertex 239.047622710562 318.3297343790626 110.18898675307008
    vertex 259.12858852330703 327.4333375528603 108.60158690041939
    vertex 238.5303927947216 319.7090141546394 109.33723674785354
  endloop
endfacet
facet normal -0.14859014529512532 0.47865363028070956 0.8653390497026421
  outer loop
    vertex 259.12858852330703 327.4333375528603 108.60158690041939
    vertex 239.047622710562 318.3297343790626 110.18898675307008
    vertex 251.5248419001818 314.82619464968155 114.26943802102014
  endloop
endfacet
facet normal -0.14859014529512532 0.47865363028070956 0.8653390497026421
  outer loop
    vertex 259.12858852330703 327.4333375528603 108.60158690041939
    vertex 251.5248419001818 314.82619464968155 114.26943802102014
    vertex 265.3302139542048 320.6317834330428 113.42869945968681
  endloop
endfacet
endsolid ProtoGlove baseplate
