solid ProtoGlove baseplate
facet normal 0.3542437442893647 0.9351531263017042 1.8560320843628033e-12
  outer loop
    vertex 355.6580905338907 377.5126478098357 107.41638230003439
    vertex 326.6530426926013 388.50000000020776 100.0000000007937
    vertex 326.6530426926007 388.50000000019077 108.62492596010975
  endloop
endfacet
facet normal 0.3542437442893647 0.9351531263017042 1.8560320843628033e-12
  outer loop
    vertex 326.6530426926013 388.50000000020776 100.0000000007937
    vertex 355.6580905338907 377.5126478098357 107.41638230003439
    vertex 359.6512657161887 376.00000000020685 100.50000000076903
  endloop
endfacet
facet normal 0.3542437442893647 0.9351531263017042 1.8560320843628033e-12
  outer loop
    vertex 326.6530426926013 388.50000000020776 100.0000000007937
    vertex 359.6512657161887 376.00000000020685 100.50000000076903
    vertex 359.6512657161887 376.0000000002079 100.00000000076906
  endloop
endfacet
facet normal -1.8780802147998903e-15 -1.0 -1.9782965583604435e-12
  outer loop
    vertex 311.18350827365225 318.5000000001938 107.1280871453652
    vertex 326.6530426926007 318.5000000002078 100.0000000006557
    vertex 326.6530426926007 318.5000000001906 108.62492595997195
  endloop
endfacet
facet normal -1.8780802147998903e-15 -1.0 -1.9782965583604435e-12
  outer loop
    vertex 326.6530426926007 318.5000000002078 100.0000000006557
    vertex 311.18350827365225 318.5000000001938 107.1280871453652
    vertex 309.074803700832 318.5000000001943 106.82798159704689
  endloop
endfacet
facet normal -1.8780802147998903e-15 -1.0 -1.9782965583604435e-12
  outer loop
    vertex 326.6530426926007 318.5000000002078 100.0000000006557
    vertex 309.074803700832 318.5000000001943 106.82798159704689
    vertex 305.7666467842066 318.50000000019475 106.61538106867407
  endloop
endfacet
facet normal -1.8780802147998903e-15 -1.0 -1.9782965583604435e-12
  outer loop
    vertex 326.6530426926007 318.5000000002078 100.0000000006557
    vertex 305.7666467842066 318.50000000019475 106.61538106867407
    vertex 299.6512657161882 318.50000000020685 100.50000000065577
  endloop
endfacet
facet normal -1.8780802147998903e-15 -1.0 -1.9782965583604435e-12
  outer loop
    vertex 326.6530426926007 318.5000000002078 100.0000000006557
    vertex 299.6512657161882 318.50000000020685 100.50000000065577
    vertex 299.6512657161882 318.5000000002078 100.0000000006558
  endloop
endfacet
facet normal -1.0 -0.0 0.0
  outer loop
    vertex 299.6512657161882 318.5000000002078 100.0000000006558
    vertex 299.6512657161882 353.50000000020685 100.50000000072473
    vertex 299.6512657161882 353.50000000020776 100.00000000072494
  endloop
endfacet
facet normal -1.0 -0.0 0.0
  outer loop
    vertex 299.6512657161882 353.50000000020685 100.50000000072473
    vertex 299.6512657161882 318.5000000002078 100.0000000006558
    vertex 299.6512657161882 318.50000000020685 100.50000000065577
  endloop
endfacet
facet normal 1.0 -8.021237994802905e-15 -1.587977299353077e-26
  outer loop
    vertex 359.6512657161887 376.00000000020685 100.50000000076903
    vertex 359.6512657161883 331.0000000002078 100.00000000068044
    vertex 359.6512657161887 376.0000000002079 100.00000000076906
  endloop
endfacet
facet normal 1.0 -8.021237994802905e-15 -1.587977299353077e-26
  outer loop
    vertex 359.6512657161883 331.0000000002078 100.00000000068044
    vertex 359.6512657161887 376.00000000020685 100.50000000076903
    vertex 359.6512657161883 331.0000000002069 100.50000000068033
  endloop
endfacet
facet normal -0.707106781186541 -1.3890382589191443e-12 0.7071067811865542
  outer loop
    vertex 299.6512657161882 318.50000000020685 100.50000000065577
    vertex 301.1273619340701 338.27843725913914 101.97609621857667
    vertex 299.6512657161882 353.50000000020685 100.50000000072473
  endloop
endfacet
facet normal -0.707106781186541 -1.3890382589191443e-12 0.7071067811865542
  outer loop
    vertex 301.1273619340701 338.27843725913914 101.97609621857667
    vertex 299.6512657161882 318.50000000020685 100.50000000065577
    vertex 302.3313413758513 330.97376102150355 103.1800756603435
  endloop
endfacet
facet normal -0.707106781186541 -1.3890382589191443e-12 0.7071067811865542
  outer loop
    vertex 302.3313413758513 330.97376102150355 103.1800756603435
    vertex 299.6512657161882 318.50000000020685 100.50000000065577
    vertex 303.98714362244726 324.0286722718005 104.83587790692543
  endloop
endfacet
facet normal -0.707106781186541 -1.3890382589191443e-12 0.7071067811865542
  outer loop
    vertex 303.98714362244726 324.0286722718005 104.83587790692543
    vertex 299.6512657161882 318.50000000020685 100.50000000065577
    vertex 305.7666467842066 318.50000000019475 106.61538106867407
  endloop
endfacet
facet normal -0.707106781186541 -1.3890382589191443e-12 0.7071067811865542
  outer loop
    vertex 299.6512657161882 353.50000000020685 100.50000000072473
    vertex 301.1273619340701 338.27843725913914 101.97609621857667
    vertex 300.3963722643822 345.82744056196464 101.24510654890351
  endloop
endfacet
facet normal -0.707106781186541 -1.3890382589191443e-12 0.7071067811865542
  outer loop
    vertex 299.6512657161882 353.50000000020685 100.50000000072473
    vertex 300.3963722643822 345.82744056196464 101.24510654890351
    vertex 300.15126571618845 353.5000000002056 101.0000000007248
  endloop
endfacet
facet normal -0.707106781186541 -1.3890382589191443e-12 0.7071067811865542
  outer loop
    vertex 300.15126571618845 353.5000000002056 101.0000000007248
    vertex 300.3963722643822 345.82744056196464 101.24510654890351
    vertex 300.1527518008659 353.4671136747159 101.00148608540214
  endloop
endfacet
facet normal -0.707106781186541 -1.3890382589191443e-12 0.7071067811865542
  outer loop
    vertex 300.3963722643822 345.82744056196464 101.24510654890351
    vertex 301.1273619340701 338.27843725913914 101.97609621857667
    vertex 300.4030297898976 345.7789633925888 101.25176407441843
  endloop
endfacet
facet normal -0.707106781186541 -1.3890382589191443e-12 0.7071067811865542
  outer loop
    vertex 301.1273619340701 338.27843725913914 101.97609621857667
    vertex 302.3313413758513 330.97376102150355 103.1800756603435
    vertex 301.14927731908216 338.1853619843399 101.99801160358837
  endloop
endfacet
facet normal -0.707106781186541 -1.3890382589191443e-12 0.7071067811865542
  outer loop
    vertex 302.3313413758513 330.97376102150355 103.1800756603435
    vertex 303.98714362244726 324.0286722718005 104.83587790692543
    vertex 302.38659316213324 330.8135567040507 103.23532744662494
  endloop
endfacet
facet normal -0.707106781186541 -1.3890382589191443e-12 0.7071067811865542
  outer loop
    vertex 303.98714362244726 324.0286722718005 104.83587790692543
    vertex 305.7666467842066 318.50000000019475 106.61538106867407
    vertex 304.10052839911447 323.7890162427342 104.9492626835924
  endloop
endfacet
facet normal -0.707106781186541 -1.3890382589191443e-12 0.7071067811865542
  outer loop
    vertex 300.15126571618845 353.5000000002056 101.0000000007248
    vertex 300.24660197495325 356.47592584402565 101.09533625949558
    vertex 299.6512657161882 353.50000000020685 100.50000000072473
  endloop
endfacet
facet normal -0.707106781186541 -1.3890382589191443e-12 0.7071067811865542
  outer loop
    vertex 300.24660197495325 356.47592584402565 101.09533625949558
    vertex 300.15126571618845 353.5000000002056 101.0000000007248
    vertex 300.1527518008659 353.5328863256954 101.00148608540232
  endloop
endfacet
facet normal -0.06152646671391983 0.2822066942302875 0.9573786479890358
  outer loop
    vertex 305.7666467842066 318.50000000019475 106.61538106867407
    vertex 356.8501799528138 333.9244549053602 105.35162285920863
    vertex 304.10052839911447 323.7890162427342 104.9492626835924
  endloop
endfacet
facet normal -0.06152646671391983 0.2822066942302875 0.9573786479890358
  outer loop
    vertex 356.8501799528138 333.9244549053602 105.35162285920863
    vertex 305.7666467842066 318.50000000019475 106.61538106867407
    vertex 309.074803700832 318.5000000001943 106.82798159704689
  endloop
endfacet
facet normal -0.06152646671391983 0.2822066942302875 0.9573786479890358
  outer loop
    vertex 356.8501799528138 333.9244549053602 105.35162285920863
    vertex 309.074803700832 318.5000000001943 106.82798159704689
    vertex 356.7903260740333 333.55970805476005 105.45529281828557
  endloop
endfacet
facet normal -0.049026938930062346 0.3104927569297033 0.9493105957237283
  outer loop
    vertex 302.38659316213324 330.8135567040507 103.23532744662494
    vertex 358.4365185174193 341.5940929835149 102.60400386732128
    vertex 302.3313413758513 330.97376102150355 103.1800756603435
  endloop
endfacet
facet normal -0.049026938930062346 0.3104927569297033 0.9493105957237283
  outer loop
    vertex 358.4365185174193 341.5940929835149 102.60400386732128
    vertex 302.38659316213324 330.8135567040507 103.23532744662494
    vertex 357.7479512247003 337.8389715754635 103.79663740273358
  endloop
endfacet
facet normal -0.019876183601145667 -0.1585474740087137 0.98715127301286
  outer loop
    vertex 358.4507514937624 365.25063248037327 102.57935162919853
    vertex 304.09102116915307 375.69314345182244 103.16200777533855
    vertex 302.69572890288686 368.7184526720651 102.0137008021587
  endloop
endfacet
facet normal -0.019876183601145667 -0.1585474740087137 0.98715127301286
  outer loop
    vertex 304.09102116915307 375.69314345182244 103.16200777533855
    vertex 358.4507514937624 365.25063248037327 102.57935162919853
    vertex 358.4365185174193 365.4059070168914 102.60400386736825
  endloop
endfacet
facet normal -0.019876183601146236 0.1585474740048259 0.9871512730134844
  outer loop
    vertex 302.3313413758513 330.97376102150355 103.1800756603435
    vertex 358.4507514937624 341.74936752003225 102.57935162915223
    vertex 301.14927731908216 338.1853619843399 101.99801160358837
  endloop
endfacet
facet normal -0.019876183601146236 0.1585474740048259 0.9871512730134844
  outer loop
    vertex 358.4507514937624 341.74936752003225 102.57935162915223
    vertex 302.3313413758513 330.97376102150355 103.1800756603435
    vertex 358.4365185174193 341.5940929835149 102.60400386732128
  endloop
endfacet
facet normal -0.007394119245393704 0.13505572143322866 0.990810415321082
  outer loop
    vertex 300.4030297898976 345.7789633925888 101.25176407441843
    vertex 359.25967992354384 349.5406335634215 101.1782464890997
    vertex 300.3963722643822 345.82744056196464 101.24510654890351
  endloop
endfacet
facet normal -0.007394119245393704 0.13505572143322866 0.990810415321082
  outer loop
    vertex 359.25967992354384 349.5406335634215 101.1782464890997
    vertex 300.4030297898976 345.7789633925888 101.25176407441843
    vertex 358.95591522587347 345.6641077381438 101.70438237900308
  endloop
endfacet
facet normal -0.08268073383820905 -0.39397018687296126 0.9153968473330347
  outer loop
    vertex 357.7163403172815 369.4079477088903 103.8513891005183
    vertex 305.539653519536 382.9344669664366 104.9602399436358
    vertex 305.4720392056404 382.5964811959218 104.8086699238514
  endloop
endfacet
facet normal -0.08268073383820905 -0.39397018687296126 0.9153968473330347
  outer loop
    vertex 305.539653519536 382.9344669664366 104.9602399436358
    vertex 357.7163403172815 369.4079477088903 103.8513891005183
    vertex 356.8501799528138 373.07554509503467 105.35162285928565
  endloop
endfacet
facet normal -0.007507460285898506 -0.09540262679460003 0.9954104564654453
  outer loop
    vertex 358.9559152258731 361.33589226226496 101.70438237903399
    vertex 302.65772234912725 368.52846813155924 101.96913164145964
    vertex 301.1961762822218 361.22259242114814 101.257895157793
  endloop
endfacet
facet normal -0.007507460285898506 -0.09540262679460003 0.9954104564654453
  outer loop
    vertex 302.65772234912725 368.52846813155924 101.96913164145964
    vertex 358.9559152258731 361.33589226226496 101.70438237903399
    vertex 358.9509718908949 361.4256164486502 101.71294448637528
  endloop
endfacet
facet normal -0.08268073383820951 0.3939701868693511 0.9153968473345885
  outer loop
    vertex 304.10052839911447 323.7890162427342 104.9492626835924
    vertex 357.7163403172815 337.59205229150996 103.85138910045563
    vertex 303.98714362244726 324.0286722718005 104.83587790692543
  endloop
endfacet
facet normal -0.08268073383820951 0.3939701868693511 0.9153968473345885
  outer loop
    vertex 357.7163403172815 337.59205229150996 103.85138910045563
    vertex 304.10052839911447 323.7890162427342 104.9492626835924
    vertex 356.8501799528138 333.9244549053602 105.35162285920863
  endloop
endfacet
facet normal -0.023805512561754553 0.22381200167099155 0.9743415650990653
  outer loop
    vertex 301.14927731908216 338.1853619843399 101.99801160358837
    vertex 358.9509718908949 345.5743835517586 101.7129444863441
    vertex 301.1273619340701 338.27843725913914 101.97609621857667
  endloop
endfacet
facet normal -0.023805512561754553 0.22381200167099155 0.9743415650990653
  outer loop
    vertex 358.9509718908949 345.5743835517586 101.7129444863441
    vertex 301.14927731908216 338.1853619843399 101.99801160358837
    vertex 358.4507514937624 341.74936752003225 102.57935162915223
  endloop
endfacet
facet normal -0.037919748800244804 -0.22095000825177724 0.974547683032732
  outer loop
    vertex 357.7479512247003 369.1610284249372 103.79663740279521
    vertex 305.4720392056404 382.5964811959218 104.8086699238514
    vertex 304.1450644797892 375.96329142691866 103.2531566238267
  endloop
endfacet
facet normal -0.037919748800244804 -0.22095000825177724 0.974547683032732
  outer loop
    vertex 305.4720392056404 382.5964811959218 104.8086699238514
    vertex 357.7479512247003 369.1610284249372 103.79663740279521
    vertex 357.7163403172815 369.4079477088903 103.8513891005183
  endloop
endfacet
facet normal -0.037919748800245005 0.22095000824793587 0.9745476830336028
  outer loop
    vertex 303.98714362244726 324.0286722718005 104.83587790692543
    vertex 357.7479512247003 337.8389715754635 103.79663740273358
    vertex 302.38659316213324 330.8135567040507 103.23532744662494
  endloop
endfacet
facet normal -0.037919748800245005 0.22095000824793587 0.9745476830336028
  outer loop
    vertex 357.7479512247003 337.8389715754635 103.79663740273358
    vertex 303.98714362244726 324.0286722718005 104.83587790692543
    vertex 357.7163403172815 337.59205229150996 103.85138910045563
  endloop
endfacet
facet normal -0.0008735463942420131 0.03184481783041115 0.999492443440192
  outer loop
    vertex 300.3963722643822 345.82744056196464 101.24510654890351
    vertex 359.26060509997785 349.59095407231337 101.1766440365101
    vertex 300.1527518008659 353.4671136747159 101.00148608540214
  endloop
endfacet
facet normal -0.0008735463942420131 0.03184481783041115 0.999492443440192
  outer loop
    vertex 359.26060509997785 349.59095407231337 101.1766440365101
    vertex 300.3963722643822 345.82744056196464 101.24510654890351
    vertex 359.25967992354384 349.5406335634215 101.1782464890997
  endloop
endfacet
facet normal -0.0490269389300614 -0.31049275693344297 0.9493105957225054
  outer loop
    vertex 358.4365185174193 365.4059070168914 102.60400386736825
    vertex 304.1450644797892 375.96329142691866 103.2531566238267
    vertex 304.09102116915307 375.69314345182244 103.16200777533855
  endloop
endfacet
facet normal -0.0490269389300614 -0.31049275693344297 0.9493105957225054
  outer loop
    vertex 304.1450644797892 375.96329142691866 103.2531566238267
    vertex 358.4365185174193 365.4059070168914 102.60400386736825
    vertex 357.7479512247003 369.1610284249372 103.79663740279521
  endloop
endfacet
facet normal -0.09050939412789381 -0.34182003761654545 0.9353967668633588
  outer loop
    vertex 355.7598027055863 377.0036215869813 107.24021165090898
    vertex 326.6530426926007 388.50000000019077 108.62492596010975
    vertex 311.1835082736515 388.5000000001936 107.12808714550309
  endloop
endfacet
facet normal -0.09050939412789381 -0.34182003761654545 0.9353967668633588
  outer loop
    vertex 326.6530426926007 388.50000000019077 108.62492596010975
    vertex 355.7598027055863 377.0036215869813 107.24021165090898
    vertex 355.6580905338907 377.5126478098357 107.41638230003439
  endloop
endfacet
facet normal -5.4695428494480345e-17 0.04514246211060243 0.9989805594277563
  outer loop
    vertex 300.1527518008659 353.4671136747159 101.00148608540214
    vertex 359.36259058159374 353.5000000002057 101.0000000007248
    vertex 300.15126571618845 353.5000000002056 101.0000000007248
  endloop
endfacet
facet normal -5.4695428494480345e-17 0.04514246211060243 0.9989805594277563
  outer loop
    vertex 359.36259058159374 353.5000000002057 101.0000000007248
    vertex 300.1527518008659 353.4671136747159 101.00148608540214
    vertex 359.26060509997785 349.59095407231337 101.1766440365101
  endloop
endfacet
facet normal -0.12414942994569717 -0.47287158687636466 0.8723413215990559
  outer loop
    vertex 356.7903260740333 373.4402919456339 105.45529281836411
    vertex 311.1835082736515 388.5000000001936 107.12808714550309
    vertex 309.07480370083164 388.5000000001943 106.82798159718477
  endloop
endfacet
facet normal -0.12414942994569717 -0.47287158687636466 0.8723413215990559
  outer loop
    vertex 311.1835082736515 388.5000000001936 107.12808714550309
    vertex 356.7903260740333 373.4402919456339 105.45529281836411
    vertex 355.7598027055863 377.0036215869813 107.24021165090898
  endloop
endfacet
facet normal -0.02380551256175454 -0.22381200167483667 0.974341565098182
  outer loop
    vertex 358.9509718908949 361.4256164486502 101.71294448637528
    vertex 302.69572890288686 368.7184526720651 102.0137008021587
    vertex 302.65772234912725 368.52846813155924 101.96913164145964
  endloop
endfacet
facet normal -0.02380551256175454 -0.22381200167483667 0.974341565098182
  outer loop
    vertex 302.69572890288686 368.7184526720651 102.0137008021587
    vertex 358.9509718908949 361.4256164486502 101.71294448637528
    vertex 358.4507514937624 365.25063248037327 102.57935162919853
  endloop
endfacet
facet normal -0.06152646671392424 -0.28220669423407835 0.957378647987918
  outer loop
    vertex 356.8501799528138 373.07554509503467 105.35162285928565
    vertex 306.65304269260054 388.5000000001945 106.67234579062577
    vertex 305.539653519536 382.9344669664366 104.9602399436358
  endloop
endfacet
facet normal -0.06152646671392424 -0.28220669423407835 0.957378647987918
  outer loop
    vertex 306.65304269260054 388.5000000001945 106.67234579062577
    vertex 356.8501799528138 373.07554509503467 105.35162285928565
    vertex 309.07480370083164 388.5000000001943 106.82798159718477
  endloop
endfacet
facet normal -0.06152646671392424 -0.28220669423407835 0.957378647987918
  outer loop
    vertex 309.07480370083164 388.5000000001943 106.82798159718477
    vertex 356.8501799528138 373.07554509503467 105.35162285928565
    vertex 356.7903260740333 373.4402919456339 105.45529281836411
  endloop
endfacet
facet normal -0.007394119245393383 -0.1350557214371362 0.9908104153205494
  outer loop
    vertex 359.2596799235435 357.45936643698917 101.17824648911515
    vertex 301.1961762822218 361.22259242114814 101.257895157793
    vertex 301.17632451667686 361.12335878425495 101.24422063789126
  endloop
endfacet
facet normal -0.007394119245393383 -0.1350557214371362 0.9908104153205494
  outer loop
    vertex 301.1961762822218 361.22259242114814 101.257895157793
    vertex 359.2596799235435 357.45936643698917 101.17824648911515
    vertex 358.9559152258731 361.33589226226496 101.70438237903399
  endloop
endfacet
facet normal 2.5664777985870356e-17 -0.04514246211453523 0.9989805594275787
  outer loop
    vertex 359.36259058159374 353.5000000002057 101.0000000007248
    vertex 300.1527518008659 353.5328863256954 101.00148608540232
    vertex 300.15126571618845 353.5000000002056 101.0000000007248
  endloop
endfacet
facet normal 2.5664777985870356e-17 -0.04514246211453523 0.9989805594275787
  outer loop
    vertex 300.1527518008659 353.5328863256954 101.00148608540232
    vertex 359.36259058159374 353.5000000002057 101.0000000007248
    vertex 359.26060509997785 357.4090459280974 101.17664403652546
  endloop
endfacet
facet normal -0.007507460285898665 0.09540262679067583 0.9954104564658213
  outer loop
    vertex 301.1273619340701 338.27843725913914 101.97609621857667
    vertex 358.95591522587347 345.6641077381438 101.70438237900308
    vertex 300.4030297898976 345.7789633925888 101.25176407441843
  endloop
endfacet
facet normal -0.007507460285898665 0.09540262679067583 0.9954104564658213
  outer loop
    vertex 358.95591522587347 345.6641077381438 101.70438237900308
    vertex 301.1273619340701 338.27843725913914 101.97609621857667
    vertex 358.9509718908949 345.5743835517586 101.7129444863441
  endloop
endfacet
facet normal -0.9805711006119517 0.1961640044571525 3.272408079010896e-13
  outer loop
    vertex 306.6530426926009 388.50000000020776 100.00000000079379
    vertex 305.4720392056404 382.5964811959218 104.8086699238514
    vertex 306.65304269260054 388.5000000001945 106.67234579062577
  endloop
endfacet
facet normal -0.9805711006119517 0.1961640044571525 3.272408079010896e-13
  outer loop
    vertex 305.4720392056404 382.5964811959218 104.8086699238514
    vertex 306.6530426926009 388.50000000020776 100.00000000079379
    vertex 304.09102116915307 375.69314345182244 103.16200777533855
  endloop
endfacet
facet normal -0.9805711006119517 0.1961640044571525 3.272408079010896e-13
  outer loop
    vertex 304.09102116915307 375.69314345182244 103.16200777533855
    vertex 306.6530426926009 388.50000000020776 100.00000000079379
    vertex 302.65772234912725 368.52846813155924 101.96913164145964
  endloop
endfacet
facet normal -0.9805711006119517 0.1961640044571525 3.272408079010896e-13
  outer loop
    vertex 302.65772234912725 368.52846813155924 101.96913164145964
    vertex 306.6530426926009 388.50000000020776 100.00000000079379
    vertex 299.6512657161882 353.50000000020776 100.00000000072494
  endloop
endfacet
facet normal -0.9805711006119517 0.1961640044571525 3.272408079010896e-13
  outer loop
    vertex 306.65304269260054 388.5000000001945 106.67234579062577
    vertex 305.4720392056404 382.5964811959218 104.8086699238514
    vertex 305.539653519536 382.9344669664366 104.9602399436358
  endloop
endfacet
facet normal -0.9805711006119517 0.1961640044571525 3.272408079010896e-13
  outer loop
    vertex 305.4720392056404 382.5964811959218 104.8086699238514
    vertex 304.09102116915307 375.69314345182244 103.16200777533855
    vertex 304.1450644797892 375.96329142691866 103.2531566238267
  endloop
endfacet
facet normal -0.9805711006119517 0.1961640044571525 3.272408079010896e-13
  outer loop
    vertex 304.09102116915307 375.69314345182244 103.16200777533855
    vertex 302.65772234912725 368.52846813155924 101.96913164145964
    vertex 302.69572890288686 368.7184526720651 102.0137008021587
  endloop
endfacet
facet normal -0.9805711006119517 0.1961640044571525 3.272408079010896e-13
  outer loop
    vertex 302.65772234912725 368.52846813155924 101.96913164145964
    vertex 299.6512657161882 353.50000000020776 100.00000000072494
    vertex 301.1961762822218 361.22259242114814 101.257895157793
  endloop
endfacet
facet normal -0.9805711006119517 0.1961640044571525 3.272408079010896e-13
  outer loop
    vertex 301.1961762822218 361.22259242114814 101.257895157793
    vertex 299.6512657161882 353.50000000020776 100.00000000072494
    vertex 301.17632451667686 361.12335878425495 101.24422063789126
  endloop
endfacet
facet normal -0.9805711006119517 0.1961640044571525 3.272408079010896e-13
  outer loop
    vertex 301.17632451667686 361.12335878425495 101.24422063789126
    vertex 299.6512657161882 353.50000000020776 100.00000000072494
    vertex 300.24660197495325 356.47592584402565 101.09533625949558
  endloop
endfacet
facet normal -0.9805711006119517 0.1961640044571525 3.272408079010896e-13
  outer loop
    vertex 300.24660197495325 356.47592584402565 101.09533625949558
    vertex 299.6512657161882 353.50000000020776 100.00000000072494
    vertex 299.6512657161882 353.50000000020685 100.50000000072473
  endloop
endfacet
facet normal -0.0008735463942416204 -0.03184481783435127 0.9994924434400663
  outer loop
    vertex 359.26060509997785 357.4090459280974 101.17664403652546
    vertex 300.24660197495325 356.47592584402565 101.09533625949558
    vertex 300.1527518008659 353.5328863256954 101.00148608540232
  endloop
endfacet
facet normal -0.0008735463942416204 -0.03184481783435127 0.9994924434400663
  outer loop
    vertex 300.24660197495325 356.47592584402565 101.09533625949558
    vertex 359.26060509997785 357.4090459280974 101.17664403652546
    vertex 301.17632451667686 361.12335878425495 101.24422063789126
  endloop
endfacet
facet normal -0.0008735463942416204 -0.03184481783435127 0.9994924434400663
  outer loop
    vertex 301.17632451667686 361.12335878425495 101.24422063789126
    vertex 359.26060509997785 357.4090459280974 101.17664403652546
    vertex 359.2596799235435 357.45936643698917 101.17824648911515
  endloop
endfacet
facet normal 0.789087973983921 0.6072579368103228 0.0926173174672037
  outer loop
    vertex 363.55519182632145 324.3466393753914 110.86269379595706
    vertex 359.6512657161883 331.0000000002069 100.50000000068033
    vertex 363.1578198451697 324.7995955207126 111.27838535672109
  endloop
endfacet
facet normal 0.2770069500194174 -0.5063993682660822 0.8165946543179504
  outer loop
    vertex 350.2913594202651 318.61481925748825 111.80757344900091
    vertex 363.1578198451697 324.7995955207126 111.27838535672109
    vertex 349.41783921130747 318.86201315343186 112.25718452552141
  endloop
endfacet
facet normal 0.2770069500194174 -0.5063993682660822 0.8165946543179504
  outer loop
    vertex 363.1578198451697 324.7995955207126 111.27838535672109
    vertex 350.2913594202651 318.61481925748825 111.80757344900091
    vertex 363.55519182632145 324.3466393753914 110.86269379595706
  endloop
endfacet
facet normal 0.8140958331918986 0.46966755644252745 0.3415557945708046
  outer loop
    vertex 357.2933675969365 330.1068086768427 107.34824575564767
    vertex 359.6512657161883 331.0000000002069 100.50000000068033
    vertex 357.1883435433016 330.3648039691496 107.24380491573409
  endloop
endfacet
facet normal 0.8624897568525393 0.5060745195368441 9.621518119350045e-13
  outer loop
    vertex 363.55519182632145 324.3466393753914 110.86269379595706
    vertex 359.6512657161883 331.0000000002078 100.00000000068044
    vertex 359.6512657161883 331.0000000002069 100.50000000068033
  endloop
endfacet
facet normal -0.09050939412789201 0.34182003761284424 0.9353967668647117
  outer loop
    vertex 326.6530426926007 318.5000000001906 108.62492595997195
    vertex 357.1883435433016 330.3648039691496 107.24380491573409
    vertex 311.18350827365225 318.5000000001938 107.1280871453652
  endloop
endfacet
facet normal -0.09050939412789201 0.34182003761284424 0.9353967668647117
  outer loop
    vertex 357.1883435433016 330.3648039691496 107.24380491573409
    vertex 326.6530426926007 318.5000000001906 108.62492595997195
    vertex 338.8253342604596 323.11096479334157 108.11774714465311
  endloop
endfacet
facet normal -0.09050939412789201 0.34182003761284424 0.9353967668647117
  outer loop
    vertex 357.1883435433016 330.3648039691496 107.24380491573409
    vertex 338.8253342604596 323.11096479334157 108.11774714465311
    vertex 357.2933675969365 330.1068086768427 107.34824575564767
  endloop
endfacet
facet normal -0.12414942994570291 0.4728715868729455 0.8723413216009085
  outer loop
    vertex 311.18350827365225 318.5000000001938 107.1280871453652
    vertex 356.7903260740333 333.55970805476005 105.45529281828557
    vertex 309.074803700832 318.5000000001943 106.82798159704689
  endloop
endfacet
facet normal -0.12414942994570291 0.4728715868729455 0.8723413216009085
  outer loop
    vertex 356.7903260740333 333.55970805476005 105.45529281828557
    vertex 311.18350827365225 318.5000000001938 107.1280871453652
    vertex 357.1883435433016 330.3648039691496 107.24380491573409
  endloop
endfacet
facet normal -0.14568132138128476 0.4797478965968757 0.8652276627058777
  outer loop
    vertex 339.3581180574449 321.70877232241804 108.9849357106756
    vertex 357.2933675969365 330.1068086768427 107.34824575564767
    vertex 338.8253342604596 323.11096479334157 108.11774714465311
  endloop
endfacet
facet normal -0.14568132138128476 0.4797478965968757 0.8652276627058777
  outer loop
    vertex 357.2933675969365 330.1068086768427 107.34824575564767
    vertex 339.3581180574449 321.70877232241804 108.9849357106756
    vertex 349.41783921130747 318.86201315343186 112.25718452552141
  endloop
endfacet
facet normal -0.14568132138128476 0.4797478965968757 0.8652276627058777
  outer loop
    vertex 357.2933675969365 330.1068086768427 107.34824575564767
    vertex 349.41783921130747 318.86201315343186 112.25718452552141
    vertex 363.1578198451697 324.7995955207126 111.27838535672109
  endloop
endfacet
facet normal 0.8842317694854676 0.30712881505345935 0.35186086567911595
  outer loop
    vertex 357.1883435433016 330.3648039691496 107.24380491573409
    vertex 359.6512657161883 331.0000000002069 100.50000000068033
    vertex 356.7903260740333 333.55970805476005 105.45529281828557
  endloop
endfacet
facet normal 0.5301177293447824 0.7980177788866853 0.28660568315212004
  outer loop
    vertex 359.6512657161883 331.0000000002069 100.50000000068033
    vertex 357.2933675969365 330.1068086768427 107.34824575564767
    vertex 363.1578198451697 324.7995955207126 111.27838535672109
  endloop
endfacet
facet normal 0.8660254037844284 -9.873361269565535e-13 0.500000000000018
  outer loop
    vertex 355.7598027055863 377.0036215869813 107.24021165090898
    vertex 359.6512657161887 376.00000000020685 100.50000000076903
    vertex 355.6580905338907 377.5126478098357 107.41638230003439
  endloop
endfacet
facet normal 0.8660254037844284 -9.873361269565535e-13 0.500000000000018
  outer loop
    vertex 359.6512657161887 376.00000000020685 100.50000000076903
    vertex 355.7598027055863 377.0036215869813 107.24021165090898
    vertex 356.7903260740333 373.4402919456339 105.45529281836411
  endloop
endfacet
facet normal 0.8660254037844284 -9.873361269565535e-13 0.500000000000018
  outer loop
    vertex 359.6512657161887 376.00000000020685 100.50000000076903
    vertex 356.7903260740333 373.4402919456339 105.45529281836411
    vertex 357.7163403172815 369.4079477088903 103.8513891005183
  endloop
endfacet
facet normal 0.8660254037844284 -9.873361269565535e-13 0.500000000000018
  outer loop
    vertex 359.6512657161887 376.00000000020685 100.50000000076903
    vertex 357.7163403172815 369.4079477088903 103.8513891005183
    vertex 358.4365185174193 365.4059070168914 102.60400386736825
  endloop
endfacet
facet normal 0.8660254037844284 -9.873361269565535e-13 0.500000000000018
  outer loop
    vertex 359.6512657161887 376.00000000020685 100.50000000076903
    vertex 358.4365185174193 365.4059070168914 102.60400386736825
    vertex 358.9509718908949 361.4256164486502 101.71294448637528
  endloop
endfacet
facet normal 0.8660254037844284 -9.873361269565535e-13 0.500000000000018
  outer loop
    vertex 359.6512657161887 376.00000000020685 100.50000000076903
    vertex 358.9509718908949 361.4256164486502 101.71294448637528
    vertex 359.2596799235435 357.45936643698917 101.17824648911515
  endloop
endfacet
facet normal 0.8660254037844284 -9.873361269565535e-13 0.500000000000018
  outer loop
    vertex 359.6512657161887 376.00000000020685 100.50000000076903
    vertex 359.2596799235435 357.45936643698917 101.17824648911515
    vertex 359.36259058159374 353.5000000002057 101.0000000007248
  endloop
endfacet
facet normal 0.8660254037844284 -9.873361269565535e-13 0.500000000000018
  outer loop
    vertex 359.6512657161887 376.00000000020685 100.50000000076903
    vertex 359.36259058159374 353.5000000002057 101.0000000007248
    vertex 359.6512657161883 331.0000000002069 100.50000000068033
  endloop
endfacet
facet normal 0.8660254037844284 -9.873361269565535e-13 0.500000000000018
  outer loop
    vertex 357.7163403172815 369.4079477088903 103.8513891005183
    vertex 356.7903260740333 373.4402919456339 105.45529281836411
    vertex 356.8501799528138 373.07554509503467 105.35162285928565
  endloop
endfacet
facet normal 0.8660254037844284 -9.873361269565535e-13 0.500000000000018
  outer loop
    vertex 358.4365185174193 365.4059070168914 102.60400386736825
    vertex 357.7163403172815 369.4079477088903 103.8513891005183
    vertex 357.7479512247003 369.1610284249372 103.79663740279521
  endloop
endfacet
facet normal 0.8660254037844284 -9.873361269565535e-13 0.500000000000018
  outer loop
    vertex 358.9509718908949 361.4256164486502 101.71294448637528
    vertex 358.4365185174193 365.4059070168914 102.60400386736825
    vertex 358.4507514937624 365.25063248037327 102.57935162919853
  endloop
endfacet
facet normal 0.8660254037844284 -9.873361269565535e-13 0.500000000000018
  outer loop
    vertex 359.2596799235435 357.45936643698917 101.17824648911515
    vertex 358.9509718908949 361.4256164486502 101.71294448637528
    vertex 358.9559152258731 361.33589226226496 101.70438237903399
  endloop
endfacet
facet normal 0.8660254037844284 -9.873361269565535e-13 0.500000000000018
  outer loop
    vertex 359.36259058159374 353.5000000002057 101.0000000007248
    vertex 359.2596799235435 357.45936643698917 101.17824648911515
    vertex 359.26060509997785 357.4090459280974 101.17664403652546
  endloop
endfacet
facet normal 0.8660254037844284 -9.873361269565535e-13 0.500000000000018
  outer loop
    vertex 359.6512657161883 331.0000000002069 100.50000000068033
    vertex 359.36259058159374 353.5000000002057 101.0000000007248
    vertex 359.26060509997785 349.59095407231337 101.1766440365101
  endloop
endfacet
facet normal 0.8660254037844284 -9.873361269565535e-13 0.500000000000018
  outer loop
    vertex 359.6512657161883 331.0000000002069 100.50000000068033
    vertex 359.26060509997785 349.59095407231337 101.1766440365101
    vertex 359.25967992354384 349.5406335634215 101.1782464890997
  endloop
endfacet
facet normal 0.8660254037844284 -9.873361269565535e-13 0.500000000000018
  outer loop
    vertex 359.6512657161883 331.0000000002069 100.50000000068033
    vertex 359.25967992354384 349.5406335634215 101.1782464890997
    vertex 358.95591522587347 345.6641077381438 101.70438237900308
  endloop
endfacet
facet normal 0.8660254037844284 -9.873361269565535e-13 0.500000000000018
  outer loop
    vertex 359.6512657161883 331.0000000002069 100.50000000068033
    vertex 358.95591522587347 345.6641077381438 101.70438237900308
    vertex 358.9509718908949 345.5743835517586 101.7129444863441
  endloop
endfacet
facet normal 0.8660254037844284 -9.873361269565535e-13 0.500000000000018
  outer loop
    vertex 359.6512657161883 331.0000000002069 100.50000000068033
    vertex 358.9509718908949 345.5743835517586 101.7129444863441
    vertex 358.4507514937624 341.74936752003225 102.57935162915223
  endloop
endfacet
facet normal 0.8660254037844284 -9.873361269565535e-13 0.500000000000018
  outer loop
    vertex 359.6512657161883 331.0000000002069 100.50000000068033
    vertex 358.4507514937624 341.74936752003225 102.57935162915223
    vertex 358.4365185174193 341.5940929835149 102.60400386732128
  endloop
endfacet
facet normal 0.8660254037844284 -9.873361269565535e-13 0.500000000000018
  outer loop
    vertex 359.6512657161883 331.0000000002069 100.50000000068033
    vertex 358.4365185174193 341.5940929835149 102.60400386732128
    vertex 357.7479512247003 337.8389715754635 103.79663740273358
  endloop
endfacet
facet normal 0.8660254037844284 -9.873361269565535e-13 0.500000000000018
  outer loop
    vertex 359.6512657161883 331.0000000002069 100.50000000068033
    vertex 357.7479512247003 337.8389715754635 103.79663740273358
    vertex 357.7163403172815 337.59205229150996 103.85138910045563
  endloop
endfacet
facet normal 0.8660254037844284 -9.873361269565535e-13 0.500000000000018
  outer loop
    vertex 359.6512657161883 331.0000000002069 100.50000000068033
    vertex 357.7163403172815 337.59205229150996 103.85138910045563
    vertex 356.8501799528138 333.9244549053602 105.35162285920863
  endloop
endfacet
facet normal 0.8660254037844284 -9.873361269565535e-13 0.500000000000018
  outer loop
    vertex 359.6512657161883 331.0000000002069 100.50000000068033
    vertex 356.8501799528138 333.9244549053602 105.35162285920863
    vertex 356.7903260740333 333.55970805476005 105.45529281828557
  endloop
endfacet
facet normal -0.9347945028640556 -0.3551890164618598 -6.992095883202009e-13
  outer loop
    vertex 339.3581180574449 321.70877232243157 102.14258474187518
    vertex 338.8253342604596 323.11096479334157 108.11774714465311
    vertex 338.8253342604596 323.11096479335754 100.000000000665
  endloop
endfacet
facet normal -0.9347945028640556 -0.3551890164618598 -6.992095883202009e-13
  outer loop
    vertex 338.8253342604596 323.11096479334157 108.11774714465311
    vertex 339.3581180574449 321.70877232243157 102.14258474187518
    vertex 339.3581180574449 321.70877232241804 108.9849357106756
  endloop
endfacet
facet normal 0.35424374428943 -0.9351531263016795 -1.8518908753062533e-12
  outer loop
    vertex 326.6530426926007 318.5000000002078 100.0000000006557
    vertex 338.8253342604596 323.11096479334157 108.11774714465311
    vertex 326.6530426926007 318.5000000001906 108.62492595997195
  endloop
endfacet
facet normal 0.35424374428943 -0.9351531263016795 -1.8518908753062533e-12
  outer loop
    vertex 338.8253342604596 323.11096479334157 108.11774714465311
    vertex 326.6530426926007 318.5000000002078 100.0000000006557
    vertex 338.8253342604596 323.11096479335754 100.000000000665
  endloop
endfacet
facet normal 0.29019564933028186 -0.7660752605650021 -0.5735112730017085
  outer loop
    vertex 339.3581180574449 321.70877232243157 102.14258474187518
    vertex 363.55519182632145 324.3466393753914 110.86269379595706
    vertex 350.2913594202651 318.61481925748825 111.80757344900091
  endloop
endfacet
facet normal 0.29019564933028186 -0.7660752605650021 -0.5735112730017085
  outer loop
    vertex 363.55519182632145 324.3466393753914 110.86269379595706
    vertex 339.3581180574449 321.70877232243157 102.14258474187518
    vertex 359.6512657161883 331.0000000002078 100.00000000068044
  endloop
endfacet
facet normal 0.29019564933028186 -0.7660752605650021 -0.5735112730017085
  outer loop
    vertex 359.6512657161883 331.0000000002078 100.00000000068044
    vertex 339.3581180574449 321.70877232243157 102.14258474187518
    vertex 338.8253342604596 323.11096479335754 100.000000000665
  endloop
endfacet
facet normal -0.2722930892805093 -0.9622143594491182 -1.8959610501449817e-12
  outer loop
    vertex 339.3581180574449 321.70877232241804 108.9849357106756
    vertex 350.2913594202651 318.61481925748825 111.80757344900091
    vertex 349.41783921130747 318.86201315343186 112.25718452552141
  endloop
endfacet
facet normal -0.2722930892805093 -0.9622143594491182 -1.8959610501449817e-12
  outer loop
    vertex 350.2913594202651 318.61481925748825 111.80757344900091
    vertex 339.3581180574449 321.70877232241804 108.9849357106756
    vertex 339.3581180574449 321.70877232243157 102.14258474187518
  endloop
endfacet
facet normal -1.6046100245585428e-15 1.0 1.977843846126014e-12
  outer loop
    vertex 326.6530426926013 388.50000000020776 100.0000000007937
    vertex 311.1835082736515 388.5000000001936 107.12808714550309
    vertex 326.6530426926007 388.50000000019077 108.62492596010975
  endloop
endfacet
facet normal -1.6046100245585428e-15 1.0 1.977843846126014e-12
  outer loop
    vertex 311.1835082736515 388.5000000001936 107.12808714550309
    vertex 326.6530426926013 388.50000000020776 100.0000000007937
    vertex 309.07480370083164 388.5000000001943 106.82798159718477
  endloop
endfacet
facet normal -1.6046100245585428e-15 1.0 1.977843846126014e-12
  outer loop
    vertex 309.07480370083164 388.5000000001943 106.82798159718477
    vertex 326.6530426926013 388.50000000020776 100.0000000007937
    vertex 306.65304269260054 388.5000000001945 106.67234579062577
  endloop
endfacet
facet normal -1.6046100245585428e-15 1.0 1.977843846126014e-12
  outer loop
    vertex 306.65304269260054 388.5000000001945 106.67234579062577
    vertex 326.6530426926013 388.50000000020776 100.0000000007937
    vertex 306.6530426926009 388.50000000020776 100.00000000079379
  endloop
endfacet
facet normal 3.842239998154107e-16 1.970805035714332e-12 -1.0
  outer loop
    vertex 306.6530426926009 388.50000000020776 100.00000000079379
    vertex 299.6512657161882 318.5000000002078 100.0000000006558
    vertex 299.6512657161882 353.50000000020776 100.00000000072494
  endloop
endfacet
facet normal 3.842239998154107e-16 1.970805035714332e-12 -1.0
  outer loop
    vertex 299.6512657161882 318.5000000002078 100.0000000006558
    vertex 306.6530426926009 388.50000000020776 100.00000000079379
    vertex 326.6530426926007 318.5000000002078 100.0000000006557
  endloop
endfacet
facet normal 3.842239998154107e-16 1.970805035714332e-12 -1.0
  outer loop
    vertex 326.6530426926007 318.5000000002078 100.0000000006557
    vertex 306.6530426926009 388.50000000020776 100.00000000079379
    vertex 326.6530426926013 388.50000000020776 100.0000000007937
  endloop
endfacet
facet normal 3.842239998154107e-16 1.970805035714332e-12 -1.0
  outer loop
    vertex 326.6530426926007 318.5000000002078 100.0000000006557
    vertex 326.6530426926013 388.50000000020776 100.0000000007937
    vertex 338.8253342604596 323.11096479335754 100.000000000665
  endloop
endfacet
facet normal 3.842239998154107e-16 1.970805035714332e-12 -1.0
  outer loop
    vertex 338.8253342604596 323.11096479335754 100.000000000665
    vertex 326.6530426926013 388.50000000020776 100.0000000007937
    vertex 359.6512657161887 376.0000000002079 100.00000000076906
  endloop
endfacet
facet normal 3.842239998154107e-16 1.970805035714332e-12 -1.0
  outer loop
    vertex 338.8253342604596 323.11096479335754 100.000000000665
    vertex 359.6512657161887 376.0000000002079 100.00000000076906
    vertex 359.6512657161883 331.0000000002078 100.00000000068044
  endloop
endfacet
endsolid ProtoGlove baseplate
