solid ProtoGlove baseplate
facet normal 0.3511234415884053 -0.9363291775690396 1.8623504185526218e-12
  outer loop
    vertex 221.97302171618824 -434.4999999999802 109.92857142933963
    vertex 221.97302171619046 -434.49999999999983 100.00000000076813
    vertex 257.2569763461024 -421.2685170137649 108.66843019253095
  endloop
endfacet
facet normal 0.3511234415884053 -0.9363291775690396 1.8623504185526218e-12
  outer loop
    vertex 261.97302171618816 -419.49999999999864 100.50000000073865
    vertex 257.2569763461024 -421.2685170137649 108.66843019253095
    vertex 221.97302171619046 -434.49999999999983 100.00000000076813
  endloop
endfacet
facet normal 0.3511234415884053 -0.9363291775690396 1.8623504185526218e-12
  outer loop
    vertex 261.97302171618816 -419.49999999999955 100.00000000073867
    vertex 261.97302171618816 -419.49999999999864 100.50000000073865
    vertex 221.97302171619046 -434.49999999999983 100.00000000076813
  endloop
endfacet
facet normal -0.97014250014533 -0.2425356250363408 4.310225729663077e-13
  outer loop
    vertex 201.9730217161881 -434.49999999998437 107.77485653463567
    vertex 201.95368930548693 -434.4226703571799 107.72600239410284
    vertex 201.97302171618847 -434.49999999999983 100.00000000076821
  endloop
endfacet
facet normal -0.97014250014533 -0.2425356250363408 4.310225729663077e-13
  outer loop
    vertex 200.12616290305522 -427.1125647474578 105.34835547056568
    vertex 201.97302171618847 -434.49999999999983 100.00000000076821
    vertex 201.95368930548693 -434.4226703571799 107.72600239410284
  endloop
endfacet
facet normal -0.97014250014533 -0.2425356250363408 4.310225729663077e-13
  outer loop
    vertex 198.20925555599317 -419.4449353592128 103.46919000558539
    vertex 201.97302171618847 -434.49999999999983 100.00000000076821
    vertex 200.12616290305522 -427.1125647474578 105.34835547056568
  endloop
endfacet
facet normal -0.97014250014533 -0.2425356250363408 4.310225729663077e-13
  outer loop
    vertex 196.20788295194717 -411.43944494303236 102.10716013092474
    vertex 201.97302171618847 -434.49999999999983 100.00000000076821
    vertex 198.20925555599317 -419.4449353592128 103.46919000558539
  endloop
endfacet
facet normal -0.97014250014533 -0.2425356250363408 4.310225729663077e-13
  outer loop
    vertex 191.9730217161882 -394.4999999999998 100.00000000068965
    vertex 201.97302171618847 -434.49999999999983 100.00000000076821
    vertex 196.20788295194717 -411.43944494303236 102.10716013092474
  endloop
endfacet
facet normal -0.97014250014533 -0.2425356250363408 4.310225729663077e-13
  outer loop
    vertex 200.2371844405102 -427.5566508972771 105.56709379171564
    vertex 200.12616290305522 -427.1125647474578 105.34835547056568
    vertex 201.95368930548693 -434.4226703571799 107.72600239410284
  endloop
endfacet
facet normal -0.97014250014533 -0.2425356250363408 4.310225729663077e-13
  outer loop
    vertex 198.29901210653037 -419.80396156136163 103.60134789422338
    vertex 198.20925555599317 -419.4449353592128 103.46919000558539
    vertex 200.12616290305522 -427.1125647474578 105.34835547056568
  endloop
endfacet
facet normal -0.97014250014533 -0.2425356250363408 4.310225729663077e-13
  outer loop
    vertex 196.27162794876537 -411.6944249303046 102.17205444628074
    vertex 196.20788295194717 -411.43944494303236 102.10716013092474
    vertex 198.20925555599317 -419.4449353592128 103.46919000558539
  endloop
endfacet
facet normal -0.97014250014533 -0.2425356250363408 4.310225729663077e-13
  outer loop
    vertex 194.12729468360416 -403.1170918696613 101.27908375526067
    vertex 191.9730217161882 -394.4999999999998 100.00000000068965
    vertex 196.20788295194717 -411.43944494303236 102.10716013092474
  endloop
endfacet
facet normal -0.97014250014533 -0.2425356250363408 4.310225729663077e-13
  outer loop
    vertex 194.16087159325824 -403.25139950827725 101.29906972395626
    vertex 194.12729468360416 -403.1170918696613 101.27908375526067
    vertex 196.20788295194717 -411.43944494303236 102.10716013092474
  endloop
endfacet
facet normal -0.97014250014533 -0.2425356250363408 4.310225729663077e-13
  outer loop
    vertex 192.54743654127344 -396.79765930033915 101.07441482577951
    vertex 191.9730217161882 -394.4999999999998 100.00000000068965
    vertex 194.12729468360416 -403.1170918696613 101.27908375526067
  endloop
endfacet
facet normal -0.97014250014533 -0.2425356250363408 4.310225729663077e-13
  outer loop
    vertex 191.9730217161882 -394.49999999999886 100.50000000068944
    vertex 191.9730217161882 -394.4999999999998 100.00000000068965
    vertex 192.54743654127344 -396.79765930033915 101.07441482577951
  endloop
endfacet
facet normal -0.13643106009008538 0.5045090585284451 0.852559191907188
  outer loop
    vertex 201.95368930548693 -434.4226703571799 107.72600239410284
    vertex 201.9730217161881 -434.49999999998437 107.77485653463567
    vertex 258.6033372270065 -416.7551290767258 106.33646474147261
  endloop
endfacet
facet normal -0.13643106009008538 0.5045090585284451 0.852559191907188
  outer loop
    vertex 203.7541180914464 -434.49999999998386 108.05987705743964
    vertex 258.6033372270065 -416.7551290767258 106.33646474147261
    vertex 201.9730217161881 -434.49999999998437 107.77485653463567
  endloop
endfacet
facet normal -0.13643106009008538 0.5045090585284451 0.852559191907188
  outer loop
    vertex 257.37429140791755 -420.68485492388703 108.46523454497272
    vertex 258.6033372270065 -416.7551290767258 106.33646474147261
    vertex 203.7541180914464 -434.49999999998386 108.05987705743964
  endloop
endfacet
facet normal -0.06524702696399123 -0.28443546958839433 0.9564723148697981
  outer loop
    vertex 197.00415295179275 -360.82265118340325 105.53113123622752
    vertex 258.6722553617673 -372.6620851593754 106.21709503041694
    vertex 199.02203359635658 -354.49999999998505 107.54901188077908
  endloop
endfacet
facet normal -0.06524702696399123 -0.28443546958839433 0.9564723148697981
  outer loop
    vertex 201.70573759736473 -354.4999999999847 107.73208430702175
    vertex 199.02203359635658 -354.49999999998505 107.54901188077908
    vertex 258.6722553617673 -372.6620851593754 106.21709503041694
  endloop
endfacet
facet normal -0.06524702696399123 -0.28443546958839433 0.9564723148697981
  outer loop
    vertex 258.6033372270065 -372.24487092324796 106.33646474138503
    vertex 201.70573759736473 -354.4999999999847 107.73208430702175
    vertex 258.6722553617673 -372.6620851593754 106.21709503041694
  endloop
endfacet
facet normal -0.0010370313630274249 0.0321112547804173 0.9994837626907099
  outer loop
    vertex 192.4745561643725 -394.531563671348 101.001534448874
    vertex 192.54743654127344 -396.79765930033915 101.07441482577951
    vertex 261.56142512312425 -398.87949078643703 101.21290621210706
  endloop
endfacet
facet normal -0.0010370313630274249 0.0321112547804173 0.9994837626907099
  outer loop
    vertex 194.12729468360416 -403.1170918696613 101.27908375526067
    vertex 261.56142512312425 -398.87949078643703 101.21290621210706
    vertex 192.54743654127344 -396.79765930033915 101.07441482577951
  endloop
endfacet
facet normal -0.0010370313630274249 0.0321112547804173 0.9994837626907099
  outer loop
    vertex 261.56047016667037 -398.9310044863831 101.21456024520441
    vertex 261.56142512312425 -398.87949078643703 101.21290621210706
    vertex 194.12729468360416 -403.1170918696613 101.27908375526067
  endloop
endfacet
facet normal -0.7071067811865457 1.394584325725895e-12 0.7071067811865495
  outer loop
    vertex 191.9730217161882 -394.49999999999886 100.50000000068944
    vertex 192.75342006422215 -385.79762133834726 101.28039834870641
    vertex 191.9730217161882 -354.499999999999 100.50000000061053
  endloop
endfacet
facet normal -0.7071067811865457 1.394584325725895e-12 0.7071067811865495
  outer loop
    vertex 193.590232820703 -377.23535637803354 102.11721110517004
    vertex 191.9730217161882 -354.499999999999 100.50000000061053
    vertex 192.75342006422215 -385.79762133834726 101.28039834870641
  endloop
endfacet
facet normal -0.7071067811865457 1.394584325725895e-12 0.7071067811865495
  outer loop
    vertex 194.97034229980696 -368.95087475062553 103.49732058425778
    vertex 191.9730217161882 -354.499999999999 100.50000000061053
    vertex 193.590232820703 -377.23535637803354 102.11721110517004
  endloop
endfacet
facet normal -0.7071067811865457 1.394584325725895e-12 0.7071067811865495
  outer loop
    vertex 196.8719918163249 -361.07692296191436 105.39897010076038
    vertex 191.9730217161882 -354.499999999999 100.50000000061053
    vertex 194.97034229980696 -368.95087475062553 103.49732058425778
  endloop
endfacet
facet normal -0.7071067811865457 1.394584325725895e-12 0.7071067811865495
  outer loop
    vertex 199.02203359635658 -354.49999999998505 107.54901188077908
    vertex 191.9730217161882 -354.499999999999 100.50000000061053
    vertex 196.8719918163249 -361.07692296191436 105.39897010076038
  endloop
endfacet
facet normal -0.7071067811865457 1.394584325725895e-12 0.7071067811865495
  outer loop
    vertex 192.4730217161881 -394.4999999999979 101.00000000068951
    vertex 192.75342006422215 -385.79762133834726 101.28039834870641
    vertex 191.9730217161882 -394.49999999999886 100.50000000068944
  endloop
endfacet
facet normal -0.7071067811865457 1.394584325725895e-12 0.7071067811865495
  outer loop
    vertex 192.4745561643725 -394.4684363286479 101.00153444887374
    vertex 192.75342006422215 -385.79762133834726 101.28039834870641
    vertex 192.4730217161881 -394.4999999999979 101.00000000068951
  endloop
endfacet
facet normal -0.7071067811865457 1.394584325725895e-12 0.7071067811865495
  outer loop
    vertex 192.76061943196035 -385.7489688939543 101.28759771644451
    vertex 193.590232820703 -377.23535637803354 102.11721110517004
    vertex 192.75342006422215 -385.79762133834726 101.28039834870641
  endloop
endfacet
facet normal -0.7071067811865457 1.394584325725895e-12 0.7071067811865495
  outer loop
    vertex 193.61501971952666 -377.1380124823286 102.1419980039938
    vertex 194.97034229980696 -368.95087475062553 103.49732058425778
    vertex 193.590232820703 -377.23535637803354 102.11721110517004
  endloop
endfacet
facet normal -0.7071067811865457 1.394584325725895e-12 0.7071067811865495
  outer loop
    vertex 195.0341157351405 -368.7809393910492 103.56109401959108
    vertex 196.8719918163249 -361.07692296191436 105.39897010076038
    vertex 194.97034229980696 -368.95087475062553 103.49732058425778
  endloop
endfacet
facet normal -0.7071067811865457 1.394584325725895e-12 0.7071067811865495
  outer loop
    vertex 197.00415295179275 -360.82265118340325 105.53113123622752
    vertex 199.02203359635658 -354.49999999998505 107.54901188077908
    vertex 196.8719918163249 -361.07692296191436 105.39897010076038
  endloop
endfacet
facet normal -0.7071067811865457 1.394584325725895e-12 0.7071067811865495
  outer loop
    vertex 191.9730217161882 -394.49999999999886 100.50000000068944
    vertex 192.54743654127344 -396.79765930033915 101.07441482577951
    vertex 192.4730217161881 -394.4999999999979 101.00000000068951
  endloop
endfacet
facet normal -0.7071067811865457 1.394584325725895e-12 0.7071067811865495
  outer loop
    vertex 192.4745561643725 -394.531563671348 101.001534448874
    vertex 192.4730217161881 -394.4999999999979 101.00000000068951
    vertex 192.54743654127344 -396.79765930033915 101.07441482577951
  endloop
endfacet
facet normal -1.0 0.0 0.0
  outer loop
    vertex 191.9730217161882 -394.4999999999998 100.00000000068965
    vertex 191.9730217161882 -394.49999999999886 100.50000000068944
    vertex 191.9730217161882 -354.4999999999998 100.00000000061074
  endloop
endfacet
facet normal -1.0 0.0 0.0
  outer loop
    vertex 191.9730217161882 -354.499999999999 100.50000000061053
    vertex 191.9730217161882 -354.4999999999998 100.00000000061074
    vertex 191.9730217161882 -394.49999999999886 100.50000000068944
  endloop
endfacet
facet normal -0.008067507100591498 -0.14520841903170573 0.989368197574338
  outer loop
    vertex 192.75342006422215 -385.79762133834726 101.28039834870641
    vertex 261.56047016667037 -390.06899551361096 101.21456024518699
    vertex 192.76061943196035 -385.7489688939543 101.28759771644451
  endloop
endfacet
facet normal -0.008067507100591498 -0.14520841903170573 0.989368197574338
  outer loop
    vertex 261.1946007333428 -385.7309641141842 101.84826469263795
    vertex 192.76061943196035 -385.7489688939543 101.28759771644451
    vertex 261.56047016667037 -390.06899551361096 101.21456024518699
  endloop
endfacet
facet normal -0.02614208416793719 0.24041753892860238 0.9703174730009095
  outer loop
    vertex 196.20788295194717 -411.43944494303236 102.10716013092474
    vertex 196.27162794876537 -411.6944249303046 102.17205444628074
    vertex 261.18918104973676 -403.366619608568 101.8576518600396
  endloop
endfacet
facet normal -0.02614208416793719 0.24041753892860238 0.9703174730009095
  outer loop
    vertex 260.5875459072971 -407.63777047036695 102.89971449437222
    vertex 261.18918104973676 -403.366619608568 101.8576518600396
    vertex 196.27162794876537 -411.6944249303046 102.17205444628074
  endloop
endfacet
facet normal 1.0 0.0 0.0
  outer loop
    vertex 261.97302171618816 -419.49999999999955 100.00000000073867
    vertex 261.97302171618816 -369.49999999999955 100.00000000064037
    vertex 261.97302171618816 -419.49999999999864 100.50000000073865
  endloop
endfacet
facet normal 1.0 0.0 0.0
  outer loop
    vertex 261.97302171618816 -369.49999999999864 100.50000000064034
    vertex 261.97302171618816 -419.49999999999864 100.50000000073865
    vertex 261.97302171618816 -369.49999999999955 100.00000000064037
  endloop
endfacet
facet normal -0.008129237321199504 0.09619819330448408 0.9953290024436788
  outer loop
    vertex 194.16087159325824 -403.25139950827725 101.29906972395626
    vertex 196.20788295194717 -411.43944494303236 102.10716013092474
    vertex 261.1946007333428 -403.26903588580745 101.84826469267237
  endloop
endfacet
facet normal -0.008129237321199504 0.09619819330448408 0.9953290024436788
  outer loop
    vertex 261.18918104973676 -403.366619608568 101.8576518600396
    vertex 261.1946007333428 -403.26903588580745 101.84826469267237
    vertex 196.20788295194717 -411.43944494303236 102.10716013092474
  endloop
endfacet
facet normal -4.10628591122942e-16 0.04855703096601517 0.9988204116575539
  outer loop
    vertex 192.4730217161881 -394.4999999999979 101.00000000068951
    vertex 192.4745561643725 -394.531563671348 101.001534448874
    vertex 261.6843465815933 -394.49999999999744 101.00000000068951
  endloop
endfacet
facet normal -4.10628591122942e-16 0.04855703096601517 0.9988204116575539
  outer loop
    vertex 261.56142512312425 -398.87949078643703 101.21290621210706
    vertex 261.6843465815933 -394.49999999999744 101.00000000068951
    vertex 192.4745561643725 -394.531563671348 101.001534448874
  endloop
endfacet
facet normal -0.09579191040989772 0.344390495229946 0.9339267084173656
  outer loop
    vertex 203.7541180914464 -434.49999999998386 108.05987705743964
    vertex 221.97302171618824 -434.4999999999802 109.92857142933963
    vertex 257.37429140791755 -420.68485492388703 108.46523454497272
  endloop
endfacet
facet normal -0.09579191040989772 0.344390495229946 0.9339267084173656
  outer loop
    vertex 257.2569763461024 -421.2685170137649 108.66843019253095
    vertex 257.37429140791755 -420.68485492388703 108.46523454497272
    vertex 221.97302171618824 -434.4999999999802 109.92857142933963
  endloop
endfacet
facet normal -0.008129237321198511 -0.09619819330056782 0.9953290024440573
  outer loop
    vertex 192.76061943196035 -385.7489688939543 101.28759771644451
    vertex 261.1946007333428 -385.7309641141842 101.84826469263795
    vertex 193.590232820703 -377.23535637803354 102.11721110517004
  endloop
endfacet
facet normal -0.008129237321198511 -0.09619819330056782 0.9953290024440573
  outer loop
    vertex 261.18918104973676 -385.6333803914235 101.85765186000475
    vertex 193.590232820703 -377.23535637803354 102.11721110517004
    vertex 261.1946007333428 -385.7309641141842 101.84826469263795
  endloop
endfacet
facet normal -0.04032932902627895 0.22274714361949252 0.974041711237074
  outer loop
    vertex 198.29901210653037 -419.80396156136163 103.60134789422338
    vertex 200.12616290305522 -427.1125647474578 105.34835547056568
    vertex 259.74506485528855 -411.9917081015743 104.35893448087398
  endloop
endfacet
facet normal -0.04032932902627895 0.22274714361949252 0.974041711237074
  outer loop
    vertex 259.70887354907615 -412.2723741123682 104.42161966202694
    vertex 259.74506485528855 -411.9917081015743 104.35893448087398
    vertex 200.12616290305522 -427.1125647474578 105.34835547056568
  endloop
endfacet
facet normal -0.008067507100593063 0.1452084190355998 0.9893681975737667
  outer loop
    vertex 194.12729468360416 -403.1170918696613 101.27908375526067
    vertex 194.16087159325824 -403.25139950827725 101.29906972395626
    vertex 261.56047016667037 -398.9310044863831 101.21456024520441
  endloop
endfacet
facet normal -0.008067507100593063 0.1452084190355998 0.9893681975737667
  outer loop
    vertex 261.1946007333428 -403.26903588580745 101.84826469267237
    vertex 261.56047016667037 -398.9310044863831 101.21456024520441
    vertex 194.16087159325824 -403.25139950827725 101.29906972395626
  endloop
endfacet
facet normal -0.02124865728389464 -0.15985858540459918 0.9869112053452794
  outer loop
    vertex 193.61501971952666 -377.1380124823286 102.1419980039938
    vertex 260.5875459072971 -381.3622295296206 102.89971449432062
    vertex 194.97034229980696 -368.95087475062553 103.49732058425778
  endloop
endfacet
facet normal -0.02124865728389464 -0.15985858540459918 0.9869112053452794
  outer loop
    vertex 260.57146796442555 -381.18816972392466 102.92756230825508
    vertex 194.97034229980696 -368.95087475062553 103.49732058425778
    vertex 260.5875459072971 -381.3622295296206 102.89971449432062
  endloop
endfacet
facet normal 2.6394048031557184e-16 -0.04855703096207885 0.9988204116577453
  outer loop
    vertex 192.4730217161881 -394.4999999999979 101.00000000068951
    vertex 261.6843465815933 -394.49999999999744 101.00000000068951
    vertex 192.4745561643725 -394.4684363286479 101.00153444887374
  endloop
endfacet
facet normal 2.6394048031557184e-16 -0.04855703096207885 0.9988204116577453
  outer loop
    vertex 261.56142512312425 -390.1205092135575 101.2129062120897
    vertex 192.4745561643725 -394.4684363286479 101.00153444887374
    vertex 261.6843465815933 -394.49999999999744 101.00000000068951
  endloop
endfacet
facet normal -0.09098365350633912 -0.42163501581700813 0.9021894968528673
  outer loop
    vertex 196.8719918163249 -361.07692296191436 105.39897010076038
    vertex 259.7088735490758 -376.72762588761356 104.42161966195678
    vertex 197.00415295179275 -360.82265118340325 105.53113123622752
  endloop
endfacet
facet normal -0.09098365350633912 -0.42163501581700813 0.9021894968528673
  outer loop
    vertex 258.6722553617673 -372.6620851593754 106.21709503041694
    vertex 197.00415295179275 -360.82265118340325 105.53113123622752
    vertex 259.7088735490758 -376.72762588761356 104.42161966195678
  endloop
endfacet
facet normal -0.05394819685128698 0.33303244338177224 0.9413708003287874
  outer loop
    vertex 198.20925555599317 -419.4449353592128 103.46919000558539
    vertex 198.29901210653037 -419.80396156136163 103.60134789422338
    vertex 260.57146796442555 -407.8118302760625 102.92756230830756
  endloop
endfacet
facet normal -0.05394819685128698 0.33303244338177224 0.9413708003287874
  outer loop
    vertex 259.74506485528855 -411.9917081015743 104.35893448087398
    vertex 260.57146796442555 -407.8118302760625 102.92756230830756
    vertex 198.29901210653037 -419.80396156136163 103.60134789422338
  endloop
endfacet
facet normal -0.02124865728389679 0.1598585854084892 0.9869112053446492
  outer loop
    vertex 196.27162794876537 -411.6944249303046 102.17205444628074
    vertex 198.20925555599317 -419.4449353592128 103.46919000558539
    vertex 260.5875459072971 -407.63777047036695 102.89971449437222
  endloop
endfacet
facet normal -0.02124865728389679 0.1598585854084892 0.9869112053446492
  outer loop
    vertex 260.57146796442555 -407.8118302760625 102.92756230830756
    vertex 260.5875459072971 -407.63777047036695 102.89971449437222
    vertex 198.20925555599317 -419.4449353592128 103.46919000558539
  endloop
endfacet
facet normal -0.06524702696399132 0.2844354695921468 0.9564723148686821
  outer loop
    vertex 200.2371844405102 -427.5566508972771 105.56709379171564
    vertex 201.95368930548693 -434.4226703571799 107.72600239410284
    vertex 258.6722553617677 -416.33791484059907 106.21709503050317
  endloop
endfacet
facet normal -0.06524702696399132 0.2844354695921468 0.9564723148686821
  outer loop
    vertex 258.6033372270065 -416.7551290767258 106.33646474147261
    vertex 258.6722553617677 -416.33791484059907 106.21709503050317
    vertex 201.95368930548693 -434.4226703571799 107.72600239410284
  endloop
endfacet
facet normal 0.3511234415883776 0.9363291775690499 -1.844718788293635e-12
  outer loop
    vertex 221.97302171618824 -354.4999999999802 109.92857142918203
    vertex 238.5303927947216 -360.70901415443115 109.33723674781825
    vertex 221.97302171618824 -354.4999999999998 100.00000000061064
  endloop
endfacet
facet normal 0.3511234415883776 0.9363291775690499 -1.844718788293635e-12
  outer loop
    vertex 238.5303927947216 -360.7090141544495 100.00000000062302
    vertex 221.97302171618824 -354.4999999999998 100.00000000061064
    vertex 238.5303927947216 -360.70901415443115 109.33723674781825
  endloop
endfacet
facet normal -0.026142084167934038 -0.2404175389247837 0.9703174730018557
  outer loop
    vertex 193.590232820703 -377.23535637803354 102.11721110517004
    vertex 261.18918104973676 -385.6333803914235 101.85765186000475
    vertex 193.61501971952666 -377.1380124823286 102.1419980039938
  endloop
endfacet
facet normal -0.026142084167934038 -0.2404175389247837 0.9703174730018557
  outer loop
    vertex 260.5875459072971 -381.3622295296206 102.89971449432062
    vertex 193.61501971952666 -377.1380124823286 102.1419980039938
    vertex 261.18918104973676 -385.6333803914235 101.85765186000475
  endloop
endfacet
facet normal -0.0909836535063461 0.4216350158205708 0.9021894968512015
  outer loop
    vertex 200.12616290305522 -427.1125647474578 105.34835547056568
    vertex 200.2371844405102 -427.5566508972771 105.56709379171564
    vertex 259.70887354907615 -412.2723741123682 104.42161966202694
  endloop
endfacet
facet normal -0.0909836535063461 0.4216350158205708 0.9021894968512015
  outer loop
    vertex 258.6722553617677 -416.33791484059907 106.21709503050317
    vertex 259.70887354907615 -412.2723741123682 104.42161966202694
    vertex 200.2371844405102 -427.5566508972771 105.56709379171564
  endloop
endfacet
facet normal -0.001037031363026989 -0.032111254776476736 0.9994837626908365
  outer loop
    vertex 192.4745561643725 -394.4684363286479 101.00153444887374
    vertex 261.56142512312425 -390.1205092135575 101.2129062120897
    vertex 192.75342006422215 -385.79762133834726 101.28039834870641
  endloop
endfacet
facet normal -0.001037031363026989 -0.032111254776476736 0.9994837626908365
  outer loop
    vertex 261.56047016667037 -390.06899551361096 101.21456024518699
    vertex 192.75342006422215 -385.79762133834726 101.28039834870641
    vertex 261.56142512312425 -390.1205092135575 101.2129062120897
  endloop
endfacet
facet normal -0.05394819685128369 -0.3330324433780673 0.9413708003300982
  outer loop
    vertex 194.97034229980696 -368.95087475062553 103.49732058425778
    vertex 260.57146796442555 -381.18816972392466 102.92756230825508
    vertex 195.0341157351405 -368.7809393910492 103.56109401959108
  endloop
endfacet
facet normal -0.05394819685128369 -0.3330324433780673 0.9413708003300982
  outer loop
    vertex 259.74506485528855 -377.0082918984078 104.35893448080513
    vertex 195.0341157351405 -368.7809393910492 103.56109401959108
    vertex 260.57146796442555 -381.18816972392466 102.92756230825508
  endloop
endfacet
facet normal -0.04032932902627627 -0.22274714361565376 0.9740417112379519
  outer loop
    vertex 195.0341157351405 -368.7809393910492 103.56109401959108
    vertex 259.74506485528855 -377.0082918984078 104.35893448080513
    vertex 196.8719918163249 -361.07692296191436 105.39897010076038
  endloop
endfacet
facet normal -0.04032932902627627 -0.22274714361565376 0.9740417112379519
  outer loop
    vertex 259.7088735490758 -376.72762588761356 104.42161966195678
    vertex 196.8719918163249 -361.07692296191436 105.39897010076038
    vertex 259.74506485528855 -377.0082918984078 104.35893448080513
  endloop
endfacet
facet normal -3.4378317360220985e-15 1.0 -1.9655260996726006e-12
  outer loop
    vertex 221.97302171618824 -354.4999999999802 109.92857142918203
    vertex 221.97302171618824 -354.4999999999998 100.00000000061064
    vertex 203.7541180914457 -354.4999999999839 108.05987705728208
  endloop
endfacet
facet normal -3.4378317360220985e-15 1.0 -1.9655260996726006e-12
  outer loop
    vertex 201.70573759736473 -354.4999999999847 107.73208430702175
    vertex 203.7541180914457 -354.4999999999839 108.05987705728208
    vertex 221.97302171618824 -354.4999999999998 100.00000000061064
  endloop
endfacet
facet normal -3.4378317360220985e-15 1.0 -1.9655260996726006e-12
  outer loop
    vertex 199.02203359635658 -354.49999999998505 107.54901188077908
    vertex 201.70573759736473 -354.4999999999847 107.73208430702175
    vertex 221.97302171618824 -354.4999999999998 100.00000000061064
  endloop
endfacet
facet normal -3.4378317360220985e-15 1.0 -1.9655260996726006e-12
  outer loop
    vertex 191.9730217161882 -354.499999999999 100.50000000061053
    vertex 199.02203359635658 -354.49999999998505 107.54901188077908
    vertex 221.97302171618824 -354.4999999999998 100.00000000061064
  endloop
endfacet
facet normal -3.4378317360220985e-15 1.0 -1.9655260996726006e-12
  outer loop
    vertex 191.9730217161882 -354.4999999999998 100.00000000061074
    vertex 191.9730217161882 -354.499999999999 100.50000000061053
    vertex 221.97302171618824 -354.4999999999998 100.00000000061064
  endloop
endfacet
facet normal 0.8660254037844407 9.878446664050185e-13 0.4999999999999962
  outer loop
    vertex 257.2569763461024 -421.2685170137649 108.66843019253095
    vertex 261.97302171618816 -419.49999999999864 100.50000000073865
    vertex 257.37429140791755 -420.68485492388703 108.46523454497272
  endloop
endfacet
facet normal 0.8660254037844407 9.878446664050185e-13 0.4999999999999962
  outer loop
    vertex 258.6033372270065 -416.7551290767258 106.33646474147261
    vertex 257.37429140791755 -420.68485492388703 108.46523454497272
    vertex 261.97302171618816 -419.49999999999864 100.50000000073865
  endloop
endfacet
facet normal 0.8660254037844407 9.878446664050185e-13 0.4999999999999962
  outer loop
    vertex 259.70887354907615 -412.2723741123682 104.42161966202694
    vertex 258.6033372270065 -416.7551290767258 106.33646474147261
    vertex 261.97302171618816 -419.49999999999864 100.50000000073865
  endloop
endfacet
facet normal 0.8660254037844407 9.878446664050185e-13 0.4999999999999962
  outer loop
    vertex 260.57146796442555 -407.8118302760625 102.92756230830756
    vertex 259.70887354907615 -412.2723741123682 104.42161966202694
    vertex 261.97302171618816 -419.49999999999864 100.50000000073865
  endloop
endfacet
facet normal 0.8660254037844407 9.878446664050185e-13 0.4999999999999962
  outer loop
    vertex 261.18918104973676 -403.366619608568 101.8576518600396
    vertex 260.57146796442555 -407.8118302760625 102.92756230830756
    vertex 261.97302171618816 -419.49999999999864 100.50000000073865
  endloop
endfacet
facet normal 0.8660254037844407 9.878446664050185e-13 0.4999999999999962
  outer loop
    vertex 261.56047016667037 -398.9310044863831 101.21456024520441
    vertex 261.18918104973676 -403.366619608568 101.8576518600396
    vertex 261.97302171618816 -419.49999999999864 100.50000000073865
  endloop
endfacet
facet normal 0.8660254037844407 9.878446664050185e-13 0.4999999999999962
  outer loop
    vertex 261.6843465815933 -394.49999999999744 101.00000000068951
    vertex 261.56047016667037 -398.9310044863831 101.21456024520441
    vertex 261.97302171618816 -419.49999999999864 100.50000000073865
  endloop
endfacet
facet normal 0.8660254037844407 9.878446664050185e-13 0.4999999999999962
  outer loop
    vertex 261.97302171618816 -369.49999999999864 100.50000000064034
    vertex 261.6843465815933 -394.49999999999744 101.00000000068951
    vertex 261.97302171618816 -419.49999999999864 100.50000000073865
  endloop
endfacet
facet normal 0.8660254037844407 9.878446664050185e-13 0.4999999999999962
  outer loop
    vertex 258.6722553617677 -416.33791484059907 106.21709503050317
    vertex 258.6033372270065 -416.7551290767258 106.33646474147261
    vertex 259.70887354907615 -412.2723741123682 104.42161966202694
  endloop
endfacet
facet normal 0.8660254037844407 9.878446664050185e-13 0.4999999999999962
  outer loop
    vertex 259.74506485528855 -411.9917081015743 104.35893448087398
    vertex 259.70887354907615 -412.2723741123682 104.42161966202694
    vertex 260.57146796442555 -407.8118302760625 102.92756230830756
  endloop
endfacet
facet normal 0.8660254037844407 9.878446664050185e-13 0.4999999999999962
  outer loop
    vertex 260.5875459072971 -407.63777047036695 102.89971449437222
    vertex 260.57146796442555 -407.8118302760625 102.92756230830756
    vertex 261.18918104973676 -403.366619608568 101.8576518600396
  endloop
endfacet
facet normal 0.8660254037844407 9.878446664050185e-13 0.4999999999999962
  outer loop
    vertex 261.1946007333428 -403.26903588580745 101.84826469267237
    vertex 261.18918104973676 -403.366619608568 101.8576518600396
    vertex 261.56047016667037 -398.9310044863831 101.21456024520441
  endloop
endfacet
facet normal 0.8660254037844407 9.878446664050185e-13 0.4999999999999962
  outer loop
    vertex 261.56142512312425 -398.87949078643703 101.21290621210706
    vertex 261.56047016667037 -398.9310044863831 101.21456024520441
    vertex 261.6843465815933 -394.49999999999744 101.00000000068951
  endloop
endfacet
facet normal 0.8660254037844407 9.878446664050185e-13 0.4999999999999962
  outer loop
    vertex 261.56142512312425 -390.1205092135575 101.2129062120897
    vertex 261.6843465815933 -394.49999999999744 101.00000000068951
    vertex 261.97302171618816 -369.49999999999864 100.50000000064034
  endloop
endfacet
facet normal 0.8660254037844407 9.878446664050185e-13 0.4999999999999962
  outer loop
    vertex 261.56047016667037 -390.06899551361096 101.21456024518699
    vertex 261.56142512312425 -390.1205092135575 101.2129062120897
    vertex 261.97302171618816 -369.49999999999864 100.50000000064034
  endloop
endfacet
facet normal 0.8660254037844407 9.878446664050185e-13 0.4999999999999962
  outer loop
    vertex 261.1946007333428 -385.7309641141842 101.84826469263795
    vertex 261.56047016667037 -390.06899551361096 101.21456024518699
    vertex 261.97302171618816 -369.49999999999864 100.50000000064034
  endloop
endfacet
facet normal 0.8660254037844407 9.878446664050185e-13 0.4999999999999962
  outer loop
    vertex 261.18918104973676 -385.6333803914235 101.85765186000475
    vertex 261.1946007333428 -385.7309641141842 101.84826469263795
    vertex 261.97302171618816 -369.49999999999864 100.50000000064034
  endloop
endfacet
facet normal 0.8660254037844407 9.878446664050185e-13 0.4999999999999962
  outer loop
    vertex 260.5875459072971 -381.3622295296206 102.89971449432062
    vertex 261.18918104973676 -385.6333803914235 101.85765186000475
    vertex 261.97302171618816 -369.49999999999864 100.50000000064034
  endloop
endfacet
facet normal 0.8660254037844407 9.878446664050185e-13 0.4999999999999962
  outer loop
    vertex 260.57146796442555 -381.18816972392466 102.92756230825508
    vertex 260.5875459072971 -381.3622295296206 102.89971449432062
    vertex 261.97302171618816 -369.49999999999864 100.50000000064034
  endloop
endfacet
facet normal 0.8660254037844407 9.878446664050185e-13 0.4999999999999962
  outer loop
    vertex 259.74506485528855 -377.0082918984078 104.35893448080513
    vertex 260.57146796442555 -381.18816972392466 102.92756230825508
    vertex 261.97302171618816 -369.49999999999864 100.50000000064034
  endloop
endfacet
facet normal 0.8660254037844407 9.878446664050185e-13 0.4999999999999962
  outer loop
    vertex 259.7088735490758 -376.72762588761356 104.42161966195678
    vertex 259.74506485528855 -377.0082918984078 104.35893448080513
    vertex 261.97302171618816 -369.49999999999864 100.50000000064034
  endloop
endfacet
facet normal 0.8660254037844407 9.878446664050185e-13 0.4999999999999962
  outer loop
    vertex 258.6722553617673 -372.6620851593754 106.21709503041694
    vertex 259.7088735490758 -376.72762588761356 104.42161966195678
    vertex 261.97302171618816 -369.49999999999864 100.50000000064034
  endloop
endfacet
facet normal 0.8660254037844407 9.878446664050185e-13 0.4999999999999962
  outer loop
    vertex 258.6033372270065 -372.24487092324796 106.33646474138503
    vertex 258.6722553617673 -372.6620851593754 106.21709503041694
    vertex 261.97302171618816 -369.49999999999864 100.50000000064034
  endloop
endfacet
facet normal 0.26495428385892367 0.5116897292989053 0.81729605920671
  outer loop
    vertex 251.5248419001818 -355.8261946494732 114.26943802098485
    vertex 265.3302139542048 -361.6317834328345 113.42869945965153
    vertex 252.4113381172068 -355.57727101760673 113.82620495745698
  endloop
endfacet
facet normal 0.26495428385892367 0.5116897292989053 0.81729605920671
  outer loop
    vertex 265.72598294037044 -361.1764937214435 113.015351378902
    vertex 252.4113381172068 -355.57727101760673 113.82620495745698
    vertex 265.3302139542048 -361.6317834328345 113.42869945965153
  endloop
endfacet
facet normal -0.9363291775691029 0.3511234415882359 -6.921582568438393e-13
  outer loop
    vertex 238.5303927947216 -360.7090141544495 100.00000000062302
    vertex 238.5303927947216 -360.70901415443115 109.33723674781825
    vertex 239.047622710562 -359.3297343788703 102.10426110006644
  endloop
endfacet
facet normal -0.9363291775691029 0.3511234415882359 -6.921582568438393e-13
  outer loop
    vertex 239.047622710562 -359.3297343788543 110.18898675303481
    vertex 239.047622710562 -359.3297343788703 102.10426110006644
    vertex 238.5303927947216 -360.70901415443115 109.33723674781825
  endloop
endfacet
facet normal -0.09579191040989503 -0.3443904952262664 0.9339267084187226
  outer loop
    vertex 203.7541180914457 -354.4999999999839 108.05987705728208
    vertex 259.0109306519403 -368.7368223515319 108.4776072011109
    vertex 221.97302171618824 -354.4999999999802 109.92857142918203
  endloop
endfacet
facet normal -0.09579191040989503 -0.3443904952262664 0.9339267084187226
  outer loop
    vertex 238.5303927947216 -360.70901415443115 109.33723674781825
    vertex 221.97302171618824 -354.4999999999802 109.92857142918203
    vertex 259.0109306519403 -368.7368223515319 108.4776072011109
  endloop
endfacet
facet normal -0.09579191040989503 -0.3443904952262664 0.9339267084187226
  outer loop
    vertex 259.12858852330703 -368.43333755265195 108.6015869003841
    vertex 238.5303927947216 -360.70901415443115 109.33723674781825
    vertex 259.0109306519403 -368.7368223515319 108.4776072011109
  endloop
endfacet
facet normal 0.2876458364770341 0.7670555639376363 -0.5734855138447198
  outer loop
    vertex 252.4113381172068 -355.57727101760673 113.82620495745698
    vertex 265.72598294037044 -361.1764937214435 113.015351378902
    vertex 239.047622710562 -359.3297343788703 102.10426110006644
  endloop
endfacet
facet normal 0.2876458364770341 0.7670555639376363 -0.5734855138447198
  outer loop
    vertex 261.97302171618816 -369.49999999999955 100.00000000064037
    vertex 239.047622710562 -359.3297343788703 102.10426110006644
    vertex 265.72598294037044 -361.1764937214435 113.015351378902
  endloop
endfacet
facet normal 0.2876458364770341 0.7670555639376363 -0.5734855138447198
  outer loop
    vertex 238.5303927947216 -360.7090141544495 100.00000000062302
    vertex 239.047622710562 -359.3297343788703 102.10426110006644
    vertex 261.97302171618816 -369.49999999999955 100.00000000064037
  endloop
endfacet
facet normal 0.8066884244641833 -0.5741655408842805 0.1399561270418537
  outer loop
    vertex 265.3302139542048 -361.6317834328345 113.42869945965153
    vertex 261.97302171618816 -369.49999999999864 100.50000000064034
    vertex 265.72598294037044 -361.1764937214435 113.015351378902
  endloop
endfacet
facet normal 0.9116186420880307 -0.41103704382643536 8.138594297817613e-13
  outer loop
    vertex 261.97302171618816 -369.49999999999864 100.50000000064034
    vertex 261.97302171618816 -369.49999999999955 100.00000000064037
    vertex 265.72598294037044 -361.1764937214435 113.015351378902
  endloop
endfacet
facet normal 0.5861986056529743 -0.7507058459114497 0.3046505008118048
  outer loop
    vertex 265.3302139542048 -361.6317834328345 113.42869945965153
    vertex 259.12858852330703 -368.43333755265195 108.6015869003841
    vertex 261.97302171618816 -369.49999999999864 100.50000000064034
  endloop
endfacet
facet normal -0.13643106009008094 -0.5045090585250932 0.8525591919091722
  outer loop
    vertex 201.70573759736473 -354.4999999999847 107.73208430702175
    vertex 258.6033372270065 -372.24487092324796 106.33646474138503
    vertex 203.7541180914457 -354.4999999999839 108.05987705728208
  endloop
endfacet
facet normal -0.13643106009008094 -0.5045090585250932 0.8525591919091722
  outer loop
    vertex 259.0109306519403 -368.7368223515319 108.4776072011109
    vertex 203.7541180914457 -354.4999999999839 108.05987705728208
    vertex 258.6033372270065 -372.24487092324796 106.33646474138503
  endloop
endfacet
facet normal -0.270339531921994 0.9627650479115855 -1.896300092712963e-12
  outer loop
    vertex 251.5248419001818 -355.8261946494732 114.26943802098485
    vertex 252.4113381172068 -355.57727101760673 113.82620495745698
    vertex 239.047622710562 -359.3297343788543 110.18898675303481
  endloop
endfacet
facet normal -0.270339531921994 0.9627650479115855 -1.896300092712963e-12
  outer loop
    vertex 239.047622710562 -359.3297343788703 102.10426110006644
    vertex 239.047622710562 -359.3297343788543 110.18898675303481
    vertex 252.4113381172068 -355.57727101760673 113.82620495745698
  endloop
endfacet
facet normal 0.8779066611021769 -0.319619257815981 0.35654372021617387
  outer loop
    vertex 258.6033372270065 -372.24487092324796 106.33646474138503
    vertex 261.97302171618816 -369.49999999999864 100.50000000064034
    vertex 259.0109306519403 -368.7368223515319 108.4776072011109
  endloop
endfacet
facet normal 0.8176714571585634 -0.45896714585014997 0.34750906057016523
  outer loop
    vertex 259.0109306519403 -368.7368223515319 108.4776072011109
    vertex 261.97302171618816 -369.49999999999864 100.50000000064034
    vertex 259.12858852330703 -368.43333755265195 108.6015869003841
  endloop
endfacet
facet normal -2.718819550887577e-15 -1.0 1.979043252020715e-12
  outer loop
    vertex 221.97302171618824 -434.4999999999802 109.92857142933963
    vertex 203.7541180914464 -434.49999999998386 108.05987705743964
    vertex 221.97302171619046 -434.49999999999983 100.00000000076813
  endloop
endfacet
facet normal -2.718819550887577e-15 -1.0 1.979043252020715e-12
  outer loop
    vertex 201.9730217161881 -434.49999999998437 107.77485653463567
    vertex 221.97302171619046 -434.49999999999983 100.00000000076813
    vertex 203.7541180914464 -434.49999999998386 108.05987705743964
  endloop
endfacet
facet normal -2.718819550887577e-15 -1.0 1.979043252020715e-12
  outer loop
    vertex 201.97302171618847 -434.49999999999983 100.00000000076821
    vertex 221.97302171619046 -434.49999999999983 100.00000000076813
    vertex 201.9730217161881 -434.49999999998437 107.77485653463567
  endloop
endfacet
facet normal 7.33519854457237e-16 -1.9686449181047286e-12 -1.0
  outer loop
    vertex 191.9730217161882 -394.4999999999998 100.00000000068965
    vertex 191.9730217161882 -354.4999999999998 100.00000000061074
    vertex 201.97302171618847 -434.49999999999983 100.00000000076821
  endloop
endfacet
facet normal 7.33519854457237e-16 -1.9686449181047286e-12 -1.0
  outer loop
    vertex 221.97302171618824 -354.4999999999998 100.00000000061064
    vertex 201.97302171618847 -434.49999999999983 100.00000000076821
    vertex 191.9730217161882 -354.4999999999998 100.00000000061074
  endloop
endfacet
facet normal 7.33519854457237e-16 -1.9686449181047286e-12 -1.0
  outer loop
    vertex 221.97302171619046 -434.49999999999983 100.00000000076813
    vertex 201.97302171618847 -434.49999999999983 100.00000000076821
    vertex 221.97302171618824 -354.4999999999998 100.00000000061064
  endloop
endfacet
facet normal 7.33519854457237e-16 -1.9686449181047286e-12 -1.0
  outer loop
    vertex 238.5303927947216 -360.7090141544495 100.00000000062302
    vertex 221.97302171619046 -434.49999999999983 100.00000000076813
    vertex 221.97302171618824 -354.4999999999998 100.00000000061064
  endloop
endfacet
facet normal 7.33519854457237e-16 -1.9686449181047286e-12 -1.0
  outer loop
    vertex 261.97302171618816 -419.49999999999955 100.00000000073867
    vertex 221.97302171619046 -434.49999999999983 100.00000000076813
    vertex 238.5303927947216 -360.7090141544495 100.00000000062302
  endloop
endfacet
facet normal 7.33519854457237e-16 -1.9686449181047286e-12 -1.0
  outer loop
    vertex 261.97302171618816 -369.49999999999955 100.00000000064037
    vertex 261.97302171618816 -419.49999999999955 100.00000000073867
    vertex 238.5303927947216 -360.7090141544495 100.00000000062302
  endloop
endfacet
facet normal -0.14859014529512532 -0.47865363028070956 0.8653390497026421
  outer loop
    vertex 238.5303927947216 -360.70901415443115 109.33723674781825
    vertex 259.12858852330703 -368.43333755265195 108.6015869003841
    vertex 239.047622710562 -359.3297343788543 110.18898675303481
  endloop
endfacet
facet normal -0.14859014529512532 -0.47865363028070956 0.8653390497026421
  outer loop
    vertex 251.5248419001818 -355.8261946494732 114.26943802098485
    vertex 239.047622710562 -359.3297343788543 110.18898675303481
    vertex 259.12858852330703 -368.43333755265195 108.6015869003841
  endloop
endfacet
facet normal -0.14859014529512532 -0.47865363028070956 0.8653390497026421
  outer loop
    vertex 265.3302139542048 -361.6317834328345 113.42869945965153
    vertex 251.5248419001818 -355.8261946494732 114.26943802098485
    vertex 259.12858852330703 -368.43333755265195 108.6015869003841
  endloop
endfacet
endsolid ProtoGlove baseplate
