solid ProtoGlove
facet normal -6.377614485904388e-15 1.0 -6.585524953803131e-13
  outer loop
    vertex -22.499999999999858 42.13183100000091 3.25571901203005
    vertex 2.5000000000001084 42.131830999999416 0.005719012030055204
    vertex -22.49999999999987 42.1318309999993 0.005719012030041562
  endloop
endfacet
facet normal -6.377614485904388e-15 1.0 -6.585524953803131e-13
  outer loop
    vertex 2.5000000000001084 42.131830999999416 0.005719012030055204
    vertex -22.499999999999858 42.13183100000091 3.25571901203005
    vertex 2.500000000000107 42.13183100000097 3.255719012030052
  endloop
endfacet
facet normal 0.7071067811865468 0.7071067811865482 -3.5291705856746457e-13
  outer loop
    vertex -9.207106781186386 31.631830999999803 1.0057190120352946
    vertex -8.207106781186399 30.631831000000076 1.5057190120357857
    vertex -8.207106781186399 30.631830999999828 1.0057190120357895
  endloop
endfacet
facet normal 0.7071067811865468 0.7071067811865482 -3.5291705856746457e-13
  outer loop
    vertex -8.207106781186399 30.631831000000076 1.5057190120357857
    vertex -9.207106781186386 31.631830999999803 1.0057190120352946
    vertex -9.207106781186393 31.63183100000075 2.8807190120352857
  endloop
endfacet
facet normal 0.7071067811865468 0.7071067811865482 -3.5291705856746457e-13
  outer loop
    vertex -8.207106781186399 30.631831000000076 1.5057190120357857
    vertex -9.207106781186393 31.63183100000075 2.8807190120352857
    vertex -8.707106781186388 31.13183100000056 2.5057190120355406
  endloop
endfacet
facet normal 0.7071067811865468 0.7071067811865482 -3.5291705856746457e-13
  outer loop
    vertex -8.707106781186388 31.13183100000056 2.5057190120355406
    vertex -9.207106781186393 31.63183100000075 2.8807190120352857
    vertex -8.207106781186411 30.63183100000095 3.255719012035776
  endloop
endfacet
facet normal -1.0 -3.2588447244810146e-15 2.670498664309593e-15
  outer loop
    vertex -22.49999999999987 42.1318309999993 0.005719012030041562
    vertex -22.499999999999858 41.13183099999978 1.0057190120305612
    vertex -22.499999999999858 42.13183100000091 3.25571901203005
  endloop
endfacet
facet normal -1.0 -3.2588447244810146e-15 2.670498664309593e-15
  outer loop
    vertex -22.499999999999858 41.13183099999978 1.0057190120305612
    vertex -22.49999999999987 42.1318309999993 0.005719012030041562
    vertex -22.499999999999822 29.63183099999922 0.005719012036318039
  endloop
endfacet
facet normal -1.0 -3.2588447244810146e-15 2.670498664309593e-15
  outer loop
    vertex -22.499999999999858 41.13183099999978 1.0057190120305612
    vertex -22.499999999999822 29.63183099999922 0.005719012036318039
    vertex -22.499999999999833 30.631830999999767 1.0057190120358217
  endloop
endfacet
facet normal -1.0 -3.2588447244810146e-15 2.670498664309593e-15
  outer loop
    vertex -22.499999999999833 30.631830999999767 1.0057190120358217
    vertex -22.499999999999822 29.63183099999922 0.005719012036318039
    vertex -22.499999999999833 30.63183100000002 1.505719012035818
  endloop
endfacet
facet normal -1.0 -3.2588447244810146e-15 2.670498664309593e-15
  outer loop
    vertex -22.499999999999833 30.63183100000002 1.505719012035818
    vertex -22.499999999999822 29.63183099999922 0.005719012036318039
    vertex -22.499999999999833 30.631831000000894 3.255719012035805
  endloop
endfacet
facet normal -1.0 -3.2588447244810146e-15 2.670498664309593e-15
  outer loop
    vertex -22.499999999999833 30.631831000000894 3.255719012035805
    vertex -22.499999999999822 29.63183099999922 0.005719012036318039
    vertex -22.499999999999822 29.631831000000897 3.2557190120363195
  endloop
endfacet
facet normal -1.0 -3.2588447244810146e-15 2.670498664309593e-15
  outer loop
    vertex -22.499999999999833 30.631831000000894 3.255719012035805
    vertex -22.499999999999833 31.131831000000513 2.5057190120355677
    vertex -22.499999999999833 30.63183100000002 1.505719012035818
  endloop
endfacet
facet normal -1.0 -3.2588447244810146e-15 2.670498664309593e-15
  outer loop
    vertex -22.499999999999858 41.13183099999978 1.0057190120305612
    vertex -22.499999999999847 41.13183100000091 3.255719012030544
    vertex -22.499999999999858 42.13183100000091 3.25571901203005
  endloop
endfacet
facet normal -1.0 -3.2588447244810146e-15 2.670498664309593e-15
  outer loop
    vertex -22.499999999999847 41.13183100000091 3.255719012030544
    vertex -22.499999999999858 41.13183099999978 1.0057190120305612
    vertex -22.499999999999858 41.13183100000001 1.5057190120305575
  endloop
endfacet
facet normal -1.0 -3.2588447244810146e-15 2.670498664309593e-15
  outer loop
    vertex -22.499999999999847 41.13183100000091 3.255719012030544
    vertex -22.499999999999858 41.13183100000001 1.5057190120305575
    vertex -22.499999999999847 40.631831000000545 2.505719012030807
  endloop
endfacet
facet normal -5.555913843451455e-16 1.0 -5.035844911391522e-13
  outer loop
    vertex -10.792893218813278 31.63183100000075 2.8807190120352852
    vertex -9.207106781186386 31.631830999999803 1.0057190120352946
    vertex -10.792893218813294 31.631830999999803 1.0057190120352941
  endloop
endfacet
facet normal -5.555913843451455e-16 1.0 -5.035844911391522e-13
  outer loop
    vertex -9.207106781186386 31.631830999999803 1.0057190120352946
    vertex -10.792893218813278 31.63183100000075 2.8807190120352852
    vertex -9.207106781186393 31.63183100000075 2.8807190120352857
  endloop
endfacet
facet normal 6.063246727752179e-16 -0.35112344158791636 0.9363291775692227
  outer loop
    vertex -11.792893218813282 41.13183100000093 3.255719012030514
    vertex -9.207106781186416 40.131831000000766 2.880719012031027
    vertex -8.207106781186424 41.13183100000095 3.255719012030518
  endloop
endfacet
facet normal 6.063246727752179e-16 -0.35112344158791636 0.9363291775692227
  outer loop
    vertex -9.207106781186416 40.131831000000766 2.880719012031027
    vertex -11.792893218813282 41.13183100000093 3.255719012030514
    vertex -10.7928932188133 40.131831000000766 2.8807190120310264
  endloop
endfacet
facet normal -3.720414225822063e-15 1.0 -4.997009309990158e-13
  outer loop
    vertex -8.207106781186399 30.631831000000076 1.5057190120357857
    vertex 2.500000000000143 30.631830999999874 1.0057190120358226
    vertex -8.207106781186399 30.631830999999828 1.0057190120357895
  endloop
endfacet
facet normal -3.720414225822063e-15 1.0 -4.997009309990158e-13
  outer loop
    vertex 2.500000000000143 30.631830999999874 1.0057190120358226
    vertex -8.207106781186399 30.631831000000076 1.5057190120357857
    vertex 2.5000000000001426 30.631831000000123 1.505719012035819
  endloop
endfacet
facet normal -4.289342803370794e-15 0.8944271909996963 -0.4472135955003974
  outer loop
    vertex -22.499999999999833 30.63183100000002 1.505719012035818
    vertex -11.292893218813276 31.13183100000056 2.50571901203554
    vertex -11.79289321881327 30.631831000000055 1.5057190120357875
  endloop
endfacet
facet normal -4.289342803370794e-15 0.8944271909996963 -0.4472135955003974
  outer loop
    vertex -11.292893218813276 31.13183100000056 2.50571901203554
    vertex -22.499999999999833 30.63183100000002 1.505719012035818
    vertex -22.499999999999833 31.131831000000513 2.5057190120355677
  endloop
endfacet
facet normal 1.5402558622765298e-15 -0.894427191000145 -0.4472135954994997
  outer loop
    vertex -11.292893218813305 40.63183100000059 2.5057190120307795
    vertex -22.499999999999858 41.13183100000001 1.5057190120305575
    vertex -11.792893218813292 41.131831000000055 1.5057190120305242
  endloop
endfacet
facet normal 1.5402558622765298e-15 -0.894427191000145 -0.4472135954994997
  outer loop
    vertex -22.499999999999858 41.13183100000001 1.5057190120305575
    vertex -11.292893218813305 40.63183100000059 2.5057190120307795
    vertex -22.499999999999847 40.631831000000545 2.505719012030807
  endloop
endfacet
facet normal -1.4385967060370702e-15 0.8320502943381215 0.5547001962248125
  outer loop
    vertex -8.207106781186411 30.63183100000095 3.255719012035776
    vertex 2.500000000000131 31.131831000000616 2.505719012035567
    vertex -8.707106781186388 31.13183100000056 2.5057190120355406
  endloop
endfacet
facet normal -1.4385967060370702e-15 0.8320502943381215 0.5547001962248125
  outer loop
    vertex 2.500000000000131 31.131831000000616 2.505719012035567
    vertex -8.207106781186411 30.63183100000095 3.255719012035776
    vertex 2.500000000000131 30.63183100000099 3.2557190120358013
  endloop
endfacet
facet normal 4.2653216269563744e-15 -0.8320502943375641 0.5547001962256488
  outer loop
    vertex 2.5000000000001186 40.63183100000061 2.505719012030808
    vertex -8.207106781186424 41.13183100000095 3.255719012030518
    vertex -8.707106781186418 40.63183100000059 2.5057190120307804
  endloop
endfacet
facet normal 4.2653216269563744e-15 -0.8320502943375641 0.5547001962256488
  outer loop
    vertex -8.207106781186424 41.13183100000095 3.255719012030518
    vertex 2.5000000000001186 40.63183100000061 2.505719012030808
    vertex 2.5000000000001186 41.13183100000101 3.2557190120305415
  endloop
endfacet
facet normal 3.1363800445676173e-15 -1.0 5.011109142402898e-13
  outer loop
    vertex 2.500000000000119 41.131830999999856 1.0057190120305606
    vertex -8.207106781186424 41.131831000000055 1.5057190120305268
    vertex -8.207106781186424 41.13183099999983 1.0057190120305304
  endloop
endfacet
facet normal 3.1363800445676173e-15 -1.0 5.011109142402898e-13
  outer loop
    vertex -8.207106781186424 41.131831000000055 1.5057190120305268
    vertex 2.500000000000119 41.131830999999856 1.0057190120305606
    vertex 2.500000000000119 41.131831000000105 1.5057190120305568
  endloop
endfacet
facet normal 3.8428789057367985e-15 -1.0 5.023959745784918e-13
  outer loop
    vertex -11.792893218813292 41.131831000000055 1.5057190120305242
    vertex -22.499999999999858 41.13183099999978 1.0057190120305612
    vertex -11.792893218813292 41.131830999999806 1.005719012030528
  endloop
endfacet
facet normal 3.8428789057367985e-15 -1.0 5.023959745784918e-13
  outer loop
    vertex -22.499999999999858 41.13183099999978 1.0057190120305612
    vertex -11.792893218813292 41.131831000000055 1.5057190120305242
    vertex -22.499999999999858 41.13183100000001 1.5057190120305575
  endloop
endfacet
facet normal 1.0001604662272855e-15 -1.0 4.978192263303875e-13
  outer loop
    vertex -9.207106781186416 40.131831000000766 2.880719012031027
    vertex -10.792893218813306 40.13183099999983 1.0057190120310355
    vertex -9.207106781186399 40.13183099999983 1.005719012031036
  endloop
endfacet
facet normal 1.0001604662272855e-15 -1.0 4.978192263303875e-13
  outer loop
    vertex -10.792893218813306 40.13183099999983 1.0057190120310355
    vertex -9.207106781186416 40.131831000000766 2.880719012031027
    vertex -10.7928932188133 40.131831000000766 2.8807190120310264
  endloop
endfacet
facet normal -3.258844724482353e-15 1.0 -5.009859913372178e-13
  outer loop
    vertex -22.499999999999833 30.631830999999767 1.0057190120358217
    vertex -11.79289321881327 30.631831000000055 1.5057190120357875
    vertex -11.79289321881327 30.631830999999817 1.0057190120357913
  endloop
endfacet
facet normal -3.258844724482353e-15 1.0 -5.009859913372178e-13
  outer loop
    vertex -11.79289321881327 30.631831000000055 1.5057190120357875
    vertex -22.499999999999833 30.631830999999767 1.0057190120358217
    vertex -22.499999999999833 30.63183100000002 1.505719012035818
  endloop
endfacet
facet normal -9.852044292219342e-16 4.921166274437453e-13 1.0
  outer loop
    vertex 2.500000000000107 42.13183100000097 3.255719012030052
    vertex -8.207106781186424 41.13183100000095 3.255719012030518
    vertex 2.5000000000001186 41.13183100000101 3.2557190120305415
  endloop
endfacet
facet normal -9.852044292219342e-16 4.921166274437453e-13 1.0
  outer loop
    vertex -8.207106781186424 41.13183100000095 3.255719012030518
    vertex 2.500000000000107 42.13183100000097 3.255719012030052
    vertex -22.499999999999858 42.13183100000091 3.25571901203005
  endloop
endfacet
facet normal -9.852044292219342e-16 4.921166274437453e-13 1.0
  outer loop
    vertex -8.207106781186424 41.13183100000095 3.255719012030518
    vertex -22.499999999999858 42.13183100000091 3.25571901203005
    vertex -11.792893218813282 41.13183100000093 3.255719012030514
  endloop
endfacet
facet normal -9.852044292219342e-16 4.921166274437453e-13 1.0
  outer loop
    vertex -11.792893218813282 41.13183100000093 3.255719012030514
    vertex -22.499999999999858 42.13183100000091 3.25571901203005
    vertex -22.499999999999847 41.13183100000091 3.255719012030544
  endloop
endfacet
facet normal 6.220949681317076e-15 -1.0 6.777861129277379e-13
  outer loop
    vertex 2.5000000000001426 29.631831000001004 3.2557190120363075
    vertex -22.499999999999822 29.63183099999922 0.005719012036318039
    vertex 2.5000000000001545 29.631830999999334 0.00571901203630489
  endloop
endfacet
facet normal 6.220949681317076e-15 -1.0 6.777861129277379e-13
  outer loop
    vertex -22.499999999999822 29.63183099999922 0.005719012036318039
    vertex 2.5000000000001426 29.631831000001004 3.2557190120363075
    vertex -22.499999999999822 29.631831000000897 3.2557190120363195
  endloop
endfacet
facet normal 5.829400602694806e-16 5.904394588016279e-13 1.0
  outer loop
    vertex 2.500000000000131 30.63183100000099 3.2557190120358013
    vertex -22.499999999999822 29.631831000000897 3.2557190120363195
    vertex 2.5000000000001426 29.631831000001004 3.2557190120363075
  endloop
endfacet
facet normal 5.829400602694806e-16 5.904394588016279e-13 1.0
  outer loop
    vertex -22.499999999999822 29.631831000000897 3.2557190120363195
    vertex 2.500000000000131 30.63183100000099 3.2557190120358013
    vertex -8.207106781186411 30.63183100000095 3.255719012035776
  endloop
endfacet
facet normal 5.829400602694806e-16 5.904394588016279e-13 1.0
  outer loop
    vertex -22.499999999999822 29.631831000000897 3.2557190120363195
    vertex -8.207106781186411 30.63183100000095 3.255719012035776
    vertex -11.79289321881327 30.63183100000094 3.2557190120357773
  endloop
endfacet
facet normal 5.829400602694806e-16 5.904394588016279e-13 1.0
  outer loop
    vertex -22.499999999999822 29.631831000000897 3.2557190120363195
    vertex -11.79289321881327 30.63183100000094 3.2557190120357773
    vertex -22.499999999999833 30.631831000000894 3.255719012035805
  endloop
endfacet
facet normal -4.45519960076943e-15 0.83205029433812 0.5547001962248149
  outer loop
    vertex -22.499999999999833 31.131831000000513 2.5057190120355677
    vertex -11.79289321881327 30.63183100000094 3.2557190120357773
    vertex -11.292893218813276 31.13183100000056 2.50571901203554
  endloop
endfacet
facet normal -4.45519960076943e-15 0.83205029433812 0.5547001962248149
  outer loop
    vertex -11.79289321881327 30.63183100000094 3.2557190120357773
    vertex -22.499999999999833 31.131831000000513 2.5057190120355677
    vertex -22.499999999999833 30.631831000000894 3.255719012035805
  endloop
endfacet
facet normal -1.161989280666507e-15 0.3511234415888555 0.9363291775688707
  outer loop
    vertex -9.207106781186393 31.63183100000075 2.8807190120352857
    vertex -11.79289321881327 30.63183100000094 3.2557190120357773
    vertex -8.207106781186411 30.63183100000095 3.255719012035776
  endloop
endfacet
facet normal -1.161989280666507e-15 0.3511234415888555 0.9363291775688707
  outer loop
    vertex -11.79289321881327 30.63183100000094 3.2557190120357773
    vertex -9.207106781186393 31.63183100000075 2.8807190120352857
    vertex -10.792893218813278 31.63183100000075 2.8807190120352852
  endloop
endfacet
facet normal 1.4525122781621053e-15 -0.8320502943375656 0.5547001962256464
  outer loop
    vertex -11.792893218813282 41.13183100000093 3.255719012030514
    vertex -22.499999999999847 40.631831000000545 2.505719012030807
    vertex -11.292893218813305 40.63183100000059 2.5057190120307795
  endloop
endfacet
facet normal 1.4525122781621053e-15 -0.8320502943375656 0.5547001962256464
  outer loop
    vertex -22.499999999999847 40.631831000000545 2.505719012030807
    vertex -11.792893218813282 41.13183100000093 3.255719012030514
    vertex -22.499999999999847 41.13183100000091 3.255719012030544
  endloop
endfacet
facet normal -1.600224128762955e-16 5.010772826268111e-13 1.0
  outer loop
    vertex 2.500000000000119 41.131830999999856 1.0057190120305606
    vertex -8.207106781186399 30.631830999999828 1.0057190120357895
    vertex 2.500000000000143 30.631830999999874 1.0057190120358226
  endloop
endfacet
facet normal -1.600224128762955e-16 5.010772826268111e-13 1.0
  outer loop
    vertex -8.207106781186399 30.631830999999828 1.0057190120357895
    vertex 2.500000000000119 41.131830999999856 1.0057190120305606
    vertex -8.207106781186424 41.13183099999983 1.0057190120305304
  endloop
endfacet
facet normal -1.600224128762955e-16 5.010772826268111e-13 1.0
  outer loop
    vertex -8.207106781186399 30.631830999999828 1.0057190120357895
    vertex -8.207106781186424 41.13183099999983 1.0057190120305304
    vertex -9.207106781186386 31.631830999999803 1.0057190120352946
  endloop
endfacet
facet normal -1.600224128762955e-16 5.010772826268111e-13 1.0
  outer loop
    vertex -9.207106781186386 31.631830999999803 1.0057190120352946
    vertex -8.207106781186424 41.13183099999983 1.0057190120305304
    vertex -9.207106781186399 40.13183099999983 1.005719012031036
  endloop
endfacet
facet normal -1.600224128762955e-16 5.010772826268111e-13 1.0
  outer loop
    vertex -9.207106781186386 31.631830999999803 1.0057190120352946
    vertex -9.207106781186399 40.13183099999983 1.005719012031036
    vertex -10.792893218813294 31.631830999999803 1.0057190120352941
  endloop
endfacet
facet normal -1.600224128762955e-16 5.010772826268111e-13 1.0
  outer loop
    vertex -10.792893218813294 31.631830999999803 1.0057190120352941
    vertex -9.207106781186399 40.13183099999983 1.005719012031036
    vertex -10.792893218813306 40.13183099999983 1.0057190120310355
  endloop
endfacet
facet normal -1.600224128762955e-16 5.010772826268111e-13 1.0
  outer loop
    vertex -10.792893218813294 31.631830999999803 1.0057190120352941
    vertex -10.792893218813306 40.13183099999983 1.0057190120310355
    vertex -11.79289321881327 30.631830999999817 1.0057190120357913
  endloop
endfacet
facet normal -1.600224128762955e-16 5.010772826268111e-13 1.0
  outer loop
    vertex -11.79289321881327 30.631830999999817 1.0057190120357913
    vertex -10.792893218813306 40.13183099999983 1.0057190120310355
    vertex -11.792893218813292 41.131830999999806 1.005719012030528
  endloop
endfacet
facet normal -1.600224128762955e-16 5.010772826268111e-13 1.0
  outer loop
    vertex -11.79289321881327 30.631830999999817 1.0057190120357913
    vertex -11.792893218813292 41.131830999999806 1.005719012030528
    vertex -22.499999999999833 30.631830999999767 1.0057190120358217
  endloop
endfacet
facet normal -1.600224128762955e-16 5.010772826268111e-13 1.0
  outer loop
    vertex -22.499999999999833 30.631830999999767 1.0057190120358217
    vertex -11.792893218813292 41.131830999999806 1.005719012030528
    vertex -22.499999999999858 41.13183099999978 1.0057190120305612
  endloop
endfacet
facet normal 0.7071067811865533 -0.7071067811865417 3.559199337189479e-13
  outer loop
    vertex -9.207106781186416 40.131831000000766 2.880719012031027
    vertex -8.707106781186418 40.63183100000059 2.5057190120307804
    vertex -8.207106781186424 41.13183100000095 3.255719012030518
  endloop
endfacet
facet normal 0.7071067811865533 -0.7071067811865417 3.559199337189479e-13
  outer loop
    vertex -8.707106781186418 40.63183100000059 2.5057190120307804
    vertex -9.207106781186416 40.131831000000766 2.880719012031027
    vertex -9.207106781186399 40.13183099999983 1.005719012031036
  endloop
endfacet
facet normal 0.7071067811865533 -0.7071067811865417 3.559199337189479e-13
  outer loop
    vertex -8.207106781186424 41.131831000000055 1.5057190120305268
    vertex -9.207106781186399 40.13183099999983 1.005719012031036
    vertex -8.207106781186424 41.13183099999983 1.0057190120305304
  endloop
endfacet
facet normal 0.7071067811865533 -0.7071067811865417 3.559199337189479e-13
  outer loop
    vertex -9.207106781186399 40.13183099999983 1.005719012031036
    vertex -8.207106781186424 41.131831000000055 1.5057190120305268
    vertex -8.707106781186418 40.63183100000059 2.5057190120307804
  endloop
endfacet
facet normal 4.250739775538875e-15 -0.8944271910001445 -0.4472135954995011
  outer loop
    vertex 2.500000000000119 41.131831000000105 1.5057190120305568
    vertex -8.707106781186418 40.63183100000059 2.5057190120307804
    vertex -8.207106781186424 41.131831000000055 1.5057190120305268
  endloop
endfacet
facet normal 4.250739775538875e-15 -0.8944271910001445 -0.4472135954995011
  outer loop
    vertex -8.707106781186418 40.63183100000059 2.5057190120307804
    vertex 2.500000000000119 41.131831000000105 1.5057190120305568
    vertex 2.5000000000001186 40.63183100000061 2.505719012030808
  endloop
endfacet
facet normal -1.3597874108027678e-15 0.894427190999697 -0.4472135955003961
  outer loop
    vertex -8.707106781186388 31.13183100000056 2.5057190120355406
    vertex 2.5000000000001426 30.631831000000123 1.505719012035819
    vertex -8.207106781186399 30.631831000000076 1.5057190120357857
  endloop
endfacet
facet normal -1.3597874108027678e-15 0.894427190999697 -0.4472135955003961
  outer loop
    vertex 2.5000000000001426 30.631831000000123 1.505719012035819
    vertex -8.707106781186388 31.13183100000056 2.5057190120355406
    vertex 2.500000000000131 31.131831000000616 2.505719012035567
  endloop
endfacet
facet normal 1.6338002115887274e-16 -6.680825359544649e-13 -1.0
  outer loop
    vertex -22.499999999999822 29.63183099999922 0.005719012036318039
    vertex 2.5000000000001084 42.131830999999416 0.005719012030055204
    vertex 2.5000000000001545 29.631830999999334 0.00571901203630489
  endloop
endfacet
facet normal 1.6338002115887274e-16 -6.680825359544649e-13 -1.0
  outer loop
    vertex 2.5000000000001084 42.131830999999416 0.005719012030055204
    vertex -22.499999999999822 29.63183099999922 0.005719012036318039
    vertex -22.49999999999987 42.1318309999993 0.005719012030041562
  endloop
endfacet
facet normal 1.0 3.136380044569035e-15 2.8291090297663758e-15
  outer loop
    vertex 2.5000000000001186 41.13183100000101 3.2557190120305415
    vertex 2.500000000000119 41.131830999999856 1.0057190120305606
    vertex 2.500000000000107 42.13183100000097 3.255719012030052
  endloop
endfacet
facet normal 1.0 3.136380044569035e-15 2.8291090297663758e-15
  outer loop
    vertex 2.500000000000119 41.131830999999856 1.0057190120305606
    vertex 2.5000000000001186 41.13183100000101 3.2557190120305415
    vertex 2.500000000000119 41.131831000000105 1.5057190120305568
  endloop
endfacet
facet normal 1.0 3.136380044569035e-15 2.8291090297663758e-15
  outer loop
    vertex 2.500000000000119 41.131831000000105 1.5057190120305568
    vertex 2.5000000000001186 41.13183100000101 3.2557190120305415
    vertex 2.5000000000001186 40.63183100000061 2.505719012030808
  endloop
endfacet
facet normal 1.0 3.136380044569035e-15 2.8291090297663758e-15
  outer loop
    vertex 2.500000000000131 30.63183100000099 3.2557190120358013
    vertex 2.5000000000001426 30.631831000000123 1.505719012035819
    vertex 2.500000000000131 31.131831000000616 2.505719012035567
  endloop
endfacet
facet normal 1.0 3.136380044569035e-15 2.8291090297663758e-15
  outer loop
    vertex 2.5000000000001084 42.131830999999416 0.005719012030055204
    vertex 2.500000000000119 41.131830999999856 1.0057190120305606
    vertex 2.5000000000001545 29.631830999999334 0.00571901203630489
  endloop
endfacet
facet normal 1.0 3.136380044569035e-15 2.8291090297663758e-15
  outer loop
    vertex 2.500000000000119 41.131830999999856 1.0057190120305606
    vertex 2.5000000000001084 42.131830999999416 0.005719012030055204
    vertex 2.500000000000107 42.13183100000097 3.255719012030052
  endloop
endfacet
facet normal 1.0 3.136380044569035e-15 2.8291090297663758e-15
  outer loop
    vertex 2.5000000000001545 29.631830999999334 0.00571901203630489
    vertex 2.500000000000119 41.131830999999856 1.0057190120305606
    vertex 2.500000000000143 30.631830999999874 1.0057190120358226
  endloop
endfacet
facet normal 1.0 3.136380044569035e-15 2.8291090297663758e-15
  outer loop
    vertex 2.5000000000001545 29.631830999999334 0.00571901203630489
    vertex 2.500000000000143 30.631830999999874 1.0057190120358226
    vertex 2.5000000000001426 30.631831000000123 1.505719012035819
  endloop
endfacet
facet normal 1.0 3.136380044569035e-15 2.8291090297663758e-15
  outer loop
    vertex 2.5000000000001545 29.631830999999334 0.00571901203630489
    vertex 2.5000000000001426 30.631831000000123 1.505719012035819
    vertex 2.500000000000131 30.63183100000099 3.2557190120358013
  endloop
endfacet
facet normal 1.0 3.136380044569035e-15 2.8291090297663758e-15
  outer loop
    vertex 2.5000000000001545 29.631830999999334 0.00571901203630489
    vertex 2.500000000000131 30.63183100000099 3.2557190120358013
    vertex 2.5000000000001426 29.631831000001004 3.2557190120363075
  endloop
endfacet
facet normal -0.7071067811865467 -0.7071067811865483 3.5556030430746385e-13
  outer loop
    vertex -10.7928932188133 40.131831000000766 2.8807190120310264
    vertex -11.792893218813292 41.131830999999806 1.005719012030528
    vertex -10.792893218813306 40.13183099999983 1.0057190120310355
  endloop
endfacet
facet normal -0.7071067811865467 -0.7071067811865483 3.5556030430746385e-13
  outer loop
    vertex -11.792893218813292 41.131830999999806 1.005719012030528
    vertex -10.7928932188133 40.131831000000766 2.8807190120310264
    vertex -11.792893218813292 41.131831000000055 1.5057190120305242
  endloop
endfacet
facet normal -0.7071067811865467 -0.7071067811865483 3.5556030430746385e-13
  outer loop
    vertex -11.792893218813292 41.131831000000055 1.5057190120305242
    vertex -10.7928932188133 40.131831000000766 2.8807190120310264
    vertex -11.292893218813305 40.63183100000059 2.5057190120307795
  endloop
endfacet
facet normal -0.7071067811865467 -0.7071067811865483 3.5556030430746385e-13
  outer loop
    vertex -11.292893218813305 40.63183100000059 2.5057190120307795
    vertex -10.7928932188133 40.131831000000766 2.8807190120310264
    vertex -11.792893218813282 41.13183100000093 3.255719012030514
  endloop
endfacet
facet normal -0.7071067811865535 0.7071067811865416 -3.527817380859404e-13
  outer loop
    vertex -11.79289321881327 30.631830999999817 1.0057190120357913
    vertex -10.792893218813278 31.63183100000075 2.8807190120352852
    vertex -10.792893218813294 31.631830999999803 1.0057190120352941
  endloop
endfacet
facet normal -0.7071067811865535 0.7071067811865416 -3.527817380859404e-13
  outer loop
    vertex -10.792893218813278 31.63183100000075 2.8807190120352852
    vertex -11.79289321881327 30.631830999999817 1.0057190120357913
    vertex -11.292893218813276 31.13183100000056 2.50571901203554
  endloop
endfacet
facet normal -0.7071067811865535 0.7071067811865416 -3.527817380859404e-13
  outer loop
    vertex -11.292893218813276 31.13183100000056 2.50571901203554
    vertex -11.79289321881327 30.631830999999817 1.0057190120357913
    vertex -11.79289321881327 30.631831000000055 1.5057190120357875
  endloop
endfacet
facet normal -0.7071067811865535 0.7071067811865416 -3.527817380859404e-13
  outer loop
    vertex -11.79289321881327 30.63183100000094 3.2557190120357773
    vertex -10.792893218813278 31.63183100000075 2.8807190120352852
    vertex -11.292893218813276 31.13183100000056 2.50571901203554
  endloop
endfacet
endsolid ProtoGlove
