solid ProtoGlove
facet normal -3.258844724482353e-15 1.0 -5.009859913372178e-13
  outer loop
    vertex -7.499999999999844 -29.368169000000197 1.0057190120959396
    vertex -4.2928932188132825 -29.368168999999945 1.5057190120959243
    vertex -4.2928932188132825 -29.368169000000186 1.005719012095928
  endloop
endfacet
facet normal -3.258844724482353e-15 1.0 -5.009859913372178e-13
  outer loop
    vertex -4.2928932188132825 -29.368168999999945 1.5057190120959243
    vertex -7.499999999999844 -29.368169000000197 1.0057190120959396
    vertex -7.499999999999844 -29.368168999999945 1.5057190120959358
  endloop
endfacet
facet normal 3.1363800445676173e-15 -1.0 5.011109142402898e-13
  outer loop
    vertex 2.500000000000119 -18.868169000000176 1.005719012090678
    vertex -0.7071067811864372 -18.86816899999993 1.5057190120906634
    vertex -0.7071067811864364 -18.868169000000186 1.0057190120906672
  endloop
endfacet
facet normal 3.1363800445676173e-15 -1.0 5.011109142402898e-13
  outer loop
    vertex -0.7071067811864372 -18.86816899999993 1.5057190120906634
    vertex 2.500000000000119 -18.868169000000176 1.005719012090678
    vertex 2.500000000000119 -18.86816899999992 1.5057190120906743
  endloop
endfacet
facet normal 1.4525122781621053e-15 -0.8320502943375656 0.5547001962256464
  outer loop
    vertex -4.292893218813297 -18.868168999999067 3.2557190120906503
    vertex -7.499999999999858 -19.368168999999448 2.5057190120909247
    vertex -3.7928932188133193 -19.368168999999426 2.5057190120909163
  endloop
endfacet
facet normal 1.4525122781621053e-15 -0.8320502943375656 0.5547001962256464
  outer loop
    vertex -7.499999999999858 -19.368168999999448 2.5057190120909247
    vertex -4.292893218813297 -18.868168999999067 3.2557190120906503
    vertex -7.499999999999858 -18.868168999999067 3.2557190120906583
  endloop
endfacet
facet normal -0.7071067811865535 0.7071067811865416 -3.527817380859404e-13
  outer loop
    vertex -4.2928932188132825 -29.368169000000186 1.005719012095928
    vertex -3.2928932188132904 -28.368168999999252 2.880719012095422
    vertex -3.2928932188133064 -28.368169000000194 1.005719012095431
  endloop
endfacet
facet normal -0.7071067811865535 0.7071067811865416 -3.527817380859404e-13
  outer loop
    vertex -3.2928932188132904 -28.368168999999252 2.880719012095422
    vertex -4.2928932188132825 -29.368169000000186 1.005719012095928
    vertex -3.7928932188132896 -28.868168999999448 2.505719012095677
  endloop
endfacet
facet normal -0.7071067811865535 0.7071067811865416 -3.527817380859404e-13
  outer loop
    vertex -3.7928932188132896 -28.868168999999448 2.505719012095677
    vertex -4.2928932188132825 -29.368169000000186 1.005719012095928
    vertex -4.2928932188132825 -29.368168999999945 1.5057190120959243
  endloop
endfacet
facet normal -0.7071067811865535 0.7071067811865416 -3.527817380859404e-13
  outer loop
    vertex -4.292893218813283 -29.368168999999064 3.2557190120959136
    vertex -3.2928932188132904 -28.368168999999252 2.880719012095422
    vertex -3.7928932188132896 -28.868168999999448 2.505719012095677
  endloop
endfacet
facet normal 1.0 3.136380044569035e-15 2.8291090297663758e-15
  outer loop
    vertex 2.500000000000107 -17.86816899999905 3.2557190120901693
    vertex 2.500000000000119 -18.86816899999992 1.5057190120906743
    vertex 2.500000000000119 -18.868169000000176 1.005719012090678
  endloop
endfacet
facet normal 1.0 3.136380044569035e-15 2.8291090297663758e-15
  outer loop
    vertex 2.500000000000119 -18.86816899999992 1.5057190120906743
    vertex 2.500000000000107 -17.86816899999905 3.2557190120901693
    vertex 2.5000000000001186 -18.868168999999035 3.2557190120906587
  endloop
endfacet
facet normal 1.0 3.136380044569035e-15 2.8291090297663758e-15
  outer loop
    vertex 2.500000000000119 -18.86816899999992 1.5057190120906743
    vertex 2.5000000000001186 -18.868168999999035 3.2557190120906587
    vertex 2.5000000000001186 -19.368168999999416 2.5057190120909256
  endloop
endfacet
facet normal 1.0 3.136380044569035e-15 2.8291090297663758e-15
  outer loop
    vertex 2.500000000000131 -29.368168999999046 3.2557190120959185
    vertex 2.5000000000001426 -29.368168999999916 1.5057190120959363
    vertex 2.500000000000131 -28.868168999999426 2.5057190120956845
  endloop
endfacet
facet normal 1.0 3.136380044569035e-15 2.8291090297663758e-15
  outer loop
    vertex 2.5000000000001084 -17.868169000000613 0.005719012090172659
    vertex 2.500000000000119 -18.868169000000176 1.005719012090678
    vertex 2.5000000000001545 -30.3681690000007 0.005719012096422346
  endloop
endfacet
facet normal 1.0 3.136380044569035e-15 2.8291090297663758e-15
  outer loop
    vertex 2.500000000000119 -18.868169000000176 1.005719012090678
    vertex 2.5000000000001084 -17.868169000000613 0.005719012090172659
    vertex 2.500000000000107 -17.86816899999905 3.2557190120901693
  endloop
endfacet
facet normal 1.0 3.136380044569035e-15 2.8291090297663758e-15
  outer loop
    vertex 2.5000000000001545 -30.3681690000007 0.005719012096422346
    vertex 2.500000000000119 -18.868169000000176 1.005719012090678
    vertex 2.500000000000143 -29.368169000000165 1.00571901209594
  endloop
endfacet
facet normal 1.0 3.136380044569035e-15 2.8291090297663758e-15
  outer loop
    vertex 2.5000000000001545 -30.3681690000007 0.005719012096422346
    vertex 2.500000000000143 -29.368169000000165 1.00571901209594
    vertex 2.5000000000001426 -29.368168999999916 1.5057190120959363
  endloop
endfacet
facet normal 1.0 3.136380044569035e-15 2.8291090297663758e-15
  outer loop
    vertex 2.5000000000001545 -30.3681690000007 0.005719012096422346
    vertex 2.5000000000001426 -29.368168999999916 1.5057190120959363
    vertex 2.500000000000131 -29.368168999999046 3.2557190120959185
  endloop
endfacet
facet normal 1.0 3.136380044569035e-15 2.8291090297663758e-15
  outer loop
    vertex 2.5000000000001545 -30.3681690000007 0.005719012096422346
    vertex 2.500000000000131 -29.368168999999046 3.2557190120959185
    vertex 2.5000000000001426 -30.368168999999035 3.255719012096425
  endloop
endfacet
facet normal -1.4385967060370702e-15 0.8320502943381215 0.5547001962248125
  outer loop
    vertex -0.7071067811864244 -29.368168999999046 3.2557190120959123
    vertex 2.500000000000131 -28.868168999999426 2.5057190120956845
    vertex -1.2071067811864011 -28.868168999999437 2.5057190120956774
  endloop
endfacet
facet normal -1.4385967060370702e-15 0.8320502943381215 0.5547001962248125
  outer loop
    vertex 2.500000000000131 -28.868168999999426 2.5057190120956845
    vertex -0.7071067811864244 -29.368168999999046 3.2557190120959123
    vertex 2.500000000000131 -29.368168999999046 3.2557190120959185
  endloop
endfacet
facet normal 4.2653216269563744e-15 -0.8320502943375641 0.5547001962256488
  outer loop
    vertex 2.5000000000001186 -19.368168999999416 2.5057190120909256
    vertex -0.7071067811864372 -18.868168999999057 3.2557190120906547
    vertex -1.2071067811864307 -19.368168999999426 2.505719012090917
  endloop
endfacet
facet normal 4.2653216269563744e-15 -0.8320502943375641 0.5547001962256488
  outer loop
    vertex -0.7071067811864372 -18.868168999999057 3.2557190120906547
    vertex 2.5000000000001186 -19.368168999999416 2.5057190120909256
    vertex 2.5000000000001186 -18.868168999999035 3.2557190120906587
  endloop
endfacet
facet normal -1.3597874108027674e-15 0.8944271909996968 -0.44721359550039597
  outer loop
    vertex -1.2071067811864011 -28.868168999999437 2.5057190120956774
    vertex 2.5000000000001426 -29.368168999999916 1.5057190120959363
    vertex -0.7071067811864132 -29.368168999999927 1.5057190120959227
  endloop
endfacet
facet normal -1.3597874108027674e-15 0.8944271909996968 -0.44721359550039597
  outer loop
    vertex 2.5000000000001426 -29.368168999999916 1.5057190120959363
    vertex -1.2071067811864011 -28.868168999999437 2.5057190120956774
    vertex 2.500000000000131 -28.868168999999426 2.5057190120956845
  endloop
endfacet
facet normal 4.250739775538875e-15 -0.8944271910001445 -0.4472135954995011
  outer loop
    vertex 2.500000000000119 -18.86816899999992 1.5057190120906743
    vertex -1.2071067811864307 -19.368168999999426 2.505719012090917
    vertex -0.7071067811864372 -18.86816899999993 1.5057190120906634
  endloop
endfacet
facet normal 4.250739775538875e-15 -0.8944271910001445 -0.4472135954995011
  outer loop
    vertex -1.2071067811864307 -19.368168999999426 2.505719012090917
    vertex 2.500000000000119 -18.86816899999992 1.5057190120906743
    vertex 2.5000000000001186 -19.368168999999416 2.5057190120909256
  endloop
endfacet
facet normal -1.161989280666507e-15 0.3511234415888555 0.9363291775688707
  outer loop
    vertex -1.7071067811864058 -28.368168999999245 2.8807190120954225
    vertex -4.292893218813283 -29.368168999999064 3.2557190120959136
    vertex -0.7071067811864244 -29.368168999999046 3.2557190120959123
  endloop
endfacet
facet normal -1.161989280666507e-15 0.3511234415888555 0.9363291775688707
  outer loop
    vertex -4.292893218813283 -29.368168999999064 3.2557190120959136
    vertex -1.7071067811864058 -28.368168999999245 2.8807190120954225
    vertex -3.2928932188132904 -28.368168999999252 2.880719012095422
  endloop
endfacet
facet normal -0.7071067811865467 -0.7071067811865483 3.5556030430746385e-13
  outer loop
    vertex -3.2928932188133144 -19.868168999999238 2.880719012091163
    vertex -4.292893218813306 -18.868169000000197 1.0057190120906647
    vertex -3.2928932188133193 -19.868169000000172 1.0057190120911723
  endloop
endfacet
facet normal -0.7071067811865467 -0.7071067811865483 3.5556030430746385e-13
  outer loop
    vertex -4.292893218813306 -18.868169000000197 1.0057190120906647
    vertex -3.2928932188133144 -19.868168999999238 2.880719012091163
    vertex -4.292893218813306 -18.868168999999945 1.505719012090661
  endloop
endfacet
facet normal -0.7071067811865467 -0.7071067811865483 3.5556030430746385e-13
  outer loop
    vertex -4.292893218813306 -18.868168999999945 1.505719012090661
    vertex -3.2928932188133144 -19.868168999999238 2.880719012091163
    vertex -3.7928932188133193 -19.368168999999426 2.5057190120909163
  endloop
endfacet
facet normal -0.7071067811865467 -0.7071067811865483 3.5556030430746385e-13
  outer loop
    vertex -3.7928932188133193 -19.368168999999426 2.5057190120909163
    vertex -3.2928932188133144 -19.868168999999238 2.880719012091163
    vertex -4.292893218813297 -18.868168999999067 3.2557190120906503
  endloop
endfacet
facet normal 5.829400602694806e-16 5.904394588016279e-13 1.0
  outer loop
    vertex 2.500000000000131 -29.368168999999046 3.2557190120959185
    vertex -7.499999999999834 -30.368168999999067 3.2557190120964328
    vertex 2.5000000000001426 -30.368168999999035 3.255719012096425
  endloop
endfacet
facet normal 5.829400602694806e-16 5.904394588016279e-13 1.0
  outer loop
    vertex -7.499999999999834 -30.368168999999067 3.2557190120964328
    vertex 2.500000000000131 -29.368168999999046 3.2557190120959185
    vertex -0.7071067811864244 -29.368168999999046 3.2557190120959123
  endloop
endfacet
facet normal 5.829400602694806e-16 5.904394588016279e-13 1.0
  outer loop
    vertex -7.499999999999834 -30.368168999999067 3.2557190120964328
    vertex -0.7071067811864244 -29.368168999999046 3.2557190120959123
    vertex -4.292893218813283 -29.368168999999064 3.2557190120959136
  endloop
endfacet
facet normal 5.829400602694806e-16 5.904394588016279e-13 1.0
  outer loop
    vertex -7.499999999999834 -30.368168999999067 3.2557190120964328
    vertex -4.292893218813283 -29.368168999999064 3.2557190120959136
    vertex -7.4999999999998455 -29.36816899999908 3.2557190120959185
  endloop
endfacet
facet normal -9.852044292219342e-16 4.921166274437453e-13 1.0
  outer loop
    vertex 2.500000000000107 -17.86816899999905 3.2557190120901693
    vertex -0.7071067811864372 -18.868168999999057 3.2557190120906547
    vertex 2.5000000000001186 -18.868168999999035 3.2557190120906587
  endloop
endfacet
facet normal -9.852044292219342e-16 4.921166274437453e-13 1.0
  outer loop
    vertex -0.7071067811864372 -18.868168999999057 3.2557190120906547
    vertex 2.500000000000107 -17.86816899999905 3.2557190120901693
    vertex -7.499999999999869 -17.86816899999908 3.255719012090163
  endloop
endfacet
facet normal -9.852044292219342e-16 4.921166274437453e-13 1.0
  outer loop
    vertex -0.7071067811864372 -18.868168999999057 3.2557190120906547
    vertex -7.499999999999869 -17.86816899999908 3.255719012090163
    vertex -4.292893218813297 -18.868168999999067 3.2557190120906503
  endloop
endfacet
facet normal -9.852044292219342e-16 4.921166274437453e-13 1.0
  outer loop
    vertex -4.292893218813297 -18.868168999999067 3.2557190120906503
    vertex -7.499999999999869 -17.86816899999908 3.255719012090163
    vertex -7.499999999999858 -18.868168999999067 3.2557190120906583
  endloop
endfacet
facet normal 1.6338002115887274e-16 -6.680825359544649e-13 -1.0
  outer loop
    vertex -7.499999999999832 -30.368169000000755 0.005719012096436065
    vertex 2.5000000000001084 -17.868169000000613 0.005719012090172659
    vertex 2.5000000000001545 -30.3681690000007 0.005719012096422346
  endloop
endfacet
facet normal 1.6338002115887274e-16 -6.680825359544649e-13 -1.0
  outer loop
    vertex 2.5000000000001084 -17.868169000000613 0.005719012090172659
    vertex -7.499999999999832 -30.368169000000755 0.005719012096436065
    vertex -7.499999999999879 -17.86816900000068 0.005719012090159588
  endloop
endfacet
facet normal 3.8428789057367985e-15 -1.0 5.023959745784918e-13
  outer loop
    vertex -4.292893218813306 -18.868168999999945 1.505719012090661
    vertex -7.499999999999868 -18.868169000000208 1.0057190120906792
    vertex -4.292893218813306 -18.868169000000197 1.0057190120906647
  endloop
endfacet
facet normal 3.8428789057367985e-15 -1.0 5.023959745784918e-13
  outer loop
    vertex -7.499999999999868 -18.868169000000208 1.0057190120906792
    vertex -4.292893218813306 -18.868168999999945 1.505719012090661
    vertex -7.499999999999868 -18.868168999999966 1.5057190120906754
  endloop
endfacet
facet normal 6.220949681317076e-15 -1.0 6.777861129277379e-13
  outer loop
    vertex 2.5000000000001426 -30.368168999999035 3.255719012096425
    vertex -7.499999999999832 -30.368169000000755 0.005719012096436065
    vertex 2.5000000000001545 -30.3681690000007 0.005719012096422346
  endloop
endfacet
facet normal 6.220949681317076e-15 -1.0 6.777861129277379e-13
  outer loop
    vertex -7.499999999999832 -30.368169000000755 0.005719012096436065
    vertex 2.5000000000001426 -30.368168999999035 3.255719012096425
    vertex -7.499999999999834 -30.368168999999067 3.2557190120964328
  endloop
endfacet
facet normal 0.7071067811865533 -0.7071067811865417 3.559199337189479e-13
  outer loop
    vertex -1.7071067811864298 -19.868168999999238 2.8807190120911637
    vertex -1.2071067811864307 -19.368168999999426 2.505719012090917
    vertex -0.7071067811864372 -18.868168999999057 3.2557190120906547
  endloop
endfacet
facet normal 0.7071067811865533 -0.7071067811865417 3.559199337189479e-13
  outer loop
    vertex -1.2071067811864307 -19.368168999999426 2.505719012090917
    vertex -1.7071067811864298 -19.868168999999238 2.8807190120911637
    vertex -1.707106781186412 -19.868169000000172 1.0057190120911725
  endloop
endfacet
facet normal 0.7071067811865533 -0.7071067811865417 3.559199337189479e-13
  outer loop
    vertex -0.7071067811864372 -18.86816899999993 1.5057190120906634
    vertex -1.707106781186412 -19.868169000000172 1.0057190120911725
    vertex -0.7071067811864364 -18.868169000000186 1.0057190120906672
  endloop
endfacet
facet normal 0.7071067811865533 -0.7071067811865417 3.559199337189479e-13
  outer loop
    vertex -1.707106781186412 -19.868169000000172 1.0057190120911725
    vertex -0.7071067811864372 -18.86816899999993 1.5057190120906634
    vertex -1.2071067811864307 -19.368168999999426 2.505719012090917
  endloop
endfacet
facet normal -1.0 -3.2588447244810146e-15 2.670498664309593e-15
  outer loop
    vertex -7.499999999999879 -17.86816900000068 0.005719012090159588
    vertex -7.499999999999868 -18.868169000000208 1.0057190120906792
    vertex -7.499999999999869 -17.86816899999908 3.255719012090163
  endloop
endfacet
facet normal -1.0 -3.2588447244810146e-15 2.670498664309593e-15
  outer loop
    vertex -7.499999999999868 -18.868169000000208 1.0057190120906792
    vertex -7.499999999999879 -17.86816900000068 0.005719012090159588
    vertex -7.499999999999832 -30.368169000000755 0.005719012096436065
  endloop
endfacet
facet normal -1.0 -3.2588447244810146e-15 2.670498664309593e-15
  outer loop
    vertex -7.499999999999868 -18.868169000000208 1.0057190120906792
    vertex -7.499999999999832 -30.368169000000755 0.005719012096436065
    vertex -7.499999999999844 -29.368169000000197 1.0057190120959396
  endloop
endfacet
facet normal -1.0 -3.2588447244810146e-15 2.670498664309593e-15
  outer loop
    vertex -7.499999999999844 -29.368169000000197 1.0057190120959396
    vertex -7.499999999999832 -30.368169000000755 0.005719012096436065
    vertex -7.499999999999844 -29.368168999999945 1.5057190120959358
  endloop
endfacet
facet normal -1.0 -3.2588447244810146e-15 2.670498664309593e-15
  outer loop
    vertex -7.499999999999844 -29.368168999999945 1.5057190120959358
    vertex -7.499999999999832 -30.368169000000755 0.005719012096436065
    vertex -7.4999999999998455 -29.36816899999908 3.2557190120959185
  endloop
endfacet
facet normal -1.0 -3.2588447244810146e-15 2.670498664309593e-15
  outer loop
    vertex -7.4999999999998455 -29.36816899999908 3.2557190120959185
    vertex -7.499999999999832 -30.368169000000755 0.005719012096436065
    vertex -7.499999999999834 -30.368168999999067 3.2557190120964328
  endloop
endfacet
facet normal -1.0 -3.2588447244810146e-15 2.670498664309593e-15
  outer loop
    vertex -7.4999999999998455 -29.36816899999908 3.2557190120959185
    vertex -7.4999999999998455 -28.868168999999455 2.5057190120956854
    vertex -7.499999999999844 -29.368168999999945 1.5057190120959358
  endloop
endfacet
facet normal -1.0 -3.2588447244810146e-15 2.670498664309593e-15
  outer loop
    vertex -7.499999999999868 -18.868169000000208 1.0057190120906792
    vertex -7.499999999999858 -18.868168999999067 3.2557190120906583
    vertex -7.499999999999869 -17.86816899999908 3.255719012090163
  endloop
endfacet
facet normal -1.0 -3.2588447244810146e-15 2.670498664309593e-15
  outer loop
    vertex -7.499999999999858 -18.868168999999067 3.2557190120906583
    vertex -7.499999999999868 -18.868169000000208 1.0057190120906792
    vertex -7.499999999999868 -18.868168999999966 1.5057190120906754
  endloop
endfacet
facet normal -1.0 -3.2588447244810146e-15 2.670498664309593e-15
  outer loop
    vertex -7.499999999999858 -18.868168999999067 3.2557190120906583
    vertex -7.499999999999868 -18.868168999999966 1.5057190120906754
    vertex -7.499999999999858 -19.368168999999448 2.5057190120909247
  endloop
endfacet
facet normal 6.063246727752179e-16 -0.35112344158791636 0.9363291775692227
  outer loop
    vertex -4.292893218813297 -18.868168999999067 3.2557190120906503
    vertex -1.7071067811864298 -19.868168999999238 2.8807190120911637
    vertex -0.7071067811864372 -18.868168999999057 3.2557190120906547
  endloop
endfacet
facet normal 6.063246727752179e-16 -0.35112344158791636 0.9363291775692227
  outer loop
    vertex -1.7071067811864298 -19.868168999999238 2.8807190120911637
    vertex -4.292893218813297 -18.868168999999067 3.2557190120906503
    vertex -3.2928932188133144 -19.868168999999238 2.880719012091163
  endloop
endfacet
facet normal -1.600224128762955e-16 5.010772826268111e-13 1.0
  outer loop
    vertex 2.500000000000119 -18.868169000000176 1.005719012090678
    vertex -0.7071067811864126 -29.36816900000017 1.0057190120959263
    vertex 2.500000000000143 -29.368169000000165 1.00571901209594
  endloop
endfacet
facet normal -1.600224128762955e-16 5.010772826268111e-13 1.0
  outer loop
    vertex -0.7071067811864126 -29.36816900000017 1.0057190120959263
    vertex 2.500000000000119 -18.868169000000176 1.005719012090678
    vertex -0.7071067811864364 -18.868169000000186 1.0057190120906672
  endloop
endfacet
facet normal -1.600224128762955e-16 5.010772826268111e-13 1.0
  outer loop
    vertex -0.7071067811864126 -29.36816900000017 1.0057190120959263
    vertex -0.7071067811864364 -18.868169000000186 1.0057190120906672
    vertex -1.7071067811863994 -28.368169000000194 1.0057190120954316
  endloop
endfacet
facet normal -1.600224128762955e-16 5.010772826268111e-13 1.0
  outer loop
    vertex -1.7071067811863994 -28.368169000000194 1.0057190120954316
    vertex -0.7071067811864364 -18.868169000000186 1.0057190120906672
    vertex -1.707106781186412 -19.868169000000172 1.0057190120911725
  endloop
endfacet
facet normal -1.600224128762955e-16 5.010772826268111e-13 1.0
  outer loop
    vertex -1.7071067811863994 -28.368169000000194 1.0057190120954316
    vertex -1.707106781186412 -19.868169000000172 1.0057190120911725
    vertex -3.2928932188133064 -28.368169000000194 1.005719012095431
  endloop
endfacet
facet normal -1.600224128762955e-16 5.010772826268111e-13 1.0
  outer loop
    vertex -3.2928932188133064 -28.368169000000194 1.005719012095431
    vertex -1.707106781186412 -19.868169000000172 1.0057190120911725
    vertex -3.2928932188133193 -19.868169000000172 1.0057190120911723
  endloop
endfacet
facet normal -1.600224128762955e-16 5.010772826268111e-13 1.0
  outer loop
    vertex -3.2928932188133064 -28.368169000000194 1.005719012095431
    vertex -3.2928932188133193 -19.868169000000172 1.0057190120911723
    vertex -4.2928932188132825 -29.368169000000186 1.005719012095928
  endloop
endfacet
facet normal -1.600224128762955e-16 5.010772826268111e-13 1.0
  outer loop
    vertex -4.2928932188132825 -29.368169000000186 1.005719012095928
    vertex -3.2928932188133193 -19.868169000000172 1.0057190120911723
    vertex -4.292893218813306 -18.868169000000197 1.0057190120906647
  endloop
endfacet
facet normal -1.600224128762955e-16 5.010772826268111e-13 1.0
  outer loop
    vertex -4.2928932188132825 -29.368169000000186 1.005719012095928
    vertex -4.292893218813306 -18.868169000000197 1.0057190120906647
    vertex -7.499999999999844 -29.368169000000197 1.0057190120959396
  endloop
endfacet
facet normal -1.600224128762955e-16 5.010772826268111e-13 1.0
  outer loop
    vertex -7.499999999999844 -29.368169000000197 1.0057190120959396
    vertex -4.292893218813306 -18.868169000000197 1.0057190120906647
    vertex -7.499999999999868 -18.868169000000208 1.0057190120906792
  endloop
endfacet
facet normal 0.7071067811865468 0.7071067811865482 -3.5291705856746457e-13
  outer loop
    vertex -1.7071067811863994 -28.368169000000194 1.0057190120954316
    vertex -0.7071067811864132 -29.368168999999927 1.5057190120959227
    vertex -0.7071067811864126 -29.36816900000017 1.0057190120959263
  endloop
endfacet
facet normal 0.7071067811865468 0.7071067811865482 -3.5291705856746457e-13
  outer loop
    vertex -0.7071067811864132 -29.368168999999927 1.5057190120959227
    vertex -1.7071067811863994 -28.368169000000194 1.0057190120954316
    vertex -1.7071067811864058 -28.368168999999245 2.8807190120954225
  endloop
endfacet
facet normal 0.7071067811865468 0.7071067811865482 -3.5291705856746457e-13
  outer loop
    vertex -0.7071067811864132 -29.368168999999927 1.5057190120959227
    vertex -1.7071067811864058 -28.368168999999245 2.8807190120954225
    vertex -1.2071067811864011 -28.868168999999437 2.5057190120956774
  endloop
endfacet
facet normal 0.7071067811865468 0.7071067811865482 -3.5291705856746457e-13
  outer loop
    vertex -1.2071067811864011 -28.868168999999437 2.5057190120956774
    vertex -1.7071067811864058 -28.368168999999245 2.8807190120954225
    vertex -0.7071067811864244 -29.368168999999046 3.2557190120959123
  endloop
endfacet
facet normal -5.555913843451455e-16 1.0 -5.035844911391522e-13
  outer loop
    vertex -3.2928932188132904 -28.368168999999252 2.880719012095422
    vertex -1.7071067811863994 -28.368169000000194 1.0057190120954316
    vertex -3.2928932188133064 -28.368169000000194 1.005719012095431
  endloop
endfacet
facet normal -5.555913843451455e-16 1.0 -5.035844911391522e-13
  outer loop
    vertex -1.7071067811863994 -28.368169000000194 1.0057190120954316
    vertex -3.2928932188132904 -28.368168999999252 2.880719012095422
    vertex -1.7071067811864058 -28.368168999999245 2.8807190120954225
  endloop
endfacet
facet normal -4.45519960076943e-15 0.83205029433812 0.5547001962248149
  outer loop
    vertex -7.4999999999998455 -28.868168999999455 2.5057190120956854
    vertex -4.292893218813283 -29.368168999999064 3.2557190120959136
    vertex -3.7928932188132896 -28.868168999999448 2.505719012095677
  endloop
endfacet
facet normal -4.45519960076943e-15 0.83205029433812 0.5547001962248149
  outer loop
    vertex -4.292893218813283 -29.368168999999064 3.2557190120959136
    vertex -7.4999999999998455 -28.868168999999455 2.5057190120956854
    vertex -7.4999999999998455 -29.36816899999908 3.2557190120959185
  endloop
endfacet
facet normal -6.377614485904388e-15 1.0 -6.585524953803131e-13
  outer loop
    vertex -7.499999999999869 -17.86816899999908 3.255719012090163
    vertex 2.5000000000001084 -17.868169000000613 0.005719012090172659
    vertex -7.499999999999879 -17.86816900000068 0.005719012090159588
  endloop
endfacet
facet normal -6.377614485904388e-15 1.0 -6.585524953803131e-13
  outer loop
    vertex 2.5000000000001084 -17.868169000000613 0.005719012090172659
    vertex -7.499999999999869 -17.86816899999908 3.255719012090163
    vertex 2.500000000000107 -17.86816899999905 3.2557190120901693
  endloop
endfacet
facet normal -3.720414225822063e-15 1.0 -4.997009309990158e-13
  outer loop
    vertex -0.7071067811864132 -29.368168999999927 1.5057190120959227
    vertex 2.500000000000143 -29.368169000000165 1.00571901209594
    vertex -0.7071067811864126 -29.36816900000017 1.0057190120959263
  endloop
endfacet
facet normal -3.720414225822063e-15 1.0 -4.997009309990158e-13
  outer loop
    vertex 2.500000000000143 -29.368169000000165 1.00571901209594
    vertex -0.7071067811864132 -29.368168999999927 1.5057190120959227
    vertex 2.5000000000001426 -29.368168999999916 1.5057190120959363
  endloop
endfacet
facet normal 1.5402558622765298e-15 -0.894427191000145 -0.4472135954994997
  outer loop
    vertex -3.7928932188133193 -19.368168999999426 2.5057190120909163
    vertex -7.499999999999868 -18.868168999999966 1.5057190120906754
    vertex -4.292893218813306 -18.868168999999945 1.505719012090661
  endloop
endfacet
facet normal 1.5402558622765298e-15 -0.894427191000145 -0.4472135954994997
  outer loop
    vertex -7.499999999999868 -18.868168999999966 1.5057190120906754
    vertex -3.7928932188133193 -19.368168999999426 2.5057190120909163
    vertex -7.499999999999858 -19.368168999999448 2.5057190120909247
  endloop
endfacet
facet normal 1.0001604662272855e-15 -1.0 4.978192263303875e-13
  outer loop
    vertex -1.7071067811864298 -19.868168999999238 2.8807190120911637
    vertex -3.2928932188133193 -19.868169000000172 1.0057190120911723
    vertex -1.707106781186412 -19.868169000000172 1.0057190120911725
  endloop
endfacet
facet normal 1.0001604662272855e-15 -1.0 4.978192263303875e-13
  outer loop
    vertex -3.2928932188133193 -19.868169000000172 1.0057190120911723
    vertex -1.7071067811864298 -19.868168999999238 2.8807190120911637
    vertex -3.2928932188133144 -19.868168999999238 2.880719012091163
  endloop
endfacet
facet normal -4.289342803370794e-15 0.8944271909996963 -0.4472135955003974
  outer loop
    vertex -7.499999999999844 -29.368168999999945 1.5057190120959358
    vertex -3.7928932188132896 -28.868168999999448 2.505719012095677
    vertex -4.2928932188132825 -29.368168999999945 1.5057190120959243
  endloop
endfacet
facet normal -4.289342803370794e-15 0.8944271909996963 -0.4472135955003974
  outer loop
    vertex -3.7928932188132896 -28.868168999999448 2.505719012095677
    vertex -7.499999999999844 -29.368168999999945 1.5057190120959358
    vertex -7.4999999999998455 -28.868168999999455 2.5057190120956854
  endloop
endfacet
endsolid ProtoGlove
