solid ProtoGlove
facet normal 6.063246727752179e-16 -0.35112344158791636 0.9363291775692227
  outer loop
    vertex -14.292893218813377 61.13183100000098 3.255719012010473
    vertex -11.707106781186512 60.1318310000008 2.880719012010986
    vertex -10.70710678118652 61.131831000001 3.255719012010477
  endloop
endfacet
facet normal 6.063246727752179e-16 -0.35112344158791636 0.9363291775692227
  outer loop
    vertex -11.707106781186512 60.1318310000008 2.880719012010986
    vertex -14.292893218813377 61.13183100000098 3.255719012010473
    vertex -13.292893218813397 60.1318310000008 2.8807190120109856
  endloop
endfacet
facet normal -4.289342803370794e-15 0.8944271909996963 -0.4472135955003974
  outer loop
    vertex -27.499999999999932 50.63183100000005 1.5057190120157846
    vertex -13.792893218813374 51.1318310000006 2.505719012015499
    vertex -14.292893218813367 50.6318310000001 1.5057190120157466
  endloop
endfacet
facet normal -4.289342803370794e-15 0.8944271909996963 -0.4472135955003974
  outer loop
    vertex -13.792893218813374 51.1318310000006 2.505719012015499
    vertex -27.499999999999932 50.63183100000005 1.5057190120157846
    vertex -27.499999999999932 51.13183100000056 2.505719012015534
  endloop
endfacet
facet normal -5.555913843451455e-16 1.0 -5.035844911391522e-13
  outer loop
    vertex -13.292893218813374 51.631831000000794 2.880719012015244
    vertex -11.707106781186484 51.63183099999985 1.005719012015254
    vertex -13.292893218813392 51.63183099999985 1.0057190120152533
  endloop
endfacet
facet normal -5.555913843451455e-16 1.0 -5.035844911391522e-13
  outer loop
    vertex -11.707106781186484 51.63183099999985 1.005719012015254
    vertex -13.292893218813374 51.631831000000794 2.880719012015244
    vertex -11.70710678118649 51.631831000000794 2.880719012015245
  endloop
endfacet
facet normal -6.377614485904388e-15 1.0 -6.585524953803131e-13
  outer loop
    vertex -27.499999999999954 62.13183100000092 3.2557190120100135
    vertex 2.5000000000000178 62.13183099999948 0.005719012010022162
    vertex -27.499999999999968 62.131830999999316 0.00571901201000833
  endloop
endfacet
facet normal -6.377614485904388e-15 1.0 -6.585524953803131e-13
  outer loop
    vertex 2.5000000000000178 62.13183099999948 0.005719012010022162
    vertex -27.499999999999954 62.13183100000092 3.2557190120100135
    vertex 2.500000000000017 62.13183100000104 3.2557190120100175
  endloop
endfacet
facet normal 3.8428789057367985e-15 -1.0 5.023959745784918e-13
  outer loop
    vertex -14.29289321881339 61.1318310000001 1.5057190120104833
    vertex -27.499999999999954 61.131830999999806 1.005719012010528
    vertex -14.29289321881339 61.13183099999985 1.005719012010487
  endloop
endfacet
facet normal 3.8428789057367985e-15 -1.0 5.023959745784918e-13
  outer loop
    vertex -27.499999999999954 61.131830999999806 1.005719012010528
    vertex -14.29289321881339 61.1318310000001 1.5057190120104833
    vertex -27.499999999999954 61.131831000000034 1.5057190120105242
  endloop
endfacet
facet normal -9.852044292219342e-16 4.921166274437453e-13 1.0
  outer loop
    vertex 2.500000000000017 62.13183100000104 3.2557190120100175
    vertex -10.70710678118652 61.131831000001 3.255719012010477
    vertex 2.5000000000000284 61.13183100000107 3.255719012010507
  endloop
endfacet
facet normal -9.852044292219342e-16 4.921166274437453e-13 1.0
  outer loop
    vertex -10.70710678118652 61.131831000001 3.255719012010477
    vertex 2.500000000000017 62.13183100000104 3.2557190120100175
    vertex -27.499999999999954 62.13183100000092 3.2557190120100135
  endloop
endfacet
facet normal -9.852044292219342e-16 4.921166274437453e-13 1.0
  outer loop
    vertex -10.70710678118652 61.131831000001 3.255719012010477
    vertex -27.499999999999954 62.13183100000092 3.2557190120100135
    vertex -14.292893218813377 61.13183100000098 3.255719012010473
  endloop
endfacet
facet normal -9.852044292219342e-16 4.921166274437453e-13 1.0
  outer loop
    vertex -14.292893218813377 61.13183100000098 3.255719012010473
    vertex -27.499999999999954 62.13183100000092 3.2557190120100135
    vertex -27.499999999999943 61.13183100000092 3.255719012010508
  endloop
endfacet
facet normal 1.4525122781621053e-15 -0.8320502943375656 0.5547001962256464
  outer loop
    vertex -14.292893218813377 61.13183100000098 3.255719012010473
    vertex -27.499999999999943 60.63183100000056 2.5057190120107737
    vertex -13.792893218813402 60.63183100000063 2.5057190120107387
  endloop
endfacet
facet normal 1.4525122781621053e-15 -0.8320502943375656 0.5547001962256464
  outer loop
    vertex -27.499999999999943 60.63183100000056 2.5057190120107737
    vertex -14.292893218813377 61.13183100000098 3.255719012010473
    vertex -27.499999999999943 61.13183100000092 3.255719012010508
  endloop
endfacet
facet normal 1.5402558622765298e-15 -0.894427191000145 -0.4472135954994997
  outer loop
    vertex -13.792893218813402 60.63183100000063 2.5057190120107387
    vertex -27.499999999999954 61.131831000000034 1.5057190120105242
    vertex -14.29289321881339 61.1318310000001 1.5057190120104833
  endloop
endfacet
facet normal 1.5402558622765298e-15 -0.894427191000145 -0.4472135954994997
  outer loop
    vertex -27.499999999999954 61.131831000000034 1.5057190120105242
    vertex -13.792893218813402 60.63183100000063 2.5057190120107387
    vertex -27.499999999999943 60.63183100000056 2.5057190120107737
  endloop
endfacet
facet normal -1.0 -3.2588447244810146e-15 2.670498664309593e-15
  outer loop
    vertex -27.499999999999968 62.131830999999316 0.00571901201000833
    vertex -27.499999999999954 61.131830999999806 1.005719012010528
    vertex -27.499999999999954 62.13183100000092 3.2557190120100135
  endloop
endfacet
facet normal -1.0 -3.2588447244810146e-15 2.670498664309593e-15
  outer loop
    vertex -27.499999999999954 61.131830999999806 1.005719012010528
    vertex -27.499999999999968 62.131830999999316 0.00571901201000833
    vertex -27.499999999999922 49.63183099999925 0.005719012016284807
  endloop
endfacet
facet normal -1.0 -3.2588447244810146e-15 2.670498664309593e-15
  outer loop
    vertex -27.499999999999954 61.131830999999806 1.005719012010528
    vertex -27.499999999999922 49.63183099999925 0.005719012016284807
    vertex -27.499999999999932 50.6318309999998 1.0057190120157884
  endloop
endfacet
facet normal -1.0 -3.2588447244810146e-15 2.670498664309593e-15
  outer loop
    vertex -27.499999999999932 50.6318309999998 1.0057190120157884
    vertex -27.499999999999922 49.63183099999925 0.005719012016284807
    vertex -27.499999999999932 50.63183100000005 1.5057190120157846
  endloop
endfacet
facet normal -1.0 -3.2588447244810146e-15 2.670498664309593e-15
  outer loop
    vertex -27.499999999999932 50.63183100000005 1.5057190120157846
    vertex -27.499999999999922 49.63183099999925 0.005719012016284807
    vertex -27.499999999999932 50.63183100000092 3.255719012015769
  endloop
endfacet
facet normal -1.0 -3.2588447244810146e-15 2.670498664309593e-15
  outer loop
    vertex -27.499999999999932 50.63183100000092 3.255719012015769
    vertex -27.499999999999922 49.63183099999925 0.005719012016284807
    vertex -27.499999999999922 49.63183100000093 3.2557190120162827
  endloop
endfacet
facet normal -1.0 -3.2588447244810146e-15 2.670498664309593e-15
  outer loop
    vertex -27.499999999999932 50.63183100000092 3.255719012015769
    vertex -27.499999999999932 51.13183100000056 2.505719012015534
    vertex -27.499999999999932 50.63183100000005 1.5057190120157846
  endloop
endfacet
facet normal -1.0 -3.2588447244810146e-15 2.670498664309593e-15
  outer loop
    vertex -27.499999999999954 61.131830999999806 1.005719012010528
    vertex -27.499999999999943 61.13183100000092 3.255719012010508
    vertex -27.499999999999954 62.13183100000092 3.2557190120100135
  endloop
endfacet
facet normal -1.0 -3.2588447244810146e-15 2.670498664309593e-15
  outer loop
    vertex -27.499999999999943 61.13183100000092 3.255719012010508
    vertex -27.499999999999954 61.131830999999806 1.005719012010528
    vertex -27.499999999999954 61.131831000000034 1.5057190120105242
  endloop
endfacet
facet normal -1.0 -3.2588447244810146e-15 2.670498664309593e-15
  outer loop
    vertex -27.499999999999943 61.13183100000092 3.255719012010508
    vertex -27.499999999999954 61.131831000000034 1.5057190120105242
    vertex -27.499999999999943 60.63183100000056 2.5057190120107737
  endloop
endfacet
facet normal -3.720414225822063e-15 1.0 -4.997009309990158e-13
  outer loop
    vertex -10.707106781186496 50.63183100000012 1.505719012015745
    vertex 2.500000000000053 50.63183099999994 1.0057190120157897
    vertex -10.707106781186496 50.63183099999987 1.0057190120157486
  endloop
endfacet
facet normal -3.720414225822063e-15 1.0 -4.997009309990158e-13
  outer loop
    vertex 2.500000000000053 50.63183099999994 1.0057190120157897
    vertex -10.707106781186496 50.63183100000012 1.505719012015745
    vertex 2.5000000000000524 50.63183100000016 1.505719012015786
  endloop
endfacet
facet normal 0.7071067811865468 0.7071067811865482 -3.5291705856746457e-13
  outer loop
    vertex -11.707106781186484 51.63183099999985 1.005719012015254
    vertex -10.707106781186496 50.63183100000012 1.505719012015745
    vertex -10.707106781186496 50.63183099999987 1.0057190120157486
  endloop
endfacet
facet normal 0.7071067811865468 0.7071067811865482 -3.5291705856746457e-13
  outer loop
    vertex -10.707106781186496 50.63183100000012 1.505719012015745
    vertex -11.707106781186484 51.63183099999985 1.005719012015254
    vertex -11.70710678118649 51.631831000000794 2.880719012015245
  endloop
endfacet
facet normal 0.7071067811865468 0.7071067811865482 -3.5291705856746457e-13
  outer loop
    vertex -10.707106781186496 50.63183100000012 1.505719012015745
    vertex -11.70710678118649 51.631831000000794 2.880719012015245
    vertex -11.207106781186486 51.1318310000006 2.5057190120154997
  endloop
endfacet
facet normal 0.7071067811865468 0.7071067811865482 -3.5291705856746457e-13
  outer loop
    vertex -11.207106781186486 51.1318310000006 2.5057190120154997
    vertex -11.70710678118649 51.631831000000794 2.880719012015245
    vertex -10.707106781186509 50.63183100000099 3.255719012015734
  endloop
endfacet
facet normal -4.45519960076943e-15 0.83205029433812 0.5547001962248149
  outer loop
    vertex -27.499999999999932 51.13183100000056 2.505719012015534
    vertex -14.292893218813367 50.63183100000099 3.2557190120157364
    vertex -13.792893218813374 51.1318310000006 2.505719012015499
  endloop
endfacet
facet normal -4.45519960076943e-15 0.83205029433812 0.5547001962248149
  outer loop
    vertex -14.292893218813367 50.63183100000099 3.2557190120157364
    vertex -27.499999999999932 51.13183100000056 2.505719012015534
    vertex -27.499999999999932 50.63183100000092 3.255719012015769
  endloop
endfacet
facet normal 1.0001604662272855e-15 -1.0 4.978192263303875e-13
  outer loop
    vertex -11.707106781186512 60.1318310000008 2.880719012010986
    vertex -13.292893218813402 60.13183099999988 1.0057190120109945
    vertex -11.707106781186495 60.13183099999988 1.005719012010995
  endloop
endfacet
facet normal 1.0001604662272855e-15 -1.0 4.978192263303875e-13
  outer loop
    vertex -13.292893218813402 60.13183099999988 1.0057190120109945
    vertex -11.707106781186512 60.1318310000008 2.880719012010986
    vertex -13.292893218813397 60.1318310000008 2.8807190120109856
  endloop
endfacet
facet normal 1.6338002115887274e-16 -6.680825359544649e-13 -1.0
  outer loop
    vertex -27.499999999999922 49.63183099999925 0.005719012016284807
    vertex 2.5000000000000178 62.13183099999948 0.005719012010022162
    vertex 2.5000000000000644 49.63183099999939 0.005719012016271848
  endloop
endfacet
facet normal 1.6338002115887274e-16 -6.680825359544649e-13 -1.0
  outer loop
    vertex 2.5000000000000178 62.13183099999948 0.005719012010022162
    vertex -27.499999999999922 49.63183099999925 0.005719012016284807
    vertex -27.499999999999968 62.131830999999316 0.00571901201000833
  endloop
endfacet
facet normal 0.7071067811865533 -0.7071067811865417 3.559199337189479e-13
  outer loop
    vertex -11.707106781186512 60.1318310000008 2.880719012010986
    vertex -11.207106781186512 60.63183100000063 2.5057190120107395
    vertex -10.70710678118652 61.131831000001 3.255719012010477
  endloop
endfacet
facet normal 0.7071067811865533 -0.7071067811865417 3.559199337189479e-13
  outer loop
    vertex -11.207106781186512 60.63183100000063 2.5057190120107395
    vertex -11.707106781186512 60.1318310000008 2.880719012010986
    vertex -11.707106781186495 60.13183099999988 1.005719012010995
  endloop
endfacet
facet normal 0.7071067811865533 -0.7071067811865417 3.559199337189479e-13
  outer loop
    vertex -10.70710678118652 61.1318310000001 1.5057190120104857
    vertex -11.707106781186495 60.13183099999988 1.005719012010995
    vertex -10.70710678118652 61.13183099999987 1.0057190120104895
  endloop
endfacet
facet normal 0.7071067811865533 -0.7071067811865417 3.559199337189479e-13
  outer loop
    vertex -11.707106781186495 60.13183099999988 1.005719012010995
    vertex -10.70710678118652 61.1318310000001 1.5057190120104857
    vertex -11.207106781186512 60.63183100000063 2.5057190120107395
  endloop
endfacet
facet normal -0.7071067811865535 0.7071067811865416 -3.527817380859404e-13
  outer loop
    vertex -14.292893218813367 50.63183099999987 1.0057190120157504
    vertex -13.292893218813374 51.631831000000794 2.880719012015244
    vertex -13.292893218813392 51.63183099999985 1.0057190120152533
  endloop
endfacet
facet normal -0.7071067811865535 0.7071067811865416 -3.527817380859404e-13
  outer loop
    vertex -13.292893218813374 51.631831000000794 2.880719012015244
    vertex -14.292893218813367 50.63183099999987 1.0057190120157504
    vertex -13.792893218813374 51.1318310000006 2.505719012015499
  endloop
endfacet
facet normal -0.7071067811865535 0.7071067811865416 -3.527817380859404e-13
  outer loop
    vertex -13.792893218813374 51.1318310000006 2.505719012015499
    vertex -14.292893218813367 50.63183099999987 1.0057190120157504
    vertex -14.292893218813367 50.6318310000001 1.5057190120157466
  endloop
endfacet
facet normal -0.7071067811865535 0.7071067811865416 -3.527817380859404e-13
  outer loop
    vertex -14.292893218813367 50.63183100000099 3.2557190120157364
    vertex -13.292893218813374 51.631831000000794 2.880719012015244
    vertex -13.792893218813374 51.1318310000006 2.505719012015499
  endloop
endfacet
facet normal 6.220949681317076e-15 -1.0 6.777861129277379e-13
  outer loop
    vertex 2.500000000000052 49.63183100000107 3.255719012016273
    vertex -27.499999999999922 49.63183099999925 0.005719012016284807
    vertex 2.5000000000000644 49.63183099999939 0.005719012016271848
  endloop
endfacet
facet normal 6.220949681317076e-15 -1.0 6.777861129277379e-13
  outer loop
    vertex -27.499999999999922 49.63183099999925 0.005719012016284807
    vertex 2.500000000000052 49.63183100000107 3.255719012016273
    vertex -27.499999999999922 49.63183100000093 3.2557190120162827
  endloop
endfacet
facet normal 1.0 3.136380044569035e-15 2.8291090297663758e-15
  outer loop
    vertex 2.5000000000000284 61.13183100000107 3.255719012010507
    vertex 2.500000000000029 61.13183099999992 1.0057190120105275
    vertex 2.500000000000017 62.13183100000104 3.2557190120100175
  endloop
endfacet
facet normal 1.0 3.136380044569035e-15 2.8291090297663758e-15
  outer loop
    vertex 2.500000000000029 61.13183099999992 1.0057190120105275
    vertex 2.5000000000000284 61.13183100000107 3.255719012010507
    vertex 2.500000000000029 61.13183100000017 1.505719012010524
  endloop
endfacet
facet normal 1.0 3.136380044569035e-15 2.8291090297663758e-15
  outer loop
    vertex 2.500000000000029 61.13183100000017 1.505719012010524
    vertex 2.5000000000000284 61.13183100000107 3.255719012010507
    vertex 2.5000000000000284 60.63183100000067 2.505719012010775
  endloop
endfacet
facet normal 1.0 3.136380044569035e-15 2.8291090297663758e-15
  outer loop
    vertex 2.500000000000041 50.63183100000104 3.2557190120157666
    vertex 2.5000000000000524 50.63183100000016 1.505719012015786
    vertex 2.500000000000041 51.13183100000067 2.505719012015534
  endloop
endfacet
facet normal 1.0 3.136380044569035e-15 2.8291090297663758e-15
  outer loop
    vertex 2.5000000000000178 62.13183099999948 0.005719012010022162
    vertex 2.500000000000029 61.13183099999992 1.0057190120105275
    vertex 2.5000000000000644 49.63183099999939 0.005719012016271848
  endloop
endfacet
facet normal 1.0 3.136380044569035e-15 2.8291090297663758e-15
  outer loop
    vertex 2.500000000000029 61.13183099999992 1.0057190120105275
    vertex 2.5000000000000178 62.13183099999948 0.005719012010022162
    vertex 2.500000000000017 62.13183100000104 3.2557190120100175
  endloop
endfacet
facet normal 1.0 3.136380044569035e-15 2.8291090297663758e-15
  outer loop
    vertex 2.5000000000000644 49.63183099999939 0.005719012016271848
    vertex 2.500000000000029 61.13183099999992 1.0057190120105275
    vertex 2.500000000000053 50.63183099999994 1.0057190120157897
  endloop
endfacet
facet normal 1.0 3.136380044569035e-15 2.8291090297663758e-15
  outer loop
    vertex 2.5000000000000644 49.63183099999939 0.005719012016271848
    vertex 2.500000000000053 50.63183099999994 1.0057190120157897
    vertex 2.5000000000000524 50.63183100000016 1.505719012015786
  endloop
endfacet
facet normal 1.0 3.136380044569035e-15 2.8291090297663758e-15
  outer loop
    vertex 2.5000000000000644 49.63183099999939 0.005719012016271848
    vertex 2.5000000000000524 50.63183100000016 1.505719012015786
    vertex 2.500000000000041 50.63183100000104 3.2557190120157666
  endloop
endfacet
facet normal 1.0 3.136380044569035e-15 2.8291090297663758e-15
  outer loop
    vertex 2.5000000000000644 49.63183099999939 0.005719012016271848
    vertex 2.500000000000041 50.63183100000104 3.2557190120157666
    vertex 2.500000000000052 49.63183100000107 3.255719012016273
  endloop
endfacet
facet normal 5.829400602694806e-16 5.904394588016279e-13 1.0
  outer loop
    vertex 2.500000000000041 50.63183100000104 3.2557190120157666
    vertex -27.499999999999922 49.63183100000093 3.2557190120162827
    vertex 2.500000000000052 49.63183100000107 3.255719012016273
  endloop
endfacet
facet normal 5.829400602694806e-16 5.904394588016279e-13 1.0
  outer loop
    vertex -27.499999999999922 49.63183100000093 3.2557190120162827
    vertex 2.500000000000041 50.63183100000104 3.2557190120157666
    vertex -10.707106781186509 50.63183100000099 3.255719012015734
  endloop
endfacet
facet normal 5.829400602694806e-16 5.904394588016279e-13 1.0
  outer loop
    vertex -27.499999999999922 49.63183100000093 3.2557190120162827
    vertex -10.707106781186509 50.63183100000099 3.255719012015734
    vertex -14.292893218813367 50.63183100000099 3.2557190120157364
  endloop
endfacet
facet normal 5.829400602694806e-16 5.904394588016279e-13 1.0
  outer loop
    vertex -27.499999999999922 49.63183100000093 3.2557190120162827
    vertex -14.292893218813367 50.63183100000099 3.2557190120157364
    vertex -27.499999999999932 50.63183100000092 3.255719012015769
  endloop
endfacet
facet normal 4.2653216269563744e-15 -0.8320502943375641 0.5547001962256488
  outer loop
    vertex 2.5000000000000284 60.63183100000067 2.505719012010775
    vertex -10.70710678118652 61.131831000001 3.255719012010477
    vertex -11.207106781186512 60.63183100000063 2.5057190120107395
  endloop
endfacet
facet normal 4.2653216269563744e-15 -0.8320502943375641 0.5547001962256488
  outer loop
    vertex -10.70710678118652 61.131831000001 3.255719012010477
    vertex 2.5000000000000284 60.63183100000067 2.505719012010775
    vertex 2.5000000000000284 61.13183100000107 3.255719012010507
  endloop
endfacet
facet normal 4.250739775538875e-15 -0.8944271910001445 -0.4472135954995011
  outer loop
    vertex 2.500000000000029 61.13183100000017 1.505719012010524
    vertex -11.207106781186512 60.63183100000063 2.5057190120107395
    vertex -10.70710678118652 61.1318310000001 1.5057190120104857
  endloop
endfacet
facet normal 4.250739775538875e-15 -0.8944271910001445 -0.4472135954995011
  outer loop
    vertex -11.207106781186512 60.63183100000063 2.5057190120107395
    vertex 2.500000000000029 61.13183100000017 1.505719012010524
    vertex 2.5000000000000284 60.63183100000067 2.505719012010775
  endloop
endfacet
facet normal -1.4385967060370702e-15 0.8320502943381215 0.5547001962248125
  outer loop
    vertex -10.707106781186509 50.63183100000099 3.255719012015734
    vertex 2.500000000000041 51.13183100000067 2.505719012015534
    vertex -11.207106781186486 51.1318310000006 2.5057190120154997
  endloop
endfacet
facet normal -1.4385967060370702e-15 0.8320502943381215 0.5547001962248125
  outer loop
    vertex 2.500000000000041 51.13183100000067 2.505719012015534
    vertex -10.707106781186509 50.63183100000099 3.255719012015734
    vertex 2.500000000000041 50.63183100000104 3.2557190120157666
  endloop
endfacet
facet normal -3.258844724482353e-15 1.0 -5.009859913372178e-13
  outer loop
    vertex -27.499999999999932 50.6318309999998 1.0057190120157884
    vertex -14.292893218813367 50.6318310000001 1.5057190120157466
    vertex -14.292893218813367 50.63183099999987 1.0057190120157504
  endloop
endfacet
facet normal -3.258844724482353e-15 1.0 -5.009859913372178e-13
  outer loop
    vertex -14.292893218813367 50.6318310000001 1.5057190120157466
    vertex -27.499999999999932 50.6318309999998 1.0057190120157884
    vertex -27.499999999999932 50.63183100000005 1.5057190120157846
  endloop
endfacet
facet normal 3.1363800445676173e-15 -1.0 5.011109142402898e-13
  outer loop
    vertex 2.500000000000029 61.13183099999992 1.0057190120105275
    vertex -10.70710678118652 61.1318310000001 1.5057190120104857
    vertex -10.70710678118652 61.13183099999987 1.0057190120104895
  endloop
endfacet
facet normal 3.1363800445676173e-15 -1.0 5.011109142402898e-13
  outer loop
    vertex -10.70710678118652 61.1318310000001 1.5057190120104857
    vertex 2.500000000000029 61.13183099999992 1.0057190120105275
    vertex 2.500000000000029 61.13183100000017 1.505719012010524
  endloop
endfacet
facet normal -1.3597874108027678e-15 0.894427190999697 -0.4472135955003961
  outer loop
    vertex -11.207106781186486 51.1318310000006 2.5057190120154997
    vertex 2.5000000000000524 50.63183100000016 1.505719012015786
    vertex -10.707106781186496 50.63183100000012 1.505719012015745
  endloop
endfacet
facet normal -1.3597874108027678e-15 0.894427190999697 -0.4472135955003961
  outer loop
    vertex 2.5000000000000524 50.63183100000016 1.505719012015786
    vertex -11.207106781186486 51.1318310000006 2.5057190120154997
    vertex 2.500000000000041 51.13183100000067 2.505719012015534
  endloop
endfacet
facet normal -1.161989280666507e-15 0.3511234415888555 0.9363291775688707
  outer loop
    vertex -11.70710678118649 51.631831000000794 2.880719012015245
    vertex -14.292893218813367 50.63183100000099 3.2557190120157364
    vertex -10.707106781186509 50.63183100000099 3.255719012015734
  endloop
endfacet
facet normal -1.161989280666507e-15 0.3511234415888555 0.9363291775688707
  outer loop
    vertex -14.292893218813367 50.63183100000099 3.2557190120157364
    vertex -11.70710678118649 51.631831000000794 2.880719012015245
    vertex -13.292893218813374 51.631831000000794 2.880719012015244
  endloop
endfacet
facet normal -0.7071067811865467 -0.7071067811865483 3.5556030430746385e-13
  outer loop
    vertex -13.292893218813397 60.1318310000008 2.8807190120109856
    vertex -14.29289321881339 61.13183099999985 1.005719012010487
    vertex -13.292893218813402 60.13183099999988 1.0057190120109945
  endloop
endfacet
facet normal -0.7071067811865467 -0.7071067811865483 3.5556030430746385e-13
  outer loop
    vertex -14.29289321881339 61.13183099999985 1.005719012010487
    vertex -13.292893218813397 60.1318310000008 2.8807190120109856
    vertex -14.29289321881339 61.1318310000001 1.5057190120104833
  endloop
endfacet
facet normal -0.7071067811865467 -0.7071067811865483 3.5556030430746385e-13
  outer loop
    vertex -14.29289321881339 61.1318310000001 1.5057190120104833
    vertex -13.292893218813397 60.1318310000008 2.8807190120109856
    vertex -13.792893218813402 60.63183100000063 2.5057190120107387
  endloop
endfacet
facet normal -0.7071067811865467 -0.7071067811865483 3.5556030430746385e-13
  outer loop
    vertex -13.792893218813402 60.63183100000063 2.5057190120107387
    vertex -13.292893218813397 60.1318310000008 2.8807190120109856
    vertex -14.292893218813377 61.13183100000098 3.255719012010473
  endloop
endfacet
facet normal -1.600224128762955e-16 5.010772826268111e-13 1.0
  outer loop
    vertex 2.500000000000029 61.13183099999992 1.0057190120105275
    vertex -10.707106781186496 50.63183099999987 1.0057190120157486
    vertex 2.500000000000053 50.63183099999994 1.0057190120157897
  endloop
endfacet
facet normal -1.600224128762955e-16 5.010772826268111e-13 1.0
  outer loop
    vertex -10.707106781186496 50.63183099999987 1.0057190120157486
    vertex 2.500000000000029 61.13183099999992 1.0057190120105275
    vertex -10.70710678118652 61.13183099999987 1.0057190120104895
  endloop
endfacet
facet normal -1.600224128762955e-16 5.010772826268111e-13 1.0
  outer loop
    vertex -10.707106781186496 50.63183099999987 1.0057190120157486
    vertex -10.70710678118652 61.13183099999987 1.0057190120104895
    vertex -11.707106781186484 51.63183099999985 1.005719012015254
  endloop
endfacet
facet normal -1.600224128762955e-16 5.010772826268111e-13 1.0
  outer loop
    vertex -11.707106781186484 51.63183099999985 1.005719012015254
    vertex -10.70710678118652 61.13183099999987 1.0057190120104895
    vertex -11.707106781186495 60.13183099999988 1.005719012010995
  endloop
endfacet
facet normal -1.600224128762955e-16 5.010772826268111e-13 1.0
  outer loop
    vertex -11.707106781186484 51.63183099999985 1.005719012015254
    vertex -11.707106781186495 60.13183099999988 1.005719012010995
    vertex -13.292893218813392 51.63183099999985 1.0057190120152533
  endloop
endfacet
facet normal -1.600224128762955e-16 5.010772826268111e-13 1.0
  outer loop
    vertex -13.292893218813392 51.63183099999985 1.0057190120152533
    vertex -11.707106781186495 60.13183099999988 1.005719012010995
    vertex -13.292893218813402 60.13183099999988 1.0057190120109945
  endloop
endfacet
facet normal -1.600224128762955e-16 5.010772826268111e-13 1.0
  outer loop
    vertex -13.292893218813392 51.63183099999985 1.0057190120152533
    vertex -13.292893218813402 60.13183099999988 1.0057190120109945
    vertex -14.292893218813367 50.63183099999987 1.0057190120157504
  endloop
endfacet
facet normal -1.600224128762955e-16 5.010772826268111e-13 1.0
  outer loop
    vertex -14.292893218813367 50.63183099999987 1.0057190120157504
    vertex -13.292893218813402 60.13183099999988 1.0057190120109945
    vertex -14.29289321881339 61.13183099999985 1.005719012010487
  endloop
endfacet
facet normal -1.600224128762955e-16 5.010772826268111e-13 1.0
  outer loop
    vertex -14.292893218813367 50.63183099999987 1.0057190120157504
    vertex -14.29289321881339 61.13183099999985 1.005719012010487
    vertex -27.499999999999932 50.6318309999998 1.0057190120157884
  endloop
endfacet
facet normal -1.600224128762955e-16 5.010772826268111e-13 1.0
  outer loop
    vertex -27.499999999999932 50.6318309999998 1.0057190120157884
    vertex -14.29289321881339 61.13183099999985 1.005719012010487
    vertex -27.499999999999954 61.131830999999806 1.005719012010528
  endloop
endfacet
endsolid ProtoGlove
