solid ProtoGlove baseplate
facet normal 6.804284978805591e-16 1.0 -1.9421157367909715e-12
  outer loop
    vertex 192.97302171618836 -54.49999999999856 101.50000000001982
    vertex 221.9730217161886 -54.49999999999856 101.50000000001982
    vertex 191.97302171618858 -54.50000000000044 100.50000000001978
  endloop
endfacet
facet normal 6.804284978805591e-16 1.0 -1.9421157367909715e-12
  outer loop
    vertex 221.9730217161886 -54.50000000000147 100.00000000001981
    vertex 191.97302171618858 -54.50000000000044 100.50000000001978
    vertex 221.9730217161886 -54.49999999999856 101.50000000001982
  endloop
endfacet
facet normal 6.804284978805591e-16 1.0 -1.9421157367909715e-12
  outer loop
    vertex 191.97302171618858 -54.50000000000147 100.0000000000199
    vertex 191.97302171618858 -54.50000000000044 100.50000000001978
    vertex 221.9730217161886 -54.50000000000147 100.00000000001981
  endloop
endfacet
facet normal 0.9363291775688742 -0.3511234415888462 7.08573699888767e-13
  outer loop
    vertex 261.1721616122545 -71.63562694382105 101.50000000005349
    vertex 261.3956714469987 -71.03960071783747 101.50000000005228
    vertex 261.96768159977375 -69.51424031043422 103.45196402783536
  endloop
endfacet
facet normal 0.9363291775688742 -0.3511234415888462 7.08573699888767e-13
  outer loop
    vertex 261.97302171618855 -69.5000000000001 100.50000000004923
    vertex 261.96768159977375 -69.51424031043422 103.45196402783536
    vertex 261.3956714469987 -71.03960071783747 101.50000000005228
  endloop
endfacet
facet normal 0.9363291775688742 -0.3511234415888462 7.08573699888767e-13
  outer loop
    vertex 262.2184499212054 -68.84552478661281 104.14915258475646
    vertex 261.96768159977375 -69.51424031043422 103.45196402783536
    vertex 261.97302171618855 -69.5000000000001 100.50000000004923
  endloop
endfacet
facet normal 0.9363291775688742 -0.3511234415888462 7.08573699888767e-13
  outer loop
    vertex 261.9730217161887 -69.50000000000149 100.00000000004925
    vertex 264.5911714366851 -62.51826741200173 110.64897657579213
    vertex 261.97302171618855 -69.5000000000001 100.50000000004923
  endloop
endfacet
facet normal 0.9363291775688742 -0.3511234415888462 7.08573699888767e-13
  outer loop
    vertex 262.2184499212054 -68.84552478661281 104.14915258475646
    vertex 261.97302171618855 -69.5000000000001 100.50000000004923
    vertex 264.5911714366851 -62.51826741200173 110.64897657579213
  endloop
endfacet
facet normal 0.9363291775688742 -0.3511234415888462 7.08573699888767e-13
  outer loop
    vertex 262.6840390753569 -67.60395370887618 105.61528875704113
    vertex 262.2184499212054 -68.84552478661281 104.14915258475646
    vertex 264.5911714366851 -62.51826741200173 110.64897657579213
  endloop
endfacet
facet normal 0.9363291775688742 -0.3511234415888462 7.08573699888767e-13
  outer loop
    vertex 262.9024991432628 -67.02139352779261 106.39569629216723
    vertex 262.6840390753569 -67.60395370887618 105.61528875704113
    vertex 264.5911714366851 -62.51826741200173 110.64897657579213
  endloop
endfacet
facet normal 0.9363291775688742 -0.3511234415888462 7.08573699888767e-13
  outer loop
    vertex 263.8576420107034 -64.47434588128387 110.28061316388909
    vertex 262.9024991432628 -67.02139352779261 106.39569629216723
    vertex 264.5911714366851 -62.51826741200173 110.64897657579213
  endloop
endfacet
facet normal 0.9363291775688742 -0.3511234415888462 7.08573699888767e-13
  outer loop
    vertex 264.3754538229524 -63.09351438194981 111.07915890305657
    vertex 263.8576420107034 -64.47434588128387 110.28061316388909
    vertex 264.5911714366851 -62.51826741200173 110.64897657579213
  endloop
endfacet
facet normal -0.22918321690941293 -0.6111552450901424 0.7576043291097677
  outer loop
    vertex 240.57291970573792 -63.91091122887739 101.50000000003621
    vertex 261.1721616122545 -71.63562694382105 101.50000000005349
    vertex 241.36843969325574 -61.789524595490555 103.45196402781819
  endloop
endfacet
facet normal -0.22918321690941293 -0.6111552450901424 0.7576043291097677
  outer loop
    vertex 261.96768159977375 -69.51424031043422 103.45196402783536
    vertex 241.36843969325574 -61.789524595490555 103.45196402781819
    vertex 261.1721616122545 -71.63562694382105 101.50000000005349
  endloop
endfacet
facet normal -0.274550174429828 -0.7321337984777653 0.6233797420890977
  outer loop
    vertex 262.9024991432628 -67.02139352779261 106.39569629216723
    vertex 242.71110987257373 -59.449622551274445 106.39569629215273
    vertex 262.6840390753569 -67.60395370887618 105.61528875704113
  endloop
endfacet
facet normal -0.274550174429828 -0.7321337984777653 0.6233797420890977
  outer loop
    vertex 242.24680926486246 -59.447205737867556 106.19404652144749
    vertex 262.6840390753569 -67.60395370887618 105.61528875704113
    vertex 242.71110987257373 -59.449622551274445 106.39569629215273
  endloop
endfacet
facet normal -0.274550174429828 -0.7321337984777653 0.6233797420890977
  outer loop
    vertex 242.0847971688394 -59.87923799393214 105.61528875702412
    vertex 262.6840390753569 -67.60395370887618 105.61528875704113
    vertex 242.24680926486246 -59.447205737867556 106.19404652144749
  endloop
endfacet
facet normal 0.20139613234591455 0.5370563529233795 0.8191520442877168
  outer loop
    vertex 254.07583286969503 -59.231156524473555 111.0791589030492
    vertex 264.3754538229524 -63.09351438194981 111.07915890305657
    vertex 254.2915504834263 -58.65590955452511 110.6489765757847
  endloop
endfacet
facet normal 0.20139613234591455 0.5370563529233795 0.8191520442877168
  outer loop
    vertex 264.5911714366851 -62.51826741200173 110.64897657579213
    vertex 254.2915504834263 -58.65590955452511 110.6489765757847
    vertex 264.3754538229524 -63.09351438194981 111.07915890305657
  endloop
endfacet
facet normal -0.16719117726577803 -0.44584313937323333 0.8793582917777618
  outer loop
    vertex 251.18118545284662 -59.72067467208251 110.28061316388
    vertex 263.8576420107034 -64.47434588128387 110.28061316388909
    vertex 254.07583286969503 -59.231156524473555 111.0791589030492
  endloop
endfacet
facet normal -0.16719117726577803 -0.44584313937323333 0.8793582917777618
  outer loop
    vertex 264.3754538229524 -63.09351438194981 111.07915890305657
    vertex 254.07583286969503 -59.231156524473555 111.0791589030492
    vertex 263.8576420107034 -64.47434588128387 110.28061316388909
  endloop
endfacet
facet normal -0.2876234849752116 -0.7669959599318723 0.5735764363525581
  outer loop
    vertex 263.8576420107034 -64.47434588128387 110.28061316388909
    vertex 251.18118545284662 -59.72067467208251 110.28061316388
    vertex 262.9024991432628 -67.02139352779261 106.39569629216723
  endloop
endfacet
facet normal -0.2876234849752116 -0.7669959599318723 0.5735764363525581
  outer loop
    vertex 242.71110987257373 -59.449622551274445 106.39569629215273
    vertex 262.9024991432628 -67.02139352779261 106.39569629216723
    vertex 251.18118545284662 -59.72067467208251 110.28061316388
  endloop
endfacet
facet normal 0.2876234849749932 0.7669959599318651 -0.573576436352677
  outer loop
    vertex 264.5911714366851 -62.51826741200173 110.64897657579213
    vertex 261.9730217161887 -69.50000000000149 100.00000000004925
    vertex 254.2915504834263 -58.65590955452511 110.6489765757847
  endloop
endfacet
facet normal 0.2876234849749932 0.7669959599318651 -0.573576436352677
  outer loop
    vertex 242.68285466991864 -58.28441799105316 105.32448828790459
    vertex 254.2915504834263 -58.65590955452511 110.6489765757847
    vertex 261.9730217161887 -69.50000000000149 100.00000000004925
  endloop
endfacet
facet normal 0.2876234849749932 0.7669959599318651 -0.573576436352677
  outer loop
    vertex 241.37377980967054 -61.775284285057815 100.00000000003199
    vertex 242.68285466991864 -58.28441799105316 105.32448828790459
    vertex 261.9730217161887 -69.50000000000149 100.00000000004925
  endloop
endfacet
facet normal 0.2876234849749932 0.7669959599318651 -0.573576436352677
  outer loop
    vertex 259.1640341834791 -68.44662967523942 100.00000000004141
    vertex 241.37377980967054 -61.775284285057815 100.00000000003199
    vertex 261.9730217161887 -69.50000000000149 100.00000000004925
  endloop
endfacet
facet normal -0.26041527417593563 -0.6944407311343922 0.6707726559106321
  outer loop
    vertex 262.6840390753569 -67.60395370887618 105.61528875704113
    vertex 242.0847971688394 -59.87923799393214 105.61528875702412
    vertex 262.2184499212054 -68.84552478661281 104.14915258475646
  endloop
endfacet
facet normal -0.26041527417593563 -0.6944407311343922 0.6707726559106321
  outer loop
    vertex 241.61920801468824 -61.12080907166915 104.14915258473921
    vertex 262.2184499212054 -68.84552478661281 104.14915258475646
    vertex 242.0847971688394 -59.87923799393214 105.61528875702412
  endloop
endfacet
facet normal -0.30295082541256085 0.6409928482888464 0.7052297255677755
  outer loop
    vertex 242.24680926486246 -59.447205737867556 106.19404652144749
    vertex 242.71110987257373 -59.449622551274445 106.39569629215273
    vertex 242.68285466991864 -58.28441799105316 105.32448828790459
  endloop
endfacet
facet normal -0.30295082541256085 0.6409928482888464 0.7052297255677755
  outer loop
    vertex 254.2915504834263 -58.65590955452511 110.6489765757847
    vertex 242.68285466991864 -58.28441799105316 105.32448828790459
    vertex 242.71110987257373 -59.449622551274445 106.39569629215273
  endloop
endfacet
facet normal -0.30295082541256085 0.6409928482888464 0.7052297255677755
  outer loop
    vertex 251.18118545284662 -59.72067467208251 110.28061316388
    vertex 254.2915504834263 -58.65590955452511 110.6489765757847
    vertex 242.71110987257373 -59.449622551274445 106.39569629215273
  endloop
endfacet
facet normal -0.30295082541256085 0.6409928482888464 0.7052297255677755
  outer loop
    vertex 254.07583286969503 -59.231156524473555 111.0791589030492
    vertex 254.2915504834263 -58.65590955452511 110.6489765757847
    vertex 251.18118545284662 -59.72067467208251 110.28061316388
  endloop
endfacet
facet normal -0.24527343893815098 -0.6540625038335807 0.7155719259657973
  outer loop
    vertex 241.36843969325574 -61.789524595490555 103.45196402781819
    vertex 261.96768159977375 -69.51424031043422 103.45196402783536
    vertex 241.61920801468824 -61.12080907166915 104.14915258473921
  endloop
endfacet
facet normal -0.24527343893815098 -0.6540625038335807 0.7155719259657973
  outer loop
    vertex 262.2184499212054 -68.84552478661281 104.14915258475646
    vertex 241.61920801468824 -61.12080907166915 104.14915258473921
    vertex 261.96768159977375 -69.51424031043422 103.45196402783536
  endloop
endfacet
facet normal -0.9363291775690882 0.3511234415882752 -5.816762892151675e-13
  outer loop
    vertex 241.37377980967054 -61.775284285057815 100.00000000003199
    vertex 241.37377980967054 -61.775284285055086 101.500000000032
    vertex 242.68285466991864 -58.28441799105316 105.32448828790459
  endloop
endfacet
facet normal -0.9363291775690882 0.3511234415882752 -5.816762892151675e-13
  outer loop
    vertex 241.61920801468824 -61.12080907166915 104.14915258473921
    vertex 242.68285466991864 -58.28441799105316 105.32448828790459
    vertex 241.37377980967054 -61.775284285055086 101.500000000032
  endloop
endfacet
facet normal -0.9363291775690882 0.3511234415882752 -5.816762892151675e-13
  outer loop
    vertex 242.0847971688394 -59.87923799393214 105.61528875702412
    vertex 242.68285466991864 -58.28441799105316 105.32448828790459
    vertex 241.61920801468824 -61.12080907166915 104.14915258473921
  endloop
endfacet
facet normal -0.9363291775690882 0.3511234415882752 -5.816762892151675e-13
  outer loop
    vertex 242.24680926486246 -59.447205737867556 106.19404652144749
    vertex 242.68285466991864 -58.28441799105316 105.32448828790459
    vertex 242.0847971688394 -59.87923799393214 105.61528875702412
  endloop
endfacet
facet normal -0.9363291775690882 0.3511234415882752 -5.816762892151675e-13
  outer loop
    vertex 240.57291970573792 -63.91091122887739 101.50000000003621
    vertex 241.36843969325574 -61.789524595490555 103.45196402781819
    vertex 241.37377980967054 -61.775284285055086 101.500000000032
  endloop
endfacet
facet normal -0.9363291775690882 0.3511234415882752 -5.816762892151675e-13
  outer loop
    vertex 241.61920801468824 -61.12080907166915 104.14915258473921
    vertex 241.37377980967054 -61.775284285055086 101.500000000032
    vertex 241.36843969325574 -61.789524595490555 103.45196402781819
  endloop
endfacet
facet normal -0.685994340570263 -0.17149858514116442 0.7071067811866529
  outer loop
    vertex 191.97302171618858 -94.50000000000055 100.50000000009842
    vertex 201.97302171618864 -134.50000000000065 100.50000000017744
    vertex 192.97302171618836 -94.37689437438057 101.5000000000984
  endloop
endfacet
facet normal -0.685994340570263 -0.17149858514116442 0.7071067811866529
  outer loop
    vertex 203.00379812259223 -134.49999999999875 101.5000000001774
    vertex 192.97302171618836 -94.37689437438057 101.5000000000984
    vertex 201.97302171618864 -134.50000000000065 100.50000000017744
  endloop
endfacet
facet normal -0.9701425001453323 -0.2425356250363314 6.325596510142234e-13
  outer loop
    vertex 201.97302171618847 -134.5000000000017 100.00000000017738
    vertex 201.97302171618864 -134.50000000000065 100.50000000017744
    vertex 191.97302171618858 -94.5000000000014 100.00000000009845
  endloop
endfacet
facet normal -0.9701425001453323 -0.2425356250363314 6.325596510142234e-13
  outer loop
    vertex 191.97302171618858 -94.50000000000055 100.50000000009842
    vertex 191.97302171618858 -94.5000000000014 100.00000000009845
    vertex 201.97302171618864 -134.50000000000065 100.50000000017744
  endloop
endfacet
facet normal 0.35112344158842823 -0.9363291775690308 1.3557409526596383e-12
  outer loop
    vertex 221.97302171618944 -134.50000000000182 101.50122479399573
    vertex 221.97302171618944 -134.5000000000017 100.00000000017742
    vertex 261.39567144699924 -119.71650635094466 101.50000000014494
  endloop
endfacet
facet normal 0.35112344158842823 -0.9363291775690308 1.3557409526596383e-12
  outer loop
    vertex 261.97302171618963 -119.5000000000001 100.50000000014789
    vertex 261.39567144699924 -119.71650635094466 101.50000000014494
    vertex 221.97302171618944 -134.5000000000017 100.00000000017742
  endloop
endfacet
facet normal 0.35112344158842823 -0.9363291775690308 1.3557409526596383e-12
  outer loop
    vertex 261.97302171618855 -119.50000000000149 100.00000000014784
    vertex 261.97302171618963 -119.5000000000001 100.50000000014789
    vertex 221.97302171618944 -134.5000000000017 100.00000000017742
  endloop
endfacet
facet normal -0.7071067811865643 1.3928857671685978e-12 0.7071067811865309
  outer loop
    vertex 191.97302171618858 -94.50000000000055 100.50000000009842
    vertex 192.97302171618836 -94.37689437438057 101.5000000000984
    vertex 191.97302171618858 -54.50000000000044 100.50000000001978
  endloop
endfacet
facet normal -0.7071067811865643 1.3928857671685978e-12 0.7071067811865309
  outer loop
    vertex 192.97302171618836 -54.49999999999856 101.50000000001982
    vertex 191.97302171618858 -54.50000000000044 100.50000000001978
    vertex 192.97302171618836 -94.37689437438057 101.5000000000984
  endloop
endfacet
facet normal -1.0 0.0 0.0
  outer loop
    vertex 191.97302171618858 -94.5000000000014 100.00000000009845
    vertex 191.97302171618858 -94.50000000000055 100.50000000009842
    vertex 191.97302171618858 -54.50000000000147 100.0000000000199
  endloop
endfacet
facet normal -1.0 0.0 0.0
  outer loop
    vertex 191.97302171618858 -54.50000000000044 100.50000000001978
    vertex 191.97302171618858 -54.50000000000147 100.0000000000199
    vertex 191.97302171618858 -94.50000000000055 100.50000000009842
  endloop
endfacet
facet normal 1.0 9.023892742373312e-15 -9.023892744154275e-13
  outer loop
    vertex 261.97302171618855 -119.50000000000149 100.00000000014784
    vertex 261.9730217161887 -69.50000000000149 100.00000000004925
    vertex 261.97302171618963 -119.5000000000001 100.50000000014789
  endloop
endfacet
facet normal 1.0 9.023892742373312e-15 -9.023892744154275e-13
  outer loop
    vertex 261.97302171618855 -69.5000000000001 100.50000000004923
    vertex 261.97302171618963 -119.5000000000001 100.50000000014789
    vertex 261.9730217161887 -69.50000000000149 100.00000000004925
  endloop
endfacet
facet normal 0.3511234415884223 0.9363291775690331 -1.7654456510664164e-12
  outer loop
    vertex 241.37377980967054 -61.775284285055086 101.500000000032
    vertex 241.37377980967054 -61.775284285057815 100.00000000003199
    vertex 221.9730217161886 -54.49999999999856 101.50000000001982
  endloop
endfacet
facet normal 0.3511234415884223 0.9363291775690331 -1.7654456510664164e-12
  outer loop
    vertex 221.9730217161886 -54.50000000000147 100.00000000001981
    vertex 221.9730217161886 -54.49999999999856 101.50000000001982
    vertex 241.37377980967054 -61.775284285057815 100.00000000003199
  endloop
endfacet
facet normal 0.8660254037840378 9.903048154443573e-13 0.5000000000006942
  outer loop
    vertex 261.39567144699924 -119.71650635094466 101.50000000014494
    vertex 261.97302171618963 -119.5000000000001 100.50000000014789
    vertex 261.3956714469987 -71.03960071783747 101.50000000005228
  endloop
endfacet
facet normal 0.8660254037840378 9.903048154443573e-13 0.5000000000006942
  outer loop
    vertex 261.97302171618855 -69.5000000000001 100.50000000004923
    vertex 261.3956714469987 -71.03960071783747 101.50000000005228
    vertex 261.97302171618963 -119.5000000000001 100.50000000014789
  endloop
endfacet
facet normal -2.1092305333223937e-14 -1.9891659035925316e-12 -1.0
  outer loop
    vertex 191.97302171618858 -94.5000000000014 100.00000000009845
    vertex 191.97302171618858 -54.50000000000147 100.0000000000199
    vertex 201.97302171618847 -134.5000000000017 100.00000000017738
  endloop
endfacet
facet normal -2.1092305333223937e-14 -1.9891659035925316e-12 -1.0
  outer loop
    vertex 221.9730217161886 -54.50000000000147 100.00000000001981
    vertex 201.97302171618847 -134.5000000000017 100.00000000017738
    vertex 191.97302171618858 -54.50000000000147 100.0000000000199
  endloop
endfacet
facet normal -2.1092305333223937e-14 -1.9891659035925316e-12 -1.0
  outer loop
    vertex 221.97302171618944 -134.5000000000017 100.00000000017742
    vertex 201.97302171618847 -134.5000000000017 100.00000000017738
    vertex 221.9730217161886 -54.50000000000147 100.00000000001981
  endloop
endfacet
facet normal -2.1092305333223937e-14 -1.9891659035925316e-12 -1.0
  outer loop
    vertex 241.37377980967054 -61.775284285057815 100.00000000003199
    vertex 221.97302171618944 -134.5000000000017 100.00000000017742
    vertex 221.9730217161886 -54.50000000000147 100.00000000001981
  endloop
endfacet
facet normal -2.1092305333223937e-14 -1.9891659035925316e-12 -1.0
  outer loop
    vertex 261.97302171618855 -119.50000000000149 100.00000000014784
    vertex 221.97302171618944 -134.5000000000017 100.00000000017742
    vertex 241.37377980967054 -61.775284285057815 100.00000000003199
  endloop
endfacet
facet normal -2.1092305333223937e-14 -1.9891659035925316e-12 -1.0
  outer loop
    vertex 259.1640341834791 -68.44662967523942 100.00000000004141
    vertex 261.97302171618855 -119.50000000000149 100.00000000014784
    vertex 241.37377980967054 -61.775284285057815 100.00000000003199
  endloop
endfacet
facet normal -2.1092305333223937e-14 -1.9891659035925316e-12 -1.0
  outer loop
    vertex 261.9730217161887 -69.50000000000149 100.00000000004925
    vertex 261.97302171618855 -119.50000000000149 100.00000000014784
    vertex 259.1640341834791 -68.44662967523942 100.00000000004141
  endloop
endfacet
facet normal -7.835351043824651e-14 -1.0 1.2927144579188627e-12
  outer loop
    vertex 221.97302171618944 -134.50000000000182 101.50122479399573
    vertex 203.00379812259223 -134.49999999999875 101.5000000001774
    vertex 221.97302171618944 -134.5000000000017 100.00000000017742
  endloop
endfacet
facet normal -7.835351043824651e-14 -1.0 1.2927144579188627e-12
  outer loop
    vertex 201.97302171618864 -134.50000000000065 100.50000000017744
    vertex 221.97302171618944 -134.5000000000017 100.00000000017742
    vertex 203.00379812259223 -134.49999999999875 101.5000000001774
  endloop
endfacet
facet normal -7.835351043824651e-14 -1.0 1.2927144579188627e-12
  outer loop
    vertex 201.97302171618847 -134.5000000000017 100.00000000017738
    vertex 221.97302171618944 -134.5000000000017 100.00000000017742
    vertex 201.97302171618864 -134.50000000000065 100.50000000017744
  endloop
endfacet
facet normal 5.44466236846957e-07 6.257451347453421e-06 0.999999999980274
  outer loop
    vertex 192.97302171618836 -54.49999999999856 101.50000000001982
    vertex 192.97302171618836 -94.37689437438057 101.5000000000984
    vertex 221.9730217161886 -54.49999999999856 101.50000000001982
  endloop
endfacet
facet normal 5.44466236846957e-07 6.257451347453421e-06 0.999999999980274
  outer loop
    vertex 203.00379812259223 -134.49999999999875 101.5000000001774
    vertex 221.9730217161886 -54.49999999999856 101.50000000001982
    vertex 192.97302171618836 -94.37689437438057 101.5000000000984
  endloop
endfacet
facet normal 5.44466236846957e-07 6.257451347453421e-06 0.999999999980274
  outer loop
    vertex 221.97302171618944 -134.50000000000182 101.50122479399573
    vertex 221.9730217161886 -54.49999999999856 101.50000000001982
    vertex 203.00379812259223 -134.49999999999875 101.5000000001774
  endloop
endfacet
facet normal 5.44466236846957e-07 6.257451347453421e-06 0.999999999980274
  outer loop
    vertex 240.57291970573792 -63.91091122887739 101.50000000003621
    vertex 221.9730217161886 -54.49999999999856 101.50000000001982
    vertex 221.97302171618944 -134.50000000000182 101.50122479399573
  endloop
endfacet
facet normal 5.44466236846957e-07 6.257451347453421e-06 0.999999999980274
  outer loop
    vertex 241.37377980967054 -61.775284285055086 101.500000000032
    vertex 221.9730217161886 -54.49999999999856 101.50000000001982
    vertex 240.57291970573792 -63.91091122887739 101.50000000003621
  endloop
endfacet
facet normal 5.44466236846957e-07 6.257451347453421e-06 0.999999999980274
  outer loop
    vertex 221.97302171618944 -134.50000000000182 101.50122479399573
    vertex 261.39567144699924 -119.71650635094466 101.50000000014494
    vertex 240.57291970573792 -63.91091122887739 101.50000000003621
  endloop
endfacet
facet normal 5.44466236846957e-07 6.257451347453421e-06 0.999999999980274
  outer loop
    vertex 261.1721616122545 -71.63562694382105 101.50000000005349
    vertex 240.57291970573792 -63.91091122887739 101.50000000003621
    vertex 261.39567144699924 -119.71650635094466 101.50000000014494
  endloop
endfacet
facet normal 5.44466236846957e-07 6.257451347453421e-06 0.999999999980274
  outer loop
    vertex 261.3956714469987 -71.03960071783747 101.50000000005228
    vertex 261.1721616122545 -71.63562694382105 101.50000000005349
    vertex 261.39567144699924 -119.71650635094466 101.50000000014494
  endloop
endfacet
endsolid ProtoGlove baseplate
