solid ProtoGlove baseplate
facet normal -0.24241192656313973 0.6060298164069151 0.7576043291096929
  outer loop
    vertex 413.40486354462035 26.08630735778349 103.4519640278635
    vertex 431.1329590781707 35.61771659525556 101.50000000009855
    vertex 412.56342526046376 28.189903068182147 101.50000000008151
  endloop
endfacet
facet normal -0.24241192656313973 0.6060298164069151 0.7576043291096929
  outer loop
    vertex 431.1329590781707 35.61771659525556 101.50000000009855
    vertex 413.40486354462035 26.08630735778349 103.4519640278635
    vertex 431.97439736232724 33.514120884856716 103.45196402788054
  endloop
endfacet
facet normal -0.928476690885403 -0.3713906763537445 -7.677799642653498e-13
  outer loop
    vertex 414.5821270719872 23.143148539361775 104.50533624366226
    vertex 413.41051189848184 26.07218647313375 101.50000000007739
    vertex 413.41051189848184 26.072186473136494 100.00000000007738
  endloop
endfacet
facet normal -0.928476690885403 -0.3713906763537445 -7.677799642653498e-13
  outer loop
    vertex 413.41051189848184 26.07218647313375 101.50000000007739
    vertex 414.5821270719872 23.143148539361775 104.50533624366226
    vertex 413.67010649189695 25.423199989588838 104.1491525847846
  endloop
endfacet
facet normal -0.928476690885403 -0.3713906763537445 -7.677799642653498e-13
  outer loop
    vertex 413.67010649189695 25.423199989588838 104.1491525847846
    vertex 414.5821270719872 23.143148539361775 104.50533624366226
    vertex 414.09697969191507 24.356016989540613 105.42001685978649
  endloop
endfacet
facet normal -0.928476690885403 -0.3713906763537445 -7.677799642653498e-13
  outer loop
    vertex 413.41051189848184 26.07218647313375 101.50000000007739
    vertex 413.40486354462035 26.08630735778349 103.4519640278635
    vertex 412.56342526046376 28.189903068182147 101.50000000008151
  endloop
endfacet
facet normal -0.928476690885403 -0.3713906763537445 -7.677799642653498e-13
  outer loop
    vertex 413.40486354462035 26.08630735778349 103.4519640278635
    vertex 413.41051189848184 26.07218647313375 101.50000000007739
    vertex 413.67010649189695 25.423199989588838 104.1491525847846
  endloop
endfacet
facet normal -0.29039751522507024 0.7259937880618238 0.6233797420888402
  outer loop
    vertex 432.7321037864974 31.619854824428522 105.61528875708628
    vertex 416.51629316209886 24.463428080724064 106.3956962921996
    vertex 432.96317361199493 31.042180260683466 106.39569629221239
  endloop
endfacet
facet normal -0.29039751522507024 0.7259937880618238 0.6233797420888402
  outer loop
    vertex 416.51629316209886 24.463428080724064 106.3956962921996
    vertex 432.7321037864974 31.619854824428522 105.61528875708628
    vertex 414.6036050348414 24.36845532377531 105.61528875706993
  endloop
endfacet
facet normal 0.928476690885298 0.3713906763540072 6.057275965931798e-13
  outer loop
    vertex 431.97439736232724 33.514120884856716 103.45196402788054
    vertex 431.40269544699925 34.94337567318283 101.50000000009726
    vertex 431.1329590781707 35.61771659525556 101.50000000009855
  endloop
endfacet
facet normal 0.928476690885298 0.3713906763540072 6.057275965931798e-13
  outer loop
    vertex 431.40269544699925 34.94337567318283 101.50000000009726
    vertex 431.97439736232724 33.514120884856716 103.45196402788054
    vertex 431.9800457161887 33.500000000209056 100.50000000009439
  endloop
endfacet
facet normal 0.928476690885298 0.3713906763540072 6.057275965931798e-13
  outer loop
    vertex 431.9800457161887 33.500000000209056 100.50000000009439
    vertex 431.97439736232724 33.514120884856716 103.45196402788054
    vertex 432.23964030960343 32.85101351666243 104.14915258480163
  endloop
endfacet
facet normal 0.928476690885298 0.3713906763540072 6.057275965931798e-13
  outer loop
    vertex 431.9800457161887 33.500000000209056 100.50000000009439
    vertex 434.32327606319893 27.64192413267003 109.01067248726174
    vertex 431.9800457161887 33.5000000002099 100.0000000000944
  endloop
endfacet
facet normal 0.928476690885298 0.3713906763540072 6.057275965931798e-13
  outer loop
    vertex 434.32327606319893 27.64192413267003 109.01067248726174
    vertex 431.9800457161887 33.500000000209056 100.50000000009439
    vertex 432.23964030960343 32.85101351666243 104.14915258480163
  endloop
endfacet
facet normal 0.928476690885298 0.3713906763540072 6.057275965931798e-13
  outer loop
    vertex 434.32327606319893 27.64192413267003 109.01067248726174
    vertex 432.23964030960343 32.85101351666243 104.14915258480163
    vertex 432.7321037864974 31.619854824428522 105.61528875708628
  endloop
endfacet
facet normal 0.928476690885298 0.3713906763540072 6.057275965931798e-13
  outer loop
    vertex 434.32327606319893 27.64192413267003 109.01067248726174
    vertex 432.7321037864974 31.619854824428522 105.61528875708628
    vertex 432.96317361199493 31.042180260683466 106.39569629221239
  endloop
endfacet
facet normal 0.928476690885298 0.3713906763540072 6.057275965931798e-13
  outer loop
    vertex 434.32327606319893 27.64192413267003 109.01067248726174
    vertex 432.96317361199493 31.042180260683466 106.39569629221239
    vertex 433.54740650459496 29.581598029180274 108.64230907535867
  endloop
endfacet
facet normal 0.928476690885298 0.3713906763540072 6.057275965931798e-13
  outer loop
    vertex 434.32327606319893 27.64192413267003 109.01067248726174
    vertex 433.54740650459496 29.581598029180274 108.64230907535867
    vertex 434.0951069893739 28.212346817228575 109.4408548145261
  endloop
endfacet
facet normal -0.26079798899660805 -0.6456109730961989 0.7177540528294525
  outer loop
    vertex 414.5821270719872 23.143148539361775 104.50533624366226
    vertex 414.6036050348414 24.36845532377531 105.61528875706993
    vertex 414.09697969191507 24.356016989540613 105.42001685978649
  endloop
endfacet
facet normal -0.26079798899660805 -0.6456109730961989 0.7177540528294525
  outer loop
    vertex 414.6036050348414 24.36845532377531 105.61528875706993
    vertex 414.5821270719872 23.143148539361775 104.50533624366226
    vertex 425.0385091543458 23.928017369128362 109.01067248725444
  endloop
endfacet
facet normal -0.26079798899660805 -0.6456109730961989 0.7177540528294525
  outer loop
    vertex 414.6036050348414 24.36845532377531 105.61528875706993
    vertex 425.0385091543458 23.928017369128362 109.01067248725444
    vertex 416.51629316209886 24.463428080724064 106.3956962921996
  endloop
endfacet
facet normal -0.26079798899660805 -0.6456109730961989 0.7177540528294525
  outer loop
    vertex 416.51629316209886 24.463428080724064 106.3956962921996
    vertex 425.0385091543458 23.928017369128362 109.01067248725444
    vertex 421.7304304387825 24.85480760285509 108.6423090753494
  endloop
endfacet
facet normal -0.26079798899660805 -0.6456109730961989 0.7177540528294525
  outer loop
    vertex 421.7304304387825 24.85480760285509 108.6423090753494
    vertex 425.0385091543458 23.928017369128362 109.01067248725444
    vertex 424.81034008052177 24.498440053687627 109.44085481451903
  endloop
endfacet
facet normal 0.30422543176512445 -0.7605635794121866 -0.5735764363526854
  outer loop
    vertex 425.0385091543458 23.928017369128362 109.01067248725444
    vertex 431.9800457161887 33.5000000002099 100.0000000000944
    vertex 434.32327606319893 27.64192413267003 109.01067248726174
  endloop
endfacet
facet normal 0.30422543176512445 -0.7605635794121866 -0.5735764363526854
  outer loop
    vertex 431.9800457161887 33.5000000002099 100.0000000000944
    vertex 425.0385091543458 23.928017369128362 109.01067248725444
    vertex 414.5821270719872 23.143148539361775 104.50533624366226
  endloop
endfacet
facet normal 0.30422543176512445 -0.7605635794121866 -0.5735764363526854
  outer loop
    vertex 431.9800457161887 33.5000000002099 100.0000000000944
    vertex 414.5821270719872 23.143148539361775 104.50533624366226
    vertex 413.41051189848184 26.072186473136494 100.00000000007738
  endloop
endfacet
facet normal 0.30422543176512445 -0.7605635794121866 -0.5735764363526854
  outer loop
    vertex 431.9800457161887 33.5000000002099 100.0000000000944
    vertex 413.41051189848184 26.072186473136494 100.00000000007738
    vertex 430.12309233441493 32.75721864750548 100.00000000008798
  endloop
endfacet
facet normal 0.21302094063727192 -0.5325523515947401 0.8191520442878257
  outer loop
    vertex 425.0385091543458 23.928017369128362 109.01067248725444
    vertex 434.0951069893739 28.212346817228575 109.4408548145261
    vertex 424.81034008052177 24.498440053687627 109.44085481451903
  endloop
endfacet
facet normal 0.21302094063727192 -0.5325523515947401 0.8191520442878257
  outer loop
    vertex 434.0951069893739 28.212346817228575 109.4408548145261
    vertex 425.0385091543458 23.928017369128362 109.01067248725444
    vertex 434.32327606319893 27.64192413267003 109.01067248726174
  endloop
endfacet
facet normal -0.2754467328398818 0.6886168320990551 0.6707726559108507
  outer loop
    vertex 432.23964030960343 32.85101351666243 104.14915258480163
    vertex 414.6036050348414 24.36845532377531 105.61528875706993
    vertex 432.7321037864974 31.619854824428522 105.61528875708628
  endloop
endfacet
facet normal -0.2754467328398818 0.6886168320990551 0.6707726559108507
  outer loop
    vertex 414.6036050348414 24.36845532377531 105.61528875706993
    vertex 432.23964030960343 32.85101351666243 104.14915258480163
    vertex 414.09697969191507 24.356016989540613 105.42001685978649
  endloop
endfacet
facet normal -0.2754467328398818 0.6886168320990551 0.6707726559108507
  outer loop
    vertex 414.09697969191507 24.356016989540613 105.42001685978649
    vertex 432.23964030960343 32.85101351666243 104.14915258480163
    vertex 413.67010649189695 25.423199989588838 104.1491525847846
  endloop
endfacet
facet normal -0.25943089406608455 0.6485772351644247 0.7155719259658967
  outer loop
    vertex 413.67010649189695 25.423199989588838 104.1491525847846
    vertex 431.97439736232724 33.514120884856716 103.45196402788054
    vertex 413.40486354462035 26.08630735778349 103.4519640278635
  endloop
endfacet
facet normal -0.25943089406608455 0.6485772351644247 0.7155719259658967
  outer loop
    vertex 431.97439736232724 33.514120884856716 103.45196402788054
    vertex 413.67010649189695 25.423199989588838 104.1491525847846
    vertex 432.23964030960343 32.85101351666243 104.14915258480163
  endloop
endfacet
facet normal -0.17684163758544091 0.44210409396188766 0.8793582917777247
  outer loop
    vertex 424.81034008052177 24.498440053687627 109.44085481451903
    vertex 433.54740650459496 29.581598029180274 108.64230907535867
    vertex 421.7304304387825 24.85480760285509 108.6423090753494
  endloop
endfacet
facet normal -0.17684163758544091 0.44210409396188766 0.8793582917777247
  outer loop
    vertex 433.54740650459496 29.581598029180274 108.64230907535867
    vertex 424.81034008052177 24.498440053687627 109.44085481451903
    vertex 434.0951069893739 28.212346817228575 109.4408548145261
  endloop
endfacet
facet normal -0.30422543176539557 0.7605635794123119 0.5735764363523753
  outer loop
    vertex 432.96317361199493 31.042180260683466 106.39569629221239
    vertex 421.7304304387825 24.85480760285509 108.6423090753494
    vertex 433.54740650459496 29.581598029180274 108.64230907535867
  endloop
endfacet
facet normal -0.30422543176539557 0.7605635794123119 0.5735764363523753
  outer loop
    vertex 421.7304304387825 24.85480760285509 108.6423090753494
    vertex 432.96317361199493 31.042180260683466 106.39569629221239
    vertex 416.51629316209886 24.463428080724064 106.3956962921996
  endloop
endfacet
facet normal -7.831317347101318e-14 1.0 1.2931564096619842e-12
  outer loop
    vertex 406.9800457161883 83.50000000021008 100.00000000019294
    vertex 387.99383947123806 83.50000000020717 101.50000000019283
    vertex 406.9800457161883 83.50000000021022 101.500000000193
  endloop
endfacet
facet normal -7.831317347101318e-14 1.0 1.2931564096619842e-12
  outer loop
    vertex 387.99383947123806 83.50000000020717 101.50000000019283
    vertex 406.9800457161883 83.50000000021008 100.00000000019294
    vertex 386.9800457161885 83.50000000020904 100.50000000019287
  endloop
endfacet
facet normal -7.831317347101318e-14 1.0 1.2931564096619842e-12
  outer loop
    vertex 386.9800457161885 83.50000000020904 100.50000000019287
    vertex 406.9800457161883 83.50000000021008 100.00000000019294
    vertex 386.98004571618867 83.50000000021008 100.0000000001929
  endloop
endfacet
facet normal 7.23207472125008e-15 -1.0 -1.9403232533088487e-12
  outer loop
    vertex 381.9800457161887 23.500000000208804 100.50000000007462
    vertex 406.98004571618884 23.500000000207088 101.50000000007466
    vertex 382.9800457161885 23.50000000020691 101.50000000007466
  endloop
endfacet
facet normal 7.23207472125008e-15 -1.0 -1.9403232533088487e-12
  outer loop
    vertex 406.98004571618884 23.500000000207088 101.50000000007466
    vertex 381.9800457161887 23.500000000208804 100.50000000007462
    vertex 406.98004571618884 23.50000000021001 100.00000000007465
  endloop
endfacet
facet normal 7.23207472125008e-15 -1.0 -1.9403232533088487e-12
  outer loop
    vertex 406.98004571618884 23.50000000021001 100.00000000007465
    vertex 381.9800457161887 23.500000000208804 100.50000000007462
    vertex 381.9800457161887 23.50000000020983 100.00000000007465
  endloop
endfacet
facet normal -0.6974858324629686 0.11624763874243209 0.7071067811867235
  outer loop
    vertex 382.9800457161885 53.41723746990823 101.50000000013375
    vertex 386.9800457161885 83.50000000020904 100.50000000019287
    vertex 381.9800457161887 53.50000000020883 100.50000000013371
  endloop
endfacet
facet normal -0.6974858324629686 0.11624763874243209 0.7071067811867235
  outer loop
    vertex 386.9800457161885 83.50000000020904 100.50000000019287
    vertex 382.9800457161885 53.41723746990823 101.50000000013375
    vertex 387.99383947123806 83.50000000020717 101.50000000019283
  endloop
endfacet
facet normal -0.7071067811865643 -1.3928861296986992e-12 0.7071067811865309
  outer loop
    vertex 381.9800457161887 23.500000000208804 100.50000000007462
    vertex 382.9800457161885 53.41723746990823 101.50000000013375
    vertex 381.9800457161887 53.50000000020883 100.50000000013371
  endloop
endfacet
facet normal -0.7071067811865643 -1.3928861296986992e-12 0.7071067811865309
  outer loop
    vertex 382.9800457161885 53.41723746990823 101.50000000013375
    vertex 381.9800457161887 23.500000000208804 100.50000000007462
    vertex 382.9800457161885 23.50000000020691 101.50000000007466
  endloop
endfacet
facet normal -1.0 -0.0 0.0
  outer loop
    vertex 381.9800457161887 23.50000000020983 100.00000000007465
    vertex 381.9800457161887 53.50000000020883 100.50000000013371
    vertex 381.9800457161887 53.500000000209866 100.00000000013374
  endloop
endfacet
facet normal -1.0 -0.0 0.0
  outer loop
    vertex 381.9800457161887 53.50000000020883 100.50000000013371
    vertex 381.9800457161887 23.50000000020983 100.00000000007465
    vertex 381.9800457161887 23.500000000208804 100.50000000007462
  endloop
endfacet
facet normal -0.9863939238321447 0.1643989873053515 1.6198358297735808e-13
  outer loop
    vertex 381.9800457161887 53.500000000209866 100.00000000013374
    vertex 386.9800457161885 83.50000000020904 100.50000000019287
    vertex 386.98004571618867 83.50000000021008 100.0000000001929
  endloop
endfacet
facet normal -0.9863939238321447 0.1643989873053515 1.6198358297735808e-13
  outer loop
    vertex 386.9800457161885 83.50000000020904 100.50000000019287
    vertex 381.9800457161887 53.500000000209866 100.00000000013374
    vertex 381.9800457161887 53.50000000020883 100.50000000013371
  endloop
endfacet
facet normal 0.3713906763552696 -0.9284766908847931 -1.7501087032662068e-12
  outer loop
    vertex 406.98004571618884 23.500000000207088 101.50000000007466
    vertex 413.41051189848184 26.072186473136494 100.00000000007738
    vertex 413.41051189848184 26.07218647313375 101.50000000007739
  endloop
endfacet
facet normal 0.3713906763552696 -0.9284766908847931 -1.7501087032662068e-12
  outer loop
    vertex 413.41051189848184 26.072186473136494 100.00000000007738
    vertex 406.98004571618884 23.500000000207088 101.50000000007466
    vertex 406.98004571618884 23.50000000021001 100.00000000007465
  endloop
endfacet
facet normal 1.0 4.511946372076664e-15 7.705823289563376e-27
  outer loop
    vertex 431.98004571618856 73.50000000020879 100.5000000001733
    vertex 431.9800457161887 33.5000000002099 100.0000000000944
    vertex 431.98004571618856 73.50000000020965 100.00000000017333
  endloop
endfacet
facet normal 1.0 4.511946372076664e-15 7.705823289563376e-27
  outer loop
    vertex 431.9800457161887 33.5000000002099 100.0000000000944
    vertex 431.98004571618856 73.50000000020879 100.5000000001733
    vertex 431.9800457161887 33.500000000209056 100.50000000009439
  endloop
endfacet
facet normal 3.0146748242109876e-14 -1.9702059176561435e-12 1.0
  outer loop
    vertex 413.41051189848184 26.07218647313375 101.50000000007739
    vertex 412.56342526046376 28.189903068182147 101.50000000008151
    vertex 406.98004571618884 23.500000000207088 101.50000000007466
  endloop
endfacet
facet normal 3.0146748242109876e-14 -1.9702059176561435e-12 1.0
  outer loop
    vertex 406.98004571618884 23.500000000207088 101.50000000007466
    vertex 382.9800457161885 53.41723746990823 101.50000000013375
    vertex 382.9800457161885 23.50000000020691 101.50000000007466
  endloop
endfacet
facet normal 3.0146748242109876e-14 -1.9702059176561435e-12 1.0
  outer loop
    vertex 382.9800457161885 53.41723746990823 101.50000000013375
    vertex 406.98004571618884 23.500000000207088 101.50000000007466
    vertex 387.99383947123806 83.50000000020717 101.50000000019283
  endloop
endfacet
facet normal 3.0146748242109876e-14 -1.9702059176561435e-12 1.0
  outer loop
    vertex 387.99383947123806 83.50000000020717 101.50000000019283
    vertex 406.98004571618884 23.500000000207088 101.50000000007466
    vertex 406.9800457161883 83.50000000021022 101.500000000193
  endloop
endfacet
facet normal 3.0146748242109876e-14 -1.9702059176561435e-12 1.0
  outer loop
    vertex 406.9800457161883 83.50000000021022 101.500000000193
    vertex 406.98004571618884 23.500000000207088 101.50000000007466
    vertex 431.4026954469995 73.73094010788266 101.50000000017035
  endloop
endfacet
facet normal 3.0146748242109876e-14 -1.9702059176561435e-12 1.0
  outer loop
    vertex 431.4026954469995 73.73094010788266 101.50000000017035
    vertex 406.98004571618884 23.500000000207088 101.50000000007466
    vertex 412.56342526046376 28.189903068182147 101.50000000008151
  endloop
endfacet
facet normal 3.0146748242109876e-14 -1.9702059176561435e-12 1.0
  outer loop
    vertex 431.4026954469995 73.73094010788266 101.50000000017035
    vertex 412.56342526046376 28.189903068182147 101.50000000008151
    vertex 431.1329590781707 35.61771659525556 101.50000000009855
  endloop
endfacet
facet normal 3.0146748242109876e-14 -1.9702059176561435e-12 1.0
  outer loop
    vertex 431.4026954469995 73.73094010788266 101.50000000017035
    vertex 431.1329590781707 35.61771659525556 101.50000000009855
    vertex 431.40269544699925 34.94337567318283 101.50000000009726
  endloop
endfacet
facet normal 0.8660254037843694 -9.73733396961422e-13 0.50000000000012
  outer loop
    vertex 431.40269544699925 34.94337567318283 101.50000000009726
    vertex 431.98004571618856 73.50000000020879 100.5000000001733
    vertex 431.4026954469995 73.73094010788266 101.50000000017035
  endloop
endfacet
facet normal 0.8660254037843694 -9.73733396961422e-13 0.50000000000012
  outer loop
    vertex 431.98004571618856 73.50000000020879 100.5000000001733
    vertex 431.40269544699925 34.94337567318283 101.50000000009726
    vertex 431.9800457161887 33.500000000209056 100.50000000009439
  endloop
endfacet
facet normal -2.231922972207275e-14 1.9943195860538525e-12 -1.0
  outer loop
    vertex 386.98004571618867 83.50000000021008 100.0000000001929
    vertex 381.9800457161887 23.50000000020983 100.00000000007465
    vertex 381.9800457161887 53.500000000209866 100.00000000013374
  endloop
endfacet
facet normal -2.231922972207275e-14 1.9943195860538525e-12 -1.0
  outer loop
    vertex 381.9800457161887 23.50000000020983 100.00000000007465
    vertex 386.98004571618867 83.50000000021008 100.0000000001929
    vertex 406.98004571618884 23.50000000021001 100.00000000007465
  endloop
endfacet
facet normal -2.231922972207275e-14 1.9943195860538525e-12 -1.0
  outer loop
    vertex 406.98004571618884 23.50000000021001 100.00000000007465
    vertex 386.98004571618867 83.50000000021008 100.0000000001929
    vertex 406.9800457161883 83.50000000021008 100.00000000019294
  endloop
endfacet
facet normal -2.231922972207275e-14 1.9943195860538525e-12 -1.0
  outer loop
    vertex 406.98004571618884 23.50000000021001 100.00000000007465
    vertex 406.9800457161883 83.50000000021008 100.00000000019294
    vertex 431.98004571618856 73.50000000020965 100.00000000017333
  endloop
endfacet
facet normal -2.231922972207275e-14 1.9943195860538525e-12 -1.0
  outer loop
    vertex 406.98004571618884 23.50000000021001 100.00000000007465
    vertex 431.98004571618856 73.50000000020965 100.00000000017333
    vertex 413.41051189848184 26.072186473136494 100.00000000007738
  endloop
endfacet
facet normal -2.231922972207275e-14 1.9943195860538525e-12 -1.0
  outer loop
    vertex 413.41051189848184 26.072186473136494 100.00000000007738
    vertex 431.98004571618856 73.50000000020965 100.00000000017333
    vertex 430.12309233441493 32.75721864750548 100.00000000008798
  endloop
endfacet
facet normal -2.231922972207275e-14 1.9943195860538525e-12 -1.0
  outer loop
    vertex 430.12309233441493 32.75721864750548 100.00000000008798
    vertex 431.98004571618856 73.50000000020965 100.00000000017333
    vertex 431.9800457161887 33.5000000002099 100.0000000000944
  endloop
endfacet
facet normal 0.3713906763541561 0.9284766908852383 8.026527238143248e-13
  outer loop
    vertex 431.4026954469995 73.73094010788266 101.50000000017035
    vertex 406.9800457161883 83.50000000021008 100.00000000019294
    vertex 406.9800457161883 83.50000000021022 101.500000000193
  endloop
endfacet
facet normal 0.3713906763541561 0.9284766908852383 8.026527238143248e-13
  outer loop
    vertex 406.9800457161883 83.50000000021008 100.00000000019294
    vertex 431.4026954469995 73.73094010788266 101.50000000017035
    vertex 431.98004571618856 73.50000000020879 100.5000000001733
  endloop
endfacet
facet normal 0.3713906763541561 0.9284766908852383 8.026527238143248e-13
  outer loop
    vertex 406.9800457161883 83.50000000021008 100.00000000019294
    vertex 431.98004571618856 73.50000000020879 100.5000000001733
    vertex 431.98004571618856 73.50000000020965 100.00000000017333
  endloop
endfacet
endsolid ProtoGlove baseplate
