solid ProtoGlove baseplate
facet normal -0.02344868514556274 -0.16254785412630865 0.9864219960462545
  outer loop
    vertex 101.31926252122514 -516.2523533129169 303.81319852215415
    vertex 100.69557890653076 -519.9472078443271 303.189514907467
    vertex 119.04362389263892 -519.6689144034542 303.67153328647015
  endloop
endfacet
facet normal -0.10495263612509495 0.3496759369306171 0.930973513748962
  outer loop
    vertex 148.63655135886378 -578.5298626396007 309.4553527827826
    vertex 151.03868610238828 -580.542869181993 310.48224593097643
    vertex 167.70259558244558 -573.4210756194524 309.68587675658387
  endloop
endfacet
facet normal -0.10495263612509495 0.3496759369306171 0.930973513748962
  outer loop
    vertex 167.56077946016688 -574.1176106539683 309.93150948570445
    vertex 167.70259558244558 -573.4210756194524 309.68587675658387
    vertex 151.03868610238828 -580.542869181993 310.48224593097643
  endloop
endfacet
facet normal 0.6830127018922227 -0.6830127018917203 0.2588190451038291
  outer loop
    vertex 132.79895721881402 -521.4999999996073 300.5000000009398
    vertex 134.0196445173722 -520.279312701049 300.50000000093735
    vertex 133.6225916111885 -519.1033535680194 304.6511133882095
  endloop
endfacet
facet normal 0.6830127018922227 -0.6830127018917203 0.2588190451038291
  outer loop
    vertex 140.50606400000066 -513.7928932184207 300.5000000009245
    vertex 133.6225916111885 -519.1033535680194 304.6511133882095
    vertex 134.0196445173722 -520.279312701049 300.50000000093735
  endloop
endfacet
facet normal 0.6830127018922227 -0.6830127018917203 0.2588190451038291
  outer loop
    vertex 136.35399590745877 -516.0560447618068 305.48477225897597
    vertex 133.6225916111885 -519.1033535680194 304.6511133882095
    vertex 140.50606400000066 -513.7928932184207 300.5000000009245
  endloop
endfacet
facet normal 0.6830127018922227 -0.6830127018917203 0.2588190451038291
  outer loop
    vertex 136.73436410644948 -515.5669489558048 305.77169989447924
    vertex 136.35399590745877 -516.0560447618068 305.48477225897597
    vertex 140.50606400000066 -513.7928932184207 300.5000000009245
  endloop
endfacet
facet normal 0.6830127018922227 -0.6830127018917203 0.2588190451038291
  outer loop
    vertex 140.50606400000066 -513.2244871454733 302.0000000009234
    vertex 136.73436410644948 -515.5669489558048 305.77169989447924
    vertex 140.50606400000066 -513.7928932184207 300.5000000009245
  endloop
endfacet
facet normal -0.6830127018921767 -0.6830127018917148 0.25881904510396525
  outer loop
    vertex 148.3151808824551 -581.6020101008755 300.5000000010583
    vertex 151.03868610238828 -580.542869181993 310.48224593097643
    vertex 133.21317078118562 -566.4999999996072 300.5000000010284
  endloop
endfacet
facet normal -0.6830127018921767 -0.6830127018917148 0.25881904510396525
  outer loop
    vertex 146.0425659769066 -576.582258029628 307.74958079313666
    vertex 133.21317078118562 -566.4999999996072 300.5000000010284
    vertex 151.03868610238828 -580.542869181993 310.48224593097643
  endloop
endfacet
facet normal -0.6830127018921767 -0.6830127018917148 0.25881904510396525
  outer loop
    vertex 148.63655135886378 -578.5298626396007 309.4553527827826
    vertex 146.0425659769066 -576.582258029628 307.74958079313666
    vertex 151.03868610238828 -580.542869181993 310.48224593097643
  endloop
endfacet
facet normal -0.6830127018921767 -0.6830127018917148 0.25881904510396525
  outer loop
    vertex 142.92943611320504 -573.8688946667639 306.69461361421526
    vertex 133.21317078118562 -566.4999999996072 300.5000000010284
    vertex 146.0425659769066 -576.582258029628 307.74958079313666
  endloop
endfacet
facet normal -0.6830127018921767 -0.6830127018917148 0.25881904510396525
  outer loop
    vertex 140.46467399381083 -571.8849676031022 305.42570988864543
    vertex 133.21317078118562 -566.4999999996072 300.5000000010284
    vertex 142.92943611320504 -573.8688946667639 306.69461361421526
  endloop
endfacet
facet normal -0.6830127018921767 -0.6830127018917148 0.25881904510396525
  outer loop
    vertex 136.50820166747107 -568.3119223353382 304.41386181868126
    vertex 133.21317078118562 -566.4999999996072 300.5000000010284
    vertex 140.46467399381083 -571.8849676031022 305.42570988864543
  endloop
endfacet
facet normal -0.6830127018921767 -0.6830127018917148 0.25881904510396525
  outer loop
    vertex 134.2657390223158 -566.3968593532383 303.54986771665136
    vertex 133.21317078118562 -566.4999999996072 300.5000000010284
    vertex 136.50820166747107 -568.3119223353382 304.41386181868126
  endloop
endfacet
facet normal -0.6830127018921767 -0.6830127018917148 0.25881904510396525
  outer loop
    vertex 132.66442520088668 -564.9032367402638 303.26567509385796
    vertex 133.21317078118562 -566.4999999996072 300.5000000010284
    vertex 134.2657390223158 -566.3968593532383 303.54986771665136
  endloop
endfacet
facet normal -4.089147096952633e-17 0.8660254037854216 0.49999999999829764
  outer loop
    vertex 132.66442520088742 -524.0967632589397 303.2656750937777
    vertex 133.21317078118707 -522.4999999996073 300.50000000094167
    vertex 100.06410553035994 -523.6882108311595 302.5580415313034
  endloop
endfacet
facet normal -4.089147096952633e-17 0.8660254037854216 0.49999999999829764
  outer loop
    vertex 98.00606400000058 -522.4999999996073 300.50000000094167
    vertex 100.06410553035994 -523.6882108311595 302.5580415313034
    vertex 133.21317078118707 -522.4999999996073 300.50000000094167
  endloop
endfacet
facet normal -0.07160740951297713 -0.2890119836016194 0.9546436257774406
  outer loop
    vertex 103.62421790690736 -507.29671990743236 306.11815390781874
    vertex 135.91433552546343 -513.7328431090484 306.5917284754618
    vertex 106.16353840060707 -499.5381767055855 308.65747440150295
  endloop
endfacet
facet normal -0.07160740951297713 -0.2890119836016194 0.9546436257774406
  outer loop
    vertex 134.49355623176518 -508.6878058656193 308.01250776915
    vertex 106.16353840060707 -499.5381767055855 308.65747440150295
    vertex 135.91433552546343 -513.7328431090484 306.5917284754618
  endloop
endfacet
facet normal 0.8660254037844433 9.83500988126472e-13 0.49999999999999234
  outer loop
    vertex 173.0060640000005 -543.9999999996073 300.50000000098396
    vertex 173.0060640000005 -516.9999999996073 300.5000000009309
    vertex 172.6932746522012 -543.6872106518069 301.0417670434379
  endloop
endfacet
facet normal 0.8660254037844433 9.83500988126472e-13 0.49999999999999234
  outer loop
    vertex 172.57349819959586 -539.6500470101903 301.24922594489266
    vertex 172.6932746522012 -543.6872106518069 301.0417670434379
    vertex 173.0060640000005 -516.9999999996073 300.5000000009309
  endloop
endfacet
facet normal 0.8660254037844433 9.83500988126472e-13 0.49999999999999234
  outer loop
    vertex 172.57244402373033 -539.5941277713702 301.251051831052
    vertex 172.57349819959586 -539.6500470101903 301.24922594489266
    vertex 173.0060640000005 -516.9999999996073 300.5000000009309
  endloop
endfacet
facet normal 0.8660254037844433 9.83500988126472e-13 0.49999999999999234
  outer loop
    vertex 172.14454580692433 -534.7954556683397 301.99219328301893
    vertex 172.57244402373033 -539.5941277713702 301.251051831052
    vertex 173.0060640000005 -516.9999999996073 300.5000000009309
  endloop
endfacet
facet normal 0.8660254037844433 9.83500988126472e-13 0.49999999999999234
  outer loop
    vertex 172.13824649437186 -534.6838852701882 302.0031040124118
    vertex 172.14454580692433 -534.7954556683397 301.99219328301893
    vertex 173.0060640000005 -516.9999999996073 300.5000000009309
  endloop
endfacet
facet normal 0.8660254037844433 9.83500988126472e-13 0.49999999999999234
  outer loop
    vertex 171.43578901326745 -529.9682255189089 303.2197960598324
    vertex 172.13824649437186 -534.6838852701882 302.0031040124118
    vertex 173.0060640000005 -516.9999999996073 300.5000000009309
  endloop
endfacet
facet normal 0.8660254037844433 9.83500988126472e-13 0.49999999999999234
  outer loop
    vertex 171.41665789546494 -529.7643794200968 303.25293212787125
    vertex 171.43578901326745 -529.9682255189089 303.2197960598324
    vertex 173.0060640000005 -516.9999999996073 300.5000000009309
  endloop
endfacet
facet normal 0.8660254037844433 9.83500988126472e-13 0.49999999999999234
  outer loop
    vertex 170.4541198576713 -525.161970897135 304.92009691353866
    vertex 171.41665789546494 -529.7643794200968 303.25293212787125
    vertex 173.0060640000005 -516.9999999996073 300.5000000009309
  endloop
endfacet
facet normal 0.8660254037844433 9.83500988126472e-13 0.49999999999999234
  outer loop
    vertex 170.41061733173274 -524.8296680415307 304.99544549872115
    vertex 170.4541198576713 -525.161970897135 304.92009691353866
    vertex 173.0060640000005 -516.9999999996073 300.5000000009309
  endloop
endfacet
facet normal 0.8660254037844433 9.83500988126472e-13 0.49999999999999234
  outer loop
    vertex 169.20709459786164 -520.3688145738456 307.08000802184205
    vertex 170.41061733173274 -524.8296680415307 304.99544549872115
    vertex 173.0060640000005 -516.9999999996073 300.5000000009309
  endloop
endfacet
facet normal 0.8660254037844433 9.83500988126472e-13 0.49999999999999234
  outer loop
    vertex 169.1238991733199 -519.8722250738391 307.2241067241045
    vertex 169.20709459786164 -520.3688145738456 307.08000802184205
    vertex 173.0060640000005 -516.9999999996073 300.5000000009309
  endloop
endfacet
facet normal 0.8660254037844433 9.83500988126472e-13 0.49999999999999234
  outer loop
    vertex 167.70259558244558 -515.5789243797258 309.68587675646984
    vertex 169.1238991733199 -519.8722250738391 307.2241067241045
    vertex 173.0060640000005 -516.9999999996073 300.5000000009309
  endloop
endfacet
facet normal 0.8660254037844433 9.83500988126472e-13 0.49999999999999234
  outer loop
    vertex 167.56077946016688 -514.8823893452088 309.9315094855878
    vertex 167.70259558244558 -515.5789243797258 309.68587675646984
    vertex 173.0060640000005 -516.9999999996073 300.5000000009309
  endloop
endfacet
facet normal -0.060204036654210084 -0.3510699023600555 0.9344117923204094
  outer loop
    vertex 101.31926252122514 -516.2523533129169 303.81319852215415
    vertex 119.04362389263892 -519.6689144034542 303.67153328647015
    vertex 101.39630246096782 -516.0605142735523 303.8902384618963
  endloop
endfacet
facet normal -0.060204036654210084 -0.3510699023600555 0.9344117923204094
  outer loop
    vertex 126.19696344579215 -519.3291107728144 304.2600904393316
    vertex 101.39630246096782 -516.0605142735523 303.8902384618963
    vertex 119.04362389263892 -519.6689144034542 303.67153328647015
  endloop
endfacet
facet normal 0.7071067811865513 1.3972522095037905e-12 0.7071067811865438
  outer loop
    vertex 136.73436410644948 -515.5669489558048 305.77169989447924
    vertex 140.50606400000066 -513.2244871454733 302.0000000009234
    vertex 135.91433552546343 -513.7328431090484 306.5917284754618
  endloop
endfacet
facet normal 0.7071067811865513 1.3972522095037905e-12 0.7071067811865438
  outer loop
    vertex 134.49355623176518 -508.6878058656193 308.01250776915
    vertex 135.91433552546343 -513.7328431090484 306.5917284754618
    vertex 140.50606400000066 -513.2244871454733 302.0000000009234
  endloop
endfacet
facet normal 0.7071067811865513 1.3972522095037905e-12 0.7071067811865438
  outer loop
    vertex 140.50606400000066 -504.3611111107153 302.000000000906
    vertex 134.49355623176518 -508.6878058656193 308.01250776915
    vertex 140.50606400000066 -513.2244871454733 302.0000000009234
  endloop
endfacet
facet normal 0.7071067811865513 1.3972522095037905e-12 0.7071067811865438
  outer loop
    vertex 133.23690545590097 -506.3437695519021 309.2691585450097
    vertex 134.49355623176518 -508.6878058656193 308.01250776915
    vertex 140.50606400000066 -504.3611111107153 302.000000000906
  endloop
endfacet
facet normal 0.7071067811865513 1.3972522095037905e-12 0.7071067811865438
  outer loop
    vertex 131.36813296551796 -500.80747126395363 311.13793103538177
    vertex 133.23690545590097 -506.3437695519021 309.2691585450097
    vertex 140.50606400000066 -504.3611111107153 302.000000000906
  endloop
endfacet
facet normal -0.10146151595159436 0.4435095737088608 0.8905081800912269
  outer loop
    vertex 106.06116523446563 -580.7479555546893 305.92002073862886
    vertex 106.16109197298206 -581.1976258780118 306.1553603081753
    vertex 136.3539959074584 -572.943955237388 305.48477225908806
  endloop
endfacet
facet normal -0.10146151595159436 0.4435095737088608 0.8905081800912269
  outer loop
    vertex 135.91433552546306 -575.2671568901421 306.591728475583
    vertex 136.3539959074584 -572.943955237388 305.48477225908806
    vertex 106.16109197298206 -581.1976258780118 306.1553603081753
  endloop
endfacet
facet normal -0.10146151595159436 0.4435095737088608 0.8905081800912269
  outer loop
    vertex 136.7343641064491 -573.433051043389 305.7716998945933
    vertex 136.3539959074584 -572.943955237388 305.48477225908806
    vertex 135.91433552546306 -575.2671568901421 306.591728475583
  endloop
endfacet
facet normal -0.7071067811865649 1.3935329986797553e-12 0.7071067811865301
  outer loop
    vertex 98.00606400000058 -543.9999999996073 300.50000000098396
    vertex 98.53298319616027 -543.6957830598617 301.0269191971432
    vertex 98.00606400000058 -522.9999999996072 300.5000000009426
  endloop
endfacet
facet normal -0.7071067811865649 1.3935329986797553e-12 0.7071067811865301
  outer loop
    vertex 98.82176819048459 -534.8684759843455 301.3157041914502
    vertex 98.00606400000058 -522.9999999996072 300.5000000009426
    vertex 98.53298319616027 -543.6957830598617 301.0269191971432
  endloop
endfacet
facet normal -0.7071067811865649 1.3935329986797553e-12 0.7071067811865301
  outer loop
    vertex 98.82999340062659 -534.8159782456692 301.32392940159207
    vertex 98.00606400000058 -522.9999999996072 300.5000000009426
    vertex 98.82176819048459 -534.8684759843455 301.3157041914502
  endloop
endfacet
facet normal -0.7071067811865649 1.3935329986797553e-12 0.7071067811865301
  outer loop
    vertex 99.76419596569175 -525.3992743707399 302.2581319666386
    vertex 98.00606400000058 -522.9999999996072 300.5000000009426
    vertex 98.82999340062659 -534.8159782456692 301.32392940159207
  endloop
endfacet
facet normal -0.7071067811865649 1.3935329986797553e-12 0.7071067811865301
  outer loop
    vertex 99.79365129810557 -525.2904479623581 302.2875872990524
    vertex 98.00606400000058 -522.9999999996072 300.5000000009426
    vertex 99.76419596569175 -525.3992743707399 302.2581319666386
  endloop
endfacet
facet normal -0.7071067811865649 1.3935329986797553e-12 0.7071067811865301
  outer loop
    vertex 100.06410553035994 -523.6882108311595 302.5580415313034
    vertex 98.00606400000058 -522.9999999996072 300.5000000009426
    vertex 99.79365129810557 -525.2904479623581 302.2875872990524
  endloop
endfacet
facet normal -0.7071067811865649 1.3935329986797553e-12 0.7071067811865301
  outer loop
    vertex 98.00606400000058 -522.4999999996073 300.50000000094167
    vertex 98.00606400000058 -522.9999999996072 300.5000000009426
    vertex 100.06410553035994 -523.6882108311595 302.5580415313034
  endloop
endfacet
facet normal -0.10495263612510602 -0.3496759369269815 0.9309735137503262
  outer loop
    vertex 107.69588908042942 -499.49999999959005 308.9603468942408
    vertex 133.23690545590097 -506.3437695519021 309.2691585450097
    vertex 128.00606400000024 -499.499999999586 311.2500000008964
  endloop
endfacet
facet normal -0.10495263612510602 -0.3496759369269815 0.9309735137503262
  outer loop
    vertex 131.36813296551796 -500.80747126395363 311.13793103538177
    vertex 128.00606400000024 -499.499999999586 311.2500000008964
    vertex 133.23690545590097 -506.3437695519021 309.2691585450097
  endloop
endfacet
facet normal -0.07160740951297297 0.28901198360537533 0.9546436257763039
  outer loop
    vertex 142.92943611320504 -573.8688946667639 306.69461361421526
    vertex 146.0425659769066 -576.582258029628 307.74958079313666
    vertex 169.20709459786127 -568.631185425343 307.08000802193703
  endloop
endfacet
facet normal -0.07160740951297297 0.28901198360537533 0.9546436257763039
  outer loop
    vertex 169.12389917331956 -569.1277749253487 307.2241067242016
    vertex 169.20709459786127 -568.631185425343 307.08000802193703
    vertex 146.0425659769066 -576.582258029628 307.74958079313666
  endloop
endfacet
facet normal -0.04435346540012488 0.22643460793628817 0.9730160011200942
  outer loop
    vertex 104.24258849281998 -572.5643602172883 303.9326850934846
    vertex 106.06116523446563 -580.7479555546893 305.92002073862886
    vertex 126.19696344579178 -569.670889226385 304.26009043943077
  endloop
endfacet
facet normal -0.04435346540012488 0.22643460793628817 0.9730160011200942
  outer loop
    vertex 136.3539959074584 -572.943955237388 305.48477225908806
    vertex 126.19696344579178 -569.670889226385 304.26009043943077
    vertex 106.06116523446563 -580.7479555546893 305.92002073862886
  endloop
endfacet
facet normal -0.04435346540012488 0.22643460793628817 0.9730160011200942
  outer loop
    vertex 133.62259161118777 -569.8966464311786 304.6511133883096
    vertex 126.19696344579178 -569.670889226385 304.26009043943077
    vertex 136.3539959074584 -572.943955237388 305.48477225908806
  endloop
endfacet
facet normal -0.04435346540012336 -0.22643460793244782 0.9730160011209883
  outer loop
    vertex 101.39630246096782 -516.0605142735523 303.8902384618963
    vertex 126.19696344579215 -519.3291107728144 304.2600904393316
    vertex 103.46340938692705 -507.5828139035446 305.95734538783904
  endloop
endfacet
facet normal -0.04435346540012336 -0.22643460793244782 0.9730160011209883
  outer loop
    vertex 136.35399590745877 -516.0560447618068 305.48477225897597
    vertex 103.46340938692705 -507.5828139035446 305.95734538783904
    vertex 126.19696344579215 -519.3291107728144 304.2600904393316
  endloop
endfacet
facet normal -0.04435346540012336 -0.22643460793244782 0.9730160011209883
  outer loop
    vertex 133.6225916111885 -519.1033535680194 304.6511133882095
    vertex 136.35399590745877 -516.0560447618068 305.48477225897597
    vertex 126.19696344579215 -519.3291107728144 304.2600904393316
  endloop
endfacet
facet normal 0.6830127018921802 0.6830127018928012 0.25881904510108855
  outer loop
    vertex 136.7343641064491 -573.433051043389 305.7716998945933
    vertex 140.50606400000066 -575.7755128537353 302.0000000010466
    vertex 136.3539959074584 -572.943955237388 305.48477225908806
  endloop
endfacet
facet normal 0.6830127018921802 0.6830127018928012 0.25881904510108855
  outer loop
    vertex 133.62259161118777 -569.8966464311786 304.6511133883096
    vertex 136.3539959074584 -572.943955237388 305.48477225908806
    vertex 140.50606400000066 -575.7755128537353 302.0000000010466
  endloop
endfacet
facet normal 0.6830127018921802 0.6830127018928012 0.25881904510108855
  outer loop
    vertex 132.79895721881257 -567.4999999996073 300.50000000103034
    vertex 133.62259161118777 -569.8966464311786 304.6511133883096
    vertex 140.50606400000066 -575.7755128537353 302.0000000010466
  endloop
endfacet
facet normal 0.6830127018921802 0.6830127018928012 0.25881904510108855
  outer loop
    vertex 140.50606400000066 -575.207106780794 300.5000000010456
    vertex 132.79895721881257 -567.4999999996073 300.50000000103034
    vertex 140.50606400000066 -575.7755128537353 302.0000000010466
  endloop
endfacet
facet normal 0.6830127018921802 0.6830127018928012 0.25881904510108855
  outer loop
    vertex 134.60378472220327 -569.3048275029977 300.5000000010338
    vertex 132.79895721881257 -567.4999999996073 300.50000000103034
    vertex 140.50606400000066 -575.207106780794 300.5000000010456
  endloop
endfacet
facet normal 2.1679093206247476e-17 0.8660254037854234 0.4999999999982944
  outer loop
    vertex 110.50260084116601 -545.3127893474053 301.04176704344115
    vertex 172.6932746522012 -545.3127893474053 301.04176704344115
    vertex 98.18472344952619 -545.3039675224724 301.0264871944424
  endloop
endfacet
facet normal 2.1679093206247476e-17 0.8660254037854234 0.4999999999982944
  outer loop
    vertex 173.0060640000005 -544.9999999996072 300.50000000098595
    vertex 98.18472344952619 -545.3039675224724 301.0264871944424
    vertex 172.6932746522012 -545.3127893474053 301.04176704344115
  endloop
endfacet
facet normal 2.1679093206247476e-17 0.8660254037854234 0.4999999999982944
  outer loop
    vertex 98.11717511111166 -544.9999999996072 300.50000000098595
    vertex 98.18472344952619 -545.3039675224724 301.0264871944424
    vertex 173.0060640000005 -544.9999999996072 300.50000000098595
  endloop
endfacet
facet normal -0.15184418293215302 -0.5290098709899098 0.8349202958994983
  outer loop
    vertex 106.16353840060707 -499.5381767055855 308.65747440150295
    vertex 134.49355623176518 -508.6878058656193 308.01250776915
    vertex 106.19310443860739 -499.4999999995911 308.68704043950316
  endloop
endfacet
facet normal -0.15184418293215302 -0.5290098709899098 0.8349202958994983
  outer loop
    vertex 107.69588908042942 -499.49999999959005 308.9603468942408
    vertex 106.19310443860739 -499.4999999995911 308.68704043950316
    vertex 134.49355623176518 -508.6878058656193 308.01250776915
  endloop
endfacet
facet normal -0.15184418293215302 -0.5290098709899098 0.8349202958994983
  outer loop
    vertex 133.23690545590097 -506.3437695519021 309.2691585450097
    vertex 107.69588908042942 -499.49999999959005 308.9603468942408
    vertex 134.49355623176518 -508.6878058656193 308.01250776915
  endloop
endfacet
facet normal -0.023448685145561487 0.1625478541301938 0.9864219960456141
  outer loop
    vertex 103.47159673896506 -569.094897324942 303.2624432013787
    vertex 104.16156667178714 -572.1997620226406 303.79048088076763
    vertex 119.04362389263855 -569.3310855957479 303.671533286568
  endloop
endfacet
facet normal 6.668511111854838e-17 -0.8660254037834573 0.5000000000016996
  outer loop
    vertex 133.6225916111885 -519.1033535680194 304.6511133882095
    vertex 126.19696344579215 -519.3291107728144 304.2600904393316
    vertex 132.79895721881402 -521.4999999996073 300.5000000009398
  endloop
endfacet
facet normal 6.668511111854838e-17 -0.8660254037834573 0.5000000000016996
  outer loop
    vertex 119.04362389263892 -519.6689144034542 303.67153328647015
    vertex 132.79895721881402 -521.4999999996073 300.5000000009398
    vertex 126.19696344579215 -519.3291107728144 304.2600904393316
  endloop
endfacet
facet normal 6.668511111854838e-17 -0.8660254037834573 0.5000000000016996
  outer loop
    vertex 100.69557890653076 -519.9472078443271 303.189514907467
    vertex 132.79895721881402 -521.4999999996073 300.5000000009398
    vertex 119.04362389263892 -519.6689144034542 303.67153328647015
  endloop
endfacet
facet normal 6.668511111854838e-17 -0.8660254037834573 0.5000000000016996
  outer loop
    vertex 98.00606400000058 -521.4999999996073 300.5000000009398
    vertex 132.79895721881402 -521.4999999996073 300.5000000009398
    vertex 100.69557890653076 -519.9472078443271 303.189514907467
  endloop
endfacet
facet normal -0.10146151595159313 -0.4435095737053521 0.8905081800929745
  outer loop
    vertex 103.46340938692705 -507.5828139035446 305.95734538783904
    vertex 136.35399590745877 -516.0560447618068 305.48477225897597
    vertex 103.62421790690736 -507.29671990743236 306.11815390781874
  endloop
endfacet
facet normal -0.10146151595159313 -0.4435095737053521 0.8905081800929745
  outer loop
    vertex 135.91433552546343 -513.7328431090484 306.5917284754618
    vertex 103.62421790690736 -507.29671990743236 306.11815390781874
    vertex 136.35399590745877 -516.0560447618068 305.48477225897597
  endloop
endfacet
facet normal -0.10146151595159313 -0.4435095737053521 0.8905081800929745
  outer loop
    vertex 136.73436410644948 -515.5669489558048 305.77169989447924
    vertex 135.91433552546343 -513.7328431090484 306.5917284754618
    vertex 136.35399590745877 -516.0560447618068 305.48477225897597
  endloop
endfacet
facet normal -0.15184418293214838 0.529009870993184 0.8349202958974247
  outer loop
    vertex 107.874765204895 -588.9091554216152 308.61851628327037
    vertex 107.98863261102004 -589.4215587491781 308.9638864016795
    vertex 134.4935562317648 -580.3121941335654 308.0125077692911
  endloop
endfacet
facet normal -0.15184418293214838 0.529009870993184 0.8349202958974247
  outer loop
    vertex 133.23690545590097 -582.6562304472776 309.26915854515994
    vertex 134.4935562317648 -580.3121941335654 308.0125077692911
    vertex 107.98863261102004 -589.4215587491781 308.9638864016795
  endloop
endfacet
facet normal -0.06020403665420827 0.35106990236372676 0.9344117923190302
  outer loop
    vertex 134.2657390223158 -566.3968593532383 303.54986771665136
    vertex 136.50820166747107 -568.3119223353382 304.41386181868126
    vertex 171.41665789546494 -559.2356205791064 303.2529321279292
  endloop
endfacet
facet normal -0.06020403665420827 0.35106990236372676 0.9344117923190302
  outer loop
    vertex 170.4541198576713 -563.8380291020618 304.92009691361477
    vertex 171.41665789546494 -559.2356205791064 303.2529321279292
    vertex 136.50820166747107 -568.3119223353382 304.41386181868126
  endloop
endfacet
facet normal -0.6830127018922153 0.683012701892731 0.2588190451011814
  outer loop
    vertex 151.03868610238757 -508.4571308171825 310.48224593083455
    vertex 148.3151808824551 -507.39798989833946 300.500000000912
    vertex 148.6365513588627 -510.47013735957825 309.4553527826483
  endloop
endfacet
facet normal -0.6830127018922153 0.683012701892731 0.2588190451011814
  outer loop
    vertex 146.04256597690585 -512.4177419695575 307.7495807930101
    vertex 148.6365513588627 -510.47013735957825 309.4553527826483
    vertex 148.3151808824551 -507.39798989833946 300.500000000912
  endloop
endfacet
facet normal -0.6830127018922153 0.683012701892731 0.2588190451011814
  outer loop
    vertex 142.92943611320467 -515.1311053324251 306.69461361409935
    vertex 146.04256597690585 -512.4177419695575 307.7495807930101
    vertex 148.3151808824551 -507.39798989833946 300.500000000912
  endloop
endfacet
facet normal -0.6830127018922153 0.683012701892731 0.2588190451011814
  outer loop
    vertex 140.46467399381083 -517.1150323960929 305.4257098885374
    vertex 142.92943611320467 -515.1311053324251 306.69461361409935
    vertex 148.3151808824551 -507.39798989833946 300.500000000912
  endloop
endfacet
facet normal -0.6830127018922153 0.683012701892731 0.2588190451011814
  outer loop
    vertex 136.50820166747107 -520.6880776638608 304.4138618185874
    vertex 140.46467399381083 -517.1150323960929 305.4257098885374
    vertex 148.3151808824551 -507.39798989833946 300.500000000912
  endloop
endfacet
facet normal -0.6830127018922153 0.683012701892731 0.2588190451011814
  outer loop
    vertex 134.26573902231618 -522.6031406459641 303.5498677165652
    vertex 136.50820166747107 -520.6880776638608 304.4138618185874
    vertex 148.3151808824551 -507.39798989833946 300.500000000912
  endloop
endfacet
facet normal -0.6830127018922153 0.683012701892731 0.2588190451011814
  outer loop
    vertex 132.66442520088742 -524.0967632589397 303.2656750937777
    vertex 134.26573902231618 -522.6031406459641 303.5498677165652
    vertex 148.3151808824551 -507.39798989833946 300.500000000912
  endloop
endfacet
facet normal -0.6830127018922153 0.683012701892731 0.2588190451011814
  outer loop
    vertex 133.21317078118707 -522.4999999996073 300.50000000094167
    vertex 132.66442520088742 -524.0967632589397 303.2656750937777
    vertex 148.3151808824551 -507.39798989833946 300.500000000912
  endloop
endfacet
facet normal -9.349950013617711e-17 -0.8660254037834548 0.500000000001704
  outer loop
    vertex 132.66442520088668 -564.9032367402638 303.26567509385796
    vertex 102.62377754417331 -565.2797109483807 302.61360263766295
    vertex 133.21317078118562 -566.4999999996072 300.5000000010284
  endloop
endfacet
facet normal -9.349950013617711e-17 -0.8660254037834548 0.500000000001704
  outer loop
    vertex 102.89495288888943 -566.4999999996072 300.5000000010284
    vertex 133.21317078118562 -566.4999999996072 300.5000000010284
    vertex 102.62377754417331 -565.2797109483807 302.61360263766295
  endloop
endfacet
facet normal -3.2002465195715234e-17 1.0 -1.969854655159198e-12
  outer loop
    vertex 128.00606400000024 -499.499999999586 311.2500000008964
    vertex 128.00606400000024 -499.4999999996081 300.0000000008965
    vertex 107.69588908042942 -499.49999999959005 308.9603468942408
  endloop
endfacet
facet normal -3.2002465195715234e-17 1.0 -1.969854655159198e-12
  outer loop
    vertex 106.19310443860739 -499.4999999995911 308.68704043950316
    vertex 107.69588908042942 -499.49999999959005 308.9603468942408
    vertex 128.00606400000024 -499.4999999996081 300.0000000008965
  endloop
endfacet
facet normal -3.2002465195715234e-17 1.0 -1.969854655159198e-12
  outer loop
    vertex 98.00606400000058 -499.49999999960727 300.5000000008964
    vertex 106.19310443860739 -499.4999999995911 308.68704043950316
    vertex 128.00606400000024 -499.4999999996081 300.0000000008965
  endloop
endfacet
facet normal -3.2002465195715234e-17 1.0 -1.969854655159198e-12
  outer loop
    vertex 98.00606400000058 -499.4999999996081 300.0000000008965
    vertex 98.00606400000058 -499.49999999960727 300.5000000008964
    vertex 128.00606400000024 -499.4999999996081 300.0000000008965
  endloop
endfacet
facet normal 2.1494346359932563e-16 1.969496933063062e-12 1.0
  outer loop
    vertex 98.00606400000058 -543.9999999996073 300.50000000098396
    vertex 98.00606400000058 -544.4999999996073 300.50000000098504
    vertex 173.0060640000005 -543.9999999996073 300.50000000098396
  endloop
endfacet
facet normal 2.1494346359932563e-16 1.969496933063062e-12 1.0
  outer loop
    vertex 98.11717511111166 -544.9999999996072 300.50000000098595
    vertex 173.0060640000005 -543.9999999996073 300.50000000098396
    vertex 98.00606400000058 -544.4999999996073 300.50000000098504
  endloop
endfacet
facet normal 2.1494346359932563e-16 1.969496933063062e-12 1.0
  outer loop
    vertex 173.0060640000005 -544.9999999996072 300.50000000098595
    vertex 173.0060640000005 -543.9999999996073 300.50000000098396
    vertex 98.11717511111166 -544.9999999996072 300.50000000098595
  endloop
endfacet
facet normal 0.36244626115495165 0.9320046715412947 -1.8381274194213135e-12
  outer loop
    vertex 151.03868610238757 -508.4571308171825 310.48224593083455
    vertex 167.56077946016688 -514.8823893452088 309.9315094855878
    vertex 148.3151808824551 -507.39798989833946 300.500000000912
  endloop
endfacet
facet normal 0.36244626115495165 0.9320046715412947 -1.8381274194213135e-12
  outer loop
    vertex 173.0060640000005 -516.9999999996073 300.5000000009309
    vertex 148.3151808824551 -507.39798989833946 300.500000000912
    vertex 167.56077946016688 -514.8823893452088 309.9315094855878
  endloop
endfacet
facet normal 0.36244626115495165 0.9320046715412947 -1.8381274194213135e-12
  outer loop
    vertex 173.0060640000005 -516.9999999996081 300.0000000009309
    vertex 148.3151808824551 -507.39798989833946 300.500000000912
    vertex 173.0060640000005 -516.9999999996073 300.5000000009309
  endloop
endfacet
facet normal 0.36244626115495165 0.9320046715412947 -1.8381274194213135e-12
  outer loop
    vertex 148.3151808824551 -507.3979898983404 300.00000000091205
    vertex 148.3151808824551 -507.39798989833946 300.500000000912
    vertex 173.0060640000005 -516.9999999996081 300.0000000009309
  endloop
endfacet
facet normal 1.0 0.0 0.0
  outer loop
    vertex 173.0060640000005 -571.9999999996082 300.00000000103927
    vertex 173.0060640000005 -516.9999999996081 300.0000000009309
    vertex 173.0060640000005 -571.9999999996072 300.50000000103927
  endloop
endfacet
facet normal 1.0 0.0 0.0
  outer loop
    vertex 173.0060640000005 -545.4999999996073 300.50000000098703
    vertex 173.0060640000005 -571.9999999996072 300.50000000103927
    vertex 173.0060640000005 -516.9999999996081 300.0000000009309
  endloop
endfacet
facet normal 1.0 0.0 0.0
  outer loop
    vertex 173.0060640000005 -544.9999999996072 300.50000000098595
    vertex 173.0060640000005 -545.4999999996073 300.50000000098703
    vertex 173.0060640000005 -516.9999999996081 300.0000000009309
  endloop
endfacet
facet normal 1.0 0.0 0.0
  outer loop
    vertex 173.0060640000005 -543.9999999996073 300.50000000098396
    vertex 173.0060640000005 -544.9999999996072 300.50000000098595
    vertex 173.0060640000005 -516.9999999996081 300.0000000009309
  endloop
endfacet
facet normal 1.0 0.0 0.0
  outer loop
    vertex 173.0060640000005 -516.9999999996073 300.5000000009309
    vertex 173.0060640000005 -543.9999999996073 300.50000000098396
    vertex 173.0060640000005 -516.9999999996081 300.0000000009309
  endloop
endfacet
facet normal 0.7071067811864854 0.7071067811866097 -1.36083473088136e-12
  outer loop
    vertex 140.50606400000066 -575.207106780794 300.5000000010456
    vertex 140.50606400000066 -575.2071067807948 300.0000000010456
    vertex 134.60378472220327 -569.3048275029977 300.5000000010338
  endloop
endfacet
facet normal 0.7071067811864854 0.7071067811866097 -1.36083473088136e-12
  outer loop
    vertex 134.60378472220327 -569.3048275029985 300.00000000103387
    vertex 134.60378472220327 -569.3048275029977 300.5000000010338
    vertex 140.50606400000066 -575.2071067807948 300.0000000010456
  endloop
endfacet
facet normal 1.0 0.0 0.0
  outer loop
    vertex 140.50606400000066 -513.7928932184217 300.00000000092456
    vertex 140.50606400000066 -504.3611111107192 300.000000000906
    vertex 140.50606400000066 -513.7928932184207 300.5000000009245
  endloop
endfacet
facet normal 1.0 0.0 0.0
  outer loop
    vertex 140.50606400000066 -513.2244871454733 302.0000000009234
    vertex 140.50606400000066 -513.7928932184207 300.5000000009245
    vertex 140.50606400000066 -504.3611111107192 300.000000000906
  endloop
endfacet
facet normal 1.0 0.0 0.0
  outer loop
    vertex 140.50606400000066 -504.3611111107153 302.000000000906
    vertex 140.50606400000066 -513.2244871454733 302.0000000009234
    vertex 140.50606400000066 -504.3611111107192 300.000000000906
  endloop
endfacet
facet normal 0.3624462611549385 -0.9320046715412997 1.8318211774098046e-12
  outer loop
    vertex 128.00606400000024 -589.499999999586 311.25000000107366
    vertex 128.00606400000024 -589.4999999996081 300.00000000107366
    vertex 131.36813296551796 -588.1925287352184 311.13793103555383
  endloop
endfacet
facet normal 0.3624462611549385 -0.9320046715412997 1.8318211774098046e-12
  outer loop
    vertex 140.50606400000066 -584.638888888493 302.0000000010641
    vertex 131.36813296551796 -588.1925287352184 311.13793103555383
    vertex 128.00606400000024 -589.4999999996081 300.00000000107366
  endloop
endfacet
facet normal 0.3624462611549385 -0.9320046715412997 1.8318211774098046e-12
  outer loop
    vertex 140.50606400000066 -584.6388888884969 300.0000000010641
    vertex 140.50606400000066 -584.638888888493 302.0000000010641
    vertex 128.00606400000024 -589.4999999996081 300.00000000107366
  endloop
endfacet
facet normal -0.7071067811865404 0.7071067811865547 -1.4411593608346531e-12
  outer loop
    vertex 133.21317078118707 -522.4999999996073 300.50000000094167
    vertex 148.3151808824551 -507.39798989833946 300.500000000912
    vertex 133.21317078118707 -522.4999999996081 300.00000000094167
  endloop
endfacet
facet normal -0.7071067811865404 0.7071067811865547 -1.4411593608346531e-12
  outer loop
    vertex 148.3151808824551 -507.3979898983404 300.00000000091205
    vertex 133.21317078118707 -522.4999999996081 300.00000000094167
    vertex 148.3151808824551 -507.39798989833946 300.500000000912
  endloop
endfacet
facet normal 0.7071067811865359 -0.7071067811865592 1.4087129585874475e-12
  outer loop
    vertex 134.0196445173722 -520.279312701049 300.50000000093735
    vertex 134.0196445173722 -520.27931270105 300.0000000009374
    vertex 140.50606400000066 -513.7928932184207 300.5000000009245
  endloop
endfacet
facet normal 0.7071067811865359 -0.7071067811865592 1.4087129585874475e-12
  outer loop
    vertex 140.50606400000066 -513.7928932184217 300.00000000092456
    vertex 140.50606400000066 -513.7928932184207 300.5000000009245
    vertex 134.0196445173722 -520.27931270105 300.0000000009374
  endloop
endfacet
facet normal -1.0954811555598931e-17 -1.969848391390495e-12 -1.0
  outer loop
    vertex 98.00606400000058 -544.4999999996081 300.000000000985
    vertex 98.00606400000058 -499.4999999996081 300.0000000008965
    vertex 108.00606400000046 -589.4999999996081 300.00000000107366
  endloop
endfacet
facet normal -1.0954811555598931e-17 -1.969848391390495e-12 -1.0
  outer loop
    vertex 128.00606400000024 -499.4999999996081 300.0000000008965
    vertex 108.00606400000046 -589.4999999996081 300.00000000107366
    vertex 98.00606400000058 -499.4999999996081 300.0000000008965
  endloop
endfacet
facet normal -1.0954811555598931e-17 -1.969848391390495e-12 -1.0
  outer loop
    vertex 128.00606400000024 -589.4999999996081 300.00000000107366
    vertex 108.00606400000046 -589.4999999996081 300.00000000107366
    vertex 128.00606400000024 -499.4999999996081 300.0000000008965
  endloop
endfacet
facet normal -1.0954811555598931e-17 -1.969848391390495e-12 -1.0
  outer loop
    vertex 132.79895721881257 -567.4999999996081 300.0000000010304
    vertex 128.00606400000024 -589.4999999996081 300.00000000107366
    vertex 128.00606400000024 -499.4999999996081 300.0000000008965
  endloop
endfacet
facet normal -1.0954811555598931e-17 -1.969848391390495e-12 -1.0
  outer loop
    vertex 140.50606400000066 -584.6388888884969 300.0000000010641
    vertex 128.00606400000024 -589.4999999996081 300.00000000107366
    vertex 132.79895721881257 -567.4999999996081 300.0000000010304
  endloop
endfacet
facet normal -1.0954811555598931e-17 -1.969848391390495e-12 -1.0
  outer loop
    vertex 134.60378472220327 -569.3048275029985 300.00000000103387
    vertex 140.50606400000066 -584.6388888884969 300.0000000010641
    vertex 132.79895721881257 -567.4999999996081 300.0000000010304
  endloop
endfacet
facet normal -1.0954811555598931e-17 -1.969848391390495e-12 -1.0
  outer loop
    vertex 140.50606400000066 -575.2071067807948 300.0000000010456
    vertex 140.50606400000066 -584.6388888884969 300.0000000010641
    vertex 134.60378472220327 -569.3048275029985 300.00000000103387
  endloop
endfacet
facet normal -1.0954811555598931e-17 -1.969848391390495e-12 -1.0
  outer loop
    vertex 132.79895721881257 -567.4999999996081 300.0000000010304
    vertex 132.79895721881402 -521.4999999996081 300.0000000009398
    vertex 133.21317078118562 -566.4999999996082 300.00000000102847
  endloop
endfacet
facet normal -1.0954811555598931e-17 -1.969848391390495e-12 -1.0
  outer loop
    vertex 133.21317078118707 -522.4999999996081 300.00000000094167
    vertex 133.21317078118562 -566.4999999996082 300.00000000102847
    vertex 132.79895721881402 -521.4999999996081 300.0000000009398
  endloop
endfacet
facet normal -1.0954811555598931e-17 -1.969848391390495e-12 -1.0
  outer loop
    vertex 148.31518088245582 -581.6020101008755 300.00000000105814
    vertex 133.21317078118562 -566.4999999996082 300.00000000102847
    vertex 133.21317078118707 -522.4999999996081 300.00000000094167
  endloop
endfacet
facet normal -1.0954811555598931e-17 -1.969848391390495e-12 -1.0
  outer loop
    vertex 148.3151808824551 -507.3979898983404 300.00000000091205
    vertex 148.31518088245582 -581.6020101008755 300.00000000105814
    vertex 133.21317078118707 -522.4999999996081 300.00000000094167
  endloop
endfacet
facet normal -1.0954811555598931e-17 -1.969848391390495e-12 -1.0
  outer loop
    vertex 173.0060640000005 -516.9999999996081 300.0000000009309
    vertex 148.31518088245582 -581.6020101008755 300.00000000105814
    vertex 148.3151808824551 -507.3979898983404 300.00000000091205
  endloop
endfacet
facet normal -1.0954811555598931e-17 -1.969848391390495e-12 -1.0
  outer loop
    vertex 173.0060640000005 -571.9999999996082 300.00000000103927
    vertex 148.31518088245582 -581.6020101008755 300.00000000105814
    vertex 173.0060640000005 -516.9999999996081 300.0000000009309
  endloop
endfacet
facet normal -1.0954811555598931e-17 -1.969848391390495e-12 -1.0
  outer loop
    vertex 140.50606400000066 -504.3611111107192 300.000000000906
    vertex 132.79895721881402 -521.4999999996081 300.0000000009398
    vertex 128.00606400000024 -499.4999999996081 300.0000000008965
  endloop
endfacet
facet normal -1.0954811555598931e-17 -1.969848391390495e-12 -1.0
  outer loop
    vertex 132.79895721881257 -567.4999999996081 300.0000000010304
    vertex 128.00606400000024 -499.4999999996081 300.0000000008965
    vertex 132.79895721881402 -521.4999999996081 300.0000000009398
  endloop
endfacet
facet normal -1.0954811555598931e-17 -1.969848391390495e-12 -1.0
  outer loop
    vertex 134.0196445173722 -520.27931270105 300.0000000009374
    vertex 132.79895721881402 -521.4999999996081 300.0000000009398
    vertex 140.50606400000066 -504.3611111107192 300.000000000906
  endloop
endfacet
facet normal -1.0954811555598931e-17 -1.969848391390495e-12 -1.0
  outer loop
    vertex 140.50606400000066 -513.7928932184217 300.00000000092456
    vertex 134.0196445173722 -520.27931270105 300.0000000009374
    vertex 140.50606400000066 -504.3611111107192 300.000000000906
  endloop
endfacet
facet normal -1.0 0.0 0.0
  outer loop
    vertex 98.00606400000058 -544.4999999996081 300.000000000985
    vertex 98.00606400000058 -544.4999999996073 300.50000000098504
    vertex 98.00606400000058 -499.4999999996081 300.0000000008965
  endloop
endfacet
facet normal -1.0 0.0 0.0
  outer loop
    vertex 98.00606400000058 -543.9999999996073 300.50000000098396
    vertex 98.00606400000058 -499.4999999996081 300.0000000008965
    vertex 98.00606400000058 -544.4999999996073 300.50000000098504
  endloop
endfacet
facet normal -1.0 0.0 0.0
  outer loop
    vertex 98.00606400000058 -522.9999999996072 300.5000000009426
    vertex 98.00606400000058 -499.4999999996081 300.0000000008965
    vertex 98.00606400000058 -543.9999999996073 300.50000000098396
  endloop
endfacet
facet normal -1.0 0.0 0.0
  outer loop
    vertex 98.00606400000058 -522.4999999996073 300.50000000094167
    vertex 98.00606400000058 -499.4999999996081 300.0000000008965
    vertex 98.00606400000058 -522.9999999996072 300.5000000009426
  endloop
endfacet
facet normal -1.0 0.0 0.0
  outer loop
    vertex 98.00606400000058 -521.4999999996073 300.5000000009398
    vertex 98.00606400000058 -499.4999999996081 300.0000000008965
    vertex 98.00606400000058 -522.4999999996073 300.50000000094167
  endloop
endfacet
facet normal -1.0 0.0 0.0
  outer loop
    vertex 98.00606400000058 -499.49999999960727 300.5000000008964
    vertex 98.00606400000058 -499.4999999996081 300.0000000008965
    vertex 98.00606400000058 -521.4999999996073 300.5000000009398
  endloop
endfacet
facet normal 0.36244626115494893 -0.9320046715412957 1.835357212391285e-12
  outer loop
    vertex 151.03868610238828 -580.542869181993 310.48224593097643
    vertex 148.3151808824551 -581.6020101008755 300.5000000010583
    vertex 167.56077946016688 -574.1176106539683 309.93150948570445
  endloop
endfacet
facet normal 0.36244626115494893 -0.9320046715412957 1.835357212391285e-12
  outer loop
    vertex 173.0060640000005 -571.9999999996072 300.50000000103927
    vertex 167.56077946016688 -574.1176106539683 309.93150948570445
    vertex 148.3151808824551 -581.6020101008755 300.5000000010583
  endloop
endfacet
facet normal 0.36244626115494893 -0.9320046715412957 1.835357212391285e-12
  outer loop
    vertex 148.31518088245582 -581.6020101008755 300.00000000105814
    vertex 173.0060640000005 -571.9999999996072 300.50000000103927
    vertex 148.3151808824551 -581.6020101008755 300.5000000010583
  endloop
endfacet
facet normal 0.36244626115494893 -0.9320046715412957 1.835357212391285e-12
  outer loop
    vertex 173.0060640000005 -571.9999999996082 300.00000000103927
    vertex 173.0060640000005 -571.9999999996072 300.50000000103927
    vertex 148.31518088245582 -581.6020101008755 300.00000000105814
  endloop
endfacet
facet normal -0.707106781186493 -0.7071067811866022 6.743163418700696e-13
  outer loop
    vertex 148.3151808824551 -581.6020101008755 300.5000000010583
    vertex 133.21317078118562 -566.4999999996072 300.5000000010284
    vertex 148.31518088245582 -581.6020101008755 300.00000000105814
  endloop
endfacet
facet normal -0.707106781186493 -0.7071067811866022 6.743163418700696e-13
  outer loop
    vertex 133.21317078118562 -566.4999999996082 300.00000000102847
    vertex 148.31518088245582 -581.6020101008755 300.00000000105814
    vertex 133.21317078118562 -566.4999999996072 300.5000000010284
  endloop
endfacet
facet normal 0.9238795325112996 0.3826834323650591 -7.538241709445936e-13
  outer loop
    vertex 133.21317078118707 -522.4999999996081 300.00000000094167
    vertex 132.79895721881402 -521.4999999996081 300.0000000009398
    vertex 133.21317078118707 -522.4999999996073 300.50000000094167
  endloop
endfacet
facet normal 0.9238795325112996 0.3826834323650591 -7.538241709445936e-13
  outer loop
    vertex 132.79895721881402 -521.4999999996073 300.5000000009398
    vertex 133.21317078118707 -522.4999999996073 300.50000000094167
    vertex 132.79895721881402 -521.4999999996081 300.0000000009398
  endloop
endfacet
facet normal -1.3413919150385965e-16 1.9668541499637117e-12 1.0
  outer loop
    vertex 102.89495288888943 -566.4999999996072 300.5000000010284
    vertex 103.1171751111116 -567.4999999996073 300.50000000103034
    vertex 133.21317078118562 -566.4999999996072 300.5000000010284
  endloop
endfacet
facet normal -1.3413919150385965e-16 1.9668541499637117e-12 1.0
  outer loop
    vertex 132.79895721881257 -567.4999999996073 300.50000000103034
    vertex 133.21317078118562 -566.4999999996072 300.5000000010284
    vertex 103.1171751111116 -567.4999999996073 300.50000000103034
  endloop
endfacet
facet normal -0.9761870601839523 -0.21693045781865808 4.3781612416247996e-13
  outer loop
    vertex 108.00606400000046 -589.4999999995907 308.9953142430999
    vertex 107.874765204895 -588.9091554216152 308.61851628327037
    vertex 108.00606400000046 -589.4999999996081 300.00000000107366
  endloop
endfacet
facet normal -0.9761870601839523 -0.21693045781865808 4.3781612416247996e-13
  outer loop
    vertex 103.1171751111116 -567.4999999996073 300.50000000103034
    vertex 108.00606400000046 -589.4999999996081 300.00000000107366
    vertex 107.874765204895 -588.9091554216152 308.61851628327037
  endloop
endfacet
facet normal -0.9761870601839523 -0.21693045781865808 4.3781612416247996e-13
  outer loop
    vertex 98.00606400000058 -544.4999999996081 300.000000000985
    vertex 108.00606400000046 -589.4999999996081 300.00000000107366
    vertex 103.1171751111116 -567.4999999996073 300.50000000103034
  endloop
endfacet
facet normal -0.9761870601839523 -0.21693045781865808 4.3781612416247996e-13
  outer loop
    vertex 107.98863261102004 -589.4215587491781 308.9638864016795
    vertex 107.874765204895 -588.9091554216152 308.61851628327037
    vertex 108.00606400000046 -589.4999999995907 308.9953142430999
  endloop
endfacet
facet normal -0.9761870601839523 -0.21693045781865808 4.3781612416247996e-13
  outer loop
    vertex 106.06116523446563 -580.7479555546893 305.92002073862886
    vertex 103.1171751111116 -567.4999999996073 300.50000000103034
    vertex 107.874765204895 -588.9091554216152 308.61851628327037
  endloop
endfacet
facet normal -0.9761870601839523 -0.21693045781865808 4.3781612416247996e-13
  outer loop
    vertex 106.16109197298206 -581.1976258780118 306.1553603081753
    vertex 106.06116523446563 -580.7479555546893 305.92002073862886
    vertex 107.874765204895 -588.9091554216152 308.61851628327037
  endloop
endfacet
facet normal -0.9761870601839523 -0.21693045781865808 4.3781612416247996e-13
  outer loop
    vertex 104.24258849281998 -572.5643602172883 303.9326850934846
    vertex 103.1171751111116 -567.4999999996073 300.50000000103034
    vertex 106.06116523446563 -580.7479555546893 305.92002073862886
  endloop
endfacet
facet normal -0.9761870601839523 -0.21693045781865808 4.3781612416247996e-13
  outer loop
    vertex 104.16156667178714 -572.1997620226406 303.79048088076763
    vertex 103.1171751111116 -567.4999999996073 300.50000000103034
    vertex 104.24258849281998 -572.5643602172883 303.9326850934846
  endloop
endfacet
facet normal -0.9761870601839523 -0.21693045781865808 4.3781612416247996e-13
  outer loop
    vertex 103.47159673896506 -569.094897324942 303.2624432013787
    vertex 103.1171751111116 -567.4999999996073 300.50000000103034
    vertex 104.16156667178714 -572.1997620226406 303.79048088076763
  endloop
endfacet
facet normal -0.9761870601839523 -0.21693045781865808 4.3781612416247996e-13
  outer loop
    vertex 102.89495288888943 -566.4999999996072 300.5000000010284
    vertex 98.00606400000058 -544.4999999996081 300.000000000985
    vertex 103.1171751111116 -567.4999999996073 300.50000000103034
  endloop
endfacet
facet normal -0.9761870601839523 -0.21693045781865808 4.3781612416247996e-13
  outer loop
    vertex 102.18174982165307 -563.29058619704 302.2496131148643
    vertex 98.00606400000058 -544.4999999996081 300.000000000985
    vertex 102.89495288888943 -566.4999999996072 300.5000000010284
  endloop
endfacet
facet normal -0.9761870601839523 -0.21693045781865808 4.3781612416247996e-13
  outer loop
    vertex 102.62377754417331 -565.2797109483807 302.61360263766295
    vertex 102.18174982165307 -563.29058619704 302.2496131148643
    vertex 102.89495288888943 -566.4999999996072 300.5000000010284
  endloop
endfacet
facet normal -0.9761870601839523 -0.21693045781865808 4.3781612416247996e-13
  outer loop
    vertex 102.23936673753727 -563.5498623185194 302.319410991604
    vertex 102.18174982165307 -563.29058619704 302.2496131148643
    vertex 102.62377754417331 -565.2797109483807 302.61360263766295
  endloop
endfacet
facet normal -0.9761870601839523 -0.21693045781865808 4.3781612416247996e-13
  outer loop
    vertex 100.12780584113126 -554.0478382846946 301.31455927429306
    vertex 98.00606400000058 -544.4999999996081 300.000000000985
    vertex 102.18174982165307 -563.29058619704 302.2496131148643
  endloop
endfacet
facet normal -0.9761870601839523 -0.21693045781865808 4.3781612416247996e-13
  outer loop
    vertex 100.1581514530229 -554.1843935382074 301.3360355937315
    vertex 100.12780584113126 -554.0478382846946 301.31455927429306
    vertex 102.18174982165307 -563.29058619704 302.2496131148643
  endloop
endfacet
facet normal -0.9761870601839523 -0.21693045781865808 4.3781612416247996e-13
  outer loop
    vertex 98.11717511111166 -544.9999999996072 300.50000000098595
    vertex 98.00606400000058 -544.4999999996081 300.000000000985
    vertex 100.12780584113126 -554.0478382846946 301.31455927429306
  endloop
endfacet
facet normal -0.9761870601839523 -0.21693045781865808 4.3781612416247996e-13
  outer loop
    vertex 98.18472344952619 -545.3039675224724 301.0264871944424
    vertex 98.11717511111166 -544.9999999996072 300.50000000098595
    vertex 100.12780584113126 -554.0478382846946 301.31455927429306
  endloop
endfacet
facet normal -0.9761870601839523 -0.21693045781865808 4.3781612416247996e-13
  outer loop
    vertex 98.00606400000058 -544.4999999996073 300.50000000098504
    vertex 98.00606400000058 -544.4999999996081 300.000000000985
    vertex 98.11717511111166 -544.9999999996072 300.50000000098595
  endloop
endfacet
facet normal 0.7071067811865671 -0.7071067811865279 1.392885445296072e-12
  outer loop
    vertex 132.79895721881402 -521.4999999996081 300.0000000009398
    vertex 134.0196445173722 -520.27931270105 300.0000000009374
    vertex 132.79895721881402 -521.4999999996073 300.5000000009398
  endloop
endfacet
facet normal 0.7071067811865671 -0.7071067811865279 1.392885445296072e-12
  outer loop
    vertex 134.0196445173722 -520.279312701049 300.50000000093735
    vertex 132.79895721881402 -521.4999999996073 300.5000000009398
    vertex 134.0196445173722 -520.27931270105 300.0000000009374
  endloop
endfacet
facet normal 1.0071015003487248e-17 1.9698395733453477e-12 1.0
  outer loop
    vertex 98.00606400000058 -521.4999999996073 300.5000000009398
    vertex 98.00606400000058 -522.4999999996073 300.50000000094167
    vertex 132.79895721881402 -521.4999999996073 300.5000000009398
  endloop
endfacet
facet normal 1.0071015003487248e-17 1.9698395733453477e-12 1.0
  outer loop
    vertex 133.21317078118707 -522.4999999996073 300.50000000094167
    vertex 132.79895721881402 -521.4999999996073 300.5000000009398
    vertex 98.00606400000058 -522.4999999996073 300.50000000094167
  endloop
endfacet
facet normal 0.9238795325112996 -0.38268343236505903 1.6430997147032517e-12
  outer loop
    vertex 132.79895721881257 -567.4999999996081 300.0000000010304
    vertex 133.21317078118562 -566.4999999996082 300.00000000102847
    vertex 132.79895721881257 -567.4999999996073 300.50000000103034
  endloop
endfacet
facet normal 0.9238795325112996 -0.38268343236505903 1.6430997147032517e-12
  outer loop
    vertex 133.21317078118562 -566.4999999996072 300.5000000010284
    vertex 132.79895721881257 -567.4999999996073 300.50000000103034
    vertex 133.21317078118562 -566.4999999996082 300.00000000102847
  endloop
endfacet
facet normal 0.36244626115493717 0.9320046715413003 -1.841662577415971e-12
  outer loop
    vertex 128.00606400000024 -499.499999999586 311.2500000008964
    vertex 131.36813296551796 -500.80747126395363 311.13793103538177
    vertex 128.00606400000024 -499.4999999996081 300.0000000008965
  endloop
endfacet
facet normal 0.36244626115493717 0.9320046715413003 -1.841662577415971e-12
  outer loop
    vertex 140.50606400000066 -504.3611111107153 302.000000000906
    vertex 128.00606400000024 -499.4999999996081 300.0000000008965
    vertex 131.36813296551796 -500.80747126395363 311.13793103538177
  endloop
endfacet
facet normal 0.36244626115493717 0.9320046715413003 -1.841662577415971e-12
  outer loop
    vertex 140.50606400000066 -504.3611111107192 300.000000000906
    vertex 128.00606400000024 -499.4999999996081 300.0000000008965
    vertex 140.50606400000066 -504.3611111107153 302.000000000906
  endloop
endfacet
facet normal -0.0012164098118077964 0.03265769027382232 0.9994658551512148
  outer loop
    vertex 98.18472344952619 -545.3039675224724 301.0264871944424
    vertex 100.12780584113126 -554.0478382846946 301.31455927429306
    vertex 110.50260084116601 -545.3127893474053 301.04176704344115
  endloop
endfacet
facet normal -0.0012164098118077964 0.03265769027382232 0.9994658551512148
  outer loop
    vertex 172.57244402373033 -549.4058722278411 301.25105183107127
    vertex 110.50260084116601 -545.3127893474053 301.04176704344115
    vertex 100.12780584113126 -554.0478382846946 301.31455927429306
  endloop
endfacet
facet normal -0.0012164098118077964 0.03265769027382232 0.9994658551512148
  outer loop
    vertex 172.57349819959586 -549.349952989021 301.24922594491176
    vertex 110.50260084116601 -545.3127893474053 301.04176704344115
    vertex 172.57244402373033 -549.4058722278411 301.25105183107127
  endloop
endfacet
facet normal 0.8660254037844387 9.86098836887299e-13 0.5000000000000002
  outer loop
    vertex 167.56077946016688 -574.1176106539683 309.93150948570445
    vertex 173.0060640000005 -571.9999999996072 300.50000000103927
    vertex 167.70259558244558 -573.4210756194524 309.68587675658387
  endloop
endfacet
facet normal 0.8660254037844387 9.86098836887299e-13 0.5000000000000002
  outer loop
    vertex 169.12389917331956 -569.1277749253487 307.2241067242016
    vertex 167.70259558244558 -573.4210756194524 309.68587675658387
    vertex 173.0060640000005 -571.9999999996072 300.50000000103927
  endloop
endfacet
facet normal 0.8660254037844387 9.86098836887299e-13 0.5000000000000002
  outer loop
    vertex 170.41061733173274 -564.1703319576658 304.9954454987987
    vertex 169.12389917331956 -569.1277749253487 307.2241067242016
    vertex 173.0060640000005 -571.9999999996072 300.50000000103927
  endloop
endfacet
facet normal 0.8660254037844387 9.86098836887299e-13 0.5000000000000002
  outer loop
    vertex 171.41665789546494 -559.2356205791064 303.2529321279292
    vertex 170.41061733173274 -564.1703319576658 304.9954454987987
    vertex 173.0060640000005 -571.9999999996072 300.50000000103927
  endloop
endfacet
facet normal 0.8660254037844387 9.86098836887299e-13 0.5000000000000002
  outer loop
    vertex 172.13824649437186 -554.3161147290202 302.0031040124506
    vertex 171.41665789546494 -559.2356205791064 303.2529321279292
    vertex 173.0060640000005 -571.9999999996072 300.50000000103927
  endloop
endfacet
facet normal 0.8660254037844387 9.86098836887299e-13 0.5000000000000002
  outer loop
    vertex 173.0060640000005 -545.4999999996073 300.50000000098703
    vertex 172.13824649437186 -554.3161147290202 302.0031040124506
    vertex 173.0060640000005 -571.9999999996072 300.50000000103927
  endloop
endfacet
facet normal 0.8660254037844387 9.86098836887299e-13 0.5000000000000002
  outer loop
    vertex 169.20709459786127 -568.631185425343 307.08000802193703
    vertex 169.12389917331956 -569.1277749253487 307.2241067242016
    vertex 170.41061733173274 -564.1703319576658 304.9954454987987
  endloop
endfacet
facet normal 0.8660254037844387 9.86098836887299e-13 0.5000000000000002
  outer loop
    vertex 170.4541198576713 -563.8380291020618 304.92009691361477
    vertex 170.41061733173274 -564.1703319576658 304.9954454987987
    vertex 171.41665789546494 -559.2356205791064 303.2529321279292
  endloop
endfacet
facet normal 0.8660254037844387 9.86098836887299e-13 0.5000000000000002
  outer loop
    vertex 171.43578901326745 -559.0317744802946 303.21979605988963
    vertex 171.41665789546494 -559.2356205791064 303.2529321279292
    vertex 172.13824649437186 -554.3161147290202 302.0031040124506
  endloop
endfacet
facet normal 0.8660254037844387 9.86098836887299e-13 0.5000000000000002
  outer loop
    vertex 172.144545806924 -554.2045443308687 301.9921932830572
    vertex 172.13824649437186 -554.3161147290202 302.0031040124506
    vertex 173.0060640000005 -545.4999999996073 300.50000000098703
  endloop
endfacet
facet normal 0.8660254037844387 9.86098836887299e-13 0.5000000000000002
  outer loop
    vertex 172.57244402373033 -549.4058722278411 301.25105183107127
    vertex 172.144545806924 -554.2045443308687 301.9921932830572
    vertex 173.0060640000005 -545.4999999996073 300.50000000098703
  endloop
endfacet
facet normal 0.8660254037844387 9.86098836887299e-13 0.5000000000000002
  outer loop
    vertex 172.57349819959586 -549.349952989021 301.24922594491176
    vertex 172.57244402373033 -549.4058722278411 301.25105183107127
    vertex 173.0060640000005 -545.4999999996073 300.50000000098703
  endloop
endfacet
facet normal 0.8660254037844387 9.86098836887299e-13 0.5000000000000002
  outer loop
    vertex 172.6932746522012 -545.3127893474053 301.04176704344115
    vertex 172.57349819959586 -549.349952989021 301.24922594491176
    vertex 173.0060640000005 -545.4999999996073 300.50000000098703
  endloop
endfacet
facet normal 0.8660254037844387 9.86098836887299e-13 0.5000000000000002
  outer loop
    vertex 173.0060640000005 -544.9999999996072 300.50000000098595
    vertex 172.6932746522012 -545.3127893474053 301.04176704344115
    vertex 173.0060640000005 -545.4999999996073 300.50000000098703
  endloop
endfacet
facet normal 4.226173226807819e-16 -1.0 1.970968131084597e-12
  outer loop
    vertex 128.00606400000024 -589.499999999586 311.25000000107366
    vertex 108.00606400000046 -589.4999999995907 308.9953142430999
    vertex 128.00606400000024 -589.4999999996081 300.00000000107366
  endloop
endfacet
facet normal 4.226173226807819e-16 -1.0 1.970968131084597e-12
  outer loop
    vertex 108.00606400000046 -589.4999999996081 300.00000000107366
    vertex 128.00606400000024 -589.4999999996081 300.00000000107366
    vertex 108.00606400000046 -589.4999999995907 308.9953142430999
  endloop
endfacet
facet normal 1.9983464339324528e-16 -0.8660254037834502 0.5000000000017123
  outer loop
    vertex 172.6932746522012 -543.6872106518069 301.0417670434379
    vertex 110.50260084116529 -543.6872106518069 301.0417670434379
    vertex 173.0060640000005 -543.9999999996073 300.50000000098396
  endloop
endfacet
facet normal 1.9983464339324528e-16 -0.8660254037834502 0.5000000000017123
  outer loop
    vertex 98.53298319616027 -543.6957830598617 301.0269191971432
    vertex 173.0060640000005 -543.9999999996073 300.50000000098396
    vertex 110.50260084116529 -543.6872106518069 301.0417670434379
  endloop
endfacet
facet normal 1.9983464339324528e-16 -0.8660254037834502 0.5000000000017123
  outer loop
    vertex 98.00606400000058 -543.9999999996073 300.50000000098396
    vertex 173.0060640000005 -543.9999999996073 300.50000000098396
    vertex 98.53298319616027 -543.6957830598617 301.0269191971432
  endloop
endfacet
facet normal 2.665390927137767e-16 0.8660254037854243 0.49999999999829303
  outer loop
    vertex 133.62259161118777 -569.8966464311786 304.6511133883096
    vertex 132.79895721881257 -567.4999999996073 300.50000000103034
    vertex 126.19696344579178 -569.670889226385 304.26009043943077
  endloop
endfacet
facet normal 2.665390927137767e-16 0.8660254037854243 0.49999999999829303
  outer loop
    vertex 119.04362389263855 -569.3310855957479 303.671533286568
    vertex 126.19696344579178 -569.670889226385 304.26009043943077
    vertex 132.79895721881257 -567.4999999996073 300.50000000103034
  endloop
endfacet
facet normal 2.665390927137767e-16 0.8660254037854243 0.49999999999829303
  outer loop
    vertex 103.47159673896506 -569.094897324942 303.2624432013787
    vertex 119.04362389263855 -569.3310855957479 303.671533286568
    vertex 132.79895721881257 -567.4999999996073 300.50000000103034
  endloop
endfacet
facet normal 2.665390927137767e-16 0.8660254037854243 0.49999999999829303
  outer loop
    vertex 103.1171751111116 -567.4999999996073 300.50000000103034
    vertex 103.47159673896506 -569.094897324942 303.2624432013787
    vertex 132.79895721881257 -567.4999999996073 300.50000000103034
  endloop
endfacet
facet normal -0.7071067811865507 1.3975596783288213e-12 0.7071067811865445
  outer loop
    vertex 98.00606400000058 -521.4999999996073 300.5000000009398
    vertex 100.69557890653076 -519.9472078443271 303.189514907467
    vertex 98.00606400000058 -499.49999999960727 300.5000000008964
  endloop
endfacet
facet normal -0.7071067811865507 1.3975596783288213e-12 0.7071067811865445
  outer loop
    vertex 101.31926252122514 -516.2523533129169 303.81319852215415
    vertex 98.00606400000058 -499.49999999960727 300.5000000008964
    vertex 100.69557890653076 -519.9472078443271 303.189514907467
  endloop
endfacet
facet normal -0.7071067811865507 1.3975596783288213e-12 0.7071067811865445
  outer loop
    vertex 101.39630246096782 -516.0605142735523 303.8902384618963
    vertex 98.00606400000058 -499.49999999960727 300.5000000008964
    vertex 101.31926252122514 -516.2523533129169 303.81319852215415
  endloop
endfacet
facet normal -0.7071067811865507 1.3975596783288213e-12 0.7071067811865445
  outer loop
    vertex 103.46340938692705 -507.5828139035446 305.95734538783904
    vertex 98.00606400000058 -499.49999999960727 300.5000000008964
    vertex 101.39630246096782 -516.0605142735523 303.8902384618963
  endloop
endfacet
facet normal -0.7071067811865507 1.3975596783288213e-12 0.7071067811865445
  outer loop
    vertex 103.62421790690736 -507.29671990743236 306.11815390781874
    vertex 98.00606400000058 -499.49999999960727 300.5000000008964
    vertex 103.46340938692705 -507.5828139035446 305.95734538783904
  endloop
endfacet
facet normal -0.7071067811865507 1.3975596783288213e-12 0.7071067811865445
  outer loop
    vertex 106.16353840060707 -499.5381767055855 308.65747440150295
    vertex 98.00606400000058 -499.49999999960727 300.5000000008964
    vertex 103.62421790690736 -507.29671990743236 306.11815390781874
  endloop
endfacet
facet normal -0.7071067811865507 1.3975596783288213e-12 0.7071067811865445
  outer loop
    vertex 106.19310443860739 -499.4999999995911 308.68704043950316
    vertex 98.00606400000058 -499.49999999960727 300.5000000008964
    vertex 106.16353840060707 -499.5381767055855 308.65747440150295
  endloop
endfacet
facet normal 0.7071067811865434 1.4081451268130915e-12 0.7071067811865518
  outer loop
    vertex 131.36813296551796 -588.1925287352184 311.13793103555383
    vertex 140.50606400000066 -584.638888888493 302.0000000010641
    vertex 133.23690545590097 -582.6562304472776 309.26915854515994
  endloop
endfacet
facet normal 0.7071067811865434 1.4081451268130915e-12 0.7071067811865518
  outer loop
    vertex 134.4935562317648 -580.3121941335654 308.0125077692911
    vertex 133.23690545590097 -582.6562304472776 309.26915854515994
    vertex 140.50606400000066 -584.638888888493 302.0000000010641
  endloop
endfacet
facet normal 0.7071067811865434 1.4081451268130915e-12 0.7071067811865518
  outer loop
    vertex 135.91433552546306 -575.2671568901421 306.591728475583
    vertex 134.4935562317648 -580.3121941335654 308.0125077692911
    vertex 140.50606400000066 -584.638888888493 302.0000000010641
  endloop
endfacet
facet normal 0.7071067811865434 1.4081451268130915e-12 0.7071067811865518
  outer loop
    vertex 136.7343641064491 -573.433051043389 305.7716998945933
    vertex 135.91433552546306 -575.2671568901421 306.591728475583
    vertex 140.50606400000066 -584.638888888493 302.0000000010641
  endloop
endfacet
facet normal 0.7071067811865434 1.4081451268130915e-12 0.7071067811865518
  outer loop
    vertex 140.50606400000066 -575.7755128537353 302.0000000010466
    vertex 136.7343641064491 -573.433051043389 305.7716998945933
    vertex 140.50606400000066 -584.638888888493 302.0000000010641
  endloop
endfacet
facet normal -7.024279960922971e-17 0.051319576713548976 0.9986822823330463
  outer loop
    vertex 110.50260084116601 -545.3127893474053 301.04176704344115
    vertex 172.57349819959586 -549.349952989021 301.24922594491176
    vertex 172.6932746522012 -545.3127893474053 301.04176704344115
  endloop
endfacet
facet normal -0.1518441829321569 -0.52900987098992 0.8349202958994911
  outer loop
    vertex 146.04256597690585 -512.4177419695575 307.7495807930101
    vertex 169.1238991733199 -519.8722250738391 307.2241067241045
    vertex 148.6365513588627 -510.47013735957825 309.4553527826483
  endloop
endfacet
facet normal -0.1518441829321569 -0.52900987098992 0.8349202958994911
  outer loop
    vertex 167.70259558244558 -515.5789243797258 309.68587675646984
    vertex 148.6365513588627 -510.47013735957825 309.4553527826483
    vertex 169.1238991733199 -519.8722250738391 307.2241067241045
  endloop
endfacet
facet normal -0.04435346540012368 0.22643460793628928 0.9730160011200942
  outer loop
    vertex 136.50820166747107 -568.3119223353382 304.41386181868126
    vertex 140.46467399381083 -571.8849676031022 305.42570988864543
    vertex 170.4541198576713 -563.8380291020618 304.92009691361477
  endloop
endfacet
facet normal -0.04435346540012368 0.22643460793628928 0.9730160011200942
  outer loop
    vertex 170.41061733173274 -564.1703319576658 304.9954454987987
    vertex 170.4541198576713 -563.8380291020618 304.92009691361477
    vertex 140.46467399381083 -571.8849676031022 305.42570988864543
  endloop
endfacet
facet normal -0.06020403665421081 0.351069902363742 0.9344117923190243
  outer loop
    vertex 104.16156667178714 -572.1997620226406 303.79048088076763
    vertex 104.24258849281998 -572.5643602172883 303.9326850934846
    vertex 119.04362389263855 -569.3310855957479 303.671533286568
  endloop
endfacet
facet normal -0.06020403665421081 0.351069902363742 0.9344117923190243
  outer loop
    vertex 126.19696344579178 -569.670889226385 304.26009043943077
    vertex 119.04362389263855 -569.3310855957479 303.671533286568
    vertex 104.24258849281998 -572.5643602172883 303.9326850934846
  endloop
endfacet
facet normal -0.07160740951297721 -0.2890119836016193 0.9546436257774408
  outer loop
    vertex 142.92943611320467 -515.1311053324251 306.69461361409935
    vertex 169.20709459786164 -520.3688145738456 307.08000802184205
    vertex 146.04256597690585 -512.4177419695575 307.7495807930101
  endloop
endfacet
facet normal -0.07160740951297721 -0.2890119836016193 0.9546436257774408
  outer loop
    vertex 169.1238991733199 -519.8722250738391 307.2241067241045
    vertex 146.04256597690585 -512.4177419695575 307.7495807930101
    vertex 169.20709459786164 -520.3688145738456 307.08000802184205
  endloop
endfacet
facet normal -0.06020403665420883 -0.3510699023600426 0.9344117923204142
  outer loop
    vertex 134.26573902231618 -522.6031406459641 303.5498677165652
    vertex 171.41665789546494 -529.7643794200968 303.25293212787125
    vertex 136.50820166747107 -520.6880776638608 304.4138618185874
  endloop
endfacet
facet normal -0.06020403665420883 -0.3510699023600426 0.9344117923204142
  outer loop
    vertex 170.4541198576713 -525.161970897135 304.92009691353866
    vertex 136.50820166747107 -520.6880776638608 304.4138618185874
    vertex 171.41665789546494 -529.7643794200968 303.25293212787125
  endloop
endfacet
facet normal -0.023448685145563232 0.16254785413019696 0.9864219960456136
  outer loop
    vertex 102.23936673753727 -563.5498623185194 302.319410991604
    vertex 102.62377754417331 -565.2797109483807 302.61360263766295
    vertex 171.43578901326745 -559.0317744802946 303.21979605988963
  endloop
endfacet
facet normal -0.023448685145563232 0.16254785413019696 0.9864219960456136
  outer loop
    vertex 132.66442520088668 -564.9032367402638 303.26567509385796
    vertex 171.43578901326745 -559.0317744802946 303.21979605988963
    vertex 102.62377754417331 -565.2797109483807 302.61360263766295
  endloop
endfacet
facet normal -0.023448685145563232 0.16254785413019696 0.9864219960456136
  outer loop
    vertex 134.2657390223158 -566.3968593532383 303.54986771665136
    vertex 171.43578901326745 -559.0317744802946 303.21979605988963
    vertex 132.66442520088668 -564.9032367402638 303.26567509385796
  endloop
endfacet
facet normal -0.023448685145563232 0.16254785413019696 0.9864219960456136
  outer loop
    vertex 171.41665789546494 -559.2356205791064 303.2529321279292
    vertex 171.43578901326745 -559.0317744802946 303.21979605988963
    vertex 134.2657390223158 -566.3968593532383 303.54986771665136
  endloop
endfacet
facet normal -8.31117094612976e-18 -0.05131957670961566 0.9986822823332484
  outer loop
    vertex 172.57349819959586 -539.6500470101903 301.24922594489266
    vertex 110.50260084116529 -543.6872106518069 301.0417670434379
    vertex 172.6932746522012 -543.6872106518069 301.0417670434379
  endloop
endfacet
facet normal -0.02915130969167053 -0.2537924677388293 0.9668193132443599
  outer loop
    vertex 99.76419596569175 -525.3992743707399 302.2581319666386
    vertex 172.13824649437186 -534.6838852701882 302.0031040124118
    vertex 99.79365129810557 -525.2904479623581 302.2875872990524
  endloop
endfacet
facet normal -0.02915130969167053 -0.2537924677388293 0.9668193132443599
  outer loop
    vertex 171.43578901326745 -529.9682255189089 303.2197960598324
    vertex 99.79365129810557 -525.2904479623581 302.2875872990524
    vertex 172.13824649437186 -534.6838852701882 302.0031040124118
  endloop
endfacet
facet normal -0.008963808571514603 0.15341192518959357 0.9881216682906595
  outer loop
    vertex 100.12780584113126 -554.0478382846946 301.31455927429306
    vertex 100.1581514530229 -554.1843935382074 301.3360355937315
    vertex 172.57244402373033 -549.4058722278411 301.25105183107127
  endloop
endfacet
facet normal -0.008963808571514603 0.15341192518959357 0.9881216682906595
  outer loop
    vertex 172.144545806924 -554.2045443308687 301.9921932830572
    vertex 172.57244402373033 -549.4058722278411 301.25105183107127
    vertex 100.1581514530229 -554.1843935382074 301.3360355937315
  endloop
endfacet
facet normal -0.0012164098118079799 -0.032657690269882376 0.9994658551513436
  outer loop
    vertex 98.53298319616027 -543.6957830598617 301.0269191971432
    vertex 110.50260084116529 -543.6872106518069 301.0417670434379
    vertex 98.82176819048459 -534.8684759843455 301.3157041914502
  endloop
endfacet
facet normal -0.0012164098118079799 -0.032657690269882376 0.9994658551513436
  outer loop
    vertex 172.57244402373033 -539.5941277713702 301.251051831052
    vertex 98.82176819048459 -534.8684759843455 301.3157041914502
    vertex 110.50260084116529 -543.6872106518069 301.0417670434379
  endloop
endfacet
facet normal -0.0012164098118079799 -0.032657690269882376 0.9994658551513436
  outer loop
    vertex 172.57349819959586 -539.6500470101903 301.24922594489266
    vertex 172.57244402373033 -539.5941277713702 301.251051831052
    vertex 110.50260084116529 -543.6872106518069 301.0417670434379
  endloop
endfacet
facet normal -0.15184418293215143 0.5290098709931957 0.8349202958974168
  outer loop
    vertex 146.0425659769066 -576.582258029628 307.74958079313666
    vertex 148.63655135886378 -578.5298626396007 309.4553527827826
    vertex 169.12389917331956 -569.1277749253487 307.2241067242016
  endloop
endfacet
facet normal -0.15184418293215143 0.5290098709931957 0.8349202958974168
  outer loop
    vertex 167.70259558244558 -573.4210756194524 309.68587675658387
    vertex 169.12389917331956 -569.1277749253487 307.2241067242016
    vertex 148.63655135886378 -578.5298626396007 309.4553527827826
  endloop
endfacet
facet normal -0.071607409512978 0.2890119836053802 0.9546436257763021
  outer loop
    vertex 106.16109197298206 -581.1976258780118 306.1553603081753
    vertex 107.874765204895 -588.9091554216152 308.61851628327037
    vertex 135.91433552546306 -575.2671568901421 306.591728475583
  endloop
endfacet
facet normal -0.071607409512978 0.2890119836053802 0.9546436257763021
  outer loop
    vertex 134.4935562317648 -580.3121941335654 308.0125077692911
    vertex 135.91433552546306 -575.2671568901421 306.591728475583
    vertex 107.874765204895 -588.9091554216152 308.61851628327037
  endloop
endfacet
facet normal -0.023448685145563294 -0.1625478541263111 0.986421996046254
  outer loop
    vertex 99.79365129810557 -525.2904479623581 302.2875872990524
    vertex 171.43578901326745 -529.9682255189089 303.2197960598324
    vertex 100.06410553035994 -523.6882108311595 302.5580415313034
  endloop
endfacet
facet normal -0.023448685145563294 -0.1625478541263111 0.986421996046254
  outer loop
    vertex 132.66442520088742 -524.0967632589397 303.2656750937777
    vertex 100.06410553035994 -523.6882108311595 302.5580415313034
    vertex 171.43578901326745 -529.9682255189089 303.2197960598324
  endloop
endfacet
facet normal -0.023448685145563294 -0.1625478541263111 0.986421996046254
  outer loop
    vertex 134.26573902231618 -522.6031406459641 303.5498677165652
    vertex 132.66442520088742 -524.0967632589397 303.2656750937777
    vertex 171.43578901326745 -529.9682255189089 303.2197960598324
  endloop
endfacet
facet normal -0.023448685145563294 -0.1625478541263111 0.986421996046254
  outer loop
    vertex 171.41665789546494 -529.7643794200968 303.25293212787125
    vertex 134.26573902231618 -522.6031406459641 303.5498677165652
    vertex 171.43578901326745 -529.9682255189089 303.2197960598324
  endloop
endfacet
facet normal -0.029151309691670367 0.25379246774263453 0.9668193132433611
  outer loop
    vertex 102.18174982165307 -563.29058619704 302.2496131148643
    vertex 102.23936673753727 -563.5498623185194 302.319410991604
    vertex 172.13824649437186 -554.3161147290202 302.0031040124506
  endloop
endfacet
facet normal -0.029151309691670367 0.25379246774263453 0.9668193132433611
  outer loop
    vertex 171.43578901326745 -559.0317744802946 303.21979605988963
    vertex 172.13824649437186 -554.3161147290202 302.0031040124506
    vertex 102.23936673753727 -563.5498623185194 302.319410991604
  endloop
endfacet
facet normal -0.009043540797730227 -0.09782982126762267 0.9951620674244898
  outer loop
    vertex 98.82999340062659 -534.8159782456692 301.32392940159207
    vertex 172.14454580692433 -534.7954556683397 301.99219328301893
    vertex 99.76419596569175 -525.3992743707399 302.2581319666386
  endloop
endfacet
facet normal -0.009043540797730227 -0.09782982126762267 0.9951620674244898
  outer loop
    vertex 172.13824649437186 -534.6838852701882 302.0031040124118
    vertex 99.76419596569175 -525.3992743707399 302.2581319666386
    vertex 172.14454580692433 -534.7954556683397 301.99219328301893
  endloop
endfacet
facet normal -0.044353465400122805 -0.2264346079324397 0.9730160011209901
  outer loop
    vertex 136.50820166747107 -520.6880776638608 304.4138618185874
    vertex 170.4541198576713 -525.161970897135 304.92009691353866
    vertex 140.46467399381083 -517.1150323960929 305.4257098885374
  endloop
endfacet
facet normal -0.044353465400122805 -0.2264346079324397 0.9730160011209901
  outer loop
    vertex 170.41061733173274 -524.8296680415307 304.99544549872115
    vertex 140.46467399381083 -517.1150323960929 305.4257098885374
    vertex 170.4541198576713 -525.161970897135 304.92009691353866
  endloop
endfacet
facet normal 1.0 0.0 0.0
  outer loop
    vertex 140.50606400000066 -584.6388888884969 300.0000000010641
    vertex 140.50606400000066 -575.2071067807948 300.0000000010456
    vertex 140.50606400000066 -584.638888888493 302.0000000010641
  endloop
endfacet
facet normal 1.0 0.0 0.0
  outer loop
    vertex 140.50606400000066 -575.7755128537353 302.0000000010466
    vertex 140.50606400000066 -584.638888888493 302.0000000010641
    vertex 140.50606400000066 -575.2071067807948 300.0000000010456
  endloop
endfacet
facet normal 1.0 0.0 0.0
  outer loop
    vertex 140.50606400000066 -575.207106780794 300.5000000010456
    vertex 140.50606400000066 -575.7755128537353 302.0000000010466
    vertex 140.50606400000066 -575.2071067807948 300.0000000010456
  endloop
endfacet
facet normal -0.10495263612510344 0.34967593693064425 0.9309735137489508
  outer loop
    vertex 107.98863261102004 -589.4215587491781 308.9638864016795
    vertex 108.00606400000046 -589.4999999995907 308.9953142430999
    vertex 133.23690545590097 -582.6562304472776 309.26915854515994
  endloop
endfacet
facet normal -0.10495263612510344 0.34967593693064425 0.9309735137489508
  outer loop
    vertex 128.00606400000024 -589.499999999586 311.25000000107366
    vertex 133.23690545590097 -582.6562304472776 309.26915854515994
    vertex 108.00606400000046 -589.4999999995907 308.9953142430999
  endloop
endfacet
facet normal -0.10495263612510344 0.34967593693064425 0.9309735137489508
  outer loop
    vertex 131.36813296551796 -588.1925287352184 311.13793103555383
    vertex 133.23690545590097 -582.6562304472776 309.26915854515994
    vertex 128.00606400000024 -589.499999999586 311.25000000107366
  endloop
endfacet
facet normal -0.101461515951594 -0.4435095737053473 0.8905081800929768
  outer loop
    vertex 140.46467399381083 -517.1150323960929 305.4257098885374
    vertex 170.41061733173274 -524.8296680415307 304.99544549872115
    vertex 142.92943611320467 -515.1311053324251 306.69461361409935
  endloop
endfacet
facet normal -0.101461515951594 -0.4435095737053473 0.8905081800929768
  outer loop
    vertex 169.20709459786164 -520.3688145738456 307.08000802184205
    vertex 142.92943611320467 -515.1311053324251 306.69461361409935
    vertex 170.41061733173274 -524.8296680415307 304.99544549872115
  endloop
endfacet
facet normal -0.10146151595159156 0.4435095737088603 0.8905081800912275
  outer loop
    vertex 140.46467399381083 -571.8849676031022 305.42570988864543
    vertex 142.92943611320504 -573.8688946667639 306.69461361421526
    vertex 170.41061733173274 -564.1703319576658 304.9954454987987
  endloop
endfacet
facet normal -0.10146151595159156 0.4435095737088603 0.8905081800912275
  outer loop
    vertex 169.20709459786127 -568.631185425343 307.08000802193703
    vertex 170.41061733173274 -564.1703319576658 304.9954454987987
    vertex 142.92943611320504 -573.8688946667639 306.69461361421526
  endloop
endfacet
facet normal -0.00904354079772996 0.09782982127154018 0.9951620674241047
  outer loop
    vertex 100.1581514530229 -554.1843935382074 301.3360355937315
    vertex 102.18174982165307 -563.29058619704 302.2496131148643
    vertex 172.144545806924 -554.2045443308687 301.9921932830572
  endloop
endfacet
facet normal -0.00904354079772996 0.09782982127154018 0.9951620674241047
  outer loop
    vertex 172.13824649437186 -554.3161147290202 302.0031040124506
    vertex 172.144545806924 -554.2045443308687 301.9921932830572
    vertex 102.18174982165307 -563.29058619704 302.2496131148643
  endloop
endfacet
facet normal 0.7071067811864769 0.7071067811866182 -1.3928854452962489e-12
  outer loop
    vertex 134.60378472220327 -569.3048275029977 300.5000000010338
    vertex 134.60378472220327 -569.3048275029985 300.00000000103387
    vertex 132.79895721881257 -567.4999999996073 300.50000000103034
  endloop
endfacet
facet normal 0.7071067811864769 0.7071067811866182 -1.3928854452962489e-12
  outer loop
    vertex 132.79895721881257 -567.4999999996081 300.0000000010304
    vertex 132.79895721881257 -567.4999999996073 300.50000000103034
    vertex 134.60378472220327 -569.3048275029985 300.00000000103387
  endloop
endfacet
facet normal -0.008963808571514742 -0.15341192518569752 0.9881216682912644
  outer loop
    vertex 98.82176819048459 -534.8684759843455 301.3157041914502
    vertex 172.57244402373033 -539.5941277713702 301.251051831052
    vertex 98.82999340062659 -534.8159782456692 301.32392940159207
  endloop
endfacet
facet normal -0.008963808571514742 -0.15341192518569752 0.9881216682912644
  outer loop
    vertex 172.14454580692433 -534.7954556683397 301.99219328301893
    vertex 98.82999340062659 -534.8159782456692 301.32392940159207
    vertex 172.57244402373033 -539.5941277713702 301.251051831052
  endloop
endfacet
facet normal -0.10495263612510443 -0.3496759369269714 0.9309735137503303
  outer loop
    vertex 148.6365513588627 -510.47013735957825 309.4553527826483
    vertex 167.70259558244558 -515.5789243797258 309.68587675646984
    vertex 151.03868610238757 -508.4571308171825 310.48224593083455
  endloop
endfacet
facet normal -0.10495263612510443 -0.3496759369269714 0.9309735137503303
  outer loop
    vertex 167.56077946016688 -514.8823893452088 309.9315094855878
    vertex 151.03868610238757 -508.4571308171825 310.48224593083455
    vertex 167.70259558244558 -515.5789243797258 309.68587675646984
  endloop
endfacet
endsolid ProtoGlove baseplate
