solid ProtoGlove
facet normal 0.0 -0.6087614290087409 -0.7933533402912198
  outer loop
    vertex -300.00000000000045 -219.61816900000076 -1.0656745115973594
    vertex -304.8964466094071 -219.72172239059404 -0.9862152002984171
    vertex -305.0000000000004 -219.61816900000076 -1.0656745115973594
  endloop
endfacet
facet normal 0.0 -0.6087614290087409 -0.7933533402912198
  outer loop
    vertex -304.8964466094071 -219.72172239059404 -0.9862152002984171
    vertex -300.00000000000045 -219.61816900000076 -1.0656745115973594
    vertex -300.10355339059373 -219.72172239059404 -0.9862152002984171
  endloop
endfacet
facet normal 1.6363188321503823e-16 0.9914448613737743 0.13052619222032685
  outer loop
    vertex -304.76703708685585 -208.38520608685621 -0.5032522871538755
    vertex -300.2500000000004 -208.3681690000007 -0.6326618097051425
    vertex -304.75000000000034 -208.3681690000007 -0.6326618097051425
  endloop
endfacet
facet normal 1.6363188321503823e-16 0.9914448613737743 0.13052619222032685
  outer loop
    vertex -300.2500000000004 -208.3681690000007 -0.6326618097051425
    vertex -304.76703708685585 -208.38520608685621 -0.5032522871538755
    vertex -300.232962913145 -208.38520608685621 -0.5032522871538868
  endloop
endfacet
facet normal -0.7071067811865519 -0.7071067811865431 9.88505431948452e-15
  outer loop
    vertex -304.76703708685585 -219.85113191314528 -0.5032522871538868
    vertex -304.76703708685585 -219.85113191314528 -0.7620713322564096
    vertex -304.75000000000034 -219.8681690000007 -0.6326618097051425
  endloop
endfacet
facet normal -0.7071067811865519 -0.7071067811865431 9.88505431948452e-15
  outer loop
    vertex -304.76703708685585 -219.85113191314528 -0.7620713322564096
    vertex -304.76703708685585 -219.85113191314528 -0.5032522871538868
    vertex -304.81698729810813 -219.80118170189292 -0.38266180970514296
  endloop
endfacet
facet normal -0.7071067811865519 -0.7071067811865431 9.88505431948452e-15
  outer loop
    vertex -304.76703708685585 -219.85113191314528 -0.7620713322564096
    vertex -304.81698729810813 -219.80118170189292 -0.38266180970514296
    vertex -304.81698729810813 -219.80118170189292 -0.8826618097051421
  endloop
endfacet
facet normal -0.7071067811865519 -0.7071067811865431 9.88505431948452e-15
  outer loop
    vertex -304.81698729810813 -219.80118170189292 -0.8826618097051421
    vertex -304.81698729810813 -219.80118170189292 -0.38266180970514296
    vertex -304.8964466094071 -219.72172239059404 -0.27910841911186784
  endloop
endfacet
facet normal -0.7071067811865519 -0.7071067811865431 9.88505431948452e-15
  outer loop
    vertex -304.81698729810813 -219.80118170189292 -0.8826618097051421
    vertex -304.8964466094071 -219.72172239059404 -0.27910841911186784
    vertex -304.8964466094071 -219.72172239059404 -0.9862152002984171
  endloop
endfacet
facet normal -0.7071067811865519 -0.7071067811865431 9.88505431948452e-15
  outer loop
    vertex -304.8964466094071 -219.72172239059404 -0.9862152002984171
    vertex -304.8964466094071 -219.72172239059404 -0.27910841911186784
    vertex -305.0000000000004 -219.61816900000076 -0.19964910781292575
  endloop
endfacet
facet normal -0.7071067811865519 -0.7071067811865431 9.88505431948452e-15
  outer loop
    vertex -304.8964466094071 -219.72172239059404 -0.9862152002984171
    vertex -305.0000000000004 -219.61816900000076 -0.19964910781292575
    vertex -305.0000000000004 -219.61816900000076 -1.0656745115973594
  endloop
endfacet
facet normal -0.7071067811865519 -0.7071067811865431 9.88505431948452e-15
  outer loop
    vertex -305.0000000000004 -219.61816900000076 -1.0656745115973594
    vertex -305.0000000000004 -219.61816900000076 -0.19964910781292575
    vertex -307.50000000000034 -217.1181690000007 1.2740714505582513
  endloop
endfacet
facet normal -0.7071067811865519 -0.7071067811865431 9.88505431948452e-15
  outer loop
    vertex -305.0000000000004 -219.61816900000076 -1.0656745115973594
    vertex -307.50000000000034 -217.1181690000007 1.2740714505582513
    vertex -305.1205904774491 -219.497578522552 -1.1156247228496843
  endloop
endfacet
facet normal -0.7071067811865519 -0.7071067811865431 9.88505431948452e-15
  outer loop
    vertex -305.1205904774491 -219.497578522552 -1.1156247228496843
    vertex -307.50000000000034 -217.1181690000007 1.2740714505582513
    vertex -305.2500000000004 -219.36816900000073 -1.1326618097051415
  endloop
endfacet
facet normal -0.7071067811865519 -0.7071067811865431 9.88505431948452e-15
  outer loop
    vertex -305.2500000000004 -219.36816900000073 -1.1326618097051415
    vertex -307.50000000000034 -217.1181690000007 1.2740714505582513
    vertex -305.37940952255167 -219.23875947744946 -1.1156247228496843
  endloop
endfacet
facet normal -0.7071067811865519 -0.7071067811865431 9.88505431948452e-15
  outer loop
    vertex -305.37940952255167 -219.23875947744946 -1.1156247228496843
    vertex -307.50000000000034 -217.1181690000007 1.2740714505582513
    vertex -305.50000000000034 -219.1181690000007 -1.0656745115973594
  endloop
endfacet
facet normal -0.7071067811865519 -0.7071067811865431 9.88505431948452e-15
  outer loop
    vertex -305.50000000000034 -219.1181690000007 -1.0656745115973594
    vertex -307.50000000000034 -217.1181690000007 1.2740714505582513
    vertex -306.1611626088248 -218.4570063911763 -0.716239870417553
  endloop
endfacet
facet normal -0.7071067811865519 -0.7071067811865431 9.88505431948452e-15
  outer loop
    vertex -306.1611626088248 -218.4570063911763 -0.716239870417553
    vertex -307.50000000000034 -217.1181690000007 1.2740714505582513
    vertex -306.84658975633647 -217.7715792436647 -0.4171910629997058
  endloop
endfacet
facet normal -0.7071067811865519 -0.7071067811865431 9.88505431948452e-15
  outer loop
    vertex -306.84658975633647 -217.7715792436647 -0.4171910629997058
    vertex -307.50000000000034 -217.1181690000007 1.2740714505582513
    vertex -307.50000000000034 -217.1181690000007 -0.1885529300657094
  endloop
endfacet
facet normal 1.3805454521650967e-19 -0.9238795325111294 -0.38268343236547003
  outer loop
    vertex -300.232962913145 -219.85113191314528 -0.7620713322564096
    vertex -304.81698729810813 -219.80118170189292 -0.8826618097051421
    vertex -300.1830127018926 -219.80118170189292 -0.8826618097051421
  endloop
endfacet
facet normal 1.3805454521650967e-19 -0.9238795325111294 -0.38268343236547003
  outer loop
    vertex -304.81698729810813 -219.80118170189292 -0.8826618097051421
    vertex -300.232962913145 -219.85113191314528 -0.7620713322564096
    vertex -304.76703708685585 -219.85113191314528 -0.7620713322564096
  endloop
endfacet
facet normal 0.0 0.6087614290087409 0.7933533402912198
  outer loop
    vertex -300.00000000000045 -208.61816900000073 -0.19964910781292575
    vertex -304.8964466094071 -208.51461560940749 -0.27910841911186784
    vertex -305.0000000000004 -208.61816900000073 -0.19964910781292575
  endloop
endfacet
facet normal 0.0 0.6087614290087409 0.7933533402912198
  outer loop
    vertex -304.8964466094071 -208.51461560940749 -0.27910841911186784
    vertex -300.00000000000045 -208.61816900000073 -0.19964910781292575
    vertex -300.10355339059373 -208.51461560940749 -0.27910841911186784
  endloop
endfacet
facet normal 0.0 -0.6087614290087409 0.7933533402912198
  outer loop
    vertex -304.8964466094071 -219.72172239059404 -0.27910841911186784
    vertex -300.00000000000045 -219.61816900000076 -0.19964910781292575
    vertex -305.0000000000004 -219.61816900000076 -0.19964910781292575
  endloop
endfacet
facet normal 0.0 -0.6087614290087409 0.7933533402912198
  outer loop
    vertex -300.00000000000045 -219.61816900000076 -0.19964910781292575
    vertex -304.8964466094071 -219.72172239059404 -0.27910841911186784
    vertex -300.10355339059373 -219.72172239059404 -0.27910841911186784
  endloop
endfacet
facet normal -1.0961480571668616e-19 -0.3826834323650834 -0.9238795325112895
  outer loop
    vertex -305.37940952255167 -208.99757852255195 -1.1156247228496843
    vertex -299.5000000000004 -209.1181690000007 -1.0656745115973594
    vertex -305.50000000000034 -209.1181690000007 -1.0656745115973594
  endloop
endfacet
facet normal -1.0961480571668616e-19 -0.3826834323650834 -0.9238795325112895
  outer loop
    vertex -299.5000000000004 -209.1181690000007 -1.0656745115973594
    vertex -305.37940952255167 -208.99757852255195 -1.1156247228496843
    vertex -299.6205904774491 -208.99757852255195 -1.1156247228496843
  endloop
endfacet
facet normal 0.0 -0.13052619222007092 -0.9914448613738079
  outer loop
    vertex -305.2500000000004 -208.86816900000076 -1.1326618097051415
    vertex -299.6205904774491 -208.99757852255195 -1.1156247228496843
    vertex -305.37940952255167 -208.99757852255195 -1.1156247228496843
  endloop
endfacet
facet normal 0.0 -0.13052619222007092 -0.9914448613738079
  outer loop
    vertex -299.6205904774491 -208.99757852255195 -1.1156247228496843
    vertex -305.2500000000004 -208.86816900000076 -1.1326618097051415
    vertex -299.7500000000004 -208.86816900000076 -1.1326618097051415
  endloop
endfacet
facet normal 0.0 -0.38268343236508334 -0.9238795325112895
  outer loop
    vertex -299.87940952255167 -219.497578522552 -1.1156247228496843
    vertex -305.0000000000004 -219.61816900000076 -1.0656745115973594
    vertex -305.1205904774491 -219.497578522552 -1.1156247228496843
  endloop
endfacet
facet normal 0.0 -0.38268343236508334 -0.9238795325112895
  outer loop
    vertex -305.0000000000004 -219.61816900000076 -1.0656745115973594
    vertex -299.87940952255167 -219.497578522552 -1.1156247228496843
    vertex -300.00000000000045 -219.61816900000076 -1.0656745115973594
  endloop
endfacet
facet normal 1.7024245677058627e-18 0.39989202431975784 -0.9165622558699689
  outer loop
    vertex -298.1534102436644 -217.7715792436647 -0.4171910629997058
    vertex -306.1611626088248 -218.4570063911763 -0.716239870417553
    vertex -306.84658975633647 -217.7715792436647 -0.4171910629997058
  endloop
endfacet
facet normal 1.7024245677058627e-18 0.39989202431975784 -0.9165622558699689
  outer loop
    vertex -306.1611626088248 -218.4570063911763 -0.716239870417553
    vertex -298.1534102436644 -217.7715792436647 -0.4171910629997058
    vertex -298.83883739117596 -218.4570063911763 -0.716239870417553
  endloop
endfacet
facet normal -4.661072643651218e-16 -0.9238795325111356 0.38268343236545477
  outer loop
    vertex -300.232962913145 -219.85113191314528 -0.5032522871538755
    vertex -304.81698729810813 -219.80118170189292 -0.38266180970514296
    vertex -304.76703708685585 -219.85113191314528 -0.5032522871538868
  endloop
endfacet
facet normal -4.661072643651218e-16 -0.9238795325111356 0.38268343236545477
  outer loop
    vertex -304.81698729810813 -219.80118170189292 -0.38266180970514296
    vertex -300.232962913145 -219.85113191314528 -0.5032522871538755
    vertex -300.1830127018926 -219.80118170189292 -0.38266180970514296
  endloop
endfacet
facet normal 4.656805676836987e-16 0.9238795325113801 0.3826834323648646
  outer loop
    vertex -304.76703708685585 -208.38520608685621 -0.5032522871538755
    vertex -300.1830127018926 -208.4351562981085 -0.38266180970514296
    vertex -300.232962913145 -208.38520608685621 -0.5032522871538868
  endloop
endfacet
facet normal 4.656805676836987e-16 0.9238795325113801 0.3826834323648646
  outer loop
    vertex -300.1830127018926 -208.4351562981085 -0.38266180970514296
    vertex -304.76703708685585 -208.38520608685621 -0.5032522871538755
    vertex -304.81698729810813 -208.4351562981085 -0.38266180970514296
  endloop
endfacet
facet normal -2.384790914709169e-20 -0.9914448613738645 -0.13052619221964168
  outer loop
    vertex -300.2500000000004 -219.8681690000007 -0.6326618097051425
    vertex -304.76703708685585 -219.85113191314528 -0.7620713322564096
    vertex -300.232962913145 -219.85113191314528 -0.7620713322564096
  endloop
endfacet
facet normal -2.384790914709169e-20 -0.9914448613738645 -0.13052619221964168
  outer loop
    vertex -304.76703708685585 -219.85113191314528 -0.7620713322564096
    vertex -300.2500000000004 -219.8681690000007 -0.6326618097051425
    vertex -304.75000000000034 -219.8681690000007 -0.6326618097051425
  endloop
endfacet
facet normal 1.3801584054479793e-18 0.46726862827306676 -0.8841153935046073
  outer loop
    vertex -298.83883739117596 -218.4570063911763 -0.716239870417553
    vertex -305.50000000000034 -219.1181690000007 -1.0656745115973594
    vertex -306.1611626088248 -218.4570063911763 -0.716239870417553
  endloop
endfacet
facet normal 1.3801584054479793e-18 0.46726862827306676 -0.8841153935046073
  outer loop
    vertex -305.50000000000034 -219.1181690000007 -1.0656745115973594
    vertex -298.83883739117596 -218.4570063911763 -0.716239870417553
    vertex -299.5000000000004 -219.1181690000007 -1.0656745115973594
  endloop
endfacet
facet normal -0.7071067811865461 0.7071067811865489 8.943620574771861e-15
  outer loop
    vertex -305.37940952255167 -208.99757852255195 -1.1156247228496843
    vertex -305.1205904774491 -208.7387594774495 -1.1156247228496843
    vertex -305.2500000000004 -208.86816900000076 -1.1326618097051415
  endloop
endfacet
facet normal -0.7071067811865461 0.7071067811865489 8.943620574771861e-15
  outer loop
    vertex -305.1205904774491 -208.7387594774495 -1.1156247228496843
    vertex -305.37940952255167 -208.99757852255195 -1.1156247228496843
    vertex -305.50000000000034 -209.1181690000007 -1.0656745115973594
  endloop
endfacet
facet normal -0.7071067811865461 0.7071067811865489 8.943620574771861e-15
  outer loop
    vertex -305.1205904774491 -208.7387594774495 -1.1156247228496843
    vertex -305.50000000000034 -209.1181690000007 -1.0656745115973594
    vertex -305.0000000000004 -208.61816900000073 -1.0656745115973594
  endloop
endfacet
facet normal -0.7071067811865461 0.7071067811865489 8.943620574771861e-15
  outer loop
    vertex -305.0000000000004 -208.61816900000073 -1.0656745115973594
    vertex -305.50000000000034 -209.1181690000007 -1.0656745115973594
    vertex -306.1611626088248 -209.77933160882512 -0.716239870417553
  endloop
endfacet
facet normal -0.7071067811865461 0.7071067811865489 8.943620574771861e-15
  outer loop
    vertex -305.0000000000004 -208.61816900000073 -1.0656745115973594
    vertex -306.1611626088248 -209.77933160882512 -0.716239870417553
    vertex -304.8964466094071 -208.51461560940749 -0.9862152002984171
  endloop
endfacet
facet normal -0.7071067811865461 0.7071067811865489 8.943620574771861e-15
  outer loop
    vertex -304.8964466094071 -208.51461560940749 -0.9862152002984171
    vertex -306.1611626088248 -209.77933160882512 -0.716239870417553
    vertex -304.81698729810813 -208.4351562981085 -0.8826618097051421
  endloop
endfacet
facet normal -0.7071067811865461 0.7071067811865489 8.943620574771861e-15
  outer loop
    vertex -304.81698729810813 -208.4351562981085 -0.8826618097051421
    vertex -306.1611626088248 -209.77933160882512 -0.716239870417553
    vertex -304.76703708685585 -208.38520608685621 -0.7620713322564096
  endloop
endfacet
facet normal -0.7071067811865461 0.7071067811865489 8.943620574771861e-15
  outer loop
    vertex -304.76703708685585 -208.38520608685621 -0.7620713322564096
    vertex -306.1611626088248 -209.77933160882512 -0.716239870417553
    vertex -304.75000000000034 -208.3681690000007 -0.6326618097051425
  endloop
endfacet
facet normal -0.7071067811865461 0.7071067811865489 8.943620574771861e-15
  outer loop
    vertex -304.75000000000034 -208.3681690000007 -0.6326618097051425
    vertex -306.1611626088248 -209.77933160882512 -0.716239870417553
    vertex -306.84658975633647 -210.4647587563368 -0.4171910629997058
  endloop
endfacet
facet normal -0.7071067811865461 0.7071067811865489 8.943620574771861e-15
  outer loop
    vertex -304.75000000000034 -208.3681690000007 -0.6326618097051425
    vertex -306.84658975633647 -210.4647587563368 -0.4171910629997058
    vertex -304.76703708685585 -208.38520608685621 -0.5032522871538755
  endloop
endfacet
facet normal -0.7071067811865461 0.7071067811865489 8.943620574771861e-15
  outer loop
    vertex -304.76703708685585 -208.38520608685621 -0.5032522871538755
    vertex -306.84658975633647 -210.4647587563368 -0.4171910629997058
    vertex -304.81698729810813 -208.4351562981085 -0.38266180970514296
  endloop
endfacet
facet normal -0.7071067811865461 0.7071067811865489 8.943620574771861e-15
  outer loop
    vertex -304.81698729810813 -208.4351562981085 -0.38266180970514296
    vertex -306.84658975633647 -210.4647587563368 -0.4171910629997058
    vertex -307.50000000000034 -211.1181690000007 -0.1885529300657094
  endloop
endfacet
facet normal -0.7071067811865461 0.7071067811865489 8.943620574771861e-15
  outer loop
    vertex -304.81698729810813 -208.4351562981085 -0.38266180970514296
    vertex -307.50000000000034 -211.1181690000007 -0.1885529300657094
    vertex -304.8964466094071 -208.51461560940749 -0.27910841911186784
  endloop
endfacet
facet normal -0.7071067811865461 0.7071067811865489 8.943620574771861e-15
  outer loop
    vertex -304.8964466094071 -208.51461560940749 -0.27910841911186784
    vertex -307.50000000000034 -211.1181690000007 -0.1885529300657094
    vertex -305.0000000000004 -208.61816900000073 -0.19964910781292575
  endloop
endfacet
facet normal -0.7071067811865461 0.7071067811865489 8.943620574771861e-15
  outer loop
    vertex -305.0000000000004 -208.61816900000073 -0.19964910781292575
    vertex -307.50000000000034 -211.1181690000007 -0.1885529300657094
    vertex -307.50000000000034 -211.1181690000007 1.2740714505582513
  endloop
endfacet
facet normal -9.933139703280402e-16 0.3826834323650464 -0.9238795325113047
  outer loop
    vertex -305.0000000000004 -208.61816900000073 -1.0656745115973594
    vertex -299.87940952255167 -208.7387594774495 -1.1156247228496843
    vertex -305.1205904774491 -208.7387594774495 -1.1156247228496843
  endloop
endfacet
facet normal -9.933139703280402e-16 0.3826834323650464 -0.9238795325113047
  outer loop
    vertex -299.87940952255167 -208.7387594774495 -1.1156247228496843
    vertex -305.0000000000004 -208.61816900000073 -1.0656745115973594
    vertex -300.00000000000045 -208.61816900000073 -1.0656745115973705
  endloop
endfacet
facet normal 0.0 -0.46726862827306676 -0.8841153935046073
  outer loop
    vertex -305.50000000000034 -209.1181690000007 -1.0656745115973594
    vertex -298.83883739117596 -209.77933160882512 -0.716239870417553
    vertex -306.1611626088248 -209.77933160882512 -0.716239870417553
  endloop
endfacet
facet normal 0.0 -0.46726862827306676 -0.8841153935046073
  outer loop
    vertex -298.83883739117596 -209.77933160882512 -0.716239870417553
    vertex -305.50000000000034 -209.1181690000007 -1.0656745115973594
    vertex -299.5000000000004 -209.1181690000007 -1.0656745115973594
  endloop
endfacet
facet normal -1.5619738725690375e-19 -0.39989202431971366 -0.9165622558699881
  outer loop
    vertex -306.1611626088248 -209.77933160882512 -0.716239870417553
    vertex -298.1534102436644 -210.4647587563368 -0.4171910629997058
    vertex -306.84658975633647 -210.4647587563368 -0.4171910629997058
  endloop
endfacet
facet normal -1.5619738725690375e-19 -0.39989202431971366 -0.9165622558699881
  outer loop
    vertex -298.1534102436644 -210.4647587563368 -0.4171910629997058
    vertex -306.1611626088248 -209.77933160882512 -0.716239870417553
    vertex -298.83883739117596 -209.77933160882512 -0.716239870417553
  endloop
endfacet
facet normal 0.0 0.13052619221998146 -0.9914448613738197
  outer loop
    vertex -305.1205904774491 -208.7387594774495 -1.1156247228496843
    vertex -299.7500000000004 -208.86816900000076 -1.1326618097051415
    vertex -305.2500000000004 -208.86816900000076 -1.1326618097051415
  endloop
endfacet
facet normal 0.0 0.13052619221998146 -0.9914448613738197
  outer loop
    vertex -299.7500000000004 -208.86816900000076 -1.1326618097051415
    vertex -305.1205904774491 -208.7387594774495 -1.1156247228496843
    vertex -299.87940952255167 -208.7387594774495 -1.1156247228496843
  endloop
endfacet
facet normal -7.722101225204074e-20 -0.7933533402914188 0.6087614290084816
  outer loop
    vertex -300.10355339059373 -219.72172239059404 -0.27910841911186784
    vertex -304.81698729810813 -219.80118170189292 -0.38266180970514296
    vertex -300.1830127018926 -219.80118170189292 -0.38266180970514296
  endloop
endfacet
facet normal -7.722101225204074e-20 -0.7933533402914188 0.6087614290084816
  outer loop
    vertex -304.81698729810813 -219.80118170189292 -0.38266180970514296
    vertex -300.10355339059373 -219.72172239059404 -0.27910841911186784
    vertex -304.8964466094071 -219.72172239059404 -0.27910841911186784
  endloop
endfacet
facet normal 1.0 0.0 0.0
  outer loop
    vertex -297.5000000000004 -217.06572074410977 -0.1702004915803405
    vertex -297.5000000000004 -217.1181690000007 1.2740714505582513
    vertex -297.5000000000004 -217.1181690000007 -0.1885529300657094
  endloop
endfacet
facet normal 1.0 0.0 0.0
  outer loop
    vertex -297.5000000000004 -217.1181690000007 1.2740714505582513
    vertex -297.5000000000004 -217.06572074410977 -0.1702004915803405
    vertex -297.5000000000004 -216.2431690000007 3.024071450558248
  endloop
endfacet
facet normal 1.0 0.0 0.0
  outer loop
    vertex -297.5000000000004 -216.2431690000007 3.024071450558248
    vertex -297.5000000000004 -217.06572074410977 -0.1702004915803405
    vertex -297.5000000000004 -216.34337833956388 0.023350572376493604
  endloop
endfacet
facet normal 1.0 0.0 0.0
  outer loop
    vertex -297.5000000000004 -216.2431690000007 3.024071450558248
    vertex -297.5000000000004 -216.34337833956388 0.023350572376493604
    vertex -297.5000000000004 -215.60859166176246 0.1623797128095414
  endloop
endfacet
facet normal 1.0 0.0 0.0
  outer loop
    vertex -297.5000000000004 -216.2431690000007 3.024071450558248
    vertex -297.5000000000004 -215.60859166176246 0.1623797128095414
    vertex -297.5000000000004 -215.74316900000073 0.7740714505582523
  endloop
endfacet
facet normal 1.0 0.0 0.0
  outer loop
    vertex -297.5000000000004 -215.74316900000073 0.7740714505582523
    vertex -297.5000000000004 -215.60859166176246 0.1623797128095414
    vertex -297.5000000000004 -212.49316900000076 0.7740714505582523
  endloop
endfacet
facet normal 1.0 0.0 0.0
  outer loop
    vertex -297.5000000000004 -212.49316900000076 0.7740714505582523
    vertex -297.5000000000004 -215.60859166176246 0.1623797128095414
    vertex -297.5000000000004 -214.86546993586492 0.2461094223700505
  endloop
endfacet
facet normal 1.0 0.0 0.0
  outer loop
    vertex -297.5000000000004 -212.49316900000076 0.7740714505582523
    vertex -297.5000000000004 -214.86546993586492 0.2461094223700505
    vertex -297.5000000000004 -214.11816900000076 0.27407145055825327
  endloop
endfacet
facet normal 1.0 0.0 0.0
  outer loop
    vertex -297.5000000000004 -212.49316900000076 0.7740714505582523
    vertex -297.5000000000004 -214.11816900000076 0.27407145055825327
    vertex -297.5000000000004 -213.3708680641365 0.2461094223700505
  endloop
endfacet
facet normal 1.0 0.0 0.0
  outer loop
    vertex -297.5000000000004 -212.49316900000076 0.7740714505582523
    vertex -297.5000000000004 -213.3708680641365 0.2461094223700505
    vertex -297.5000000000004 -212.62774633823904 0.1623797128095414
  endloop
endfacet
facet normal 1.0 0.0 0.0
  outer loop
    vertex -297.5000000000004 -212.49316900000076 0.7740714505582523
    vertex -297.5000000000004 -212.62774633823904 0.1623797128095414
    vertex -297.5000000000004 -211.8929596604376 0.023350572376493604
  endloop
endfacet
facet normal 1.0 0.0 0.0
  outer loop
    vertex -297.5000000000004 -212.49316900000076 0.7740714505582523
    vertex -297.5000000000004 -211.8929596604376 0.023350572376493604
    vertex -297.5000000000004 -212.49316900000076 2.524071450558249
  endloop
endfacet
facet normal 1.0 0.0 0.0
  outer loop
    vertex -297.5000000000004 -212.49316900000076 2.524071450558249
    vertex -297.5000000000004 -211.8929596604376 0.023350572376493604
    vertex -297.5000000000004 -211.9931690000007 3.024071450558248
  endloop
endfacet
facet normal 1.0 0.0 0.0
  outer loop
    vertex -297.5000000000004 -211.9931690000007 3.024071450558248
    vertex -297.5000000000004 -211.8929596604376 0.023350572376493604
    vertex -297.5000000000004 -211.1181690000007 1.2740714505582513
  endloop
endfacet
facet normal 1.0 0.0 0.0
  outer loop
    vertex -297.5000000000004 -211.1181690000007 1.2740714505582513
    vertex -297.5000000000004 -211.8929596604376 0.023350572376493604
    vertex -297.5000000000004 -211.17061725589173 -0.1702004915803405
  endloop
endfacet
facet normal 1.0 0.0 0.0
  outer loop
    vertex -297.5000000000004 -211.1181690000007 1.2740714505582513
    vertex -297.5000000000004 -211.17061725589173 -0.1702004915803405
    vertex -297.5000000000004 -211.1181690000007 -0.1885529300657094
  endloop
endfacet
facet normal 1.0 0.0 0.0
  outer loop
    vertex -297.5000000000004 -216.2431690000007 3.024071450558248
    vertex -297.5000000000004 -215.74316900000073 2.524071450558249
    vertex -297.5000000000004 -211.9931690000007 3.024071450558248
  endloop
endfacet
facet normal 1.0 0.0 0.0
  outer loop
    vertex -297.5000000000004 -215.74316900000073 2.524071450558249
    vertex -297.5000000000004 -216.2431690000007 3.024071450558248
    vertex -297.5000000000004 -215.74316900000073 0.7740714505582523
  endloop
endfacet
facet normal 1.0 0.0 0.0
  outer loop
    vertex -297.5000000000004 -211.9931690000007 3.024071450558248
    vertex -297.5000000000004 -215.74316900000073 2.524071450558249
    vertex -297.5000000000004 -212.49316900000076 2.524071450558249
  endloop
endfacet
facet normal 8.236634510315995e-20 0.991444861373775 -0.13052619222032122
  outer loop
    vertex -304.75000000000034 -208.3681690000007 -0.6326618097051425
    vertex -300.232962913145 -208.38520608685621 -0.7620713322564096
    vertex -304.76703708685585 -208.38520608685621 -0.7620713322564096
  endloop
endfacet
facet normal 8.236634510315995e-20 0.991444861373775 -0.13052619222032122
  outer loop
    vertex -300.232962913145 -208.38520608685621 -0.7620713322564096
    vertex -304.75000000000034 -208.3681690000007 -0.6326618097051425
    vertex -300.2500000000004 -208.3681690000007 -0.6326618097051425
  endloop
endfacet
facet normal 0.0 -0.13052619221998146 -0.9914448613738197
  outer loop
    vertex -299.7500000000004 -219.36816900000073 -1.1326618097051415
    vertex -305.1205904774491 -219.497578522552 -1.1156247228496843
    vertex -305.2500000000004 -219.36816900000073 -1.1326618097051415
  endloop
endfacet
facet normal 0.0 -0.13052619221998146 -0.9914448613738197
  outer loop
    vertex -305.1205904774491 -219.497578522552 -1.1156247228496843
    vertex -299.7500000000004 -219.36816900000073 -1.1326618097051415
    vertex -299.87940952255167 -219.497578522552 -1.1156247228496843
  endloop
endfacet
facet normal -9.329588491235042e-16 0.6087614290087681 -0.7933533402911987
  outer loop
    vertex -304.8964466094071 -208.51461560940749 -0.9862152002984171
    vertex -300.00000000000045 -208.61816900000073 -1.0656745115973705
    vertex -305.0000000000004 -208.61816900000073 -1.0656745115973594
  endloop
endfacet
facet normal -9.329588491235042e-16 0.6087614290087681 -0.7933533402911987
  outer loop
    vertex -300.00000000000045 -208.61816900000073 -1.0656745115973705
    vertex -304.8964466094071 -208.51461560940749 -0.9862152002984171
    vertex -300.10355339059373 -208.51461560940749 -0.9862152002984171
  endloop
endfacet
facet normal 0.0 0.13052619221998144 -0.9914448613738197
  outer loop
    vertex -299.6205904774491 -219.23875947744946 -1.1156247228496843
    vertex -305.2500000000004 -219.36816900000073 -1.1326618097051415
    vertex -305.37940952255167 -219.23875947744946 -1.1156247228496843
  endloop
endfacet
facet normal 0.0 0.13052619221998144 -0.9914448613738197
  outer loop
    vertex -305.2500000000004 -219.36816900000073 -1.1326618097051415
    vertex -299.6205904774491 -219.23875947744946 -1.1156247228496843
    vertex -299.7500000000004 -219.36816900000073 -1.1326618097051415
  endloop
endfacet
facet normal 1.3805454539545883e-19 0.9238795325113737 -0.38268343236487984
  outer loop
    vertex -304.76703708685585 -208.38520608685621 -0.7620713322564096
    vertex -300.1830127018926 -208.4351562981085 -0.8826618097051421
    vertex -304.81698729810813 -208.4351562981085 -0.8826618097051421
  endloop
endfacet
facet normal 1.3805454539545883e-19 0.9238795325113737 -0.38268343236487984
  outer loop
    vertex -300.1830127018926 -208.4351562981085 -0.8826618097051421
    vertex -304.76703708685585 -208.38520608685621 -0.7620713322564096
    vertex -300.232962913145 -208.38520608685621 -0.7620713322564096
  endloop
endfacet
facet normal 4.381933056364521e-20 0.3826834323650834 -0.9238795325112895
  outer loop
    vertex -299.5000000000004 -219.1181690000007 -1.0656745115973594
    vertex -305.37940952255167 -219.23875947744946 -1.1156247228496843
    vertex -305.50000000000034 -219.1181690000007 -1.0656745115973594
  endloop
endfacet
facet normal 4.381933056364521e-20 0.3826834323650834 -0.9238795325112895
  outer loop
    vertex -305.37940952255167 -219.23875947744946 -1.1156247228496843
    vertex -299.5000000000004 -219.1181690000007 -1.0656745115973594
    vertex -299.6205904774491 -219.23875947744946 -1.1156247228496843
  endloop
endfacet
facet normal 4.018132681720132e-19 0.7933533402910847 0.6087614290089167
  outer loop
    vertex -304.8964466094071 -208.51461560940749 -0.27910841911186784
    vertex -300.1830127018926 -208.4351562981085 -0.38266180970514296
    vertex -304.81698729810813 -208.4351562981085 -0.38266180970514296
  endloop
endfacet
facet normal 4.018132681720132e-19 0.7933533402910847 0.6087614290089167
  outer loop
    vertex -300.1830127018926 -208.4351562981085 -0.38266180970514296
    vertex -304.8964466094071 -208.51461560940749 -0.27910841911186784
    vertex -300.10355339059373 -208.51461560940749 -0.27910841911186784
  endloop
endfacet
facet normal -7.722101225204074e-20 -0.7933533402914188 -0.6087614290084816
  outer loop
    vertex -300.1830127018926 -219.80118170189292 -0.8826618097051421
    vertex -304.8964466094071 -219.72172239059404 -0.9862152002984171
    vertex -300.10355339059373 -219.72172239059404 -0.9862152002984171
  endloop
endfacet
facet normal -7.722101225204074e-20 -0.7933533402914188 -0.6087614290084816
  outer loop
    vertex -304.8964466094071 -219.72172239059404 -0.9862152002984171
    vertex -300.1830127018926 -219.80118170189292 -0.8826618097051421
    vertex -304.81698729810813 -219.80118170189292 -0.8826618097051421
  endloop
endfacet
facet normal -7.722101210677526e-20 0.7933533402910847 -0.6087614290089167
  outer loop
    vertex -304.81698729810813 -208.4351562981085 -0.8826618097051421
    vertex -300.10355339059373 -208.51461560940749 -0.9862152002984171
    vertex -304.8964466094071 -208.51461560940749 -0.9862152002984171
  endloop
endfacet
facet normal -7.722101210677526e-20 0.7933533402910847 -0.6087614290089167
  outer loop
    vertex -300.10355339059373 -208.51461560940749 -0.9862152002984171
    vertex -304.81698729810813 -208.4351562981085 -0.8826618097051421
    vertex -300.1830127018926 -208.4351562981085 -0.8826618097051421
  endloop
endfacet
facet normal -1.634671505241751e-16 -0.9914448613738638 0.13052619221964729
  outer loop
    vertex -300.232962913145 -219.85113191314528 -0.5032522871538755
    vertex -304.75000000000034 -219.8681690000007 -0.6326618097051425
    vertex -300.2500000000004 -219.8681690000007 -0.6326618097051425
  endloop
endfacet
facet normal -1.634671505241751e-16 -0.9914448613738638 0.13052619221964729
  outer loop
    vertex -304.75000000000034 -219.8681690000007 -0.6326618097051425
    vertex -300.232962913145 -219.85113191314528 -0.5032522871538755
    vertex -304.76703708685585 -219.85113191314528 -0.5032522871538868
  endloop
endfacet
facet normal -1.0 8.122631253625677e-30 -2.6509315077142824e-14
  outer loop
    vertex -307.50000000000045 -211.9931690000007 3.024071450558248
    vertex -307.50000000000045 -215.74316900000073 2.524071450558249
    vertex -307.50000000000045 -216.2431690000007 3.024071450558248
  endloop
endfacet
facet normal -1.0 8.122631253625677e-30 -2.6509315077142824e-14
  outer loop
    vertex -307.50000000000045 -215.74316900000073 2.524071450558249
    vertex -307.50000000000045 -211.9931690000007 3.024071450558248
    vertex -307.50000000000045 -212.49316900000076 2.524071450558249
  endloop
endfacet
facet normal -1.0 8.122631253625677e-30 -2.6509315077142824e-14
  outer loop
    vertex -307.50000000000045 -212.49316900000076 2.524071450558249
    vertex -307.50000000000045 -211.9931690000007 3.024071450558248
    vertex -307.50000000000034 -212.49316900000076 0.7740714505582523
  endloop
endfacet
facet normal -1.0 8.122631253625677e-30 -2.6509315077142824e-14
  outer loop
    vertex -307.50000000000045 -216.2431690000007 3.024071450558248
    vertex -307.50000000000034 -217.1181690000007 -0.1885529300657094
    vertex -307.50000000000034 -217.1181690000007 1.2740714505582513
  endloop
endfacet
facet normal -1.0 8.122631253625677e-30 -2.6509315077142824e-14
  outer loop
    vertex -307.50000000000034 -217.1181690000007 -0.1885529300657094
    vertex -307.50000000000045 -216.2431690000007 3.024071450558248
    vertex -307.50000000000034 -217.06572074410977 -0.1702004915803405
  endloop
endfacet
facet normal -1.0 8.122631253625677e-30 -2.6509315077142824e-14
  outer loop
    vertex -307.50000000000034 -217.06572074410977 -0.1702004915803405
    vertex -307.50000000000045 -216.2431690000007 3.024071450558248
    vertex -307.50000000000034 -216.34337833956388 0.023350572376493604
  endloop
endfacet
facet normal -1.0 8.122631253625677e-30 -2.6509315077142824e-14
  outer loop
    vertex -307.50000000000034 -216.34337833956388 0.023350572376493604
    vertex -307.50000000000045 -216.2431690000007 3.024071450558248
    vertex -307.50000000000034 -215.60859166176246 0.1623797128095414
  endloop
endfacet
facet normal -1.0 8.122631253625677e-30 -2.6509315077142824e-14
  outer loop
    vertex -307.50000000000034 -215.60859166176246 0.1623797128095414
    vertex -307.50000000000045 -216.2431690000007 3.024071450558248
    vertex -307.50000000000034 -215.74316900000073 0.7740714505582523
  endloop
endfacet
facet normal -1.0 8.122631253625677e-30 -2.6509315077142824e-14
  outer loop
    vertex -307.50000000000034 -215.74316900000073 0.7740714505582523
    vertex -307.50000000000045 -216.2431690000007 3.024071450558248
    vertex -307.50000000000045 -215.74316900000073 2.524071450558249
  endloop
endfacet
facet normal -1.0 8.122631253625677e-30 -2.6509315077142824e-14
  outer loop
    vertex -307.50000000000034 -215.60859166176246 0.1623797128095414
    vertex -307.50000000000034 -215.74316900000073 0.7740714505582523
    vertex -307.50000000000034 -212.49316900000076 0.7740714505582523
  endloop
endfacet
facet normal -1.0 8.122631253625677e-30 -2.6509315077142824e-14
  outer loop
    vertex -307.50000000000034 -215.60859166176246 0.1623797128095414
    vertex -307.50000000000034 -212.49316900000076 0.7740714505582523
    vertex -307.50000000000034 -214.86546993586504 0.2461094223700505
  endloop
endfacet
facet normal -1.0 8.122631253625677e-30 -2.6509315077142824e-14
  outer loop
    vertex -307.50000000000034 -214.86546993586504 0.2461094223700505
    vertex -307.50000000000034 -212.49316900000076 0.7740714505582523
    vertex -307.50000000000034 -214.11816900000076 0.27407145055825327
  endloop
endfacet
facet normal -1.0 8.122631253625677e-30 -2.6509315077142824e-14
  outer loop
    vertex -307.50000000000034 -214.11816900000076 0.27407145055825327
    vertex -307.50000000000034 -212.49316900000076 0.7740714505582523
    vertex -307.50000000000034 -213.3708680641365 0.2461094223700505
  endloop
endfacet
facet normal -1.0 8.122631253625677e-30 -2.6509315077142824e-14
  outer loop
    vertex -307.50000000000034 -213.3708680641365 0.2461094223700505
    vertex -307.50000000000034 -212.49316900000076 0.7740714505582523
    vertex -307.50000000000034 -212.62774633823904 0.1623797128095414
  endloop
endfacet
facet normal -1.0 8.122631253625677e-30 -2.6509315077142824e-14
  outer loop
    vertex -307.50000000000034 -212.62774633823904 0.1623797128095414
    vertex -307.50000000000034 -212.49316900000076 0.7740714505582523
    vertex -307.50000000000034 -211.8929596604376 0.023350572376493604
  endloop
endfacet
facet normal -1.0 8.122631253625677e-30 -2.6509315077142824e-14
  outer loop
    vertex -307.50000000000034 -211.8929596604376 0.023350572376493604
    vertex -307.50000000000034 -212.49316900000076 0.7740714505582523
    vertex -307.50000000000045 -211.9931690000007 3.024071450558248
  endloop
endfacet
facet normal -1.0 8.122631253625677e-30 -2.6509315077142824e-14
  outer loop
    vertex -307.50000000000034 -211.8929596604376 0.023350572376493604
    vertex -307.50000000000045 -211.9931690000007 3.024071450558248
    vertex -307.50000000000034 -211.1181690000007 1.2740714505582513
  endloop
endfacet
facet normal -1.0 8.122631253625677e-30 -2.6509315077142824e-14
  outer loop
    vertex -307.50000000000034 -211.8929596604376 0.023350572376493604
    vertex -307.50000000000034 -211.1181690000007 1.2740714505582513
    vertex -307.50000000000034 -211.17061725589173 -0.1702004915803405
  endloop
endfacet
facet normal -1.0 8.122631253625677e-30 -2.6509315077142824e-14
  outer loop
    vertex -307.50000000000034 -211.17061725589173 -0.1702004915803405
    vertex -307.50000000000034 -211.1181690000007 1.2740714505582513
    vertex -307.50000000000034 -211.1181690000007 -0.1885529300657094
  endloop
endfacet
facet normal -1.6792037476527284e-19 0.33027906195515483 -0.9438833303083719
  outer loop
    vertex -297.5000000000004 -217.06572074410977 -0.1702004915803405
    vertex -307.50000000000034 -217.1181690000007 -0.1885529300657094
    vertex -307.50000000000034 -217.06572074410977 -0.1702004915803405
  endloop
endfacet
facet normal -1.6792037476527284e-19 0.33027906195515483 -0.9438833303083719
  outer loop
    vertex -307.50000000000034 -217.1181690000007 -0.1885529300657094
    vertex -297.5000000000004 -217.06572074410977 -0.1702004915803405
    vertex -306.84658975633647 -217.7715792436647 -0.4171910629997058
  endloop
endfacet
facet normal -1.6792037476527284e-19 0.33027906195515483 -0.9438833303083719
  outer loop
    vertex -306.84658975633647 -217.7715792436647 -0.4171910629997058
    vertex -297.5000000000004 -217.06572074410977 -0.1702004915803405
    vertex -298.1534102436644 -217.7715792436647 -0.4171910629997058
  endloop
endfacet
facet normal -1.6792037476527284e-19 0.33027906195515483 -0.9438833303083719
  outer loop
    vertex -298.1534102436644 -217.7715792436647 -0.4171910629997058
    vertex -297.5000000000004 -217.06572074410977 -0.1702004915803405
    vertex -297.5000000000004 -217.1181690000007 -0.1885529300657094
  endloop
endfacet
facet normal 0.7071067811865476 -0.7071067811865475 -1.5690562411880048e-16
  outer loop
    vertex -300.232962913145 -219.85113191314528 -0.7620713322564096
    vertex -300.232962913145 -219.85113191314528 -0.5032522871538755
    vertex -300.2500000000004 -219.8681690000007 -0.6326618097051425
  endloop
endfacet
facet normal 0.7071067811865476 -0.7071067811865475 -1.5690562411880048e-16
  outer loop
    vertex -300.232962913145 -219.85113191314528 -0.5032522871538755
    vertex -300.232962913145 -219.85113191314528 -0.7620713322564096
    vertex -300.1830127018926 -219.80118170189292 -0.8826618097051421
  endloop
endfacet
facet normal 0.7071067811865476 -0.7071067811865475 -1.5690562411880048e-16
  outer loop
    vertex -300.232962913145 -219.85113191314528 -0.5032522871538755
    vertex -300.1830127018926 -219.80118170189292 -0.8826618097051421
    vertex -300.1830127018926 -219.80118170189292 -0.38266180970514296
  endloop
endfacet
facet normal 0.7071067811865476 -0.7071067811865475 -1.5690562411880048e-16
  outer loop
    vertex -300.1830127018926 -219.80118170189292 -0.38266180970514296
    vertex -300.1830127018926 -219.80118170189292 -0.8826618097051421
    vertex -300.10355339059373 -219.72172239059404 -0.9862152002984171
  endloop
endfacet
facet normal 0.7071067811865476 -0.7071067811865475 -1.5690562411880048e-16
  outer loop
    vertex -300.1830127018926 -219.80118170189292 -0.38266180970514296
    vertex -300.10355339059373 -219.72172239059404 -0.9862152002984171
    vertex -300.10355339059373 -219.72172239059404 -0.27910841911186784
  endloop
endfacet
facet normal 0.7071067811865476 -0.7071067811865475 -1.5690562411880048e-16
  outer loop
    vertex -300.10355339059373 -219.72172239059404 -0.27910841911186784
    vertex -300.10355339059373 -219.72172239059404 -0.9862152002984171
    vertex -300.00000000000045 -219.61816900000076 -1.0656745115973594
  endloop
endfacet
facet normal 0.7071067811865476 -0.7071067811865475 -1.5690562411880048e-16
  outer loop
    vertex -300.10355339059373 -219.72172239059404 -0.27910841911186784
    vertex -300.00000000000045 -219.61816900000076 -1.0656745115973594
    vertex -300.00000000000045 -219.61816900000076 -0.19964910781292575
  endloop
endfacet
facet normal 0.7071067811865476 -0.7071067811865475 -1.5690562411880048e-16
  outer loop
    vertex -300.00000000000045 -219.61816900000076 -0.19964910781292575
    vertex -300.00000000000045 -219.61816900000076 -1.0656745115973594
    vertex -299.87940952255167 -219.497578522552 -1.1156247228496843
  endloop
endfacet
facet normal 0.7071067811865476 -0.7071067811865475 -1.5690562411880048e-16
  outer loop
    vertex -300.00000000000045 -219.61816900000076 -0.19964910781292575
    vertex -299.87940952255167 -219.497578522552 -1.1156247228496843
    vertex -297.5000000000004 -217.1181690000007 1.2740714505582513
  endloop
endfacet
facet normal 0.7071067811865476 -0.7071067811865475 -1.5690562411880048e-16
  outer loop
    vertex -297.5000000000004 -217.1181690000007 1.2740714505582513
    vertex -299.87940952255167 -219.497578522552 -1.1156247228496843
    vertex -299.7500000000004 -219.36816900000073 -1.1326618097051415
  endloop
endfacet
facet normal 0.7071067811865476 -0.7071067811865475 -1.5690562411880048e-16
  outer loop
    vertex -297.5000000000004 -217.1181690000007 1.2740714505582513
    vertex -299.7500000000004 -219.36816900000073 -1.1326618097051415
    vertex -299.6205904774491 -219.23875947744946 -1.1156247228496843
  endloop
endfacet
facet normal 0.7071067811865476 -0.7071067811865475 -1.5690562411880048e-16
  outer loop
    vertex -297.5000000000004 -217.1181690000007 1.2740714505582513
    vertex -299.6205904774491 -219.23875947744946 -1.1156247228496843
    vertex -299.5000000000004 -219.1181690000007 -1.0656745115973594
  endloop
endfacet
facet normal 0.7071067811865476 -0.7071067811865475 -1.5690562411880048e-16
  outer loop
    vertex -297.5000000000004 -217.1181690000007 1.2740714505582513
    vertex -299.5000000000004 -219.1181690000007 -1.0656745115973594
    vertex -298.83883739117596 -218.4570063911763 -0.716239870417553
  endloop
endfacet
facet normal 0.7071067811865476 -0.7071067811865475 -1.5690562411880048e-16
  outer loop
    vertex -297.5000000000004 -217.1181690000007 1.2740714505582513
    vertex -298.83883739117596 -218.4570063911763 -0.716239870417553
    vertex -298.1534102436644 -217.7715792436647 -0.4171910629997058
  endloop
endfacet
facet normal 0.7071067811865476 -0.7071067811865475 -1.5690562411880048e-16
  outer loop
    vertex -297.5000000000004 -217.1181690000007 1.2740714505582513
    vertex -298.1534102436644 -217.7715792436647 -0.4171910629997058
    vertex -297.5000000000004 -217.1181690000007 -0.1885529300657094
  endloop
endfacet
facet normal -6.848100396030604e-30 0.8944271909999194 0.447213595499951
  outer loop
    vertex -307.50000000000045 -211.9931690000007 3.024071450558248
    vertex -297.5000000000004 -211.1181690000007 1.2740714505582513
    vertex -307.50000000000034 -211.1181690000007 1.2740714505582513
  endloop
endfacet
facet normal -6.848100396030604e-30 0.8944271909999194 0.447213595499951
  outer loop
    vertex -297.5000000000004 -211.1181690000007 1.2740714505582513
    vertex -307.50000000000045 -211.9931690000007 3.024071450558248
    vertex -297.5000000000004 -211.9931690000007 3.024071450558248
  endloop
endfacet
facet normal 0.0 -0.18591160716290708 -0.9825664732332898
  outer loop
    vertex -297.5000000000004 -211.8929596604376 0.023350572376493604
    vertex -307.50000000000034 -212.62774633823904 0.1623797128095414
    vertex -307.50000000000034 -211.8929596604376 0.023350572376493604
  endloop
endfacet
facet normal 0.0 -0.18591160716290708 -0.9825664732332898
  outer loop
    vertex -307.50000000000034 -212.62774633823904 0.1623797128095414
    vertex -297.5000000000004 -211.8929596604376 0.023350572376493604
    vertex -297.5000000000004 -212.62774633823904 0.1623797128095414
  endloop
endfacet
facet normal -1.6864445722591494e-16 0.03739119427633205 -0.9993007047883984
  outer loop
    vertex -297.5000000000004 -214.11816900000076 0.27407145055825327
    vertex -307.50000000000034 -214.86546993586504 0.2461094223700505
    vertex -307.50000000000034 -214.11816900000076 0.27407145055825327
  endloop
endfacet
facet normal -1.6864445722591494e-16 0.03739119427633205 -0.9993007047883984
  outer loop
    vertex -307.50000000000034 -214.86546993586504 0.2461094223700505
    vertex -297.5000000000004 -214.11816900000076 0.27407145055825327
    vertex -297.5000000000004 -214.86546993586492 0.2461094223700505
  endloop
endfacet
facet normal 0.0 0.0 1.0
  outer loop
    vertex -297.5000000000004 -215.74316900000073 0.7740714505582523
    vertex -307.50000000000034 -212.49316900000076 0.7740714505582523
    vertex -307.50000000000034 -215.74316900000073 0.7740714505582523
  endloop
endfacet
facet normal 0.0 0.0 1.0
  outer loop
    vertex -307.50000000000034 -212.49316900000076 0.7740714505582523
    vertex -297.5000000000004 -215.74316900000073 0.7740714505582523
    vertex -297.5000000000004 -212.49316900000076 0.7740714505582523
  endloop
endfacet
facet normal -8.385992703140047e-19 -0.330279061955172 -0.943883330308366
  outer loop
    vertex -306.84658975633647 -210.4647587563368 -0.4171910629997058
    vertex -307.50000000000034 -211.17061725589173 -0.1702004915803405
    vertex -307.50000000000034 -211.1181690000007 -0.1885529300657094
  endloop
endfacet
facet normal -8.385992703140047e-19 -0.330279061955172 -0.943883330308366
  outer loop
    vertex -307.50000000000034 -211.17061725589173 -0.1702004915803405
    vertex -306.84658975633647 -210.4647587563368 -0.4171910629997058
    vertex -297.5000000000004 -211.17061725589173 -0.1702004915803405
  endloop
endfacet
facet normal -8.385992703140047e-19 -0.330279061955172 -0.943883330308366
  outer loop
    vertex -297.5000000000004 -211.17061725589173 -0.1702004915803405
    vertex -306.84658975633647 -210.4647587563368 -0.4171910629997058
    vertex -298.1534102436644 -210.4647587563368 -0.4171910629997058
  endloop
endfacet
facet normal -8.385992703140047e-19 -0.330279061955172 -0.943883330308366
  outer loop
    vertex -297.5000000000004 -211.17061725589173 -0.1702004915803405
    vertex -298.1534102436644 -210.4647587563368 -0.4171910629997058
    vertex -297.5000000000004 -211.1181690000007 -0.1885529300657094
  endloop
endfacet
facet normal 0.0 0.0 -1.0
  outer loop
    vertex -297.5000000000004 -212.49316900000076 2.524071450558249
    vertex -307.50000000000045 -215.74316900000073 2.524071450558249
    vertex -307.50000000000045 -212.49316900000076 2.524071450558249
  endloop
endfacet
facet normal 0.0 0.0 -1.0
  outer loop
    vertex -307.50000000000045 -215.74316900000073 2.524071450558249
    vertex -297.5000000000004 -212.49316900000076 2.524071450558249
    vertex -297.5000000000004 -215.74316900000073 2.524071450558249
  endloop
endfacet
facet normal 5.909794102699782e-19 0.5078217901011557 0.8614621462945762
  outer loop
    vertex -297.5000000000004 -211.1181690000007 1.2740714505582513
    vertex -305.0000000000004 -208.61816900000073 -0.19964910781292575
    vertex -307.50000000000034 -211.1181690000007 1.2740714505582513
  endloop
endfacet
facet normal 5.909794102699782e-19 0.5078217901011557 0.8614621462945762
  outer loop
    vertex -305.0000000000004 -208.61816900000073 -0.19964910781292575
    vertex -297.5000000000004 -211.1181690000007 1.2740714505582513
    vertex -300.00000000000045 -208.61816900000073 -0.19964910781292575
  endloop
endfacet
facet normal 0.0 -1.0 0.0
  outer loop
    vertex -297.5000000000004 -212.49316900000076 2.524071450558249
    vertex -307.50000000000034 -212.49316900000076 0.7740714505582523
    vertex -297.5000000000004 -212.49316900000076 0.7740714505582523
  endloop
endfacet
facet normal 0.0 -1.0 0.0
  outer loop
    vertex -307.50000000000034 -212.49316900000076 0.7740714505582523
    vertex -297.5000000000004 -212.49316900000076 2.524071450558249
    vertex -307.50000000000045 -212.49316900000076 2.524071450558249
  endloop
endfacet
facet normal 0.0 -0.2588190451025341 -0.9659258262890649
  outer loop
    vertex -297.5000000000004 -211.17061725589173 -0.1702004915803405
    vertex -307.50000000000034 -211.8929596604376 0.023350572376493604
    vertex -307.50000000000034 -211.17061725589173 -0.1702004915803405
  endloop
endfacet
facet normal 0.0 -0.2588190451025341 -0.9659258262890649
  outer loop
    vertex -307.50000000000034 -211.8929596604376 0.023350572376493604
    vertex -297.5000000000004 -211.17061725589173 -0.1702004915803405
    vertex -297.5000000000004 -211.8929596604376 0.023350572376493604
  endloop
endfacet
facet normal 0.707106781186542 0.7071067811865531 -2.039773113544424e-15
  outer loop
    vertex -299.87940952255167 -208.7387594774495 -1.1156247228496843
    vertex -299.6205904774491 -208.99757852255195 -1.1156247228496843
    vertex -299.7500000000004 -208.86816900000076 -1.1326618097051415
  endloop
endfacet
facet normal 0.707106781186542 0.7071067811865531 -2.039773113544424e-15
  outer loop
    vertex -299.6205904774491 -208.99757852255195 -1.1156247228496843
    vertex -299.87940952255167 -208.7387594774495 -1.1156247228496843
    vertex -300.00000000000045 -208.61816900000073 -1.0656745115973705
  endloop
endfacet
facet normal 0.707106781186542 0.7071067811865531 -2.039773113544424e-15
  outer loop
    vertex -299.6205904774491 -208.99757852255195 -1.1156247228496843
    vertex -300.00000000000045 -208.61816900000073 -1.0656745115973705
    vertex -299.5000000000004 -209.1181690000007 -1.0656745115973594
  endloop
endfacet
facet normal 0.707106781186542 0.7071067811865531 -2.039773113544424e-15
  outer loop
    vertex -299.5000000000004 -209.1181690000007 -1.0656745115973594
    vertex -300.00000000000045 -208.61816900000073 -1.0656745115973705
    vertex -300.10355339059373 -208.51461560940749 -0.9862152002984171
  endloop
endfacet
facet normal 0.707106781186542 0.7071067811865531 -2.039773113544424e-15
  outer loop
    vertex -299.5000000000004 -209.1181690000007 -1.0656745115973594
    vertex -300.10355339059373 -208.51461560940749 -0.9862152002984171
    vertex -298.83883739117596 -209.77933160882512 -0.716239870417553
  endloop
endfacet
facet normal 0.707106781186542 0.7071067811865531 -2.039773113544424e-15
  outer loop
    vertex -298.83883739117596 -209.77933160882512 -0.716239870417553
    vertex -300.10355339059373 -208.51461560940749 -0.9862152002984171
    vertex -300.1830127018926 -208.4351562981085 -0.8826618097051421
  endloop
endfacet
facet normal 0.707106781186542 0.7071067811865531 -2.039773113544424e-15
  outer loop
    vertex -298.83883739117596 -209.77933160882512 -0.716239870417553
    vertex -300.1830127018926 -208.4351562981085 -0.8826618097051421
    vertex -300.232962913145 -208.38520608685621 -0.7620713322564096
  endloop
endfacet
facet normal 0.707106781186542 0.7071067811865531 -2.039773113544424e-15
  outer loop
    vertex -298.83883739117596 -209.77933160882512 -0.716239870417553
    vertex -300.232962913145 -208.38520608685621 -0.7620713322564096
    vertex -300.2500000000004 -208.3681690000007 -0.6326618097051425
  endloop
endfacet
facet normal 0.707106781186542 0.7071067811865531 -2.039773113544424e-15
  outer loop
    vertex -298.83883739117596 -209.77933160882512 -0.716239870417553
    vertex -300.2500000000004 -208.3681690000007 -0.6326618097051425
    vertex -298.1534102436644 -210.4647587563368 -0.4171910629997058
  endloop
endfacet
facet normal 0.707106781186542 0.7071067811865531 -2.039773113544424e-15
  outer loop
    vertex -298.1534102436644 -210.4647587563368 -0.4171910629997058
    vertex -300.2500000000004 -208.3681690000007 -0.6326618097051425
    vertex -300.232962913145 -208.38520608685621 -0.5032522871538868
  endloop
endfacet
facet normal 0.707106781186542 0.7071067811865531 -2.039773113544424e-15
  outer loop
    vertex -298.1534102436644 -210.4647587563368 -0.4171910629997058
    vertex -300.232962913145 -208.38520608685621 -0.5032522871538868
    vertex -300.1830127018926 -208.4351562981085 -0.38266180970514296
  endloop
endfacet
facet normal 0.707106781186542 0.7071067811865531 -2.039773113544424e-15
  outer loop
    vertex -298.1534102436644 -210.4647587563368 -0.4171910629997058
    vertex -300.1830127018926 -208.4351562981085 -0.38266180970514296
    vertex -297.5000000000004 -211.1181690000007 -0.1885529300657094
  endloop
endfacet
facet normal 0.707106781186542 0.7071067811865531 -2.039773113544424e-15
  outer loop
    vertex -297.5000000000004 -211.1181690000007 -0.1885529300657094
    vertex -300.1830127018926 -208.4351562981085 -0.38266180970514296
    vertex -300.10355339059373 -208.51461560940749 -0.27910841911186784
  endloop
endfacet
facet normal 0.707106781186542 0.7071067811865531 -2.039773113544424e-15
  outer loop
    vertex -297.5000000000004 -211.1181690000007 -0.1885529300657094
    vertex -300.10355339059373 -208.51461560940749 -0.27910841911186784
    vertex -300.00000000000045 -208.61816900000073 -0.19964910781292575
  endloop
endfacet
facet normal 0.707106781186542 0.7071067811865531 -2.039773113544424e-15
  outer loop
    vertex -297.5000000000004 -211.1181690000007 -0.1885529300657094
    vertex -300.00000000000045 -208.61816900000073 -0.19964910781292575
    vertex -297.5000000000004 -211.1181690000007 1.2740714505582513
  endloop
endfacet
facet normal 0.0 -0.11196447610330712 -0.9937122098932426
  outer loop
    vertex -297.5000000000004 -212.62774633823904 0.1623797128095414
    vertex -307.50000000000034 -213.3708680641365 0.2461094223700505
    vertex -307.50000000000034 -212.62774633823904 0.1623797128095414
  endloop
endfacet
facet normal 0.0 -0.11196447610330712 -0.9937122098932426
  outer loop
    vertex -307.50000000000034 -213.3708680641365 0.2461094223700505
    vertex -297.5000000000004 -212.62774633823904 0.1623797128095414
    vertex -297.5000000000004 -213.3708680641365 0.2461094223700505
  endloop
endfacet
facet normal 0.0 0.18591160716290708 -0.9825664732332898
  outer loop
    vertex -297.5000000000004 -215.60859166176246 0.1623797128095414
    vertex -307.50000000000034 -216.34337833956388 0.023350572376493604
    vertex -307.50000000000034 -215.60859166176246 0.1623797128095414
  endloop
endfacet
facet normal 0.0 0.18591160716290708 -0.9825664732332898
  outer loop
    vertex -307.50000000000034 -216.34337833956388 0.023350572376493604
    vertex -297.5000000000004 -215.60859166176246 0.1623797128095414
    vertex -297.5000000000004 -216.34337833956388 0.023350572376493604
  endloop
endfacet
facet normal 5.909794102370587e-19 -0.5078217901011423 0.8614621462945843
  outer loop
    vertex -305.0000000000004 -219.61816900000076 -0.19964910781292575
    vertex -297.5000000000004 -217.1181690000007 1.2740714505582513
    vertex -307.50000000000034 -217.1181690000007 1.2740714505582513
  endloop
endfacet
facet normal 5.909794102370587e-19 -0.5078217901011423 0.8614621462945843
  outer loop
    vertex -297.5000000000004 -217.1181690000007 1.2740714505582513
    vertex -305.0000000000004 -219.61816900000076 -0.19964910781292575
    vertex -300.00000000000045 -219.61816900000076 -0.19964910781292575
  endloop
endfacet
facet normal 0.0 -0.037391194276329795 -0.9993007047883984
  outer loop
    vertex -297.5000000000004 -213.3708680641365 0.2461094223700505
    vertex -307.50000000000034 -214.11816900000076 0.27407145055825327
    vertex -307.50000000000034 -213.3708680641365 0.2461094223700505
  endloop
endfacet
facet normal 0.0 -0.037391194276329795 -0.9993007047883984
  outer loop
    vertex -307.50000000000034 -214.11816900000076 0.27407145055825327
    vertex -297.5000000000004 -213.3708680641365 0.2461094223700505
    vertex -297.5000000000004 -214.11816900000076 0.27407145055825327
  endloop
endfacet
facet normal 0.0 1.0 0.0
  outer loop
    vertex -307.50000000000045 -215.74316900000073 2.524071450558249
    vertex -297.5000000000004 -215.74316900000073 0.7740714505582523
    vertex -307.50000000000034 -215.74316900000073 0.7740714505582523
  endloop
endfacet
facet normal 0.0 1.0 0.0
  outer loop
    vertex -297.5000000000004 -215.74316900000073 0.7740714505582523
    vertex -307.50000000000045 -215.74316900000073 2.524071450558249
    vertex -297.5000000000004 -215.74316900000073 2.524071450558249
  endloop
endfacet
facet normal 0.0 0.0 1.0
  outer loop
    vertex -297.5000000000004 -216.2431690000007 3.024071450558248
    vertex -307.50000000000045 -211.9931690000007 3.024071450558248
    vertex -307.50000000000045 -216.2431690000007 3.024071450558248
  endloop
endfacet
facet normal 0.0 0.0 1.0
  outer loop
    vertex -307.50000000000045 -211.9931690000007 3.024071450558248
    vertex -297.5000000000004 -216.2431690000007 3.024071450558248
    vertex -297.5000000000004 -211.9931690000007 3.024071450558248
  endloop
endfacet
facet normal 0.0 0.2588190451025341 -0.9659258262890649
  outer loop
    vertex -297.5000000000004 -216.34337833956388 0.023350572376493604
    vertex -307.50000000000034 -217.06572074410977 -0.1702004915803405
    vertex -307.50000000000034 -216.34337833956388 0.023350572376493604
  endloop
endfacet
facet normal 0.0 0.2588190451025341 -0.9659258262890649
  outer loop
    vertex -307.50000000000034 -217.06572074410977 -0.1702004915803405
    vertex -297.5000000000004 -216.34337833956388 0.023350572376493604
    vertex -297.5000000000004 -217.06572074410977 -0.1702004915803405
  endloop
endfacet
facet normal -5.053035128460792e-16 0.11196447610330042 -0.9937122098932435
  outer loop
    vertex -297.5000000000004 -214.86546993586492 0.2461094223700505
    vertex -307.50000000000034 -215.60859166176246 0.1623797128095414
    vertex -307.50000000000034 -214.86546993586504 0.2461094223700505
  endloop
endfacet
facet normal -5.053035128460792e-16 0.11196447610330042 -0.9937122098932435
  outer loop
    vertex -307.50000000000034 -215.60859166176246 0.1623797128095414
    vertex -297.5000000000004 -214.86546993586492 0.2461094223700505
    vertex -297.5000000000004 -215.60859166176246 0.1623797128095414
  endloop
endfacet
facet normal -6.848100396030604e-30 -0.8944271909999194 0.447213595499951
  outer loop
    vertex -297.5000000000004 -216.2431690000007 3.024071450558248
    vertex -307.50000000000034 -217.1181690000007 1.2740714505582513
    vertex -297.5000000000004 -217.1181690000007 1.2740714505582513
  endloop
endfacet
facet normal -6.848100396030604e-30 -0.8944271909999194 0.447213595499951
  outer loop
    vertex -307.50000000000034 -217.1181690000007 1.2740714505582513
    vertex -297.5000000000004 -216.2431690000007 3.024071450558248
    vertex -307.50000000000045 -216.2431690000007 3.024071450558248
  endloop
endfacet
endsolid ProtoGlove
