solid ProtoGlove
facet normal 1.286682061480007e-16 -0.6087614290087682 -0.7933533402911987
  outer loop
    vertex -300.00000000000017 -99.64097363239266 -1.0656745115973594
    vertex -334.89644660940695 -99.74452702298593 -0.9862152002984171
    vertex -335.00000000000017 -99.64097363239266 -1.0656745115973705
  endloop
endfacet
facet normal 1.286682061480007e-16 -0.6087614290087682 -0.7933533402911987
  outer loop
    vertex -334.89644660940695 -99.74452702298593 -0.9862152002984171
    vertex -300.00000000000017 -99.64097363239266 -1.0656745115973594
    vertex -300.10355339059345 -99.74452702298593 -0.9862152002984171
  endloop
endfacet
facet normal 6.22526526697015e-17 0.923879532511258 0.3826834323651597
  outer loop
    vertex -334.76703708685557 -88.40801071924811 -0.5032522871538755
    vertex -300.1830127018923 -88.45796093050043 -0.38266180970514296
    vertex -300.2329629131447 -88.40801071924811 -0.5032522871538868
  endloop
endfacet
facet normal 6.22526526697015e-17 0.923879532511258 0.3826834323651597
  outer loop
    vertex -300.1830127018923 -88.45796093050043 -0.38266180970514296
    vertex -334.76703708685557 -88.40801071924811 -0.5032522871538755
    vertex -334.81698729810796 -88.45796093050043 -0.38266180970514296
  endloop
endfacet
facet normal -3.945086085806605e-16 0.38268343236510766 -0.9238795325112795
  outer loop
    vertex -335.00000000000017 -88.64097363239264 -1.0656745115973594
    vertex -299.8794095225514 -88.76156410984136 -1.1156247228496843
    vertex -335.12059047744896 -88.7615641098414 -1.1156247228496843
  endloop
endfacet
facet normal -3.945086085806605e-16 0.38268343236510766 -0.9238795325112795
  outer loop
    vertex -299.8794095225514 -88.76156410984136 -1.1156247228496843
    vertex -335.00000000000017 -88.64097363239264 -1.0656745115973594
    vertex -300.00000000000017 -88.64097363239264 -1.0656745115973705
  endloop
endfacet
facet normal 0.0 0.03739119427633205 -0.9993007047883984
  outer loop
    vertex -297.5000000000001 -94.14097363239266 0.27407145055825327
    vertex -337.50000000000017 -94.88827456825688 0.2461094223700505
    vertex -337.50000000000017 -94.14097363239266 0.27407145055825327
  endloop
endfacet
facet normal 0.0 0.03739119427633205 -0.9993007047883984
  outer loop
    vertex -337.50000000000017 -94.88827456825688 0.2461094223700505
    vertex -297.5000000000001 -94.14097363239266 0.27407145055825327
    vertex -297.5000000000001 -94.88827456825688 0.2461094223700505
  endloop
endfacet
facet normal 8.919619423199826e-19 -0.5078217901011507 0.8614621462945793
  outer loop
    vertex -335.00000000000017 -99.64097363239266 -0.19964910781292575
    vertex -297.5000000000001 -97.14097363239266 1.2740714505582513
    vertex -337.50000000000017 -97.14097363239266 1.2740714505582513
  endloop
endfacet
facet normal 8.919619423199826e-19 -0.5078217901011507 0.8614621462945793
  outer loop
    vertex -297.5000000000001 -97.14097363239266 1.2740714505582513
    vertex -335.00000000000017 -99.64097363239266 -0.19964910781292575
    vertex -300.00000000000017 -99.64097363239266 -0.19964910781292575
  endloop
endfacet
facet normal -6.246557328216612e-20 0.7933533402912517 0.6087614290086991
  outer loop
    vertex -334.89644660940695 -88.53742024179938 -0.27910841911186784
    vertex -300.1830127018923 -88.45796093050043 -0.38266180970514296
    vertex -334.81698729810796 -88.45796093050043 -0.38266180970514296
  endloop
endfacet
facet normal -6.246557328216612e-20 0.7933533402912517 0.6087614290086991
  outer loop
    vertex -300.1830127018923 -88.45796093050043 -0.38266180970514296
    vertex -334.89644660940695 -88.53742024179938 -0.27910841911186784
    vertex -300.10355339059345 -88.53742024179938 -0.27910841911186784
  endloop
endfacet
facet normal 3.21272073483136e-21 -0.13052619221998146 -0.9914448613738197
  outer loop
    vertex -335.2500000000001 -88.89097363239263 -1.1326618097051415
    vertex -299.6205904774489 -89.0203831549439 -1.1156247228496843
    vertex -335.3794095225515 -89.0203831549439 -1.1156247228496843
  endloop
endfacet
facet normal 3.21272073483136e-21 -0.13052619221998146 -0.9914448613738197
  outer loop
    vertex -299.6205904774489 -89.0203831549439 -1.1156247228496843
    vertex -335.2500000000001 -88.89097363239263 -1.1326618097051415
    vertex -299.7500000000001 -88.89097363239263 -1.1326618097051415
  endloop
endfacet
facet normal -0.7071067811865442 0.7071067811865508 8.94362057477167e-15
  outer loop
    vertex -335.3794095225515 -89.0203831549439 -1.1156247228496843
    vertex -335.12059047744896 -88.7615641098414 -1.1156247228496843
    vertex -335.2500000000001 -88.89097363239263 -1.1326618097051415
  endloop
endfacet
facet normal -0.7071067811865442 0.7071067811865508 8.94362057477167e-15
  outer loop
    vertex -335.12059047744896 -88.7615641098414 -1.1156247228496843
    vertex -335.3794095225515 -89.0203831549439 -1.1156247228496843
    vertex -335.50000000000006 -89.14097363239266 -1.0656745115973594
  endloop
endfacet
facet normal -0.7071067811865442 0.7071067811865508 8.94362057477167e-15
  outer loop
    vertex -335.12059047744896 -88.7615641098414 -1.1156247228496843
    vertex -335.50000000000006 -89.14097363239266 -1.0656745115973594
    vertex -335.00000000000017 -88.64097363239264 -1.0656745115973594
  endloop
endfacet
facet normal -0.7071067811865442 0.7071067811865508 8.94362057477167e-15
  outer loop
    vertex -335.00000000000017 -88.64097363239264 -1.0656745115973594
    vertex -335.50000000000006 -89.14097363239266 -1.0656745115973594
    vertex -336.1611626088246 -89.80213624121707 -0.716239870417553
  endloop
endfacet
facet normal -0.7071067811865442 0.7071067811865508 8.94362057477167e-15
  outer loop
    vertex -335.00000000000017 -88.64097363239264 -1.0656745115973594
    vertex -336.1611626088246 -89.80213624121707 -0.716239870417553
    vertex -334.89644660940695 -88.53742024179938 -0.9862152002984171
  endloop
endfacet
facet normal -0.7071067811865442 0.7071067811865508 8.94362057477167e-15
  outer loop
    vertex -334.89644660940695 -88.53742024179938 -0.9862152002984171
    vertex -336.1611626088246 -89.80213624121707 -0.716239870417553
    vertex -334.81698729810796 -88.45796093050043 -0.8826618097051421
  endloop
endfacet
facet normal -0.7071067811865442 0.7071067811865508 8.94362057477167e-15
  outer loop
    vertex -334.81698729810796 -88.45796093050043 -0.8826618097051421
    vertex -336.1611626088246 -89.80213624121707 -0.716239870417553
    vertex -334.76703708685557 -88.40801071924811 -0.7620713322564096
  endloop
endfacet
facet normal -0.7071067811865442 0.7071067811865508 8.94362057477167e-15
  outer loop
    vertex -334.76703708685557 -88.40801071924811 -0.7620713322564096
    vertex -336.1611626088246 -89.80213624121707 -0.716239870417553
    vertex -334.75000000000006 -88.39097363239264 -0.6326618097051425
  endloop
endfacet
facet normal -0.7071067811865442 0.7071067811865508 8.94362057477167e-15
  outer loop
    vertex -334.75000000000006 -88.39097363239264 -0.6326618097051425
    vertex -336.1611626088246 -89.80213624121707 -0.716239870417553
    vertex -336.84658975633624 -90.4875633887287 -0.4171910629997058
  endloop
endfacet
facet normal -0.7071067811865442 0.7071067811865508 8.94362057477167e-15
  outer loop
    vertex -334.75000000000006 -88.39097363239264 -0.6326618097051425
    vertex -336.84658975633624 -90.4875633887287 -0.4171910629997058
    vertex -334.76703708685557 -88.40801071924811 -0.5032522871538755
  endloop
endfacet
facet normal -0.7071067811865442 0.7071067811865508 8.94362057477167e-15
  outer loop
    vertex -334.76703708685557 -88.40801071924811 -0.5032522871538755
    vertex -336.84658975633624 -90.4875633887287 -0.4171910629997058
    vertex -334.81698729810796 -88.45796093050043 -0.38266180970514296
  endloop
endfacet
facet normal -0.7071067811865442 0.7071067811865508 8.94362057477167e-15
  outer loop
    vertex -334.81698729810796 -88.45796093050043 -0.38266180970514296
    vertex -336.84658975633624 -90.4875633887287 -0.4171910629997058
    vertex -337.50000000000017 -91.14097363239266 -0.1885529300657094
  endloop
endfacet
facet normal -0.7071067811865442 0.7071067811865508 8.94362057477167e-15
  outer loop
    vertex -334.81698729810796 -88.45796093050043 -0.38266180970514296
    vertex -337.50000000000017 -91.14097363239266 -0.1885529300657094
    vertex -334.89644660940695 -88.53742024179938 -0.27910841911186784
  endloop
endfacet
facet normal -0.7071067811865442 0.7071067811865508 8.94362057477167e-15
  outer loop
    vertex -334.89644660940695 -88.53742024179938 -0.27910841911186784
    vertex -337.50000000000017 -91.14097363239266 -0.1885529300657094
    vertex -335.00000000000017 -88.64097363239264 -0.19964910781292575
  endloop
endfacet
facet normal -0.7071067811865442 0.7071067811865508 8.94362057477167e-15
  outer loop
    vertex -335.00000000000017 -88.64097363239264 -0.19964910781292575
    vertex -337.50000000000017 -91.14097363239266 -0.1885529300657094
    vertex -337.50000000000017 -91.14097363239266 1.2740714505582513
  endloop
endfacet
facet normal 0.0 0.1119644761032937 -0.9937122098932442
  outer loop
    vertex -297.5000000000001 -94.88827456825688 0.2461094223700505
    vertex -337.50000000000017 -95.63139629415441 0.1623797128095414
    vertex -337.50000000000017 -94.88827456825688 0.2461094223700505
  endloop
endfacet
facet normal 0.0 0.1119644761032937 -0.9937122098932442
  outer loop
    vertex -337.50000000000017 -95.63139629415441 0.1623797128095414
    vertex -297.5000000000001 -94.88827456825688 0.2461094223700505
    vertex -297.5000000000001 -95.63139629415441 0.1623797128095414
  endloop
endfacet
facet normal -2.1205774141031584e-20 0.6087614290087408 0.7933533402912197
  outer loop
    vertex -300.00000000000017 -88.64097363239264 -0.19964910781292575
    vertex -334.89644660940695 -88.53742024179938 -0.27910841911186784
    vertex -335.00000000000017 -88.64097363239264 -0.19964910781292575
  endloop
endfacet
facet normal -2.1205774141031584e-20 0.6087614290087408 0.7933533402912197
  outer loop
    vertex -334.89644660940695 -88.53742024179938 -0.27910841911186784
    vertex -300.00000000000017 -88.64097363239264 -0.19964910781292575
    vertex -300.10355339059345 -88.53742024179938 -0.27910841911186784
  endloop
endfacet
facet normal 3.945086085806605e-16 -0.38268343236510766 -0.9238795325112795
  outer loop
    vertex -299.8794095225514 -99.5203831549439 -1.1156247228496843
    vertex -335.00000000000017 -99.64097363239266 -1.0656745115973705
    vertex -335.12059047744896 -99.52038315494394 -1.1156247228496843
  endloop
endfacet
facet normal 3.945086085806605e-16 -0.38268343236510766 -0.9238795325112795
  outer loop
    vertex -335.00000000000017 -99.64097363239266 -1.0656745115973705
    vertex -299.8794095225514 -99.5203831549439 -1.1156247228496843
    vertex -300.00000000000017 -99.64097363239266 -1.0656745115973594
  endloop
endfacet
facet normal 0.0 0.18591160716291807 -0.9825664732332877
  outer loop
    vertex -297.5000000000001 -95.63139629415441 0.1623797128095414
    vertex -337.50000000000017 -96.3661829719558 0.023350572376493604
    vertex -337.50000000000017 -95.63139629415441 0.1623797128095414
  endloop
endfacet
facet normal 0.0 0.18591160716291807 -0.9825664732332877
  outer loop
    vertex -337.50000000000017 -96.3661829719558 0.023350572376493604
    vertex -297.5000000000001 -95.63139629415441 0.1623797128095414
    vertex -297.5000000000001 -96.3661829719558 0.023350572376493604
  endloop
endfacet
facet normal -8.294219502103992e-17 0.13052619222000383 -0.9914448613738168
  outer loop
    vertex -335.12059047744896 -88.7615641098414 -1.1156247228496843
    vertex -299.7500000000001 -88.89097363239263 -1.1326618097051415
    vertex -335.2500000000001 -88.89097363239263 -1.1326618097051415
  endloop
endfacet
facet normal -8.294219502103992e-17 0.13052619222000383 -0.9914448613738168
  outer loop
    vertex -299.7500000000001 -88.89097363239263 -1.1326618097051415
    vertex -335.12059047744896 -88.7615641098414 -1.1156247228496843
    vertex -299.8794095225514 -88.76156410984136 -1.1156247228496843
  endloop
endfacet
facet normal 0.0 -0.18591160716291807 -0.9825664732332877
  outer loop
    vertex -297.5000000000001 -91.91576429282951 0.023350572376493604
    vertex -337.50000000000017 -92.65055097063089 0.1623797128095414
    vertex -337.50000000000017 -91.91576429282951 0.023350572376493604
  endloop
endfacet
facet normal 0.0 -0.18591160716291807 -0.9825664732332877
  outer loop
    vertex -337.50000000000017 -92.65055097063089 0.1623797128095414
    vertex -297.5000000000001 -91.91576429282951 0.023350572376493604
    vertex -297.5000000000001 -92.65055097063089 0.1623797128095414
  endloop
endfacet
facet normal 0.0 -0.1119644761032937 -0.9937122098932442
  outer loop
    vertex -297.5000000000001 -92.65055097063089 0.1623797128095414
    vertex -337.50000000000017 -93.39367269652843 0.2461094223700505
    vertex -337.50000000000017 -92.65055097063089 0.1623797128095414
  endloop
endfacet
facet normal 0.0 -0.1119644761032937 -0.9937122098932442
  outer loop
    vertex -337.50000000000017 -93.39367269652843 0.2461094223700505
    vertex -297.5000000000001 -92.65055097063089 0.1623797128095414
    vertex -297.5000000000001 -93.39367269652843 0.2461094223700505
  endloop
endfacet
facet normal -6.246557328216612e-20 0.7933533402912517 -0.6087614290086991
  outer loop
    vertex -334.81698729810796 -88.45796093050043 -0.8826618097051421
    vertex -300.10355339059345 -88.53742024179938 -0.9862152002984171
    vertex -334.89644660940695 -88.53742024179938 -0.9862152002984171
  endloop
endfacet
facet normal -6.246557328216612e-20 0.7933533402912517 -0.6087614290086991
  outer loop
    vertex -300.10355339059345 -88.53742024179938 -0.9862152002984171
    vertex -334.81698729810796 -88.45796093050043 -0.8826618097051421
    vertex -300.1830127018923 -88.45796093050043 -0.8826618097051421
  endloop
endfacet
facet normal -7.257526442401851e-20 -0.38268343236508334 -0.9238795325112895
  outer loop
    vertex -335.3794095225515 -89.0203831549439 -1.1156247228496843
    vertex -299.5000000000001 -89.14097363239266 -1.0656745115973594
    vertex -335.50000000000006 -89.14097363239266 -1.0656745115973594
  endloop
endfacet
facet normal -7.257526442401851e-20 -0.38268343236508334 -0.9238795325112895
  outer loop
    vertex -299.5000000000001 -89.14097363239266 -1.0656745115973594
    vertex -335.3794095225515 -89.0203831549439 -1.1156247228496843
    vertex -299.6205904774489 -89.0203831549439 -1.1156247228496843
  endloop
endfacet
facet normal 8.294871483971617e-17 -0.13052619222000383 -0.9914448613738168
  outer loop
    vertex -299.7500000000001 -99.39097363239267 -1.1326618097051415
    vertex -335.12059047744896 -99.52038315494394 -1.1156247228496843
    vertex -335.2500000000001 -99.39097363239267 -1.1326618097051415
  endloop
endfacet
facet normal 8.294871483971617e-17 -0.13052619222000383 -0.9914448613738168
  outer loop
    vertex -335.12059047744896 -99.52038315494394 -1.1156247228496843
    vertex -299.7500000000001 -99.39097363239267 -1.1326618097051415
    vertex -299.8794095225514 -99.5203831549439 -1.1156247228496843
  endloop
endfacet
facet normal 3.3867902611649855e-19 -0.33027906195517415 -0.9438833303083652
  outer loop
    vertex -336.84658975633624 -90.4875633887287 -0.4171910629997058
    vertex -337.50000000000017 -91.1934218882836 -0.1702004915803405
    vertex -337.50000000000017 -91.14097363239266 -0.1885529300657094
  endloop
endfacet
facet normal 3.3867902611649855e-19 -0.33027906195517415 -0.9438833303083652
  outer loop
    vertex -337.50000000000017 -91.1934218882836 -0.1702004915803405
    vertex -336.84658975633624 -90.4875633887287 -0.4171910629997058
    vertex -297.5000000000001 -91.1934218882836 -0.1702004915803405
  endloop
endfacet
facet normal 3.3867902611649855e-19 -0.33027906195517415 -0.9438833303083652
  outer loop
    vertex -297.5000000000001 -91.1934218882836 -0.1702004915803405
    vertex -336.84658975633624 -90.4875633887287 -0.4171910629997058
    vertex -298.1534102436641 -90.4875633887287 -0.4171910629997058
  endloop
endfacet
facet normal 3.3867902611649855e-19 -0.33027906195517415 -0.9438833303083652
  outer loop
    vertex -297.5000000000001 -91.1934218882836 -0.1702004915803405
    vertex -298.1534102436641 -90.4875633887287 -0.4171910629997058
    vertex -297.5000000000001 -91.14097363239266 -0.1885529300657094
  endloop
endfacet
facet normal -6.22526526697015e-17 -0.923879532511258 0.3826834323651597
  outer loop
    vertex -300.2329629131447 -99.87393654553719 -0.5032522871538755
    vertex -334.81698729810796 -99.82398633428487 -0.38266180970514296
    vertex -334.76703708685557 -99.87393654553719 -0.5032522871538868
  endloop
endfacet
facet normal -6.22526526697015e-17 -0.923879532511258 0.3826834323651597
  outer loop
    vertex -334.81698729810796 -99.82398633428487 -0.38266180970514296
    vertex -300.2329629131447 -99.87393654553719 -0.5032522871538755
    vertex -300.1830127018923 -99.82398633428487 -0.38266180970514296
  endloop
endfacet
facet normal 0.0 0.258819045102519 -0.965925826289069
  outer loop
    vertex -297.5000000000001 -96.3661829719558 0.023350572376493604
    vertex -337.50000000000017 -97.08852537650172 -0.1702004915803405
    vertex -337.50000000000017 -96.3661829719558 0.023350572376493604
  endloop
endfacet
facet normal 0.0 0.258819045102519 -0.965925826289069
  outer loop
    vertex -337.50000000000017 -97.08852537650172 -0.1702004915803405
    vertex -297.5000000000001 -96.3661829719558 0.023350572376493604
    vertex -297.5000000000001 -97.08852537650172 -0.1702004915803405
  endloop
endfacet
facet normal -3.583820069150546e-19 0.3302790619551715 -0.9438833303083662
  outer loop
    vertex -297.5000000000001 -97.08852537650172 -0.1702004915803405
    vertex -337.50000000000017 -97.14097363239266 -0.1885529300657094
    vertex -337.50000000000017 -97.08852537650172 -0.1702004915803405
  endloop
endfacet
facet normal -3.583820069150546e-19 0.3302790619551715 -0.9438833303083662
  outer loop
    vertex -337.50000000000017 -97.14097363239266 -0.1885529300657094
    vertex -297.5000000000001 -97.08852537650172 -0.1702004915803405
    vertex -336.84658975633624 -97.79438387605661 -0.4171910629997058
  endloop
endfacet
facet normal -3.583820069150546e-19 0.3302790619551715 -0.9438833303083662
  outer loop
    vertex -336.84658975633624 -97.79438387605661 -0.4171910629997058
    vertex -297.5000000000001 -97.08852537650172 -0.1702004915803405
    vertex -298.1534102436641 -97.79438387605661 -0.4171910629997058
  endloop
endfacet
facet normal -3.583820069150546e-19 0.3302790619551715 -0.9438833303083662
  outer loop
    vertex -298.1534102436641 -97.79438387605661 -0.4171910629997058
    vertex -297.5000000000001 -97.08852537650172 -0.1702004915803405
    vertex -297.5000000000001 -97.14097363239266 -0.1885529300657094
  endloop
endfacet
facet normal 1.0 0.0 0.0
  outer loop
    vertex -297.5000000000001 -97.08852537650172 -0.1702004915803405
    vertex -297.5000000000001 -97.14097363239266 1.2740714505582513
    vertex -297.5000000000001 -97.14097363239266 -0.1885529300657094
  endloop
endfacet
facet normal 1.0 0.0 0.0
  outer loop
    vertex -297.5000000000001 -97.14097363239266 1.2740714505582513
    vertex -297.5000000000001 -97.08852537650172 -0.1702004915803405
    vertex -297.5000000000001 -96.26597363239266 3.024071450558248
  endloop
endfacet
facet normal 1.0 0.0 0.0
  outer loop
    vertex -297.5000000000001 -96.26597363239266 3.024071450558248
    vertex -297.5000000000001 -97.08852537650172 -0.1702004915803405
    vertex -297.5000000000001 -96.3661829719558 0.023350572376493604
  endloop
endfacet
facet normal 1.0 0.0 0.0
  outer loop
    vertex -297.5000000000001 -96.26597363239266 3.024071450558248
    vertex -297.5000000000001 -96.3661829719558 0.023350572376493604
    vertex -297.5000000000001 -95.63139629415441 0.1623797128095414
  endloop
endfacet
facet normal 1.0 0.0 0.0
  outer loop
    vertex -297.5000000000001 -96.26597363239266 3.024071450558248
    vertex -297.5000000000001 -95.63139629415441 0.1623797128095414
    vertex -297.5000000000001 -95.76597363239264 0.7740714505582523
  endloop
endfacet
facet normal 1.0 0.0 0.0
  outer loop
    vertex -297.5000000000001 -95.76597363239264 0.7740714505582523
    vertex -297.5000000000001 -95.63139629415441 0.1623797128095414
    vertex -297.5000000000001 -92.51597363239266 0.7740714505582523
  endloop
endfacet
facet normal 1.0 0.0 0.0
  outer loop
    vertex -297.5000000000001 -92.51597363239266 0.7740714505582523
    vertex -297.5000000000001 -95.63139629415441 0.1623797128095414
    vertex -297.5000000000001 -94.88827456825688 0.2461094223700505
  endloop
endfacet
facet normal 1.0 0.0 0.0
  outer loop
    vertex -297.5000000000001 -92.51597363239266 0.7740714505582523
    vertex -297.5000000000001 -94.88827456825688 0.2461094223700505
    vertex -297.5000000000001 -94.14097363239266 0.27407145055825327
  endloop
endfacet
facet normal 1.0 0.0 0.0
  outer loop
    vertex -297.5000000000001 -92.51597363239266 0.7740714505582523
    vertex -297.5000000000001 -94.14097363239266 0.27407145055825327
    vertex -297.5000000000001 -93.39367269652843 0.2461094223700505
  endloop
endfacet
facet normal 1.0 0.0 0.0
  outer loop
    vertex -297.5000000000001 -92.51597363239266 0.7740714505582523
    vertex -297.5000000000001 -93.39367269652843 0.2461094223700505
    vertex -297.5000000000001 -92.65055097063089 0.1623797128095414
  endloop
endfacet
facet normal 1.0 0.0 0.0
  outer loop
    vertex -297.5000000000001 -92.51597363239266 0.7740714505582523
    vertex -297.5000000000001 -92.65055097063089 0.1623797128095414
    vertex -297.5000000000001 -91.91576429282951 0.023350572376493604
  endloop
endfacet
facet normal 1.0 0.0 0.0
  outer loop
    vertex -297.5000000000001 -92.51597363239266 0.7740714505582523
    vertex -297.5000000000001 -91.91576429282951 0.023350572376493604
    vertex -297.5000000000001 -92.51597363239266 2.524071450558249
  endloop
endfacet
facet normal 1.0 0.0 0.0
  outer loop
    vertex -297.5000000000001 -92.51597363239266 2.524071450558249
    vertex -297.5000000000001 -91.91576429282951 0.023350572376493604
    vertex -297.5000000000001 -92.01597363239264 3.024071450558248
  endloop
endfacet
facet normal 1.0 0.0 0.0
  outer loop
    vertex -297.5000000000001 -92.01597363239264 3.024071450558248
    vertex -297.5000000000001 -91.91576429282951 0.023350572376493604
    vertex -297.5000000000001 -91.14097363239266 1.2740714505582513
  endloop
endfacet
facet normal 1.0 0.0 0.0
  outer loop
    vertex -297.5000000000001 -91.14097363239266 1.2740714505582513
    vertex -297.5000000000001 -91.91576429282951 0.023350572376493604
    vertex -297.5000000000001 -91.1934218882836 -0.1702004915803405
  endloop
endfacet
facet normal 1.0 0.0 0.0
  outer loop
    vertex -297.5000000000001 -91.14097363239266 1.2740714505582513
    vertex -297.5000000000001 -91.1934218882836 -0.1702004915803405
    vertex -297.5000000000001 -91.14097363239266 -0.1885529300657094
  endloop
endfacet
facet normal 1.0 0.0 0.0
  outer loop
    vertex -297.5000000000001 -96.26597363239266 3.024071450558248
    vertex -297.5000000000001 -95.76597363239264 2.524071450558249
    vertex -297.5000000000001 -92.01597363239264 3.024071450558248
  endloop
endfacet
facet normal 1.0 0.0 0.0
  outer loop
    vertex -297.5000000000001 -95.76597363239264 2.524071450558249
    vertex -297.5000000000001 -96.26597363239266 3.024071450558248
    vertex -297.5000000000001 -95.76597363239264 0.7740714505582523
  endloop
endfacet
facet normal 1.0 0.0 0.0
  outer loop
    vertex -297.5000000000001 -92.01597363239264 3.024071450558248
    vertex -297.5000000000001 -95.76597363239264 2.524071450558249
    vertex -297.5000000000001 -92.51597363239266 2.524071450558249
  endloop
endfacet
facet normal 0.0 -0.258819045102519 -0.965925826289069
  outer loop
    vertex -297.5000000000001 -91.1934218882836 -0.1702004915803405
    vertex -337.50000000000017 -91.91576429282951 0.023350572376493604
    vertex -337.50000000000017 -91.1934218882836 -0.1702004915803405
  endloop
endfacet
facet normal 0.0 -0.258819045102519 -0.965925826289069
  outer loop
    vertex -337.50000000000017 -91.91576429282951 0.023350572376493604
    vertex -297.5000000000001 -91.1934218882836 -0.1702004915803405
    vertex -297.5000000000001 -91.91576429282951 0.023350572376493604
  endloop
endfacet
facet normal -1.190315975390926e-20 -0.9914448613738197 -0.13052619221998146
  outer loop
    vertex -300.2500000000001 -99.89097363239266 -0.6326618097051425
    vertex -334.76703708685557 -99.87393654553719 -0.7620713322564096
    vertex -300.2329629131447 -99.87393654553719 -0.7620713322564096
  endloop
endfacet
facet normal -1.190315975390926e-20 -0.9914448613738197 -0.13052619221998146
  outer loop
    vertex -334.76703708685557 -99.87393654553719 -0.7620713322564096
    vertex -300.2500000000001 -99.89097363239266 -0.6326618097051425
    vertex -334.75000000000006 -99.89097363239266 -0.6326618097051425
  endloop
endfacet
facet normal -1.9031781445621797e-19 0.467268628273073 -0.8841153935046042
  outer loop
    vertex -298.8388373911757 -98.47981102356825 -0.716239870417553
    vertex -335.50000000000006 -99.14097363239264 -1.0656745115973594
    vertex -336.1611626088246 -98.47981102356825 -0.716239870417553
  endloop
endfacet
facet normal -1.9031781445621797e-19 0.467268628273073 -0.8841153935046042
  outer loop
    vertex -335.50000000000006 -99.14097363239264 -1.0656745115973594
    vertex -298.8388373911757 -98.47981102356825 -0.716239870417553
    vertex -299.5000000000001 -99.14097363239264 -1.0656745115973594
  endloop
endfacet
facet normal 5.403076155394782e-20 -0.9238795325112517 -0.382683432365175
  outer loop
    vertex -300.2329629131447 -99.87393654553719 -0.7620713322564096
    vertex -334.81698729810796 -99.82398633428487 -0.8826618097051421
    vertex -300.1830127018923 -99.82398633428487 -0.8826618097051421
  endloop
endfacet
facet normal 5.403076155394782e-20 -0.9238795325112517 -0.382683432365175
  outer loop
    vertex -334.81698729810796 -99.82398633428487 -0.8826618097051421
    vertex -300.2329629131447 -99.87393654553719 -0.7620713322564096
    vertex -334.76703708685557 -99.87393654553719 -0.7620713322564096
  endloop
endfacet
facet normal -1.286682061480007e-16 0.6087614290087682 -0.7933533402911987
  outer loop
    vertex -334.89644660940695 -88.53742024179938 -0.9862152002984171
    vertex -300.00000000000017 -88.64097363239264 -1.0656745115973705
    vertex -335.00000000000017 -88.64097363239264 -1.0656745115973594
  endloop
endfacet
facet normal -1.286682061480007e-16 0.6087614290087682 -0.7933533402911987
  outer loop
    vertex -300.00000000000017 -88.64097363239264 -1.0656745115973705
    vertex -334.89644660940695 -88.53742024179938 -0.9862152002984171
    vertex -300.10355339059345 -88.53742024179938 -0.9862152002984171
  endloop
endfacet
facet normal -2.1330831836121253e-17 -0.991444861373819 0.13052619221998704
  outer loop
    vertex -300.2329629131447 -99.87393654553719 -0.5032522871538755
    vertex -334.75000000000006 -99.89097363239266 -0.6326618097051425
    vertex -300.2500000000001 -99.89097363239266 -0.6326618097051425
  endloop
endfacet
facet normal -2.1330831836121253e-17 -0.991444861373819 0.13052619221998704
  outer loop
    vertex -334.75000000000006 -99.89097363239266 -0.6326618097051425
    vertex -300.2329629131447 -99.87393654553719 -0.5032522871538755
    vertex -334.76703708685557 -99.87393654553719 -0.5032522871538868
  endloop
endfacet
facet normal -5.403076155394782e-20 0.9238795325112517 -0.382683432365175
  outer loop
    vertex -334.76703708685557 -88.40801071924811 -0.7620713322564096
    vertex -300.1830127018923 -88.45796093050043 -0.8826618097051421
    vertex -334.81698729810796 -88.45796093050043 -0.8826618097051421
  endloop
endfacet
facet normal -5.403076155394782e-20 0.9238795325112517 -0.382683432365175
  outer loop
    vertex -300.1830127018923 -88.45796093050043 -0.8826618097051421
    vertex -334.76703708685557 -88.40801071924811 -0.7620713322564096
    vertex -300.2329629131447 -88.40801071924811 -0.7620713322564096
  endloop
endfacet
facet normal -0.7071067811865422 -0.7071067811865529 1.2238638681266534e-14
  outer loop
    vertex -335.12059047744896 -99.52038315494394 -1.1156247228496843
    vertex -335.3794095225515 -99.26156410984142 -1.1156247228496843
    vertex -335.2500000000001 -99.39097363239267 -1.1326618097051415
  endloop
endfacet
facet normal -0.7071067811865422 -0.7071067811865529 1.2238638681266534e-14
  outer loop
    vertex -335.3794095225515 -99.26156410984142 -1.1156247228496843
    vertex -335.12059047744896 -99.52038315494394 -1.1156247228496843
    vertex -335.00000000000017 -99.64097363239266 -1.0656745115973705
  endloop
endfacet
facet normal -0.7071067811865422 -0.7071067811865529 1.2238638681266534e-14
  outer loop
    vertex -335.3794095225515 -99.26156410984142 -1.1156247228496843
    vertex -335.00000000000017 -99.64097363239266 -1.0656745115973705
    vertex -335.50000000000006 -99.14097363239264 -1.0656745115973594
  endloop
endfacet
facet normal -0.7071067811865422 -0.7071067811865529 1.2238638681266534e-14
  outer loop
    vertex -335.50000000000006 -99.14097363239264 -1.0656745115973594
    vertex -335.00000000000017 -99.64097363239266 -1.0656745115973705
    vertex -334.89644660940695 -99.74452702298593 -0.9862152002984171
  endloop
endfacet
facet normal -0.7071067811865422 -0.7071067811865529 1.2238638681266534e-14
  outer loop
    vertex -335.50000000000006 -99.14097363239264 -1.0656745115973594
    vertex -334.89644660940695 -99.74452702298593 -0.9862152002984171
    vertex -336.1611626088246 -98.47981102356825 -0.716239870417553
  endloop
endfacet
facet normal -0.7071067811865422 -0.7071067811865529 1.2238638681266534e-14
  outer loop
    vertex -336.1611626088246 -98.47981102356825 -0.716239870417553
    vertex -334.89644660940695 -99.74452702298593 -0.9862152002984171
    vertex -334.81698729810796 -99.82398633428487 -0.8826618097051421
  endloop
endfacet
facet normal -0.7071067811865422 -0.7071067811865529 1.2238638681266534e-14
  outer loop
    vertex -336.1611626088246 -98.47981102356825 -0.716239870417553
    vertex -334.81698729810796 -99.82398633428487 -0.8826618097051421
    vertex -334.76703708685557 -99.87393654553719 -0.7620713322564096
  endloop
endfacet
facet normal -0.7071067811865422 -0.7071067811865529 1.2238638681266534e-14
  outer loop
    vertex -336.1611626088246 -98.47981102356825 -0.716239870417553
    vertex -334.76703708685557 -99.87393654553719 -0.7620713322564096
    vertex -334.75000000000006 -99.89097363239266 -0.6326618097051425
  endloop
endfacet
facet normal -0.7071067811865422 -0.7071067811865529 1.2238638681266534e-14
  outer loop
    vertex -336.1611626088246 -98.47981102356825 -0.716239870417553
    vertex -334.75000000000006 -99.89097363239266 -0.6326618097051425
    vertex -336.84658975633624 -97.79438387605661 -0.4171910629997058
  endloop
endfacet
facet normal -0.7071067811865422 -0.7071067811865529 1.2238638681266534e-14
  outer loop
    vertex -336.84658975633624 -97.79438387605661 -0.4171910629997058
    vertex -334.75000000000006 -99.89097363239266 -0.6326618097051425
    vertex -334.76703708685557 -99.87393654553719 -0.5032522871538868
  endloop
endfacet
facet normal -0.7071067811865422 -0.7071067811865529 1.2238638681266534e-14
  outer loop
    vertex -336.84658975633624 -97.79438387605661 -0.4171910629997058
    vertex -334.76703708685557 -99.87393654553719 -0.5032522871538868
    vertex -334.81698729810796 -99.82398633428487 -0.38266180970514296
  endloop
endfacet
facet normal -0.7071067811865422 -0.7071067811865529 1.2238638681266534e-14
  outer loop
    vertex -336.84658975633624 -97.79438387605661 -0.4171910629997058
    vertex -334.81698729810796 -99.82398633428487 -0.38266180970514296
    vertex -337.50000000000017 -97.14097363239266 -0.1885529300657094
  endloop
endfacet
facet normal -0.7071067811865422 -0.7071067811865529 1.2238638681266534e-14
  outer loop
    vertex -337.50000000000017 -97.14097363239266 -0.1885529300657094
    vertex -334.81698729810796 -99.82398633428487 -0.38266180970514296
    vertex -334.89644660940695 -99.74452702298593 -0.27910841911186784
  endloop
endfacet
facet normal -0.7071067811865422 -0.7071067811865529 1.2238638681266534e-14
  outer loop
    vertex -337.50000000000017 -97.14097363239266 -0.1885529300657094
    vertex -334.89644660940695 -99.74452702298593 -0.27910841911186784
    vertex -335.00000000000017 -99.64097363239266 -0.19964910781292575
  endloop
endfacet
facet normal -0.7071067811865422 -0.7071067811865529 1.2238638681266534e-14
  outer loop
    vertex -337.50000000000017 -97.14097363239266 -0.1885529300657094
    vertex -335.00000000000017 -99.64097363239266 -0.19964910781292575
    vertex -337.50000000000017 -97.14097363239266 1.2740714505582513
  endloop
endfacet
facet normal 0.7071067811865439 0.7071067811865511 6.7469418371084615e-15
  outer loop
    vertex -299.8794095225514 -88.76156410984136 -1.1156247228496843
    vertex -299.6205904774489 -89.0203831549439 -1.1156247228496843
    vertex -299.7500000000001 -88.89097363239263 -1.1326618097051415
  endloop
endfacet
facet normal 0.7071067811865439 0.7071067811865511 6.7469418371084615e-15
  outer loop
    vertex -299.6205904774489 -89.0203831549439 -1.1156247228496843
    vertex -299.8794095225514 -88.76156410984136 -1.1156247228496843
    vertex -300.00000000000017 -88.64097363239264 -1.0656745115973705
  endloop
endfacet
facet normal 0.7071067811865439 0.7071067811865511 6.7469418371084615e-15
  outer loop
    vertex -299.6205904774489 -89.0203831549439 -1.1156247228496843
    vertex -300.00000000000017 -88.64097363239264 -1.0656745115973705
    vertex -299.5000000000001 -89.14097363239266 -1.0656745115973594
  endloop
endfacet
facet normal 0.7071067811865439 0.7071067811865511 6.7469418371084615e-15
  outer loop
    vertex -299.5000000000001 -89.14097363239266 -1.0656745115973594
    vertex -300.00000000000017 -88.64097363239264 -1.0656745115973705
    vertex -300.10355339059345 -88.53742024179938 -0.9862152002984171
  endloop
endfacet
facet normal 0.7071067811865439 0.7071067811865511 6.7469418371084615e-15
  outer loop
    vertex -299.5000000000001 -89.14097363239266 -1.0656745115973594
    vertex -300.10355339059345 -88.53742024179938 -0.9862152002984171
    vertex -298.8388373911757 -89.80213624121707 -0.716239870417553
  endloop
endfacet
facet normal 0.7071067811865439 0.7071067811865511 6.7469418371084615e-15
  outer loop
    vertex -298.8388373911757 -89.80213624121707 -0.716239870417553
    vertex -300.10355339059345 -88.53742024179938 -0.9862152002984171
    vertex -300.1830127018923 -88.45796093050043 -0.8826618097051421
  endloop
endfacet
facet normal 0.7071067811865439 0.7071067811865511 6.7469418371084615e-15
  outer loop
    vertex -298.8388373911757 -89.80213624121707 -0.716239870417553
    vertex -300.1830127018923 -88.45796093050043 -0.8826618097051421
    vertex -300.2329629131447 -88.40801071924811 -0.7620713322564096
  endloop
endfacet
facet normal 0.7071067811865439 0.7071067811865511 6.7469418371084615e-15
  outer loop
    vertex -298.8388373911757 -89.80213624121707 -0.716239870417553
    vertex -300.2329629131447 -88.40801071924811 -0.7620713322564096
    vertex -300.2500000000001 -88.39097363239264 -0.6326618097051425
  endloop
endfacet
facet normal 0.7071067811865439 0.7071067811865511 6.7469418371084615e-15
  outer loop
    vertex -298.8388373911757 -89.80213624121707 -0.716239870417553
    vertex -300.2500000000001 -88.39097363239264 -0.6326618097051425
    vertex -298.1534102436641 -90.4875633887287 -0.4171910629997058
  endloop
endfacet
facet normal 0.7071067811865439 0.7071067811865511 6.7469418371084615e-15
  outer loop
    vertex -298.1534102436641 -90.4875633887287 -0.4171910629997058
    vertex -300.2500000000001 -88.39097363239264 -0.6326618097051425
    vertex -300.2329629131447 -88.40801071924811 -0.5032522871538868
  endloop
endfacet
facet normal 0.7071067811865439 0.7071067811865511 6.7469418371084615e-15
  outer loop
    vertex -298.1534102436641 -90.4875633887287 -0.4171910629997058
    vertex -300.2329629131447 -88.40801071924811 -0.5032522871538868
    vertex -300.1830127018923 -88.45796093050043 -0.38266180970514296
  endloop
endfacet
facet normal 0.7071067811865439 0.7071067811865511 6.7469418371084615e-15
  outer loop
    vertex -298.1534102436641 -90.4875633887287 -0.4171910629997058
    vertex -300.1830127018923 -88.45796093050043 -0.38266180970514296
    vertex -297.5000000000001 -91.14097363239266 -0.1885529300657094
  endloop
endfacet
facet normal 0.7071067811865439 0.7071067811865511 6.7469418371084615e-15
  outer loop
    vertex -297.5000000000001 -91.14097363239266 -0.1885529300657094
    vertex -300.1830127018923 -88.45796093050043 -0.38266180970514296
    vertex -300.10355339059345 -88.53742024179938 -0.27910841911186784
  endloop
endfacet
facet normal 0.7071067811865439 0.7071067811865511 6.7469418371084615e-15
  outer loop
    vertex -297.5000000000001 -91.14097363239266 -0.1885529300657094
    vertex -300.10355339059345 -88.53742024179938 -0.27910841911186784
    vertex -300.00000000000017 -88.64097363239264 -0.19964910781292575
  endloop
endfacet
facet normal 0.7071067811865439 0.7071067811865511 6.7469418371084615e-15
  outer loop
    vertex -297.5000000000001 -91.14097363239266 -0.1885529300657094
    vertex -300.00000000000017 -88.64097363239264 -0.19964910781292575
    vertex -297.5000000000001 -91.14097363239266 1.2740714505582513
  endloop
endfacet
facet normal 0.0 -0.03739119427633205 -0.9993007047883984
  outer loop
    vertex -297.5000000000001 -93.39367269652843 0.2461094223700505
    vertex -337.50000000000017 -94.14097363239266 0.27407145055825327
    vertex -337.50000000000017 -93.39367269652843 0.2461094223700505
  endloop
endfacet
facet normal 0.0 -0.03739119427633205 -0.9993007047883984
  outer loop
    vertex -337.50000000000017 -94.14097363239266 0.27407145055825327
    vertex -297.5000000000001 -93.39367269652843 0.2461094223700505
    vertex -297.5000000000001 -94.14097363239266 0.27407145055825327
  endloop
endfacet
facet normal 8.919619423198037e-19 0.507821790101149 0.8614621462945803
  outer loop
    vertex -297.5000000000001 -91.14097363239266 1.2740714505582513
    vertex -335.00000000000017 -88.64097363239264 -0.19964910781292575
    vertex -337.50000000000017 -91.14097363239266 1.2740714505582513
  endloop
endfacet
facet normal 8.919619423198037e-19 0.507821790101149 0.8614621462945803
  outer loop
    vertex -335.00000000000017 -88.64097363239264 -0.19964910781292575
    vertex -297.5000000000001 -91.14097363239266 1.2740714505582513
    vertex -300.00000000000017 -88.64097363239264 -0.19964910781292575
  endloop
endfacet
facet normal -6.246557328216612e-20 -0.7933533402912517 -0.6087614290086991
  outer loop
    vertex -300.1830127018923 -99.82398633428487 -0.8826618097051421
    vertex -334.89644660940695 -99.74452702298593 -0.9862152002984171
    vertex -300.10355339059345 -99.74452702298593 -0.9862152002984171
  endloop
endfacet
facet normal -6.246557328216612e-20 -0.7933533402912517 -0.6087614290086991
  outer loop
    vertex -334.89644660940695 -99.74452702298593 -0.9862152002984171
    vertex -300.1830127018923 -99.82398633428487 -0.8826618097051421
    vertex -334.81698729810796 -99.82398633428487 -0.8826618097051421
  endloop
endfacet
facet normal 1.0597642056168774e-20 0.38268343236508334 -0.9238795325112895
  outer loop
    vertex -299.5000000000001 -99.14097363239264 -1.0656745115973594
    vertex -335.3794095225515 -99.26156410984142 -1.1156247228496843
    vertex -335.50000000000006 -99.14097363239264 -1.0656745115973594
  endloop
endfacet
facet normal 1.0597642056168774e-20 0.38268343236508334 -0.9238795325112895
  outer loop
    vertex -335.3794095225515 -99.26156410984142 -1.1156247228496843
    vertex -299.5000000000001 -99.14097363239264 -1.0656745115973594
    vertex -299.6205904774489 -99.26156410984142 -1.1156247228496843
  endloop
endfacet
facet normal -6.246557328216612e-20 -0.7933533402912517 0.608761429008699
  outer loop
    vertex -300.10355339059345 -99.74452702298593 -0.27910841911186784
    vertex -334.81698729810796 -99.82398633428487 -0.38266180970514296
    vertex -300.1830127018923 -99.82398633428487 -0.38266180970514296
  endloop
endfacet
facet normal -6.246557328216612e-20 -0.7933533402912517 0.608761429008699
  outer loop
    vertex -334.81698729810796 -99.82398633428487 -0.38266180970514296
    vertex -300.10355339059345 -99.74452702298593 -0.27910841911186784
    vertex -334.89644660940695 -99.74452702298593 -0.27910841911186784
  endloop
endfacet
facet normal 1.8749505488889415e-20 0.9914448613738197 -0.13052619221998146
  outer loop
    vertex -334.75000000000006 -88.39097363239264 -0.6326618097051425
    vertex -300.2329629131447 -88.40801071924811 -0.7620713322564096
    vertex -334.76703708685557 -88.40801071924811 -0.7620713322564096
  endloop
endfacet
facet normal 1.8749505488889415e-20 0.9914448613738197 -0.13052619221998146
  outer loop
    vertex -300.2329629131447 -88.40801071924811 -0.7620713322564096
    vertex -334.75000000000006 -88.39097363239264 -0.6326618097051425
    vertex -300.2500000000001 -88.39097363239264 -0.6326618097051425
  endloop
endfacet
facet normal 3.21272073483136e-21 0.13052619221998146 -0.9914448613738197
  outer loop
    vertex -299.6205904774489 -99.26156410984142 -1.1156247228496843
    vertex -335.2500000000001 -99.39097363239267 -1.1326618097051415
    vertex -335.3794095225515 -99.26156410984142 -1.1156247228496843
  endloop
endfacet
facet normal 3.21272073483136e-21 0.13052619221998146 -0.9914448613738197
  outer loop
    vertex -335.2500000000001 -99.39097363239267 -1.1326618097051415
    vertex -299.6205904774489 -99.26156410984142 -1.1156247228496843
    vertex -299.7500000000001 -99.39097363239267 -1.1326618097051415
  endloop
endfacet
facet normal 2.1337678181856288e-17 0.991444861373819 0.13052619221998704
  outer loop
    vertex -334.76703708685557 -88.40801071924811 -0.5032522871538755
    vertex -300.2500000000001 -88.39097363239264 -0.6326618097051425
    vertex -334.75000000000006 -88.39097363239264 -0.6326618097051425
  endloop
endfacet
facet normal 2.1337678181856288e-17 0.991444861373819 0.13052619221998704
  outer loop
    vertex -300.2500000000001 -88.39097363239264 -0.6326618097051425
    vertex -334.76703708685557 -88.40801071924811 -0.5032522871538755
    vertex -300.2329629131447 -88.40801071924811 -0.5032522871538868
  endloop
endfacet
facet normal -2.0140557463170386e-19 0.3998920243197358 -0.9165622558699786
  outer loop
    vertex -298.1534102436641 -97.79438387605661 -0.4171910629997058
    vertex -336.1611626088246 -98.47981102356825 -0.716239870417553
    vertex -336.84658975633624 -97.79438387605661 -0.4171910629997058
  endloop
endfacet
facet normal -2.0140557463170386e-19 0.3998920243197358 -0.9165622558699786
  outer loop
    vertex -336.1611626088246 -98.47981102356825 -0.716239870417553
    vertex -298.1534102436641 -97.79438387605661 -0.4171910629997058
    vertex -298.8388373911757 -98.47981102356825 -0.716239870417553
  endloop
endfacet
facet normal -1.9031781445638738e-19 -0.4672686282730668 -0.8841153935046073
  outer loop
    vertex -335.50000000000006 -89.14097363239266 -1.0656745115973594
    vertex -298.8388373911757 -89.80213624121707 -0.716239870417553
    vertex -336.1611626088246 -89.80213624121707 -0.716239870417553
  endloop
endfacet
facet normal -1.9031781445638738e-19 -0.4672686282730668 -0.8841153935046073
  outer loop
    vertex -298.8388373911757 -89.80213624121707 -0.716239870417553
    vertex -335.50000000000006 -89.14097363239266 -1.0656745115973594
    vertex -299.5000000000001 -89.14097363239266 -1.0656745115973594
  endloop
endfacet
facet normal -2.1205774141031584e-20 -0.6087614290087408 0.7933533402912197
  outer loop
    vertex -334.89644660940695 -99.74452702298593 -0.27910841911186784
    vertex -300.00000000000017 -99.64097363239266 -0.19964910781292575
    vertex -335.00000000000017 -99.64097363239266 -0.19964910781292575
  endloop
endfacet
facet normal -2.1205774141031584e-20 -0.6087614290087408 0.7933533402912197
  outer loop
    vertex -300.00000000000017 -99.64097363239266 -0.19964910781292575
    vertex -334.89644660940695 -99.74452702298593 -0.27910841911186784
    vertex -300.10355339059345 -99.74452702298593 -0.27910841911186784
  endloop
endfacet
facet normal 0.7071067811865426 -0.7071067811865526 2.9812068582572303e-15
  outer loop
    vertex -299.6205904774489 -99.26156410984142 -1.1156247228496843
    vertex -299.8794095225514 -99.5203831549439 -1.1156247228496843
    vertex -299.7500000000001 -99.39097363239267 -1.1326618097051415
  endloop
endfacet
facet normal 0.7071067811865426 -0.7071067811865526 2.9812068582572303e-15
  outer loop
    vertex -299.8794095225514 -99.5203831549439 -1.1156247228496843
    vertex -299.6205904774489 -99.26156410984142 -1.1156247228496843
    vertex -299.5000000000001 -99.14097363239264 -1.0656745115973594
  endloop
endfacet
facet normal 0.7071067811865426 -0.7071067811865526 2.9812068582572303e-15
  outer loop
    vertex -299.8794095225514 -99.5203831549439 -1.1156247228496843
    vertex -299.5000000000001 -99.14097363239264 -1.0656745115973594
    vertex -300.00000000000017 -99.64097363239266 -1.0656745115973594
  endloop
endfacet
facet normal 0.7071067811865426 -0.7071067811865526 2.9812068582572303e-15
  outer loop
    vertex -300.00000000000017 -99.64097363239266 -1.0656745115973594
    vertex -299.5000000000001 -99.14097363239264 -1.0656745115973594
    vertex -298.8388373911757 -98.47981102356825 -0.716239870417553
  endloop
endfacet
facet normal 0.7071067811865426 -0.7071067811865526 2.9812068582572303e-15
  outer loop
    vertex -300.00000000000017 -99.64097363239266 -1.0656745115973594
    vertex -298.8388373911757 -98.47981102356825 -0.716239870417553
    vertex -300.10355339059345 -99.74452702298593 -0.9862152002984171
  endloop
endfacet
facet normal 0.7071067811865426 -0.7071067811865526 2.9812068582572303e-15
  outer loop
    vertex -300.10355339059345 -99.74452702298593 -0.9862152002984171
    vertex -298.8388373911757 -98.47981102356825 -0.716239870417553
    vertex -300.1830127018923 -99.82398633428487 -0.8826618097051421
  endloop
endfacet
facet normal 0.7071067811865426 -0.7071067811865526 2.9812068582572303e-15
  outer loop
    vertex -300.1830127018923 -99.82398633428487 -0.8826618097051421
    vertex -298.8388373911757 -98.47981102356825 -0.716239870417553
    vertex -300.2329629131447 -99.87393654553719 -0.7620713322564096
  endloop
endfacet
facet normal 0.7071067811865426 -0.7071067811865526 2.9812068582572303e-15
  outer loop
    vertex -300.2329629131447 -99.87393654553719 -0.7620713322564096
    vertex -298.8388373911757 -98.47981102356825 -0.716239870417553
    vertex -300.2500000000001 -99.89097363239266 -0.6326618097051425
  endloop
endfacet
facet normal 0.7071067811865426 -0.7071067811865526 2.9812068582572303e-15
  outer loop
    vertex -300.2500000000001 -99.89097363239266 -0.6326618097051425
    vertex -298.8388373911757 -98.47981102356825 -0.716239870417553
    vertex -298.1534102436641 -97.79438387605661 -0.4171910629997058
  endloop
endfacet
facet normal 0.7071067811865426 -0.7071067811865526 2.9812068582572303e-15
  outer loop
    vertex -300.2500000000001 -99.89097363239266 -0.6326618097051425
    vertex -298.1534102436641 -97.79438387605661 -0.4171910629997058
    vertex -300.2329629131447 -99.87393654553719 -0.5032522871538755
  endloop
endfacet
facet normal 0.7071067811865426 -0.7071067811865526 2.9812068582572303e-15
  outer loop
    vertex -300.2329629131447 -99.87393654553719 -0.5032522871538755
    vertex -298.1534102436641 -97.79438387605661 -0.4171910629997058
    vertex -300.1830127018923 -99.82398633428487 -0.38266180970514296
  endloop
endfacet
facet normal 0.7071067811865426 -0.7071067811865526 2.9812068582572303e-15
  outer loop
    vertex -300.1830127018923 -99.82398633428487 -0.38266180970514296
    vertex -298.1534102436641 -97.79438387605661 -0.4171910629997058
    vertex -297.5000000000001 -97.14097363239266 -0.1885529300657094
  endloop
endfacet
facet normal 0.7071067811865426 -0.7071067811865526 2.9812068582572303e-15
  outer loop
    vertex -300.1830127018923 -99.82398633428487 -0.38266180970514296
    vertex -297.5000000000001 -97.14097363239266 -0.1885529300657094
    vertex -300.10355339059345 -99.74452702298593 -0.27910841911186784
  endloop
endfacet
facet normal 0.7071067811865426 -0.7071067811865526 2.9812068582572303e-15
  outer loop
    vertex -300.10355339059345 -99.74452702298593 -0.27910841911186784
    vertex -297.5000000000001 -97.14097363239266 -0.1885529300657094
    vertex -300.00000000000017 -99.64097363239266 -0.19964910781292575
  endloop
endfacet
facet normal 0.7071067811865426 -0.7071067811865526 2.9812068582572303e-15
  outer loop
    vertex -300.00000000000017 -99.64097363239266 -0.19964910781292575
    vertex -297.5000000000001 -97.14097363239266 -0.1885529300657094
    vertex -297.5000000000001 -97.14097363239266 1.2740714505582513
  endloop
endfacet
facet normal -2.0140557463170386e-19 -0.3998920243197358 -0.9165622558699786
  outer loop
    vertex -336.1611626088246 -89.80213624121707 -0.716239870417553
    vertex -298.1534102436641 -90.4875633887287 -0.4171910629997058
    vertex -336.84658975633624 -90.4875633887287 -0.4171910629997058
  endloop
endfacet
facet normal -2.0140557463170386e-19 -0.3998920243197358 -0.9165622558699786
  outer loop
    vertex -298.1534102436641 -90.4875633887287 -0.4171910629997058
    vertex -336.1611626088246 -89.80213624121707 -0.716239870417553
    vertex -298.8388373911757 -89.80213624121707 -0.716239870417553
  endloop
endfacet
facet normal -1.0 1.5589202113857442e-47 -1.4462247633568523e-30
  outer loop
    vertex -337.50000000000017 -92.01597363239264 3.024071450558248
    vertex -337.50000000000017 -95.76597363239264 2.524071450558249
    vertex -337.50000000000017 -96.26597363239266 3.024071450558248
  endloop
endfacet
facet normal -1.0 1.5589202113857442e-47 -1.4462247633568523e-30
  outer loop
    vertex -337.50000000000017 -95.76597363239264 2.524071450558249
    vertex -337.50000000000017 -92.01597363239264 3.024071450558248
    vertex -337.50000000000017 -92.51597363239266 2.524071450558249
  endloop
endfacet
facet normal -1.0 1.5589202113857442e-47 -1.4462247633568523e-30
  outer loop
    vertex -337.50000000000017 -92.51597363239266 2.524071450558249
    vertex -337.50000000000017 -92.01597363239264 3.024071450558248
    vertex -337.50000000000017 -92.51597363239266 0.7740714505582523
  endloop
endfacet
facet normal -1.0 1.5589202113857442e-47 -1.4462247633568523e-30
  outer loop
    vertex -337.50000000000017 -96.26597363239266 3.024071450558248
    vertex -337.50000000000017 -97.14097363239266 -0.1885529300657094
    vertex -337.50000000000017 -97.14097363239266 1.2740714505582513
  endloop
endfacet
facet normal -1.0 1.5589202113857442e-47 -1.4462247633568523e-30
  outer loop
    vertex -337.50000000000017 -97.14097363239266 -0.1885529300657094
    vertex -337.50000000000017 -96.26597363239266 3.024071450558248
    vertex -337.50000000000017 -97.08852537650172 -0.1702004915803405
  endloop
endfacet
facet normal -1.0 1.5589202113857442e-47 -1.4462247633568523e-30
  outer loop
    vertex -337.50000000000017 -97.08852537650172 -0.1702004915803405
    vertex -337.50000000000017 -96.26597363239266 3.024071450558248
    vertex -337.50000000000017 -96.3661829719558 0.023350572376493604
  endloop
endfacet
facet normal -1.0 1.5589202113857442e-47 -1.4462247633568523e-30
  outer loop
    vertex -337.50000000000017 -96.3661829719558 0.023350572376493604
    vertex -337.50000000000017 -96.26597363239266 3.024071450558248
    vertex -337.50000000000017 -95.63139629415441 0.1623797128095414
  endloop
endfacet
facet normal -1.0 1.5589202113857442e-47 -1.4462247633568523e-30
  outer loop
    vertex -337.50000000000017 -95.63139629415441 0.1623797128095414
    vertex -337.50000000000017 -96.26597363239266 3.024071450558248
    vertex -337.50000000000017 -95.76597363239264 0.7740714505582523
  endloop
endfacet
facet normal -1.0 1.5589202113857442e-47 -1.4462247633568523e-30
  outer loop
    vertex -337.50000000000017 -95.76597363239264 0.7740714505582523
    vertex -337.50000000000017 -96.26597363239266 3.024071450558248
    vertex -337.50000000000017 -95.76597363239264 2.524071450558249
  endloop
endfacet
facet normal -1.0 1.5589202113857442e-47 -1.4462247633568523e-30
  outer loop
    vertex -337.50000000000017 -95.63139629415441 0.1623797128095414
    vertex -337.50000000000017 -95.76597363239264 0.7740714505582523
    vertex -337.50000000000017 -92.51597363239266 0.7740714505582523
  endloop
endfacet
facet normal -1.0 1.5589202113857442e-47 -1.4462247633568523e-30
  outer loop
    vertex -337.50000000000017 -95.63139629415441 0.1623797128095414
    vertex -337.50000000000017 -92.51597363239266 0.7740714505582523
    vertex -337.50000000000017 -94.88827456825688 0.2461094223700505
  endloop
endfacet
facet normal -1.0 1.5589202113857442e-47 -1.4462247633568523e-30
  outer loop
    vertex -337.50000000000017 -94.88827456825688 0.2461094223700505
    vertex -337.50000000000017 -92.51597363239266 0.7740714505582523
    vertex -337.50000000000017 -94.14097363239266 0.27407145055825327
  endloop
endfacet
facet normal -1.0 1.5589202113857442e-47 -1.4462247633568523e-30
  outer loop
    vertex -337.50000000000017 -94.14097363239266 0.27407145055825327
    vertex -337.50000000000017 -92.51597363239266 0.7740714505582523
    vertex -337.50000000000017 -93.39367269652843 0.2461094223700505
  endloop
endfacet
facet normal -1.0 1.5589202113857442e-47 -1.4462247633568523e-30
  outer loop
    vertex -337.50000000000017 -93.39367269652843 0.2461094223700505
    vertex -337.50000000000017 -92.51597363239266 0.7740714505582523
    vertex -337.50000000000017 -92.65055097063089 0.1623797128095414
  endloop
endfacet
facet normal -1.0 1.5589202113857442e-47 -1.4462247633568523e-30
  outer loop
    vertex -337.50000000000017 -92.65055097063089 0.1623797128095414
    vertex -337.50000000000017 -92.51597363239266 0.7740714505582523
    vertex -337.50000000000017 -91.91576429282951 0.023350572376493604
  endloop
endfacet
facet normal -1.0 1.5589202113857442e-47 -1.4462247633568523e-30
  outer loop
    vertex -337.50000000000017 -91.91576429282951 0.023350572376493604
    vertex -337.50000000000017 -92.51597363239266 0.7740714505582523
    vertex -337.50000000000017 -92.01597363239264 3.024071450558248
  endloop
endfacet
facet normal -1.0 1.5589202113857442e-47 -1.4462247633568523e-30
  outer loop
    vertex -337.50000000000017 -91.91576429282951 0.023350572376493604
    vertex -337.50000000000017 -92.01597363239264 3.024071450558248
    vertex -337.50000000000017 -91.14097363239266 1.2740714505582513
  endloop
endfacet
facet normal -1.0 1.5589202113857442e-47 -1.4462247633568523e-30
  outer loop
    vertex -337.50000000000017 -91.91576429282951 0.023350572376493604
    vertex -337.50000000000017 -91.14097363239266 1.2740714505582513
    vertex -337.50000000000017 -91.1934218882836 -0.1702004915803405
  endloop
endfacet
facet normal -1.0 1.5589202113857442e-47 -1.4462247633568523e-30
  outer loop
    vertex -337.50000000000017 -91.1934218882836 -0.1702004915803405
    vertex -337.50000000000017 -91.14097363239266 1.2740714505582513
    vertex -337.50000000000017 -91.14097363239266 -0.1885529300657094
  endloop
endfacet
facet normal 6.256373962147406e-19 -0.8944271909999171 0.44721359549995565
  outer loop
    vertex -297.5000000000001 -96.26597363239266 3.024071450558248
    vertex -337.50000000000017 -97.14097363239266 1.2740714505582513
    vertex -297.5000000000001 -97.14097363239266 1.2740714505582513
  endloop
endfacet
facet normal 6.256373962147406e-19 -0.8944271909999171 0.44721359549995565
  outer loop
    vertex -337.50000000000017 -97.14097363239266 1.2740714505582513
    vertex -297.5000000000001 -96.26597363239266 3.024071450558248
    vertex -337.50000000000017 -96.26597363239266 3.024071450558248
  endloop
endfacet
facet normal 0.0 0.0 -1.0
  outer loop
    vertex -297.5000000000001 -92.51597363239266 2.524071450558249
    vertex -337.50000000000017 -95.76597363239264 2.524071450558249
    vertex -337.50000000000017 -92.51597363239266 2.524071450558249
  endloop
endfacet
facet normal 0.0 0.0 -1.0
  outer loop
    vertex -337.50000000000017 -95.76597363239264 2.524071450558249
    vertex -297.5000000000001 -92.51597363239266 2.524071450558249
    vertex -297.5000000000001 -95.76597363239264 2.524071450558249
  endloop
endfacet
facet normal 0.0 0.8944271909999194 0.447213595499951
  outer loop
    vertex -337.50000000000017 -92.01597363239264 3.024071450558248
    vertex -297.5000000000001 -91.14097363239266 1.2740714505582513
    vertex -337.50000000000017 -91.14097363239266 1.2740714505582513
  endloop
endfacet
facet normal 0.0 0.8944271909999194 0.447213595499951
  outer loop
    vertex -297.5000000000001 -91.14097363239266 1.2740714505582513
    vertex -337.50000000000017 -92.01597363239264 3.024071450558248
    vertex -297.5000000000001 -92.01597363239264 3.024071450558248
  endloop
endfacet
facet normal 0.0 1.0 0.0
  outer loop
    vertex -337.50000000000017 -95.76597363239264 2.524071450558249
    vertex -297.5000000000001 -95.76597363239264 0.7740714505582523
    vertex -337.50000000000017 -95.76597363239264 0.7740714505582523
  endloop
endfacet
facet normal 0.0 1.0 0.0
  outer loop
    vertex -297.5000000000001 -95.76597363239264 0.7740714505582523
    vertex -337.50000000000017 -95.76597363239264 2.524071450558249
    vertex -297.5000000000001 -95.76597363239264 2.524071450558249
  endloop
endfacet
facet normal 0.0 -1.0 0.0
  outer loop
    vertex -297.5000000000001 -92.51597363239266 2.524071450558249
    vertex -337.50000000000017 -92.51597363239266 0.7740714505582523
    vertex -297.5000000000001 -92.51597363239266 0.7740714505582523
  endloop
endfacet
facet normal 0.0 -1.0 0.0
  outer loop
    vertex -337.50000000000017 -92.51597363239266 0.7740714505582523
    vertex -297.5000000000001 -92.51597363239266 2.524071450558249
    vertex -337.50000000000017 -92.51597363239266 2.524071450558249
  endloop
endfacet
facet normal 0.0 0.0 1.0
  outer loop
    vertex -297.5000000000001 -96.26597363239266 3.024071450558248
    vertex -337.50000000000017 -92.01597363239264 3.024071450558248
    vertex -337.50000000000017 -96.26597363239266 3.024071450558248
  endloop
endfacet
facet normal 0.0 0.0 1.0
  outer loop
    vertex -337.50000000000017 -92.01597363239264 3.024071450558248
    vertex -297.5000000000001 -96.26597363239266 3.024071450558248
    vertex -297.5000000000001 -92.01597363239264 3.024071450558248
  endloop
endfacet
facet normal 0.0 0.0 1.0
  outer loop
    vertex -297.5000000000001 -95.76597363239264 0.7740714505582523
    vertex -337.50000000000017 -92.51597363239266 0.7740714505582523
    vertex -337.50000000000017 -95.76597363239264 0.7740714505582523
  endloop
endfacet
facet normal 0.0 0.0 1.0
  outer loop
    vertex -337.50000000000017 -92.51597363239266 0.7740714505582523
    vertex -297.5000000000001 -95.76597363239264 0.7740714505582523
    vertex -297.5000000000001 -92.51597363239266 0.7740714505582523
  endloop
endfacet
endsolid ProtoGlove
