solid ProtoGlove
facet normal 3.025240159395189e-16 -0.6087614290087681 -0.7933533402911987
  outer loop
    vertex -300.00000000000045 -179.6181690000005 -1.0656745115973594
    vertex -314.8964466094072 -179.72172239059378 -0.9862152002984171
    vertex -315.0000000000004 -179.6181690000005 -1.0656745115973705
  endloop
endfacet
facet normal 3.025240159395189e-16 -0.6087614290087681 -0.7933533402911987
  outer loop
    vertex -314.8964466094072 -179.72172239059378 -0.9862152002984171
    vertex -300.00000000000045 -179.6181690000005 -1.0656745115973594
    vertex -300.10355339059373 -179.72172239059378 -0.9862152002984171
  endloop
endfacet
facet normal 3.1691784143858057e-19 -0.6087614290087409 0.7933533402912196
  outer loop
    vertex -314.8964466094072 -179.72172239059378 -0.27910841911186784
    vertex -300.00000000000045 -179.6181690000005 -0.19964910781292575
    vertex -315.0000000000004 -179.6181690000005 -0.19964910781292575
  endloop
endfacet
facet normal 3.1691784143858057e-19 -0.6087614290087409 0.7933533402912196
  outer loop
    vertex -300.00000000000045 -179.6181690000005 -0.19964910781292575
    vertex -314.8964466094072 -179.72172239059378 -0.27910841911186784
    vertex -300.10355339059373 -179.72172239059378 -0.27910841911186784
  endloop
endfacet
facet normal -2.0139393852792207e-20 0.4672686282730668 -0.8841153935046073
  outer loop
    vertex -298.83883739117596 -178.4570063911761 -0.716239870417553
    vertex -315.50000000000045 -179.1181690000005 -1.0656745115973594
    vertex -316.1611626088248 -178.4570063911761 -0.716239870417553
  endloop
endfacet
facet normal -2.0139393852792207e-20 0.4672686282730668 -0.8841153935046073
  outer loop
    vertex -315.50000000000045 -179.1181690000005 -1.0656745115973594
    vertex -298.83883739117596 -178.4570063911761 -0.716239870417553
    vertex -299.5000000000004 -179.1181690000005 -1.0656745115973594
  endloop
endfacet
facet normal 7.278708223081217e-16 0.5078217901011524 0.8614621462945782
  outer loop
    vertex -297.5000000000004 -171.1181690000005 1.2740714505582513
    vertex -315.0000000000004 -168.6181690000005 -0.19964910781292575
    vertex -317.5000000000004 -171.11816900000048 1.2740714505582513
  endloop
endfacet
facet normal 7.278708223081217e-16 0.5078217901011524 0.8614621462945782
  outer loop
    vertex -315.0000000000004 -168.6181690000005 -0.19964910781292575
    vertex -297.5000000000004 -171.1181690000005 1.2740714505582513
    vertex -300.00000000000045 -168.6181690000005 -0.19964910781292575
  endloop
endfacet
facet normal 2.3970425226419798e-20 0.9914448613738182 0.1305261922199926
  outer loop
    vertex -314.7670370868558 -168.38520608685596 -0.5032522871538868
    vertex -300.2500000000004 -168.3681690000005 -0.6326618097051425
    vertex -314.75000000000045 -168.3681690000005 -0.6326618097051425
  endloop
endfacet
facet normal 2.3970425226419798e-20 0.9914448613738182 0.1305261922199926
  outer loop
    vertex -300.2500000000004 -168.3681690000005 -0.6326618097051425
    vertex -314.7670370868558 -168.38520608685596 -0.5032522871538868
    vertex -300.232962913145 -168.38520608685596 -0.5032522871538868
  endloop
endfacet
facet normal -3.6184200611980406e-19 -0.33027906195517426 -0.9438833303083652
  outer loop
    vertex -316.84658975633647 -170.46475875633655 -0.4171910629997058
    vertex -317.5000000000004 -171.17061725589144 -0.1702004915803405
    vertex -317.5000000000004 -171.1181690000005 -0.1885529300657094
  endloop
endfacet
facet normal -3.6184200611980406e-19 -0.33027906195517426 -0.9438833303083652
  outer loop
    vertex -317.5000000000004 -171.17061725589144 -0.1702004915803405
    vertex -316.84658975633647 -170.46475875633655 -0.4171910629997058
    vertex -297.5000000000004 -171.17061725589144 -0.1702004915803405
  endloop
endfacet
facet normal -3.6184200611980406e-19 -0.33027906195517426 -0.9438833303083652
  outer loop
    vertex -297.5000000000004 -171.17061725589144 -0.1702004915803405
    vertex -316.84658975633647 -170.46475875633655 -0.4171910629997058
    vertex -298.1534102436644 -170.46475875633655 -0.4171910629997058
  endloop
endfacet
facet normal -3.6184200611980406e-19 -0.33027906195517426 -0.9438833303083652
  outer loop
    vertex -297.5000000000004 -171.17061725589144 -0.1702004915803405
    vertex -298.1534102436644 -170.46475875633655 -0.4171910629997058
    vertex -297.5000000000004 -171.1181690000005 -0.1885529300657094
  endloop
endfacet
facet normal 5.542153429728131e-16 -0.18591160716291805 -0.9825664732332877
  outer loop
    vertex -297.5000000000004 -171.89295966043736 0.023350572376493604
    vertex -317.5000000000004 -172.62774633823875 0.16237971280953012
    vertex -317.5000000000004 -171.89295966043736 0.023350572376482324
  endloop
endfacet
facet normal 5.542153429728131e-16 -0.18591160716291805 -0.9825664732332877
  outer loop
    vertex -317.5000000000004 -172.62774633823875 0.16237971280953012
    vertex -297.5000000000004 -171.89295966043736 0.023350572376493604
    vertex -297.5000000000004 -172.62774633823875 0.1623797128095414
  endloop
endfacet
facet normal -5.754078261615364e-16 0.3826834323650707 -0.9238795325112948
  outer loop
    vertex -315.0000000000004 -168.6181690000005 -1.0656745115973705
    vertex -299.87940952255167 -168.7387594774492 -1.1156247228496843
    vertex -315.1205904774492 -168.73875947744926 -1.1156247228496843
  endloop
endfacet
facet normal -5.754078261615364e-16 0.3826834323650707 -0.9238795325112948
  outer loop
    vertex -299.87940952255167 -168.7387594774492 -1.1156247228496843
    vertex -315.0000000000004 -168.6181690000005 -1.0656745115973705
    vertex -300.00000000000045 -168.6181690000005 -1.0656745115973705
  endloop
endfacet
facet normal 0.0 0.03739119427633206 -0.9993007047883984
  outer loop
    vertex -297.5000000000004 -174.1181690000005 0.27407145055825327
    vertex -317.5000000000004 -174.86546993586472 0.2461094223700505
    vertex -317.5000000000004 -174.1181690000005 0.27407145055825327
  endloop
endfacet
facet normal 0.0 0.03739119427633206 -0.9993007047883984
  outer loop
    vertex -317.5000000000004 -174.86546993586472 0.2461094223700505
    vertex -297.5000000000004 -174.1181690000005 0.27407145055825327
    vertex -297.5000000000004 -174.86546993586472 0.2461094223700505
  endloop
endfacet
facet normal 0.0 -0.38268343236508334 -0.9238795325112895
  outer loop
    vertex -315.3794095225517 -168.99757852255175 -1.1156247228496843
    vertex -299.5000000000004 -169.1181690000005 -1.0656745115973594
    vertex -315.50000000000045 -169.1181690000005 -1.0656745115973594
  endloop
endfacet
facet normal 0.0 -0.38268343236508334 -0.9238795325112895
  outer loop
    vertex -299.5000000000004 -169.1181690000005 -1.0656745115973594
    vertex -315.3794095225517 -168.99757852255175 -1.1156247228496843
    vertex -299.6205904774491 -168.99757852255175 -1.1156247228496843
  endloop
endfacet
facet normal -0.7071067811865452 -0.7071067811865498 2.1496070504275958e-14
  outer loop
    vertex -315.1205904774492 -179.4975785225518 -1.1156247228496843
    vertex -315.3794095225517 -179.23875947744926 -1.1156247228496843
    vertex -315.25000000000034 -179.36816900000053 -1.1326618097051415
  endloop
endfacet
facet normal -0.7071067811865452 -0.7071067811865498 2.1496070504275958e-14
  outer loop
    vertex -315.3794095225517 -179.23875947744926 -1.1156247228496843
    vertex -315.1205904774492 -179.4975785225518 -1.1156247228496843
    vertex -315.0000000000004 -179.6181690000005 -1.0656745115973705
  endloop
endfacet
facet normal -0.7071067811865452 -0.7071067811865498 2.1496070504275958e-14
  outer loop
    vertex -315.3794095225517 -179.23875947744926 -1.1156247228496843
    vertex -315.0000000000004 -179.6181690000005 -1.0656745115973705
    vertex -315.50000000000045 -179.1181690000005 -1.0656745115973594
  endloop
endfacet
facet normal -0.7071067811865452 -0.7071067811865498 2.1496070504275958e-14
  outer loop
    vertex -315.50000000000045 -179.1181690000005 -1.0656745115973594
    vertex -315.0000000000004 -179.6181690000005 -1.0656745115973705
    vertex -314.8964466094072 -179.72172239059378 -0.9862152002984171
  endloop
endfacet
facet normal -0.7071067811865452 -0.7071067811865498 2.1496070504275958e-14
  outer loop
    vertex -315.50000000000045 -179.1181690000005 -1.0656745115973594
    vertex -314.8964466094072 -179.72172239059378 -0.9862152002984171
    vertex -316.1611626088248 -178.4570063911761 -0.716239870417553
  endloop
endfacet
facet normal -0.7071067811865452 -0.7071067811865498 2.1496070504275958e-14
  outer loop
    vertex -316.1611626088248 -178.4570063911761 -0.716239870417553
    vertex -314.8964466094072 -179.72172239059378 -0.9862152002984171
    vertex -314.8169872981082 -179.80118170189272 -0.8826618097051421
  endloop
endfacet
facet normal -0.7071067811865452 -0.7071067811865498 2.1496070504275958e-14
  outer loop
    vertex -316.1611626088248 -178.4570063911761 -0.716239870417553
    vertex -314.8169872981082 -179.80118170189272 -0.8826618097051421
    vertex -314.7670370868558 -179.85113191314505 -0.7620713322564096
  endloop
endfacet
facet normal -0.7071067811865452 -0.7071067811865498 2.1496070504275958e-14
  outer loop
    vertex -316.1611626088248 -178.4570063911761 -0.716239870417553
    vertex -314.7670370868558 -179.85113191314505 -0.7620713322564096
    vertex -314.75000000000045 -179.8681690000005 -0.6326618097051537
  endloop
endfacet
facet normal -0.7071067811865452 -0.7071067811865498 2.1496070504275958e-14
  outer loop
    vertex -316.1611626088248 -178.4570063911761 -0.716239870417553
    vertex -314.75000000000045 -179.8681690000005 -0.6326618097051537
    vertex -316.84658975633647 -177.77157924366446 -0.4171910629997058
  endloop
endfacet
facet normal -0.7071067811865452 -0.7071067811865498 2.1496070504275958e-14
  outer loop
    vertex -316.84658975633647 -177.77157924366446 -0.4171910629997058
    vertex -314.75000000000045 -179.8681690000005 -0.6326618097051537
    vertex -314.7670370868558 -179.85113191314505 -0.5032522871538868
  endloop
endfacet
facet normal -0.7071067811865452 -0.7071067811865498 2.1496070504275958e-14
  outer loop
    vertex -316.84658975633647 -177.77157924366446 -0.4171910629997058
    vertex -314.7670370868558 -179.85113191314505 -0.5032522871538868
    vertex -314.8169872981082 -179.80118170189272 -0.38266180970514296
  endloop
endfacet
facet normal -0.7071067811865452 -0.7071067811865498 2.1496070504275958e-14
  outer loop
    vertex -316.84658975633647 -177.77157924366446 -0.4171910629997058
    vertex -314.8169872981082 -179.80118170189272 -0.38266180970514296
    vertex -317.5000000000004 -177.1181690000005 -0.1885529300657094
  endloop
endfacet
facet normal -0.7071067811865452 -0.7071067811865498 2.1496070504275958e-14
  outer loop
    vertex -317.5000000000004 -177.1181690000005 -0.1885529300657094
    vertex -314.8169872981082 -179.80118170189272 -0.38266180970514296
    vertex -314.8964466094072 -179.72172239059378 -0.27910841911186784
  endloop
endfacet
facet normal -0.7071067811865452 -0.7071067811865498 2.1496070504275958e-14
  outer loop
    vertex -317.5000000000004 -177.1181690000005 -0.1885529300657094
    vertex -314.8964466094072 -179.72172239059378 -0.27910841911186784
    vertex -315.0000000000004 -179.6181690000005 -0.19964910781292575
  endloop
endfacet
facet normal -0.7071067811865452 -0.7071067811865498 2.1496070504275958e-14
  outer loop
    vertex -317.5000000000004 -177.1181690000005 -0.1885529300657094
    vertex -315.0000000000004 -179.6181690000005 -0.19964910781292575
    vertex -317.5000000000004 -177.1181690000005 1.2740714505582513
  endloop
endfacet
facet normal 5.066859026493719e-17 -0.991444861373819 -0.13052619221998701
  outer loop
    vertex -300.2500000000004 -179.8681690000005 -0.6326618097051425
    vertex -314.7670370868558 -179.85113191314505 -0.7620713322564096
    vertex -300.232962913145 -179.85113191314505 -0.7620713322564096
  endloop
endfacet
facet normal 5.066859026493719e-17 -0.991444861373819 -0.13052619221998701
  outer loop
    vertex -314.7670370868558 -179.85113191314505 -0.7620713322564096
    vertex -300.2500000000004 -179.8681690000005 -0.6326618097051425
    vertex -314.75000000000045 -179.8681690000005 -0.6326618097051537
  endloop
endfacet
facet normal -3.1691784143858057e-19 0.6087614290087409 0.7933533402912196
  outer loop
    vertex -300.00000000000045 -168.6181690000005 -0.19964910781292575
    vertex -314.8964466094072 -168.51461560940723 -0.27910841911186784
    vertex -315.0000000000004 -168.6181690000005 -0.19964910781292575
  endloop
endfacet
facet normal -3.1691784143858057e-19 0.6087614290087409 0.7933533402912196
  outer loop
    vertex -314.8964466094072 -168.51461560940723 -0.27910841911186784
    vertex -300.00000000000045 -168.6181690000005 -0.19964910781292575
    vertex -300.10355339059373 -168.51461560940723 -0.27910841911186784
  endloop
endfacet
facet normal 3.547910277538087e-16 -0.1305261922200239 -0.991444861373814
  outer loop
    vertex -315.25000000000034 -168.86816900000048 -1.1326618097051528
    vertex -299.6205904774491 -168.99757852255175 -1.1156247228496843
    vertex -315.3794095225517 -168.99757852255175 -1.1156247228496843
  endloop
endfacet
facet normal 3.547910277538087e-16 -0.1305261922200239 -0.991444861373814
  outer loop
    vertex -299.6205904774491 -168.99757852255175 -1.1156247228496843
    vertex -315.25000000000034 -168.86816900000048 -1.1326618097051528
    vertex -299.7500000000004 -168.86816900000048 -1.1326618097051415
  endloop
endfacet
facet normal -1.9352602865403453e-20 0.9914448613738197 -0.13052619221998144
  outer loop
    vertex -314.75000000000045 -168.3681690000005 -0.6326618097051425
    vertex -300.232962913145 -168.38520608685596 -0.7620713322564096
    vertex -314.7670370868558 -168.38520608685596 -0.7620713322564096
  endloop
endfacet
facet normal -1.9352602865403453e-20 0.9914448613738197 -0.13052619221998144
  outer loop
    vertex -300.232962913145 -168.38520608685596 -0.7620713322564096
    vertex -314.75000000000045 -168.3681690000005 -0.6326618097051425
    vertex -300.2500000000004 -168.3681690000005 -0.6326618097051425
  endloop
endfacet
facet normal 3.8311748282961075e-16 -0.13052619221998144 -0.9914448613738197
  outer loop
    vertex -299.7500000000004 -179.36816900000048 -1.1326618097051415
    vertex -315.1205904774492 -179.4975785225518 -1.1156247228496843
    vertex -315.25000000000034 -179.36816900000053 -1.1326618097051415
  endloop
endfacet
facet normal 3.8311748282961075e-16 -0.13052619221998144 -0.9914448613738197
  outer loop
    vertex -315.1205904774492 -179.4975785225518 -1.1156247228496843
    vertex -299.7500000000004 -179.36816900000048 -1.1326618097051415
    vertex -299.87940952255167 -179.49757852255175 -1.1156247228496843
  endloop
endfacet
facet normal -1.9211485328176108e-17 0.2588190451025195 -0.9659258262890688
  outer loop
    vertex -297.5000000000004 -176.34337833956366 0.023350572376493604
    vertex -317.5000000000004 -177.06572074410957 -0.1702004915803405
    vertex -317.5000000000004 -176.34337833956366 0.023350572376482324
  endloop
endfacet
facet normal -1.9211485328176108e-17 0.2588190451025195 -0.9659258262890688
  outer loop
    vertex -317.5000000000004 -177.06572074410957 -0.1702004915803405
    vertex -297.5000000000004 -176.34337833956366 0.023350572376493604
    vertex -297.5000000000004 -177.0657207441095 -0.1702004915803405
  endloop
endfacet
facet normal 1.4850446659223077e-16 0.9238795325112578 -0.3826834323651597
  outer loop
    vertex -314.7670370868558 -168.38520608685596 -0.7620713322564096
    vertex -300.1830127018926 -168.4351562981083 -0.8826618097051421
    vertex -314.8169872981082 -168.4351562981083 -0.8826618097051533
  endloop
endfacet
facet normal 1.4850446659223077e-16 0.9238795325112578 -0.3826834323651597
  outer loop
    vertex -300.1830127018926 -168.4351562981083 -0.8826618097051421
    vertex -314.7670370868558 -168.38520608685596 -0.7620713322564096
    vertex -300.232962913145 -168.38520608685596 -0.7620713322564096
  endloop
endfacet
facet normal -1.4846655199368836e-18 -0.39989202431973575 -0.9165622558699786
  outer loop
    vertex -316.1611626088248 -169.77933160882492 -0.716239870417553
    vertex -298.1534102436644 -170.46475875633655 -0.4171910629997058
    vertex -316.84658975633647 -170.46475875633655 -0.4171910629997058
  endloop
endfacet
facet normal -1.4846655199368836e-18 -0.39989202431973575 -0.9165622558699786
  outer loop
    vertex -298.1534102436644 -170.46475875633655 -0.4171910629997058
    vertex -316.1611626088248 -169.77933160882492 -0.716239870417553
    vertex -298.83883739117596 -169.77933160882492 -0.716239870417553
  endloop
endfacet
facet normal -1.0652764523486394e-19 0.39989202431973586 -0.9165622558699786
  outer loop
    vertex -298.1534102436644 -177.77157924366446 -0.4171910629997058
    vertex -316.1611626088248 -178.4570063911761 -0.716239870417553
    vertex -316.84658975633647 -177.77157924366446 -0.4171910629997058
  endloop
endfacet
facet normal -1.0652764523486394e-19 0.39989202431973586 -0.9165622558699786
  outer loop
    vertex -316.1611626088248 -178.4570063911761 -0.716239870417553
    vertex -298.1534102436644 -177.77157924366446 -0.4171910629997058
    vertex -298.83883739117596 -178.4570063911761 -0.716239870417553
  endloop
endfacet
facet normal -9.136170696002403e-20 0.7933533402912517 0.6087614290086991
  outer loop
    vertex -314.8964466094072 -168.51461560940723 -0.27910841911186784
    vertex -300.1830127018926 -168.4351562981083 -0.38266180970514296
    vertex -314.8169872981082 -168.4351562981083 -0.38266180970514296
  endloop
endfacet
facet normal -9.136170696002403e-20 0.7933533402912517 0.6087614290086991
  outer loop
    vertex -300.1830127018926 -168.4351562981083 -0.38266180970514296
    vertex -314.8964466094072 -168.51461560940723 -0.27910841911186784
    vertex -300.10355339059373 -168.51461560940723 -0.27910841911186784
  endloop
endfacet
facet normal -1.473457407605288e-16 -0.9238795325112579 0.38268343236515956
  outer loop
    vertex -300.232962913145 -179.85113191314505 -0.5032522871538755
    vertex -314.8169872981082 -179.80118170189272 -0.38266180970514296
    vertex -314.7670370868558 -179.85113191314505 -0.5032522871538868
  endloop
endfacet
facet normal -1.473457407605288e-16 -0.9238795325112579 0.38268343236515956
  outer loop
    vertex -314.8169872981082 -179.80118170189272 -0.38266180970514296
    vertex -300.232962913145 -179.85113191314505 -0.5032522871538755
    vertex -300.1830127018926 -179.80118170189272 -0.38266180970514296
  endloop
endfacet
facet normal -2.5946665883988554e-16 0.3302790619551687 -0.943883330308367
  outer loop
    vertex -297.5000000000004 -177.0657207441095 -0.1702004915803405
    vertex -317.5000000000004 -177.1181690000005 -0.1885529300657094
    vertex -317.5000000000004 -177.06572074410957 -0.1702004915803405
  endloop
endfacet
facet normal -2.5946665883988554e-16 0.3302790619551687 -0.943883330308367
  outer loop
    vertex -317.5000000000004 -177.1181690000005 -0.1885529300657094
    vertex -297.5000000000004 -177.0657207441095 -0.1702004915803405
    vertex -316.84658975633647 -177.77157924366446 -0.4171910629997058
  endloop
endfacet
facet normal -2.5946665883988554e-16 0.3302790619551687 -0.943883330308367
  outer loop
    vertex -316.84658975633647 -177.77157924366446 -0.4171910629997058
    vertex -297.5000000000004 -177.0657207441095 -0.1702004915803405
    vertex -298.1534102436644 -177.77157924366446 -0.4171910629997058
  endloop
endfacet
facet normal -2.5946665883988554e-16 0.3302790619551687 -0.943883330308367
  outer loop
    vertex -298.1534102436644 -177.77157924366446 -0.4171910629997058
    vertex -297.5000000000004 -177.0657207441095 -0.1702004915803405
    vertex -297.5000000000004 -177.1181690000005 -0.1885529300657094
  endloop
endfacet
facet normal -9.136170696002403e-20 -0.7933533402912517 0.6087614290086991
  outer loop
    vertex -300.10355339059373 -179.72172239059378 -0.27910841911186784
    vertex -314.8169872981082 -179.80118170189272 -0.38266180970514296
    vertex -300.1830127018926 -179.80118170189272 -0.38266180970514296
  endloop
endfacet
facet normal -9.136170696002403e-20 -0.7933533402912517 0.6087614290086991
  outer loop
    vertex -314.8169872981082 -179.80118170189272 -0.38266180970514296
    vertex -300.10355339059373 -179.72172239059378 -0.27910841911186784
    vertex -314.8964466094072 -179.72172239059378 -0.27910841911186784
  endloop
endfacet
facet normal -1.9188387449689793e-19 0.6087614290087953 -0.793353340291178
  outer loop
    vertex -314.8964466094072 -168.51461560940723 -0.9862152002984171
    vertex -300.00000000000045 -168.6181690000005 -1.0656745115973705
    vertex -315.0000000000004 -168.6181690000005 -1.0656745115973705
  endloop
endfacet
facet normal -1.9188387449689793e-19 0.6087614290087953 -0.793353340291178
  outer loop
    vertex -300.00000000000045 -168.6181690000005 -1.0656745115973705
    vertex -314.8964466094072 -168.51461560940723 -0.9862152002984171
    vertex -300.10355339059373 -168.51461560940723 -0.9862152002984171
  endloop
endfacet
facet normal 4.216111430647718e-17 -0.037391194276330926 -0.9993007047883984
  outer loop
    vertex -297.5000000000004 -173.37086806413623 0.2461094223700505
    vertex -317.5000000000004 -174.1181690000005 0.27407145055825327
    vertex -317.5000000000004 -173.3708680641363 0.2461094223700505
  endloop
endfacet
facet normal 4.216111430647718e-17 -0.037391194276330926 -0.9993007047883984
  outer loop
    vertex -317.5000000000004 -174.1181690000005 0.27407145055825327
    vertex -297.5000000000004 -173.37086806413623 0.2461094223700505
    vertex -297.5000000000004 -174.1181690000005 0.27407145055825327
  endloop
endfacet
facet normal 0.0 0.38268343236508334 -0.9238795325112895
  outer loop
    vertex -299.5000000000004 -179.1181690000005 -1.0656745115973594
    vertex -315.3794095225517 -179.23875947744926 -1.1156247228496843
    vertex -315.50000000000045 -179.1181690000005 -1.0656745115973594
  endloop
endfacet
facet normal 0.0 0.38268343236508334 -0.9238795325112895
  outer loop
    vertex -315.3794095225517 -179.23875947744926 -1.1156247228496843
    vertex -299.5000000000004 -179.1181690000005 -1.0656745115973594
    vertex -299.6205904774491 -179.23875947744926 -1.1156247228496843
  endloop
endfacet
facet normal -8.84266853651851e-30 0.9238795325112642 0.3826834323651444
  outer loop
    vertex -314.8169872981082 -168.4351562981083 -0.38266180970514296
    vertex -300.232962913145 -168.38520608685596 -0.5032522871538868
    vertex -314.7670370868558 -168.38520608685596 -0.5032522871538868
  endloop
endfacet
facet normal -8.84266853651851e-30 0.9238795325112642 0.3826834323651444
  outer loop
    vertex -300.232962913145 -168.38520608685596 -0.5032522871538868
    vertex -314.8169872981082 -168.4351562981083 -0.38266180970514296
    vertex -300.1830127018926 -168.4351562981083 -0.38266180970514296
  endloop
endfacet
facet normal 1.75929787052618e-18 -0.46726862827306676 -0.8841153935046073
  outer loop
    vertex -315.50000000000045 -169.1181690000005 -1.0656745115973594
    vertex -298.83883739117596 -169.77933160882492 -0.716239870417553
    vertex -316.1611626088248 -169.77933160882492 -0.716239870417553
  endloop
endfacet
facet normal 1.75929787052618e-18 -0.46726862827306676 -0.8841153935046073
  outer loop
    vertex -298.83883739117596 -169.77933160882492 -0.716239870417553
    vertex -315.50000000000045 -169.1181690000005 -1.0656745115973594
    vertex -299.5000000000004 -169.1181690000005 -1.0656745115973594
  endloop
endfacet
facet normal 9.172321756233105e-16 -0.38268343236510743 -0.9238795325112795
  outer loop
    vertex -299.87940952255167 -179.49757852255175 -1.1156247228496843
    vertex -315.0000000000004 -179.6181690000005 -1.0656745115973705
    vertex -315.1205904774492 -179.4975785225518 -1.1156247228496843
  endloop
endfacet
facet normal 9.172321756233105e-16 -0.38268343236510743 -0.9238795325112795
  outer loop
    vertex -315.0000000000004 -179.6181690000005 -1.0656745115973705
    vertex -299.87940952255167 -179.49757852255175 -1.1156247228496843
    vertex -300.00000000000045 -179.6181690000005 -1.0656745115973594
  endloop
endfacet
facet normal 1.5388909918513643e-16 0.11196447610330454 -0.993712209893243
  outer loop
    vertex -297.5000000000004 -174.86546993586472 0.2461094223700505
    vertex -317.5000000000004 -175.60859166176226 0.16237971280953012
    vertex -317.5000000000004 -174.86546993586472 0.2461094223700505
  endloop
endfacet
facet normal 1.5388909918513643e-16 0.11196447610330454 -0.993712209893243
  outer loop
    vertex -317.5000000000004 -175.60859166176226 0.16237971280953012
    vertex -297.5000000000004 -174.86546993586472 0.2461094223700505
    vertex -297.5000000000004 -175.60859166176223 0.1623797128095414
  endloop
endfacet
facet normal -9.136170696002403e-20 -0.7933533402912517 -0.6087614290086991
  outer loop
    vertex -300.1830127018926 -179.80118170189272 -0.8826618097051421
    vertex -314.8964466094072 -179.72172239059378 -0.9862152002984171
    vertex -300.10355339059373 -179.72172239059378 -0.9862152002984171
  endloop
endfacet
facet normal -9.136170696002403e-20 -0.7933533402912517 -0.6087614290086991
  outer loop
    vertex -314.8964466094072 -179.72172239059378 -0.9862152002984171
    vertex -300.1830127018926 -179.80118170189272 -0.8826618097051421
    vertex -314.8169872981082 -179.80118170189272 -0.8826618097051421
  endloop
endfacet
facet normal 0.7071067811865447 -0.7071067811865503 -9.414337447128072e-16
  outer loop
    vertex -299.6205904774491 -179.23875947744926 -1.1156247228496843
    vertex -299.87940952255167 -179.49757852255175 -1.1156247228496843
    vertex -299.7500000000004 -179.36816900000048 -1.1326618097051415
  endloop
endfacet
facet normal 0.7071067811865447 -0.7071067811865503 -9.414337447128072e-16
  outer loop
    vertex -299.87940952255167 -179.49757852255175 -1.1156247228496843
    vertex -299.6205904774491 -179.23875947744926 -1.1156247228496843
    vertex -299.5000000000004 -179.1181690000005 -1.0656745115973594
  endloop
endfacet
facet normal 0.7071067811865447 -0.7071067811865503 -9.414337447128072e-16
  outer loop
    vertex -299.87940952255167 -179.49757852255175 -1.1156247228496843
    vertex -299.5000000000004 -179.1181690000005 -1.0656745115973594
    vertex -300.00000000000045 -179.6181690000005 -1.0656745115973594
  endloop
endfacet
facet normal 0.7071067811865447 -0.7071067811865503 -9.414337447128072e-16
  outer loop
    vertex -300.00000000000045 -179.6181690000005 -1.0656745115973594
    vertex -299.5000000000004 -179.1181690000005 -1.0656745115973594
    vertex -298.83883739117596 -178.4570063911761 -0.716239870417553
  endloop
endfacet
facet normal 0.7071067811865447 -0.7071067811865503 -9.414337447128072e-16
  outer loop
    vertex -300.00000000000045 -179.6181690000005 -1.0656745115973594
    vertex -298.83883739117596 -178.4570063911761 -0.716239870417553
    vertex -300.10355339059373 -179.72172239059378 -0.9862152002984171
  endloop
endfacet
facet normal 0.7071067811865447 -0.7071067811865503 -9.414337447128072e-16
  outer loop
    vertex -300.10355339059373 -179.72172239059378 -0.9862152002984171
    vertex -298.83883739117596 -178.4570063911761 -0.716239870417553
    vertex -300.1830127018926 -179.80118170189272 -0.8826618097051421
  endloop
endfacet
facet normal 0.7071067811865447 -0.7071067811865503 -9.414337447128072e-16
  outer loop
    vertex -300.1830127018926 -179.80118170189272 -0.8826618097051421
    vertex -298.83883739117596 -178.4570063911761 -0.716239870417553
    vertex -300.232962913145 -179.85113191314505 -0.7620713322564096
  endloop
endfacet
facet normal 0.7071067811865447 -0.7071067811865503 -9.414337447128072e-16
  outer loop
    vertex -300.232962913145 -179.85113191314505 -0.7620713322564096
    vertex -298.83883739117596 -178.4570063911761 -0.716239870417553
    vertex -300.2500000000004 -179.8681690000005 -0.6326618097051425
  endloop
endfacet
facet normal 0.7071067811865447 -0.7071067811865503 -9.414337447128072e-16
  outer loop
    vertex -300.2500000000004 -179.8681690000005 -0.6326618097051425
    vertex -298.83883739117596 -178.4570063911761 -0.716239870417553
    vertex -298.1534102436644 -177.77157924366446 -0.4171910629997058
  endloop
endfacet
facet normal 0.7071067811865447 -0.7071067811865503 -9.414337447128072e-16
  outer loop
    vertex -300.2500000000004 -179.8681690000005 -0.6326618097051425
    vertex -298.1534102436644 -177.77157924366446 -0.4171910629997058
    vertex -300.232962913145 -179.85113191314505 -0.5032522871538755
  endloop
endfacet
facet normal 0.7071067811865447 -0.7071067811865503 -9.414337447128072e-16
  outer loop
    vertex -300.232962913145 -179.85113191314505 -0.5032522871538755
    vertex -298.1534102436644 -177.77157924366446 -0.4171910629997058
    vertex -300.1830127018926 -179.80118170189272 -0.38266180970514296
  endloop
endfacet
facet normal 0.7071067811865447 -0.7071067811865503 -9.414337447128072e-16
  outer loop
    vertex -300.1830127018926 -179.80118170189272 -0.38266180970514296
    vertex -298.1534102436644 -177.77157924366446 -0.4171910629997058
    vertex -297.5000000000004 -177.1181690000005 -0.1885529300657094
  endloop
endfacet
facet normal 0.7071067811865447 -0.7071067811865503 -9.414337447128072e-16
  outer loop
    vertex -300.1830127018926 -179.80118170189272 -0.38266180970514296
    vertex -297.5000000000004 -177.1181690000005 -0.1885529300657094
    vertex -300.10355339059373 -179.72172239059378 -0.27910841911186784
  endloop
endfacet
facet normal 0.7071067811865447 -0.7071067811865503 -9.414337447128072e-16
  outer loop
    vertex -300.10355339059373 -179.72172239059378 -0.27910841911186784
    vertex -297.5000000000004 -177.1181690000005 -0.1885529300657094
    vertex -300.00000000000045 -179.6181690000005 -0.19964910781292575
  endloop
endfacet
facet normal 0.7071067811865447 -0.7071067811865503 -9.414337447128072e-16
  outer loop
    vertex -300.00000000000045 -179.6181690000005 -0.19964910781292575
    vertex -297.5000000000004 -177.1181690000005 -0.1885529300657094
    vertex -297.5000000000004 -177.1181690000005 1.2740714505582513
  endloop
endfacet
facet normal 4.065408556081836e-16 -0.11196447610330454 -0.993712209893243
  outer loop
    vertex -297.5000000000004 -172.62774633823875 0.1623797128095414
    vertex -317.5000000000004 -173.3708680641363 0.2461094223700505
    vertex -317.5000000000004 -172.62774633823875 0.16237971280953012
  endloop
endfacet
facet normal 4.065408556081836e-16 -0.11196447610330454 -0.993712209893243
  outer loop
    vertex -317.5000000000004 -173.3708680641363 0.2461094223700505
    vertex -297.5000000000004 -172.62774633823875 0.1623797128095414
    vertex -297.5000000000004 -173.37086806413623 0.2461094223700505
  endloop
endfacet
facet normal -1.8684938097958973e-16 0.1305261922200038 -0.9914448613738168
  outer loop
    vertex -299.6205904774491 -179.23875947744926 -1.1156247228496843
    vertex -315.25000000000034 -179.36816900000053 -1.1326618097051415
    vertex -315.3794095225517 -179.23875947744926 -1.1156247228496843
  endloop
endfacet
facet normal -1.8684938097958973e-16 0.1305261922200038 -0.9914448613738168
  outer loop
    vertex -315.25000000000034 -179.36816900000053 -1.1326618097051415
    vertex -299.6205904774491 -179.23875947744926 -1.1156247228496843
    vertex -299.7500000000004 -179.36816900000048 -1.1326618097051415
  endloop
endfacet
facet normal 1.7691199858104102e-16 0.1305261922200463 -0.9914448613738112
  outer loop
    vertex -315.1205904774492 -168.73875947744926 -1.1156247228496843
    vertex -299.7500000000004 -168.86816900000048 -1.1326618097051415
    vertex -315.25000000000034 -168.86816900000048 -1.1326618097051528
  endloop
endfacet
facet normal 1.7691199858104102e-16 0.1305261922200463 -0.9914448613738112
  outer loop
    vertex -299.7500000000004 -168.86816900000048 -1.1326618097051415
    vertex -315.1205904774492 -168.73875947744926 -1.1156247228496843
    vertex -299.87940952255167 -168.7387594774492 -1.1156247228496843
  endloop
endfacet
facet normal 0.707106781186544 0.7071067811865511 6.276224964752057e-15
  outer loop
    vertex -299.87940952255167 -168.7387594774492 -1.1156247228496843
    vertex -299.6205904774491 -168.99757852255175 -1.1156247228496843
    vertex -299.7500000000004 -168.86816900000048 -1.1326618097051415
  endloop
endfacet
facet normal 0.707106781186544 0.7071067811865511 6.276224964752057e-15
  outer loop
    vertex -299.6205904774491 -168.99757852255175 -1.1156247228496843
    vertex -299.87940952255167 -168.7387594774492 -1.1156247228496843
    vertex -300.00000000000045 -168.6181690000005 -1.0656745115973705
  endloop
endfacet
facet normal 0.707106781186544 0.7071067811865511 6.276224964752057e-15
  outer loop
    vertex -299.6205904774491 -168.99757852255175 -1.1156247228496843
    vertex -300.00000000000045 -168.6181690000005 -1.0656745115973705
    vertex -299.5000000000004 -169.1181690000005 -1.0656745115973594
  endloop
endfacet
facet normal 0.707106781186544 0.7071067811865511 6.276224964752057e-15
  outer loop
    vertex -299.5000000000004 -169.1181690000005 -1.0656745115973594
    vertex -300.00000000000045 -168.6181690000005 -1.0656745115973705
    vertex -300.10355339059373 -168.51461560940723 -0.9862152002984171
  endloop
endfacet
facet normal 0.707106781186544 0.7071067811865511 6.276224964752057e-15
  outer loop
    vertex -299.5000000000004 -169.1181690000005 -1.0656745115973594
    vertex -300.10355339059373 -168.51461560940723 -0.9862152002984171
    vertex -298.83883739117596 -169.77933160882492 -0.716239870417553
  endloop
endfacet
facet normal 0.707106781186544 0.7071067811865511 6.276224964752057e-15
  outer loop
    vertex -298.83883739117596 -169.77933160882492 -0.716239870417553
    vertex -300.10355339059373 -168.51461560940723 -0.9862152002984171
    vertex -300.1830127018926 -168.4351562981083 -0.8826618097051421
  endloop
endfacet
facet normal 0.707106781186544 0.7071067811865511 6.276224964752057e-15
  outer loop
    vertex -298.83883739117596 -169.77933160882492 -0.716239870417553
    vertex -300.1830127018926 -168.4351562981083 -0.8826618097051421
    vertex -300.232962913145 -168.38520608685596 -0.7620713322564096
  endloop
endfacet
facet normal 0.707106781186544 0.7071067811865511 6.276224964752057e-15
  outer loop
    vertex -298.83883739117596 -169.77933160882492 -0.716239870417553
    vertex -300.232962913145 -168.38520608685596 -0.7620713322564096
    vertex -300.2500000000004 -168.3681690000005 -0.6326618097051425
  endloop
endfacet
facet normal 0.707106781186544 0.7071067811865511 6.276224964752057e-15
  outer loop
    vertex -298.83883739117596 -169.77933160882492 -0.716239870417553
    vertex -300.2500000000004 -168.3681690000005 -0.6326618097051425
    vertex -298.1534102436644 -170.46475875633655 -0.4171910629997058
  endloop
endfacet
facet normal 0.707106781186544 0.7071067811865511 6.276224964752057e-15
  outer loop
    vertex -298.1534102436644 -170.46475875633655 -0.4171910629997058
    vertex -300.2500000000004 -168.3681690000005 -0.6326618097051425
    vertex -300.232962913145 -168.38520608685596 -0.5032522871538868
  endloop
endfacet
facet normal 0.707106781186544 0.7071067811865511 6.276224964752057e-15
  outer loop
    vertex -298.1534102436644 -170.46475875633655 -0.4171910629997058
    vertex -300.232962913145 -168.38520608685596 -0.5032522871538868
    vertex -300.1830127018926 -168.4351562981083 -0.38266180970514296
  endloop
endfacet
facet normal 0.707106781186544 0.7071067811865511 6.276224964752057e-15
  outer loop
    vertex -298.1534102436644 -170.46475875633655 -0.4171910629997058
    vertex -300.1830127018926 -168.4351562981083 -0.38266180970514296
    vertex -297.5000000000004 -171.1181690000005 -0.1885529300657094
  endloop
endfacet
facet normal 0.707106781186544 0.7071067811865511 6.276224964752057e-15
  outer loop
    vertex -297.5000000000004 -171.1181690000005 -0.1885529300657094
    vertex -300.1830127018926 -168.4351562981083 -0.38266180970514296
    vertex -300.10355339059373 -168.51461560940723 -0.27910841911186784
  endloop
endfacet
facet normal 0.707106781186544 0.7071067811865511 6.276224964752057e-15
  outer loop
    vertex -297.5000000000004 -171.1181690000005 -0.1885529300657094
    vertex -300.10355339059373 -168.51461560940723 -0.27910841911186784
    vertex -300.00000000000045 -168.6181690000005 -0.19964910781292575
  endloop
endfacet
facet normal 0.707106781186544 0.7071067811865511 6.276224964752057e-15
  outer loop
    vertex -297.5000000000004 -171.1181690000005 -0.1885529300657094
    vertex -300.00000000000045 -168.6181690000005 -0.19964910781292575
    vertex -297.5000000000004 -171.1181690000005 1.2740714505582513
  endloop
endfacet
facet normal 2.318756353005247e-16 0.7933533402912357 -0.60876142900872
  outer loop
    vertex -314.8169872981082 -168.4351562981083 -0.8826618097051533
    vertex -300.10355339059373 -168.51461560940723 -0.9862152002984171
    vertex -314.8964466094072 -168.51461560940723 -0.9862152002984171
  endloop
endfacet
facet normal 2.318756353005247e-16 0.7933533402912357 -0.60876142900872
  outer loop
    vertex -300.10355339059373 -168.51461560940723 -0.9862152002984171
    vertex -314.8169872981082 -168.4351562981083 -0.8826618097051533
    vertex -300.1830127018926 -168.4351562981083 -0.8826618097051421
  endloop
endfacet
facet normal 2.7228676404922374e-16 -0.2588190451025119 -0.9659258262890706
  outer loop
    vertex -297.5000000000004 -171.17061725589144 -0.1702004915803405
    vertex -317.5000000000004 -171.89295966043736 0.023350572376482324
    vertex -317.5000000000004 -171.17061725589144 -0.1702004915803405
  endloop
endfacet
facet normal 2.7228676404922374e-16 -0.2588190451025119 -0.9659258262890706
  outer loop
    vertex -317.5000000000004 -171.89295966043736 0.023350572376482324
    vertex -297.5000000000004 -171.17061725589144 -0.1702004915803405
    vertex -297.5000000000004 -171.89295966043736 0.023350572376493604
  endloop
endfacet
facet normal 3.942852942160212e-19 -0.507821790101149 0.8614621462945803
  outer loop
    vertex -315.0000000000004 -179.6181690000005 -0.19964910781292575
    vertex -297.5000000000004 -177.1181690000005 1.2740714505582513
    vertex -317.5000000000004 -177.1181690000005 1.2740714505582513
  endloop
endfacet
facet normal 3.942852942160212e-19 -0.507821790101149 0.8614621462945803
  outer loop
    vertex -297.5000000000004 -177.1181690000005 1.2740714505582513
    vertex -315.0000000000004 -179.6181690000005 -0.19964910781292575
    vertex -300.00000000000045 -179.6181690000005 -0.19964910781292575
  endloop
endfacet
facet normal -0.707106781186545 0.70710678118655 8.1590924541777e-15
  outer loop
    vertex -315.3794095225517 -168.99757852255175 -1.1156247228496843
    vertex -315.1205904774492 -168.73875947744926 -1.1156247228496843
    vertex -315.25000000000034 -168.86816900000048 -1.1326618097051528
  endloop
endfacet
facet normal -0.707106781186545 0.70710678118655 8.1590924541777e-15
  outer loop
    vertex -315.1205904774492 -168.73875947744926 -1.1156247228496843
    vertex -315.3794095225517 -168.99757852255175 -1.1156247228496843
    vertex -315.50000000000045 -169.1181690000005 -1.0656745115973594
  endloop
endfacet
facet normal -0.707106781186545 0.70710678118655 8.1590924541777e-15
  outer loop
    vertex -315.1205904774492 -168.73875947744926 -1.1156247228496843
    vertex -315.50000000000045 -169.1181690000005 -1.0656745115973594
    vertex -315.0000000000004 -168.6181690000005 -1.0656745115973705
  endloop
endfacet
facet normal -0.707106781186545 0.70710678118655 8.1590924541777e-15
  outer loop
    vertex -315.0000000000004 -168.6181690000005 -1.0656745115973705
    vertex -315.50000000000045 -169.1181690000005 -1.0656745115973594
    vertex -314.8964466094072 -168.51461560940723 -0.9862152002984171
  endloop
endfacet
facet normal -0.707106781186545 0.70710678118655 8.1590924541777e-15
  outer loop
    vertex -314.8964466094072 -168.51461560940723 -0.9862152002984171
    vertex -315.50000000000045 -169.1181690000005 -1.0656745115973594
    vertex -316.1611626088248 -169.77933160882492 -0.716239870417553
  endloop
endfacet
facet normal -0.707106781186545 0.70710678118655 8.1590924541777e-15
  outer loop
    vertex -314.8964466094072 -168.51461560940723 -0.9862152002984171
    vertex -316.1611626088248 -169.77933160882492 -0.716239870417553
    vertex -314.8169872981082 -168.4351562981083 -0.8826618097051533
  endloop
endfacet
facet normal -0.707106781186545 0.70710678118655 8.1590924541777e-15
  outer loop
    vertex -314.8169872981082 -168.4351562981083 -0.8826618097051533
    vertex -316.1611626088248 -169.77933160882492 -0.716239870417553
    vertex -314.7670370868558 -168.38520608685596 -0.7620713322564096
  endloop
endfacet
facet normal -0.707106781186545 0.70710678118655 8.1590924541777e-15
  outer loop
    vertex -314.7670370868558 -168.38520608685596 -0.7620713322564096
    vertex -316.1611626088248 -169.77933160882492 -0.716239870417553
    vertex -314.75000000000045 -168.3681690000005 -0.6326618097051425
  endloop
endfacet
facet normal -0.707106781186545 0.70710678118655 8.1590924541777e-15
  outer loop
    vertex -314.75000000000045 -168.3681690000005 -0.6326618097051425
    vertex -316.1611626088248 -169.77933160882492 -0.716239870417553
    vertex -316.84658975633647 -170.46475875633655 -0.4171910629997058
  endloop
endfacet
facet normal -0.707106781186545 0.70710678118655 8.1590924541777e-15
  outer loop
    vertex -314.75000000000045 -168.3681690000005 -0.6326618097051425
    vertex -316.84658975633647 -170.46475875633655 -0.4171910629997058
    vertex -314.7670370868558 -168.38520608685596 -0.5032522871538868
  endloop
endfacet
facet normal -0.707106781186545 0.70710678118655 8.1590924541777e-15
  outer loop
    vertex -314.7670370868558 -168.38520608685596 -0.5032522871538868
    vertex -316.84658975633647 -170.46475875633655 -0.4171910629997058
    vertex -314.8169872981082 -168.4351562981083 -0.38266180970514296
  endloop
endfacet
facet normal -0.707106781186545 0.70710678118655 8.1590924541777e-15
  outer loop
    vertex -314.8169872981082 -168.4351562981083 -0.38266180970514296
    vertex -316.84658975633647 -170.46475875633655 -0.4171910629997058
    vertex -317.5000000000004 -171.1181690000005 -0.1885529300657094
  endloop
endfacet
facet normal -0.707106781186545 0.70710678118655 8.1590924541777e-15
  outer loop
    vertex -314.8169872981082 -168.4351562981083 -0.38266180970514296
    vertex -317.5000000000004 -171.1181690000005 -0.1885529300657094
    vertex -314.8964466094072 -168.51461560940723 -0.27910841911186784
  endloop
endfacet
facet normal -0.707106781186545 0.70710678118655 8.1590924541777e-15
  outer loop
    vertex -314.8964466094072 -168.51461560940723 -0.27910841911186784
    vertex -317.5000000000004 -171.1181690000005 -0.1885529300657094
    vertex -315.0000000000004 -168.6181690000005 -0.19964910781292575
  endloop
endfacet
facet normal -0.707106781186545 0.70710678118655 8.1590924541777e-15
  outer loop
    vertex -315.0000000000004 -168.6181690000005 -0.19964910781292575
    vertex -317.5000000000004 -171.1181690000005 -0.1885529300657094
    vertex -317.5000000000004 -171.11816900000048 1.2740714505582513
  endloop
endfacet
facet normal 1.0 0.0 0.0
  outer loop
    vertex -297.5000000000004 -177.0657207441095 -0.1702004915803405
    vertex -297.5000000000004 -177.1181690000005 1.2740714505582513
    vertex -297.5000000000004 -177.1181690000005 -0.1885529300657094
  endloop
endfacet
facet normal 1.0 0.0 0.0
  outer loop
    vertex -297.5000000000004 -177.1181690000005 1.2740714505582513
    vertex -297.5000000000004 -177.0657207441095 -0.1702004915803405
    vertex -297.5000000000004 -176.24316900000053 3.024071450558248
  endloop
endfacet
facet normal 1.0 0.0 0.0
  outer loop
    vertex -297.5000000000004 -176.24316900000053 3.024071450558248
    vertex -297.5000000000004 -177.0657207441095 -0.1702004915803405
    vertex -297.5000000000004 -176.34337833956366 0.023350572376493604
  endloop
endfacet
facet normal 1.0 0.0 0.0
  outer loop
    vertex -297.5000000000004 -176.24316900000053 3.024071450558248
    vertex -297.5000000000004 -176.34337833956366 0.023350572376493604
    vertex -297.5000000000004 -175.60859166176223 0.1623797128095414
  endloop
endfacet
facet normal 1.0 0.0 0.0
  outer loop
    vertex -297.5000000000004 -176.24316900000053 3.024071450558248
    vertex -297.5000000000004 -175.60859166176223 0.1623797128095414
    vertex -297.5000000000004 -175.7431690000005 0.7740714505582523
  endloop
endfacet
facet normal 1.0 0.0 0.0
  outer loop
    vertex -297.5000000000004 -175.7431690000005 0.7740714505582523
    vertex -297.5000000000004 -175.60859166176223 0.1623797128095414
    vertex -297.5000000000004 -172.4931690000005 0.7740714505582523
  endloop
endfacet
facet normal 1.0 0.0 0.0
  outer loop
    vertex -297.5000000000004 -172.4931690000005 0.7740714505582523
    vertex -297.5000000000004 -175.60859166176223 0.1623797128095414
    vertex -297.5000000000004 -174.86546993586472 0.2461094223700505
  endloop
endfacet
facet normal 1.0 0.0 0.0
  outer loop
    vertex -297.5000000000004 -172.4931690000005 0.7740714505582523
    vertex -297.5000000000004 -174.86546993586472 0.2461094223700505
    vertex -297.5000000000004 -174.1181690000005 0.27407145055825327
  endloop
endfacet
facet normal 1.0 0.0 0.0
  outer loop
    vertex -297.5000000000004 -172.4931690000005 0.7740714505582523
    vertex -297.5000000000004 -174.1181690000005 0.27407145055825327
    vertex -297.5000000000004 -173.37086806413623 0.2461094223700505
  endloop
endfacet
facet normal 1.0 0.0 0.0
  outer loop
    vertex -297.5000000000004 -172.4931690000005 0.7740714505582523
    vertex -297.5000000000004 -173.37086806413623 0.2461094223700505
    vertex -297.5000000000004 -172.62774633823875 0.1623797128095414
  endloop
endfacet
facet normal 1.0 0.0 0.0
  outer loop
    vertex -297.5000000000004 -172.4931690000005 0.7740714505582523
    vertex -297.5000000000004 -172.62774633823875 0.1623797128095414
    vertex -297.5000000000004 -171.89295966043736 0.023350572376493604
  endloop
endfacet
facet normal 1.0 0.0 0.0
  outer loop
    vertex -297.5000000000004 -172.4931690000005 0.7740714505582523
    vertex -297.5000000000004 -171.89295966043736 0.023350572376493604
    vertex -297.5000000000004 -172.4931690000005 2.524071450558249
  endloop
endfacet
facet normal 1.0 0.0 0.0
  outer loop
    vertex -297.5000000000004 -172.4931690000005 2.524071450558249
    vertex -297.5000000000004 -171.89295966043736 0.023350572376493604
    vertex -297.5000000000004 -171.9931690000005 3.024071450558248
  endloop
endfacet
facet normal 1.0 0.0 0.0
  outer loop
    vertex -297.5000000000004 -171.9931690000005 3.024071450558248
    vertex -297.5000000000004 -171.89295966043736 0.023350572376493604
    vertex -297.5000000000004 -171.1181690000005 1.2740714505582513
  endloop
endfacet
facet normal 1.0 0.0 0.0
  outer loop
    vertex -297.5000000000004 -171.1181690000005 1.2740714505582513
    vertex -297.5000000000004 -171.89295966043736 0.023350572376493604
    vertex -297.5000000000004 -171.17061725589144 -0.1702004915803405
  endloop
endfacet
facet normal 1.0 0.0 0.0
  outer loop
    vertex -297.5000000000004 -171.1181690000005 1.2740714505582513
    vertex -297.5000000000004 -171.17061725589144 -0.1702004915803405
    vertex -297.5000000000004 -171.1181690000005 -0.1885529300657094
  endloop
endfacet
facet normal 1.0 0.0 0.0
  outer loop
    vertex -297.5000000000004 -176.24316900000053 3.024071450558248
    vertex -297.5000000000004 -175.7431690000005 2.524071450558249
    vertex -297.5000000000004 -171.9931690000005 3.024071450558248
  endloop
endfacet
facet normal 1.0 0.0 0.0
  outer loop
    vertex -297.5000000000004 -175.7431690000005 2.524071450558249
    vertex -297.5000000000004 -176.24316900000053 3.024071450558248
    vertex -297.5000000000004 -175.7431690000005 0.7740714505582523
  endloop
endfacet
facet normal 1.0 0.0 0.0
  outer loop
    vertex -297.5000000000004 -171.9931690000005 3.024071450558248
    vertex -297.5000000000004 -175.7431690000005 2.524071450558249
    vertex -297.5000000000004 -172.4931690000005 2.524071450558249
  endloop
endfacet
facet normal -1.014385613665587e-16 -0.9914448613738197 0.13052619221998144
  outer loop
    vertex -300.2500000000004 -179.8681690000005 -0.6326618097051425
    vertex -314.7670370868558 -179.85113191314505 -0.5032522871538868
    vertex -314.75000000000045 -179.8681690000005 -0.6326618097051537
  endloop
endfacet
facet normal -1.014385613665587e-16 -0.9914448613738197 0.13052619221998144
  outer loop
    vertex -314.7670370868558 -179.85113191314505 -0.5032522871538868
    vertex -300.2500000000004 -179.8681690000005 -0.6326618097051425
    vertex -300.232962913145 -179.85113191314505 -0.5032522871538755
  endloop
endfacet
facet normal 3.440671944337544e-16 0.1859116071629125 -0.9825664732332886
  outer loop
    vertex -297.5000000000004 -175.60859166176223 0.1623797128095414
    vertex -317.5000000000004 -176.34337833956366 0.023350572376482324
    vertex -317.5000000000004 -175.60859166176226 0.16237971280953012
  endloop
endfacet
facet normal 3.440671944337544e-16 0.1859116071629125 -0.9825664732332886
  outer loop
    vertex -317.5000000000004 -176.34337833956366 0.023350572376482324
    vertex -297.5000000000004 -175.60859166176223 0.1623797128095414
    vertex -297.5000000000004 -176.34337833956366 0.023350572376493604
  endloop
endfacet
facet normal 0.0 -0.9238795325112517 -0.382683432365175
  outer loop
    vertex -300.232962913145 -179.85113191314505 -0.7620713322564096
    vertex -314.8169872981082 -179.80118170189272 -0.8826618097051421
    vertex -300.1830127018926 -179.80118170189272 -0.8826618097051421
  endloop
endfacet
facet normal 0.0 -0.9238795325112517 -0.382683432365175
  outer loop
    vertex -314.8169872981082 -179.80118170189272 -0.8826618097051421
    vertex -300.232962913145 -179.85113191314505 -0.7620713322564096
    vertex -314.7670370868558 -179.85113191314505 -0.7620713322564096
  endloop
endfacet
facet normal -1.0 0.0 0.0
  outer loop
    vertex -317.5000000000004 -171.9931690000005 3.024071450558248
    vertex -317.5000000000004 -175.7431690000005 2.524071450558249
    vertex -317.5000000000004 -176.24316900000053 3.024071450558248
  endloop
endfacet
facet normal -1.0 0.0 0.0
  outer loop
    vertex -317.5000000000004 -175.7431690000005 2.524071450558249
    vertex -317.5000000000004 -171.9931690000005 3.024071450558248
    vertex -317.5000000000004 -172.4931690000005 2.524071450558249
  endloop
endfacet
facet normal -1.0 0.0 0.0
  outer loop
    vertex -317.5000000000004 -172.4931690000005 2.524071450558249
    vertex -317.5000000000004 -171.9931690000005 3.024071450558248
    vertex -317.5000000000004 -172.4931690000005 0.7740714505582523
  endloop
endfacet
facet normal -1.0 0.0 0.0
  outer loop
    vertex -317.5000000000004 -176.24316900000053 3.024071450558248
    vertex -317.5000000000004 -177.1181690000005 -0.1885529300657094
    vertex -317.5000000000004 -177.1181690000005 1.2740714505582513
  endloop
endfacet
facet normal -1.0 0.0 0.0
  outer loop
    vertex -317.5000000000004 -177.1181690000005 -0.1885529300657094
    vertex -317.5000000000004 -176.24316900000053 3.024071450558248
    vertex -317.5000000000004 -177.06572074410957 -0.1702004915803405
  endloop
endfacet
facet normal -1.0 0.0 0.0
  outer loop
    vertex -317.5000000000004 -177.06572074410957 -0.1702004915803405
    vertex -317.5000000000004 -176.24316900000053 3.024071450558248
    vertex -317.5000000000004 -176.34337833956366 0.023350572376482324
  endloop
endfacet
facet normal -1.0 0.0 0.0
  outer loop
    vertex -317.5000000000004 -176.34337833956366 0.023350572376482324
    vertex -317.5000000000004 -176.24316900000053 3.024071450558248
    vertex -317.5000000000004 -175.60859166176226 0.16237971280953012
  endloop
endfacet
facet normal -1.0 0.0 0.0
  outer loop
    vertex -317.5000000000004 -175.60859166176226 0.16237971280953012
    vertex -317.5000000000004 -176.24316900000053 3.024071450558248
    vertex -317.5000000000004 -175.7431690000005 0.7740714505582523
  endloop
endfacet
facet normal -1.0 0.0 0.0
  outer loop
    vertex -317.5000000000004 -175.7431690000005 0.7740714505582523
    vertex -317.5000000000004 -176.24316900000053 3.024071450558248
    vertex -317.5000000000004 -175.7431690000005 2.524071450558249
  endloop
endfacet
facet normal -1.0 0.0 0.0
  outer loop
    vertex -317.5000000000004 -175.60859166176226 0.16237971280953012
    vertex -317.5000000000004 -175.7431690000005 0.7740714505582523
    vertex -317.5000000000004 -172.4931690000005 0.7740714505582523
  endloop
endfacet
facet normal -1.0 0.0 0.0
  outer loop
    vertex -317.5000000000004 -175.60859166176226 0.16237971280953012
    vertex -317.5000000000004 -172.4931690000005 0.7740714505582523
    vertex -317.5000000000004 -174.86546993586472 0.2461094223700505
  endloop
endfacet
facet normal -1.0 0.0 0.0
  outer loop
    vertex -317.5000000000004 -174.86546993586472 0.2461094223700505
    vertex -317.5000000000004 -172.4931690000005 0.7740714505582523
    vertex -317.5000000000004 -174.1181690000005 0.27407145055825327
  endloop
endfacet
facet normal -1.0 0.0 0.0
  outer loop
    vertex -317.5000000000004 -174.1181690000005 0.27407145055825327
    vertex -317.5000000000004 -172.4931690000005 0.7740714505582523
    vertex -317.5000000000004 -173.3708680641363 0.2461094223700505
  endloop
endfacet
facet normal -1.0 0.0 0.0
  outer loop
    vertex -317.5000000000004 -173.3708680641363 0.2461094223700505
    vertex -317.5000000000004 -172.4931690000005 0.7740714505582523
    vertex -317.5000000000004 -172.62774633823875 0.16237971280953012
  endloop
endfacet
facet normal -1.0 0.0 0.0
  outer loop
    vertex -317.5000000000004 -172.62774633823875 0.16237971280953012
    vertex -317.5000000000004 -172.4931690000005 0.7740714505582523
    vertex -317.5000000000004 -171.89295966043736 0.023350572376482324
  endloop
endfacet
facet normal -1.0 0.0 0.0
  outer loop
    vertex -317.5000000000004 -171.89295966043736 0.023350572376482324
    vertex -317.5000000000004 -172.4931690000005 0.7740714505582523
    vertex -317.5000000000004 -171.9931690000005 3.024071450558248
  endloop
endfacet
facet normal -1.0 0.0 0.0
  outer loop
    vertex -317.5000000000004 -171.89295966043736 0.023350572376482324
    vertex -317.5000000000004 -171.9931690000005 3.024071450558248
    vertex -317.5000000000004 -171.11816900000048 1.2740714505582513
  endloop
endfacet
facet normal -1.0 0.0 0.0
  outer loop
    vertex -317.5000000000004 -171.89295966043736 0.023350572376482324
    vertex -317.5000000000004 -171.11816900000048 1.2740714505582513
    vertex -317.5000000000004 -171.17061725589144 -0.1702004915803405
  endloop
endfacet
facet normal -1.0 0.0 0.0
  outer loop
    vertex -317.5000000000004 -171.17061725589144 -0.1702004915803405
    vertex -317.5000000000004 -171.11816900000048 1.2740714505582513
    vertex -317.5000000000004 -171.1181690000005 -0.1885529300657094
  endloop
endfacet
facet normal 0.0 0.0 1.0
  outer loop
    vertex -297.5000000000004 -175.7431690000005 0.7740714505582523
    vertex -317.5000000000004 -172.4931690000005 0.7740714505582523
    vertex -317.5000000000004 -175.7431690000005 0.7740714505582523
  endloop
endfacet
facet normal 0.0 0.0 1.0
  outer loop
    vertex -317.5000000000004 -172.4931690000005 0.7740714505582523
    vertex -297.5000000000004 -175.7431690000005 0.7740714505582523
    vertex -297.5000000000004 -172.4931690000005 0.7740714505582523
  endloop
endfacet
facet normal 0.0 -0.8944271909999194 0.447213595499951
  outer loop
    vertex -297.5000000000004 -176.24316900000053 3.024071450558248
    vertex -317.5000000000004 -177.1181690000005 1.2740714505582513
    vertex -297.5000000000004 -177.1181690000005 1.2740714505582513
  endloop
endfacet
facet normal 0.0 -0.8944271909999194 0.447213595499951
  outer loop
    vertex -317.5000000000004 -177.1181690000005 1.2740714505582513
    vertex -297.5000000000004 -176.24316900000053 3.024071450558248
    vertex -317.5000000000004 -176.24316900000053 3.024071450558248
  endloop
endfacet
facet normal 1.0097787574901341e-15 0.8944271909999147 0.44721359549996026
  outer loop
    vertex -317.5000000000004 -171.9931690000005 3.024071450558248
    vertex -297.5000000000004 -171.1181690000005 1.2740714505582513
    vertex -317.5000000000004 -171.11816900000048 1.2740714505582513
  endloop
endfacet
facet normal 1.0097787574901341e-15 0.8944271909999147 0.44721359549996026
  outer loop
    vertex -297.5000000000004 -171.1181690000005 1.2740714505582513
    vertex -317.5000000000004 -171.9931690000005 3.024071450558248
    vertex -297.5000000000004 -171.9931690000005 3.024071450558248
  endloop
endfacet
facet normal 0.0 0.0 -1.0
  outer loop
    vertex -297.5000000000004 -172.4931690000005 2.524071450558249
    vertex -317.5000000000004 -175.7431690000005 2.524071450558249
    vertex -317.5000000000004 -172.4931690000005 2.524071450558249
  endloop
endfacet
facet normal 0.0 0.0 -1.0
  outer loop
    vertex -317.5000000000004 -175.7431690000005 2.524071450558249
    vertex -297.5000000000004 -172.4931690000005 2.524071450558249
    vertex -297.5000000000004 -175.7431690000005 2.524071450558249
  endloop
endfacet
facet normal 0.0 -1.0 0.0
  outer loop
    vertex -297.5000000000004 -172.4931690000005 2.524071450558249
    vertex -317.5000000000004 -172.4931690000005 0.7740714505582523
    vertex -297.5000000000004 -172.4931690000005 0.7740714505582523
  endloop
endfacet
facet normal 0.0 -1.0 0.0
  outer loop
    vertex -317.5000000000004 -172.4931690000005 0.7740714505582523
    vertex -297.5000000000004 -172.4931690000005 2.524071450558249
    vertex -317.5000000000004 -172.4931690000005 2.524071450558249
  endloop
endfacet
facet normal 0.0 1.0 0.0
  outer loop
    vertex -317.5000000000004 -175.7431690000005 2.524071450558249
    vertex -297.5000000000004 -175.7431690000005 0.7740714505582523
    vertex -317.5000000000004 -175.7431690000005 0.7740714505582523
  endloop
endfacet
facet normal 0.0 1.0 0.0
  outer loop
    vertex -297.5000000000004 -175.7431690000005 0.7740714505582523
    vertex -317.5000000000004 -175.7431690000005 2.524071450558249
    vertex -297.5000000000004 -175.7431690000005 2.524071450558249
  endloop
endfacet
facet normal 0.0 0.0 1.0
  outer loop
    vertex -297.5000000000004 -176.24316900000053 3.024071450558248
    vertex -317.5000000000004 -171.9931690000005 3.024071450558248
    vertex -317.5000000000004 -176.24316900000053 3.024071450558248
  endloop
endfacet
facet normal 0.0 0.0 1.0
  outer loop
    vertex -317.5000000000004 -171.9931690000005 3.024071450558248
    vertex -297.5000000000004 -176.24316900000053 3.024071450558248
    vertex -297.5000000000004 -171.9931690000005 3.024071450558248
  endloop
endfacet
endsolid ProtoGlove
