solid ProtoGlove
facet normal 0.0 0.7933533402912517 0.6087614290086991
  outer loop
    vertex -309.89644660940706 -188.5146156094072 -0.27910841911186784
    vertex -300.1830127018926 -188.43515629810824 -0.38266180970514296
    vertex -309.8169872981081 -188.43515629810824 -0.38266180970514296
  endloop
endfacet
facet normal 0.0 0.7933533402912517 0.6087614290086991
  outer loop
    vertex -300.1830127018926 -188.43515629810824 -0.38266180970514296
    vertex -309.89644660940706 -188.5146156094072 -0.27910841911186784
    vertex -300.1035533905936 -188.5146156094072 -0.27910841911186784
  endloop
endfacet
facet normal 0.0 0.46726862827306676 -0.8841153935046073
  outer loop
    vertex -298.83883739117596 -198.457006391176 -0.716239870417553
    vertex -310.5000000000003 -199.11816900000042 -1.0656745115973594
    vertex -311.1611626088247 -198.457006391176 -0.716239870417553
  endloop
endfacet
facet normal 0.0 0.46726862827306676 -0.8841153935046073
  outer loop
    vertex -310.5000000000003 -199.11816900000042 -1.0656745115973594
    vertex -298.83883739117596 -198.457006391176 -0.716239870417553
    vertex -299.5000000000004 -199.11816900000042 -1.0656745115973594
  endloop
endfacet
facet normal -0.7071067811865517 -0.7071067811865434 1.0198865567722291e-14
  outer loop
    vertex -309.7670370868558 -199.85113191314503 -0.5032522871538868
    vertex -309.7670370868558 -199.85113191314503 -0.7620713322564096
    vertex -309.7500000000003 -199.86816900000042 -0.6326618097051425
  endloop
endfacet
facet normal -0.7071067811865517 -0.7071067811865434 1.0198865567722291e-14
  outer loop
    vertex -309.7670370868558 -199.85113191314503 -0.7620713322564096
    vertex -309.7670370868558 -199.85113191314503 -0.5032522871538868
    vertex -309.8169872981081 -199.80118170189263 -0.38266180970514296
  endloop
endfacet
facet normal -0.7071067811865517 -0.7071067811865434 1.0198865567722291e-14
  outer loop
    vertex -309.7670370868558 -199.85113191314503 -0.7620713322564096
    vertex -309.8169872981081 -199.80118170189263 -0.38266180970514296
    vertex -309.8169872981081 -199.80118170189263 -0.8826618097051421
  endloop
endfacet
facet normal -0.7071067811865517 -0.7071067811865434 1.0198865567722291e-14
  outer loop
    vertex -309.8169872981081 -199.80118170189263 -0.8826618097051421
    vertex -309.8169872981081 -199.80118170189263 -0.38266180970514296
    vertex -309.89644660940706 -199.72172239059375 -0.27910841911186784
  endloop
endfacet
facet normal -0.7071067811865517 -0.7071067811865434 1.0198865567722291e-14
  outer loop
    vertex -309.8169872981081 -199.80118170189263 -0.8826618097051421
    vertex -309.89644660940706 -199.72172239059375 -0.27910841911186784
    vertex -309.89644660940706 -199.72172239059375 -0.9862152002984171
  endloop
endfacet
facet normal -0.7071067811865517 -0.7071067811865434 1.0198865567722291e-14
  outer loop
    vertex -309.89644660940706 -199.72172239059375 -0.9862152002984171
    vertex -309.89644660940706 -199.72172239059375 -0.27910841911186784
    vertex -310.00000000000034 -199.61816900000048 -0.19964910781292575
  endloop
endfacet
facet normal -0.7071067811865517 -0.7071067811865434 1.0198865567722291e-14
  outer loop
    vertex -309.89644660940706 -199.72172239059375 -0.9862152002984171
    vertex -310.00000000000034 -199.61816900000048 -0.19964910781292575
    vertex -310.00000000000034 -199.61816900000048 -1.0656745115973705
  endloop
endfacet
facet normal -0.7071067811865517 -0.7071067811865434 1.0198865567722291e-14
  outer loop
    vertex -310.00000000000034 -199.61816900000048 -1.0656745115973705
    vertex -310.00000000000034 -199.61816900000048 -0.19964910781292575
    vertex -312.5000000000003 -197.11816900000048 1.2740714505582513
  endloop
endfacet
facet normal -0.7071067811865517 -0.7071067811865434 1.0198865567722291e-14
  outer loop
    vertex -310.00000000000034 -199.61816900000048 -1.0656745115973705
    vertex -312.5000000000003 -197.11816900000048 1.2740714505582513
    vertex -310.1205904774491 -199.49757852255172 -1.1156247228496843
  endloop
endfacet
facet normal -0.7071067811865517 -0.7071067811865434 1.0198865567722291e-14
  outer loop
    vertex -310.1205904774491 -199.49757852255172 -1.1156247228496843
    vertex -312.5000000000003 -197.11816900000048 1.2740714505582513
    vertex -310.25000000000034 -199.36816900000045 -1.1326618097051415
  endloop
endfacet
facet normal -0.7071067811865517 -0.7071067811865434 1.0198865567722291e-14
  outer loop
    vertex -310.25000000000034 -199.36816900000045 -1.1326618097051415
    vertex -312.5000000000003 -197.11816900000048 1.2740714505582513
    vertex -310.3794095225516 -199.23875947744918 -1.1156247228496843
  endloop
endfacet
facet normal -0.7071067811865517 -0.7071067811865434 1.0198865567722291e-14
  outer loop
    vertex -310.3794095225516 -199.23875947744918 -1.1156247228496843
    vertex -312.5000000000003 -197.11816900000048 1.2740714505582513
    vertex -310.5000000000003 -199.11816900000042 -1.0656745115973594
  endloop
endfacet
facet normal -0.7071067811865517 -0.7071067811865434 1.0198865567722291e-14
  outer loop
    vertex -310.5000000000003 -199.11816900000042 -1.0656745115973594
    vertex -312.5000000000003 -197.11816900000048 1.2740714505582513
    vertex -311.1611626088247 -198.457006391176 -0.716239870417553
  endloop
endfacet
facet normal -0.7071067811865517 -0.7071067811865434 1.0198865567722291e-14
  outer loop
    vertex -311.1611626088247 -198.457006391176 -0.716239870417553
    vertex -312.5000000000003 -197.11816900000048 1.2740714505582513
    vertex -311.8465897563364 -197.7715792436644 -0.4171910629997058
  endloop
endfacet
facet normal -0.7071067811865517 -0.7071067811865434 1.0198865567722291e-14
  outer loop
    vertex -311.8465897563364 -197.7715792436644 -0.4171910629997058
    vertex -312.5000000000003 -197.11816900000048 1.2740714505582513
    vertex -312.5000000000003 -197.11816900000048 -0.1885529300657094
  endloop
endfacet
facet normal 0.0 0.6087614290087409 0.7933533402912196
  outer loop
    vertex -300.00000000000034 -188.61816900000045 -0.19964910781292575
    vertex -309.89644660940706 -188.5146156094072 -0.27910841911186784
    vertex -310.00000000000034 -188.61816900000045 -0.19964910781292575
  endloop
endfacet
facet normal 0.0 0.6087614290087409 0.7933533402912196
  outer loop
    vertex -309.89644660940706 -188.5146156094072 -0.27910841911186784
    vertex -300.00000000000034 -188.61816900000045 -0.19964910781292575
    vertex -300.1035533905936 -188.5146156094072 -0.27910841911186784
  endloop
endfacet
facet normal 4.567052075863841e-16 -0.6087614290087682 -0.7933533402911987
  outer loop
    vertex -300.00000000000034 -199.61816900000048 -1.0656745115973594
    vertex -309.89644660940706 -199.72172239059375 -0.9862152002984171
    vertex -310.00000000000034 -199.61816900000048 -1.0656745115973705
  endloop
endfacet
facet normal 4.567052075863841e-16 -0.6087614290087682 -0.7933533402911987
  outer loop
    vertex -309.89644660940706 -199.72172239059375 -0.9862152002984171
    vertex -300.00000000000034 -199.61816900000048 -1.0656745115973594
    vertex -300.1035533905936 -199.72172239059375 -0.9862152002984171
  endloop
endfacet
facet normal 3.3456626490045745e-18 0.5078217901011489 0.8614621462945803
  outer loop
    vertex -297.5000000000004 -191.11816900000048 1.2740714505582513
    vertex -310.00000000000034 -188.61816900000045 -0.19964910781292575
    vertex -312.5000000000003 -191.11816900000048 1.2740714505582513
  endloop
endfacet
facet normal 3.3456626490045745e-18 0.5078217901011489 0.8614621462945803
  outer loop
    vertex -310.00000000000034 -188.61816900000045 -0.19964910781292575
    vertex -297.5000000000004 -191.11816900000048 1.2740714505582513
    vertex -300.00000000000034 -188.61816900000045 -0.19964910781292575
  endloop
endfacet
facet normal -1.3718930543863034e-15 0.3826834323651076 -0.9238795325112795
  outer loop
    vertex -310.00000000000034 -188.61816900000045 -1.0656745115973594
    vertex -299.87940952255167 -188.73875947744918 -1.1156247228496843
    vertex -310.1205904774491 -188.73875947744924 -1.1156247228496843
  endloop
endfacet
facet normal -1.3718930543863034e-15 0.3826834323651076 -0.9238795325112795
  outer loop
    vertex -299.87940952255167 -188.73875947744918 -1.1156247228496843
    vertex -310.00000000000034 -188.61816900000045 -1.0656745115973594
    vertex -300.00000000000034 -188.61816900000045 -1.0656745115973705
  endloop
endfacet
facet normal 7.557200522166041e-19 -0.3998920243197358 -0.9165622558699786
  outer loop
    vertex -311.1611626088247 -189.7793316088249 -0.716239870417553
    vertex -298.15341024366427 -190.46475875633652 -0.4171910629997058
    vertex -311.8465897563364 -190.46475875633652 -0.4171910629997058
  endloop
endfacet
facet normal 7.557200522166041e-19 -0.3998920243197358 -0.9165622558699786
  outer loop
    vertex -298.15341024366427 -190.46475875633652 -0.4171910629997058
    vertex -311.1611626088247 -189.7793316088249 -0.716239870417553
    vertex -298.83883739117596 -189.7793316088249 -0.716239870417553
  endloop
endfacet
facet normal 7.751697199042401e-17 0.991444861373819 0.13052619221998704
  outer loop
    vertex -309.7670370868558 -188.38520608685593 -0.5032522871538755
    vertex -300.2500000000004 -188.36816900000048 -0.6326618097051425
    vertex -309.7500000000003 -188.36816900000048 -0.6326618097051425
  endloop
endfacet
facet normal 7.751697199042401e-17 0.991444861373819 0.13052619221998704
  outer loop
    vertex -300.2500000000004 -188.36816900000048 -0.6326618097051425
    vertex -309.7670370868558 -188.38520608685593 -0.5032522871538755
    vertex -300.2329629131449 -188.38520608685593 -0.5032522871538868
  endloop
endfacet
facet normal -2.240970244902142e-16 -0.9238795325111356 0.3826834323654548
  outer loop
    vertex -300.2329629131449 -199.85113191314503 -0.5032522871538755
    vertex -309.8169872981081 -199.80118170189263 -0.38266180970514296
    vertex -309.7670370868558 -199.85113191314503 -0.5032522871538868
  endloop
endfacet
facet normal -2.240970244902142e-16 -0.9238795325111356 0.3826834323654548
  outer loop
    vertex -309.8169872981081 -199.80118170189263 -0.38266180970514296
    vertex -300.2329629131449 -199.85113191314503 -0.5032522871538755
    vertex -300.1830127018926 -199.80118170189263 -0.38266180970514296
  endloop
endfacet
facet normal 0.0 -0.13052619221998146 -0.9914448613738197
  outer loop
    vertex -299.7500000000004 -199.36816900000045 -1.1326618097051415
    vertex -310.1205904774491 -199.49757852255172 -1.1156247228496843
    vertex -310.25000000000034 -199.36816900000045 -1.1326618097051415
  endloop
endfacet
facet normal 0.0 -0.13052619221998146 -0.9914448613738197
  outer loop
    vertex -310.1205904774491 -199.49757852255172 -1.1156247228496843
    vertex -299.7500000000004 -199.36816900000045 -1.1326618097051415
    vertex -299.87940952255167 -199.49757852255172 -1.1156247228496843
  endloop
endfacet
facet normal 0.0 0.13052619221998146 -0.9914448613738197
  outer loop
    vertex -299.6205904774491 -199.23875947744918 -1.1156247228496843
    vertex -310.25000000000034 -199.36816900000045 -1.1326618097051415
    vertex -310.3794095225516 -199.23875947744918 -1.1156247228496843
  endloop
endfacet
facet normal 0.0 0.13052619221998146 -0.9914448613738197
  outer loop
    vertex -310.25000000000034 -199.36816900000045 -1.1326618097051415
    vertex -299.6205904774491 -199.23875947744918 -1.1156247228496843
    vertex -299.7500000000004 -199.36816900000045 -1.1326618097051415
  endloop
endfacet
facet normal 1.6821001336296782e-30 0.18591160716291807 -0.9825664732332877
  outer loop
    vertex -297.5000000000004 -195.60859166176223 0.1623797128095414
    vertex -312.5000000000003 -196.3433783395636 0.023350572376493604
    vertex -312.5000000000003 -195.60859166176223 0.1623797128095414
  endloop
endfacet
facet normal 1.6821001336296782e-30 0.18591160716291807 -0.9825664732332877
  outer loop
    vertex -312.5000000000003 -196.3433783395636 0.023350572376493604
    vertex -297.5000000000004 -195.60859166176223 0.1623797128095414
    vertex -297.5000000000004 -196.3433783395636 0.023350572376493604
  endloop
endfacet
facet normal -0.707106781186552 0.7071067811865431 1.977010863896936e-14
  outer loop
    vertex -310.00000000000034 -188.61816900000045 -0.19964910781292575
    vertex -312.5000000000003 -191.11816900000048 -0.1885529300657094
    vertex -312.5000000000003 -191.11816900000048 1.2740714505582513
  endloop
endfacet
facet normal -0.707106781186552 0.7071067811865431 1.977010863896936e-14
  outer loop
    vertex -312.5000000000003 -191.11816900000048 -0.1885529300657094
    vertex -310.00000000000034 -188.61816900000045 -0.19964910781292575
    vertex -311.8465897563364 -190.46475875633652 -0.4171910629997058
  endloop
endfacet
facet normal -0.707106781186552 0.7071067811865431 1.977010863896936e-14
  outer loop
    vertex -311.8465897563364 -190.46475875633652 -0.4171910629997058
    vertex -310.00000000000034 -188.61816900000045 -0.19964910781292575
    vertex -311.1611626088247 -189.7793316088249 -0.716239870417553
  endloop
endfacet
facet normal -0.707106781186552 0.7071067811865431 1.977010863896936e-14
  outer loop
    vertex -311.1611626088247 -189.7793316088249 -0.716239870417553
    vertex -310.00000000000034 -188.61816900000045 -0.19964910781292575
    vertex -310.5000000000003 -189.11816900000048 -1.0656745115973594
  endloop
endfacet
facet normal -0.707106781186552 0.7071067811865431 1.977010863896936e-14
  outer loop
    vertex -310.5000000000003 -189.11816900000048 -1.0656745115973594
    vertex -310.00000000000034 -188.61816900000045 -0.19964910781292575
    vertex -310.3794095225516 -188.99757852255172 -1.1156247228496843
  endloop
endfacet
facet normal -0.707106781186552 0.7071067811865431 1.977010863896936e-14
  outer loop
    vertex -310.3794095225516 -188.99757852255172 -1.1156247228496843
    vertex -310.00000000000034 -188.61816900000045 -0.19964910781292575
    vertex -310.25000000000034 -188.86816900000045 -1.1326618097051415
  endloop
endfacet
facet normal -0.707106781186552 0.7071067811865431 1.977010863896936e-14
  outer loop
    vertex -310.25000000000034 -188.86816900000045 -1.1326618097051415
    vertex -310.00000000000034 -188.61816900000045 -0.19964910781292575
    vertex -310.1205904774491 -188.73875947744924 -1.1156247228496843
  endloop
endfacet
facet normal -0.707106781186552 0.7071067811865431 1.977010863896936e-14
  outer loop
    vertex -310.1205904774491 -188.73875947744924 -1.1156247228496843
    vertex -310.00000000000034 -188.61816900000045 -0.19964910781292575
    vertex -310.00000000000034 -188.61816900000045 -1.0656745115973594
  endloop
endfacet
facet normal -0.707106781186552 0.7071067811865431 1.977010863896936e-14
  outer loop
    vertex -310.00000000000034 -188.61816900000045 -1.0656745115973594
    vertex -310.00000000000034 -188.61816900000045 -0.19964910781292575
    vertex -309.89644660940706 -188.5146156094072 -0.27910841911186784
  endloop
endfacet
facet normal -0.707106781186552 0.7071067811865431 1.977010863896936e-14
  outer loop
    vertex -310.00000000000034 -188.61816900000045 -1.0656745115973594
    vertex -309.89644660940706 -188.5146156094072 -0.27910841911186784
    vertex -309.89644660940706 -188.5146156094072 -0.9862152002984171
  endloop
endfacet
facet normal -0.707106781186552 0.7071067811865431 1.977010863896936e-14
  outer loop
    vertex -309.89644660940706 -188.5146156094072 -0.9862152002984171
    vertex -309.89644660940706 -188.5146156094072 -0.27910841911186784
    vertex -309.8169872981081 -188.43515629810824 -0.38266180970514296
  endloop
endfacet
facet normal -0.707106781186552 0.7071067811865431 1.977010863896936e-14
  outer loop
    vertex -309.89644660940706 -188.5146156094072 -0.9862152002984171
    vertex -309.8169872981081 -188.43515629810824 -0.38266180970514296
    vertex -309.8169872981081 -188.43515629810824 -0.8826618097051421
  endloop
endfacet
facet normal -0.707106781186552 0.7071067811865431 1.977010863896936e-14
  outer loop
    vertex -309.8169872981081 -188.43515629810824 -0.8826618097051421
    vertex -309.8169872981081 -188.43515629810824 -0.38266180970514296
    vertex -309.7670370868558 -188.38520608685593 -0.5032522871538755
  endloop
endfacet
facet normal -0.707106781186552 0.7071067811865431 1.977010863896936e-14
  outer loop
    vertex -309.8169872981081 -188.43515629810824 -0.8826618097051421
    vertex -309.7670370868558 -188.38520608685593 -0.5032522871538755
    vertex -309.7670370868558 -188.38520608685593 -0.7620713322564096
  endloop
endfacet
facet normal -0.707106781186552 0.7071067811865431 1.977010863896936e-14
  outer loop
    vertex -309.7670370868558 -188.38520608685593 -0.7620713322564096
    vertex -309.7670370868558 -188.38520608685593 -0.5032522871538755
    vertex -309.7500000000003 -188.36816900000048 -0.6326618097051425
  endloop
endfacet
facet normal 0.0 0.11196447610329367 -0.9937122098932442
  outer loop
    vertex -297.5000000000004 -194.8654699358647 0.2461094223700505
    vertex -312.5000000000003 -195.60859166176223 0.1623797128095414
    vertex -312.5000000000003 -194.8654699358647 0.2461094223700505
  endloop
endfacet
facet normal 0.0 0.11196447610329367 -0.9937122098932442
  outer loop
    vertex -312.5000000000003 -195.60859166176223 0.1623797128095414
    vertex -297.5000000000004 -194.8654699358647 0.2461094223700505
    vertex -297.5000000000004 -195.60859166176223 0.1623797128095414
  endloop
endfacet
facet normal 5.085782975367728e-16 -0.3826834323650464 -0.9238795325113047
  outer loop
    vertex -299.87940952255167 -199.49757852255172 -1.1156247228496843
    vertex -310.00000000000034 -199.61816900000048 -1.0656745115973705
    vertex -310.1205904774491 -199.49757852255172 -1.1156247228496843
  endloop
endfacet
facet normal 5.085782975367728e-16 -0.3826834323650464 -0.9238795325113047
  outer loop
    vertex -310.00000000000034 -199.61816900000048 -1.0656745115973705
    vertex -299.87940952255167 -199.49757852255172 -1.1156247228496843
    vertex -300.00000000000034 -199.61816900000048 -1.0656745115973594
  endloop
endfacet
facet normal 0.7071067811865512 0.7071067811865439 -7.060753085346206e-15
  outer loop
    vertex -298.15341024366427 -190.46475875633652 -0.4171910629997058
    vertex -297.5000000000004 -191.11816900000048 1.2740714505582513
    vertex -297.5000000000004 -191.11816900000048 -0.1885529300657094
  endloop
endfacet
facet normal 0.7071067811865512 0.7071067811865439 -7.060753085346206e-15
  outer loop
    vertex -297.5000000000004 -191.11816900000048 1.2740714505582513
    vertex -298.15341024366427 -190.46475875633652 -0.4171910629997058
    vertex -300.00000000000034 -188.61816900000045 -0.19964910781292575
  endloop
endfacet
facet normal 0.7071067811865512 0.7071067811865439 -7.060753085346206e-15
  outer loop
    vertex -300.00000000000034 -188.61816900000045 -0.19964910781292575
    vertex -298.15341024366427 -190.46475875633652 -0.4171910629997058
    vertex -298.83883739117596 -189.7793316088249 -0.716239870417553
  endloop
endfacet
facet normal 0.7071067811865512 0.7071067811865439 -7.060753085346206e-15
  outer loop
    vertex -300.00000000000034 -188.61816900000045 -0.19964910781292575
    vertex -298.83883739117596 -189.7793316088249 -0.716239870417553
    vertex -299.5000000000004 -189.11816900000048 -1.0656745115973594
  endloop
endfacet
facet normal 0.7071067811865512 0.7071067811865439 -7.060753085346206e-15
  outer loop
    vertex -300.00000000000034 -188.61816900000045 -0.19964910781292575
    vertex -299.5000000000004 -189.11816900000048 -1.0656745115973594
    vertex -299.6205904774491 -188.99757852255172 -1.1156247228496843
  endloop
endfacet
facet normal 0.7071067811865512 0.7071067811865439 -7.060753085346206e-15
  outer loop
    vertex -300.00000000000034 -188.61816900000045 -0.19964910781292575
    vertex -299.6205904774491 -188.99757852255172 -1.1156247228496843
    vertex -299.7500000000004 -188.86816900000045 -1.1326618097051415
  endloop
endfacet
facet normal 0.7071067811865512 0.7071067811865439 -7.060753085346206e-15
  outer loop
    vertex -300.00000000000034 -188.61816900000045 -0.19964910781292575
    vertex -299.7500000000004 -188.86816900000045 -1.1326618097051415
    vertex -299.87940952255167 -188.73875947744918 -1.1156247228496843
  endloop
endfacet
facet normal 0.7071067811865512 0.7071067811865439 -7.060753085346206e-15
  outer loop
    vertex -300.00000000000034 -188.61816900000045 -0.19964910781292575
    vertex -299.87940952255167 -188.73875947744918 -1.1156247228496843
    vertex -300.00000000000034 -188.61816900000045 -1.0656745115973705
  endloop
endfacet
facet normal 0.7071067811865512 0.7071067811865439 -7.060753085346206e-15
  outer loop
    vertex -300.00000000000034 -188.61816900000045 -0.19964910781292575
    vertex -300.00000000000034 -188.61816900000045 -1.0656745115973705
    vertex -300.1035533905936 -188.5146156094072 -0.9862152002984171
  endloop
endfacet
facet normal 0.7071067811865512 0.7071067811865439 -7.060753085346206e-15
  outer loop
    vertex -300.00000000000034 -188.61816900000045 -0.19964910781292575
    vertex -300.1035533905936 -188.5146156094072 -0.9862152002984171
    vertex -300.1035533905936 -188.5146156094072 -0.27910841911186784
  endloop
endfacet
facet normal 0.7071067811865512 0.7071067811865439 -7.060753085346206e-15
  outer loop
    vertex -300.1035533905936 -188.5146156094072 -0.27910841911186784
    vertex -300.1035533905936 -188.5146156094072 -0.9862152002984171
    vertex -300.1830127018926 -188.43515629810824 -0.8826618097051421
  endloop
endfacet
facet normal 0.7071067811865512 0.7071067811865439 -7.060753085346206e-15
  outer loop
    vertex -300.1035533905936 -188.5146156094072 -0.27910841911186784
    vertex -300.1830127018926 -188.43515629810824 -0.8826618097051421
    vertex -300.1830127018926 -188.43515629810824 -0.38266180970514296
  endloop
endfacet
facet normal 0.7071067811865512 0.7071067811865439 -7.060753085346206e-15
  outer loop
    vertex -300.1830127018926 -188.43515629810824 -0.38266180970514296
    vertex -300.1830127018926 -188.43515629810824 -0.8826618097051421
    vertex -300.2329629131449 -188.38520608685593 -0.7620713322564096
  endloop
endfacet
facet normal 0.7071067811865512 0.7071067811865439 -7.060753085346206e-15
  outer loop
    vertex -300.1830127018926 -188.43515629810824 -0.38266180970514296
    vertex -300.2329629131449 -188.38520608685593 -0.7620713322564096
    vertex -300.2329629131449 -188.38520608685593 -0.5032522871538868
  endloop
endfacet
facet normal 0.7071067811865512 0.7071067811865439 -7.060753085346206e-15
  outer loop
    vertex -300.2329629131449 -188.38520608685593 -0.5032522871538868
    vertex -300.2329629131449 -188.38520608685593 -0.7620713322564096
    vertex -300.2500000000004 -188.36816900000048 -0.6326618097051425
  endloop
endfacet
facet normal 2.5361894193865034e-19 -0.33027906195517426 -0.9438833303083652
  outer loop
    vertex -311.8465897563364 -190.46475875633652 -0.4171910629997058
    vertex -312.5000000000003 -191.17061725589141 -0.1702004915803405
    vertex -312.5000000000003 -191.11816900000048 -0.1885529300657094
  endloop
endfacet
facet normal 2.5361894193865034e-19 -0.33027906195517426 -0.9438833303083652
  outer loop
    vertex -312.5000000000003 -191.17061725589141 -0.1702004915803405
    vertex -311.8465897563364 -190.46475875633652 -0.4171910629997058
    vertex -297.5000000000004 -191.17061725589141 -0.1702004915803405
  endloop
endfacet
facet normal 2.5361894193865034e-19 -0.33027906195517426 -0.9438833303083652
  outer loop
    vertex -297.5000000000004 -191.17061725589141 -0.1702004915803405
    vertex -311.8465897563364 -190.46475875633652 -0.4171910629997058
    vertex -298.15341024366427 -190.46475875633652 -0.4171910629997058
  endloop
endfacet
facet normal 2.5361894193865034e-19 -0.33027906195517426 -0.9438833303083652
  outer loop
    vertex -297.5000000000004 -191.17061725589141 -0.1702004915803405
    vertex -298.15341024366427 -190.46475875633652 -0.4171910629997058
    vertex -297.5000000000004 -191.11816900000048 -0.1885529300657094
  endloop
endfacet
facet normal 3.7912047520771696e-19 -0.507821790101149 0.8614621462945803
  outer loop
    vertex -310.00000000000034 -199.61816900000048 -0.19964910781292575
    vertex -297.5000000000004 -197.11816900000048 1.2740714505582513
    vertex -312.5000000000003 -197.11816900000048 1.2740714505582513
  endloop
endfacet
facet normal 3.7912047520771696e-19 -0.507821790101149 0.8614621462945803
  outer loop
    vertex -297.5000000000004 -197.11816900000048 1.2740714505582513
    vertex -310.00000000000034 -199.61816900000048 -0.19964910781292575
    vertex -300.00000000000034 -199.61816900000048 -0.19964910781292575
  endloop
endfacet
facet normal 1.0 0.0 0.0
  outer loop
    vertex -297.5000000000004 -197.06572074410954 -0.1702004915803405
    vertex -297.5000000000004 -197.11816900000048 1.2740714505582513
    vertex -297.5000000000004 -197.11816900000048 -0.1885529300657094
  endloop
endfacet
facet normal 1.0 0.0 0.0
  outer loop
    vertex -297.5000000000004 -197.11816900000048 1.2740714505582513
    vertex -297.5000000000004 -197.06572074410954 -0.1702004915803405
    vertex -297.5000000000004 -196.24316900000048 3.024071450558248
  endloop
endfacet
facet normal 1.0 0.0 0.0
  outer loop
    vertex -297.5000000000004 -196.24316900000048 3.024071450558248
    vertex -297.5000000000004 -197.06572074410954 -0.1702004915803405
    vertex -297.5000000000004 -196.3433783395636 0.023350572376493604
  endloop
endfacet
facet normal 1.0 0.0 0.0
  outer loop
    vertex -297.5000000000004 -196.24316900000048 3.024071450558248
    vertex -297.5000000000004 -196.3433783395636 0.023350572376493604
    vertex -297.5000000000004 -195.60859166176223 0.1623797128095414
  endloop
endfacet
facet normal 1.0 0.0 0.0
  outer loop
    vertex -297.5000000000004 -196.24316900000048 3.024071450558248
    vertex -297.5000000000004 -195.60859166176223 0.1623797128095414
    vertex -297.5000000000004 -195.74316900000045 0.7740714505582523
  endloop
endfacet
facet normal 1.0 0.0 0.0
  outer loop
    vertex -297.5000000000004 -195.74316900000045 0.7740714505582523
    vertex -297.5000000000004 -195.60859166176223 0.1623797128095414
    vertex -297.5000000000004 -192.49316900000048 0.7740714505582523
  endloop
endfacet
facet normal 1.0 0.0 0.0
  outer loop
    vertex -297.5000000000004 -192.49316900000048 0.7740714505582523
    vertex -297.5000000000004 -195.60859166176223 0.1623797128095414
    vertex -297.5000000000004 -194.8654699358647 0.2461094223700505
  endloop
endfacet
facet normal 1.0 0.0 0.0
  outer loop
    vertex -297.5000000000004 -192.49316900000048 0.7740714505582523
    vertex -297.5000000000004 -194.8654699358647 0.2461094223700505
    vertex -297.5000000000004 -194.11816900000048 0.27407145055825327
  endloop
endfacet
facet normal 1.0 0.0 0.0
  outer loop
    vertex -297.5000000000004 -192.49316900000048 0.7740714505582523
    vertex -297.5000000000004 -194.11816900000048 0.27407145055825327
    vertex -297.5000000000004 -193.37086806413623 0.2461094223700505
  endloop
endfacet
facet normal 1.0 0.0 0.0
  outer loop
    vertex -297.5000000000004 -192.49316900000048 0.7740714505582523
    vertex -297.5000000000004 -193.37086806413623 0.2461094223700505
    vertex -297.5000000000004 -192.6277463382387 0.1623797128095414
  endloop
endfacet
facet normal 1.0 0.0 0.0
  outer loop
    vertex -297.5000000000004 -192.49316900000048 0.7740714505582523
    vertex -297.5000000000004 -192.6277463382387 0.1623797128095414
    vertex -297.5000000000004 -191.89295966043733 0.023350572376493604
  endloop
endfacet
facet normal 1.0 0.0 0.0
  outer loop
    vertex -297.5000000000004 -192.49316900000048 0.7740714505582523
    vertex -297.5000000000004 -191.89295966043733 0.023350572376493604
    vertex -297.5000000000004 -192.49316900000048 2.524071450558249
  endloop
endfacet
facet normal 1.0 0.0 0.0
  outer loop
    vertex -297.5000000000004 -192.49316900000048 2.524071450558249
    vertex -297.5000000000004 -191.89295966043733 0.023350572376493604
    vertex -297.5000000000004 -191.99316900000045 3.024071450558248
  endloop
endfacet
facet normal 1.0 0.0 0.0
  outer loop
    vertex -297.5000000000004 -191.99316900000045 3.024071450558248
    vertex -297.5000000000004 -191.89295966043733 0.023350572376493604
    vertex -297.5000000000004 -191.11816900000048 1.2740714505582513
  endloop
endfacet
facet normal 1.0 0.0 0.0
  outer loop
    vertex -297.5000000000004 -191.11816900000048 1.2740714505582513
    vertex -297.5000000000004 -191.89295966043733 0.023350572376493604
    vertex -297.5000000000004 -191.17061725589141 -0.1702004915803405
  endloop
endfacet
facet normal 1.0 0.0 0.0
  outer loop
    vertex -297.5000000000004 -191.11816900000048 1.2740714505582513
    vertex -297.5000000000004 -191.17061725589141 -0.1702004915803405
    vertex -297.5000000000004 -191.11816900000048 -0.1885529300657094
  endloop
endfacet
facet normal 1.0 0.0 0.0
  outer loop
    vertex -297.5000000000004 -196.24316900000048 3.024071450558248
    vertex -297.5000000000004 -195.74316900000045 2.524071450558249
    vertex -297.5000000000004 -191.99316900000045 3.024071450558248
  endloop
endfacet
facet normal 1.0 0.0 0.0
  outer loop
    vertex -297.5000000000004 -195.74316900000045 2.524071450558249
    vertex -297.5000000000004 -196.24316900000048 3.024071450558248
    vertex -297.5000000000004 -195.74316900000045 0.7740714505582523
  endloop
endfacet
facet normal 1.0 0.0 0.0
  outer loop
    vertex -297.5000000000004 -191.99316900000045 3.024071450558248
    vertex -297.5000000000004 -195.74316900000045 2.524071450558249
    vertex -297.5000000000004 -192.49316900000048 2.524071450558249
  endloop
endfacet
facet normal -3.2022504879060947e-20 -0.3826834323650834 -0.9238795325112895
  outer loop
    vertex -310.3794095225516 -188.99757852255172 -1.1156247228496843
    vertex -299.5000000000004 -189.11816900000048 -1.0656745115973594
    vertex -310.5000000000003 -189.11816900000048 -1.0656745115973594
  endloop
endfacet
facet normal -3.2022504879060947e-20 -0.3826834323650834 -0.9238795325112895
  outer loop
    vertex -299.5000000000004 -189.11816900000048 -1.0656745115973594
    vertex -310.3794095225516 -188.99757852255172 -1.1156247228496843
    vertex -299.6205904774491 -188.99757852255172 -1.1156247228496843
  endloop
endfacet
facet normal 0.0 0.03739119427633206 -0.9993007047883984
  outer loop
    vertex -297.5000000000004 -194.11816900000048 0.27407145055825327
    vertex -312.5000000000003 -194.8654699358647 0.2461094223700505
    vertex -312.5000000000003 -194.11816900000048 0.27407145055825327
  endloop
endfacet
facet normal 0.0 0.03739119427633206 -0.9993007047883984
  outer loop
    vertex -312.5000000000003 -194.8654699358647 0.2461094223700505
    vertex -297.5000000000004 -194.11816900000048 0.27407145055825327
    vertex -297.5000000000004 -194.8654699358647 0.2461094223700505
  endloop
endfacet
facet normal 0.0 -0.03739119427633206 -0.9993007047883984
  outer loop
    vertex -297.5000000000004 -193.37086806413623 0.2461094223700505
    vertex -312.5000000000003 -194.11816900000048 0.27407145055825327
    vertex -312.5000000000003 -193.37086806413623 0.2461094223700505
  endloop
endfacet
facet normal 0.0 -0.03739119427633206 -0.9993007047883984
  outer loop
    vertex -312.5000000000003 -194.11816900000048 0.27407145055825327
    vertex -297.5000000000004 -193.37086806413623 0.2461094223700505
    vertex -297.5000000000004 -194.11816900000048 0.27407145055825327
  endloop
endfacet
facet normal 0.7071067811865515 -0.7071067811865436 -2.055463675956336e-14
  outer loop
    vertex -300.2329629131449 -199.85113191314503 -0.7620713322564096
    vertex -300.2329629131449 -199.85113191314503 -0.5032522871538755
    vertex -300.2500000000004 -199.86816900000042 -0.6326618097051425
  endloop
endfacet
facet normal 0.7071067811865515 -0.7071067811865436 -2.055463675956336e-14
  outer loop
    vertex -300.2329629131449 -199.85113191314503 -0.5032522871538755
    vertex -300.2329629131449 -199.85113191314503 -0.7620713322564096
    vertex -300.1830127018926 -199.80118170189263 -0.8826618097051421
  endloop
endfacet
facet normal 0.7071067811865515 -0.7071067811865436 -2.055463675956336e-14
  outer loop
    vertex -300.2329629131449 -199.85113191314503 -0.5032522871538755
    vertex -300.1830127018926 -199.80118170189263 -0.8826618097051421
    vertex -300.1830127018926 -199.80118170189263 -0.38266180970514296
  endloop
endfacet
facet normal 0.7071067811865515 -0.7071067811865436 -2.055463675956336e-14
  outer loop
    vertex -300.1830127018926 -199.80118170189263 -0.38266180970514296
    vertex -300.1830127018926 -199.80118170189263 -0.8826618097051421
    vertex -300.1035533905936 -199.72172239059375 -0.9862152002984171
  endloop
endfacet
facet normal 0.7071067811865515 -0.7071067811865436 -2.055463675956336e-14
  outer loop
    vertex -300.1830127018926 -199.80118170189263 -0.38266180970514296
    vertex -300.1035533905936 -199.72172239059375 -0.9862152002984171
    vertex -300.1035533905936 -199.72172239059375 -0.27910841911186784
  endloop
endfacet
facet normal 0.7071067811865515 -0.7071067811865436 -2.055463675956336e-14
  outer loop
    vertex -300.1035533905936 -199.72172239059375 -0.27910841911186784
    vertex -300.1035533905936 -199.72172239059375 -0.9862152002984171
    vertex -300.00000000000034 -199.61816900000048 -1.0656745115973594
  endloop
endfacet
facet normal 0.7071067811865515 -0.7071067811865436 -2.055463675956336e-14
  outer loop
    vertex -300.1035533905936 -199.72172239059375 -0.27910841911186784
    vertex -300.00000000000034 -199.61816900000048 -1.0656745115973594
    vertex -300.00000000000034 -199.61816900000048 -0.19964910781292575
  endloop
endfacet
facet normal 0.7071067811865515 -0.7071067811865436 -2.055463675956336e-14
  outer loop
    vertex -300.00000000000034 -199.61816900000048 -0.19964910781292575
    vertex -300.00000000000034 -199.61816900000048 -1.0656745115973594
    vertex -299.87940952255167 -199.49757852255172 -1.1156247228496843
  endloop
endfacet
facet normal 0.7071067811865515 -0.7071067811865436 -2.055463675956336e-14
  outer loop
    vertex -300.00000000000034 -199.61816900000048 -0.19964910781292575
    vertex -299.87940952255167 -199.49757852255172 -1.1156247228496843
    vertex -297.5000000000004 -197.11816900000048 1.2740714505582513
  endloop
endfacet
facet normal 0.7071067811865515 -0.7071067811865436 -2.055463675956336e-14
  outer loop
    vertex -297.5000000000004 -197.11816900000048 1.2740714505582513
    vertex -299.87940952255167 -199.49757852255172 -1.1156247228496843
    vertex -299.7500000000004 -199.36816900000045 -1.1326618097051415
  endloop
endfacet
facet normal 0.7071067811865515 -0.7071067811865436 -2.055463675956336e-14
  outer loop
    vertex -297.5000000000004 -197.11816900000048 1.2740714505582513
    vertex -299.7500000000004 -199.36816900000045 -1.1326618097051415
    vertex -299.6205904774491 -199.23875947744918 -1.1156247228496843
  endloop
endfacet
facet normal 0.7071067811865515 -0.7071067811865436 -2.055463675956336e-14
  outer loop
    vertex -297.5000000000004 -197.11816900000048 1.2740714505582513
    vertex -299.6205904774491 -199.23875947744918 -1.1156247228496843
    vertex -299.5000000000004 -199.11816900000042 -1.0656745115973594
  endloop
endfacet
facet normal 0.7071067811865515 -0.7071067811865436 -2.055463675956336e-14
  outer loop
    vertex -297.5000000000004 -197.11816900000048 1.2740714505582513
    vertex -299.5000000000004 -199.11816900000042 -1.0656745115973594
    vertex -298.83883739117596 -198.457006391176 -0.716239870417553
  endloop
endfacet
facet normal 0.7071067811865515 -0.7071067811865436 -2.055463675956336e-14
  outer loop
    vertex -297.5000000000004 -197.11816900000048 1.2740714505582513
    vertex -298.83883739117596 -198.457006391176 -0.716239870417553
    vertex -298.15341024366427 -197.7715792436644 -0.4171910629997058
  endloop
endfacet
facet normal 0.7071067811865515 -0.7071067811865436 -2.055463675956336e-14
  outer loop
    vertex -297.5000000000004 -197.11816900000048 1.2740714505582513
    vertex -298.15341024366427 -197.7715792436644 -0.4171910629997058
    vertex -297.5000000000004 -197.11816900000048 -0.1885529300657094
  endloop
endfacet
facet normal 9.628547575548283e-20 0.39989202431975784 -0.9165622558699689
  outer loop
    vertex -298.15341024366427 -197.7715792436644 -0.4171910629997058
    vertex -311.1611626088247 -198.457006391176 -0.716239870417553
    vertex -311.8465897563364 -197.7715792436644 -0.4171910629997058
  endloop
endfacet
facet normal 9.628547575548283e-20 0.39989202431975784 -0.9165622558699689
  outer loop
    vertex -311.1611626088247 -198.457006391176 -0.716239870417553
    vertex -298.15341024366427 -197.7715792436644 -0.4171910629997058
    vertex -298.83883739117596 -198.457006391176 -0.716239870417553
  endloop
endfacet
facet normal 0.0 -0.258819045102519 -0.965925826289069
  outer loop
    vertex -297.5000000000004 -191.17061725589141 -0.1702004915803405
    vertex -312.5000000000003 -191.89295966043733 0.023350572376493604
    vertex -312.5000000000003 -191.17061725589141 -0.1702004915803405
  endloop
endfacet
facet normal 0.0 -0.258819045102519 -0.965925826289069
  outer loop
    vertex -312.5000000000003 -191.89295966043733 0.023350572376493604
    vertex -297.5000000000004 -191.17061725589141 -0.1702004915803405
    vertex -297.5000000000004 -191.89295966043733 0.023350572376493604
  endloop
endfacet
facet normal 0.0 -0.13052619221998146 -0.9914448613738197
  outer loop
    vertex -310.25000000000034 -188.86816900000045 -1.1326618097051415
    vertex -299.6205904774491 -188.99757852255172 -1.1156247228496843
    vertex -310.3794095225516 -188.99757852255172 -1.1156247228496843
  endloop
endfacet
facet normal 0.0 -0.13052619221998146 -0.9914448613738197
  outer loop
    vertex -299.6205904774491 -188.99757852255172 -1.1156247228496843
    vertex -310.25000000000034 -188.86816900000045 -1.1326618097051415
    vertex -299.7500000000004 -188.86816900000045 -1.1326618097051415
  endloop
endfacet
facet normal -2.803556798335864e-16 0.13052619222000383 -0.9914448613738168
  outer loop
    vertex -310.1205904774491 -188.73875947744924 -1.1156247228496843
    vertex -299.7500000000004 -188.86816900000045 -1.1326618097051415
    vertex -310.25000000000034 -188.86816900000045 -1.1326618097051415
  endloop
endfacet
facet normal -2.803556798335864e-16 0.13052619222000383 -0.9914448613738168
  outer loop
    vertex -299.7500000000004 -188.86816900000045 -1.1326618097051415
    vertex -310.1205904774491 -188.73875947744924 -1.1156247228496843
    vertex -299.87940952255167 -188.73875947744918 -1.1156247228496843
  endloop
endfacet
facet normal 0.0 -0.9914448613738645 -0.13052619221964168
  outer loop
    vertex -300.2500000000004 -199.86816900000042 -0.6326618097051425
    vertex -309.7670370868558 -199.85113191314503 -0.7620713322564096
    vertex -300.2329629131449 -199.85113191314503 -0.7620713322564096
  endloop
endfacet
facet normal 0.0 -0.9914448613738645 -0.13052619221964168
  outer loop
    vertex -309.7670370868558 -199.85113191314503 -0.7620713322564096
    vertex -300.2500000000004 -199.86816900000042 -0.6326618097051425
    vertex -309.7500000000003 -199.86816900000042 -0.6326618097051425
  endloop
endfacet
facet normal -2.9406255421487194e-19 -0.7933533402914188 -0.6087614290084816
  outer loop
    vertex -300.1830127018926 -199.80118170189263 -0.8826618097051421
    vertex -309.89644660940706 -199.72172239059375 -0.9862152002984171
    vertex -300.1035533905936 -199.72172239059375 -0.9862152002984171
  endloop
endfacet
facet normal -2.9406255421487194e-19 -0.7933533402914188 -0.6087614290084816
  outer loop
    vertex -309.89644660940706 -199.72172239059375 -0.9862152002984171
    vertex -300.1830127018926 -199.80118170189263 -0.8826618097051421
    vertex -309.8169872981081 -199.80118170189263 -0.8826618097051421
  endloop
endfacet
facet normal -2.9406255421487194e-19 -0.7933533402914188 0.6087614290084816
  outer loop
    vertex -300.1035533905936 -199.72172239059375 -0.27910841911186784
    vertex -309.8169872981081 -199.80118170189263 -0.38266180970514296
    vertex -300.1830127018926 -199.80118170189263 -0.38266180970514296
  endloop
endfacet
facet normal -2.9406255421487194e-19 -0.7933533402914188 0.6087614290084816
  outer loop
    vertex -309.8169872981081 -199.80118170189263 -0.38266180970514296
    vertex -300.1035533905936 -199.72172239059375 -0.27910841911186784
    vertex -309.89644660940706 -199.72172239059375 -0.27910841911186784
  endloop
endfacet
facet normal 1.6821001336296782e-30 -0.18591160716291807 -0.9825664732332877
  outer loop
    vertex -297.5000000000004 -191.89295966043733 0.023350572376493604
    vertex -312.5000000000003 -192.6277463382387 0.1623797128095414
    vertex -312.5000000000003 -191.89295966043733 0.023350572376493604
  endloop
endfacet
facet normal 1.6821001336296782e-30 -0.18591160716291807 -0.9825664732332877
  outer loop
    vertex -312.5000000000003 -192.6277463382387 0.1623797128095414
    vertex -297.5000000000004 -191.89295966043733 0.023350572376493604
    vertex -297.5000000000004 -192.6277463382387 0.1623797128095414
  endloop
endfacet
facet normal 0.0 0.258819045102519 -0.965925826289069
  outer loop
    vertex -297.5000000000004 -196.3433783395636 0.023350572376493604
    vertex -312.5000000000003 -197.06572074410954 -0.1702004915803405
    vertex -312.5000000000003 -196.3433783395636 0.023350572376493604
  endloop
endfacet
facet normal 0.0 0.258819045102519 -0.965925826289069
  outer loop
    vertex -312.5000000000003 -197.06572074410954 -0.1702004915803405
    vertex -297.5000000000004 -196.3433783395636 0.023350572376493604
    vertex -297.5000000000004 -197.06572074410954 -0.1702004915803405
  endloop
endfacet
facet normal 2.1736455115804536e-19 -0.6087614290087409 0.7933533402912196
  outer loop
    vertex -309.89644660940706 -199.72172239059375 -0.27910841911186784
    vertex -300.00000000000034 -199.61816900000048 -0.19964910781292575
    vertex -310.00000000000034 -199.61816900000048 -0.19964910781292575
  endloop
endfacet
facet normal 2.1736455115804536e-19 -0.6087614290087409 0.7933533402912196
  outer loop
    vertex -300.00000000000034 -199.61816900000048 -0.19964910781292575
    vertex -309.89644660940706 -199.72172239059375 -0.27910841911186784
    vertex -300.1035533905936 -199.72172239059375 -0.27910841911186784
  endloop
endfacet
facet normal -1.4570677795203064e-19 -0.9238795325111294 -0.38268343236547003
  outer loop
    vertex -300.2329629131449 -199.85113191314503 -0.7620713322564096
    vertex -309.8169872981081 -199.80118170189263 -0.8826618097051421
    vertex -300.1830127018926 -199.80118170189263 -0.8826618097051421
  endloop
endfacet
facet normal -1.4570677795203064e-19 -0.9238795325111294 -0.38268343236547003
  outer loop
    vertex -309.8169872981081 -199.80118170189263 -0.8826618097051421
    vertex -300.2329629131449 -199.85113191314503 -0.7620713322564096
    vertex -309.7670370868558 -199.85113191314503 -0.7620713322564096
  endloop
endfacet
facet normal -7.746657083808293e-17 -0.9914448613738638 0.13052619221964726
  outer loop
    vertex -300.2329629131449 -199.85113191314503 -0.5032522871538755
    vertex -309.7500000000003 -199.86816900000042 -0.6326618097051425
    vertex -300.2500000000004 -199.86816900000042 -0.6326618097051425
  endloop
endfacet
facet normal -7.746657083808293e-17 -0.9914448613738638 0.13052619221964726
  outer loop
    vertex -309.7500000000003 -199.86816900000042 -0.6326618097051425
    vertex -300.2329629131449 -199.85113191314503 -0.5032522871538755
    vertex -309.7670370868558 -199.85113191314503 -0.5032522871538868
  endloop
endfacet
facet normal 4.456783163469038e-29 0.9914448613738197 -0.13052619221998146
  outer loop
    vertex -309.7500000000003 -188.36816900000048 -0.6326618097051425
    vertex -300.2329629131449 -188.38520608685593 -0.7620713322564096
    vertex -309.7670370868558 -188.38520608685593 -0.7620713322564096
  endloop
endfacet
facet normal 4.456783163469038e-29 0.9914448613738197 -0.13052619221998146
  outer loop
    vertex -300.2329629131449 -188.38520608685593 -0.7620713322564096
    vertex -309.7500000000003 -188.36816900000048 -0.6326618097051425
    vertex -300.2500000000004 -188.36816900000048 -0.6326618097051425
  endloop
endfacet
facet normal 2.2409702449008236e-16 0.9238795325112578 0.38268343236515967
  outer loop
    vertex -309.7670370868558 -188.38520608685593 -0.5032522871538755
    vertex -300.1830127018926 -188.43515629810824 -0.38266180970514296
    vertex -300.2329629131449 -188.38520608685593 -0.5032522871538868
  endloop
endfacet
facet normal 2.2409702449008236e-16 0.9238795325112578 0.38268343236515967
  outer loop
    vertex -300.1830127018926 -188.43515629810824 -0.38266180970514296
    vertex -309.7670370868558 -188.38520608685593 -0.5032522871538755
    vertex -309.8169872981081 -188.43515629810824 -0.38266180970514296
  endloop
endfacet
facet normal 0.0 0.7933533402912517 -0.6087614290086991
  outer loop
    vertex -309.8169872981081 -188.43515629810824 -0.8826618097051421
    vertex -300.1035533905936 -188.5146156094072 -0.9862152002984171
    vertex -309.89644660940706 -188.5146156094072 -0.9862152002984171
  endloop
endfacet
facet normal 0.0 0.7933533402912517 -0.6087614290086991
  outer loop
    vertex -300.1035533905936 -188.5146156094072 -0.9862152002984171
    vertex -309.8169872981081 -188.43515629810824 -0.8826618097051421
    vertex -300.1830127018926 -188.43515629810824 -0.8826618097051421
  endloop
endfacet
facet normal 0.0 0.0 1.0
  outer loop
    vertex -297.5000000000004 -195.74316900000045 0.7740714505582523
    vertex -312.5000000000003 -192.49316900000048 0.7740714505582523
    vertex -312.5000000000003 -195.74316900000045 0.7740714505582523
  endloop
endfacet
facet normal 0.0 0.0 1.0
  outer loop
    vertex -312.5000000000003 -192.49316900000048 0.7740714505582523
    vertex -297.5000000000004 -195.74316900000045 0.7740714505582523
    vertex -297.5000000000004 -192.49316900000048 0.7740714505582523
  endloop
endfacet
facet normal -3.6293190579626246e-20 0.3302790619551742 -0.9438833303083652
  outer loop
    vertex -297.5000000000004 -197.06572074410954 -0.1702004915803405
    vertex -312.5000000000003 -197.11816900000048 -0.1885529300657094
    vertex -312.5000000000003 -197.06572074410954 -0.1702004915803405
  endloop
endfacet
facet normal -3.6293190579626246e-20 0.3302790619551742 -0.9438833303083652
  outer loop
    vertex -312.5000000000003 -197.11816900000048 -0.1885529300657094
    vertex -297.5000000000004 -197.06572074410954 -0.1702004915803405
    vertex -311.8465897563364 -197.7715792436644 -0.4171910629997058
  endloop
endfacet
facet normal -3.6293190579626246e-20 0.3302790619551742 -0.9438833303083652
  outer loop
    vertex -311.8465897563364 -197.7715792436644 -0.4171910629997058
    vertex -297.5000000000004 -197.06572074410954 -0.1702004915803405
    vertex -298.15341024366427 -197.7715792436644 -0.4171910629997058
  endloop
endfacet
facet normal -3.6293190579626246e-20 0.3302790619551742 -0.9438833303083652
  outer loop
    vertex -298.15341024366427 -197.7715792436644 -0.4171910629997058
    vertex -297.5000000000004 -197.06572074410954 -0.1702004915803405
    vertex -297.5000000000004 -197.11816900000048 -0.1885529300657094
  endloop
endfacet
facet normal 0.0 1.0 0.0
  outer loop
    vertex -312.50000000000045 -195.74316900000045 2.524071450558249
    vertex -297.5000000000004 -195.74316900000045 0.7740714505582523
    vertex -312.5000000000003 -195.74316900000045 0.7740714505582523
  endloop
endfacet
facet normal 0.0 1.0 0.0
  outer loop
    vertex -297.5000000000004 -195.74316900000045 0.7740714505582523
    vertex -312.50000000000045 -195.74316900000045 2.524071450558249
    vertex -297.5000000000004 -195.74316900000045 2.524071450558249
  endloop
endfacet
facet normal 0.0 -0.46726862827306676 -0.8841153935046073
  outer loop
    vertex -310.5000000000003 -189.11816900000048 -1.0656745115973594
    vertex -298.83883739117596 -189.7793316088249 -0.716239870417553
    vertex -311.1611626088247 -189.7793316088249 -0.716239870417553
  endloop
endfacet
facet normal 0.0 -0.46726862827306676 -0.8841153935046073
  outer loop
    vertex -298.83883739117596 -189.7793316088249 -0.716239870417553
    vertex -310.5000000000003 -189.11816900000048 -1.0656745115973594
    vertex -299.5000000000004 -189.11816900000048 -1.0656745115973594
  endloop
endfacet
facet normal 0.0 0.0 -1.0
  outer loop
    vertex -297.5000000000004 -192.49316900000048 2.524071450558249
    vertex -312.50000000000045 -195.74316900000045 2.524071450558249
    vertex -312.50000000000045 -192.49316900000048 2.524071450558249
  endloop
endfacet
facet normal 0.0 0.0 -1.0
  outer loop
    vertex -312.50000000000045 -195.74316900000045 2.524071450558249
    vertex -297.5000000000004 -192.49316900000048 2.524071450558249
    vertex -297.5000000000004 -195.74316900000045 2.524071450558249
  endloop
endfacet
facet normal 0.0 -1.0 0.0
  outer loop
    vertex -297.5000000000004 -192.49316900000048 2.524071450558249
    vertex -312.5000000000003 -192.49316900000048 0.7740714505582523
    vertex -297.5000000000004 -192.49316900000048 0.7740714505582523
  endloop
endfacet
facet normal 0.0 -1.0 0.0
  outer loop
    vertex -312.5000000000003 -192.49316900000048 0.7740714505582523
    vertex -297.5000000000004 -192.49316900000048 2.524071450558249
    vertex -312.50000000000045 -192.49316900000048 2.524071450558249
  endloop
endfacet
facet normal -6.0872003520272596e-30 0.8944271909999194 0.447213595499951
  outer loop
    vertex -312.50000000000045 -191.99316900000045 3.024071450558248
    vertex -297.5000000000004 -191.11816900000048 1.2740714505582513
    vertex -312.5000000000003 -191.11816900000048 1.2740714505582513
  endloop
endfacet
facet normal -6.0872003520272596e-30 0.8944271909999194 0.447213595499951
  outer loop
    vertex -297.5000000000004 -191.11816900000048 1.2740714505582513
    vertex -312.50000000000045 -191.99316900000045 3.024071450558248
    vertex -297.5000000000004 -191.99316900000045 3.024071450558248
  endloop
endfacet
facet normal 0.0 0.0 1.0
  outer loop
    vertex -297.5000000000004 -196.24316900000048 3.024071450558248
    vertex -312.50000000000045 -191.99316900000045 3.024071450558248
    vertex -312.50000000000045 -196.24316900000048 3.024071450558248
  endloop
endfacet
facet normal 0.0 0.0 1.0
  outer loop
    vertex -312.50000000000045 -191.99316900000045 3.024071450558248
    vertex -297.5000000000004 -196.24316900000048 3.024071450558248
    vertex -297.5000000000004 -191.99316900000045 3.024071450558248
  endloop
endfacet
facet normal -6.0872003520272596e-30 -0.8944271909999194 0.447213595499951
  outer loop
    vertex -297.5000000000004 -196.24316900000048 3.024071450558248
    vertex -312.5000000000003 -197.11816900000048 1.2740714505582513
    vertex -297.5000000000004 -197.11816900000048 1.2740714505582513
  endloop
endfacet
facet normal -6.0872003520272596e-30 -0.8944271909999194 0.447213595499951
  outer loop
    vertex -312.5000000000003 -197.11816900000048 1.2740714505582513
    vertex -297.5000000000004 -196.24316900000048 3.024071450558248
    vertex -312.50000000000045 -196.24316900000048 3.024071450558248
  endloop
endfacet
facet normal -4.566392971393168e-16 0.6087614290087682 -0.7933533402911987
  outer loop
    vertex -309.89644660940706 -188.5146156094072 -0.9862152002984171
    vertex -300.00000000000034 -188.61816900000045 -1.0656745115973705
    vertex -310.00000000000034 -188.61816900000045 -1.0656745115973594
  endloop
endfacet
facet normal -4.566392971393168e-16 0.6087614290087682 -0.7933533402911987
  outer loop
    vertex -300.00000000000034 -188.61816900000045 -1.0656745115973705
    vertex -309.89644660940706 -188.5146156094072 -0.9862152002984171
    vertex -300.1035533905936 -188.5146156094072 -0.9862152002984171
  endloop
endfacet
facet normal 1.9410498542898747e-19 0.3826834323650834 -0.9238795325112895
  outer loop
    vertex -299.5000000000004 -199.11816900000042 -1.0656745115973594
    vertex -310.3794095225516 -199.23875947744918 -1.1156247228496843
    vertex -310.5000000000003 -199.11816900000042 -1.0656745115973594
  endloop
endfacet
facet normal 1.9410498542898747e-19 0.3826834323650834 -0.9238795325112895
  outer loop
    vertex -310.3794095225516 -199.23875947744918 -1.1156247228496843
    vertex -299.5000000000004 -199.11816900000042 -1.0656745115973594
    vertex -299.6205904774491 -199.23875947744918 -1.1156247228496843
  endloop
endfacet
facet normal 0.0 0.9238795325112517 -0.38268343236517494
  outer loop
    vertex -309.7670370868558 -188.38520608685593 -0.7620713322564096
    vertex -300.1830127018926 -188.43515629810824 -0.8826618097051421
    vertex -309.8169872981081 -188.43515629810824 -0.8826618097051421
  endloop
endfacet
facet normal 0.0 0.9238795325112517 -0.38268343236517494
  outer loop
    vertex -300.1830127018926 -188.43515629810824 -0.8826618097051421
    vertex -309.7670370868558 -188.38520608685593 -0.7620713322564096
    vertex -300.2329629131449 -188.38520608685593 -0.7620713322564096
  endloop
endfacet
facet normal -1.0 -1.9050015880809323e-31 -5.3018630154285635e-14
  outer loop
    vertex -312.50000000000045 -191.99316900000045 3.024071450558248
    vertex -312.50000000000045 -195.74316900000045 2.524071450558249
    vertex -312.50000000000045 -196.24316900000048 3.024071450558248
  endloop
endfacet
facet normal -1.0 -1.9050015880809323e-31 -5.3018630154285635e-14
  outer loop
    vertex -312.50000000000045 -195.74316900000045 2.524071450558249
    vertex -312.50000000000045 -191.99316900000045 3.024071450558248
    vertex -312.50000000000045 -192.49316900000048 2.524071450558249
  endloop
endfacet
facet normal -1.0 -1.9050015880809323e-31 -5.3018630154285635e-14
  outer loop
    vertex -312.50000000000045 -192.49316900000048 2.524071450558249
    vertex -312.50000000000045 -191.99316900000045 3.024071450558248
    vertex -312.5000000000003 -192.49316900000048 0.7740714505582523
  endloop
endfacet
facet normal -1.0 -1.9050015880809323e-31 -5.3018630154285635e-14
  outer loop
    vertex -312.50000000000045 -196.24316900000048 3.024071450558248
    vertex -312.5000000000003 -197.11816900000048 -0.1885529300657094
    vertex -312.5000000000003 -197.11816900000048 1.2740714505582513
  endloop
endfacet
facet normal -1.0 -1.9050015880809323e-31 -5.3018630154285635e-14
  outer loop
    vertex -312.5000000000003 -197.11816900000048 -0.1885529300657094
    vertex -312.50000000000045 -196.24316900000048 3.024071450558248
    vertex -312.5000000000003 -197.06572074410954 -0.1702004915803405
  endloop
endfacet
facet normal -1.0 -1.9050015880809323e-31 -5.3018630154285635e-14
  outer loop
    vertex -312.5000000000003 -197.06572074410954 -0.1702004915803405
    vertex -312.50000000000045 -196.24316900000048 3.024071450558248
    vertex -312.5000000000003 -196.3433783395636 0.023350572376493604
  endloop
endfacet
facet normal -1.0 -1.9050015880809323e-31 -5.3018630154285635e-14
  outer loop
    vertex -312.5000000000003 -196.3433783395636 0.023350572376493604
    vertex -312.50000000000045 -196.24316900000048 3.024071450558248
    vertex -312.5000000000003 -195.60859166176223 0.1623797128095414
  endloop
endfacet
facet normal -1.0 -1.9050015880809323e-31 -5.3018630154285635e-14
  outer loop
    vertex -312.5000000000003 -195.60859166176223 0.1623797128095414
    vertex -312.50000000000045 -196.24316900000048 3.024071450558248
    vertex -312.5000000000003 -195.74316900000045 0.7740714505582523
  endloop
endfacet
facet normal -1.0 -1.9050015880809323e-31 -5.3018630154285635e-14
  outer loop
    vertex -312.5000000000003 -195.74316900000045 0.7740714505582523
    vertex -312.50000000000045 -196.24316900000048 3.024071450558248
    vertex -312.50000000000045 -195.74316900000045 2.524071450558249
  endloop
endfacet
facet normal -1.0 -1.9050015880809323e-31 -5.3018630154285635e-14
  outer loop
    vertex -312.5000000000003 -195.60859166176223 0.1623797128095414
    vertex -312.5000000000003 -195.74316900000045 0.7740714505582523
    vertex -312.5000000000003 -192.49316900000048 0.7740714505582523
  endloop
endfacet
facet normal -1.0 -1.9050015880809323e-31 -5.3018630154285635e-14
  outer loop
    vertex -312.5000000000003 -195.60859166176223 0.1623797128095414
    vertex -312.5000000000003 -192.49316900000048 0.7740714505582523
    vertex -312.5000000000003 -194.8654699358647 0.2461094223700505
  endloop
endfacet
facet normal -1.0 -1.9050015880809323e-31 -5.3018630154285635e-14
  outer loop
    vertex -312.5000000000003 -194.8654699358647 0.2461094223700505
    vertex -312.5000000000003 -192.49316900000048 0.7740714505582523
    vertex -312.5000000000003 -194.11816900000048 0.27407145055825327
  endloop
endfacet
facet normal -1.0 -1.9050015880809323e-31 -5.3018630154285635e-14
  outer loop
    vertex -312.5000000000003 -194.11816900000048 0.27407145055825327
    vertex -312.5000000000003 -192.49316900000048 0.7740714505582523
    vertex -312.5000000000003 -193.37086806413623 0.2461094223700505
  endloop
endfacet
facet normal -1.0 -1.9050015880809323e-31 -5.3018630154285635e-14
  outer loop
    vertex -312.5000000000003 -193.37086806413623 0.2461094223700505
    vertex -312.5000000000003 -192.49316900000048 0.7740714505582523
    vertex -312.5000000000003 -192.6277463382387 0.1623797128095414
  endloop
endfacet
facet normal -1.0 -1.9050015880809323e-31 -5.3018630154285635e-14
  outer loop
    vertex -312.5000000000003 -192.6277463382387 0.1623797128095414
    vertex -312.5000000000003 -192.49316900000048 0.7740714505582523
    vertex -312.5000000000003 -191.89295966043733 0.023350572376493604
  endloop
endfacet
facet normal -1.0 -1.9050015880809323e-31 -5.3018630154285635e-14
  outer loop
    vertex -312.5000000000003 -191.89295966043733 0.023350572376493604
    vertex -312.5000000000003 -192.49316900000048 0.7740714505582523
    vertex -312.50000000000045 -191.99316900000045 3.024071450558248
  endloop
endfacet
facet normal -1.0 -1.9050015880809323e-31 -5.3018630154285635e-14
  outer loop
    vertex -312.5000000000003 -191.89295966043733 0.023350572376493604
    vertex -312.50000000000045 -191.99316900000045 3.024071450558248
    vertex -312.5000000000003 -191.11816900000048 1.2740714505582513
  endloop
endfacet
facet normal -1.0 -1.9050015880809323e-31 -5.3018630154285635e-14
  outer loop
    vertex -312.5000000000003 -191.89295966043733 0.023350572376493604
    vertex -312.5000000000003 -191.11816900000048 1.2740714505582513
    vertex -312.5000000000003 -191.17061725589141 -0.1702004915803405
  endloop
endfacet
facet normal -1.0 -1.9050015880809323e-31 -5.3018630154285635e-14
  outer loop
    vertex -312.5000000000003 -191.17061725589141 -0.1702004915803405
    vertex -312.5000000000003 -191.11816900000048 1.2740714505582513
    vertex -312.5000000000003 -191.11816900000048 -0.1885529300657094
  endloop
endfacet
facet normal 0.0 -0.11196447610329367 -0.9937122098932442
  outer loop
    vertex -297.5000000000004 -192.6277463382387 0.1623797128095414
    vertex -312.5000000000003 -193.37086806413623 0.2461094223700505
    vertex -312.5000000000003 -192.6277463382387 0.1623797128095414
  endloop
endfacet
facet normal 0.0 -0.11196447610329367 -0.9937122098932442
  outer loop
    vertex -312.5000000000003 -193.37086806413623 0.2461094223700505
    vertex -297.5000000000004 -192.6277463382387 0.1623797128095414
    vertex -297.5000000000004 -193.37086806413623 0.2461094223700505
  endloop
endfacet
endsolid ProtoGlove
