solid ProtoGlove
facet normal -3.5932020021337465e-16 0.6087614290087409 0.7933533402912196
  outer loop
    vertex -300.00000000000017 -128.61816900000056 -0.19964910781292575
    vertex -324.89644660940684 -128.51461560940731 -0.27910841911187917
    vertex -325.0000000000001 -128.61816900000056 -0.19964910781293702
  endloop
endfacet
facet normal -3.5932020021337465e-16 0.6087614290087409 0.7933533402912196
  outer loop
    vertex -324.89644660940684 -128.51461560940731 -0.27910841911187917
    vertex -300.00000000000017 -128.61816900000056 -0.19964910781292575
    vertex -300.10355339059345 -128.51461560940731 -0.27910841911186784
  endloop
endfacet
facet normal 3.736471612488326e-16 -0.11196447610329371 -0.9937122098932442
  outer loop
    vertex -297.5000000000002 -132.6277463382388 0.1623797128095414
    vertex -327.5000000000003 -133.37086806413635 0.24610942237003924
    vertex -327.5000000000003 -132.6277463382388 0.16237971280953012
  endloop
endfacet
facet normal 3.736471612488326e-16 -0.11196447610329371 -0.9937122098932442
  outer loop
    vertex -327.5000000000003 -133.37086806413635 0.24610942237003924
    vertex -297.5000000000002 -132.6277463382388 0.1623797128095414
    vertex -297.5000000000002 -133.37086806413635 0.2461094223700505
  endloop
endfacet
facet normal 9.995413994522581e-17 0.5078217901011522 0.8614621462945782
  outer loop
    vertex -297.5000000000002 -131.1181690000006 1.2740714505582513
    vertex -325.0000000000001 -128.61816900000056 -0.19964910781293702
    vertex -327.5000000000001 -131.11816900000053 1.2740714505582402
  endloop
endfacet
facet normal 9.995413994522581e-17 0.5078217901011522 0.8614621462945782
  outer loop
    vertex -325.0000000000001 -128.61816900000056 -0.19964910781293702
    vertex -297.5000000000002 -131.1181690000006 1.2740714505582513
    vertex -300.00000000000017 -128.61816900000056 -0.19964910781292575
  endloop
endfacet
facet normal 3.5983667426290676e-16 -0.33027906195517426 -0.9438833303083652
  outer loop
    vertex -326.8465897563362 -130.46475875633664 -0.4171910629997171
    vertex -327.5000000000003 -131.17061725589153 -0.17020049158035178
    vertex -327.5000000000003 -131.1181690000006 -0.18855293006572066
  endloop
endfacet
facet normal 3.5983667426290676e-16 -0.33027906195517426 -0.9438833303083652
  outer loop
    vertex -327.5000000000003 -131.17061725589153 -0.17020049158035178
    vertex -326.8465897563362 -130.46475875633664 -0.4171910629997171
    vertex -297.5000000000002 -131.17061725589153 -0.1702004915803405
  endloop
endfacet
facet normal 3.5983667426290676e-16 -0.33027906195517426 -0.9438833303083652
  outer loop
    vertex -297.5000000000002 -131.17061725589153 -0.1702004915803405
    vertex -326.8465897563362 -130.46475875633664 -0.4171910629997171
    vertex -298.1534102436641 -130.46475875633664 -0.4171910629997058
  endloop
endfacet
facet normal 3.5983667426290676e-16 -0.33027906195517426 -0.9438833303083652
  outer loop
    vertex -297.5000000000002 -131.17061725589153 -0.1702004915803405
    vertex -298.1534102436641 -130.46475875633664 -0.4171910629997058
    vertex -297.5000000000002 -131.1181690000006 -0.1885529300657094
  endloop
endfacet
facet normal 4.3633216080327003e-16 -0.13052619221998144 -0.9914448613738197
  outer loop
    vertex -325.2500000000002 -128.86816900000056 -1.1326618097051528
    vertex -299.62059047744896 -128.99757852255183 -1.1156247228496843
    vertex -325.37940952255144 -128.99757852255183 -1.1156247228496954
  endloop
endfacet
facet normal 4.3633216080327003e-16 -0.13052619221998144 -0.9914448613738197
  outer loop
    vertex -299.62059047744896 -128.99757852255183 -1.1156247228496843
    vertex -325.2500000000002 -128.86816900000056 -1.1326618097051528
    vertex -299.7500000000002 -128.86816900000056 -1.1326618097051415
  endloop
endfacet
facet normal 3.6945623673209793e-16 0.18591160716291807 -0.9825664732332877
  outer loop
    vertex -297.5000000000002 -135.60859166176235 0.1623797128095414
    vertex -327.5000000000003 -136.3433783395637 0.023350572376482324
    vertex -327.5000000000003 -135.60859166176235 0.16237971280953012
  endloop
endfacet
facet normal 3.6945623673209793e-16 0.18591160716291807 -0.9825664732332877
  outer loop
    vertex -327.5000000000003 -136.3433783395637 0.023350572376482324
    vertex -297.5000000000002 -135.60859166176235 0.1623797128095414
    vertex -297.5000000000002 -136.3433783395637 0.023350572376493604
  endloop
endfacet
facet normal 4.025659665377086e-16 -0.3826834323650834 -0.9238795325112895
  outer loop
    vertex -325.37940952255144 -128.99757852255183 -1.1156247228496954
    vertex -299.50000000000017 -129.1181690000006 -1.0656745115973594
    vertex -325.50000000000017 -129.1181690000006 -1.0656745115973705
  endloop
endfacet
facet normal 4.025659665377086e-16 -0.3826834323650834 -0.9238795325112895
  outer loop
    vertex -299.50000000000017 -129.1181690000006 -1.0656745115973594
    vertex -325.37940952255144 -128.99757852255183 -1.1156247228496954
    vertex -299.62059047744896 -128.99757852255183 -1.1156247228496843
  endloop
endfacet
facet normal -2.777462291399534e-16 0.7933533402912517 0.6087614290086991
  outer loop
    vertex -324.89644660940684 -128.51461560940731 -0.27910841911187917
    vertex -300.18301270189244 -128.43515629810835 -0.38266180970514296
    vertex -324.8169872981081 -128.43515629810835 -0.38266180970515423
  endloop
endfacet
facet normal -2.777462291399534e-16 0.7933533402912517 0.6087614290086991
  outer loop
    vertex -300.18301270189244 -128.43515629810835 -0.38266180970514296
    vertex -324.89644660940684 -128.51461560940731 -0.27910841911187917
    vertex -300.10355339059345 -128.51461560940731 -0.27910841911186784
  endloop
endfacet
facet normal -3.160826845020058e-20 0.3826834323651318 -0.9238795325112694
  outer loop
    vertex -325.0000000000001 -128.61816900000056 -1.0656745115973705
    vertex -299.8794095225515 -128.7387594774493 -1.1156247228496843
    vertex -325.1205904774489 -128.7387594774493 -1.1156247228496843
  endloop
endfacet
facet normal -3.160826845020058e-20 0.3826834323651318 -0.9238795325112694
  outer loop
    vertex -299.8794095225515 -128.7387594774493 -1.1156247228496843
    vertex -325.0000000000001 -128.61816900000056 -1.0656745115973705
    vertex -300.00000000000017 -128.61816900000056 -1.0656745115973705
  endloop
endfacet
facet normal -0.7071067811865436 0.7071067811865515 2.259440987310748e-14
  outer loop
    vertex -325.37940952255144 -128.99757852255183 -1.1156247228496954
    vertex -325.1205904774489 -128.7387594774493 -1.1156247228496843
    vertex -325.2500000000002 -128.86816900000056 -1.1326618097051528
  endloop
endfacet
facet normal -0.7071067811865436 0.7071067811865515 2.259440987310748e-14
  outer loop
    vertex -325.1205904774489 -128.7387594774493 -1.1156247228496843
    vertex -325.37940952255144 -128.99757852255183 -1.1156247228496954
    vertex -325.50000000000017 -129.1181690000006 -1.0656745115973705
  endloop
endfacet
facet normal -0.7071067811865436 0.7071067811865515 2.259440987310748e-14
  outer loop
    vertex -325.1205904774489 -128.7387594774493 -1.1156247228496843
    vertex -325.50000000000017 -129.1181690000006 -1.0656745115973705
    vertex -325.0000000000001 -128.61816900000056 -1.0656745115973705
  endloop
endfacet
facet normal -0.7071067811865436 0.7071067811865515 2.259440987310748e-14
  outer loop
    vertex -325.0000000000001 -128.61816900000056 -1.0656745115973705
    vertex -325.50000000000017 -129.1181690000006 -1.0656745115973705
    vertex -326.16116260882467 -129.779331608825 -0.7162398704175643
  endloop
endfacet
facet normal -0.7071067811865436 0.7071067811865515 2.259440987310748e-14
  outer loop
    vertex -325.0000000000001 -128.61816900000056 -1.0656745115973705
    vertex -326.16116260882467 -129.779331608825 -0.7162398704175643
    vertex -324.89644660940684 -128.51461560940731 -0.9862152002984285
  endloop
endfacet
facet normal -0.7071067811865436 0.7071067811865515 2.259440987310748e-14
  outer loop
    vertex -324.89644660940684 -128.51461560940731 -0.9862152002984285
    vertex -326.16116260882467 -129.779331608825 -0.7162398704175643
    vertex -324.8169872981081 -128.43515629810835 -0.8826618097051533
  endloop
endfacet
facet normal -0.7071067811865436 0.7071067811865515 2.259440987310748e-14
  outer loop
    vertex -324.8169872981081 -128.43515629810835 -0.8826618097051533
    vertex -326.16116260882467 -129.779331608825 -0.7162398704175643
    vertex -324.7670370868557 -128.38520608685604 -0.7620713322564096
  endloop
endfacet
facet normal -0.7071067811865436 0.7071067811865515 2.259440987310748e-14
  outer loop
    vertex -324.7670370868557 -128.38520608685604 -0.7620713322564096
    vertex -326.16116260882467 -129.779331608825 -0.7162398704175643
    vertex -324.75000000000017 -128.3681690000006 -0.6326618097051537
  endloop
endfacet
facet normal -0.7071067811865436 0.7071067811865515 2.259440987310748e-14
  outer loop
    vertex -324.75000000000017 -128.3681690000006 -0.6326618097051537
    vertex -326.16116260882467 -129.779331608825 -0.7162398704175643
    vertex -326.8465897563362 -130.46475875633664 -0.4171910629997171
  endloop
endfacet
facet normal -0.7071067811865436 0.7071067811865515 2.259440987310748e-14
  outer loop
    vertex -324.75000000000017 -128.3681690000006 -0.6326618097051537
    vertex -326.8465897563362 -130.46475875633664 -0.4171910629997171
    vertex -324.7670370868557 -128.38520608685604 -0.5032522871538868
  endloop
endfacet
facet normal -0.7071067811865436 0.7071067811865515 2.259440987310748e-14
  outer loop
    vertex -324.7670370868557 -128.38520608685604 -0.5032522871538868
    vertex -326.8465897563362 -130.46475875633664 -0.4171910629997171
    vertex -324.8169872981081 -128.43515629810835 -0.38266180970515423
  endloop
endfacet
facet normal -0.7071067811865436 0.7071067811865515 2.259440987310748e-14
  outer loop
    vertex -324.8169872981081 -128.43515629810835 -0.38266180970515423
    vertex -326.8465897563362 -130.46475875633664 -0.4171910629997171
    vertex -327.5000000000003 -131.1181690000006 -0.18855293006572066
  endloop
endfacet
facet normal -0.7071067811865436 0.7071067811865515 2.259440987310748e-14
  outer loop
    vertex -324.8169872981081 -128.43515629810835 -0.38266180970515423
    vertex -327.5000000000003 -131.1181690000006 -0.18855293006572066
    vertex -324.89644660940684 -128.51461560940731 -0.27910841911187917
  endloop
endfacet
facet normal -0.7071067811865436 0.7071067811865515 2.259440987310748e-14
  outer loop
    vertex -324.89644660940684 -128.51461560940731 -0.27910841911187917
    vertex -327.5000000000003 -131.1181690000006 -0.18855293006572066
    vertex -325.0000000000001 -128.61816900000056 -0.19964910781293702
  endloop
endfacet
facet normal -0.7071067811865436 0.7071067811865515 2.259440987310748e-14
  outer loop
    vertex -325.0000000000001 -128.61816900000056 -0.19964910781293702
    vertex -327.5000000000003 -131.1181690000006 -0.18855293006572066
    vertex -327.5000000000001 -131.11816900000053 1.2740714505582402
  endloop
endfacet
facet normal 1.7883040868003e-16 0.6087614290087681 -0.7933533402911987
  outer loop
    vertex -324.89644660940684 -128.51461560940731 -0.9862152002984285
    vertex -300.00000000000017 -128.61816900000056 -1.0656745115973705
    vertex -325.0000000000001 -128.61816900000056 -1.0656745115973705
  endloop
endfacet
facet normal 1.7883040868003e-16 0.6087614290087681 -0.7933533402911987
  outer loop
    vertex -300.00000000000017 -128.61816900000056 -1.0656745115973705
    vertex -324.89644660940684 -128.51461560940731 -0.9862152002984285
    vertex -300.10355339059345 -128.51461560940731 -0.9862152002984171
  endloop
endfacet
facet normal -7.271750450503747e-16 -0.5078217901011522 0.8614621462945782
  outer loop
    vertex -325.0000000000001 -139.61816900000053 -0.19964910781293702
    vertex -297.5000000000002 -137.11816900000056 1.2740714505582513
    vertex -327.5000000000001 -137.11816900000056 1.2740714505582402
  endloop
endfacet
facet normal -7.271750450503747e-16 -0.5078217901011522 0.8614621462945782
  outer loop
    vertex -297.5000000000002 -137.11816900000056 1.2740714505582513
    vertex -325.0000000000001 -139.61816900000053 -0.19964910781293702
    vertex -300.00000000000017 -139.6181690000006 -0.19964910781292575
  endloop
endfacet
facet normal -0.7071067811865424 -0.7071067811865527 2.855682358962215e-14
  outer loop
    vertex -325.1205904774489 -139.49757852255183 -1.1156247228496843
    vertex -325.37940952255144 -139.23875947744935 -1.1156247228496843
    vertex -325.2500000000002 -139.36816900000056 -1.1326618097051528
  endloop
endfacet
facet normal -0.7071067811865424 -0.7071067811865527 2.855682358962215e-14
  outer loop
    vertex -325.37940952255144 -139.23875947744935 -1.1156247228496843
    vertex -325.1205904774489 -139.49757852255183 -1.1156247228496843
    vertex -325.0000000000001 -139.61816900000053 -1.0656745115973705
  endloop
endfacet
facet normal -0.7071067811865424 -0.7071067811865527 2.855682358962215e-14
  outer loop
    vertex -325.37940952255144 -139.23875947744935 -1.1156247228496843
    vertex -325.0000000000001 -139.61816900000053 -1.0656745115973705
    vertex -325.50000000000017 -139.11816900000056 -1.0656745115973705
  endloop
endfacet
facet normal -0.7071067811865424 -0.7071067811865527 2.855682358962215e-14
  outer loop
    vertex -325.50000000000017 -139.11816900000056 -1.0656745115973705
    vertex -325.0000000000001 -139.61816900000053 -1.0656745115973705
    vertex -324.89644660940684 -139.72172239059387 -0.9862152002984285
  endloop
endfacet
facet normal -0.7071067811865424 -0.7071067811865527 2.855682358962215e-14
  outer loop
    vertex -325.50000000000017 -139.11816900000056 -1.0656745115973705
    vertex -324.89644660940684 -139.72172239059387 -0.9862152002984285
    vertex -326.16116260882467 -138.45700639117615 -0.7162398704175643
  endloop
endfacet
facet normal -0.7071067811865424 -0.7071067811865527 2.855682358962215e-14
  outer loop
    vertex -326.16116260882467 -138.45700639117615 -0.7162398704175643
    vertex -324.89644660940684 -139.72172239059387 -0.9862152002984285
    vertex -324.8169872981081 -139.8011817018928 -0.8826618097051533
  endloop
endfacet
facet normal -0.7071067811865424 -0.7071067811865527 2.855682358962215e-14
  outer loop
    vertex -326.16116260882467 -138.45700639117615 -0.7162398704175643
    vertex -324.8169872981081 -139.8011817018928 -0.8826618097051533
    vertex -324.7670370868557 -139.85113191314508 -0.7620713322564096
  endloop
endfacet
facet normal -0.7071067811865424 -0.7071067811865527 2.855682358962215e-14
  outer loop
    vertex -326.16116260882467 -138.45700639117615 -0.7162398704175643
    vertex -324.7670370868557 -139.85113191314508 -0.7620713322564096
    vertex -324.75000000000017 -139.8681690000006 -0.6326618097051537
  endloop
endfacet
facet normal -0.7071067811865424 -0.7071067811865527 2.855682358962215e-14
  outer loop
    vertex -326.16116260882467 -138.45700639117615 -0.7162398704175643
    vertex -324.75000000000017 -139.8681690000006 -0.6326618097051537
    vertex -326.8465897563362 -137.77157924366452 -0.4171910629997171
  endloop
endfacet
facet normal -0.7071067811865424 -0.7071067811865527 2.855682358962215e-14
  outer loop
    vertex -326.8465897563362 -137.77157924366452 -0.4171910629997171
    vertex -324.75000000000017 -139.8681690000006 -0.6326618097051537
    vertex -324.7670370868557 -139.8511319131451 -0.503252287153898
  endloop
endfacet
facet normal -0.7071067811865424 -0.7071067811865527 2.855682358962215e-14
  outer loop
    vertex -326.8465897563362 -137.77157924366452 -0.4171910629997171
    vertex -324.7670370868557 -139.8511319131451 -0.503252287153898
    vertex -324.8169872981081 -139.8011817018928 -0.38266180970515423
  endloop
endfacet
facet normal -0.7071067811865424 -0.7071067811865527 2.855682358962215e-14
  outer loop
    vertex -326.8465897563362 -137.77157924366452 -0.4171910629997171
    vertex -324.8169872981081 -139.8011817018928 -0.38266180970515423
    vertex -327.5000000000003 -137.11816900000056 -0.18855293006572066
  endloop
endfacet
facet normal -0.7071067811865424 -0.7071067811865527 2.855682358962215e-14
  outer loop
    vertex -327.5000000000003 -137.11816900000056 -0.18855293006572066
    vertex -324.8169872981081 -139.8011817018928 -0.38266180970515423
    vertex -324.89644660940684 -139.72172239059387 -0.27910841911187917
  endloop
endfacet
facet normal -0.7071067811865424 -0.7071067811865527 2.855682358962215e-14
  outer loop
    vertex -327.5000000000003 -137.11816900000056 -0.18855293006572066
    vertex -324.89644660940684 -139.72172239059387 -0.27910841911187917
    vertex -325.0000000000001 -139.61816900000053 -0.19964910781293702
  endloop
endfacet
facet normal -0.7071067811865424 -0.7071067811865527 2.855682358962215e-14
  outer loop
    vertex -327.5000000000003 -137.11816900000056 -0.18855293006572066
    vertex -325.0000000000001 -139.61816900000053 -0.19964910781293702
    vertex -327.5000000000001 -137.11816900000056 1.2740714505582402
  endloop
endfacet
facet normal 8.794027799848078e-17 0.9238795325112578 -0.3826834323651597
  outer loop
    vertex -324.7670370868557 -128.38520608685604 -0.7620713322564096
    vertex -300.18301270189244 -128.43515629810835 -0.8826618097051421
    vertex -324.8169872981081 -128.43515629810835 -0.8826618097051533
  endloop
endfacet
facet normal 8.794027799848078e-17 0.9238795325112578 -0.3826834323651597
  outer loop
    vertex -300.18301270189244 -128.43515629810835 -0.8826618097051421
    vertex -324.7670370868557 -128.38520608685604 -0.7620713322564096
    vertex -300.2329629131447 -128.38520608685604 -0.7620713322564096
  endloop
endfacet
facet normal -1.9438376113164733e-16 -0.6087614290086573 -0.7933533402912838
  outer loop
    vertex -300.00000000000017 -139.6181690000006 -1.0656745115973594
    vertex -324.89644660940684 -139.72172239059387 -0.9862152002984285
    vertex -325.0000000000001 -139.61816900000053 -1.0656745115973705
  endloop
endfacet
facet normal -1.9438376113164733e-16 -0.6087614290086573 -0.7933533402912838
  outer loop
    vertex -324.89644660940684 -139.72172239059387 -0.9862152002984285
    vertex -300.00000000000017 -139.6181690000006 -1.0656745115973594
    vertex -300.10355339059345 -139.72172239059387 -0.9862152002984171
  endloop
endfacet
facet normal 3.6920478755305103e-16 -0.39989202431973586 -0.9165622558699786
  outer loop
    vertex -326.16116260882467 -129.779331608825 -0.7162398704175643
    vertex -298.1534102436641 -130.46475875633664 -0.4171910629997058
    vertex -326.8465897563362 -130.46475875633664 -0.4171910629997171
  endloop
endfacet
facet normal 3.6920478755305103e-16 -0.39989202431973586 -0.9165622558699786
  outer loop
    vertex -298.1534102436641 -130.46475875633664 -0.4171910629997058
    vertex -326.16116260882467 -129.779331608825 -0.7162398704175643
    vertex -298.8388373911758 -129.779331608825 -0.716239870417553
  endloop
endfacet
facet normal 2.024160113371778e-16 0.3826834323650464 -0.9238795325113047
  outer loop
    vertex -299.50000000000017 -139.11816900000056 -1.0656745115973594
    vertex -325.37940952255144 -139.23875947744935 -1.1156247228496843
    vertex -325.50000000000017 -139.11816900000056 -1.0656745115973705
  endloop
endfacet
facet normal 2.024160113371778e-16 0.3826834323650464 -0.9238795325113047
  outer loop
    vertex -325.37940952255144 -139.23875947744935 -1.1156247228496843
    vertex -299.50000000000017 -139.11816900000056 -1.0656745115973594
    vertex -299.62059047744896 -139.23875947744935 -1.1156247228496843
  endloop
endfacet
facet normal 0.7071067811865513 -0.7071067811865437 -1.0355771191841087e-14
  outer loop
    vertex -300.2329629131447 -139.8511319131451 -0.7620713322564096
    vertex -300.2329629131447 -139.8511319131451 -0.5032522871538755
    vertex -300.2500000000002 -139.8681690000006 -0.6326618097051425
  endloop
endfacet
facet normal 0.7071067811865513 -0.7071067811865437 -1.0355771191841087e-14
  outer loop
    vertex -300.2329629131447 -139.8511319131451 -0.5032522871538755
    vertex -300.2329629131447 -139.8511319131451 -0.7620713322564096
    vertex -300.18301270189244 -139.8011817018928 -0.8826618097051421
  endloop
endfacet
facet normal 0.7071067811865513 -0.7071067811865437 -1.0355771191841087e-14
  outer loop
    vertex -300.2329629131447 -139.8511319131451 -0.5032522871538755
    vertex -300.18301270189244 -139.8011817018928 -0.8826618097051421
    vertex -300.18301270189244 -139.8011817018928 -0.38266180970514296
  endloop
endfacet
facet normal 0.7071067811865513 -0.7071067811865437 -1.0355771191841087e-14
  outer loop
    vertex -300.18301270189244 -139.8011817018928 -0.38266180970514296
    vertex -300.18301270189244 -139.8011817018928 -0.8826618097051421
    vertex -300.10355339059345 -139.72172239059387 -0.9862152002984171
  endloop
endfacet
facet normal 0.7071067811865513 -0.7071067811865437 -1.0355771191841087e-14
  outer loop
    vertex -300.18301270189244 -139.8011817018928 -0.38266180970514296
    vertex -300.10355339059345 -139.72172239059387 -0.9862152002984171
    vertex -300.10355339059345 -139.72172239059387 -0.27910841911186784
  endloop
endfacet
facet normal 0.7071067811865513 -0.7071067811865437 -1.0355771191841087e-14
  outer loop
    vertex -300.10355339059345 -139.72172239059387 -0.27910841911186784
    vertex -300.10355339059345 -139.72172239059387 -0.9862152002984171
    vertex -300.00000000000017 -139.6181690000006 -1.0656745115973594
  endloop
endfacet
facet normal 0.7071067811865513 -0.7071067811865437 -1.0355771191841087e-14
  outer loop
    vertex -300.10355339059345 -139.72172239059387 -0.27910841911186784
    vertex -300.00000000000017 -139.6181690000006 -1.0656745115973594
    vertex -300.00000000000017 -139.6181690000006 -0.19964910781292575
  endloop
endfacet
facet normal 0.7071067811865513 -0.7071067811865437 -1.0355771191841087e-14
  outer loop
    vertex -300.00000000000017 -139.6181690000006 -0.19964910781292575
    vertex -300.00000000000017 -139.6181690000006 -1.0656745115973594
    vertex -299.8794095225515 -139.49757852255183 -1.1156247228496843
  endloop
endfacet
facet normal 0.7071067811865513 -0.7071067811865437 -1.0355771191841087e-14
  outer loop
    vertex -300.00000000000017 -139.6181690000006 -0.19964910781292575
    vertex -299.8794095225515 -139.49757852255183 -1.1156247228496843
    vertex -297.5000000000002 -137.11816900000056 1.2740714505582513
  endloop
endfacet
facet normal 0.7071067811865513 -0.7071067811865437 -1.0355771191841087e-14
  outer loop
    vertex -297.5000000000002 -137.11816900000056 1.2740714505582513
    vertex -299.8794095225515 -139.49757852255183 -1.1156247228496843
    vertex -299.7500000000002 -139.3681690000006 -1.1326618097051415
  endloop
endfacet
facet normal 0.7071067811865513 -0.7071067811865437 -1.0355771191841087e-14
  outer loop
    vertex -297.5000000000002 -137.11816900000056 1.2740714505582513
    vertex -299.7500000000002 -139.3681690000006 -1.1326618097051415
    vertex -299.62059047744896 -139.23875947744935 -1.1156247228496843
  endloop
endfacet
facet normal 0.7071067811865513 -0.7071067811865437 -1.0355771191841087e-14
  outer loop
    vertex -297.5000000000002 -137.11816900000056 1.2740714505582513
    vertex -299.62059047744896 -139.23875947744935 -1.1156247228496843
    vertex -299.50000000000017 -139.11816900000056 -1.0656745115973594
  endloop
endfacet
facet normal 0.7071067811865513 -0.7071067811865437 -1.0355771191841087e-14
  outer loop
    vertex -297.5000000000002 -137.11816900000056 1.2740714505582513
    vertex -299.50000000000017 -139.11816900000056 -1.0656745115973594
    vertex -298.8388373911758 -138.45700639117615 -0.716239870417553
  endloop
endfacet
facet normal 0.7071067811865513 -0.7071067811865437 -1.0355771191841087e-14
  outer loop
    vertex -297.5000000000002 -137.11816900000056 1.2740714505582513
    vertex -298.8388373911758 -138.45700639117615 -0.716239870417553
    vertex -298.1534102436641 -137.77157924366452 -0.4171910629997058
  endloop
endfacet
facet normal 0.7071067811865513 -0.7071067811865437 -1.0355771191841087e-14
  outer loop
    vertex -297.5000000000002 -137.11816900000056 1.2740714505582513
    vertex -298.1534102436641 -137.77157924366452 -0.4171910629997058
    vertex -297.5000000000002 -137.11816900000056 -0.1885529300657094
  endloop
endfacet
facet normal 2.77778608736555e-16 0.7933533402912517 -0.6087614290086991
  outer loop
    vertex -324.8169872981081 -128.43515629810835 -0.8826618097051533
    vertex -300.10355339059345 -128.51461560940731 -0.9862152002984171
    vertex -324.89644660940684 -128.51461560940731 -0.9862152002984285
  endloop
endfacet
facet normal 2.77778608736555e-16 0.7933533402912517 -0.6087614290086991
  outer loop
    vertex -300.10355339059345 -128.51461560940731 -0.9862152002984171
    vertex -324.8169872981081 -128.43515629810835 -0.8826618097051533
    vertex -300.18301270189244 -128.43515629810835 -0.8826618097051421
  endloop
endfacet
facet normal -9.132989526062687e-16 -0.6087614290086573 0.7933533402912838
  outer loop
    vertex -324.89644660940684 -139.72172239059387 -0.27910841911187917
    vertex -300.00000000000017 -139.6181690000006 -0.19964910781292575
    vertex -325.0000000000001 -139.61816900000053 -0.19964910781293702
  endloop
endfacet
facet normal -9.132989526062687e-16 -0.6087614290086573 0.7933533402912838
  outer loop
    vertex -300.00000000000017 -139.6181690000006 -0.19964910781292575
    vertex -324.89644660940684 -139.72172239059387 -0.27910841911187917
    vertex -300.10355339059345 -139.72172239059387 -0.27910841911186784
  endloop
endfacet
facet normal 0.7071067811865511 0.7071067811865439 -6.7469418371085964e-15
  outer loop
    vertex -298.1534102436641 -130.46475875633664 -0.4171910629997058
    vertex -297.5000000000002 -131.1181690000006 1.2740714505582513
    vertex -297.5000000000002 -131.1181690000006 -0.1885529300657094
  endloop
endfacet
facet normal 0.7071067811865511 0.7071067811865439 -6.7469418371085964e-15
  outer loop
    vertex -297.5000000000002 -131.1181690000006 1.2740714505582513
    vertex -298.1534102436641 -130.46475875633664 -0.4171910629997058
    vertex -300.00000000000017 -128.61816900000056 -0.19964910781292575
  endloop
endfacet
facet normal 0.7071067811865511 0.7071067811865439 -6.7469418371085964e-15
  outer loop
    vertex -300.00000000000017 -128.61816900000056 -0.19964910781292575
    vertex -298.1534102436641 -130.46475875633664 -0.4171910629997058
    vertex -298.8388373911758 -129.779331608825 -0.716239870417553
  endloop
endfacet
facet normal 0.7071067811865511 0.7071067811865439 -6.7469418371085964e-15
  outer loop
    vertex -300.00000000000017 -128.61816900000056 -0.19964910781292575
    vertex -298.8388373911758 -129.779331608825 -0.716239870417553
    vertex -299.50000000000017 -129.1181690000006 -1.0656745115973594
  endloop
endfacet
facet normal 0.7071067811865511 0.7071067811865439 -6.7469418371085964e-15
  outer loop
    vertex -300.00000000000017 -128.61816900000056 -0.19964910781292575
    vertex -299.50000000000017 -129.1181690000006 -1.0656745115973594
    vertex -299.62059047744896 -128.99757852255183 -1.1156247228496843
  endloop
endfacet
facet normal 0.7071067811865511 0.7071067811865439 -6.7469418371085964e-15
  outer loop
    vertex -300.00000000000017 -128.61816900000056 -0.19964910781292575
    vertex -299.62059047744896 -128.99757852255183 -1.1156247228496843
    vertex -299.7500000000002 -128.86816900000056 -1.1326618097051415
  endloop
endfacet
facet normal 0.7071067811865511 0.7071067811865439 -6.7469418371085964e-15
  outer loop
    vertex -300.00000000000017 -128.61816900000056 -0.19964910781292575
    vertex -299.7500000000002 -128.86816900000056 -1.1326618097051415
    vertex -299.8794095225515 -128.7387594774493 -1.1156247228496843
  endloop
endfacet
facet normal 0.7071067811865511 0.7071067811865439 -6.7469418371085964e-15
  outer loop
    vertex -300.00000000000017 -128.61816900000056 -0.19964910781292575
    vertex -299.8794095225515 -128.7387594774493 -1.1156247228496843
    vertex -300.00000000000017 -128.61816900000056 -1.0656745115973705
  endloop
endfacet
facet normal 0.7071067811865511 0.7071067811865439 -6.7469418371085964e-15
  outer loop
    vertex -300.00000000000017 -128.61816900000056 -0.19964910781292575
    vertex -300.00000000000017 -128.61816900000056 -1.0656745115973705
    vertex -300.10355339059345 -128.51461560940731 -0.9862152002984171
  endloop
endfacet
facet normal 0.7071067811865511 0.7071067811865439 -6.7469418371085964e-15
  outer loop
    vertex -300.00000000000017 -128.61816900000056 -0.19964910781292575
    vertex -300.10355339059345 -128.51461560940731 -0.9862152002984171
    vertex -300.10355339059345 -128.51461560940731 -0.27910841911186784
  endloop
endfacet
facet normal 0.7071067811865511 0.7071067811865439 -6.7469418371085964e-15
  outer loop
    vertex -300.10355339059345 -128.51461560940731 -0.27910841911186784
    vertex -300.10355339059345 -128.51461560940731 -0.9862152002984171
    vertex -300.18301270189244 -128.43515629810835 -0.8826618097051421
  endloop
endfacet
facet normal 0.7071067811865511 0.7071067811865439 -6.7469418371085964e-15
  outer loop
    vertex -300.10355339059345 -128.51461560940731 -0.27910841911186784
    vertex -300.18301270189244 -128.43515629810835 -0.8826618097051421
    vertex -300.18301270189244 -128.43515629810835 -0.38266180970514296
  endloop
endfacet
facet normal 0.7071067811865511 0.7071067811865439 -6.7469418371085964e-15
  outer loop
    vertex -300.18301270189244 -128.43515629810835 -0.38266180970514296
    vertex -300.18301270189244 -128.43515629810835 -0.8826618097051421
    vertex -300.2329629131447 -128.38520608685604 -0.7620713322564096
  endloop
endfacet
facet normal 0.7071067811865511 0.7071067811865439 -6.7469418371085964e-15
  outer loop
    vertex -300.18301270189244 -128.43515629810835 -0.38266180970514296
    vertex -300.2329629131447 -128.38520608685604 -0.7620713322564096
    vertex -300.2329629131447 -128.38520608685604 -0.5032522871538868
  endloop
endfacet
facet normal 0.7071067811865511 0.7071067811865439 -6.7469418371085964e-15
  outer loop
    vertex -300.2329629131447 -128.38520608685604 -0.5032522871538868
    vertex -300.2329629131447 -128.38520608685604 -0.7620713322564096
    vertex -300.2500000000002 -128.3681690000006 -0.6326618097051425
  endloop
endfacet
facet normal 3.0014156149851055e-17 0.991444861373819 -0.13052619221998707
  outer loop
    vertex -324.75000000000017 -128.3681690000006 -0.6326618097051537
    vertex -300.2329629131447 -128.38520608685604 -0.7620713322564096
    vertex -324.7670370868557 -128.38520608685604 -0.7620713322564096
  endloop
endfacet
facet normal 3.0014156149851055e-17 0.991444861373819 -0.13052619221998707
  outer loop
    vertex -300.2329629131447 -128.38520608685604 -0.7620713322564096
    vertex -324.75000000000017 -128.3681690000006 -0.6326618097051537
    vertex -300.2500000000002 -128.3681690000006 -0.6326618097051425
  endloop
endfacet
facet normal 3.6304901873229617e-16 -0.258819045102519 -0.965925826289069
  outer loop
    vertex -297.5000000000002 -131.17061725589153 -0.1702004915803405
    vertex -327.5000000000003 -131.89295966043744 0.023350572376482324
    vertex -327.5000000000003 -131.17061725589153 -0.17020049158035178
  endloop
endfacet
facet normal 3.6304901873229617e-16 -0.258819045102519 -0.965925826289069
  outer loop
    vertex -327.5000000000003 -131.89295966043744 0.023350572376482324
    vertex -297.5000000000002 -131.17061725589153 -0.1702004915803405
    vertex -297.5000000000002 -131.89295966043744 0.023350572376493604
  endloop
endfacet
facet normal -9.010322585066623e-17 -0.991444861373819 0.13052619221998707
  outer loop
    vertex -300.2500000000002 -139.8681690000006 -0.6326618097051425
    vertex -324.7670370868557 -139.8511319131451 -0.503252287153898
    vertex -324.75000000000017 -139.8681690000006 -0.6326618097051537
  endloop
endfacet
facet normal -9.010322585066623e-17 -0.991444861373819 0.13052619221998707
  outer loop
    vertex -324.7670370868557 -139.8511319131451 -0.503252287153898
    vertex -300.2500000000002 -139.8681690000006 -0.6326618097051425
    vertex -300.2329629131447 -139.8511319131451 -0.5032522871538755
  endloop
endfacet
facet normal -1.0 7.763880274264359e-29 1.4725699015232303e-14
  outer loop
    vertex -327.5000000000003 -131.99316900000056 3.024071450558248
    vertex -327.5000000000003 -135.74316900000056 2.524071450558249
    vertex -327.5000000000003 -136.2431690000006 3.024071450558248
  endloop
endfacet
facet normal -1.0 7.763880274264359e-29 1.4725699015232303e-14
  outer loop
    vertex -327.5000000000003 -135.74316900000056 2.524071450558249
    vertex -327.5000000000003 -131.99316900000056 3.024071450558248
    vertex -327.5000000000003 -132.4931690000006 2.524071450558249
  endloop
endfacet
facet normal -1.0 7.763880274264359e-29 1.4725699015232303e-14
  outer loop
    vertex -327.5000000000003 -132.4931690000006 2.524071450558249
    vertex -327.5000000000003 -131.99316900000056 3.024071450558248
    vertex -327.5000000000001 -132.4931690000006 0.7740714505582523
  endloop
endfacet
facet normal -1.0 7.763880274264359e-29 1.4725699015232303e-14
  outer loop
    vertex -327.5000000000003 -136.2431690000006 3.024071450558248
    vertex -327.5000000000003 -137.11816900000056 -0.18855293006572066
    vertex -327.5000000000001 -137.11816900000056 1.2740714505582402
  endloop
endfacet
facet normal -1.0 7.763880274264359e-29 1.4725699015232303e-14
  outer loop
    vertex -327.5000000000003 -137.11816900000056 -0.18855293006572066
    vertex -327.5000000000003 -136.2431690000006 3.024071450558248
    vertex -327.5000000000003 -137.0657207441096 -0.17020049158035178
  endloop
endfacet
facet normal -1.0 7.763880274264359e-29 1.4725699015232303e-14
  outer loop
    vertex -327.5000000000003 -137.0657207441096 -0.17020049158035178
    vertex -327.5000000000003 -136.2431690000006 3.024071450558248
    vertex -327.5000000000003 -136.3433783395637 0.023350572376482324
  endloop
endfacet
facet normal -1.0 7.763880274264359e-29 1.4725699015232303e-14
  outer loop
    vertex -327.5000000000003 -136.3433783395637 0.023350572376482324
    vertex -327.5000000000003 -136.2431690000006 3.024071450558248
    vertex -327.5000000000003 -135.60859166176235 0.16237971280953012
  endloop
endfacet
facet normal -1.0 7.763880274264359e-29 1.4725699015232303e-14
  outer loop
    vertex -327.5000000000003 -135.60859166176235 0.16237971280953012
    vertex -327.5000000000003 -136.2431690000006 3.024071450558248
    vertex -327.5000000000001 -135.74316900000056 0.7740714505582523
  endloop
endfacet
facet normal -1.0 7.763880274264359e-29 1.4725699015232303e-14
  outer loop
    vertex -327.5000000000001 -135.74316900000056 0.7740714505582523
    vertex -327.5000000000003 -136.2431690000006 3.024071450558248
    vertex -327.5000000000003 -135.74316900000056 2.524071450558249
  endloop
endfacet
facet normal -1.0 7.763880274264359e-29 1.4725699015232303e-14
  outer loop
    vertex -327.5000000000003 -135.60859166176235 0.16237971280953012
    vertex -327.5000000000001 -135.74316900000056 0.7740714505582523
    vertex -327.5000000000001 -132.4931690000006 0.7740714505582523
  endloop
endfacet
facet normal -1.0 7.763880274264359e-29 1.4725699015232303e-14
  outer loop
    vertex -327.5000000000003 -135.60859166176235 0.16237971280953012
    vertex -327.5000000000001 -132.4931690000006 0.7740714505582523
    vertex -327.5000000000003 -134.8654699358648 0.24610942237003924
  endloop
endfacet
facet normal -1.0 7.763880274264359e-29 1.4725699015232303e-14
  outer loop
    vertex -327.5000000000003 -134.8654699358648 0.24610942237003924
    vertex -327.5000000000001 -132.4931690000006 0.7740714505582523
    vertex -327.5000000000003 -134.1181690000006 0.274071450558242
  endloop
endfacet
facet normal -1.0 7.763880274264359e-29 1.4725699015232303e-14
  outer loop
    vertex -327.5000000000003 -134.1181690000006 0.274071450558242
    vertex -327.5000000000001 -132.4931690000006 0.7740714505582523
    vertex -327.5000000000003 -133.37086806413635 0.24610942237003924
  endloop
endfacet
facet normal -1.0 7.763880274264359e-29 1.4725699015232303e-14
  outer loop
    vertex -327.5000000000003 -133.37086806413635 0.24610942237003924
    vertex -327.5000000000001 -132.4931690000006 0.7740714505582523
    vertex -327.5000000000003 -132.6277463382388 0.16237971280953012
  endloop
endfacet
facet normal -1.0 7.763880274264359e-29 1.4725699015232303e-14
  outer loop
    vertex -327.5000000000003 -132.6277463382388 0.16237971280953012
    vertex -327.5000000000001 -132.4931690000006 0.7740714505582523
    vertex -327.5000000000003 -131.89295966043744 0.023350572376482324
  endloop
endfacet
facet normal -1.0 7.763880274264359e-29 1.4725699015232303e-14
  outer loop
    vertex -327.5000000000003 -131.89295966043744 0.023350572376482324
    vertex -327.5000000000001 -132.4931690000006 0.7740714505582523
    vertex -327.5000000000003 -131.99316900000056 3.024071450558248
  endloop
endfacet
facet normal -1.0 7.763880274264359e-29 1.4725699015232303e-14
  outer loop
    vertex -327.5000000000003 -131.89295966043744 0.023350572376482324
    vertex -327.5000000000003 -131.99316900000056 3.024071450558248
    vertex -327.5000000000001 -131.11816900000053 1.2740714505582402
  endloop
endfacet
facet normal -1.0 7.763880274264359e-29 1.4725699015232303e-14
  outer loop
    vertex -327.5000000000003 -131.89295966043744 0.023350572376482324
    vertex -327.5000000000001 -131.11816900000053 1.2740714505582402
    vertex -327.5000000000003 -131.17061725589153 -0.17020049158035178
  endloop
endfacet
facet normal -1.0 7.763880274264359e-29 1.4725699015232303e-14
  outer loop
    vertex -327.5000000000003 -131.17061725589153 -0.17020049158035178
    vertex -327.5000000000001 -131.11816900000053 1.2740714505582402
    vertex -327.5000000000003 -131.1181690000006 -0.18855293006572066
  endloop
endfacet
facet normal 5.304744397563454e-16 0.33027906195516876 -0.943883330308367
  outer loop
    vertex -297.5000000000002 -137.06572074410965 -0.1702004915803405
    vertex -327.5000000000003 -137.11816900000056 -0.18855293006572066
    vertex -327.5000000000003 -137.0657207441096 -0.17020049158035178
  endloop
endfacet
facet normal 5.304744397563454e-16 0.33027906195516876 -0.943883330308367
  outer loop
    vertex -327.5000000000003 -137.11816900000056 -0.18855293006572066
    vertex -297.5000000000002 -137.06572074410965 -0.1702004915803405
    vertex -326.8465897563362 -137.77157924366452 -0.4171910629997171
  endloop
endfacet
facet normal 5.304744397563454e-16 0.33027906195516876 -0.943883330308367
  outer loop
    vertex -326.8465897563362 -137.77157924366452 -0.4171910629997171
    vertex -297.5000000000002 -137.06572074410965 -0.1702004915803405
    vertex -298.1534102436641 -137.77157924366452 -0.4171910629997058
  endloop
endfacet
facet normal 5.304744397563454e-16 0.33027906195516876 -0.943883330308367
  outer loop
    vertex -298.1534102436641 -137.77157924366452 -0.4171910629997058
    vertex -297.5000000000002 -137.06572074410965 -0.1702004915803405
    vertex -297.5000000000002 -137.11816900000056 -0.1885529300657094
  endloop
endfacet
facet normal -8.798119708353088e-17 0.9238795325112579 0.38268343236515967
  outer loop
    vertex -324.8169872981081 -128.43515629810835 -0.38266180970515423
    vertex -300.2329629131447 -128.38520608685604 -0.5032522871538868
    vertex -324.7670370868557 -128.38520608685604 -0.5032522871538868
  endloop
endfacet
facet normal -8.798119708353088e-17 0.9238795325112579 0.38268343236515967
  outer loop
    vertex -300.2329629131447 -128.38520608685604 -0.5032522871538868
    vertex -324.8169872981081 -128.43515629810835 -0.38266180970515423
    vertex -300.18301270189244 -128.43515629810835 -0.38266180970514296
  endloop
endfacet
facet normal 3.735182761251723e-16 0.4672686282730668 -0.8841153935046073
  outer loop
    vertex -298.8388373911758 -138.45700639117615 -0.716239870417553
    vertex -325.50000000000017 -139.11816900000056 -1.0656745115973705
    vertex -326.16116260882467 -138.45700639117615 -0.7162398704175643
  endloop
endfacet
facet normal 3.735182761251723e-16 0.4672686282730668 -0.8841153935046073
  outer loop
    vertex -325.50000000000017 -139.11816900000056 -1.0656745115973705
    vertex -298.8388373911758 -138.45700639117615 -0.716239870417553
    vertex -299.50000000000017 -139.11816900000056 -1.0656745115973594
  endloop
endfacet
facet normal 3.689196897360944e-16 0.39989202431973586 -0.9165622558699786
  outer loop
    vertex -298.1534102436641 -137.77157924366452 -0.4171910629997058
    vertex -326.16116260882467 -138.45700639117615 -0.7162398704175643
    vertex -326.8465897563362 -137.77157924366452 -0.4171910629997171
  endloop
endfacet
facet normal 3.689196897360944e-16 0.39989202431973586 -0.9165622558699786
  outer loop
    vertex -326.16116260882467 -138.45700639117615 -0.7162398704175643
    vertex -298.1534102436641 -137.77157924366452 -0.4171910629997058
    vertex -298.8388373911758 -138.45700639117615 -0.716239870417553
  endloop
endfacet
facet normal 1.0488352151376777e-16 -0.1305261922200463 -0.9914448613738112
  outer loop
    vertex -299.7500000000002 -139.3681690000006 -1.1326618097051415
    vertex -325.1205904774489 -139.49757852255183 -1.1156247228496843
    vertex -325.2500000000002 -139.36816900000056 -1.1326618097051528
  endloop
endfacet
facet normal 1.0488352151376777e-16 -0.1305261922200463 -0.9914448613738112
  outer loop
    vertex -325.1205904774489 -139.49757852255183 -1.1156247228496843
    vertex -299.7500000000002 -139.3681690000006 -1.1326618097051415
    vertex -299.8794095225515 -139.49757852255183 -1.1156247228496843
  endloop
endfacet
facet normal 3.7570966623407177e-16 -0.03739119427633206 -0.9993007047883984
  outer loop
    vertex -297.5000000000002 -133.37086806413635 0.2461094223700505
    vertex -327.5000000000003 -134.1181690000006 0.274071450558242
    vertex -327.5000000000003 -133.37086806413635 0.24610942237003924
  endloop
endfacet
facet normal 3.7570966623407177e-16 -0.03739119427633206 -0.9993007047883984
  outer loop
    vertex -327.5000000000003 -134.1181690000006 0.274071450558242
    vertex -297.5000000000002 -133.37086806413635 0.2461094223700505
    vertex -297.5000000000002 -134.1181690000006 0.27407145055825327
  endloop
endfacet
facet normal 5.577673257174091e-16 0.25881904510252646 -0.9659258262890668
  outer loop
    vertex -297.5000000000002 -136.3433783395637 0.023350572376493604
    vertex -327.5000000000003 -137.0657207441096 -0.17020049158035178
    vertex -327.5000000000003 -136.3433783395637 0.023350572376482324
  endloop
endfacet
facet normal 5.577673257174091e-16 0.25881904510252646 -0.9659258262890668
  outer loop
    vertex -327.5000000000003 -137.0657207441096 -0.17020049158035178
    vertex -297.5000000000002 -136.3433783395637 0.023350572376493604
    vertex -297.5000000000002 -137.06572074410965 -0.1702004915803405
  endloop
endfacet
facet normal 2.2153386641889573e-16 0.13052619222002393 -0.991444861373814
  outer loop
    vertex -325.1205904774489 -128.7387594774493 -1.1156247228496843
    vertex -299.7500000000002 -128.86816900000056 -1.1326618097051415
    vertex -325.2500000000002 -128.86816900000056 -1.1326618097051528
  endloop
endfacet
facet normal 2.2153386641889573e-16 0.13052619222002393 -0.991444861373814
  outer loop
    vertex -299.7500000000002 -128.86816900000056 -1.1326618097051415
    vertex -325.1205904774489 -128.7387594774493 -1.1156247228496843
    vertex -299.8794095225515 -128.7387594774493 -1.1156247228496843
  endloop
endfacet
facet normal -1.3563885512775504e-16 -0.3826834323651076 -0.9238795325112795
  outer loop
    vertex -299.8794095225515 -139.49757852255183 -1.1156247228496843
    vertex -325.0000000000001 -139.61816900000053 -1.0656745115973705
    vertex -325.1205904774489 -139.49757852255183 -1.1156247228496843
  endloop
endfacet
facet normal -1.3563885512775504e-16 -0.3826834323651076 -0.9238795325112795
  outer loop
    vertex -325.0000000000001 -139.61816900000053 -1.0656745115973705
    vertex -299.8794095225515 -139.49757852255183 -1.1156247228496843
    vertex -300.00000000000017 -139.6181690000006 -1.0656745115973594
  endloop
endfacet
facet normal 3.6945623673209837e-16 -0.18591160716291805 -0.9825664732332877
  outer loop
    vertex -297.5000000000002 -131.89295966043744 0.023350572376493604
    vertex -327.5000000000003 -132.6277463382388 0.16237971280953012
    vertex -327.5000000000003 -131.89295966043744 0.023350572376482324
  endloop
endfacet
facet normal 3.6945623673209837e-16 -0.18591160716291805 -0.9825664732332877
  outer loop
    vertex -327.5000000000003 -132.6277463382388 0.16237971280953012
    vertex -297.5000000000002 -131.89295966043744 0.023350572376493604
    vertex -297.5000000000002 -132.6277463382388 0.1623797128095414
  endloop
endfacet
facet normal 2.778271875030921e-16 -0.7933533402912517 -0.6087614290086992
  outer loop
    vertex -300.10355339059345 -139.72172239059387 -0.9862152002984171
    vertex -324.8169872981081 -139.8011817018928 -0.8826618097051533
    vertex -324.89644660940684 -139.72172239059387 -0.9862152002984285
  endloop
endfacet
facet normal 2.778271875030921e-16 -0.7933533402912517 -0.6087614290086992
  outer loop
    vertex -324.8169872981081 -139.8011817018928 -0.8826618097051533
    vertex -300.10355339059345 -139.72172239059387 -0.9862152002984171
    vertex -300.18301270189244 -139.8011817018928 -0.8826618097051421
  endloop
endfacet
facet normal 3.735182761251723e-16 -0.4672686282730668 -0.8841153935046073
  outer loop
    vertex -325.50000000000017 -129.1181690000006 -1.0656745115973705
    vertex -298.8388373911758 -129.779331608825 -0.716239870417553
    vertex -326.16116260882467 -129.779331608825 -0.7162398704175643
  endloop
endfacet
facet normal 3.735182761251723e-16 -0.4672686282730668 -0.8841153935046073
  outer loop
    vertex -298.8388373911758 -129.779331608825 -0.716239870417553
    vertex -325.50000000000017 -129.1181690000006 -1.0656745115973705
    vertex -299.50000000000017 -129.1181690000006 -1.0656745115973594
  endloop
endfacet
facet normal 3.7364716124883257e-16 0.11196447610329369 -0.9937122098932442
  outer loop
    vertex -297.5000000000002 -134.8654699358648 0.2461094223700505
    vertex -327.5000000000003 -135.60859166176235 0.16237971280953012
    vertex -327.5000000000003 -134.8654699358648 0.24610942237003924
  endloop
endfacet
facet normal 3.7364716124883257e-16 0.11196447610329369 -0.9937122098932442
  outer loop
    vertex -327.5000000000003 -135.60859166176235 0.16237971280953012
    vertex -297.5000000000002 -134.8654699358648 0.2461094223700505
    vertex -297.5000000000002 -135.60859166176235 0.1623797128095414
  endloop
endfacet
facet normal -7.580620964909775e-16 -0.9238795325113189 -0.3826834323650121
  outer loop
    vertex -300.18301270189244 -139.8011817018928 -0.8826618097051421
    vertex -324.7670370868557 -139.85113191314508 -0.7620713322564096
    vertex -324.8169872981081 -139.8011817018928 -0.8826618097051533
  endloop
endfacet
facet normal -7.580620964909775e-16 -0.9238795325113189 -0.3826834323650121
  outer loop
    vertex -324.7670370868557 -139.85113191314508 -0.7620713322564096
    vertex -300.18301270189244 -139.8011817018928 -0.8826618097051421
    vertex -300.2329629131447 -139.8511319131451 -0.7620713322564096
  endloop
endfacet
facet normal 3.757096662340717e-16 0.03739119427633205 -0.9993007047883984
  outer loop
    vertex -297.5000000000002 -134.1181690000006 0.27407145055825327
    vertex -327.5000000000003 -134.8654699358648 0.24610942237003924
    vertex -327.5000000000003 -134.1181690000006 0.274071450558242
  endloop
endfacet
facet normal 3.757096662340717e-16 0.03739119427633205 -0.9993007047883984
  outer loop
    vertex -327.5000000000003 -134.8654699358648 0.24610942237003924
    vertex -297.5000000000002 -134.1181690000006 0.27407145055825327
    vertex -297.5000000000002 -134.8654699358648 0.2461094223700505
  endloop
endfacet
facet normal 1.0 0.0 0.0
  outer loop
    vertex -297.5000000000002 -137.06572074410965 -0.1702004915803405
    vertex -297.5000000000002 -137.11816900000056 1.2740714505582513
    vertex -297.5000000000002 -137.11816900000056 -0.1885529300657094
  endloop
endfacet
facet normal 1.0 0.0 0.0
  outer loop
    vertex -297.5000000000002 -137.11816900000056 1.2740714505582513
    vertex -297.5000000000002 -137.06572074410965 -0.1702004915803405
    vertex -297.5000000000002 -136.2431690000006 3.024071450558248
  endloop
endfacet
facet normal 1.0 0.0 0.0
  outer loop
    vertex -297.5000000000002 -136.2431690000006 3.024071450558248
    vertex -297.5000000000002 -137.06572074410965 -0.1702004915803405
    vertex -297.5000000000002 -136.3433783395637 0.023350572376493604
  endloop
endfacet
facet normal 1.0 0.0 0.0
  outer loop
    vertex -297.5000000000002 -136.2431690000006 3.024071450558248
    vertex -297.5000000000002 -136.3433783395637 0.023350572376493604
    vertex -297.5000000000002 -135.60859166176235 0.1623797128095414
  endloop
endfacet
facet normal 1.0 0.0 0.0
  outer loop
    vertex -297.5000000000002 -136.2431690000006 3.024071450558248
    vertex -297.5000000000002 -135.60859166176235 0.1623797128095414
    vertex -297.5000000000002 -135.74316900000056 0.7740714505582523
  endloop
endfacet
facet normal 1.0 0.0 0.0
  outer loop
    vertex -297.5000000000002 -135.74316900000056 0.7740714505582523
    vertex -297.5000000000002 -135.60859166176235 0.1623797128095414
    vertex -297.5000000000002 -132.4931690000006 0.7740714505582523
  endloop
endfacet
facet normal 1.0 0.0 0.0
  outer loop
    vertex -297.5000000000002 -132.4931690000006 0.7740714505582523
    vertex -297.5000000000002 -135.60859166176235 0.1623797128095414
    vertex -297.5000000000002 -134.8654699358648 0.2461094223700505
  endloop
endfacet
facet normal 1.0 0.0 0.0
  outer loop
    vertex -297.5000000000002 -132.4931690000006 0.7740714505582523
    vertex -297.5000000000002 -134.8654699358648 0.2461094223700505
    vertex -297.5000000000002 -134.1181690000006 0.27407145055825327
  endloop
endfacet
facet normal 1.0 0.0 0.0
  outer loop
    vertex -297.5000000000002 -132.4931690000006 0.7740714505582523
    vertex -297.5000000000002 -134.1181690000006 0.27407145055825327
    vertex -297.5000000000002 -133.37086806413635 0.2461094223700505
  endloop
endfacet
facet normal 1.0 0.0 0.0
  outer loop
    vertex -297.5000000000002 -132.4931690000006 0.7740714505582523
    vertex -297.5000000000002 -133.37086806413635 0.2461094223700505
    vertex -297.5000000000002 -132.6277463382388 0.1623797128095414
  endloop
endfacet
facet normal 1.0 0.0 0.0
  outer loop
    vertex -297.5000000000002 -132.4931690000006 0.7740714505582523
    vertex -297.5000000000002 -132.6277463382388 0.1623797128095414
    vertex -297.5000000000002 -131.89295966043744 0.023350572376493604
  endloop
endfacet
facet normal 1.0 0.0 0.0
  outer loop
    vertex -297.5000000000002 -132.4931690000006 0.7740714505582523
    vertex -297.5000000000002 -131.89295966043744 0.023350572376493604
    vertex -297.5000000000002 -132.4931690000006 2.524071450558249
  endloop
endfacet
facet normal 1.0 0.0 0.0
  outer loop
    vertex -297.5000000000002 -132.4931690000006 2.524071450558249
    vertex -297.5000000000002 -131.89295966043744 0.023350572376493604
    vertex -297.5000000000002 -131.99316900000056 3.024071450558248
  endloop
endfacet
facet normal 1.0 0.0 0.0
  outer loop
    vertex -297.5000000000002 -131.99316900000056 3.024071450558248
    vertex -297.5000000000002 -131.89295966043744 0.023350572376493604
    vertex -297.5000000000002 -131.1181690000006 1.2740714505582513
  endloop
endfacet
facet normal 1.0 0.0 0.0
  outer loop
    vertex -297.5000000000002 -131.1181690000006 1.2740714505582513
    vertex -297.5000000000002 -131.89295966043744 0.023350572376493604
    vertex -297.5000000000002 -131.17061725589153 -0.1702004915803405
  endloop
endfacet
facet normal 1.0 0.0 0.0
  outer loop
    vertex -297.5000000000002 -131.1181690000006 1.2740714505582513
    vertex -297.5000000000002 -131.17061725589153 -0.1702004915803405
    vertex -297.5000000000002 -131.1181690000006 -0.1885529300657094
  endloop
endfacet
facet normal 1.0 0.0 0.0
  outer loop
    vertex -297.5000000000002 -136.2431690000006 3.024071450558248
    vertex -297.5000000000002 -135.74316900000056 2.524071450558249
    vertex -297.5000000000002 -131.99316900000056 3.024071450558248
  endloop
endfacet
facet normal 1.0 0.0 0.0
  outer loop
    vertex -297.5000000000002 -135.74316900000056 2.524071450558249
    vertex -297.5000000000002 -136.2431690000006 3.024071450558248
    vertex -297.5000000000002 -135.74316900000056 0.7740714505582523
  endloop
endfacet
facet normal 1.0 0.0 0.0
  outer loop
    vertex -297.5000000000002 -131.99316900000056 3.024071450558248
    vertex -297.5000000000002 -135.74316900000056 2.524071450558249
    vertex -297.5000000000002 -132.4931690000006 2.524071450558249
  endloop
endfacet
facet normal -3.0014156149851055e-17 0.991444861373819 0.13052619221998704
  outer loop
    vertex -324.7670370868557 -128.38520608685604 -0.5032522871538868
    vertex -300.2500000000002 -128.3681690000006 -0.6326618097051425
    vertex -324.75000000000017 -128.3681690000006 -0.6326618097051537
  endloop
endfacet
facet normal -3.0014156149851055e-17 0.991444861373819 0.13052619221998704
  outer loop
    vertex -300.2500000000002 -128.3681690000006 -0.6326618097051425
    vertex -324.7670370868557 -128.38520608685604 -0.5032522871538868
    vertex -300.2329629131447 -128.38520608685604 -0.5032522871538868
  endloop
endfacet
facet normal -8.8288712775506e-16 -0.9914448613737967 -0.13052619222015696
  outer loop
    vertex -300.2500000000002 -139.8681690000006 -0.6326618097051425
    vertex -324.7670370868557 -139.85113191314508 -0.7620713322564096
    vertex -300.2329629131447 -139.8511319131451 -0.7620713322564096
  endloop
endfacet
facet normal -8.8288712775506e-16 -0.9914448613737967 -0.13052619222015696
  outer loop
    vertex -324.7670370868557 -139.85113191314508 -0.7620713322564096
    vertex -300.2500000000002 -139.8681690000006 -0.6326618097051425
    vertex -324.75000000000017 -139.8681690000006 -0.6326618097051537
  endloop
endfacet
facet normal 3.3136075592632917e-16 0.13052619222004627 -0.9914448613738112
  outer loop
    vertex -299.62059047744896 -139.23875947744935 -1.1156247228496843
    vertex -325.2500000000002 -139.36816900000056 -1.1326618097051528
    vertex -325.37940952255144 -139.23875947744935 -1.1156247228496843
  endloop
endfacet
facet normal 3.3136075592632917e-16 0.13052619222004627 -0.9914448613738112
  outer loop
    vertex -325.2500000000002 -139.36816900000056 -1.1326618097051528
    vertex -299.62059047744896 -139.23875947744935 -1.1156247228496843
    vertex -299.7500000000002 -139.3681690000006 -1.1326618097051415
  endloop
endfacet
facet normal -2.6314056249614673e-16 -0.9238795325112578 0.38268343236515967
  outer loop
    vertex -300.2329629131447 -139.8511319131451 -0.5032522871538755
    vertex -324.8169872981081 -139.8011817018928 -0.38266180970515423
    vertex -324.7670370868557 -139.8511319131451 -0.503252287153898
  endloop
endfacet
facet normal -2.6314056249614673e-16 -0.9238795325112578 0.38268343236515967
  outer loop
    vertex -324.8169872981081 -139.8011817018928 -0.38266180970515423
    vertex -300.2329629131447 -139.8511319131451 -0.5032522871538755
    vertex -300.18301270189244 -139.8011817018928 -0.38266180970514296
  endloop
endfacet
facet normal -2.778856681052838e-16 -0.7933533402912517 0.6087614290086992
  outer loop
    vertex -300.18301270189244 -139.8011817018928 -0.38266180970514296
    vertex -324.89644660940684 -139.72172239059387 -0.27910841911187917
    vertex -324.8169872981081 -139.8011817018928 -0.38266180970515423
  endloop
endfacet
facet normal -2.778856681052838e-16 -0.7933533402912517 0.6087614290086992
  outer loop
    vertex -324.89644660940684 -139.72172239059387 -0.27910841911187917
    vertex -300.18301270189244 -139.8011817018928 -0.38266180970514296
    vertex -300.10355339059345 -139.72172239059387 -0.27910841911186784
  endloop
endfacet
facet normal 5.894894577665099e-16 0.8944271909999153 0.44721359549995915
  outer loop
    vertex -327.5000000000003 -131.99316900000056 3.024071450558248
    vertex -297.5000000000002 -131.1181690000006 1.2740714505582513
    vertex -327.5000000000001 -131.11816900000053 1.2740714505582402
  endloop
endfacet
facet normal 5.894894577665099e-16 0.8944271909999153 0.44721359549995915
  outer loop
    vertex -297.5000000000002 -131.1181690000006 1.2740714505582513
    vertex -327.5000000000003 -131.99316900000056 3.024071450558248
    vertex -297.5000000000002 -131.99316900000056 3.024071450558248
  endloop
endfacet
facet normal 0.0 0.0 -1.0
  outer loop
    vertex -297.5000000000002 -132.4931690000006 2.524071450558249
    vertex -327.5000000000003 -135.74316900000056 2.524071450558249
    vertex -327.5000000000003 -132.4931690000006 2.524071450558249
  endloop
endfacet
facet normal 0.0 0.0 -1.0
  outer loop
    vertex -327.5000000000003 -135.74316900000056 2.524071450558249
    vertex -297.5000000000002 -132.4931690000006 2.524071450558249
    vertex -297.5000000000002 -135.74316900000056 2.524071450558249
  endloop
endfacet
facet normal 0.0 0.0 1.0
  outer loop
    vertex -297.5000000000002 -135.74316900000056 0.7740714505582523
    vertex -327.5000000000001 -132.4931690000006 0.7740714505582523
    vertex -327.5000000000001 -135.74316900000056 0.7740714505582523
  endloop
endfacet
facet normal 0.0 0.0 1.0
  outer loop
    vertex -327.5000000000001 -132.4931690000006 0.7740714505582523
    vertex -297.5000000000002 -135.74316900000056 0.7740714505582523
    vertex -297.5000000000002 -132.4931690000006 0.7740714505582523
  endloop
endfacet
facet normal -8.341831949526129e-17 -0.89442719099992 0.44721359549994993
  outer loop
    vertex -297.5000000000002 -137.11816900000056 1.2740714505582513
    vertex -327.5000000000003 -136.2431690000006 3.024071450558248
    vertex -327.5000000000001 -137.11816900000056 1.2740714505582402
  endloop
endfacet
facet normal -8.341831949526129e-17 -0.89442719099992 0.44721359549994993
  outer loop
    vertex -327.5000000000003 -136.2431690000006 3.024071450558248
    vertex -297.5000000000002 -137.11816900000056 1.2740714505582513
    vertex -297.5000000000002 -136.2431690000006 3.024071450558248
  endloop
endfacet
facet normal 0.0 1.0 0.0
  outer loop
    vertex -327.5000000000003 -135.74316900000056 2.524071450558249
    vertex -297.5000000000002 -135.74316900000056 0.7740714505582523
    vertex -327.5000000000001 -135.74316900000056 0.7740714505582523
  endloop
endfacet
facet normal 0.0 1.0 0.0
  outer loop
    vertex -297.5000000000002 -135.74316900000056 0.7740714505582523
    vertex -327.5000000000003 -135.74316900000056 2.524071450558249
    vertex -297.5000000000002 -135.74316900000056 2.524071450558249
  endloop
endfacet
facet normal 0.0 0.0 1.0
  outer loop
    vertex -297.5000000000002 -136.2431690000006 3.024071450558248
    vertex -327.5000000000003 -131.99316900000056 3.024071450558248
    vertex -327.5000000000003 -136.2431690000006 3.024071450558248
  endloop
endfacet
facet normal 0.0 0.0 1.0
  outer loop
    vertex -327.5000000000003 -131.99316900000056 3.024071450558248
    vertex -297.5000000000002 -136.2431690000006 3.024071450558248
    vertex -297.5000000000002 -131.99316900000056 3.024071450558248
  endloop
endfacet
facet normal 0.0 -1.0 0.0
  outer loop
    vertex -297.5000000000002 -132.4931690000006 2.524071450558249
    vertex -327.5000000000001 -132.4931690000006 0.7740714505582523
    vertex -297.5000000000002 -132.4931690000006 0.7740714505582523
  endloop
endfacet
facet normal 0.0 -1.0 0.0
  outer loop
    vertex -327.5000000000001 -132.4931690000006 0.7740714505582523
    vertex -297.5000000000002 -132.4931690000006 2.524071450558249
    vertex -327.5000000000003 -132.4931690000006 2.524071450558249
  endloop
endfacet
endsolid ProtoGlove
