solid ProtoGlove baseplate
facet normal -0.09579191040971823 0.1254759914099048 0.9874612323933321
  outer loop
    vertex 221.9730217161886 -734.4999999999874 104.98352245037948
    vertex 222.14287888604042 -734.4999999999874 105.00000000135879
    vertex 222.30686398934603 -734.3748091475534 105.00000000135863
  endloop
endfacet
facet normal -0.270339531921994 0.9627650479115855 -1.896300092712963e-12
  outer loop
    vertex 251.5248419001811 -655.8261946494706 114.2694380215755
    vertex 252.4113381172061 -655.5772710176041 113.82620495804761
    vertex 239.04762271056128 -659.3297343788516 110.18898675362544
  endloop
endfacet
facet normal -0.270339531921994 0.9627650479115855 -1.896300092712963e-12
  outer loop
    vertex 239.04762271056128 -659.3297343788676 102.10426110065707
    vertex 239.04762271056128 -659.3297343788516 110.18898675362544
    vertex 252.4113381172061 -655.5772710176041 113.82620495804761
  endloop
endfacet
facet normal 0.26495428385892367 0.5116897292989053 0.81729605920671
  outer loop
    vertex 251.5248419001811 -655.8261946494706 114.2694380215755
    vertex 265.33021395420405 -661.6317834328319 113.42869946024216
    vertex 252.4113381172061 -655.5772710176041 113.82620495804761
  endloop
endfacet
facet normal 0.26495428385892367 0.5116897292989053 0.81729605920671
  outer loop
    vertex 265.72598294036976 -661.1764937214409 113.01535137949263
    vertex 252.4113381172061 -655.5772710176041 113.82620495804761
    vertex 265.33021395420405 -661.6317834328319 113.42869946024216
  endloop
endfacet
facet normal 0.5861986056529768 -0.7507058459114475 0.3046505008118057
  outer loop
    vertex 265.33021395420405 -661.6317834328319 113.42869946024216
    vertex 259.12858852330635 -668.4333375526493 108.60158690097475
    vertex 261.97302171618765 -669.4999999999958 100.50000000123097
  endloop
endfacet
facet normal 0.8779066611021848 -0.31961925781594347 0.3565437202161878
  outer loop
    vertex 258.60333722700597 -672.2448709232455 106.33646474197567
    vertex 261.97302171618765 -669.4999999999958 100.50000000123097
    vertex 259.0109306519396 -668.7368223515293 108.47760720170153
  endloop
endfacet
facet normal 0.8176714571585612 -0.45896714585014664 0.34750906057017483
  outer loop
    vertex 259.0109306519396 -668.7368223515293 108.47760720170153
    vertex 261.97302171618765 -669.4999999999958 100.50000000123097
    vertex 259.12858852330635 -668.4333375526493 108.60158690097475
  endloop
endfacet
facet normal 0.911618642088065 -0.41103704382635925 7.568539050810746e-13
  outer loop
    vertex 261.97302171618765 -669.4999999999958 100.50000000123097
    vertex 261.97302171618765 -669.4999999999968 100.00000000123092
    vertex 265.72598294036976 -661.1764937214409 113.01535137949263
  endloop
endfacet
facet normal -0.9363291775690993 0.35112344158824604 -7.034509924481059e-13
  outer loop
    vertex 236.76595986579986 -665.4141686315719 100.00000000122293
    vertex 236.76595986579986 -665.4141686315709 100.5000000012229
    vertex 238.53039279472085 -660.7090141544469 100.00000000121365
  endloop
endfacet
facet normal -0.9363291775690993 0.35112344158824604 -7.034509924481059e-13
  outer loop
    vertex 237.58964836890277 -663.2176659566124 108.31566671120932
    vertex 238.53039279472085 -660.7090141544469 100.00000000121365
    vertex 236.76595986579986 -665.4141686315709 100.5000000012229
  endloop
endfacet
facet normal -0.9363291775690993 0.35112344158824604 -7.034509924481059e-13
  outer loop
    vertex 238.53039279472085 -660.7090141544285 109.33723674840887
    vertex 238.53039279472085 -660.7090141544469 100.00000000121365
    vertex 237.58964836890277 -663.2176659566124 108.31566671120932
  endloop
endfacet
facet normal -0.9363291775690993 0.35112344158824604 -7.034509924481059e-13
  outer loop
    vertex 239.04762271056128 -659.3297343788676 102.10426110065707
    vertex 238.53039279472085 -660.7090141544469 100.00000000121365
    vertex 238.53039279472085 -660.7090141544285 109.33723674840887
  endloop
endfacet
facet normal -0.9363291775690993 0.35112344158824604 -7.034509924481059e-13
  outer loop
    vertex 239.04762271056128 -659.3297343788516 110.18898675362544
    vertex 239.04762271056128 -659.3297343788676 102.10426110065707
    vertex 238.53039279472085 -660.7090141544285 109.33723674840887
  endloop
endfacet
facet normal -0.9363291775690993 0.35112344158824604 -7.034509924481059e-13
  outer loop
    vertex 235.56583058969352 -668.6145133678452 105.77848545921401
    vertex 235.7017499862097 -668.2520616438018 105.96158311469952
    vertex 236.76595986579986 -665.4141686315709 100.5000000012229
  endloop
endfacet
facet normal -0.9363291775690993 0.35112344158824604 -7.034509924481059e-13
  outer loop
    vertex 236.7591792593371 -665.4322502487922 106.87227177870437
    vertex 236.76595986579986 -665.4141686315709 100.5000000012229
    vertex 235.7017499862097 -668.2520616438018 105.96158311469952
  endloop
endfacet
facet normal -0.9363291775690993 0.35112344158824604 -7.034509924481059e-13
  outer loop
    vertex 237.58964836890277 -663.2176659566124 108.31566671120932
    vertex 236.76595986579986 -665.4141686315709 100.5000000012229
    vertex 236.7591792593371 -665.4322502487922 106.87227177870437
  endloop
endfacet
facet normal -0.14859014529512593 -0.4786536302807053 0.8653390497026442
  outer loop
    vertex 238.53039279472085 -660.7090141544285 109.33723674840887
    vertex 259.12858852330635 -668.4333375526493 108.60158690097475
    vertex 239.04762271056128 -659.3297343788516 110.18898675362544
  endloop
endfacet
facet normal -0.14859014529512593 -0.4786536302807053 0.8653390497026442
  outer loop
    vertex 251.5248419001811 -655.8261946494706 114.2694380215755
    vertex 239.04762271056128 -659.3297343788516 110.18898675362544
    vertex 259.12858852330635 -668.4333375526493 108.60158690097475
  endloop
endfacet
facet normal -0.14859014529512593 -0.4786536302807053 0.8653390497026442
  outer loop
    vertex 265.33021395420405 -661.6317834328319 113.42869946024216
    vertex 251.5248419001811 -655.8261946494706 114.2694380215755
    vertex 259.12858852330635 -668.4333375526493 108.60158690097475
  endloop
endfacet
facet normal 0.8066884244641672 -0.5741655408842957 0.13995612704188315
  outer loop
    vertex 265.33021395420405 -661.6317834328319 113.42869946024216
    vertex 261.97302171618765 -669.4999999999958 100.50000000123097
    vertex 265.72598294036976 -661.1764937214409 113.01535137949263
  endloop
endfacet
facet normal 0.2876458364770319 0.7670555639376401 -0.5734855138447156
  outer loop
    vertex 252.4113381172061 -655.5772710176041 113.82620495804761
    vertex 265.72598294036976 -661.1764937214409 113.01535137949263
    vertex 239.04762271056128 -659.3297343788676 102.10426110065707
  endloop
endfacet
facet normal 0.2876458364770319 0.7670555639376401 -0.5734855138447156
  outer loop
    vertex 261.97302171618765 -669.4999999999968 100.00000000123092
    vertex 239.04762271056128 -659.3297343788676 102.10426110065707
    vertex 265.72598294036976 -661.1764937214409 113.01535137949263
  endloop
endfacet
facet normal 0.2876458364770319 0.7670555639376401 -0.5734855138447156
  outer loop
    vertex 238.53039279472085 -660.7090141544469 100.00000000121365
    vertex 239.04762271056128 -659.3297343788676 102.10426110065707
    vertex 261.97302171618765 -669.4999999999968 100.00000000123092
  endloop
endfacet
facet normal -0.0909836535063306 -0.4216350158170005 0.9021894968528718
  outer loop
    vertex 235.7017499862097 -668.2520616438018 105.96158311469952
    vertex 235.56583058969352 -668.6145133678452 105.77848545921401
    vertex 235.95088455133154 -668.2998920799531 105.96435435760915
  endloop
endfacet
facet normal -0.06524702696398829 0.06198595125327981 0.9959420501814283
  outer loop
    vertex 200.42960760989126 -728.3263435748032 102.51051295922652
    vertex 201.97302171618847 -734.4999999999912 102.99586564410247
    vertex 232.24372207163495 -722.4546187690519 104.22929964588874
  endloop
endfacet
facet normal -0.06524702696398829 0.06198595125327981 0.9959420501814283
  outer loop
    vertex 205.30713587760602 -734.499999999991 103.21429304813809
    vertex 232.24372207163495 -722.4546187690519 104.22929964588874
    vertex 201.97302171618847 -734.4999999999912 102.99586564410247
  endloop
endfacet
facet normal -0.06524702696398829 0.06198595125327981 0.9959420501814283
  outer loop
    vertex 232.02295151129232 -726.2341736917657 104.45007020623886
    vertex 232.24372207163495 -722.4546187690519 104.22929964588874
    vertex 205.30713587760602 -734.499999999991 103.21429304813809
  endloop
endfacet
facet normal -0.021248657283897625 -0.06624529596510378 0.9975770924224993
  outer loop
    vertex 197.38915493159675 -716.1645328616252 102.51703008475405
    vertex 198.33861050132057 -719.9623551405218 102.28505482525901
    vertex 217.7016195735948 -716.4051062516091 102.93371541915654
  endloop
endfacet
facet normal -0.04032932902627852 -0.002073561158429269 0.9991842900908783
  outer loop
    vertex 198.43531314328573 -720.3491657083811 102.33426447722375
    vertex 200.30688598629084 -727.835457080403 102.39426941782081
    vertex 227.45841497805102 -716.8342370948802 103.51299662342076
  endloop
endfacet
facet normal -0.04032932902627852 -0.002073561158429269 0.9991842900908783
  outer loop
    vertex 230.88271442729155 -720.3081785271162 103.64399975312425
    vertex 227.45841497805102 -716.8342370948802 103.51299662342076
    vertex 200.30688598629084 -727.835457080403 102.39426941782081
  endloop
endfacet
facet normal -0.05394819685128692 0.1127344893709965 0.9921595269727321
  outer loop
    vertex 198.33861050132057 -719.9623551405218 102.28505482525901
    vertex 198.43531314328573 -720.3491657083811 102.33426447722375
    vertex 217.7016195735948 -716.4051062516091 102.93371541915654
  endloop
endfacet
facet normal -0.05394819685128692 0.1127344893709965 0.9921595269727321
  outer loop
    vertex 227.45841497805102 -716.8342370948802 103.51299662342076
    vertex 217.7016195735948 -716.4051062516091 102.93371541915654
    vertex 198.43531314328573 -720.3491657083811 102.33426447722375
  endloop
endfacet
facet normal -0.05394819685128692 0.1127344893709965 0.9921595269727321
  outer loop
    vertex 227.36031516866117 -716.7296111139985 103.49577432812113
    vertex 217.7016195735948 -716.4051062516091 102.93371541915654
    vertex 227.45841497805102 -716.8342370948802 103.51299662342076
  endloop
endfacet
facet normal -0.0957919104098987 0.12547599141024698 0.987461232393271
  outer loop
    vertex 208.51863116267228 -734.4999999999898 103.678335236702
    vertex 221.9730217161886 -734.4999999999874 104.98352245037948
    vertex 231.3061106074591 -728.8180745974034 105.16691111007707
  endloop
endfacet
facet normal -0.0957919104098987 0.12547599141024698 0.987461232393271
  outer loop
    vertex 222.30686398934603 -734.3748091475534 105.00000000135863
    vertex 231.3061106074591 -728.8180745974034 105.16691111007707
    vertex 221.9730217161886 -734.4999999999874 104.98352245037948
  endloop
endfacet
facet normal -0.0957919104098987 0.12547599141024698 0.987461232393271
  outer loop
    vertex 231.04188473557045 -731.0991763677187 105.43113698197054
    vertex 231.3061106074591 -728.8180745974034 105.16691111007707
    vertex 222.30686398934603 -734.3748091475534 105.00000000135863
  endloop
endfacet
facet normal -0.13643106009008604 0.29979443493303426 0.9441979996938555
  outer loop
    vertex 205.30713587760602 -734.499999999991 103.21429304813809
    vertex 208.51863116267228 -734.4999999999898 103.678335236702
    vertex 232.02295151129232 -726.2341736917657 104.45007020623886
  endloop
endfacet
facet normal -0.13643106009008604 0.29979443493303426 0.9441979996938555
  outer loop
    vertex 231.3061106074591 -728.8180745974034 105.16691111007707
    vertex 232.02295151129232 -726.2341736917657 104.45007020623886
    vertex 208.51863116267228 -734.4999999999898 103.678335236702
  endloop
endfacet
facet normal -0.7071067811865686 -0.7071067811865266 9.932198165316637e-13
  outer loop
    vertex 240.66909937523255 -727.4889708778555 100.00000000134501
    vertex 240.66909937523255 -727.4889708778555 100.50000000134067
    vertex 227.18012849737508 -713.9999999999972 100.00000000131858
  endloop
endfacet
facet normal -0.7071067811865686 -0.7071067811865266 9.932198165316637e-13
  outer loop
    vertex 227.18012849737508 -713.9999999999967 100.50000000131855
    vertex 227.18012849737508 -713.9999999999972 100.00000000131858
    vertex 240.66909937523255 -727.4889708778555 100.50000000134067
  endloop
endfacet
facet normal -0.02124865728389638 0.15985858540847822 0.986911205344651
  outer loop
    vertex 196.2716279487657 -711.6944249303024 102.1720544468711
    vertex 196.5771591572612 -712.9165497642845 102.37659085703517
    vertex 260.5875459072975 -707.6377704703641 102.89971449496295
  endloop
endfacet
facet normal -0.02124865728389638 0.15985858540847822 0.986911205344651
  outer loop
    vertex 226.69014975745094 -712.5742389955196 102.96949050051164
    vertex 260.5875459072975 -707.6377704703641 102.89971449496295
    vertex 196.5771591572612 -712.9165497642845 102.37659085703517
  endloop
endfacet
facet normal -0.02124865728389638 0.15985858540847822 0.986911205344651
  outer loop
    vertex 228.07981140251454 -713.8728540998268 103.20975853710603
    vertex 260.5875459072975 -707.6377704703641 102.89971449496295
    vertex 226.69014975745094 -712.5742389955196 102.96949050051164
  endloop
endfacet
facet normal -0.02124865728389638 0.15985858540847822 0.986911205344651
  outer loop
    vertex 260.5714679644259 -707.8118302760603 102.92756230889819
    vertex 260.5875459072975 -707.6377704703641 102.89971449496295
    vertex 228.07981140251454 -713.8728540998268 103.20975853710603
  endloop
endfacet
facet normal -0.70710678118657 1.3923432899997148e-12 0.707106781186525
  outer loop
    vertex 191.97302171618858 -673.9999999999968 100.50000000123964
    vertex 193.9188630111176 -672.8765680045647 102.44584129616659
    vertex 191.97302171618858 -654.4999999999974 100.50000000120117
  endloop
endfacet
facet normal -0.70710678118657 1.3923432899997148e-12 0.707106781186525
  outer loop
    vertex 193.59931002558397 -668.1669707153478 102.12628831062361
    vertex 191.97302171618858 -654.4999999999974 100.50000000120117
    vertex 193.9188630111176 -672.8765680045647 102.44584129616659
  endloop
endfacet
facet normal -0.70710678118657 1.3923432899997148e-12 0.707106781186525
  outer loop
    vertex 193.61136851817105 -668.0666162059821 102.13834680321062
    vertex 191.97302171618858 -654.4999999999974 100.50000000120117
    vertex 193.59931002558397 -668.1669707153478 102.12628831062361
  endloop
endfacet
facet normal -0.70710678118657 1.3923432899997148e-12 0.707106781186525
  outer loop
    vertex 193.59286809122352 -659.5116594006482 102.11984637624627
    vertex 191.97302171618858 -654.4999999999974 100.50000000120117
    vertex 193.61136851817105 -668.0666162059821 102.13834680321062
  endloop
endfacet
facet normal -0.70710678118657 1.3923432899997148e-12 0.707106781186525
  outer loop
    vertex 193.61539034195738 -659.4160005312237 102.14236862697956
    vertex 191.97302171618858 -654.4999999999974 100.50000000120117
    vertex 193.59286809122352 -659.5116594006482 102.11984637624627
  endloop
endfacet
facet normal -0.70710678118657 1.3923432899997148e-12 0.707106781186525
  outer loop
    vertex 193.94280475986898 -654.4999999999922 102.46978304488192
    vertex 191.97302171618858 -654.4999999999974 100.50000000120117
    vertex 193.61539034195738 -659.4160005312237 102.14236862697956
  endloop
endfacet
facet normal -0.065247026963988 -0.2844354695883832 0.9564723148698016
  outer loop
    vertex 235.7017499862097 -668.2520616438018 105.96158311469952
    vertex 235.95088455133154 -668.2998920799531 105.96435435760915
    vertex 236.7591792593371 -665.4322502487922 106.87227177870437
  endloop
endfacet
facet normal -0.065247026963988 -0.2844354695883832 0.9564723148698016
  outer loop
    vertex 258.6722553617677 -672.6620851593731 106.21709503100767
    vertex 236.7591792593371 -665.4322502487922 106.87227177870437
    vertex 235.95088455133154 -668.2998920799531 105.96435435760915
  endloop
endfacet
facet normal -0.065247026963988 -0.2844354695883832 0.9564723148698016
  outer loop
    vertex 258.60333722700597 -672.2448709232455 106.33646474197567
    vertex 236.7591792593371 -665.4322502487922 106.87227177870437
    vertex 258.6722553617677 -672.6620851593731 106.21709503100767
  endloop
endfacet
facet normal -0.7071067811865733 1.398002083339221e-12 0.7071067811865218
  outer loop
    vertex 191.97302171618858 -693.9764021439267 100.50000000127896
    vertex 192.50016879521607 -693.6720536359461 101.02714708030621
    vertex 191.97302171618858 -675.4999999999972 100.50000000124265
  endloop
endfacet
facet normal -0.7071067811865733 1.398002083339221e-12 0.7071067811865218
  outer loop
    vertex 192.75342006422252 -685.7976213383452 101.28039834929713
    vertex 191.97302171618858 -675.4999999999972 100.50000000124265
    vertex 192.50016879521607 -693.6720536359461 101.02714708030621
  endloop
endfacet
facet normal -0.7071067811865733 1.398002083339221e-12 0.7071067811865218
  outer loop
    vertex 192.76061943196072 -685.7489688939515 101.28759771703496
    vertex 191.97302171618858 -675.4999999999972 100.50000000124265
    vertex 192.75342006422252 -685.7976213383452 101.28039834929713
  endloop
endfacet
facet normal -0.7071067811865733 1.398002083339221e-12 0.7071067811865218
  outer loop
    vertex 193.590232820703 -677.2353563780313 102.11721110576067
    vertex 191.97302171618858 -675.4999999999972 100.50000000124265
    vertex 192.76061943196072 -685.7489688939515 101.28759771703496
  endloop
endfacet
facet normal -0.7071067811865733 1.398002083339221e-12 0.7071067811865218
  outer loop
    vertex 193.61501971952703 -677.1380124823263 102.14199800458427
    vertex 191.97302171618858 -675.4999999999972 100.50000000124265
    vertex 193.590232820703 -677.2353563780313 102.11721110576067
  endloop
endfacet
facet normal -0.7071067811865733 1.398002083339221e-12 0.7071067811865218
  outer loop
    vertex 193.7948308505233 -676.0518219941129 102.32180913557868
    vertex 191.97302171618858 -675.4999999999972 100.50000000124265
    vertex 193.61501971952703 -677.1380124823263 102.14199800458427
  endloop
endfacet
facet normal -0.7071067811865733 1.398002083339221e-12 0.7071067811865218
  outer loop
    vertex 191.97302171618858 -674.9999999999973 100.50000000124153
    vertex 191.97302171618858 -675.4999999999972 100.50000000124265
    vertex 193.7948308505233 -676.0518219941129 102.32180913557868
  endloop
endfacet
facet normal 1.0 0.0 0.0
  outer loop
    vertex 234.47302171618867 -666.292893218811 100.00000000122455
    vertex 234.47302171618867 -659.1874999999977 100.00000000121047
    vertex 234.47302171618867 -666.2928932188105 100.50000000122444
  endloop
endfacet
facet normal 1.0 0.0 0.0
  outer loop
    vertex 234.47302171618867 -665.7244871458621 102.00000000122334
    vertex 234.47302171618867 -666.2928932188105 100.50000000122444
    vertex 234.47302171618867 -659.1874999999977 100.00000000121047
  endloop
endfacet
facet normal 1.0 0.0 0.0
  outer loop
    vertex 234.47302171618867 -659.1874999999935 102.00000000121045
    vertex 234.47302171618867 -665.7244871458621 102.00000000122334
    vertex 234.47302171618867 -659.1874999999977 100.00000000121047
  endloop
endfacet
facet normal -0.6830127018922846 0.6830127018926943 0.2588190451010952
  outer loop
    vertex 235.56583058969352 -668.6145133678452 105.77848545921401
    vertex 236.76595986579986 -665.4141686315709 100.5000000012229
    vertex 233.5962854222776 -670.223796478446 104.82776886601317
  endloop
endfacet
facet normal -0.6830127018922846 0.6830127018926943 0.2588190451010952
  outer loop
    vertex 230.24673302033807 -673.2578728783628 103.9952408098263
    vertex 233.5962854222776 -670.223796478446 104.82776886601317
    vertex 236.76595986579986 -665.4141686315709 100.5000000012229
  endloop
endfacet
facet normal -0.6830127018922846 0.6830127018926943 0.2588190451010952
  outer loop
    vertex 228.07981140251525 -675.1271459001549 103.20975853703004
    vertex 230.24673302033807 -673.2578728783628 103.9952408098263
    vertex 236.76595986579986 -665.4141686315709 100.5000000012229
  endloop
endfacet
facet normal -0.6830127018922846 0.6830127018926943 0.2588190451010952
  outer loop
    vertex 226.69014975745094 -676.4257610044639 102.96949050044046
    vertex 228.07981140251525 -675.1271459001549 103.20975853703004
    vertex 236.76595986579986 -665.4141686315709 100.5000000012229
  endloop
endfacet
facet normal -0.6830127018922846 0.6830127018926943 0.2588190451010952
  outer loop
    vertex 227.18012849737508 -674.9999999999973 100.50000000124153
    vertex 226.69014975745094 -676.4257610044639 102.96949050044046
    vertex 236.76595986579986 -665.4141686315709 100.5000000012229
  endloop
endfacet
facet normal -0.09579191040989393 0.34439049522992243 0.9339267084173746
  outer loop
    vertex 241.04399898839918 -724.8923265704077 108.34178089190225
    vertex 243.05997814858856 -726.592391337829 109.17546584304326
    vertex 257.37429140791795 -720.684854923884 108.46523454556326
  endloop
endfacet
facet normal -0.09579191040989393 0.34439049522992243 0.9339267084173746
  outer loop
    vertex 257.25697634610276 -721.2685170137619 108.66843019312168
    vertex 257.37429140791795 -720.684854923884 108.46523454556326
    vertex 243.05997814858856 -726.592391337829 109.17546584304326
  endloop
endfacet
facet normal 0.0 1.9698374875698473e-12 1.0
  outer loop
    vertex 196.84802171618855 -713.9999999999967 100.50000000131855
    vertex 197.0980217161885 -714.9999999999974 100.50000000132034
    vertex 227.18012849737508 -713.9999999999967 100.50000000131855
  endloop
endfacet
facet normal 0.0 1.9698374875698473e-12 1.0
  outer loop
    vertex 226.76591493500203 -714.9999999999974 100.50000000132034
    vertex 227.18012849737508 -713.9999999999967 100.50000000131855
    vertex 197.0980217161885 -714.9999999999974 100.50000000132034
  endloop
endfacet
facet normal -5.562387817335627e-16 -0.8660254037834665 0.5000000000016839
  outer loop
    vertex 226.69014975745094 -712.5742389955196 102.96949050051164
    vertex 196.5771591572612 -712.9165497642845 102.37659085703517
    vertex 227.18012849737508 -713.9999999999967 100.50000000131855
  endloop
endfacet
facet normal -5.562387817335627e-16 -0.8660254037834665 0.5000000000016839
  outer loop
    vertex 196.84802171618855 -713.9999999999967 100.50000000131855
    vertex 227.18012849737508 -713.9999999999967 100.50000000131855
    vertex 196.5771591572612 -712.9165497642845 102.37659085703517
  endloop
endfacet
facet normal -3.073024777501736e-17 -0.8660254037834539 0.5000000000017054
  outer loop
    vertex 261.6608897145738 -693.6642701423099 101.04062848674356
    vertex 205.25244375673492 -693.6642701423099 101.04062848674356
    vertex 261.97302171618855 -693.9764021439267 100.50000000127896
  endloop
endfacet
facet normal -3.073024777501736e-17 -0.8660254037834539 0.5000000000017054
  outer loop
    vertex 192.50016879521607 -693.6720536359461 101.02714708030621
    vertex 261.97302171618855 -693.9764021439267 100.50000000127896
    vertex 205.25244375673492 -693.6642701423099 101.04062848674356
  endloop
endfacet
facet normal -3.073024777501736e-17 -0.8660254037834539 0.5000000000017054
  outer loop
    vertex 191.97302171618858 -693.9764021439267 100.50000000127896
    vertex 261.97302171618855 -693.9764021439267 100.50000000127896
    vertex 192.50016879521607 -693.6720536359461 101.02714708030621
  endloop
endfacet
facet normal 0.9238795325112994 -0.3826834323650592 7.538241743327256e-13
  outer loop
    vertex 226.76591493500203 -714.9999999999978 100.00000000132056
    vertex 227.18012849737508 -713.9999999999972 100.00000000131858
    vertex 226.76591493500203 -714.9999999999974 100.50000000132034
  endloop
endfacet
facet normal 0.9238795325112994 -0.3826834323650592 7.538241743327256e-13
  outer loop
    vertex 227.18012849737508 -713.9999999999967 100.50000000131855
    vertex 226.76591493500203 -714.9999999999974 100.50000000132034
    vertex 227.18012849737508 -713.9999999999972 100.00000000131858
  endloop
endfacet
facet normal -0.0010370313630270614 -0.0321112547764777 0.9994837626908365
  outer loop
    vertex 192.50016879521607 -693.6720536359461 101.02714708030621
    vertex 205.25244375673492 -693.6642701423099 101.04062848674356
    vertex 192.75342006422252 -685.7976213383452 101.28039834929713
  endloop
endfacet
facet normal -0.0010370313630270614 -0.0321112547764777 0.9994837626908365
  outer loop
    vertex 261.5604701666707 -690.0689955136085 101.21456024577772
    vertex 192.75342006422252 -685.7976213383452 101.28039834929713
    vertex 205.25244375673492 -693.6642701423099 101.04062848674356
  endloop
endfacet
facet normal -0.0010370313630270614 -0.0321112547764777 0.9994837626908365
  outer loop
    vertex 261.5614251231246 -690.1205092135546 101.21290621268044
    vertex 261.5604701666707 -690.0689955136085 101.21456024577772
    vertex 205.25244375673492 -693.6642701423099 101.04062848674356
  endloop
endfacet
facet normal 0.7071067811865447 -0.7071067811865503 1.39328113504336e-12
  outer loop
    vertex 226.76591493500203 -673.9999999999968 100.50000000123964
    vertex 226.76591493500203 -673.9999999999973 100.00000000123967
    vertex 234.47302171618867 -666.2928932188105 100.50000000122444
  endloop
endfacet
facet normal 0.7071067811865447 -0.7071067811865503 1.39328113504336e-12
  outer loop
    vertex 234.47302171618867 -666.292893218811 100.00000000122455
    vertex 234.47302171618867 -666.2928932188105 100.50000000122444
    vertex 226.76591493500203 -673.9999999999973 100.00000000123967
  endloop
endfacet
facet normal -0.053948196851287836 0.3330324433817786 0.941370800328785
  outer loop
    vertex 228.07981140251454 -713.8728540998268 103.20975853710603
    vertex 230.2467330203377 -715.7421271216153 103.99524080991011
    vertex 260.5714679644259 -707.8118302760603 102.92756230889819
  endloop
endfacet
facet normal -0.053948196851287836 0.3330324433817786 0.941370800328785
  outer loop
    vertex 259.7450648552889 -711.9917081015714 104.35893448146456
    vertex 260.5714679644259 -707.8118302760603 102.92756230889819
    vertex 230.2467330203377 -715.7421271216153 103.99524080991011
  endloop
endfacet
facet normal -0.040329329026277165 0.22274714361948925 0.9740417112370748
  outer loop
    vertex 230.2467330203377 -715.7421271216153 103.99524080991011
    vertex 233.59628542227722 -718.7762035215293 104.82776886610874
    vertex 259.7450648552889 -711.9917081015714 104.35893448146456
  endloop
endfacet
facet normal -0.040329329026277165 0.22274714361948925 0.9740417112370748
  outer loop
    vertex 259.7088735490765 -712.2723741123657 104.4216196626174
    vertex 259.7450648552889 -711.9917081015714 104.35893448146456
    vertex 233.59628542227722 -718.7762035215293 104.82776886610874
  endloop
endfacet
facet normal 0.3511234415884039 0.9363291775690401 -1.8545989083275156e-12
  outer loop
    vertex 231.04188473557045 -657.9008236322547 105.4311369818261
    vertex 234.47302171618867 -659.1874999999935 102.00000000121045
    vertex 221.9730217161886 -654.4999999999877 104.98352245022174
  endloop
endfacet
facet normal 0.3511234415884039 0.9363291775690401 -1.8545989083275156e-12
  outer loop
    vertex 221.9730217161886 -654.4999999999973 100.00000000120137
    vertex 221.9730217161886 -654.4999999999877 104.98352245022174
    vertex 234.47302171618867 -659.1874999999935 102.00000000121045
  endloop
endfacet
facet normal 0.3511234415884039 0.9363291775690401 -1.8545989083275156e-12
  outer loop
    vertex 234.47302171618867 -659.1874999999977 100.00000000121047
    vertex 221.9730217161886 -654.4999999999973 100.00000000120137
    vertex 234.47302171618867 -659.1874999999935 102.00000000121045
  endloop
endfacet
facet normal 5.851476404477852e-17 -0.8660254037834585 0.5000000000016978
  outer loop
    vertex 227.36031516866117 -672.2703888859827 103.49577432803373
    vertex 217.70161957359554 -672.5948937483747 102.93371541907025
    vertex 226.76591493500203 -673.9999999999968 100.50000000123964
  endloop
endfacet
facet normal 5.851476404477852e-17 -0.8660254037834585 0.5000000000016978
  outer loop
    vertex 193.9188630111176 -672.8765680045647 102.44584129616659
    vertex 226.76591493500203 -673.9999999999968 100.50000000123964
    vertex 217.70161957359554 -672.5948937483747 102.93371541907025
  endloop
endfacet
facet normal 5.851476404477852e-17 -0.8660254037834585 0.5000000000016978
  outer loop
    vertex 191.97302171618858 -673.9999999999968 100.50000000123964
    vertex 226.76591493500203 -673.9999999999968 100.50000000123964
    vertex 193.9188630111176 -672.8765680045647 102.44584129616659
  endloop
endfacet
facet normal -3.5425019155922445e-16 0.8660254037854253 0.4999999999982914
  outer loop
    vertex 227.36031516866117 -716.7296111139985 103.49577432812113
    vertex 226.76591493500203 -714.9999999999974 100.50000000132034
    vertex 217.7016195735948 -716.4051062516091 102.93371541915654
  endloop
endfacet
facet normal -3.5425019155922445e-16 0.8660254037854253 0.4999999999982914
  outer loop
    vertex 197.38915493159675 -716.1645328616252 102.51703008475405
    vertex 217.7016195735948 -716.4051062516091 102.93371541915654
    vertex 226.76591493500203 -714.9999999999974 100.50000000132034
  endloop
endfacet
facet normal -3.5425019155922445e-16 0.8660254037854253 0.4999999999982914
  outer loop
    vertex 197.0980217161885 -714.9999999999974 100.50000000132034
    vertex 197.38915493159675 -716.1645328616252 102.51703008475405
    vertex 226.76591493500203 -714.9999999999974 100.50000000132034
  endloop
endfacet
facet normal 0.7071067811865416 1.3988228718177e-12 0.7071067811865536
  outer loop
    vertex 231.04188473557045 -657.9008236322547 105.4311369818261
    vertex 231.3061106074591 -660.1819254025703 105.16691110994182
    vertex 234.47302171618867 -659.1874999999935 102.00000000121045
  endloop
endfacet
facet normal 0.7071067811865416 1.3988228718177e-12 0.7071067811865536
  outer loop
    vertex 232.02295151129232 -662.765826308211 104.45007020611384
    vertex 234.47302171618867 -659.1874999999935 102.00000000121045
    vertex 231.3061106074591 -660.1819254025703 105.16691110994182
  endloop
endfacet
facet normal 0.7071067811865416 1.3988228718177e-12 0.7071067811865536
  outer loop
    vertex 232.24372207163532 -666.5453812309261 104.22929964577841
    vertex 234.47302171618867 -659.1874999999935 102.00000000121045
    vertex 232.02295151129232 -662.765826308211 104.45007020611384
  endloop
endfacet
facet normal 0.7071067811865416 1.3988228718177e-12 0.7071067811865536
  outer loop
    vertex 232.34185377967495 -667.0480758839856 104.1311679377397
    vertex 234.47302171618867 -659.1874999999935 102.00000000121045
    vertex 232.24372207163532 -666.5453812309261 104.22929964577841
  endloop
endfacet
facet normal 0.7071067811865416 1.3988228718177e-12 0.7071067811865536
  outer loop
    vertex 234.47302171618867 -665.7244871458621 102.00000000122334
    vertex 234.47302171618867 -659.1874999999935 102.00000000121045
    vertex 232.34185377967495 -667.0480758839856 104.1311679377397
  endloop
endfacet
facet normal 0.707106781186544 1.3932629712688409e-12 0.7071067811865512
  outer loop
    vertex 231.04188473557045 -731.0991763677187 105.43113698197054
    vertex 234.47302171618867 -729.8124999999934 102.00000000134975
    vertex 231.3061106074591 -728.8180745974034 105.16691111007707
  endloop
endfacet
facet normal 0.707106781186544 1.3932629712688409e-12 0.7071067811865512
  outer loop
    vertex 232.02295151129232 -726.2341736917657 104.45007020623886
    vertex 231.3061106074591 -728.8180745974034 105.16691111007707
    vertex 234.47302171618867 -729.8124999999934 102.00000000134975
  endloop
endfacet
facet normal 0.707106781186544 1.3932629712688409e-12 0.7071067811865512
  outer loop
    vertex 232.24372207163495 -722.4546187690519 104.22929964588874
    vertex 232.02295151129232 -726.2341736917657 104.45007020623886
    vertex 234.47302171618867 -729.8124999999934 102.00000000134975
  endloop
endfacet
facet normal 0.707106781186544 1.3932629712688409e-12 0.7071067811865512
  outer loop
    vertex 232.34185377967495 -721.9519241159923 104.13116793784789
    vertex 232.24372207163495 -722.4546187690519 104.22929964588874
    vertex 234.47302171618867 -729.8124999999934 102.00000000134975
  endloop
endfacet
facet normal 0.707106781186544 1.3932629712688409e-12 0.7071067811865512
  outer loop
    vertex 234.47302171618867 -723.275512854125 102.00000000133669
    vertex 232.34185377967495 -721.9519241159923 104.13116793784789
    vertex 234.47302171618867 -729.8124999999934 102.00000000134975
  endloop
endfacet
facet normal 0.6830127018922147 -0.6830127018917157 0.2588190451038623
  outer loop
    vertex 226.76591493500203 -673.9999999999968 100.50000000123964
    vertex 234.47302171618867 -666.2928932188105 100.50000000122444
    vertex 227.36031516866117 -672.2703888859827 103.49577432803373
  endloop
endfacet
facet normal 0.6830127018922147 -0.6830127018917157 0.2588190451038623
  outer loop
    vertex 227.45841497805102 -672.1657629051007 103.51299662333257
    vertex 227.36031516866117 -672.2703888859827 103.49577432803373
    vertex 234.47302171618867 -666.2928932188105 100.50000000122444
  endloop
endfacet
facet normal 0.6830127018922147 -0.6830127018917157 0.2588190451038623
  outer loop
    vertex 230.88271442729192 -668.6918214728635 103.6439997530223
    vertex 227.45841497805102 -672.1657629051007 103.51299662333257
    vertex 234.47302171618867 -666.2928932188105 100.50000000122444
  endloop
endfacet
facet normal 0.6830127018922147 -0.6830127018917157 0.2588190451038623
  outer loop
    vertex 232.34185377967495 -667.0480758839856 104.1311679377397
    vertex 230.88271442729192 -668.6918214728635 103.6439997530223
    vertex 234.47302171618867 -666.2928932188105 100.50000000122444
  endloop
endfacet
facet normal 0.6830127018922147 -0.6830127018917157 0.2588190451038623
  outer loop
    vertex 234.47302171618867 -665.7244871458621 102.00000000122334
    vertex 232.34185377967495 -667.0480758839856 104.1311679377397
    vertex 234.47302171618867 -666.2928932188105 100.50000000122444
  endloop
endfacet
facet normal 0.8660254037844581 1.017873187102336e-12 0.49999999999996625
  outer loop
    vertex 261.97302171618855 -693.9764021439267 100.50000000127896
    vertex 261.97302171618765 -669.4999999999958 100.50000000123097
    vertex 261.6608897145738 -693.6642701423099 101.04062848674356
  endloop
endfacet
facet normal 0.8660254037844581 1.017873187102336e-12 0.49999999999996625
  outer loop
    vertex 261.5614251231246 -690.1205092135546 101.21290621268044
    vertex 261.6608897145738 -693.6642701423099 101.04062848674356
    vertex 261.97302171618765 -669.4999999999958 100.50000000123097
  endloop
endfacet
facet normal 0.8660254037844581 1.017873187102336e-12 0.49999999999996625
  outer loop
    vertex 261.5604701666707 -690.0689955136085 101.21456024577772
    vertex 261.5614251231246 -690.1205092135546 101.21290621268044
    vertex 261.97302171618765 -669.4999999999958 100.50000000123097
  endloop
endfacet
facet normal 0.8660254037844581 1.017873187102336e-12 0.49999999999996625
  outer loop
    vertex 261.1946007333431 -685.7309641141818 101.84826469322869
    vertex 261.5604701666707 -690.0689955136085 101.21456024577772
    vertex 261.97302171618765 -669.4999999999958 100.50000000123097
  endloop
endfacet
facet normal 0.8660254037844581 1.017873187102336e-12 0.49999999999996625
  outer loop
    vertex 261.18918104973716 -685.6333803914215 101.85765186059547
    vertex 261.1946007333431 -685.7309641141818 101.84826469322869
    vertex 261.97302171618765 -669.4999999999958 100.50000000123097
  endloop
endfacet
facet normal 0.8660254037844581 1.017873187102336e-12 0.49999999999996625
  outer loop
    vertex 260.5875459072975 -681.3622295296178 102.89971449491135
    vertex 261.18918104973716 -685.6333803914215 101.85765186059547
    vertex 261.97302171618765 -669.4999999999958 100.50000000123097
  endloop
endfacet
facet normal 0.8660254037844581 1.017873187102336e-12 0.49999999999996625
  outer loop
    vertex 260.57146796442555 -681.1881697239227 102.92756230884572
    vertex 260.5875459072975 -681.3622295296178 102.89971449491135
    vertex 261.97302171618765 -669.4999999999958 100.50000000123097
  endloop
endfacet
facet normal 0.8660254037844581 1.017873187102336e-12 0.49999999999996625
  outer loop
    vertex 259.7450648552889 -677.0082918984051 104.3589344813956
    vertex 260.57146796442555 -681.1881697239227 102.92756230884572
    vertex 261.97302171618765 -669.4999999999958 100.50000000123097
  endloop
endfacet
facet normal 0.8660254037844581 1.017873187102336e-12 0.49999999999996625
  outer loop
    vertex 259.70887354907615 -676.7276258876113 104.42161966254751
    vertex 259.7450648552889 -677.0082918984051 104.3589344813956
    vertex 261.97302171618765 -669.4999999999958 100.50000000123097
  endloop
endfacet
facet normal 0.8660254037844581 1.017873187102336e-12 0.49999999999996625
  outer loop
    vertex 258.6722553617677 -672.6620851593731 106.21709503100767
    vertex 259.70887354907615 -676.7276258876113 104.42161966254751
    vertex 261.97302171618765 -669.4999999999958 100.50000000123097
  endloop
endfacet
facet normal 0.8660254037844581 1.017873187102336e-12 0.49999999999996625
  outer loop
    vertex 258.60333722700597 -672.2448709232455 106.33646474197567
    vertex 258.6722553617677 -672.6620851593731 106.21709503100767
    vertex 261.97302171618765 -669.4999999999958 100.50000000123097
  endloop
endfacet
facet normal 1.0 1.803991459578147e-14 -4.516203405157358e-13
  outer loop
    vertex 261.97302171618855 -719.4999999999968 100.00000000132931
    vertex 261.97302171618765 -669.4999999999968 100.00000000123092
    vertex 261.97302171618855 -719.4999999999958 100.50000000132928
  endloop
endfacet
facet normal 1.0 1.803991459578147e-14 -4.516203405157358e-13
  outer loop
    vertex 261.97302171618855 -694.9764021439264 100.50000000128085
    vertex 261.97302171618855 -719.4999999999958 100.50000000132928
    vertex 261.97302171618765 -669.4999999999968 100.00000000123092
  endloop
endfacet
facet normal 1.0 1.803991459578147e-14 -4.516203405157358e-13
  outer loop
    vertex 261.97302171618855 -693.9764021439267 100.50000000127896
    vertex 261.97302171618855 -694.9764021439264 100.50000000128085
    vertex 261.97302171618765 -669.4999999999968 100.00000000123092
  endloop
endfacet
facet normal 1.0 1.803991459578147e-14 -4.516203405157358e-13
  outer loop
    vertex 261.97302171618765 -669.4999999999958 100.50000000123097
    vertex 261.97302171618855 -693.9764021439267 100.50000000127896
    vertex 261.97302171618765 -669.4999999999968 100.00000000123092
  endloop
endfacet
facet normal 0.0 1.9698374875698473e-12 1.0
  outer loop
    vertex 191.97302171618858 -693.9764021439267 100.50000000127896
    vertex 191.97302171618858 -694.4999999999974 100.5000000012799
    vertex 261.97302171618855 -693.9764021439267 100.50000000127896
  endloop
endfacet
facet normal 0.0 1.9698374875698473e-12 1.0
  outer loop
    vertex 192.0921222521709 -694.9764021439264 100.50000000128085
    vertex 261.97302171618855 -693.9764021439267 100.50000000127896
    vertex 191.97302171618858 -694.4999999999974 100.5000000012799
  endloop
endfacet
facet normal 0.0 1.9698374875698473e-12 1.0
  outer loop
    vertex 261.97302171618855 -694.9764021439264 100.50000000128085
    vertex 261.97302171618855 -693.9764021439267 100.50000000127896
    vertex 192.0921222521709 -694.9764021439264 100.50000000128085
  endloop
endfacet
facet normal -0.13643106009008432 -0.5045090585251015 0.8525591919091668
  outer loop
    vertex 236.7591792593371 -665.4322502487922 106.87227177870437
    vertex 258.60333722700597 -672.2448709232455 106.33646474197567
    vertex 237.58964836890277 -663.2176659566124 108.31566671120932
  endloop
endfacet
facet normal -0.13643106009008432 -0.5045090585251015 0.8525591919091668
  outer loop
    vertex 259.0109306519396 -668.7368223515293 108.47760720170153
    vertex 237.58964836890277 -663.2176659566124 108.31566671120932
    vertex 258.60333722700597 -672.2448709232455 106.33646474197567
  endloop
endfacet
facet normal 0.9238795325112994 0.38268343236505914 -7.537972420731346e-13
  outer loop
    vertex 227.18012849737508 -674.9999999999977 100.00000000124173
    vertex 226.76591493500203 -673.9999999999973 100.00000000123967
    vertex 227.18012849737508 -674.9999999999973 100.50000000124153
  endloop
endfacet
facet normal 0.9238795325112994 0.38268343236505914 -7.537972420731346e-13
  outer loop
    vertex 226.76591493500203 -673.9999999999968 100.50000000123964
    vertex 227.18012849737508 -674.9999999999973 100.50000000124153
    vertex 226.76591493500203 -673.9999999999973 100.00000000123967
  endloop
endfacet
facet normal -9.808438762610222e-16 0.8660254037854332 0.4999999999982773
  outer loop
    vertex 226.69014975745094 -676.4257610044639 102.96949050044046
    vertex 227.18012849737508 -674.9999999999973 100.50000000124153
    vertex 193.7948308505233 -676.0518219941129 102.32180913557868
  endloop
endfacet
facet normal -9.808438762610222e-16 0.8660254037854332 0.4999999999982773
  outer loop
    vertex 191.97302171618858 -674.9999999999973 100.50000000124153
    vertex 193.7948308505233 -676.0518219941129 102.32180913557868
    vertex 227.18012849737508 -674.9999999999973 100.50000000124153
  endloop
endfacet
facet normal -0.7071067811865966 0.7071067811864985 -9.816129734733911e-13
  outer loop
    vertex 227.18012849737508 -674.9999999999977 100.00000000124173
    vertex 227.18012849737508 -674.9999999999973 100.50000000124153
    vertex 236.76595986579986 -665.4141686315719 100.00000000122293
  endloop
endfacet
facet normal -0.7071067811865966 0.7071067811864985 -9.816129734733911e-13
  outer loop
    vertex 236.76595986579986 -665.4141686315709 100.5000000012229
    vertex 236.76595986579986 -665.4141686315719 100.00000000122293
    vertex 227.18012849737508 -674.9999999999973 100.50000000124153
  endloop
endfacet
facet normal -0.06524702696398292 0.28443546959210897 0.9564723148686939
  outer loop
    vertex 235.95088455133208 -720.7001079200172 105.96435435771237
    vertex 238.564792276963 -723.0046263480143 106.82798258433797
    vertex 258.6722553617677 -716.3379148405963 106.21709503109372
  endloop
endfacet
facet normal -0.06524702696398292 0.28443546959210897 0.9564723148686939
  outer loop
    vertex 258.6033372270069 -716.7551290767232 106.33646474206334
    vertex 258.6722553617677 -716.3379148405963 106.21709503109372
    vertex 238.564792276963 -723.0046263480143 106.82798258433797
  endloop
endfacet
facet normal -0.021248657283894985 -0.15985858540460163 0.9869112053452789
  outer loop
    vertex 193.61501971952703 -677.1380124823263 102.14199800458427
    vertex 260.5875459072975 -681.3622295296178 102.89971449491135
    vertex 193.7948308505233 -676.0518219941129 102.32180913557868
  endloop
endfacet
facet normal -0.021248657283894985 -0.15985858540460163 0.9869112053452789
  outer loop
    vertex 226.69014975745094 -676.4257610044639 102.96949050044046
    vertex 193.7948308505233 -676.0518219941129 102.32180913557868
    vertex 260.5875459072975 -681.3622295296178 102.89971449491135
  endloop
endfacet
facet normal -0.021248657283894985 -0.15985858540460163 0.9869112053452789
  outer loop
    vertex 228.07981140251525 -675.1271459001549 103.20975853703004
    vertex 226.69014975745094 -676.4257610044639 102.96949050044046
    vertex 260.5875459072975 -681.3622295296178 102.89971449491135
  endloop
endfacet
facet normal -0.021248657283894985 -0.15985858540460163 0.9869112053452789
  outer loop
    vertex 260.57146796442555 -681.1881697239227 102.92756230884572
    vertex 228.07981140251525 -675.1271459001549 103.20975853703004
    vertex 260.5875459072975 -681.3622295296178 102.89971449491135
  endloop
endfacet
facet normal -0.0010370313630273667 0.0321112547804178 0.9994837626907099
  outer loop
    vertex 192.16793568876187 -695.2796558902904 101.02525089757181
    vertex 194.12729468360416 -703.1170918696588 101.2790837558513
    vertex 204.48086599011714 -695.2871712249993 101.03826783912368
  endloop
endfacet
facet normal -0.0010370313630273667 0.0321112547804178 0.9994837626907099
  outer loop
    vertex 261.5604701666707 -698.9310044863809 101.21456024579514
    vertex 204.48086599011714 -695.2871712249993 101.03826783912368
    vertex 194.12729468360416 -703.1170918696588 101.2790837558513
  endloop
endfacet
facet normal -0.0010370313630273667 0.0321112547804178 0.9994837626907099
  outer loop
    vertex 261.5614251231246 -698.8794907864348 101.2129062126976
    vertex 204.48086599011714 -695.2871712249993 101.03826783912368
    vertex 261.5604701666707 -698.9310044863809 101.21456024579514
  endloop
endfacet
facet normal 0.0 1.9698374875698473e-12 1.0
  outer loop
    vertex 191.97302171618858 -673.9999999999968 100.50000000123964
    vertex 191.97302171618858 -674.9999999999973 100.50000000124153
    vertex 226.76591493500203 -673.9999999999968 100.50000000123964
  endloop
endfacet
facet normal 0.0 1.9698374875698473e-12 1.0
  outer loop
    vertex 227.18012849737508 -674.9999999999973 100.50000000124153
    vertex 226.76591493500203 -673.9999999999968 100.50000000123964
    vertex 191.97302171618858 -674.9999999999973 100.50000000124153
  endloop
endfacet
facet normal -0.13643106009008743 0.5045090585284355 0.8525591919071935
  outer loop
    vertex 238.564792276963 -723.0046263480143 106.82798258433797
    vertex 241.04399898839918 -724.8923265704077 108.34178089190225
    vertex 258.6033372270069 -716.7551290767232 106.33646474206334
  endloop
endfacet
facet normal -0.13643106009008743 0.5045090585284355 0.8525591919071935
  outer loop
    vertex 257.37429140791795 -720.684854923884 108.46523454556326
    vertex 258.6033372270069 -716.7551290767232 106.33646474206334
    vertex 241.04399898839918 -724.8923265704077 108.34178089190225
  endloop
endfacet
facet normal -2.697251121513522e-16 0.8660254037854186 0.49999999999830297
  outer loop
    vertex 204.48086599011714 -695.2871712249993 101.03826783912368
    vertex 261.66225263511456 -695.2871712249993 101.03826783912368
    vertex 192.16793568876187 -695.2796558902904 101.02525089757181
  endloop
endfacet
facet normal -2.697251121513522e-16 0.8660254037854186 0.49999999999830297
  outer loop
    vertex 261.97302171618855 -694.9764021439264 100.50000000128085
    vertex 192.16793568876187 -695.2796558902904 101.02525089757181
    vertex 261.66225263511456 -695.2871712249993 101.03826783912368
  endloop
endfacet
facet normal -2.697251121513522e-16 0.8660254037854186 0.49999999999830297
  outer loop
    vertex 192.0921222521709 -694.9764021439264 100.50000000128085
    vertex 192.16793568876187 -695.2796558902904 101.02525089757181
    vertex 261.97302171618855 -694.9764021439264 100.50000000128085
  endloop
endfacet
facet normal 0.6830127018922237 0.6830127018927323 0.2588190451011556
  outer loop
    vertex 232.34185377967495 -721.9519241159923 104.13116793784789
    vertex 234.47302171618867 -723.275512854125 102.00000000133669
    vertex 230.88271442729155 -720.3081785271162 103.64399975312425
  endloop
endfacet
facet normal 0.6830127018922237 0.6830127018927323 0.2588190451011556
  outer loop
    vertex 227.45841497805102 -716.8342370948802 103.51299662342076
    vertex 230.88271442729155 -720.3081785271162 103.64399975312425
    vertex 234.47302171618867 -723.275512854125 102.00000000133669
  endloop
endfacet
facet normal 0.6830127018922237 0.6830127018927323 0.2588190451011556
  outer loop
    vertex 227.36031516866117 -716.7296111139985 103.49577432812113
    vertex 227.45841497805102 -716.8342370948802 103.51299662342076
    vertex 234.47302171618867 -723.275512854125 102.00000000133669
  endloop
endfacet
facet normal 0.6830127018922237 0.6830127018927323 0.2588190451011556
  outer loop
    vertex 226.76591493500203 -714.9999999999974 100.50000000132034
    vertex 227.36031516866117 -716.7296111139985 103.49577432812113
    vertex 234.47302171618867 -723.275512854125 102.00000000133669
  endloop
endfacet
facet normal 0.6830127018922237 0.6830127018927323 0.2588190451011556
  outer loop
    vertex 234.47302171618867 -722.7071067811838 100.50000000133574
    vertex 226.76591493500203 -714.9999999999974 100.50000000132034
    vertex 234.47302171618867 -723.275512854125 102.00000000133669
  endloop
endfacet
facet normal -0.008067507100591478 -0.14520841903170525 0.9893681975743382
  outer loop
    vertex 192.75342006422252 -685.7976213383452 101.28039834929713
    vertex 261.5604701666707 -690.0689955136085 101.21456024577772
    vertex 192.76061943196072 -685.7489688939515 101.28759771703496
  endloop
endfacet
facet normal -0.008067507100591478 -0.14520841903170525 0.9893681975743382
  outer loop
    vertex 261.1946007333431 -685.7309641141818 101.84826469322869
    vertex 192.76061943196072 -685.7489688939515 101.28759771703496
    vertex 261.5604701666707 -690.0689955136085 101.21456024577772
  endloop
endfacet
facet normal -0.09579191040989454 -0.34439049522626264 0.9339267084187242
  outer loop
    vertex 237.58964836890277 -663.2176659566124 108.31566671120932
    vertex 259.0109306519396 -668.7368223515293 108.47760720170153
    vertex 238.53039279472085 -660.7090141544285 109.33723674840887
  endloop
endfacet
facet normal -0.09579191040989454 -0.34439049522626264 0.9339267084187242
  outer loop
    vertex 259.12858852330635 -668.4333375526493 108.60158690097475
    vertex 238.53039279472085 -660.7090141544285 109.33723674840887
    vertex 259.0109306519396 -668.7368223515293 108.47760720170153
  endloop
endfacet
facet normal -0.09098365350633934 -0.4216350158169882 0.9021894968528766
  outer loop
    vertex 233.5962854222776 -670.223796478446 104.82776886601317
    vertex 259.70887354907615 -676.7276258876113 104.42161966254751
    vertex 235.56583058969352 -668.6145133678452 105.77848545921401
  endloop
endfacet
facet normal -0.09098365350633934 -0.4216350158169882 0.9021894968528766
  outer loop
    vertex 235.95088455133154 -668.2998920799531 105.96435435760915
    vertex 235.56583058969352 -668.6145133678452 105.77848545921401
    vertex 259.70887354907615 -676.7276258876113 104.42161966254751
  endloop
endfacet
facet normal -0.09098365350633934 -0.4216350158169882 0.9021894968528766
  outer loop
    vertex 258.6722553617677 -672.6620851593731 106.21709503100767
    vertex 235.95088455133154 -668.2998920799531 105.96435435760915
    vertex 259.70887354907615 -676.7276258876113 104.42161966254751
  endloop
endfacet
facet normal -0.04032932902627613 -0.22274714361565276 0.9740417112379521
  outer loop
    vertex 230.24673302033807 -673.2578728783628 103.9952408098263
    vertex 259.7450648552889 -677.0082918984051 104.3589344813956
    vertex 233.5962854222776 -670.223796478446 104.82776886601317
  endloop
endfacet
facet normal -0.04032932902627613 -0.22274714361565276 0.9740417112379521
  outer loop
    vertex 259.70887354907615 -676.7276258876113 104.42161966254751
    vertex 233.5962854222776 -670.223796478446 104.82776886601317
    vertex 259.7450648552889 -677.0082918984051 104.3589344813956
  endloop
endfacet
facet normal -0.09098365350634702 0.4216350158205769 0.9021894968511988
  outer loop
    vertex 233.59628542227722 -718.7762035215293 104.82776886610874
    vertex 235.95088455133208 -720.7001079200172 105.96435435771237
    vertex 259.7088735490765 -712.2723741123657 104.4216196626174
  endloop
endfacet
facet normal -0.09098365350634702 0.4216350158205769 0.9021894968511988
  outer loop
    vertex 258.6722553617677 -716.3379148405963 106.21709503109372
    vertex 259.7088735490765 -712.2723741123657 104.4216196626174
    vertex 235.95088455133208 -720.7001079200172 105.96435435771237
  endloop
endfacet
facet normal -0.008129237321199441 0.09619819330448293 0.995329002443679
  outer loop
    vertex 194.16087159325824 -703.2513995082746 101.29906972454671
    vertex 196.2078829519475 -711.43944494303 102.10716013151546
    vertex 261.1946007333431 -703.2690358858051 101.84826469326302
  endloop
endfacet
facet normal -0.008129237321199441 0.09619819330448293 0.995329002443679
  outer loop
    vertex 261.18918104973716 -703.3666196085655 101.85765186063024
    vertex 261.1946007333431 -703.2690358858051 101.84826469326302
    vertex 196.2078829519475 -711.43944494303 102.10716013151546
  endloop
endfacet
facet normal -0.008129237321198619 -0.09619819330056786 0.9953290024440573
  outer loop
    vertex 192.76061943196072 -685.7489688939515 101.28759771703496
    vertex 261.1946007333431 -685.7309641141818 101.84826469322869
    vertex 193.590232820703 -677.2353563780313 102.11721110576067
  endloop
endfacet
facet normal -0.008129237321198619 -0.09619819330056786 0.9953290024440573
  outer loop
    vertex 261.18918104973716 -685.6333803914215 101.85765186059547
    vertex 193.590232820703 -677.2353563780313 102.11721110576067
    vertex 261.1946007333431 -685.7309641141818 101.84826469322869
  endloop
endfacet
facet normal -0.008067507100592983 0.1452084190356007 0.9893681975737665
  outer loop
    vertex 194.12729468360416 -703.1170918696588 101.2790837558513
    vertex 194.16087159325824 -703.2513995082746 101.29906972454671
    vertex 261.5604701666707 -698.9310044863809 101.21456024579514
  endloop
endfacet
facet normal -0.008067507100592983 0.1452084190356007 0.9893681975737665
  outer loop
    vertex 261.1946007333431 -703.2690358858051 101.84826469326302
    vertex 261.5604701666707 -698.9310044863809 101.21456024579514
    vertex 194.16087159325824 -703.2513995082746 101.29906972454671
  endloop
endfacet
facet normal -0.0261420841679376 0.24041753892860535 0.9703174730009086
  outer loop
    vertex 196.2078829519475 -711.43944494303 102.10716013151546
    vertex 196.2716279487657 -711.6944249303024 102.1720544468711
    vertex 261.18918104973716 -703.3666196085655 101.85765186063024
  endloop
endfacet
facet normal -0.0261420841679376 0.24041753892860535 0.9703174730009086
  outer loop
    vertex 260.5875459072975 -707.6377704703641 102.89971449496295
    vertex 261.18918104973716 -703.3666196085655 101.85765186063024
    vertex 196.2716279487657 -711.6944249303024 102.1720544468711
  endloop
endfacet
facet normal -3.9899170130445964e-16 0.048557030966015026 0.9988204116575539
  outer loop
    vertex 204.48086599011714 -695.2871712249993 101.03826783912368
    vertex 261.5614251231246 -698.8794907864348 101.2129062126976
    vertex 261.66225263511456 -695.2871712249993 101.03826783912368
  endloop
endfacet
facet normal -0.026142084167934298 -0.24041753892478507 0.9703174730018552
  outer loop
    vertex 193.590232820703 -677.2353563780313 102.11721110576067
    vertex 261.18918104973716 -685.6333803914215 101.85765186059547
    vertex 193.61501971952703 -677.1380124823263 102.14199800458427
  endloop
endfacet
facet normal -0.026142084167934298 -0.24041753892478507 0.9703174730018552
  outer loop
    vertex 260.5875459072975 -681.3622295296178 102.89971449491135
    vertex 193.61501971952703 -677.1380124823263 102.14199800458427
    vertex 261.18918104973716 -685.6333803914215 101.85765186059547
  endloop
endfacet
facet normal -1.0 0.0 0.0
  outer loop
    vertex 191.97302171618858 -694.4999999999974 100.5000000012799
    vertex 191.97302171618858 -693.9764021439267 100.50000000127896
    vertex 191.97302171618858 -694.4999999999972 100.0000000012801
  endloop
endfacet
facet normal -1.0 0.0 0.0
  outer loop
    vertex 191.97302171618858 -654.4999999999973 100.00000000120137
    vertex 191.97302171618858 -694.4999999999972 100.0000000012801
    vertex 191.97302171618858 -693.9764021439267 100.50000000127896
  endloop
endfacet
facet normal -1.0 0.0 0.0
  outer loop
    vertex 191.97302171618858 -675.4999999999972 100.50000000124265
    vertex 191.97302171618858 -654.4999999999973 100.00000000120137
    vertex 191.97302171618858 -693.9764021439267 100.50000000127896
  endloop
endfacet
facet normal -1.0 0.0 0.0
  outer loop
    vertex 191.97302171618858 -674.9999999999973 100.50000000124153
    vertex 191.97302171618858 -654.4999999999973 100.00000000120137
    vertex 191.97302171618858 -675.4999999999972 100.50000000124265
  endloop
endfacet
facet normal -1.0 0.0 0.0
  outer loop
    vertex 191.97302171618858 -673.9999999999968 100.50000000123964
    vertex 191.97302171618858 -654.4999999999973 100.00000000120137
    vertex 191.97302171618858 -674.9999999999973 100.50000000124153
  endloop
endfacet
facet normal -1.0 0.0 0.0
  outer loop
    vertex 191.97302171618858 -654.4999999999974 100.50000000120117
    vertex 191.97302171618858 -654.4999999999973 100.00000000120137
    vertex 191.97302171618858 -673.9999999999968 100.50000000123964
  endloop
endfacet
facet normal -0.05394819685128281 -0.33303244337805893 0.9413708003301012
  outer loop
    vertex 228.07981140251525 -675.1271459001549 103.20975853703004
    vertex 260.57146796442555 -681.1881697239227 102.92756230884572
    vertex 230.24673302033807 -673.2578728783628 103.9952408098263
  endloop
endfacet
facet normal -0.05394819685128281 -0.33303244337805893 0.9413708003301012
  outer loop
    vertex 259.7450648552889 -677.0082918984051 104.3589344813956
    vertex 230.24673302033807 -673.2578728783628 103.9952408098263
    vertex 260.57146796442555 -681.1881697239227 102.92756230884572
  endloop
endfacet
facet normal 1.0 0.0 0.0
  outer loop
    vertex 234.47302171618867 -729.812499999997 100.00000000134975
    vertex 234.47302171618867 -722.7071067811843 100.00000000133576
    vertex 234.47302171618867 -729.8124999999934 102.00000000134975
  endloop
endfacet
facet normal 1.0 0.0 0.0
  outer loop
    vertex 234.47302171618867 -723.275512854125 102.00000000133669
    vertex 234.47302171618867 -729.8124999999934 102.00000000134975
    vertex 234.47302171618867 -722.7071067811843 100.00000000133576
  endloop
endfacet
facet normal 1.0 0.0 0.0
  outer loop
    vertex 234.47302171618867 -722.7071067811838 100.50000000133574
    vertex 234.47302171618867 -723.275512854125 102.00000000133669
    vertex 234.47302171618867 -722.7071067811843 100.00000000133576
  endloop
endfacet
facet normal 2.2461628285884185e-16 -0.048557030962078696 0.9988204116577453
  outer loop
    vertex 261.5614251231246 -690.1205092135546 101.21290621268044
    vertex 205.25244375673492 -693.6642701423099 101.04062848674356
    vertex 261.6608897145738 -693.6642701423099 101.04062848674356
  endloop
endfacet
facet normal -0.13643106009008155 -0.2997944349293164 0.9441979996950368
  outer loop
    vertex 205.30713587760567 -654.499999999991 103.21429304798053
    vertex 232.02295151129232 -662.765826308211 104.45007020611384
    vertex 208.51863116267228 -654.4999999999899 103.67833523654444
  endloop
endfacet
facet normal -0.13643106009008155 -0.2997944349293164 0.9441979996950368
  outer loop
    vertex 231.3061106074591 -660.1819254025703 105.16691110994182
    vertex 208.51863116267228 -654.4999999999899 103.67833523654444
    vertex 232.02295151129232 -662.765826308211 104.45007020611384
  endloop
endfacet
facet normal -0.09098365350634824 0.20788005914619162 0.9739136798525897
  outer loop
    vertex 200.30688598629084 -727.835457080403 102.39426941782081
    vertex 200.42960760989126 -728.3263435748032 102.51051295922652
    vertex 230.88271442729155 -720.3081785271162 103.64399975312425
  endloop
endfacet
facet normal -0.09098365350634824 0.20788005914619162 0.9739136798525897
  outer loop
    vertex 232.24372207163495 -722.4546187690519 104.22929964588874
    vertex 230.88271442729155 -720.3081785271162 103.64399975312425
    vertex 200.42960760989126 -728.3263435748032 102.51051295922652
  endloop
endfacet
facet normal -0.09098365350634824 0.20788005914619162 0.9739136798525897
  outer loop
    vertex 232.34185377967495 -721.9519241159923 104.13116793784789
    vertex 230.88271442729155 -720.3081785271162 103.64399975312425
    vertex 232.24372207163495 -722.4546187690519 104.22929964588874
  endloop
endfacet
facet normal 0.7071067811865483 0.7071067811865467 -1.392885445296109e-12
  outer loop
    vertex 234.47302171618867 -722.7071067811843 100.00000000133576
    vertex 226.76591493500203 -714.9999999999978 100.00000000132056
    vertex 234.47302171618867 -722.7071067811838 100.50000000133574
  endloop
endfacet
facet normal 0.7071067811865483 0.7071067811865467 -1.392885445296109e-12
  outer loop
    vertex 226.76591493500203 -714.9999999999974 100.50000000132034
    vertex 234.47302171618867 -722.7071067811838 100.50000000133574
    vertex 226.76591493500203 -714.9999999999978 100.00000000132056
  endloop
endfacet
facet normal -0.9701425001453309 -0.24253562503633772 4.567282892727067e-13
  outer loop
    vertex 201.97302171618847 -734.4999999999912 102.99586564410247
    vertex 197.0980217161885 -714.9999999999974 100.50000000132034
    vertex 201.97302171618847 -734.4999999999972 100.00000000135884
  endloop
endfacet
facet normal -0.9701425001453309 -0.24253562503633772 4.567282892727067e-13
  outer loop
    vertex 191.97302171618858 -694.4999999999972 100.0000000012801
    vertex 201.97302171618847 -734.4999999999972 100.00000000135884
    vertex 197.0980217161885 -714.9999999999974 100.50000000132034
  endloop
endfacet
facet normal -0.9701425001453309 -0.24253562503633772 4.567282892727067e-13
  outer loop
    vertex 200.30688598629084 -727.835457080403 102.39426941782081
    vertex 197.0980217161885 -714.9999999999974 100.50000000132034
    vertex 201.97302171618847 -734.4999999999912 102.99586564410247
  endloop
endfacet
facet normal -0.9701425001453309 -0.24253562503633772 4.567282892727067e-13
  outer loop
    vertex 200.42960760989126 -728.3263435748032 102.51051295922652
    vertex 200.30688598629084 -727.835457080403 102.39426941782081
    vertex 201.97302171618847 -734.4999999999912 102.99586564410247
  endloop
endfacet
facet normal -0.9701425001453309 -0.24253562503633772 4.567282892727067e-13
  outer loop
    vertex 198.43531314328573 -720.3491657083811 102.33426447722375
    vertex 197.0980217161885 -714.9999999999974 100.50000000132034
    vertex 200.30688598629084 -727.835457080403 102.39426941782081
  endloop
endfacet
facet normal -0.9701425001453309 -0.24253562503633772 4.567282892727067e-13
  outer loop
    vertex 198.33861050132057 -719.9623551405218 102.28505482525901
    vertex 197.0980217161885 -714.9999999999974 100.50000000132034
    vertex 198.43531314328573 -720.3491657083811 102.33426447722375
  endloop
endfacet
facet normal -0.9701425001453309 -0.24253562503633772 4.567282892727067e-13
  outer loop
    vertex 197.38915493159675 -716.1645328616252 102.51703008475405
    vertex 197.0980217161885 -714.9999999999974 100.50000000132034
    vertex 198.33861050132057 -719.9623551405218 102.28505482525901
  endloop
endfacet
facet normal -0.9701425001453309 -0.24253562503633772 4.567282892727067e-13
  outer loop
    vertex 196.84802171618855 -713.9999999999967 100.50000000131855
    vertex 191.97302171618858 -694.4999999999972 100.0000000012801
    vertex 197.0980217161885 -714.9999999999974 100.50000000132034
  endloop
endfacet
facet normal -0.9701425001453309 -0.24253562503633772 4.567282892727067e-13
  outer loop
    vertex 196.2078829519475 -711.43944494303 102.10716013151546
    vertex 191.97302171618858 -694.4999999999972 100.0000000012801
    vertex 196.84802171618855 -713.9999999999967 100.50000000131855
  endloop
endfacet
facet normal -0.9701425001453309 -0.24253562503633772 4.567282892727067e-13
  outer loop
    vertex 196.5771591572612 -712.9165497642845 102.37659085703517
    vertex 196.2078829519475 -711.43944494303 102.10716013151546
    vertex 196.84802171618855 -713.9999999999967 100.50000000131855
  endloop
endfacet
facet normal -0.9701425001453309 -0.24253562503633772 4.567282892727067e-13
  outer loop
    vertex 196.2716279487657 -711.6944249303024 102.1720544468711
    vertex 196.2078829519475 -711.43944494303 102.10716013151546
    vertex 196.5771591572612 -712.9165497642845 102.37659085703517
  endloop
endfacet
facet normal -0.9701425001453309 -0.24253562503633772 4.567282892727067e-13
  outer loop
    vertex 194.12729468360416 -703.1170918696588 101.2790837558513
    vertex 191.97302171618858 -694.4999999999972 100.0000000012801
    vertex 196.2078829519475 -711.43944494303 102.10716013151546
  endloop
endfacet
facet normal -0.9701425001453309 -0.24253562503633772 4.567282892727067e-13
  outer loop
    vertex 194.16087159325824 -703.2513995082746 101.29906972454671
    vertex 194.12729468360416 -703.1170918696588 101.2790837558513
    vertex 196.2078829519475 -711.43944494303 102.10716013151546
  endloop
endfacet
facet normal -0.9701425001453309 -0.24253562503633772 4.567282892727067e-13
  outer loop
    vertex 192.0921222521709 -694.9764021439264 100.50000000128085
    vertex 191.97302171618858 -694.4999999999972 100.0000000012801
    vertex 194.12729468360416 -703.1170918696588 101.2790837558513
  endloop
endfacet
facet normal -0.9701425001453309 -0.24253562503633772 4.567282892727067e-13
  outer loop
    vertex 192.16793568876187 -695.2796558902904 101.02525089757181
    vertex 192.0921222521709 -694.9764021439264 100.50000000128085
    vertex 194.12729468360416 -703.1170918696588 101.2790837558513
  endloop
endfacet
facet normal -0.9701425001453309 -0.24253562503633772 4.567282892727067e-13
  outer loop
    vertex 191.97302171618858 -694.4999999999974 100.5000000012799
    vertex 191.97302171618858 -694.4999999999972 100.0000000012801
    vertex 192.0921222521709 -694.9764021439264 100.50000000128085
  endloop
endfacet
facet normal -0.021248657283894398 0.06624529596903751 0.9975770924222379
  outer loop
    vertex 193.59931002558397 -668.1669707153478 102.12628831062361
    vertex 193.9188630111176 -672.8765680045647 102.44584129616659
    vertex 217.70161957359554 -672.5948937483747 102.93371541907025
  endloop
endfacet
facet normal -0.04032932902627553 0.002073561162369933 0.9991842900908703
  outer loop
    vertex 193.59286809122352 -659.5116594006482 102.11984637624627
    vertex 193.61136851817105 -668.0666162059821 102.13834680321062
    vertex 230.88271442729192 -668.6918214728635 103.6439997530223
  endloop
endfacet
facet normal -0.04032932902627553 0.002073561162369933 0.9991842900908703
  outer loop
    vertex 227.45841497805102 -672.1657629051007 103.51299662333257
    vertex 230.88271442729192 -668.6918214728635 103.6439997530223
    vertex 193.61136851817105 -668.0666162059821 102.13834680321062
  endloop
endfacet
facet normal -0.0652470269639907 -0.06198595124938984 0.9959420501816703
  outer loop
    vertex 193.61539034195738 -659.4160005312237 102.14236862697956
    vertex 232.24372207163532 -666.5453812309261 104.22929964577841
    vertex 193.94280475986898 -654.4999999999922 102.46978304488192
  endloop
endfacet
facet normal -0.0652470269639907 -0.06198595124938984 0.9959420501816703
  outer loop
    vertex 205.30713587760567 -654.499999999991 103.21429304798053
    vertex 193.94280475986898 -654.4999999999922 102.46978304488192
    vertex 232.24372207163532 -666.5453812309261 104.22929964577841
  endloop
endfacet
facet normal -0.0652470269639907 -0.06198595124938984 0.9959420501816703
  outer loop
    vertex 232.02295151129232 -662.765826308211 104.45007020611384
    vertex 205.30713587760567 -654.499999999991 103.21429304798053
    vertex 232.24372207163532 -666.5453812309261 104.22929964577841
  endloop
endfacet
facet normal -0.09098365350634062 -0.20788005914234173 0.9739136798534123
  outer loop
    vertex 193.59286809122352 -659.5116594006482 102.11984637624627
    vertex 230.88271442729192 -668.6918214728635 103.6439997530223
    vertex 193.61539034195738 -659.4160005312237 102.14236862697956
  endloop
endfacet
facet normal -0.09098365350634062 -0.20788005914234173 0.9739136798534123
  outer loop
    vertex 232.24372207163532 -666.5453812309261 104.22929964577841
    vertex 193.61539034195738 -659.4160005312237 102.14236862697956
    vertex 230.88271442729192 -668.6918214728635 103.6439997530223
  endloop
endfacet
facet normal -0.09098365350634062 -0.20788005914234173 0.9739136798534123
  outer loop
    vertex 232.34185377967495 -667.0480758839856 104.1311679377397
    vertex 232.24372207163532 -666.5453812309261 104.22929964577841
    vertex 230.88271442729192 -668.6918214728635 103.6439997530223
  endloop
endfacet
facet normal -0.053948196851282715 -0.11273448936708805 0.9921595269731764
  outer loop
    vertex 193.59931002558397 -668.1669707153478 102.12628831062361
    vertex 217.70161957359554 -672.5948937483747 102.93371541907025
    vertex 193.61136851817105 -668.0666162059821 102.13834680321062
  endloop
endfacet
facet normal -0.053948196851282715 -0.11273448936708805 0.9921595269731764
  outer loop
    vertex 227.45841497805102 -672.1657629051007 103.51299662333257
    vertex 193.61136851817105 -668.0666162059821 102.13834680321062
    vertex 217.70161957359554 -672.5948937483747 102.93371541907025
  endloop
endfacet
facet normal -0.053948196851282715 -0.11273448936708805 0.9921595269731764
  outer loop
    vertex 227.36031516866117 -672.2703888859827 103.49577432803373
    vertex 227.45841497805102 -672.1657629051007 103.51299662333257
    vertex 217.70161957359554 -672.5948937483747 102.93371541907025
  endloop
endfacet
facet normal -0.09579191040989213 -0.12547599140634536 0.9874612323937675
  outer loop
    vertex 208.51863116267228 -654.4999999999899 103.67833523654444
    vertex 231.3061106074591 -660.1819254025703 105.16691110994182
    vertex 221.9730217161886 -654.4999999999877 104.98352245022174
  endloop
endfacet
facet normal -0.09579191040989213 -0.12547599140634536 0.9874612323937675
  outer loop
    vertex 231.04188473557045 -657.9008236322547 105.4311369818261
    vertex 221.9730217161886 -654.4999999999877 104.98352245022174
    vertex 231.3061106074591 -660.1819254025703 105.16691110994182
  endloop
endfacet
facet normal 0.35112344158837794 -0.9363291775690497 1.7961511818323362e-12
  outer loop
    vertex 231.04188473557045 -731.0991763677187 105.43113698197054
    vertex 222.30686398934603 -734.3748091475534 105.00000000135863
    vertex 234.47302171618867 -729.8124999999934 102.00000000134975
  endloop
endfacet
facet normal 0.35112344158837794 -0.9363291775690497 1.7961511818323362e-12
  outer loop
    vertex 221.9730217161886 -734.4999999999874 104.98352245037948
    vertex 234.47302171618867 -729.8124999999934 102.00000000134975
    vertex 222.30686398934603 -734.3748091475534 105.00000000135863
  endloop
endfacet
facet normal 0.35112344158837794 -0.9363291775690497 1.7961511818323362e-12
  outer loop
    vertex 221.97302171618833 -734.4999999999972 100.0000000013588
    vertex 234.47302171618867 -729.8124999999934 102.00000000134975
    vertex 221.9730217161886 -734.4999999999874 104.98352245037948
  endloop
endfacet
facet normal 0.35112344158837794 -0.9363291775690497 1.7961511818323362e-12
  outer loop
    vertex 234.47302171618867 -729.812499999997 100.00000000134975
    vertex 234.47302171618867 -729.8124999999934 102.00000000134975
    vertex 221.97302171618833 -734.4999999999972 100.0000000013588
  endloop
endfacet
facet normal 0.3511234415884154 -0.9363291775690357 1.8668463396915364e-12
  outer loop
    vertex 243.05997814858856 -726.592391337829 109.17546584304326
    vertex 240.66909937523255 -727.4889708778555 100.50000000134067
    vertex 257.25697634610276 -721.2685170137619 108.66843019312168
  endloop
endfacet
facet normal 0.3511234415884154 -0.9363291775690357 1.8668463396915364e-12
  outer loop
    vertex 261.97302171618855 -719.4999999999958 100.50000000132928
    vertex 257.25697634610276 -721.2685170137619 108.66843019312168
    vertex 240.66909937523255 -727.4889708778555 100.50000000134067
  endloop
endfacet
facet normal 0.3511234415884154 -0.9363291775690357 1.8668463396915364e-12
  outer loop
    vertex 240.66909937523255 -727.4889708778555 100.00000000134501
    vertex 261.97302171618855 -719.4999999999958 100.50000000132928
    vertex 240.66909937523255 -727.4889708778555 100.50000000134067
  endloop
endfacet
facet normal 0.3511234415884154 -0.9363291775690357 1.8668463396915364e-12
  outer loop
    vertex 261.97302171618855 -719.4999999999968 100.00000000132931
    vertex 261.97302171618855 -719.4999999999958 100.50000000132928
    vertex 240.66909937523255 -727.4889708778555 100.00000000134501
  endloop
endfacet
facet normal -7.174866643154512e-15 1.0 -1.984183515158836e-12
  outer loop
    vertex 221.9730217161886 -654.4999999999877 104.98352245022174
    vertex 221.9730217161886 -654.4999999999973 100.00000000120137
    vertex 208.51863116267228 -654.4999999999899 103.67833523654444
  endloop
endfacet
facet normal -7.174866643154512e-15 1.0 -1.984183515158836e-12
  outer loop
    vertex 205.30713587760567 -654.499999999991 103.21429304798053
    vertex 208.51863116267228 -654.4999999999899 103.67833523654444
    vertex 221.9730217161886 -654.4999999999973 100.00000000120137
  endloop
endfacet
facet normal -7.174866643154512e-15 1.0 -1.984183515158836e-12
  outer loop
    vertex 193.94280475986898 -654.4999999999922 102.46978304488192
    vertex 205.30713587760567 -654.499999999991 103.21429304798053
    vertex 221.9730217161886 -654.4999999999973 100.00000000120137
  endloop
endfacet
facet normal -7.174866643154512e-15 1.0 -1.984183515158836e-12
  outer loop
    vertex 191.97302171618858 -654.4999999999974 100.50000000120117
    vertex 193.94280475986898 -654.4999999999922 102.46978304488192
    vertex 221.9730217161886 -654.4999999999973 100.00000000120137
  endloop
endfacet
facet normal -7.174866643154512e-15 1.0 -1.984183515158836e-12
  outer loop
    vertex 191.97302171618858 -654.4999999999973 100.00000000120137
    vertex 191.97302171618858 -654.4999999999974 100.50000000120117
    vertex 221.9730217161886 -654.4999999999973 100.00000000120137
  endloop
endfacet
facet normal 0.8660254037844394 9.873887964158904e-13 0.49999999999999883
  outer loop
    vertex 257.25697634610276 -721.2685170137619 108.66843019312168
    vertex 261.97302171618855 -719.4999999999958 100.50000000132928
    vertex 257.37429140791795 -720.684854923884 108.46523454556326
  endloop
endfacet
facet normal 0.8660254037844394 9.873887964158904e-13 0.49999999999999883
  outer loop
    vertex 258.6033372270069 -716.7551290767232 106.33646474206334
    vertex 257.37429140791795 -720.684854923884 108.46523454556326
    vertex 261.97302171618855 -719.4999999999958 100.50000000132928
  endloop
endfacet
facet normal 0.8660254037844394 9.873887964158904e-13 0.49999999999999883
  outer loop
    vertex 259.7088735490765 -712.2723741123657 104.4216196626174
    vertex 258.6033372270069 -716.7551290767232 106.33646474206334
    vertex 261.97302171618855 -719.4999999999958 100.50000000132928
  endloop
endfacet
facet normal 0.8660254037844394 9.873887964158904e-13 0.49999999999999883
  outer loop
    vertex 260.5714679644259 -707.8118302760603 102.92756230889819
    vertex 259.7088735490765 -712.2723741123657 104.4216196626174
    vertex 261.97302171618855 -719.4999999999958 100.50000000132928
  endloop
endfacet
facet normal 0.8660254037844394 9.873887964158904e-13 0.49999999999999883
  outer loop
    vertex 261.18918104973716 -703.3666196085655 101.85765186063024
    vertex 260.5714679644259 -707.8118302760603 102.92756230889819
    vertex 261.97302171618855 -719.4999999999958 100.50000000132928
  endloop
endfacet
facet normal 0.8660254037844394 9.873887964158904e-13 0.49999999999999883
  outer loop
    vertex 261.97302171618855 -694.9764021439264 100.50000000128085
    vertex 261.18918104973716 -703.3666196085655 101.85765186063024
    vertex 261.97302171618855 -719.4999999999958 100.50000000132928
  endloop
endfacet
facet normal 0.8660254037844394 9.873887964158904e-13 0.49999999999999883
  outer loop
    vertex 258.6722553617677 -716.3379148405963 106.21709503109372
    vertex 258.6033372270069 -716.7551290767232 106.33646474206334
    vertex 259.7088735490765 -712.2723741123657 104.4216196626174
  endloop
endfacet
facet normal 0.8660254037844394 9.873887964158904e-13 0.49999999999999883
  outer loop
    vertex 259.7450648552889 -711.9917081015714 104.35893448146456
    vertex 259.7088735490765 -712.2723741123657 104.4216196626174
    vertex 260.5714679644259 -707.8118302760603 102.92756230889819
  endloop
endfacet
facet normal 0.8660254037844394 9.873887964158904e-13 0.49999999999999883
  outer loop
    vertex 260.5875459072975 -707.6377704703641 102.89971449496295
    vertex 260.5714679644259 -707.8118302760603 102.92756230889819
    vertex 261.18918104973716 -703.3666196085655 101.85765186063024
  endloop
endfacet
facet normal 0.8660254037844394 9.873887964158904e-13 0.49999999999999883
  outer loop
    vertex 261.1946007333431 -703.2690358858051 101.84826469326302
    vertex 261.18918104973716 -703.3666196085655 101.85765186063024
    vertex 261.97302171618855 -694.9764021439264 100.50000000128085
  endloop
endfacet
facet normal 0.8660254037844394 9.873887964158904e-13 0.49999999999999883
  outer loop
    vertex 261.5604701666707 -698.9310044863809 101.21456024579514
    vertex 261.1946007333431 -703.2690358858051 101.84826469326302
    vertex 261.97302171618855 -694.9764021439264 100.50000000128085
  endloop
endfacet
facet normal 0.8660254037844394 9.873887964158904e-13 0.49999999999999883
  outer loop
    vertex 261.5614251231246 -698.8794907864348 101.2129062126976
    vertex 261.5604701666707 -698.9310044863809 101.21456024579514
    vertex 261.97302171618855 -694.9764021439264 100.50000000128085
  endloop
endfacet
facet normal 0.8660254037844394 9.873887964158904e-13 0.49999999999999883
  outer loop
    vertex 261.66225263511456 -695.2871712249993 101.03826783912368
    vertex 261.5614251231246 -698.8794907864348 101.2129062126976
    vertex 261.97302171618855 -694.9764021439264 100.50000000128085
  endloop
endfacet
facet normal 1.549594480104936e-15 -1.0 1.979283067231379e-12
  outer loop
    vertex 221.9730217161886 -734.4999999999874 104.98352245037948
    vertex 208.51863116267228 -734.4999999999898 103.678335236702
    vertex 221.97302171618833 -734.4999999999972 100.0000000013588
  endloop
endfacet
facet normal 1.549594480104936e-15 -1.0 1.979283067231379e-12
  outer loop
    vertex 205.30713587760602 -734.499999999991 103.21429304813809
    vertex 221.97302171618833 -734.4999999999972 100.0000000013588
    vertex 208.51863116267228 -734.4999999999898 103.678335236702
  endloop
endfacet
facet normal 1.549594480104936e-15 -1.0 1.979283067231379e-12
  outer loop
    vertex 201.97302171618847 -734.4999999999912 102.99586564410247
    vertex 221.97302171618833 -734.4999999999972 100.0000000013588
    vertex 205.30713587760602 -734.499999999991 103.21429304813809
  endloop
endfacet
facet normal 1.549594480104936e-15 -1.0 1.979283067231379e-12
  outer loop
    vertex 201.97302171618847 -734.4999999999972 100.00000000135884
    vertex 221.97302171618833 -734.4999999999972 100.0000000013588
    vertex 201.97302171618847 -734.4999999999912 102.99586564410247
  endloop
endfacet
facet normal 1.631181213884998e-16 -1.9688532292662158e-12 -1.0
  outer loop
    vertex 191.97302171618858 -694.4999999999972 100.0000000012801
    vertex 191.97302171618858 -654.4999999999973 100.00000000120137
    vertex 201.97302171618847 -734.4999999999972 100.00000000135884
  endloop
endfacet
facet normal 1.631181213884998e-16 -1.9688532292662158e-12 -1.0
  outer loop
    vertex 221.9730217161886 -654.4999999999973 100.00000000120137
    vertex 201.97302171618847 -734.4999999999972 100.00000000135884
    vertex 191.97302171618858 -654.4999999999973 100.00000000120137
  endloop
endfacet
facet normal 1.631181213884998e-16 -1.9688532292662158e-12 -1.0
  outer loop
    vertex 221.97302171618833 -734.4999999999972 100.0000000013588
    vertex 201.97302171618847 -734.4999999999972 100.00000000135884
    vertex 221.9730217161886 -654.4999999999973 100.00000000120137
  endloop
endfacet
facet normal 1.631181213884998e-16 -1.9688532292662158e-12 -1.0
  outer loop
    vertex 226.76591493500203 -714.9999999999978 100.00000000132056
    vertex 221.97302171618833 -734.4999999999972 100.0000000013588
    vertex 221.9730217161886 -654.4999999999973 100.00000000120137
  endloop
endfacet
facet normal 1.631181213884998e-16 -1.9688532292662158e-12 -1.0
  outer loop
    vertex 234.47302171618867 -729.812499999997 100.00000000134975
    vertex 221.97302171618833 -734.4999999999972 100.0000000013588
    vertex 226.76591493500203 -714.9999999999978 100.00000000132056
  endloop
endfacet
facet normal 1.631181213884998e-16 -1.9688532292662158e-12 -1.0
  outer loop
    vertex 234.47302171618867 -722.7071067811843 100.00000000133576
    vertex 234.47302171618867 -729.812499999997 100.00000000134975
    vertex 226.76591493500203 -714.9999999999978 100.00000000132056
  endloop
endfacet
facet normal 1.631181213884998e-16 -1.9688532292662158e-12 -1.0
  outer loop
    vertex 226.76591493500203 -714.9999999999978 100.00000000132056
    vertex 226.76591493500203 -673.9999999999973 100.00000000123967
    vertex 227.18012849737508 -713.9999999999972 100.00000000131858
  endloop
endfacet
facet normal 1.631181213884998e-16 -1.9688532292662158e-12 -1.0
  outer loop
    vertex 227.18012849737508 -674.9999999999977 100.00000000124173
    vertex 227.18012849737508 -713.9999999999972 100.00000000131858
    vertex 226.76591493500203 -673.9999999999973 100.00000000123967
  endloop
endfacet
facet normal 1.631181213884998e-16 -1.9688532292662158e-12 -1.0
  outer loop
    vertex 240.66909937523255 -727.4889708778555 100.00000000134501
    vertex 227.18012849737508 -713.9999999999972 100.00000000131858
    vertex 227.18012849737508 -674.9999999999977 100.00000000124173
  endloop
endfacet
facet normal 1.631181213884998e-16 -1.9688532292662158e-12 -1.0
  outer loop
    vertex 236.76595986579986 -665.4141686315719 100.00000000122293
    vertex 240.66909937523255 -727.4889708778555 100.00000000134501
    vertex 227.18012849737508 -674.9999999999977 100.00000000124173
  endloop
endfacet
facet normal 1.631181213884998e-16 -1.9688532292662158e-12 -1.0
  outer loop
    vertex 238.53039279472085 -660.7090141544469 100.00000000121365
    vertex 240.66909937523255 -727.4889708778555 100.00000000134501
    vertex 236.76595986579986 -665.4141686315719 100.00000000122293
  endloop
endfacet
facet normal 1.631181213884998e-16 -1.9688532292662158e-12 -1.0
  outer loop
    vertex 261.97302171618765 -669.4999999999968 100.00000000123092
    vertex 240.66909937523255 -727.4889708778555 100.00000000134501
    vertex 238.53039279472085 -660.7090141544469 100.00000000121365
  endloop
endfacet
facet normal 1.631181213884998e-16 -1.9688532292662158e-12 -1.0
  outer loop
    vertex 261.97302171618855 -719.4999999999968 100.00000000132931
    vertex 240.66909937523255 -727.4889708778555 100.00000000134501
    vertex 261.97302171618765 -669.4999999999968 100.00000000123092
  endloop
endfacet
facet normal 1.631181213884998e-16 -1.9688532292662158e-12 -1.0
  outer loop
    vertex 234.47302171618867 -659.1874999999977 100.00000000121047
    vertex 226.76591493500203 -673.9999999999973 100.00000000123967
    vertex 221.9730217161886 -654.4999999999973 100.00000000120137
  endloop
endfacet
facet normal 1.631181213884998e-16 -1.9688532292662158e-12 -1.0
  outer loop
    vertex 226.76591493500203 -714.9999999999978 100.00000000132056
    vertex 221.9730217161886 -654.4999999999973 100.00000000120137
    vertex 226.76591493500203 -673.9999999999973 100.00000000123967
  endloop
endfacet
facet normal 1.631181213884998e-16 -1.9688532292662158e-12 -1.0
  outer loop
    vertex 234.47302171618867 -666.292893218811 100.00000000122455
    vertex 226.76591493500203 -673.9999999999973 100.00000000123967
    vertex 234.47302171618867 -659.1874999999977 100.00000000121047
  endloop
endfacet
facet normal -0.6830933436178089 -0.6830224717340133 0.25858032990040297
  outer loop
    vertex 240.66909937523255 -727.4889708778555 100.50000000134067
    vertex 243.05997814858856 -726.592391337829 109.17546584304326
    vertex 227.18012849737508 -713.9999999999967 100.50000000131855
  endloop
endfacet
facet normal -0.6830933436178089 -0.6830224717340133 0.25858032990040297
  outer loop
    vertex 238.564792276963 -723.0046263480143 106.82798258433797
    vertex 227.18012849737508 -713.9999999999967 100.50000000131855
    vertex 243.05997814858856 -726.592391337829 109.17546584304326
  endloop
endfacet
facet normal -0.6830933436178089 -0.6830224717340133 0.25858032990040297
  outer loop
    vertex 241.04399898839918 -724.8923265704077 108.34178089190225
    vertex 238.564792276963 -723.0046263480143 106.82798258433797
    vertex 243.05997814858856 -726.592391337829 109.17546584304326
  endloop
endfacet
facet normal -0.6830933436178089 -0.6830224717340133 0.25858032990040297
  outer loop
    vertex 235.95088455133208 -720.7001079200172 105.96435435771237
    vertex 227.18012849737508 -713.9999999999967 100.50000000131855
    vertex 238.564792276963 -723.0046263480143 106.82798258433797
  endloop
endfacet
facet normal -0.6830933436178089 -0.6830224717340133 0.25858032990040297
  outer loop
    vertex 233.59628542227722 -718.7762035215293 104.82776886610874
    vertex 227.18012849737508 -713.9999999999967 100.50000000131855
    vertex 235.95088455133208 -720.7001079200172 105.96435435771237
  endloop
endfacet
facet normal -0.6830933436178089 -0.6830224717340133 0.25858032990040297
  outer loop
    vertex 230.2467330203377 -715.7421271216153 103.99524080991011
    vertex 227.18012849737508 -713.9999999999967 100.50000000131855
    vertex 233.59628542227722 -718.7762035215293 104.82776886610874
  endloop
endfacet
facet normal -0.6830933436178089 -0.6830224717340133 0.25858032990040297
  outer loop
    vertex 228.07981140251454 -713.8728540998268 103.20975853710603
    vertex 227.18012849737508 -713.9999999999967 100.50000000131855
    vertex 230.2467330203377 -715.7421271216153 103.99524080991011
  endloop
endfacet
facet normal -0.6830933436178089 -0.6830224717340133 0.25858032990040297
  outer loop
    vertex 226.69014975745094 -712.5742389955196 102.96949050051164
    vertex 227.18012849737508 -713.9999999999967 100.50000000131855
    vertex 228.07981140251454 -713.8728540998268 103.20975853710603
  endloop
endfacet
endsolid ProtoGlove baseplate
