solid ProtoGlove baseplate
facet normal 0.3542437442893647 -0.9351531263017042 1.8560320843628033e-12
  outer loop
    vertex 326.6530426926007 -429.49999999998244 108.62492596007446
    vertex 326.6530426926013 -429.49999999999943 100.00000000075842
    vertex 355.6580905338907 -418.5126478096274 107.4163822999991
  endloop
endfacet
facet normal 0.3542437442893647 -0.9351531263017042 1.8560320843628033e-12
  outer loop
    vertex 359.6512657161887 -416.9999999999986 100.50000000073375
    vertex 355.6580905338907 -418.5126478096274 107.4163822999991
    vertex 326.6530426926013 -429.49999999999943 100.00000000075842
  endloop
endfacet
facet normal 0.3542437442893647 -0.9351531263017042 1.8560320843628033e-12
  outer loop
    vertex 359.6512657161887 -416.99999999999955 100.00000000073378
    vertex 359.6512657161887 -416.9999999999986 100.50000000073375
    vertex 326.6530426926013 -429.49999999999943 100.00000000075842
  endloop
endfacet
facet normal -1.8780802147998903e-15 1.0 -1.9782965583604435e-12
  outer loop
    vertex 326.6530426926007 -359.4999999999823 108.62492595993666
    vertex 326.6530426926007 -359.4999999999995 100.00000000062042
    vertex 311.18350827365225 -359.49999999998545 107.12808714532991
  endloop
endfacet
facet normal -1.8780802147998903e-15 1.0 -1.9782965583604435e-12
  outer loop
    vertex 309.074803700832 -359.499999999986 106.82798159701161
    vertex 311.18350827365225 -359.49999999998545 107.12808714532991
    vertex 326.6530426926007 -359.4999999999995 100.00000000062042
  endloop
endfacet
facet normal -1.8780802147998903e-15 1.0 -1.9782965583604435e-12
  outer loop
    vertex 305.7666467842066 -359.49999999998647 106.6153810686388
    vertex 309.074803700832 -359.499999999986 106.82798159701161
    vertex 326.6530426926007 -359.4999999999995 100.00000000062042
  endloop
endfacet
facet normal -1.8780802147998903e-15 1.0 -1.9782965583604435e-12
  outer loop
    vertex 299.6512657161882 -359.4999999999986 100.50000000062049
    vertex 305.7666467842066 -359.49999999998647 106.6153810686388
    vertex 326.6530426926007 -359.4999999999995 100.00000000062042
  endloop
endfacet
facet normal -1.8780802147998903e-15 1.0 -1.9782965583604435e-12
  outer loop
    vertex 299.6512657161882 -359.4999999999995 100.00000000062052
    vertex 299.6512657161882 -359.4999999999986 100.50000000062049
    vertex 326.6530426926007 -359.4999999999995 100.00000000062042
  endloop
endfacet
facet normal -1.0 0.0 0.0
  outer loop
    vertex 299.6512657161882 -394.4999999999995 100.00000000068965
    vertex 299.6512657161882 -394.4999999999985 100.50000000068944
    vertex 299.6512657161882 -359.4999999999995 100.00000000062052
  endloop
endfacet
facet normal -1.0 0.0 0.0
  outer loop
    vertex 299.6512657161882 -359.4999999999986 100.50000000062049
    vertex 299.6512657161882 -359.4999999999995 100.00000000062052
    vertex 299.6512657161882 -394.4999999999985 100.50000000068944
  endloop
endfacet
facet normal 1.0 8.021237994802905e-15 -1.587977299353077e-26
  outer loop
    vertex 359.6512657161887 -416.99999999999955 100.00000000073378
    vertex 359.6512657161883 -371.99999999999955 100.00000000064516
    vertex 359.6512657161887 -416.9999999999986 100.50000000073375
  endloop
endfacet
facet normal 1.0 8.021237994802905e-15 -1.587977299353077e-26
  outer loop
    vertex 359.6512657161883 -371.9999999999986 100.50000000064504
    vertex 359.6512657161887 -416.9999999999986 100.50000000073375
    vertex 359.6512657161883 -371.99999999999955 100.00000000064516
  endloop
endfacet
facet normal -0.707106781186541 1.3890382589191443e-12 0.7071067811865542
  outer loop
    vertex 299.6512657161882 -394.4999999999985 100.50000000068944
    vertex 301.1273619340701 -379.2784372589308 101.97609621854139
    vertex 299.6512657161882 -359.4999999999986 100.50000000062049
  endloop
endfacet
facet normal -0.707106781186541 1.3890382589191443e-12 0.7071067811865542
  outer loop
    vertex 302.3313413758513 -371.9737610212952 103.18007566030822
    vertex 299.6512657161882 -359.4999999999986 100.50000000062049
    vertex 301.1273619340701 -379.2784372589308 101.97609621854139
  endloop
endfacet
facet normal -0.707106781186541 1.3890382589191443e-12 0.7071067811865542
  outer loop
    vertex 303.98714362244726 -365.0286722715922 104.83587790689015
    vertex 299.6512657161882 -359.4999999999986 100.50000000062049
    vertex 302.3313413758513 -371.9737610212952 103.18007566030822
  endloop
endfacet
facet normal -0.707106781186541 1.3890382589191443e-12 0.7071067811865542
  outer loop
    vertex 305.7666467842066 -359.49999999998647 106.6153810686388
    vertex 299.6512657161882 -359.4999999999986 100.50000000062049
    vertex 303.98714362244726 -365.0286722715922 104.83587790689015
  endloop
endfacet
facet normal -0.707106781186541 1.3890382589191443e-12 0.7071067811865542
  outer loop
    vertex 300.3963722643822 -386.82744056175636 101.24510654886822
    vertex 301.1273619340701 -379.2784372589308 101.97609621854139
    vertex 299.6512657161882 -394.4999999999985 100.50000000068944
  endloop
endfacet
facet normal -0.707106781186541 1.3890382589191443e-12 0.7071067811865542
  outer loop
    vertex 300.15126571618845 -394.4999999999973 101.00000000068951
    vertex 300.3963722643822 -386.82744056175636 101.24510654886822
    vertex 299.6512657161882 -394.4999999999985 100.50000000068944
  endloop
endfacet
facet normal -0.707106781186541 1.3890382589191443e-12 0.7071067811865542
  outer loop
    vertex 300.1527518008659 -394.46711367450763 101.00148608536685
    vertex 300.3963722643822 -386.82744056175636 101.24510654886822
    vertex 300.15126571618845 -394.4999999999973 101.00000000068951
  endloop
endfacet
facet normal -0.707106781186541 1.3890382589191443e-12 0.7071067811865542
  outer loop
    vertex 300.4030297898976 -386.77896339238055 101.25176407438315
    vertex 301.1273619340701 -379.2784372589308 101.97609621854139
    vertex 300.3963722643822 -386.82744056175636 101.24510654886822
  endloop
endfacet
facet normal -0.707106781186541 1.3890382589191443e-12 0.7071067811865542
  outer loop
    vertex 301.14927731908216 -379.1853619841316 101.9980116035531
    vertex 302.3313413758513 -371.9737610212952 103.18007566030822
    vertex 301.1273619340701 -379.2784372589308 101.97609621854139
  endloop
endfacet
facet normal -0.707106781186541 1.3890382589191443e-12 0.7071067811865542
  outer loop
    vertex 302.38659316213324 -371.8135567038424 103.23532744658965
    vertex 303.98714362244726 -365.0286722715922 104.83587790689015
    vertex 302.3313413758513 -371.9737610212952 103.18007566030822
  endloop
endfacet
facet normal -0.707106781186541 1.3890382589191443e-12 0.7071067811865542
  outer loop
    vertex 304.10052839911447 -364.78901624252586 104.94926268355711
    vertex 305.7666467842066 -359.49999999998647 106.6153810686388
    vertex 303.98714362244726 -365.0286722715922 104.83587790689015
  endloop
endfacet
facet normal -0.707106781186541 1.3890382589191443e-12 0.7071067811865542
  outer loop
    vertex 299.6512657161882 -394.4999999999985 100.50000000068944
    vertex 300.24660197495325 -397.4759258438174 101.0953362594603
    vertex 300.15126571618845 -394.4999999999973 101.00000000068951
  endloop
endfacet
facet normal -0.707106781186541 1.3890382589191443e-12 0.7071067811865542
  outer loop
    vertex 300.1527518008659 -394.5328863254871 101.00148608536703
    vertex 300.15126571618845 -394.4999999999973 101.00000000068951
    vertex 300.24660197495325 -397.4759258438174 101.0953362594603
  endloop
endfacet
facet normal -0.06152646671391983 -0.2822066942302875 0.9573786479890358
  outer loop
    vertex 304.10052839911447 -364.78901624252586 104.94926268355711
    vertex 356.8501799528138 -374.9244549051519 105.35162285917335
    vertex 305.7666467842066 -359.49999999998647 106.6153810686388
  endloop
endfacet
facet normal -0.06152646671391983 -0.2822066942302875 0.9573786479890358
  outer loop
    vertex 309.074803700832 -359.499999999986 106.82798159701161
    vertex 305.7666467842066 -359.49999999998647 106.6153810686388
    vertex 356.8501799528138 -374.9244549051519 105.35162285917335
  endloop
endfacet
facet normal -0.06152646671391983 -0.2822066942302875 0.9573786479890358
  outer loop
    vertex 356.7903260740333 -374.5597080545517 105.45529281825029
    vertex 309.074803700832 -359.499999999986 106.82798159701161
    vertex 356.8501799528138 -374.9244549051519 105.35162285917335
  endloop
endfacet
facet normal -0.049026938930062346 -0.3104927569297033 0.9493105957237283
  outer loop
    vertex 302.3313413758513 -371.9737610212952 103.18007566030822
    vertex 358.4365185174193 -382.5940929833066 102.604003867286
    vertex 302.38659316213324 -371.8135567038424 103.23532744658965
  endloop
endfacet
facet normal -0.049026938930062346 -0.3104927569297033 0.9493105957237283
  outer loop
    vertex 357.7479512247003 -378.8389715752552 103.79663740269831
    vertex 302.38659316213324 -371.8135567038424 103.23532744658965
    vertex 358.4365185174193 -382.5940929833066 102.604003867286
  endloop
endfacet
facet normal -0.019876183601145667 0.1585474740087137 0.98715127301286
  outer loop
    vertex 302.69572890288686 -409.7184526718568 102.01370080212341
    vertex 304.09102116915307 -416.6931434516141 103.16200777530327
    vertex 358.4507514937624 -406.250632480165 102.57935162916324
  endloop
endfacet
facet normal -0.019876183601145667 0.1585474740087137 0.98715127301286
  outer loop
    vertex 358.4365185174193 -406.40590701668305 102.60400386733296
    vertex 358.4507514937624 -406.250632480165 102.57935162916324
    vertex 304.09102116915307 -416.6931434516141 103.16200777530327
  endloop
endfacet
facet normal -0.019876183601146236 -0.1585474740048259 0.9871512730134844
  outer loop
    vertex 301.14927731908216 -379.1853619841316 101.9980116035531
    vertex 358.4507514937624 -382.749367519824 102.57935162911696
    vertex 302.3313413758513 -371.9737610212952 103.18007566030822
  endloop
endfacet
facet normal -0.019876183601146236 -0.1585474740048259 0.9871512730134844
  outer loop
    vertex 358.4365185174193 -382.5940929833066 102.604003867286
    vertex 302.3313413758513 -371.9737610212952 103.18007566030822
    vertex 358.4507514937624 -382.749367519824 102.57935162911696
  endloop
endfacet
facet normal -0.007394119245393704 -0.13505572143322866 0.990810415321082
  outer loop
    vertex 300.3963722643822 -386.82744056175636 101.24510654886822
    vertex 359.25967992354384 -390.5406335632132 101.17824648906442
    vertex 300.4030297898976 -386.77896339238055 101.25176407438315
  endloop
endfacet
facet normal -0.007394119245393704 -0.13505572143322866 0.990810415321082
  outer loop
    vertex 358.95591522587347 -386.6641077379355 101.7043823789678
    vertex 300.4030297898976 -386.77896339238055 101.25176407438315
    vertex 359.25967992354384 -390.5406335632132 101.17824648906442
  endloop
endfacet
facet normal -0.08268073383820905 0.39397018687296126 0.9153968473330347
  outer loop
    vertex 305.4720392056404 -423.5964811957135 104.80866992381611
    vertex 305.539653519536 -423.93446696622834 104.96023994360051
    vertex 357.7163403172815 -410.407947708682 103.85138910048302
  endloop
endfacet
facet normal -0.08268073383820905 0.39397018687296126 0.9153968473330347
  outer loop
    vertex 356.8501799528138 -414.07554509482634 105.35162285925037
    vertex 357.7163403172815 -410.407947708682 103.85138910048302
    vertex 305.539653519536 -423.93446696622834 104.96023994360051
  endloop
endfacet
facet normal -0.007507460285898506 0.09540262679460003 0.9954104564654453
  outer loop
    vertex 301.1961762822218 -402.22259242093986 101.25789515775772
    vertex 302.65772234912725 -409.52846813135096 101.96913164142435
    vertex 358.9559152258731 -402.3358922620567 101.7043823789987
  endloop
endfacet
facet normal -0.007507460285898506 0.09540262679460003 0.9954104564654453
  outer loop
    vertex 358.9509718908949 -402.4256164484419 101.71294448633999
    vertex 358.9559152258731 -402.3358922620567 101.7043823789987
    vertex 302.65772234912725 -409.52846813135096 101.96913164142435
  endloop
endfacet
facet normal -0.08268073383820951 -0.3939701868693511 0.9153968473345885
  outer loop
    vertex 303.98714362244726 -365.0286722715922 104.83587790689015
    vertex 357.7163403172815 -378.5920522913017 103.85138910042035
    vertex 304.10052839911447 -364.78901624252586 104.94926268355711
  endloop
endfacet
facet normal -0.08268073383820951 -0.3939701868693511 0.9153968473345885
  outer loop
    vertex 356.8501799528138 -374.9244549051519 105.35162285917335
    vertex 304.10052839911447 -364.78901624252586 104.94926268355711
    vertex 357.7163403172815 -378.5920522913017 103.85138910042035
  endloop
endfacet
facet normal -0.023805512561754553 -0.22381200167099155 0.9743415650990653
  outer loop
    vertex 301.1273619340701 -379.2784372589308 101.97609621854139
    vertex 358.9509718908949 -386.5743835515503 101.71294448630881
    vertex 301.14927731908216 -379.1853619841316 101.9980116035531
  endloop
endfacet
facet normal -0.023805512561754553 -0.22381200167099155 0.9743415650990653
  outer loop
    vertex 358.4507514937624 -382.749367519824 102.57935162911696
    vertex 301.14927731908216 -379.1853619841316 101.9980116035531
    vertex 358.9509718908949 -386.5743835515503 101.71294448630881
  endloop
endfacet
facet normal -0.037919748800244804 0.22095000825177724 0.974547683032732
  outer loop
    vertex 304.1450644797892 -416.9632914267104 103.25315662379143
    vertex 305.4720392056404 -423.5964811957135 104.80866992381611
    vertex 357.7479512247003 -410.1610284247289 103.79663740275994
  endloop
endfacet
facet normal -0.037919748800244804 0.22095000825177724 0.974547683032732
  outer loop
    vertex 357.7163403172815 -410.407947708682 103.85138910048302
    vertex 357.7479512247003 -410.1610284247289 103.79663740275994
    vertex 305.4720392056404 -423.5964811957135 104.80866992381611
  endloop
endfacet
facet normal -0.037919748800245005 -0.22095000824793587 0.9745476830336028
  outer loop
    vertex 302.38659316213324 -371.8135567038424 103.23532744658965
    vertex 357.7479512247003 -378.8389715752552 103.79663740269831
    vertex 303.98714362244726 -365.0286722715922 104.83587790689015
  endloop
endfacet
facet normal -0.037919748800245005 -0.22095000824793587 0.9745476830336028
  outer loop
    vertex 357.7163403172815 -378.5920522913017 103.85138910042035
    vertex 303.98714362244726 -365.0286722715922 104.83587790689015
    vertex 357.7479512247003 -378.8389715752552 103.79663740269831
  endloop
endfacet
facet normal -0.0008735463942420131 -0.03184481783041115 0.999492443440192
  outer loop
    vertex 300.1527518008659 -394.46711367450763 101.00148608536685
    vertex 359.26060509997785 -390.5909540721051 101.17664403647481
    vertex 300.3963722643822 -386.82744056175636 101.24510654886822
  endloop
endfacet
facet normal -0.0008735463942420131 -0.03184481783041115 0.999492443440192
  outer loop
    vertex 359.25967992354384 -390.5406335632132 101.17824648906442
    vertex 300.3963722643822 -386.82744056175636 101.24510654886822
    vertex 359.26060509997785 -390.5909540721051 101.17664403647481
  endloop
endfacet
facet normal -0.0490269389300614 0.31049275693344297 0.9493105957225054
  outer loop
    vertex 304.09102116915307 -416.6931434516141 103.16200777530327
    vertex 304.1450644797892 -416.9632914267104 103.25315662379143
    vertex 358.4365185174193 -406.40590701668305 102.60400386733296
  endloop
endfacet
facet normal -0.0490269389300614 0.31049275693344297 0.9493105957225054
  outer loop
    vertex 357.7479512247003 -410.1610284247289 103.79663740275994
    vertex 358.4365185174193 -406.40590701668305 102.60400386733296
    vertex 304.1450644797892 -416.9632914267104 103.25315662379143
  endloop
endfacet
facet normal -0.09050939412789381 0.34182003761654545 0.9353967668633588
  outer loop
    vertex 311.1835082736515 -429.4999999999852 107.1280871454678
    vertex 326.6530426926007 -429.49999999998244 108.62492596007446
    vertex 355.7598027055863 -418.00362158677297 107.24021165087369
  endloop
endfacet
facet normal -0.09050939412789381 0.34182003761654545 0.9353967668633588
  outer loop
    vertex 355.6580905338907 -418.5126478096274 107.4163822999991
    vertex 355.7598027055863 -418.00362158677297 107.24021165087369
    vertex 326.6530426926007 -429.49999999998244 108.62492596007446
  endloop
endfacet
facet normal -5.4695428494480345e-17 -0.04514246211060243 0.9989805594277563
  outer loop
    vertex 300.15126571618845 -394.4999999999973 101.00000000068951
    vertex 359.36259058159374 -394.4999999999974 101.00000000068951
    vertex 300.1527518008659 -394.46711367450763 101.00148608536685
  endloop
endfacet
facet normal -5.4695428494480345e-17 -0.04514246211060243 0.9989805594277563
  outer loop
    vertex 359.26060509997785 -390.5909540721051 101.17664403647481
    vertex 300.1527518008659 -394.46711367450763 101.00148608536685
    vertex 359.36259058159374 -394.4999999999974 101.00000000068951
  endloop
endfacet
facet normal -0.12414942994569717 0.47287158687636466 0.8723413215990559
  outer loop
    vertex 309.07480370083164 -429.49999999998596 106.82798159714949
    vertex 311.1835082736515 -429.4999999999852 107.1280871454678
    vertex 356.7903260740333 -414.4402919454255 105.45529281832883
  endloop
endfacet
facet normal -0.12414942994569717 0.47287158687636466 0.8723413215990559
  outer loop
    vertex 355.7598027055863 -418.00362158677297 107.24021165087369
    vertex 356.7903260740333 -414.4402919454255 105.45529281832883
    vertex 311.1835082736515 -429.4999999999852 107.1280871454678
  endloop
endfacet
facet normal -0.02380551256175454 0.22381200167483667 0.974341565098182
  outer loop
    vertex 302.65772234912725 -409.52846813135096 101.96913164142435
    vertex 302.69572890288686 -409.7184526718568 102.01370080212341
    vertex 358.9509718908949 -402.4256164484419 101.71294448633999
  endloop
endfacet
facet normal -0.02380551256175454 0.22381200167483667 0.974341565098182
  outer loop
    vertex 358.4507514937624 -406.250632480165 102.57935162916324
    vertex 358.9509718908949 -402.4256164484419 101.71294448633999
    vertex 302.69572890288686 -409.7184526718568 102.01370080212341
  endloop
endfacet
facet normal -0.06152646671392424 0.28220669423407835 0.957378647987918
  outer loop
    vertex 305.539653519536 -423.93446696622834 104.96023994360051
    vertex 306.65304269260054 -429.49999999998624 106.67234579059048
    vertex 356.8501799528138 -414.07554509482634 105.35162285925037
  endloop
endfacet
facet normal -0.06152646671392424 0.28220669423407835 0.957378647987918
  outer loop
    vertex 309.07480370083164 -429.49999999998596 106.82798159714949
    vertex 356.8501799528138 -414.07554509482634 105.35162285925037
    vertex 306.65304269260054 -429.49999999998624 106.67234579059048
  endloop
endfacet
facet normal -0.06152646671392424 0.28220669423407835 0.957378647987918
  outer loop
    vertex 356.7903260740333 -414.4402919454255 105.45529281832883
    vertex 356.8501799528138 -414.07554509482634 105.35162285925037
    vertex 309.07480370083164 -429.49999999998596 106.82798159714949
  endloop
endfacet
facet normal -0.007394119245393383 0.1350557214371362 0.9908104153205494
  outer loop
    vertex 301.17632451667686 -402.1233587840467 101.24422063785597
    vertex 301.1961762822218 -402.22259242093986 101.25789515775772
    vertex 359.2596799235435 -398.4593664367809 101.17824648907988
  endloop
endfacet
facet normal -0.007394119245393383 0.1350557214371362 0.9908104153205494
  outer loop
    vertex 358.9559152258731 -402.3358922620567 101.7043823789987
    vertex 359.2596799235435 -398.4593664367809 101.17824648907988
    vertex 301.1961762822218 -402.22259242093986 101.25789515775772
  endloop
endfacet
facet normal 2.5664777985870356e-17 0.04514246211453523 0.9989805594275787
  outer loop
    vertex 300.15126571618845 -394.4999999999973 101.00000000068951
    vertex 300.1527518008659 -394.5328863254871 101.00148608536703
    vertex 359.36259058159374 -394.4999999999974 101.00000000068951
  endloop
endfacet
facet normal 2.5664777985870356e-17 0.04514246211453523 0.9989805594275787
  outer loop
    vertex 359.26060509997785 -398.4090459278891 101.17664403649017
    vertex 359.36259058159374 -394.4999999999974 101.00000000068951
    vertex 300.1527518008659 -394.5328863254871 101.00148608536703
  endloop
endfacet
facet normal -0.007507460285898665 -0.09540262679067583 0.9954104564658213
  outer loop
    vertex 300.4030297898976 -386.77896339238055 101.25176407438315
    vertex 358.95591522587347 -386.6641077379355 101.7043823789678
    vertex 301.1273619340701 -379.2784372589308 101.97609621854139
  endloop
endfacet
facet normal -0.007507460285898665 -0.09540262679067583 0.9954104564658213
  outer loop
    vertex 358.9509718908949 -386.5743835515503 101.71294448630881
    vertex 301.1273619340701 -379.2784372589308 101.97609621854139
    vertex 358.95591522587347 -386.6641077379355 101.7043823789678
  endloop
endfacet
facet normal -0.9805711006119517 -0.1961640044571525 3.272408079010896e-13
  outer loop
    vertex 306.65304269260054 -429.49999999998624 106.67234579059048
    vertex 305.4720392056404 -423.5964811957135 104.80866992381611
    vertex 306.6530426926009 -429.49999999999943 100.00000000075852
  endloop
endfacet
facet normal -0.9805711006119517 -0.1961640044571525 3.272408079010896e-13
  outer loop
    vertex 304.09102116915307 -416.6931434516141 103.16200777530327
    vertex 306.6530426926009 -429.49999999999943 100.00000000075852
    vertex 305.4720392056404 -423.5964811957135 104.80866992381611
  endloop
endfacet
facet normal -0.9805711006119517 -0.1961640044571525 3.272408079010896e-13
  outer loop
    vertex 302.65772234912725 -409.52846813135096 101.96913164142435
    vertex 306.6530426926009 -429.49999999999943 100.00000000075852
    vertex 304.09102116915307 -416.6931434516141 103.16200777530327
  endloop
endfacet
facet normal -0.9805711006119517 -0.1961640044571525 3.272408079010896e-13
  outer loop
    vertex 299.6512657161882 -394.4999999999995 100.00000000068965
    vertex 306.6530426926009 -429.49999999999943 100.00000000075852
    vertex 302.65772234912725 -409.52846813135096 101.96913164142435
  endloop
endfacet
facet normal -0.9805711006119517 -0.1961640044571525 3.272408079010896e-13
  outer loop
    vertex 305.539653519536 -423.93446696622834 104.96023994360051
    vertex 305.4720392056404 -423.5964811957135 104.80866992381611
    vertex 306.65304269260054 -429.49999999998624 106.67234579059048
  endloop
endfacet
facet normal -0.9805711006119517 -0.1961640044571525 3.272408079010896e-13
  outer loop
    vertex 304.1450644797892 -416.9632914267104 103.25315662379143
    vertex 304.09102116915307 -416.6931434516141 103.16200777530327
    vertex 305.4720392056404 -423.5964811957135 104.80866992381611
  endloop
endfacet
facet normal -0.9805711006119517 -0.1961640044571525 3.272408079010896e-13
  outer loop
    vertex 302.69572890288686 -409.7184526718568 102.01370080212341
    vertex 302.65772234912725 -409.52846813135096 101.96913164142435
    vertex 304.09102116915307 -416.6931434516141 103.16200777530327
  endloop
endfacet
facet normal -0.9805711006119517 -0.1961640044571525 3.272408079010896e-13
  outer loop
    vertex 301.1961762822218 -402.22259242093986 101.25789515775772
    vertex 299.6512657161882 -394.4999999999995 100.00000000068965
    vertex 302.65772234912725 -409.52846813135096 101.96913164142435
  endloop
endfacet
facet normal -0.9805711006119517 -0.1961640044571525 3.272408079010896e-13
  outer loop
    vertex 301.17632451667686 -402.1233587840467 101.24422063785597
    vertex 299.6512657161882 -394.4999999999995 100.00000000068965
    vertex 301.1961762822218 -402.22259242093986 101.25789515775772
  endloop
endfacet
facet normal -0.9805711006119517 -0.1961640044571525 3.272408079010896e-13
  outer loop
    vertex 300.24660197495325 -397.4759258438174 101.0953362594603
    vertex 299.6512657161882 -394.4999999999995 100.00000000068965
    vertex 301.17632451667686 -402.1233587840467 101.24422063785597
  endloop
endfacet
facet normal -0.9805711006119517 -0.1961640044571525 3.272408079010896e-13
  outer loop
    vertex 299.6512657161882 -394.4999999999985 100.50000000068944
    vertex 299.6512657161882 -394.4999999999995 100.00000000068965
    vertex 300.24660197495325 -397.4759258438174 101.0953362594603
  endloop
endfacet
facet normal -0.0008735463942416204 0.03184481783435127 0.9994924434400663
  outer loop
    vertex 300.1527518008659 -394.5328863254871 101.00148608536703
    vertex 300.24660197495325 -397.4759258438174 101.0953362594603
    vertex 359.26060509997785 -398.4090459278891 101.17664403649017
  endloop
endfacet
facet normal -0.0008735463942416204 0.03184481783435127 0.9994924434400663
  outer loop
    vertex 301.17632451667686 -402.1233587840467 101.24422063785597
    vertex 359.26060509997785 -398.4090459278891 101.17664403649017
    vertex 300.24660197495325 -397.4759258438174 101.0953362594603
  endloop
endfacet
facet normal -0.0008735463942416204 0.03184481783435127 0.9994924434400663
  outer loop
    vertex 359.2596799235435 -398.4593664367809 101.17824648907988
    vertex 359.26060509997785 -398.4090459278891 101.17664403649017
    vertex 301.17632451667686 -402.1233587840467 101.24422063785597
  endloop
endfacet
facet normal 0.789087973983921 -0.6072579368103228 0.0926173174672037
  outer loop
    vertex 363.1578198451697 -365.79959552050434 111.2783853566858
    vertex 359.6512657161883 -371.9999999999986 100.50000000064504
    vertex 363.55519182632145 -365.34663937518314 110.86269379592179
  endloop
endfacet
facet normal 0.2770069500194174 0.5063993682660822 0.8165946543179504
  outer loop
    vertex 349.41783921130747 -359.8620131532236 112.25718452548612
    vertex 363.1578198451697 -365.79959552050434 111.2783853566858
    vertex 350.2913594202651 -359.61481925728 111.80757344896563
  endloop
endfacet
facet normal 0.2770069500194174 0.5063993682660822 0.8165946543179504
  outer loop
    vertex 363.55519182632145 -365.34663937518314 110.86269379592179
    vertex 350.2913594202651 -359.61481925728 111.80757344896563
    vertex 363.1578198451697 -365.79959552050434 111.2783853566858
  endloop
endfacet
facet normal 0.8140958331918986 -0.46966755644252745 0.3415557945708046
  outer loop
    vertex 357.1883435433016 -371.36480396894126 107.2438049156988
    vertex 359.6512657161883 -371.9999999999986 100.50000000064504
    vertex 357.2933675969365 -371.1068086766344 107.3482457556124
  endloop
endfacet
facet normal 0.8624897568525393 -0.5060745195368441 9.621518119350045e-13
  outer loop
    vertex 359.6512657161883 -371.9999999999986 100.50000000064504
    vertex 359.6512657161883 -371.99999999999955 100.00000000064516
    vertex 363.55519182632145 -365.34663937518314 110.86269379592179
  endloop
endfacet
facet normal -0.09050939412789201 -0.34182003761284424 0.9353967668647117
  outer loop
    vertex 311.18350827365225 -359.49999999998545 107.12808714532991
    vertex 357.1883435433016 -371.36480396894126 107.2438049156988
    vertex 326.6530426926007 -359.4999999999823 108.62492595993666
  endloop
endfacet
facet normal -0.09050939412789201 -0.34182003761284424 0.9353967668647117
  outer loop
    vertex 338.8253342604596 -364.11096479313323 108.11774714461782
    vertex 326.6530426926007 -359.4999999999823 108.62492595993666
    vertex 357.1883435433016 -371.36480396894126 107.2438049156988
  endloop
endfacet
facet normal -0.09050939412789201 -0.34182003761284424 0.9353967668647117
  outer loop
    vertex 357.2933675969365 -371.1068086766344 107.3482457556124
    vertex 338.8253342604596 -364.11096479313323 108.11774714461782
    vertex 357.1883435433016 -371.36480396894126 107.2438049156988
  endloop
endfacet
facet normal -0.12414942994570291 -0.4728715868729455 0.8723413216009085
  outer loop
    vertex 309.074803700832 -359.499999999986 106.82798159701161
    vertex 356.7903260740333 -374.5597080545517 105.45529281825029
    vertex 311.18350827365225 -359.49999999998545 107.12808714532991
  endloop
endfacet
facet normal -0.12414942994570291 -0.4728715868729455 0.8723413216009085
  outer loop
    vertex 357.1883435433016 -371.36480396894126 107.2438049156988
    vertex 311.18350827365225 -359.49999999998545 107.12808714532991
    vertex 356.7903260740333 -374.5597080545517 105.45529281825029
  endloop
endfacet
facet normal -0.14568132138128476 -0.4797478965968757 0.8652276627058777
  outer loop
    vertex 338.8253342604596 -364.11096479313323 108.11774714461782
    vertex 357.2933675969365 -371.1068086766344 107.3482457556124
    vertex 339.3581180574449 -362.70877232220977 108.98493571064031
  endloop
endfacet
facet normal -0.14568132138128476 -0.4797478965968757 0.8652276627058777
  outer loop
    vertex 349.41783921130747 -359.8620131532236 112.25718452548612
    vertex 339.3581180574449 -362.70877232220977 108.98493571064031
    vertex 357.2933675969365 -371.1068086766344 107.3482457556124
  endloop
endfacet
facet normal -0.14568132138128476 -0.4797478965968757 0.8652276627058777
  outer loop
    vertex 363.1578198451697 -365.79959552050434 111.2783853566858
    vertex 349.41783921130747 -359.8620131532236 112.25718452548612
    vertex 357.2933675969365 -371.1068086766344 107.3482457556124
  endloop
endfacet
facet normal 0.8842317694854676 -0.30712881505345935 0.35186086567911595
  outer loop
    vertex 356.7903260740333 -374.5597080545517 105.45529281825029
    vertex 359.6512657161883 -371.9999999999986 100.50000000064504
    vertex 357.1883435433016 -371.36480396894126 107.2438049156988
  endloop
endfacet
facet normal 0.5301177293447824 -0.7980177788866853 0.28660568315212004
  outer loop
    vertex 363.1578198451697 -365.79959552050434 111.2783853566858
    vertex 357.2933675969365 -371.1068086766344 107.3482457556124
    vertex 359.6512657161883 -371.9999999999986 100.50000000064504
  endloop
endfacet
facet normal 0.8660254037844284 9.873361269565535e-13 0.500000000000018
  outer loop
    vertex 355.6580905338907 -418.5126478096274 107.4163822999991
    vertex 359.6512657161887 -416.9999999999986 100.50000000073375
    vertex 355.7598027055863 -418.00362158677297 107.24021165087369
  endloop
endfacet
facet normal 0.8660254037844284 9.873361269565535e-13 0.500000000000018
  outer loop
    vertex 356.7903260740333 -414.4402919454255 105.45529281832883
    vertex 355.7598027055863 -418.00362158677297 107.24021165087369
    vertex 359.6512657161887 -416.9999999999986 100.50000000073375
  endloop
endfacet
facet normal 0.8660254037844284 9.873361269565535e-13 0.500000000000018
  outer loop
    vertex 357.7163403172815 -410.407947708682 103.85138910048302
    vertex 356.7903260740333 -414.4402919454255 105.45529281832883
    vertex 359.6512657161887 -416.9999999999986 100.50000000073375
  endloop
endfacet
facet normal 0.8660254037844284 9.873361269565535e-13 0.500000000000018
  outer loop
    vertex 358.4365185174193 -406.40590701668305 102.60400386733296
    vertex 357.7163403172815 -410.407947708682 103.85138910048302
    vertex 359.6512657161887 -416.9999999999986 100.50000000073375
  endloop
endfacet
facet normal 0.8660254037844284 9.873361269565535e-13 0.500000000000018
  outer loop
    vertex 358.9509718908949 -402.4256164484419 101.71294448633999
    vertex 358.4365185174193 -406.40590701668305 102.60400386733296
    vertex 359.6512657161887 -416.9999999999986 100.50000000073375
  endloop
endfacet
facet normal 0.8660254037844284 9.873361269565535e-13 0.500000000000018
  outer loop
    vertex 359.2596799235435 -398.4593664367809 101.17824648907988
    vertex 358.9509718908949 -402.4256164484419 101.71294448633999
    vertex 359.6512657161887 -416.9999999999986 100.50000000073375
  endloop
endfacet
facet normal 0.8660254037844284 9.873361269565535e-13 0.500000000000018
  outer loop
    vertex 359.36259058159374 -394.4999999999974 101.00000000068951
    vertex 359.2596799235435 -398.4593664367809 101.17824648907988
    vertex 359.6512657161887 -416.9999999999986 100.50000000073375
  endloop
endfacet
facet normal 0.8660254037844284 9.873361269565535e-13 0.500000000000018
  outer loop
    vertex 359.6512657161883 -371.9999999999986 100.50000000064504
    vertex 359.36259058159374 -394.4999999999974 101.00000000068951
    vertex 359.6512657161887 -416.9999999999986 100.50000000073375
  endloop
endfacet
facet normal 0.8660254037844284 9.873361269565535e-13 0.500000000000018
  outer loop
    vertex 356.8501799528138 -414.07554509482634 105.35162285925037
    vertex 356.7903260740333 -414.4402919454255 105.45529281832883
    vertex 357.7163403172815 -410.407947708682 103.85138910048302
  endloop
endfacet
facet normal 0.8660254037844284 9.873361269565535e-13 0.500000000000018
  outer loop
    vertex 357.7479512247003 -410.1610284247289 103.79663740275994
    vertex 357.7163403172815 -410.407947708682 103.85138910048302
    vertex 358.4365185174193 -406.40590701668305 102.60400386733296
  endloop
endfacet
facet normal 0.8660254037844284 9.873361269565535e-13 0.500000000000018
  outer loop
    vertex 358.4507514937624 -406.250632480165 102.57935162916324
    vertex 358.4365185174193 -406.40590701668305 102.60400386733296
    vertex 358.9509718908949 -402.4256164484419 101.71294448633999
  endloop
endfacet
facet normal 0.8660254037844284 9.873361269565535e-13 0.500000000000018
  outer loop
    vertex 358.9559152258731 -402.3358922620567 101.7043823789987
    vertex 358.9509718908949 -402.4256164484419 101.71294448633999
    vertex 359.2596799235435 -398.4593664367809 101.17824648907988
  endloop
endfacet
facet normal 0.8660254037844284 9.873361269565535e-13 0.500000000000018
  outer loop
    vertex 359.26060509997785 -398.4090459278891 101.17664403649017
    vertex 359.2596799235435 -398.4593664367809 101.17824648907988
    vertex 359.36259058159374 -394.4999999999974 101.00000000068951
  endloop
endfacet
facet normal 0.8660254037844284 9.873361269565535e-13 0.500000000000018
  outer loop
    vertex 359.26060509997785 -390.5909540721051 101.17664403647481
    vertex 359.36259058159374 -394.4999999999974 101.00000000068951
    vertex 359.6512657161883 -371.9999999999986 100.50000000064504
  endloop
endfacet
facet normal 0.8660254037844284 9.873361269565535e-13 0.500000000000018
  outer loop
    vertex 359.25967992354384 -390.5406335632132 101.17824648906442
    vertex 359.26060509997785 -390.5909540721051 101.17664403647481
    vertex 359.6512657161883 -371.9999999999986 100.50000000064504
  endloop
endfacet
facet normal 0.8660254037844284 9.873361269565535e-13 0.500000000000018
  outer loop
    vertex 358.95591522587347 -386.6641077379355 101.7043823789678
    vertex 359.25967992354384 -390.5406335632132 101.17824648906442
    vertex 359.6512657161883 -371.9999999999986 100.50000000064504
  endloop
endfacet
facet normal 0.8660254037844284 9.873361269565535e-13 0.500000000000018
  outer loop
    vertex 358.9509718908949 -386.5743835515503 101.71294448630881
    vertex 358.95591522587347 -386.6641077379355 101.7043823789678
    vertex 359.6512657161883 -371.9999999999986 100.50000000064504
  endloop
endfacet
facet normal 0.8660254037844284 9.873361269565535e-13 0.500000000000018
  outer loop
    vertex 358.4507514937624 -382.749367519824 102.57935162911696
    vertex 358.9509718908949 -386.5743835515503 101.71294448630881
    vertex 359.6512657161883 -371.9999999999986 100.50000000064504
  endloop
endfacet
facet normal 0.8660254037844284 9.873361269565535e-13 0.500000000000018
  outer loop
    vertex 358.4365185174193 -382.5940929833066 102.604003867286
    vertex 358.4507514937624 -382.749367519824 102.57935162911696
    vertex 359.6512657161883 -371.9999999999986 100.50000000064504
  endloop
endfacet
facet normal 0.8660254037844284 9.873361269565535e-13 0.500000000000018
  outer loop
    vertex 357.7479512247003 -378.8389715752552 103.79663740269831
    vertex 358.4365185174193 -382.5940929833066 102.604003867286
    vertex 359.6512657161883 -371.9999999999986 100.50000000064504
  endloop
endfacet
facet normal 0.8660254037844284 9.873361269565535e-13 0.500000000000018
  outer loop
    vertex 357.7163403172815 -378.5920522913017 103.85138910042035
    vertex 357.7479512247003 -378.8389715752552 103.79663740269831
    vertex 359.6512657161883 -371.9999999999986 100.50000000064504
  endloop
endfacet
facet normal 0.8660254037844284 9.873361269565535e-13 0.500000000000018
  outer loop
    vertex 356.8501799528138 -374.9244549051519 105.35162285917335
    vertex 357.7163403172815 -378.5920522913017 103.85138910042035
    vertex 359.6512657161883 -371.9999999999986 100.50000000064504
  endloop
endfacet
facet normal 0.8660254037844284 9.873361269565535e-13 0.500000000000018
  outer loop
    vertex 356.7903260740333 -374.5597080545517 105.45529281825029
    vertex 356.8501799528138 -374.9244549051519 105.35162285917335
    vertex 359.6512657161883 -371.9999999999986 100.50000000064504
  endloop
endfacet
facet normal -0.9347945028640556 0.3551890164618598 -6.992095883202009e-13
  outer loop
    vertex 338.8253342604596 -364.1109647931492 100.00000000062971
    vertex 338.8253342604596 -364.11096479313323 108.11774714461782
    vertex 339.3581180574449 -362.70877232222324 102.1425847418399
  endloop
endfacet
facet normal -0.9347945028640556 0.3551890164618598 -6.992095883202009e-13
  outer loop
    vertex 339.3581180574449 -362.70877232220977 108.98493571064031
    vertex 339.3581180574449 -362.70877232222324 102.1425847418399
    vertex 338.8253342604596 -364.11096479313323 108.11774714461782
  endloop
endfacet
facet normal 0.35424374428943 0.9351531263016795 -1.8518908753062533e-12
  outer loop
    vertex 326.6530426926007 -359.4999999999823 108.62492595993666
    vertex 338.8253342604596 -364.11096479313323 108.11774714461782
    vertex 326.6530426926007 -359.4999999999995 100.00000000062042
  endloop
endfacet
facet normal 0.35424374428943 0.9351531263016795 -1.8518908753062533e-12
  outer loop
    vertex 338.8253342604596 -364.1109647931492 100.00000000062971
    vertex 326.6530426926007 -359.4999999999995 100.00000000062042
    vertex 338.8253342604596 -364.11096479313323 108.11774714461782
  endloop
endfacet
facet normal 0.29019564933028186 0.7660752605650021 -0.5735112730017085
  outer loop
    vertex 350.2913594202651 -359.61481925728 111.80757344896563
    vertex 363.55519182632145 -365.34663937518314 110.86269379592179
    vertex 339.3581180574449 -362.70877232222324 102.1425847418399
  endloop
endfacet
facet normal 0.29019564933028186 0.7660752605650021 -0.5735112730017085
  outer loop
    vertex 359.6512657161883 -371.99999999999955 100.00000000064516
    vertex 339.3581180574449 -362.70877232222324 102.1425847418399
    vertex 363.55519182632145 -365.34663937518314 110.86269379592179
  endloop
endfacet
facet normal 0.29019564933028186 0.7660752605650021 -0.5735112730017085
  outer loop
    vertex 338.8253342604596 -364.1109647931492 100.00000000062971
    vertex 339.3581180574449 -362.70877232222324 102.1425847418399
    vertex 359.6512657161883 -371.99999999999955 100.00000000064516
  endloop
endfacet
facet normal -0.2722930892805093 0.9622143594491182 -1.8959610501449817e-12
  outer loop
    vertex 349.41783921130747 -359.8620131532236 112.25718452548612
    vertex 350.2913594202651 -359.61481925728 111.80757344896563
    vertex 339.3581180574449 -362.70877232220977 108.98493571064031
  endloop
endfacet
facet normal -0.2722930892805093 0.9622143594491182 -1.8959610501449817e-12
  outer loop
    vertex 339.3581180574449 -362.70877232222324 102.1425847418399
    vertex 339.3581180574449 -362.70877232220977 108.98493571064031
    vertex 350.2913594202651 -359.61481925728 111.80757344896563
  endloop
endfacet
facet normal -1.6046100245585428e-15 -1.0 1.977843846126014e-12
  outer loop
    vertex 326.6530426926007 -429.49999999998244 108.62492596007446
    vertex 311.1835082736515 -429.4999999999852 107.1280871454678
    vertex 326.6530426926013 -429.49999999999943 100.00000000075842
  endloop
endfacet
facet normal -1.6046100245585428e-15 -1.0 1.977843846126014e-12
  outer loop
    vertex 309.07480370083164 -429.49999999998596 106.82798159714949
    vertex 326.6530426926013 -429.49999999999943 100.00000000075842
    vertex 311.1835082736515 -429.4999999999852 107.1280871454678
  endloop
endfacet
facet normal -1.6046100245585428e-15 -1.0 1.977843846126014e-12
  outer loop
    vertex 306.65304269260054 -429.49999999998624 106.67234579059048
    vertex 326.6530426926013 -429.49999999999943 100.00000000075842
    vertex 309.07480370083164 -429.49999999998596 106.82798159714949
  endloop
endfacet
facet normal -1.6046100245585428e-15 -1.0 1.977843846126014e-12
  outer loop
    vertex 306.6530426926009 -429.49999999999943 100.00000000075852
    vertex 326.6530426926013 -429.49999999999943 100.00000000075842
    vertex 306.65304269260054 -429.49999999998624 106.67234579059048
  endloop
endfacet
facet normal 3.842239998154107e-16 -1.970805035714332e-12 -1.0
  outer loop
    vertex 299.6512657161882 -394.4999999999995 100.00000000068965
    vertex 299.6512657161882 -359.4999999999995 100.00000000062052
    vertex 306.6530426926009 -429.49999999999943 100.00000000075852
  endloop
endfacet
facet normal 3.842239998154107e-16 -1.970805035714332e-12 -1.0
  outer loop
    vertex 326.6530426926007 -359.4999999999995 100.00000000062042
    vertex 306.6530426926009 -429.49999999999943 100.00000000075852
    vertex 299.6512657161882 -359.4999999999995 100.00000000062052
  endloop
endfacet
facet normal 3.842239998154107e-16 -1.970805035714332e-12 -1.0
  outer loop
    vertex 326.6530426926013 -429.49999999999943 100.00000000075842
    vertex 306.6530426926009 -429.49999999999943 100.00000000075852
    vertex 326.6530426926007 -359.4999999999995 100.00000000062042
  endloop
endfacet
facet normal 3.842239998154107e-16 -1.970805035714332e-12 -1.0
  outer loop
    vertex 338.8253342604596 -364.1109647931492 100.00000000062971
    vertex 326.6530426926013 -429.49999999999943 100.00000000075842
    vertex 326.6530426926007 -359.4999999999995 100.00000000062042
  endloop
endfacet
facet normal 3.842239998154107e-16 -1.970805035714332e-12 -1.0
  outer loop
    vertex 359.6512657161887 -416.99999999999955 100.00000000073378
    vertex 326.6530426926013 -429.49999999999943 100.00000000075842
    vertex 338.8253342604596 -364.1109647931492 100.00000000062971
  endloop
endfacet
facet normal 3.842239998154107e-16 -1.970805035714332e-12 -1.0
  outer loop
    vertex 359.6512657161883 -371.99999999999955 100.00000000064516
    vertex 359.6512657161887 -416.99999999999955 100.00000000073378
    vertex 338.8253342604596 -364.1109647931492 100.00000000062971
  endloop
endfacet
endsolid ProtoGlove baseplate
