solid ProtoGlove baseplate
facet normal -0.11654656472882008 0.46094389923071105 0.8797429283670878
  outer loop
    vertex 6.204860985250039 311.80270914744244 106.70486098589265
    vertex 77.07293878986842 331.8875316767329 105.56981873349476
    vertex 6.01445332937964 312.11797187423235 106.51445333002277
  endloop
endfacet
facet normal -0.11654656472882008 0.46094389923071105 0.8797429283670878
  outer loop
    vertex 77.07293878986842 331.8875316767329 105.56981873349476
    vertex 6.204860985250039 311.80270914744244 106.70486098589265
    vertex 75.70335578100286 327.0137601609122 107.94200609002301
  endloop
endfacet
facet normal -0.01016565618644063 -0.09675191255373752 0.9952566135683265
  outer loop
    vertex 79.05518079201218 364.14572788052277 102.13647487294767
    vertex 5.245759845647023 374.4830393827918 102.38749903942006
    vertex 2.7172652807378084 364.3690611231564 101.37846224140048
  endloop
endfacet
facet normal -0.01016565618644063 -0.09675191255373752 0.9952566135683265
  outer loop
    vertex 5.245759845647023 374.4830393827918 102.38749903942006
    vertex 79.05518079201218 364.14572788052277 102.13647487294767
    vertex 79.04798750225089 364.2746469787636 102.14893401628804
  endloop
endfacet
facet normal -0.04935969619809424 -0.22392459945877302 0.9733557387453264
  outer loop
    vertex 77.12397239625628 374.7169930527635 105.48142593442178
    vertex 10.063855587647032 393.75542235078274 106.46062154016197
    vertex 7.827416356469822 384.8096654260789 104.2892006370904
  endloop
endfacet
facet normal -0.04935969619809424 -0.22392459945877302 0.9733557387453264
  outer loop
    vertex 10.063855587647032 393.75542235078274 106.46062154016197
    vertex 77.12397239625628 374.7169930527635 105.48142593442178
    vertex 77.07293878986842 375.1124683236603 105.56981873357967
  endloop
endfacet
facet normal -0.7071067811865472 -1.3929818139285862e-12 0.7071067811865479
  outer loop
    vertex 0.0 303.50000000020674 100.50000000062639
    vertex 0.8507979397991448 342.68174513110705 101.35079794050246
    vertex 0.0 353.50000000020674 100.5000000007248
  endloop
endfacet
facet normal -0.7071067811865472 -1.3929818139285862e-12 0.7071067811865479
  outer loop
    vertex 0.8507979397991448 342.68174513110705 101.35079794050246
    vertex 0.0 303.50000000020674 100.50000000062639
    vertex 1.8983196084783174 332.0539395872863 102.39831960916095
  endloop
endfacet
facet normal -0.7071067811865472 -1.3929818139285862e-12 0.7071067811865479
  outer loop
    vertex 1.8983196084783174 332.0539395872863 102.39831960916095
    vertex 0.0 303.50000000020674 100.50000000062639
    vertex 3.6278361990989136 321.80482605576225 104.12783619976092
  endloop
endfacet
facet normal -0.7071067811865472 -1.3929818139285862e-12 0.7071067811865479
  outer loop
    vertex 3.6278361990989136 321.80482605576225 104.12783619976092
    vertex 0.0 303.50000000020674 100.50000000062639
    vertex 6.01445332937964 312.11797187423235 106.51445333002277
  endloop
endfacet
facet normal -0.7071067811865472 -1.3929818139285862e-12 0.7071067811865479
  outer loop
    vertex 6.01445332937964 312.11797187423235 106.51445333002277
    vertex 0.0 303.50000000020674 100.50000000062639
    vertex 8.914757486411053 303.50000000018923 109.41475748703772
  endloop
endfacet
facet normal -0.7071067811865472 -1.3929818139285862e-12 0.7071067811865479
  outer loop
    vertex 0.0 353.50000000020674 100.5000000007248
    vertex 0.8507979397991448 342.68174513110705 101.35079794050246
    vertex 0.49999999999988626 353.5000000002057 101.00000000072487
  endloop
endfacet
facet normal -0.7071067811865472 -1.3929818139285862e-12 0.7071067811865479
  outer loop
    vertex 0.49999999999988626 353.5000000002057 101.00000000072487
    vertex 0.8507979397991448 342.68174513110705 101.35079794050246
    vertex 0.5018020307668791 353.46642797229515 101.00180203149176
  endloop
endfacet
facet normal -0.7071067811865472 -1.3929818139285862e-12 0.7071067811865479
  outer loop
    vertex 0.8507979397991448 342.68174513110705 101.35079794050246
    vertex 1.8983196084783174 332.0539395872863 102.39831960916095
    vertex 0.8600203549386776 342.62550534492766 101.36002035564199
  endloop
endfacet
facet normal -0.7071067811865472 -1.3929818139285862e-12 0.7071067811865479
  outer loop
    vertex 1.8983196084783174 332.0539395872863 102.39831960916095
    vertex 3.6278361990989136 321.80482605576225 104.12783619976092
    vertex 1.93251062950726 331.93381847816283 102.43251063018955
  endloop
endfacet
facet normal -0.7071067811865472 -1.3929818139285862e-12 0.7071067811865479
  outer loop
    vertex 3.6278361990989136 321.80482605576225 104.12783619976092
    vertex 6.01445332937964 312.11797187423235 106.51445333002277
    vertex 3.71850817247292 321.5918940964222 104.21850817313486
  endloop
endfacet
facet normal -0.7071067811865472 -1.3929818139285862e-12 0.7071067811865479
  outer loop
    vertex 6.01445332937964 312.11797187423235 106.51445333002277
    vertex 8.914757486411053 303.50000000018923 109.41475748703772
    vertex 6.204860985250039 311.80270914744244 106.70486098589265
  endloop
endfacet
facet normal -0.7071067811865472 -1.3929818139285862e-12 0.7071067811865479
  outer loop
    vertex 0.49999999999988626 353.5000000002057 101.00000000072487
    vertex 0.5751658597794573 355.8006634393227 101.07516586050853
    vertex 0.0 353.50000000020674 100.5000000007248
  endloop
endfacet
facet normal -0.7071067811865472 -1.3929818139285862e-12 0.7071067811865479
  outer loop
    vertex 0.5751658597794573 355.8006634393227 101.07516586050853
    vertex 0.49999999999988626 353.5000000002057 101.00000000072487
    vertex 0.5018020307668791 353.53357202811645 101.00180203149185
  endloop
endfacet
facet normal -0.11639030097740638 -0.3455364527165992 0.9311594158265374
  outer loop
    vertex 73.99357149404034 385.26298811075196 110.90343934513977
    vertex 12.500000000000044 403.50000000018804 109.98447436084507
    vertex 12.456303630553782 403.3252145224026 109.91415279564487
  endloop
endfacet
facet normal -0.11639030097740638 -0.3455364527165992 0.9311594158265374
  outer loop
    vertex 12.500000000000044 403.50000000018804 109.98447436084507
    vertex 73.99357149404034 385.26298811075196 110.90343934513977
    vertex 32.50000000000019 403.50000000018326 112.48437500082332
  endloop
endfacet
facet normal -0.11639030097740638 -0.3455364527165992 0.9311594158265374
  outer loop
    vertex 32.50000000000019 403.50000000018326 112.48437500082332
    vertex 73.99357149404034 385.26298811075196 110.90343934513977
    vertex 73.82643755031587 386.0993947158421 111.1929238273416
  endloop
endfacet
facet normal -0.9701425001453323 0.2425356250363315 4.913543720870296e-13
  outer loop
    vertex 12.500000000000044 403.50000000020776 100.0000000008232
    vertex 12.296841932344437 402.6873677295659 109.45329991288475
    vertex 12.500000000000044 403.50000000018804 109.98447436084507
  endloop
endfacet
facet normal -0.9701425001453323 0.2425356250363315 4.913543720870296e-13
  outer loop
    vertex 12.296841932344437 402.6873677295659 109.45329991288475
    vertex 12.500000000000044 403.50000000020776 100.0000000008232
    vertex 10.063855587647032 393.75542235078274 106.46062154016197
  endloop
endfacet
facet normal -0.9701425001453323 0.2425356250363315 4.913543720870296e-13
  outer loop
    vertex 10.063855587647032 393.75542235078274 106.46062154016197
    vertex 12.500000000000044 403.50000000020776 100.0000000008232
    vertex 7.711466428751578 384.3458657152066 104.09778592274816
  endloop
endfacet
facet normal -0.9701425001453323 0.2425356250363315 4.913543720870296e-13
  outer loop
    vertex 7.711466428751578 384.3458657152066 104.09778592274816
    vertex 12.500000000000044 403.50000000020776 100.0000000008232
    vertex 5.245759845647023 374.4830393827918 102.38749903942006
  endloop
endfacet
facet normal -0.9701425001453323 0.2425356250363315 4.913543720870296e-13
  outer loop
    vertex 5.245759845647023 374.4830393827918 102.38749903942006
    vertex 12.500000000000044 403.50000000020776 100.0000000008232
    vertex 0.0 353.5000000002077 100.000000000725
  endloop
endfacet
facet normal -0.9701425001453323 0.2425356250363315 4.913543720870296e-13
  outer loop
    vertex 12.500000000000044 403.50000000018804 109.98447436084507
    vertex 12.296841932344437 402.6873677295659 109.45329991288475
    vertex 12.456303630553782 403.3252145224026 109.91415279564487
  endloop
endfacet
facet normal -0.9701425001453323 0.2425356250363315 4.913543720870296e-13
  outer loop
    vertex 12.296841932344437 402.6873677295659 109.45329991288475
    vertex 10.063855587647032 393.75542235078274 106.46062154016197
    vertex 10.205423168558498 394.3216926744289 106.77607513153103
  endloop
endfacet
facet normal -0.9701425001453323 0.2425356250363315 4.913543720870296e-13
  outer loop
    vertex 10.063855587647032 393.75542235078274 106.46062154016197
    vertex 7.711466428751578 384.3458657152066 104.09778592274816
    vertex 7.827416356469822 384.8096654260789 104.2892006370904
  endloop
endfacet
facet normal -0.9701425001453323 0.2425356250363315 4.913543720870296e-13
  outer loop
    vertex 7.711466428751578 384.3458657152066 104.09778592274816
    vertex 5.245759845647023 374.4830393827918 102.38749903942006
    vertex 5.328952674461308 374.8158106980481 102.4818175940898
  endloop
endfacet
facet normal -0.9701425001453323 0.2425356250363315 4.913543720870296e-13
  outer loop
    vertex 5.245759845647023 374.4830393827918 102.38749903942006
    vertex 0.0 353.5000000002077 100.000000000725
    vertex 2.673101777968435 364.1924071120776 101.34933574451794
  endloop
endfacet
facet normal -0.9701425001453323 0.2425356250363315 4.913543720870296e-13
  outer loop
    vertex 5.245759845647023 374.4830393827918 102.38749903942006
    vertex 2.673101777968435 364.1924071120776 101.34933574451794
    vertex 2.7172652807378084 364.3690611231564 101.37846224140048
  endloop
endfacet
facet normal -0.9701425001453323 0.2425356250363315 4.913543720870296e-13
  outer loop
    vertex 2.673101777968435 364.1924071120776 101.34933574451794
    vertex 0.0 353.5000000002077 100.000000000725
    vertex 0.5751658597794573 355.8006634393227 101.07516586050853
  endloop
endfacet
facet normal -0.9701425001453323 0.2425356250363315 4.913543720870296e-13
  outer loop
    vertex 0.5751658597794573 355.8006634393227 101.07516586050853
    vertex 0.0 353.5000000002077 100.000000000725
    vertex 0.0 353.50000000020674 100.5000000007248
  endloop
endfacet
facet normal -1.0 -0.0 0.0
  outer loop
    vertex 0.0 303.5000000002077 100.00000000062641
    vertex 0.0 353.50000000020674 100.5000000007248
    vertex 0.0 353.5000000002077 100.000000000725
  endloop
endfacet
facet normal -1.0 -0.0 0.0
  outer loop
    vertex 0.0 353.50000000020674 100.5000000007248
    vertex 0.0 303.5000000002077 100.00000000062641
    vertex 0.0 303.50000000020674 100.50000000062639
  endloop
endfacet
facet normal 1.0 0.0 0.0
  outer loop
    vertex 80.00000000000021 383.5000000002068 100.50000000078396
    vertex 80.00000000000021 323.50000000020776 100.00000000066565
    vertex 80.00000000000021 383.50000000020765 100.00000000078388
  endloop
endfacet
facet normal 1.0 0.0 0.0
  outer loop
    vertex 80.00000000000021 323.50000000020776 100.00000000066565
    vertex 80.00000000000021 383.5000000002068 100.50000000078396
    vertex 80.00000000000021 323.5000000002069 100.50000000066562
  endloop
endfacet
facet normal 0.38805700005812593 -0.9216353751380681 -1.8243423852531844e-12
  outer loop
    vertex 32.49999999999983 303.5000000002077 100.00000000062641
    vertex 55.39373004755468 313.1394652833652 111.76894593665925
    vertex 32.50000000000019 303.50000000018304 112.48437500062626
  endloop
endfacet
facet normal 0.38805700005812593 -0.9216353751380681 -1.8243423852531844e-12
  outer loop
    vertex 55.39373004755468 313.1394652833652 111.76894593665925
    vertex 32.49999999999983 303.5000000002077 100.00000000062641
    vertex 55.39373004755468 313.1394652833884 100.00000000064539
  endloop
endfacet
facet normal -0.001428465011015757 0.0322971905293723 0.9994772888723493
  outer loop
    vertex 0.8507979397991448 342.68174513110705 101.35079794050246
    vertex 79.54639865423754 348.17811257833483 101.28566057795717
    vertex 0.5018020307668791 353.46642797229515 101.00180203149176
  endloop
endfacet
facet normal -0.001428465011015757 0.0322971905293723 0.9994772888723493
  outer loop
    vertex 79.54639865423754 348.17811257833483 101.28566057795717
    vertex 0.8507979397991448 342.68174513110705 101.35079794050246
    vertex 79.54524751904951 348.11636024752784 101.28765440258891
  endloop
endfacet
facet normal 1.5214725779050944e-17 0.053599394921655656 0.9985625192565725
  outer loop
    vertex 0.5018020307668791 353.46642797229515 101.00180203149176
    vertex 79.7113248654053 353.5000000002056 101.00000000072487
    vertex 0.49999999999988626 353.5000000002057 101.00000000072487
  endloop
endfacet
facet normal 1.5214725779050944e-17 0.053599394921655656 0.9985625192565725
  outer loop
    vertex 79.7113248654053 353.5000000002056 101.00000000072487
    vertex 0.5018020307668791 353.46642797229515 101.00180203149176
    vertex 79.54639865423754 348.17811257833483 101.28566057795717
  endloop
endfacet
facet normal -1.2374643633628104e-16 -0.05359939492558702 0.9985625192563615
  outer loop
    vertex 79.7113248654053 353.5000000002056 101.00000000072487
    vertex 0.5018020307668791 353.53357202811645 101.00180203149185
    vertex 0.49999999999988626 353.5000000002057 101.00000000072487
  endloop
endfacet
facet normal -1.2374643633628104e-16 -0.05359939492558702 0.9985625192563615
  outer loop
    vertex 0.5018020307668791 353.53357202811645 101.00180203149185
    vertex 79.7113248654053 353.5000000002056 101.00000000072487
    vertex 79.54639865423754 358.8218874220754 101.28566057797812
  endloop
endfacet
facet normal -0.026173748142778022 -0.1607577950498829 0.9866467788620498
  outer loop
    vertex 78.24465178897663 369.44078487914607 103.54035228722434
    vertex 7.711466428751578 384.3458657152066 104.09778592274816
    vertex 5.328952674461308 374.8158106980481 102.4818175940898
  endloop
endfacet
facet normal -0.026173748142778022 -0.1607577950498829 0.9866467788620498
  outer loop
    vertex 7.711466428751578 384.3458657152066 104.09778592274816
    vertex 78.24465178897663 369.44078487914607 103.54035228722434
    vertex 78.22238699107876 369.6810939972774 103.57891604840398
  endloop
endfacet
facet normal -0.0014284650110155653 -0.03229719053331265 0.9994772888722221
  outer loop
    vertex 79.54639865423754 358.8218874220754 101.28566057797812
    vertex 0.5751658597794573 355.8006634393227 101.07516586050853
    vertex 0.5018020307668791 353.53357202811645 101.00180203149185
  endloop
endfacet
facet normal -0.0014284650110155653 -0.03229719053331265 0.9994772888722221
  outer loop
    vertex 0.5751658597794573 355.8006634393227 101.07516586050853
    vertex 79.54639865423754 358.8218874220754 101.28566057797812
    vertex 2.673101777968435 364.1924071120776 101.34933574451794
  endloop
endfacet
facet normal -0.0014284650110155653 -0.03229719053331265 0.9994772888722221
  outer loop
    vertex 2.673101777968435 364.1924071120776 101.34933574451794
    vertex 79.54639865423754 358.8218874220754 101.28566057797812
    vertex 79.54524751904951 358.8836397528824 101.28765440261013
  endloop
endfacet
facet normal -0.11654656472881944 -0.46094389923417406 0.8797429283652737
  outer loop
    vertex 77.07293878986842 375.1124683236603 105.56981873357967
    vertex 10.205423168558498 394.3216926744289 106.77607513153103
    vertex 10.063855587647032 393.75542235078274 106.46062154016197
  endloop
endfacet
facet normal -0.11654656472881944 -0.46094389923417406 0.8797429283652737
  outer loop
    vertex 10.205423168558498 394.3216926744289 106.77607513153103
    vertex 77.07293878986842 375.1124683236603 105.56981873357967
    vertex 75.70335578100286 379.9862398394723 107.94200609012753
  endloop
endfacet
facet normal -0.0692367088221672 0.365742247742748 0.9281373208569715
  outer loop
    vertex 3.71850817247292 321.5918940964222 104.21850817313486
    vertex 78.22238699107876 337.3189060031241 103.57891604834018
    vertex 3.6278361990989136 321.80482605576225 104.12783619976092
  endloop
endfacet
facet normal -0.0692367088221672 0.365742247742748 0.9281373208569715
  outer loop
    vertex 78.22238699107876 337.3189060031241 103.57891604834018
    vertex 3.71850817247292 321.5918940964222 104.21850817313486
    vertex 77.12397239625663 332.2830069476308 105.48142593433815
  endloop
endfacet
facet normal -0.03350876070341407 0.2647755687331485 0.9637276903556102
  outer loop
    vertex 1.93251062950726 331.93381847816283 102.43251063018955
    vertex 79.04798750225089 342.72535302164357 102.14893401624545
    vertex 1.8983196084783174 332.0539395872863 102.39831960916095
  endloop
endfacet
facet normal -0.03350876070341407 0.2647755687331485 0.9637276903556102
  outer loop
    vertex 79.04798750225089 342.72535302164357 102.14893401624545
    vertex 1.93251062950726 331.93381847816283 102.43251063018955
    vertex 78.24465178897663 337.55921512125616 103.54035228716148
  endloop
endfacet
facet normal -0.06923670882216915 -0.36574224774641784 0.9281373208555252
  outer loop
    vertex 78.22238699107876 369.6810939972774 103.57891604840398
    vertex 7.827416356469822 384.8096654260789 104.2892006370904
    vertex 7.711466428751578 384.3458657152066 104.09778592274816
  endloop
endfacet
facet normal -0.06923670882216915 -0.36574224774641784 0.9281373208555252
  outer loop
    vertex 7.827416356469822 384.8096654260789 104.2892006370904
    vertex 78.22238699107876 369.6810939972774 103.57891604840398
    vertex 77.12397239625628 374.7169930527635 105.48142593442178
  endloop
endfacet
facet normal -0.03350876070341395 -0.2647755687369466 0.963727690354567
  outer loop
    vertex 79.04798750225089 364.2746469787636 102.14893401628804
    vertex 5.328952674461308 374.8158106980481 102.4818175940898
    vertex 5.245759845647023 374.4830393827918 102.38749903942006
  endloop
endfacet
facet normal -0.03350876070341395 -0.2647755687369466 0.963727690354567
  outer loop
    vertex 5.328952674461308 374.8158106980481 102.4818175940898
    vertex 79.04798750225089 364.2746469787636 102.14893401628804
    vertex 78.24465178897663 369.44078487914607 103.54035228722434
  endloop
endfacet
facet normal -0.010269568312113031 0.16017379604959905 0.9870354051531001
  outer loop
    vertex 0.8600203549386776 342.62550534492766 101.36002035564199
    vertex 79.54524751904951 348.11636024752784 101.28765440258891
    vertex 0.8507979397991448 342.68174513110705 101.35079794050246
  endloop
endfacet
facet normal -0.010269568312113031 0.16017379604959905 0.9870354051531001
  outer loop
    vertex 79.54524751904951 348.11636024752784 101.28765440258891
    vertex 0.8600203549386776 342.62550534492766 101.36002035564199
    vertex 79.05518079201218 342.8542721198844 102.1364748729057
  endloop
endfacet
facet normal -0.17393814534188165 -0.5477787212881239 0.8183422230943327
  outer loop
    vertex 75.60542716315744 380.5803965331799 108.11162343175198
    vertex 12.456303630553782 403.3252145224026 109.91415279564487
    vertex 12.296841932344437 402.6873677295659 109.45329991288475
  endloop
endfacet
facet normal -0.17393814534188165 -0.5477787212881239 0.8183422230943327
  outer loop
    vertex 12.456303630553782 403.3252145224026 109.91415279564487
    vertex 75.60542716315744 380.5803965331799 108.11162343175198
    vertex 73.99357149404034 385.26298811075196 110.90343934513977
  endloop
endfacet
facet normal -0.0795394032501741 0.2857392437227795 0.955000820904014
  outer loop
    vertex 8.914757486411053 303.50000000018923 109.41475748703772
    vertex 75.70335578100286 327.0137601609122 107.94200609002301
    vertex 6.204860985250039 311.80270914744244 106.70486098589265
  endloop
endfacet
facet normal -0.0795394032501741 0.2857392437227795 0.955000820904014
  outer loop
    vertex 75.70335578100286 327.0137601609122 107.94200609002301
    vertex 8.914757486411053 303.50000000018923 109.41475748703772
    vertex 9.969675586985465 303.50000000018895 109.50261872690344
  endloop
endfacet
facet normal -0.0795394032501741 0.2857392437227795 0.955000820904014
  outer loop
    vertex 75.70335578100286 327.0137601609122 107.94200609002301
    vertex 9.969675586985465 303.50000000018895 109.50261872690344
    vertex 75.60542716315744 326.4196034672033 108.11162343164543
  endloop
endfacet
facet normal -0.07953940325017031 -0.28573924372652487 0.9550008209028936
  outer loop
    vertex 75.70335578100286 379.9862398394723 107.94200609012753
    vertex 12.296841932344437 402.6873677295659 109.45329991288475
    vertex 10.205423168558498 394.3216926744289 106.77607513153103
  endloop
endfacet
facet normal -0.07953940325017031 -0.28573924372652487 0.9550008209028936
  outer loop
    vertex 12.296841932344437 402.6873677295659 109.45329991288475
    vertex 75.70335578100286 379.9862398394723 107.94200609012753
    vertex 75.60542716315744 380.5803965331799 108.11162343175198
  endloop
endfacet
facet normal -0.01016565618644111 0.09675191254981684 0.9952566135687075
  outer loop
    vertex 1.8983196084783174 332.0539395872863 102.39831960916095
    vertex 79.05518079201218 342.8542721198844 102.1364748729057
    vertex 0.8600203549386776 342.62550534492766 101.36002035564199
  endloop
endfacet
facet normal -0.01016565618644111 0.09675191254981684 0.9952566135687075
  outer loop
    vertex 79.05518079201218 342.8542721198844 102.1364748729057
    vertex 1.8983196084783174 332.0539395872863 102.39831960916095
    vertex 79.04798750225089 342.72535302164357 102.14893401624545
  endloop
endfacet
facet normal -0.04935969619809552 0.22392459945494372 0.9733557387462074
  outer loop
    vertex 6.01445332937964 312.11797187423235 106.51445333002277
    vertex 77.12397239625663 332.2830069476308 105.48142593433815
    vertex 3.71850817247292 321.5918940964222 104.21850817313486
  endloop
endfacet
facet normal -0.04935969619809552 0.22392459945494372 0.9733557387462074
  outer loop
    vertex 77.12397239625663 332.2830069476308 105.48142593433815
    vertex 6.01445332937964 312.11797187423235 106.51445333002277
    vertex 77.07293878986842 331.8875316767329 105.56981873349476
  endloop
endfacet
facet normal -0.01026956831211251 -0.16017379605348497 0.9870354051524695
  outer loop
    vertex 79.54524751904951 358.8836397528824 101.28765440261013
    vertex 2.7172652807378084 364.3690611231564 101.37846224140048
    vertex 2.673101777968435 364.1924071120776 101.34933574451794
  endloop
endfacet
facet normal -0.01026956831211251 -0.16017379605348497 0.9870354051524695
  outer loop
    vertex 2.7172652807378084 364.3690611231564 101.37846224140048
    vertex 79.54524751904951 358.8836397528824 101.28765440261013
    vertex 79.05518079201218 364.14572788052277 102.13647487294767
  endloop
endfacet
facet normal -0.026173748142778296 0.16075779504599563 0.986646778862683
  outer loop
    vertex 3.6278361990989136 321.80482605576225 104.12783619976092
    vertex 78.24465178897663 337.55921512125616 103.54035228716148
    vertex 1.93251062950726 331.93381847816283 102.43251063018955
  endloop
endfacet
facet normal -0.026173748142778296 0.16075779504599563 0.986646778862683
  outer loop
    vertex 78.24465178897663 337.55921512125616 103.54035228716148
    vertex 3.6278361990989136 321.80482605576225 104.12783619976092
    vertex 78.22238699107876 337.3189060031241 103.57891604834018
  endloop
endfacet
facet normal -2.3119009179708054e-15 -1.0 -1.9669097370849383e-12
  outer loop
    vertex 11.860816644618545 303.50000000018827 109.90457961668916
    vertex 32.49999999999983 303.5000000002077 100.00000000062641
    vertex 32.50000000000019 303.50000000018304 112.48437500062626
  endloop
endfacet
facet normal -2.3119009179708054e-15 -1.0 -1.9669097370849383e-12
  outer loop
    vertex 32.49999999999983 303.5000000002077 100.00000000062641
    vertex 11.860816644618545 303.50000000018827 109.90457961668916
    vertex 9.969675586985465 303.50000000018895 109.50261872690344
  endloop
endfacet
facet normal -2.3119009179708054e-15 -1.0 -1.9669097370849383e-12
  outer loop
    vertex 32.49999999999983 303.5000000002077 100.00000000062641
    vertex 9.969675586985465 303.50000000018895 109.50261872690344
    vertex 8.914757486411053 303.50000000018923 109.41475748703772
  endloop
endfacet
facet normal -2.3119009179708054e-15 -1.0 -1.9669097370849383e-12
  outer loop
    vertex 32.49999999999983 303.5000000002077 100.00000000062641
    vertex 8.914757486411053 303.50000000018923 109.41475748703772
    vertex 0.0 303.50000000020674 100.50000000062639
  endloop
endfacet
facet normal -2.3119009179708054e-15 -1.0 -1.9669097370849383e-12
  outer loop
    vertex 32.49999999999983 303.5000000002077 100.00000000062641
    vertex 0.0 303.50000000020674 100.50000000062639
    vertex 0.0 303.5000000002077 100.00000000062641
  endloop
endfacet
facet normal 0.38805700005802285 0.9216353751381116 1.4047984241608226e-12
  outer loop
    vertex 73.82643755031587 386.0993947158421 111.1929238273416
    vertex 32.50000000000019 403.5000000001974 100.00000000082326
    vertex 32.50000000000019 403.50000000018326 112.48437500082332
  endloop
endfacet
facet normal 0.38805700005802285 0.9216353751381116 1.4047984241608226e-12
  outer loop
    vertex 32.50000000000019 403.5000000001974 100.00000000082326
    vertex 73.82643755031587 386.0993947158421 111.1929238273416
    vertex 80.00000000000021 383.5000000002068 100.50000000078396
  endloop
endfacet
facet normal 0.38805700005802285 0.9216353751381116 1.4047984241608226e-12
  outer loop
    vertex 32.50000000000019 403.5000000001974 100.00000000082326
    vertex 80.00000000000021 383.5000000002068 100.50000000078396
    vertex 80.00000000000021 383.50000000020765 100.00000000078388
  endloop
endfacet
facet normal 2.1160633312067655e-13 1.0 1.578796606836505e-12
  outer loop
    vertex 32.50000000000019 403.5000000001974 100.00000000082326
    vertex 12.500000000000044 403.50000000018804 109.98447436084507
    vertex 32.50000000000019 403.50000000018326 112.48437500082332
  endloop
endfacet
facet normal 2.1160633312067655e-13 1.0 1.578796606836505e-12
  outer loop
    vertex 12.500000000000044 403.50000000018804 109.98447436084507
    vertex 32.50000000000019 403.5000000001974 100.00000000082326
    vertex 12.500000000000044 403.50000000020776 100.0000000008232
  endloop
endfacet
facet normal 0.8660254037844424 -9.831544004368814e-13 0.4999999999999938
  outer loop
    vertex 73.99357149404034 385.26298811075196 110.90343934513977
    vertex 80.00000000000021 383.5000000002068 100.50000000078396
    vertex 73.82643755031587 386.0993947158421 111.1929238273416
  endloop
endfacet
facet normal 0.8660254037844424 -9.831544004368814e-13 0.4999999999999938
  outer loop
    vertex 80.00000000000021 383.5000000002068 100.50000000078396
    vertex 73.99357149404034 385.26298811075196 110.90343934513977
    vertex 75.60542716315744 380.5803965331799 108.11162343175198
  endloop
endfacet
facet normal 0.8660254037844424 -9.831544004368814e-13 0.4999999999999938
  outer loop
    vertex 80.00000000000021 383.5000000002068 100.50000000078396
    vertex 75.60542716315744 380.5803965331799 108.11162343175198
    vertex 77.07293878986842 375.1124683236603 105.56981873357967
  endloop
endfacet
facet normal 0.8660254037844424 -9.831544004368814e-13 0.4999999999999938
  outer loop
    vertex 80.00000000000021 383.5000000002068 100.50000000078396
    vertex 77.07293878986842 375.1124683236603 105.56981873357967
    vertex 78.22238699107876 369.6810939972774 103.57891604840398
  endloop
endfacet
facet normal 0.8660254037844424 -9.831544004368814e-13 0.4999999999999938
  outer loop
    vertex 80.00000000000021 383.5000000002068 100.50000000078396
    vertex 78.22238699107876 369.6810939972774 103.57891604840398
    vertex 79.04798750225089 364.2746469787636 102.14893401628804
  endloop
endfacet
facet normal 0.8660254037844424 -9.831544004368814e-13 0.4999999999999938
  outer loop
    vertex 80.00000000000021 383.5000000002068 100.50000000078396
    vertex 79.04798750225089 364.2746469787636 102.14893401628804
    vertex 79.54524751904951 358.8836397528824 101.28765440261013
  endloop
endfacet
facet normal 0.8660254037844424 -9.831544004368814e-13 0.4999999999999938
  outer loop
    vertex 80.00000000000021 383.5000000002068 100.50000000078396
    vertex 79.54524751904951 358.8836397528824 101.28765440261013
    vertex 79.7113248654053 353.5000000002056 101.00000000072487
  endloop
endfacet
facet normal 0.8660254037844424 -9.831544004368814e-13 0.4999999999999938
  outer loop
    vertex 80.00000000000021 383.5000000002068 100.50000000078396
    vertex 79.7113248654053 353.5000000002056 101.00000000072487
    vertex 80.00000000000021 323.5000000002069 100.50000000066562
  endloop
endfacet
facet normal 0.8660254037844424 -9.831544004368814e-13 0.4999999999999938
  outer loop
    vertex 77.07293878986842 375.1124683236603 105.56981873357967
    vertex 75.60542716315744 380.5803965331799 108.11162343175198
    vertex 75.70335578100286 379.9862398394723 107.94200609012753
  endloop
endfacet
facet normal 0.8660254037844424 -9.831544004368814e-13 0.4999999999999938
  outer loop
    vertex 78.22238699107876 369.6810939972774 103.57891604840398
    vertex 77.07293878986842 375.1124683236603 105.56981873357967
    vertex 77.12397239625628 374.7169930527635 105.48142593442178
  endloop
endfacet
facet normal 0.8660254037844424 -9.831544004368814e-13 0.4999999999999938
  outer loop
    vertex 79.04798750225089 364.2746469787636 102.14893401628804
    vertex 78.22238699107876 369.6810939972774 103.57891604840398
    vertex 78.24465178897663 369.44078487914607 103.54035228722434
  endloop
endfacet
facet normal 0.8660254037844424 -9.831544004368814e-13 0.4999999999999938
  outer loop
    vertex 79.54524751904951 358.8836397528824 101.28765440261013
    vertex 79.04798750225089 364.2746469787636 102.14893401628804
    vertex 79.05518079201218 364.14572788052277 102.13647487294767
  endloop
endfacet
facet normal 0.8660254037844424 -9.831544004368814e-13 0.4999999999999938
  outer loop
    vertex 79.7113248654053 353.5000000002056 101.00000000072487
    vertex 79.54524751904951 358.8836397528824 101.28765440261013
    vertex 79.54639865423754 358.8218874220754 101.28566057797812
  endloop
endfacet
facet normal 0.8660254037844424 -9.831544004368814e-13 0.4999999999999938
  outer loop
    vertex 80.00000000000021 323.5000000002069 100.50000000066562
    vertex 79.7113248654053 353.5000000002056 101.00000000072487
    vertex 79.54639865423754 348.17811257833483 101.28566057795717
  endloop
endfacet
facet normal 0.8660254037844424 -9.831544004368814e-13 0.4999999999999938
  outer loop
    vertex 80.00000000000021 323.5000000002069 100.50000000066562
    vertex 79.54639865423754 348.17811257833483 101.28566057795717
    vertex 79.54524751904951 348.11636024752784 101.28765440258891
  endloop
endfacet
facet normal 0.8660254037844424 -9.831544004368814e-13 0.4999999999999938
  outer loop
    vertex 80.00000000000021 323.5000000002069 100.50000000066562
    vertex 79.54524751904951 348.11636024752784 101.28765440258891
    vertex 79.05518079201218 342.8542721198844 102.1364748729057
  endloop
endfacet
facet normal 0.8660254037844424 -9.831544004368814e-13 0.4999999999999938
  outer loop
    vertex 80.00000000000021 323.5000000002069 100.50000000066562
    vertex 79.05518079201218 342.8542721198844 102.1364748729057
    vertex 79.04798750225089 342.72535302164357 102.14893401624545
  endloop
endfacet
facet normal 0.8660254037844424 -9.831544004368814e-13 0.4999999999999938
  outer loop
    vertex 80.00000000000021 323.5000000002069 100.50000000066562
    vertex 79.04798750225089 342.72535302164357 102.14893401624545
    vertex 78.24465178897663 337.55921512125616 103.54035228716148
  endloop
endfacet
facet normal 0.8660254037844424 -9.831544004368814e-13 0.4999999999999938
  outer loop
    vertex 80.00000000000021 323.5000000002069 100.50000000066562
    vertex 78.24465178897663 337.55921512125616 103.54035228716148
    vertex 78.22238699107876 337.3189060031241 103.57891604834018
  endloop
endfacet
facet normal 0.8660254037844424 -9.831544004368814e-13 0.4999999999999938
  outer loop
    vertex 80.00000000000021 323.5000000002069 100.50000000066562
    vertex 78.22238699107876 337.3189060031241 103.57891604834018
    vertex 77.12397239625663 332.2830069476308 105.48142593433815
  endloop
endfacet
facet normal 0.8660254037844424 -9.831544004368814e-13 0.4999999999999938
  outer loop
    vertex 80.00000000000021 323.5000000002069 100.50000000066562
    vertex 77.12397239625663 332.2830069476308 105.48142593433815
    vertex 77.07293878986842 331.8875316767329 105.56981873349476
  endloop
endfacet
facet normal 0.8660254037844424 -9.831544004368814e-13 0.4999999999999938
  outer loop
    vertex 80.00000000000021 323.5000000002069 100.50000000066562
    vertex 77.07293878986842 331.8875316767329 105.56981873349476
    vertex 75.70335578100286 327.0137601609122 107.94200609002301
  endloop
endfacet
facet normal 0.8660254037844424 -9.831544004368814e-13 0.4999999999999938
  outer loop
    vertex 80.00000000000021 323.5000000002069 100.50000000066562
    vertex 75.70335578100286 327.0137601609122 107.94200609002301
    vertex 75.60542716315744 326.4196034672033 108.11162343164543
  endloop
endfacet
facet normal 0.961887748699708 0.27344461761279515 4.569525178052228e-13
  outer loop
    vertex 83.33529127608584 311.767548124477 117.2938597605463
    vertex 80.00000000000021 323.50000000020776 100.00000000066565
    vertex 80.00000000000021 323.5000000002069 100.50000000066562
  endloop
endfacet
facet normal -0.3992101743890291 -0.9168594421525477 -1.8062774704639548e-12
  outer loop
    vertex 55.9758155476418 311.7570122206565 112.6343334979063
    vertex 70.04099351561962 305.6328868735517 118.00087279545237
    vertex 69.33581485110138 305.9399290271188 118.4287801794494
  endloop
endfacet
facet normal -0.3992101743890291 -0.9168594421525477 -1.8062774704639548e-12
  outer loop
    vertex 70.04099351561962 305.6328868735517 118.00087279545237
    vertex 55.9758155476418 311.7570122206565 112.6343334979063
    vertex 55.9758155476418 311.7570122206772 102.1425697176256
  endloop
endfacet
facet normal 0.8211483553005618 0.5313982930090609 0.20816155450572135
  outer loop
    vertex 83.33529127608584 311.767548124477 117.2938597605463
    vertex 80.00000000000021 323.5000000002069 100.50000000066562
    vertex 82.93980959793586 312.2175001282715 117.70529693978573
  endloop
endfacet
facet normal 0.2764336295600084 -0.50480597360728 0.8177746495573744
  outer loop
    vertex 70.04099351561962 305.6328868735517 118.00087279545237
    vertex 82.93980959793586 312.2175001282715 117.70529693978573
    vertex 69.33581485110138 305.9399290271188 118.4287801794494
  endloop
endfacet
facet normal 0.2764336295600084 -0.50480597360728 0.8177746495573744
  outer loop
    vertex 82.93980959793586 312.2175001282715 117.70529693978573
    vertex 70.04099351561962 305.6328868735517 118.00087279545237
    vertex 83.33529127608584 311.767548124477 117.2938597605463
  endloop
endfacet
facet normal -0.17087601422692164 0.4700976951584421 0.8659154374236792
  outer loop
    vertex 55.9758155476418 311.7570122206565 112.6343334979063
    vertex 75.66894427594829 321.67639759005846 111.13534549203888
    vertex 55.39373004755468 313.1394652833652 111.76894593665925
  endloop
endfacet
facet normal -0.17087601422692164 0.4700976951584421 0.8659154374236792
  outer loop
    vertex 75.66894427594829 321.67639759005846 111.13534549203888
    vertex 55.9758155476418 311.7570122206565 112.6343334979063
    vertex 69.33581485110138 305.9399290271188 118.4287801794494
  endloop
endfacet
facet normal -0.17087601422692164 0.4700976951584421 0.8659154374236792
  outer loop
    vertex 75.66894427594829 321.67639759005846 111.13534549203888
    vertex 69.33581485110138 305.9399290271188 118.4287801794494
    vertex 82.93980959793586 312.2175001282715 117.70529693978573
  endloop
endfacet
facet normal -0.9216353751380743 -0.3880570000581119 -7.648931503704249e-13
  outer loop
    vertex 55.9758155476418 311.7570122206772 102.1425697176256
    vertex 55.39373004755468 313.1394652833652 111.76894593665925
    vertex 55.39373004755468 313.1394652833884 100.00000000064539
  endloop
endfacet
facet normal -0.9216353751380743 -0.3880570000581119 -7.648931503704249e-13
  outer loop
    vertex 55.39373004755468 313.1394652833652 111.76894593665925
    vertex 55.9758155476418 311.7570122206772 102.1425697176256
    vertex 55.9758155476418 311.7570122206565 112.6343334979063
  endloop
endfacet
facet normal 0.31789465640851394 -0.7549998089691335 -0.5735139718293575
  outer loop
    vertex 55.9758155476418 311.7570122206772 102.1425697176256
    vertex 83.33529127608584 311.767548124477 117.2938597605463
    vertex 70.04099351561962 305.6328868735517 118.00087279545237
  endloop
endfacet
facet normal 0.31789465640851394 -0.7549998089691335 -0.5735139718293575
  outer loop
    vertex 83.33529127608584 311.767548124477 117.2938597605463
    vertex 55.9758155476418 311.7570122206772 102.1425697176256
    vertex 80.00000000000021 323.50000000020776 100.00000000066565
  endloop
endfacet
facet normal 0.31789465640851394 -0.7549998089691335 -0.5735139718293575
  outer loop
    vertex 80.00000000000021 323.50000000020776 100.00000000066565
    vertex 55.9758155476418 311.7570122206772 102.1425697176256
    vertex 55.39373004755468 313.1394652833884 100.00000000064539
  endloop
endfacet
facet normal 0.597682843495831 0.7134545903657982 0.3657290883655677
  outer loop
    vertex 80.00000000000021 323.5000000002069 100.50000000066562
    vertex 75.66894427594829 321.67639759005846 111.13534549203888
    vertex 82.93980959793586 312.2175001282715 117.70529693978573
  endloop
endfacet
facet normal -0.1163903009773993 0.3455364527129135 0.931159415827906
  outer loop
    vertex 32.50000000000019 303.50000000018304 112.48437500062626
    vertex 75.55257750928709 322.1946064595802 110.92850226599124
    vertex 11.860816644618545 303.50000000018827 109.90457961668916
  endloop
endfacet
facet normal -0.1163903009773993 0.3455364527129135 0.931159415827906
  outer loop
    vertex 75.55257750928709 322.1946064595802 110.92850226599124
    vertex 32.50000000000019 303.50000000018304 112.48437500062626
    vertex 55.39373004755468 313.1394652833652 111.76894593665925
  endloop
endfacet
facet normal -0.1163903009773993 0.3455364527129135 0.931159415827906
  outer loop
    vertex 75.55257750928709 322.1946064595802 110.92850226599124
    vertex 55.39373004755468 313.1394652833652 111.76894593665925
    vertex 75.66894427594829 321.67639759005846 111.13534549203888
  endloop
endfacet
facet normal 0.8446649620457498 0.35099433109922845 0.40415848553316003
  outer loop
    vertex 75.66894427594829 321.67639759005846 111.13534549203888
    vertex 80.00000000000021 323.5000000002069 100.50000000066562
    vertex 75.55257750928709 322.1946064595802 110.92850226599124
  endloop
endfacet
facet normal 0.8760898075249816 0.2598272798313253 0.40614829041409867
  outer loop
    vertex 75.55257750928709 322.1946064595802 110.92850226599124
    vertex 80.00000000000021 323.5000000002069 100.50000000066562
    vertex 75.60542716315744 326.4196034672033 108.11162343164543
  endloop
endfacet
facet normal -0.17393814534187665 0.5477787212848901 0.8183422230964984
  outer loop
    vertex 11.860816644618545 303.50000000018827 109.90457961668916
    vertex 75.60542716315744 326.4196034672033 108.11162343164543
    vertex 9.969675586985465 303.50000000018895 109.50261872690344
  endloop
endfacet
facet normal -0.17393814534187665 0.5477787212848901 0.8183422230964984
  outer loop
    vertex 75.60542716315744 326.4196034672033 108.11162343164543
    vertex 11.860816644618545 303.50000000018827 109.90457961668916
    vertex 75.55257750928709 322.1946064595802 110.92850226599124
  endloop
endfacet
facet normal -9.698450186477276e-16 1.9685080159755368e-12 -1.0
  outer loop
    vertex 12.500000000000044 403.50000000020776 100.0000000008232
    vertex 0.0 303.5000000002077 100.00000000062641
    vertex 0.0 353.5000000002077 100.000000000725
  endloop
endfacet
facet normal -9.698450186477276e-16 1.9685080159755368e-12 -1.0
  outer loop
    vertex 0.0 303.5000000002077 100.00000000062641
    vertex 12.500000000000044 403.50000000020776 100.0000000008232
    vertex 32.49999999999983 303.5000000002077 100.00000000062641
  endloop
endfacet
facet normal -9.698450186477276e-16 1.9685080159755368e-12 -1.0
  outer loop
    vertex 32.49999999999983 303.5000000002077 100.00000000062641
    vertex 12.500000000000044 403.50000000020776 100.0000000008232
    vertex 32.50000000000019 403.5000000001974 100.00000000082326
  endloop
endfacet
facet normal -9.698450186477276e-16 1.9685080159755368e-12 -1.0
  outer loop
    vertex 32.49999999999983 303.5000000002077 100.00000000062641
    vertex 32.50000000000019 403.5000000001974 100.00000000082326
    vertex 55.39373004755468 313.1394652833884 100.00000000064539
  endloop
endfacet
facet normal -9.698450186477276e-16 1.9685080159755368e-12 -1.0
  outer loop
    vertex 55.39373004755468 313.1394652833884 100.00000000064539
    vertex 32.50000000000019 403.5000000001974 100.00000000082326
    vertex 80.00000000000021 383.50000000020765 100.00000000078388
  endloop
endfacet
facet normal -9.698450186477276e-16 1.9685080159755368e-12 -1.0
  outer loop
    vertex 55.39373004755468 313.1394652833884 100.00000000064539
    vertex 80.00000000000021 383.50000000020765 100.00000000078388
    vertex 80.00000000000021 323.50000000020776 100.00000000066565
  endloop
endfacet
endsolid ProtoGlove baseplate
