solid ProtoGlove baseplate
facet normal 0.5301177293447844 0.7980177788866851 0.2866056831521167
  outer loop
    vertex 359.65126571618754 631.0000000002044 100.50000000127157
    vertex 357.2933675969356 630.1068086768405 107.34824575623874
    vertex 363.1578198451688 624.7995955207105 111.27838535731215
  endloop
endfacet
facet normal -0.9064072171270642 -0.33344154356058586 0.2593119622537787
  outer loop
    vertex 334.95047495803107 636.5000000002053 100.50000000128222
    vertex 335.3536288316679 637.2246575125823 102.84101232821618
    vertex 335.11588652615643 637.7958539659782 102.7444849092021
  endloop
endfacet
facet normal -0.9064072171270642 -0.33344154356058586 0.2593119622537787
  outer loop
    vertex 335.3536288316679 637.2246575125823 102.84101232821618
    vertex 334.95047495803107 636.5000000002053 100.50000000128222
    vertex 336.3383996954165 635.122076850189 103.57956551690825
  endloop
endfacet
facet normal -0.9064072171270642 -0.33344154356058586 0.2593119622537787
  outer loop
    vertex 336.3383996954165 635.122076850189 103.57956551690825
    vertex 334.95047495803107 636.5000000002053 100.50000000128222
    vertex 339.2929108236096 624.695786384685 100.50000000125921
  endloop
endfacet
facet normal -0.9064072171270642 -0.33344154356058586 0.2593119622537787
  outer loop
    vertex 336.3383996954165 635.122076850189 103.57956551690825
    vertex 339.2929108236096 624.695786384685 100.50000000125921
    vertex 337.4917169337852 632.4865552883812 104.22196816347353
  endloop
endfacet
facet normal -0.9064072171270642 -0.33344154356058586 0.2593119622537787
  outer loop
    vertex 337.4917169337852 632.4865552883812 104.22196816347353
    vertex 339.2929108236096 624.695786384685 100.50000000125921
    vertex 338.5401961590537 630.4063327530926 105.21195922074627
  endloop
endfacet
facet normal -0.9064072171270642 -0.33344154356058586 0.2593119622537787
  outer loop
    vertex 338.5401961590537 630.4063327530926 105.21195922074627
    vertex 339.2929108236096 624.695786384685 100.50000000125921
    vertex 339.2929108236096 628.7723818202215 105.74197288474424
  endloop
endfacet
facet normal 0.2770069500194196 -0.5063993682660938 0.8165946543179426
  outer loop
    vertex 350.2537700602495 618.5985754266418 111.81025121423507
    vertex 363.1578198451688 624.7995955207105 111.27838535731215
    vertex 349.41783921130656 618.8620131534296 112.25718452611245
  endloop
endfacet
facet normal 0.2770069500194196 -0.5063993682660938 0.8165946543179426
  outer loop
    vertex 363.1578198451688 624.7995955207105 111.27838535731215
    vertex 350.2537700602495 618.5985754266418 111.81025121423507
    vertex 363.55519182632054 624.3466393753891 110.86269379654813
  endloop
endfacet
facet normal -0.14568132138128487 0.4797478965968747 0.8652276627058784
  outer loop
    vertex 339.8242764400434 621.8853569760297 108.96551244532539
    vertex 357.2933675969356 630.1068086768405 107.34824575623874
    vertex 339.2929108236096 623.2880866654841 108.09826478844651
  endloop
endfacet
facet normal -0.14568132138128487 0.4797478965968747 0.8652276627058784
  outer loop
    vertex 357.2933675969356 630.1068086768405 107.34824575623874
    vertex 339.8242764400434 621.8853569760297 108.96551244532539
    vertex 349.41783921130656 618.8620131534296 112.25718452611245
  endloop
endfacet
facet normal -0.14568132138128487 0.4797478965968747 0.8652276627058784
  outer loop
    vertex 357.2933675969356 630.1068086768405 107.34824575623874
    vertex 349.41783921130656 618.8620131534296 112.25718452611245
    vertex 363.1578198451688 624.7995955207105 111.27838535731215
  endloop
endfacet
facet normal -0.30057061718373446 -0.9537595630376604 -1.8788729866476883e-12
  outer loop
    vertex 339.8242764400434 621.8853569760297 108.96551244532539
    vertex 350.2537700602495 618.5985754266418 111.81025121423507
    vertex 349.41783921130656 618.8620131534296 112.25718452611245
  endloop
endfacet
facet normal -0.30057061718373446 -0.9537595630376604 -1.8788729866476883e-12
  outer loop
    vertex 350.2537700602495 618.5985754266418 111.81025121423507
    vertex 339.8242764400434 621.8853569760297 108.96551244532539
    vertex 339.8242764400434 621.8853569760432 102.14258474246606
  endloop
endfacet
facet normal 0.29019564933028075 -0.7660752605650037 -0.5735112730017068
  outer loop
    vertex 339.8242764400434 621.8853569760432 102.14258474246606
    vertex 363.55519182632054 624.3466393753891 110.86269379654813
    vertex 350.2537700602495 618.5985754266418 111.81025121423507
  endloop
endfacet
facet normal 0.29019564933028075 -0.7660752605650037 -0.5735112730017068
  outer loop
    vertex 363.55519182632054 624.3466393753891 110.86269379654813
    vertex 339.8242764400434 621.8853569760432 102.14258474246606
    vertex 359.65126571618754 631.0000000002054 100.0000000012716
  endloop
endfacet
facet normal 0.29019564933028075 -0.7660752605650037 -0.5735112730017068
  outer loop
    vertex 359.65126571618754 631.0000000002054 100.0000000012716
    vertex 339.8242764400434 621.8853569760432 102.14258474246606
    vertex 339.2929108236096 623.2880866655001 100.00000000125641
  endloop
endfacet
facet normal -1.0 -0.0 0.0
  outer loop
    vertex 339.2929108236096 623.2880866655001 100.00000000125641
    vertex 339.2929108236096 624.695786384685 100.50000000125921
    vertex 339.2929108236096 624.695786384686 100.00000000125915
  endloop
endfacet
facet normal -1.0 -0.0 0.0
  outer loop
    vertex 339.2929108236096 624.695786384685 100.50000000125921
    vertex 339.2929108236096 628.0372710725131 105.95866162586005
    vertex 339.2929108236096 628.7723818202215 105.74197288474424
  endloop
endfacet
facet normal -1.0 -0.0 0.0
  outer loop
    vertex 339.2929108236096 628.0372710725131 105.95866162586005
    vertex 339.2929108236096 624.695786384685 100.50000000125921
    vertex 339.2929108236096 625.7495108175848 107.19879183102732
  endloop
endfacet
facet normal -1.0 -0.0 0.0
  outer loop
    vertex 339.2929108236096 625.7495108175848 107.19879183102732
    vertex 339.2929108236096 624.695786384685 100.50000000125921
    vertex 339.2929108236096 623.2880866654841 108.09826478844651
  endloop
endfacet
facet normal -1.0 -0.0 0.0
  outer loop
    vertex 339.2929108236096 623.2880866654841 108.09826478844651
    vertex 339.2929108236096 624.695786384685 100.50000000125921
    vertex 339.2929108236096 623.2880866655001 100.00000000125641
  endloop
endfacet
facet normal -0.9351531263017805 -0.35424374428916366 -6.978041015169158e-13
  outer loop
    vertex 339.8242764400434 621.8853569760432 102.14258474246606
    vertex 339.2929108236096 623.2880866654841 108.09826478844651
    vertex 339.2929108236096 623.2880866655001 100.00000000125641
  endloop
endfacet
facet normal -0.9351531263017805 -0.35424374428916366 -6.978041015169158e-13
  outer loop
    vertex 339.2929108236096 623.2880866654841 108.09826478844651
    vertex 339.8242764400434 621.8853569760432 102.14258474246606
    vertex 339.8242764400434 621.8853569760297 108.96551244532539
  endloop
endfacet
facet normal 0.8624897568524936 0.5060745195369221 1.004356257140246e-12
  outer loop
    vertex 363.55519182632054 624.3466393753891 110.86269379654813
    vertex 359.65126571618754 631.0000000002054 100.0000000012716
    vertex 359.65126571618754 631.0000000002044 100.50000000127157
  endloop
endfacet
facet normal 0.7890879739839605 0.6072579368102768 0.0926173174671693
  outer loop
    vertex 363.55519182632054 624.3466393753891 110.86269379654813
    vertex 359.65126571618754 631.0000000002044 100.50000000127157
    vertex 363.1578198451688 624.7995955207105 111.27838535731215
  endloop
endfacet
facet normal 0.8140958331918985 0.469667556442517 0.34155579457081914
  outer loop
    vertex 357.2933675969356 630.1068086768405 107.34824575623874
    vertex 359.65126571618754 631.0000000002044 100.50000000127157
    vertex 357.1883435433007 630.3648039691474 107.24380491632516
  endloop
endfacet
facet normal 0.8842317694854737 0.3071288150534165 0.35186086567913805
  outer loop
    vertex 357.1883435433007 630.3648039691474 107.24380491632516
    vertex 359.65126571618754 631.0000000002044 100.50000000127157
    vertex 356.79032607403263 633.5597080547578 105.45529281887671
  endloop
endfacet
facet normal 1.5500262452562707e-16 0.8660254037834559 0.500000000001702
  outer loop
    vertex 334.2528281838105 635.500000000205 100.50000000128041
    vertex 331.8990360135521 633.9592929971534 103.16858281013013
    vertex 334.07105819014714 633.9113281927202 103.25166028838285
  endloop
endfacet
facet normal 1.5500262452562707e-16 0.8660254037834559 0.500000000001702
  outer loop
    vertex 331.8990360135521 633.9592929971534 103.16858281013013
    vertex 334.2528281838105 635.500000000205 100.50000000128041
    vertex 322.2291216560069 634.2530629891296 102.6597582582913
  endloop
endfacet
facet normal 1.5500262452562707e-16 0.8660254037834559 0.500000000001702
  outer loop
    vertex 322.2291216560069 634.2530629891296 102.6597582582913
    vertex 334.2528281838105 635.500000000205 100.50000000128041
    vertex 301.4082614855397 634.4855980198014 102.25699577062949
  endloop
endfacet
facet normal 1.5500262452562707e-16 0.8660254037834559 0.500000000001702
  outer loop
    vertex 301.4082614855397 634.4855980198014 102.25699577062949
    vertex 334.2528281838105 635.500000000205 100.50000000128041
    vertex 299.65126571618856 635.500000000205 100.50000000128041
  endloop
endfacet
facet normal -0.023805512561754786 0.22381200167099388 0.9743415650990649
  outer loop
    vertex 301.14927731908256 638.1853619843375 101.99801160417944
    vertex 358.95097189089523 645.5743835517562 101.71294448693516
    vertex 301.12736193407085 638.2784372591374 101.97609621916791
  endloop
endfacet
facet normal -0.023805512561754786 0.22381200167099388 0.9743415650990649
  outer loop
    vertex 358.95097189089523 645.5743835517562 101.71294448693516
    vertex 301.14927731908256 638.1853619843375 101.99801160417944
    vertex 358.4507514937628 641.7493675200299 102.5793516297433
  endloop
endfacet
facet normal -0.023805512561753808 -0.22381200167482987 0.9743415650981837
  outer loop
    vertex 358.95097189089523 661.4256164486477 101.71294448696652
    vertex 302.6957289028872 668.7184526720623 102.01370080274977
    vertex 302.6577223491276 668.5284681315568 101.96913164205051
  endloop
endfacet
facet normal -0.023805512561753808 -0.22381200167482987 0.9743415650981837
  outer loop
    vertex 302.6957289028872 668.7184526720623 102.01370080274977
    vertex 358.95097189089523 661.4256164486477 101.71294448696652
    vertex 358.4507514937628 665.2506324803712 102.57935162978977
  endloop
endfacet
facet normal -1.0 -0.0 0.0
  outer loop
    vertex 299.65126571618856 653.5000000002054 100.00000000131581
    vertex 299.65126571618856 653.0000000002051 100.50000000131476
    vertex 299.65126571618856 653.5000000002057 100.50000000131561
  endloop
endfacet
facet normal -1.0 -0.0 0.0
  outer loop
    vertex 299.65126571618856 653.0000000002051 100.50000000131476
    vertex 299.65126571618856 653.5000000002054 100.00000000131581
    vertex 299.65126571618856 618.5000000002055 100.00000000124695
  endloop
endfacet
facet normal -1.0 -0.0 0.0
  outer loop
    vertex 299.65126571618856 653.0000000002051 100.50000000131476
    vertex 299.65126571618856 618.5000000002055 100.00000000124695
    vertex 299.65126571618856 637.0000000002053 100.50000000128325
  endloop
endfacet
facet normal -1.0 -0.0 0.0
  outer loop
    vertex 299.65126571618856 637.0000000002053 100.50000000128325
    vertex 299.65126571618856 618.5000000002055 100.00000000124695
    vertex 299.65126571618856 636.5000000002053 100.50000000128222
  endloop
endfacet
facet normal -1.0 -0.0 0.0
  outer loop
    vertex 299.65126571618856 636.5000000002053 100.50000000128222
    vertex 299.65126571618856 618.5000000002055 100.00000000124695
    vertex 299.65126571618856 635.500000000205 100.50000000128041
  endloop
endfacet
facet normal -1.0 -0.0 0.0
  outer loop
    vertex 299.65126571618856 635.500000000205 100.50000000128041
    vertex 299.65126571618856 618.5000000002055 100.00000000124695
    vertex 299.65126571618856 618.5000000002057 100.50000000124693
  endloop
endfacet
facet normal 2.2376815896124202e-17 -1.969831968303163e-12 1.0
  outer loop
    vertex 334.99801684713026 670.500000000205 100.50000000134919
    vertex 303.25217958977197 671.5000000002052 100.50000000135108
    vertex 303.0521288190171 670.500000000205 100.50000000134919
  endloop
endfacet
facet normal 2.2376815896124202e-17 -1.969831968303163e-12 1.0
  outer loop
    vertex 303.25217958977197 671.5000000002052 100.50000000135108
    vertex 334.99801684713026 670.500000000205 100.50000000134919
    vertex 334.3045145852472 671.5000000002052 100.50000000135108
  endloop
endfacet
facet normal -0.03791974880024471 -0.22095000825177605 0.9745476830327322
  outer loop
    vertex 357.7479512247006 669.1610284249355 103.7966374033861
    vertex 337.5581745079836 674.4966681847341 104.22075045061942
    vertex 336.3923236392819 671.8710801447185 103.58011225296434
  endloop
endfacet
facet normal -0.03791974880024471 -0.22095000825177605 0.9745476830327322
  outer loop
    vertex 337.5581745079836 674.4966681847341 104.22075045061942
    vertex 357.7479512247006 669.1610284249355 103.7966374033861
    vertex 357.7163403172819 669.4079477088882 103.85138910110938
  endloop
endfacet
facet normal -0.9385102606946758 -0.3452513440535918 -4.793861811051452e-13
  outer loop
    vertex 339.2929108236096 624.695786384686 100.00000000125915
    vertex 334.95047495803107 636.5000000002053 100.50000000128222
    vertex 334.95047495803107 636.5000000002058 100.00000000128223
  endloop
endfacet
facet normal -0.9385102606946758 -0.3452513440535918 -4.793861811051452e-13
  outer loop
    vertex 334.95047495803107 636.5000000002053 100.50000000128222
    vertex 339.2929108236096 624.695786384686 100.00000000125915
    vertex 339.2929108236096 624.695786384685 100.50000000125921
  endloop
endfacet
facet normal -0.09050939412788545 -0.3418200376165536 0.9353967668633568
  outer loop
    vertex 355.7598027055863 677.0036215869794 107.24021165149995
    vertex 341.7400376051911 682.7849214557308 107.99630117266513
    vertex 340.7938629354724 680.8633885124083 107.20256723497683
  endloop
endfacet
facet normal -0.09050939412788545 -0.3418200376165536 0.9353967668633568
  outer loop
    vertex 341.7400376051911 682.7849214557308 107.99630117266513
    vertex 355.7598027055863 677.0036215869794 107.24021165149995
    vertex 355.658090533891 677.5126478098335 107.41638230062563
  endloop
endfacet
facet normal -7.735263065401912e-17 -0.045142462114536416 0.9989805594275785
  outer loop
    vertex 359.341463148874 654.3098025675183 101.03659378822222
    vertex 359.26060509997825 657.4090459280953 101.17664403711653
    vertex 312.0000068052891 654.3098025675183 101.03659378822222
  endloop
endfacet
facet normal 0.9385102606946583 0.34525134405363983 6.80372491256204e-13
  outer loop
    vertex 334.2528281838105 635.500000000205 100.50000000128041
    vertex 338.81222953057215 623.1060006132084 100.00000000125587
    vertex 334.2528281838105 635.5000000002054 100.00000000128044
  endloop
endfacet
facet normal 0.9385102606946583 0.34525134405363983 6.80372491256204e-13
  outer loop
    vertex 338.81222953057215 623.1060006132084 100.00000000125587
    vertex 334.2528281838105 635.500000000205 100.50000000128041
    vertex 338.81222953057215 623.1060006132079 100.50000000125594
  endloop
endfacet
facet normal -0.0073941192453935815 0.13505572143322836 0.9908104153210823
  outer loop
    vertex 300.4030297898979 645.778963392586 101.2517640750095
    vertex 359.25967992354384 649.5406335634199 101.17824648969078
    vertex 300.3963722643822 645.8274405619624 101.2451065494944
  endloop
endfacet
facet normal -0.0073941192453935815 0.13505572143322836 0.9908104153210823
  outer loop
    vertex 359.25967992354384 649.5406335634199 101.17824648969078
    vertex 300.4030297898979 645.778963392586 101.2517640750095
    vertex 358.95591522587347 645.6641077381418 101.70438237959397
  endloop
endfacet
facet normal -0.037919748800245776 0.22095000824793712 0.9745476830336024
  outer loop
    vertex 337.4917169337852 632.4865552883812 104.22196816347353
    vertex 357.7479512247003 637.8389715754619 103.79663740332447
    vertex 336.3383996954165 635.122076850189 103.57956551690825
  endloop
endfacet
facet normal -0.037919748800245776 0.22095000824793712 0.9745476830336024
  outer loop
    vertex 357.7479512247003 637.8389715754619 103.79663740332447
    vertex 337.4917169337852 632.4865552883812 104.22196816347353
    vertex 357.7163403172819 637.5920522915083 103.85138910104679
  endloop
endfacet
facet normal 0.9365669630492183 -0.35048869272027094 -6.909168909811004e-13
  outer loop
    vertex 338.92648722183606 683.8507176280672 100.50000000137564
    vertex 334.3045145852472 671.5000000002057 100.00000000135128
    vertex 338.92648722183606 683.8507176280676 100.00000000137548
  endloop
endfacet
facet normal 0.9365669630492183 -0.35048869272027094 -6.909168909811004e-13
  outer loop
    vertex 334.3045145852472 671.5000000002057 100.00000000135128
    vertex 338.92648722183606 683.8507176280672 100.50000000137564
    vertex 334.3045145852472 671.5000000002052 100.50000000135108
  endloop
endfacet
facet normal 0.8217325272618979 0.5698733663190219 1.0237182181220013e-12
  outer loop
    vertex 334.3045145852472 671.5000000002052 100.50000000135108
    vertex 334.99801684713026 670.5000000002054 100.00000000134922
    vertex 334.3045145852472 671.5000000002057 100.00000000135128
  endloop
endfacet
facet normal 0.8217325272618979 0.5698733663190219 1.0237182181220013e-12
  outer loop
    vertex 334.99801684713026 670.5000000002054 100.00000000134922
    vertex 334.3045145852472 671.5000000002052 100.50000000135108
    vertex 334.99801684713026 670.500000000205 100.50000000134919
  endloop
endfacet
facet normal 1.0 -2.41551568088304e-14 -6.400582148548492e-13
  outer loop
    vertex 359.6512657161887 676.0000000002046 100.50000000136019
    vertex 359.65126571618754 631.0000000002054 100.0000000012716
    vertex 359.6512657161887 676.0000000002057 100.00000000136022
  endloop
endfacet
facet normal 1.0 -2.41551568088304e-14 -6.400582148548492e-13
  outer loop
    vertex 359.65126571618754 631.0000000002054 100.0000000012716
    vertex 359.6512657161887 676.0000000002046 100.50000000136019
    vertex 359.6512657161887 654.5000000002051 100.50000000131767
  endloop
endfacet
facet normal 1.0 -2.41551568088304e-14 -6.400582148548492e-13
  outer loop
    vertex 359.65126571618754 631.0000000002054 100.0000000012716
    vertex 359.6512657161887 654.5000000002051 100.50000000131767
    vertex 359.6512657161887 654.0000000002058 100.50000000131665
  endloop
endfacet
facet normal 1.0 -2.41551568088304e-14 -6.400582148548492e-13
  outer loop
    vertex 359.65126571618754 631.0000000002054 100.0000000012716
    vertex 359.6512657161887 654.0000000002058 100.50000000131665
    vertex 359.6512657161887 653.0000000002051 100.50000000131476
  endloop
endfacet
facet normal 1.0 -2.41551568088304e-14 -6.400582148548492e-13
  outer loop
    vertex 359.65126571618754 631.0000000002054 100.0000000012716
    vertex 359.6512657161887 653.0000000002051 100.50000000131476
    vertex 359.65126571618754 631.0000000002044 100.50000000127157
  endloop
endfacet
facet normal -1.0084601149337037e-17 -1.9698339706890503e-12 1.0
  outer loop
    vertex 334.2528281838105 635.500000000205 100.50000000128041
    vertex 299.65126571618856 636.5000000002053 100.50000000128222
    vertex 299.65126571618856 635.500000000205 100.50000000128041
  endloop
endfacet
facet normal -1.0084601149337037e-17 -1.9698339706890503e-12 1.0
  outer loop
    vertex 299.65126571618856 636.5000000002053 100.50000000128222
    vertex 334.2528281838105 635.500000000205 100.50000000128041
    vertex 334.95047495803107 636.5000000002053 100.50000000128222
  endloop
endfacet
facet normal -0.9365669630492113 0.35048869272028965 6.903928012034849e-13
  outer loop
    vertex 334.99801684713026 670.5000000002054 100.00000000134922
    vertex 339.8616478758757 683.4964710322089 100.50000000137487
    vertex 339.8616478758757 683.496471032209 100.0000000013748
  endloop
endfacet
facet normal -0.9365669630492113 0.35048869272028965 6.903928012034849e-13
  outer loop
    vertex 339.8616478758757 683.4964710322089 100.50000000137487
    vertex 334.99801684713026 670.5000000002054 100.00000000134922
    vertex 334.99801684713026 670.500000000205 100.50000000134919
  endloop
endfacet
facet normal -0.007507460285898659 0.09540262679067528 0.9954104564658213
  outer loop
    vertex 301.12736193407085 638.2784372591374 101.97609621916791
    vertex 358.95591522587347 645.6641077381418 101.70438237959397
    vertex 300.4030297898979 645.778963392586 101.2517640750095
  endloop
endfacet
facet normal -0.007507460285898659 0.09540262679067528 0.9954104564658213
  outer loop
    vertex 358.95591522587347 645.6641077381418 101.70438237959397
    vertex 301.12736193407085 638.2784372591374 101.97609621916791
    vertex 358.95097189089523 645.5743835517562 101.71294448693516
  endloop
endfacet
facet normal -3.880637497093153e-17 0.866025403783444 0.5000000000017228
  outer loop
    vertex 359.6512657161887 653.0000000002051 100.50000000131476
    vertex 312.0000068052887 652.690197432889 101.03659378821877
    vertex 359.3414631488737 652.6901974328891 101.03659378821885
  endloop
endfacet
facet normal -3.880637497093153e-17 0.866025403783444 0.5000000000017228
  outer loop
    vertex 312.0000068052887 652.690197432889 101.03659378821877
    vertex 359.6512657161887 653.0000000002051 100.50000000131476
    vertex 300.1773329693956 652.6962749299524 101.0260672545213
  endloop
endfacet
facet normal -3.880637497093153e-17 0.866025403783444 0.5000000000017228
  outer loop
    vertex 300.1773329693956 652.6962749299524 101.0260672545213
    vertex 359.6512657161887 653.0000000002051 100.50000000131476
    vertex 299.65126571618856 653.0000000002051 100.50000000131476
  endloop
endfacet
facet normal -0.12414942994569206 -0.47287158687638964 0.8723413215990431
  outer loop
    vertex 356.7903260740337 673.440291945632 105.45529281895519
    vertex 340.7938629354724 680.8633885124083 107.20256723497683
    vertex 339.6780478207381 678.8411741287383 105.94758193516006
  endloop
endfacet
facet normal -0.12414942994569206 -0.47287158687638964 0.8723413215990431
  outer loop
    vertex 340.7938629354724 680.8633885124083 107.20256723497683
    vertex 356.7903260740337 673.440291945632 105.45529281895519
    vertex 355.7598027055863 677.0036215869794 107.24021165149995
  endloop
endfacet
facet normal 0.8201375933504683 -0.5721663464179818 -1.0284029558075705e-12
  outer loop
    vertex 334.95047495803107 636.5000000002053 100.50000000128222
    vertex 334.601651570921 636.0000000002059 100.00000000128148
    vertex 334.95047495803107 636.5000000002058 100.00000000128223
  endloop
endfacet
facet normal 0.8201375933504683 -0.5721663464179818 -1.0284029558075705e-12
  outer loop
    vertex 334.601651570921 636.0000000002059 100.00000000128148
    vertex 334.95047495803107 636.5000000002053 100.50000000128222
    vertex 334.2528281838105 635.500000000205 100.50000000128041
  endloop
endfacet
facet normal 0.8201375933504683 -0.5721663464179818 -1.0284029558075705e-12
  outer loop
    vertex 334.601651570921 636.0000000002059 100.00000000128148
    vertex 334.2528281838105 635.500000000205 100.50000000128041
    vertex 334.2528281838105 635.5000000002054 100.00000000128044
  endloop
endfacet
facet normal -0.049026938930062165 -0.3104927569334434 0.9493105957225053
  outer loop
    vertex 358.43651851741964 665.4059070168886 102.60400386795922
    vertex 336.3923236392819 671.8710801447185 103.58011225296434
    vertex 335.3936359199949 669.7677694155896 102.84060154702487
  endloop
endfacet
facet normal -0.049026938930062165 -0.3104927569334434 0.9493105957225053
  outer loop
    vertex 336.3923236392819 671.8710801447185 103.58011225296434
    vertex 358.43651851741964 665.4059070168886 102.60400386795922
    vertex 357.7479512247006 669.1610284249355 103.7966374033861
  endloop
endfacet
facet normal 0.0 -1.9698374875698473e-12 1.0
  outer loop
    vertex 359.6512657161887 653.0000000002051 100.50000000131476
    vertex 299.65126571618856 653.5000000002057 100.50000000131561
    vertex 299.65126571618856 653.0000000002051 100.50000000131476
  endloop
endfacet
facet normal 0.0 -1.9698374875698473e-12 1.0
  outer loop
    vertex 299.65126571618856 653.5000000002057 100.50000000131561
    vertex 359.6512657161887 653.0000000002051 100.50000000131476
    vertex 299.75129110156615 654.0000000002058 100.50000000131665
  endloop
endfacet
facet normal 0.0 -1.9698374875698473e-12 1.0
  outer loop
    vertex 299.75129110156615 654.0000000002058 100.50000000131665
    vertex 359.6512657161887 653.0000000002051 100.50000000131476
    vertex 359.6512657161887 654.0000000002058 100.50000000131665
  endloop
endfacet
facet normal -0.06152646671392601 -0.2822066942340831 0.9573786479879164
  outer loop
    vertex 356.8501799528142 673.0755450950325 105.3516228598769
    vertex 339.6780478207381 678.8411741287383 105.94758193516006
    vertex 338.6208845427684 676.5781635967552 105.21257469015849
  endloop
endfacet
facet normal -0.06152646671392601 -0.2822066942340831 0.9573786479879164
  outer loop
    vertex 339.6780478207381 678.8411741287383 105.94758193516006
    vertex 356.8501799528142 673.0755450950325 105.3516228598769
    vertex 356.7903260740337 673.440291945632 105.45529281895519
  endloop
endfacet
facet normal -0.007394119245393388 -0.1350557214371344 0.9908104153205498
  outer loop
    vertex 359.25967992354384 657.459366436987 101.17824648970641
    vertex 301.1961762822222 661.2225924211456 101.25789515838407
    vertex 301.17632451667686 661.1233587842524 101.24422063848233
  endloop
endfacet
facet normal -0.007394119245393388 -0.1350557214371344 0.9908104153205498
  outer loop
    vertex 301.1961762822222 661.2225924211456 101.25789515838407
    vertex 359.25967992354384 657.459366436987 101.17824648970641
    vertex 358.95591522587347 661.3358922622627 101.70438237962496
  endloop
endfacet
facet normal -4.0443253590677976e-17 0.045142462110602036 0.9989805594277563
  outer loop
    vertex 359.3414631488737 652.6901974328891 101.03659378821885
    vertex 312.0000068052887 652.690197432889 101.03659378821877
    vertex 359.26060509997785 649.5909540723115 101.17664403710134
  endloop
endfacet
facet normal -0.08268073383820963 -0.3939701868729632 0.915396847333034
  outer loop
    vertex 357.7163403172819 669.4079477088882 103.85138910110938
    vertex 338.6208845427684 676.5781635967552 105.21257469015849
    vertex 337.5581745079836 674.4966681847341 104.22075045061942
  endloop
endfacet
facet normal -0.08268073383820963 -0.3939701868729632 0.915396847333034
  outer loop
    vertex 338.6208845427684 676.5781635967552 105.21257469015849
    vertex 357.7163403172819 669.4079477088882 103.85138910110938
    vertex 356.8501799528142 673.0755450950325 105.3516228598769
  endloop
endfacet
facet normal -0.00750746028589853 -0.0954026267945996 0.9954104564654453
  outer loop
    vertex 358.95591522587347 661.3358922622627 101.70438237962496
    vertex 302.6577223491276 668.5284681315568 101.96913164205051
    vertex 301.1961762822222 661.2225924211456 101.25789515838407
  endloop
endfacet
facet normal -0.00750746028589853 -0.0954026267945996 0.9954104564654453
  outer loop
    vertex 302.6577223491276 668.5284681315568 101.96913164205051
    vertex 358.95591522587347 661.3358922622627 101.70438237962496
    vertex 358.95097189089523 661.4256164486477 101.71294448696652
  endloop
endfacet
facet normal -0.019876183601146166 0.15854747400482364 0.9871512730134846
  outer loop
    vertex 301.2721373683725 637.4358106849115 102.12087165346828
    vertex 358.4507514937628 641.7493675200299 102.5793516297433
    vertex 301.14927731908256 638.1853619843375 101.99801160417944
  endloop
endfacet
facet normal -0.019876183601146166 0.15854747400482364 0.9871512730134846
  outer loop
    vertex 358.4507514937628 641.7493675200299 102.5793516297433
    vertex 301.2721373683725 637.4358106849115 102.12087165346828
    vertex 335.11588652615643 637.7958539659782 102.7444849092021
  endloop
endfacet
facet normal -0.019876183601146166 0.15854747400482364 0.9871512730134846
  outer loop
    vertex 358.4507514937628 641.7493675200299 102.5793516297433
    vertex 335.11588652615643 637.7958539659782 102.7444849092021
    vertex 335.3536288316679 637.2246575125823 102.84101232821618
  endloop
endfacet
facet normal -0.019876183601146166 0.15854747400482364 0.9871512730134846
  outer loop
    vertex 358.4507514937628 641.7493675200299 102.5793516297433
    vertex 335.3536288316679 637.2246575125823 102.84101232821618
    vertex 358.4365185174193 641.5940929835128 102.60400386791243
  endloop
endfacet
facet normal 0.9046542176583539 -0.33854608012131915 0.25881904510186526
  outer loop
    vertex 337.34109325860624 682.9106081365464 104.8117497484154
    vertex 338.92648722183606 683.8507176280672 100.50000000137564
    vertex 337.78705249750266 684.2823449324729 105.04727031771365
  endloop
endfacet
facet normal 0.9046542176583539 -0.33854608012131915 0.25881904510186526
  outer loop
    vertex 338.92648722183606 683.8507176280672 100.50000000137564
    vertex 337.34109325860624 682.9106081365464 104.8117497484154
    vertex 334.3045145852472 671.5000000002052 100.50000000135108
  endloop
endfacet
facet normal 0.9046542176583539 -0.33854608012131915 0.25881904510186526
  outer loop
    vertex 334.3045145852472 671.5000000002052 100.50000000135108
    vertex 337.34109325860624 682.9106081365464 104.8117497484154
    vertex 336.7319928342603 680.7295614595333 104.08784809299935
  endloop
endfacet
facet normal 0.9046542176583539 -0.33854608012131915 0.25881904510186526
  outer loop
    vertex 334.3045145852472 671.5000000002052 100.50000000135108
    vertex 336.7319928342603 680.7295614595333 104.08784809299935
    vertex 335.7759583825659 677.9662403843575 103.81495117717314
  endloop
endfacet
facet normal 0.9046542176583539 -0.33854608012131915 0.25881904510186526
  outer loop
    vertex 334.3045145852472 671.5000000002052 100.50000000135108
    vertex 335.7759583825659 677.9662403843575 103.81495117717314
    vertex 335.10776368489854 675.8082435900122 103.32775285631959
  endloop
endfacet
facet normal 0.9046542176583539 -0.33854608012131915 0.25881904510186526
  outer loop
    vertex 334.3045145852472 671.5000000002052 100.50000000135108
    vertex 335.10776368489854 675.8082435900122 103.32775285631959
    vertex 334.1116873884864 673.0895690229889 103.25321431096387
  endloop
endfacet
facet normal 7.001632979716068e-16 -0.8660254037854229 0.4999999999982953
  outer loop
    vertex 331.8990360135514 673.0407070032452 103.16858281020707
    vertex 334.3045145852472 671.5000000002052 100.50000000135108
    vertex 334.1116873884864 673.0895690229889 103.25321431096387
  endloop
endfacet
facet normal 7.001632979716068e-16 -0.8660254037854229 0.4999999999982953
  outer loop
    vertex 334.3045145852472 671.5000000002052 100.50000000135108
    vertex 331.8990360135514 673.0407070032452 103.16858281020707
    vertex 322.22912165600655 672.7469370112717 102.65975825836738
  endloop
endfacet
facet normal 7.001632979716068e-16 -0.8660254037854229 0.4999999999982953
  outer loop
    vertex 334.3045145852472 671.5000000002052 100.50000000135108
    vertex 322.22912165600655 672.7469370112717 102.65975825836738
    vertex 303.4596948836904 672.537313143937 102.29667906966263
  endloop
endfacet
facet normal 7.001632979716068e-16 -0.8660254037854229 0.4999999999982953
  outer loop
    vertex 334.3045145852472 671.5000000002052 100.50000000135108
    vertex 303.4596948836904 672.537313143937 102.29667906966263
    vertex 303.25217958977197 671.5000000002052 100.50000000135108
  endloop
endfacet
facet normal -0.9805711006119536 0.19616400445714333 4.181386224311426e-13
  outer loop
    vertex 306.6530426926009 688.5000000002055 100.00000000138468
    vertex 303.25217958977197 671.5000000002052 100.50000000135108
    vertex 306.6530426926009 688.5000000002 102.82931249487447
  endloop
endfacet
facet normal -0.9805711006119536 0.19616400445714333 4.181386224311426e-13
  outer loop
    vertex 303.25217958977197 671.5000000002052 100.50000000135108
    vertex 306.6530426926009 688.5000000002055 100.00000000138468
    vertex 299.65126571618856 653.5000000002054 100.00000000131581
  endloop
endfacet
facet normal -0.9805711006119536 0.19616400445714333 4.181386224311426e-13
  outer loop
    vertex 306.6530426926009 688.5000000002 102.82931249487447
    vertex 303.25217958977197 671.5000000002052 100.50000000135108
    vertex 305.5944158757423 683.2082092569556 102.30770076728236
  endloop
endfacet
facet normal -0.9805711006119536 0.19616400445714333 4.181386224311426e-13
  outer loop
    vertex 306.6530426926009 688.5000000002 102.82931249487447
    vertex 305.5944158757423 683.2082092569556 102.30770076728236
    vertex 305.6682027754005 683.5770501236007 102.38755227264032
  endloop
endfacet
facet normal -0.9805711006119536 0.19616400445714333 4.181386224311426e-13
  outer loop
    vertex 305.5944158757423 683.2082092569556 102.30770076728236
    vertex 303.25217958977197 671.5000000002052 100.50000000135108
    vertex 304.23566713219776 676.4161897190199 102.16435626188492
  endloop
endfacet
facet normal -0.9805711006119536 0.19616400445714333 4.181386224311426e-13
  outer loop
    vertex 304.23566713219776 676.4161897190199 102.16435626188492
    vertex 303.25217958977197 671.5000000002052 100.50000000135108
    vertex 304.1779675882834 676.1277652170966 102.13062578445617
  endloop
endfacet
facet normal -0.9805711006119536 0.19616400445714333 4.181386224311426e-13
  outer loop
    vertex 304.1779675882834 676.1277652170966 102.13062578445617
    vertex 303.25217958977197 671.5000000002052 100.50000000135108
    vertex 303.4596948836904 672.537313143937 102.29667906966263
  endloop
endfacet
facet normal -0.9805711006119536 0.19616400445714333 4.181386224311426e-13
  outer loop
    vertex 303.25217958977197 671.5000000002052 100.50000000135108
    vertex 299.65126571618856 653.5000000002054 100.00000000131581
    vertex 303.0521288190171 670.500000000205 100.50000000134919
  endloop
endfacet
facet normal -0.9805711006119536 0.19616400445714333 4.181386224311426e-13
  outer loop
    vertex 303.0521288190171 670.500000000205 100.50000000134919
    vertex 299.65126571618856 653.5000000002054 100.00000000131581
    vertex 302.6577223491276 668.5284681315568 101.96913164205051
  endloop
endfacet
facet normal -0.9805711006119536 0.19616400445714333 4.181386224311426e-13
  outer loop
    vertex 303.0521288190171 670.500000000205 100.50000000134919
    vertex 302.6577223491276 668.5284681315568 101.96913164205051
    vertex 302.8615365794449 669.5472806537407 102.15015831477159
  endloop
endfacet
facet normal -0.9805711006119536 0.19616400445714333 4.181386224311426e-13
  outer loop
    vertex 302.8615365794449 669.5472806537407 102.15015831477159
    vertex 302.6577223491276 668.5284681315568 101.96913164205051
    vertex 302.6957289028872 668.7184526720623 102.01370080274977
  endloop
endfacet
facet normal -0.9805711006119536 0.19616400445714333 4.181386224311426e-13
  outer loop
    vertex 302.6577223491276 668.5284681315568 101.96913164205051
    vertex 299.65126571618856 653.5000000002054 100.00000000131581
    vertex 301.1961762822222 661.2225924211456 101.25789515838407
  endloop
endfacet
facet normal -0.9805711006119536 0.19616400445714333 4.181386224311426e-13
  outer loop
    vertex 301.1961762822222 661.2225924211456 101.25789515838407
    vertex 299.65126571618856 653.5000000002054 100.00000000131581
    vertex 301.17632451667686 661.1233587842524 101.24422063848233
  endloop
endfacet
facet normal -0.9805711006119536 0.19616400445714333 4.181386224311426e-13
  outer loop
    vertex 301.17632451667686 661.1233587842524 101.24422063848233
    vertex 299.65126571618856 653.5000000002054 100.00000000131581
    vertex 299.75129110156615 654.0000000002058 100.50000000131665
  endloop
endfacet
facet normal -0.9805711006119536 0.19616400445714333 4.181386224311426e-13
  outer loop
    vertex 301.17632451667686 661.1233587842524 101.24422063848233
    vertex 299.75129110156615 654.0000000002058 100.50000000131665
    vertex 299.81201396766727 654.3035372766276 101.02574198607529
  endloop
endfacet
facet normal -0.9805711006119536 0.19616400445714333 4.181386224311426e-13
  outer loop
    vertex 299.75129110156615 654.0000000002058 100.50000000131665
    vertex 299.65126571618856 653.5000000002054 100.00000000131581
    vertex 299.65126571618856 653.5000000002057 100.50000000131561
  endloop
endfacet
facet normal 0.9080171279327288 0.3340337841484884 0.25283656070323296
  outer loop
    vertex 334.07105819014714 633.9113281927202 103.25166028838285
    vertex 338.81222953057215 623.1060006132079 100.50000000125594
    vertex 334.2528281838105 635.500000000205 100.50000000128041
  endloop
endfacet
facet normal 0.9080171279327288 0.3340337841484884 0.25283656070323296
  outer loop
    vertex 338.81222953057215 623.1060006132079 100.50000000125594
    vertex 334.07105819014714 633.9113281927202 103.25166028838285
    vertex 335.0556337441134 631.1786857220139 103.32595112044281
  endloop
endfacet
facet normal 0.9080171279327288 0.3340337841484884 0.25283656070323296
  outer loop
    vertex 338.81222953057215 623.1060006132079 100.50000000125594
    vertex 335.0556337441134 631.1786857220139 103.32595112044281
    vertex 335.7136257960804 629.0221434634473 103.81199600941727
  endloop
endfacet
facet normal 0.9080171279327288 0.3340337841484884 0.25283656070323296
  outer loop
    vertex 338.81222953057215 623.1060006132079 100.50000000125594
    vertex 335.7136257960804 629.0221434634473 103.81199600941727
    vertex 336.658379692359 626.2472725769685 104.08508904248023
  endloop
endfacet
facet normal 0.9080171279327288 0.3340337841484884 0.25283656070323296
  outer loop
    vertex 338.81222953057215 623.1060006132079 100.50000000125594
    vertex 336.658379692359 626.2472725769685 104.08508904248023
    vertex 337.2587739209078 624.0686684122328 104.80713315574582
  endloop
endfacet
facet normal 0.9080171279327288 0.3340337841484884 0.25283656070323296
  outer loop
    vertex 338.81222953057215 623.1060006132079 100.50000000125594
    vertex 337.2587739209078 624.0686684122328 104.80713315574582
    vertex 337.7017052860858 622.6853248378347 105.04402224602127
  endloop
endfacet
facet normal -0.01987618360114487 0.0501574589609809 0.9985435226548871
  outer loop
    vertex 322.22912165600655 672.7469370112717 102.65975825836738
    vertex 304.1779675882834 676.1277652170966 102.13062578445617
    vertex 303.4596948836904 672.537313143937 102.29667906966263
  endloop
endfacet
facet normal -0.0826807338382095 0.19503928674832713 0.9773042376234123
  outer loop
    vertex 301.33330173868916 622.6151080279184 102.18203602375549
    vertex 335.0556337441134 631.1786857220139 103.32595112044281
    vertex 301.3109185400615 622.7177772691557 102.15965282512826
  endloop
endfacet
facet normal -0.0826807338382095 0.19503928674832713 0.9773042376234123
  outer loop
    vertex 335.0556337441134 631.1786857220139 103.32595112044281
    vertex 301.33330173868916 622.6151080279184 102.18203602375549
    vertex 335.7136257960804 629.0221434634473 103.81199600941727
  endloop
endfacet
facet normal -0.08268073383820947 -0.1950392867521814 0.9773042376226431
  outer loop
    vertex 335.10776368489854 675.8082435900122 103.32775285631959
    vertex 305.6682027754005 683.5770501236007 102.38755227264032
    vertex 305.5944158757423 683.2082092569556 102.30770076728236
  endloop
endfacet
facet normal -0.08268073383820947 -0.1950392867521814 0.9773042376226431
  outer loop
    vertex 305.6682027754005 683.5770501236007 102.38755227264032
    vertex 335.10776368489854 675.8082435900122 103.32775285631959
    vertex 335.7759583825659 677.9662403843575 103.81495117717314
  endloop
endfacet
facet normal -0.12414942994569929 -0.2811682490144574 0.9515941019102115
  outer loop
    vertex 336.7319928342603 680.7295614595333 104.08784809299935
    vertex 315.13846770474987 688.5000000001988 103.5665930370909
    vertex 312.040320277576 688.5000000001996 103.16239419201708
  endloop
endfacet
facet normal -0.12414942994569929 -0.2811682490144574 0.9515941019102115
  outer loop
    vertex 315.13846770474987 688.5000000001988 103.5665930370909
    vertex 336.7319928342603 680.7295614595333 104.08784809299935
    vertex 337.34109325860624 682.9106081365464 104.8117497484154
  endloop
endfacet
facet normal -0.03791974880024457 -0.013501863891724477 0.999189567760981
  outer loop
    vertex 331.8990360135514 673.0407070032452 103.16858281020707
    vertex 305.5944158757423 683.2082092569556 102.30770076728236
    vertex 304.23566713219776 676.4161897190199 102.16435626188492
  endloop
endfacet
facet normal -0.03791974880024457 -0.013501863891724477 0.999189567760981
  outer loop
    vertex 305.5944158757423 683.2082092569556 102.30770076728236
    vertex 331.8990360135514 673.0407070032452 103.16858281020707
    vertex 335.10776368489854 675.8082435900122 103.32775285631959
  endloop
endfacet
facet normal -0.03791974880024457 -0.013501863891724477 0.999189567760981
  outer loop
    vertex 335.10776368489854 675.8082435900122 103.32775285631959
    vertex 331.8990360135514 673.0407070032452 103.16858281020707
    vertex 334.1116873884864 673.0895690229889 103.25321431096387
  endloop
endfacet
facet normal -0.09050939412789322 -0.1398705262933359 0.9860244852177997
  outer loop
    vertex 337.34109325860624 682.9106081365464 104.8117497484154
    vertex 326.6530426926007 688.5000000001966 104.62354164375762
    vertex 315.13846770474987 688.5000000001988 103.5665930370909
  endloop
endfacet
facet normal -0.09050939412789322 -0.1398705262933359 0.9860244852177997
  outer loop
    vertex 326.6530426926007 688.5000000001966 104.62354164375762
    vertex 337.34109325860624 682.9106081365464 104.8117497484154
    vertex 337.78705249750266 684.2823449324729 105.04727031771365
  endloop
endfacet
facet normal 0.3542437442894026 -0.93515312630169 -1.8256042386812202e-12
  outer loop
    vertex 326.65304269260105 618.5000000001967 104.62354164361992
    vertex 338.81222953057215 623.1060006132079 100.50000000125594
    vertex 337.7017052860858 622.6853248378347 105.04402224602127
  endloop
endfacet
facet normal 0.3542437442894026 -0.93515312630169 -1.8256042386812202e-12
  outer loop
    vertex 338.81222953057215 623.1060006132079 100.50000000125594
    vertex 326.65304269260105 618.5000000001967 104.62354164361992
    vertex 326.6530426926007 618.5000000002055 100.00000000124695
  endloop
endfacet
facet normal 0.3542437442894026 -0.93515312630169 -1.8256042386812202e-12
  outer loop
    vertex 338.81222953057215 623.1060006132079 100.50000000125594
    vertex 326.6530426926007 618.5000000002055 100.00000000124695
    vertex 338.81222953057215 623.1060006132084 100.00000000125587
  endloop
endfacet
facet normal -0.04902693893006281 -0.10633497417180397 0.9931209556378467
  outer loop
    vertex 322.22912165600655 672.7469370112717 102.65975825836738
    vertex 304.23566713219776 676.4161897190199 102.16435626188492
    vertex 304.1779675882834 676.1277652170966 102.13062578445617
  endloop
endfacet
facet normal -0.04902693893006281 -0.10633497417180397 0.9931209556378467
  outer loop
    vertex 304.23566713219776 676.4161897190199 102.16435626188492
    vertex 322.22912165600655 672.7469370112717 102.65975825836738
    vertex 331.8990360135514 673.0407070032452 103.16858281020707
  endloop
endfacet
facet normal -0.09050939412789233 0.13987052628943572 0.9860244852183531
  outer loop
    vertex 326.65304269260105 618.5000000001967 104.62354164361992
    vertex 337.2587739209078 624.0686684122328 104.80713315574582
    vertex 315.13846770475095 618.500000000199 103.5665930369532
  endloop
endfacet
facet normal -0.09050939412789233 0.13987052628943572 0.9860244852183531
  outer loop
    vertex 337.2587739209078 624.0686684122328 104.80713315574582
    vertex 326.65304269260105 618.5000000001967 104.62354164361992
    vertex 337.7017052860858 622.6853248378347 105.04402224602127
  endloop
endfacet
facet normal -0.03791974880024467 0.013501863887788075 0.9991895677610341
  outer loop
    vertex 301.3109185400615 622.7177772691557 102.15965282512826
    vertex 331.8990360135521 633.9592929971534 103.16858281013013
    vertex 301.205626432564 630.214084885551 102.05436071764534
  endloop
endfacet
facet normal -0.03791974880024467 0.013501863887788075 0.9991895677610341
  outer loop
    vertex 331.8990360135521 633.9592929971534 103.16858281013013
    vertex 301.3109185400615 622.7177772691557 102.15965282512826
    vertex 335.0556337441134 631.1786857220139 103.32595112044281
  endloop
endfacet
facet normal -0.03791974880024467 0.013501863887788075 0.9991895677610341
  outer loop
    vertex 331.8990360135521 633.9592929971534 103.16858281013013
    vertex 335.0556337441134 631.1786857220139 103.32595112044281
    vertex 334.07105819014714 633.9113281927202 103.25166028838285
  endloop
endfacet
facet normal -0.04902693893006361 0.10633497416789071 0.9931209556382655
  outer loop
    vertex 301.205626432564 630.214084885551 102.05436071764534
    vertex 322.2291216560069 634.2530629891296 102.6597582582913
    vertex 301.19443538599137 630.313444481886 102.04316967107297
  endloop
endfacet
facet normal -0.04902693893006361 0.10633497416789071 0.9931209556382655
  outer loop
    vertex 322.2291216560069 634.2530629891296 102.6597582582913
    vertex 301.205626432564 630.214084885551 102.05436071764534
    vertex 331.8990360135521 633.9592929971534 103.16858281013013
  endloop
endfacet
facet normal -0.06152646671392252 -0.07698958742009444 0.9951316984814544
  outer loop
    vertex 335.7759583825659 677.9662403843575 103.81495117717314
    vertex 306.6530426926009 688.5000000002 102.82931249487447
    vertex 305.6682027754005 683.5770501236007 102.38755227264032
  endloop
endfacet
facet normal -0.06152646671392252 -0.07698958742009444 0.9951316984814544
  outer loop
    vertex 306.6530426926009 688.5000000002 102.82931249487447
    vertex 335.7759583825659 677.9662403843575 103.81495117717314
    vertex 312.040320277576 688.5000000001996 103.16239419201708
  endloop
endfacet
facet normal -0.06152646671392252 -0.07698958742009444 0.9951316984814544
  outer loop
    vertex 312.040320277576 688.5000000001996 103.16239419201708
    vertex 335.7759583825659 677.9662403843575 103.81495117717314
    vertex 336.7319928342603 680.7295614595333 104.08784809299935
  endloop
endfacet
facet normal -0.01987618360114552 -0.05015745896491301 0.9985435226546897
  outer loop
    vertex 322.2291216560069 634.2530629891296 102.6597582582913
    vertex 301.4082614855397 634.4855980198014 102.25699577062949
    vertex 301.19443538599137 630.313444481886 102.04316967107297
  endloop
endfacet
facet normal -0.12414942994569919 0.2811682490107033 0.9515941019113209
  outer loop
    vertex 315.13846770475095 618.500000000199 103.5665930369532
    vertex 336.658379692359 626.2472725769685 104.08508904248023
    vertex 312.0403202775767 618.5000000001996 103.16239419187929
  endloop
endfacet
facet normal -0.12414942994569919 0.2811682490107033 0.9515941019113209
  outer loop
    vertex 336.658379692359 626.2472725769685 104.08508904248023
    vertex 315.13846770475095 618.500000000199 103.5665930369532
    vertex 337.2587739209078 624.0686684122328 104.80713315574582
  endloop
endfacet
facet normal -0.7071067811865368 -1.391187801534454e-12 0.7071067811865583
  outer loop
    vertex 301.2721373683725 637.4358106849115 102.12087165346828
    vertex 299.65126571618856 637.0000000002053 100.50000000128325
    vertex 299.65126571618856 636.5000000002053 100.50000000128222
  endloop
endfacet
facet normal -0.7071067811865368 -1.391187801534454e-12 0.7071067811865583
  outer loop
    vertex 299.65126571618856 637.0000000002053 100.50000000128325
    vertex 301.2721373683725 637.4358106849115 102.12087165346828
    vertex 301.12736193407085 638.2784372591374 101.97609621916791
  endloop
endfacet
facet normal -0.7071067811865368 -1.391187801534454e-12 0.7071067811865583
  outer loop
    vertex 299.65126571618856 637.0000000002053 100.50000000128325
    vertex 301.12736193407085 638.2784372591374 101.97609621916791
    vertex 299.65126571618856 653.0000000002051 100.50000000131476
  endloop
endfacet
facet normal -0.7071067811865368 -1.391187801534454e-12 0.7071067811865583
  outer loop
    vertex 299.65126571618856 653.0000000002051 100.50000000131476
    vertex 301.12736193407085 638.2784372591374 101.97609621916791
    vertex 300.3963722643822 645.8274405619624 101.2451065494944
  endloop
endfacet
facet normal -0.7071067811865368 -1.391187801534454e-12 0.7071067811865583
  outer loop
    vertex 299.65126571618856 653.0000000002051 100.50000000131476
    vertex 300.3963722643822 645.8274405619624 101.2451065494944
    vertex 300.1773329693956 652.6962749299524 101.0260672545213
  endloop
endfacet
facet normal -0.7071067811865368 -1.391187801534454e-12 0.7071067811865583
  outer loop
    vertex 300.3963722643822 645.8274405619624 101.2451065494944
    vertex 301.12736193407085 638.2784372591374 101.97609621916791
    vertex 300.4030297898979 645.778963392586 101.2517640750095
  endloop
endfacet
facet normal -0.7071067811865368 -1.391187801534454e-12 0.7071067811865583
  outer loop
    vertex 301.12736193407085 638.2784372591374 101.97609621916791
    vertex 301.2721373683725 637.4358106849115 102.12087165346828
    vertex 301.14927731908256 638.1853619843375 101.99801160417944
  endloop
endfacet
facet normal -0.04902693893006312 0.31049275692970246 0.9493105957237287
  outer loop
    vertex 336.3383996954165 635.122076850189 103.57956551690825
    vertex 358.4365185174193 641.5940929835128 102.60400386791243
    vertex 335.3536288316679 637.2246575125823 102.84101232821618
  endloop
endfacet
facet normal -0.04902693893006312 0.31049275692970246 0.9493105957237287
  outer loop
    vertex 358.4365185174193 641.5940929835128 102.60400386791243
    vertex 336.3383996954165 635.122076850189 103.57956551690825
    vertex 357.7479512247003 637.8389715754619 103.79663740332447
  endloop
endfacet
facet normal -0.0008735463942417527 -0.031844817834350926 0.9994924434400663
  outer loop
    vertex 312.0000068052891 654.3098025675183 101.03659378822222
    vertex 301.17632451667686 661.1233587842524 101.24422063848233
    vertex 299.81201396766727 654.3035372766276 101.02574198607529
  endloop
endfacet
facet normal -0.0008735463942417527 -0.031844817834350926 0.9994924434400663
  outer loop
    vertex 301.17632451667686 661.1233587842524 101.24422063848233
    vertex 312.0000068052891 654.3098025675183 101.03659378822222
    vertex 359.25967992354384 657.459366436987 101.17824648970641
  endloop
endfacet
facet normal -0.0008735463942417527 -0.031844817834350926 0.9994924434400663
  outer loop
    vertex 359.25967992354384 657.459366436987 101.17824648970641
    vertex 312.0000068052891 654.3098025675183 101.03659378822222
    vertex 359.26060509997825 657.4090459280953 101.17664403711653
  endloop
endfacet
facet normal -0.06152646671393168 0.07698958741620092 0.9951316984817551
  outer loop
    vertex 301.67265338160485 618.5000000002009 102.52138766666312
    vertex 335.7136257960804 629.0221434634473 103.81199600941727
    vertex 301.33330173868916 622.6151080279184 102.18203602375549
  endloop
endfacet
facet normal -0.06152646671393168 0.07698958741620092 0.9951316984817551
  outer loop
    vertex 335.7136257960804 629.0221434634473 103.81199600941727
    vertex 301.67265338160485 618.5000000002009 102.52138766666312
    vertex 312.0403202775767 618.5000000001996 103.16239419187929
  endloop
endfacet
facet normal -0.06152646671393168 0.07698958741620092 0.9951316984817551
  outer loop
    vertex 335.7136257960804 629.0221434634473 103.81199600941727
    vertex 312.0403202775767 618.5000000001996 103.16239419187929
    vertex 336.658379692359 626.2472725769685 104.08508904248023
  endloop
endfacet
facet normal -0.0008735463942418616 0.03184481783041256 0.999492443440192
  outer loop
    vertex 300.3963722643822 645.8274405619624 101.2451065494944
    vertex 312.0000068052887 652.690197432889 101.03659378821877
    vertex 300.1773329693956 652.6962749299524 101.0260672545213
  endloop
endfacet
facet normal -0.0008735463942418616 0.03184481783041256 0.999492443440192
  outer loop
    vertex 312.0000068052887 652.690197432889 101.03659378821877
    vertex 300.3963722643822 645.8274405619624 101.2451065494944
    vertex 359.25967992354384 649.5406335634199 101.17824648969078
  endloop
endfacet
facet normal -0.0008735463942418616 0.03184481783041256 0.999492443440192
  outer loop
    vertex 312.0000068052887 652.690197432889 101.03659378821877
    vertex 359.25967992354384 649.5406335634199 101.17824648969078
    vertex 359.26060509997785 649.5909540723115 101.17664403710134
  endloop
endfacet
facet normal -0.12414942994570019 0.4728715868729374 0.872341321600913
  outer loop
    vertex 357.1883435433007 630.3648039691474 107.24380491632516
    vertex 339.2929108236096 628.0372710725131 105.95866162586005
    vertex 339.2929108236096 625.7495108175848 107.19879183102732
  endloop
endfacet
facet normal -0.12414942994570019 0.4728715868729374 0.872341321600913
  outer loop
    vertex 339.2929108236096 628.0372710725131 105.95866162586005
    vertex 357.1883435433007 630.3648039691474 107.24380491632516
    vertex 356.79032607403263 633.5597080547578 105.45529281887671
  endloop
endfacet
facet normal 1.803319485881466e-16 -0.8660254037854216 0.49999999999829764
  outer loop
    vertex 301.2721373683725 637.4358106849115 102.12087165346828
    vertex 334.95047495803107 636.5000000002053 100.50000000128222
    vertex 335.11588652615643 637.7958539659782 102.7444849092021
  endloop
endfacet
facet normal 1.803319485881466e-16 -0.8660254037854216 0.49999999999829764
  outer loop
    vertex 334.95047495803107 636.5000000002053 100.50000000128222
    vertex 301.2721373683725 637.4358106849115 102.12087165346828
    vertex 299.65126571618856 636.5000000002053 100.50000000128222
  endloop
endfacet
facet normal -0.08268073383820965 0.3939701868693499 0.9153968473345888
  outer loop
    vertex 338.5401961590537 630.4063327530926 105.21195922074627
    vertex 357.7163403172819 637.5920522915083 103.85138910104679
    vertex 337.4917169337852 632.4865552883812 104.22196816347353
  endloop
endfacet
facet normal -0.08268073383820965 0.3939701868693499 0.9153968473345888
  outer loop
    vertex 357.7163403172819 637.5920522915083 103.85138910104679
    vertex 338.5401961590537 630.4063327530926 105.21195922074627
    vertex 356.8501799528142 633.9244549053576 105.3516228597996
  endloop
endfacet
facet normal -0.01987618360114528 -0.1585474740087114 0.9871512730128604
  outer loop
    vertex 358.4507514937628 665.2506324803712 102.57935162978977
    vertex 302.8615365794449 669.5472806537407 102.15015831477159
    vertex 302.6957289028872 668.7184526720623 102.01370080274977
  endloop
endfacet
facet normal -0.01987618360114528 -0.1585474740087114 0.9871512730128604
  outer loop
    vertex 302.8615365794449 669.5472806537407 102.15015831477159
    vertex 358.4507514937628 665.2506324803712 102.57935162978977
    vertex 335.1552649211714 669.2037271113743 102.74521050526717
  endloop
endfacet
facet normal -0.01987618360114528 -0.1585474740087114 0.9871512730128604
  outer loop
    vertex 335.1552649211714 669.2037271113743 102.74521050526717
    vertex 358.4507514937628 665.2506324803712 102.57935162978977
    vertex 335.3936359199949 669.7677694155896 102.84060154702487
  endloop
endfacet
facet normal -0.01987618360114528 -0.1585474740087114 0.9871512730128604
  outer loop
    vertex 335.3936359199949 669.7677694155896 102.84060154702487
    vertex 358.4507514937628 665.2506324803712 102.57935162978977
    vertex 358.43651851741964 665.4059070168886 102.60400386795922
  endloop
endfacet
facet normal -0.09050939412788736 0.34182003761282354 0.9353967668647198
  outer loop
    vertex 357.2933675969356 630.1068086768405 107.34824575623874
    vertex 339.2929108236096 625.7495108175848 107.19879183102732
    vertex 339.2929108236096 623.2880866654841 108.09826478844651
  endloop
endfacet
facet normal -0.09050939412788736 0.34182003761282354 0.9353967668647198
  outer loop
    vertex 339.2929108236096 625.7495108175848 107.19879183102732
    vertex 357.2933675969356 630.1068086768405 107.34824575623874
    vertex 357.1883435433007 630.3648039691474 107.24380491632516
  endloop
endfacet
facet normal -1.2682948258462025e-16 -0.8660254037854336 0.4999999999982769
  outer loop
    vertex 299.81201396766727 654.3035372766276 101.02574198607529
    vertex 359.341463148874 654.3098025675183 101.03659378822222
    vertex 312.0000068052891 654.3098025675183 101.03659378822222
  endloop
endfacet
facet normal -1.2682948258462025e-16 -0.8660254037854336 0.4999999999982769
  outer loop
    vertex 359.341463148874 654.3098025675183 101.03659378822222
    vertex 299.81201396766727 654.3035372766276 101.02574198607529
    vertex 359.6512657161887 654.0000000002058 100.50000000131665
  endloop
endfacet
facet normal -1.2682948258462025e-16 -0.8660254037854336 0.4999999999982769
  outer loop
    vertex 359.6512657161887 654.0000000002058 100.50000000131665
    vertex 299.81201396766727 654.3035372766276 101.02574198607529
    vertex 299.75129110156615 654.0000000002058 100.50000000131665
  endloop
endfacet
facet normal -0.7071067811865416 -1.3913514279710637e-12 0.7071067811865537
  outer loop
    vertex 301.67265338160485 618.5000000002009 102.52138766666312
    vertex 299.65126571618856 635.500000000205 100.50000000128041
    vertex 299.65126571618856 618.5000000002057 100.50000000124693
  endloop
endfacet
facet normal -0.7071067811865416 -1.3913514279710637e-12 0.7071067811865537
  outer loop
    vertex 299.65126571618856 635.500000000205 100.50000000128041
    vertex 301.67265338160485 618.5000000002009 102.52138766666312
    vertex 301.3109185400615 622.7177772691557 102.15965282512826
  endloop
endfacet
facet normal -0.7071067811865416 -1.3913514279710637e-12 0.7071067811865537
  outer loop
    vertex 299.65126571618856 635.500000000205 100.50000000128041
    vertex 301.3109185400615 622.7177772691557 102.15965282512826
    vertex 301.19443538599137 630.313444481886 102.04316967107297
  endloop
endfacet
facet normal -0.7071067811865416 -1.3913514279710637e-12 0.7071067811865537
  outer loop
    vertex 301.19443538599137 630.313444481886 102.04316967107297
    vertex 301.3109185400615 622.7177772691557 102.15965282512826
    vertex 301.205626432564 630.214084885551 102.05436071764534
  endloop
endfacet
facet normal -0.7071067811865416 -1.3913514279710637e-12 0.7071067811865537
  outer loop
    vertex 301.3109185400615 622.7177772691557 102.15965282512826
    vertex 301.67265338160485 618.5000000002009 102.52138766666312
    vertex 301.33330173868916 622.6151080279184 102.18203602375549
  endloop
endfacet
facet normal -0.7071067811865416 -1.3913514279710637e-12 0.7071067811865537
  outer loop
    vertex 301.4082614855397 634.4855980198014 102.25699577062949
    vertex 299.65126571618856 635.500000000205 100.50000000128041
    vertex 301.19443538599137 630.313444481886 102.04316967107297
  endloop
endfacet
facet normal -0.06152646671394292 0.2822066942303803 0.957378647989007
  outer loop
    vertex 356.79032607403263 633.5597080547578 105.45529281887671
    vertex 339.2929108236096 628.7723818202215 105.74197288474424
    vertex 339.2929108236096 628.0372710725131 105.95866162586005
  endloop
endfacet
facet normal -0.06152646671394292 0.2822066942303803 0.957378647989007
  outer loop
    vertex 339.2929108236096 628.7723818202215 105.74197288474424
    vertex 356.8501799528142 633.9244549053576 105.3516228597996
    vertex 338.5401961590537 630.4063327530926 105.21195922074627
  endloop
endfacet
facet normal -0.06152646671394292 0.2822066942303803 0.957378647989007
  outer loop
    vertex 356.8501799528142 633.9244549053576 105.3516228597996
    vertex 339.2929108236096 628.7723818202215 105.74197288474424
    vertex 356.79032607403263 633.5597080547578 105.45529281887671
  endloop
endfacet
facet normal -3.2997336926333837e-16 0.8660254037834508 0.5000000000017112
  outer loop
    vertex 334.99801684713026 670.500000000205 100.50000000134919
    vertex 302.8615365794449 669.5472806537407 102.15015831477159
    vertex 335.1552649211714 669.2037271113743 102.74521050526717
  endloop
endfacet
facet normal -3.2997336926333837e-16 0.8660254037834508 0.5000000000017112
  outer loop
    vertex 302.8615365794449 669.5472806537407 102.15015831477159
    vertex 334.99801684713026 670.500000000205 100.50000000134919
    vertex 303.0521288190171 670.500000000205 100.50000000134919
  endloop
endfacet
facet normal 0.8660254037844303 -9.864909088837763e-13 0.5000000000000149
  outer loop
    vertex 355.7598027055863 677.0036215869794 107.24021165149995
    vertex 359.6512657161887 676.0000000002046 100.50000000136019
    vertex 355.658090533891 677.5126478098335 107.41638230062563
  endloop
endfacet
facet normal 0.8660254037844303 -9.864909088837763e-13 0.5000000000000149
  outer loop
    vertex 359.6512657161887 676.0000000002046 100.50000000136019
    vertex 355.7598027055863 677.0036215869794 107.24021165149995
    vertex 356.7903260740337 673.440291945632 105.45529281895519
  endloop
endfacet
facet normal 0.8660254037844303 -9.864909088837763e-13 0.5000000000000149
  outer loop
    vertex 359.6512657161887 676.0000000002046 100.50000000136019
    vertex 356.7903260740337 673.440291945632 105.45529281895519
    vertex 357.7163403172819 669.4079477088882 103.85138910110938
  endloop
endfacet
facet normal 0.8660254037844303 -9.864909088837763e-13 0.5000000000000149
  outer loop
    vertex 359.6512657161887 676.0000000002046 100.50000000136019
    vertex 357.7163403172819 669.4079477088882 103.85138910110938
    vertex 358.43651851741964 665.4059070168886 102.60400386795922
  endloop
endfacet
facet normal 0.8660254037844303 -9.864909088837763e-13 0.5000000000000149
  outer loop
    vertex 359.6512657161887 676.0000000002046 100.50000000136019
    vertex 358.43651851741964 665.4059070168886 102.60400386795922
    vertex 358.95097189089523 661.4256164486477 101.71294448696652
  endloop
endfacet
facet normal 0.8660254037844303 -9.864909088837763e-13 0.5000000000000149
  outer loop
    vertex 359.6512657161887 676.0000000002046 100.50000000136019
    vertex 358.95097189089523 661.4256164486477 101.71294448696652
    vertex 359.6512657161887 654.5000000002051 100.50000000131767
  endloop
endfacet
facet normal 0.8660254037844303 -9.864909088837763e-13 0.5000000000000149
  outer loop
    vertex 357.7163403172819 669.4079477088882 103.85138910110938
    vertex 356.7903260740337 673.440291945632 105.45529281895519
    vertex 356.8501799528142 673.0755450950325 105.3516228598769
  endloop
endfacet
facet normal 0.8660254037844303 -9.864909088837763e-13 0.5000000000000149
  outer loop
    vertex 358.43651851741964 665.4059070168886 102.60400386795922
    vertex 357.7163403172819 669.4079477088882 103.85138910110938
    vertex 357.7479512247006 669.1610284249355 103.7966374033861
  endloop
endfacet
facet normal 0.8660254037844303 -9.864909088837763e-13 0.5000000000000149
  outer loop
    vertex 358.95097189089523 661.4256164486477 101.71294448696652
    vertex 358.43651851741964 665.4059070168886 102.60400386795922
    vertex 358.4507514937628 665.2506324803712 102.57935162978977
  endloop
endfacet
facet normal 0.8660254037844303 -9.864909088837763e-13 0.5000000000000149
  outer loop
    vertex 359.6512657161887 654.5000000002051 100.50000000131767
    vertex 358.95097189089523 661.4256164486477 101.71294448696652
    vertex 358.95591522587347 661.3358922622627 101.70438237962496
  endloop
endfacet
facet normal 0.8660254037844303 -9.864909088837763e-13 0.5000000000000149
  outer loop
    vertex 359.6512657161887 654.5000000002051 100.50000000131767
    vertex 358.95591522587347 661.3358922622627 101.70438237962496
    vertex 359.25967992354384 657.459366436987 101.17824648970641
  endloop
endfacet
facet normal 0.8660254037844303 -9.864909088837763e-13 0.5000000000000149
  outer loop
    vertex 359.6512657161887 654.5000000002051 100.50000000131767
    vertex 359.25967992354384 657.459366436987 101.17824648970641
    vertex 359.26060509997825 657.4090459280953 101.17664403711653
  endloop
endfacet
facet normal 0.8660254037844303 -9.864909088837763e-13 0.5000000000000149
  outer loop
    vertex 359.6512657161887 654.5000000002051 100.50000000131767
    vertex 359.26060509997825 657.4090459280953 101.17664403711653
    vertex 359.341463148874 654.3098025675183 101.03659378822222
  endloop
endfacet
facet normal 0.8660254037844303 -9.864909088837763e-13 0.5000000000000149
  outer loop
    vertex 359.6512657161887 654.5000000002051 100.50000000131767
    vertex 359.341463148874 654.3098025675183 101.03659378822222
    vertex 359.6512657161887 654.0000000002058 100.50000000131665
  endloop
endfacet
facet normal -0.9046542176583562 0.3385460801202864 0.2588190451032075
  outer loop
    vertex 334.99801684713026 670.500000000205 100.50000000134919
    vertex 341.7400376051911 682.7849214557308 107.99630117266513
    vertex 339.8616478758757 683.4964710322089 100.50000000137487
  endloop
endfacet
facet normal -0.9046542176583562 0.3385460801202864 0.2588190451032075
  outer loop
    vertex 341.7400376051911 682.7849214557308 107.99630117266513
    vertex 334.99801684713026 670.500000000205 100.50000000134919
    vertex 340.7938629354724 680.8633885124083 107.20256723497683
  endloop
endfacet
facet normal -0.9046542176583562 0.3385460801202864 0.2588190451032075
  outer loop
    vertex 340.7938629354724 680.8633885124083 107.20256723497683
    vertex 334.99801684713026 670.500000000205 100.50000000134919
    vertex 339.6780478207381 678.8411741287383 105.94758193516006
  endloop
endfacet
facet normal -0.9046542176583562 0.3385460801202864 0.2588190451032075
  outer loop
    vertex 339.6780478207381 678.8411741287383 105.94758193516006
    vertex 334.99801684713026 670.500000000205 100.50000000134919
    vertex 338.6208845427684 676.5781635967552 105.21257469015849
  endloop
endfacet
facet normal -0.9046542176583562 0.3385460801202864 0.2588190451032075
  outer loop
    vertex 338.6208845427684 676.5781635967552 105.21257469015849
    vertex 334.99801684713026 670.500000000205 100.50000000134919
    vertex 337.5581745079836 674.4966681847341 104.22075045061942
  endloop
endfacet
facet normal -0.9046542176583562 0.3385460801202864 0.2588190451032075
  outer loop
    vertex 337.5581745079836 674.4966681847341 104.22075045061942
    vertex 334.99801684713026 670.500000000205 100.50000000134919
    vertex 336.3923236392819 671.8710801447185 103.58011225296434
  endloop
endfacet
facet normal -0.9046542176583562 0.3385460801202864 0.2588190451032075
  outer loop
    vertex 336.3923236392819 671.8710801447185 103.58011225296434
    vertex 334.99801684713026 670.500000000205 100.50000000134919
    vertex 335.3936359199949 669.7677694155896 102.84060154702487
  endloop
endfacet
facet normal -0.9046542176583562 0.3385460801202864 0.2588190451032075
  outer loop
    vertex 335.3936359199949 669.7677694155896 102.84060154702487
    vertex 334.99801684713026 670.500000000205 100.50000000134919
    vertex 335.1552649211714 669.2037271113743 102.74521050526717
  endloop
endfacet
facet normal 0.35424374428937394 0.9351531263017009 1.8659079134714922e-12
  outer loop
    vertex 355.658090533891 677.5126478098335 107.41638230062563
    vertex 339.8616478758757 683.4964710322089 100.50000000137487
    vertex 341.7400376051911 682.7849214557308 107.99630117266513
  endloop
endfacet
facet normal 0.35424374428937394 0.9351531263017009 1.8659079134714922e-12
  outer loop
    vertex 339.8616478758757 683.4964710322089 100.50000000137487
    vertex 355.658090533891 677.5126478098335 107.41638230062563
    vertex 359.6512657161887 676.0000000002046 100.50000000136019
  endloop
endfacet
facet normal 0.35424374428937394 0.9351531263017009 1.8659079134714922e-12
  outer loop
    vertex 339.8616478758757 683.4964710322089 100.50000000137487
    vertex 359.6512657161887 676.0000000002046 100.50000000136019
    vertex 339.8616478758757 683.496471032209 100.0000000013748
  endloop
endfacet
facet normal 0.35424374428937394 0.9351531263017009 1.8659079134714922e-12
  outer loop
    vertex 339.8616478758757 683.496471032209 100.0000000013748
    vertex 359.6512657161887 676.0000000002046 100.50000000136019
    vertex 359.6512657161887 676.0000000002057 100.00000000136022
  endloop
endfacet
facet normal 0.3542437442893542 0.9351531263017082 1.860238821355195e-12
  outer loop
    vertex 338.92648722183606 683.8507176280672 100.50000000137564
    vertex 326.6530426926007 688.5000000001966 104.62354164375762
    vertex 337.78705249750266 684.2823449324729 105.04727031771365
  endloop
endfacet
facet normal 0.3542437442893542 0.9351531263017082 1.860238821355195e-12
  outer loop
    vertex 326.6530426926007 688.5000000001966 104.62354164375762
    vertex 338.92648722183606 683.8507176280672 100.50000000137564
    vertex 326.65304269260054 688.5000000002055 100.00000000138472
  endloop
endfacet
facet normal 0.3542437442893542 0.9351531263017082 1.860238821355195e-12
  outer loop
    vertex 326.65304269260054 688.5000000002055 100.00000000138472
    vertex 338.92648722183606 683.8507176280672 100.50000000137564
    vertex 338.92648722183606 683.8507176280676 100.00000000137548
  endloop
endfacet
facet normal 0.8660254037844727 -1.0230575824265785e-12 0.49999999999994105
  outer loop
    vertex 359.3414631488737 652.6901974328891 101.03659378821885
    vertex 359.65126571618754 631.0000000002044 100.50000000127157
    vertex 359.6512657161887 653.0000000002051 100.50000000131476
  endloop
endfacet
facet normal 0.8660254037844727 -1.0230575824265785e-12 0.49999999999994105
  outer loop
    vertex 359.65126571618754 631.0000000002044 100.50000000127157
    vertex 359.3414631488737 652.6901974328891 101.03659378821885
    vertex 359.26060509997785 649.5909540723115 101.17664403710134
  endloop
endfacet
facet normal 0.8660254037844727 -1.0230575824265785e-12 0.49999999999994105
  outer loop
    vertex 359.65126571618754 631.0000000002044 100.50000000127157
    vertex 359.26060509997785 649.5909540723115 101.17664403710134
    vertex 359.25967992354384 649.5406335634199 101.17824648969078
  endloop
endfacet
facet normal 0.8660254037844727 -1.0230575824265785e-12 0.49999999999994105
  outer loop
    vertex 359.65126571618754 631.0000000002044 100.50000000127157
    vertex 359.25967992354384 649.5406335634199 101.17824648969078
    vertex 358.95591522587347 645.6641077381418 101.70438237959397
  endloop
endfacet
facet normal 0.8660254037844727 -1.0230575824265785e-12 0.49999999999994105
  outer loop
    vertex 359.65126571618754 631.0000000002044 100.50000000127157
    vertex 358.95591522587347 645.6641077381418 101.70438237959397
    vertex 358.95097189089523 645.5743835517562 101.71294448693516
  endloop
endfacet
facet normal 0.8660254037844727 -1.0230575824265785e-12 0.49999999999994105
  outer loop
    vertex 359.65126571618754 631.0000000002044 100.50000000127157
    vertex 358.95097189089523 645.5743835517562 101.71294448693516
    vertex 358.4507514937628 641.7493675200299 102.5793516297433
  endloop
endfacet
facet normal 0.8660254037844727 -1.0230575824265785e-12 0.49999999999994105
  outer loop
    vertex 359.65126571618754 631.0000000002044 100.50000000127157
    vertex 358.4507514937628 641.7493675200299 102.5793516297433
    vertex 358.4365185174193 641.5940929835128 102.60400386791243
  endloop
endfacet
facet normal 0.8660254037844727 -1.0230575824265785e-12 0.49999999999994105
  outer loop
    vertex 359.65126571618754 631.0000000002044 100.50000000127157
    vertex 358.4365185174193 641.5940929835128 102.60400386791243
    vertex 357.7479512247003 637.8389715754619 103.79663740332447
  endloop
endfacet
facet normal 0.8660254037844727 -1.0230575824265785e-12 0.49999999999994105
  outer loop
    vertex 359.65126571618754 631.0000000002044 100.50000000127157
    vertex 357.7479512247003 637.8389715754619 103.79663740332447
    vertex 357.7163403172819 637.5920522915083 103.85138910104679
  endloop
endfacet
facet normal 0.8660254037844727 -1.0230575824265785e-12 0.49999999999994105
  outer loop
    vertex 359.65126571618754 631.0000000002044 100.50000000127157
    vertex 357.7163403172819 637.5920522915083 103.85138910104679
    vertex 356.8501799528142 633.9244549053576 105.3516228597996
  endloop
endfacet
facet normal 0.8660254037844727 -1.0230575824265785e-12 0.49999999999994105
  outer loop
    vertex 359.65126571618754 631.0000000002044 100.50000000127157
    vertex 356.8501799528142 633.9244549053576 105.3516228597996
    vertex 356.79032607403263 633.5597080547578 105.45529281887671
  endloop
endfacet
facet normal -1.4756253898059397e-14 -1.0 -1.9709528812050096e-12
  outer loop
    vertex 315.13846770475095 618.500000000199 103.5665930369532
    vertex 326.6530426926007 618.5000000002055 100.00000000124695
    vertex 326.65304269260105 618.5000000001967 104.62354164361992
  endloop
endfacet
facet normal -1.4756253898059397e-14 -1.0 -1.9709528812050096e-12
  outer loop
    vertex 326.6530426926007 618.5000000002055 100.00000000124695
    vertex 315.13846770475095 618.500000000199 103.5665930369532
    vertex 312.0403202775767 618.5000000001996 103.16239419187929
  endloop
endfacet
facet normal -1.4756253898059397e-14 -1.0 -1.9709528812050096e-12
  outer loop
    vertex 326.6530426926007 618.5000000002055 100.00000000124695
    vertex 312.0403202775767 618.5000000001996 103.16239419187929
    vertex 301.67265338160485 618.5000000002009 102.52138766666312
  endloop
endfacet
facet normal -1.4756253898059397e-14 -1.0 -1.9709528812050096e-12
  outer loop
    vertex 326.6530426926007 618.5000000002055 100.00000000124695
    vertex 301.67265338160485 618.5000000002009 102.52138766666312
    vertex 299.65126571618856 618.5000000002057 100.50000000124693
  endloop
endfacet
facet normal -1.4756253898059397e-14 -1.0 -1.9709528812050096e-12
  outer loop
    vertex 326.6530426926007 618.5000000002055 100.00000000124695
    vertex 299.65126571618856 618.5000000002057 100.50000000124693
    vertex 299.65126571618856 618.5000000002055 100.00000000124695
  endloop
endfacet
facet normal 1.1892630158175032e-15 1.96781170948714e-12 -1.0
  outer loop
    vertex 306.6530426926009 688.5000000002055 100.00000000138468
    vertex 299.65126571618856 618.5000000002055 100.00000000124695
    vertex 299.65126571618856 653.5000000002054 100.00000000131581
  endloop
endfacet
facet normal 1.1892630158175032e-15 1.96781170948714e-12 -1.0
  outer loop
    vertex 299.65126571618856 618.5000000002055 100.00000000124695
    vertex 306.6530426926009 688.5000000002055 100.00000000138468
    vertex 326.6530426926007 618.5000000002055 100.00000000124695
  endloop
endfacet
facet normal 1.1892630158175032e-15 1.96781170948714e-12 -1.0
  outer loop
    vertex 326.6530426926007 618.5000000002055 100.00000000124695
    vertex 306.6530426926009 688.5000000002055 100.00000000138468
    vertex 326.65304269260054 688.5000000002055 100.00000000138472
  endloop
endfacet
facet normal 1.1892630158175032e-15 1.96781170948714e-12 -1.0
  outer loop
    vertex 326.6530426926007 618.5000000002055 100.00000000124695
    vertex 326.65304269260054 688.5000000002055 100.00000000138472
    vertex 334.3045145852472 671.5000000002057 100.00000000135128
  endloop
endfacet
facet normal 1.1892630158175032e-15 1.96781170948714e-12 -1.0
  outer loop
    vertex 334.3045145852472 671.5000000002057 100.00000000135128
    vertex 326.65304269260054 688.5000000002055 100.00000000138472
    vertex 338.92648722183606 683.8507176280676 100.00000000137548
  endloop
endfacet
facet normal 1.1892630158175032e-15 1.96781170948714e-12 -1.0
  outer loop
    vertex 326.6530426926007 618.5000000002055 100.00000000124695
    vertex 334.3045145852472 671.5000000002057 100.00000000135128
    vertex 334.2528281838105 635.5000000002054 100.00000000128044
  endloop
endfacet
facet normal 1.1892630158175032e-15 1.96781170948714e-12 -1.0
  outer loop
    vertex 334.3045145852472 671.5000000002057 100.00000000135128
    vertex 334.601651570921 636.0000000002059 100.00000000128148
    vertex 334.2528281838105 635.5000000002054 100.00000000128044
  endloop
endfacet
facet normal 1.1892630158175032e-15 1.96781170948714e-12 -1.0
  outer loop
    vertex 334.601651570921 636.0000000002059 100.00000000128148
    vertex 334.3045145852472 671.5000000002057 100.00000000135128
    vertex 334.99801684713026 670.5000000002054 100.00000000134922
  endloop
endfacet
facet normal 1.1892630158175032e-15 1.96781170948714e-12 -1.0
  outer loop
    vertex 334.601651570921 636.0000000002059 100.00000000128148
    vertex 334.99801684713026 670.5000000002054 100.00000000134922
    vertex 334.95047495803107 636.5000000002058 100.00000000128223
  endloop
endfacet
facet normal 1.1892630158175032e-15 1.96781170948714e-12 -1.0
  outer loop
    vertex 334.95047495803107 636.5000000002058 100.00000000128223
    vertex 334.99801684713026 670.5000000002054 100.00000000134922
    vertex 339.2929108236096 624.695786384686 100.00000000125915
  endloop
endfacet
facet normal 1.1892630158175032e-15 1.96781170948714e-12 -1.0
  outer loop
    vertex 339.2929108236096 624.695786384686 100.00000000125915
    vertex 334.99801684713026 670.5000000002054 100.00000000134922
    vertex 339.8616478758757 683.496471032209 100.0000000013748
  endloop
endfacet
facet normal 1.1892630158175032e-15 1.96781170948714e-12 -1.0
  outer loop
    vertex 339.2929108236096 624.695786384686 100.00000000125915
    vertex 339.8616478758757 683.496471032209 100.0000000013748
    vertex 339.2929108236096 623.2880866655001 100.00000000125641
  endloop
endfacet
facet normal 1.1892630158175032e-15 1.96781170948714e-12 -1.0
  outer loop
    vertex 339.2929108236096 623.2880866655001 100.00000000125641
    vertex 339.8616478758757 683.496471032209 100.0000000013748
    vertex 359.65126571618754 631.0000000002054 100.0000000012716
  endloop
endfacet
facet normal 1.1892630158175032e-15 1.96781170948714e-12 -1.0
  outer loop
    vertex 359.65126571618754 631.0000000002054 100.0000000012716
    vertex 339.8616478758757 683.496471032209 100.0000000013748
    vertex 359.6512657161887 676.0000000002057 100.00000000136022
  endloop
endfacet
facet normal 1.1892630158175032e-15 1.96781170948714e-12 -1.0
  outer loop
    vertex 338.81222953057215 623.1060006132084 100.00000000125587
    vertex 326.6530426926007 618.5000000002055 100.00000000124695
    vertex 334.2528281838105 635.5000000002054 100.00000000128044
  endloop
endfacet
facet normal -9.379418641282561e-16 1.0 1.944615939714108e-12
  outer loop
    vertex 326.65304269260054 688.5000000002055 100.00000000138472
    vertex 315.13846770474987 688.5000000001988 103.5665930370909
    vertex 326.6530426926007 688.5000000001966 104.62354164375762
  endloop
endfacet
facet normal -9.379418641282561e-16 1.0 1.944615939714108e-12
  outer loop
    vertex 315.13846770474987 688.5000000001988 103.5665930370909
    vertex 326.65304269260054 688.5000000002055 100.00000000138472
    vertex 312.040320277576 688.5000000001996 103.16239419201708
  endloop
endfacet
facet normal -9.379418641282561e-16 1.0 1.944615939714108e-12
  outer loop
    vertex 312.040320277576 688.5000000001996 103.16239419201708
    vertex 326.65304269260054 688.5000000002055 100.00000000138472
    vertex 306.6530426926009 688.5000000002 102.82931249487447
  endloop
endfacet
facet normal -9.379418641282561e-16 1.0 1.944615939714108e-12
  outer loop
    vertex 306.6530426926009 688.5000000002 102.82931249487447
    vertex 326.65304269260054 688.5000000002055 100.00000000138472
    vertex 306.6530426926009 688.5000000002055 100.00000000138468
  endloop
endfacet
facet normal -0.3542437442893077 0.935153126301726 1.8722030383364987e-12
  outer loop
    vertex 357.2933675969356 630.1068086768405 107.34824575623874
    vertex 339.2929108236096 623.2880866655001 100.00000000125641
    vertex 339.2929108236096 623.2880866654841 108.09826478844651
  endloop
endfacet
facet normal -0.3542437442893077 0.935153126301726 1.8722030383364987e-12
  outer loop
    vertex 339.2929108236096 623.2880866655001 100.00000000125641
    vertex 357.2933675969356 630.1068086768405 107.34824575623874
    vertex 359.65126571618754 631.0000000002044 100.50000000127157
  endloop
endfacet
facet normal -0.3542437442893077 0.935153126301726 1.8722030383364987e-12
  outer loop
    vertex 339.2929108236096 623.2880866655001 100.00000000125641
    vertex 359.65126571618754 631.0000000002044 100.50000000127157
    vertex 359.65126571618754 631.0000000002054 100.0000000012716
  endloop
endfacet
endsolid ProtoGlove baseplate
