solid ProtoGlove baseplate
facet normal -0.6974858324628903 0.11624763874242704 0.7071067811868015
  outer loop
    vertex 382.98004571618924 53.41723746951486 301.5000000001338
    vertex 386.9800457161894 83.4999999998155 300.500000000193
    vertex 381.98004571618947 53.499999999815465 300.50000000013387
  endloop
endfacet
facet normal -0.6974858324628903 0.11624763874242704 0.7071067811868015
  outer loop
    vertex 386.9800457161894 83.4999999998155 300.500000000193
    vertex 382.98004571618924 53.41723746951486 301.5000000001338
    vertex 387.99383947123926 83.49999999981344 301.500000000193
  endloop
endfacet
facet normal 0.0 -1.9698374875698473e-12 1.0
  outer loop
    vertex 406.9800457161892 23.499999999813365 301.50000000007475
    vertex 382.98004571618924 53.41723746951486 301.5000000001338
    vertex 382.98004571618924 23.499999999813365 301.50000000007475
  endloop
endfacet
facet normal 0.0 -1.9698374875698473e-12 1.0
  outer loop
    vertex 382.98004571618924 53.41723746951486 301.5000000001338
    vertex 406.9800457161892 23.499999999813365 301.50000000007475
    vertex 387.99383947123926 83.49999999981344 301.500000000193
  endloop
endfacet
facet normal 0.0 -1.9698374875698473e-12 1.0
  outer loop
    vertex 387.99383947123926 83.49999999981344 301.500000000193
    vertex 406.9800457161892 23.499999999813365 301.50000000007475
    vertex 406.9800457161892 83.49999999981344 301.500000000193
  endloop
endfacet
facet normal 0.0 -1.9698374875698473e-12 1.0
  outer loop
    vertex 406.9800457161892 83.49999999981344 301.500000000193
    vertex 406.9800457161892 23.499999999813365 301.50000000007475
    vertex 431.4026954469998 33.26905989213761 301.5000000000941
  endloop
endfacet
facet normal 0.0 -1.9698374875698473e-12 1.0
  outer loop
    vertex 406.9800457161892 83.49999999981344 301.500000000193
    vertex 431.4026954469998 33.26905989213761 301.5000000000941
    vertex 431.4026954469998 73.73094010748937 301.5000000001739
  endloop
endfacet
facet normal 0.8660254037844629 -9.868720827100562e-13 0.49999999999995837
  outer loop
    vertex 431.4026954469998 33.26905989213761 301.5000000000941
    vertex 431.9800457161893 73.49999999981543 300.50000000017326
    vertex 431.4026954469998 73.73094010748937 301.5000000001739
  endloop
endfacet
facet normal 0.8660254037844629 -9.868720827100562e-13 0.49999999999995837
  outer loop
    vertex 431.9800457161893 73.49999999981543 300.50000000017326
    vertex 431.4026954469998 33.26905989213761 301.5000000000941
    vertex 431.9800457161893 33.4999999998155 300.5000000000945
  endloop
endfacet
facet normal 0.0 1.9698374875698473e-12 -1.0
  outer loop
    vertex 386.9800457161894 83.49999999981635 300.00000000019304
    vertex 381.98004571618947 23.499999999816467 300.00000000007475
    vertex 381.98004571618947 53.49999999981649 300.00000000013387
  endloop
endfacet
facet normal 0.0 1.9698374875698473e-12 -1.0
  outer loop
    vertex 381.98004571618947 23.499999999816467 300.00000000007475
    vertex 386.9800457161894 83.49999999981635 300.00000000019304
    vertex 406.9800457161892 23.499999999816467 300.00000000007475
  endloop
endfacet
facet normal 0.0 1.9698374875698473e-12 -1.0
  outer loop
    vertex 406.9800457161892 23.499999999816467 300.00000000007475
    vertex 386.9800457161894 83.49999999981635 300.00000000019304
    vertex 406.9800457161892 83.49999999981635 300.00000000019304
  endloop
endfacet
facet normal 0.0 1.9698374875698473e-12 -1.0
  outer loop
    vertex 406.9800457161892 23.499999999816467 300.00000000007475
    vertex 406.9800457161892 83.49999999981635 300.00000000019304
    vertex 431.9800457161893 73.49999999981647 300.0000000001733
  endloop
endfacet
facet normal 0.0 1.9698374875698473e-12 -1.0
  outer loop
    vertex 406.9800457161892 23.499999999816467 300.00000000007475
    vertex 431.9800457161893 73.49999999981647 300.0000000001733
    vertex 431.9800457161893 33.49999999981635 300.00000000009453
  endloop
endfacet
facet normal -0.9863939238321432 0.16439898730536162 3.2402327921735045e-13
  outer loop
    vertex 381.98004571618947 53.49999999981649 300.00000000013387
    vertex 386.9800457161894 83.4999999998155 300.500000000193
    vertex 386.9800457161894 83.49999999981635 300.00000000019304
  endloop
endfacet
facet normal -0.9863939238321432 0.16439898730536162 3.2402327921735045e-13
  outer loop
    vertex 386.9800457161894 83.4999999998155 300.500000000193
    vertex 381.98004571618947 53.49999999981649 300.00000000013387
    vertex 381.98004571618947 53.499999999815465 300.50000000013387
  endloop
endfacet
facet normal -0.7071067811865644 -1.3928861266855977e-12 0.7071067811865306
  outer loop
    vertex 381.98004571618947 23.49999999981543 300.50000000007475
    vertex 382.98004571618924 53.41723746951486 301.5000000001338
    vertex 381.98004571618947 53.499999999815465 300.50000000013387
  endloop
endfacet
facet normal -0.7071067811865644 -1.3928861266855977e-12 0.7071067811865306
  outer loop
    vertex 382.98004571618924 53.41723746951486 301.5000000001338
    vertex 381.98004571618947 23.49999999981543 300.50000000007475
    vertex 382.98004571618924 23.499999999813365 301.50000000007475
  endloop
endfacet
facet normal 1.0 0.0 0.0
  outer loop
    vertex 431.9800457161893 73.49999999981543 300.50000000017326
    vertex 431.9800457161893 33.49999999981635 300.00000000009453
    vertex 431.9800457161893 73.49999999981647 300.0000000001733
  endloop
endfacet
facet normal 1.0 0.0 0.0
  outer loop
    vertex 431.9800457161893 33.49999999981635 300.00000000009453
    vertex 431.9800457161893 73.49999999981543 300.50000000017326
    vertex 431.9800457161893 33.4999999998155 300.5000000000945
  endloop
endfacet
facet normal 0.3713906763541016 0.9284766908852603 1.8160579759759595e-12
  outer loop
    vertex 431.4026954469998 73.73094010748937 301.5000000001739
    vertex 406.9800457161892 83.49999999981635 300.00000000019304
    vertex 406.9800457161892 83.49999999981344 301.500000000193
  endloop
endfacet
facet normal 0.3713906763541016 0.9284766908852603 1.8160579759759595e-12
  outer loop
    vertex 406.9800457161892 83.49999999981635 300.00000000019304
    vertex 431.4026954469998 73.73094010748937 301.5000000001739
    vertex 431.9800457161893 73.49999999981543 300.50000000017326
  endloop
endfacet
facet normal 0.3713906763541016 0.9284766908852603 1.8160579759759595e-12
  outer loop
    vertex 406.9800457161892 83.49999999981635 300.00000000019304
    vertex 431.9800457161893 73.49999999981543 300.50000000017326
    vertex 431.9800457161893 73.49999999981647 300.0000000001733
  endloop
endfacet
facet normal 0.0 -1.0 -1.9698374875698473e-12
  outer loop
    vertex 381.98004571618947 23.49999999981543 300.50000000007475
    vertex 406.9800457161892 23.499999999813365 301.50000000007475
    vertex 382.98004571618924 23.499999999813365 301.50000000007475
  endloop
endfacet
facet normal 0.0 -1.0 -1.9698374875698473e-12
  outer loop
    vertex 406.9800457161892 23.499999999813365 301.50000000007475
    vertex 381.98004571618947 23.49999999981543 300.50000000007475
    vertex 406.9800457161892 23.499999999816467 300.00000000007475
  endloop
endfacet
facet normal 0.0 -1.0 -1.9698374875698473e-12
  outer loop
    vertex 406.9800457161892 23.499999999816467 300.00000000007475
    vertex 381.98004571618947 23.49999999981543 300.50000000007475
    vertex 381.98004571618947 23.499999999816467 300.00000000007475
  endloop
endfacet
facet normal -1.0 -0.0 0.0
  outer loop
    vertex 381.98004571618947 23.499999999816467 300.00000000007475
    vertex 381.98004571618947 53.499999999815465 300.50000000013387
    vertex 381.98004571618947 53.49999999981649 300.00000000013387
  endloop
endfacet
facet normal -1.0 -0.0 0.0
  outer loop
    vertex 381.98004571618947 53.499999999815465 300.50000000013387
    vertex 381.98004571618947 23.499999999816467 300.00000000007475
    vertex 381.98004571618947 23.49999999981543 300.50000000007475
  endloop
endfacet
facet normal 0.3713906763541025 -0.92847669088526 -1.8169503755496636e-12
  outer loop
    vertex 406.9800457161892 23.499999999813365 301.50000000007475
    vertex 431.9800457161893 33.4999999998155 300.5000000000945
    vertex 431.4026954469998 33.26905989213761 301.5000000000941
  endloop
endfacet
facet normal 0.3713906763541025 -0.92847669088526 -1.8169503755496636e-12
  outer loop
    vertex 431.9800457161893 33.4999999998155 300.5000000000945
    vertex 406.9800457161892 23.499999999813365 301.50000000007475
    vertex 406.9800457161892 23.499999999816467 300.00000000007475
  endloop
endfacet
facet normal 0.3713906763541025 -0.92847669088526 -1.8169503755496636e-12
  outer loop
    vertex 431.9800457161893 33.4999999998155 300.5000000000945
    vertex 406.9800457161892 23.499999999816467 300.00000000007475
    vertex 431.9800457161893 33.49999999981635 300.00000000009453
  endloop
endfacet
facet normal 0.0 1.0 1.9698374875698473e-12
  outer loop
    vertex 406.9800457161892 83.49999999981635 300.00000000019304
    vertex 387.99383947123926 83.49999999981344 301.500000000193
    vertex 406.9800457161892 83.49999999981344 301.500000000193
  endloop
endfacet
facet normal 0.0 1.0 1.9698374875698473e-12
  outer loop
    vertex 387.99383947123926 83.49999999981344 301.500000000193
    vertex 406.9800457161892 83.49999999981635 300.00000000019304
    vertex 386.9800457161894 83.4999999998155 300.500000000193
  endloop
endfacet
facet normal 0.0 1.0 1.9698374875698473e-12
  outer loop
    vertex 386.9800457161894 83.4999999998155 300.500000000193
    vertex 406.9800457161892 83.49999999981635 300.00000000019304
    vertex 386.9800457161894 83.49999999981635 300.00000000019304
  endloop
endfacet
endsolid ProtoGlove baseplate
