solid ProtoGlove baseplate
facet normal 0.0 1.9698374875698473e-12 1.0
  outer loop
    vertex 192.97302171618907 -54.499999999604995 301.50000000005514
    vertex 192.97302171618907 -94.37689437398718 301.50000000013375
    vertex 221.97302171618898 -54.499999999604995 301.50000000005514
  endloop
endfacet
facet normal 0.0 1.9698374875698473e-12 1.0
  outer loop
    vertex 203.003798122593 -134.4999999996052 301.50000000021276
    vertex 221.97302171618898 -54.499999999604995 301.50000000005514
    vertex 192.97302171618907 -94.37689437398718 301.50000000013375
  endloop
endfacet
facet normal 0.0 1.9698374875698473e-12 1.0
  outer loop
    vertex 221.97302171618898 -134.4999999996052 301.50000000021276
    vertex 221.97302171618898 -54.499999999604995 301.50000000005514
    vertex 203.003798122593 -134.4999999996052 301.50000000021276
  endloop
endfacet
facet normal 0.0 1.9698374875698473e-12 1.0
  outer loop
    vertex 261.3956714469998 -69.28349364865865 301.5000000000842
    vertex 221.97302171618898 -54.499999999604995 301.50000000005514
    vertex 221.97302171618898 -134.4999999996052 301.50000000021276
  endloop
endfacet
facet normal 0.0 1.9698374875698473e-12 1.0
  outer loop
    vertex 261.3956714469994 -119.71650635055083 301.50000000018355
    vertex 261.3956714469998 -69.28349364865865 301.5000000000842
    vertex 221.97302171618898 -134.4999999996052 301.50000000021276
  endloop
endfacet
facet normal -0.6859943405701207 -0.17149858514113228 0.7071067811867988
  outer loop
    vertex 191.9730217161893 -94.49999999960717 300.50000000013387
    vertex 201.97302171618918 -134.4999999996071 300.50000000021276
    vertex 192.97302171618907 -94.37689437398718 301.50000000013375
  endloop
endfacet
facet normal -0.6859943405701207 -0.17149858514113228 0.7071067811867988
  outer loop
    vertex 203.003798122593 -134.4999999996052 301.50000000021276
    vertex 192.97302171618907 -94.37689437398718 301.50000000013375
    vertex 201.97302171618918 -134.4999999996071 300.50000000021276
  endloop
endfacet
facet normal 0.3511234415883979 -0.9363291775690423 1.8767898531048786e-12
  outer loop
    vertex 221.97302171618898 -134.4999999996052 301.50000000021276
    vertex 221.97302171618898 -134.49999999960812 300.00000000021276
    vertex 261.3956714469994 -119.71650635055083 301.50000000018355
  endloop
endfacet
facet normal 0.3511234415883979 -0.9363291775690423 1.8767898531048786e-12
  outer loop
    vertex 261.97302171618924 -119.49999999960673 300.5000000001831
    vertex 261.3956714469994 -119.71650635055083 301.50000000018355
    vertex 221.97302171618898 -134.49999999960812 300.00000000021276
  endloop
endfacet
facet normal 0.3511234415883979 -0.9363291775690423 1.8767898531048786e-12
  outer loop
    vertex 261.97302171618924 -119.49999999960774 300.00000000018315
    vertex 261.97302171618924 -119.49999999960673 300.5000000001831
    vertex 221.97302171618898 -134.49999999960812 300.00000000021276
  endloop
endfacet
facet normal -0.9701425001453317 -0.24253562503633458 4.772128870405988e-13
  outer loop
    vertex 201.97302171618918 -134.49999999960812 300.00000000021276
    vertex 201.97302171618918 -134.4999999996071 300.50000000021276
    vertex 191.9730217161893 -94.49999999960801 300.00000000013387
  endloop
endfacet
facet normal -0.9701425001453317 -0.24253562503633458 4.772128870405988e-13
  outer loop
    vertex 191.9730217161893 -94.49999999960717 300.50000000013387
    vertex 191.9730217161893 -94.49999999960801 300.00000000013387
    vertex 201.97302171618918 -134.4999999996071 300.50000000021276
  endloop
endfacet
facet normal 0.8660254037843951 9.833559392103286e-13 0.5000000000000756
  outer loop
    vertex 261.3956714469994 -119.71650635055083 301.50000000018355
    vertex 261.97302171618924 -119.49999999960673 300.5000000001831
    vertex 261.3956714469998 -69.28349364865865 301.5000000000842
  endloop
endfacet
facet normal 0.8660254037843951 9.833559392103286e-13 0.5000000000000756
  outer loop
    vertex 261.97302171618924 -69.49999999960671 300.50000000008464
    vertex 261.3956714469998 -69.28349364865865 301.5000000000842
    vertex 261.97302171618924 -119.49999999960673 300.5000000001831
  endloop
endfacet
facet normal 0.0 -1.9698374875698473e-12 -1.0
  outer loop
    vertex 191.9730217161893 -94.49999999960801 300.00000000013387
    vertex 191.9730217161893 -54.49999999960809 300.0000000000552
    vertex 201.97302171618918 -134.49999999960812 300.00000000021276
  endloop
endfacet
facet normal 0.0 -1.9698374875698473e-12 -1.0
  outer loop
    vertex 221.97302171618898 -54.49999999960809 300.0000000000552
    vertex 201.97302171618918 -134.49999999960812 300.00000000021276
    vertex 191.9730217161893 -54.49999999960809 300.0000000000552
  endloop
endfacet
facet normal 0.0 -1.9698374875698473e-12 -1.0
  outer loop
    vertex 221.97302171618898 -134.49999999960812 300.00000000021276
    vertex 201.97302171618918 -134.49999999960812 300.00000000021276
    vertex 221.97302171618898 -54.49999999960809 300.0000000000552
  endloop
endfacet
facet normal 0.0 -1.9698374875698473e-12 -1.0
  outer loop
    vertex 261.97302171618924 -119.49999999960774 300.00000000018315
    vertex 221.97302171618898 -134.49999999960812 300.00000000021276
    vertex 221.97302171618898 -54.49999999960809 300.0000000000552
  endloop
endfacet
facet normal 0.0 -1.9698374875698473e-12 -1.0
  outer loop
    vertex 261.97302171618924 -69.49999999960775 300.00000000008464
    vertex 261.97302171618924 -119.49999999960774 300.00000000018315
    vertex 221.97302171618898 -54.49999999960809 300.0000000000552
  endloop
endfacet
facet normal 0.0 -1.0 1.9698374875698473e-12
  outer loop
    vertex 221.97302171618898 -134.4999999996052 301.50000000021276
    vertex 203.003798122593 -134.4999999996052 301.50000000021276
    vertex 221.97302171618898 -134.49999999960812 300.00000000021276
  endloop
endfacet
facet normal 0.0 -1.0 1.9698374875698473e-12
  outer loop
    vertex 201.97302171618918 -134.4999999996071 300.50000000021276
    vertex 221.97302171618898 -134.49999999960812 300.00000000021276
    vertex 203.003798122593 -134.4999999996052 301.50000000021276
  endloop
endfacet
facet normal 0.0 -1.0 1.9698374875698473e-12
  outer loop
    vertex 201.97302171618918 -134.49999999960812 300.00000000021276
    vertex 221.97302171618898 -134.49999999960812 300.00000000021276
    vertex 201.97302171618918 -134.4999999996071 300.50000000021276
  endloop
endfacet
facet normal 0.0 1.0 -1.9698374875698473e-12
  outer loop
    vertex 192.97302171618907 -54.499999999604995 301.50000000005514
    vertex 221.97302171618898 -54.499999999604995 301.50000000005514
    vertex 191.9730217161893 -54.499999999607056 300.50000000005514
  endloop
endfacet
facet normal 0.0 1.0 -1.9698374875698473e-12
  outer loop
    vertex 221.97302171618898 -54.49999999960809 300.0000000000552
    vertex 191.9730217161893 -54.499999999607056 300.50000000005514
    vertex 221.97302171618898 -54.499999999604995 301.50000000005514
  endloop
endfacet
facet normal 0.0 1.0 -1.9698374875698473e-12
  outer loop
    vertex 191.9730217161893 -54.49999999960809 300.0000000000552
    vertex 191.9730217161893 -54.499999999607056 300.50000000005514
    vertex 221.97302171618898 -54.49999999960809 300.0000000000552
  endloop
endfacet
facet normal -0.7071067811865644 1.3928857627642322e-12 0.7071067811865306
  outer loop
    vertex 191.9730217161893 -94.49999999960717 300.50000000013387
    vertex 192.97302171618907 -94.37689437398718 301.50000000013375
    vertex 191.9730217161893 -54.499999999607056 300.50000000005514
  endloop
endfacet
facet normal -0.7071067811865644 1.3928857627642322e-12 0.7071067811865306
  outer loop
    vertex 192.97302171618907 -54.499999999604995 301.50000000005514
    vertex 191.9730217161893 -54.499999999607056 300.50000000005514
    vertex 192.97302171618907 -94.37689437398718 301.50000000013375
  endloop
endfacet
facet normal 1.0 0.0 0.0
  outer loop
    vertex 261.97302171618924 -119.49999999960774 300.00000000018315
    vertex 261.97302171618924 -69.49999999960775 300.00000000008464
    vertex 261.97302171618924 -119.49999999960673 300.5000000001831
  endloop
endfacet
facet normal 1.0 0.0 0.0
  outer loop
    vertex 261.97302171618924 -69.49999999960671 300.50000000008464
    vertex 261.97302171618924 -119.49999999960673 300.5000000001831
    vertex 261.97302171618924 -69.49999999960775 300.00000000008464
  endloop
endfacet
facet normal -1.0 0.0 0.0
  outer loop
    vertex 191.9730217161893 -94.49999999960801 300.00000000013387
    vertex 191.9730217161893 -94.49999999960717 300.50000000013387
    vertex 191.9730217161893 -54.49999999960809 300.0000000000552
  endloop
endfacet
facet normal -1.0 0.0 0.0
  outer loop
    vertex 191.9730217161893 -54.499999999607056 300.50000000005514
    vertex 191.9730217161893 -54.49999999960809 300.0000000000552
    vertex 191.9730217161893 -94.49999999960717 300.50000000013387
  endloop
endfacet
facet normal 0.3511234415883819 0.9363291775690483 -1.869569855326893e-12
  outer loop
    vertex 261.3956714469998 -69.28349364865865 301.5000000000842
    vertex 261.97302171618924 -69.49999999960671 300.50000000008464
    vertex 221.97302171618898 -54.499999999604995 301.50000000005514
  endloop
endfacet
facet normal 0.3511234415883819 0.9363291775690483 -1.869569855326893e-12
  outer loop
    vertex 221.97302171618898 -54.49999999960809 300.0000000000552
    vertex 221.97302171618898 -54.499999999604995 301.50000000005514
    vertex 261.97302171618924 -69.49999999960671 300.50000000008464
  endloop
endfacet
facet normal 0.3511234415883819 0.9363291775690483 -1.869569855326893e-12
  outer loop
    vertex 261.97302171618924 -69.49999999960775 300.00000000008464
    vertex 221.97302171618898 -54.49999999960809 300.0000000000552
    vertex 261.97302171618924 -69.49999999960671 300.50000000008464
  endloop
endfacet
endsolid ProtoGlove baseplate
