solid ProtoGlove baseplate
facet normal -0.685994340570054 -0.17149858514111904 0.7071067811868667
  outer loop
    vertex 7.219114195322617e-13 -94.49999999960717 300.50000000013387
    vertex 12.500000000000767 -144.49999999960718 300.5000000002324
    vertex 1.0000000000008555 -94.37689437398755 301.50000000013375
  endloop
endfacet
facet normal -0.685994340570054 -0.17149858514111904 0.7071067811868667
  outer loop
    vertex 13.530776406404927 -144.49999999960528 301.5000000002324
    vertex 1.0000000000008555 -94.37689437398755 301.50000000013375
    vertex 12.500000000000767 -144.49999999960718 300.5000000002324
  endloop
endfacet
facet normal -2.376428116936286e-18 1.969838189529737e-12 1.0
  outer loop
    vertex 1.0000000000008555 -44.4999999996051 301.5000000000354
    vertex 1.0000000000008555 -94.37689437398755 301.50000000013375
    vertex 32.50000000000073 -44.4999999996051 301.5000000000354
  endloop
endfacet
facet normal -2.376428116936286e-18 1.969838189529737e-12 1.0
  outer loop
    vertex 13.530776406404927 -144.49999999960528 301.5000000002324
    vertex 32.50000000000073 -44.4999999996051 301.5000000000354
    vertex 1.0000000000008555 -94.37689437398755 301.50000000013375
  endloop
endfacet
facet normal -2.376428116936286e-18 1.969838189529737e-12 1.0
  outer loop
    vertex 32.50000000000091 -144.4999999996051 301.5000000002324
    vertex 32.50000000000073 -44.4999999996051 301.5000000000354
    vertex 13.530776406404927 -144.49999999960528 301.5000000002324
  endloop
endfacet
facet normal -2.376428116936286e-18 1.969838189529737e-12 1.0
  outer loop
    vertex 79.42264973081146 -64.25690514941999 301.50000000007435
    vertex 32.50000000000073 -44.4999999996051 301.5000000000354
    vertex 32.50000000000091 -144.4999999996051 301.5000000002324
  endloop
endfacet
facet normal -2.376428116936286e-18 1.969838189529737e-12 1.0
  outer loop
    vertex 79.4226497308111 -124.74309484979038 301.5000000001935
    vertex 79.42264973081146 -64.25690514941999 301.50000000007435
    vertex 32.50000000000091 -144.4999999996051 301.5000000002324
  endloop
endfacet
facet normal 0.0 1.0 -1.9698374875698473e-12
  outer loop
    vertex 1.0000000000008555 -44.4999999996051 301.5000000000354
    vertex 32.50000000000073 -44.4999999996051 301.5000000000354
    vertex 7.219114195322617e-13 -44.49999999960716 300.5000000000354
  endloop
endfacet
facet normal 0.0 1.0 -1.9698374875698473e-12
  outer loop
    vertex 32.50000000000073 -44.4999999996082 300.0000000000354
    vertex 7.219114195322617e-13 -44.49999999960716 300.5000000000354
    vertex 32.50000000000073 -44.4999999996051 301.5000000000354
  endloop
endfacet
facet normal 0.0 1.0 -1.9698374875698473e-12
  outer loop
    vertex 7.219114195322617e-13 -44.4999999996082 300.0000000000354
    vertex 7.219114195322617e-13 -44.49999999960716 300.5000000000354
    vertex 32.50000000000073 -44.4999999996082 300.0000000000354
  endloop
endfacet
facet normal -0.7071067811865326 1.3928853390829673e-12 0.7071067811865626
  outer loop
    vertex 7.219114195322617e-13 -44.49999999960716 300.5000000000354
    vertex 7.219114195322617e-13 -94.49999999960717 300.50000000013387
    vertex 1.0000000000008555 -44.4999999996051 301.5000000000354
  endloop
endfacet
facet normal -0.7071067811865326 1.3928853390829673e-12 0.7071067811865626
  outer loop
    vertex 1.0000000000008555 -94.37689437398755 301.50000000013375
    vertex 1.0000000000008555 -44.4999999996051 301.5000000000354
    vertex 7.219114195322617e-13 -94.49999999960717 300.50000000013387
  endloop
endfacet
facet normal 0.38805700005813076 0.9216353751380664 -1.851719328186279e-12
  outer loop
    vertex 79.42264973081146 -64.25690514941999 301.50000000007435
    vertex 80.00000000000094 -64.49999999960713 300.50000000007475
    vertex 32.50000000000073 -44.4999999996051 301.5000000000354
  endloop
endfacet
facet normal 0.38805700005813076 0.9216353751380664 -1.851719328186279e-12
  outer loop
    vertex 32.50000000000073 -44.4999999996082 300.0000000000354
    vertex 32.50000000000073 -44.4999999996051 301.5000000000354
    vertex 80.00000000000094 -64.49999999960713 300.50000000007475
  endloop
endfacet
facet normal 0.38805700005813076 0.9216353751380664 -1.851719328186279e-12
  outer loop
    vertex 80.00000000000094 -64.49999999960816 300.0000000000748
    vertex 32.50000000000073 -44.4999999996082 300.0000000000354
    vertex 80.00000000000094 -64.49999999960713 300.50000000007475
  endloop
endfacet
facet normal 0.8660254037844967 9.823153952732094e-13 0.4999999999998997
  outer loop
    vertex 79.4226497308111 -124.74309484979038 301.5000000001935
    vertex 80.00000000000094 -124.49999999960721 300.50000000019304
    vertex 79.42264973081146 -64.25690514941999 301.50000000007435
  endloop
endfacet
facet normal 0.8660254037844967 9.823153952732094e-13 0.4999999999998997
  outer loop
    vertex 80.00000000000094 -64.49999999960713 300.50000000007475
    vertex 79.42264973081146 -64.25690514941999 301.50000000007435
    vertex 80.00000000000094 -124.49999999960721 300.50000000019304
  endloop
endfacet
facet normal 0.0 -1.9698374875698473e-12 -1.0
  outer loop
    vertex 7.219114195322617e-13 -94.49999999960819 300.0000000001339
    vertex 7.219114195322617e-13 -44.4999999996082 300.0000000000354
    vertex 12.500000000000767 -144.49999999960818 300.0000000002324
  endloop
endfacet
facet normal 0.0 -1.9698374875698473e-12 -1.0
  outer loop
    vertex 32.50000000000073 -44.4999999996082 300.0000000000354
    vertex 12.500000000000767 -144.49999999960818 300.0000000002324
    vertex 7.219114195322617e-13 -44.4999999996082 300.0000000000354
  endloop
endfacet
facet normal 0.0 -1.9698374875698473e-12 -1.0
  outer loop
    vertex 32.50000000000073 -144.49999999960818 300.0000000002324
    vertex 12.500000000000767 -144.49999999960818 300.0000000002324
    vertex 32.50000000000073 -44.4999999996082 300.0000000000354
  endloop
endfacet
facet normal 0.0 -1.9698374875698473e-12 -1.0
  outer loop
    vertex 80.00000000000094 -124.49999999960822 300.00000000019304
    vertex 32.50000000000073 -144.49999999960818 300.0000000002324
    vertex 32.50000000000073 -44.4999999996082 300.0000000000354
  endloop
endfacet
facet normal 0.0 -1.9698374875698473e-12 -1.0
  outer loop
    vertex 80.00000000000094 -64.49999999960816 300.0000000000748
    vertex 80.00000000000094 -124.49999999960822 300.00000000019304
    vertex 32.50000000000073 -44.4999999996082 300.0000000000354
  endloop
endfacet
facet normal 2.255973186038312e-15 -1.0 1.999917130050358e-12
  outer loop
    vertex 32.50000000000091 -144.4999999996051 301.5000000002324
    vertex 13.530776406404927 -144.49999999960528 301.5000000002324
    vertex 32.50000000000073 -144.49999999960818 300.0000000002324
  endloop
endfacet
facet normal 2.255973186038312e-15 -1.0 1.999917130050358e-12
  outer loop
    vertex 12.500000000000767 -144.49999999960718 300.5000000002324
    vertex 32.50000000000073 -144.49999999960818 300.0000000002324
    vertex 13.530776406404927 -144.49999999960528 301.5000000002324
  endloop
endfacet
facet normal 2.255973186038312e-15 -1.0 1.999917130050358e-12
  outer loop
    vertex 12.500000000000767 -144.49999999960818 300.0000000002324
    vertex 32.50000000000073 -144.49999999960818 300.0000000002324
    vertex 12.500000000000767 -144.49999999960718 300.5000000002324
  endloop
endfacet
facet normal -0.9701425001453321 -0.2425356250363321 4.77755766267751e-13
  outer loop
    vertex 12.500000000000767 -144.49999999960818 300.0000000002324
    vertex 12.500000000000767 -144.49999999960718 300.5000000002324
    vertex 7.219114195322617e-13 -94.49999999960819 300.0000000001339
  endloop
endfacet
facet normal -0.9701425001453321 -0.2425356250363321 4.77755766267751e-13
  outer loop
    vertex 7.219114195322617e-13 -94.49999999960717 300.50000000013387
    vertex 7.219114195322617e-13 -94.49999999960819 300.0000000001339
    vertex 12.500000000000767 -144.49999999960718 300.5000000002324
  endloop
endfacet
facet normal -1.0 0.0 0.0
  outer loop
    vertex 7.219114195322617e-13 -94.49999999960819 300.0000000001339
    vertex 7.219114195322617e-13 -94.49999999960717 300.50000000013387
    vertex 7.219114195322617e-13 -44.4999999996082 300.0000000000354
  endloop
endfacet
facet normal -1.0 0.0 0.0
  outer loop
    vertex 7.219114195322617e-13 -44.49999999960716 300.5000000000354
    vertex 7.219114195322617e-13 -44.4999999996082 300.0000000000354
    vertex 7.219114195322617e-13 -94.49999999960717 300.50000000013387
  endloop
endfacet
facet normal 0.38805700005813154 -0.9216353751380659 1.835056336780912e-12
  outer loop
    vertex 32.50000000000091 -144.4999999996051 301.5000000002324
    vertex 32.50000000000073 -144.49999999960818 300.0000000002324
    vertex 79.4226497308111 -124.74309484979038 301.5000000001935
  endloop
endfacet
facet normal 0.38805700005813154 -0.9216353751380659 1.835056336780912e-12
  outer loop
    vertex 80.00000000000094 -124.49999999960721 300.50000000019304
    vertex 79.4226497308111 -124.74309484979038 301.5000000001935
    vertex 32.50000000000073 -144.49999999960818 300.0000000002324
  endloop
endfacet
facet normal 0.38805700005813154 -0.9216353751380659 1.835056336780912e-12
  outer loop
    vertex 80.00000000000094 -124.49999999960822 300.00000000019304
    vertex 80.00000000000094 -124.49999999960721 300.50000000019304
    vertex 32.50000000000073 -144.49999999960818 300.0000000002324
  endloop
endfacet
facet normal 1.0 0.0 0.0
  outer loop
    vertex 80.00000000000094 -124.49999999960822 300.00000000019304
    vertex 80.00000000000094 -64.49999999960816 300.0000000000748
    vertex 80.00000000000094 -124.49999999960721 300.50000000019304
  endloop
endfacet
facet normal 1.0 0.0 0.0
  outer loop
    vertex 80.00000000000094 -64.49999999960713 300.50000000007475
    vertex 80.00000000000094 -124.49999999960721 300.50000000019304
    vertex 80.00000000000094 -64.49999999960816 300.0000000000748
  endloop
endfacet
endsolid ProtoGlove baseplate
