solid ProtoGlove
facet normal 7.154470392932133e-20 -0.6087614290087409 -0.7933533402912198
  outer loop
    vertex -255.0000000000004 -219.61816900000076 -1.0656745115973594
    vertex -259.89644660940706 -219.72172239059404 -0.9862152002984171
    vertex -260.0000000000004 -219.61816900000076 -1.0656745115973594
  endloop
endfacet
facet normal 7.154470392932133e-20 -0.6087614290087409 -0.7933533402912198
  outer loop
    vertex -259.89644660940706 -219.72172239059404 -0.9862152002984171
    vertex -255.0000000000004 -219.61816900000076 -1.0656745115973594
    vertex -255.10355339059365 -219.72172239059404 -0.9862152002984171
  endloop
endfacet
facet normal -5.909794102370587e-19 0.5078217901011423 0.8614621462945843
  outer loop
    vertex -252.50000000000043 -211.1181690000008 1.2740714505582513
    vertex -260.00000000000034 -208.61816900000073 -0.19964910781292575
    vertex -262.5000000000004 -211.1181690000008 1.2740714505582513
  endloop
endfacet
facet normal -5.909794102370587e-19 0.5078217901011423 0.8614621462945843
  outer loop
    vertex -260.00000000000034 -208.61816900000073 -0.19964910781292575
    vertex -252.50000000000043 -211.1181690000008 1.2740714505582513
    vertex -255.0000000000004 -208.61816900000073 -0.19964910781292575
  endloop
endfacet
facet normal 1.7172940227671052e-18 0.39989202431971366 -0.9165622558699881
  outer loop
    vertex -253.1534102436644 -217.7715792436647 -0.4171910629997058
    vertex -261.16116260882484 -218.45700639117638 -0.716239870417553
    vertex -261.8465897563364 -217.7715792436647 -0.4171910629997058
  endloop
endfacet
facet normal 1.7172940227671052e-18 0.39989202431971366 -0.9165622558699881
  outer loop
    vertex -261.16116260882484 -218.45700639117638 -0.716239870417553
    vertex -253.1534102436644 -217.7715792436647 -0.4171910629997058
    vertex -253.83883739117596 -218.45700639117638 -0.716239870417553
  endloop
endfacet
facet normal -0.707106781186542 -0.707106781186553 3.608829354732451e-15
  outer loop
    vertex -260.1205904774491 -219.497578522552 -1.1156247228496843
    vertex -260.3794095225516 -219.23875947744955 -1.1156247228496843
    vertex -260.25000000000034 -219.36816900000073 -1.1326618097051415
  endloop
endfacet
facet normal -0.707106781186542 -0.707106781186553 3.608829354732451e-15
  outer loop
    vertex -260.3794095225516 -219.23875947744955 -1.1156247228496843
    vertex -260.1205904774491 -219.497578522552 -1.1156247228496843
    vertex -260.0000000000004 -219.61816900000076 -1.0656745115973594
  endloop
endfacet
facet normal -0.707106781186542 -0.707106781186553 3.608829354732451e-15
  outer loop
    vertex -260.3794095225516 -219.23875947744955 -1.1156247228496843
    vertex -260.0000000000004 -219.61816900000076 -1.0656745115973594
    vertex -260.5000000000004 -219.1181690000008 -1.0656745115973594
  endloop
endfacet
facet normal -0.707106781186542 -0.707106781186553 3.608829354732451e-15
  outer loop
    vertex -260.5000000000004 -219.1181690000008 -1.0656745115973594
    vertex -260.0000000000004 -219.61816900000076 -1.0656745115973594
    vertex -259.89644660940706 -219.72172239059404 -0.9862152002984171
  endloop
endfacet
facet normal -0.707106781186542 -0.707106781186553 3.608829354732451e-15
  outer loop
    vertex -260.5000000000004 -219.1181690000008 -1.0656745115973594
    vertex -259.89644660940706 -219.72172239059404 -0.9862152002984171
    vertex -261.16116260882484 -218.45700639117638 -0.716239870417553
  endloop
endfacet
facet normal -0.707106781186542 -0.707106781186553 3.608829354732451e-15
  outer loop
    vertex -261.16116260882484 -218.45700639117638 -0.716239870417553
    vertex -259.89644660940706 -219.72172239059404 -0.9862152002984171
    vertex -259.8169872981082 -219.801181701893 -0.8826618097051421
  endloop
endfacet
facet normal -0.707106781186542 -0.707106781186553 3.608829354732451e-15
  outer loop
    vertex -261.16116260882484 -218.45700639117638 -0.716239870417553
    vertex -259.8169872981082 -219.801181701893 -0.8826618097051421
    vertex -259.7670370868558 -219.85113191314528 -0.7620713322564096
  endloop
endfacet
facet normal -0.707106781186542 -0.707106781186553 3.608829354732451e-15
  outer loop
    vertex -261.16116260882484 -218.45700639117638 -0.716239870417553
    vertex -259.7670370868558 -219.85113191314528 -0.7620713322564096
    vertex -259.7500000000004 -219.8681690000008 -0.6326618097051425
  endloop
endfacet
facet normal -0.707106781186542 -0.707106781186553 3.608829354732451e-15
  outer loop
    vertex -261.16116260882484 -218.45700639117638 -0.716239870417553
    vertex -259.7500000000004 -219.8681690000008 -0.6326618097051425
    vertex -261.8465897563364 -217.7715792436647 -0.4171910629997058
  endloop
endfacet
facet normal -0.707106781186542 -0.707106781186553 3.608829354732451e-15
  outer loop
    vertex -261.8465897563364 -217.7715792436647 -0.4171910629997058
    vertex -259.7500000000004 -219.8681690000008 -0.6326618097051425
    vertex -259.7670370868558 -219.85113191314528 -0.5032522871538868
  endloop
endfacet
facet normal -0.707106781186542 -0.707106781186553 3.608829354732451e-15
  outer loop
    vertex -261.8465897563364 -217.7715792436647 -0.4171910629997058
    vertex -259.7670370868558 -219.85113191314528 -0.5032522871538868
    vertex -259.8169872981082 -219.801181701893 -0.38266180970514296
  endloop
endfacet
facet normal -0.707106781186542 -0.707106781186553 3.608829354732451e-15
  outer loop
    vertex -261.8465897563364 -217.7715792436647 -0.4171910629997058
    vertex -259.8169872981082 -219.801181701893 -0.38266180970514296
    vertex -262.5000000000004 -217.1181690000008 -0.1885529300657094
  endloop
endfacet
facet normal -0.707106781186542 -0.707106781186553 3.608829354732451e-15
  outer loop
    vertex -262.5000000000004 -217.1181690000008 -0.1885529300657094
    vertex -259.8169872981082 -219.801181701893 -0.38266180970514296
    vertex -259.89644660940706 -219.72172239059404 -0.27910841911186784
  endloop
endfacet
facet normal -0.707106781186542 -0.707106781186553 3.608829354732451e-15
  outer loop
    vertex -262.5000000000004 -217.1181690000008 -0.1885529300657094
    vertex -259.89644660940706 -219.72172239059404 -0.27910841911186784
    vertex -260.00000000000034 -219.61816900000076 -0.19964910781292575
  endloop
endfacet
facet normal -0.707106781186542 -0.707106781186553 3.608829354732451e-15
  outer loop
    vertex -262.5000000000004 -217.1181690000008 -0.1885529300657094
    vertex -260.00000000000034 -219.61816900000076 -0.19964910781292575
    vertex -262.5000000000004 -217.1181690000008 1.2740714505582513
  endloop
endfacet
facet normal 1.4449020923548966e-19 -0.38268343236508334 -0.9238795325112895
  outer loop
    vertex -254.8794095225516 -219.497578522552 -1.1156247228496843
    vertex -260.0000000000004 -219.61816900000076 -1.0656745115973594
    vertex -260.1205904774491 -219.497578522552 -1.1156247228496843
  endloop
endfacet
facet normal 1.4449020923548966e-19 -0.38268343236508334 -0.9238795325112895
  outer loop
    vertex -260.0000000000004 -219.61816900000076 -1.0656745115973594
    vertex -254.8794095225516 -219.497578522552 -1.1156247228496843
    vertex -255.0000000000004 -219.61816900000076 -1.0656745115973594
  endloop
endfacet
facet normal 1.6354951686907874e-16 0.9914448613738638 0.13052619221964729
  outer loop
    vertex -259.7670370868558 -208.38520608685621 -0.5032522871538755
    vertex -255.25000000000034 -208.3681690000008 -0.6326618097051425
    vertex -259.7500000000004 -208.3681690000008 -0.6326618097051425
  endloop
endfacet
facet normal 1.6354951686907874e-16 0.9914448613738638 0.13052619221964729
  outer loop
    vertex -255.25000000000034 -208.3681690000008 -0.6326618097051425
    vertex -259.7670370868558 -208.38520608685621 -0.5032522871538755
    vertex -255.23296291314492 -208.38520608685621 -0.5032522871538868
  endloop
endfacet
facet normal 0.0 0.037391194276329795 -0.9993007047883984
  outer loop
    vertex -252.50000000000043 -214.11816900000076 0.27407145055825327
    vertex -262.5000000000004 -214.86546993586504 0.2461094223700505
    vertex -262.5000000000004 -214.11816900000076 0.27407145055825327
  endloop
endfacet
facet normal 0.0 0.037391194276329795 -0.9993007047883984
  outer loop
    vertex -262.5000000000004 -214.86546993586504 0.2461094223700505
    vertex -252.50000000000043 -214.11816900000076 0.27407145055825327
    vertex -252.50000000000043 -214.86546993586504 0.2461094223700505
  endloop
endfacet
facet normal 0.0 0.6087614290087409 0.7933533402912198
  outer loop
    vertex -255.0000000000004 -208.61816900000073 -0.19964910781292575
    vertex -259.89644660940706 -208.51461560940749 -0.27910841911186784
    vertex -260.00000000000034 -208.61816900000073 -0.19964910781292575
  endloop
endfacet
facet normal 0.0 0.6087614290087409 0.7933533402912198
  outer loop
    vertex -259.89644660940706 -208.51461560940749 -0.27910841911186784
    vertex -255.0000000000004 -208.61816900000073 -0.19964910781292575
    vertex -255.10355339059365 -208.51461560940749 -0.27910841911186784
  endloop
endfacet
facet normal -4.655425131382893e-16 -0.9238795325113801 0.3826834323648646
  outer loop
    vertex -255.23296291314492 -219.85113191314528 -0.5032522871538755
    vertex -259.8169872981082 -219.801181701893 -0.38266180970514296
    vertex -259.7670370868558 -219.85113191314528 -0.5032522871538868
  endloop
endfacet
facet normal -4.655425131382893e-16 -0.9238795325113801 0.3826834323648646
  outer loop
    vertex -259.8169872981082 -219.801181701893 -0.38266180970514296
    vertex -255.23296291314492 -219.85113191314528 -0.5032522871538755
    vertex -255.18301270189255 -219.801181701893 -0.38266180970514296
  endloop
endfacet
facet normal 0.0 -0.6087614290087409 0.7933533402912198
  outer loop
    vertex -259.89644660940706 -219.72172239059404 -0.27910841911186784
    vertex -255.0000000000004 -219.61816900000076 -0.19964910781292575
    vertex -260.00000000000034 -219.61816900000076 -0.19964910781292575
  endloop
endfacet
facet normal 0.0 -0.6087614290087409 0.7933533402912198
  outer loop
    vertex -255.0000000000004 -219.61816900000076 -0.19964910781292575
    vertex -259.89644660940706 -219.72172239059404 -0.27910841911186784
    vertex -255.10355339059365 -219.72172239059404 -0.27910841911186784
  endloop
endfacet
facet normal 0.0 0.7933533402914188 0.6087614290084815
  outer loop
    vertex -259.89644660940706 -208.51461560940749 -0.27910841911186784
    vertex -255.18301270189255 -208.43515629810858 -0.38266180970514296
    vertex -259.8169872981082 -208.43515629810858 -0.38266180970514296
  endloop
endfacet
facet normal 0.0 0.7933533402914188 0.6087614290084815
  outer loop
    vertex -255.18301270189255 -208.43515629810858 -0.38266180970514296
    vertex -259.89644660940706 -208.51461560940749 -0.27910841911186784
    vertex -255.10355339059365 -208.51461560940749 -0.27910841911186784
  endloop
endfacet
facet normal 0.707106781186554 -0.7071067811865411 3.2950181064949482e-15
  outer loop
    vertex -255.23296291314492 -219.85113191314528 -0.7620713322564096
    vertex -255.23296291314492 -219.85113191314528 -0.5032522871538755
    vertex -255.25000000000034 -219.8681690000008 -0.6326618097051425
  endloop
endfacet
facet normal 0.707106781186554 -0.7071067811865411 3.2950181064949482e-15
  outer loop
    vertex -255.23296291314492 -219.85113191314528 -0.5032522871538755
    vertex -255.23296291314492 -219.85113191314528 -0.7620713322564096
    vertex -255.18301270189255 -219.801181701893 -0.8826618097051421
  endloop
endfacet
facet normal 0.707106781186554 -0.7071067811865411 3.2950181064949482e-15
  outer loop
    vertex -255.23296291314492 -219.85113191314528 -0.5032522871538755
    vertex -255.18301270189255 -219.801181701893 -0.8826618097051421
    vertex -255.18301270189255 -219.801181701893 -0.38266180970514296
  endloop
endfacet
facet normal 0.707106781186554 -0.7071067811865411 3.2950181064949482e-15
  outer loop
    vertex -255.18301270189255 -219.801181701893 -0.38266180970514296
    vertex -255.18301270189255 -219.801181701893 -0.8826618097051421
    vertex -255.10355339059365 -219.72172239059404 -0.9862152002984171
  endloop
endfacet
facet normal 0.707106781186554 -0.7071067811865411 3.2950181064949482e-15
  outer loop
    vertex -255.18301270189255 -219.801181701893 -0.38266180970514296
    vertex -255.10355339059365 -219.72172239059404 -0.9862152002984171
    vertex -255.10355339059365 -219.72172239059404 -0.27910841911186784
  endloop
endfacet
facet normal 0.707106781186554 -0.7071067811865411 3.2950181064949482e-15
  outer loop
    vertex -255.10355339059365 -219.72172239059404 -0.27910841911186784
    vertex -255.10355339059365 -219.72172239059404 -0.9862152002984171
    vertex -255.0000000000004 -219.61816900000076 -1.0656745115973594
  endloop
endfacet
facet normal 0.707106781186554 -0.7071067811865411 3.2950181064949482e-15
  outer loop
    vertex -255.10355339059365 -219.72172239059404 -0.27910841911186784
    vertex -255.0000000000004 -219.61816900000076 -1.0656745115973594
    vertex -255.0000000000004 -219.61816900000076 -0.19964910781292575
  endloop
endfacet
facet normal 0.707106781186554 -0.7071067811865411 3.2950181064949482e-15
  outer loop
    vertex -255.0000000000004 -219.61816900000076 -0.19964910781292575
    vertex -255.0000000000004 -219.61816900000076 -1.0656745115973594
    vertex -254.8794095225516 -219.497578522552 -1.1156247228496843
  endloop
endfacet
facet normal 0.707106781186554 -0.7071067811865411 3.2950181064949482e-15
  outer loop
    vertex -255.0000000000004 -219.61816900000076 -0.19964910781292575
    vertex -254.8794095225516 -219.497578522552 -1.1156247228496843
    vertex -252.50000000000043 -217.1181690000008 1.2740714505582513
  endloop
endfacet
facet normal 0.707106781186554 -0.7071067811865411 3.2950181064949482e-15
  outer loop
    vertex -252.50000000000043 -217.1181690000008 1.2740714505582513
    vertex -254.8794095225516 -219.497578522552 -1.1156247228496843
    vertex -254.75000000000037 -219.36816900000073 -1.1326618097051415
  endloop
endfacet
facet normal 0.707106781186554 -0.7071067811865411 3.2950181064949482e-15
  outer loop
    vertex -252.50000000000043 -217.1181690000008 1.2740714505582513
    vertex -254.75000000000037 -219.36816900000073 -1.1326618097051415
    vertex -254.6205904774491 -219.23875947744955 -1.1156247228496843
  endloop
endfacet
facet normal 0.707106781186554 -0.7071067811865411 3.2950181064949482e-15
  outer loop
    vertex -252.50000000000043 -217.1181690000008 1.2740714505582513
    vertex -254.6205904774491 -219.23875947744955 -1.1156247228496843
    vertex -254.5000000000003 -219.1181690000008 -1.0656745115973594
  endloop
endfacet
facet normal 0.707106781186554 -0.7071067811865411 3.2950181064949482e-15
  outer loop
    vertex -252.50000000000043 -217.1181690000008 1.2740714505582513
    vertex -254.5000000000003 -219.1181690000008 -1.0656745115973594
    vertex -253.83883739117596 -218.45700639117638 -0.716239870417553
  endloop
endfacet
facet normal 0.707106781186554 -0.7071067811865411 3.2950181064949482e-15
  outer loop
    vertex -252.50000000000043 -217.1181690000008 1.2740714505582513
    vertex -253.83883739117596 -218.45700639117638 -0.716239870417553
    vertex -253.1534102436644 -217.7715792436647 -0.4171910629997058
  endloop
endfacet
facet normal 0.707106781186554 -0.7071067811865411 3.2950181064949482e-15
  outer loop
    vertex -252.50000000000043 -217.1181690000008 1.2740714505582513
    vertex -253.1534102436644 -217.7715792436647 -0.4171910629997058
    vertex -252.50000000000043 -217.1181690000008 -0.1885529300657094
  endloop
endfacet
facet normal 0.0 -0.38268343236508334 -0.9238795325112895
  outer loop
    vertex -260.3794095225516 -208.99757852255203 -1.1156247228496843
    vertex -254.5000000000003 -209.1181690000008 -1.0656745115973594
    vertex -260.5000000000004 -209.1181690000008 -1.0656745115973594
  endloop
endfacet
facet normal 0.0 -0.38268343236508334 -0.9238795325112895
  outer loop
    vertex -254.5000000000003 -209.1181690000008 -1.0656745115973594
    vertex -260.3794095225516 -208.99757852255203 -1.1156247228496843
    vertex -254.6205904774491 -208.99757852255203 -1.1156247228496843
  endloop
endfacet
facet normal 0.0 0.11196447610329369 -0.9937122098932442
  outer loop
    vertex -252.50000000000043 -214.86546993586504 0.2461094223700505
    vertex -262.5000000000004 -215.60859166176255 0.1623797128095414
    vertex -262.5000000000004 -214.86546993586504 0.2461094223700505
  endloop
endfacet
facet normal 0.0 0.11196447610329369 -0.9937122098932442
  outer loop
    vertex -262.5000000000004 -215.60859166176255 0.1623797128095414
    vertex -252.50000000000043 -214.86546993586504 0.2461094223700505
    vertex -252.50000000000043 -215.60859166176255 0.1623797128095414
  endloop
endfacet
facet normal -9.933139703280402e-16 0.3826834323650464 -0.9238795325113047
  outer loop
    vertex -260.00000000000034 -208.61816900000073 -1.0656745115973594
    vertex -254.8794095225516 -208.7387594774495 -1.1156247228496843
    vertex -260.1205904774491 -208.7387594774495 -1.1156247228496843
  endloop
endfacet
facet normal -9.933139703280402e-16 0.3826834323650464 -0.9238795325113047
  outer loop
    vertex -254.8794095225516 -208.7387594774495 -1.1156247228496843
    vertex -260.00000000000034 -208.61816900000073 -1.0656745115973594
    vertex -255.0000000000004 -208.61816900000073 -1.0656745115973705
  endloop
endfacet
facet normal 0.0 0.13052619221998146 -0.9914448613738197
  outer loop
    vertex -260.1205904774491 -208.7387594774495 -1.1156247228496843
    vertex -254.75000000000037 -208.86816900000076 -1.1326618097051415
    vertex -260.25000000000034 -208.86816900000076 -1.1326618097051415
  endloop
endfacet
facet normal 0.0 0.13052619221998146 -0.9914448613738197
  outer loop
    vertex -254.75000000000037 -208.86816900000076 -1.1326618097051415
    vertex -260.1205904774491 -208.7387594774495 -1.1156247228496843
    vertex -254.8794095225516 -208.7387594774495 -1.1156247228496843
  endloop
endfacet
facet normal 9.759662433350111e-30 0.3302790619551936 -0.9438833303083585
  outer loop
    vertex -252.50000000000043 -217.06572074410985 -0.1702004915803405
    vertex -262.5000000000004 -217.1181690000008 -0.1885529300657094
    vertex -262.5000000000004 -217.06572074410985 -0.1702004915803405
  endloop
endfacet
facet normal 9.759662433350111e-30 0.3302790619551936 -0.9438833303083585
  outer loop
    vertex -262.5000000000004 -217.1181690000008 -0.1885529300657094
    vertex -252.50000000000043 -217.06572074410985 -0.1702004915803405
    vertex -261.8465897563364 -217.7715792436647 -0.4171910629997058
  endloop
endfacet
facet normal 9.759662433350111e-30 0.3302790619551936 -0.9438833303083585
  outer loop
    vertex -261.8465897563364 -217.7715792436647 -0.4171910629997058
    vertex -252.50000000000043 -217.06572074410985 -0.1702004915803405
    vertex -253.1534102436644 -217.7715792436647 -0.4171910629997058
  endloop
endfacet
facet normal 9.759662433350111e-30 0.3302790619551936 -0.9438833303083585
  outer loop
    vertex -253.1534102436644 -217.7715792436647 -0.4171910629997058
    vertex -252.50000000000043 -217.06572074410985 -0.1702004915803405
    vertex -252.50000000000043 -217.1181690000008 -0.1885529300657094
  endloop
endfacet
facet normal 8.512122838529373e-19 -0.39989202431975784 -0.9165622558699689
  outer loop
    vertex -261.16116260882484 -209.77933160882523 -0.716239870417553
    vertex -253.1534102436644 -210.4647587563368 -0.4171910629997058
    vertex -261.8465897563364 -210.4647587563368 -0.4171910629997058
  endloop
endfacet
facet normal 8.512122838529373e-19 -0.39989202431975784 -0.9165622558699689
  outer loop
    vertex -253.1534102436644 -210.4647587563368 -0.4171910629997058
    vertex -261.16116260882484 -209.77933160882523 -0.716239870417553
    vertex -253.83883739117596 -209.77933160882523 -0.716239870417553
  endloop
endfacet
facet normal -1.6354951686993022e-16 -0.9914448613737743 0.13052619222032685
  outer loop
    vertex -255.23296291314492 -219.85113191314528 -0.5032522871538755
    vertex -259.7500000000004 -219.8681690000008 -0.6326618097051425
    vertex -255.25000000000034 -219.8681690000008 -0.6326618097051425
  endloop
endfacet
facet normal -1.6354951686993022e-16 -0.9914448613737743 0.13052619222032685
  outer loop
    vertex -259.7500000000004 -219.8681690000008 -0.6326618097051425
    vertex -255.23296291314492 -219.85113191314528 -0.5032522871538755
    vertex -259.7670370868558 -219.85113191314528 -0.5032522871538868
  endloop
endfacet
facet normal -5.909794102699782e-19 -0.5078217901011557 0.8614621462945762
  outer loop
    vertex -260.00000000000034 -219.61816900000076 -0.19964910781292575
    vertex -252.50000000000043 -217.1181690000008 1.2740714505582513
    vertex -262.5000000000004 -217.1181690000008 1.2740714505582513
  endloop
endfacet
facet normal -5.909794102699782e-19 -0.5078217901011557 0.8614621462945762
  outer loop
    vertex -252.50000000000043 -217.1181690000008 1.2740714505582513
    vertex -260.00000000000034 -219.61816900000076 -0.19964910781292575
    vertex -255.0000000000004 -219.61816900000076 -0.19964910781292575
  endloop
endfacet
facet normal 0.0 0.13052619222007092 -0.9914448613738079
  outer loop
    vertex -254.6205904774491 -219.23875947744955 -1.1156247228496843
    vertex -260.25000000000034 -219.36816900000073 -1.1326618097051415
    vertex -260.3794095225516 -219.23875947744955 -1.1156247228496843
  endloop
endfacet
facet normal 0.0 0.13052619222007092 -0.9914448613738079
  outer loop
    vertex -260.25000000000034 -219.36816900000073 -1.1326618097051415
    vertex -254.6205904774491 -219.23875947744955 -1.1156247228496843
    vertex -254.75000000000037 -219.36816900000073 -1.1326618097051415
  endloop
endfacet
facet normal 0.0 -0.2588190451025341 -0.9659258262890649
  outer loop
    vertex -252.50000000000043 -211.17061725589173 -0.1702004915803405
    vertex -262.5000000000004 -211.8929596604376 0.023350572376493604
    vertex -262.5000000000004 -211.17061725589173 -0.1702004915803405
  endloop
endfacet
facet normal 0.0 -0.2588190451025341 -0.9659258262890649
  outer loop
    vertex -262.5000000000004 -211.8929596604376 0.023350572376493604
    vertex -252.50000000000043 -211.17061725589173 -0.1702004915803405
    vertex -252.50000000000043 -211.8929596604376 0.023350572376493604
  endloop
endfacet
facet normal 0.0 -0.9238795325113737 -0.38268343236487984
  outer loop
    vertex -255.23296291314492 -219.85113191314528 -0.7620713322564096
    vertex -259.8169872981082 -219.801181701893 -0.8826618097051421
    vertex -255.18301270189255 -219.801181701893 -0.8826618097051421
  endloop
endfacet
facet normal 0.0 -0.9238795325113737 -0.38268343236487984
  outer loop
    vertex -259.8169872981082 -219.801181701893 -0.8826618097051421
    vertex -255.23296291314492 -219.85113191314528 -0.7620713322564096
    vertex -259.7670370868558 -219.85113191314528 -0.7620713322564096
  endloop
endfacet
facet normal 0.0 0.9914448613738645 -0.13052619221964168
  outer loop
    vertex -259.7500000000004 -208.3681690000008 -0.6326618097051425
    vertex -255.23296291314492 -208.38520608685621 -0.7620713322564096
    vertex -259.7670370868558 -208.38520608685621 -0.7620713322564096
  endloop
endfacet
facet normal 0.0 0.9914448613738645 -0.13052619221964168
  outer loop
    vertex -255.23296291314492 -208.38520608685621 -0.7620713322564096
    vertex -259.7500000000004 -208.3681690000008 -0.6326618097051425
    vertex -255.25000000000034 -208.3681690000008 -0.6326618097051425
  endloop
endfacet
facet normal -9.58345082098396e-19 -0.3302790619551547 -0.9438833303083719
  outer loop
    vertex -261.8465897563364 -210.4647587563368 -0.4171910629997058
    vertex -262.5000000000004 -211.17061725589173 -0.1702004915803405
    vertex -262.5000000000004 -211.1181690000008 -0.1885529300657094
  endloop
endfacet
facet normal -9.58345082098396e-19 -0.3302790619551547 -0.9438833303083719
  outer loop
    vertex -262.5000000000004 -211.17061725589173 -0.1702004915803405
    vertex -261.8465897563364 -210.4647587563368 -0.4171910629997058
    vertex -252.50000000000043 -211.17061725589173 -0.1702004915803405
  endloop
endfacet
facet normal -9.58345082098396e-19 -0.3302790619551547 -0.9438833303083719
  outer loop
    vertex -252.50000000000043 -211.17061725589173 -0.1702004915803405
    vertex -261.8465897563364 -210.4647587563368 -0.4171910629997058
    vertex -253.1534102436644 -210.4647587563368 -0.4171910629997058
  endloop
endfacet
facet normal -9.58345082098396e-19 -0.3302790619551547 -0.9438833303083719
  outer loop
    vertex -252.50000000000043 -211.17061725589173 -0.1702004915803405
    vertex -253.1534102436644 -210.4647587563368 -0.4171910629997058
    vertex -252.50000000000043 -211.1181690000008 -0.1885529300657094
  endloop
endfacet
facet normal 1.521351700696298e-18 0.46726862827306676 -0.8841153935046073
  outer loop
    vertex -253.83883739117596 -218.45700639117638 -0.716239870417553
    vertex -260.5000000000004 -219.1181690000008 -1.0656745115973594
    vertex -261.16116260882484 -218.45700639117638 -0.716239870417553
  endloop
endfacet
facet normal 1.521351700696298e-18 0.46726862827306676 -0.8841153935046073
  outer loop
    vertex -260.5000000000004 -219.1181690000008 -1.0656745115973594
    vertex -253.83883739117596 -218.45700639117638 -0.716239870417553
    vertex -254.5000000000003 -219.1181690000008 -1.0656745115973594
  endloop
endfacet
facet normal 0.0 0.18591160716292907 -0.9825664732332856
  outer loop
    vertex -252.50000000000043 -215.60859166176255 0.1623797128095414
    vertex -262.5000000000004 -216.34337833956388 0.023350572376493604
    vertex -262.5000000000004 -215.60859166176255 0.1623797128095414
  endloop
endfacet
facet normal 0.0 0.18591160716292907 -0.9825664732332856
  outer loop
    vertex -262.5000000000004 -216.34337833956388 0.023350572376493604
    vertex -252.50000000000043 -215.60859166176255 0.1623797128095414
    vertex -252.50000000000043 -216.34337833956388 0.023350572376493604
  endloop
endfacet
facet normal 0.0 -0.13052619221998144 -0.9914448613738197
  outer loop
    vertex -260.25000000000034 -208.86816900000076 -1.1326618097051415
    vertex -254.6205904774491 -208.99757852255203 -1.1156247228496843
    vertex -260.3794095225516 -208.99757852255203 -1.1156247228496843
  endloop
endfacet
facet normal 0.0 -0.13052619221998144 -0.9914448613738197
  outer loop
    vertex -254.6205904774491 -208.99757852255203 -1.1156247228496843
    vertex -260.25000000000034 -208.86816900000076 -1.1326618097051415
    vertex -254.75000000000037 -208.86816900000076 -1.1326618097051415
  endloop
endfacet
facet normal -0.7071067811865476 0.7071067811865476 0.0
  outer loop
    vertex -260.00000000000034 -208.61816900000073 -0.19964910781292575
    vertex -262.5000000000004 -211.1181690000008 -0.1885529300657094
    vertex -262.5000000000004 -211.1181690000008 1.2740714505582513
  endloop
endfacet
facet normal -0.7071067811865476 0.7071067811865476 0.0
  outer loop
    vertex -262.5000000000004 -211.1181690000008 -0.1885529300657094
    vertex -260.00000000000034 -208.61816900000073 -0.19964910781292575
    vertex -261.8465897563364 -210.4647587563368 -0.4171910629997058
  endloop
endfacet
facet normal -0.7071067811865476 0.7071067811865476 0.0
  outer loop
    vertex -261.8465897563364 -210.4647587563368 -0.4171910629997058
    vertex -260.00000000000034 -208.61816900000073 -0.19964910781292575
    vertex -261.16116260882484 -209.77933160882523 -0.716239870417553
  endloop
endfacet
facet normal -0.7071067811865476 0.7071067811865476 0.0
  outer loop
    vertex -261.16116260882484 -209.77933160882523 -0.716239870417553
    vertex -260.00000000000034 -208.61816900000073 -0.19964910781292575
    vertex -260.5000000000004 -209.1181690000008 -1.0656745115973594
  endloop
endfacet
facet normal -0.7071067811865476 0.7071067811865476 0.0
  outer loop
    vertex -260.5000000000004 -209.1181690000008 -1.0656745115973594
    vertex -260.00000000000034 -208.61816900000073 -0.19964910781292575
    vertex -260.3794095225516 -208.99757852255203 -1.1156247228496843
  endloop
endfacet
facet normal -0.7071067811865476 0.7071067811865476 0.0
  outer loop
    vertex -260.3794095225516 -208.99757852255203 -1.1156247228496843
    vertex -260.00000000000034 -208.61816900000073 -0.19964910781292575
    vertex -260.25000000000034 -208.86816900000076 -1.1326618097051415
  endloop
endfacet
facet normal -0.7071067811865476 0.7071067811865476 0.0
  outer loop
    vertex -260.25000000000034 -208.86816900000076 -1.1326618097051415
    vertex -260.00000000000034 -208.61816900000073 -0.19964910781292575
    vertex -260.1205904774491 -208.7387594774495 -1.1156247228496843
  endloop
endfacet
facet normal -0.7071067811865476 0.7071067811865476 0.0
  outer loop
    vertex -260.1205904774491 -208.7387594774495 -1.1156247228496843
    vertex -260.00000000000034 -208.61816900000073 -0.19964910781292575
    vertex -260.00000000000034 -208.61816900000073 -1.0656745115973594
  endloop
endfacet
facet normal -0.7071067811865476 0.7071067811865476 0.0
  outer loop
    vertex -260.00000000000034 -208.61816900000073 -1.0656745115973594
    vertex -260.00000000000034 -208.61816900000073 -0.19964910781292575
    vertex -259.89644660940706 -208.51461560940749 -0.27910841911186784
  endloop
endfacet
facet normal -0.7071067811865476 0.7071067811865476 0.0
  outer loop
    vertex -260.00000000000034 -208.61816900000073 -1.0656745115973594
    vertex -259.89644660940706 -208.51461560940749 -0.27910841911186784
    vertex -259.89644660940706 -208.51461560940749 -0.9862152002984171
  endloop
endfacet
facet normal -0.7071067811865476 0.7071067811865476 0.0
  outer loop
    vertex -259.89644660940706 -208.51461560940749 -0.9862152002984171
    vertex -259.89644660940706 -208.51461560940749 -0.27910841911186784
    vertex -259.8169872981082 -208.43515629810858 -0.38266180970514296
  endloop
endfacet
facet normal -0.7071067811865476 0.7071067811865476 0.0
  outer loop
    vertex -259.89644660940706 -208.51461560940749 -0.9862152002984171
    vertex -259.8169872981082 -208.43515629810858 -0.38266180970514296
    vertex -259.8169872981082 -208.43515629810858 -0.8826618097051421
  endloop
endfacet
facet normal -0.7071067811865476 0.7071067811865476 0.0
  outer loop
    vertex -259.8169872981082 -208.43515629810858 -0.8826618097051421
    vertex -259.8169872981082 -208.43515629810858 -0.38266180970514296
    vertex -259.7670370868558 -208.38520608685621 -0.5032522871538755
  endloop
endfacet
facet normal -0.7071067811865476 0.7071067811865476 0.0
  outer loop
    vertex -259.8169872981082 -208.43515629810858 -0.8826618097051421
    vertex -259.7670370868558 -208.38520608685621 -0.5032522871538755
    vertex -259.7670370868558 -208.38520608685621 -0.7620713322564096
  endloop
endfacet
facet normal -0.7071067811865476 0.7071067811865476 0.0
  outer loop
    vertex -259.7670370868558 -208.38520608685621 -0.7620713322564096
    vertex -259.7670370868558 -208.38520608685621 -0.5032522871538755
    vertex -259.7500000000004 -208.3681690000008 -0.6326618097051425
  endloop
endfacet
facet normal 0.0 -0.793353340291085 -0.6087614290089167
  outer loop
    vertex -255.18301270189255 -219.801181701893 -0.8826618097051421
    vertex -259.89644660940706 -219.72172239059404 -0.9862152002984171
    vertex -255.10355339059365 -219.72172239059404 -0.9862152002984171
  endloop
endfacet
facet normal 0.0 -0.793353340291085 -0.6087614290089167
  outer loop
    vertex -259.89644660940706 -219.72172239059404 -0.9862152002984171
    vertex -255.18301270189255 -219.801181701893 -0.8826618097051421
    vertex -259.8169872981082 -219.801181701893 -0.8826618097051421
  endloop
endfacet
facet normal 0.0 -0.18591160716290708 -0.9825664732332898
  outer loop
    vertex -252.50000000000043 -211.8929596604376 0.023350572376493604
    vertex -262.5000000000004 -212.62774633823904 0.1623797128095414
    vertex -262.5000000000004 -211.8929596604376 0.023350572376493604
  endloop
endfacet
facet normal 0.0 -0.18591160716290708 -0.9825664732332898
  outer loop
    vertex -262.5000000000004 -212.62774633823904 0.1623797128095414
    vertex -252.50000000000043 -211.8929596604376 0.023350572376493604
    vertex -252.50000000000043 -212.62774633823904 0.1623797128095414
  endloop
endfacet
facet normal 0.0 -0.03739119427633432 -0.9993007047883984
  outer loop
    vertex -252.50000000000043 -213.37086806413657 0.2461094223700505
    vertex -262.5000000000004 -214.11816900000076 0.27407145055825327
    vertex -262.5000000000004 -213.37086806413657 0.2461094223700505
  endloop
endfacet
facet normal 0.0 -0.03739119427633432 -0.9993007047883984
  outer loop
    vertex -262.5000000000004 -214.11816900000076 0.27407145055825327
    vertex -252.50000000000043 -213.37086806413657 0.2461094223700505
    vertex -252.50000000000043 -214.11816900000076 0.27407145055825327
  endloop
endfacet
facet normal 0.0 -0.793353340291085 0.6087614290089167
  outer loop
    vertex -255.10355339059365 -219.72172239059404 -0.27910841911186784
    vertex -259.8169872981082 -219.801181701893 -0.38266180970514296
    vertex -255.18301270189255 -219.801181701893 -0.38266180970514296
  endloop
endfacet
facet normal 0.0 -0.793353340291085 0.6087614290089167
  outer loop
    vertex -259.8169872981082 -219.801181701893 -0.38266180970514296
    vertex -255.10355339059365 -219.72172239059404 -0.27910841911186784
    vertex -259.89644660940706 -219.72172239059404 -0.27910841911186784
  endloop
endfacet
facet normal 0.0 0.7933533402914188 -0.6087614290084815
  outer loop
    vertex -259.8169872981082 -208.43515629810858 -0.8826618097051421
    vertex -255.10355339059365 -208.51461560940749 -0.9862152002984171
    vertex -259.89644660940706 -208.51461560940749 -0.9862152002984171
  endloop
endfacet
facet normal 0.0 0.7933533402914188 -0.6087614290084815
  outer loop
    vertex -255.10355339059365 -208.51461560940749 -0.9862152002984171
    vertex -259.8169872981082 -208.43515629810858 -0.8826618097051421
    vertex -255.18301270189255 -208.43515629810858 -0.8826618097051421
  endloop
endfacet
facet normal 4.655425131390072e-16 0.9238795325111356 0.38268343236545477
  outer loop
    vertex -259.7670370868558 -208.38520608685621 -0.5032522871538755
    vertex -255.18301270189255 -208.43515629810858 -0.38266180970514296
    vertex -255.23296291314492 -208.38520608685621 -0.5032522871538868
  endloop
endfacet
facet normal 4.655425131390072e-16 0.9238795325111356 0.38268343236545477
  outer loop
    vertex -255.18301270189255 -208.43515629810858 -0.38266180970514296
    vertex -259.7670370868558 -208.38520608685621 -0.5032522871538755
    vertex -259.8169872981082 -208.43515629810858 -0.38266180970514296
  endloop
endfacet
facet normal 0.0 0.38268343236508334 -0.9238795325112895
  outer loop
    vertex -254.5000000000003 -219.1181690000008 -1.0656745115973594
    vertex -260.3794095225516 -219.23875947744955 -1.1156247228496843
    vertex -260.5000000000004 -219.1181690000008 -1.0656745115973594
  endloop
endfacet
facet normal 0.0 0.38268343236508334 -0.9238795325112895
  outer loop
    vertex -260.3794095225516 -219.23875947744955 -1.1156247228496843
    vertex -254.5000000000003 -219.1181690000008 -1.0656745115973594
    vertex -254.6205904774491 -219.23875947744955 -1.1156247228496843
  endloop
endfacet
facet normal 0.0 0.25881904510250386 -0.965925826289073
  outer loop
    vertex -252.50000000000043 -216.34337833956388 0.023350572376493604
    vertex -262.5000000000004 -217.06572074410985 -0.1702004915803405
    vertex -262.5000000000004 -216.34337833956388 0.023350572376493604
  endloop
endfacet
facet normal 0.0 0.25881904510250386 -0.965925826289073
  outer loop
    vertex -262.5000000000004 -217.06572074410985 -0.1702004915803405
    vertex -252.50000000000043 -216.34337833956388 0.023350572376493604
    vertex -252.50000000000043 -217.06572074410985 -0.1702004915803405
  endloop
endfacet
facet normal 0.0 -0.991444861373775 -0.13052619222032122
  outer loop
    vertex -255.25000000000034 -219.8681690000008 -0.6326618097051425
    vertex -259.7670370868558 -219.85113191314528 -0.7620713322564096
    vertex -255.23296291314492 -219.85113191314528 -0.7620713322564096
  endloop
endfacet
facet normal 0.0 -0.991444861373775 -0.13052619222032122
  outer loop
    vertex -259.7670370868558 -219.85113191314528 -0.7620713322564096
    vertex -255.25000000000034 -219.8681690000008 -0.6326618097051425
    vertex -259.7500000000004 -219.8681690000008 -0.6326618097051425
  endloop
endfacet
facet normal 0.0 0.9238795325111294 -0.3826834323654701
  outer loop
    vertex -259.7670370868558 -208.38520608685621 -0.7620713322564096
    vertex -255.18301270189255 -208.43515629810858 -0.8826618097051421
    vertex -259.8169872981082 -208.43515629810858 -0.8826618097051421
  endloop
endfacet
facet normal 0.0 0.9238795325111294 -0.3826834323654701
  outer loop
    vertex -255.18301270189255 -208.43515629810858 -0.8826618097051421
    vertex -259.7670370868558 -208.38520608685621 -0.7620713322564096
    vertex -255.23296291314492 -208.38520608685621 -0.7620713322564096
  endloop
endfacet
facet normal -9.329588491235042e-16 0.6087614290087681 -0.7933533402911987
  outer loop
    vertex -259.89644660940706 -208.51461560940749 -0.9862152002984171
    vertex -255.0000000000004 -208.61816900000073 -1.0656745115973705
    vertex -260.00000000000034 -208.61816900000073 -1.0656745115973594
  endloop
endfacet
facet normal -9.329588491235042e-16 0.6087614290087681 -0.7933533402911987
  outer loop
    vertex -255.0000000000004 -208.61816900000073 -1.0656745115973705
    vertex -259.89644660940706 -208.51461560940749 -0.9862152002984171
    vertex -255.10355339059365 -208.51461560940749 -0.9862152002984171
  endloop
endfacet
facet normal 0.0 -0.11196447610329369 -0.9937122098932442
  outer loop
    vertex -252.50000000000043 -212.62774633823904 0.1623797128095414
    vertex -262.5000000000004 -213.37086806413657 0.2461094223700505
    vertex -262.5000000000004 -212.62774633823904 0.1623797128095414
  endloop
endfacet
facet normal 0.0 -0.11196447610329369 -0.9937122098932442
  outer loop
    vertex -262.5000000000004 -213.37086806413657 0.2461094223700505
    vertex -252.50000000000043 -212.62774633823904 0.1623797128095414
    vertex -252.50000000000043 -213.37086806413657 0.2461094223700505
  endloop
endfacet
facet normal 1.5213517006962975e-18 -0.46726862827306676 -0.8841153935046073
  outer loop
    vertex -260.5000000000004 -209.1181690000008 -1.0656745115973594
    vertex -253.83883739117596 -209.77933160882523 -0.716239870417553
    vertex -261.16116260882484 -209.77933160882523 -0.716239870417553
  endloop
endfacet
facet normal 1.5213517006962975e-18 -0.46726862827306676 -0.8841153935046073
  outer loop
    vertex -253.83883739117596 -209.77933160882523 -0.716239870417553
    vertex -260.5000000000004 -209.1181690000008 -1.0656745115973594
    vertex -254.5000000000003 -209.1181690000008 -1.0656745115973594
  endloop
endfacet
facet normal 0.0 -0.13052619221998146 -0.9914448613738197
  outer loop
    vertex -254.75000000000037 -219.36816900000073 -1.1326618097051415
    vertex -260.1205904774491 -219.497578522552 -1.1156247228496843
    vertex -260.25000000000034 -219.36816900000073 -1.1326618097051415
  endloop
endfacet
facet normal 0.0 -0.13052619221998146 -0.9914448613738197
  outer loop
    vertex -260.1205904774491 -219.497578522552 -1.1156247228496843
    vertex -254.75000000000037 -219.36816900000073 -1.1326618097051415
    vertex -254.8794095225516 -219.497578522552 -1.1156247228496843
  endloop
endfacet
facet normal 0.7071067811865597 0.7071067811865354 4.393357475326493e-15
  outer loop
    vertex -253.1534102436644 -210.4647587563368 -0.4171910629997058
    vertex -252.50000000000043 -211.1181690000008 1.2740714505582513
    vertex -252.50000000000043 -211.1181690000008 -0.1885529300657094
  endloop
endfacet
facet normal 0.7071067811865597 0.7071067811865354 4.393357475326493e-15
  outer loop
    vertex -252.50000000000043 -211.1181690000008 1.2740714505582513
    vertex -253.1534102436644 -210.4647587563368 -0.4171910629997058
    vertex -255.0000000000004 -208.61816900000073 -0.19964910781292575
  endloop
endfacet
facet normal 0.7071067811865597 0.7071067811865354 4.393357475326493e-15
  outer loop
    vertex -255.0000000000004 -208.61816900000073 -0.19964910781292575
    vertex -253.1534102436644 -210.4647587563368 -0.4171910629997058
    vertex -253.83883739117596 -209.77933160882523 -0.716239870417553
  endloop
endfacet
facet normal 0.7071067811865597 0.7071067811865354 4.393357475326493e-15
  outer loop
    vertex -255.0000000000004 -208.61816900000073 -0.19964910781292575
    vertex -253.83883739117596 -209.77933160882523 -0.716239870417553
    vertex -254.5000000000003 -209.1181690000008 -1.0656745115973594
  endloop
endfacet
facet normal 0.7071067811865597 0.7071067811865354 4.393357475326493e-15
  outer loop
    vertex -255.0000000000004 -208.61816900000073 -0.19964910781292575
    vertex -254.5000000000003 -209.1181690000008 -1.0656745115973594
    vertex -254.6205904774491 -208.99757852255203 -1.1156247228496843
  endloop
endfacet
facet normal 0.7071067811865597 0.7071067811865354 4.393357475326493e-15
  outer loop
    vertex -255.0000000000004 -208.61816900000073 -0.19964910781292575
    vertex -254.6205904774491 -208.99757852255203 -1.1156247228496843
    vertex -254.75000000000037 -208.86816900000076 -1.1326618097051415
  endloop
endfacet
facet normal 0.7071067811865597 0.7071067811865354 4.393357475326493e-15
  outer loop
    vertex -255.0000000000004 -208.61816900000073 -0.19964910781292575
    vertex -254.75000000000037 -208.86816900000076 -1.1326618097051415
    vertex -254.8794095225516 -208.7387594774495 -1.1156247228496843
  endloop
endfacet
facet normal 0.7071067811865597 0.7071067811865354 4.393357475326493e-15
  outer loop
    vertex -255.0000000000004 -208.61816900000073 -0.19964910781292575
    vertex -254.8794095225516 -208.7387594774495 -1.1156247228496843
    vertex -255.0000000000004 -208.61816900000073 -1.0656745115973705
  endloop
endfacet
facet normal 0.7071067811865597 0.7071067811865354 4.393357475326493e-15
  outer loop
    vertex -255.0000000000004 -208.61816900000073 -0.19964910781292575
    vertex -255.0000000000004 -208.61816900000073 -1.0656745115973705
    vertex -255.10355339059365 -208.51461560940749 -0.9862152002984171
  endloop
endfacet
facet normal 0.7071067811865597 0.7071067811865354 4.393357475326493e-15
  outer loop
    vertex -255.0000000000004 -208.61816900000073 -0.19964910781292575
    vertex -255.10355339059365 -208.51461560940749 -0.9862152002984171
    vertex -255.10355339059365 -208.51461560940749 -0.27910841911186784
  endloop
endfacet
facet normal 0.7071067811865597 0.7071067811865354 4.393357475326493e-15
  outer loop
    vertex -255.10355339059365 -208.51461560940749 -0.27910841911186784
    vertex -255.10355339059365 -208.51461560940749 -0.9862152002984171
    vertex -255.18301270189255 -208.43515629810858 -0.8826618097051421
  endloop
endfacet
facet normal 0.7071067811865597 0.7071067811865354 4.393357475326493e-15
  outer loop
    vertex -255.10355339059365 -208.51461560940749 -0.27910841911186784
    vertex -255.18301270189255 -208.43515629810858 -0.8826618097051421
    vertex -255.18301270189255 -208.43515629810858 -0.38266180970514296
  endloop
endfacet
facet normal 0.7071067811865597 0.7071067811865354 4.393357475326493e-15
  outer loop
    vertex -255.18301270189255 -208.43515629810858 -0.38266180970514296
    vertex -255.18301270189255 -208.43515629810858 -0.8826618097051421
    vertex -255.23296291314492 -208.38520608685621 -0.7620713322564096
  endloop
endfacet
facet normal 0.7071067811865597 0.7071067811865354 4.393357475326493e-15
  outer loop
    vertex -255.18301270189255 -208.43515629810858 -0.38266180970514296
    vertex -255.23296291314492 -208.38520608685621 -0.7620713322564096
    vertex -255.23296291314492 -208.38520608685621 -0.5032522871538868
  endloop
endfacet
facet normal 0.7071067811865597 0.7071067811865354 4.393357475326493e-15
  outer loop
    vertex -255.23296291314492 -208.38520608685621 -0.5032522871538868
    vertex -255.23296291314492 -208.38520608685621 -0.7620713322564096
    vertex -255.25000000000034 -208.3681690000008 -0.6326618097051425
  endloop
endfacet
facet normal 0.0 0.0 1.0
  outer loop
    vertex -252.50000000000043 -215.1181690000008 0.7740714505582523
    vertex -262.5000000000004 -213.1181690000008 0.7740714505582523
    vertex -262.5000000000004 -215.1181690000008 0.7740714505582523
  endloop
endfacet
facet normal 0.0 0.0 1.0
  outer loop
    vertex -262.5000000000004 -213.1181690000008 0.7740714505582523
    vertex -252.50000000000043 -215.1181690000008 0.7740714505582523
    vertex -252.50000000000043 -213.1181690000008 0.7740714505582523
  endloop
endfacet
facet normal 1.0 0.0 0.0
  outer loop
    vertex -252.50000000000043 -214.86546993586504 0.2461094223700505
    vertex -252.50000000000043 -215.1181690000008 0.7740714505582523
    vertex -252.50000000000043 -215.60859166176255 0.1623797128095414
  endloop
endfacet
facet normal 1.0 0.0 0.0
  outer loop
    vertex -252.50000000000043 -215.1181690000008 0.7740714505582523
    vertex -252.50000000000043 -214.86546993586504 0.2461094223700505
    vertex -252.50000000000043 -213.1181690000008 0.7740714505582523
  endloop
endfacet
facet normal 1.0 0.0 0.0
  outer loop
    vertex -252.50000000000043 -213.1181690000008 0.7740714505582523
    vertex -252.50000000000043 -214.86546993586504 0.2461094223700505
    vertex -252.50000000000043 -214.11816900000076 0.27407145055825327
  endloop
endfacet
facet normal 1.0 0.0 0.0
  outer loop
    vertex -252.50000000000043 -213.1181690000008 0.7740714505582523
    vertex -252.50000000000043 -214.11816900000076 0.27407145055825327
    vertex -252.50000000000043 -213.37086806413657 0.2461094223700505
  endloop
endfacet
facet normal 1.0 0.0 0.0
  outer loop
    vertex -252.50000000000043 -213.1181690000008 0.7740714505582523
    vertex -252.50000000000043 -213.37086806413657 0.2461094223700505
    vertex -252.50000000000043 -212.62774633823904 0.1623797128095414
  endloop
endfacet
facet normal 1.0 0.0 0.0
  outer loop
    vertex -252.50000000000043 -213.1181690000008 0.7740714505582523
    vertex -252.50000000000043 -212.62774633823904 0.1623797128095414
    vertex -252.50000000000043 -213.1181690000008 1.7740714505582504
  endloop
endfacet
facet normal 1.0 0.0 0.0
  outer loop
    vertex -252.50000000000043 -217.06572074410985 -0.1702004915803405
    vertex -252.50000000000043 -217.1181690000008 1.2740714505582513
    vertex -252.50000000000043 -217.1181690000008 -0.1885529300657094
  endloop
endfacet
facet normal 1.0 0.0 0.0
  outer loop
    vertex -252.50000000000043 -217.1181690000008 1.2740714505582513
    vertex -252.50000000000043 -217.06572074410985 -0.1702004915803405
    vertex -252.50000000000043 -215.61816900000076 2.2740714505582496
  endloop
endfacet
facet normal 1.0 0.0 0.0
  outer loop
    vertex -252.50000000000043 -215.61816900000076 2.2740714505582496
    vertex -252.50000000000043 -217.06572074410985 -0.1702004915803405
    vertex -252.50000000000043 -216.34337833956388 0.023350572376493604
  endloop
endfacet
facet normal 1.0 0.0 0.0
  outer loop
    vertex -252.50000000000043 -215.61816900000076 2.2740714505582496
    vertex -252.50000000000043 -216.34337833956388 0.023350572376493604
    vertex -252.50000000000043 -215.60859166176255 0.1623797128095414
  endloop
endfacet
facet normal 1.0 0.0 0.0
  outer loop
    vertex -252.50000000000043 -215.61816900000076 2.2740714505582496
    vertex -252.50000000000043 -215.60859166176255 0.1623797128095414
    vertex -252.50000000000043 -215.1181690000008 1.7740714505582504
  endloop
endfacet
facet normal 1.0 0.0 0.0
  outer loop
    vertex -252.50000000000043 -215.61816900000076 2.2740714505582496
    vertex -252.50000000000043 -215.1181690000008 1.7740714505582504
    vertex -252.50000000000043 -212.61816900000073 2.2740714505582496
  endloop
endfacet
facet normal 1.0 0.0 0.0
  outer loop
    vertex -252.50000000000043 -215.1181690000008 1.7740714505582504
    vertex -252.50000000000043 -215.60859166176255 0.1623797128095414
    vertex -252.50000000000043 -215.1181690000008 0.7740714505582523
  endloop
endfacet
facet normal 1.0 0.0 0.0
  outer loop
    vertex -252.50000000000043 -212.61816900000073 2.2740714505582496
    vertex -252.50000000000043 -215.1181690000008 1.7740714505582504
    vertex -252.50000000000043 -213.1181690000008 1.7740714505582504
  endloop
endfacet
facet normal 1.0 0.0 0.0
  outer loop
    vertex -252.50000000000043 -212.61816900000073 2.2740714505582496
    vertex -252.50000000000043 -213.1181690000008 1.7740714505582504
    vertex -252.50000000000043 -212.62774633823904 0.1623797128095414
  endloop
endfacet
facet normal 1.0 0.0 0.0
  outer loop
    vertex -252.50000000000043 -212.61816900000073 2.2740714505582496
    vertex -252.50000000000043 -212.62774633823904 0.1623797128095414
    vertex -252.50000000000043 -211.8929596604376 0.023350572376493604
  endloop
endfacet
facet normal 1.0 0.0 0.0
  outer loop
    vertex -252.50000000000043 -212.61816900000073 2.2740714505582496
    vertex -252.50000000000043 -211.8929596604376 0.023350572376493604
    vertex -252.50000000000043 -211.1181690000008 1.2740714505582513
  endloop
endfacet
facet normal 1.0 0.0 0.0
  outer loop
    vertex -252.50000000000043 -211.1181690000008 1.2740714505582513
    vertex -252.50000000000043 -211.8929596604376 0.023350572376493604
    vertex -252.50000000000043 -211.17061725589173 -0.1702004915803405
  endloop
endfacet
facet normal 1.0 0.0 0.0
  outer loop
    vertex -252.50000000000043 -211.1181690000008 1.2740714505582513
    vertex -252.50000000000043 -211.17061725589173 -0.1702004915803405
    vertex -252.50000000000043 -211.1181690000008 -0.1885529300657094
  endloop
endfacet
facet normal 0.0 1.0 0.0
  outer loop
    vertex -262.5000000000003 -215.1181690000008 1.7740714505582504
    vertex -252.50000000000043 -215.1181690000008 0.7740714505582523
    vertex -262.5000000000004 -215.1181690000008 0.7740714505582523
  endloop
endfacet
facet normal 0.0 1.0 0.0
  outer loop
    vertex -252.50000000000043 -215.1181690000008 0.7740714505582523
    vertex -262.5000000000003 -215.1181690000008 1.7740714505582504
    vertex -252.50000000000043 -215.1181690000008 1.7740714505582504
  endloop
endfacet
facet normal 0.0 0.0 -1.0
  outer loop
    vertex -252.50000000000043 -213.1181690000008 1.7740714505582504
    vertex -262.5000000000003 -215.1181690000008 1.7740714505582504
    vertex -262.5000000000003 -213.1181690000008 1.7740714505582504
  endloop
endfacet
facet normal 0.0 0.0 -1.0
  outer loop
    vertex -262.5000000000003 -215.1181690000008 1.7740714505582504
    vertex -252.50000000000043 -213.1181690000008 1.7740714505582504
    vertex -252.50000000000043 -215.1181690000008 1.7740714505582504
  endloop
endfacet
facet normal 0.0 -1.0 0.0
  outer loop
    vertex -252.50000000000043 -213.1181690000008 1.7740714505582504
    vertex -262.5000000000004 -213.1181690000008 0.7740714505582523
    vertex -252.50000000000043 -213.1181690000008 0.7740714505582523
  endloop
endfacet
facet normal 0.0 -1.0 0.0
  outer loop
    vertex -262.5000000000004 -213.1181690000008 0.7740714505582523
    vertex -252.50000000000043 -213.1181690000008 1.7740714505582504
    vertex -262.5000000000003 -213.1181690000008 1.7740714505582504
  endloop
endfacet
facet normal 7.76007683902439e-19 0.5547001962252466 0.8320502943378322
  outer loop
    vertex -262.5000000000003 -212.61816900000073 2.2740714505582496
    vertex -252.50000000000043 -211.1181690000008 1.2740714505582513
    vertex -262.5000000000004 -211.1181690000008 1.2740714505582513
  endloop
endfacet
facet normal 7.76007683902439e-19 0.5547001962252466 0.8320502943378322
  outer loop
    vertex -252.50000000000043 -211.1181690000008 1.2740714505582513
    vertex -262.5000000000003 -212.61816900000073 2.2740714505582496
    vertex -252.50000000000043 -212.61816900000073 2.2740714505582496
  endloop
endfacet
facet normal 0.0 0.0 1.0
  outer loop
    vertex -252.50000000000043 -215.61816900000076 2.2740714505582496
    vertex -262.5000000000003 -212.61816900000073 2.2740714505582496
    vertex -262.5000000000003 -215.61816900000076 2.2740714505582496
  endloop
endfacet
facet normal 0.0 0.0 1.0
  outer loop
    vertex -262.5000000000003 -212.61816900000073 2.2740714505582496
    vertex -252.50000000000043 -215.61816900000076 2.2740714505582496
    vertex -252.50000000000043 -212.61816900000073 2.2740714505582496
  endloop
endfacet
facet normal -1.0 2.879088905805281e-29 3.1364944007907306e-14
  outer loop
    vertex -262.5000000000003 -215.61816900000076 2.2740714505582496
    vertex -262.5000000000004 -217.1181690000008 -0.1885529300657094
    vertex -262.5000000000004 -217.1181690000008 1.2740714505582513
  endloop
endfacet
facet normal -1.0 2.879088905805281e-29 3.1364944007907306e-14
  outer loop
    vertex -262.5000000000004 -217.1181690000008 -0.1885529300657094
    vertex -262.5000000000003 -215.61816900000076 2.2740714505582496
    vertex -262.5000000000004 -217.06572074410985 -0.1702004915803405
  endloop
endfacet
facet normal -1.0 2.879088905805281e-29 3.1364944007907306e-14
  outer loop
    vertex -262.5000000000004 -217.06572074410985 -0.1702004915803405
    vertex -262.5000000000003 -215.61816900000076 2.2740714505582496
    vertex -262.5000000000004 -216.34337833956388 0.023350572376493604
  endloop
endfacet
facet normal -1.0 2.879088905805281e-29 3.1364944007907306e-14
  outer loop
    vertex -262.5000000000004 -216.34337833956388 0.023350572376493604
    vertex -262.5000000000003 -215.61816900000076 2.2740714505582496
    vertex -262.5000000000004 -215.60859166176255 0.1623797128095414
  endloop
endfacet
facet normal -1.0 2.879088905805281e-29 3.1364944007907306e-14
  outer loop
    vertex -262.5000000000004 -215.60859166176255 0.1623797128095414
    vertex -262.5000000000003 -215.61816900000076 2.2740714505582496
    vertex -262.5000000000003 -215.1181690000008 1.7740714505582504
  endloop
endfacet
facet normal -1.0 2.879088905805281e-29 3.1364944007907306e-14
  outer loop
    vertex -262.5000000000003 -215.1181690000008 1.7740714505582504
    vertex -262.5000000000003 -215.61816900000076 2.2740714505582496
    vertex -262.5000000000003 -212.61816900000073 2.2740714505582496
  endloop
endfacet
facet normal -1.0 2.879088905805281e-29 3.1364944007907306e-14
  outer loop
    vertex -262.5000000000003 -215.1181690000008 1.7740714505582504
    vertex -262.5000000000003 -212.61816900000073 2.2740714505582496
    vertex -262.5000000000003 -213.1181690000008 1.7740714505582504
  endloop
endfacet
facet normal -1.0 2.879088905805281e-29 3.1364944007907306e-14
  outer loop
    vertex -262.5000000000003 -213.1181690000008 1.7740714505582504
    vertex -262.5000000000003 -212.61816900000073 2.2740714505582496
    vertex -262.5000000000004 -213.1181690000008 0.7740714505582523
  endloop
endfacet
facet normal -1.0 2.879088905805281e-29 3.1364944007907306e-14
  outer loop
    vertex -262.5000000000004 -213.1181690000008 0.7740714505582523
    vertex -262.5000000000003 -212.61816900000073 2.2740714505582496
    vertex -262.5000000000004 -212.62774633823904 0.1623797128095414
  endloop
endfacet
facet normal -1.0 2.879088905805281e-29 3.1364944007907306e-14
  outer loop
    vertex -262.5000000000004 -212.62774633823904 0.1623797128095414
    vertex -262.5000000000003 -212.61816900000073 2.2740714505582496
    vertex -262.5000000000004 -211.8929596604376 0.023350572376493604
  endloop
endfacet
facet normal -1.0 2.879088905805281e-29 3.1364944007907306e-14
  outer loop
    vertex -262.5000000000004 -211.8929596604376 0.023350572376493604
    vertex -262.5000000000003 -212.61816900000073 2.2740714505582496
    vertex -262.5000000000004 -211.1181690000008 1.2740714505582513
  endloop
endfacet
facet normal -1.0 2.879088905805281e-29 3.1364944007907306e-14
  outer loop
    vertex -262.5000000000004 -211.8929596604376 0.023350572376493604
    vertex -262.5000000000004 -211.1181690000008 1.2740714505582513
    vertex -262.5000000000004 -211.17061725589173 -0.1702004915803405
  endloop
endfacet
facet normal -1.0 2.879088905805281e-29 3.1364944007907306e-14
  outer loop
    vertex -262.5000000000004 -211.17061725589173 -0.1702004915803405
    vertex -262.5000000000004 -211.1181690000008 1.2740714505582513
    vertex -262.5000000000004 -211.1181690000008 -0.1885529300657094
  endloop
endfacet
facet normal -1.0 2.879088905805281e-29 3.1364944007907306e-14
  outer loop
    vertex -262.5000000000004 -215.60859166176255 0.1623797128095414
    vertex -262.5000000000004 -215.1181690000008 0.7740714505582523
    vertex -262.5000000000004 -214.86546993586504 0.2461094223700505
  endloop
endfacet
facet normal -1.0 2.879088905805281e-29 3.1364944007907306e-14
  outer loop
    vertex -262.5000000000004 -215.1181690000008 0.7740714505582523
    vertex -262.5000000000004 -215.60859166176255 0.1623797128095414
    vertex -262.5000000000003 -215.1181690000008 1.7740714505582504
  endloop
endfacet
facet normal -1.0 2.879088905805281e-29 3.1364944007907306e-14
  outer loop
    vertex -262.5000000000004 -214.86546993586504 0.2461094223700505
    vertex -262.5000000000004 -215.1181690000008 0.7740714505582523
    vertex -262.5000000000004 -213.1181690000008 0.7740714505582523
  endloop
endfacet
facet normal -1.0 2.879088905805281e-29 3.1364944007907306e-14
  outer loop
    vertex -262.5000000000004 -214.86546993586504 0.2461094223700505
    vertex -262.5000000000004 -213.1181690000008 0.7740714505582523
    vertex -262.5000000000004 -214.11816900000076 0.27407145055825327
  endloop
endfacet
facet normal -1.0 2.879088905805281e-29 3.1364944007907306e-14
  outer loop
    vertex -262.5000000000004 -214.11816900000076 0.27407145055825327
    vertex -262.5000000000004 -213.1181690000008 0.7740714505582523
    vertex -262.5000000000004 -213.37086806413657 0.2461094223700505
  endloop
endfacet
facet normal -1.0 2.879088905805281e-29 3.1364944007907306e-14
  outer loop
    vertex -262.5000000000004 -213.37086806413657 0.2461094223700505
    vertex -262.5000000000004 -213.1181690000008 0.7740714505582523
    vertex -262.5000000000004 -212.62774633823904 0.1623797128095414
  endloop
endfacet
facet normal 7.76007683879756e-19 -0.5547001962252234 0.8320502943378475
  outer loop
    vertex -252.50000000000043 -217.1181690000008 1.2740714505582513
    vertex -262.5000000000003 -215.61816900000076 2.2740714505582496
    vertex -262.5000000000004 -217.1181690000008 1.2740714505582513
  endloop
endfacet
facet normal 7.76007683879756e-19 -0.5547001962252234 0.8320502943378475
  outer loop
    vertex -262.5000000000003 -215.61816900000076 2.2740714505582496
    vertex -252.50000000000043 -217.1181690000008 1.2740714505582513
    vertex -252.50000000000043 -215.61816900000076 2.2740714505582496
  endloop
endfacet
endsolid ProtoGlove
