solid ProtoGlove
facet normal 1.286682061480007e-16 -0.6087614290087682 -0.7933533402911987
  outer loop
    vertex -300.00000000000017 -99.64097363239274 -1.0840269500827173
    vertex -334.89644660940695 -99.744527022986 -1.0045676387837752
    vertex -335.00000000000017 -99.64097363239274 -1.0840269500827284
  endloop
endfacet
facet normal 1.286682061480007e-16 -0.6087614290087682 -0.7933533402911987
  outer loop
    vertex -334.89644660940695 -99.744527022986 -1.0045676387837752
    vertex -300.00000000000017 -99.64097363239274 -1.0840269500827173
    vertex -300.10355339059345 -99.744527022986 -1.0045676387837752
  endloop
endfacet
facet normal 6.22526526697015e-17 0.923879532511258 0.3826834323651597
  outer loop
    vertex -334.76703708685557 -88.40801071924818 -0.5216047256392334
    vertex -300.1830127018923 -88.45796093050052 -0.4010142481905009
    vertex -300.2329629131447 -88.40801071924818 -0.5216047256392448
  endloop
endfacet
facet normal 6.22526526697015e-17 0.923879532511258 0.3826834323651597
  outer loop
    vertex -300.1830127018923 -88.45796093050052 -0.4010142481905009
    vertex -334.76703708685557 -88.40801071924818 -0.5216047256392334
    vertex -334.81698729810796 -88.45796093050052 -0.4010142481905009
  endloop
endfacet
facet normal -3.945086085806605e-16 0.38268343236510766 -0.9238795325112795
  outer loop
    vertex -335.00000000000017 -88.64097363239271 -1.0840269500827173
    vertex -299.8794095225514 -88.76156410984144 -1.1339771613350422
    vertex -335.12059047744896 -88.76156410984149 -1.1339771613350422
  endloop
endfacet
facet normal -3.945086085806605e-16 0.38268343236510766 -0.9238795325112795
  outer loop
    vertex -299.8794095225514 -88.76156410984144 -1.1339771613350422
    vertex -335.00000000000017 -88.64097363239271 -1.0840269500827173
    vertex -300.00000000000017 -88.64097363239271 -1.0840269500827284
  endloop
endfacet
facet normal 0.0 0.03739119427633205 -0.9993007047883984
  outer loop
    vertex -297.5000000000001 -94.14097363239273 0.2557190120728953
    vertex -337.50000000000017 -94.88827456825696 0.22775698388469257
    vertex -337.50000000000017 -94.14097363239273 0.2557190120728953
  endloop
endfacet
facet normal 0.0 0.03739119427633205 -0.9993007047883984
  outer loop
    vertex -337.50000000000017 -94.88827456825696 0.22775698388469257
    vertex -297.5000000000001 -94.14097363239273 0.2557190120728953
    vertex -297.5000000000001 -94.88827456825696 0.22775698388469257
  endloop
endfacet
facet normal 8.919619423199826e-19 -0.5078217901011507 0.8614621462945793
  outer loop
    vertex -335.00000000000017 -99.64097363239274 -0.2180015462982837
    vertex -297.5000000000001 -97.14097363239274 1.2557190120728934
    vertex -337.50000000000017 -97.14097363239274 1.2557190120728934
  endloop
endfacet
facet normal 8.919619423199826e-19 -0.5078217901011507 0.8614621462945793
  outer loop
    vertex -297.5000000000001 -97.14097363239274 1.2557190120728934
    vertex -335.00000000000017 -99.64097363239274 -0.2180015462982837
    vertex -300.00000000000017 -99.64097363239274 -0.2180015462982837
  endloop
endfacet
facet normal -6.246557328216612e-20 0.7933533402912517 0.6087614290086991
  outer loop
    vertex -334.89644660940695 -88.53742024179945 -0.2974608575972258
    vertex -300.1830127018923 -88.45796093050052 -0.4010142481905009
    vertex -334.81698729810796 -88.45796093050052 -0.4010142481905009
  endloop
endfacet
facet normal -6.246557328216612e-20 0.7933533402912517 0.6087614290086991
  outer loop
    vertex -300.1830127018923 -88.45796093050052 -0.4010142481905009
    vertex -334.89644660940695 -88.53742024179945 -0.2974608575972258
    vertex -300.10355339059345 -88.53742024179945 -0.2974608575972258
  endloop
endfacet
facet normal 3.21272073483136e-21 -0.13052619221998146 -0.9914448613738197
  outer loop
    vertex -335.2500000000001 -88.8909736323927 -1.1510142481904995
    vertex -299.6205904774489 -89.02038315494397 -1.1339771613350422
    vertex -335.3794095225515 -89.02038315494397 -1.1339771613350422
  endloop
endfacet
facet normal 3.21272073483136e-21 -0.13052619221998146 -0.9914448613738197
  outer loop
    vertex -299.6205904774489 -89.02038315494397 -1.1339771613350422
    vertex -335.2500000000001 -88.8909736323927 -1.1510142481904995
    vertex -299.7500000000001 -88.8909736323927 -1.1510142481904995
  endloop
endfacet
facet normal -0.7071067811865442 0.7071067811865508 8.94362057477167e-15
  outer loop
    vertex -335.3794095225515 -89.02038315494397 -1.1339771613350422
    vertex -335.12059047744896 -88.76156410984149 -1.1339771613350422
    vertex -335.2500000000001 -88.8909736323927 -1.1510142481904995
  endloop
endfacet
facet normal -0.7071067811865442 0.7071067811865508 8.94362057477167e-15
  outer loop
    vertex -335.12059047744896 -88.76156410984149 -1.1339771613350422
    vertex -335.3794095225515 -89.02038315494397 -1.1339771613350422
    vertex -335.50000000000006 -89.14097363239274 -1.0840269500827173
  endloop
endfacet
facet normal -0.7071067811865442 0.7071067811865508 8.94362057477167e-15
  outer loop
    vertex -335.12059047744896 -88.76156410984149 -1.1339771613350422
    vertex -335.50000000000006 -89.14097363239274 -1.0840269500827173
    vertex -335.00000000000017 -88.64097363239271 -1.0840269500827173
  endloop
endfacet
facet normal -0.7071067811865442 0.7071067811865508 8.94362057477167e-15
  outer loop
    vertex -335.00000000000017 -88.64097363239271 -1.0840269500827173
    vertex -335.50000000000006 -89.14097363239274 -1.0840269500827173
    vertex -336.1611626088246 -89.80213624121716 -0.7345923089029109
  endloop
endfacet
facet normal -0.7071067811865442 0.7071067811865508 8.94362057477167e-15
  outer loop
    vertex -335.00000000000017 -88.64097363239271 -1.0840269500827173
    vertex -336.1611626088246 -89.80213624121716 -0.7345923089029109
    vertex -334.89644660940695 -88.53742024179945 -1.0045676387837752
  endloop
endfacet
facet normal -0.7071067811865442 0.7071067811865508 8.94362057477167e-15
  outer loop
    vertex -334.89644660940695 -88.53742024179945 -1.0045676387837752
    vertex -336.1611626088246 -89.80213624121716 -0.7345923089029109
    vertex -334.81698729810796 -88.45796093050052 -0.9010142481905
  endloop
endfacet
facet normal -0.7071067811865442 0.7071067811865508 8.94362057477167e-15
  outer loop
    vertex -334.81698729810796 -88.45796093050052 -0.9010142481905
    vertex -336.1611626088246 -89.80213624121716 -0.7345923089029109
    vertex -334.76703708685557 -88.40801071924818 -0.7804237707417675
  endloop
endfacet
facet normal -0.7071067811865442 0.7071067811865508 8.94362057477167e-15
  outer loop
    vertex -334.76703708685557 -88.40801071924818 -0.7804237707417675
    vertex -336.1611626088246 -89.80213624121716 -0.7345923089029109
    vertex -334.75000000000006 -88.39097363239273 -0.6510142481905005
  endloop
endfacet
facet normal -0.7071067811865442 0.7071067811865508 8.94362057477167e-15
  outer loop
    vertex -334.75000000000006 -88.39097363239273 -0.6510142481905005
    vertex -336.1611626088246 -89.80213624121716 -0.7345923089029109
    vertex -336.84658975633624 -90.48756338872879 -0.43554350148506377
  endloop
endfacet
facet normal -0.7071067811865442 0.7071067811865508 8.94362057477167e-15
  outer loop
    vertex -334.75000000000006 -88.39097363239273 -0.6510142481905005
    vertex -336.84658975633624 -90.48756338872879 -0.43554350148506377
    vertex -334.76703708685557 -88.40801071924818 -0.5216047256392334
  endloop
endfacet
facet normal -0.7071067811865442 0.7071067811865508 8.94362057477167e-15
  outer loop
    vertex -334.76703708685557 -88.40801071924818 -0.5216047256392334
    vertex -336.84658975633624 -90.48756338872879 -0.43554350148506377
    vertex -334.81698729810796 -88.45796093050052 -0.4010142481905009
  endloop
endfacet
facet normal -0.7071067811865442 0.7071067811865508 8.94362057477167e-15
  outer loop
    vertex -334.81698729810796 -88.45796093050052 -0.4010142481905009
    vertex -336.84658975633624 -90.48756338872879 -0.43554350148506377
    vertex -337.50000000000017 -91.14097363239273 -0.2069053685510673
  endloop
endfacet
facet normal -0.7071067811865442 0.7071067811865508 8.94362057477167e-15
  outer loop
    vertex -334.81698729810796 -88.45796093050052 -0.4010142481905009
    vertex -337.50000000000017 -91.14097363239273 -0.2069053685510673
    vertex -334.89644660940695 -88.53742024179945 -0.2974608575972258
  endloop
endfacet
facet normal -0.7071067811865442 0.7071067811865508 8.94362057477167e-15
  outer loop
    vertex -334.89644660940695 -88.53742024179945 -0.2974608575972258
    vertex -337.50000000000017 -91.14097363239273 -0.2069053685510673
    vertex -335.00000000000017 -88.64097363239271 -0.2180015462982837
  endloop
endfacet
facet normal -0.7071067811865442 0.7071067811865508 8.94362057477167e-15
  outer loop
    vertex -335.00000000000017 -88.64097363239271 -0.2180015462982837
    vertex -337.50000000000017 -91.14097363239273 -0.2069053685510673
    vertex -337.50000000000017 -91.14097363239273 1.2557190120728934
  endloop
endfacet
facet normal 0.0 0.1119644761032937 -0.9937122098932442
  outer loop
    vertex -297.5000000000001 -94.88827456825696 0.22775698388469257
    vertex -337.50000000000017 -95.6313962941545 0.14402727432418344
    vertex -337.50000000000017 -94.88827456825696 0.22775698388469257
  endloop
endfacet
facet normal 0.0 0.1119644761032937 -0.9937122098932442
  outer loop
    vertex -337.50000000000017 -95.6313962941545 0.14402727432418344
    vertex -297.5000000000001 -94.88827456825696 0.22775698388469257
    vertex -297.5000000000001 -95.6313962941545 0.14402727432418344
  endloop
endfacet
facet normal -2.1205774141031584e-20 0.6087614290087408 0.7933533402912197
  outer loop
    vertex -300.00000000000017 -88.64097363239271 -0.2180015462982837
    vertex -334.89644660940695 -88.53742024179945 -0.2974608575972258
    vertex -335.00000000000017 -88.64097363239271 -0.2180015462982837
  endloop
endfacet
facet normal -2.1205774141031584e-20 0.6087614290087408 0.7933533402912197
  outer loop
    vertex -334.89644660940695 -88.53742024179945 -0.2974608575972258
    vertex -300.00000000000017 -88.64097363239271 -0.2180015462982837
    vertex -300.10355339059345 -88.53742024179945 -0.2974608575972258
  endloop
endfacet
facet normal 3.945086085806605e-16 -0.38268343236510766 -0.9238795325112795
  outer loop
    vertex -299.8794095225514 -99.52038315494397 -1.1339771613350422
    vertex -335.00000000000017 -99.64097363239274 -1.0840269500827284
    vertex -335.12059047744896 -99.52038315494403 -1.1339771613350422
  endloop
endfacet
facet normal 3.945086085806605e-16 -0.38268343236510766 -0.9238795325112795
  outer loop
    vertex -335.00000000000017 -99.64097363239274 -1.0840269500827284
    vertex -299.8794095225514 -99.52038315494397 -1.1339771613350422
    vertex -300.00000000000017 -99.64097363239274 -1.0840269500827173
  endloop
endfacet
facet normal 0.0 0.18591160716291807 -0.9825664732332877
  outer loop
    vertex -297.5000000000001 -95.6313962941545 0.14402727432418344
    vertex -337.50000000000017 -96.36618297195587 0.004998133891135661
    vertex -337.50000000000017 -95.6313962941545 0.14402727432418344
  endloop
endfacet
facet normal 0.0 0.18591160716291807 -0.9825664732332877
  outer loop
    vertex -337.50000000000017 -96.36618297195587 0.004998133891135661
    vertex -297.5000000000001 -95.6313962941545 0.14402727432418344
    vertex -297.5000000000001 -96.36618297195587 0.004998133891135661
  endloop
endfacet
facet normal -8.294219502103992e-17 0.13052619222000383 -0.9914448613738168
  outer loop
    vertex -335.12059047744896 -88.76156410984149 -1.1339771613350422
    vertex -299.7500000000001 -88.8909736323927 -1.1510142481904995
    vertex -335.2500000000001 -88.8909736323927 -1.1510142481904995
  endloop
endfacet
facet normal -8.294219502103992e-17 0.13052619222000383 -0.9914448613738168
  outer loop
    vertex -299.7500000000001 -88.8909736323927 -1.1510142481904995
    vertex -335.12059047744896 -88.76156410984149 -1.1339771613350422
    vertex -299.8794095225514 -88.76156410984144 -1.1339771613350422
  endloop
endfacet
facet normal 0.0 -0.18591160716291807 -0.9825664732332877
  outer loop
    vertex -297.5000000000001 -91.91576429282959 0.004998133891135661
    vertex -337.50000000000017 -92.65055097063097 0.14402727432418344
    vertex -337.50000000000017 -91.91576429282959 0.004998133891135661
  endloop
endfacet
facet normal 0.0 -0.18591160716291807 -0.9825664732332877
  outer loop
    vertex -337.50000000000017 -92.65055097063097 0.14402727432418344
    vertex -297.5000000000001 -91.91576429282959 0.004998133891135661
    vertex -297.5000000000001 -92.65055097063097 0.14402727432418344
  endloop
endfacet
facet normal 0.0 -0.1119644761032937 -0.9937122098932442
  outer loop
    vertex -297.5000000000001 -92.65055097063097 0.14402727432418344
    vertex -337.50000000000017 -93.3936726965285 0.22775698388469257
    vertex -337.50000000000017 -92.65055097063097 0.14402727432418344
  endloop
endfacet
facet normal 0.0 -0.1119644761032937 -0.9937122098932442
  outer loop
    vertex -337.50000000000017 -93.3936726965285 0.22775698388469257
    vertex -297.5000000000001 -92.65055097063097 0.14402727432418344
    vertex -297.5000000000001 -93.3936726965285 0.22775698388469257
  endloop
endfacet
facet normal -6.246557328216612e-20 0.7933533402912517 -0.6087614290086991
  outer loop
    vertex -334.81698729810796 -88.45796093050052 -0.9010142481905
    vertex -300.10355339059345 -88.53742024179945 -1.0045676387837752
    vertex -334.89644660940695 -88.53742024179945 -1.0045676387837752
  endloop
endfacet
facet normal -6.246557328216612e-20 0.7933533402912517 -0.6087614290086991
  outer loop
    vertex -300.10355339059345 -88.53742024179945 -1.0045676387837752
    vertex -334.81698729810796 -88.45796093050052 -0.9010142481905
    vertex -300.1830127018923 -88.45796093050052 -0.9010142481905
  endloop
endfacet
facet normal -7.257526442401851e-20 -0.38268343236508334 -0.9238795325112895
  outer loop
    vertex -335.3794095225515 -89.02038315494397 -1.1339771613350422
    vertex -299.5000000000001 -89.14097363239274 -1.0840269500827173
    vertex -335.50000000000006 -89.14097363239274 -1.0840269500827173
  endloop
endfacet
facet normal -7.257526442401851e-20 -0.38268343236508334 -0.9238795325112895
  outer loop
    vertex -299.5000000000001 -89.14097363239274 -1.0840269500827173
    vertex -335.3794095225515 -89.02038315494397 -1.1339771613350422
    vertex -299.6205904774489 -89.02038315494397 -1.1339771613350422
  endloop
endfacet
facet normal 8.294871483971617e-17 -0.13052619222000383 -0.9914448613738168
  outer loop
    vertex -299.7500000000001 -99.39097363239276 -1.1510142481904995
    vertex -335.12059047744896 -99.52038315494403 -1.1339771613350422
    vertex -335.2500000000001 -99.39097363239276 -1.1510142481904995
  endloop
endfacet
facet normal 8.294871483971617e-17 -0.13052619222000383 -0.9914448613738168
  outer loop
    vertex -335.12059047744896 -99.52038315494403 -1.1339771613350422
    vertex -299.7500000000001 -99.39097363239276 -1.1510142481904995
    vertex -299.8794095225514 -99.52038315494397 -1.1339771613350422
  endloop
endfacet
facet normal 3.3867902611649855e-19 -0.33027906195517415 -0.9438833303083652
  outer loop
    vertex -336.84658975633624 -90.48756338872879 -0.43554350148506377
    vertex -337.50000000000017 -91.19342188828367 -0.18855293006569845
    vertex -337.50000000000017 -91.14097363239273 -0.2069053685510673
  endloop
endfacet
facet normal 3.3867902611649855e-19 -0.33027906195517415 -0.9438833303083652
  outer loop
    vertex -337.50000000000017 -91.19342188828367 -0.18855293006569845
    vertex -336.84658975633624 -90.48756338872879 -0.43554350148506377
    vertex -297.5000000000001 -91.19342188828367 -0.18855293006569845
  endloop
endfacet
facet normal 3.3867902611649855e-19 -0.33027906195517415 -0.9438833303083652
  outer loop
    vertex -297.5000000000001 -91.19342188828367 -0.18855293006569845
    vertex -336.84658975633624 -90.48756338872879 -0.43554350148506377
    vertex -298.1534102436641 -90.48756338872879 -0.43554350148506377
  endloop
endfacet
facet normal 3.3867902611649855e-19 -0.33027906195517415 -0.9438833303083652
  outer loop
    vertex -297.5000000000001 -91.19342188828367 -0.18855293006569845
    vertex -298.1534102436641 -90.48756338872879 -0.43554350148506377
    vertex -297.5000000000001 -91.14097363239273 -0.2069053685510673
  endloop
endfacet
facet normal -6.22526526697015e-17 -0.923879532511258 0.3826834323651597
  outer loop
    vertex -300.2329629131447 -99.87393654553728 -0.5216047256392334
    vertex -334.81698729810796 -99.82398633428495 -0.4010142481905009
    vertex -334.76703708685557 -99.87393654553728 -0.5216047256392448
  endloop
endfacet
facet normal -6.22526526697015e-17 -0.923879532511258 0.3826834323651597
  outer loop
    vertex -334.81698729810796 -99.82398633428495 -0.4010142481905009
    vertex -300.2329629131447 -99.87393654553728 -0.5216047256392334
    vertex -300.1830127018923 -99.82398633428495 -0.4010142481905009
  endloop
endfacet
facet normal 0.0 0.258819045102519 -0.965925826289069
  outer loop
    vertex -297.5000000000001 -96.36618297195587 0.004998133891135661
    vertex -337.50000000000017 -97.08852537650179 -0.18855293006569845
    vertex -337.50000000000017 -96.36618297195587 0.004998133891135661
  endloop
endfacet
facet normal 0.0 0.258819045102519 -0.965925826289069
  outer loop
    vertex -337.50000000000017 -97.08852537650179 -0.18855293006569845
    vertex -297.5000000000001 -96.36618297195587 0.004998133891135661
    vertex -297.5000000000001 -97.08852537650179 -0.18855293006569845
  endloop
endfacet
facet normal -3.583820069150546e-19 0.3302790619551715 -0.9438833303083662
  outer loop
    vertex -297.5000000000001 -97.08852537650179 -0.18855293006569845
    vertex -337.50000000000017 -97.14097363239274 -0.2069053685510673
    vertex -337.50000000000017 -97.08852537650179 -0.18855293006569845
  endloop
endfacet
facet normal -3.583820069150546e-19 0.3302790619551715 -0.9438833303083662
  outer loop
    vertex -337.50000000000017 -97.14097363239274 -0.2069053685510673
    vertex -297.5000000000001 -97.08852537650179 -0.18855293006569845
    vertex -336.84658975633624 -97.79438387605668 -0.43554350148506377
  endloop
endfacet
facet normal -3.583820069150546e-19 0.3302790619551715 -0.9438833303083662
  outer loop
    vertex -336.84658975633624 -97.79438387605668 -0.43554350148506377
    vertex -297.5000000000001 -97.08852537650179 -0.18855293006569845
    vertex -298.1534102436641 -97.79438387605668 -0.43554350148506377
  endloop
endfacet
facet normal -3.583820069150546e-19 0.3302790619551715 -0.9438833303083662
  outer loop
    vertex -298.1534102436641 -97.79438387605668 -0.43554350148506377
    vertex -297.5000000000001 -97.08852537650179 -0.18855293006569845
    vertex -297.5000000000001 -97.14097363239274 -0.2069053685510673
  endloop
endfacet
facet normal 1.0 0.0 0.0
  outer loop
    vertex -297.5000000000001 -97.08852537650179 -0.18855293006569845
    vertex -297.5000000000001 -97.14097363239274 1.2557190120728934
    vertex -297.5000000000001 -97.14097363239274 -0.2069053685510673
  endloop
endfacet
facet normal 1.0 0.0 0.0
  outer loop
    vertex -297.5000000000001 -97.14097363239274 1.2557190120728934
    vertex -297.5000000000001 -97.08852537650179 -0.18855293006569845
    vertex -297.5000000000001 -96.26597363239274 3.0057190120728903
  endloop
endfacet
facet normal 1.0 0.0 0.0
  outer loop
    vertex -297.5000000000001 -96.26597363239274 3.0057190120728903
    vertex -297.5000000000001 -97.08852537650179 -0.18855293006569845
    vertex -297.5000000000001 -96.36618297195587 0.004998133891135661
  endloop
endfacet
facet normal 1.0 0.0 0.0
  outer loop
    vertex -297.5000000000001 -96.26597363239274 3.0057190120728903
    vertex -297.5000000000001 -96.36618297195587 0.004998133891135661
    vertex -297.5000000000001 -95.6313962941545 0.14402727432418344
  endloop
endfacet
facet normal 1.0 0.0 0.0
  outer loop
    vertex -297.5000000000001 -96.26597363239274 3.0057190120728903
    vertex -297.5000000000001 -95.6313962941545 0.14402727432418344
    vertex -297.5000000000001 -95.76597363239271 0.7557190120728944
  endloop
endfacet
facet normal 1.0 0.0 0.0
  outer loop
    vertex -297.5000000000001 -95.76597363239271 0.7557190120728944
    vertex -297.5000000000001 -95.6313962941545 0.14402727432418344
    vertex -297.5000000000001 -92.51597363239274 0.7557190120728944
  endloop
endfacet
facet normal 1.0 0.0 0.0
  outer loop
    vertex -297.5000000000001 -92.51597363239274 0.7557190120728944
    vertex -297.5000000000001 -95.6313962941545 0.14402727432418344
    vertex -297.5000000000001 -94.88827456825696 0.22775698388469257
  endloop
endfacet
facet normal 1.0 0.0 0.0
  outer loop
    vertex -297.5000000000001 -92.51597363239274 0.7557190120728944
    vertex -297.5000000000001 -94.88827456825696 0.22775698388469257
    vertex -297.5000000000001 -94.14097363239273 0.2557190120728953
  endloop
endfacet
facet normal 1.0 0.0 0.0
  outer loop
    vertex -297.5000000000001 -92.51597363239274 0.7557190120728944
    vertex -297.5000000000001 -94.14097363239273 0.2557190120728953
    vertex -297.5000000000001 -93.3936726965285 0.22775698388469257
  endloop
endfacet
facet normal 1.0 0.0 0.0
  outer loop
    vertex -297.5000000000001 -92.51597363239274 0.7557190120728944
    vertex -297.5000000000001 -93.3936726965285 0.22775698388469257
    vertex -297.5000000000001 -92.65055097063097 0.14402727432418344
  endloop
endfacet
facet normal 1.0 0.0 0.0
  outer loop
    vertex -297.5000000000001 -92.51597363239274 0.7557190120728944
    vertex -297.5000000000001 -92.65055097063097 0.14402727432418344
    vertex -297.5000000000001 -91.91576429282959 0.004998133891135661
  endloop
endfacet
facet normal 1.0 0.0 0.0
  outer loop
    vertex -297.5000000000001 -92.51597363239274 0.7557190120728944
    vertex -297.5000000000001 -91.91576429282959 0.004998133891135661
    vertex -297.5000000000001 -92.51597363239274 2.505719012072891
  endloop
endfacet
facet normal 1.0 0.0 0.0
  outer loop
    vertex -297.5000000000001 -92.51597363239274 2.505719012072891
    vertex -297.5000000000001 -91.91576429282959 0.004998133891135661
    vertex -297.5000000000001 -92.01597363239271 3.0057190120728903
  endloop
endfacet
facet normal 1.0 0.0 0.0
  outer loop
    vertex -297.5000000000001 -92.01597363239271 3.0057190120728903
    vertex -297.5000000000001 -91.91576429282959 0.004998133891135661
    vertex -297.5000000000001 -91.14097363239273 1.2557190120728934
  endloop
endfacet
facet normal 1.0 0.0 0.0
  outer loop
    vertex -297.5000000000001 -91.14097363239273 1.2557190120728934
    vertex -297.5000000000001 -91.91576429282959 0.004998133891135661
    vertex -297.5000000000001 -91.19342188828367 -0.18855293006569845
  endloop
endfacet
facet normal 1.0 0.0 0.0
  outer loop
    vertex -297.5000000000001 -91.14097363239273 1.2557190120728934
    vertex -297.5000000000001 -91.19342188828367 -0.18855293006569845
    vertex -297.5000000000001 -91.14097363239273 -0.2069053685510673
  endloop
endfacet
facet normal 1.0 0.0 0.0
  outer loop
    vertex -297.5000000000001 -96.26597363239274 3.0057190120728903
    vertex -297.5000000000001 -95.76597363239271 2.505719012072891
    vertex -297.5000000000001 -92.01597363239271 3.0057190120728903
  endloop
endfacet
facet normal 1.0 0.0 0.0
  outer loop
    vertex -297.5000000000001 -95.76597363239271 2.505719012072891
    vertex -297.5000000000001 -96.26597363239274 3.0057190120728903
    vertex -297.5000000000001 -95.76597363239271 0.7557190120728944
  endloop
endfacet
facet normal 1.0 0.0 0.0
  outer loop
    vertex -297.5000000000001 -92.01597363239271 3.0057190120728903
    vertex -297.5000000000001 -95.76597363239271 2.505719012072891
    vertex -297.5000000000001 -92.51597363239274 2.505719012072891
  endloop
endfacet
facet normal 0.0 -0.258819045102519 -0.965925826289069
  outer loop
    vertex -297.5000000000001 -91.19342188828367 -0.18855293006569845
    vertex -337.50000000000017 -91.91576429282959 0.004998133891135661
    vertex -337.50000000000017 -91.19342188828367 -0.18855293006569845
  endloop
endfacet
facet normal 0.0 -0.258819045102519 -0.965925826289069
  outer loop
    vertex -337.50000000000017 -91.91576429282959 0.004998133891135661
    vertex -297.5000000000001 -91.19342188828367 -0.18855293006569845
    vertex -297.5000000000001 -91.91576429282959 0.004998133891135661
  endloop
endfacet
facet normal -1.190315975390926e-20 -0.9914448613738197 -0.13052619221998146
  outer loop
    vertex -300.2500000000001 -99.89097363239273 -0.6510142481905005
    vertex -334.76703708685557 -99.87393654553728 -0.7804237707417675
    vertex -300.2329629131447 -99.87393654553728 -0.7804237707417675
  endloop
endfacet
facet normal -1.190315975390926e-20 -0.9914448613738197 -0.13052619221998146
  outer loop
    vertex -334.76703708685557 -99.87393654553728 -0.7804237707417675
    vertex -300.2500000000001 -99.89097363239273 -0.6510142481905005
    vertex -334.75000000000006 -99.89097363239273 -0.6510142481905005
  endloop
endfacet
facet normal -1.9031781445621797e-19 0.467268628273073 -0.8841153935046042
  outer loop
    vertex -298.8388373911757 -98.47981102356832 -0.7345923089029109
    vertex -335.50000000000006 -99.14097363239271 -1.0840269500827173
    vertex -336.1611626088246 -98.47981102356832 -0.7345923089029109
  endloop
endfacet
facet normal -1.9031781445621797e-19 0.467268628273073 -0.8841153935046042
  outer loop
    vertex -335.50000000000006 -99.14097363239271 -1.0840269500827173
    vertex -298.8388373911757 -98.47981102356832 -0.7345923089029109
    vertex -299.5000000000001 -99.14097363239271 -1.0840269500827173
  endloop
endfacet
facet normal 5.403076155394782e-20 -0.9238795325112517 -0.382683432365175
  outer loop
    vertex -300.2329629131447 -99.87393654553728 -0.7804237707417675
    vertex -334.81698729810796 -99.82398633428495 -0.9010142481905
    vertex -300.1830127018923 -99.82398633428495 -0.9010142481905
  endloop
endfacet
facet normal 5.403076155394782e-20 -0.9238795325112517 -0.382683432365175
  outer loop
    vertex -334.81698729810796 -99.82398633428495 -0.9010142481905
    vertex -300.2329629131447 -99.87393654553728 -0.7804237707417675
    vertex -334.76703708685557 -99.87393654553728 -0.7804237707417675
  endloop
endfacet
facet normal -1.286682061480007e-16 0.6087614290087682 -0.7933533402911987
  outer loop
    vertex -334.89644660940695 -88.53742024179945 -1.0045676387837752
    vertex -300.00000000000017 -88.64097363239271 -1.0840269500827284
    vertex -335.00000000000017 -88.64097363239271 -1.0840269500827173
  endloop
endfacet
facet normal -1.286682061480007e-16 0.6087614290087682 -0.7933533402911987
  outer loop
    vertex -300.00000000000017 -88.64097363239271 -1.0840269500827284
    vertex -334.89644660940695 -88.53742024179945 -1.0045676387837752
    vertex -300.10355339059345 -88.53742024179945 -1.0045676387837752
  endloop
endfacet
facet normal -2.1330831836121253e-17 -0.991444861373819 0.13052619221998704
  outer loop
    vertex -300.2329629131447 -99.87393654553728 -0.5216047256392334
    vertex -334.75000000000006 -99.89097363239273 -0.6510142481905005
    vertex -300.2500000000001 -99.89097363239273 -0.6510142481905005
  endloop
endfacet
facet normal -2.1330831836121253e-17 -0.991444861373819 0.13052619221998704
  outer loop
    vertex -334.75000000000006 -99.89097363239273 -0.6510142481905005
    vertex -300.2329629131447 -99.87393654553728 -0.5216047256392334
    vertex -334.76703708685557 -99.87393654553728 -0.5216047256392448
  endloop
endfacet
facet normal -5.403076155394782e-20 0.9238795325112517 -0.382683432365175
  outer loop
    vertex -334.76703708685557 -88.40801071924818 -0.7804237707417675
    vertex -300.1830127018923 -88.45796093050052 -0.9010142481905
    vertex -334.81698729810796 -88.45796093050052 -0.9010142481905
  endloop
endfacet
facet normal -5.403076155394782e-20 0.9238795325112517 -0.382683432365175
  outer loop
    vertex -300.1830127018923 -88.45796093050052 -0.9010142481905
    vertex -334.76703708685557 -88.40801071924818 -0.7804237707417675
    vertex -300.2329629131447 -88.40801071924818 -0.7804237707417675
  endloop
endfacet
facet normal -0.7071067811865422 -0.7071067811865529 1.2238638681266534e-14
  outer loop
    vertex -335.12059047744896 -99.52038315494403 -1.1339771613350422
    vertex -335.3794095225515 -99.26156410984149 -1.1339771613350422
    vertex -335.2500000000001 -99.39097363239276 -1.1510142481904995
  endloop
endfacet
facet normal -0.7071067811865422 -0.7071067811865529 1.2238638681266534e-14
  outer loop
    vertex -335.3794095225515 -99.26156410984149 -1.1339771613350422
    vertex -335.12059047744896 -99.52038315494403 -1.1339771613350422
    vertex -335.00000000000017 -99.64097363239274 -1.0840269500827284
  endloop
endfacet
facet normal -0.7071067811865422 -0.7071067811865529 1.2238638681266534e-14
  outer loop
    vertex -335.3794095225515 -99.26156410984149 -1.1339771613350422
    vertex -335.00000000000017 -99.64097363239274 -1.0840269500827284
    vertex -335.50000000000006 -99.14097363239271 -1.0840269500827173
  endloop
endfacet
facet normal -0.7071067811865422 -0.7071067811865529 1.2238638681266534e-14
  outer loop
    vertex -335.50000000000006 -99.14097363239271 -1.0840269500827173
    vertex -335.00000000000017 -99.64097363239274 -1.0840269500827284
    vertex -334.89644660940695 -99.744527022986 -1.0045676387837752
  endloop
endfacet
facet normal -0.7071067811865422 -0.7071067811865529 1.2238638681266534e-14
  outer loop
    vertex -335.50000000000006 -99.14097363239271 -1.0840269500827173
    vertex -334.89644660940695 -99.744527022986 -1.0045676387837752
    vertex -336.1611626088246 -98.47981102356832 -0.7345923089029109
  endloop
endfacet
facet normal -0.7071067811865422 -0.7071067811865529 1.2238638681266534e-14
  outer loop
    vertex -336.1611626088246 -98.47981102356832 -0.7345923089029109
    vertex -334.89644660940695 -99.744527022986 -1.0045676387837752
    vertex -334.81698729810796 -99.82398633428495 -0.9010142481905
  endloop
endfacet
facet normal -0.7071067811865422 -0.7071067811865529 1.2238638681266534e-14
  outer loop
    vertex -336.1611626088246 -98.47981102356832 -0.7345923089029109
    vertex -334.81698729810796 -99.82398633428495 -0.9010142481905
    vertex -334.76703708685557 -99.87393654553728 -0.7804237707417675
  endloop
endfacet
facet normal -0.7071067811865422 -0.7071067811865529 1.2238638681266534e-14
  outer loop
    vertex -336.1611626088246 -98.47981102356832 -0.7345923089029109
    vertex -334.76703708685557 -99.87393654553728 -0.7804237707417675
    vertex -334.75000000000006 -99.89097363239273 -0.6510142481905005
  endloop
endfacet
facet normal -0.7071067811865422 -0.7071067811865529 1.2238638681266534e-14
  outer loop
    vertex -336.1611626088246 -98.47981102356832 -0.7345923089029109
    vertex -334.75000000000006 -99.89097363239273 -0.6510142481905005
    vertex -336.84658975633624 -97.79438387605668 -0.43554350148506377
  endloop
endfacet
facet normal -0.7071067811865422 -0.7071067811865529 1.2238638681266534e-14
  outer loop
    vertex -336.84658975633624 -97.79438387605668 -0.43554350148506377
    vertex -334.75000000000006 -99.89097363239273 -0.6510142481905005
    vertex -334.76703708685557 -99.87393654553728 -0.5216047256392448
  endloop
endfacet
facet normal -0.7071067811865422 -0.7071067811865529 1.2238638681266534e-14
  outer loop
    vertex -336.84658975633624 -97.79438387605668 -0.43554350148506377
    vertex -334.76703708685557 -99.87393654553728 -0.5216047256392448
    vertex -334.81698729810796 -99.82398633428495 -0.4010142481905009
  endloop
endfacet
facet normal -0.7071067811865422 -0.7071067811865529 1.2238638681266534e-14
  outer loop
    vertex -336.84658975633624 -97.79438387605668 -0.43554350148506377
    vertex -334.81698729810796 -99.82398633428495 -0.4010142481905009
    vertex -337.50000000000017 -97.14097363239274 -0.2069053685510673
  endloop
endfacet
facet normal -0.7071067811865422 -0.7071067811865529 1.2238638681266534e-14
  outer loop
    vertex -337.50000000000017 -97.14097363239274 -0.2069053685510673
    vertex -334.81698729810796 -99.82398633428495 -0.4010142481905009
    vertex -334.89644660940695 -99.744527022986 -0.2974608575972258
  endloop
endfacet
facet normal -0.7071067811865422 -0.7071067811865529 1.2238638681266534e-14
  outer loop
    vertex -337.50000000000017 -97.14097363239274 -0.2069053685510673
    vertex -334.89644660940695 -99.744527022986 -0.2974608575972258
    vertex -335.00000000000017 -99.64097363239274 -0.2180015462982837
  endloop
endfacet
facet normal -0.7071067811865422 -0.7071067811865529 1.2238638681266534e-14
  outer loop
    vertex -337.50000000000017 -97.14097363239274 -0.2069053685510673
    vertex -335.00000000000017 -99.64097363239274 -0.2180015462982837
    vertex -337.50000000000017 -97.14097363239274 1.2557190120728934
  endloop
endfacet
facet normal 0.7071067811865439 0.7071067811865511 6.7469418371084615e-15
  outer loop
    vertex -299.8794095225514 -88.76156410984144 -1.1339771613350422
    vertex -299.6205904774489 -89.02038315494397 -1.1339771613350422
    vertex -299.7500000000001 -88.8909736323927 -1.1510142481904995
  endloop
endfacet
facet normal 0.7071067811865439 0.7071067811865511 6.7469418371084615e-15
  outer loop
    vertex -299.6205904774489 -89.02038315494397 -1.1339771613350422
    vertex -299.8794095225514 -88.76156410984144 -1.1339771613350422
    vertex -300.00000000000017 -88.64097363239271 -1.0840269500827284
  endloop
endfacet
facet normal 0.7071067811865439 0.7071067811865511 6.7469418371084615e-15
  outer loop
    vertex -299.6205904774489 -89.02038315494397 -1.1339771613350422
    vertex -300.00000000000017 -88.64097363239271 -1.0840269500827284
    vertex -299.5000000000001 -89.14097363239274 -1.0840269500827173
  endloop
endfacet
facet normal 0.7071067811865439 0.7071067811865511 6.7469418371084615e-15
  outer loop
    vertex -299.5000000000001 -89.14097363239274 -1.0840269500827173
    vertex -300.00000000000017 -88.64097363239271 -1.0840269500827284
    vertex -300.10355339059345 -88.53742024179945 -1.0045676387837752
  endloop
endfacet
facet normal 0.7071067811865439 0.7071067811865511 6.7469418371084615e-15
  outer loop
    vertex -299.5000000000001 -89.14097363239274 -1.0840269500827173
    vertex -300.10355339059345 -88.53742024179945 -1.0045676387837752
    vertex -298.8388373911757 -89.80213624121716 -0.7345923089029109
  endloop
endfacet
facet normal 0.7071067811865439 0.7071067811865511 6.7469418371084615e-15
  outer loop
    vertex -298.8388373911757 -89.80213624121716 -0.7345923089029109
    vertex -300.10355339059345 -88.53742024179945 -1.0045676387837752
    vertex -300.1830127018923 -88.45796093050052 -0.9010142481905
  endloop
endfacet
facet normal 0.7071067811865439 0.7071067811865511 6.7469418371084615e-15
  outer loop
    vertex -298.8388373911757 -89.80213624121716 -0.7345923089029109
    vertex -300.1830127018923 -88.45796093050052 -0.9010142481905
    vertex -300.2329629131447 -88.40801071924818 -0.7804237707417675
  endloop
endfacet
facet normal 0.7071067811865439 0.7071067811865511 6.7469418371084615e-15
  outer loop
    vertex -298.8388373911757 -89.80213624121716 -0.7345923089029109
    vertex -300.2329629131447 -88.40801071924818 -0.7804237707417675
    vertex -300.2500000000001 -88.39097363239273 -0.6510142481905005
  endloop
endfacet
facet normal 0.7071067811865439 0.7071067811865511 6.7469418371084615e-15
  outer loop
    vertex -298.8388373911757 -89.80213624121716 -0.7345923089029109
    vertex -300.2500000000001 -88.39097363239273 -0.6510142481905005
    vertex -298.1534102436641 -90.48756338872879 -0.43554350148506377
  endloop
endfacet
facet normal 0.7071067811865439 0.7071067811865511 6.7469418371084615e-15
  outer loop
    vertex -298.1534102436641 -90.48756338872879 -0.43554350148506377
    vertex -300.2500000000001 -88.39097363239273 -0.6510142481905005
    vertex -300.2329629131447 -88.40801071924818 -0.5216047256392448
  endloop
endfacet
facet normal 0.7071067811865439 0.7071067811865511 6.7469418371084615e-15
  outer loop
    vertex -298.1534102436641 -90.48756338872879 -0.43554350148506377
    vertex -300.2329629131447 -88.40801071924818 -0.5216047256392448
    vertex -300.1830127018923 -88.45796093050052 -0.4010142481905009
  endloop
endfacet
facet normal 0.7071067811865439 0.7071067811865511 6.7469418371084615e-15
  outer loop
    vertex -298.1534102436641 -90.48756338872879 -0.43554350148506377
    vertex -300.1830127018923 -88.45796093050052 -0.4010142481905009
    vertex -297.5000000000001 -91.14097363239273 -0.2069053685510673
  endloop
endfacet
facet normal 0.7071067811865439 0.7071067811865511 6.7469418371084615e-15
  outer loop
    vertex -297.5000000000001 -91.14097363239273 -0.2069053685510673
    vertex -300.1830127018923 -88.45796093050052 -0.4010142481905009
    vertex -300.10355339059345 -88.53742024179945 -0.2974608575972258
  endloop
endfacet
facet normal 0.7071067811865439 0.7071067811865511 6.7469418371084615e-15
  outer loop
    vertex -297.5000000000001 -91.14097363239273 -0.2069053685510673
    vertex -300.10355339059345 -88.53742024179945 -0.2974608575972258
    vertex -300.00000000000017 -88.64097363239271 -0.2180015462982837
  endloop
endfacet
facet normal 0.7071067811865439 0.7071067811865511 6.7469418371084615e-15
  outer loop
    vertex -297.5000000000001 -91.14097363239273 -0.2069053685510673
    vertex -300.00000000000017 -88.64097363239271 -0.2180015462982837
    vertex -297.5000000000001 -91.14097363239273 1.2557190120728934
  endloop
endfacet
facet normal 0.0 -0.03739119427633205 -0.9993007047883984
  outer loop
    vertex -297.5000000000001 -93.3936726965285 0.22775698388469257
    vertex -337.50000000000017 -94.14097363239273 0.2557190120728953
    vertex -337.50000000000017 -93.3936726965285 0.22775698388469257
  endloop
endfacet
facet normal 0.0 -0.03739119427633205 -0.9993007047883984
  outer loop
    vertex -337.50000000000017 -94.14097363239273 0.2557190120728953
    vertex -297.5000000000001 -93.3936726965285 0.22775698388469257
    vertex -297.5000000000001 -94.14097363239273 0.2557190120728953
  endloop
endfacet
facet normal 8.919619423198037e-19 0.507821790101149 0.8614621462945803
  outer loop
    vertex -297.5000000000001 -91.14097363239273 1.2557190120728934
    vertex -335.00000000000017 -88.64097363239271 -0.2180015462982837
    vertex -337.50000000000017 -91.14097363239273 1.2557190120728934
  endloop
endfacet
facet normal 8.919619423198037e-19 0.507821790101149 0.8614621462945803
  outer loop
    vertex -335.00000000000017 -88.64097363239271 -0.2180015462982837
    vertex -297.5000000000001 -91.14097363239273 1.2557190120728934
    vertex -300.00000000000017 -88.64097363239271 -0.2180015462982837
  endloop
endfacet
facet normal -6.246557328216612e-20 -0.7933533402912517 -0.6087614290086991
  outer loop
    vertex -300.1830127018923 -99.82398633428495 -0.9010142481905
    vertex -334.89644660940695 -99.744527022986 -1.0045676387837752
    vertex -300.10355339059345 -99.744527022986 -1.0045676387837752
  endloop
endfacet
facet normal -6.246557328216612e-20 -0.7933533402912517 -0.6087614290086991
  outer loop
    vertex -334.89644660940695 -99.744527022986 -1.0045676387837752
    vertex -300.1830127018923 -99.82398633428495 -0.9010142481905
    vertex -334.81698729810796 -99.82398633428495 -0.9010142481905
  endloop
endfacet
facet normal 1.0597642056168774e-20 0.38268343236508334 -0.9238795325112895
  outer loop
    vertex -299.5000000000001 -99.14097363239271 -1.0840269500827173
    vertex -335.3794095225515 -99.26156410984149 -1.1339771613350422
    vertex -335.50000000000006 -99.14097363239271 -1.0840269500827173
  endloop
endfacet
facet normal 1.0597642056168774e-20 0.38268343236508334 -0.9238795325112895
  outer loop
    vertex -335.3794095225515 -99.26156410984149 -1.1339771613350422
    vertex -299.5000000000001 -99.14097363239271 -1.0840269500827173
    vertex -299.6205904774489 -99.26156410984149 -1.1339771613350422
  endloop
endfacet
facet normal -6.246557328216612e-20 -0.7933533402912517 0.608761429008699
  outer loop
    vertex -300.10355339059345 -99.744527022986 -0.2974608575972258
    vertex -334.81698729810796 -99.82398633428495 -0.4010142481905009
    vertex -300.1830127018923 -99.82398633428495 -0.4010142481905009
  endloop
endfacet
facet normal -6.246557328216612e-20 -0.7933533402912517 0.608761429008699
  outer loop
    vertex -334.81698729810796 -99.82398633428495 -0.4010142481905009
    vertex -300.10355339059345 -99.744527022986 -0.2974608575972258
    vertex -334.89644660940695 -99.744527022986 -0.2974608575972258
  endloop
endfacet
facet normal 1.8749505488889415e-20 0.9914448613738197 -0.13052619221998146
  outer loop
    vertex -334.75000000000006 -88.39097363239273 -0.6510142481905005
    vertex -300.2329629131447 -88.40801071924818 -0.7804237707417675
    vertex -334.76703708685557 -88.40801071924818 -0.7804237707417675
  endloop
endfacet
facet normal 1.8749505488889415e-20 0.9914448613738197 -0.13052619221998146
  outer loop
    vertex -300.2329629131447 -88.40801071924818 -0.7804237707417675
    vertex -334.75000000000006 -88.39097363239273 -0.6510142481905005
    vertex -300.2500000000001 -88.39097363239273 -0.6510142481905005
  endloop
endfacet
facet normal 3.21272073483136e-21 0.13052619221998146 -0.9914448613738197
  outer loop
    vertex -299.6205904774489 -99.26156410984149 -1.1339771613350422
    vertex -335.2500000000001 -99.39097363239276 -1.1510142481904995
    vertex -335.3794095225515 -99.26156410984149 -1.1339771613350422
  endloop
endfacet
facet normal 3.21272073483136e-21 0.13052619221998146 -0.9914448613738197
  outer loop
    vertex -335.2500000000001 -99.39097363239276 -1.1510142481904995
    vertex -299.6205904774489 -99.26156410984149 -1.1339771613350422
    vertex -299.7500000000001 -99.39097363239276 -1.1510142481904995
  endloop
endfacet
facet normal 2.1337678181856288e-17 0.991444861373819 0.13052619221998704
  outer loop
    vertex -334.76703708685557 -88.40801071924818 -0.5216047256392334
    vertex -300.2500000000001 -88.39097363239273 -0.6510142481905005
    vertex -334.75000000000006 -88.39097363239273 -0.6510142481905005
  endloop
endfacet
facet normal 2.1337678181856288e-17 0.991444861373819 0.13052619221998704
  outer loop
    vertex -300.2500000000001 -88.39097363239273 -0.6510142481905005
    vertex -334.76703708685557 -88.40801071924818 -0.5216047256392334
    vertex -300.2329629131447 -88.40801071924818 -0.5216047256392448
  endloop
endfacet
facet normal -2.0140557463170386e-19 0.3998920243197358 -0.9165622558699786
  outer loop
    vertex -298.1534102436641 -97.79438387605668 -0.43554350148506377
    vertex -336.1611626088246 -98.47981102356832 -0.7345923089029109
    vertex -336.84658975633624 -97.79438387605668 -0.43554350148506377
  endloop
endfacet
facet normal -2.0140557463170386e-19 0.3998920243197358 -0.9165622558699786
  outer loop
    vertex -336.1611626088246 -98.47981102356832 -0.7345923089029109
    vertex -298.1534102436641 -97.79438387605668 -0.43554350148506377
    vertex -298.8388373911757 -98.47981102356832 -0.7345923089029109
  endloop
endfacet
facet normal -1.9031781445638738e-19 -0.4672686282730668 -0.8841153935046073
  outer loop
    vertex -335.50000000000006 -89.14097363239274 -1.0840269500827173
    vertex -298.8388373911757 -89.80213624121716 -0.7345923089029109
    vertex -336.1611626088246 -89.80213624121716 -0.7345923089029109
  endloop
endfacet
facet normal -1.9031781445638738e-19 -0.4672686282730668 -0.8841153935046073
  outer loop
    vertex -298.8388373911757 -89.80213624121716 -0.7345923089029109
    vertex -335.50000000000006 -89.14097363239274 -1.0840269500827173
    vertex -299.5000000000001 -89.14097363239274 -1.0840269500827173
  endloop
endfacet
facet normal -2.1205774141031584e-20 -0.6087614290087408 0.7933533402912197
  outer loop
    vertex -334.89644660940695 -99.744527022986 -0.2974608575972258
    vertex -300.00000000000017 -99.64097363239274 -0.2180015462982837
    vertex -335.00000000000017 -99.64097363239274 -0.2180015462982837
  endloop
endfacet
facet normal -2.1205774141031584e-20 -0.6087614290087408 0.7933533402912197
  outer loop
    vertex -300.00000000000017 -99.64097363239274 -0.2180015462982837
    vertex -334.89644660940695 -99.744527022986 -0.2974608575972258
    vertex -300.10355339059345 -99.744527022986 -0.2974608575972258
  endloop
endfacet
facet normal 0.7071067811865426 -0.7071067811865526 2.9812068582572303e-15
  outer loop
    vertex -299.6205904774489 -99.26156410984149 -1.1339771613350422
    vertex -299.8794095225514 -99.52038315494397 -1.1339771613350422
    vertex -299.7500000000001 -99.39097363239276 -1.1510142481904995
  endloop
endfacet
facet normal 0.7071067811865426 -0.7071067811865526 2.9812068582572303e-15
  outer loop
    vertex -299.8794095225514 -99.52038315494397 -1.1339771613350422
    vertex -299.6205904774489 -99.26156410984149 -1.1339771613350422
    vertex -299.5000000000001 -99.14097363239271 -1.0840269500827173
  endloop
endfacet
facet normal 0.7071067811865426 -0.7071067811865526 2.9812068582572303e-15
  outer loop
    vertex -299.8794095225514 -99.52038315494397 -1.1339771613350422
    vertex -299.5000000000001 -99.14097363239271 -1.0840269500827173
    vertex -300.00000000000017 -99.64097363239274 -1.0840269500827173
  endloop
endfacet
facet normal 0.7071067811865426 -0.7071067811865526 2.9812068582572303e-15
  outer loop
    vertex -300.00000000000017 -99.64097363239274 -1.0840269500827173
    vertex -299.5000000000001 -99.14097363239271 -1.0840269500827173
    vertex -298.8388373911757 -98.47981102356832 -0.7345923089029109
  endloop
endfacet
facet normal 0.7071067811865426 -0.7071067811865526 2.9812068582572303e-15
  outer loop
    vertex -300.00000000000017 -99.64097363239274 -1.0840269500827173
    vertex -298.8388373911757 -98.47981102356832 -0.7345923089029109
    vertex -300.10355339059345 -99.744527022986 -1.0045676387837752
  endloop
endfacet
facet normal 0.7071067811865426 -0.7071067811865526 2.9812068582572303e-15
  outer loop
    vertex -300.10355339059345 -99.744527022986 -1.0045676387837752
    vertex -298.8388373911757 -98.47981102356832 -0.7345923089029109
    vertex -300.1830127018923 -99.82398633428495 -0.9010142481905
  endloop
endfacet
facet normal 0.7071067811865426 -0.7071067811865526 2.9812068582572303e-15
  outer loop
    vertex -300.1830127018923 -99.82398633428495 -0.9010142481905
    vertex -298.8388373911757 -98.47981102356832 -0.7345923089029109
    vertex -300.2329629131447 -99.87393654553728 -0.7804237707417675
  endloop
endfacet
facet normal 0.7071067811865426 -0.7071067811865526 2.9812068582572303e-15
  outer loop
    vertex -300.2329629131447 -99.87393654553728 -0.7804237707417675
    vertex -298.8388373911757 -98.47981102356832 -0.7345923089029109
    vertex -300.2500000000001 -99.89097363239273 -0.6510142481905005
  endloop
endfacet
facet normal 0.7071067811865426 -0.7071067811865526 2.9812068582572303e-15
  outer loop
    vertex -300.2500000000001 -99.89097363239273 -0.6510142481905005
    vertex -298.8388373911757 -98.47981102356832 -0.7345923089029109
    vertex -298.1534102436641 -97.79438387605668 -0.43554350148506377
  endloop
endfacet
facet normal 0.7071067811865426 -0.7071067811865526 2.9812068582572303e-15
  outer loop
    vertex -300.2500000000001 -99.89097363239273 -0.6510142481905005
    vertex -298.1534102436641 -97.79438387605668 -0.43554350148506377
    vertex -300.2329629131447 -99.87393654553728 -0.5216047256392334
  endloop
endfacet
facet normal 0.7071067811865426 -0.7071067811865526 2.9812068582572303e-15
  outer loop
    vertex -300.2329629131447 -99.87393654553728 -0.5216047256392334
    vertex -298.1534102436641 -97.79438387605668 -0.43554350148506377
    vertex -300.1830127018923 -99.82398633428495 -0.4010142481905009
  endloop
endfacet
facet normal 0.7071067811865426 -0.7071067811865526 2.9812068582572303e-15
  outer loop
    vertex -300.1830127018923 -99.82398633428495 -0.4010142481905009
    vertex -298.1534102436641 -97.79438387605668 -0.43554350148506377
    vertex -297.5000000000001 -97.14097363239274 -0.2069053685510673
  endloop
endfacet
facet normal 0.7071067811865426 -0.7071067811865526 2.9812068582572303e-15
  outer loop
    vertex -300.1830127018923 -99.82398633428495 -0.4010142481905009
    vertex -297.5000000000001 -97.14097363239274 -0.2069053685510673
    vertex -300.10355339059345 -99.744527022986 -0.2974608575972258
  endloop
endfacet
facet normal 0.7071067811865426 -0.7071067811865526 2.9812068582572303e-15
  outer loop
    vertex -300.10355339059345 -99.744527022986 -0.2974608575972258
    vertex -297.5000000000001 -97.14097363239274 -0.2069053685510673
    vertex -300.00000000000017 -99.64097363239274 -0.2180015462982837
  endloop
endfacet
facet normal 0.7071067811865426 -0.7071067811865526 2.9812068582572303e-15
  outer loop
    vertex -300.00000000000017 -99.64097363239274 -0.2180015462982837
    vertex -297.5000000000001 -97.14097363239274 -0.2069053685510673
    vertex -297.5000000000001 -97.14097363239274 1.2557190120728934
  endloop
endfacet
facet normal -2.0140557463170386e-19 -0.3998920243197358 -0.9165622558699786
  outer loop
    vertex -336.1611626088246 -89.80213624121716 -0.7345923089029109
    vertex -298.1534102436641 -90.48756338872879 -0.43554350148506377
    vertex -336.84658975633624 -90.48756338872879 -0.43554350148506377
  endloop
endfacet
facet normal -2.0140557463170386e-19 -0.3998920243197358 -0.9165622558699786
  outer loop
    vertex -298.1534102436641 -90.48756338872879 -0.43554350148506377
    vertex -336.1611626088246 -89.80213624121716 -0.7345923089029109
    vertex -298.8388373911757 -89.80213624121716 -0.7345923089029109
  endloop
endfacet
facet normal -1.0 1.5589202113857442e-47 -1.4462247633568523e-30
  outer loop
    vertex -337.50000000000017 -92.01597363239271 3.0057190120728903
    vertex -337.50000000000017 -95.76597363239271 2.505719012072891
    vertex -337.50000000000017 -96.26597363239274 3.0057190120728903
  endloop
endfacet
facet normal -1.0 1.5589202113857442e-47 -1.4462247633568523e-30
  outer loop
    vertex -337.50000000000017 -95.76597363239271 2.505719012072891
    vertex -337.50000000000017 -92.01597363239271 3.0057190120728903
    vertex -337.50000000000017 -92.51597363239274 2.505719012072891
  endloop
endfacet
facet normal -1.0 1.5589202113857442e-47 -1.4462247633568523e-30
  outer loop
    vertex -337.50000000000017 -92.51597363239274 2.505719012072891
    vertex -337.50000000000017 -92.01597363239271 3.0057190120728903
    vertex -337.50000000000017 -92.51597363239274 0.7557190120728944
  endloop
endfacet
facet normal -1.0 1.5589202113857442e-47 -1.4462247633568523e-30
  outer loop
    vertex -337.50000000000017 -96.26597363239274 3.0057190120728903
    vertex -337.50000000000017 -97.14097363239274 -0.2069053685510673
    vertex -337.50000000000017 -97.14097363239274 1.2557190120728934
  endloop
endfacet
facet normal -1.0 1.5589202113857442e-47 -1.4462247633568523e-30
  outer loop
    vertex -337.50000000000017 -97.14097363239274 -0.2069053685510673
    vertex -337.50000000000017 -96.26597363239274 3.0057190120728903
    vertex -337.50000000000017 -97.08852537650179 -0.18855293006569845
  endloop
endfacet
facet normal -1.0 1.5589202113857442e-47 -1.4462247633568523e-30
  outer loop
    vertex -337.50000000000017 -97.08852537650179 -0.18855293006569845
    vertex -337.50000000000017 -96.26597363239274 3.0057190120728903
    vertex -337.50000000000017 -96.36618297195587 0.004998133891135661
  endloop
endfacet
facet normal -1.0 1.5589202113857442e-47 -1.4462247633568523e-30
  outer loop
    vertex -337.50000000000017 -96.36618297195587 0.004998133891135661
    vertex -337.50000000000017 -96.26597363239274 3.0057190120728903
    vertex -337.50000000000017 -95.6313962941545 0.14402727432418344
  endloop
endfacet
facet normal -1.0 1.5589202113857442e-47 -1.4462247633568523e-30
  outer loop
    vertex -337.50000000000017 -95.6313962941545 0.14402727432418344
    vertex -337.50000000000017 -96.26597363239274 3.0057190120728903
    vertex -337.50000000000017 -95.76597363239271 0.7557190120728944
  endloop
endfacet
facet normal -1.0 1.5589202113857442e-47 -1.4462247633568523e-30
  outer loop
    vertex -337.50000000000017 -95.76597363239271 0.7557190120728944
    vertex -337.50000000000017 -96.26597363239274 3.0057190120728903
    vertex -337.50000000000017 -95.76597363239271 2.505719012072891
  endloop
endfacet
facet normal -1.0 1.5589202113857442e-47 -1.4462247633568523e-30
  outer loop
    vertex -337.50000000000017 -95.6313962941545 0.14402727432418344
    vertex -337.50000000000017 -95.76597363239271 0.7557190120728944
    vertex -337.50000000000017 -92.51597363239274 0.7557190120728944
  endloop
endfacet
facet normal -1.0 1.5589202113857442e-47 -1.4462247633568523e-30
  outer loop
    vertex -337.50000000000017 -95.6313962941545 0.14402727432418344
    vertex -337.50000000000017 -92.51597363239274 0.7557190120728944
    vertex -337.50000000000017 -94.88827456825696 0.22775698388469257
  endloop
endfacet
facet normal -1.0 1.5589202113857442e-47 -1.4462247633568523e-30
  outer loop
    vertex -337.50000000000017 -94.88827456825696 0.22775698388469257
    vertex -337.50000000000017 -92.51597363239274 0.7557190120728944
    vertex -337.50000000000017 -94.14097363239273 0.2557190120728953
  endloop
endfacet
facet normal -1.0 1.5589202113857442e-47 -1.4462247633568523e-30
  outer loop
    vertex -337.50000000000017 -94.14097363239273 0.2557190120728953
    vertex -337.50000000000017 -92.51597363239274 0.7557190120728944
    vertex -337.50000000000017 -93.3936726965285 0.22775698388469257
  endloop
endfacet
facet normal -1.0 1.5589202113857442e-47 -1.4462247633568523e-30
  outer loop
    vertex -337.50000000000017 -93.3936726965285 0.22775698388469257
    vertex -337.50000000000017 -92.51597363239274 0.7557190120728944
    vertex -337.50000000000017 -92.65055097063097 0.14402727432418344
  endloop
endfacet
facet normal -1.0 1.5589202113857442e-47 -1.4462247633568523e-30
  outer loop
    vertex -337.50000000000017 -92.65055097063097 0.14402727432418344
    vertex -337.50000000000017 -92.51597363239274 0.7557190120728944
    vertex -337.50000000000017 -91.91576429282959 0.004998133891135661
  endloop
endfacet
facet normal -1.0 1.5589202113857442e-47 -1.4462247633568523e-30
  outer loop
    vertex -337.50000000000017 -91.91576429282959 0.004998133891135661
    vertex -337.50000000000017 -92.51597363239274 0.7557190120728944
    vertex -337.50000000000017 -92.01597363239271 3.0057190120728903
  endloop
endfacet
facet normal -1.0 1.5589202113857442e-47 -1.4462247633568523e-30
  outer loop
    vertex -337.50000000000017 -91.91576429282959 0.004998133891135661
    vertex -337.50000000000017 -92.01597363239271 3.0057190120728903
    vertex -337.50000000000017 -91.14097363239273 1.2557190120728934
  endloop
endfacet
facet normal -1.0 1.5589202113857442e-47 -1.4462247633568523e-30
  outer loop
    vertex -337.50000000000017 -91.91576429282959 0.004998133891135661
    vertex -337.50000000000017 -91.14097363239273 1.2557190120728934
    vertex -337.50000000000017 -91.19342188828367 -0.18855293006569845
  endloop
endfacet
facet normal -1.0 1.5589202113857442e-47 -1.4462247633568523e-30
  outer loop
    vertex -337.50000000000017 -91.19342188828367 -0.18855293006569845
    vertex -337.50000000000017 -91.14097363239273 1.2557190120728934
    vertex -337.50000000000017 -91.14097363239273 -0.2069053685510673
  endloop
endfacet
facet normal 6.256373962147406e-19 -0.8944271909999171 0.44721359549995565
  outer loop
    vertex -297.5000000000001 -96.26597363239274 3.0057190120728903
    vertex -337.50000000000017 -97.14097363239274 1.2557190120728934
    vertex -297.5000000000001 -97.14097363239274 1.2557190120728934
  endloop
endfacet
facet normal 6.256373962147406e-19 -0.8944271909999171 0.44721359549995565
  outer loop
    vertex -337.50000000000017 -97.14097363239274 1.2557190120728934
    vertex -297.5000000000001 -96.26597363239274 3.0057190120728903
    vertex -337.50000000000017 -96.26597363239274 3.0057190120728903
  endloop
endfacet
facet normal 0.0 0.0 -1.0
  outer loop
    vertex -297.5000000000001 -92.51597363239274 2.505719012072891
    vertex -337.50000000000017 -95.76597363239271 2.505719012072891
    vertex -337.50000000000017 -92.51597363239274 2.505719012072891
  endloop
endfacet
facet normal 0.0 0.0 -1.0
  outer loop
    vertex -337.50000000000017 -95.76597363239271 2.505719012072891
    vertex -297.5000000000001 -92.51597363239274 2.505719012072891
    vertex -297.5000000000001 -95.76597363239271 2.505719012072891
  endloop
endfacet
facet normal 0.0 0.8944271909999194 0.447213595499951
  outer loop
    vertex -337.50000000000017 -92.01597363239271 3.0057190120728903
    vertex -297.5000000000001 -91.14097363239273 1.2557190120728934
    vertex -337.50000000000017 -91.14097363239273 1.2557190120728934
  endloop
endfacet
facet normal 0.0 0.8944271909999194 0.447213595499951
  outer loop
    vertex -297.5000000000001 -91.14097363239273 1.2557190120728934
    vertex -337.50000000000017 -92.01597363239271 3.0057190120728903
    vertex -297.5000000000001 -92.01597363239271 3.0057190120728903
  endloop
endfacet
facet normal 0.0 1.0 0.0
  outer loop
    vertex -337.50000000000017 -95.76597363239271 2.505719012072891
    vertex -297.5000000000001 -95.76597363239271 0.7557190120728944
    vertex -337.50000000000017 -95.76597363239271 0.7557190120728944
  endloop
endfacet
facet normal 0.0 1.0 0.0
  outer loop
    vertex -297.5000000000001 -95.76597363239271 0.7557190120728944
    vertex -337.50000000000017 -95.76597363239271 2.505719012072891
    vertex -297.5000000000001 -95.76597363239271 2.505719012072891
  endloop
endfacet
facet normal 0.0 -1.0 0.0
  outer loop
    vertex -297.5000000000001 -92.51597363239274 2.505719012072891
    vertex -337.50000000000017 -92.51597363239274 0.7557190120728944
    vertex -297.5000000000001 -92.51597363239274 0.7557190120728944
  endloop
endfacet
facet normal 0.0 -1.0 0.0
  outer loop
    vertex -337.50000000000017 -92.51597363239274 0.7557190120728944
    vertex -297.5000000000001 -92.51597363239274 2.505719012072891
    vertex -337.50000000000017 -92.51597363239274 2.505719012072891
  endloop
endfacet
facet normal 0.0 0.0 1.0
  outer loop
    vertex -297.5000000000001 -96.26597363239274 3.0057190120728903
    vertex -337.50000000000017 -92.01597363239271 3.0057190120728903
    vertex -337.50000000000017 -96.26597363239274 3.0057190120728903
  endloop
endfacet
facet normal 0.0 0.0 1.0
  outer loop
    vertex -337.50000000000017 -92.01597363239271 3.0057190120728903
    vertex -297.5000000000001 -96.26597363239274 3.0057190120728903
    vertex -297.5000000000001 -92.01597363239271 3.0057190120728903
  endloop
endfacet
facet normal 0.0 0.0 1.0
  outer loop
    vertex -297.5000000000001 -95.76597363239271 0.7557190120728944
    vertex -337.50000000000017 -92.51597363239274 0.7557190120728944
    vertex -337.50000000000017 -95.76597363239271 0.7557190120728944
  endloop
endfacet
facet normal 0.0 0.0 1.0
  outer loop
    vertex -337.50000000000017 -92.51597363239274 0.7557190120728944
    vertex -297.5000000000001 -95.76597363239271 0.7557190120728944
    vertex -297.5000000000001 -92.51597363239274 0.7557190120728944
  endloop
endfacet
endsolid ProtoGlove
