solid ProtoGlove
facet normal 4.509354788482289e-16 0.03739119427633205 -0.9993007047883984
  outer loop
    vertex -297.5000000000004 -154.11816900000065 0.2557190120728953
    vertex -322.5000000000005 -154.86546993586487 0.2277569838846813
    vertex -322.5000000000005 -154.11816900000065 0.25571901207288406
  endloop
endfacet
facet normal 4.509354788482289e-16 0.03739119427633205 -0.9993007047883984
  outer loop
    vertex -322.5000000000005 -154.86546993586487 0.2277569838846813
    vertex -297.5000000000004 -154.11816900000065 0.2557190120728953
    vertex -297.5000000000004 -154.86546993586487 0.22775698388469257
  endloop
endfacet
facet normal 1.3399917646632285e-16 0.5078217901011522 0.8614621462945782
  outer loop
    vertex -297.5000000000004 -151.11816900000065 1.2557190120728934
    vertex -320.00000000000034 -148.61816900000062 -0.21800154629829496
    vertex -322.50000000000034 -151.1181690000006 1.2557190120728823
  endloop
endfacet
facet normal 1.3399917646632285e-16 0.5078217901011522 0.8614621462945782
  outer loop
    vertex -320.00000000000034 -148.61816900000062 -0.21800154629829496
    vertex -297.5000000000004 -151.11816900000065 1.2557190120728934
    vertex -300.00000000000045 -148.61816900000062 -0.2180015462982837
  endloop
endfacet
facet normal -4.496927800625627e-16 0.6087614290087409 0.7933533402912196
  outer loop
    vertex -300.00000000000045 -148.61816900000062 -0.2180015462982837
    vertex -319.8964466094071 -148.51461560940737 -0.29746085759723706
    vertex -320.00000000000034 -148.61816900000062 -0.21800154629829496
  endloop
endfacet
facet normal -4.496927800625627e-16 0.6087614290087409 0.7933533402912196
  outer loop
    vertex -319.8964466094071 -148.51461560940737 -0.29746085759723706
    vertex -300.00000000000045 -148.61816900000062 -0.2180015462982837
    vertex -300.10355339059373 -148.51461560940737 -0.2974608575972258
  endloop
endfacet
facet normal 6.660809551394844e-16 0.3998920243197421 -0.9165622558699758
  outer loop
    vertex -298.1534102436644 -157.77157924366458 -0.43554350148506377
    vertex -321.16116260882495 -158.4570063911762 -0.7345923089029336
    vertex -321.8465897563364 -157.77157924366458 -0.43554350148507504
  endloop
endfacet
facet normal 6.660809551394844e-16 0.3998920243197421 -0.9165622558699758
  outer loop
    vertex -321.16116260882495 -158.4570063911762 -0.7345923089029336
    vertex -298.1534102436644 -157.77157924366458 -0.43554350148506377
    vertex -298.83883739117596 -158.4570063911762 -0.7345923089029109
  endloop
endfacet
facet normal 6.385389271022157e-16 0.33027906195516876 -0.943883330308367
  outer loop
    vertex -297.5000000000004 -157.0657207441097 -0.18855293006569845
    vertex -322.5000000000005 -157.11816900000062 -0.2069053685510786
    vertex -322.5000000000005 -157.06572074410965 -0.18855293006570972
  endloop
endfacet
facet normal 6.385389271022157e-16 0.33027906195516876 -0.943883330308367
  outer loop
    vertex -322.5000000000005 -157.11816900000062 -0.2069053685510786
    vertex -297.5000000000004 -157.0657207441097 -0.18855293006569845
    vertex -321.8465897563364 -157.77157924366458 -0.43554350148507504
  endloop
endfacet
facet normal 6.385389271022157e-16 0.33027906195516876 -0.943883330308367
  outer loop
    vertex -321.8465897563364 -157.77157924366458 -0.43554350148507504
    vertex -297.5000000000004 -157.0657207441097 -0.18855293006569845
    vertex -298.1534102436644 -157.77157924366458 -0.43554350148506377
  endloop
endfacet
facet normal 6.385389271022157e-16 0.33027906195516876 -0.943883330308367
  outer loop
    vertex -298.1534102436644 -157.77157924366458 -0.43554350148506377
    vertex -297.5000000000004 -157.0657207441097 -0.18855293006569845
    vertex -297.5000000000004 -157.11816900000062 -0.2069053685510673
  endloop
endfacet
facet normal -0.7071067811865434 -0.7071067811865518 2.3378937993701346e-14
  outer loop
    vertex -320.1205904774491 -159.4975785225519 -1.1339771613350533
    vertex -320.37940952255167 -159.23875947744935 -1.1339771613350533
    vertex -320.2500000000005 -159.36816900000062 -1.1510142481905108
  endloop
endfacet
facet normal -0.7071067811865434 -0.7071067811865518 2.3378937993701346e-14
  outer loop
    vertex -320.37940952255167 -159.23875947744935 -1.1339771613350533
    vertex -320.1205904774491 -159.4975785225519 -1.1339771613350533
    vertex -320.00000000000034 -159.6181690000006 -1.0840269500827397
  endloop
endfacet
facet normal -0.7071067811865434 -0.7071067811865518 2.3378937993701346e-14
  outer loop
    vertex -320.37940952255167 -159.23875947744935 -1.1339771613350533
    vertex -320.00000000000034 -159.6181690000006 -1.0840269500827397
    vertex -320.50000000000045 -159.11816900000062 -1.0840269500827397
  endloop
endfacet
facet normal -0.7071067811865434 -0.7071067811865518 2.3378937993701346e-14
  outer loop
    vertex -320.50000000000045 -159.11816900000062 -1.0840269500827397
    vertex -320.00000000000034 -159.6181690000006 -1.0840269500827397
    vertex -319.8964466094071 -159.7217223905939 -1.0045676387837976
  endloop
endfacet
facet normal -0.7071067811865434 -0.7071067811865518 2.3378937993701346e-14
  outer loop
    vertex -320.50000000000045 -159.11816900000062 -1.0840269500827397
    vertex -319.8964466094071 -159.7217223905939 -1.0045676387837976
    vertex -321.16116260882495 -158.4570063911762 -0.7345923089029336
  endloop
endfacet
facet normal -0.7071067811865434 -0.7071067811865518 2.3378937993701346e-14
  outer loop
    vertex -321.16116260882495 -158.4570063911762 -0.7345923089029336
    vertex -319.8964466094071 -159.7217223905939 -1.0045676387837976
    vertex -319.8169872981083 -159.80118170189286 -0.9010142481905226
  endloop
endfacet
facet normal -0.7071067811865434 -0.7071067811865518 2.3378937993701346e-14
  outer loop
    vertex -321.16116260882495 -158.4570063911762 -0.7345923089029336
    vertex -319.8169872981083 -159.80118170189286 -0.9010142481905226
    vertex -319.7670370868559 -159.85113191314514 -0.7804237707417787
  endloop
endfacet
facet normal -0.7071067811865434 -0.7071067811865518 2.3378937993701346e-14
  outer loop
    vertex -321.16116260882495 -158.4570063911762 -0.7345923089029336
    vertex -319.7670370868559 -159.85113191314514 -0.7804237707417787
    vertex -319.7500000000004 -159.86816900000065 -0.651014248190523
  endloop
endfacet
facet normal -0.7071067811865434 -0.7071067811865518 2.3378937993701346e-14
  outer loop
    vertex -321.16116260882495 -158.4570063911762 -0.7345923089029336
    vertex -319.7500000000004 -159.86816900000065 -0.651014248190523
    vertex -321.8465897563364 -157.77157924366458 -0.43554350148507504
  endloop
endfacet
facet normal -0.7071067811865434 -0.7071067811865518 2.3378937993701346e-14
  outer loop
    vertex -321.8465897563364 -157.77157924366458 -0.43554350148507504
    vertex -319.7500000000004 -159.86816900000065 -0.651014248190523
    vertex -319.7670370868559 -159.85113191314517 -0.521604725639256
  endloop
endfacet
facet normal -0.7071067811865434 -0.7071067811865518 2.3378937993701346e-14
  outer loop
    vertex -321.8465897563364 -157.77157924366458 -0.43554350148507504
    vertex -319.7670370868559 -159.85113191314517 -0.521604725639256
    vertex -319.8169872981083 -159.80118170189286 -0.4010142481905122
  endloop
endfacet
facet normal -0.7071067811865434 -0.7071067811865518 2.3378937993701346e-14
  outer loop
    vertex -321.8465897563364 -157.77157924366458 -0.43554350148507504
    vertex -319.8169872981083 -159.80118170189286 -0.4010142481905122
    vertex -322.5000000000005 -157.11816900000062 -0.2069053685510786
  endloop
endfacet
facet normal -0.7071067811865434 -0.7071067811865518 2.3378937993701346e-14
  outer loop
    vertex -322.5000000000005 -157.11816900000062 -0.2069053685510786
    vertex -319.8169872981083 -159.80118170189286 -0.4010142481905122
    vertex -319.8964466094071 -159.7217223905939 -0.29746085759723706
  endloop
endfacet
facet normal -0.7071067811865434 -0.7071067811865518 2.3378937993701346e-14
  outer loop
    vertex -322.5000000000005 -157.11816900000062 -0.2069053685510786
    vertex -319.8964466094071 -159.7217223905939 -0.29746085759723706
    vertex -320.00000000000034 -159.6181690000006 -0.21800154629829496
  endloop
endfacet
facet normal -0.7071067811865434 -0.7071067811865518 2.3378937993701346e-14
  outer loop
    vertex -322.5000000000005 -157.11816900000062 -0.2069053685510786
    vertex -320.00000000000034 -159.6181690000006 -0.21800154629829496
    vertex -322.50000000000034 -157.11816900000062 1.2557190120728823
  endloop
endfacet
facet normal 3.342552519533686e-16 -0.3826834323651075 -0.9238795325112795
  outer loop
    vertex -320.37940952255167 -148.9975785225519 -1.1339771613350533
    vertex -299.5000000000004 -149.11816900000065 -1.0840269500827173
    vertex -320.50000000000045 -149.1181690000006 -1.0840269500827397
  endloop
endfacet
facet normal 3.342552519533686e-16 -0.3826834323651075 -0.9238795325112795
  outer loop
    vertex -299.5000000000004 -149.11816900000065 -1.0840269500827173
    vertex -320.37940952255167 -148.9975785225519 -1.1339771613350533
    vertex -299.6205904774491 -148.9975785225519 -1.1339771613350422
  endloop
endfacet
facet normal -3.483829523558274e-16 0.7933533402912517 0.6087614290086991
  outer loop
    vertex -319.8964466094071 -148.51461560940737 -0.29746085759723706
    vertex -300.1830127018926 -148.4351562981084 -0.4010142481905009
    vertex -319.8169872981083 -148.4351562981084 -0.4010142481905122
  endloop
endfacet
facet normal -3.483829523558274e-16 0.7933533402912517 0.6087614290086991
  outer loop
    vertex -300.1830127018926 -148.4351562981084 -0.4010142481905009
    vertex -319.8964466094071 -148.51461560940737 -0.29746085759723706
    vertex -300.10355339059373 -148.51461560940737 -0.2974608575972258
  endloop
endfacet
facet normal 8.11402227790727e-16 -0.13052619222002393 -0.991444861373814
  outer loop
    vertex -320.2500000000005 -148.86816900000062 -1.1510142481905221
    vertex -299.6205904774491 -148.9975785225519 -1.1339771613350422
    vertex -320.37940952255167 -148.9975785225519 -1.1339771613350533
  endloop
endfacet
facet normal 8.11402227790727e-16 -0.13052619222002393 -0.991444861373814
  outer loop
    vertex -299.6205904774491 -148.9975785225519 -1.1339771613350422
    vertex -320.2500000000005 -148.86816900000062 -1.1510142481905221
    vertex -299.7500000000004 -148.86816900000062 -1.1510142481904995
  endloop
endfacet
facet normal 2.057457911831553e-16 -0.6087614290086573 -0.7933533402912838
  outer loop
    vertex -300.00000000000045 -159.61816900000065 -1.0840269500827173
    vertex -319.8964466094071 -159.7217223905939 -1.0045676387837976
    vertex -320.00000000000034 -159.6181690000006 -1.0840269500827397
  endloop
endfacet
facet normal 2.057457911831553e-16 -0.6087614290086573 -0.7933533402912838
  outer loop
    vertex -319.8964466094071 -159.7217223905939 -1.0045676387837976
    vertex -300.00000000000045 -159.61816900000065 -1.0840269500827173
    vertex -300.10355339059373 -159.7217223905939 -1.0045676387837752
  endloop
endfacet
facet normal -0.7071067811865428 0.7071067811865522 2.6517050476077337e-14
  outer loop
    vertex -320.37940952255167 -148.9975785225519 -1.1339771613350533
    vertex -320.1205904774491 -148.73875947744935 -1.1339771613350533
    vertex -320.2500000000005 -148.86816900000062 -1.1510142481905221
  endloop
endfacet
facet normal -0.7071067811865428 0.7071067811865522 2.6517050476077337e-14
  outer loop
    vertex -320.1205904774491 -148.73875947744935 -1.1339771613350533
    vertex -320.37940952255167 -148.9975785225519 -1.1339771613350533
    vertex -320.50000000000045 -149.1181690000006 -1.0840269500827397
  endloop
endfacet
facet normal -0.7071067811865428 0.7071067811865522 2.6517050476077337e-14
  outer loop
    vertex -320.1205904774491 -148.73875947744935 -1.1339771613350533
    vertex -320.50000000000045 -149.1181690000006 -1.0840269500827397
    vertex -320.00000000000034 -148.61816900000062 -1.0840269500827397
  endloop
endfacet
facet normal -0.7071067811865428 0.7071067811865522 2.6517050476077337e-14
  outer loop
    vertex -320.00000000000034 -148.61816900000062 -1.0840269500827397
    vertex -320.50000000000045 -149.1181690000006 -1.0840269500827397
    vertex -321.16116260882495 -149.77933160882506 -0.7345923089029223
  endloop
endfacet
facet normal -0.7071067811865428 0.7071067811865522 2.6517050476077337e-14
  outer loop
    vertex -320.00000000000034 -148.61816900000062 -1.0840269500827397
    vertex -321.16116260882495 -149.77933160882506 -0.7345923089029223
    vertex -319.8964466094071 -148.51461560940737 -1.0045676387837976
  endloop
endfacet
facet normal -0.7071067811865428 0.7071067811865522 2.6517050476077337e-14
  outer loop
    vertex -319.8964466094071 -148.51461560940737 -1.0045676387837976
    vertex -321.16116260882495 -149.77933160882506 -0.7345923089029223
    vertex -319.8169872981083 -148.4351562981084 -0.9010142481905226
  endloop
endfacet
facet normal -0.7071067811865428 0.7071067811865522 2.6517050476077337e-14
  outer loop
    vertex -319.8169872981083 -148.4351562981084 -0.9010142481905226
    vertex -321.16116260882495 -149.77933160882506 -0.7345923089029223
    vertex -319.7670370868559 -148.3852060868561 -0.7804237707417787
  endloop
endfacet
facet normal -0.7071067811865428 0.7071067811865522 2.6517050476077337e-14
  outer loop
    vertex -319.7670370868559 -148.3852060868561 -0.7804237707417787
    vertex -321.16116260882495 -149.77933160882506 -0.7345923089029223
    vertex -319.7500000000004 -148.36816900000062 -0.6510142481905117
  endloop
endfacet
facet normal -0.7071067811865428 0.7071067811865522 2.6517050476077337e-14
  outer loop
    vertex -319.7500000000004 -148.36816900000062 -0.6510142481905117
    vertex -321.16116260882495 -149.77933160882506 -0.7345923089029223
    vertex -321.8465897563364 -150.4647587563367 -0.43554350148507504
  endloop
endfacet
facet normal -0.7071067811865428 0.7071067811865522 2.6517050476077337e-14
  outer loop
    vertex -319.7500000000004 -148.36816900000062 -0.6510142481905117
    vertex -321.8465897563364 -150.4647587563367 -0.43554350148507504
    vertex -319.7670370868559 -148.3852060868561 -0.521604725639256
  endloop
endfacet
facet normal -0.7071067811865428 0.7071067811865522 2.6517050476077337e-14
  outer loop
    vertex -319.7670370868559 -148.3852060868561 -0.521604725639256
    vertex -321.8465897563364 -150.4647587563367 -0.43554350148507504
    vertex -319.8169872981083 -148.4351562981084 -0.4010142481905122
  endloop
endfacet
facet normal -0.7071067811865428 0.7071067811865522 2.6517050476077337e-14
  outer loop
    vertex -319.8169872981083 -148.4351562981084 -0.4010142481905122
    vertex -321.8465897563364 -150.4647587563367 -0.43554350148507504
    vertex -322.5000000000005 -151.11816900000065 -0.2069053685510786
  endloop
endfacet
facet normal -0.7071067811865428 0.7071067811865522 2.6517050476077337e-14
  outer loop
    vertex -319.8169872981083 -148.4351562981084 -0.4010142481905122
    vertex -322.5000000000005 -151.11816900000065 -0.2069053685510786
    vertex -319.8964466094071 -148.51461560940737 -0.29746085759723706
  endloop
endfacet
facet normal -0.7071067811865428 0.7071067811865522 2.6517050476077337e-14
  outer loop
    vertex -319.8964466094071 -148.51461560940737 -0.29746085759723706
    vertex -322.5000000000005 -151.11816900000065 -0.2069053685510786
    vertex -320.00000000000034 -148.61816900000062 -0.21800154629829496
  endloop
endfacet
facet normal -0.7071067811865428 0.7071067811865522 2.6517050476077337e-14
  outer loop
    vertex -320.00000000000034 -148.61816900000062 -0.21800154629829496
    vertex -322.5000000000005 -151.11816900000065 -0.2069053685510786
    vertex -322.50000000000034 -151.1181690000006 1.2557190120728823
  endloop
endfacet
facet normal -8.729348107419512e-16 -0.5078217901011522 0.8614621462945782
  outer loop
    vertex -320.00000000000034 -159.6181690000006 -0.21800154629829496
    vertex -297.5000000000004 -157.11816900000062 1.2557190120728934
    vertex -322.50000000000034 -157.11816900000062 1.2557190120728823
  endloop
endfacet
facet normal -8.729348107419512e-16 -0.5078217901011522 0.8614621462945782
  outer loop
    vertex -297.5000000000004 -157.11816900000062 1.2557190120728934
    vertex -320.00000000000034 -159.6181690000006 -0.21800154629829496
    vertex -300.00000000000045 -159.61816900000065 -0.2180015462982837
  endloop
endfacet
facet normal -2.2032143395227566e-16 0.9238795325112642 0.38268343236514435
  outer loop
    vertex -319.8169872981083 -148.4351562981084 -0.4010142481905122
    vertex -300.232962913145 -148.3852060868561 -0.5216047256392448
    vertex -319.7670370868559 -148.3852060868561 -0.521604725639256
  endloop
endfacet
facet normal -2.2032143395227566e-16 0.9238795325112642 0.38268343236514435
  outer loop
    vertex -300.232962913145 -148.3852060868561 -0.5216047256392448
    vertex -319.8169872981083 -148.4351562981084 -0.4010142481905122
    vertex -300.1830127018926 -148.4351562981084 -0.4010142481905009
  endloop
endfacet
facet normal 0.7071067811865441 0.7071067811865509 6.276224964752055e-15
  outer loop
    vertex -299.87940952255167 -148.73875947744935 -1.1339771613350422
    vertex -299.6205904774491 -148.9975785225519 -1.1339771613350422
    vertex -299.7500000000004 -148.86816900000062 -1.1510142481904995
  endloop
endfacet
facet normal 0.7071067811865441 0.7071067811865509 6.276224964752055e-15
  outer loop
    vertex -299.6205904774491 -148.9975785225519 -1.1339771613350422
    vertex -299.87940952255167 -148.73875947744935 -1.1339771613350422
    vertex -300.00000000000045 -148.61816900000062 -1.0840269500827284
  endloop
endfacet
facet normal 0.7071067811865441 0.7071067811865509 6.276224964752055e-15
  outer loop
    vertex -299.6205904774491 -148.9975785225519 -1.1339771613350422
    vertex -300.00000000000045 -148.61816900000062 -1.0840269500827284
    vertex -299.5000000000004 -149.11816900000065 -1.0840269500827173
  endloop
endfacet
facet normal 0.7071067811865441 0.7071067811865509 6.276224964752055e-15
  outer loop
    vertex -299.5000000000004 -149.11816900000065 -1.0840269500827173
    vertex -300.00000000000045 -148.61816900000062 -1.0840269500827284
    vertex -300.10355339059373 -148.51461560940737 -1.0045676387837752
  endloop
endfacet
facet normal 0.7071067811865441 0.7071067811865509 6.276224964752055e-15
  outer loop
    vertex -299.5000000000004 -149.11816900000065 -1.0840269500827173
    vertex -300.10355339059373 -148.51461560940737 -1.0045676387837752
    vertex -298.83883739117596 -149.77933160882506 -0.7345923089029109
  endloop
endfacet
facet normal 0.7071067811865441 0.7071067811865509 6.276224964752055e-15
  outer loop
    vertex -298.83883739117596 -149.77933160882506 -0.7345923089029109
    vertex -300.10355339059373 -148.51461560940737 -1.0045676387837752
    vertex -300.1830127018926 -148.4351562981084 -0.9010142481905
  endloop
endfacet
facet normal 0.7071067811865441 0.7071067811865509 6.276224964752055e-15
  outer loop
    vertex -298.83883739117596 -149.77933160882506 -0.7345923089029109
    vertex -300.1830127018926 -148.4351562981084 -0.9010142481905
    vertex -300.232962913145 -148.3852060868561 -0.7804237707417675
  endloop
endfacet
facet normal 0.7071067811865441 0.7071067811865509 6.276224964752055e-15
  outer loop
    vertex -298.83883739117596 -149.77933160882506 -0.7345923089029109
    vertex -300.232962913145 -148.3852060868561 -0.7804237707417675
    vertex -300.2500000000004 -148.36816900000062 -0.6510142481905005
  endloop
endfacet
facet normal 0.7071067811865441 0.7071067811865509 6.276224964752055e-15
  outer loop
    vertex -298.83883739117596 -149.77933160882506 -0.7345923089029109
    vertex -300.2500000000004 -148.36816900000062 -0.6510142481905005
    vertex -298.1534102436644 -150.4647587563367 -0.43554350148506377
  endloop
endfacet
facet normal 0.7071067811865441 0.7071067811865509 6.276224964752055e-15
  outer loop
    vertex -298.1534102436644 -150.4647587563367 -0.43554350148506377
    vertex -300.2500000000004 -148.36816900000062 -0.6510142481905005
    vertex -300.232962913145 -148.3852060868561 -0.5216047256392448
  endloop
endfacet
facet normal 0.7071067811865441 0.7071067811865509 6.276224964752055e-15
  outer loop
    vertex -298.1534102436644 -150.4647587563367 -0.43554350148506377
    vertex -300.232962913145 -148.3852060868561 -0.5216047256392448
    vertex -300.1830127018926 -148.4351562981084 -0.4010142481905009
  endloop
endfacet
facet normal 0.7071067811865441 0.7071067811865509 6.276224964752055e-15
  outer loop
    vertex -298.1534102436644 -150.4647587563367 -0.43554350148506377
    vertex -300.1830127018926 -148.4351562981084 -0.4010142481905009
    vertex -297.5000000000004 -151.11816900000065 -0.2069053685510673
  endloop
endfacet
facet normal 0.7071067811865441 0.7071067811865509 6.276224964752055e-15
  outer loop
    vertex -297.5000000000004 -151.11816900000065 -0.2069053685510673
    vertex -300.1830127018926 -148.4351562981084 -0.4010142481905009
    vertex -300.10355339059373 -148.51461560940737 -0.2974608575972258
  endloop
endfacet
facet normal 0.7071067811865441 0.7071067811865509 6.276224964752055e-15
  outer loop
    vertex -297.5000000000004 -151.11816900000065 -0.2069053685510673
    vertex -300.10355339059373 -148.51461560940737 -0.2974608575972258
    vertex -300.00000000000045 -148.61816900000062 -0.2180015462982837
  endloop
endfacet
facet normal 0.7071067811865441 0.7071067811865509 6.276224964752055e-15
  outer loop
    vertex -297.5000000000004 -151.11816900000065 -0.2069053685510673
    vertex -300.00000000000045 -148.61816900000062 -0.2180015462982837
    vertex -297.5000000000004 -151.11816900000065 1.2557190120728934
  endloop
endfacet
facet normal 6.734177417146182e-16 0.6087614290087681 -0.793353340291199
  outer loop
    vertex -319.8964466094071 -148.51461560940737 -1.0045676387837976
    vertex -300.00000000000045 -148.61816900000062 -1.0840269500827284
    vertex -320.00000000000034 -148.61816900000062 -1.0840269500827397
  endloop
endfacet
facet normal 6.734177417146182e-16 0.6087614290087681 -0.793353340291199
  outer loop
    vertex -300.00000000000045 -148.61816900000062 -1.0840269500827284
    vertex -319.8964466094071 -148.51461560940737 -1.0045676387837976
    vertex -300.10355339059373 -148.51461560940737 -1.0045676387837752
  endloop
endfacet
facet normal 5.179772791652433e-16 0.38268343236513186 -0.9238795325112695
  outer loop
    vertex -320.00000000000034 -148.61816900000062 -1.0840269500827397
    vertex -299.87940952255167 -148.73875947744935 -1.1339771613350422
    vertex -320.1205904774491 -148.73875947744935 -1.1339771613350533
  endloop
endfacet
facet normal 5.179772791652433e-16 0.38268343236513186 -0.9238795325112695
  outer loop
    vertex -299.87940952255167 -148.73875947744935 -1.1339771613350422
    vertex -320.00000000000034 -148.61816900000062 -1.0840269500827397
    vertex -300.00000000000045 -148.61816900000062 -1.0840269500827284
  endloop
endfacet
facet normal 4.332477336354123e-16 -0.33027906195517426 -0.9438833303083652
  outer loop
    vertex -321.8465897563364 -150.4647587563367 -0.43554350148507504
    vertex -322.5000000000005 -151.17061725589159 -0.18855293006570972
    vertex -322.5000000000005 -151.11816900000065 -0.2069053685510786
  endloop
endfacet
facet normal 4.332477336354123e-16 -0.33027906195517426 -0.9438833303083652
  outer loop
    vertex -322.5000000000005 -151.17061725589159 -0.18855293006570972
    vertex -321.8465897563364 -150.4647587563367 -0.43554350148507504
    vertex -297.5000000000004 -151.17061725589159 -0.18855293006569845
  endloop
endfacet
facet normal 4.332477336354123e-16 -0.33027906195517426 -0.9438833303083652
  outer loop
    vertex -297.5000000000004 -151.17061725589159 -0.18855293006569845
    vertex -321.8465897563364 -150.4647587563367 -0.43554350148507504
    vertex -298.1534102436644 -150.4647587563367 -0.43554350148506377
  endloop
endfacet
facet normal 4.332477336354123e-16 -0.33027906195517426 -0.9438833303083652
  outer loop
    vertex -297.5000000000004 -151.17061725589159 -0.18855293006569845
    vertex -298.1534102436644 -150.4647587563367 -0.43554350148506377
    vertex -297.5000000000004 -151.11816900000065 -0.2069053685510673
  endloop
endfacet
facet normal 4.171898484991043e-16 -0.037391194276330926 -0.9993007047883984
  outer loop
    vertex -297.5000000000004 -153.3708680641364 0.22775698388469257
    vertex -322.5000000000005 -154.11816900000065 0.25571901207288406
    vertex -322.5000000000005 -153.37086806413637 0.2277569838846813
  endloop
endfacet
facet normal 4.171898484991043e-16 -0.037391194276330926 -0.9993007047883984
  outer loop
    vertex -322.5000000000005 -154.11816900000065 0.25571901207288406
    vertex -297.5000000000004 -153.3708680641364 0.22775698388469257
    vertex -297.5000000000004 -154.11816900000065 0.2557190120728953
  endloop
endfacet
facet normal -3.304135981279241e-16 -0.9238795325112578 0.38268343236515967
  outer loop
    vertex -300.232962913145 -159.85113191314517 -0.5216047256392334
    vertex -319.8169872981083 -159.80118170189286 -0.4010142481905122
    vertex -319.7670370868559 -159.85113191314517 -0.521604725639256
  endloop
endfacet
facet normal -3.304135981279241e-16 -0.9238795325112578 0.38268343236515967
  outer loop
    vertex -319.8169872981083 -159.80118170189286 -0.4010142481905122
    vertex -300.232962913145 -159.85113191314517 -0.5216047256392334
    vertex -300.1830127018926 -159.80118170189286 -0.4010142481905009
  endloop
endfacet
facet normal 0.7071067811865441 -0.7071067811865509 3.2950181064948275e-15
  outer loop
    vertex -299.6205904774491 -159.23875947744938 -1.1339771613350422
    vertex -299.87940952255167 -159.4975785225519 -1.1339771613350422
    vertex -299.7500000000004 -159.36816900000065 -1.1510142481904995
  endloop
endfacet
facet normal 0.7071067811865441 -0.7071067811865509 3.2950181064948275e-15
  outer loop
    vertex -299.87940952255167 -159.4975785225519 -1.1339771613350422
    vertex -299.6205904774491 -159.23875947744938 -1.1339771613350422
    vertex -299.5000000000004 -159.11816900000062 -1.0840269500827173
  endloop
endfacet
facet normal 0.7071067811865441 -0.7071067811865509 3.2950181064948275e-15
  outer loop
    vertex -299.87940952255167 -159.4975785225519 -1.1339771613350422
    vertex -299.5000000000004 -159.11816900000062 -1.0840269500827173
    vertex -300.00000000000045 -159.61816900000065 -1.0840269500827173
  endloop
endfacet
facet normal 0.7071067811865441 -0.7071067811865509 3.2950181064948275e-15
  outer loop
    vertex -300.00000000000045 -159.61816900000065 -1.0840269500827173
    vertex -299.5000000000004 -159.11816900000062 -1.0840269500827173
    vertex -298.83883739117596 -158.4570063911762 -0.7345923089029109
  endloop
endfacet
facet normal 0.7071067811865441 -0.7071067811865509 3.2950181064948275e-15
  outer loop
    vertex -300.00000000000045 -159.61816900000065 -1.0840269500827173
    vertex -298.83883739117596 -158.4570063911762 -0.7345923089029109
    vertex -300.10355339059373 -159.7217223905939 -1.0045676387837752
  endloop
endfacet
facet normal 0.7071067811865441 -0.7071067811865509 3.2950181064948275e-15
  outer loop
    vertex -300.10355339059373 -159.7217223905939 -1.0045676387837752
    vertex -298.83883739117596 -158.4570063911762 -0.7345923089029109
    vertex -300.1830127018926 -159.80118170189286 -0.9010142481905
  endloop
endfacet
facet normal 0.7071067811865441 -0.7071067811865509 3.2950181064948275e-15
  outer loop
    vertex -300.1830127018926 -159.80118170189286 -0.9010142481905
    vertex -298.83883739117596 -158.4570063911762 -0.7345923089029109
    vertex -300.232962913145 -159.85113191314517 -0.7804237707417675
  endloop
endfacet
facet normal 0.7071067811865441 -0.7071067811865509 3.2950181064948275e-15
  outer loop
    vertex -300.232962913145 -159.85113191314517 -0.7804237707417675
    vertex -298.83883739117596 -158.4570063911762 -0.7345923089029109
    vertex -300.2500000000004 -159.86816900000065 -0.6510142481905005
  endloop
endfacet
facet normal 0.7071067811865441 -0.7071067811865509 3.2950181064948275e-15
  outer loop
    vertex -300.2500000000004 -159.86816900000065 -0.6510142481905005
    vertex -298.83883739117596 -158.4570063911762 -0.7345923089029109
    vertex -298.1534102436644 -157.77157924366458 -0.43554350148506377
  endloop
endfacet
facet normal 0.7071067811865441 -0.7071067811865509 3.2950181064948275e-15
  outer loop
    vertex -300.2500000000004 -159.86816900000065 -0.6510142481905005
    vertex -298.1534102436644 -157.77157924366458 -0.43554350148506377
    vertex -300.232962913145 -159.85113191314517 -0.5216047256392334
  endloop
endfacet
facet normal 0.7071067811865441 -0.7071067811865509 3.2950181064948275e-15
  outer loop
    vertex -300.232962913145 -159.85113191314517 -0.5216047256392334
    vertex -298.1534102436644 -157.77157924366458 -0.43554350148506377
    vertex -300.1830127018926 -159.80118170189286 -0.4010142481905009
  endloop
endfacet
facet normal 0.7071067811865441 -0.7071067811865509 3.2950181064948275e-15
  outer loop
    vertex -300.1830127018926 -159.80118170189286 -0.4010142481905009
    vertex -298.1534102436644 -157.77157924366458 -0.43554350148506377
    vertex -297.5000000000004 -157.11816900000062 -0.2069053685510673
  endloop
endfacet
facet normal 0.7071067811865441 -0.7071067811865509 3.2950181064948275e-15
  outer loop
    vertex -300.1830127018926 -159.80118170189286 -0.4010142481905009
    vertex -297.5000000000004 -157.11816900000062 -0.2069053685510673
    vertex -300.10355339059373 -159.7217223905939 -0.2974608575972258
  endloop
endfacet
facet normal 0.7071067811865441 -0.7071067811865509 3.2950181064948275e-15
  outer loop
    vertex -300.10355339059373 -159.7217223905939 -0.2974608575972258
    vertex -297.5000000000004 -157.11816900000062 -0.2069053685510673
    vertex -300.00000000000045 -159.61816900000065 -0.2180015462982837
  endloop
endfacet
facet normal 0.7071067811865441 -0.7071067811865509 3.2950181064948275e-15
  outer loop
    vertex -300.00000000000045 -159.61816900000065 -0.2180015462982837
    vertex -297.5000000000004 -157.11816900000062 -0.2069053685510673
    vertex -297.5000000000004 -157.11816900000062 1.2557190120728934
  endloop
endfacet
facet normal 4.035412751366376e-16 -0.13052619222000383 -0.9914448613738168
  outer loop
    vertex -299.7500000000004 -159.36816900000065 -1.1510142481904995
    vertex -320.1205904774491 -159.4975785225519 -1.1339771613350533
    vertex -320.2500000000005 -159.36816900000062 -1.1510142481905108
  endloop
endfacet
facet normal 4.035412751366376e-16 -0.13052619222000383 -0.9914448613738168
  outer loop
    vertex -320.1205904774491 -159.4975785225519 -1.1339771613350533
    vertex -299.7500000000004 -159.36816900000065 -1.1510142481904995
    vertex -299.87940952255167 -159.4975785225519 -1.1339771613350422
  endloop
endfacet
facet normal 1.1613837197000755e-15 0.38268343236510755 -0.9238795325112795
  outer loop
    vertex -299.5000000000004 -159.11816900000062 -1.0840269500827173
    vertex -320.37940952255167 -159.23875947744935 -1.1339771613350533
    vertex -320.50000000000045 -159.11816900000062 -1.0840269500827397
  endloop
endfacet
facet normal 1.1613837197000755e-15 0.38268343236510755 -0.9238795325112795
  outer loop
    vertex -320.37940952255167 -159.23875947744935 -1.1339771613350533
    vertex -299.5000000000004 -159.11816900000062 -1.0840269500827173
    vertex -299.6205904774491 -159.23875947744938 -1.1339771613350422
  endloop
endfacet
facet normal -3.483829523558274e-16 -0.7933533402912517 0.6087614290086991
  outer loop
    vertex -300.1830127018926 -159.80118170189286 -0.4010142481905009
    vertex -319.8964466094071 -159.7217223905939 -0.29746085759723706
    vertex -319.8169872981083 -159.80118170189286 -0.4010142481905122
  endloop
endfacet
facet normal -3.483829523558274e-16 -0.7933533402912517 0.6087614290086991
  outer loop
    vertex -319.8964466094071 -159.7217223905939 -0.29746085759723706
    vertex -300.1830127018926 -159.80118170189286 -0.4010142481905009
    vertex -300.10355339059373 -159.7217223905939 -0.2974608575972258
  endloop
endfacet
facet normal 2.1214885790848794e-16 -0.4672686282730602 -0.8841153935046108
  outer loop
    vertex -320.50000000000045 -149.1181690000006 -1.0840269500827397
    vertex -298.83883739117596 -149.77933160882506 -0.7345923089029109
    vertex -321.16116260882495 -149.77933160882506 -0.7345923089029223
  endloop
endfacet
facet normal 2.1214885790848794e-16 -0.4672686282730602 -0.8841153935046108
  outer loop
    vertex -298.83883739117596 -149.77933160882506 -0.7345923089029109
    vertex -320.50000000000045 -149.1181690000006 -1.0840269500827397
    vertex -299.5000000000004 -149.11816900000065 -1.0840269500827173
  endloop
endfacet
facet normal 3.4882817084846356e-16 -0.38268343236510755 -0.9238795325112795
  outer loop
    vertex -299.87940952255167 -159.4975785225519 -1.1339771613350422
    vertex -320.00000000000034 -159.6181690000006 -1.0840269500827397
    vertex -320.1205904774491 -159.4975785225519 -1.1339771613350533
  endloop
endfacet
facet normal 3.4882817084846356e-16 -0.38268343236510755 -0.9238795325112795
  outer loop
    vertex -320.00000000000034 -159.6181690000006 -1.0840269500827397
    vertex -299.87940952255167 -159.4975785225519 -1.1339771613350422
    vertex -300.00000000000045 -159.61816900000065 -1.0840269500827173
  endloop
endfacet
facet normal -1.5084925986959711e-16 -0.9914448613738197 0.13052619221998144
  outer loop
    vertex -300.2500000000004 -159.86816900000065 -0.6510142481905005
    vertex -319.7670370868559 -159.85113191314517 -0.521604725639256
    vertex -319.7500000000004 -159.86816900000065 -0.651014248190523
  endloop
endfacet
facet normal -1.5084925986959711e-16 -0.9914448613738197 0.13052619221998144
  outer loop
    vertex -319.7670370868559 -159.85113191314517 -0.521604725639256
    vertex -300.2500000000004 -159.86816900000065 -0.6510142481905005
    vertex -300.232962913145 -159.85113191314517 -0.5216047256392334
  endloop
endfacet
facet normal 6.538125454966507e-16 -0.2588190451025119 -0.9659258262890706
  outer loop
    vertex -297.5000000000004 -151.17061725589159 -0.18855293006569845
    vertex -322.5000000000005 -151.8929596604375 0.004998133891113102
    vertex -322.5000000000005 -151.17061725589159 -0.18855293006570972
  endloop
endfacet
facet normal 6.538125454966507e-16 -0.2588190451025119 -0.9659258262890706
  outer loop
    vertex -322.5000000000005 -151.8929596604375 0.004998133891113102
    vertex -297.5000000000004 -151.17061725589159 -0.18855293006569845
    vertex -297.5000000000004 -151.8929596604375 0.004998133891135661
  endloop
endfacet
facet normal -1.033795947495992e-15 -0.9914448613737967 -0.13052619222015696
  outer loop
    vertex -300.232962913145 -159.85113191314517 -0.7804237707417675
    vertex -319.7500000000004 -159.86816900000065 -0.651014248190523
    vertex -319.7670370868559 -159.85113191314514 -0.7804237707417787
  endloop
endfacet
facet normal -1.033795947495992e-15 -0.9914448613737967 -0.13052619222015696
  outer loop
    vertex -319.7500000000004 -159.86816900000065 -0.651014248190523
    vertex -300.232962913145 -159.85113191314517 -0.7804237707417675
    vertex -300.2500000000004 -159.86816900000065 -0.6510142481905005
  endloop
endfacet
facet normal 1.054553889899823e-15 0.1859116071629125 -0.9825664732332886
  outer loop
    vertex -297.5000000000004 -155.6085916617624 0.14402727432418344
    vertex -322.5000000000005 -156.34337833956377 0.004998133891113102
    vertex -322.5000000000005 -155.60859166176235 0.14402727432416088
  endloop
endfacet
facet normal 1.054553889899823e-15 0.1859116071629125 -0.9825664732332886
  outer loop
    vertex -322.5000000000005 -156.34337833956377 0.004998133891113102
    vertex -297.5000000000004 -155.6085916617624 0.14402727432418344
    vertex -297.5000000000004 -156.34337833956377 0.004998133891135661
  endloop
endfacet
facet normal -7.544324528819302e-17 0.9914448613738182 0.13052619221999262
  outer loop
    vertex -319.7670370868559 -148.3852060868561 -0.521604725639256
    vertex -300.2500000000004 -148.36816900000062 -0.6510142481905005
    vertex -319.7500000000004 -148.36816900000062 -0.6510142481905117
  endloop
endfacet
facet normal -7.544324528819302e-17 0.9914448613738182 0.13052619221999262
  outer loop
    vertex -300.2500000000004 -148.36816900000062 -0.6510142481905005
    vertex -319.7670370868559 -148.3852060868561 -0.521604725639256
    vertex -300.232962913145 -148.3852060868561 -0.5216047256392448
  endloop
endfacet
facet normal 3.3095748601246345e-16 0.9238795325112578 -0.38268343236515967
  outer loop
    vertex -319.7670370868559 -148.3852060868561 -0.7804237707417787
    vertex -300.1830127018926 -148.4351562981084 -0.9010142481905
    vertex -319.8169872981083 -148.4351562981084 -0.9010142481905226
  endloop
endfacet
facet normal 3.3095748601246345e-16 0.9238795325112578 -0.38268343236515967
  outer loop
    vertex -300.1830127018926 -148.4351562981084 -0.9010142481905
    vertex -319.7670370868559 -148.3852060868561 -0.7804237707417787
    vertex -300.232962913145 -148.3852060868561 -0.7804237707417675
  endloop
endfacet
facet normal 4.487546240067951e-16 -0.39989202431973586 -0.9165622558699786
  outer loop
    vertex -321.16116260882495 -149.77933160882506 -0.7345923089029223
    vertex -298.1534102436644 -150.4647587563367 -0.43554350148506377
    vertex -321.8465897563364 -150.4647587563367 -0.43554350148507504
  endloop
endfacet
facet normal 4.487546240067951e-16 -0.39989202431973586 -0.9165622558699786
  outer loop
    vertex -298.1534102436644 -150.4647587563367 -0.43554350148506377
    vertex -321.16116260882495 -149.77933160882506 -0.7345923089029223
    vertex -298.83883739117596 -149.77933160882506 -0.7345923089029109
  endloop
endfacet
facet normal 6.966994483014273e-16 -0.7933533402912517 -0.6087614290086992
  outer loop
    vertex -300.10355339059373 -159.7217223905939 -1.0045676387837752
    vertex -319.8169872981083 -159.80118170189286 -0.9010142481905226
    vertex -319.8964466094071 -159.7217223905939 -1.0045676387837976
  endloop
endfacet
facet normal 6.966994483014273e-16 -0.7933533402912517 -0.6087614290086992
  outer loop
    vertex -319.8169872981083 -159.80118170189286 -0.9010142481905226
    vertex -300.10355339059373 -159.7217223905939 -1.0045676387837752
    vertex -300.1830127018926 -159.80118170189286 -0.9010142481905
  endloop
endfacet
facet normal -1.1434727275520429e-15 -0.6087614290086573 0.7933533402912838
  outer loop
    vertex -319.8964466094071 -159.7217223905939 -0.29746085759723706
    vertex -300.00000000000045 -159.61816900000065 -0.2180015462982837
    vertex -320.00000000000034 -159.6181690000006 -0.21800154629829496
  endloop
endfacet
facet normal -1.1434727275520429e-15 -0.6087614290086573 0.7933533402912838
  outer loop
    vertex -300.00000000000045 -159.61816900000065 -0.2180015462982837
    vertex -319.8964466094071 -159.7217223905939 -0.29746085759723706
    vertex -300.10355339059373 -159.7217223905939 -0.2974608575972258
  endloop
endfacet
facet normal -7.306291611147195e-16 -0.9238795325113189 -0.3826834323650121
  outer loop
    vertex -300.1830127018926 -159.80118170189286 -0.9010142481905
    vertex -319.7670370868559 -159.85113191314514 -0.7804237707417787
    vertex -319.8169872981083 -159.80118170189286 -0.9010142481905226
  endloop
endfacet
facet normal -7.306291611147195e-16 -0.9238795325113189 -0.3826834323650121
  outer loop
    vertex -319.7670370868559 -159.85113191314514 -0.7804237707417787
    vertex -300.1830127018926 -159.80118170189286 -0.9010142481905
    vertex -300.232962913145 -159.85113191314517 -0.7804237707417675
  endloop
endfacet
facet normal 8.274965403864876e-16 0.13052619221998144 -0.9914448613738197
  outer loop
    vertex -299.6205904774491 -159.23875947744938 -1.1339771613350422
    vertex -320.2500000000005 -159.36816900000062 -1.1510142481905108
    vertex -320.37940952255167 -159.23875947744935 -1.1339771613350533
  endloop
endfacet
facet normal 8.274965403864876e-16 0.13052619221998144 -0.9914448613738197
  outer loop
    vertex -320.2500000000005 -159.36816900000062 -1.1510142481905108
    vertex -299.6205904774491 -159.23875947744938 -1.1339771613350422
    vertex -299.7500000000004 -159.36816900000065 -1.1510142481904995
  endloop
endfacet
facet normal 7.541672158256883e-17 0.9914448613738197 -0.13052619221998144
  outer loop
    vertex -319.7500000000004 -148.36816900000062 -0.6510142481905117
    vertex -300.232962913145 -148.3852060868561 -0.7804237707417675
    vertex -319.7670370868559 -148.3852060868561 -0.7804237707417787
  endloop
endfacet
facet normal 7.541672158256883e-17 0.9914448613738197 -0.13052619221998144
  outer loop
    vertex -300.232962913145 -148.3852060868561 -0.7804237707417675
    vertex -319.7500000000004 -148.36816900000062 -0.6510142481905117
    vertex -300.2500000000004 -148.36816900000062 -0.6510142481905005
  endloop
endfacet
facet normal 7.734462414820435e-16 0.1119644761033045 -0.993712209893243
  outer loop
    vertex -297.5000000000004 -154.86546993586487 0.22775698388469257
    vertex -322.5000000000005 -155.60859166176235 0.14402727432416088
    vertex -322.5000000000005 -154.86546993586487 0.2277569838846813
  endloop
endfacet
facet normal 7.734462414820435e-16 0.1119644761033045 -0.993712209893243
  outer loop
    vertex -322.5000000000005 -155.60859166176235 0.14402727432416088
    vertex -297.5000000000004 -154.86546993586487 0.22775698388469257
    vertex -297.5000000000004 -155.6085916617624 0.14402727432418344
  endloop
endfacet
facet normal 8.867682790266602e-16 -0.18591160716291807 -0.9825664732332877
  outer loop
    vertex -297.5000000000004 -151.8929596604375 0.004998133891135661
    vertex -322.5000000000005 -152.62774633823886 0.14402727432416088
    vertex -322.5000000000005 -151.8929596604375 0.004998133891113102
  endloop
endfacet
facet normal 8.867682790266602e-16 -0.18591160716291807 -0.9825664732332877
  outer loop
    vertex -322.5000000000005 -152.62774633823886 0.14402727432416088
    vertex -297.5000000000004 -151.8929596604375 0.004998133891135661
    vertex -297.5000000000004 -152.62774633823886 0.14402727432418344
  endloop
endfacet
facet normal 1.0 0.0 0.0
  outer loop
    vertex -297.5000000000004 -157.0657207441097 -0.18855293006569845
    vertex -297.5000000000004 -157.11816900000062 1.2557190120728934
    vertex -297.5000000000004 -157.11816900000062 -0.2069053685510673
  endloop
endfacet
facet normal 1.0 0.0 0.0
  outer loop
    vertex -297.5000000000004 -157.11816900000062 1.2557190120728934
    vertex -297.5000000000004 -157.0657207441097 -0.18855293006569845
    vertex -297.5000000000004 -156.24316900000065 3.0057190120728903
  endloop
endfacet
facet normal 1.0 0.0 0.0
  outer loop
    vertex -297.5000000000004 -156.24316900000065 3.0057190120728903
    vertex -297.5000000000004 -157.0657207441097 -0.18855293006569845
    vertex -297.5000000000004 -156.34337833956377 0.004998133891135661
  endloop
endfacet
facet normal 1.0 0.0 0.0
  outer loop
    vertex -297.5000000000004 -156.24316900000065 3.0057190120728903
    vertex -297.5000000000004 -156.34337833956377 0.004998133891135661
    vertex -297.5000000000004 -155.6085916617624 0.14402727432418344
  endloop
endfacet
facet normal 1.0 0.0 0.0
  outer loop
    vertex -297.5000000000004 -156.24316900000065 3.0057190120728903
    vertex -297.5000000000004 -155.6085916617624 0.14402727432418344
    vertex -297.5000000000004 -155.74316900000062 0.7557190120728944
  endloop
endfacet
facet normal 1.0 0.0 0.0
  outer loop
    vertex -297.5000000000004 -155.74316900000062 0.7557190120728944
    vertex -297.5000000000004 -155.6085916617624 0.14402727432418344
    vertex -297.5000000000004 -152.49316900000065 0.7557190120728944
  endloop
endfacet
facet normal 1.0 0.0 0.0
  outer loop
    vertex -297.5000000000004 -152.49316900000065 0.7557190120728944
    vertex -297.5000000000004 -155.6085916617624 0.14402727432418344
    vertex -297.5000000000004 -154.86546993586487 0.22775698388469257
  endloop
endfacet
facet normal 1.0 0.0 0.0
  outer loop
    vertex -297.5000000000004 -152.49316900000065 0.7557190120728944
    vertex -297.5000000000004 -154.86546993586487 0.22775698388469257
    vertex -297.5000000000004 -154.11816900000065 0.2557190120728953
  endloop
endfacet
facet normal 1.0 0.0 0.0
  outer loop
    vertex -297.5000000000004 -152.49316900000065 0.7557190120728944
    vertex -297.5000000000004 -154.11816900000065 0.2557190120728953
    vertex -297.5000000000004 -153.3708680641364 0.22775698388469257
  endloop
endfacet
facet normal 1.0 0.0 0.0
  outer loop
    vertex -297.5000000000004 -152.49316900000065 0.7557190120728944
    vertex -297.5000000000004 -153.3708680641364 0.22775698388469257
    vertex -297.5000000000004 -152.62774633823886 0.14402727432418344
  endloop
endfacet
facet normal 1.0 0.0 0.0
  outer loop
    vertex -297.5000000000004 -152.49316900000065 0.7557190120728944
    vertex -297.5000000000004 -152.62774633823886 0.14402727432418344
    vertex -297.5000000000004 -151.8929596604375 0.004998133891135661
  endloop
endfacet
facet normal 1.0 0.0 0.0
  outer loop
    vertex -297.5000000000004 -152.49316900000065 0.7557190120728944
    vertex -297.5000000000004 -151.8929596604375 0.004998133891135661
    vertex -297.5000000000004 -152.49316900000065 2.505719012072891
  endloop
endfacet
facet normal 1.0 0.0 0.0
  outer loop
    vertex -297.5000000000004 -152.49316900000065 2.505719012072891
    vertex -297.5000000000004 -151.8929596604375 0.004998133891135661
    vertex -297.5000000000004 -151.99316900000062 3.0057190120728903
  endloop
endfacet
facet normal 1.0 0.0 0.0
  outer loop
    vertex -297.5000000000004 -151.99316900000062 3.0057190120728903
    vertex -297.5000000000004 -151.8929596604375 0.004998133891135661
    vertex -297.5000000000004 -151.11816900000065 1.2557190120728934
  endloop
endfacet
facet normal 1.0 0.0 0.0
  outer loop
    vertex -297.5000000000004 -151.11816900000065 1.2557190120728934
    vertex -297.5000000000004 -151.8929596604375 0.004998133891135661
    vertex -297.5000000000004 -151.17061725589159 -0.18855293006569845
  endloop
endfacet
facet normal 1.0 0.0 0.0
  outer loop
    vertex -297.5000000000004 -151.11816900000065 1.2557190120728934
    vertex -297.5000000000004 -151.17061725589159 -0.18855293006569845
    vertex -297.5000000000004 -151.11816900000065 -0.2069053685510673
  endloop
endfacet
facet normal 1.0 0.0 0.0
  outer loop
    vertex -297.5000000000004 -156.24316900000065 3.0057190120728903
    vertex -297.5000000000004 -155.74316900000062 2.505719012072891
    vertex -297.5000000000004 -151.99316900000062 3.0057190120728903
  endloop
endfacet
facet normal 1.0 0.0 0.0
  outer loop
    vertex -297.5000000000004 -155.74316900000062 2.505719012072891
    vertex -297.5000000000004 -156.24316900000065 3.0057190120728903
    vertex -297.5000000000004 -155.74316900000062 0.7557190120728944
  endloop
endfacet
facet normal 1.0 0.0 0.0
  outer loop
    vertex -297.5000000000004 -151.99316900000062 3.0057190120728903
    vertex -297.5000000000004 -155.74316900000062 2.505719012072891
    vertex -297.5000000000004 -152.49316900000065 2.505719012072891
  endloop
endfacet
facet normal 9.196626990247965e-16 0.46726862827306676 -0.8841153935046073
  outer loop
    vertex -298.83883739117596 -158.4570063911762 -0.7345923089029109
    vertex -320.50000000000045 -159.11816900000062 -1.0840269500827397
    vertex -321.16116260882495 -158.4570063911762 -0.7345923089029336
  endloop
endfacet
facet normal 9.196626990247965e-16 0.46726862827306676 -0.8841153935046073
  outer loop
    vertex -320.50000000000045 -159.11816900000062 -1.0840269500827397
    vertex -298.83883739117596 -158.4570063911762 -0.7345923089029109
    vertex -299.5000000000004 -159.11816900000062 -1.0840269500827173
  endloop
endfacet
facet normal 8.871655393751319e-16 0.2588190451025195 -0.9659258262890688
  outer loop
    vertex -297.5000000000004 -156.34337833956377 0.004998133891135661
    vertex -322.5000000000005 -157.06572074410965 -0.18855293006570972
    vertex -322.5000000000005 -156.34337833956377 0.004998133891113102
  endloop
endfacet
facet normal 8.871655393751319e-16 0.2588190451025195 -0.9659258262890688
  outer loop
    vertex -322.5000000000005 -157.06572074410965 -0.18855293006570972
    vertex -297.5000000000004 -156.34337833956377 0.004998133891135661
    vertex -297.5000000000004 -157.0657207441097 -0.18855293006569845
  endloop
endfacet
facet normal 6.966994483014273e-16 0.7933533402912517 -0.6087614290086992
  outer loop
    vertex -319.8169872981083 -148.4351562981084 -0.9010142481905226
    vertex -300.10355339059373 -148.51461560940737 -1.0045676387837752
    vertex -319.8964466094071 -148.51461560940737 -1.0045676387837976
  endloop
endfacet
facet normal 6.966994483014273e-16 0.7933533402912517 -0.6087614290086992
  outer loop
    vertex -300.10355339059373 -148.51461560940737 -1.0045676387837752
    vertex -319.8169872981083 -148.4351562981084 -0.9010142481905226
    vertex -300.1830127018926 -148.4351562981084 -0.9010142481905
  endloop
endfacet
facet normal 5.71349897894151e-16 -0.11196447610330451 -0.993712209893243
  outer loop
    vertex -297.5000000000004 -152.62774633823886 0.14402727432418344
    vertex -322.5000000000005 -153.37086806413637 0.2277569838846813
    vertex -322.5000000000005 -152.62774633823886 0.14402727432416088
  endloop
endfacet
facet normal 5.71349897894151e-16 -0.11196447610330451 -0.993712209893243
  outer loop
    vertex -322.5000000000005 -153.37086806413637 0.2277569838846813
    vertex -297.5000000000004 -152.62774633823886 0.14402727432418344
    vertex -297.5000000000004 -153.3708680641364 0.22775698388469257
  endloop
endfacet
facet normal 8.252155883030856e-16 0.13052619222002393 -0.991444861373814
  outer loop
    vertex -320.1205904774491 -148.73875947744935 -1.1339771613350533
    vertex -299.7500000000004 -148.86816900000062 -1.1510142481904995
    vertex -320.2500000000005 -148.86816900000062 -1.1510142481905221
  endloop
endfacet
facet normal 8.252155883030856e-16 0.13052619222002393 -0.991444861373814
  outer loop
    vertex -299.7500000000004 -148.86816900000062 -1.1510142481904995
    vertex -320.1205904774491 -148.73875947744935 -1.1339771613350533
    vertex -299.87940952255167 -148.73875947744935 -1.1339771613350422
  endloop
endfacet
facet normal 0.0 1.0 0.0
  outer loop
    vertex -322.50000000000034 -155.74316900000062 2.505719012072891
    vertex -297.5000000000004 -155.74316900000062 0.7557190120728944
    vertex -322.50000000000034 -155.74316900000062 0.7557190120728944
  endloop
endfacet
facet normal 0.0 1.0 0.0
  outer loop
    vertex -297.5000000000004 -155.74316900000062 0.7557190120728944
    vertex -322.50000000000034 -155.74316900000062 2.505719012072891
    vertex -297.5000000000004 -155.74316900000062 2.505719012072891
  endloop
endfacet
facet normal -1.025044309957752e-16 -0.89442719099992 0.44721359549994993
  outer loop
    vertex -297.5000000000004 -157.11816900000062 1.2557190120728934
    vertex -322.50000000000034 -156.24316900000065 3.0057190120728903
    vertex -322.50000000000034 -157.11816900000062 1.2557190120728823
  endloop
endfacet
facet normal -1.025044309957752e-16 -0.89442719099992 0.44721359549994993
  outer loop
    vertex -322.50000000000034 -156.24316900000065 3.0057190120728903
    vertex -297.5000000000004 -157.11816900000062 1.2557190120728934
    vertex -297.5000000000004 -156.24316900000065 3.0057190120728903
  endloop
endfacet
facet normal 0.0 -1.0 0.0
  outer loop
    vertex -297.5000000000004 -152.49316900000065 2.505719012072891
    vertex -322.50000000000034 -152.49316900000065 0.7557190120728944
    vertex -297.5000000000004 -152.49316900000065 0.7557190120728944
  endloop
endfacet
facet normal 0.0 -1.0 0.0
  outer loop
    vertex -322.50000000000034 -152.49316900000065 0.7557190120728944
    vertex -297.5000000000004 -152.49316900000065 2.505719012072891
    vertex -322.50000000000034 -152.49316900000065 2.505719012072891
  endloop
endfacet
facet normal -1.0 2.856648009528684e-29 6.774432916951775e-14
  outer loop
    vertex -322.50000000000034 -151.99316900000062 3.0057190120728903
    vertex -322.50000000000034 -155.74316900000062 2.505719012072891
    vertex -322.50000000000034 -156.24316900000065 3.0057190120728903
  endloop
endfacet
facet normal -1.0 2.856648009528684e-29 6.774432916951775e-14
  outer loop
    vertex -322.50000000000034 -155.74316900000062 2.505719012072891
    vertex -322.50000000000034 -151.99316900000062 3.0057190120728903
    vertex -322.50000000000034 -152.49316900000065 2.505719012072891
  endloop
endfacet
facet normal -1.0 2.856648009528684e-29 6.774432916951775e-14
  outer loop
    vertex -322.50000000000034 -152.49316900000065 2.505719012072891
    vertex -322.50000000000034 -151.99316900000062 3.0057190120728903
    vertex -322.50000000000034 -152.49316900000065 0.7557190120728944
  endloop
endfacet
facet normal -1.0 2.856648009528684e-29 6.774432916951775e-14
  outer loop
    vertex -322.50000000000034 -156.24316900000065 3.0057190120728903
    vertex -322.5000000000005 -157.11816900000062 -0.2069053685510786
    vertex -322.50000000000034 -157.11816900000062 1.2557190120728823
  endloop
endfacet
facet normal -1.0 2.856648009528684e-29 6.774432916951775e-14
  outer loop
    vertex -322.5000000000005 -157.11816900000062 -0.2069053685510786
    vertex -322.50000000000034 -156.24316900000065 3.0057190120728903
    vertex -322.5000000000005 -157.06572074410965 -0.18855293006570972
  endloop
endfacet
facet normal -1.0 2.856648009528684e-29 6.774432916951775e-14
  outer loop
    vertex -322.5000000000005 -157.06572074410965 -0.18855293006570972
    vertex -322.50000000000034 -156.24316900000065 3.0057190120728903
    vertex -322.5000000000005 -156.34337833956377 0.004998133891113102
  endloop
endfacet
facet normal -1.0 2.856648009528684e-29 6.774432916951775e-14
  outer loop
    vertex -322.5000000000005 -156.34337833956377 0.004998133891113102
    vertex -322.50000000000034 -156.24316900000065 3.0057190120728903
    vertex -322.5000000000005 -155.60859166176235 0.14402727432416088
  endloop
endfacet
facet normal -1.0 2.856648009528684e-29 6.774432916951775e-14
  outer loop
    vertex -322.5000000000005 -155.60859166176235 0.14402727432416088
    vertex -322.50000000000034 -156.24316900000065 3.0057190120728903
    vertex -322.50000000000034 -155.74316900000062 0.7557190120728944
  endloop
endfacet
facet normal -1.0 2.856648009528684e-29 6.774432916951775e-14
  outer loop
    vertex -322.50000000000034 -155.74316900000062 0.7557190120728944
    vertex -322.50000000000034 -156.24316900000065 3.0057190120728903
    vertex -322.50000000000034 -155.74316900000062 2.505719012072891
  endloop
endfacet
facet normal -1.0 2.856648009528684e-29 6.774432916951775e-14
  outer loop
    vertex -322.5000000000005 -155.60859166176235 0.14402727432416088
    vertex -322.50000000000034 -155.74316900000062 0.7557190120728944
    vertex -322.50000000000034 -152.49316900000065 0.7557190120728944
  endloop
endfacet
facet normal -1.0 2.856648009528684e-29 6.774432916951775e-14
  outer loop
    vertex -322.5000000000005 -155.60859166176235 0.14402727432416088
    vertex -322.50000000000034 -152.49316900000065 0.7557190120728944
    vertex -322.5000000000005 -154.86546993586487 0.2277569838846813
  endloop
endfacet
facet normal -1.0 2.856648009528684e-29 6.774432916951775e-14
  outer loop
    vertex -322.5000000000005 -154.86546993586487 0.2277569838846813
    vertex -322.50000000000034 -152.49316900000065 0.7557190120728944
    vertex -322.5000000000005 -154.11816900000065 0.25571901207288406
  endloop
endfacet
facet normal -1.0 2.856648009528684e-29 6.774432916951775e-14
  outer loop
    vertex -322.5000000000005 -154.11816900000065 0.25571901207288406
    vertex -322.50000000000034 -152.49316900000065 0.7557190120728944
    vertex -322.5000000000005 -153.37086806413637 0.2277569838846813
  endloop
endfacet
facet normal -1.0 2.856648009528684e-29 6.774432916951775e-14
  outer loop
    vertex -322.5000000000005 -153.37086806413637 0.2277569838846813
    vertex -322.50000000000034 -152.49316900000065 0.7557190120728944
    vertex -322.5000000000005 -152.62774633823886 0.14402727432416088
  endloop
endfacet
facet normal -1.0 2.856648009528684e-29 6.774432916951775e-14
  outer loop
    vertex -322.5000000000005 -152.62774633823886 0.14402727432416088
    vertex -322.50000000000034 -152.49316900000065 0.7557190120728944
    vertex -322.5000000000005 -151.8929596604375 0.004998133891113102
  endloop
endfacet
facet normal -1.0 2.856648009528684e-29 6.774432916951775e-14
  outer loop
    vertex -322.5000000000005 -151.8929596604375 0.004998133891113102
    vertex -322.50000000000034 -152.49316900000065 0.7557190120728944
    vertex -322.50000000000034 -151.99316900000062 3.0057190120728903
  endloop
endfacet
facet normal -1.0 2.856648009528684e-29 6.774432916951775e-14
  outer loop
    vertex -322.5000000000005 -151.8929596604375 0.004998133891113102
    vertex -322.50000000000034 -151.99316900000062 3.0057190120728903
    vertex -322.50000000000034 -151.1181690000006 1.2557190120728823
  endloop
endfacet
facet normal -1.0 2.856648009528684e-29 6.774432916951775e-14
  outer loop
    vertex -322.5000000000005 -151.8929596604375 0.004998133891113102
    vertex -322.50000000000034 -151.1181690000006 1.2557190120728823
    vertex -322.5000000000005 -151.17061725589159 -0.18855293006570972
  endloop
endfacet
facet normal -1.0 2.856648009528684e-29 6.774432916951775e-14
  outer loop
    vertex -322.5000000000005 -151.17061725589159 -0.18855293006570972
    vertex -322.50000000000034 -151.1181690000006 1.2557190120728823
    vertex -322.5000000000005 -151.11816900000065 -0.2069053685510786
  endloop
endfacet
facet normal 7.047179630959679e-16 0.8944271909999155 0.44721359549995915
  outer loop
    vertex -322.50000000000034 -151.99316900000062 3.0057190120728903
    vertex -297.5000000000004 -151.11816900000065 1.2557190120728934
    vertex -322.50000000000034 -151.1181690000006 1.2557190120728823
  endloop
endfacet
facet normal 7.047179630959679e-16 0.8944271909999155 0.44721359549995915
  outer loop
    vertex -297.5000000000004 -151.11816900000065 1.2557190120728934
    vertex -322.50000000000034 -151.99316900000062 3.0057190120728903
    vertex -297.5000000000004 -151.99316900000062 3.0057190120728903
  endloop
endfacet
facet normal 0.0 0.0 1.0
  outer loop
    vertex -297.5000000000004 -155.74316900000062 0.7557190120728944
    vertex -322.50000000000034 -152.49316900000065 0.7557190120728944
    vertex -322.50000000000034 -155.74316900000062 0.7557190120728944
  endloop
endfacet
facet normal 0.0 0.0 1.0
  outer loop
    vertex -322.50000000000034 -152.49316900000065 0.7557190120728944
    vertex -297.5000000000004 -155.74316900000062 0.7557190120728944
    vertex -297.5000000000004 -152.49316900000065 0.7557190120728944
  endloop
endfacet
facet normal 0.0 0.0 1.0
  outer loop
    vertex -297.5000000000004 -156.24316900000065 3.0057190120728903
    vertex -322.50000000000034 -151.99316900000062 3.0057190120728903
    vertex -322.50000000000034 -156.24316900000065 3.0057190120728903
  endloop
endfacet
facet normal 0.0 0.0 1.0
  outer loop
    vertex -322.50000000000034 -151.99316900000062 3.0057190120728903
    vertex -297.5000000000004 -156.24316900000065 3.0057190120728903
    vertex -297.5000000000004 -151.99316900000062 3.0057190120728903
  endloop
endfacet
facet normal 0.0 0.0 -1.0
  outer loop
    vertex -297.5000000000004 -152.49316900000065 2.505719012072891
    vertex -322.50000000000034 -155.74316900000062 2.505719012072891
    vertex -322.50000000000034 -152.49316900000065 2.505719012072891
  endloop
endfacet
facet normal 0.0 0.0 -1.0
  outer loop
    vertex -322.50000000000034 -155.74316900000062 2.505719012072891
    vertex -297.5000000000004 -152.49316900000065 2.505719012072891
    vertex -297.5000000000004 -155.74316900000062 2.505719012072891
  endloop
endfacet
endsolid ProtoGlove
