solid ProtoGlove baseplate
facet normal -0.044353465400123346 0.22643460793244716 0.9730160011209883
  outer loop
    vertex 103.46340938692705 316.58281390375254 305.9573453875788
    vertex 170.4541198576713 334.1619708973429 304.9200969132783
    vertex 101.39630246096746 325.06051427376 303.8902384616361
  endloop
endfacet
facet normal -0.044353465400123346 0.22643460793244716 0.9730160011209883
  outer loop
    vertex 170.4541198576713 334.1619708973429 304.9200969132783
    vertex 103.46340938692705 316.58281390375254 305.9573453875788
    vertex 170.41061733173274 333.8296680417387 304.9954454984611
  endloop
endfacet
facet normal -0.0602040366542075 0.35106990236003943 0.9344117923204156
  outer loop
    vertex 101.39630246096746 325.06051427376 303.8902384616361
    vertex 171.41665789546494 338.76437942030486 303.25293212761113
    vertex 101.31926252122477 325.25235331312473 303.81319852189404
  endloop
endfacet
facet normal -0.0602040366542075 0.35106990236003943 0.9344117923204156
  outer loop
    vertex 171.41665789546494 338.76437942030486 303.25293212761113
    vertex 101.39630246096746 325.06051427376 303.8902384616361
    vertex 170.4541198576713 334.1619708973429 304.9200969132783
  endloop
endfacet
facet normal 0.0 1.9698374875698473e-12 -1.0
  outer loop
    vertex 108.00606400000046 398.49999999981617 300.0000000008135
    vertex 98.00606400000021 308.49999999981605 300.00000000063625
    vertex 98.00606400000021 353.499999999816 300.0000000007249
  endloop
endfacet
facet normal 0.0 1.9698374875698473e-12 -1.0
  outer loop
    vertex 98.00606400000021 308.49999999981605 300.00000000063625
    vertex 108.00606400000046 398.49999999981617 300.0000000008135
    vertex 128.00606400000024 308.49999999981605 300.00000000063625
  endloop
endfacet
facet normal 0.0 1.9698374875698473e-12 -1.0
  outer loop
    vertex 128.00606400000024 308.49999999981605 300.00000000063625
    vertex 108.00606400000046 398.49999999981617 300.0000000008135
    vertex 128.00606400000024 398.49999999981617 300.0000000008135
  endloop
endfacet
facet normal 0.0 1.9698374875698473e-12 -1.0
  outer loop
    vertex 128.00606400000024 308.49999999981605 300.00000000063625
    vertex 128.00606400000024 398.49999999981617 300.0000000008135
    vertex 173.00606400000012 380.99999999981605 300.000000000779
  endloop
endfacet
facet normal 0.0 1.9698374875698473e-12 -1.0
  outer loop
    vertex 128.00606400000024 308.49999999981605 300.00000000063625
    vertex 173.00606400000012 380.99999999981605 300.000000000779
    vertex 173.00606400000012 325.99999999981605 300.0000000006707
  endloop
endfacet
facet normal -0.00896380857151449 -0.15341192518959207 0.9881216682906597
  outer loop
    vertex 172.57244402372996 358.4058722280493 301.25105183081115
    vertex 100.1581514530229 363.18439353841546 301.33603559347125
    vertex 100.1278058411309 363.0478382849026 301.31455927403294
  endloop
endfacet
facet normal -0.00896380857151449 -0.15341192518959207 0.9881216682906597
  outer loop
    vertex 100.1581514530229 363.18439353841546 301.33603559347125
    vertex 172.57244402372996 358.4058722280493 301.25105183081115
    vertex 172.144545806924 363.2045443310768 301.9921932827969
  endloop
endfacet
facet normal 0.36244626115495016 0.9320046715412953 1.836369360009362e-12
  outer loop
    vertex 167.56077946016651 383.11761065417625 309.93150948544434
    vertex 128.00606400000024 398.49999999981617 300.0000000008135
    vertex 128.00606400000024 398.499999999794 311.2500000008135
  endloop
endfacet
facet normal 0.36244626115495016 0.9320046715412953 1.836369360009362e-12
  outer loop
    vertex 128.00606400000024 398.49999999981617 300.0000000008135
    vertex 167.56077946016651 383.11761065417625 309.93150948544434
    vertex 173.00606400000012 380.99999999981515 300.500000000779
  endloop
endfacet
facet normal 0.36244626115495016 0.9320046715412953 1.836369360009362e-12
  outer loop
    vertex 128.00606400000024 398.49999999981617 300.0000000008135
    vertex 173.00606400000012 380.99999999981515 300.500000000779
    vertex 173.00606400000012 380.99999999981605 300.000000000779
  endloop
endfacet
facet normal 0.36244626115494927 -0.9320046715412957 -1.8359439734410334e-12
  outer loop
    vertex 128.00606400000024 308.49999999981605 300.00000000063625
    vertex 167.56077946016651 323.8823893454167 309.93150948532764
    vertex 128.00606400000024 308.4999999997939 311.25000000063625
  endloop
endfacet
facet normal 0.36244626115494927 -0.9320046715412957 -1.8359439734410334e-12
  outer loop
    vertex 167.56077946016651 323.8823893454167 309.93150948532764
    vertex 128.00606400000024 308.49999999981605 300.00000000063625
    vertex 173.00606400000012 325.999999999815 300.5000000006707
  endloop
endfacet
facet normal 0.36244626115494927 -0.9320046715412957 -1.8359439734410334e-12
  outer loop
    vertex 173.00606400000012 325.999999999815 300.5000000006707
    vertex 128.00606400000024 308.49999999981605 300.00000000063625
    vertex 173.00606400000012 325.99999999981605 300.0000000006707
  endloop
endfacet
facet normal -1.0 -0.0 0.0
  outer loop
    vertex 98.00606400000021 308.49999999981605 300.00000000063625
    vertex 98.00606400000021 353.4999999998151 300.5000000007249
    vertex 98.00606400000021 353.499999999816 300.0000000007249
  endloop
endfacet
facet normal -1.0 -0.0 0.0
  outer loop
    vertex 98.00606400000021 353.4999999998151 300.5000000007249
    vertex 98.00606400000021 308.49999999981605 300.00000000063625
    vertex 98.00606400000021 308.49999999981503 300.5000000006362
  endloop
endfacet
facet normal -0.1518441829321567 0.5290098709899228 0.8349202958994896
  outer loop
    vertex 106.19310443860704 308.49999999979883 308.68704043924305
    vertex 169.12389917331956 328.87222507404704 307.22410672384444
    vertex 106.1635384006067 308.53817670579343 308.6574744012428
  endloop
endfacet
facet normal -0.1518441829321567 0.5290098709899228 0.8349202958994896
  outer loop
    vertex 169.12389917331956 328.87222507404704 307.22410672384444
    vertex 106.19310443860704 308.49999999979883 308.68704043924305
    vertex 107.69588908042907 308.4999999997984 308.96034689398056
  endloop
endfacet
facet normal -0.1518441829321567 0.5290098709899228 0.8349202958994896
  outer loop
    vertex 169.12389917331956 328.87222507404704 307.22410672384444
    vertex 107.69588908042907 308.4999999997984 308.96034689398056
    vertex 167.7025955824452 324.57892437993365 309.6858767562098
  endloop
endfacet
facet normal -0.10146151595158924 -0.44350957370883937 0.890508180091238
  outer loop
    vertex 170.41061733173237 373.1703319578737 304.9954454985386
    vertex 106.1610919729817 390.19762587822 306.1553603079151
    vertex 106.06116523446528 389.7479555548972 305.9200207383687
  endloop
endfacet
facet normal -0.10146151595158924 -0.44350957370883937 0.890508180091238
  outer loop
    vertex 106.1610919729817 390.19762587822 306.1553603079151
    vertex 170.41061733173237 373.1703319578737 304.9954454985386
    vertex 169.20709459786127 377.6311854255508 307.08000802167686
  endloop
endfacet
facet normal -0.009043540797729984 -0.09782982127154045 0.9951620674241047
  outer loop
    vertex 172.144545806924 363.2045443310768 301.9921932827969
    vertex 102.1817498216527 372.2905861972482 302.24961311460413
    vertex 100.1581514530229 363.18439353841546 301.33603559347125
  endloop
endfacet
facet normal -0.009043540797729984 -0.09782982127154045 0.9951620674241047
  outer loop
    vertex 102.1817498216527 372.2905861972482 302.24961311460413
    vertex 172.144545806924 363.2045443310768 301.9921932827969
    vertex 172.13824649437151 363.3161147292281 302.00310401219036
  endloop
endfacet
facet normal -0.15184418293215746 -0.52900987099321 0.8349202958974065
  outer loop
    vertex 169.12389917331956 378.1277749255568 307.2241067239414
    vertex 107.98863261101967 398.42155874938635 308.9638864014193
    vertex 107.87476520489464 397.90915542182364 308.6185162830103
  endloop
endfacet
facet normal -0.15184418293215746 -0.52900987099321 0.8349202958974065
  outer loop
    vertex 107.98863261101967 398.42155874938635 308.9638864014193
    vertex 169.12389917331956 378.1277749255568 307.2241067239414
    vertex 167.7025955824452 382.4210756196605 309.6858767563237
  endloop
endfacet
facet normal -0.07160740951297638 -0.2890119836053768 0.9546436257763031
  outer loop
    vertex 169.20709459786127 377.6311854255508 307.08000802167686
    vertex 107.87476520489464 397.90915542182364 308.6185162830103
    vertex 106.1610919729817 390.19762587822 306.1553603079151
  endloop
endfacet
facet normal -0.07160740951297638 -0.2890119836053768 0.9546436257763031
  outer loop
    vertex 107.87476520489464 397.90915542182364 308.6185162830103
    vertex 169.20709459786127 377.6311854255508 307.08000802167686
    vertex 169.12389917331956 378.1277749255568 307.2241067239414
  endloop
endfacet
facet normal -0.023448685145563114 0.16254785412631026 0.986421996046254
  outer loop
    vertex 101.31926252122477 325.25235331312473 303.81319852189404
    vertex 171.4357890132671 338.9682255191168 303.2197960595721
    vertex 99.79365129810522 334.29044796256596 302.2875872987922
  endloop
endfacet
facet normal -0.023448685145563114 0.16254785412631026 0.986421996046254
  outer loop
    vertex 171.4357890132671 338.9682255191168 303.2197960595721
    vertex 101.31926252122477 325.25235331312473 303.81319852189404
    vertex 171.41665789546494 338.76437942030486 303.25293212761113
  endloop
endfacet
facet normal -0.02915130969167004 -0.2537924677426304 0.9668193132433621
  outer loop
    vertex 172.13824649437151 363.3161147292281 302.00310401219036
    vertex 102.23936673753691 372.54986231872743 302.31941099134394
    vertex 102.1817498216527 372.2905861972482 302.24961311460413
  endloop
endfacet
facet normal -0.02915130969167004 -0.2537924677426304 0.9668193132433621
  outer loop
    vertex 102.23936673753691 372.54986231872743 302.31941099134394
    vertex 172.13824649437151 363.3161147292281 302.00310401219036
    vertex 171.43578901326745 368.0317744805026 303.21979605962935
  endloop
endfacet
facet normal -0.029151309691670322 0.25379246773882735 0.9668193132443603
  outer loop
    vertex 99.79365129810522 334.29044796256596 302.2875872987922
    vertex 172.13824649437151 343.683885270396 302.0031040121517
    vertex 99.76419596569139 334.3992743709478 302.2581319663784
  endloop
endfacet
facet normal -0.029151309691670322 0.25379246773882735 0.9668193132443603
  outer loop
    vertex 172.13824649437151 343.683885270396 302.0031040121517
    vertex 99.79365129810522 334.29044796256596 302.2875872987922
    vertex 171.4357890132671 338.9682255191168 303.2197960595721
  endloop
endfacet
facet normal -8.697470997095378e-18 0.0513195767096154 0.9986822823332484
  outer loop
    vertex 98.50774074887327 353.46737035828176 301.0016767495981
    vertex 172.7173888654052 353.499999999814 301.0000000007249
    vertex 98.5060640000001 353.4999999998141 301.00000000072487
  endloop
endfacet
facet normal -8.697470997095378e-18 0.0513195767096154 0.9986822823332484
  outer loop
    vertex 172.7173888654052 353.499999999814 301.0000000007249
    vertex 98.50774074887327 353.46737035828176 301.0016767495981
    vertex 172.57349819959586 348.6500470103982 301.24922594463254
  endloop
endfacet
facet normal -0.10495263612510464 0.34967593692697463 0.9309735137503289
  outer loop
    vertex 128.00606400000024 308.4999999997939 311.25000000063625
    vertex 167.7025955824452 324.57892437993365 309.6858767562098
    vertex 107.69588908042907 308.4999999997984 308.96034689398056
  endloop
endfacet
facet normal -0.10495263612510464 0.34967593692697463 0.9309735137503289
  outer loop
    vertex 167.7025955824452 324.57892437993365 309.6858767562098
    vertex 128.00606400000024 308.4999999997939 311.25000000063625
    vertex 167.56077946016651 323.8823893454167 309.93150948532764
  endloop
endfacet
facet normal -6.64486784178087e-17 -0.05131957671354921 0.9986822823330463
  outer loop
    vertex 172.7173888654052 353.499999999814 301.0000000007249
    vertex 98.50774074887327 353.53262964134643 301.0016767495983
    vertex 98.5060640000001 353.4999999998141 301.00000000072487
  endloop
endfacet
facet normal -6.64486784178087e-17 -0.05131957671354921 0.9986822823330463
  outer loop
    vertex 98.50774074887327 353.53262964134643 301.0016767495983
    vertex 172.7173888654052 353.499999999814 301.0000000007249
    vertex 172.5734981995955 358.3499529892288 301.2492259446517
  endloop
endfacet
facet normal 1.0 0.0 0.0
  outer loop
    vertex 173.00606400000012 380.99999999981515 300.500000000779
    vertex 173.00606400000012 325.99999999981605 300.0000000006707
    vertex 173.00606400000012 380.99999999981605 300.000000000779
  endloop
endfacet
facet normal 1.0 0.0 0.0
  outer loop
    vertex 173.00606400000012 325.99999999981605 300.0000000006707
    vertex 173.00606400000012 380.99999999981515 300.500000000779
    vertex 173.00606400000012 325.999999999815 300.5000000006707
  endloop
endfacet
facet normal -0.023448685145562823 -0.16254785413019374 0.9864219960456141
  outer loop
    vertex 171.43578901326745 368.0317744805026 303.21979605962935
    vertex 104.16156667178679 381.1997620228485 303.7904808805075
    vertex 102.23936673753691 372.54986231872743 302.31941099134394
  endloop
endfacet
facet normal -0.023448685145562823 -0.16254785413019374 0.9864219960456141
  outer loop
    vertex 104.16156667178679 381.1997620228485 303.7904808805075
    vertex 171.43578901326745 368.0317744805026 303.21979605962935
    vertex 171.41665789546494 368.2356205793144 303.2529321276691
  endloop
endfacet
facet normal -0.001216409811808022 0.03265769026988195 0.9994658551513436
  outer loop
    vertex 98.82176819048424 343.8684759845535 301.31570419119004
    vertex 172.57349819959586 348.6500470103982 301.24922594463254
    vertex 98.50774074887327 353.46737035828176 301.0016767495981
  endloop
endfacet
facet normal -0.001216409811808022 0.03265769026988195 0.9994658551513436
  outer loop
    vertex 172.57349819959586 348.6500470103982 301.24922594463254
    vertex 98.82176819048424 343.8684759845535 301.31570419119004
    vertex 172.57244402372996 348.5941277715783 301.25105183079194
  endloop
endfacet
facet normal -0.044353465400124796 -0.22643460793628653 0.9730160011200947
  outer loop
    vertex 170.4541198576713 372.83802910226973 304.92009691335454
    vertex 106.06116523446528 389.7479555548972 305.9200207383687
    vertex 104.24258849281962 381.56436021749624 303.93268509322445
  endloop
endfacet
facet normal -0.044353465400124796 -0.22643460793628653 0.9730160011200947
  outer loop
    vertex 106.06116523446528 389.7479555548972 305.9200207383687
    vertex 170.4541198576713 372.83802910226973 304.92009691335454
    vertex 170.41061733173237 373.1703319578737 304.9954454985386
  endloop
endfacet
facet normal -0.06020403665420963 -0.35106990236372937 0.9344117923190292
  outer loop
    vertex 171.41665789546494 368.2356205793144 303.2529321276691
    vertex 104.24258849281962 381.56436021749624 303.93268509322445
    vertex 104.16156667178679 381.1997620228485 303.7904808805075
  endloop
endfacet
facet normal -0.06020403665420963 -0.35106990236372937 0.9344117923190292
  outer loop
    vertex 104.24258849281962 381.56436021749624 303.93268509322445
    vertex 171.41665789546494 368.2356205793144 303.2529321276691
    vertex 170.4541198576713 372.83802910226973 304.92009691335454
  endloop
endfacet
facet normal -0.10495263612510448 -0.3496759369306406 0.9309735137489522
  outer loop
    vertex 167.7025955824452 382.4210756196605 309.6858767563237
    vertex 108.00606400000011 398.4999999997985 308.9953142428398
    vertex 107.98863261101967 398.42155874938635 308.9638864014193
  endloop
endfacet
facet normal -0.10495263612510448 -0.3496759369306406 0.9309735137489522
  outer loop
    vertex 108.00606400000011 398.4999999997985 308.9953142428398
    vertex 167.7025955824452 382.4210756196605 309.6858767563237
    vertex 128.00606400000024 398.499999999794 311.2500000008135
  endloop
endfacet
facet normal -0.10495263612510448 -0.3496759369306406 0.9309735137489522
  outer loop
    vertex 128.00606400000024 398.499999999794 311.2500000008135
    vertex 167.7025955824452 382.4210756196605 309.6858767563237
    vertex 167.56077946016651 383.11761065417625 309.93150948544434
  endloop
endfacet
facet normal -0.009043540797730256 0.09782982126762207 0.99516206742449
  outer loop
    vertex 99.76419596569139 334.3992743709478 302.2581319663784
    vertex 172.144545806924 343.79545566854796 301.9921932827586
    vertex 98.82999340062624 343.8159782458769 301.3239294013319
  endloop
endfacet
facet normal -0.009043540797730256 0.09782982126762207 0.99516206742449
  outer loop
    vertex 172.144545806924 343.79545566854796 301.9921932827586
    vertex 99.76419596569139 334.3992743709478 302.2581319663784
    vertex 172.13824649437151 343.683885270396 302.0031040121517
  endloop
endfacet
facet normal -0.10146151595159278 0.44350957370534705 0.890508180092977
  outer loop
    vertex 103.62421790690736 316.29671990764024 306.1181539075586
    vertex 170.41061733173274 333.8296680417387 304.9954454984611
    vertex 103.46340938692705 316.58281390375254 305.9573453875788
  endloop
endfacet
facet normal -0.10146151595159278 0.44350957370534705 0.890508180092977
  outer loop
    vertex 170.41061733173274 333.8296680417387 304.9954454984611
    vertex 103.62421790690736 316.29671990764024 306.1181539075586
    vertex 169.20709459786127 329.36881457405343 307.08000802158176
  endloop
endfacet
facet normal -0.07160740951297703 0.28901198360161784 0.9546436257774411
  outer loop
    vertex 106.1635384006067 308.53817670579343 308.6574744012428
    vertex 169.20709459786127 329.36881457405343 307.08000802158176
    vertex 103.62421790690736 316.29671990764024 306.1181539075586
  endloop
endfacet
facet normal -0.07160740951297703 0.28901198360161784 0.9546436257774411
  outer loop
    vertex 169.20709459786127 329.36881457405343 307.08000802158176
    vertex 106.1635384006067 308.53817670579343 308.6574744012428
    vertex 169.12389917331956 328.87222507404704 307.22410672384444
  endloop
endfacet
facet normal -0.0012164098118077615 -0.03265769027382148 0.9994658551512148
  outer loop
    vertex 172.5734981995955 358.3499529892288 301.2492259446517
    vertex 98.59309429757145 356.141636338884 301.08703029830116
    vertex 98.50774074887327 353.53262964134643 301.0016767495983
  endloop
endfacet
facet normal -0.0012164098118077615 -0.03265769027382148 0.9994658551512148
  outer loop
    vertex 98.59309429757145 356.141636338884 301.08703029830116
    vertex 172.5734981995955 358.3499529892288 301.2492259446517
    vertex 100.1278058411309 363.0478382849026 301.31455927403294
  endloop
endfacet
facet normal -0.0012164098118077615 -0.03265769027382148 0.9994658551512148
  outer loop
    vertex 100.1278058411309 363.0478382849026 301.31455927403294
    vertex 172.5734981995955 358.3499529892288 301.2492259446517
    vertex 172.57244402372996 358.4058722280493 301.25105183081115
  endloop
endfacet
facet normal 0.8660254037844441 -9.84578318797291e-13 0.4999999999999904
  outer loop
    vertex 167.7025955824452 382.4210756196605 309.6858767563237
    vertex 173.00606400000012 380.99999999981515 300.500000000779
    vertex 167.56077946016651 383.11761065417625 309.93150948544434
  endloop
endfacet
facet normal 0.8660254037844441 -9.84578318797291e-13 0.4999999999999904
  outer loop
    vertex 173.00606400000012 380.99999999981515 300.500000000779
    vertex 167.7025955824452 382.4210756196605 309.6858767563237
    vertex 169.12389917331956 378.1277749255568 307.2241067239414
  endloop
endfacet
facet normal 0.8660254037844441 -9.84578318797291e-13 0.4999999999999904
  outer loop
    vertex 173.00606400000012 380.99999999981515 300.500000000779
    vertex 169.12389917331956 378.1277749255568 307.2241067239414
    vertex 170.41061733173237 373.1703319578737 304.9954454985386
  endloop
endfacet
facet normal 0.8660254037844441 -9.84578318797291e-13 0.4999999999999904
  outer loop
    vertex 173.00606400000012 380.99999999981515 300.500000000779
    vertex 170.41061733173237 373.1703319578737 304.9954454985386
    vertex 171.41665789546494 368.2356205793144 303.2529321276691
  endloop
endfacet
facet normal 0.8660254037844441 -9.84578318797291e-13 0.4999999999999904
  outer loop
    vertex 173.00606400000012 380.99999999981515 300.500000000779
    vertex 171.41665789546494 368.2356205793144 303.2529321276691
    vertex 172.13824649437151 363.3161147292281 302.00310401219036
  endloop
endfacet
facet normal 0.8660254037844441 -9.84578318797291e-13 0.4999999999999904
  outer loop
    vertex 173.00606400000012 380.99999999981515 300.500000000779
    vertex 172.13824649437151 363.3161147292281 302.00310401219036
    vertex 172.57244402372996 358.4058722280493 301.25105183081115
  endloop
endfacet
facet normal 0.8660254037844441 -9.84578318797291e-13 0.4999999999999904
  outer loop
    vertex 173.00606400000012 380.99999999981515 300.500000000779
    vertex 172.57244402372996 358.4058722280493 301.25105183081115
    vertex 172.7173888654052 353.499999999814 301.0000000007249
  endloop
endfacet
facet normal 0.8660254037844441 -9.84578318797291e-13 0.4999999999999904
  outer loop
    vertex 173.00606400000012 380.99999999981515 300.500000000779
    vertex 172.7173888654052 353.499999999814 301.0000000007249
    vertex 173.00606400000012 325.999999999815 300.5000000006707
  endloop
endfacet
facet normal 0.8660254037844441 -9.84578318797291e-13 0.4999999999999904
  outer loop
    vertex 170.41061733173237 373.1703319578737 304.9954454985386
    vertex 169.12389917331956 378.1277749255568 307.2241067239414
    vertex 169.20709459786127 377.6311854255508 307.08000802167686
  endloop
endfacet
facet normal 0.8660254037844441 -9.84578318797291e-13 0.4999999999999904
  outer loop
    vertex 171.41665789546494 368.2356205793144 303.2529321276691
    vertex 170.41061733173237 373.1703319578737 304.9954454985386
    vertex 170.4541198576713 372.83802910226973 304.92009691335454
  endloop
endfacet
facet normal 0.8660254037844441 -9.84578318797291e-13 0.4999999999999904
  outer loop
    vertex 172.13824649437151 363.3161147292281 302.00310401219036
    vertex 171.41665789546494 368.2356205793144 303.2529321276691
    vertex 171.43578901326745 368.0317744805026 303.21979605962935
  endloop
endfacet
facet normal 0.8660254037844441 -9.84578318797291e-13 0.4999999999999904
  outer loop
    vertex 172.57244402372996 358.4058722280493 301.25105183081115
    vertex 172.13824649437151 363.3161147292281 302.00310401219036
    vertex 172.144545806924 363.2045443310768 301.9921932827969
  endloop
endfacet
facet normal 0.8660254037844441 -9.84578318797291e-13 0.4999999999999904
  outer loop
    vertex 172.7173888654052 353.499999999814 301.0000000007249
    vertex 172.57244402372996 358.4058722280493 301.25105183081115
    vertex 172.5734981995955 358.3499529892288 301.2492259446517
  endloop
endfacet
facet normal 0.8660254037844441 -9.84578318797291e-13 0.4999999999999904
  outer loop
    vertex 173.00606400000012 325.999999999815 300.5000000006707
    vertex 172.7173888654052 353.499999999814 301.0000000007249
    vertex 172.57349819959586 348.6500470103982 301.24922594463254
  endloop
endfacet
facet normal 0.8660254037844441 -9.84578318797291e-13 0.4999999999999904
  outer loop
    vertex 173.00606400000012 325.999999999815 300.5000000006707
    vertex 172.57349819959586 348.6500470103982 301.24922594463254
    vertex 172.57244402372996 348.5941277715783 301.25105183079194
  endloop
endfacet
facet normal 0.8660254037844441 -9.84578318797291e-13 0.4999999999999904
  outer loop
    vertex 173.00606400000012 325.999999999815 300.5000000006707
    vertex 172.57244402372996 348.5941277715783 301.25105183079194
    vertex 172.144545806924 343.79545566854796 301.9921932827586
  endloop
endfacet
facet normal 0.8660254037844441 -9.84578318797291e-13 0.4999999999999904
  outer loop
    vertex 173.00606400000012 325.999999999815 300.5000000006707
    vertex 172.144545806924 343.79545566854796 301.9921932827586
    vertex 172.13824649437151 343.683885270396 302.0031040121517
  endloop
endfacet
facet normal 0.8660254037844441 -9.84578318797291e-13 0.4999999999999904
  outer loop
    vertex 173.00606400000012 325.999999999815 300.5000000006707
    vertex 172.13824649437151 343.683885270396 302.0031040121517
    vertex 171.4357890132671 338.9682255191168 303.2197960595721
  endloop
endfacet
facet normal 0.8660254037844441 -9.84578318797291e-13 0.4999999999999904
  outer loop
    vertex 173.00606400000012 325.999999999815 300.5000000006707
    vertex 171.4357890132671 338.9682255191168 303.2197960595721
    vertex 171.41665789546494 338.76437942030486 303.25293212761113
  endloop
endfacet
facet normal 0.8660254037844441 -9.84578318797291e-13 0.4999999999999904
  outer loop
    vertex 173.00606400000012 325.999999999815 300.5000000006707
    vertex 171.41665789546494 338.76437942030486 303.25293212761113
    vertex 170.4541198576713 334.1619708973429 304.9200969132783
  endloop
endfacet
facet normal 0.8660254037844441 -9.84578318797291e-13 0.4999999999999904
  outer loop
    vertex 173.00606400000012 325.999999999815 300.5000000006707
    vertex 170.4541198576713 334.1619708973429 304.9200969132783
    vertex 170.41061733173274 333.8296680417387 304.9954454984611
  endloop
endfacet
facet normal 0.8660254037844441 -9.84578318797291e-13 0.4999999999999904
  outer loop
    vertex 173.00606400000012 325.999999999815 300.5000000006707
    vertex 170.41061733173274 333.8296680417387 304.9954454984611
    vertex 169.20709459786127 329.36881457405343 307.08000802158176
  endloop
endfacet
facet normal 0.8660254037844441 -9.84578318797291e-13 0.4999999999999904
  outer loop
    vertex 173.00606400000012 325.999999999815 300.5000000006707
    vertex 169.20709459786127 329.36881457405343 307.08000802158176
    vertex 169.12389917331956 328.87222507404704 307.22410672384444
  endloop
endfacet
facet normal 0.8660254037844441 -9.84578318797291e-13 0.4999999999999904
  outer loop
    vertex 173.00606400000012 325.999999999815 300.5000000006707
    vertex 169.12389917331956 328.87222507404704 307.22410672384444
    vertex 167.7025955824452 324.57892437993365 309.6858767562098
  endloop
endfacet
facet normal 0.8660254037844441 -9.84578318797291e-13 0.4999999999999904
  outer loop
    vertex 173.00606400000012 325.999999999815 300.5000000006707
    vertex 167.7025955824452 324.57892437993365 309.6858767562098
    vertex 167.56077946016651 323.8823893454167 309.93150948532764
  endloop
endfacet
facet normal -0.9761870601839518 0.2169304578186604 4.061195423308802e-13
  outer loop
    vertex 108.00606400000046 398.49999999981617 300.0000000008135
    vertex 107.87476520489464 397.90915542182364 308.6185162830103
    vertex 108.00606400000011 398.4999999997985 308.9953142428398
  endloop
endfacet
facet normal -0.9761870601839518 0.2169304578186604 4.061195423308802e-13
  outer loop
    vertex 107.87476520489464 397.90915542182364 308.6185162830103
    vertex 108.00606400000046 398.49999999981617 300.0000000008135
    vertex 106.06116523446528 389.7479555548972 305.9200207383687
  endloop
endfacet
facet normal -0.9761870601839518 0.2169304578186604 4.061195423308802e-13
  outer loop
    vertex 106.06116523446528 389.7479555548972 305.9200207383687
    vertex 108.00606400000046 398.49999999981617 300.0000000008135
    vertex 104.16156667178679 381.1997620228485 303.7904808805075
  endloop
endfacet
facet normal -0.9761870601839518 0.2169304578186604 4.061195423308802e-13
  outer loop
    vertex 104.16156667178679 381.1997620228485 303.7904808805075
    vertex 108.00606400000046 398.49999999981617 300.0000000008135
    vertex 102.1817498216527 372.2905861972482 302.24961311460413
  endloop
endfacet
facet normal -0.9761870601839518 0.2169304578186604 4.061195423308802e-13
  outer loop
    vertex 102.1817498216527 372.2905861972482 302.24961311460413
    vertex 108.00606400000046 398.49999999981617 300.0000000008135
    vertex 98.00606400000021 353.499999999816 300.0000000007249
  endloop
endfacet
facet normal -0.9761870601839518 0.2169304578186604 4.061195423308802e-13
  outer loop
    vertex 108.00606400000011 398.4999999997985 308.9953142428398
    vertex 107.87476520489464 397.90915542182364 308.6185162830103
    vertex 107.98863261101967 398.42155874938635 308.9638864014193
  endloop
endfacet
facet normal -0.9761870601839518 0.2169304578186604 4.061195423308802e-13
  outer loop
    vertex 107.87476520489464 397.90915542182364 308.6185162830103
    vertex 106.06116523446528 389.7479555548972 305.9200207383687
    vertex 106.1610919729817 390.19762587822 306.1553603079151
  endloop
endfacet
facet normal -0.9761870601839518 0.2169304578186604 4.061195423308802e-13
  outer loop
    vertex 106.06116523446528 389.7479555548972 305.9200207383687
    vertex 104.16156667178679 381.1997620228485 303.7904808805075
    vertex 104.24258849281962 381.56436021749624 303.93268509322445
  endloop
endfacet
facet normal -0.9761870601839518 0.2169304578186604 4.061195423308802e-13
  outer loop
    vertex 104.16156667178679 381.1997620228485 303.7904808805075
    vertex 102.1817498216527 372.2905861972482 302.24961311460413
    vertex 102.23936673753691 372.54986231872743 302.31941099134394
  endloop
endfacet
facet normal -0.9761870601839518 0.2169304578186604 4.061195423308802e-13
  outer loop
    vertex 102.1817498216527 372.2905861972482 302.24961311460413
    vertex 98.00606400000021 353.499999999816 300.0000000007249
    vertex 100.1278058411309 363.0478382849026 301.31455927403294
  endloop
endfacet
facet normal -0.9761870601839518 0.2169304578186604 4.061195423308802e-13
  outer loop
    vertex 102.1817498216527 372.2905861972482 302.24961311460413
    vertex 100.1278058411309 363.0478382849026 301.31455927403294
    vertex 100.1581514530229 363.18439353841546 301.33603559347125
  endloop
endfacet
facet normal -0.9761870601839518 0.2169304578186604 4.061195423308802e-13
  outer loop
    vertex 100.1278058411309 363.0478382849026 301.31455927403294
    vertex 98.00606400000021 353.499999999816 300.0000000007249
    vertex 98.59309429757145 356.141636338884 301.08703029830116
  endloop
endfacet
facet normal -0.9761870601839518 0.2169304578186604 4.061195423308802e-13
  outer loop
    vertex 98.59309429757145 356.141636338884 301.08703029830116
    vertex 98.00606400000021 353.499999999816 300.0000000007249
    vertex 98.00606400000021 353.4999999998151 300.5000000007249
  endloop
endfacet
facet normal -0.7071067811865444 -1.3941444100015703e-12 0.7071067811865507
  outer loop
    vertex 98.00606400000021 308.49999999981503 300.5000000006362
    vertex 98.82176819048424 343.8684759845535 301.31570419119004
    vertex 98.00606400000021 353.4999999998151 300.5000000007249
  endloop
endfacet
facet normal -0.7071067811865444 -1.3941444100015703e-12 0.7071067811865507
  outer loop
    vertex 98.82176819048424 343.8684759845535 301.31570419119004
    vertex 98.00606400000021 308.49999999981503 300.5000000006362
    vertex 99.76419596569139 334.3992743709478 302.2581319663784
  endloop
endfacet
facet normal -0.7071067811865444 -1.3941444100015703e-12 0.7071067811865507
  outer loop
    vertex 99.76419596569139 334.3992743709478 302.2581319663784
    vertex 98.00606400000021 308.49999999981503 300.5000000006362
    vertex 101.31926252122477 325.25235331312473 303.81319852189404
  endloop
endfacet
facet normal -0.7071067811865444 -1.3941444100015703e-12 0.7071067811865507
  outer loop
    vertex 101.31926252122477 325.25235331312473 303.81319852189404
    vertex 98.00606400000021 308.49999999981503 300.5000000006362
    vertex 103.46340938692705 316.58281390375254 305.9573453875788
  endloop
endfacet
facet normal -0.7071067811865444 -1.3941444100015703e-12 0.7071067811865507
  outer loop
    vertex 103.46340938692705 316.58281390375254 305.9573453875788
    vertex 98.00606400000021 308.49999999981503 300.5000000006362
    vertex 106.1635384006067 308.53817670579343 308.6574744012428
  endloop
endfacet
facet normal -0.7071067811865444 -1.3941444100015703e-12 0.7071067811865507
  outer loop
    vertex 106.1635384006067 308.53817670579343 308.6574744012428
    vertex 98.00606400000021 308.49999999981503 300.5000000006362
    vertex 106.19310443860704 308.49999999979883 308.68704043924305
  endloop
endfacet
facet normal -0.7071067811865444 -1.3941444100015703e-12 0.7071067811865507
  outer loop
    vertex 98.00606400000021 353.4999999998151 300.5000000007249
    vertex 98.82176819048424 343.8684759845535 301.31570419119004
    vertex 98.5060640000001 353.4999999998141 301.00000000072487
  endloop
endfacet
facet normal -0.7071067811865444 -1.3941444100015703e-12 0.7071067811865507
  outer loop
    vertex 98.5060640000001 353.4999999998141 301.00000000072487
    vertex 98.82176819048424 343.8684759845535 301.31570419119004
    vertex 98.50774074887327 353.46737035828176 301.0016767495981
  endloop
endfacet
facet normal -0.7071067811865444 -1.3941444100015703e-12 0.7071067811865507
  outer loop
    vertex 98.82176819048424 343.8684759845535 301.31570419119004
    vertex 99.76419596569139 334.3992743709478 302.2581319663784
    vertex 98.82999340062624 343.8159782458769 301.3239294013319
  endloop
endfacet
facet normal -0.7071067811865444 -1.3941444100015703e-12 0.7071067811865507
  outer loop
    vertex 99.76419596569139 334.3992743709478 302.2581319663784
    vertex 101.31926252122477 325.25235331312473 303.81319852189404
    vertex 99.79365129810522 334.29044796256596 302.2875872987922
  endloop
endfacet
facet normal -0.7071067811865444 -1.3941444100015703e-12 0.7071067811865507
  outer loop
    vertex 101.31926252122477 325.25235331312473 303.81319852189404
    vertex 103.46340938692705 316.58281390375254 305.9573453875788
    vertex 101.39630246096746 325.06051427376 303.8902384616361
  endloop
endfacet
facet normal -0.7071067811865444 -1.3941444100015703e-12 0.7071067811865507
  outer loop
    vertex 103.46340938692705 316.58281390375254 305.9573453875788
    vertex 106.1635384006067 308.53817670579343 308.6574744012428
    vertex 103.62421790690736 316.29671990764024 306.1181539075586
  endloop
endfacet
facet normal -0.7071067811865444 -1.3941444100015703e-12 0.7071067811865507
  outer loop
    vertex 98.5060640000001 353.4999999998141 301.00000000072487
    vertex 98.59309429757145 356.141636338884 301.08703029830116
    vertex 98.00606400000021 353.4999999998151 300.5000000007249
  endloop
endfacet
facet normal -0.7071067811865444 -1.3941444100015703e-12 0.7071067811865507
  outer loop
    vertex 98.59309429757145 356.141636338884 301.08703029830116
    vertex 98.5060640000001 353.4999999998141 301.00000000072487
    vertex 98.50774074887327 353.53262964134643 301.0016767495983
  endloop
endfacet
facet normal -0.008963808571514855 0.15341192518570065 0.9881216682912639
  outer loop
    vertex 98.82999340062624 343.8159782458769 301.3239294013319
    vertex 172.57244402372996 348.5941277715783 301.25105183079194
    vertex 98.82176819048424 343.8684759845535 301.31570419119004
  endloop
endfacet
facet normal -0.008963808571514855 0.15341192518570065 0.9881216682912639
  outer loop
    vertex 172.57244402372996 348.5941277715783 301.25105183079194
    vertex 98.82999340062624 343.8159782458769 301.3239294013319
    vertex 172.144545806924 343.79545566854796 301.9921932827586
  endloop
endfacet
facet normal 2.4765012518368453e-15 1.0 1.9659251363250036e-12
  outer loop
    vertex 128.00606400000024 398.49999999981617 300.0000000008135
    vertex 108.00606400000011 398.4999999997985 308.9953142428398
    vertex 128.00606400000024 398.499999999794 311.2500000008135
  endloop
endfacet
facet normal 2.4765012518368453e-15 1.0 1.9659251363250036e-12
  outer loop
    vertex 108.00606400000011 398.4999999997985 308.9953142428398
    vertex 128.00606400000024 398.49999999981617 300.0000000008135
    vertex 108.00606400000046 398.49999999981617 300.0000000008135
  endloop
endfacet
facet normal 0.0 -1.0 -1.9698374875698473e-12
  outer loop
    vertex 107.69588908042907 308.4999999997984 308.96034689398056
    vertex 128.00606400000024 308.49999999981605 300.00000000063625
    vertex 128.00606400000024 308.4999999997939 311.25000000063625
  endloop
endfacet
facet normal 0.0 -1.0 -1.9698374875698473e-12
  outer loop
    vertex 128.00606400000024 308.49999999981605 300.00000000063625
    vertex 107.69588908042907 308.4999999997984 308.96034689398056
    vertex 106.19310443860704 308.49999999979883 308.68704043924305
  endloop
endfacet
facet normal 0.0 -1.0 -1.9698374875698473e-12
  outer loop
    vertex 128.00606400000024 308.49999999981605 300.00000000063625
    vertex 106.19310443860704 308.49999999979883 308.68704043924305
    vertex 98.00606400000021 308.49999999981503 300.5000000006362
  endloop
endfacet
facet normal 0.0 -1.0 -1.9698374875698473e-12
  outer loop
    vertex 128.00606400000024 308.49999999981605 300.00000000063625
    vertex 98.00606400000021 308.49999999981503 300.5000000006362
    vertex 98.00606400000021 308.49999999981605 300.00000000063625
  endloop
endfacet
endsolid ProtoGlove baseplate
