solid ProtoGlove baseplate
facet normal -0.05821006762788592 0.2739886931204461 0.9599696787237122
  outer loop
    vertex 386.33465733765246 -420.6276697283773 304.36674316308233
    vertex 386.9800457161894 -424.4999999995969 305.51109473569
    vertex 429.6780420252723 -411.8411809264052 304.48718735260275
  endloop
endfacet
facet normal -0.05821006762788592 0.2739886931204461 0.9599696787237122
  outer loop
    vertex 392.66982735813235 -424.4999999995962 305.85610831424964
    vertex 429.6780420252723 -411.8411809264052 304.48718735260275
    vertex 386.9800457161894 -424.4999999995969 305.51109473569
  endloop
endfacet
facet normal -0.05821006762788592 0.2739886931204461 0.9599696787237122
  outer loop
    vertex 429.6272662997991 -412.16010387770666 304.57513348891393
    vertex 429.6780420252723 -411.8411809264052 304.48718735260275
    vertex 392.66982735813235 -424.4999999995962 305.85610831424964
  endloop
endfacet
facet normal 0.0 -1.0 1.9698374875698473e-12
  outer loop
    vertex 406.9800457161892 -424.4999999995935 307.25000000074846
    vertex 395.13205888817816 -424.49999999959573 306.1670133685052
    vertex 406.9800457161892 -424.49999999960784 300.00000000074846
  endloop
endfacet
facet normal 0.0 -1.0 1.9698374875698473e-12
  outer loop
    vertex 392.66982735813235 -424.4999999995962 305.85610831424964
    vertex 406.9800457161892 -424.49999999960784 300.00000000074846
    vertex 395.13205888817816 -424.49999999959573 306.1670133685052
  endloop
endfacet
facet normal 0.0 -1.0 1.9698374875698473e-12
  outer loop
    vertex 386.9800457161894 -424.4999999995969 305.51109473569
    vertex 406.9800457161892 -424.49999999960784 300.00000000074846
    vertex 392.66982735813235 -424.4999999995962 305.85610831424964
  endloop
endfacet
facet normal 0.0 -1.0 1.9698374875698473e-12
  outer loop
    vertex 386.9800457161894 -424.49999999960784 300.00000000074846
    vertex 406.9800457161892 -424.49999999960784 300.00000000074846
    vertex 386.9800457161894 -424.4999999995969 305.51109473569
  endloop
endfacet
facet normal -0.05821006762788511 -0.2739886931166641 0.9599696787247916
  outer loop
    vertex 385.84542939394953 -368.2731549092306 304.365383678398
    vertex 429.6780420252719 -377.1588190727929 304.48718735253436
    vertex 386.99185663453846 -364.49999999959704 305.51181091897956
  endloop
endfacet
facet normal -0.05821006762788511 -0.2739886931166641 0.9599696787247916
  outer loop
    vertex 392.66982735813195 -364.49999999959635 305.8561083141314
    vertex 386.99185663453846 -364.49999999959704 305.51181091897956
    vertex 429.6780420252719 -377.1588190727929 304.48718735253436
  endloop
endfacet
facet normal -0.05821006762788511 -0.2739886931166641 0.9599696787247916
  outer loop
    vertex 429.6272662997991 -376.839896121491 304.57513348884424
    vertex 392.66982735813195 -364.49999999959635 305.8561083141314
    vertex 429.6780420252719 -377.1588190727929 304.48718735253436
  endloop
endfacet
facet normal 0.8660254037844314 9.846808954911131e-13 0.5000000000000125
  outer loop
    vertex 428.7102277206498 -415.80792719781147 306.16349090050824
    vertex 431.9800457161893 -414.49999999960687 300.5000000007287
    vertex 428.796287857039 -415.36402491200454 306.0144303717751
  endloop
endfacet
facet normal 0.8660254037844314 9.846808954911131e-13 0.5000000000000125
  outer loop
    vertex 429.6272662997991 -412.16010387770666 304.57513348891393
    vertex 428.796287857039 -415.36402491200454 306.0144303717751
    vertex 431.9800457161893 -414.49999999960687 300.5000000007287
  endloop
endfacet
facet normal 0.8660254037844314 9.846808954911131e-13 0.5000000000000125
  outer loop
    vertex 430.37344363280135 -408.56631352781045 303.2827164366909
    vertex 429.6272662997991 -412.16010387770666 304.57513348891393
    vertex 431.9800457161893 -414.49999999960687 300.5000000007287
  endloop
endfacet
facet normal 0.8660254037844314 9.846808954911131e-13 0.5000000000000125
  outer loop
    vertex 430.9513542666776 -405.0143409774057 302.2817458565758
    vertex 430.37344363280135 -408.56631352781045 303.2827164366909
    vertex 431.9800457161893 -414.49999999960687 300.5000000007287
  endloop
endfacet
facet normal 0.8660254037844314 9.846808954911131e-13 0.5000000000000125
  outer loop
    vertex 431.3628836632498 -401.4929306305304 301.56895603289723
    vertex 430.9513542666776 -405.0143409774057 302.2817458565758
    vertex 431.9800457161893 -414.49999999960687 300.5000000007287
  endloop
endfacet
facet normal 0.8660254037844314 9.846808954911131e-13 0.5000000000000125
  outer loop
    vertex 431.6093093374099 -397.9915206826421 301.1421342449558
    vertex 431.3628836632498 -401.4929306305304 301.56895603289723
    vertex 431.9800457161893 -414.49999999960687 300.5000000007287
  endloop
endfacet
facet normal 0.8660254037844314 9.846808954911131e-13 0.5000000000000125
  outer loop
    vertex 431.69137058159436 -394.4999999996059 301.0000000006894
    vertex 431.6093093374099 -397.9915206826421 301.1421342449558
    vertex 431.9800457161893 -414.49999999960687 300.5000000007287
  endloop
endfacet
facet normal 0.8660254037844314 9.846808954911131e-13 0.5000000000000125
  outer loop
    vertex 431.9800457161893 -374.49999999960687 300.50000000064995
    vertex 431.69137058159436 -394.4999999996059 301.0000000006894
    vertex 431.9800457161893 -414.49999999960687 300.5000000007287
  endloop
endfacet
facet normal 0.8660254037844314 9.846808954911131e-13 0.5000000000000125
  outer loop
    vertex 429.6780420252723 -411.8411809264052 304.48718735260275
    vertex 429.6272662997991 -412.16010387770666 304.57513348891393
    vertex 430.37344363280135 -408.56631352781045 303.2827164366909
  endloop
endfacet
facet normal 0.8660254037844314 9.846808954911131e-13 0.5000000000000125
  outer loop
    vertex 430.40048154979195 -408.3486234577775 303.2358853907321
    vertex 430.37344363280135 -408.56631352781045 303.2827164366909
    vertex 430.9513542666776 -405.0143409774057 302.2817458565758
  endloop
endfacet
facet normal 0.8660254037844314 9.846808954911131e-13 0.5000000000000125
  outer loop
    vertex 430.96375731715176 -404.8748637229137 302.2602631429854
    vertex 430.9513542666776 -405.0143409774057 302.2817458565758
    vertex 431.3628836632498 -401.4929306305304 301.56895603289723
  endloop
endfacet
facet normal 0.8660254037844314 9.846808954911131e-13 0.5000000000000125
  outer loop
    vertex 431.36736348394936 -401.409110060873 301.56119675583676
    vertex 431.3628836632498 -401.4929306305304 301.56895603289723
    vertex 431.6093093374099 -397.9915206826421 301.1421342449558
  endloop
endfacet
facet normal 0.8660254037844314 9.846808954911131e-13 0.5000000000000125
  outer loop
    vertex 431.6102097146241 -397.94103323954386 301.1405747458749
    vertex 431.6093093374099 -397.9915206826421 301.1421342449558
    vertex 431.69137058159436 -394.4999999996059 301.0000000006894
  endloop
endfacet
facet normal 0.8660254037844314 9.846808954911131e-13 0.5000000000000125
  outer loop
    vertex 431.6102097146241 -391.05896675966727 301.14057474586133
    vertex 431.69137058159436 -394.4999999996059 301.0000000006894
    vertex 431.9800457161893 -374.49999999960687 300.50000000064995
  endloop
endfacet
facet normal 0.8660254037844314 9.846808954911131e-13 0.5000000000000125
  outer loop
    vertex 431.6093093374099 -391.0084793165694 301.1421342449421
    vertex 431.6102097146241 -391.05896675966727 301.14057474586133
    vertex 431.9800457161893 -374.49999999960687 300.50000000064995
  endloop
endfacet
facet normal 0.8660254037844314 9.846808954911131e-13 0.5000000000000125
  outer loop
    vertex 431.36736348394976 -387.59088993833643 301.56119675580953
    vertex 431.6093093374099 -391.0084793165694 301.1421342449421
    vertex 431.9800457161893 -374.49999999960687 300.50000000064995
  endloop
endfacet
facet normal 0.8660254037844314 9.846808954911131e-13 0.5000000000000125
  outer loop
    vertex 431.36288366325016 -387.50706936867914 301.56895603286966
    vertex 431.36736348394976 -387.59088993833643 301.56119675580953
    vertex 431.9800457161893 -374.49999999960687 300.50000000064995
  endloop
endfacet
facet normal 0.8660254037844314 9.846808954911131e-13 0.5000000000000125
  outer loop
    vertex 430.96375731715216 -384.12513627629306 302.2602631429445
    vertex 431.36288366325016 -387.50706936867914 301.56895603286966
    vertex 431.9800457161893 -374.49999999960687 300.50000000064995
  endloop
endfacet
facet normal 0.8660254037844314 9.846808954911131e-13 0.5000000000000125
  outer loop
    vertex 430.9513542666776 -383.9856590218009 302.2817458565343
    vertex 430.96375731715216 -384.12513627629306 302.2602631429445
    vertex 431.9800457161893 -374.49999999960687 300.50000000064995
  endloop
endfacet
facet normal 0.8660254037844314 9.846808954911131e-13 0.5000000000000125
  outer loop
    vertex 430.40048154979195 -380.6513765414259 303.23588539067737
    vertex 430.9513542666776 -383.9856590218009 302.2817458565343
    vertex 431.9800457161893 -374.49999999960687 300.50000000064995
  endloop
endfacet
facet normal 0.8660254037844314 9.846808954911131e-13 0.5000000000000125
  outer loop
    vertex 430.37344363280135 -380.4336864713925 303.2827164366355
    vertex 430.40048154979195 -380.6513765414259 303.23588539067737
    vertex 431.9800457161893 -374.49999999960687 300.50000000064995
  endloop
endfacet
facet normal 0.8660254037844314 9.846808954911131e-13 0.5000000000000125
  outer loop
    vertex 429.6780420252719 -377.1588190727929 304.48718735253436
    vertex 430.37344363280135 -380.4336864713925 303.2827164366355
    vertex 431.9800457161893 -374.49999999960687 300.50000000064995
  endloop
endfacet
facet normal 0.8660254037844314 9.846808954911131e-13 0.5000000000000125
  outer loop
    vertex 429.6272662997991 -376.839896121491 304.57513348884424
    vertex 429.6780420252719 -377.1588190727929 304.48718735253436
    vertex 431.9800457161893 -374.49999999960687 300.50000000064995
  endloop
endfacet
facet normal 0.8660254037844314 9.846808954911131e-13 0.5000000000000125
  outer loop
    vertex 428.796287857039 -373.63597508718755 306.0144303716929
    vertex 429.6272662997991 -376.839896121491 304.57513348884424
    vertex 431.9800457161893 -374.49999999960687 300.50000000064995
  endloop
endfacet
facet normal 0.8660254037844314 9.846808954911131e-13 0.5000000000000125
  outer loop
    vertex 428.7102277206498 -373.1920728013801 306.16349090042434
    vertex 428.796287857039 -373.63597508718755 306.0144303716929
    vertex 431.9800457161893 -374.49999999960687 300.50000000064995
  endloop
endfacet
facet normal -0.7071067811865522 1.3963236390302998e-12 0.7071067811865429
  outer loop
    vertex 382.5943694533781 -398.18594242273986 301.1143237378857
    vertex 382.4814659618133 -394.5347652228766 301.0014202463138
    vertex 381.9800457161891 -394.49999999960687 300.50000000068934
  endloop
endfacet
facet normal -0.7071067811865522 1.3963236390302998e-12 0.7071067811865429
  outer loop
    vertex 382.480045716189 -394.4999999996058 301.0000000006894
    vertex 381.9800457161891 -394.49999999960687 300.50000000068934
    vertex 382.4814659618133 -394.5347652228766 301.0014202463138
  endloop
endfacet
facet normal -0.7071067811865522 1.3963236390302998e-12 0.7071067811865429
  outer loop
    vertex 381.9800457161891 -364.4999999996068 300.5000000006302
    vertex 381.9800457161891 -394.49999999960687 300.50000000068934
    vertex 382.480045716189 -394.4999999996058 301.0000000006894
  endloop
endfacet
facet normal -0.7071067811865522 1.3963236390302998e-12 0.7071067811865429
  outer loop
    vertex 382.4814659618133 -394.465234776335 301.00142024631367
    vertex 381.9800457161891 -364.4999999996068 300.5000000006302
    vertex 382.480045716189 -394.4999999996058 301.0000000006894
  endloop
endfacet
facet normal -0.7071067811865522 1.3963236390302998e-12 0.7071067811865429
  outer loop
    vertex 382.68973416547 -387.7300655968193 301.20968844995673
    vertex 381.9800457161891 -364.4999999996068 300.5000000006302
    vertex 382.4814659618133 -394.465234776335 301.00142024631367
  endloop
endfacet
facet normal -0.7071067811865522 1.3963236390302998e-12 0.7071067811865429
  outer loop
    vertex 382.69579424227027 -387.681177099144 301.2157485267572
    vertex 381.9800457161891 -364.4999999996068 300.5000000006302
    vertex 382.68973416547 -387.7300655968193 301.20968844995673
  endloop
endfacet
facet normal -0.7071067811865522 1.3963236390302998e-12 0.7071067811865429
  outer loop
    vertex 383.31454065105737 -381.0698128203589 301.83449493553104
    vertex 381.9800457161891 -364.4999999996068 300.5000000006302
    vertex 382.69579424227027 -387.681177099144 301.2157485267572
  endloop
endfacet
facet normal -0.7071067811865522 1.3963236390302998e-12 0.7071067811865429
  outer loop
    vertex 383.3334760205243 -380.98038361673287 301.85343030499763
    vertex 381.9800457161891 -364.4999999996068 300.5000000006302
    vertex 383.31454065105737 -381.0698128203589 301.83449493553104
  endloop
endfacet
facet normal -0.7071067811865522 1.3963236390302998e-12 0.7071067811865429
  outer loop
    vertex 384.3418489926147 -374.62576033120126 302.86180327707586
    vertex 381.9800457161891 -364.4999999996068 300.5000000006302
    vertex 383.3334760205243 -380.98038361673287 301.85343030499763
  endloop
endfacet
facet normal -0.7071067811865522 1.3963236390302998e-12 0.7071067811865429
  outer loop
    vertex 384.38838593438675 -374.47476700933464 302.9083402188476
    vertex 381.9800457161891 -364.4999999996068 300.5000000006302
    vertex 384.3418489926147 -374.62576033120126 302.86180327707586
  endloop
endfacet
facet normal -0.7071067811865522 1.3963236390302998e-12 0.7071067811865429
  outer loop
    vertex 385.75115705630657 -368.4982567297617 304.2711113407556
    vertex 381.9800457161891 -364.4999999996068 300.5000000006302
    vertex 384.38838593438675 -374.47476700933464 302.9083402188476
  endloop
endfacet
facet normal -0.7071067811865522 1.3963236390302998e-12 0.7071067811865429
  outer loop
    vertex 385.84542939394953 -368.2731549092306 304.365383678398
    vertex 381.9800457161891 -364.4999999996068 300.5000000006302
    vertex 385.75115705630657 -368.4982567297617 304.2711113407556
  endloop
endfacet
facet normal -0.7071067811865522 1.3963236390302998e-12 0.7071067811865429
  outer loop
    vertex 386.99185663453846 -364.49999999959704 305.51181091897956
    vertex 381.9800457161891 -364.4999999996068 300.5000000006302
    vertex 385.84542939394953 -368.2731549092306 304.365383678398
  endloop
endfacet
facet normal 0.0 1.0 -1.9698374875698473e-12
  outer loop
    vertex 406.9800457161892 -364.49999999959357 307.2500000006302
    vertex 406.9800457161892 -364.49999999960784 300.0000000006302
    vertex 395.13205888817856 -364.4999999995957 306.167013368387
  endloop
endfacet
facet normal 0.0 1.0 -1.9698374875698473e-12
  outer loop
    vertex 392.66982735813195 -364.49999999959635 305.8561083141314
    vertex 395.13205888817856 -364.4999999995957 306.167013368387
    vertex 406.9800457161892 -364.49999999960784 300.0000000006302
  endloop
endfacet
facet normal 0.0 1.0 -1.9698374875698473e-12
  outer loop
    vertex 386.99185663453846 -364.49999999959704 305.51181091897956
    vertex 392.66982735813195 -364.49999999959635 305.8561083141314
    vertex 406.9800457161892 -364.49999999960784 300.0000000006302
  endloop
endfacet
facet normal 0.0 1.0 -1.9698374875698473e-12
  outer loop
    vertex 381.9800457161891 -364.4999999996068 300.5000000006302
    vertex 386.99185663453846 -364.49999999959704 305.51181091897956
    vertex 406.9800457161892 -364.49999999960784 300.0000000006302
  endloop
endfacet
facet normal 0.0 1.0 -1.9698374875698473e-12
  outer loop
    vertex 381.9800457161891 -364.49999999960784 300.0000000006302
    vertex 381.9800457161891 -364.4999999996068 300.5000000006302
    vertex 406.9800457161892 -364.49999999960784 300.0000000006302
  endloop
endfacet
facet normal -0.0006896309723663233 0.03088640475984856 0.9995226632798941
  outer loop
    vertex 382.4814659618133 -394.5347652228766 301.0014202463138
    vertex 382.5943694533781 -398.18594242273986 301.1143237378857
    vertex 431.6102097146241 -397.94103323954386 301.1405747458749
  endloop
endfacet
facet normal -0.0006896309723663233 0.03088640475984856 0.9995226632798941
  outer loop
    vertex 383.1037438767228 -401.2421889628062 301.20911673412485
    vertex 431.6102097146241 -397.94103323954386 301.1405747458749
    vertex 382.5943694533781 -398.18594242273986 301.1143237378857
  endloop
endfacet
facet normal -0.0006896309723663233 0.03088640475984856 0.9995226632798941
  outer loop
    vertex 431.6093093374099 -397.9915206826421 301.1421342449558
    vertex 431.6102097146241 -397.94103323954386 301.1405747458749
    vertex 383.1037438767228 -401.2421889628062 301.20911673412485
  endloop
endfacet
facet normal 1.0 0.0 0.0
  outer loop
    vertex 431.9800457161893 -414.49999999960784 300.00000000072873
    vertex 431.9800457161893 -374.49999999960784 300.0000000006499
    vertex 431.9800457161893 -414.49999999960687 300.5000000007287
  endloop
endfacet
facet normal 1.0 0.0 0.0
  outer loop
    vertex 431.9800457161893 -374.49999999960687 300.50000000064995
    vertex 431.9800457161893 -414.49999999960687 300.5000000007287
    vertex 431.9800457161893 -374.49999999960784 300.0000000006499
  endloop
endfacet
facet normal -0.9863939238321423 -0.16439898730536587 3.2876367266011123e-13
  outer loop
    vertex 386.9800457161894 -424.4999999995969 305.51109473569
    vertex 386.28966326810075 -420.3577053110671 304.2591832924223
    vertex 386.9800457161894 -424.49999999960784 300.00000000074846
  endloop
endfacet
facet normal -0.9863939238321423 -0.16439898730536587 3.2876367266011123e-13
  outer loop
    vertex 385.2616345038687 -414.1895327256788 302.850356504484
    vertex 386.9800457161894 -424.49999999960784 300.00000000074846
    vertex 386.28966326810075 -420.3577053110671 304.2591832924223
  endloop
endfacet
facet normal -0.9863939238321423 -0.16439898730536587 3.2876367266011123e-13
  outer loop
    vertex 384.19866847059626 -407.81173652604696 301.8296088080649
    vertex 386.9800457161894 -424.49999999960784 300.00000000074846
    vertex 385.2616345038687 -414.1895327256788 302.850356504484
  endloop
endfacet
facet normal -0.9863939238321423 -0.16439898730536587 3.2876367266011123e-13
  outer loop
    vertex 381.9800457161891 -394.4999999996078 300.0000000006894
    vertex 386.9800457161894 -424.49999999960784 300.00000000074846
    vertex 384.19866847059626 -407.81173652604696 301.8296088080649
  endloop
endfacet
facet normal -0.9863939238321423 -0.16439898730536587 3.2876367266011123e-13
  outer loop
    vertex 386.33465733765246 -420.6276697283773 304.36674316308233
    vertex 386.28966326810075 -420.3577053110671 304.2591832924223
    vertex 386.9800457161894 -424.4999999995969 305.51109473569
  endloop
endfacet
facet normal -0.9863939238321423 -0.16439898730536587 3.2876367266011123e-13
  outer loop
    vertex 385.29725039866435 -414.4032280944537 302.91481013000356
    vertex 385.2616345038687 -414.1895327256788 302.850356504484
    vertex 386.28966326810075 -420.3577053110671 304.2591832924223
  endloop
endfacet
facet normal -0.9863939238321423 -0.16439898730536587 3.2876367266011123e-13
  outer loop
    vertex 384.2235210239601 -407.960851846229 301.86103260184154
    vertex 384.19866847059626 -407.81173652604696 301.8296088080649
    vertex 385.2616345038687 -414.1895327256788 302.850356504484
  endloop
endfacet
facet normal -0.9863939238321423 -0.16439898730536587 3.2876367266011123e-13
  outer loop
    vertex 383.1166463150495 -401.3196035927661 301.21873553964394
    vertex 381.9800457161891 -394.4999999996078 300.0000000006894
    vertex 384.19866847059626 -407.81173652604696 301.8296088080649
  endloop
endfacet
facet normal -0.9863939238321423 -0.16439898730536587 3.2876367266011123e-13
  outer loop
    vertex 383.1037438767228 -401.2421889628062 301.20911673412485
    vertex 381.9800457161891 -394.4999999996078 300.0000000006894
    vertex 383.1166463150495 -401.3196035927661 301.21873553964394
  endloop
endfacet
facet normal -0.9863939238321423 -0.16439898730536587 3.2876367266011123e-13
  outer loop
    vertex 382.5943694533781 -398.18594242273986 301.1143237378857
    vertex 381.9800457161891 -394.4999999996078 300.0000000006894
    vertex 383.1037438767228 -401.2421889628062 301.20911673412485
  endloop
endfacet
facet normal -0.9863939238321423 -0.16439898730536587 3.2876367266011123e-13
  outer loop
    vertex 381.9800457161891 -394.49999999960687 300.50000000068934
    vertex 381.9800457161891 -394.4999999996078 300.0000000006894
    vertex 382.5943694533781 -398.18594242273986 301.1143237378857
  endloop
endfacet
facet normal -4.071316061727596e-18 -1.9698426547660615e-12 -1.0
  outer loop
    vertex 381.9800457161891 -394.4999999996078 300.0000000006894
    vertex 381.9800457161891 -364.49999999960784 300.0000000006302
    vertex 386.9800457161894 -424.49999999960784 300.00000000074846
  endloop
endfacet
facet normal -4.071316061727596e-18 -1.9698426547660615e-12 -1.0
  outer loop
    vertex 406.9800457161892 -364.49999999960784 300.0000000006302
    vertex 386.9800457161894 -424.49999999960784 300.00000000074846
    vertex 381.9800457161891 -364.49999999960784 300.0000000006302
  endloop
endfacet
facet normal -4.071316061727596e-18 -1.9698426547660615e-12 -1.0
  outer loop
    vertex 406.9800457161892 -424.49999999960784 300.00000000074846
    vertex 386.9800457161894 -424.49999999960784 300.00000000074846
    vertex 406.9800457161892 -364.49999999960784 300.0000000006302
  endloop
endfacet
facet normal -4.071316061727596e-18 -1.9698426547660615e-12 -1.0
  outer loop
    vertex 431.9800457161893 -414.49999999960784 300.00000000072873
    vertex 406.9800457161892 -424.49999999960784 300.00000000074846
    vertex 406.9800457161892 -364.49999999960784 300.0000000006302
  endloop
endfacet
facet normal -4.071316061727596e-18 -1.9698426547660615e-12 -1.0
  outer loop
    vertex 431.9800457161893 -374.49999999960784 300.0000000006499
    vertex 431.9800457161893 -414.49999999960784 300.00000000072873
    vertex 406.9800457161892 -364.49999999960784 300.0000000006302
  endloop
endfacet
facet normal 0.37139067635410344 -0.9284766908852596 1.832735846334703e-12
  outer loop
    vertex 406.9800457161892 -424.4999999995935 307.25000000074846
    vertex 406.9800457161892 -424.49999999960784 300.00000000074846
    vertex 428.7102277206498 -415.80792719781147 306.16349090050824
  endloop
endfacet
facet normal 0.37139067635410344 -0.9284766908852596 1.832735846334703e-12
  outer loop
    vertex 431.9800457161893 -414.49999999960687 300.5000000007287
    vertex 428.7102277206498 -415.80792719781147 306.16349090050824
    vertex 406.9800457161892 -424.49999999960784 300.00000000074846
  endloop
endfacet
facet normal 0.37139067635410344 -0.9284766908852596 1.832735846334703e-12
  outer loop
    vertex 431.9800457161893 -414.49999999960784 300.00000000072873
    vertex 431.9800457161893 -414.49999999960687 300.5000000007287
    vertex 406.9800457161892 -424.49999999960784 300.00000000074846
  endloop
endfacet
facet normal -0.04463175907440009 0.2816522439241706 0.9584779703125181
  outer loop
    vertex 385.2616345038687 -414.1895327256788 302.850356504484
    vertex 385.29725039866435 -414.4032280944537 302.91481013000356
    vertex 430.9513542666776 -405.0143409774057 302.2817458565758
  endloop
endfacet
facet normal -0.04463175907440009 0.2816522439241706 0.9584779703125181
  outer loop
    vertex 430.40048154979195 -408.3486234577775 303.2358853907321
    vertex 430.9513542666776 -405.0143409774057 302.2817458565758
    vertex 385.29725039866435 -414.4032280944537 302.91481013000356
  endloop
endfacet
facet normal -0.11301820666176722 -0.4313979469658697 0.895054577283749
  outer loop
    vertex 392.66982735813195 -364.49999999959635 305.8561083141314
    vertex 429.6272662997991 -376.839896121491 304.57513348884424
    vertex 395.13205888817856 -364.4999999995957 306.167013368387
  endloop
endfacet
facet normal -0.11301820666176722 -0.4313979469658697 0.895054577283749
  outer loop
    vertex 428.796287857039 -373.63597508718755 306.0144303716929
    vertex 395.13205888817856 -364.4999999995957 306.167013368387
    vertex 429.6272662997991 -376.839896121491 304.57513348884424
  endloop
endfacet
facet normal -0.006895248787494063 0.09253917747055058 0.9956851692062268
  outer loop
    vertex 383.1166463150495 -401.3196035927661 301.21873553964394
    vertex 384.19866847059626 -407.81173652604696 301.8296088080649
    vertex 431.36736348394936 -401.409110060873 301.56119675583676
  endloop
endfacet
facet normal -0.006895248787494063 0.09253917747055058 0.9956851692062268
  outer loop
    vertex 431.3628836632498 -401.4929306305304 301.56895603289723
    vertex 431.36736348394936 -401.409110060873 301.56119675583676
    vertex 384.19866847059626 -407.81173652604696 301.8296088080649
  endloop
endfacet
facet normal -0.035732071566130966 -0.21442099104007298 0.9760875256159082
  outer loop
    vertex 384.38838593438675 -374.47476700933464 302.9083402188476
    vertex 430.40048154979195 -380.6513765414259 303.23588539067737
    vertex 385.75115705630657 -368.4982567297617 304.2711113407556
  endloop
endfacet
facet normal -0.035732071566130966 -0.21442099104007298 0.9760875256159082
  outer loop
    vertex 430.37344363280135 -380.4336864713925 303.2827164366355
    vertex 385.75115705630657 -368.4982567297617 304.2711113407556
    vertex 430.40048154979195 -380.6513765414259 303.23588539067737
  endloop
endfacet
facet normal -0.006817546493040025 0.12218042419035806 0.9924844910649635
  outer loop
    vertex 383.1037438767228 -401.2421889628062 301.20911673412485
    vertex 383.1166463150495 -401.3196035927661 301.21873553964394
    vertex 431.6093093374099 -397.9915206826421 301.1421342449558
  endloop
endfacet
facet normal -0.006817546493040025 0.12218042419035806 0.9924844910649635
  outer loop
    vertex 431.36736348394936 -401.409110060873 301.56119675583676
    vertex 431.6093093374099 -397.9915206826421 301.1421342449558
    vertex 383.1166463150495 -401.3196035927661 301.21873553964394
  endloop
endfacet
facet normal -0.0006896309723662662 -0.030886404755910136 0.999522663280016
  outer loop
    vertex 382.4814659618133 -394.465234776335 301.00142024631367
    vertex 431.6102097146241 -391.05896675966727 301.14057474586133
    vertex 382.68973416547 -387.7300655968193 301.20968844995673
  endloop
endfacet
facet normal -0.0006896309723662662 -0.030886404755910136 0.999522663280016
  outer loop
    vertex 431.6093093374099 -391.0084793165694 301.1421342449421
    vertex 382.68973416547 -387.7300655968193 301.20968844995673
    vertex 431.6102097146241 -391.05896675966727 301.14057474586133
  endloop
endfacet
facet normal -0.018593955437238307 -0.1538166189507698 0.9879244467851536
  outer loop
    vertex 383.3334760205243 -380.98038361673287 301.85343030499763
    vertex 430.96375731715216 -384.12513627629306 302.2602631429445
    vertex 384.3418489926147 -374.62576033120126 302.86180327707586
  endloop
endfacet
facet normal -0.018593955437238307 -0.1538166189507698 0.9879244467851536
  outer loop
    vertex 430.9513542666776 -383.9856590218009 302.2817458565343
    vertex 384.3418489926147 -374.62576033120126 302.86180327707586
    vertex 430.96375731715216 -384.12513627629306 302.2602631429445
  endloop
endfacet
facet normal -0.044631759074400965 -0.28165224392040017 0.958477970313626
  outer loop
    vertex 384.3418489926147 -374.62576033120126 302.86180327707586
    vertex 430.9513542666776 -383.9856590218009 302.2817458565343
    vertex 384.38838593438675 -374.47476700933464 302.9083402188476
  endloop
endfacet
facet normal -0.044631759074400965 -0.28165224392040017 0.958477970313626
  outer loop
    vertex 430.40048154979195 -380.6513765414259 303.23588539067737
    vertex 384.38838593438675 -374.47476700933464 302.9083402188476
    vertex 430.9513542666776 -383.9856590218009 302.2817458565343
  endloop
endfacet
facet normal -0.021744301729973835 -0.20268586028026486 0.9790023633192745
  outer loop
    vertex 383.31454065105737 -381.0698128203589 301.83449493553104
    vertex 431.36288366325016 -387.50706936867914 301.56895603286966
    vertex 383.3334760205243 -380.98038361673287 301.85343030499763
  endloop
endfacet
facet normal -0.021744301729973835 -0.20268586028026486 0.9790023633192745
  outer loop
    vertex 430.96375731715216 -384.12513627629306 302.2602631429445
    vertex 383.3334760205243 -380.98038361673287 301.85343030499763
    vertex 431.36288366325016 -387.50706936867914 301.56895603286966
  endloop
endfacet
facet normal -0.021744301729973377 0.20268586028412175 0.979002363318476
  outer loop
    vertex 384.19866847059626 -407.81173652604696 301.8296088080649
    vertex 384.2235210239601 -407.960851846229 301.86103260184154
    vertex 431.3628836632498 -401.4929306305304 301.56895603289723
  endloop
endfacet
facet normal -0.021744301729973377 0.20268586028412175 0.979002363318476
  outer loop
    vertex 430.96375731715176 -404.8748637229137 302.2602631429854
    vertex 431.3628836632498 -401.4929306305304 301.56895603289723
    vertex 384.2235210239601 -407.960851846229 301.86103260184154
  endloop
endfacet
facet normal -0.07520693913193925 -0.3582361925649608 0.9305969840070217
  outer loop
    vertex 385.75115705630657 -368.4982567297617 304.2711113407556
    vertex 430.37344363280135 -380.4336864713925 303.2827164366355
    vertex 385.84542939394953 -368.2731549092306 304.365383678398
  endloop
endfacet
facet normal -0.07520693913193925 -0.3582361925649608 0.9305969840070217
  outer loop
    vertex 429.6780420252719 -377.1588190727929 304.48718735253436
    vertex 385.84542939394953 -368.2731549092306 304.365383678398
    vertex 430.37344363280135 -380.4336864713925 303.2827164366355
  endloop
endfacet
facet normal -0.08586188915219732 0.33207197686961476 0.9393380318975284
  outer loop
    vertex 395.13205888817816 -424.49999999959573 306.1670133685052
    vertex 406.9800457161892 -424.4999999995935 307.25000000074846
    vertex 428.796287857039 -415.36402491200454 306.0144303717751
  endloop
endfacet
facet normal -0.08586188915219732 0.33207197686961476 0.9393380318975284
  outer loop
    vertex 428.7102277206498 -415.80792719781147 306.16349090050824
    vertex 428.796287857039 -415.36402491200454 306.0144303717751
    vertex 406.9800457161892 -424.4999999995935 307.25000000074846
  endloop
endfacet
facet normal -6.6825121777374e-17 -0.04081843377715774 0.9991665804379068
  outer loop
    vertex 382.480045716189 -394.4999999996058 301.0000000006894
    vertex 431.69137058159436 -394.4999999996059 301.0000000006894
    vertex 382.4814659618133 -394.465234776335 301.00142024631367
  endloop
endfacet
facet normal -6.6825121777374e-17 -0.04081843377715774 0.9991665804379068
  outer loop
    vertex 431.6102097146241 -391.05896675966727 301.14057474586133
    vertex 382.4814659618133 -394.465234776335 301.00142024631367
    vertex 431.69137058159436 -394.4999999996059 301.0000000006894
  endloop
endfacet
facet normal -0.11301820666176322 0.43139794696938083 0.8950545772820572
  outer loop
    vertex 392.66982735813235 -424.4999999995962 305.85610831424964
    vertex 395.13205888817816 -424.49999999959573 306.1670133685052
    vertex 429.6272662997991 -412.16010387770666 304.57513348891393
  endloop
endfacet
facet normal -0.11301820666176322 0.43139794696938083 0.8950545772820572
  outer loop
    vertex 428.796287857039 -415.36402491200454 306.0144303717751
    vertex 429.6272662997991 -412.16010387770666 304.57513348891393
    vertex 395.13205888817816 -424.49999999959573 306.1670133685052
  endloop
endfacet
facet normal -0.08586188915219704 -0.33207197686591033 0.939338031898838
  outer loop
    vertex 395.13205888817856 -364.4999999995957 306.167013368387
    vertex 428.796287857039 -373.63597508718755 306.0144303716929
    vertex 406.9800457161892 -364.49999999959357 307.2500000006302
  endloop
endfacet
facet normal -0.08586188915219704 -0.33207197686591033 0.939338031898838
  outer loop
    vertex 428.7102277206498 -373.1920728013801 306.16349090042434
    vertex 406.9800457161892 -364.49999999959357 307.2500000006302
    vertex 428.796287857039 -373.63597508718755 306.0144303716929
  endloop
endfacet
facet normal -0.03573207156613039 0.21442099104391615 0.9760875256150637
  outer loop
    vertex 385.29725039866435 -414.4032280944537 302.91481013000356
    vertex 386.28966326810075 -420.3577053110671 304.2591832924223
    vertex 430.40048154979195 -408.3486234577775 303.2358853907321
  endloop
endfacet
facet normal -0.03573207156613039 0.21442099104391615 0.9760875256150637
  outer loop
    vertex 430.37344363280135 -408.56631352781045 303.2827164366909
    vertex 430.40048154979195 -408.3486234577775 303.2358853907321
    vertex 386.28966326810075 -420.3577053110671 304.2591832924223
  endloop
endfacet
facet normal -0.07520693913193822 0.35823619256862327 0.930596984005612
  outer loop
    vertex 386.28966326810075 -420.3577053110671 304.2591832924223
    vertex 386.33465733765246 -420.6276697283773 304.36674316308233
    vertex 430.37344363280135 -408.56631352781045 303.2827164366909
  endloop
endfacet
facet normal -0.07520693913193822 0.35823619256862327 0.930596984005612
  outer loop
    vertex 429.6780420252723 -411.8411809264052 304.48718735260275
    vertex 430.37344363280135 -408.56631352781045 303.2827164366909
    vertex 386.33465733765246 -420.6276697283773 304.36674316308233
  endloop
endfacet
facet normal 0.37139067635410405 0.9284766908852592 -1.818822769894587e-12
  outer loop
    vertex 406.9800457161892 -364.49999999959357 307.2500000006302
    vertex 428.7102277206498 -373.1920728013801 306.16349090042434
    vertex 406.9800457161892 -364.49999999960784 300.0000000006302
  endloop
endfacet
facet normal 0.37139067635410405 0.9284766908852592 -1.818822769894587e-12
  outer loop
    vertex 431.9800457161893 -374.49999999960687 300.50000000064995
    vertex 406.9800457161892 -364.49999999960784 300.0000000006302
    vertex 428.7102277206498 -373.1920728013801 306.16349090042434
  endloop
endfacet
facet normal 0.37139067635410405 0.9284766908852592 -1.818822769894587e-12
  outer loop
    vertex 431.9800457161893 -374.49999999960784 300.0000000006499
    vertex 406.9800457161892 -364.49999999960784 300.0000000006302
    vertex 431.9800457161893 -374.49999999960687 300.50000000064995
  endloop
endfacet
facet normal -0.018593955437236985 0.1538166189546546 0.9879244467845488
  outer loop
    vertex 384.2235210239601 -407.960851846229 301.86103260184154
    vertex 385.2616345038687 -414.1895327256788 302.850356504484
    vertex 430.96375731715176 -404.8748637229137 302.2602631429854
  endloop
endfacet
facet normal -0.018593955437236985 0.1538166189546546 0.9879244467845488
  outer loop
    vertex 430.9513542666776 -405.0143409774057 302.2817458565758
    vertex 430.96375731715176 -404.8748637229137 302.2602631429854
    vertex 385.2616345038687 -414.1895327256788 302.850356504484
  endloop
endfacet
facet normal -0.006817546493040156 -0.12218042418645068 0.9924844910654445
  outer loop
    vertex 382.68973416547 -387.7300655968193 301.20968844995673
    vertex 431.6093093374099 -391.0084793165694 301.1421342449421
    vertex 382.69579424227027 -387.681177099144 301.2157485267572
  endloop
endfacet
facet normal -0.006817546493040156 -0.12218042418645068 0.9924844910654445
  outer loop
    vertex 431.36736348394976 -387.59088993833643 301.56119675580953
    vertex 382.69579424227027 -387.681177099144 301.2157485267572
    vertex 431.6093093374099 -391.0084793165694 301.1421342449421
  endloop
endfacet
facet normal 5.3067008470270356e-17 0.04081843378109723 0.9991665804377459
  outer loop
    vertex 382.480045716189 -394.4999999996058 301.0000000006894
    vertex 382.4814659618133 -394.5347652228766 301.0014202463138
    vertex 431.69137058159436 -394.4999999996059 301.0000000006894
  endloop
endfacet
facet normal 5.3067008470270356e-17 0.04081843378109723 0.9991665804377459
  outer loop
    vertex 431.6102097146241 -397.94103323954386 301.1405747458749
    vertex 431.69137058159436 -394.4999999996059 301.0000000006894
    vertex 382.4814659618133 -394.5347652228766 301.0014202463138
  endloop
endfacet
facet normal -0.006895248787493942 -0.09253917746662596 0.9956851692065917
  outer loop
    vertex 382.69579424227027 -387.681177099144 301.2157485267572
    vertex 431.36736348394976 -387.59088993833643 301.56119675580953
    vertex 383.31454065105737 -381.0698128203589 301.83449493553104
  endloop
endfacet
facet normal -0.006895248787493942 -0.09253917746662596 0.9956851692065917
  outer loop
    vertex 431.36288366325016 -387.50706936867914 301.56895603286966
    vertex 383.31454065105737 -381.0698128203589 301.83449493553104
    vertex 431.36736348394976 -387.59088993833643 301.56119675580953
  endloop
endfacet
facet normal -1.0 0.0 0.0
  outer loop
    vertex 381.9800457161891 -394.4999999996078 300.0000000006894
    vertex 381.9800457161891 -394.49999999960687 300.50000000068934
    vertex 381.9800457161891 -364.49999999960784 300.0000000006302
  endloop
endfacet
facet normal -1.0 0.0 0.0
  outer loop
    vertex 381.9800457161891 -364.4999999996068 300.5000000006302
    vertex 381.9800457161891 -364.49999999960784 300.0000000006302
    vertex 381.9800457161891 -394.49999999960687 300.50000000068934
  endloop
endfacet
endsolid ProtoGlove baseplate
