solid ProtoGlove baseplate
facet normal -0.05821006762788592 -0.2739886931204461 0.9599696787237122
  outer loop
    vertex 429.6780420252723 370.8411809266134 304.48718735263805
    vertex 386.9800457161894 383.49999999980514 305.51109473572535
    vertex 386.33465733765246 379.62766972858554 304.3667431631177
  endloop
endfacet
facet normal -0.05821006762788592 -0.2739886931204461 0.9599696787237122
  outer loop
    vertex 386.9800457161894 383.49999999980514 305.51109473572535
    vertex 429.6780420252723 370.8411809266134 304.48718735263805
    vertex 392.66982735813235 383.49999999980446 305.85610831428494
  endloop
endfacet
facet normal -0.05821006762788592 -0.2739886931204461 0.9599696787237122
  outer loop
    vertex 392.66982735813235 383.49999999980446 305.85610831428494
    vertex 429.6780420252723 370.8411809266134 304.48718735263805
    vertex 429.6272662997991 371.1601038779149 304.57513348894923
  endloop
endfacet
facet normal 0.0 1.0 1.9698374875698473e-12
  outer loop
    vertex 406.9800457161892 383.49999999981605 300.0000000007838
    vertex 395.13205888817816 383.49999999980395 306.16701336854055
    vertex 406.9800457161892 383.4999999998017 307.25000000078376
  endloop
endfacet
facet normal 0.0 1.0 1.9698374875698473e-12
  outer loop
    vertex 395.13205888817816 383.49999999980395 306.16701336854055
    vertex 406.9800457161892 383.49999999981605 300.0000000007838
    vertex 392.66982735813235 383.49999999980446 305.85610831428494
  endloop
endfacet
facet normal 0.0 1.0 1.9698374875698473e-12
  outer loop
    vertex 392.66982735813235 383.49999999980446 305.85610831428494
    vertex 406.9800457161892 383.49999999981605 300.0000000007838
    vertex 386.9800457161894 383.49999999980514 305.51109473572535
  endloop
endfacet
facet normal 0.0 1.0 1.9698374875698473e-12
  outer loop
    vertex 386.9800457161894 383.49999999980514 305.51109473572535
    vertex 406.9800457161892 383.49999999981605 300.0000000007838
    vertex 386.9800457161894 383.49999999981605 300.0000000007838
  endloop
endfacet
facet normal -0.05821006762788511 0.2739886931166641 0.9599696787247916
  outer loop
    vertex 386.99185663453846 323.49999999980525 305.5118109190149
    vertex 429.6780420252719 336.1588190730011 304.4871873525697
    vertex 385.84542939394953 327.2731549094388 304.3653836784334
  endloop
endfacet
facet normal -0.05821006762788511 0.2739886931166641 0.9599696787247916
  outer loop
    vertex 429.6780420252719 336.1588190730011 304.4871873525697
    vertex 386.99185663453846 323.49999999980525 305.5118109190149
    vertex 392.66982735813195 323.4999999998046 305.85610831416676
  endloop
endfacet
facet normal -0.05821006762788511 0.2739886931166641 0.9599696787247916
  outer loop
    vertex 429.6780420252719 336.1588190730011 304.4871873525697
    vertex 392.66982735813195 323.4999999998046 305.85610831416676
    vertex 429.6272662997991 335.8398961216992 304.5751334888796
  endloop
endfacet
facet normal 0.8660254037844314 -9.846808954911131e-13 0.5000000000000125
  outer loop
    vertex 428.796287857039 374.3640249122127 306.0144303718105
    vertex 431.9800457161893 373.49999999981503 300.50000000076403
    vertex 428.7102277206498 374.8079271980197 306.16349090054354
  endloop
endfacet
facet normal 0.8660254037844314 -9.846808954911131e-13 0.5000000000000125
  outer loop
    vertex 431.9800457161893 373.49999999981503 300.50000000076403
    vertex 428.796287857039 374.3640249122127 306.0144303718105
    vertex 429.6272662997991 371.1601038779149 304.57513348894923
  endloop
endfacet
facet normal 0.8660254037844314 -9.846808954911131e-13 0.5000000000000125
  outer loop
    vertex 431.9800457161893 373.49999999981503 300.50000000076403
    vertex 429.6272662997991 371.1601038779149 304.57513348894923
    vertex 430.37344363280135 367.5663135280186 303.2827164367263
  endloop
endfacet
facet normal 0.8660254037844314 -9.846808954911131e-13 0.5000000000000125
  outer loop
    vertex 431.9800457161893 373.49999999981503 300.50000000076403
    vertex 430.37344363280135 367.5663135280186 303.2827164367263
    vertex 430.9513542666776 364.0143409776139 302.28174585661117
  endloop
endfacet
facet normal 0.8660254037844314 -9.846808954911131e-13 0.5000000000000125
  outer loop
    vertex 431.9800457161893 373.49999999981503 300.50000000076403
    vertex 430.9513542666776 364.0143409776139 302.28174585661117
    vertex 431.3628836632498 360.4929306307386 301.5689560329326
  endloop
endfacet
facet normal 0.8660254037844314 -9.846808954911131e-13 0.5000000000000125
  outer loop
    vertex 431.9800457161893 373.49999999981503 300.50000000076403
    vertex 431.3628836632498 360.4929306307386 301.5689560329326
    vertex 431.6093093374099 356.99152068285025 301.14213424499115
  endloop
endfacet
facet normal 0.8660254037844314 -9.846808954911131e-13 0.5000000000000125
  outer loop
    vertex 431.9800457161893 373.49999999981503 300.50000000076403
    vertex 431.6093093374099 356.99152068285025 301.14213424499115
    vertex 431.69137058159436 353.4999999998141 301.0000000007247
  endloop
endfacet
facet normal 0.8660254037844314 -9.846808954911131e-13 0.5000000000000125
  outer loop
    vertex 431.9800457161893 373.49999999981503 300.50000000076403
    vertex 431.69137058159436 353.4999999998141 301.0000000007247
    vertex 431.9800457161893 333.4999999998151 300.5000000006853
  endloop
endfacet
facet normal 0.8660254037844314 -9.846808954911131e-13 0.5000000000000125
  outer loop
    vertex 430.37344363280135 367.5663135280186 303.2827164367263
    vertex 429.6272662997991 371.1601038779149 304.57513348894923
    vertex 429.6780420252723 370.8411809266134 304.48718735263805
  endloop
endfacet
facet normal 0.8660254037844314 -9.846808954911131e-13 0.5000000000000125
  outer loop
    vertex 430.9513542666776 364.0143409776139 302.28174585661117
    vertex 430.37344363280135 367.5663135280186 303.2827164367263
    vertex 430.40048154979195 367.34862345798564 303.2358853907674
  endloop
endfacet
facet normal 0.8660254037844314 -9.846808954911131e-13 0.5000000000000125
  outer loop
    vertex 431.3628836632498 360.4929306307386 301.5689560329326
    vertex 430.9513542666776 364.0143409776139 302.28174585661117
    vertex 430.96375731715176 363.8748637231219 302.2602631430207
  endloop
endfacet
facet normal 0.8660254037844314 -9.846808954911131e-13 0.5000000000000125
  outer loop
    vertex 431.6093093374099 356.99152068285025 301.14213424499115
    vertex 431.3628836632498 360.4929306307386 301.5689560329326
    vertex 431.36736348394936 360.4091100610812 301.56119675587206
  endloop
endfacet
facet normal 0.8660254037844314 -9.846808954911131e-13 0.5000000000000125
  outer loop
    vertex 431.69137058159436 353.4999999998141 301.0000000007247
    vertex 431.6093093374099 356.99152068285025 301.14213424499115
    vertex 431.6102097146241 356.9410332397521 301.14057474591027
  endloop
endfacet
facet normal 0.8660254037844314 -9.846808954911131e-13 0.5000000000000125
  outer loop
    vertex 431.9800457161893 333.4999999998151 300.5000000006853
    vertex 431.69137058159436 353.4999999998141 301.0000000007247
    vertex 431.6102097146241 350.0589667598755 301.14057474589663
  endloop
endfacet
facet normal 0.8660254037844314 -9.846808954911131e-13 0.5000000000000125
  outer loop
    vertex 431.9800457161893 333.4999999998151 300.5000000006853
    vertex 431.6102097146241 350.0589667598755 301.14057474589663
    vertex 431.6093093374099 350.0084793167776 301.1421342449774
  endloop
endfacet
facet normal 0.8660254037844314 -9.846808954911131e-13 0.5000000000000125
  outer loop
    vertex 431.9800457161893 333.4999999998151 300.5000000006853
    vertex 431.6093093374099 350.0084793167776 301.1421342449774
    vertex 431.36736348394976 346.59088993854465 301.56119675584483
  endloop
endfacet
facet normal 0.8660254037844314 -9.846808954911131e-13 0.5000000000000125
  outer loop
    vertex 431.9800457161893 333.4999999998151 300.5000000006853
    vertex 431.36736348394976 346.59088993854465 301.56119675584483
    vertex 431.36288366325016 346.50706936888736 301.568956032905
  endloop
endfacet
facet normal 0.8660254037844314 -9.846808954911131e-13 0.5000000000000125
  outer loop
    vertex 431.9800457161893 333.4999999998151 300.5000000006853
    vertex 431.36288366325016 346.50706936888736 301.568956032905
    vertex 430.96375731715216 343.1251362765013 302.2602631429798
  endloop
endfacet
facet normal 0.8660254037844314 -9.846808954911131e-13 0.5000000000000125
  outer loop
    vertex 431.9800457161893 333.4999999998151 300.5000000006853
    vertex 430.96375731715216 343.1251362765013 302.2602631429798
    vertex 430.9513542666776 342.98565902200914 302.2817458565696
  endloop
endfacet
facet normal 0.8660254037844314 -9.846808954911131e-13 0.5000000000000125
  outer loop
    vertex 431.9800457161893 333.4999999998151 300.5000000006853
    vertex 430.9513542666776 342.98565902200914 302.2817458565696
    vertex 430.40048154979195 339.6513765416341 303.2358853907127
  endloop
endfacet
facet normal 0.8660254037844314 -9.846808954911131e-13 0.5000000000000125
  outer loop
    vertex 431.9800457161893 333.4999999998151 300.5000000006853
    vertex 430.40048154979195 339.6513765416341 303.2358853907127
    vertex 430.37344363280135 339.4336864716007 303.2827164366708
  endloop
endfacet
facet normal 0.8660254037844314 -9.846808954911131e-13 0.5000000000000125
  outer loop
    vertex 431.9800457161893 333.4999999998151 300.5000000006853
    vertex 430.37344363280135 339.4336864716007 303.2827164366708
    vertex 429.6780420252719 336.1588190730011 304.4871873525697
  endloop
endfacet
facet normal 0.8660254037844314 -9.846808954911131e-13 0.5000000000000125
  outer loop
    vertex 431.9800457161893 333.4999999998151 300.5000000006853
    vertex 429.6780420252719 336.1588190730011 304.4871873525697
    vertex 429.6272662997991 335.8398961216992 304.5751334888796
  endloop
endfacet
facet normal 0.8660254037844314 -9.846808954911131e-13 0.5000000000000125
  outer loop
    vertex 431.9800457161893 333.4999999998151 300.5000000006853
    vertex 429.6272662997991 335.8398961216992 304.5751334888796
    vertex 428.796287857039 332.63597508739576 306.0144303717283
  endloop
endfacet
facet normal 0.8660254037844314 -9.846808954911131e-13 0.5000000000000125
  outer loop
    vertex 431.9800457161893 333.4999999998151 300.5000000006853
    vertex 428.796287857039 332.63597508739576 306.0144303717283
    vertex 428.7102277206498 332.1920728015883 306.16349090045964
  endloop
endfacet
facet normal -0.7071067811865522 -1.3963236390302998e-12 0.7071067811865429
  outer loop
    vertex 381.9800457161891 353.4999999998151 300.5000000007247
    vertex 382.4814659618133 353.53476522308483 301.0014202463491
    vertex 382.5943694533781 357.1859424229481 301.11432373792104
  endloop
endfacet
facet normal -0.7071067811865522 -1.3963236390302998e-12 0.7071067811865429
  outer loop
    vertex 382.4814659618133 353.53476522308483 301.0014202463491
    vertex 381.9800457161891 353.4999999998151 300.5000000007247
    vertex 382.480045716189 353.499999999814 301.0000000007247
  endloop
endfacet
facet normal -0.7071067811865522 -1.3963236390302998e-12 0.7071067811865429
  outer loop
    vertex 382.480045716189 353.499999999814 301.0000000007247
    vertex 381.9800457161891 353.4999999998151 300.5000000007247
    vertex 381.9800457161891 323.49999999981503 300.5000000006655
  endloop
endfacet
facet normal -0.7071067811865522 -1.3963236390302998e-12 0.7071067811865429
  outer loop
    vertex 382.480045716189 353.499999999814 301.0000000007247
    vertex 381.9800457161891 323.49999999981503 300.5000000006655
    vertex 382.4814659618133 353.46523477654324 301.001420246349
  endloop
endfacet
facet normal -0.7071067811865522 -1.3963236390302998e-12 0.7071067811865429
  outer loop
    vertex 382.4814659618133 353.46523477654324 301.001420246349
    vertex 381.9800457161891 323.49999999981503 300.5000000006655
    vertex 382.68973416547 346.73006559702753 301.2096884499921
  endloop
endfacet
facet normal -0.7071067811865522 -1.3963236390302998e-12 0.7071067811865429
  outer loop
    vertex 382.68973416547 346.73006559702753 301.2096884499921
    vertex 381.9800457161891 323.49999999981503 300.5000000006655
    vertex 382.69579424227027 346.6811770993522 301.2157485267925
  endloop
endfacet
facet normal -0.7071067811865522 -1.3963236390302998e-12 0.7071067811865429
  outer loop
    vertex 382.69579424227027 346.6811770993522 301.2157485267925
    vertex 381.9800457161891 323.49999999981503 300.5000000006655
    vertex 383.31454065105737 340.0698128205671 301.83449493556634
  endloop
endfacet
facet normal -0.7071067811865522 -1.3963236390302998e-12 0.7071067811865429
  outer loop
    vertex 383.31454065105737 340.0698128205671 301.83449493556634
    vertex 381.9800457161891 323.49999999981503 300.5000000006655
    vertex 383.3334760205243 339.9803836169411 301.853430305033
  endloop
endfacet
facet normal -0.7071067811865522 -1.3963236390302998e-12 0.7071067811865429
  outer loop
    vertex 383.3334760205243 339.9803836169411 301.853430305033
    vertex 381.9800457161891 323.49999999981503 300.5000000006655
    vertex 384.3418489926147 333.6257603314095 302.86180327711116
  endloop
endfacet
facet normal -0.7071067811865522 -1.3963236390302998e-12 0.7071067811865429
  outer loop
    vertex 384.3418489926147 333.6257603314095 302.86180327711116
    vertex 381.9800457161891 323.49999999981503 300.5000000006655
    vertex 384.38838593438675 333.47476700954286 302.9083402188829
  endloop
endfacet
facet normal -0.7071067811865522 -1.3963236390302998e-12 0.7071067811865429
  outer loop
    vertex 384.38838593438675 333.47476700954286 302.9083402188829
    vertex 381.9800457161891 323.49999999981503 300.5000000006655
    vertex 385.75115705630657 327.4982567299699 304.271111340791
  endloop
endfacet
facet normal -0.7071067811865522 -1.3963236390302998e-12 0.7071067811865429
  outer loop
    vertex 385.75115705630657 327.4982567299699 304.271111340791
    vertex 381.9800457161891 323.49999999981503 300.5000000006655
    vertex 385.84542939394953 327.2731549094388 304.3653836784334
  endloop
endfacet
facet normal -0.7071067811865522 -1.3963236390302998e-12 0.7071067811865429
  outer loop
    vertex 385.84542939394953 327.2731549094388 304.3653836784334
    vertex 381.9800457161891 323.49999999981503 300.5000000006655
    vertex 386.99185663453846 323.49999999980525 305.5118109190149
  endloop
endfacet
facet normal 0.0 -1.0 -1.9698374875698473e-12
  outer loop
    vertex 395.13205888817856 323.4999999998039 306.1670133684224
    vertex 406.9800457161892 323.49999999981605 300.0000000006655
    vertex 406.9800457161892 323.4999999998018 307.2500000006655
  endloop
endfacet
facet normal 0.0 -1.0 -1.9698374875698473e-12
  outer loop
    vertex 406.9800457161892 323.49999999981605 300.0000000006655
    vertex 395.13205888817856 323.4999999998039 306.1670133684224
    vertex 392.66982735813195 323.4999999998046 305.85610831416676
  endloop
endfacet
facet normal 0.0 -1.0 -1.9698374875698473e-12
  outer loop
    vertex 406.9800457161892 323.49999999981605 300.0000000006655
    vertex 392.66982735813195 323.4999999998046 305.85610831416676
    vertex 386.99185663453846 323.49999999980525 305.5118109190149
  endloop
endfacet
facet normal 0.0 -1.0 -1.9698374875698473e-12
  outer loop
    vertex 406.9800457161892 323.49999999981605 300.0000000006655
    vertex 386.99185663453846 323.49999999980525 305.5118109190149
    vertex 381.9800457161891 323.49999999981503 300.5000000006655
  endloop
endfacet
facet normal 0.0 -1.0 -1.9698374875698473e-12
  outer loop
    vertex 406.9800457161892 323.49999999981605 300.0000000006655
    vertex 381.9800457161891 323.49999999981503 300.5000000006655
    vertex 381.9800457161891 323.49999999981605 300.0000000006655
  endloop
endfacet
facet normal -0.0006896309723663233 -0.03088640475984856 0.9995226632798941
  outer loop
    vertex 431.6102097146241 356.9410332397521 301.14057474591027
    vertex 382.5943694533781 357.1859424229481 301.11432373792104
    vertex 382.4814659618133 353.53476522308483 301.0014202463491
  endloop
endfacet
facet normal -0.0006896309723663233 -0.03088640475984856 0.9995226632798941
  outer loop
    vertex 382.5943694533781 357.1859424229481 301.11432373792104
    vertex 431.6102097146241 356.9410332397521 301.14057474591027
    vertex 383.1037438767228 360.2421889630144 301.2091167341602
  endloop
endfacet
facet normal -0.0006896309723663233 -0.03088640475984856 0.9995226632798941
  outer loop
    vertex 383.1037438767228 360.2421889630144 301.2091167341602
    vertex 431.6102097146241 356.9410332397521 301.14057474591027
    vertex 431.6093093374099 356.99152068285025 301.14213424499115
  endloop
endfacet
facet normal 1.0 0.0 0.0
  outer loop
    vertex 431.9800457161893 373.49999999981503 300.50000000076403
    vertex 431.9800457161893 333.49999999981605 300.00000000068525
    vertex 431.9800457161893 373.49999999981605 300.00000000076403
  endloop
endfacet
facet normal 1.0 0.0 0.0
  outer loop
    vertex 431.9800457161893 333.49999999981605 300.00000000068525
    vertex 431.9800457161893 373.49999999981503 300.50000000076403
    vertex 431.9800457161893 333.4999999998151 300.5000000006853
  endloop
endfacet
facet normal -0.9863939238321423 0.16439898730536587 3.2876367266011123e-13
  outer loop
    vertex 386.9800457161894 383.49999999981605 300.0000000007838
    vertex 386.28966326810075 379.35770531127525 304.2591832924576
    vertex 386.9800457161894 383.49999999980514 305.51109473572535
  endloop
endfacet
facet normal -0.9863939238321423 0.16439898730536587 3.2876367266011123e-13
  outer loop
    vertex 386.28966326810075 379.35770531127525 304.2591832924576
    vertex 386.9800457161894 383.49999999981605 300.0000000007838
    vertex 385.2616345038687 373.18953272588703 302.85035650451937
  endloop
endfacet
facet normal -0.9863939238321423 0.16439898730536587 3.2876367266011123e-13
  outer loop
    vertex 385.2616345038687 373.18953272588703 302.85035650451937
    vertex 386.9800457161894 383.49999999981605 300.0000000007838
    vertex 384.19866847059626 366.8117365262552 301.82960880810026
  endloop
endfacet
facet normal -0.9863939238321423 0.16439898730536587 3.2876367266011123e-13
  outer loop
    vertex 384.19866847059626 366.8117365262552 301.82960880810026
    vertex 386.9800457161894 383.49999999981605 300.0000000007838
    vertex 381.9800457161891 353.499999999816 300.0000000007247
  endloop
endfacet
facet normal -0.9863939238321423 0.16439898730536587 3.2876367266011123e-13
  outer loop
    vertex 386.9800457161894 383.49999999980514 305.51109473572535
    vertex 386.28966326810075 379.35770531127525 304.2591832924576
    vertex 386.33465733765246 379.62766972858554 304.3667431631177
  endloop
endfacet
facet normal -0.9863939238321423 0.16439898730536587 3.2876367266011123e-13
  outer loop
    vertex 386.28966326810075 379.35770531127525 304.2591832924576
    vertex 385.2616345038687 373.18953272588703 302.85035650451937
    vertex 385.29725039866435 373.4032280946619 302.9148101300389
  endloop
endfacet
facet normal -0.9863939238321423 0.16439898730536587 3.2876367266011123e-13
  outer loop
    vertex 385.2616345038687 373.18953272588703 302.85035650451937
    vertex 384.19866847059626 366.8117365262552 301.82960880810026
    vertex 384.2235210239601 366.9608518464372 301.86103260187684
  endloop
endfacet
facet normal -0.9863939238321423 0.16439898730536587 3.2876367266011123e-13
  outer loop
    vertex 384.19866847059626 366.8117365262552 301.82960880810026
    vertex 381.9800457161891 353.499999999816 300.0000000007247
    vertex 383.1166463150495 360.31960359297426 301.2187355396793
  endloop
endfacet
facet normal -0.9863939238321423 0.16439898730536587 3.2876367266011123e-13
  outer loop
    vertex 383.1166463150495 360.31960359297426 301.2187355396793
    vertex 381.9800457161891 353.499999999816 300.0000000007247
    vertex 383.1037438767228 360.2421889630144 301.2091167341602
  endloop
endfacet
facet normal -0.9863939238321423 0.16439898730536587 3.2876367266011123e-13
  outer loop
    vertex 383.1037438767228 360.2421889630144 301.2091167341602
    vertex 381.9800457161891 353.499999999816 300.0000000007247
    vertex 382.5943694533781 357.1859424229481 301.11432373792104
  endloop
endfacet
facet normal -0.9863939238321423 0.16439898730536587 3.2876367266011123e-13
  outer loop
    vertex 382.5943694533781 357.1859424229481 301.11432373792104
    vertex 381.9800457161891 353.499999999816 300.0000000007247
    vertex 381.9800457161891 353.4999999998151 300.5000000007247
  endloop
endfacet
facet normal -4.071316061727596e-18 1.9698426547660615e-12 -1.0
  outer loop
    vertex 386.9800457161894 383.49999999981605 300.0000000007838
    vertex 381.9800457161891 323.49999999981605 300.0000000006655
    vertex 381.9800457161891 353.499999999816 300.0000000007247
  endloop
endfacet
facet normal -4.071316061727596e-18 1.9698426547660615e-12 -1.0
  outer loop
    vertex 381.9800457161891 323.49999999981605 300.0000000006655
    vertex 386.9800457161894 383.49999999981605 300.0000000007838
    vertex 406.9800457161892 323.49999999981605 300.0000000006655
  endloop
endfacet
facet normal -4.071316061727596e-18 1.9698426547660615e-12 -1.0
  outer loop
    vertex 406.9800457161892 323.49999999981605 300.0000000006655
    vertex 386.9800457161894 383.49999999981605 300.0000000007838
    vertex 406.9800457161892 383.49999999981605 300.0000000007838
  endloop
endfacet
facet normal -4.071316061727596e-18 1.9698426547660615e-12 -1.0
  outer loop
    vertex 406.9800457161892 323.49999999981605 300.0000000006655
    vertex 406.9800457161892 383.49999999981605 300.0000000007838
    vertex 431.9800457161893 373.49999999981605 300.00000000076403
  endloop
endfacet
facet normal -4.071316061727596e-18 1.9698426547660615e-12 -1.0
  outer loop
    vertex 406.9800457161892 323.49999999981605 300.0000000006655
    vertex 431.9800457161893 373.49999999981605 300.00000000076403
    vertex 431.9800457161893 333.49999999981605 300.00000000068525
  endloop
endfacet
facet normal 0.37139067635410344 0.9284766908852596 1.832735846334703e-12
  outer loop
    vertex 428.7102277206498 374.8079271980197 306.16349090054354
    vertex 406.9800457161892 383.49999999981605 300.0000000007838
    vertex 406.9800457161892 383.4999999998017 307.25000000078376
  endloop
endfacet
facet normal 0.37139067635410344 0.9284766908852596 1.832735846334703e-12
  outer loop
    vertex 406.9800457161892 383.49999999981605 300.0000000007838
    vertex 428.7102277206498 374.8079271980197 306.16349090054354
    vertex 431.9800457161893 373.49999999981503 300.50000000076403
  endloop
endfacet
facet normal 0.37139067635410344 0.9284766908852596 1.832735846334703e-12
  outer loop
    vertex 406.9800457161892 383.49999999981605 300.0000000007838
    vertex 431.9800457161893 373.49999999981503 300.50000000076403
    vertex 431.9800457161893 373.49999999981605 300.00000000076403
  endloop
endfacet
facet normal -0.04463175907440009 -0.2816522439241706 0.9584779703125181
  outer loop
    vertex 430.9513542666776 364.0143409776139 302.28174585661117
    vertex 385.29725039866435 373.4032280946619 302.9148101300389
    vertex 385.2616345038687 373.18953272588703 302.85035650451937
  endloop
endfacet
facet normal -0.04463175907440009 -0.2816522439241706 0.9584779703125181
  outer loop
    vertex 385.29725039866435 373.4032280946619 302.9148101300389
    vertex 430.9513542666776 364.0143409776139 302.28174585661117
    vertex 430.40048154979195 367.34862345798564 303.2358853907674
  endloop
endfacet
facet normal -0.11301820666176722 0.4313979469658697 0.895054577283749
  outer loop
    vertex 395.13205888817856 323.4999999998039 306.1670133684224
    vertex 429.6272662997991 335.8398961216992 304.5751334888796
    vertex 392.66982735813195 323.4999999998046 305.85610831416676
  endloop
endfacet
facet normal -0.11301820666176722 0.4313979469658697 0.895054577283749
  outer loop
    vertex 429.6272662997991 335.8398961216992 304.5751334888796
    vertex 395.13205888817856 323.4999999998039 306.1670133684224
    vertex 428.796287857039 332.63597508739576 306.0144303717283
  endloop
endfacet
facet normal -0.006895248787494063 -0.09253917747055058 0.9956851692062268
  outer loop
    vertex 431.36736348394936 360.4091100610812 301.56119675587206
    vertex 384.19866847059626 366.8117365262552 301.82960880810026
    vertex 383.1166463150495 360.31960359297426 301.2187355396793
  endloop
endfacet
facet normal -0.006895248787494063 -0.09253917747055058 0.9956851692062268
  outer loop
    vertex 384.19866847059626 366.8117365262552 301.82960880810026
    vertex 431.36736348394936 360.4091100610812 301.56119675587206
    vertex 431.3628836632498 360.4929306307386 301.5689560329326
  endloop
endfacet
facet normal -0.035732071566130966 0.21442099104007298 0.9760875256159082
  outer loop
    vertex 385.75115705630657 327.4982567299699 304.271111340791
    vertex 430.40048154979195 339.6513765416341 303.2358853907127
    vertex 384.38838593438675 333.47476700954286 302.9083402188829
  endloop
endfacet
facet normal -0.035732071566130966 0.21442099104007298 0.9760875256159082
  outer loop
    vertex 430.40048154979195 339.6513765416341 303.2358853907127
    vertex 385.75115705630657 327.4982567299699 304.271111340791
    vertex 430.37344363280135 339.4336864716007 303.2827164366708
  endloop
endfacet
facet normal -0.006817546493040025 -0.12218042419035806 0.9924844910649635
  outer loop
    vertex 431.6093093374099 356.99152068285025 301.14213424499115
    vertex 383.1166463150495 360.31960359297426 301.2187355396793
    vertex 383.1037438767228 360.2421889630144 301.2091167341602
  endloop
endfacet
facet normal -0.006817546493040025 -0.12218042419035806 0.9924844910649635
  outer loop
    vertex 383.1166463150495 360.31960359297426 301.2187355396793
    vertex 431.6093093374099 356.99152068285025 301.14213424499115
    vertex 431.36736348394936 360.4091100610812 301.56119675587206
  endloop
endfacet
facet normal -0.0006896309723662662 0.030886404755910136 0.999522663280016
  outer loop
    vertex 382.68973416547 346.73006559702753 301.2096884499921
    vertex 431.6102097146241 350.0589667598755 301.14057474589663
    vertex 382.4814659618133 353.46523477654324 301.001420246349
  endloop
endfacet
facet normal -0.0006896309723662662 0.030886404755910136 0.999522663280016
  outer loop
    vertex 431.6102097146241 350.0589667598755 301.14057474589663
    vertex 382.68973416547 346.73006559702753 301.2096884499921
    vertex 431.6093093374099 350.0084793167776 301.1421342449774
  endloop
endfacet
facet normal -0.018593955437238307 0.1538166189507698 0.9879244467851536
  outer loop
    vertex 384.3418489926147 333.6257603314095 302.86180327711116
    vertex 430.96375731715216 343.1251362765013 302.2602631429798
    vertex 383.3334760205243 339.9803836169411 301.853430305033
  endloop
endfacet
facet normal -0.018593955437238307 0.1538166189507698 0.9879244467851536
  outer loop
    vertex 430.96375731715216 343.1251362765013 302.2602631429798
    vertex 384.3418489926147 333.6257603314095 302.86180327711116
    vertex 430.9513542666776 342.98565902200914 302.2817458565696
  endloop
endfacet
facet normal -0.044631759074400965 0.28165224392040017 0.958477970313626
  outer loop
    vertex 384.38838593438675 333.47476700954286 302.9083402188829
    vertex 430.9513542666776 342.98565902200914 302.2817458565696
    vertex 384.3418489926147 333.6257603314095 302.86180327711116
  endloop
endfacet
facet normal -0.044631759074400965 0.28165224392040017 0.958477970313626
  outer loop
    vertex 430.9513542666776 342.98565902200914 302.2817458565696
    vertex 384.38838593438675 333.47476700954286 302.9083402188829
    vertex 430.40048154979195 339.6513765416341 303.2358853907127
  endloop
endfacet
facet normal -0.021744301729973835 0.20268586028026486 0.9790023633192745
  outer loop
    vertex 383.3334760205243 339.9803836169411 301.853430305033
    vertex 431.36288366325016 346.50706936888736 301.568956032905
    vertex 383.31454065105737 340.0698128205671 301.83449493556634
  endloop
endfacet
facet normal -0.021744301729973835 0.20268586028026486 0.9790023633192745
  outer loop
    vertex 431.36288366325016 346.50706936888736 301.568956032905
    vertex 383.3334760205243 339.9803836169411 301.853430305033
    vertex 430.96375731715216 343.1251362765013 302.2602631429798
  endloop
endfacet
facet normal -0.021744301729973377 -0.20268586028412175 0.979002363318476
  outer loop
    vertex 431.3628836632498 360.4929306307386 301.5689560329326
    vertex 384.2235210239601 366.9608518464372 301.86103260187684
    vertex 384.19866847059626 366.8117365262552 301.82960880810026
  endloop
endfacet
facet normal -0.021744301729973377 -0.20268586028412175 0.979002363318476
  outer loop
    vertex 384.2235210239601 366.9608518464372 301.86103260187684
    vertex 431.3628836632498 360.4929306307386 301.5689560329326
    vertex 430.96375731715176 363.8748637231219 302.2602631430207
  endloop
endfacet
facet normal -0.07520693913193925 0.3582361925649608 0.9305969840070217
  outer loop
    vertex 385.84542939394953 327.2731549094388 304.3653836784334
    vertex 430.37344363280135 339.4336864716007 303.2827164366708
    vertex 385.75115705630657 327.4982567299699 304.271111340791
  endloop
endfacet
facet normal -0.07520693913193925 0.3582361925649608 0.9305969840070217
  outer loop
    vertex 430.37344363280135 339.4336864716007 303.2827164366708
    vertex 385.84542939394953 327.2731549094388 304.3653836784334
    vertex 429.6780420252719 336.1588190730011 304.4871873525697
  endloop
endfacet
facet normal -0.08586188915219732 -0.33207197686961476 0.9393380318975284
  outer loop
    vertex 428.796287857039 374.3640249122127 306.0144303718105
    vertex 406.9800457161892 383.4999999998017 307.25000000078376
    vertex 395.13205888817816 383.49999999980395 306.16701336854055
  endloop
endfacet
facet normal -0.08586188915219732 -0.33207197686961476 0.9393380318975284
  outer loop
    vertex 406.9800457161892 383.4999999998017 307.25000000078376
    vertex 428.796287857039 374.3640249122127 306.0144303718105
    vertex 428.7102277206498 374.8079271980197 306.16349090054354
  endloop
endfacet
facet normal -6.6825121777374e-17 0.04081843377715774 0.9991665804379068
  outer loop
    vertex 382.4814659618133 353.46523477654324 301.001420246349
    vertex 431.69137058159436 353.4999999998141 301.0000000007247
    vertex 382.480045716189 353.499999999814 301.0000000007247
  endloop
endfacet
facet normal -6.6825121777374e-17 0.04081843377715774 0.9991665804379068
  outer loop
    vertex 431.69137058159436 353.4999999998141 301.0000000007247
    vertex 382.4814659618133 353.46523477654324 301.001420246349
    vertex 431.6102097146241 350.0589667598755 301.14057474589663
  endloop
endfacet
facet normal -0.11301820666176322 -0.43139794696938083 0.8950545772820572
  outer loop
    vertex 429.6272662997991 371.1601038779149 304.57513348894923
    vertex 395.13205888817816 383.49999999980395 306.16701336854055
    vertex 392.66982735813235 383.49999999980446 305.85610831428494
  endloop
endfacet
facet normal -0.11301820666176322 -0.43139794696938083 0.8950545772820572
  outer loop
    vertex 395.13205888817816 383.49999999980395 306.16701336854055
    vertex 429.6272662997991 371.1601038779149 304.57513348894923
    vertex 428.796287857039 374.3640249122127 306.0144303718105
  endloop
endfacet
facet normal -0.08586188915219704 0.33207197686591033 0.939338031898838
  outer loop
    vertex 406.9800457161892 323.4999999998018 307.2500000006655
    vertex 428.796287857039 332.63597508739576 306.0144303717283
    vertex 395.13205888817856 323.4999999998039 306.1670133684224
  endloop
endfacet
facet normal -0.08586188915219704 0.33207197686591033 0.939338031898838
  outer loop
    vertex 428.796287857039 332.63597508739576 306.0144303717283
    vertex 406.9800457161892 323.4999999998018 307.2500000006655
    vertex 428.7102277206498 332.1920728015883 306.16349090045964
  endloop
endfacet
facet normal -0.03573207156613039 -0.21442099104391615 0.9760875256150637
  outer loop
    vertex 430.40048154979195 367.34862345798564 303.2358853907674
    vertex 386.28966326810075 379.35770531127525 304.2591832924576
    vertex 385.29725039866435 373.4032280946619 302.9148101300389
  endloop
endfacet
facet normal -0.03573207156613039 -0.21442099104391615 0.9760875256150637
  outer loop
    vertex 386.28966326810075 379.35770531127525 304.2591832924576
    vertex 430.40048154979195 367.34862345798564 303.2358853907674
    vertex 430.37344363280135 367.5663135280186 303.2827164367263
  endloop
endfacet
facet normal -0.07520693913193822 -0.35823619256862327 0.930596984005612
  outer loop
    vertex 430.37344363280135 367.5663135280186 303.2827164367263
    vertex 386.33465733765246 379.62766972858554 304.3667431631177
    vertex 386.28966326810075 379.35770531127525 304.2591832924576
  endloop
endfacet
facet normal -0.07520693913193822 -0.35823619256862327 0.930596984005612
  outer loop
    vertex 386.33465733765246 379.62766972858554 304.3667431631177
    vertex 430.37344363280135 367.5663135280186 303.2827164367263
    vertex 429.6780420252723 370.8411809266134 304.48718735263805
  endloop
endfacet
facet normal 0.37139067635410405 -0.9284766908852592 -1.818822769894587e-12
  outer loop
    vertex 406.9800457161892 323.49999999981605 300.0000000006655
    vertex 428.7102277206498 332.1920728015883 306.16349090045964
    vertex 406.9800457161892 323.4999999998018 307.2500000006655
  endloop
endfacet
facet normal 0.37139067635410405 -0.9284766908852592 -1.818822769894587e-12
  outer loop
    vertex 428.7102277206498 332.1920728015883 306.16349090045964
    vertex 406.9800457161892 323.49999999981605 300.0000000006655
    vertex 431.9800457161893 333.4999999998151 300.5000000006853
  endloop
endfacet
facet normal 0.37139067635410405 -0.9284766908852592 -1.818822769894587e-12
  outer loop
    vertex 431.9800457161893 333.4999999998151 300.5000000006853
    vertex 406.9800457161892 323.49999999981605 300.0000000006655
    vertex 431.9800457161893 333.49999999981605 300.00000000068525
  endloop
endfacet
facet normal -0.018593955437236985 -0.1538166189546546 0.9879244467845488
  outer loop
    vertex 430.96375731715176 363.8748637231219 302.2602631430207
    vertex 385.2616345038687 373.18953272588703 302.85035650451937
    vertex 384.2235210239601 366.9608518464372 301.86103260187684
  endloop
endfacet
facet normal -0.018593955437236985 -0.1538166189546546 0.9879244467845488
  outer loop
    vertex 385.2616345038687 373.18953272588703 302.85035650451937
    vertex 430.96375731715176 363.8748637231219 302.2602631430207
    vertex 430.9513542666776 364.0143409776139 302.28174585661117
  endloop
endfacet
facet normal -0.006817546493040156 0.12218042418645068 0.9924844910654445
  outer loop
    vertex 382.69579424227027 346.6811770993522 301.2157485267925
    vertex 431.6093093374099 350.0084793167776 301.1421342449774
    vertex 382.68973416547 346.73006559702753 301.2096884499921
  endloop
endfacet
facet normal -0.006817546493040156 0.12218042418645068 0.9924844910654445
  outer loop
    vertex 431.6093093374099 350.0084793167776 301.1421342449774
    vertex 382.69579424227027 346.6811770993522 301.2157485267925
    vertex 431.36736348394976 346.59088993854465 301.56119675584483
  endloop
endfacet
facet normal 5.3067008470270356e-17 -0.04081843378109723 0.9991665804377459
  outer loop
    vertex 431.69137058159436 353.4999999998141 301.0000000007247
    vertex 382.4814659618133 353.53476522308483 301.0014202463491
    vertex 382.480045716189 353.499999999814 301.0000000007247
  endloop
endfacet
facet normal 5.3067008470270356e-17 -0.04081843378109723 0.9991665804377459
  outer loop
    vertex 382.4814659618133 353.53476522308483 301.0014202463491
    vertex 431.69137058159436 353.4999999998141 301.0000000007247
    vertex 431.6102097146241 356.9410332397521 301.14057474591027
  endloop
endfacet
facet normal -0.006895248787493942 0.09253917746662596 0.9956851692065917
  outer loop
    vertex 383.31454065105737 340.0698128205671 301.83449493556634
    vertex 431.36736348394976 346.59088993854465 301.56119675584483
    vertex 382.69579424227027 346.6811770993522 301.2157485267925
  endloop
endfacet
facet normal -0.006895248787493942 0.09253917746662596 0.9956851692065917
  outer loop
    vertex 431.36736348394976 346.59088993854465 301.56119675584483
    vertex 383.31454065105737 340.0698128205671 301.83449493556634
    vertex 431.36288366325016 346.50706936888736 301.568956032905
  endloop
endfacet
facet normal -1.0 -0.0 0.0
  outer loop
    vertex 381.9800457161891 323.49999999981605 300.0000000006655
    vertex 381.9800457161891 353.4999999998151 300.5000000007247
    vertex 381.9800457161891 353.499999999816 300.0000000007247
  endloop
endfacet
facet normal -1.0 -0.0 0.0
  outer loop
    vertex 381.9800457161891 353.4999999998151 300.5000000007247
    vertex 381.9800457161891 323.49999999981605 300.0000000006655
    vertex 381.9800457161891 323.49999999981503 300.5000000006655
  endloop
endfacet
endsolid ProtoGlove baseplate
