solid ProtoGlove
facet normal 0.7071067811865452 -0.7071067811865499 5.75882146201297e-16
  outer loop
    vertex -31.05115092814457 -58.86816900000007 0.3489857518095187
    vertex -32.05115092814456 -59.868169000000066 -0.15101424819047546
    vertex -31.05115092814457 -58.86816900000007 -0.15101424819047757
  endloop
endfacet
facet normal 0.7071067811865452 -0.7071067811865499 5.75882146201297e-16
  outer loop
    vertex -32.05115092814456 -59.868169000000066 -0.15101424819047546
    vertex -31.05115092814457 -58.86816900000007 0.3489857518095187
    vertex -32.05115092814456 -59.868169000000066 1.7239857518095152
  endloop
endfacet
facet normal 0.7071067811865452 -0.7071067811865499 5.75882146201297e-16
  outer loop
    vertex -32.05115092814456 -59.868169000000066 1.7239857518095152
    vertex -31.05115092814457 -58.86816900000007 0.3489857518095187
    vertex -31.551150928144565 -59.368169000000066 1.348985751809522
  endloop
endfacet
facet normal 0.7071067811865452 -0.7071067811865499 5.75882146201297e-16
  outer loop
    vertex -32.05115092814456 -59.868169000000066 1.7239857518095152
    vertex -31.551150928144565 -59.368169000000066 1.348985751809522
    vertex -31.05115092814457 -58.86816900000007 2.098985751809504
  endloop
endfacet
facet normal 3.795337600373129e-15 -1.0 2.59792187762289e-15
  outer loop
    vertex -29.636937365771445 -58.86816900000007 0.3489857518095194
    vertex -31.05115092814457 -58.86816900000007 -0.15101424819047757
    vertex -29.636937365771445 -58.86816900000007 -0.15101424819047687
  endloop
endfacet
facet normal 3.795337600373129e-15 -1.0 2.59792187762289e-15
  outer loop
    vertex -31.05115092814457 -58.86816900000007 -0.15101424819047757
    vertex -29.636937365771445 -58.86816900000007 0.3489857518095194
    vertex -31.05115092814457 -58.86816900000007 0.3489857518095187
  endloop
endfacet
facet normal 4.379371781627573e-15 -1.0 1.1879386363489302e-15
  outer loop
    vertex -34.636937365771445 -58.8681690000001 0.3489857518095113
    vertex -35.094044146958005 -58.8681690000001 -0.15101424819047968
    vertex -34.636937365771445 -58.8681690000001 -0.15101424819048498
  endloop
endfacet
facet normal 4.379371781627573e-15 -1.0 1.1879386363489302e-15
  outer loop
    vertex -35.094044146958005 -58.8681690000001 -0.15101424819047968
    vertex -34.636937365771445 -58.8681690000001 0.3489857518095113
    vertex -35.094044146958005 -58.8681690000001 0.3489857518095166
  endloop
endfacet
facet normal 3.795337600373131e-15 -1.0 -5.980401359314176e-16
  outer loop
    vertex -32.05115092814456 -59.868169000000066 1.7239857518095152
    vertex -33.63693736577146 -59.868169000000066 -0.15101424819047635
    vertex -32.05115092814456 -59.868169000000066 -0.15101424819047546
  endloop
endfacet
facet normal 3.795337600373131e-15 -1.0 -5.980401359314176e-16
  outer loop
    vertex -33.63693736577146 -59.868169000000066 -0.15101424819047635
    vertex -32.05115092814456 -59.868169000000066 1.7239857518095152
    vertex -33.63693736577146 -59.86816900000007 1.7239857518095145
  endloop
endfacet
facet normal -0.7071067811865464 -0.7071067811865487 -8.163480219388675e-16
  outer loop
    vertex -33.63693736577146 -59.868169000000066 -0.15101424819047635
    vertex -34.636937365771445 -58.8681690000001 0.3489857518095113
    vertex -34.636937365771445 -58.8681690000001 -0.15101424819048498
  endloop
endfacet
facet normal -0.7071067811865464 -0.7071067811865487 -8.163480219388675e-16
  outer loop
    vertex -34.636937365771445 -58.8681690000001 0.3489857518095113
    vertex -33.63693736577146 -59.868169000000066 -0.15101424819047635
    vertex -34.13693736577146 -59.36816900000007 1.348985751809518
  endloop
endfacet
facet normal -0.7071067811865464 -0.7071067811865487 -8.163480219388675e-16
  outer loop
    vertex -34.13693736577146 -59.36816900000007 1.348985751809518
    vertex -33.63693736577146 -59.86816900000007 1.7239857518095145
    vertex -34.636937365771445 -58.8681690000001 2.0989857518095025
  endloop
endfacet
facet normal -0.7071067811865464 -0.7071067811865487 -8.163480219388675e-16
  outer loop
    vertex -33.63693736577146 -59.86816900000007 1.7239857518095145
    vertex -34.13693736577146 -59.36816900000007 1.348985751809518
    vertex -33.63693736577146 -59.868169000000066 -0.15101424819047635
  endloop
endfacet
facet normal -5.002608322809066e-16 -5.411859003602226e-15 1.0
  outer loop
    vertex -29.222723803398363 -57.86816900000008 2.098985751809511
    vertex -27.844044146957994 -60.66106221881352 2.09898575180949
    vertex -27.844044146958 -59.24684865644045 2.0989857518095123
  endloop
endfacet
facet normal -5.002608322809066e-16 -5.411859003602226e-15 1.0
  outer loop
    vertex -27.844044146957994 -60.66106221881352 2.09898575180949
    vertex -29.222723803398363 -57.86816900000008 2.098985751809511
    vertex -29.636937365771445 -58.86816900000007 2.0989857518095048
  endloop
endfacet
facet normal -5.002608322809066e-16 -5.411859003602226e-15 1.0
  outer loop
    vertex -29.636937365771445 -58.86816900000007 2.0989857518095048
    vertex -29.222723803398363 -57.86816900000008 2.098985751809511
    vertex -35.09404414695801 -57.8681690000001 2.0989857518095056
  endloop
endfacet
facet normal -5.002608322809066e-16 -5.411859003602226e-15 1.0
  outer loop
    vertex -29.636937365771445 -58.86816900000007 2.0989857518095048
    vertex -35.09404414695801 -57.8681690000001 2.0989857518095056
    vertex -31.05115092814457 -58.86816900000007 2.098985751809504
  endloop
endfacet
facet normal -5.002608322809066e-16 -5.411859003602226e-15 1.0
  outer loop
    vertex -31.05115092814457 -58.86816900000007 2.098985751809504
    vertex -35.09404414695801 -57.8681690000001 2.0989857518095056
    vertex -34.636937365771445 -58.8681690000001 2.0989857518095025
  endloop
endfacet
facet normal -5.002608322809066e-16 -5.411859003602226e-15 1.0
  outer loop
    vertex -34.636937365771445 -58.8681690000001 2.0989857518095025
    vertex -35.09404414695801 -57.8681690000001 2.0989857518095056
    vertex -35.094044146958005 -58.86816900000009 2.098985751809499
  endloop
endfacet
facet normal 1.4228424147124007e-15 -0.3511234415883879 0.936329177569046
  outer loop
    vertex -34.636937365771445 -58.8681690000001 2.0989857518095025
    vertex -32.05115092814456 -59.868169000000066 1.7239857518095152
    vertex -31.05115092814457 -58.86816900000007 2.098985751809504
  endloop
endfacet
facet normal 1.4228424147124007e-15 -0.3511234415883879 0.936329177569046
  outer loop
    vertex -32.05115092814456 -59.868169000000066 1.7239857518095152
    vertex -34.636937365771445 -58.8681690000001 2.0989857518095025
    vertex -33.63693736577146 -59.86816900000007 1.7239857518095145
  endloop
endfacet
facet normal 3.2654470844656015e-15 -0.8944271909999209 -0.447213595499948
  outer loop
    vertex -34.13693736577146 -59.36816900000007 1.348985751809518
    vertex -35.094044146958005 -58.8681690000001 0.3489857518095166
    vertex -34.636937365771445 -58.8681690000001 0.3489857518095113
  endloop
endfacet
facet normal 3.2654470844656015e-15 -0.8944271909999209 -0.447213595499948
  outer loop
    vertex -35.094044146958005 -58.8681690000001 0.3489857518095166
    vertex -34.13693736577146 -59.36816900000007 1.348985751809518
    vertex -35.094044146958005 -59.36816900000009 1.348985751809516
  endloop
endfacet
facet normal 3.54250386918719e-16 -0.8320502943378436 0.5547001962252293
  outer loop
    vertex -34.13693736577146 -59.36816900000007 1.348985751809518
    vertex -35.094044146958005 -58.86816900000009 2.098985751809499
    vertex -35.094044146958005 -59.36816900000009 1.348985751809516
  endloop
endfacet
facet normal 3.54250386918719e-16 -0.8320502943378436 0.5547001962252293
  outer loop
    vertex -35.094044146958005 -58.86816900000009 2.098985751809499
    vertex -34.13693736577146 -59.36816900000007 1.348985751809518
    vertex -34.636937365771445 -58.8681690000001 2.0989857518095025
  endloop
endfacet
facet normal 3.164484011894825e-15 -0.8320502943378445 0.5547001962252279
  outer loop
    vertex -29.636937365771445 -58.86816900000007 2.0989857518095048
    vertex -31.551150928144565 -59.368169000000066 1.348985751809522
    vertex -29.13693736577145 -59.36816900000005 1.3489857518095234
  endloop
endfacet
facet normal 3.164484011894825e-15 -0.8320502943378445 0.5547001962252279
  outer loop
    vertex -31.551150928144565 -59.368169000000066 1.348985751809522
    vertex -29.636937365771445 -58.86816900000007 2.0989857518095048
    vertex -31.05115092814457 -58.86816900000007 2.098985751809504
  endloop
endfacet
facet normal 3.808927394597127e-15 -0.8944271909999212 -0.4472135954999473
  outer loop
    vertex -29.13693736577145 -59.36816900000005 1.3489857518095234
    vertex -31.05115092814457 -58.86816900000007 0.3489857518095187
    vertex -29.636937365771445 -58.86816900000007 0.3489857518095194
  endloop
endfacet
facet normal 3.808927394597127e-15 -0.8944271909999212 -0.4472135954999473
  outer loop
    vertex -31.05115092814457 -58.86816900000007 0.3489857518095187
    vertex -29.13693736577145 -59.36816900000005 1.3489857518095234
    vertex -31.551150928144565 -59.368169000000066 1.348985751809522
  endloop
endfacet
facet normal -6.446239602602979e-15 0.8320502943378417 0.5547001962252319
  outer loop
    vertex -35.09404414695798 -69.3681690000001 2.0989857518095
    vertex -34.13693736577142 -68.8681690000001 1.348985751809516
    vertex -35.09404414695798 -68.8681690000001 1.3489857518095152
  endloop
endfacet
facet normal -6.446239602602979e-15 0.8320502943378417 0.5547001962252319
  outer loop
    vertex -34.13693736577142 -68.8681690000001 1.348985751809516
    vertex -35.09404414695798 -69.3681690000001 2.0989857518095
    vertex -34.636937365771416 -69.36816900000008 2.0989857518095025
  endloop
endfacet
facet normal -1.0 -3.795337600373131e-15 -1.141604309112493e-16
  outer loop
    vertex -35.09404414695801 -57.86816900000005 -1.1510142481904972
    vertex -35.094044146958005 -58.8681690000001 -0.15101424819047968
    vertex -35.09404414695801 -57.8681690000001 2.0989857518095056
  endloop
endfacet
facet normal -1.0 -3.795337600373131e-15 -1.141604309112493e-16
  outer loop
    vertex -35.094044146958005 -58.8681690000001 -0.15101424819047968
    vertex -35.09404414695801 -57.86816900000005 -1.1510142481904972
    vertex -35.09404414695796 -70.36816900000015 -1.151014248190486
  endloop
endfacet
facet normal -1.0 -3.795337600373131e-15 -1.141604309112493e-16
  outer loop
    vertex -35.09404414695801 -57.8681690000001 2.0989857518095056
    vertex -35.094044146958005 -58.8681690000001 -0.15101424819047968
    vertex -35.094044146958005 -58.86816900000009 2.098985751809499
  endloop
endfacet
facet normal -1.0 -3.795337600373131e-15 -1.141604309112493e-16
  outer loop
    vertex -35.094044146958005 -58.8681690000001 -0.15101424819047968
    vertex -35.09404414695796 -70.36816900000015 -1.151014248190486
    vertex -35.09404414695798 -69.36816900000008 -0.15101424819048198
  endloop
endfacet
facet normal -1.0 -3.795337600373131e-15 -1.141604309112493e-16
  outer loop
    vertex -35.09404414695798 -69.36816900000008 -0.15101424819048198
    vertex -35.09404414695796 -70.36816900000015 -1.151014248190486
    vertex -35.09404414695798 -69.36816900000008 0.3489857518095143
  endloop
endfacet
facet normal -1.0 -3.795337600373131e-15 -1.141604309112493e-16
  outer loop
    vertex -35.09404414695798 -69.36816900000008 0.3489857518095143
    vertex -35.09404414695796 -70.36816900000015 -1.151014248190486
    vertex -35.09404414695798 -69.3681690000001 2.0989857518095
  endloop
endfacet
facet normal -1.0 -3.795337600373131e-15 -1.141604309112493e-16
  outer loop
    vertex -35.09404414695798 -69.3681690000001 2.0989857518095
    vertex -35.09404414695796 -70.36816900000015 -1.151014248190486
    vertex -35.09404414695796 -70.36816900000008 2.098985751809511
  endloop
endfacet
facet normal -1.0 -3.795337600373131e-15 -1.141604309112493e-16
  outer loop
    vertex -35.09404414695798 -69.3681690000001 2.0989857518095
    vertex -35.09404414695798 -68.8681690000001 1.3489857518095152
    vertex -35.09404414695798 -69.36816900000008 0.3489857518095143
  endloop
endfacet
facet normal -1.0 -3.795337600373131e-15 -1.141604309112493e-16
  outer loop
    vertex -35.094044146958005 -58.86816900000009 2.098985751809499
    vertex -35.094044146958005 -58.8681690000001 0.3489857518095166
    vertex -35.094044146958005 -59.36816900000009 1.348985751809516
  endloop
endfacet
facet normal -1.0 -3.795337600373131e-15 -1.141604309112493e-16
  outer loop
    vertex -35.094044146958005 -58.8681690000001 0.3489857518095166
    vertex -35.094044146958005 -58.86816900000009 2.098985751809499
    vertex -35.094044146958005 -58.8681690000001 -0.15101424819047968
  endloop
endfacet
facet normal -3.523859213130634e-15 0.8944271909999204 -0.4472135954999491
  outer loop
    vertex -35.09404414695798 -69.36816900000008 0.3489857518095143
    vertex -34.13693736577142 -68.8681690000001 1.348985751809516
    vertex -34.636937365771416 -69.36816900000008 0.34898575180951164
  endloop
endfacet
facet normal -3.523859213130634e-15 0.8944271909999204 -0.4472135954999491
  outer loop
    vertex -34.13693736577142 -68.8681690000001 1.348985751809516
    vertex -35.09404414695798 -69.36816900000008 0.3489857518095143
    vertex -35.09404414695798 -68.8681690000001 1.3489857518095152
  endloop
endfacet
facet normal -7.001652427619288e-16 8.05105744421704e-15 1.0
  outer loop
    vertex -29.63693736577142 -69.36816900000007 2.0989857518095
    vertex -27.844044146957973 -68.98948934355971 2.0989857518095048
    vertex -27.844044146957966 -67.5752757811866 2.098985751809487
  endloop
endfacet
facet normal -7.001652427619288e-16 8.05105744421704e-15 1.0
  outer loop
    vertex -27.844044146957973 -68.98948934355971 2.0989857518095048
    vertex -29.63693736577142 -69.36816900000007 2.0989857518095
    vertex -29.222723803398303 -70.36816900000007 2.0989857518095154
  endloop
endfacet
facet normal -7.001652427619288e-16 8.05105744421704e-15 1.0
  outer loop
    vertex -29.222723803398303 -70.36816900000007 2.0989857518095154
    vertex -29.63693736577142 -69.36816900000007 2.0989857518095
    vertex -35.09404414695796 -70.36816900000008 2.098985751809511
  endloop
endfacet
facet normal -7.001652427619288e-16 8.05105744421704e-15 1.0
  outer loop
    vertex -35.09404414695796 -70.36816900000008 2.098985751809511
    vertex -29.63693736577142 -69.36816900000007 2.0989857518095
    vertex -31.05115092814453 -69.36816900000007 2.098985751809499
  endloop
endfacet
facet normal -7.001652427619288e-16 8.05105744421704e-15 1.0
  outer loop
    vertex -35.09404414695796 -70.36816900000008 2.098985751809511
    vertex -31.05115092814453 -69.36816900000007 2.098985751809499
    vertex -34.636937365771416 -69.36816900000008 2.0989857518095025
  endloop
endfacet
facet normal -7.001652427619288e-16 8.05105744421704e-15 1.0
  outer loop
    vertex -35.09404414695796 -70.36816900000008 2.098985751809511
    vertex -34.636937365771416 -69.36816900000008 2.0989857518095025
    vertex -35.09404414695798 -69.3681690000001 2.0989857518095
  endloop
endfacet
facet normal -3.433851177599968e-15 0.8320502943378429 0.5547001962252305
  outer loop
    vertex -31.551150928144526 -68.86816900000008 1.3489857518095199
    vertex -29.63693736577142 -69.36816900000007 2.0989857518095
    vertex -29.13693736577142 -68.86816900000007 1.3489857518095185
  endloop
endfacet
facet normal -3.433851177599968e-15 0.8320502943378429 0.5547001962252305
  outer loop
    vertex -29.63693736577142 -69.36816900000007 2.0989857518095
    vertex -31.551150928144526 -68.86816900000008 1.3489857518095199
    vertex -31.05115092814453 -69.36816900000007 2.098985751809499
  endloop
endfacet
facet normal -3.172183684085752e-15 0.8944271909999205 -0.4472135954999487
  outer loop
    vertex -31.05115092814454 -69.36816900000007 0.3489857518095164
    vertex -29.13693736577142 -68.86816900000007 1.3489857518095185
    vertex -29.63693736577142 -69.36816900000007 0.3489857518095143
  endloop
endfacet
facet normal -3.172183684085752e-15 0.8944271909999205 -0.4472135954999487
  outer loop
    vertex -29.13693736577142 -68.86816900000007 1.3489857518095185
    vertex -31.05115092814454 -69.36816900000007 0.3489857518095164
    vertex -31.551150928144526 -68.86816900000008 1.3489857518095199
  endloop
endfacet
facet normal -4.933565971061581e-16 -5.801162973445006e-16 -1.0
  outer loop
    vertex -27.844044146957984 -68.98948934355973 -1.151014248190499
    vertex -29.222723803398363 -57.86816900000003 -1.1510142481904944
    vertex -27.844044146958 -59.246848656440434 -1.1510142481904913
  endloop
endfacet
facet normal -4.933565971061581e-16 -5.801162973445006e-16 -1.0
  outer loop
    vertex -29.222723803398363 -57.86816900000003 -1.1510142481904944
    vertex -27.844044146957984 -68.98948934355973 -1.151014248190499
    vertex -29.222723803398303 -70.36816900000012 -1.151014248190483
  endloop
endfacet
facet normal -4.933565971061581e-16 -5.801162973445006e-16 -1.0
  outer loop
    vertex -29.222723803398363 -57.86816900000003 -1.1510142481904944
    vertex -29.222723803398303 -70.36816900000012 -1.151014248190483
    vertex -35.09404414695796 -70.36816900000015 -1.151014248190486
  endloop
endfacet
facet normal -4.933565971061581e-16 -5.801162973445006e-16 -1.0
  outer loop
    vertex -29.222723803398363 -57.86816900000003 -1.1510142481904944
    vertex -35.09404414695796 -70.36816900000015 -1.151014248190486
    vertex -35.09404414695801 -57.86816900000005 -1.1510142481904972
  endloop
endfacet
facet normal -1.1849049884444739e-15 0.3511234415883855 0.9363291775690469
  outer loop
    vertex -32.05115092814453 -68.36816900000008 1.7239857518095136
    vertex -34.636937365771416 -69.36816900000008 2.0989857518095025
    vertex -31.05115092814453 -69.36816900000007 2.098985751809499
  endloop
endfacet
facet normal -1.1849049884444739e-15 0.3511234415883855 0.9363291775690469
  outer loop
    vertex -34.636937365771416 -69.36816900000008 2.0989857518095025
    vertex -32.05115092814453 -68.36816900000008 1.7239857518095136
    vertex -33.63693736577143 -68.3681690000001 1.7239857518095127
  endloop
endfacet
facet normal -3.795337600373131e-15 1.0 2.220446049250294e-16
  outer loop
    vertex -33.63693736577143 -68.3681690000001 1.7239857518095127
    vertex -32.05115092814454 -68.36816900000008 -0.1510142481904774
    vertex -33.63693736577143 -68.3681690000001 -0.1510142481904783
  endloop
endfacet
facet normal -3.795337600373131e-15 1.0 2.220446049250294e-16
  outer loop
    vertex -32.05115092814454 -68.36816900000008 -0.1510142481904774
    vertex -33.63693736577143 -68.3681690000001 1.7239857518095127
    vertex -32.05115092814453 -68.36816900000008 1.7239857518095136
  endloop
endfacet
facet normal -0.7071067811865538 0.7071067811865412 -3.431884155856796e-16
  outer loop
    vertex -34.636937365771416 -69.36816900000008 -0.15101424819048462
    vertex -34.13693736577142 -68.8681690000001 1.348985751809516
    vertex -33.63693736577143 -68.3681690000001 -0.1510142481904783
  endloop
endfacet
facet normal -0.7071067811865538 0.7071067811865412 -3.431884155856796e-16
  outer loop
    vertex -34.13693736577142 -68.8681690000001 1.348985751809516
    vertex -34.636937365771416 -69.36816900000008 -0.15101424819048462
    vertex -34.636937365771416 -69.36816900000008 0.34898575180951164
  endloop
endfacet
facet normal -0.7071067811865538 0.7071067811865412 -3.431884155856796e-16
  outer loop
    vertex -33.63693736577143 -68.3681690000001 1.7239857518095127
    vertex -34.13693736577142 -68.8681690000001 1.348985751809516
    vertex -34.636937365771416 -69.36816900000008 2.0989857518095025
  endloop
endfacet
facet normal -0.7071067811865538 0.7071067811865412 -3.431884155856796e-16
  outer loop
    vertex -34.13693736577142 -68.8681690000001 1.348985751809516
    vertex -33.63693736577143 -68.3681690000001 1.7239857518095127
    vertex -33.63693736577143 -68.3681690000001 -0.1510142481904783
  endloop
endfacet
facet normal 0.7071067811865422 0.7071067811865528 9.353695278284601e-16
  outer loop
    vertex -32.05115092814454 -68.36816900000008 -0.1510142481904774
    vertex -31.05115092814454 -69.36816900000007 0.3489857518095164
    vertex -31.05115092814454 -69.36816900000007 -0.15101424819047987
  endloop
endfacet
facet normal 0.7071067811865422 0.7071067811865528 9.353695278284601e-16
  outer loop
    vertex -31.05115092814454 -69.36816900000007 0.3489857518095164
    vertex -32.05115092814454 -68.36816900000008 -0.1510142481904774
    vertex -32.05115092814453 -68.36816900000008 1.7239857518095136
  endloop
endfacet
facet normal 0.7071067811865422 0.7071067811865528 9.353695278284601e-16
  outer loop
    vertex -31.05115092814454 -69.36816900000007 0.3489857518095164
    vertex -32.05115092814453 -68.36816900000008 1.7239857518095136
    vertex -31.551150928144526 -68.86816900000008 1.3489857518095199
  endloop
endfacet
facet normal 0.7071067811865422 0.7071067811865528 9.353695278284601e-16
  outer loop
    vertex -31.551150928144526 -68.86816900000008 1.3489857518095199
    vertex -32.05115092814453 -68.36816900000008 1.7239857518095136
    vertex -31.05115092814453 -69.36816900000007 2.098985751809499
  endloop
endfacet
facet normal -3.795337600373131e-15 1.0 2.220446049250294e-16
  outer loop
    vertex -31.05115092814454 -69.36816900000007 -0.15101424819047987
    vertex -29.63693736577142 -69.36816900000007 0.3489857518095143
    vertex -29.63693736577142 -69.36816900000007 -0.15101424819048198
  endloop
endfacet
facet normal -3.795337600373131e-15 1.0 2.220446049250294e-16
  outer loop
    vertex -29.63693736577142 -69.36816900000007 0.3489857518095143
    vertex -31.05115092814454 -69.36816900000007 -0.15101424819047987
    vertex -31.05115092814454 -69.36816900000007 0.3489857518095164
  endloop
endfacet
facet normal -3.795337600373131e-15 1.0 2.220446049250294e-16
  outer loop
    vertex -35.09404414695798 -69.36816900000008 -0.15101424819048198
    vertex -34.636937365771416 -69.36816900000008 0.34898575180951164
    vertex -34.636937365771416 -69.36816900000008 -0.15101424819048462
  endloop
endfacet
facet normal -3.795337600373131e-15 1.0 2.220446049250294e-16
  outer loop
    vertex -34.636937365771416 -69.36816900000008 0.34898575180951164
    vertex -35.09404414695798 -69.36816900000008 -0.15101424819048198
    vertex -35.09404414695798 -69.36816900000008 0.3489857518095143
  endloop
endfacet
facet normal 1.896389066122228e-16 -2.2204460492502887e-16 1.0
  outer loop
    vertex -29.636937365771445 -58.86816900000007 -0.15101424819047687
    vertex -27.844044146957977 -67.5752757811866 -0.1510142481904892
    vertex -27.844044146957994 -60.66106221881352 -0.1510142481904862
  endloop
endfacet
facet normal 1.896389066122228e-16 -2.2204460492502887e-16 1.0
  outer loop
    vertex -27.844044146957977 -67.5752757811866 -0.1510142481904892
    vertex -29.636937365771445 -58.86816900000007 -0.15101424819047687
    vertex -29.63693736577142 -69.36816900000007 -0.15101424819048198
  endloop
endfacet
facet normal 1.896389066122228e-16 -2.2204460492502887e-16 1.0
  outer loop
    vertex -29.63693736577142 -69.36816900000007 -0.15101424819048198
    vertex -29.636937365771445 -58.86816900000007 -0.15101424819047687
    vertex -31.05115092814457 -58.86816900000007 -0.15101424819047757
  endloop
endfacet
facet normal 1.896389066122228e-16 -2.2204460492502887e-16 1.0
  outer loop
    vertex -29.63693736577142 -69.36816900000007 -0.15101424819048198
    vertex -31.05115092814457 -58.86816900000007 -0.15101424819047757
    vertex -31.05115092814454 -69.36816900000007 -0.15101424819047987
  endloop
endfacet
facet normal 1.896389066122228e-16 -2.2204460492502887e-16 1.0
  outer loop
    vertex -31.05115092814454 -69.36816900000007 -0.15101424819047987
    vertex -31.05115092814457 -58.86816900000007 -0.15101424819047757
    vertex -32.05115092814456 -59.868169000000066 -0.15101424819047546
  endloop
endfacet
facet normal 1.896389066122228e-16 -2.2204460492502887e-16 1.0
  outer loop
    vertex -31.05115092814454 -69.36816900000007 -0.15101424819047987
    vertex -32.05115092814456 -59.868169000000066 -0.15101424819047546
    vertex -32.05115092814454 -68.36816900000008 -0.1510142481904774
  endloop
endfacet
facet normal 1.896389066122228e-16 -2.2204460492502887e-16 1.0
  outer loop
    vertex -32.05115092814454 -68.36816900000008 -0.1510142481904774
    vertex -32.05115092814456 -59.868169000000066 -0.15101424819047546
    vertex -33.63693736577146 -59.868169000000066 -0.15101424819047635
  endloop
endfacet
facet normal 1.896389066122228e-16 -2.2204460492502887e-16 1.0
  outer loop
    vertex -32.05115092814454 -68.36816900000008 -0.1510142481904774
    vertex -33.63693736577146 -59.868169000000066 -0.15101424819047635
    vertex -33.63693736577143 -68.3681690000001 -0.1510142481904783
  endloop
endfacet
facet normal 1.896389066122228e-16 -2.2204460492502887e-16 1.0
  outer loop
    vertex -33.63693736577143 -68.3681690000001 -0.1510142481904783
    vertex -33.63693736577146 -59.868169000000066 -0.15101424819047635
    vertex -34.636937365771445 -58.8681690000001 -0.15101424819048498
  endloop
endfacet
facet normal 1.896389066122228e-16 -2.2204460492502887e-16 1.0
  outer loop
    vertex -33.63693736577143 -68.3681690000001 -0.1510142481904783
    vertex -34.636937365771445 -58.8681690000001 -0.15101424819048498
    vertex -34.636937365771416 -69.36816900000008 -0.15101424819048462
  endloop
endfacet
facet normal 1.896389066122228e-16 -2.2204460492502887e-16 1.0
  outer loop
    vertex -34.636937365771416 -69.36816900000008 -0.15101424819048462
    vertex -34.636937365771445 -58.8681690000001 -0.15101424819048498
    vertex -35.094044146958005 -58.8681690000001 -0.15101424819047968
  endloop
endfacet
facet normal 1.896389066122228e-16 -2.2204460492502887e-16 1.0
  outer loop
    vertex -34.636937365771416 -69.36816900000008 -0.15101424819048462
    vertex -35.094044146958005 -58.8681690000001 -0.15101424819047968
    vertex -35.09404414695798 -69.36816900000008 -0.15101424819048198
  endloop
endfacet
facet normal -0.7071067811865523 0.7071067811865427 -1.1053376814002811e-15
  outer loop
    vertex -29.63693736577142 -69.36816900000007 -0.15101424819048198
    vertex -29.13693736577142 -68.86816900000007 1.3489857518095185
    vertex -27.844044146957977 -67.5752757811866 -0.1510142481904892
  endloop
endfacet
facet normal -0.7071067811865523 0.7071067811865427 -1.1053376814002811e-15
  outer loop
    vertex -29.13693736577142 -68.86816900000007 1.3489857518095185
    vertex -29.63693736577142 -69.36816900000007 -0.15101424819048198
    vertex -29.63693736577142 -69.36816900000007 0.3489857518095143
  endloop
endfacet
facet normal -0.7071067811865523 0.7071067811865427 -1.1053376814002811e-15
  outer loop
    vertex -27.844044146957977 -67.5752757811866 -0.1510142481904892
    vertex -29.63693736577142 -69.36816900000007 2.0989857518095
    vertex -27.844044146957966 -67.5752757811866 2.098985751809487
  endloop
endfacet
facet normal -0.7071067811865523 0.7071067811865427 -1.1053376814002811e-15
  outer loop
    vertex -29.63693736577142 -69.36816900000007 2.0989857518095
    vertex -27.844044146957977 -67.5752757811866 -0.1510142481904892
    vertex -29.13693736577142 -68.86816900000007 1.3489857518095185
  endloop
endfacet
facet normal -0.7071067811865462 -0.7071067811865488 3.787745056503832e-16
  outer loop
    vertex -29.636937365771445 -58.86816900000007 -0.15101424819047687
    vertex -29.13693736577145 -59.36816900000005 1.3489857518095234
    vertex -29.636937365771445 -58.86816900000007 0.3489857518095194
  endloop
endfacet
facet normal -0.7071067811865462 -0.7071067811865488 3.787745056503832e-16
  outer loop
    vertex -29.13693736577145 -59.36816900000005 1.3489857518095234
    vertex -29.636937365771445 -58.86816900000007 -0.15101424819047687
    vertex -27.844044146957994 -60.66106221881352 -0.1510142481904862
  endloop
endfacet
facet normal -0.7071067811865462 -0.7071067811865488 3.787745056503832e-16
  outer loop
    vertex -29.13693736577145 -59.36816900000005 1.3489857518095234
    vertex -27.844044146957994 -60.66106221881352 2.09898575180949
    vertex -29.636937365771445 -58.86816900000007 2.0989857518095048
  endloop
endfacet
facet normal -0.7071067811865462 -0.7071067811865488 3.787745056503832e-16
  outer loop
    vertex -27.844044146957994 -60.66106221881352 2.09898575180949
    vertex -29.13693736577145 -59.36816900000005 1.3489857518095234
    vertex -27.844044146957994 -60.66106221881352 -0.1510142481904862
  endloop
endfacet
facet normal 1.0 3.41034767123834e-15 -8.141554714492921e-16
  outer loop
    vertex -27.844044146957994 -60.66106221881352 2.09898575180949
    vertex -27.844044146957994 -60.66106221881352 -0.1510142481904862
    vertex -27.844044146958 -59.24684865644045 2.0989857518095123
  endloop
endfacet
facet normal 1.0 3.41034767123834e-15 -8.141554714492921e-16
  outer loop
    vertex -27.844044146957973 -68.98948934355971 2.0989857518095048
    vertex -27.844044146957977 -67.5752757811866 -0.1510142481904892
    vertex -27.844044146957966 -67.5752757811866 2.098985751809487
  endloop
endfacet
facet normal 1.0 3.41034767123834e-15 -8.141554714492921e-16
  outer loop
    vertex -27.844044146958 -59.246848656440434 -1.1510142481904913
    vertex -27.844044146957994 -60.66106221881352 -0.1510142481904862
    vertex -27.844044146957984 -68.98948934355973 -1.151014248190499
  endloop
endfacet
facet normal 1.0 3.41034767123834e-15 -8.141554714492921e-16
  outer loop
    vertex -27.844044146957994 -60.66106221881352 -0.1510142481904862
    vertex -27.844044146958 -59.246848656440434 -1.1510142481904913
    vertex -27.844044146958 -59.24684865644045 2.0989857518095123
  endloop
endfacet
facet normal 1.0 3.41034767123834e-15 -8.141554714492921e-16
  outer loop
    vertex -27.844044146957984 -68.98948934355973 -1.151014248190499
    vertex -27.844044146957994 -60.66106221881352 -0.1510142481904862
    vertex -27.844044146957977 -67.5752757811866 -0.1510142481904892
  endloop
endfacet
facet normal 1.0 3.41034767123834e-15 -8.141554714492921e-16
  outer loop
    vertex -27.844044146957984 -68.98948934355973 -1.151014248190499
    vertex -27.844044146957977 -67.5752757811866 -0.1510142481904892
    vertex -27.844044146957973 -68.98948934355971 2.0989857518095048
  endloop
endfacet
facet normal 0.7071067811865531 0.7071067811865419 5.032248922907134e-15
  outer loop
    vertex -29.222723803398363 -57.86816900000008 2.098985751809511
    vertex -27.844044146958 -59.246848656440434 -1.1510142481904913
    vertex -29.222723803398363 -57.86816900000003 -1.1510142481904944
  endloop
endfacet
facet normal 0.7071067811865531 0.7071067811865419 5.032248922907134e-15
  outer loop
    vertex -27.844044146958 -59.246848656440434 -1.1510142481904913
    vertex -29.222723803398363 -57.86816900000008 2.098985751809511
    vertex -27.844044146958 -59.24684865644045 2.0989857518095123
  endloop
endfacet
facet normal 0.7071067811865569 -0.7071067811865381 6.862905309106537e-15
  outer loop
    vertex -29.222723803398303 -70.36816900000007 2.0989857518095154
    vertex -27.844044146957984 -68.98948934355973 -1.151014248190499
    vertex -27.844044146957973 -68.98948934355971 2.0989857518095048
  endloop
endfacet
facet normal 0.7071067811865569 -0.7071067811865381 6.862905309106537e-15
  outer loop
    vertex -27.844044146957984 -68.98948934355973 -1.151014248190499
    vertex -29.222723803398303 -70.36816900000007 2.0989857518095154
    vertex -29.222723803398303 -70.36816900000012 -1.151014248190483
  endloop
endfacet
facet normal 3.795337600373123e-15 -1.0 1.6046992794389792e-14
  outer loop
    vertex -29.222723803398303 -70.36816900000007 2.0989857518095154
    vertex -35.09404414695796 -70.36816900000015 -1.151014248190486
    vertex -29.222723803398303 -70.36816900000012 -1.151014248190483
  endloop
endfacet
facet normal 3.795337600373123e-15 -1.0 1.6046992794389792e-14
  outer loop
    vertex -35.09404414695796 -70.36816900000015 -1.151014248190486
    vertex -29.222723803398303 -70.36816900000007 2.0989857518095154
    vertex -35.09404414695796 -70.36816900000008 2.098985751809511
  endloop
endfacet
facet normal -3.795337600373136e-15 1.0 1.128499003645908e-14
  outer loop
    vertex -35.09404414695801 -57.8681690000001 2.0989857518095056
    vertex -29.222723803398363 -57.86816900000003 -1.1510142481904944
    vertex -35.09404414695801 -57.86816900000005 -1.1510142481904972
  endloop
endfacet
facet normal -3.795337600373136e-15 1.0 1.128499003645908e-14
  outer loop
    vertex -29.222723803398363 -57.86816900000003 -1.1510142481904944
    vertex -35.09404414695801 -57.8681690000001 2.0989857518095056
    vertex -29.222723803398363 -57.86816900000008 2.098985751809511
  endloop
endfacet
endsolid ProtoGlove
