solid ProtoGlove
facet normal 6.063246727752179e-16 -0.35112344158791636 0.9363291775692227
  outer loop
    vertex -4.6369373657713755 21.131831000001444 2.0989857518500483
    vertex -2.0511509281445095 20.13183100000127 1.7239857518505617
    vertex -1.0511509281445168 21.131831000001455 2.0989857518500528
  endloop
endfacet
facet normal 6.063246727752179e-16 -0.35112344158791636 0.9363291775692227
  outer loop
    vertex -2.0511509281445095 20.13183100000127 1.7239857518505617
    vertex -4.6369373657713755 21.131831000001444 2.0989857518500483
    vertex -3.636937365771394 20.13183100000127 1.723985751850561
  endloop
endfacet
facet normal -4.289342803370794e-15 0.8944271909996963 -0.4472135955003974
  outer loop
    vertex -12.844044146957927 10.631831000000542 0.3489857518553463
    vertex -4.136937365771369 11.131831000001071 1.3489857518550747
    vertex -4.636937365771361 10.631831000000565 0.34898575185532216
  endloop
endfacet
facet normal -4.289342803370794e-15 0.8944271909996963 -0.4472135955003974
  outer loop
    vertex -4.136937365771369 11.131831000001071 1.3489857518550747
    vertex -12.844044146957927 10.631831000000542 0.3489857518553463
    vertex -12.844044146957927 11.131831000001036 1.3489857518550958
  endloop
endfacet
facet normal -5.555913843451455e-16 1.0 -5.035844911391522e-13
  outer loop
    vertex -3.63693736577137 11.631831000001265 1.7239857518548198
    vertex -2.0511509281444784 11.631831000000311 -0.1510142481451706
    vertex -3.6369373657713857 11.631831000000311 -0.15101424814517111
  endloop
endfacet
facet normal -5.555913843451455e-16 1.0 -5.035844911391522e-13
  outer loop
    vertex -2.0511509281444784 11.631831000000311 -0.1510142481451706
    vertex -3.63693736577137 11.631831000001265 1.7239857518548198
    vertex -2.0511509281444855 11.631831000001265 1.72398575185482
  endloop
endfacet
facet normal -1.0 -3.2588447244810146e-15 2.670498664309593e-15
  outer loop
    vertex -12.84404414695796 22.131830999999806 -1.15101424815043
    vertex -12.844044146957948 21.131831000000282 -0.1510142481499104
    vertex -12.844044146957948 22.131831000001405 2.0989857518495767
  endloop
endfacet
facet normal -1.0 -3.2588447244810146e-15 2.670498664309593e-15
  outer loop
    vertex -12.844044146957948 21.131831000000282 -0.1510142481499104
    vertex -12.84404414695796 22.131830999999806 -1.15101424815043
    vertex -12.844044146957915 9.631830999999739 -1.1510142481441537
  endloop
endfacet
facet normal -1.0 -3.2588447244810146e-15 2.670498664309593e-15
  outer loop
    vertex -12.844044146957948 21.131831000000282 -0.1510142481499104
    vertex -12.844044146957915 9.631830999999739 -1.1510142481441537
    vertex -12.844044146957927 10.63183100000029 -0.15101424814464995
  endloop
endfacet
facet normal -1.0 -3.2588447244810146e-15 2.670498664309593e-15
  outer loop
    vertex -12.844044146957927 10.63183100000029 -0.15101424814464995
    vertex -12.844044146957915 9.631830999999739 -1.1510142481441537
    vertex -12.844044146957927 10.631831000000542 0.3489857518553463
  endloop
endfacet
facet normal -1.0 -3.2588447244810146e-15 2.670498664309593e-15
  outer loop
    vertex -12.844044146957927 10.631831000000542 0.3489857518553463
    vertex -12.844044146957915 9.631830999999739 -1.1510142481441537
    vertex -12.844044146957927 10.631831000001416 2.0989857518553316
  endloop
endfacet
facet normal -1.0 -3.2588447244810146e-15 2.670498664309593e-15
  outer loop
    vertex -12.844044146957927 10.631831000001416 2.0989857518553316
    vertex -12.844044146957915 9.631830999999739 -1.1510142481441537
    vertex -12.844044146957915 9.631831000001418 2.0989857518558463
  endloop
endfacet
facet normal -1.0 -3.2588447244810146e-15 2.670498664309593e-15
  outer loop
    vertex -12.844044146957927 10.631831000001416 2.0989857518553316
    vertex -12.844044146957927 11.131831000001036 1.3489857518550958
    vertex -12.844044146957927 10.631831000000542 0.3489857518553463
  endloop
endfacet
facet normal -1.0 -3.2588447244810146e-15 2.670498664309593e-15
  outer loop
    vertex -12.844044146957948 21.131831000000282 -0.1510142481499104
    vertex -12.844044146957938 21.13183100000142 2.098985751850071
    vertex -12.844044146957948 22.131831000001405 2.0989857518495767
  endloop
endfacet
facet normal -1.0 -3.2588447244810146e-15 2.670498664309593e-15
  outer loop
    vertex -12.844044146957938 21.13183100000142 2.098985751850071
    vertex -12.844044146957948 21.131831000000282 -0.1510142481499104
    vertex -12.844044146957948 21.13183100000052 0.34898575185008585
  endloop
endfacet
facet normal -1.0 -3.2588447244810146e-15 2.670498664309593e-15
  outer loop
    vertex -12.844044146957938 21.13183100000142 2.098985751850071
    vertex -12.844044146957948 21.13183100000052 0.34898575185008585
    vertex -12.844044146957938 20.631831000001043 1.3489857518503354
  endloop
endfacet
facet normal 1.5402558622765298e-15 -0.894427191000145 -0.4472135954994997
  outer loop
    vertex -4.136937365771399 20.631831000001085 1.348985751850314
    vertex -12.844044146957948 21.13183100000052 0.34898575185008585
    vertex -4.636937365771385 21.13183100000057 0.34898575185005887
  endloop
endfacet
facet normal 1.5402558622765298e-15 -0.894427191000145 -0.4472135954994997
  outer loop
    vertex -12.844044146957948 21.13183100000052 0.34898575185008585
    vertex -4.136937365771399 20.631831000001085 1.348985751850314
    vertex -12.844044146957938 20.631831000001043 1.3489857518503354
  endloop
endfacet
facet normal -3.720414225822063e-15 1.0 -4.997009309990158e-13
  outer loop
    vertex -1.0511509281444915 10.631831000000588 0.3489857518553206
    vertex 7.155955853042055 10.631831000000371 -0.15101424814464906
    vertex -1.0511509281444915 10.631831000000336 -0.15101424814467568
  endloop
endfacet
facet normal -3.720414225822063e-15 1.0 -4.997009309990158e-13
  outer loop
    vertex 7.155955853042055 10.631831000000371 -0.15101424814464906
    vertex -1.0511509281444915 10.631831000000588 0.3489857518553206
    vertex 7.155955853042055 10.631831000000624 0.3489857518553472
  endloop
endfacet
facet normal -6.377614485904388e-15 1.0 -6.585524953803131e-13
  outer loop
    vertex -12.844044146957948 22.131831000001405 2.0989857518495767
    vertex 7.15595585304202 22.131830999999924 -1.1510142481504164
    vertex -12.84404414695796 22.131830999999806 -1.15101424815043
  endloop
endfacet
facet normal -6.377614485904388e-15 1.0 -6.585524953803131e-13
  outer loop
    vertex 7.15595585304202 22.131830999999924 -1.1510142481504164
    vertex -12.844044146957948 22.131831000001405 2.0989857518495767
    vertex 7.155955853042019 22.131831000001487 2.0989857518495803
  endloop
endfacet
facet normal 0.7071067811865468 0.7071067811865482 -3.5291705856746457e-13
  outer loop
    vertex -2.0511509281444784 11.631831000000311 -0.1510142481451706
    vertex -1.0511509281444915 10.631831000000588 0.3489857518553206
    vertex -1.0511509281444915 10.631831000000336 -0.15101424814467568
  endloop
endfacet
facet normal 0.7071067811865468 0.7071067811865482 -3.5291705856746457e-13
  outer loop
    vertex -1.0511509281444915 10.631831000000588 0.3489857518553206
    vertex -2.0511509281444784 11.631831000000311 -0.1510142481451706
    vertex -2.0511509281444855 11.631831000001265 1.72398575185482
  endloop
endfacet
facet normal 0.7071067811865468 0.7071067811865482 -3.5291705856746457e-13
  outer loop
    vertex -1.0511509281444915 10.631831000000588 0.3489857518553206
    vertex -2.0511509281444855 11.631831000001265 1.72398575185482
    vertex -1.5511509281444806 11.131831000001071 1.3489857518550754
  endloop
endfacet
facet normal 0.7071067811865468 0.7071067811865482 -3.5291705856746457e-13
  outer loop
    vertex -1.5511509281444806 11.131831000001071 1.3489857518550754
    vertex -2.0511509281444855 11.631831000001265 1.72398575185482
    vertex -1.0511509281445042 10.631831000001462 2.0989857518553103
  endloop
endfacet
facet normal -4.45519960076943e-15 0.83205029433812 0.5547001962248149
  outer loop
    vertex -12.844044146957927 11.131831000001036 1.3489857518550958
    vertex -4.636937365771363 10.631831000001451 2.098985751855312
    vertex -4.136937365771369 11.131831000001071 1.3489857518550747
  endloop
endfacet
facet normal -4.45519960076943e-15 0.83205029433812 0.5547001962248149
  outer loop
    vertex -4.636937365771363 10.631831000001451 2.098985751855312
    vertex -12.844044146957927 11.131831000001036 1.3489857518550958
    vertex -12.844044146957927 10.631831000001416 2.0989857518553316
  endloop
endfacet
facet normal 0.7071067811865533 -0.7071067811865417 3.559199337189479e-13
  outer loop
    vertex -2.0511509281445095 20.13183100000127 1.7239857518505617
    vertex -1.5511509281445104 20.631831000001085 1.3489857518503152
    vertex -1.0511509281445168 21.131831000001455 2.0989857518500528
  endloop
endfacet
facet normal 0.7071067811865533 -0.7071067811865417 3.559199337189479e-13
  outer loop
    vertex -1.5511509281445104 20.631831000001085 1.3489857518503152
    vertex -2.0511509281445095 20.13183100000127 1.7239857518505617
    vertex -2.0511509281444913 20.13183100000034 -0.15101424814942943
  endloop
endfacet
facet normal 0.7071067811865533 -0.7071067811865417 3.559199337189479e-13
  outer loop
    vertex -1.0511509281445155 21.13183100000058 0.34898575185006137
    vertex -2.0511509281444913 20.13183100000034 -0.15101424814942943
    vertex -1.0511509281445155 21.13183100000033 -0.15101424814993492
  endloop
endfacet
facet normal 0.7071067811865533 -0.7071067811865417 3.559199337189479e-13
  outer loop
    vertex -2.0511509281444913 20.13183100000034 -0.15101424814942943
    vertex -1.0511509281445155 21.13183100000058 0.34898575185006137
    vertex -1.5511509281445104 20.631831000001085 1.3489857518503152
  endloop
endfacet
facet normal 6.220949681317076e-15 -1.0 6.777861129277379e-13
  outer loop
    vertex 7.1559558530420535 9.6318310000015 2.0989857518558357
    vertex -12.844044146957915 9.631830999999739 -1.1510142481441537
    vertex 7.155955853042067 9.631830999999833 -1.1510142481441668
  endloop
endfacet
facet normal 6.220949681317076e-15 -1.0 6.777861129277379e-13
  outer loop
    vertex -12.844044146957915 9.631830999999739 -1.1510142481441537
    vertex 7.1559558530420535 9.6318310000015 2.0989857518558357
    vertex -12.844044146957915 9.631831000001418 2.0989857518558463
  endloop
endfacet
facet normal 3.8428789057367985e-15 -1.0 5.023959745784918e-13
  outer loop
    vertex -4.636937365771385 21.13183100000057 0.34898575185005887
    vertex -12.844044146957948 21.131831000000282 -0.1510142481499104
    vertex -4.636937365771385 21.131831000000318 -0.15101424814993739
  endloop
endfacet
facet normal 3.8428789057367985e-15 -1.0 5.023959745784918e-13
  outer loop
    vertex -12.844044146957948 21.131831000000282 -0.1510142481499104
    vertex -4.636937365771385 21.13183100000057 0.34898575185005887
    vertex -12.844044146957948 21.13183100000052 0.34898575185008585
  endloop
endfacet
facet normal 1.0001604662272855e-15 -1.0 4.978192263303875e-13
  outer loop
    vertex -2.0511509281445095 20.13183100000127 1.7239857518505617
    vertex -3.636937365771398 20.13183100000034 -0.1510142481494298
    vertex -2.0511509281444913 20.13183100000034 -0.15101424814942943
  endloop
endfacet
facet normal 1.0001604662272855e-15 -1.0 4.978192263303875e-13
  outer loop
    vertex -3.636937365771398 20.13183100000034 -0.1510142481494298
    vertex -2.0511509281445095 20.13183100000127 1.7239857518505617
    vertex -3.636937365771394 20.13183100000127 1.723985751850561
  endloop
endfacet
facet normal -9.852044292219342e-16 4.921166274437453e-13 1.0
  outer loop
    vertex 7.155955853042019 22.131831000001487 2.0989857518495803
    vertex -1.0511509281445168 21.131831000001455 2.0989857518500528
    vertex 7.1559558530420295 21.1318310000015 2.0989857518500696
  endloop
endfacet
facet normal -9.852044292219342e-16 4.921166274437453e-13 1.0
  outer loop
    vertex -1.0511509281445168 21.131831000001455 2.0989857518500528
    vertex 7.155955853042019 22.131831000001487 2.0989857518495803
    vertex -12.844044146957948 22.131831000001405 2.0989857518495767
  endloop
endfacet
facet normal -9.852044292219342e-16 4.921166274437453e-13 1.0
  outer loop
    vertex -1.0511509281445168 21.131831000001455 2.0989857518500528
    vertex -12.844044146957948 22.131831000001405 2.0989857518495767
    vertex -4.6369373657713755 21.131831000001444 2.0989857518500483
  endloop
endfacet
facet normal -9.852044292219342e-16 4.921166274437453e-13 1.0
  outer loop
    vertex -4.6369373657713755 21.131831000001444 2.0989857518500483
    vertex -12.844044146957948 22.131831000001405 2.0989857518495767
    vertex -12.844044146957938 21.13183100000142 2.098985751850071
  endloop
endfacet
facet normal 1.6338002115887274e-16 -6.680825359544649e-13 -1.0
  outer loop
    vertex -12.844044146957915 9.631830999999739 -1.1510142481441537
    vertex 7.15595585304202 22.131830999999924 -1.1510142481504164
    vertex 7.155955853042067 9.631830999999833 -1.1510142481441668
  endloop
endfacet
facet normal 1.6338002115887274e-16 -6.680825359544649e-13 -1.0
  outer loop
    vertex 7.15595585304202 22.131830999999924 -1.1510142481504164
    vertex -12.844044146957915 9.631830999999739 -1.1510142481441537
    vertex -12.84404414695796 22.131830999999806 -1.15101424815043
  endloop
endfacet
facet normal -0.7071067811865535 0.7071067811865416 -3.527817380859404e-13
  outer loop
    vertex -4.636937365771361 10.631831000000325 -0.1510142481446741
    vertex -3.63693736577137 11.631831000001265 1.7239857518548198
    vertex -3.6369373657713857 11.631831000000311 -0.15101424814517111
  endloop
endfacet
facet normal -0.7071067811865535 0.7071067811865416 -3.527817380859404e-13
  outer loop
    vertex -3.63693736577137 11.631831000001265 1.7239857518548198
    vertex -4.636937365771361 10.631831000000325 -0.1510142481446741
    vertex -4.136937365771369 11.131831000001071 1.3489857518550747
  endloop
endfacet
facet normal -0.7071067811865535 0.7071067811865416 -3.527817380859404e-13
  outer loop
    vertex -4.136937365771369 11.131831000001071 1.3489857518550747
    vertex -4.636937365771361 10.631831000000325 -0.1510142481446741
    vertex -4.636937365771361 10.631831000000565 0.34898575185532216
  endloop
endfacet
facet normal -0.7071067811865535 0.7071067811865416 -3.527817380859404e-13
  outer loop
    vertex -4.636937365771363 10.631831000001451 2.098985751855312
    vertex -3.63693736577137 11.631831000001265 1.7239857518548198
    vertex -4.136937365771369 11.131831000001071 1.3489857518550747
  endloop
endfacet
facet normal 1.4525122781621053e-15 -0.8320502943375656 0.5547001962256464
  outer loop
    vertex -4.6369373657713755 21.131831000001444 2.0989857518500483
    vertex -12.844044146957938 20.631831000001043 1.3489857518503354
    vertex -4.136937365771399 20.631831000001085 1.348985751850314
  endloop
endfacet
facet normal 1.4525122781621053e-15 -0.8320502943375656 0.5547001962256464
  outer loop
    vertex -12.844044146957938 20.631831000001043 1.3489857518503354
    vertex -4.6369373657713755 21.131831000001444 2.0989857518500483
    vertex -12.844044146957938 21.13183100000142 2.098985751850071
  endloop
endfacet
facet normal 4.250739775538875e-15 -0.8944271910001445 -0.4472135954995011
  outer loop
    vertex 7.155955853042031 21.131831000000616 0.3489857518500851
    vertex -1.5511509281445104 20.631831000001085 1.3489857518503152
    vertex -1.0511509281445155 21.13183100000058 0.34898575185006137
  endloop
endfacet
facet normal 4.250739775538875e-15 -0.8944271910001445 -0.4472135954995011
  outer loop
    vertex -1.5511509281445104 20.631831000001085 1.3489857518503152
    vertex 7.155955853042031 21.131831000000616 0.3489857518500851
    vertex 7.155955853042031 20.63183100000112 1.3489857518503363
  endloop
endfacet
facet normal -1.3597874108027678e-15 0.894427190999697 -0.4472135955003961
  outer loop
    vertex -1.5511509281444806 11.131831000001071 1.3489857518550754
    vertex 7.155955853042055 10.631831000000624 0.3489857518553472
    vertex -1.0511509281444915 10.631831000000588 0.3489857518553206
  endloop
endfacet
facet normal -1.3597874108027678e-15 0.894427190999697 -0.4472135955003961
  outer loop
    vertex 7.155955853042055 10.631831000000624 0.3489857518553472
    vertex -1.5511509281444806 11.131831000001071 1.3489857518550754
    vertex 7.155955853042043 11.131831000001117 1.3489857518550952
  endloop
endfacet
facet normal -1.4385967060370702e-15 0.8320502943381215 0.5547001962248125
  outer loop
    vertex -1.0511509281445042 10.631831000001462 2.0989857518553103
    vertex 7.155955853042043 11.131831000001117 1.3489857518550952
    vertex -1.5511509281444806 11.131831000001071 1.3489857518550754
  endloop
endfacet
facet normal -1.4385967060370702e-15 0.8320502943381215 0.5547001962248125
  outer loop
    vertex 7.155955853042043 11.131831000001117 1.3489857518550952
    vertex -1.0511509281445042 10.631831000001462 2.0989857518553103
    vertex 7.155955853042043 10.631831000001487 2.0989857518553294
  endloop
endfacet
facet normal 1.0 3.136380044569035e-15 2.8291090297663758e-15
  outer loop
    vertex 7.155955853042019 22.131831000001487 2.0989857518495803
    vertex 7.155955853042031 21.131831000000616 0.3489857518500851
    vertex 7.155955853042031 21.13183100000036 -0.15101424814991113
  endloop
endfacet
facet normal 1.0 3.136380044569035e-15 2.8291090297663758e-15
  outer loop
    vertex 7.155955853042031 21.131831000000616 0.3489857518500851
    vertex 7.155955853042019 22.131831000001487 2.0989857518495803
    vertex 7.1559558530420295 21.1318310000015 2.0989857518500696
  endloop
endfacet
facet normal 1.0 3.136380044569035e-15 2.8291090297663758e-15
  outer loop
    vertex 7.155955853042031 21.131831000000616 0.3489857518500851
    vertex 7.1559558530420295 21.1318310000015 2.0989857518500696
    vertex 7.155955853042031 20.63183100000112 1.3489857518503363
  endloop
endfacet
facet normal 1.0 3.136380044569035e-15 2.8291090297663758e-15
  outer loop
    vertex 7.155955853042043 10.631831000001487 2.0989857518553294
    vertex 7.155955853042055 10.631831000000624 0.3489857518553472
    vertex 7.155955853042043 11.131831000001117 1.3489857518550952
  endloop
endfacet
facet normal 1.0 3.136380044569035e-15 2.8291090297663758e-15
  outer loop
    vertex 7.15595585304202 22.131830999999924 -1.1510142481504164
    vertex 7.155955853042031 21.13183100000036 -0.15101424814991113
    vertex 7.155955853042067 9.631830999999833 -1.1510142481441668
  endloop
endfacet
facet normal 1.0 3.136380044569035e-15 2.8291090297663758e-15
  outer loop
    vertex 7.155955853042031 21.13183100000036 -0.15101424814991113
    vertex 7.15595585304202 22.131830999999924 -1.1510142481504164
    vertex 7.155955853042019 22.131831000001487 2.0989857518495803
  endloop
endfacet
facet normal 1.0 3.136380044569035e-15 2.8291090297663758e-15
  outer loop
    vertex 7.155955853042067 9.631830999999833 -1.1510142481441668
    vertex 7.155955853042031 21.13183100000036 -0.15101424814991113
    vertex 7.155955853042055 10.631831000000371 -0.15101424814464906
  endloop
endfacet
facet normal 1.0 3.136380044569035e-15 2.8291090297663758e-15
  outer loop
    vertex 7.155955853042067 9.631830999999833 -1.1510142481441668
    vertex 7.155955853042055 10.631831000000371 -0.15101424814464906
    vertex 7.155955853042055 10.631831000000624 0.3489857518553472
  endloop
endfacet
facet normal 1.0 3.136380044569035e-15 2.8291090297663758e-15
  outer loop
    vertex 7.155955853042067 9.631830999999833 -1.1510142481441668
    vertex 7.155955853042055 10.631831000000624 0.3489857518553472
    vertex 7.155955853042043 10.631831000001487 2.0989857518553294
  endloop
endfacet
facet normal 1.0 3.136380044569035e-15 2.8291090297663758e-15
  outer loop
    vertex 7.155955853042067 9.631830999999833 -1.1510142481441668
    vertex 7.155955853042043 10.631831000001487 2.0989857518553294
    vertex 7.1559558530420535 9.6318310000015 2.0989857518558357
  endloop
endfacet
facet normal -0.7071067811865467 -0.7071067811865483 3.5556030430746385e-13
  outer loop
    vertex -3.636937365771394 20.13183100000127 1.723985751850561
    vertex -4.636937365771385 21.131831000000318 -0.15101424814993739
    vertex -3.636937365771398 20.13183100000034 -0.1510142481494298
  endloop
endfacet
facet normal -0.7071067811865467 -0.7071067811865483 3.5556030430746385e-13
  outer loop
    vertex -4.636937365771385 21.131831000000318 -0.15101424814993739
    vertex -3.636937365771394 20.13183100000127 1.723985751850561
    vertex -4.636937365771385 21.13183100000057 0.34898575185005887
  endloop
endfacet
facet normal -0.7071067811865467 -0.7071067811865483 3.5556030430746385e-13
  outer loop
    vertex -4.636937365771385 21.13183100000057 0.34898575185005887
    vertex -3.636937365771394 20.13183100000127 1.723985751850561
    vertex -4.136937365771399 20.631831000001085 1.348985751850314
  endloop
endfacet
facet normal -0.7071067811865467 -0.7071067811865483 3.5556030430746385e-13
  outer loop
    vertex -4.136937365771399 20.631831000001085 1.348985751850314
    vertex -3.636937365771394 20.13183100000127 1.723985751850561
    vertex -4.6369373657713755 21.131831000001444 2.0989857518500483
  endloop
endfacet
facet normal 5.829400602694806e-16 5.904394588016279e-13 1.0
  outer loop
    vertex 7.155955853042043 10.631831000001487 2.0989857518553294
    vertex -12.844044146957915 9.631831000001418 2.0989857518558463
    vertex 7.1559558530420535 9.6318310000015 2.0989857518558357
  endloop
endfacet
facet normal 5.829400602694806e-16 5.904394588016279e-13 1.0
  outer loop
    vertex -12.844044146957915 9.631831000001418 2.0989857518558463
    vertex 7.155955853042043 10.631831000001487 2.0989857518553294
    vertex -1.0511509281445042 10.631831000001462 2.0989857518553103
  endloop
endfacet
facet normal 5.829400602694806e-16 5.904394588016279e-13 1.0
  outer loop
    vertex -12.844044146957915 9.631831000001418 2.0989857518558463
    vertex -1.0511509281445042 10.631831000001462 2.0989857518553103
    vertex -4.636937365771363 10.631831000001451 2.098985751855312
  endloop
endfacet
facet normal 5.829400602694806e-16 5.904394588016279e-13 1.0
  outer loop
    vertex -12.844044146957915 9.631831000001418 2.0989857518558463
    vertex -4.636937365771363 10.631831000001451 2.098985751855312
    vertex -12.844044146957927 10.631831000001416 2.0989857518553316
  endloop
endfacet
facet normal 4.2653216269563744e-15 -0.8320502943375641 0.5547001962256488
  outer loop
    vertex 7.155955853042031 20.63183100000112 1.3489857518503363
    vertex -1.0511509281445168 21.131831000001455 2.0989857518500528
    vertex -1.5511509281445104 20.631831000001085 1.3489857518503152
  endloop
endfacet
facet normal 4.2653216269563744e-15 -0.8320502943375641 0.5547001962256488
  outer loop
    vertex -1.0511509281445168 21.131831000001455 2.0989857518500528
    vertex 7.155955853042031 20.63183100000112 1.3489857518503363
    vertex 7.1559558530420295 21.1318310000015 2.0989857518500696
  endloop
endfacet
facet normal -1.161989280666507e-15 0.3511234415888555 0.9363291775688707
  outer loop
    vertex -2.0511509281444855 11.631831000001265 1.72398575185482
    vertex -4.636937365771363 10.631831000001451 2.098985751855312
    vertex -1.0511509281445042 10.631831000001462 2.0989857518553103
  endloop
endfacet
facet normal -1.161989280666507e-15 0.3511234415888555 0.9363291775688707
  outer loop
    vertex -4.636937365771363 10.631831000001451 2.098985751855312
    vertex -2.0511509281444855 11.631831000001265 1.72398575185482
    vertex -3.63693736577137 11.631831000001265 1.7239857518548198
  endloop
endfacet
facet normal 3.1363800445676173e-15 -1.0 5.011109142402898e-13
  outer loop
    vertex 7.155955853042031 21.13183100000036 -0.15101424814991113
    vertex -1.0511509281445155 21.13183100000058 0.34898575185006137
    vertex -1.0511509281445155 21.13183100000033 -0.15101424814993492
  endloop
endfacet
facet normal 3.1363800445676173e-15 -1.0 5.011109142402898e-13
  outer loop
    vertex -1.0511509281445155 21.13183100000058 0.34898575185006137
    vertex 7.155955853042031 21.13183100000036 -0.15101424814991113
    vertex 7.155955853042031 21.131831000000616 0.3489857518500851
  endloop
endfacet
facet normal -3.258844724482353e-15 1.0 -5.009859913372178e-13
  outer loop
    vertex -12.844044146957927 10.63183100000029 -0.15101424814464995
    vertex -4.636937365771361 10.631831000000565 0.34898575185532216
    vertex -4.636937365771361 10.631831000000325 -0.1510142481446741
  endloop
endfacet
facet normal -3.258844724482353e-15 1.0 -5.009859913372178e-13
  outer loop
    vertex -4.636937365771361 10.631831000000565 0.34898575185532216
    vertex -12.844044146957927 10.63183100000029 -0.15101424814464995
    vertex -12.844044146957927 10.631831000000542 0.3489857518553463
  endloop
endfacet
facet normal -1.600224128762955e-16 5.010772826268111e-13 1.0
  outer loop
    vertex 7.155955853042031 21.13183100000036 -0.15101424814991113
    vertex -1.0511509281444915 10.631831000000336 -0.15101424814467568
    vertex 7.155955853042055 10.631831000000371 -0.15101424814464906
  endloop
endfacet
facet normal -1.600224128762955e-16 5.010772826268111e-13 1.0
  outer loop
    vertex -1.0511509281444915 10.631831000000336 -0.15101424814467568
    vertex 7.155955853042031 21.13183100000036 -0.15101424814991113
    vertex -1.0511509281445155 21.13183100000033 -0.15101424814993492
  endloop
endfacet
facet normal -1.600224128762955e-16 5.010772826268111e-13 1.0
  outer loop
    vertex -1.0511509281444915 10.631831000000336 -0.15101424814467568
    vertex -1.0511509281445155 21.13183100000033 -0.15101424814993492
    vertex -2.0511509281444784 11.631831000000311 -0.1510142481451706
  endloop
endfacet
facet normal -1.600224128762955e-16 5.010772826268111e-13 1.0
  outer loop
    vertex -2.0511509281444784 11.631831000000311 -0.1510142481451706
    vertex -1.0511509281445155 21.13183100000033 -0.15101424814993492
    vertex -2.0511509281444913 20.13183100000034 -0.15101424814942943
  endloop
endfacet
facet normal -1.600224128762955e-16 5.010772826268111e-13 1.0
  outer loop
    vertex -2.0511509281444784 11.631831000000311 -0.1510142481451706
    vertex -2.0511509281444913 20.13183100000034 -0.15101424814942943
    vertex -3.6369373657713857 11.631831000000311 -0.15101424814517111
  endloop
endfacet
facet normal -1.600224128762955e-16 5.010772826268111e-13 1.0
  outer loop
    vertex -3.6369373657713857 11.631831000000311 -0.15101424814517111
    vertex -2.0511509281444913 20.13183100000034 -0.15101424814942943
    vertex -3.636937365771398 20.13183100000034 -0.1510142481494298
  endloop
endfacet
facet normal -1.600224128762955e-16 5.010772826268111e-13 1.0
  outer loop
    vertex -3.6369373657713857 11.631831000000311 -0.15101424814517111
    vertex -3.636937365771398 20.13183100000034 -0.1510142481494298
    vertex -4.636937365771361 10.631831000000325 -0.1510142481446741
  endloop
endfacet
facet normal -1.600224128762955e-16 5.010772826268111e-13 1.0
  outer loop
    vertex -4.636937365771361 10.631831000000325 -0.1510142481446741
    vertex -3.636937365771398 20.13183100000034 -0.1510142481494298
    vertex -4.636937365771385 21.131831000000318 -0.15101424814993739
  endloop
endfacet
facet normal -1.600224128762955e-16 5.010772826268111e-13 1.0
  outer loop
    vertex -4.636937365771361 10.631831000000325 -0.1510142481446741
    vertex -4.636937365771385 21.131831000000318 -0.15101424814993739
    vertex -12.844044146957927 10.63183100000029 -0.15101424814464995
  endloop
endfacet
facet normal -1.600224128762955e-16 5.010772826268111e-13 1.0
  outer loop
    vertex -12.844044146957927 10.63183100000029 -0.15101424814464995
    vertex -4.636937365771385 21.131831000000318 -0.15101424814993739
    vertex -12.844044146957948 21.131831000000282 -0.1510142481499104
  endloop
endfacet
endsolid ProtoGlove
