solid ProtoGlove
facet normal -1.0 0.0 0.0
  outer loop
    vertex 65.4824815098584 86.261926655429 2.50571901200553
    vertex 65.4824815098584 90.26192665542908 2.7557190120038815
    vertex 65.4824815098584 90.261926655429 2.5057190120038695
  endloop
endfacet
facet normal -1.0 0.0 0.0
  outer loop
    vertex 65.4824815098584 90.26192665542908 2.7557190120038815
    vertex 65.4824815098584 86.261926655429 2.50571901200553
    vertex 65.4824815098584 86.26192665542908 2.7557190120055406
  endloop
endfacet
facet normal 9.382857720699599e-29 4.173550394170896e-13 1.0
  outer loop
    vertex 66.80748150985846 86.2619266554294 3.5057190120055277
    vertex 65.85748150985832 90.2619266554294 3.505719012003869
    vertex 65.85748150985832 86.2619266554294 3.5057190120055277
  endloop
endfacet
facet normal 9.382857720699599e-29 4.173550394170896e-13 1.0
  outer loop
    vertex 65.85748150985832 90.2619266554294 3.505719012003869
    vertex 66.80748150985846 86.2619266554294 3.5057190120055277
    vertex 66.80748150985846 90.2619266554294 3.505719012003869
  endloop
endfacet
facet normal 9.382857720699599e-29 4.173550394170896e-13 1.0
  outer loop
    vertex 66.80748150985846 90.2619266554294 3.505719012003869
    vertex 66.80748150985846 86.2619266554294 3.5057190120055277
    vertex 69.80748150985815 86.2619266554294 3.5057190120055277
  endloop
endfacet
facet normal 9.382857720699599e-29 4.173550394170896e-13 1.0
  outer loop
    vertex 66.80748150985846 90.2619266554294 3.505719012003869
    vertex 69.80748150985815 86.2619266554294 3.5057190120055277
    vertex 69.80748150985815 90.2619266554294 3.505719012003869
  endloop
endfacet
facet normal 9.382857720699599e-29 4.173550394170896e-13 1.0
  outer loop
    vertex 69.80748150985815 90.2619266554294 3.505719012003869
    vertex 69.80748150985815 86.2619266554294 3.5057190120055277
    vertex 70.69025850985824 86.2619266554294 3.5057190120055277
  endloop
endfacet
facet normal 9.382857720699599e-29 4.173550394170896e-13 1.0
  outer loop
    vertex 69.80748150985815 90.2619266554294 3.505719012003869
    vertex 70.69025850985824 86.2619266554294 3.5057190120055277
    vertex 70.69025850985824 90.2619266554294 3.505719012003869
  endloop
endfacet
facet normal 1.0 0.0 0.0
  outer loop
    vertex 71.06525850985815 90.26192665542908 2.7557190120038815
    vertex 71.06525850985815 86.261926655429 2.50571901200553
    vertex 71.06525850985815 90.261926655429 2.5057190120038695
  endloop
endfacet
facet normal 1.0 0.0 0.0
  outer loop
    vertex 71.06525850985815 86.261926655429 2.50571901200553
    vertex 71.06525850985815 90.26192665542908 2.7557190120038815
    vertex 71.06525850985815 86.26192665542908 2.7557190120055406
  endloop
endfacet
facet normal -1.0 0.0 0.0
  outer loop
    vertex 61.30748150985818 95.26192665542794 0.005719012004192938
    vertex 61.30748150985818 81.26192665542857 1.505719012009997
    vertex 61.30748150985818 95.26192665542858 1.5057190120041901
  endloop
endfacet
facet normal -1.0 0.0 0.0
  outer loop
    vertex 61.30748150985818 81.26192665542857 1.505719012009997
    vertex 61.30748150985818 95.26192665542794 0.005719012004192938
    vertex 61.30748150985818 81.26192665542796 0.005719012009999602
  endloop
endfacet
facet normal 0.0 -1.0 4.147793219999585e-13
  outer loop
    vertex 61.30748150985818 81.26192665542796 0.005719012009999602
    vertex 75.30748150985825 81.26192665542857 1.505719012009997
    vertex 61.30748150985818 81.26192665542857 1.505719012009997
  endloop
endfacet
facet normal 0.0 -1.0 4.147793219999585e-13
  outer loop
    vertex 75.30748150985825 81.26192665542857 1.505719012009997
    vertex 61.30748150985818 81.26192665542796 0.005719012009999602
    vertex 75.30748150985825 81.26192665542796 0.005719012009999602
  endloop
endfacet
facet normal 0.0 -4.147793219999585e-13 -1.0
  outer loop
    vertex 75.30748150985825 95.26192665542794 0.005719012004192938
    vertex 61.30748150985818 81.26192665542796 0.005719012009999602
    vertex 61.30748150985818 95.26192665542794 0.005719012004192938
  endloop
endfacet
facet normal 0.0 -4.147793219999585e-13 -1.0
  outer loop
    vertex 61.30748150985818 81.26192665542796 0.005719012009999602
    vertex 75.30748150985825 95.26192665542794 0.005719012004192938
    vertex 75.30748150985825 81.26192665542796 0.005719012009999602
  endloop
endfacet
facet normal 1.0 0.0 0.0
  outer loop
    vertex 75.30748150985825 81.26192665542857 1.505719012009997
    vertex 75.30748150985825 95.26192665542794 0.005719012004192938
    vertex 75.30748150985825 95.26192665542858 1.5057190120041901
  endloop
endfacet
facet normal 1.0 0.0 0.0
  outer loop
    vertex 75.30748150985825 95.26192665542794 0.005719012004192938
    vertex 75.30748150985825 81.26192665542857 1.505719012009997
    vertex 75.30748150985825 81.26192665542796 0.005719012009999602
  endloop
endfacet
facet normal 0.0 1.0 -4.147793219999585e-13
  outer loop
    vertex 75.30748150985825 95.26192665542794 0.005719012004192938
    vertex 61.30748150985818 95.26192665542858 1.5057190120041901
    vertex 75.30748150985825 95.26192665542858 1.5057190120041901
  endloop
endfacet
facet normal 0.0 1.0 -4.147793219999585e-13
  outer loop
    vertex 61.30748150985818 95.26192665542858 1.5057190120041901
    vertex 75.30748150985825 95.26192665542794 0.005719012004192938
    vertex 61.30748150985818 95.26192665542794 0.005719012004192938
  endloop
endfacet
facet normal 0.0 4.1509906623104983e-13 1.0
  outer loop
    vertex 70.69025850985896 90.26192665542857 1.5057190120062625
    vertex 69.80748150985815 90.86192665542858 1.505719012006015
    vertex 69.80748150985815 90.26192665542858 1.5057190120062625
  endloop
endfacet
facet normal 0.0 4.1509906623104983e-13 1.0
  outer loop
    vertex 61.30748150985818 81.26192665542857 1.505719012009997
    vertex 65.85748150985759 86.26192665542857 1.5057190120078103
    vertex 61.30748150985818 95.26192665542858 1.5057190120041901
  endloop
endfacet
facet normal 0.0 4.1509906623104983e-13 1.0
  outer loop
    vertex 65.85748150985759 86.26192665542857 1.5057190120078103
    vertex 61.30748150985818 81.26192665542857 1.505719012009997
    vertex 66.80748150985846 85.66192665542857 1.505719012008172
  endloop
endfacet
facet normal 0.0 4.1509906623104983e-13 1.0
  outer loop
    vertex 66.80748150985846 85.66192665542857 1.505719012008172
    vertex 61.30748150985818 81.26192665542857 1.505719012009997
    vertex 75.30748150985825 81.26192665542857 1.505719012009997
  endloop
endfacet
facet normal 0.0 4.1509906623104983e-13 1.0
  outer loop
    vertex 66.80748150985846 85.66192665542857 1.505719012008172
    vertex 75.30748150985825 81.26192665542857 1.505719012009997
    vertex 69.80748150985815 85.66192665542857 1.505719012008172
  endloop
endfacet
facet normal 0.0 4.1509906623104983e-13 1.0
  outer loop
    vertex 69.80748150985815 85.66192665542857 1.505719012008172
    vertex 75.30748150985825 81.26192665542857 1.505719012009997
    vertex 69.80748150985815 86.26192665542857 1.5057190120079231
  endloop
endfacet
facet normal 0.0 4.1509906623104983e-13 1.0
  outer loop
    vertex 69.80748150985815 86.26192665542857 1.5057190120079231
    vertex 75.30748150985825 81.26192665542857 1.505719012009997
    vertex 70.69025850985915 86.26192665542857 1.5057190120079005
  endloop
endfacet
facet normal 0.0 4.1509906623104983e-13 1.0
  outer loop
    vertex 61.30748150985818 95.26192665542858 1.5057190120041901
    vertex 66.80748150985846 90.86192665542858 1.505719012006015
    vertex 75.30748150985825 95.26192665542858 1.5057190120041901
  endloop
endfacet
facet normal 0.0 4.1509906623104983e-13 1.0
  outer loop
    vertex 66.80748150985846 90.86192665542858 1.505719012006015
    vertex 61.30748150985818 95.26192665542858 1.5057190120041901
    vertex 65.85748150985759 90.26192665542857 1.5057190120062625
  endloop
endfacet
facet normal 0.0 4.1509906623104983e-13 1.0
  outer loop
    vertex 65.85748150985759 90.26192665542857 1.5057190120062625
    vertex 61.30748150985818 95.26192665542858 1.5057190120041901
    vertex 65.85748150985759 86.26192665542857 1.5057190120078103
  endloop
endfacet
facet normal 0.0 4.1509906623104983e-13 1.0
  outer loop
    vertex 66.80748150985846 90.86192665542858 1.505719012006015
    vertex 65.85748150985759 90.26192665542857 1.5057190120062625
    vertex 66.80748150985846 90.26192665542858 1.5057190120062625
  endloop
endfacet
facet normal 0.0 4.1509906623104983e-13 1.0
  outer loop
    vertex 75.30748150985825 95.26192665542858 1.5057190120041901
    vertex 66.80748150985846 90.86192665542858 1.505719012006015
    vertex 69.80748150985815 90.86192665542858 1.505719012006015
  endloop
endfacet
facet normal 0.0 4.1509906623104983e-13 1.0
  outer loop
    vertex 75.30748150985825 95.26192665542858 1.5057190120041901
    vertex 69.80748150985815 90.86192665542858 1.505719012006015
    vertex 70.69025850985896 90.26192665542857 1.5057190120062625
  endloop
endfacet
facet normal 0.0 4.1509906623104983e-13 1.0
  outer loop
    vertex 75.30748150985825 95.26192665542858 1.5057190120041901
    vertex 70.69025850985896 90.26192665542857 1.5057190120062625
    vertex 70.69025850985915 86.26192665542857 1.5057190120079005
  endloop
endfacet
facet normal 0.0 4.1509906623104983e-13 1.0
  outer loop
    vertex 75.30748150985825 95.26192665542858 1.5057190120041901
    vertex 70.69025850985915 86.26192665542857 1.5057190120079005
    vertex 75.30748150985825 81.26192665542857 1.505719012009997
  endloop
endfacet
facet normal 0.0 4.1509906623104983e-13 1.0
  outer loop
    vertex 66.80748150985846 86.26192665542857 1.5057190120079231
    vertex 65.85748150985759 86.26192665542857 1.5057190120078103
    vertex 66.80748150985846 85.66192665542857 1.505719012008172
  endloop
endfacet
facet normal -1.0 0.0 0.0
  outer loop
    vertex 66.80748150985846 86.26192665542857 1.5057190120079231
    vertex 66.80748150985846 85.661926655429 2.50571901200817
    vertex 66.80748150985846 86.2619266554294 3.5057190120055277
  endloop
endfacet
facet normal -1.0 0.0 0.0
  outer loop
    vertex 66.80748150985846 85.661926655429 2.50571901200817
    vertex 66.80748150985846 86.26192665542857 1.5057190120079231
    vertex 66.80748150985846 85.66192665542857 1.505719012008172
  endloop
endfacet
facet normal 1.0 0.0 0.0
  outer loop
    vertex 69.80748150985815 85.661926655429 2.50571901200817
    vertex 69.80748150985815 86.26192665542857 1.5057190120079231
    vertex 69.80748150985815 86.2619266554294 3.5057190120055277
  endloop
endfacet
facet normal 1.0 0.0 0.0
  outer loop
    vertex 69.80748150985815 86.26192665542857 1.5057190120079231
    vertex 69.80748150985815 85.661926655429 2.50571901200817
    vertex 69.80748150985815 85.66192665542857 1.505719012008172
  endloop
endfacet
facet normal -3.913229701528428e-15 -1.0 4.16082920879058e-13
  outer loop
    vertex 69.80748150985815 86.26192665542857 1.5057190120079231
    vertex 70.69025850985824 86.2619266554294 3.5057190120055277
    vertex 69.80748150985815 86.2619266554294 3.5057190120055277
  endloop
endfacet
facet normal -3.913229701528428e-15 -1.0 4.16082920879058e-13
  outer loop
    vertex 70.69025850985824 86.2619266554294 3.5057190120055277
    vertex 69.80748150985815 86.26192665542857 1.5057190120079231
    vertex 71.06525850985815 86.26192665542908 2.7557190120055406
  endloop
endfacet
facet normal -3.913229701528428e-15 -1.0 4.16082920879058e-13
  outer loop
    vertex 71.06525850985815 86.26192665542908 2.7557190120055406
    vertex 69.80748150985815 86.26192665542857 1.5057190120079231
    vertex 71.06525850985815 86.261926655429 2.50571901200553
  endloop
endfacet
facet normal -3.913229701528428e-15 -1.0 4.16082920879058e-13
  outer loop
    vertex 71.06525850985815 86.261926655429 2.50571901200553
    vertex 69.80748150985815 86.26192665542857 1.5057190120079231
    vertex 70.69025850985896 86.26192665542884 2.1307190120064727
  endloop
endfacet
facet normal -3.913229701528428e-15 -1.0 4.16082920879058e-13
  outer loop
    vertex 70.69025850985896 86.26192665542884 2.1307190120064727
    vertex 69.80748150985815 86.26192665542857 1.5057190120079231
    vertex 70.69025850985915 86.26192665542857 1.5057190120079005
  endloop
endfacet
facet normal -0.8944271909999535 1.8664718645937474e-13 0.44721359549988254
  outer loop
    vertex 65.4824815098584 90.26192665542908 2.7557190120038815
    vertex 65.85748150985832 86.2619266554294 3.5057190120055277
    vertex 65.85748150985832 90.2619266554294 3.505719012003869
  endloop
endfacet
facet normal -0.8944271909999535 1.8664718645937474e-13 0.44721359549988254
  outer loop
    vertex 65.85748150985832 86.2619266554294 3.5057190120055277
    vertex 65.4824815098584 90.26192665542908 2.7557190120038815
    vertex 65.4824815098584 86.26192665542908 2.7557190120055406
  endloop
endfacet
facet normal 1.2377211375129033e-15 -1.0 4.1559053208819634e-13
  outer loop
    vertex 65.4824815098584 86.26192665542908 2.7557190120055406
    vertex 66.80748150985846 86.2619266554294 3.5057190120055277
    vertex 65.85748150985832 86.2619266554294 3.5057190120055277
  endloop
endfacet
facet normal 1.2377211375129033e-15 -1.0 4.1559053208819634e-13
  outer loop
    vertex 66.80748150985846 86.2619266554294 3.5057190120055277
    vertex 65.4824815098584 86.26192665542908 2.7557190120055406
    vertex 66.80748150985846 86.26192665542857 1.5057190120079231
  endloop
endfacet
facet normal 1.2377211375129033e-15 -1.0 4.1559053208819634e-13
  outer loop
    vertex 66.80748150985846 86.26192665542857 1.5057190120079231
    vertex 65.4824815098584 86.26192665542908 2.7557190120055406
    vertex 65.4824815098584 86.261926655429 2.50571901200553
  endloop
endfacet
facet normal 1.2377211375129033e-15 -1.0 4.1559053208819634e-13
  outer loop
    vertex 66.80748150985846 86.26192665542857 1.5057190120079231
    vertex 65.4824815098584 86.261926655429 2.50571901200553
    vertex 65.85748150985759 86.26192665542884 2.1307190120063373
  endloop
endfacet
facet normal 1.2377211375129033e-15 -1.0 4.1559053208819634e-13
  outer loop
    vertex 66.80748150985846 86.26192665542857 1.5057190120079231
    vertex 65.85748150985759 86.26192665542884 2.1307190120063373
    vertex 65.85748150985759 86.26192665542857 1.5057190120078103
  endloop
endfacet
facet normal 0.8944271909999535 1.866471864593745e-13 0.44721359549988254
  outer loop
    vertex 70.69025850985824 86.2619266554294 3.5057190120055277
    vertex 71.06525850985815 90.26192665542908 2.7557190120038815
    vertex 70.69025850985824 90.2619266554294 3.505719012003869
  endloop
endfacet
facet normal 0.8944271909999535 1.866471864593745e-13 0.44721359549988254
  outer loop
    vertex 71.06525850985815 90.26192665542908 2.7557190120038815
    vertex 70.69025850985824 86.2619266554294 3.5057190120055277
    vertex 71.06525850985815 86.26192665542908 2.7557190120055406
  endloop
endfacet
facet normal -5.403057384536805e-15 1.0 -4.114916140974929e-13
  outer loop
    vertex 66.80748150985846 90.26192665542858 1.5057190120062625
    vertex 65.85748150985832 90.2619266554294 3.505719012003869
    vertex 66.80748150985846 90.2619266554294 3.505719012003869
  endloop
endfacet
facet normal -5.403057384536805e-15 1.0 -4.114916140974929e-13
  outer loop
    vertex 65.85748150985832 90.2619266554294 3.505719012003869
    vertex 66.80748150985846 90.26192665542858 1.5057190120062625
    vertex 65.4824815098584 90.26192665542908 2.7557190120038815
  endloop
endfacet
facet normal -5.403057384536805e-15 1.0 -4.114916140974929e-13
  outer loop
    vertex 65.4824815098584 90.26192665542908 2.7557190120038815
    vertex 66.80748150985846 90.26192665542858 1.5057190120062625
    vertex 65.4824815098584 90.261926655429 2.5057190120038695
  endloop
endfacet
facet normal -5.403057384536805e-15 1.0 -4.114916140974929e-13
  outer loop
    vertex 65.4824815098584 90.261926655429 2.5057190120038695
    vertex 66.80748150985846 90.26192665542858 1.5057190120062625
    vertex 65.85748150985759 90.26192665542882 2.1307190120046764
  endloop
endfacet
facet normal -5.403057384536805e-15 1.0 -4.114916140974929e-13
  outer loop
    vertex 65.85748150985759 90.26192665542882 2.1307190120046764
    vertex 66.80748150985846 90.26192665542858 1.5057190120062625
    vertex 65.85748150985759 90.26192665542857 1.5057190120062625
  endloop
endfacet
facet normal 5.712961767837508e-15 1.0 -4.115002801669054e-13
  outer loop
    vertex 71.06525850985815 90.26192665542908 2.7557190120038815
    vertex 69.80748150985815 90.2619266554294 3.505719012003869
    vertex 70.69025850985824 90.2619266554294 3.505719012003869
  endloop
endfacet
facet normal 5.712961767837508e-15 1.0 -4.115002801669054e-13
  outer loop
    vertex 69.80748150985815 90.2619266554294 3.505719012003869
    vertex 71.06525850985815 90.26192665542908 2.7557190120038815
    vertex 69.80748150985815 90.26192665542858 1.5057190120062625
  endloop
endfacet
facet normal 5.712961767837508e-15 1.0 -4.115002801669054e-13
  outer loop
    vertex 69.80748150985815 90.26192665542858 1.5057190120062625
    vertex 71.06525850985815 90.26192665542908 2.7557190120038815
    vertex 71.06525850985815 90.261926655429 2.5057190120038695
  endloop
endfacet
facet normal 5.712961767837508e-15 1.0 -4.115002801669054e-13
  outer loop
    vertex 69.80748150985815 90.26192665542858 1.5057190120062625
    vertex 71.06525850985815 90.261926655429 2.5057190120038695
    vertex 70.69025850985896 90.26192665542882 2.1307190120046764
  endloop
endfacet
facet normal 5.712961767837508e-15 1.0 -4.115002801669054e-13
  outer loop
    vertex 69.80748150985815 90.26192665542858 1.5057190120062625
    vertex 70.69025850985896 90.26192665542882 2.1307190120046764
    vertex 70.69025850985896 90.26192665542857 1.5057190120062625
  endloop
endfacet
facet normal 0.0 -1.0 4.2017500589963754e-13
  outer loop
    vertex 66.80748150985846 85.66192665542857 1.505719012008172
    vertex 69.80748150985815 85.661926655429 2.50571901200817
    vertex 66.80748150985846 85.661926655429 2.50571901200817
  endloop
endfacet
facet normal 0.0 -1.0 4.2017500589963754e-13
  outer loop
    vertex 69.80748150985815 85.661926655429 2.50571901200817
    vertex 66.80748150985846 85.66192665542857 1.505719012008172
    vertex 69.80748150985815 85.66192665542857 1.505719012008172
  endloop
endfacet
facet normal -1.0 0.0 0.0
  outer loop
    vertex 66.80748150985846 90.26192665542858 1.5057190120062625
    vertex 66.80748150985846 90.86192665542899 2.505719012006013
    vertex 66.80748150985846 90.86192665542858 1.505719012006015
  endloop
endfacet
facet normal -1.0 0.0 0.0
  outer loop
    vertex 66.80748150985846 90.86192665542899 2.505719012006013
    vertex 66.80748150985846 90.26192665542858 1.5057190120062625
    vertex 66.80748150985846 90.2619266554294 3.505719012003869
  endloop
endfacet
facet normal 1.0 4.3220214054955525e-13 9.46539301088659e-14
  outer loop
    vertex 69.80748150985815 90.2619266554294 3.505719012003869
    vertex 69.80748150985815 90.86192665542858 1.505719012006015
    vertex 69.80748150985778 90.86192665542899 2.505719012006013
  endloop
endfacet
facet normal 1.0 4.3220214054955525e-13 9.46539301088659e-14
  outer loop
    vertex 69.80748150985815 90.86192665542858 1.505719012006015
    vertex 69.80748150985815 90.2619266554294 3.505719012003869
    vertex 69.80748150985815 90.26192665542858 1.5057190120062625
  endloop
endfacet
facet normal 5.073676265115862e-31 1.0 -4.1453507293454173e-13
  outer loop
    vertex 69.80748150985815 90.86192665542858 1.505719012006015
    vertex 66.80748150985846 90.86192665542899 2.505719012006013
    vertex 69.80748150985778 90.86192665542899 2.505719012006013
  endloop
endfacet
facet normal 5.073676265115862e-31 1.0 -4.1453507293454173e-13
  outer loop
    vertex 66.80748150985846 90.86192665542899 2.505719012006013
    vertex 69.80748150985815 90.86192665542858 1.505719012006015
    vertex 66.80748150985846 90.86192665542858 1.505719012006015
  endloop
endfacet
facet normal 0.0 -0.8574929257117881 0.5144957554287864
  outer loop
    vertex 66.80748150985846 85.661926655429 2.50571901200817
    vertex 69.80748150985815 86.2619266554294 3.5057190120055277
    vertex 66.80748150985846 86.2619266554294 3.5057190120055277
  endloop
endfacet
facet normal 0.0 -0.8574929257117881 0.5144957554287864
  outer loop
    vertex 69.80748150985815 86.2619266554294 3.5057190120055277
    vertex 66.80748150985846 85.661926655429 2.50571901200817
    vertex 69.80748150985815 85.661926655429 2.50571901200817
  endloop
endfacet
facet normal -7.997366325442422e-18 0.8574929257122137 0.5144957554280777
  outer loop
    vertex 69.80748150985778 90.86192665542899 2.505719012006013
    vertex 66.80748150985846 90.2619266554294 3.505719012003869
    vertex 69.80748150985815 90.2619266554294 3.505719012003869
  endloop
endfacet
facet normal -7.997366325442422e-18 0.8574929257122137 0.5144957554280777
  outer loop
    vertex 66.80748150985846 90.2619266554294 3.505719012003869
    vertex 69.80748150985778 90.86192665542899 2.505719012006013
    vertex 66.80748150985846 90.86192665542899 2.505719012006013
  endloop
endfacet
facet normal 0.7071067811864837 -3.070815796523262e-13 -0.7071067811866114
  outer loop
    vertex 71.06525850985815 90.261926655429 2.5057190120038695
    vertex 70.69025850985896 86.26192665542884 2.1307190120064727
    vertex 70.69025850985896 90.26192665542882 2.1307190120046764
  endloop
endfacet
facet normal 0.7071067811864837 -3.070815796523262e-13 -0.7071067811866114
  outer loop
    vertex 70.69025850985896 86.26192665542884 2.1307190120064727
    vertex 71.06525850985815 90.261926655429 2.5057190120038695
    vertex 71.06525850985815 86.261926655429 2.50571901200553
  endloop
endfacet
facet normal 1.0 2.25597318604455e-14 1.4438228390680938e-13
  outer loop
    vertex 70.69025850985896 86.26192665542884 2.1307190120064727
    vertex 70.69025850985896 90.26192665542857 1.5057190120062625
    vertex 70.69025850985896 90.26192665542882 2.1307190120046764
  endloop
endfacet
facet normal 1.0 2.25597318604455e-14 1.4438228390680938e-13
  outer loop
    vertex 70.69025850985896 90.26192665542857 1.5057190120062625
    vertex 70.69025850985896 86.26192665542884 2.1307190120064727
    vertex 70.69025850985915 86.26192665542857 1.5057190120079005
  endloop
endfacet
facet normal -0.7071067811865476 -2.9512129665930806e-13 -0.7071067811865476
  outer loop
    vertex 65.85748150985759 90.26192665542882 2.1307190120046764
    vertex 65.4824815098584 86.261926655429 2.50571901200553
    vertex 65.4824815098584 90.261926655429 2.5057190120038695
  endloop
endfacet
facet normal -0.7071067811865476 -2.9512129665930806e-13 -0.7071067811865476
  outer loop
    vertex 65.4824815098584 86.261926655429 2.50571901200553
    vertex 65.85748150985759 90.26192665542882 2.1307190120046764
    vertex 65.85748150985759 86.26192665542884 2.1307190120063373
  endloop
endfacet
facet normal -1.0 0.0 0.0
  outer loop
    vertex 65.85748150985759 86.26192665542857 1.5057190120078103
    vertex 65.85748150985759 90.26192665542882 2.1307190120046764
    vertex 65.85748150985759 90.26192665542857 1.5057190120062625
  endloop
endfacet
facet normal -1.0 0.0 0.0
  outer loop
    vertex 65.85748150985759 90.26192665542882 2.1307190120046764
    vertex 65.85748150985759 86.26192665542857 1.5057190120078103
    vertex 65.85748150985759 86.26192665542884 2.1307190120063373
  endloop
endfacet
endsolid ProtoGlove
