solid ProtoGlove
facet normal 3.164484011894826e-15 -0.8320502943378445 0.5547001962252279
  outer loop
    vertex -33.79289321881316 -39.36816900000054 2.505719012013169
    vertex -35.70710678118628 -38.86816900000056 3.255719012013149
    vertex -36.20710678118628 -39.36816900000063 2.505719012013168
  endloop
endfacet
facet normal 3.164484011894826e-15 -0.8320502943378445 0.5547001962252279
  outer loop
    vertex -35.70710678118628 -38.86816900000056 3.255719012013149
    vertex -33.79289321881316 -39.36816900000054 2.505719012013169
    vertex -34.29289321881316 -38.868169000000606 3.255719012013149
  endloop
endfacet
facet normal -0.7071067811865464 -0.7071067811865487 -8.163480219388697e-16
  outer loop
    vertex -38.292893218813155 -39.86816900000056 1.0057190120131705
    vertex -39.29289321881315 -38.868169000000606 1.505719012013157
    vertex -39.29289321881315 -38.868169000000606 1.0057190120131607
  endloop
endfacet
facet normal -0.7071067811865464 -0.7071067811865487 -8.163480219388697e-16
  outer loop
    vertex -39.29289321881315 -38.868169000000606 1.505719012013157
    vertex -38.292893218813155 -39.86816900000056 1.0057190120131705
    vertex -38.292893218813155 -39.86816900000056 2.8807190120131616
  endloop
endfacet
facet normal -0.7071067811865464 -0.7071067811865487 -8.163480219388697e-16
  outer loop
    vertex -39.29289321881315 -38.868169000000606 1.505719012013157
    vertex -38.292893218813155 -39.86816900000056 2.8807190120131616
    vertex -38.79289321881318 -39.36816900000063 2.505719012013165
  endloop
endfacet
facet normal -0.7071067811865464 -0.7071067811865487 -8.163480219388697e-16
  outer loop
    vertex -38.79289321881318 -39.36816900000063 2.505719012013165
    vertex -38.292893218813155 -39.86816900000056 2.8807190120131616
    vertex -39.29289321881315 -38.868169000000606 3.255719012013149
  endloop
endfacet
facet normal 1.4228424147123995e-15 -0.3511234415883879 0.936329177569046
  outer loop
    vertex -38.292893218813155 -39.86816900000056 2.8807190120131616
    vertex -35.70710678118628 -38.86816900000056 3.255719012013149
    vertex -39.29289321881315 -38.868169000000606 3.255719012013149
  endloop
endfacet
facet normal 1.4228424147123995e-15 -0.3511234415883879 0.936329177569046
  outer loop
    vertex -35.70710678118628 -38.86816900000056 3.255719012013149
    vertex -38.292893218813155 -39.86816900000056 2.8807190120131616
    vertex -36.707106781186255 -39.868169000000606 2.8807190120131616
  endloop
endfacet
facet normal -6.44623960260298e-15 0.8320502943378417 0.5547001962252319
  outer loop
    vertex -42.49999999999967 -49.36816900000061 3.255719012013147
    vertex -38.792893218813106 -48.868169000000634 2.505719012013162
    vertex -42.49999999999967 -48.868169000000634 2.505719012013162
  endloop
endfacet
facet normal -6.44623960260298e-15 0.8320502943378417 0.5547001962252319
  outer loop
    vertex -38.792893218813106 -48.868169000000634 2.505719012013162
    vertex -42.49999999999967 -49.36816900000061 3.255719012013147
    vertex -39.29289321881313 -49.36816900000057 3.25571901201315
  endloop
endfacet
facet normal 0.7071067811865452 -0.7071067811865499 5.758821462013009e-16
  outer loop
    vertex -35.70710678118628 -38.868169000000606 1.5057190120131654
    vertex -36.707106781186255 -39.86816900000056 1.0057190120131705
    vertex -35.70710678118628 -38.86816900000056 1.0057190120131692
  endloop
endfacet
facet normal 0.7071067811865452 -0.7071067811865499 5.758821462013009e-16
  outer loop
    vertex -36.707106781186255 -39.86816900000056 1.0057190120131705
    vertex -35.70710678118628 -38.868169000000606 1.5057190120131654
    vertex -36.707106781186255 -39.868169000000606 2.8807190120131616
  endloop
endfacet
facet normal 0.7071067811865452 -0.7071067811865499 5.758821462013009e-16
  outer loop
    vertex -36.707106781186255 -39.868169000000606 2.8807190120131616
    vertex -35.70710678118628 -38.868169000000606 1.5057190120131654
    vertex -36.20710678118628 -39.36816900000063 2.505719012013168
  endloop
endfacet
facet normal 0.7071067811865452 -0.7071067811865499 5.758821462013009e-16
  outer loop
    vertex -36.707106781186255 -39.868169000000606 2.8807190120131616
    vertex -36.20710678118628 -39.36816900000063 2.505719012013168
    vertex -35.70710678118628 -38.86816900000056 3.255719012013149
  endloop
endfacet
facet normal -5.002608322809066e-16 -5.411859003602228e-15 1.0
  outer loop
    vertex -39.29289321881315 -38.868169000000606 3.255719012013149
    vertex -42.499999999999716 -37.86816900000061 3.2557190120131527
    vertex -42.499999999999716 -38.868169000000606 3.2557190120131434
  endloop
endfacet
facet normal -5.002608322809066e-16 -5.411859003602228e-15 1.0
  outer loop
    vertex -42.499999999999716 -37.86816900000061 3.2557190120131527
    vertex -39.29289321881315 -38.868169000000606 3.255719012013149
    vertex -33.87867965644006 -37.86816900000061 3.2557190120131585
  endloop
endfacet
facet normal -5.002608322809066e-16 -5.411859003602228e-15 1.0
  outer loop
    vertex -33.87867965644006 -37.86816900000061 3.2557190120131585
    vertex -39.29289321881315 -38.868169000000606 3.255719012013149
    vertex -35.70710678118628 -38.86816900000056 3.255719012013149
  endloop
endfacet
facet normal -5.002608322809066e-16 -5.411859003602228e-15 1.0
  outer loop
    vertex -33.87867965644006 -37.86816900000061 3.2557190120131585
    vertex -35.70710678118628 -38.86816900000056 3.255719012013149
    vertex -34.29289321881316 -38.868169000000606 3.255719012013149
  endloop
endfacet
facet normal -5.002608322809066e-16 -5.411859003602228e-15 1.0
  outer loop
    vertex -33.87867965644006 -37.86816900000061 3.2557190120131585
    vertex -34.29289321881316 -38.868169000000606 3.255719012013149
    vertex -32.499999999999716 -40.66106221881403 3.255719012013136
  endloop
endfacet
facet normal -5.002608322809066e-16 -5.411859003602228e-15 1.0
  outer loop
    vertex -33.87867965644006 -37.86816900000061 3.2557190120131585
    vertex -32.499999999999716 -40.66106221881403 3.255719012013136
    vertex -32.499999999999694 -39.24684865644093 3.2557190120131585
  endloop
endfacet
facet normal 3.7953376003731315e-15 -1.0 2.597921877622889e-15
  outer loop
    vertex -34.29289321881316 -38.868169000000606 1.5057190120131654
    vertex -35.70710678118628 -38.86816900000056 1.0057190120131692
    vertex -34.29289321881316 -38.868169000000606 1.0057190120131692
  endloop
endfacet
facet normal 3.7953376003731315e-15 -1.0 2.597921877622889e-15
  outer loop
    vertex -35.70710678118628 -38.86816900000056 1.0057190120131692
    vertex -34.29289321881316 -38.868169000000606 1.5057190120131654
    vertex -35.70710678118628 -38.868169000000606 1.5057190120131654
  endloop
endfacet
facet normal 4.3793717816275704e-15 -1.0 1.1879386363489352e-15
  outer loop
    vertex -39.29289321881315 -38.868169000000606 1.505719012013157
    vertex -42.499999999999716 -38.868169000000606 1.0057190120131663
    vertex -39.29289321881315 -38.868169000000606 1.0057190120131607
  endloop
endfacet
facet normal 4.3793717816275704e-15 -1.0 1.1879386363489352e-15
  outer loop
    vertex -42.499999999999716 -38.868169000000606 1.0057190120131663
    vertex -39.29289321881315 -38.868169000000606 1.505719012013157
    vertex -42.499999999999716 -38.868169000000606 1.5057190120131627
  endloop
endfacet
facet normal 3.5425038691872115e-16 -0.8320502943378436 0.5547001962252293
  outer loop
    vertex -38.79289321881318 -39.36816900000063 2.505719012013165
    vertex -42.499999999999716 -38.868169000000606 3.2557190120131434
    vertex -42.499999999999716 -39.36816900000063 2.505719012013162
  endloop
endfacet
facet normal 3.5425038691872115e-16 -0.8320502943378436 0.5547001962252293
  outer loop
    vertex -42.499999999999716 -38.868169000000606 3.2557190120131434
    vertex -38.79289321881318 -39.36816900000063 2.505719012013165
    vertex -39.29289321881315 -38.868169000000606 3.255719012013149
  endloop
endfacet
facet normal 3.808927394597123e-15 -0.8944271909999212 -0.4472135954999473
  outer loop
    vertex -33.79289321881316 -39.36816900000054 2.505719012013169
    vertex -35.70710678118628 -38.868169000000606 1.5057190120131654
    vertex -34.29289321881316 -38.868169000000606 1.5057190120131654
  endloop
endfacet
facet normal 3.808927394597123e-15 -0.8944271909999212 -0.4472135954999473
  outer loop
    vertex -35.70710678118628 -38.868169000000606 1.5057190120131654
    vertex -33.79289321881316 -39.36816900000054 2.505719012013169
    vertex -36.20710678118628 -39.36816900000063 2.505719012013168
  endloop
endfacet
facet normal 3.2654470844656063e-15 -0.8944271909999209 -0.447213595499948
  outer loop
    vertex -38.79289321881318 -39.36816900000063 2.505719012013165
    vertex -42.499999999999716 -38.868169000000606 1.5057190120131627
    vertex -39.29289321881315 -38.868169000000606 1.505719012013157
  endloop
endfacet
facet normal 3.2654470844656063e-15 -0.8944271909999209 -0.447213595499948
  outer loop
    vertex -42.499999999999716 -38.868169000000606 1.5057190120131627
    vertex -38.79289321881318 -39.36816900000063 2.505719012013165
    vertex -42.499999999999716 -39.36816900000063 2.505719012013162
  endloop
endfacet
facet normal 3.7953376003731315e-15 -1.0 -5.980401359314165e-16
  outer loop
    vertex -36.707106781186255 -39.868169000000606 2.8807190120131616
    vertex -38.292893218813155 -39.86816900000056 1.0057190120131705
    vertex -36.707106781186255 -39.86816900000056 1.0057190120131705
  endloop
endfacet
facet normal 3.7953376003731315e-15 -1.0 -5.980401359314165e-16
  outer loop
    vertex -38.292893218813155 -39.86816900000056 1.0057190120131705
    vertex -36.707106781186255 -39.868169000000606 2.8807190120131616
    vertex -38.292893218813155 -39.86816900000056 2.8807190120131616
  endloop
endfacet
facet normal -0.7071067811865538 0.7071067811865412 -3.431884155856782e-16
  outer loop
    vertex -38.292893218813134 -48.36816900000057 2.8807190120131585
    vertex -38.792893218813106 -48.868169000000634 2.505719012013162
    vertex -39.29289321881313 -49.36816900000057 3.25571901201315
  endloop
endfacet
facet normal -0.7071067811865538 0.7071067811865412 -3.431884155856782e-16
  outer loop
    vertex -38.792893218813106 -48.868169000000634 2.505719012013162
    vertex -39.29289321881313 -49.36816900000057 1.0057190120131625
    vertex -39.29289321881313 -49.36816900000061 1.5057190120131587
  endloop
endfacet
facet normal -0.7071067811865538 0.7071067811865412 -3.431884155856782e-16
  outer loop
    vertex -39.29289321881313 -49.36816900000057 1.0057190120131625
    vertex -38.792893218813106 -48.868169000000634 2.505719012013162
    vertex -38.292893218813134 -48.36816900000057 1.0057190120131678
  endloop
endfacet
facet normal -0.7071067811865538 0.7071067811865412 -3.431884155856782e-16
  outer loop
    vertex -38.292893218813134 -48.36816900000057 1.0057190120131678
    vertex -38.792893218813106 -48.868169000000634 2.505719012013162
    vertex -38.292893218813134 -48.36816900000057 2.8807190120131585
  endloop
endfacet
facet normal -3.172183684085752e-15 0.8944271909999205 -0.4472135954999487
  outer loop
    vertex -35.70710678118626 -49.36816900000057 1.505719012013163
    vertex -33.79289321881312 -48.86816900000059 2.505719012013165
    vertex -34.29289321881314 -49.36816900000057 1.5057190120131616
  endloop
endfacet
facet normal -3.172183684085752e-15 0.8944271909999205 -0.4472135954999487
  outer loop
    vertex -33.79289321881312 -48.86816900000059 2.505719012013165
    vertex -35.70710678118626 -49.36816900000057 1.505719012013163
    vertex -36.20710678118621 -48.868169000000634 2.5057190120131665
  endloop
endfacet
facet normal -3.7953376003731315e-15 1.0 2.220446049250313e-16
  outer loop
    vertex -35.70710678118626 -49.36816900000057 1.0057190120131667
    vertex -34.29289321881314 -49.36816900000057 1.5057190120131616
    vertex -34.29289321881314 -49.36816900000057 1.0057190120131654
  endloop
endfacet
facet normal -3.7953376003731315e-15 1.0 2.220446049250313e-16
  outer loop
    vertex -34.29289321881314 -49.36816900000057 1.5057190120131616
    vertex -35.70710678118626 -49.36816900000057 1.0057190120131667
    vertex -35.70710678118626 -49.36816900000057 1.505719012013163
  endloop
endfacet
facet normal -1.1849049884444746e-15 0.3511234415883855 0.9363291775690469
  outer loop
    vertex -35.70710678118623 -49.36816900000057 3.2557190120131443
    vertex -38.292893218813134 -48.36816900000057 2.8807190120131585
    vertex -39.29289321881313 -49.36816900000057 3.25571901201315
  endloop
endfacet
facet normal -1.1849049884444746e-15 0.3511234415883855 0.9363291775690469
  outer loop
    vertex -38.292893218813134 -48.36816900000057 2.8807190120131585
    vertex -35.70710678118623 -49.36816900000057 3.2557190120131443
    vertex -36.70710678118623 -48.36816900000061 2.8807190120131603
  endloop
endfacet
facet normal -0.7071067811865462 -0.7071067811865488 3.7877450565038704e-16
  outer loop
    vertex -32.499999999999716 -40.66106221881403 3.255719012013136
    vertex -34.29289321881316 -38.868169000000606 1.0057190120131692
    vertex -32.499999999999716 -40.66106221881403 1.0057190120131594
  endloop
endfacet
facet normal -0.7071067811865462 -0.7071067811865488 3.7877450565038704e-16
  outer loop
    vertex -34.29289321881316 -38.868169000000606 1.0057190120131692
    vertex -32.499999999999716 -40.66106221881403 3.255719012013136
    vertex -34.29289321881316 -38.868169000000606 1.5057190120131654
  endloop
endfacet
facet normal -0.7071067811865462 -0.7071067811865488 3.7877450565038704e-16
  outer loop
    vertex -34.29289321881316 -38.868169000000606 1.5057190120131654
    vertex -32.499999999999716 -40.66106221881403 3.255719012013136
    vertex -33.79289321881316 -39.36816900000054 2.505719012013169
  endloop
endfacet
facet normal -0.7071067811865462 -0.7071067811865488 3.7877450565038704e-16
  outer loop
    vertex -33.79289321881316 -39.36816900000054 2.505719012013169
    vertex -32.499999999999716 -40.66106221881403 3.255719012013136
    vertex -34.29289321881316 -38.868169000000606 3.255719012013149
  endloop
endfacet
facet normal 0.7071067811865569 -0.7071067811865381 6.8629053091065466e-15
  outer loop
    vertex -32.499999999999694 -48.989489343560194 0.005719012013146684
    vertex -33.87867965644001 -50.36816900000061 3.2557190120131603
    vertex -33.87867965644001 -50.368169000000655 0.005719012013162194
  endloop
endfacet
facet normal 0.7071067811865569 -0.7071067811865381 6.8629053091065466e-15
  outer loop
    vertex -33.87867965644001 -50.36816900000061 3.2557190120131603
    vertex -32.499999999999694 -48.989489343560194 0.005719012013146684
    vertex -32.49999999999967 -48.989489343560194 3.255719012013149
  endloop
endfacet
facet normal 3.795337600373125e-15 -1.0 1.604699279438979e-14
  outer loop
    vertex -33.87867965644001 -50.368169000000655 0.005719012013162194
    vertex -42.49999999999967 -50.36816900000061 3.2557190120131576
    vertex -42.49999999999967 -50.368169000000655 0.0057190120131593745
  endloop
endfacet
facet normal 3.795337600373125e-15 -1.0 1.604699279438979e-14
  outer loop
    vertex -42.49999999999967 -50.36816900000061 3.2557190120131576
    vertex -33.87867965644001 -50.368169000000655 0.005719012013162194
    vertex -33.87867965644001 -50.36816900000061 3.2557190120131603
  endloop
endfacet
facet normal -3.795337600373138e-15 1.0 1.1284990036459082e-14
  outer loop
    vertex -42.499999999999716 -37.86816900000061 3.2557190120131527
    vertex -33.87867965644006 -37.86816900000056 0.005719012013151619
    vertex -42.499999999999716 -37.86816900000056 0.0057190120131488
  endloop
endfacet
facet normal -3.795337600373138e-15 1.0 1.1284990036459082e-14
  outer loop
    vertex -33.87867965644006 -37.86816900000056 0.005719012013151619
    vertex -42.499999999999716 -37.86816900000061 3.2557190120131527
    vertex -33.87867965644006 -37.86816900000061 3.2557190120131585
  endloop
endfacet
facet normal -3.5238592131306365e-15 0.8944271909999204 -0.4472135954999491
  outer loop
    vertex -42.49999999999967 -49.36816900000061 1.5057190120131616
    vertex -38.792893218813106 -48.868169000000634 2.505719012013162
    vertex -39.29289321881313 -49.36816900000061 1.5057190120131587
  endloop
endfacet
facet normal -3.5238592131306365e-15 0.8944271909999204 -0.4472135954999491
  outer loop
    vertex -38.792893218813106 -48.868169000000634 2.505719012013162
    vertex -42.49999999999967 -49.36816900000061 1.5057190120131616
    vertex -42.49999999999967 -48.868169000000634 2.505719012013162
  endloop
endfacet
facet normal -1.0 -3.79533760037313e-15 -1.141604309112493e-16
  outer loop
    vertex -42.49999999999967 -48.868169000000634 2.505719012013162
    vertex -42.49999999999967 -49.36816900000061 1.5057190120131616
    vertex -42.49999999999967 -49.36816900000061 3.255719012013147
  endloop
endfacet
facet normal -1.0 -3.79533760037313e-15 -1.141604309112493e-16
  outer loop
    vertex -42.499999999999716 -38.868169000000606 3.2557190120131434
    vertex -42.499999999999716 -38.868169000000606 1.5057190120131627
    vertex -42.499999999999716 -39.36816900000063 2.505719012013162
  endloop
endfacet
facet normal -1.0 -3.79533760037313e-15 -1.141604309112493e-16
  outer loop
    vertex -42.499999999999716 -38.868169000000606 1.5057190120131627
    vertex -42.499999999999716 -38.868169000000606 3.2557190120131434
    vertex -42.499999999999716 -37.86816900000061 3.2557190120131527
  endloop
endfacet
facet normal -1.0 -3.79533760037313e-15 -1.141604309112493e-16
  outer loop
    vertex -42.499999999999716 -38.868169000000606 1.5057190120131627
    vertex -42.499999999999716 -37.86816900000061 3.2557190120131527
    vertex -42.499999999999716 -38.868169000000606 1.0057190120131663
  endloop
endfacet
facet normal -1.0 -3.79533760037313e-15 -1.141604309112493e-16
  outer loop
    vertex -42.49999999999967 -50.368169000000655 0.0057190120131593745
    vertex -42.49999999999967 -49.36816900000061 1.0057190120131654
    vertex -42.499999999999716 -37.86816900000056 0.0057190120131488
  endloop
endfacet
facet normal -1.0 -3.79533760037313e-15 -1.141604309112493e-16
  outer loop
    vertex -42.49999999999967 -49.36816900000061 1.0057190120131654
    vertex -42.49999999999967 -50.368169000000655 0.0057190120131593745
    vertex -42.49999999999967 -50.36816900000061 3.2557190120131576
  endloop
endfacet
facet normal -1.0 -3.79533760037313e-15 -1.141604309112493e-16
  outer loop
    vertex -42.49999999999967 -49.36816900000061 1.0057190120131654
    vertex -42.49999999999967 -50.36816900000061 3.2557190120131576
    vertex -42.49999999999967 -49.36816900000061 3.255719012013147
  endloop
endfacet
facet normal -1.0 -3.79533760037313e-15 -1.141604309112493e-16
  outer loop
    vertex -42.49999999999967 -49.36816900000061 1.0057190120131654
    vertex -42.49999999999967 -49.36816900000061 3.255719012013147
    vertex -42.49999999999967 -49.36816900000061 1.5057190120131616
  endloop
endfacet
facet normal -1.0 -3.79533760037313e-15 -1.141604309112493e-16
  outer loop
    vertex -42.499999999999716 -37.86816900000056 0.0057190120131488
    vertex -42.49999999999967 -49.36816900000061 1.0057190120131654
    vertex -42.499999999999716 -38.868169000000606 1.0057190120131663
  endloop
endfacet
facet normal -1.0 -3.79533760037313e-15 -1.141604309112493e-16
  outer loop
    vertex -42.499999999999716 -37.86816900000056 0.0057190120131488
    vertex -42.499999999999716 -38.868169000000606 1.0057190120131663
    vertex -42.499999999999716 -37.86816900000061 3.2557190120131527
  endloop
endfacet
facet normal 0.7071067811865422 0.7071067811865528 9.353695278284735e-16
  outer loop
    vertex -36.70710678118623 -48.36816900000061 1.0057190120131692
    vertex -35.70710678118626 -49.36816900000057 1.505719012013163
    vertex -35.70710678118626 -49.36816900000057 1.0057190120131667
  endloop
endfacet
facet normal 0.7071067811865422 0.7071067811865528 9.353695278284735e-16
  outer loop
    vertex -35.70710678118626 -49.36816900000057 1.505719012013163
    vertex -36.70710678118623 -48.36816900000061 1.0057190120131692
    vertex -36.70710678118623 -48.36816900000061 2.8807190120131603
  endloop
endfacet
facet normal 0.7071067811865422 0.7071067811865528 9.353695278284735e-16
  outer loop
    vertex -35.70710678118626 -49.36816900000057 1.505719012013163
    vertex -36.70710678118623 -48.36816900000061 2.8807190120131603
    vertex -36.20710678118621 -48.868169000000634 2.5057190120131665
  endloop
endfacet
facet normal 0.7071067811865422 0.7071067811865528 9.353695278284735e-16
  outer loop
    vertex -36.20710678118621 -48.868169000000634 2.5057190120131665
    vertex -36.70710678118623 -48.36816900000061 2.8807190120131603
    vertex -35.70710678118623 -49.36816900000057 3.2557190120131443
  endloop
endfacet
facet normal -3.4338511775999717e-15 0.8320502943378429 0.5547001962252305
  outer loop
    vertex -36.20710678118621 -48.868169000000634 2.5057190120131665
    vertex -34.29289321881314 -49.36816900000057 3.255719012013147
    vertex -33.79289321881312 -48.86816900000059 2.505719012013165
  endloop
endfacet
facet normal -3.4338511775999717e-15 0.8320502943378429 0.5547001962252305
  outer loop
    vertex -34.29289321881314 -49.36816900000057 3.255719012013147
    vertex -36.20710678118621 -48.868169000000634 2.5057190120131665
    vertex -35.70710678118623 -49.36816900000057 3.2557190120131443
  endloop
endfacet
facet normal -7.001652427619288e-16 8.051057444217048e-15 1.0
  outer loop
    vertex -33.87867965644001 -50.36816900000061 3.2557190120131603
    vertex -42.49999999999967 -49.36816900000061 3.255719012013147
    vertex -42.49999999999967 -50.36816900000061 3.2557190120131576
  endloop
endfacet
facet normal -7.001652427619288e-16 8.051057444217048e-15 1.0
  outer loop
    vertex -42.49999999999967 -49.36816900000061 3.255719012013147
    vertex -33.87867965644001 -50.36816900000061 3.2557190120131603
    vertex -39.29289321881313 -49.36816900000057 3.25571901201315
  endloop
endfacet
facet normal -7.001652427619288e-16 8.051057444217048e-15 1.0
  outer loop
    vertex -39.29289321881313 -49.36816900000057 3.25571901201315
    vertex -33.87867965644001 -50.36816900000061 3.2557190120131603
    vertex -35.70710678118623 -49.36816900000057 3.2557190120131443
  endloop
endfacet
facet normal -7.001652427619288e-16 8.051057444217048e-15 1.0
  outer loop
    vertex -35.70710678118623 -49.36816900000057 3.2557190120131443
    vertex -33.87867965644001 -50.36816900000061 3.2557190120131603
    vertex -34.29289321881314 -49.36816900000057 3.255719012013147
  endloop
endfacet
facet normal -7.001652427619288e-16 8.051057444217048e-15 1.0
  outer loop
    vertex -34.29289321881314 -49.36816900000057 3.255719012013147
    vertex -33.87867965644001 -50.36816900000061 3.2557190120131603
    vertex -32.499999999999694 -47.575275781187095 3.2557190120131323
  endloop
endfacet
facet normal -7.001652427619288e-16 8.051057444217048e-15 1.0
  outer loop
    vertex -32.499999999999694 -47.575275781187095 3.2557190120131323
    vertex -33.87867965644001 -50.36816900000061 3.2557190120131603
    vertex -32.49999999999967 -48.989489343560194 3.255719012013149
  endloop
endfacet
facet normal -4.933565971061581e-16 -5.801162973445083e-16 -1.0
  outer loop
    vertex -33.87867965644006 -37.86816900000056 0.005719012013151619
    vertex -42.49999999999967 -50.368169000000655 0.0057190120131593745
    vertex -42.499999999999716 -37.86816900000056 0.0057190120131488
  endloop
endfacet
facet normal -4.933565971061581e-16 -5.801162973445083e-16 -1.0
  outer loop
    vertex -42.49999999999967 -50.368169000000655 0.0057190120131593745
    vertex -33.87867965644006 -37.86816900000056 0.005719012013151619
    vertex -33.87867965644001 -50.368169000000655 0.005719012013162194
  endloop
endfacet
facet normal -4.933565971061581e-16 -5.801162973445083e-16 -1.0
  outer loop
    vertex -33.87867965644001 -50.368169000000655 0.005719012013162194
    vertex -33.87867965644006 -37.86816900000056 0.005719012013151619
    vertex -32.499999999999694 -39.24684865644093 0.0057190120131558496
  endloop
endfacet
facet normal -4.933565971061581e-16 -5.801162973445083e-16 -1.0
  outer loop
    vertex -33.87867965644001 -50.368169000000655 0.005719012013162194
    vertex -32.499999999999694 -39.24684865644093 0.0057190120131558496
    vertex -32.499999999999694 -48.989489343560194 0.005719012013146684
  endloop
endfacet
facet normal -3.7953376003731315e-15 1.0 2.220446049250313e-16
  outer loop
    vertex -42.49999999999967 -49.36816900000061 1.0057190120131654
    vertex -39.29289321881313 -49.36816900000061 1.5057190120131587
    vertex -39.29289321881313 -49.36816900000057 1.0057190120131625
  endloop
endfacet
facet normal -3.7953376003731315e-15 1.0 2.220446049250313e-16
  outer loop
    vertex -39.29289321881313 -49.36816900000061 1.5057190120131587
    vertex -42.49999999999967 -49.36816900000061 1.0057190120131654
    vertex -42.49999999999967 -49.36816900000061 1.5057190120131616
  endloop
endfacet
facet normal -0.7071067811865523 0.7071067811865427 -1.1053376814002987e-15
  outer loop
    vertex -32.499999999999694 -47.575275781187095 3.2557190120131323
    vertex -33.79289321881312 -48.86816900000059 2.505719012013165
    vertex -34.29289321881314 -49.36816900000057 3.255719012013147
  endloop
endfacet
facet normal -0.7071067811865523 0.7071067811865427 -1.1053376814002987e-15
  outer loop
    vertex -33.79289321881312 -48.86816900000059 2.505719012013165
    vertex -34.29289321881314 -49.36816900000057 1.0057190120131654
    vertex -34.29289321881314 -49.36816900000057 1.5057190120131616
  endloop
endfacet
facet normal -0.7071067811865523 0.7071067811865427 -1.1053376814002987e-15
  outer loop
    vertex -34.29289321881314 -49.36816900000057 1.0057190120131654
    vertex -33.79289321881312 -48.86816900000059 2.505719012013165
    vertex -32.499999999999694 -47.575275781187095 1.0057190120131565
  endloop
endfacet
facet normal -0.7071067811865523 0.7071067811865427 -1.1053376814002987e-15
  outer loop
    vertex -32.499999999999694 -47.575275781187095 1.0057190120131565
    vertex -33.79289321881312 -48.86816900000059 2.505719012013165
    vertex -32.499999999999694 -47.575275781187095 3.2557190120131323
  endloop
endfacet
facet normal 1.0 3.4103476712383396e-15 -8.141554714492921e-16
  outer loop
    vertex -32.499999999999694 -48.989489343560194 0.005719012013146684
    vertex -32.499999999999694 -47.575275781187095 1.0057190120131565
    vertex -32.49999999999967 -48.989489343560194 3.255719012013149
  endloop
endfacet
facet normal 1.0 3.4103476712383396e-15 -8.141554714492921e-16
  outer loop
    vertex -32.499999999999694 -47.575275781187095 1.0057190120131565
    vertex -32.499999999999694 -48.989489343560194 0.005719012013146684
    vertex -32.499999999999694 -39.24684865644093 0.0057190120131558496
  endloop
endfacet
facet normal 1.0 3.4103476712383396e-15 -8.141554714492921e-16
  outer loop
    vertex -32.499999999999694 -47.575275781187095 1.0057190120131565
    vertex -32.499999999999694 -39.24684865644093 0.0057190120131558496
    vertex -32.499999999999716 -40.66106221881403 1.0057190120131594
  endloop
endfacet
facet normal 1.0 3.4103476712383396e-15 -8.141554714492921e-16
  outer loop
    vertex -32.499999999999716 -40.66106221881403 1.0057190120131594
    vertex -32.499999999999694 -39.24684865644093 0.0057190120131558496
    vertex -32.499999999999716 -40.66106221881403 3.255719012013136
  endloop
endfacet
facet normal 1.0 3.4103476712383396e-15 -8.141554714492921e-16
  outer loop
    vertex -32.499999999999716 -40.66106221881403 3.255719012013136
    vertex -32.499999999999694 -39.24684865644093 0.0057190120131558496
    vertex -32.499999999999694 -39.24684865644093 3.2557190120131585
  endloop
endfacet
facet normal 1.0 3.4103476712383396e-15 -8.141554714492921e-16
  outer loop
    vertex -32.499999999999694 -47.575275781187095 3.2557190120131323
    vertex -32.49999999999967 -48.989489343560194 3.255719012013149
    vertex -32.499999999999694 -47.575275781187095 1.0057190120131565
  endloop
endfacet
facet normal -3.7953376003731315e-15 1.0 2.220446049250313e-16
  outer loop
    vertex -38.292893218813134 -48.36816900000057 2.8807190120131585
    vertex -36.70710678118623 -48.36816900000061 1.0057190120131692
    vertex -38.292893218813134 -48.36816900000057 1.0057190120131678
  endloop
endfacet
facet normal -3.7953376003731315e-15 1.0 2.220446049250313e-16
  outer loop
    vertex -36.70710678118623 -48.36816900000061 1.0057190120131692
    vertex -38.292893218813134 -48.36816900000057 2.8807190120131585
    vertex -36.70710678118623 -48.36816900000061 2.8807190120131603
  endloop
endfacet
facet normal 0.7071067811865531 0.7071067811865419 5.032248922907133e-15
  outer loop
    vertex -33.87867965644006 -37.86816900000056 0.005719012013151619
    vertex -32.499999999999694 -39.24684865644093 3.2557190120131585
    vertex -32.499999999999694 -39.24684865644093 0.0057190120131558496
  endloop
endfacet
facet normal 0.7071067811865531 0.7071067811865419 5.032248922907133e-15
  outer loop
    vertex -32.499999999999694 -39.24684865644093 3.2557190120131585
    vertex -33.87867965644006 -37.86816900000056 0.005719012013151619
    vertex -33.87867965644006 -37.86816900000061 3.2557190120131585
  endloop
endfacet
facet normal 1.8963890661222283e-16 -2.2204460492501869e-16 1.0
  outer loop
    vertex -42.49999999999967 -49.36816900000061 1.0057190120131654
    vertex -39.29289321881315 -38.868169000000606 1.0057190120131607
    vertex -42.499999999999716 -38.868169000000606 1.0057190120131663
  endloop
endfacet
facet normal 1.8963890661222283e-16 -2.2204460492501869e-16 1.0
  outer loop
    vertex -39.29289321881315 -38.868169000000606 1.0057190120131607
    vertex -42.49999999999967 -49.36816900000061 1.0057190120131654
    vertex -39.29289321881313 -49.36816900000057 1.0057190120131625
  endloop
endfacet
facet normal 1.8963890661222283e-16 -2.2204460492501869e-16 1.0
  outer loop
    vertex -39.29289321881315 -38.868169000000606 1.0057190120131607
    vertex -39.29289321881313 -49.36816900000057 1.0057190120131625
    vertex -38.292893218813155 -39.86816900000056 1.0057190120131705
  endloop
endfacet
facet normal 1.8963890661222283e-16 -2.2204460492501869e-16 1.0
  outer loop
    vertex -38.292893218813155 -39.86816900000056 1.0057190120131705
    vertex -39.29289321881313 -49.36816900000057 1.0057190120131625
    vertex -38.292893218813134 -48.36816900000057 1.0057190120131678
  endloop
endfacet
facet normal 1.8963890661222283e-16 -2.2204460492501869e-16 1.0
  outer loop
    vertex -38.292893218813155 -39.86816900000056 1.0057190120131705
    vertex -38.292893218813134 -48.36816900000057 1.0057190120131678
    vertex -36.707106781186255 -39.86816900000056 1.0057190120131705
  endloop
endfacet
facet normal 1.8963890661222283e-16 -2.2204460492501869e-16 1.0
  outer loop
    vertex -36.707106781186255 -39.86816900000056 1.0057190120131705
    vertex -38.292893218813134 -48.36816900000057 1.0057190120131678
    vertex -36.70710678118623 -48.36816900000061 1.0057190120131692
  endloop
endfacet
facet normal 1.8963890661222283e-16 -2.2204460492501869e-16 1.0
  outer loop
    vertex -36.707106781186255 -39.86816900000056 1.0057190120131705
    vertex -36.70710678118623 -48.36816900000061 1.0057190120131692
    vertex -35.70710678118628 -38.86816900000056 1.0057190120131692
  endloop
endfacet
facet normal 1.8963890661222283e-16 -2.2204460492501869e-16 1.0
  outer loop
    vertex -35.70710678118628 -38.86816900000056 1.0057190120131692
    vertex -36.70710678118623 -48.36816900000061 1.0057190120131692
    vertex -35.70710678118626 -49.36816900000057 1.0057190120131667
  endloop
endfacet
facet normal 1.8963890661222283e-16 -2.2204460492501869e-16 1.0
  outer loop
    vertex -35.70710678118628 -38.86816900000056 1.0057190120131692
    vertex -35.70710678118626 -49.36816900000057 1.0057190120131667
    vertex -34.29289321881316 -38.868169000000606 1.0057190120131692
  endloop
endfacet
facet normal 1.8963890661222283e-16 -2.2204460492501869e-16 1.0
  outer loop
    vertex -34.29289321881316 -38.868169000000606 1.0057190120131692
    vertex -35.70710678118626 -49.36816900000057 1.0057190120131667
    vertex -34.29289321881314 -49.36816900000057 1.0057190120131654
  endloop
endfacet
facet normal 1.8963890661222283e-16 -2.2204460492501869e-16 1.0
  outer loop
    vertex -34.29289321881316 -38.868169000000606 1.0057190120131692
    vertex -34.29289321881314 -49.36816900000057 1.0057190120131654
    vertex -32.499999999999716 -40.66106221881403 1.0057190120131594
  endloop
endfacet
facet normal 1.8963890661222283e-16 -2.2204460492501869e-16 1.0
  outer loop
    vertex -32.499999999999716 -40.66106221881403 1.0057190120131594
    vertex -34.29289321881314 -49.36816900000057 1.0057190120131654
    vertex -32.499999999999694 -47.575275781187095 1.0057190120131565
  endloop
endfacet
endsolid ProtoGlove
