solid ProtoGlove
facet normal 3.795337600373129e-15 -1.0 2.59792187762289e-15
  outer loop
    vertex -34.29289321881311 -18.86816900000064 1.5057190120131652
    vertex -35.70710678118623 -18.868169000000652 1.0057190120131687
    vertex -34.29289321881311 -18.868169000000645 1.0057190120131687
  endloop
endfacet
facet normal 3.795337600373129e-15 -1.0 2.59792187762289e-15
  outer loop
    vertex -35.70710678118623 -18.868169000000652 1.0057190120131687
    vertex -34.29289321881311 -18.86816900000064 1.5057190120131652
    vertex -35.70710678118623 -18.868169000000645 1.5057190120131652
  endloop
endfacet
facet normal -0.7071067811865464 -0.7071067811865487 -8.163480219388675e-16
  outer loop
    vertex -38.292893218813134 -19.868169000000638 1.0057190120131703
    vertex -39.29289321881312 -18.868169000000663 1.5057190120131567
    vertex -39.29289321881312 -18.868169000000663 1.0057190120131603
  endloop
endfacet
facet normal -0.7071067811865464 -0.7071067811865487 -8.163480219388675e-16
  outer loop
    vertex -39.29289321881312 -18.868169000000663 1.5057190120131567
    vertex -38.292893218813134 -19.868169000000638 1.0057190120131703
    vertex -38.292893218813134 -19.868169000000645 2.880719012013161
  endloop
endfacet
facet normal -0.7071067811865464 -0.7071067811865487 -8.163480219388675e-16
  outer loop
    vertex -39.29289321881312 -18.868169000000663 1.5057190120131567
    vertex -38.292893218813134 -19.868169000000645 2.880719012013161
    vertex -38.79289321881313 -19.36816900000065 2.5057190120131647
  endloop
endfacet
facet normal -0.7071067811865464 -0.7071067811865487 -8.163480219388675e-16
  outer loop
    vertex -38.79289321881313 -19.36816900000065 2.5057190120131647
    vertex -38.292893218813134 -19.868169000000645 2.880719012013161
    vertex -39.29289321881312 -18.868169000000663 3.255719012013149
  endloop
endfacet
facet normal -5.002608322809066e-16 -5.411859003602226e-15 1.0
  outer loop
    vertex -44.99999999999959 -18.868169000000677 3.2557190120131434
    vertex -33.878679656440035 -17.86816900000064 3.2557190120131576
    vertex -44.9999999999996 -17.868169000000684 3.255719012013152
  endloop
endfacet
facet normal -5.002608322809066e-16 -5.411859003602226e-15 1.0
  outer loop
    vertex -33.878679656440035 -17.86816900000064 3.2557190120131576
    vertex -44.99999999999959 -18.868169000000677 3.2557190120131434
    vertex -39.29289321881312 -18.868169000000663 3.255719012013149
  endloop
endfacet
facet normal -5.002608322809066e-16 -5.411859003602226e-15 1.0
  outer loop
    vertex -33.878679656440035 -17.86816900000064 3.2557190120131576
    vertex -39.29289321881312 -18.868169000000663 3.255719012013149
    vertex -35.70710678118625 -18.868169000000652 3.255719012013149
  endloop
endfacet
facet normal -5.002608322809066e-16 -5.411859003602226e-15 1.0
  outer loop
    vertex -33.878679656440035 -17.86816900000064 3.2557190120131576
    vertex -35.70710678118625 -18.868169000000652 3.255719012013149
    vertex -34.29289321881313 -18.86816900000064 3.255719012013149
  endloop
endfacet
facet normal -5.002608322809066e-16 -5.411859003602226e-15 1.0
  outer loop
    vertex -33.878679656440035 -17.86816900000064 3.2557190120131576
    vertex -34.29289321881313 -18.86816900000064 3.255719012013149
    vertex -32.49999999999967 -20.661062218814088 3.255719012013135
  endloop
endfacet
facet normal -5.002608322809066e-16 -5.411859003602226e-15 1.0
  outer loop
    vertex -33.878679656440035 -17.86816900000064 3.2557190120131576
    vertex -32.49999999999967 -20.661062218814088 3.255719012013135
    vertex -32.49999999999967 -19.24684865644101 3.2557190120131576
  endloop
endfacet
facet normal -1.0 -3.795337600373131e-15 -1.141604309112493e-16
  outer loop
    vertex -44.99999999999957 -28.868169000000677 2.505719012013162
    vertex -44.99999999999956 -29.36816900000067 1.505719012013161
    vertex -44.99999999999956 -29.368169000000684 3.2557190120131465
  endloop
endfacet
facet normal -1.0 -3.795337600373131e-15 -1.141604309112493e-16
  outer loop
    vertex -44.99999999999959 -18.868169000000677 3.2557190120131434
    vertex -44.99999999999959 -18.868169000000684 1.5057190120131623
    vertex -44.99999999999959 -19.368169000000673 2.505719012013162
  endloop
endfacet
facet normal -1.0 -3.795337600373131e-15 -1.141604309112493e-16
  outer loop
    vertex -44.99999999999959 -18.868169000000684 1.5057190120131623
    vertex -44.99999999999959 -18.868169000000677 3.2557190120131434
    vertex -44.99999999999959 -18.868169000000684 1.005719012013166
  endloop
endfacet
facet normal -1.0 -3.795337600373131e-15 -1.141604309112493e-16
  outer loop
    vertex -44.99999999999956 -30.368169000000726 0.0057190120131593745
    vertex -44.99999999999956 -29.36816900000067 1.0057190120131645
    vertex -44.9999999999996 -17.86816900000065 0.0057190120131480945
  endloop
endfacet
facet normal -1.0 -3.795337600373131e-15 -1.141604309112493e-16
  outer loop
    vertex -44.99999999999956 -29.36816900000067 1.0057190120131645
    vertex -44.99999999999956 -30.368169000000726 0.0057190120131593745
    vertex -44.99999999999956 -30.36816900000067 3.2557190120131576
  endloop
endfacet
facet normal -1.0 -3.795337600373131e-15 -1.141604309112493e-16
  outer loop
    vertex -44.99999999999956 -29.36816900000067 1.0057190120131645
    vertex -44.99999999999956 -30.36816900000067 3.2557190120131576
    vertex -44.99999999999956 -29.368169000000684 3.2557190120131465
  endloop
endfacet
facet normal -1.0 -3.795337600373131e-15 -1.141604309112493e-16
  outer loop
    vertex -44.99999999999956 -29.36816900000067 1.0057190120131645
    vertex -44.99999999999956 -29.368169000000684 3.2557190120131465
    vertex -44.99999999999956 -29.36816900000067 1.505719012013161
  endloop
endfacet
facet normal -1.0 -3.795337600373131e-15 -1.141604309112493e-16
  outer loop
    vertex -44.9999999999996 -17.86816900000065 0.0057190120131480945
    vertex -44.99999999999956 -29.36816900000067 1.0057190120131645
    vertex -44.99999999999959 -18.868169000000684 1.005719012013166
  endloop
endfacet
facet normal -1.0 -3.795337600373131e-15 -1.141604309112493e-16
  outer loop
    vertex -44.9999999999996 -17.86816900000065 0.0057190120131480945
    vertex -44.99999999999959 -18.868169000000684 1.005719012013166
    vertex -44.99999999999959 -18.868169000000677 3.2557190120131434
  endloop
endfacet
facet normal -1.0 -3.795337600373131e-15 -1.141604309112493e-16
  outer loop
    vertex -44.9999999999996 -17.86816900000065 0.0057190120131480945
    vertex -44.99999999999959 -18.868169000000677 3.2557190120131434
    vertex -44.9999999999996 -17.868169000000684 3.255719012013152
  endloop
endfacet
facet normal 4.379371781627573e-15 -1.0 1.1879386363489302e-15
  outer loop
    vertex -39.29289321881312 -18.868169000000663 1.5057190120131567
    vertex -44.99999999999959 -18.868169000000684 1.005719012013166
    vertex -39.29289321881312 -18.868169000000663 1.0057190120131603
  endloop
endfacet
facet normal 4.379371781627573e-15 -1.0 1.1879386363489302e-15
  outer loop
    vertex -44.99999999999959 -18.868169000000684 1.005719012013166
    vertex -39.29289321881312 -18.868169000000663 1.5057190120131567
    vertex -44.99999999999959 -18.868169000000684 1.5057190120131623
  endloop
endfacet
facet normal 1.4228424147124007e-15 -0.3511234415883879 0.936329177569046
  outer loop
    vertex -38.292893218813134 -19.868169000000645 2.880719012013161
    vertex -35.70710678118625 -18.868169000000652 3.255719012013149
    vertex -39.29289321881312 -18.868169000000663 3.255719012013149
  endloop
endfacet
facet normal 1.4228424147124007e-15 -0.3511234415883879 0.936329177569046
  outer loop
    vertex -35.70710678118625 -18.868169000000652 3.255719012013149
    vertex -38.292893218813134 -19.868169000000645 2.880719012013161
    vertex -36.70710678118623 -19.868169000000638 2.880719012013161
  endloop
endfacet
facet normal 3.54250386918719e-16 -0.8320502943378436 0.5547001962252293
  outer loop
    vertex -38.79289321881313 -19.36816900000065 2.5057190120131647
    vertex -44.99999999999959 -18.868169000000677 3.2557190120131434
    vertex -44.99999999999959 -19.368169000000673 2.505719012013162
  endloop
endfacet
facet normal 3.54250386918719e-16 -0.8320502943378436 0.5547001962252293
  outer loop
    vertex -44.99999999999959 -18.868169000000677 3.2557190120131434
    vertex -38.79289321881313 -19.36816900000065 2.5057190120131647
    vertex -39.29289321881312 -18.868169000000663 3.255719012013149
  endloop
endfacet
facet normal -6.44623960260298e-15 0.832050294337842 0.554700196225232
  outer loop
    vertex -44.99999999999956 -29.368169000000684 3.2557190120131465
    vertex -38.7928932188131 -28.868169000000663 2.505719012013162
    vertex -44.99999999999957 -28.868169000000677 2.505719012013162
  endloop
endfacet
facet normal -6.44623960260298e-15 0.832050294337842 0.554700196225232
  outer loop
    vertex -38.7928932188131 -28.868169000000663 2.505719012013162
    vertex -44.99999999999956 -29.368169000000684 3.2557190120131465
    vertex -39.292893218813084 -29.368169000000655 3.255719012013149
  endloop
endfacet
facet normal 0.7071067811865452 -0.7071067811865499 5.75882146201297e-16
  outer loop
    vertex -35.70710678118623 -18.868169000000645 1.5057190120131652
    vertex -36.70710678118623 -19.868169000000634 1.0057190120131703
    vertex -35.70710678118623 -18.868169000000652 1.0057190120131687
  endloop
endfacet
facet normal 0.7071067811865452 -0.7071067811865499 5.75882146201297e-16
  outer loop
    vertex -36.70710678118623 -19.868169000000634 1.0057190120131703
    vertex -35.70710678118623 -18.868169000000645 1.5057190120131652
    vertex -36.70710678118623 -19.868169000000638 2.880719012013161
  endloop
endfacet
facet normal 0.7071067811865452 -0.7071067811865499 5.75882146201297e-16
  outer loop
    vertex -36.70710678118623 -19.868169000000638 2.880719012013161
    vertex -35.70710678118623 -18.868169000000645 1.5057190120131652
    vertex -36.20710678118623 -19.368169000000638 2.5057190120131674
  endloop
endfacet
facet normal 0.7071067811865452 -0.7071067811865499 5.75882146201297e-16
  outer loop
    vertex -36.70710678118623 -19.868169000000638 2.880719012013161
    vertex -36.20710678118623 -19.368169000000638 2.5057190120131674
    vertex -35.70710678118625 -18.868169000000652 3.255719012013149
  endloop
endfacet
facet normal 3.808927394597127e-15 -0.8944271909999212 -0.4472135954999473
  outer loop
    vertex -33.79289321881312 -19.368169000000627 2.5057190120131687
    vertex -35.70710678118623 -18.868169000000645 1.5057190120131652
    vertex -34.29289321881311 -18.86816900000064 1.5057190120131652
  endloop
endfacet
facet normal 3.808927394597127e-15 -0.8944271909999212 -0.4472135954999473
  outer loop
    vertex -35.70710678118623 -18.868169000000645 1.5057190120131652
    vertex -33.79289321881312 -19.368169000000627 2.5057190120131687
    vertex -36.20710678118623 -19.368169000000638 2.5057190120131674
  endloop
endfacet
facet normal 3.164484011894825e-15 -0.8320502943378445 0.5547001962252279
  outer loop
    vertex -33.79289321881312 -19.368169000000627 2.5057190120131687
    vertex -35.70710678118625 -18.868169000000652 3.255719012013149
    vertex -36.20710678118623 -19.368169000000638 2.5057190120131674
  endloop
endfacet
facet normal 3.164484011894825e-15 -0.8320502943378445 0.5547001962252279
  outer loop
    vertex -35.70710678118625 -18.868169000000652 3.255719012013149
    vertex -33.79289321881312 -19.368169000000627 2.5057190120131687
    vertex -34.29289321881313 -18.86816900000064 3.255719012013149
  endloop
endfacet
facet normal 3.2654470844656015e-15 -0.8944271909999209 -0.447213595499948
  outer loop
    vertex -38.79289321881313 -19.36816900000065 2.5057190120131647
    vertex -44.99999999999959 -18.868169000000684 1.5057190120131623
    vertex -39.29289321881312 -18.868169000000663 1.5057190120131567
  endloop
endfacet
facet normal 3.2654470844656015e-15 -0.8944271909999209 -0.447213595499948
  outer loop
    vertex -44.99999999999959 -18.868169000000684 1.5057190120131623
    vertex -38.79289321881313 -19.36816900000065 2.5057190120131647
    vertex -44.99999999999959 -19.368169000000673 2.505719012013162
  endloop
endfacet
facet normal 3.795337600373131e-15 -1.0 -5.980401359314176e-16
  outer loop
    vertex -36.70710678118623 -19.868169000000638 2.880719012013161
    vertex -38.292893218813134 -19.868169000000638 1.0057190120131703
    vertex -36.70710678118623 -19.868169000000634 1.0057190120131703
  endloop
endfacet
facet normal 3.795337600373131e-15 -1.0 -5.980401359314176e-16
  outer loop
    vertex -38.292893218813134 -19.868169000000638 1.0057190120131703
    vertex -36.70710678118623 -19.868169000000638 2.880719012013161
    vertex -38.292893218813134 -19.868169000000645 2.880719012013161
  endloop
endfacet
facet normal 0.7071067811865531 0.7071067811865419 5.032248922907134e-15
  outer loop
    vertex -32.49999999999967 -19.246848656441003 0.005719012013155144
    vertex -33.878679656440035 -17.86816900000064 3.2557190120131576
    vertex -32.49999999999967 -19.24684865644101 3.2557190120131576
  endloop
endfacet
facet normal 0.7071067811865531 0.7071067811865419 5.032248922907134e-15
  outer loop
    vertex -33.878679656440035 -17.86816900000064 3.2557190120131576
    vertex -32.49999999999967 -19.246848656441003 0.005719012013155144
    vertex -33.878679656440035 -17.868169000000606 0.005719012013150914
  endloop
endfacet
facet normal -3.795337600373131e-15 1.0 2.220446049250294e-16
  outer loop
    vertex -38.2928932188131 -28.368169000000655 2.8807190120131585
    vertex -36.70710678118621 -28.368169000000652 1.0057190120131687
    vertex -38.292893218813106 -28.368169000000663 1.0057190120131674
  endloop
endfacet
facet normal -3.795337600373131e-15 1.0 2.220446049250294e-16
  outer loop
    vertex -36.70710678118621 -28.368169000000652 1.0057190120131687
    vertex -38.2928932188131 -28.368169000000655 2.8807190120131585
    vertex -36.7071067811862 -28.368169000000652 2.88071901201316
  endloop
endfacet
facet normal -3.523859213130634e-15 0.8944271909999204 -0.4472135954999491
  outer loop
    vertex -44.99999999999956 -29.36816900000067 1.505719012013161
    vertex -38.7928932188131 -28.868169000000663 2.505719012013162
    vertex -39.292893218813084 -29.368169000000655 1.505719012013158
  endloop
endfacet
facet normal -3.523859213130634e-15 0.8944271909999204 -0.4472135954999491
  outer loop
    vertex -38.7928932188131 -28.868169000000663 2.505719012013162
    vertex -44.99999999999956 -29.36816900000067 1.505719012013161
    vertex -44.99999999999957 -28.868169000000677 2.505719012013162
  endloop
endfacet
facet normal -4.933565971061581e-16 -5.801162973445006e-16 -1.0
  outer loop
    vertex -33.878679656440035 -17.868169000000606 0.005719012013150914
    vertex -44.99999999999956 -30.368169000000726 0.0057190120131593745
    vertex -44.9999999999996 -17.86816900000065 0.0057190120131480945
  endloop
endfacet
facet normal -4.933565971061581e-16 -5.801162973445006e-16 -1.0
  outer loop
    vertex -44.99999999999956 -30.368169000000726 0.0057190120131593745
    vertex -33.878679656440035 -17.868169000000606 0.005719012013150914
    vertex -33.878679656439985 -30.368169000000687 0.005719012013162194
  endloop
endfacet
facet normal -4.933565971061581e-16 -5.801162973445006e-16 -1.0
  outer loop
    vertex -33.878679656439985 -30.368169000000687 0.005719012013162194
    vertex -33.878679656440035 -17.868169000000606 0.005719012013150914
    vertex -32.49999999999967 -19.246848656441003 0.005719012013155144
  endloop
endfacet
facet normal -4.933565971061581e-16 -5.801162973445006e-16 -1.0
  outer loop
    vertex -33.878679656439985 -30.368169000000687 0.005719012013162194
    vertex -32.49999999999967 -19.246848656441003 0.005719012013155144
    vertex -32.49999999999966 -28.9894893435603 0.005719012013146684
  endloop
endfacet
facet normal -3.795337600373131e-15 1.0 2.220446049250294e-16
  outer loop
    vertex -35.70710678118621 -29.368169000000638 1.005719012013166
    vertex -34.29289321881309 -29.368169000000638 1.505719012013161
    vertex -34.29289321881309 -29.368169000000638 1.0057190120131645
  endloop
endfacet
facet normal -3.795337600373131e-15 1.0 2.220446049250294e-16
  outer loop
    vertex -34.29289321881309 -29.368169000000638 1.505719012013161
    vertex -35.70710678118621 -29.368169000000638 1.005719012013166
    vertex -35.70710678118621 -29.368169000000638 1.5057190120131623
  endloop
endfacet
facet normal -7.001652427619288e-16 8.05105744421704e-15 1.0
  outer loop
    vertex -33.878679656439985 -30.368169000000634 3.2557190120131603
    vertex -44.99999999999956 -29.368169000000684 3.2557190120131465
    vertex -44.99999999999956 -30.36816900000067 3.2557190120131576
  endloop
endfacet
facet normal -7.001652427619288e-16 8.05105744421704e-15 1.0
  outer loop
    vertex -44.99999999999956 -29.368169000000684 3.2557190120131465
    vertex -33.878679656439985 -30.368169000000634 3.2557190120131603
    vertex -39.292893218813084 -29.368169000000655 3.255719012013149
  endloop
endfacet
facet normal -7.001652427619288e-16 8.05105744421704e-15 1.0
  outer loop
    vertex -39.292893218813084 -29.368169000000655 3.255719012013149
    vertex -33.878679656439985 -30.368169000000634 3.2557190120131603
    vertex -35.707106781186205 -29.368169000000638 3.2557190120131434
  endloop
endfacet
facet normal -7.001652427619288e-16 8.05105744421704e-15 1.0
  outer loop
    vertex -35.707106781186205 -29.368169000000638 3.2557190120131434
    vertex -33.878679656439985 -30.368169000000634 3.2557190120131603
    vertex -34.29289321881309 -29.368169000000638 3.2557190120131465
  endloop
endfacet
facet normal -7.001652427619288e-16 8.05105744421704e-15 1.0
  outer loop
    vertex -34.29289321881309 -29.368169000000638 3.2557190120131465
    vertex -33.878679656439985 -30.368169000000634 3.2557190120131603
    vertex -32.499999999999645 -27.57527578118717 3.2557190120131323
  endloop
endfacet
facet normal -7.001652427619288e-16 8.05105744421704e-15 1.0
  outer loop
    vertex -32.499999999999645 -27.57527578118717 3.2557190120131323
    vertex -33.878679656439985 -30.368169000000634 3.2557190120131603
    vertex -32.499999999999645 -28.98948934356028 3.255719012013149
  endloop
endfacet
facet normal -3.433851177599968e-15 0.8320502943378429 0.5547001962252305
  outer loop
    vertex -36.207106781186205 -28.86816900000065 2.505719012013166
    vertex -34.29289321881309 -29.368169000000638 3.2557190120131465
    vertex -33.79289321881309 -28.868169000000638 2.5057190120131647
  endloop
endfacet
facet normal -3.433851177599968e-15 0.8320502943378429 0.5547001962252305
  outer loop
    vertex -34.29289321881309 -29.368169000000638 3.2557190120131465
    vertex -36.207106781186205 -28.86816900000065 2.505719012013166
    vertex -35.707106781186205 -29.368169000000638 3.2557190120131434
  endloop
endfacet
facet normal -3.172183684085752e-15 0.8944271909999205 -0.4472135954999487
  outer loop
    vertex -35.70710678118621 -29.368169000000638 1.5057190120131623
    vertex -33.79289321881309 -28.868169000000638 2.5057190120131647
    vertex -34.29289321881309 -29.368169000000638 1.505719012013161
  endloop
endfacet
facet normal -3.172183684085752e-15 0.8944271909999205 -0.4472135954999487
  outer loop
    vertex -33.79289321881309 -28.868169000000638 2.5057190120131647
    vertex -35.70710678118621 -29.368169000000638 1.5057190120131623
    vertex -36.207106781186205 -28.86816900000065 2.505719012013166
  endloop
endfacet
facet normal -3.795337600373131e-15 1.0 2.220446049250294e-16
  outer loop
    vertex -44.99999999999956 -29.36816900000067 1.0057190120131645
    vertex -39.292893218813084 -29.368169000000655 1.505719012013158
    vertex -39.292893218813084 -29.368169000000655 1.0057190120131618
  endloop
endfacet
facet normal -3.795337600373131e-15 1.0 2.220446049250294e-16
  outer loop
    vertex -39.292893218813084 -29.368169000000655 1.505719012013158
    vertex -44.99999999999956 -29.36816900000067 1.0057190120131645
    vertex -44.99999999999956 -29.36816900000067 1.505719012013161
  endloop
endfacet
facet normal 1.896389066122228e-16 -2.2204460492502887e-16 1.0
  outer loop
    vertex -44.99999999999956 -29.36816900000067 1.0057190120131645
    vertex -39.29289321881312 -18.868169000000663 1.0057190120131603
    vertex -44.99999999999959 -18.868169000000684 1.005719012013166
  endloop
endfacet
facet normal 1.896389066122228e-16 -2.2204460492502887e-16 1.0
  outer loop
    vertex -39.29289321881312 -18.868169000000663 1.0057190120131603
    vertex -44.99999999999956 -29.36816900000067 1.0057190120131645
    vertex -39.292893218813084 -29.368169000000655 1.0057190120131618
  endloop
endfacet
facet normal 1.896389066122228e-16 -2.2204460492502887e-16 1.0
  outer loop
    vertex -39.29289321881312 -18.868169000000663 1.0057190120131603
    vertex -39.292893218813084 -29.368169000000655 1.0057190120131618
    vertex -38.292893218813134 -19.868169000000638 1.0057190120131703
  endloop
endfacet
facet normal 1.896389066122228e-16 -2.2204460492502887e-16 1.0
  outer loop
    vertex -38.292893218813134 -19.868169000000638 1.0057190120131703
    vertex -39.292893218813084 -29.368169000000655 1.0057190120131618
    vertex -38.292893218813106 -28.368169000000663 1.0057190120131674
  endloop
endfacet
facet normal 1.896389066122228e-16 -2.2204460492502887e-16 1.0
  outer loop
    vertex -38.292893218813134 -19.868169000000638 1.0057190120131703
    vertex -38.292893218813106 -28.368169000000663 1.0057190120131674
    vertex -36.70710678118623 -19.868169000000634 1.0057190120131703
  endloop
endfacet
facet normal 1.896389066122228e-16 -2.2204460492502887e-16 1.0
  outer loop
    vertex -36.70710678118623 -19.868169000000634 1.0057190120131703
    vertex -38.292893218813106 -28.368169000000663 1.0057190120131674
    vertex -36.70710678118621 -28.368169000000652 1.0057190120131687
  endloop
endfacet
facet normal 1.896389066122228e-16 -2.2204460492502887e-16 1.0
  outer loop
    vertex -36.70710678118623 -19.868169000000634 1.0057190120131703
    vertex -36.70710678118621 -28.368169000000652 1.0057190120131687
    vertex -35.70710678118623 -18.868169000000652 1.0057190120131687
  endloop
endfacet
facet normal 1.896389066122228e-16 -2.2204460492502887e-16 1.0
  outer loop
    vertex -35.70710678118623 -18.868169000000652 1.0057190120131687
    vertex -36.70710678118621 -28.368169000000652 1.0057190120131687
    vertex -35.70710678118621 -29.368169000000638 1.005719012013166
  endloop
endfacet
facet normal 1.896389066122228e-16 -2.2204460492502887e-16 1.0
  outer loop
    vertex -35.70710678118623 -18.868169000000652 1.0057190120131687
    vertex -35.70710678118621 -29.368169000000638 1.005719012013166
    vertex -34.29289321881311 -18.868169000000645 1.0057190120131687
  endloop
endfacet
facet normal 1.896389066122228e-16 -2.2204460492502887e-16 1.0
  outer loop
    vertex -34.29289321881311 -18.868169000000645 1.0057190120131687
    vertex -35.70710678118621 -29.368169000000638 1.005719012013166
    vertex -34.29289321881309 -29.368169000000638 1.0057190120131645
  endloop
endfacet
facet normal 1.896389066122228e-16 -2.2204460492502887e-16 1.0
  outer loop
    vertex -34.29289321881311 -18.868169000000645 1.0057190120131687
    vertex -34.29289321881309 -29.368169000000638 1.0057190120131645
    vertex -32.49999999999967 -20.661062218814084 1.005719012013159
  endloop
endfacet
facet normal 1.896389066122228e-16 -2.2204460492502887e-16 1.0
  outer loop
    vertex -32.49999999999967 -20.661062218814084 1.005719012013159
    vertex -34.29289321881309 -29.368169000000638 1.0057190120131645
    vertex -32.49999999999966 -27.57527578118718 1.005719012013156
  endloop
endfacet
facet normal -0.7071067811865523 0.7071067811865427 -1.1053376814002811e-15
  outer loop
    vertex -32.499999999999645 -27.57527578118717 3.2557190120131323
    vertex -33.79289321881309 -28.868169000000638 2.5057190120131647
    vertex -34.29289321881309 -29.368169000000638 3.2557190120131465
  endloop
endfacet
facet normal -0.7071067811865523 0.7071067811865427 -1.1053376814002811e-15
  outer loop
    vertex -33.79289321881309 -28.868169000000638 2.5057190120131647
    vertex -32.499999999999645 -27.57527578118717 3.2557190120131323
    vertex -32.49999999999966 -27.57527578118718 1.005719012013156
  endloop
endfacet
facet normal -0.7071067811865523 0.7071067811865427 -1.1053376814002811e-15
  outer loop
    vertex -33.79289321881309 -28.868169000000638 2.5057190120131647
    vertex -34.29289321881309 -29.368169000000638 1.0057190120131645
    vertex -34.29289321881309 -29.368169000000638 1.505719012013161
  endloop
endfacet
facet normal -0.7071067811865523 0.7071067811865427 -1.1053376814002811e-15
  outer loop
    vertex -34.29289321881309 -29.368169000000638 1.0057190120131645
    vertex -33.79289321881309 -28.868169000000638 2.5057190120131647
    vertex -32.49999999999966 -27.57527578118718 1.005719012013156
  endloop
endfacet
facet normal 0.7071067811865422 0.7071067811865528 9.353695278284601e-16
  outer loop
    vertex -36.70710678118621 -28.368169000000652 1.0057190120131687
    vertex -35.70710678118621 -29.368169000000638 1.5057190120131623
    vertex -35.70710678118621 -29.368169000000638 1.005719012013166
  endloop
endfacet
facet normal 0.7071067811865422 0.7071067811865528 9.353695278284601e-16
  outer loop
    vertex -35.70710678118621 -29.368169000000638 1.5057190120131623
    vertex -36.70710678118621 -28.368169000000652 1.0057190120131687
    vertex -36.7071067811862 -28.368169000000652 2.88071901201316
  endloop
endfacet
facet normal 0.7071067811865422 0.7071067811865528 9.353695278284601e-16
  outer loop
    vertex -35.70710678118621 -29.368169000000638 1.5057190120131623
    vertex -36.7071067811862 -28.368169000000652 2.88071901201316
    vertex -36.207106781186205 -28.86816900000065 2.505719012013166
  endloop
endfacet
facet normal 0.7071067811865422 0.7071067811865528 9.353695278284601e-16
  outer loop
    vertex -36.207106781186205 -28.86816900000065 2.505719012013166
    vertex -36.7071067811862 -28.368169000000652 2.88071901201316
    vertex -35.707106781186205 -29.368169000000638 3.2557190120131434
  endloop
endfacet
facet normal 0.7071067811865569 -0.7071067811865381 6.862905309106537e-15
  outer loop
    vertex -32.49999999999966 -28.9894893435603 0.005719012013146684
    vertex -33.878679656439985 -30.368169000000634 3.2557190120131603
    vertex -33.878679656439985 -30.368169000000687 0.005719012013162194
  endloop
endfacet
facet normal 0.7071067811865569 -0.7071067811865381 6.862905309106537e-15
  outer loop
    vertex -33.878679656439985 -30.368169000000634 3.2557190120131603
    vertex -32.49999999999966 -28.9894893435603 0.005719012013146684
    vertex -32.499999999999645 -28.98948934356028 3.255719012013149
  endloop
endfacet
facet normal -1.1849049884444739e-15 0.3511234415883855 0.9363291775690469
  outer loop
    vertex -35.707106781186205 -29.368169000000638 3.2557190120131434
    vertex -38.2928932188131 -28.368169000000655 2.8807190120131585
    vertex -39.292893218813084 -29.368169000000655 3.255719012013149
  endloop
endfacet
facet normal -1.1849049884444739e-15 0.3511234415883855 0.9363291775690469
  outer loop
    vertex -38.2928932188131 -28.368169000000655 2.8807190120131585
    vertex -35.707106781186205 -29.368169000000638 3.2557190120131434
    vertex -36.7071067811862 -28.368169000000652 2.88071901201316
  endloop
endfacet
facet normal -0.7071067811865538 0.7071067811865412 -3.431884155856796e-16
  outer loop
    vertex -38.2928932188131 -28.368169000000655 2.8807190120131585
    vertex -38.7928932188131 -28.868169000000663 2.505719012013162
    vertex -39.292893218813084 -29.368169000000655 3.255719012013149
  endloop
endfacet
facet normal -0.7071067811865538 0.7071067811865412 -3.431884155856796e-16
  outer loop
    vertex -38.7928932188131 -28.868169000000663 2.505719012013162
    vertex -38.2928932188131 -28.368169000000655 2.8807190120131585
    vertex -38.292893218813106 -28.368169000000663 1.0057190120131674
  endloop
endfacet
facet normal -0.7071067811865538 0.7071067811865412 -3.431884155856796e-16
  outer loop
    vertex -38.7928932188131 -28.868169000000663 2.505719012013162
    vertex -39.292893218813084 -29.368169000000655 1.0057190120131618
    vertex -39.292893218813084 -29.368169000000655 1.505719012013158
  endloop
endfacet
facet normal -0.7071067811865538 0.7071067811865412 -3.431884155856796e-16
  outer loop
    vertex -39.292893218813084 -29.368169000000655 1.0057190120131618
    vertex -38.7928932188131 -28.868169000000663 2.505719012013162
    vertex -38.292893218813106 -28.368169000000663 1.0057190120131674
  endloop
endfacet
facet normal 3.795337600373123e-15 -1.0 1.6046992794389792e-14
  outer loop
    vertex -33.878679656439985 -30.368169000000687 0.005719012013162194
    vertex -44.99999999999956 -30.36816900000067 3.2557190120131576
    vertex -44.99999999999956 -30.368169000000726 0.0057190120131593745
  endloop
endfacet
facet normal 3.795337600373123e-15 -1.0 1.6046992794389792e-14
  outer loop
    vertex -44.99999999999956 -30.36816900000067 3.2557190120131576
    vertex -33.878679656439985 -30.368169000000687 0.005719012013162194
    vertex -33.878679656439985 -30.368169000000634 3.2557190120131603
  endloop
endfacet
facet normal -3.795337600373136e-15 1.0 1.128499003645908e-14
  outer loop
    vertex -44.9999999999996 -17.868169000000684 3.255719012013152
    vertex -33.878679656440035 -17.868169000000606 0.005719012013150914
    vertex -44.9999999999996 -17.86816900000065 0.0057190120131480945
  endloop
endfacet
facet normal -3.795337600373136e-15 1.0 1.128499003645908e-14
  outer loop
    vertex -33.878679656440035 -17.868169000000606 0.005719012013150914
    vertex -44.9999999999996 -17.868169000000684 3.255719012013152
    vertex -33.878679656440035 -17.86816900000064 3.2557190120131576
  endloop
endfacet
facet normal -0.7071067811865462 -0.7071067811865488 3.787745056503832e-16
  outer loop
    vertex -32.49999999999967 -20.661062218814088 3.255719012013135
    vertex -34.29289321881311 -18.868169000000645 1.0057190120131687
    vertex -32.49999999999967 -20.661062218814084 1.005719012013159
  endloop
endfacet
facet normal -0.7071067811865462 -0.7071067811865488 3.787745056503832e-16
  outer loop
    vertex -34.29289321881311 -18.868169000000645 1.0057190120131687
    vertex -32.49999999999967 -20.661062218814088 3.255719012013135
    vertex -34.29289321881311 -18.86816900000064 1.5057190120131652
  endloop
endfacet
facet normal -0.7071067811865462 -0.7071067811865488 3.787745056503832e-16
  outer loop
    vertex -34.29289321881311 -18.86816900000064 1.5057190120131652
    vertex -32.49999999999967 -20.661062218814088 3.255719012013135
    vertex -33.79289321881312 -19.368169000000627 2.5057190120131687
  endloop
endfacet
facet normal -0.7071067811865462 -0.7071067811865488 3.787745056503832e-16
  outer loop
    vertex -33.79289321881312 -19.368169000000627 2.5057190120131687
    vertex -32.49999999999967 -20.661062218814088 3.255719012013135
    vertex -34.29289321881313 -18.86816900000064 3.255719012013149
  endloop
endfacet
facet normal 1.0 3.41034767123834e-15 -8.141554714492921e-16
  outer loop
    vertex -32.49999999999966 -28.9894893435603 0.005719012013146684
    vertex -32.49999999999966 -27.57527578118718 1.005719012013156
    vertex -32.499999999999645 -28.98948934356028 3.255719012013149
  endloop
endfacet
facet normal 1.0 3.41034767123834e-15 -8.141554714492921e-16
  outer loop
    vertex -32.49999999999966 -27.57527578118718 1.005719012013156
    vertex -32.49999999999966 -28.9894893435603 0.005719012013146684
    vertex -32.49999999999967 -19.246848656441003 0.005719012013155144
  endloop
endfacet
facet normal 1.0 3.41034767123834e-15 -8.141554714492921e-16
  outer loop
    vertex -32.49999999999966 -27.57527578118718 1.005719012013156
    vertex -32.49999999999967 -19.246848656441003 0.005719012013155144
    vertex -32.49999999999967 -20.661062218814084 1.005719012013159
  endloop
endfacet
facet normal 1.0 3.41034767123834e-15 -8.141554714492921e-16
  outer loop
    vertex -32.49999999999967 -20.661062218814084 1.005719012013159
    vertex -32.49999999999967 -19.246848656441003 0.005719012013155144
    vertex -32.49999999999967 -19.24684865644101 3.2557190120131576
  endloop
endfacet
facet normal 1.0 3.41034767123834e-15 -8.141554714492921e-16
  outer loop
    vertex -32.49999999999967 -19.24684865644101 3.2557190120131576
    vertex -32.49999999999967 -20.661062218814088 3.255719012013135
    vertex -32.49999999999967 -20.661062218814084 1.005719012013159
  endloop
endfacet
facet normal 1.0 3.41034767123834e-15 -8.141554714492921e-16
  outer loop
    vertex -32.499999999999645 -27.57527578118717 3.2557190120131323
    vertex -32.499999999999645 -28.98948934356028 3.255719012013149
    vertex -32.49999999999966 -27.57527578118718 1.005719012013156
  endloop
endfacet
endsolid ProtoGlove
