solid ProtoGlove
facet normal 0.7071067811865452 -0.7071067811865499 5.75882146201297e-16
  outer loop
    vertex -35.70710678118648 -58.86816900000064 1.5057190120131645
    vertex -36.707106781186475 -59.86816900000063 1.0057190120131705
    vertex -35.70710678118648 -58.86816900000064 1.0057190120131683
  endloop
endfacet
facet normal 0.7071067811865452 -0.7071067811865499 5.75882146201297e-16
  outer loop
    vertex -36.707106781186475 -59.86816900000063 1.0057190120131705
    vertex -35.70710678118648 -58.86816900000064 1.5057190120131645
    vertex -36.707106781186475 -59.86816900000063 2.880719012013161
  endloop
endfacet
facet normal 0.7071067811865452 -0.7071067811865499 5.75882146201297e-16
  outer loop
    vertex -36.707106781186475 -59.86816900000063 2.880719012013161
    vertex -35.70710678118648 -58.86816900000064 1.5057190120131645
    vertex -36.207106781186475 -59.36816900000063 2.505719012013168
  endloop
endfacet
facet normal 0.7071067811865452 -0.7071067811865499 5.75882146201297e-16
  outer loop
    vertex -36.707106781186475 -59.86816900000063 2.880719012013161
    vertex -36.207106781186475 -59.36816900000063 2.505719012013168
    vertex -35.70710678118648 -58.86816900000064 3.25571901201315
  endloop
endfacet
facet normal 3.795337600373129e-15 -1.0 2.59792187762289e-15
  outer loop
    vertex -34.29289321881336 -58.86816900000064 1.5057190120131652
    vertex -35.70710678118648 -58.86816900000064 1.0057190120131683
    vertex -34.29289321881336 -58.86816900000064 1.005719012013169
  endloop
endfacet
facet normal 3.795337600373129e-15 -1.0 2.59792187762289e-15
  outer loop
    vertex -35.70710678118648 -58.86816900000064 1.0057190120131683
    vertex -34.29289321881336 -58.86816900000064 1.5057190120131652
    vertex -35.70710678118648 -58.86816900000064 1.5057190120131645
  endloop
endfacet
facet normal 4.379371781627573e-15 -1.0 1.1879386363489302e-15
  outer loop
    vertex -39.292893218813354 -58.86816900000066 1.5057190120131572
    vertex -39.749999999999915 -58.86816900000066 1.0057190120131663
    vertex -39.292893218813354 -58.86816900000066 1.005719012013161
  endloop
endfacet
facet normal 4.379371781627573e-15 -1.0 1.1879386363489302e-15
  outer loop
    vertex -39.749999999999915 -58.86816900000066 1.0057190120131663
    vertex -39.292893218813354 -58.86816900000066 1.5057190120131572
    vertex -39.749999999999915 -58.86816900000066 1.5057190120131625
  endloop
endfacet
facet normal 3.795337600373131e-15 -1.0 -5.980401359314176e-16
  outer loop
    vertex -36.707106781186475 -59.86816900000063 2.880719012013161
    vertex -38.29289321881337 -59.86816900000063 1.0057190120131696
    vertex -36.707106781186475 -59.86816900000063 1.0057190120131705
  endloop
endfacet
facet normal 3.795337600373131e-15 -1.0 -5.980401359314176e-16
  outer loop
    vertex -38.29289321881337 -59.86816900000063 1.0057190120131696
    vertex -36.707106781186475 -59.86816900000063 2.880719012013161
    vertex -38.29289321881337 -59.86816900000064 2.8807190120131603
  endloop
endfacet
facet normal -0.7071067811865464 -0.7071067811865487 -8.163480219388675e-16
  outer loop
    vertex -38.29289321881337 -59.86816900000063 1.0057190120131696
    vertex -39.292893218813354 -58.86816900000066 1.5057190120131572
    vertex -39.292893218813354 -58.86816900000066 1.005719012013161
  endloop
endfacet
facet normal -0.7071067811865464 -0.7071067811865487 -8.163480219388675e-16
  outer loop
    vertex -39.292893218813354 -58.86816900000066 1.5057190120131572
    vertex -38.29289321881337 -59.86816900000063 1.0057190120131696
    vertex -38.792893218813376 -59.36816900000064 2.505719012013164
  endloop
endfacet
facet normal -0.7071067811865464 -0.7071067811865487 -8.163480219388675e-16
  outer loop
    vertex -38.792893218813376 -59.36816900000064 2.505719012013164
    vertex -38.29289321881337 -59.86816900000064 2.8807190120131603
    vertex -39.292893218813354 -58.86816900000066 3.2557190120131483
  endloop
endfacet
facet normal -0.7071067811865464 -0.7071067811865487 -8.163480219388675e-16
  outer loop
    vertex -38.29289321881337 -59.86816900000064 2.8807190120131603
    vertex -38.792893218813376 -59.36816900000064 2.505719012013164
    vertex -38.29289321881337 -59.86816900000063 1.0057190120131696
  endloop
endfacet
facet normal -5.002608322809066e-16 -5.411859003602226e-15 1.0
  outer loop
    vertex -33.878679656440276 -57.86816900000064 3.255719012013157
    vertex -32.49999999999991 -60.66106221881409 3.255719012013136
    vertex -32.499999999999915 -59.24684865644101 3.2557190120131585
  endloop
endfacet
facet normal -5.002608322809066e-16 -5.411859003602226e-15 1.0
  outer loop
    vertex -32.49999999999991 -60.66106221881409 3.255719012013136
    vertex -33.878679656440276 -57.86816900000064 3.255719012013157
    vertex -34.29289321881336 -58.86816900000064 3.2557190120131505
  endloop
endfacet
facet normal -5.002608322809066e-16 -5.411859003602226e-15 1.0
  outer loop
    vertex -34.29289321881336 -58.86816900000064 3.2557190120131505
    vertex -33.878679656440276 -57.86816900000064 3.255719012013157
    vertex -39.74999999999993 -57.86816900000066 3.2557190120131514
  endloop
endfacet
facet normal -5.002608322809066e-16 -5.411859003602226e-15 1.0
  outer loop
    vertex -34.29289321881336 -58.86816900000064 3.2557190120131505
    vertex -39.74999999999993 -57.86816900000066 3.2557190120131514
    vertex -35.70710678118648 -58.86816900000064 3.25571901201315
  endloop
endfacet
facet normal -5.002608322809066e-16 -5.411859003602226e-15 1.0
  outer loop
    vertex -35.70710678118648 -58.86816900000064 3.25571901201315
    vertex -39.74999999999993 -57.86816900000066 3.2557190120131514
    vertex -39.292893218813354 -58.86816900000066 3.2557190120131483
  endloop
endfacet
facet normal -5.002608322809066e-16 -5.411859003602226e-15 1.0
  outer loop
    vertex -39.292893218813354 -58.86816900000066 3.2557190120131483
    vertex -39.74999999999993 -57.86816900000066 3.2557190120131514
    vertex -39.749999999999915 -58.86816900000065 3.255719012013145
  endloop
endfacet
facet normal 1.4228424147124007e-15 -0.3511234415883879 0.936329177569046
  outer loop
    vertex -39.292893218813354 -58.86816900000066 3.2557190120131483
    vertex -36.707106781186475 -59.86816900000063 2.880719012013161
    vertex -35.70710678118648 -58.86816900000064 3.25571901201315
  endloop
endfacet
facet normal 1.4228424147124007e-15 -0.3511234415883879 0.936329177569046
  outer loop
    vertex -36.707106781186475 -59.86816900000063 2.880719012013161
    vertex -39.292893218813354 -58.86816900000066 3.2557190120131483
    vertex -38.29289321881337 -59.86816900000064 2.8807190120131603
  endloop
endfacet
facet normal 3.2654470844656015e-15 -0.8944271909999209 -0.447213595499948
  outer loop
    vertex -38.792893218813376 -59.36816900000064 2.505719012013164
    vertex -39.749999999999915 -58.86816900000066 1.5057190120131625
    vertex -39.292893218813354 -58.86816900000066 1.5057190120131572
  endloop
endfacet
facet normal 3.2654470844656015e-15 -0.8944271909999209 -0.447213595499948
  outer loop
    vertex -39.749999999999915 -58.86816900000066 1.5057190120131625
    vertex -38.792893218813376 -59.36816900000064 2.505719012013164
    vertex -39.749999999999915 -59.36816900000065 2.505719012013162
  endloop
endfacet
facet normal 3.54250386918719e-16 -0.8320502943378436 0.5547001962252293
  outer loop
    vertex -38.792893218813376 -59.36816900000064 2.505719012013164
    vertex -39.749999999999915 -58.86816900000065 3.255719012013145
    vertex -39.749999999999915 -59.36816900000065 2.505719012013162
  endloop
endfacet
facet normal 3.54250386918719e-16 -0.8320502943378436 0.5547001962252293
  outer loop
    vertex -39.749999999999915 -58.86816900000065 3.255719012013145
    vertex -38.792893218813376 -59.36816900000064 2.505719012013164
    vertex -39.292893218813354 -58.86816900000066 3.2557190120131483
  endloop
endfacet
facet normal 3.164484011894825e-15 -0.8320502943378445 0.5547001962252279
  outer loop
    vertex -34.29289321881336 -58.86816900000064 3.2557190120131505
    vertex -36.207106781186475 -59.36816900000063 2.505719012013168
    vertex -33.79289321881336 -59.36816900000061 2.505719012013169
  endloop
endfacet
facet normal 3.164484011894825e-15 -0.8320502943378445 0.5547001962252279
  outer loop
    vertex -36.207106781186475 -59.36816900000063 2.505719012013168
    vertex -34.29289321881336 -58.86816900000064 3.2557190120131505
    vertex -35.70710678118648 -58.86816900000064 3.25571901201315
  endloop
endfacet
facet normal 3.808927394597127e-15 -0.8944271909999212 -0.4472135954999473
  outer loop
    vertex -33.79289321881336 -59.36816900000061 2.505719012013169
    vertex -35.70710678118648 -58.86816900000064 1.5057190120131645
    vertex -34.29289321881336 -58.86816900000064 1.5057190120131652
  endloop
endfacet
facet normal 3.808927394597127e-15 -0.8944271909999212 -0.4472135954999473
  outer loop
    vertex -35.70710678118648 -58.86816900000064 1.5057190120131645
    vertex -33.79289321881336 -59.36816900000061 2.505719012013169
    vertex -36.207106781186475 -59.36816900000063 2.505719012013168
  endloop
endfacet
facet normal -6.446239602602979e-15 0.8320502943378417 0.5547001962252319
  outer loop
    vertex -39.749999999999886 -69.36816900000065 3.2557190120131456
    vertex -38.79289321881333 -68.86816900000065 2.505719012013162
    vertex -39.749999999999886 -68.86816900000065 2.505719012013161
  endloop
endfacet
facet normal -6.446239602602979e-15 0.8320502943378417 0.5547001962252319
  outer loop
    vertex -38.79289321881333 -68.86816900000065 2.505719012013162
    vertex -39.749999999999886 -69.36816900000065 3.2557190120131456
    vertex -39.292893218813326 -69.36816900000065 3.2557190120131483
  endloop
endfacet
facet normal -1.0 -3.795337600373131e-15 -1.141604309112493e-16
  outer loop
    vertex -39.74999999999993 -57.86816900000062 0.005719012013148552
    vertex -39.749999999999915 -58.86816900000066 1.0057190120131663
    vertex -39.74999999999993 -57.86816900000066 3.2557190120131514
  endloop
endfacet
facet normal -1.0 -3.795337600373131e-15 -1.141604309112493e-16
  outer loop
    vertex -39.749999999999915 -58.86816900000066 1.0057190120131663
    vertex -39.74999999999993 -57.86816900000062 0.005719012013148552
    vertex -39.74999999999988 -70.3681690000007 0.005719012013159876
  endloop
endfacet
facet normal -1.0 -3.795337600373131e-15 -1.141604309112493e-16
  outer loop
    vertex -39.74999999999993 -57.86816900000066 3.2557190120131514
    vertex -39.749999999999915 -58.86816900000066 1.0057190120131663
    vertex -39.749999999999915 -58.86816900000065 3.255719012013145
  endloop
endfacet
facet normal -1.0 -3.795337600373131e-15 -1.141604309112493e-16
  outer loop
    vertex -39.749999999999915 -58.86816900000066 1.0057190120131663
    vertex -39.74999999999988 -70.3681690000007 0.005719012013159876
    vertex -39.749999999999886 -69.36816900000065 1.0057190120131638
  endloop
endfacet
facet normal -1.0 -3.795337600373131e-15 -1.141604309112493e-16
  outer loop
    vertex -39.749999999999886 -69.36816900000065 1.0057190120131638
    vertex -39.74999999999988 -70.3681690000007 0.005719012013159876
    vertex -39.749999999999886 -69.36816900000065 1.50571901201316
  endloop
endfacet
facet normal -1.0 -3.795337600373131e-15 -1.141604309112493e-16
  outer loop
    vertex -39.749999999999886 -69.36816900000065 1.50571901201316
    vertex -39.74999999999988 -70.3681690000007 0.005719012013159876
    vertex -39.749999999999886 -69.36816900000065 3.2557190120131456
  endloop
endfacet
facet normal -1.0 -3.795337600373131e-15 -1.141604309112493e-16
  outer loop
    vertex -39.749999999999886 -69.36816900000065 3.2557190120131456
    vertex -39.74999999999988 -70.3681690000007 0.005719012013159876
    vertex -39.74999999999988 -70.36816900000063 3.255719012013157
  endloop
endfacet
facet normal -1.0 -3.795337600373131e-15 -1.141604309112493e-16
  outer loop
    vertex -39.749999999999886 -69.36816900000065 3.2557190120131456
    vertex -39.749999999999886 -68.86816900000065 2.505719012013161
    vertex -39.749999999999886 -69.36816900000065 1.50571901201316
  endloop
endfacet
facet normal -1.0 -3.795337600373131e-15 -1.141604309112493e-16
  outer loop
    vertex -39.749999999999915 -58.86816900000065 3.255719012013145
    vertex -39.749999999999915 -58.86816900000066 1.5057190120131625
    vertex -39.749999999999915 -59.36816900000065 2.505719012013162
  endloop
endfacet
facet normal -1.0 -3.795337600373131e-15 -1.141604309112493e-16
  outer loop
    vertex -39.749999999999915 -58.86816900000066 1.5057190120131625
    vertex -39.749999999999915 -58.86816900000065 3.255719012013145
    vertex -39.749999999999915 -58.86816900000066 1.0057190120131663
  endloop
endfacet
facet normal -3.523859213130634e-15 0.8944271909999204 -0.4472135954999491
  outer loop
    vertex -39.749999999999886 -69.36816900000065 1.50571901201316
    vertex -38.79289321881333 -68.86816900000065 2.505719012013162
    vertex -39.292893218813326 -69.36816900000065 1.5057190120131576
  endloop
endfacet
facet normal -3.523859213130634e-15 0.8944271909999204 -0.4472135954999491
  outer loop
    vertex -38.79289321881333 -68.86816900000065 2.505719012013162
    vertex -39.749999999999886 -69.36816900000065 1.50571901201316
    vertex -39.749999999999886 -68.86816900000065 2.505719012013161
  endloop
endfacet
facet normal -7.001652427619288e-16 8.05105744421704e-15 1.0
  outer loop
    vertex -34.29289321881333 -69.36816900000063 3.2557190120131456
    vertex -32.499999999999886 -68.98948934356028 3.2557190120131505
    vertex -32.49999999999988 -67.57527578118716 3.255719012013133
  endloop
endfacet
facet normal -7.001652427619288e-16 8.05105744421704e-15 1.0
  outer loop
    vertex -32.499999999999886 -68.98948934356028 3.2557190120131505
    vertex -34.29289321881333 -69.36816900000063 3.2557190120131456
    vertex -33.87867965644021 -70.36816900000063 3.255719012013161
  endloop
endfacet
facet normal -7.001652427619288e-16 8.05105744421704e-15 1.0
  outer loop
    vertex -33.87867965644021 -70.36816900000063 3.255719012013161
    vertex -34.29289321881333 -69.36816900000063 3.2557190120131456
    vertex -39.74999999999988 -70.36816900000063 3.255719012013157
  endloop
endfacet
facet normal -7.001652427619288e-16 8.05105744421704e-15 1.0
  outer loop
    vertex -39.74999999999988 -70.36816900000063 3.255719012013157
    vertex -34.29289321881333 -69.36816900000063 3.2557190120131456
    vertex -35.70710678118644 -69.36816900000063 3.255719012013145
  endloop
endfacet
facet normal -7.001652427619288e-16 8.05105744421704e-15 1.0
  outer loop
    vertex -39.74999999999988 -70.36816900000063 3.255719012013157
    vertex -35.70710678118644 -69.36816900000063 3.255719012013145
    vertex -39.292893218813326 -69.36816900000065 3.2557190120131483
  endloop
endfacet
facet normal -7.001652427619288e-16 8.05105744421704e-15 1.0
  outer loop
    vertex -39.74999999999988 -70.36816900000063 3.255719012013157
    vertex -39.292893218813326 -69.36816900000065 3.2557190120131483
    vertex -39.749999999999886 -69.36816900000065 3.2557190120131456
  endloop
endfacet
facet normal -3.433851177599968e-15 0.8320502943378429 0.5547001962252305
  outer loop
    vertex -36.20710678118644 -68.86816900000065 2.5057190120131656
    vertex -34.29289321881333 -69.36816900000063 3.2557190120131456
    vertex -33.79289321881333 -68.86816900000063 2.5057190120131643
  endloop
endfacet
facet normal -3.433851177599968e-15 0.8320502943378429 0.5547001962252305
  outer loop
    vertex -34.29289321881333 -69.36816900000063 3.2557190120131456
    vertex -36.20710678118644 -68.86816900000065 2.5057190120131656
    vertex -35.70710678118644 -69.36816900000063 3.255719012013145
  endloop
endfacet
facet normal -3.172183684085752e-15 0.8944271909999205 -0.4472135954999487
  outer loop
    vertex -35.707106781186454 -69.36816900000063 1.5057190120131623
    vertex -33.79289321881333 -68.86816900000063 2.5057190120131643
    vertex -34.29289321881333 -69.36816900000063 1.50571901201316
  endloop
endfacet
facet normal -3.172183684085752e-15 0.8944271909999205 -0.4472135954999487
  outer loop
    vertex -33.79289321881333 -68.86816900000063 2.5057190120131643
    vertex -35.707106781186454 -69.36816900000063 1.5057190120131623
    vertex -36.20710678118644 -68.86816900000065 2.5057190120131656
  endloop
endfacet
facet normal -4.933565971061581e-16 -5.801162973445006e-16 -1.0
  outer loop
    vertex -32.49999999999989 -68.9894893435603 0.005719012013146868
    vertex -33.878679656440276 -57.8681690000006 0.005719012013151472
    vertex -32.499999999999915 -59.246848656440996 0.005719012013154672
  endloop
endfacet
facet normal -4.933565971061581e-16 -5.801162973445006e-16 -1.0
  outer loop
    vertex -33.878679656440276 -57.8681690000006 0.005719012013151472
    vertex -32.49999999999989 -68.9894893435603 0.005719012013146868
    vertex -33.87867965644021 -70.36816900000069 0.005719012013162796
  endloop
endfacet
facet normal -4.933565971061581e-16 -5.801162973445006e-16 -1.0
  outer loop
    vertex -33.878679656440276 -57.8681690000006 0.005719012013151472
    vertex -33.87867965644021 -70.36816900000069 0.005719012013162796
    vertex -39.74999999999988 -70.3681690000007 0.005719012013159876
  endloop
endfacet
facet normal -4.933565971061581e-16 -5.801162973445006e-16 -1.0
  outer loop
    vertex -33.878679656440276 -57.8681690000006 0.005719012013151472
    vertex -39.74999999999988 -70.3681690000007 0.005719012013159876
    vertex -39.74999999999993 -57.86816900000062 0.005719012013148552
  endloop
endfacet
facet normal -1.1849049884444739e-15 0.3511234415883855 0.9363291775690469
  outer loop
    vertex -36.70710678118645 -68.36816900000065 2.8807190120131594
    vertex -39.292893218813326 -69.36816900000065 3.2557190120131483
    vertex -35.70710678118644 -69.36816900000063 3.255719012013145
  endloop
endfacet
facet normal -1.1849049884444739e-15 0.3511234415883855 0.9363291775690469
  outer loop
    vertex -39.292893218813326 -69.36816900000065 3.2557190120131483
    vertex -36.70710678118645 -68.36816900000065 2.8807190120131594
    vertex -38.29289321881334 -68.36816900000066 2.8807190120131585
  endloop
endfacet
facet normal -3.795337600373131e-15 1.0 2.220446049250294e-16
  outer loop
    vertex -38.29289321881334 -68.36816900000066 2.8807190120131585
    vertex -36.70710678118645 -68.36816900000065 1.0057190120131685
    vertex -38.29289321881335 -68.36816900000066 1.0057190120131676
  endloop
endfacet
facet normal -3.795337600373131e-15 1.0 2.220446049250294e-16
  outer loop
    vertex -36.70710678118645 -68.36816900000065 1.0057190120131685
    vertex -38.29289321881334 -68.36816900000066 2.8807190120131585
    vertex -36.70710678118645 -68.36816900000065 2.8807190120131594
  endloop
endfacet
facet normal -0.7071067811865538 0.7071067811865412 -3.431884155856796e-16
  outer loop
    vertex -39.292893218813326 -69.36816900000065 1.0057190120131612
    vertex -38.79289321881333 -68.86816900000065 2.505719012013162
    vertex -38.29289321881335 -68.36816900000066 1.0057190120131676
  endloop
endfacet
facet normal -0.7071067811865538 0.7071067811865412 -3.431884155856796e-16
  outer loop
    vertex -38.79289321881333 -68.86816900000065 2.505719012013162
    vertex -39.292893218813326 -69.36816900000065 1.0057190120131612
    vertex -39.292893218813326 -69.36816900000065 1.5057190120131576
  endloop
endfacet
facet normal -0.7071067811865538 0.7071067811865412 -3.431884155856796e-16
  outer loop
    vertex -38.29289321881334 -68.36816900000066 2.8807190120131585
    vertex -38.79289321881333 -68.86816900000065 2.505719012013162
    vertex -39.292893218813326 -69.36816900000065 3.2557190120131483
  endloop
endfacet
facet normal -0.7071067811865538 0.7071067811865412 -3.431884155856796e-16
  outer loop
    vertex -38.79289321881333 -68.86816900000065 2.505719012013162
    vertex -38.29289321881334 -68.36816900000066 2.8807190120131585
    vertex -38.29289321881335 -68.36816900000066 1.0057190120131676
  endloop
endfacet
facet normal 0.7071067811865422 0.7071067811865528 9.353695278284601e-16
  outer loop
    vertex -36.70710678118645 -68.36816900000065 1.0057190120131685
    vertex -35.707106781186454 -69.36816900000063 1.5057190120131623
    vertex -35.707106781186454 -69.36816900000063 1.005719012013166
  endloop
endfacet
facet normal 0.7071067811865422 0.7071067811865528 9.353695278284601e-16
  outer loop
    vertex -35.707106781186454 -69.36816900000063 1.5057190120131623
    vertex -36.70710678118645 -68.36816900000065 1.0057190120131685
    vertex -36.70710678118645 -68.36816900000065 2.8807190120131594
  endloop
endfacet
facet normal 0.7071067811865422 0.7071067811865528 9.353695278284601e-16
  outer loop
    vertex -35.707106781186454 -69.36816900000063 1.5057190120131623
    vertex -36.70710678118645 -68.36816900000065 2.8807190120131594
    vertex -36.20710678118644 -68.86816900000065 2.5057190120131656
  endloop
endfacet
facet normal 0.7071067811865422 0.7071067811865528 9.353695278284601e-16
  outer loop
    vertex -36.20710678118644 -68.86816900000065 2.5057190120131656
    vertex -36.70710678118645 -68.36816900000065 2.8807190120131594
    vertex -35.70710678118644 -69.36816900000063 3.255719012013145
  endloop
endfacet
facet normal -3.795337600373131e-15 1.0 2.220446049250294e-16
  outer loop
    vertex -35.707106781186454 -69.36816900000063 1.005719012013166
    vertex -34.29289321881333 -69.36816900000063 1.50571901201316
    vertex -34.29289321881333 -69.36816900000063 1.0057190120131638
  endloop
endfacet
facet normal -3.795337600373131e-15 1.0 2.220446049250294e-16
  outer loop
    vertex -34.29289321881333 -69.36816900000063 1.50571901201316
    vertex -35.707106781186454 -69.36816900000063 1.005719012013166
    vertex -35.707106781186454 -69.36816900000063 1.5057190120131623
  endloop
endfacet
facet normal -3.795337600373131e-15 1.0 2.220446049250294e-16
  outer loop
    vertex -39.749999999999886 -69.36816900000065 1.0057190120131638
    vertex -39.292893218813326 -69.36816900000065 1.5057190120131576
    vertex -39.292893218813326 -69.36816900000065 1.0057190120131612
  endloop
endfacet
facet normal -3.795337600373131e-15 1.0 2.220446049250294e-16
  outer loop
    vertex -39.292893218813326 -69.36816900000065 1.5057190120131576
    vertex -39.749999999999886 -69.36816900000065 1.0057190120131638
    vertex -39.749999999999886 -69.36816900000065 1.50571901201316
  endloop
endfacet
facet normal 1.896389066122228e-16 -2.2204460492502887e-16 1.0
  outer loop
    vertex -34.29289321881336 -58.86816900000064 1.005719012013169
    vertex -32.499999999999886 -67.57527578118717 1.0057190120131567
    vertex -32.49999999999991 -60.66106221881409 1.0057190120131596
  endloop
endfacet
facet normal 1.896389066122228e-16 -2.2204460492502887e-16 1.0
  outer loop
    vertex -32.499999999999886 -67.57527578118717 1.0057190120131567
    vertex -34.29289321881336 -58.86816900000064 1.005719012013169
    vertex -34.29289321881333 -69.36816900000063 1.0057190120131638
  endloop
endfacet
facet normal 1.896389066122228e-16 -2.2204460492502887e-16 1.0
  outer loop
    vertex -34.29289321881333 -69.36816900000063 1.0057190120131638
    vertex -34.29289321881336 -58.86816900000064 1.005719012013169
    vertex -35.70710678118648 -58.86816900000064 1.0057190120131683
  endloop
endfacet
facet normal 1.896389066122228e-16 -2.2204460492502887e-16 1.0
  outer loop
    vertex -34.29289321881333 -69.36816900000063 1.0057190120131638
    vertex -35.70710678118648 -58.86816900000064 1.0057190120131683
    vertex -35.707106781186454 -69.36816900000063 1.005719012013166
  endloop
endfacet
facet normal 1.896389066122228e-16 -2.2204460492502887e-16 1.0
  outer loop
    vertex -35.707106781186454 -69.36816900000063 1.005719012013166
    vertex -35.70710678118648 -58.86816900000064 1.0057190120131683
    vertex -36.707106781186475 -59.86816900000063 1.0057190120131705
  endloop
endfacet
facet normal 1.896389066122228e-16 -2.2204460492502887e-16 1.0
  outer loop
    vertex -35.707106781186454 -69.36816900000063 1.005719012013166
    vertex -36.707106781186475 -59.86816900000063 1.0057190120131705
    vertex -36.70710678118645 -68.36816900000065 1.0057190120131685
  endloop
endfacet
facet normal 1.896389066122228e-16 -2.2204460492502887e-16 1.0
  outer loop
    vertex -36.70710678118645 -68.36816900000065 1.0057190120131685
    vertex -36.707106781186475 -59.86816900000063 1.0057190120131705
    vertex -38.29289321881337 -59.86816900000063 1.0057190120131696
  endloop
endfacet
facet normal 1.896389066122228e-16 -2.2204460492502887e-16 1.0
  outer loop
    vertex -36.70710678118645 -68.36816900000065 1.0057190120131685
    vertex -38.29289321881337 -59.86816900000063 1.0057190120131696
    vertex -38.29289321881335 -68.36816900000066 1.0057190120131676
  endloop
endfacet
facet normal 1.896389066122228e-16 -2.2204460492502887e-16 1.0
  outer loop
    vertex -38.29289321881335 -68.36816900000066 1.0057190120131676
    vertex -38.29289321881337 -59.86816900000063 1.0057190120131696
    vertex -39.292893218813354 -58.86816900000066 1.005719012013161
  endloop
endfacet
facet normal 1.896389066122228e-16 -2.2204460492502887e-16 1.0
  outer loop
    vertex -38.29289321881335 -68.36816900000066 1.0057190120131676
    vertex -39.292893218813354 -58.86816900000066 1.005719012013161
    vertex -39.292893218813326 -69.36816900000065 1.0057190120131612
  endloop
endfacet
facet normal 1.896389066122228e-16 -2.2204460492502887e-16 1.0
  outer loop
    vertex -39.292893218813326 -69.36816900000065 1.0057190120131612
    vertex -39.292893218813354 -58.86816900000066 1.005719012013161
    vertex -39.749999999999915 -58.86816900000066 1.0057190120131663
  endloop
endfacet
facet normal 1.896389066122228e-16 -2.2204460492502887e-16 1.0
  outer loop
    vertex -39.292893218813326 -69.36816900000065 1.0057190120131612
    vertex -39.749999999999915 -58.86816900000066 1.0057190120131663
    vertex -39.749999999999886 -69.36816900000065 1.0057190120131638
  endloop
endfacet
facet normal -0.7071067811865523 0.7071067811865427 -1.1053376814002811e-15
  outer loop
    vertex -34.29289321881333 -69.36816900000063 1.0057190120131638
    vertex -33.79289321881333 -68.86816900000063 2.5057190120131643
    vertex -32.499999999999886 -67.57527578118717 1.0057190120131567
  endloop
endfacet
facet normal -0.7071067811865523 0.7071067811865427 -1.1053376814002811e-15
  outer loop
    vertex -33.79289321881333 -68.86816900000063 2.5057190120131643
    vertex -34.29289321881333 -69.36816900000063 1.0057190120131638
    vertex -34.29289321881333 -69.36816900000063 1.50571901201316
  endloop
endfacet
facet normal -0.7071067811865523 0.7071067811865427 -1.1053376814002811e-15
  outer loop
    vertex -32.499999999999886 -67.57527578118717 1.0057190120131567
    vertex -34.29289321881333 -69.36816900000063 3.2557190120131456
    vertex -32.49999999999988 -67.57527578118716 3.255719012013133
  endloop
endfacet
facet normal -0.7071067811865523 0.7071067811865427 -1.1053376814002811e-15
  outer loop
    vertex -34.29289321881333 -69.36816900000063 3.2557190120131456
    vertex -32.499999999999886 -67.57527578118717 1.0057190120131567
    vertex -33.79289321881333 -68.86816900000063 2.5057190120131643
  endloop
endfacet
facet normal -0.7071067811865462 -0.7071067811865488 3.787745056503832e-16
  outer loop
    vertex -34.29289321881336 -58.86816900000064 1.005719012013169
    vertex -33.79289321881336 -59.36816900000061 2.505719012013169
    vertex -34.29289321881336 -58.86816900000064 1.5057190120131652
  endloop
endfacet
facet normal -0.7071067811865462 -0.7071067811865488 3.787745056503832e-16
  outer loop
    vertex -33.79289321881336 -59.36816900000061 2.505719012013169
    vertex -34.29289321881336 -58.86816900000064 1.005719012013169
    vertex -32.49999999999991 -60.66106221881409 1.0057190120131596
  endloop
endfacet
facet normal -0.7071067811865462 -0.7071067811865488 3.787745056503832e-16
  outer loop
    vertex -33.79289321881336 -59.36816900000061 2.505719012013169
    vertex -32.49999999999991 -60.66106221881409 3.255719012013136
    vertex -34.29289321881336 -58.86816900000064 3.2557190120131505
  endloop
endfacet
facet normal -0.7071067811865462 -0.7071067811865488 3.787745056503832e-16
  outer loop
    vertex -32.49999999999991 -60.66106221881409 3.255719012013136
    vertex -33.79289321881336 -59.36816900000061 2.505719012013169
    vertex -32.49999999999991 -60.66106221881409 1.0057190120131596
  endloop
endfacet
facet normal 1.0 3.41034767123834e-15 -8.141554714492921e-16
  outer loop
    vertex -32.49999999999991 -60.66106221881409 3.255719012013136
    vertex -32.49999999999991 -60.66106221881409 1.0057190120131596
    vertex -32.499999999999915 -59.24684865644101 3.2557190120131585
  endloop
endfacet
facet normal 1.0 3.41034767123834e-15 -8.141554714492921e-16
  outer loop
    vertex -32.499999999999886 -68.98948934356028 3.2557190120131505
    vertex -32.499999999999886 -67.57527578118717 1.0057190120131567
    vertex -32.49999999999988 -67.57527578118716 3.255719012013133
  endloop
endfacet
facet normal 1.0 3.41034767123834e-15 -8.141554714492921e-16
  outer loop
    vertex -32.499999999999915 -59.246848656440996 0.005719012013154672
    vertex -32.49999999999991 -60.66106221881409 1.0057190120131596
    vertex -32.49999999999989 -68.9894893435603 0.005719012013146868
  endloop
endfacet
facet normal 1.0 3.41034767123834e-15 -8.141554714492921e-16
  outer loop
    vertex -32.49999999999991 -60.66106221881409 1.0057190120131596
    vertex -32.499999999999915 -59.246848656440996 0.005719012013154672
    vertex -32.499999999999915 -59.24684865644101 3.2557190120131585
  endloop
endfacet
facet normal 1.0 3.41034767123834e-15 -8.141554714492921e-16
  outer loop
    vertex -32.49999999999989 -68.9894893435603 0.005719012013146868
    vertex -32.49999999999991 -60.66106221881409 1.0057190120131596
    vertex -32.499999999999886 -67.57527578118717 1.0057190120131567
  endloop
endfacet
facet normal 1.0 3.41034767123834e-15 -8.141554714492921e-16
  outer loop
    vertex -32.49999999999989 -68.9894893435603 0.005719012013146868
    vertex -32.499999999999886 -67.57527578118717 1.0057190120131567
    vertex -32.499999999999886 -68.98948934356028 3.2557190120131505
  endloop
endfacet
facet normal 0.7071067811865531 0.7071067811865419 5.032248922907134e-15
  outer loop
    vertex -33.878679656440276 -57.86816900000064 3.255719012013157
    vertex -32.499999999999915 -59.246848656440996 0.005719012013154672
    vertex -33.878679656440276 -57.8681690000006 0.005719012013151472
  endloop
endfacet
facet normal 0.7071067811865531 0.7071067811865419 5.032248922907134e-15
  outer loop
    vertex -32.499999999999915 -59.246848656440996 0.005719012013154672
    vertex -33.878679656440276 -57.86816900000064 3.255719012013157
    vertex -32.499999999999915 -59.24684865644101 3.2557190120131585
  endloop
endfacet
facet normal 0.7071067811865569 -0.7071067811865381 6.862905309106537e-15
  outer loop
    vertex -33.87867965644021 -70.36816900000063 3.255719012013161
    vertex -32.49999999999989 -68.9894893435603 0.005719012013146868
    vertex -32.499999999999886 -68.98948934356028 3.2557190120131505
  endloop
endfacet
facet normal 0.7071067811865569 -0.7071067811865381 6.862905309106537e-15
  outer loop
    vertex -32.49999999999989 -68.9894893435603 0.005719012013146868
    vertex -33.87867965644021 -70.36816900000063 3.255719012013161
    vertex -33.87867965644021 -70.36816900000069 0.005719012013162796
  endloop
endfacet
facet normal 3.795337600373123e-15 -1.0 1.6046992794389792e-14
  outer loop
    vertex -33.87867965644021 -70.36816900000063 3.255719012013161
    vertex -39.74999999999988 -70.3681690000007 0.005719012013159876
    vertex -33.87867965644021 -70.36816900000069 0.005719012013162796
  endloop
endfacet
facet normal 3.795337600373123e-15 -1.0 1.6046992794389792e-14
  outer loop
    vertex -39.74999999999988 -70.3681690000007 0.005719012013159876
    vertex -33.87867965644021 -70.36816900000063 3.255719012013161
    vertex -39.74999999999988 -70.36816900000063 3.255719012013157
  endloop
endfacet
facet normal -3.795337600373136e-15 1.0 1.128499003645908e-14
  outer loop
    vertex -39.74999999999993 -57.86816900000066 3.2557190120131514
    vertex -33.878679656440276 -57.8681690000006 0.005719012013151472
    vertex -39.74999999999993 -57.86816900000062 0.005719012013148552
  endloop
endfacet
facet normal -3.795337600373136e-15 1.0 1.128499003645908e-14
  outer loop
    vertex -33.878679656440276 -57.8681690000006 0.005719012013151472
    vertex -39.74999999999993 -57.86816900000066 3.2557190120131514
    vertex -33.878679656440276 -57.86816900000064 3.255719012013157
  endloop
endfacet
endsolid ProtoGlove
