solid ProtoGlove
facet normal 3.795337600373131e-15 -1.0 -5.980401359314176e-16
  outer loop
    vertex -36.70710678118637 60.13183099999932 2.880719012013161
    vertex -38.29289321881327 60.13183099999932 1.0057190120131703
    vertex -36.70710678118637 60.13183099999932 1.0057190120131703
  endloop
endfacet
facet normal 3.795337600373131e-15 -1.0 -5.980401359314176e-16
  outer loop
    vertex -38.29289321881327 60.13183099999932 1.0057190120131703
    vertex -36.70710678118637 60.13183099999932 2.880719012013161
    vertex -38.29289321881327 60.13183099999931 2.880719012013161
  endloop
endfacet
facet normal -5.002608322809066e-16 -5.411859003602226e-15 1.0
  outer loop
    vertex -54.99999999999947 61.13183099999925 3.2557190120131434
    vertex -33.87867965644018 62.13183099999931 3.2557190120131576
    vertex -54.999999999999496 62.13183099999924 3.255719012013152
  endloop
endfacet
facet normal -5.002608322809066e-16 -5.411859003602226e-15 1.0
  outer loop
    vertex -33.87867965644018 62.13183099999931 3.2557190120131576
    vertex -54.99999999999947 61.13183099999925 3.2557190120131434
    vertex -39.292893218813255 61.13183099999929 3.255719012013149
  endloop
endfacet
facet normal -5.002608322809066e-16 -5.411859003602226e-15 1.0
  outer loop
    vertex -33.87867965644018 62.13183099999931 3.2557190120131576
    vertex -39.292893218813255 61.13183099999929 3.255719012013149
    vertex -35.70710678118638 61.13183099999931 3.255719012013149
  endloop
endfacet
facet normal -5.002608322809066e-16 -5.411859003602226e-15 1.0
  outer loop
    vertex -33.87867965644018 62.13183099999931 3.2557190120131576
    vertex -35.70710678118638 61.13183099999931 3.255719012013149
    vertex -34.29289321881326 61.13183099999931 3.255719012013149
  endloop
endfacet
facet normal -5.002608322809066e-16 -5.411859003602226e-15 1.0
  outer loop
    vertex -33.87867965644018 62.13183099999931 3.2557190120131576
    vertex -34.29289321881326 61.13183099999931 3.255719012013149
    vertex -32.49999999999981 59.33893778118586 3.255719012013135
  endloop
endfacet
facet normal -5.002608322809066e-16 -5.411859003602226e-15 1.0
  outer loop
    vertex -33.87867965644018 62.13183099999931 3.2557190120131576
    vertex -32.49999999999981 59.33893778118586 3.255719012013135
    vertex -32.49999999999981 60.75315134355894 3.2557190120131576
  endloop
endfacet
facet normal 1.4228424147124007e-15 -0.3511234415883879 0.936329177569046
  outer loop
    vertex -38.29289321881327 60.13183099999931 2.880719012013161
    vertex -35.70710678118638 61.13183099999931 3.255719012013149
    vertex -39.292893218813255 61.13183099999929 3.255719012013149
  endloop
endfacet
facet normal 1.4228424147124007e-15 -0.3511234415883879 0.936329177569046
  outer loop
    vertex -35.70710678118638 61.13183099999931 3.255719012013149
    vertex -38.29289321881327 60.13183099999931 2.880719012013161
    vertex -36.70710678118637 60.13183099999932 2.880719012013161
  endloop
endfacet
facet normal -0.7071067811865464 -0.7071067811865487 -8.163480219388675e-16
  outer loop
    vertex -38.29289321881327 60.13183099999932 1.0057190120131703
    vertex -39.292893218813255 61.13183099999929 1.5057190120131567
    vertex -39.292893218813255 61.13183099999929 1.0057190120131603
  endloop
endfacet
facet normal -0.7071067811865464 -0.7071067811865487 -8.163480219388675e-16
  outer loop
    vertex -39.292893218813255 61.13183099999929 1.5057190120131567
    vertex -38.29289321881327 60.13183099999932 1.0057190120131703
    vertex -38.29289321881327 60.13183099999931 2.880719012013161
  endloop
endfacet
facet normal -0.7071067811865464 -0.7071067811865487 -8.163480219388675e-16
  outer loop
    vertex -39.292893218813255 61.13183099999929 1.5057190120131567
    vertex -38.29289321881327 60.13183099999931 2.880719012013161
    vertex -38.79289321881326 60.63183099999931 2.5057190120131647
  endloop
endfacet
facet normal -0.7071067811865464 -0.7071067811865487 -8.163480219388675e-16
  outer loop
    vertex -38.79289321881326 60.63183099999931 2.5057190120131647
    vertex -38.29289321881327 60.13183099999931 2.880719012013161
    vertex -39.292893218813255 61.13183099999929 3.255719012013149
  endloop
endfacet
facet normal 3.2654470844656015e-15 -0.8944271909999209 -0.447213595499948
  outer loop
    vertex -38.79289321881326 60.63183099999931 2.5057190120131647
    vertex -54.99999999999947 61.131830999999245 1.5057190120131623
    vertex -39.292893218813255 61.13183099999929 1.5057190120131567
  endloop
endfacet
facet normal 3.2654470844656015e-15 -0.8944271909999209 -0.447213595499948
  outer loop
    vertex -54.99999999999947 61.131830999999245 1.5057190120131623
    vertex -38.79289321881326 60.63183099999931 2.5057190120131647
    vertex -54.99999999999947 60.63183099999925 2.505719012013162
  endloop
endfacet
facet normal 3.54250386918719e-16 -0.8320502943378436 0.5547001962252293
  outer loop
    vertex -38.79289321881326 60.63183099999931 2.5057190120131647
    vertex -54.99999999999947 61.13183099999925 3.2557190120131434
    vertex -54.99999999999947 60.63183099999925 2.505719012013162
  endloop
endfacet
facet normal 3.54250386918719e-16 -0.8320502943378436 0.5547001962252293
  outer loop
    vertex -54.99999999999947 61.13183099999925 3.2557190120131434
    vertex -38.79289321881326 60.63183099999931 2.5057190120131647
    vertex -39.292893218813255 61.13183099999929 3.255719012013149
  endloop
endfacet
facet normal 0.7071067811865452 -0.7071067811865499 5.75882146201297e-16
  outer loop
    vertex -35.707106781186376 61.13183099999931 1.5057190120131652
    vertex -36.70710678118637 60.13183099999932 1.0057190120131703
    vertex -35.707106781186376 61.13183099999931 1.0057190120131687
  endloop
endfacet
facet normal 0.7071067811865452 -0.7071067811865499 5.75882146201297e-16
  outer loop
    vertex -36.70710678118637 60.13183099999932 1.0057190120131703
    vertex -35.707106781186376 61.13183099999931 1.5057190120131652
    vertex -36.70710678118637 60.13183099999932 2.880719012013161
  endloop
endfacet
facet normal 0.7071067811865452 -0.7071067811865499 5.75882146201297e-16
  outer loop
    vertex -36.70710678118637 60.13183099999932 2.880719012013161
    vertex -35.707106781186376 61.13183099999931 1.5057190120131652
    vertex -36.20710678118637 60.63183099999932 2.5057190120131674
  endloop
endfacet
facet normal 0.7071067811865452 -0.7071067811865499 5.75882146201297e-16
  outer loop
    vertex -36.70710678118637 60.13183099999932 2.880719012013161
    vertex -36.20710678118637 60.63183099999932 2.5057190120131674
    vertex -35.70710678118638 61.13183099999931 3.255719012013149
  endloop
endfacet
facet normal 3.795337600373129e-15 -1.0 2.59792187762289e-15
  outer loop
    vertex -34.29289321881325 61.13183099999931 1.5057190120131652
    vertex -35.707106781186376 61.13183099999931 1.0057190120131687
    vertex -34.29289321881325 61.13183099999931 1.0057190120131687
  endloop
endfacet
facet normal 3.795337600373129e-15 -1.0 2.59792187762289e-15
  outer loop
    vertex -35.707106781186376 61.13183099999931 1.0057190120131687
    vertex -34.29289321881325 61.13183099999931 1.5057190120131652
    vertex -35.707106781186376 61.13183099999931 1.5057190120131652
  endloop
endfacet
facet normal 4.379371781627573e-15 -1.0 1.1879386363489302e-15
  outer loop
    vertex -39.292893218813255 61.13183099999929 1.5057190120131567
    vertex -54.99999999999947 61.131830999999245 1.005719012013166
    vertex -39.292893218813255 61.13183099999929 1.0057190120131603
  endloop
endfacet
facet normal 4.379371781627573e-15 -1.0 1.1879386363489302e-15
  outer loop
    vertex -54.99999999999947 61.131830999999245 1.005719012013166
    vertex -39.292893218813255 61.13183099999929 1.5057190120131567
    vertex -54.99999999999947 61.131830999999245 1.5057190120131623
  endloop
endfacet
facet normal -6.44623960260298e-15 0.832050294337842 0.554700196225232
  outer loop
    vertex -54.999999999999446 50.63183099999925 3.2557190120131465
    vertex -38.792893218813234 51.131830999999295 2.505719012013162
    vertex -54.999999999999446 51.13183099999925 2.505719012013162
  endloop
endfacet
facet normal -6.44623960260298e-15 0.832050294337842 0.554700196225232
  outer loop
    vertex -38.792893218813234 51.131830999999295 2.505719012013162
    vertex -54.999999999999446 50.63183099999925 3.2557190120131465
    vertex -39.29289321881322 50.63183099999931 3.255719012013149
  endloop
endfacet
facet normal -4.933565971061581e-16 -5.801162973445006e-16 -1.0
  outer loop
    vertex -33.87867965644018 62.13183099999935 0.005719012013150914
    vertex -54.999999999999446 49.631830999999195 0.0057190120131593745
    vertex -54.999999999999496 62.13183099999929 0.0057190120131480945
  endloop
endfacet
facet normal -4.933565971061581e-16 -5.801162973445006e-16 -1.0
  outer loop
    vertex -54.999999999999446 49.631830999999195 0.0057190120131593745
    vertex -33.87867965644018 62.13183099999935 0.005719012013150914
    vertex -33.87867965644012 49.631830999999266 0.005719012013162194
  endloop
endfacet
facet normal -4.933565971061581e-16 -5.801162973445006e-16 -1.0
  outer loop
    vertex -33.87867965644012 49.631830999999266 0.005719012013162194
    vertex -33.87867965644018 62.13183099999935 0.005719012013150914
    vertex -32.49999999999981 60.75315134355895 0.005719012013155144
  endloop
endfacet
facet normal -4.933565971061581e-16 -5.801162973445006e-16 -1.0
  outer loop
    vertex -33.87867965644012 49.631830999999266 0.005719012013162194
    vertex -32.49999999999981 60.75315134355895 0.005719012013155144
    vertex -32.499999999999794 51.010510656439656 0.005719012013146684
  endloop
endfacet
facet normal -0.7071067811865538 0.7071067811865412 -3.431884155856796e-16
  outer loop
    vertex -38.292893218813234 51.631830999999295 2.8807190120131585
    vertex -38.792893218813234 51.131830999999295 2.505719012013162
    vertex -39.29289321881322 50.63183099999931 3.255719012013149
  endloop
endfacet
facet normal -0.7071067811865538 0.7071067811865412 -3.431884155856796e-16
  outer loop
    vertex -38.792893218813234 51.131830999999295 2.505719012013162
    vertex -39.29289321881322 50.63183099999931 1.0057190120131618
    vertex -39.29289321881322 50.63183099999931 1.505719012013158
  endloop
endfacet
facet normal -0.7071067811865538 0.7071067811865412 -3.431884155856796e-16
  outer loop
    vertex -39.29289321881322 50.63183099999931 1.0057190120131618
    vertex -38.792893218813234 51.131830999999295 2.505719012013162
    vertex -38.29289321881324 51.631830999999295 1.0057190120131674
  endloop
endfacet
facet normal -0.7071067811865538 0.7071067811865412 -3.431884155856796e-16
  outer loop
    vertex -38.29289321881324 51.631830999999295 1.0057190120131674
    vertex -38.792893218813234 51.131830999999295 2.505719012013162
    vertex -38.292893218813234 51.631830999999295 2.8807190120131585
  endloop
endfacet
facet normal -7.001652427619288e-16 8.05105744421704e-15 1.0
  outer loop
    vertex -33.87867965644012 49.631830999999316 3.2557190120131603
    vertex -54.999999999999446 50.63183099999925 3.2557190120131465
    vertex -54.999999999999446 49.631830999999266 3.2557190120131576
  endloop
endfacet
facet normal -7.001652427619288e-16 8.05105744421704e-15 1.0
  outer loop
    vertex -54.999999999999446 50.63183099999925 3.2557190120131465
    vertex -33.87867965644012 49.631830999999316 3.2557190120131603
    vertex -39.29289321881322 50.63183099999931 3.255719012013149
  endloop
endfacet
facet normal -7.001652427619288e-16 8.05105744421704e-15 1.0
  outer loop
    vertex -39.29289321881322 50.63183099999931 3.255719012013149
    vertex -33.87867965644012 49.631830999999316 3.2557190120131603
    vertex -35.70710678118634 50.631830999999316 3.2557190120131434
  endloop
endfacet
facet normal -7.001652427619288e-16 8.05105744421704e-15 1.0
  outer loop
    vertex -35.70710678118634 50.631830999999316 3.2557190120131434
    vertex -33.87867965644012 49.631830999999316 3.2557190120131603
    vertex -34.29289321881323 50.631830999999316 3.2557190120131465
  endloop
endfacet
facet normal -7.001652427619288e-16 8.05105744421704e-15 1.0
  outer loop
    vertex -34.29289321881323 50.631830999999316 3.2557190120131465
    vertex -33.87867965644012 49.631830999999316 3.2557190120131603
    vertex -32.49999999999978 52.424724218812784 3.2557190120131323
  endloop
endfacet
facet normal -7.001652427619288e-16 8.05105744421704e-15 1.0
  outer loop
    vertex -32.49999999999978 52.424724218812784 3.2557190120131323
    vertex -33.87867965644012 49.631830999999316 3.2557190120131603
    vertex -32.49999999999978 51.01051065643968 3.255719012013149
  endloop
endfacet
facet normal -3.172183684085752e-15 0.8944271909999205 -0.4472135954999487
  outer loop
    vertex -35.70710678118635 50.631830999999316 1.5057190120131623
    vertex -33.79289321881323 51.131830999999316 2.5057190120131647
    vertex -34.29289321881323 50.631830999999316 1.505719012013161
  endloop
endfacet
facet normal -3.172183684085752e-15 0.8944271909999205 -0.4472135954999487
  outer loop
    vertex -33.79289321881323 51.131830999999316 2.5057190120131647
    vertex -35.70710678118635 50.631830999999316 1.5057190120131623
    vertex -36.20710678118634 51.1318309999993 2.505719012013166
  endloop
endfacet
facet normal -1.1849049884444739e-15 0.3511234415883855 0.9363291775690469
  outer loop
    vertex -35.70710678118634 50.631830999999316 3.2557190120131434
    vertex -38.292893218813234 51.631830999999295 2.8807190120131585
    vertex -39.29289321881322 50.63183099999931 3.255719012013149
  endloop
endfacet
facet normal -1.1849049884444739e-15 0.3511234415883855 0.9363291775690469
  outer loop
    vertex -38.292893218813234 51.631830999999295 2.8807190120131585
    vertex -35.70710678118634 50.631830999999316 3.2557190120131434
    vertex -36.70710678118634 51.6318309999993 2.88071901201316
  endloop
endfacet
facet normal -3.795337600373131e-15 1.0 2.220446049250294e-16
  outer loop
    vertex -35.70710678118635 50.631830999999316 1.005719012013166
    vertex -34.29289321881323 50.631830999999316 1.505719012013161
    vertex -34.29289321881323 50.631830999999316 1.0057190120131645
  endloop
endfacet
facet normal -3.795337600373131e-15 1.0 2.220446049250294e-16
  outer loop
    vertex -34.29289321881323 50.631830999999316 1.505719012013161
    vertex -35.70710678118635 50.631830999999316 1.005719012013166
    vertex -35.70710678118635 50.631830999999316 1.5057190120131623
  endloop
endfacet
facet normal -1.0 -3.795337600373131e-15 -1.141604309112493e-16
  outer loop
    vertex -54.999999999999446 51.13183099999925 2.505719012013162
    vertex -54.999999999999446 50.63183099999926 1.505719012013161
    vertex -54.999999999999446 50.63183099999925 3.2557190120131465
  endloop
endfacet
facet normal -1.0 -3.795337600373131e-15 -1.141604309112493e-16
  outer loop
    vertex -54.99999999999947 61.13183099999925 3.2557190120131434
    vertex -54.99999999999947 61.131830999999245 1.5057190120131623
    vertex -54.99999999999947 60.63183099999925 2.505719012013162
  endloop
endfacet
facet normal -1.0 -3.795337600373131e-15 -1.141604309112493e-16
  outer loop
    vertex -54.99999999999947 61.131830999999245 1.5057190120131623
    vertex -54.99999999999947 61.13183099999925 3.2557190120131434
    vertex -54.99999999999947 61.131830999999245 1.005719012013166
  endloop
endfacet
facet normal -1.0 -3.795337600373131e-15 -1.141604309112493e-16
  outer loop
    vertex -54.999999999999446 49.631830999999195 0.0057190120131593745
    vertex -54.999999999999446 50.63183099999926 1.0057190120131645
    vertex -54.999999999999496 62.13183099999929 0.0057190120131480945
  endloop
endfacet
facet normal -1.0 -3.795337600373131e-15 -1.141604309112493e-16
  outer loop
    vertex -54.999999999999446 50.63183099999926 1.0057190120131645
    vertex -54.999999999999446 49.631830999999195 0.0057190120131593745
    vertex -54.999999999999446 49.631830999999266 3.2557190120131576
  endloop
endfacet
facet normal -1.0 -3.795337600373131e-15 -1.141604309112493e-16
  outer loop
    vertex -54.999999999999446 50.63183099999926 1.0057190120131645
    vertex -54.999999999999446 49.631830999999266 3.2557190120131576
    vertex -54.999999999999446 50.63183099999925 3.2557190120131465
  endloop
endfacet
facet normal -1.0 -3.795337600373131e-15 -1.141604309112493e-16
  outer loop
    vertex -54.999999999999446 50.63183099999926 1.0057190120131645
    vertex -54.999999999999446 50.63183099999925 3.2557190120131465
    vertex -54.999999999999446 50.63183099999926 1.505719012013161
  endloop
endfacet
facet normal -1.0 -3.795337600373131e-15 -1.141604309112493e-16
  outer loop
    vertex -54.999999999999496 62.13183099999929 0.0057190120131480945
    vertex -54.999999999999446 50.63183099999926 1.0057190120131645
    vertex -54.99999999999947 61.131830999999245 1.005719012013166
  endloop
endfacet
facet normal -1.0 -3.795337600373131e-15 -1.141604309112493e-16
  outer loop
    vertex -54.999999999999496 62.13183099999929 0.0057190120131480945
    vertex -54.99999999999947 61.131830999999245 1.005719012013166
    vertex -54.99999999999947 61.13183099999925 3.2557190120131434
  endloop
endfacet
facet normal -1.0 -3.795337600373131e-15 -1.141604309112493e-16
  outer loop
    vertex -54.999999999999496 62.13183099999929 0.0057190120131480945
    vertex -54.99999999999947 61.13183099999925 3.2557190120131434
    vertex -54.999999999999496 62.13183099999924 3.255719012013152
  endloop
endfacet
facet normal -3.795337600373131e-15 1.0 2.220446049250294e-16
  outer loop
    vertex -54.999999999999446 50.63183099999926 1.0057190120131645
    vertex -39.29289321881322 50.63183099999931 1.505719012013158
    vertex -39.29289321881322 50.63183099999931 1.0057190120131618
  endloop
endfacet
facet normal -3.795337600373131e-15 1.0 2.220446049250294e-16
  outer loop
    vertex -39.29289321881322 50.63183099999931 1.505719012013158
    vertex -54.999999999999446 50.63183099999926 1.0057190120131645
    vertex -54.999999999999446 50.63183099999926 1.505719012013161
  endloop
endfacet
facet normal 1.896389066122228e-16 -2.2204460492502887e-16 1.0
  outer loop
    vertex -54.999999999999446 50.63183099999926 1.0057190120131645
    vertex -39.292893218813255 61.13183099999929 1.0057190120131603
    vertex -54.99999999999947 61.131830999999245 1.005719012013166
  endloop
endfacet
facet normal 1.896389066122228e-16 -2.2204460492502887e-16 1.0
  outer loop
    vertex -39.292893218813255 61.13183099999929 1.0057190120131603
    vertex -54.999999999999446 50.63183099999926 1.0057190120131645
    vertex -39.29289321881322 50.63183099999931 1.0057190120131618
  endloop
endfacet
facet normal 1.896389066122228e-16 -2.2204460492502887e-16 1.0
  outer loop
    vertex -39.292893218813255 61.13183099999929 1.0057190120131603
    vertex -39.29289321881322 50.63183099999931 1.0057190120131618
    vertex -38.29289321881327 60.13183099999932 1.0057190120131703
  endloop
endfacet
facet normal 1.896389066122228e-16 -2.2204460492502887e-16 1.0
  outer loop
    vertex -38.29289321881327 60.13183099999932 1.0057190120131703
    vertex -39.29289321881322 50.63183099999931 1.0057190120131618
    vertex -38.29289321881324 51.631830999999295 1.0057190120131674
  endloop
endfacet
facet normal 1.896389066122228e-16 -2.2204460492502887e-16 1.0
  outer loop
    vertex -38.29289321881327 60.13183099999932 1.0057190120131703
    vertex -38.29289321881324 51.631830999999295 1.0057190120131674
    vertex -36.70710678118637 60.13183099999932 1.0057190120131703
  endloop
endfacet
facet normal 1.896389066122228e-16 -2.2204460492502887e-16 1.0
  outer loop
    vertex -36.70710678118637 60.13183099999932 1.0057190120131703
    vertex -38.29289321881324 51.631830999999295 1.0057190120131674
    vertex -36.70710678118635 51.6318309999993 1.0057190120131687
  endloop
endfacet
facet normal 1.896389066122228e-16 -2.2204460492502887e-16 1.0
  outer loop
    vertex -36.70710678118637 60.13183099999932 1.0057190120131703
    vertex -36.70710678118635 51.6318309999993 1.0057190120131687
    vertex -35.707106781186376 61.13183099999931 1.0057190120131687
  endloop
endfacet
facet normal 1.896389066122228e-16 -2.2204460492502887e-16 1.0
  outer loop
    vertex -35.707106781186376 61.13183099999931 1.0057190120131687
    vertex -36.70710678118635 51.6318309999993 1.0057190120131687
    vertex -35.70710678118635 50.631830999999316 1.005719012013166
  endloop
endfacet
facet normal 1.896389066122228e-16 -2.2204460492502887e-16 1.0
  outer loop
    vertex -35.707106781186376 61.13183099999931 1.0057190120131687
    vertex -35.70710678118635 50.631830999999316 1.005719012013166
    vertex -34.29289321881325 61.13183099999931 1.0057190120131687
  endloop
endfacet
facet normal 1.896389066122228e-16 -2.2204460492502887e-16 1.0
  outer loop
    vertex -34.29289321881325 61.13183099999931 1.0057190120131687
    vertex -35.70710678118635 50.631830999999316 1.005719012013166
    vertex -34.29289321881323 50.631830999999316 1.0057190120131645
  endloop
endfacet
facet normal 1.896389066122228e-16 -2.2204460492502887e-16 1.0
  outer loop
    vertex -34.29289321881325 61.13183099999931 1.0057190120131687
    vertex -34.29289321881323 50.631830999999316 1.0057190120131645
    vertex -32.49999999999981 59.33893778118586 1.005719012013159
  endloop
endfacet
facet normal 1.896389066122228e-16 -2.2204460492502887e-16 1.0
  outer loop
    vertex -32.49999999999981 59.33893778118586 1.005719012013159
    vertex -34.29289321881323 50.631830999999316 1.0057190120131645
    vertex -32.499999999999794 52.42472421881278 1.005719012013156
  endloop
endfacet
facet normal 3.164484011894825e-15 -0.8320502943378445 0.5547001962252279
  outer loop
    vertex -33.792893218813255 60.63183099999933 2.5057190120131687
    vertex -35.70710678118638 61.13183099999931 3.255719012013149
    vertex -36.20710678118637 60.63183099999932 2.5057190120131674
  endloop
endfacet
facet normal 3.164484011894825e-15 -0.8320502943378445 0.5547001962252279
  outer loop
    vertex -35.70710678118638 61.13183099999931 3.255719012013149
    vertex -33.792893218813255 60.63183099999933 2.5057190120131687
    vertex -34.29289321881326 61.13183099999931 3.255719012013149
  endloop
endfacet
facet normal 3.808927394597127e-15 -0.8944271909999212 -0.4472135954999473
  outer loop
    vertex -33.792893218813255 60.63183099999933 2.5057190120131687
    vertex -35.707106781186376 61.13183099999931 1.5057190120131652
    vertex -34.29289321881325 61.13183099999931 1.5057190120131652
  endloop
endfacet
facet normal 3.808927394597127e-15 -0.8944271909999212 -0.4472135954999473
  outer loop
    vertex -35.707106781186376 61.13183099999931 1.5057190120131652
    vertex -33.792893218813255 60.63183099999933 2.5057190120131687
    vertex -36.20710678118637 60.63183099999932 2.5057190120131674
  endloop
endfacet
facet normal -3.523859213130634e-15 0.8944271909999204 -0.4472135954999491
  outer loop
    vertex -54.999999999999446 50.63183099999926 1.505719012013161
    vertex -38.792893218813234 51.131830999999295 2.505719012013162
    vertex -39.29289321881322 50.63183099999931 1.505719012013158
  endloop
endfacet
facet normal -3.523859213130634e-15 0.8944271909999204 -0.4472135954999491
  outer loop
    vertex -38.792893218813234 51.131830999999295 2.505719012013162
    vertex -54.999999999999446 50.63183099999926 1.505719012013161
    vertex -54.999999999999446 51.13183099999925 2.505719012013162
  endloop
endfacet
facet normal -3.795337600373131e-15 1.0 2.220446049250294e-16
  outer loop
    vertex -38.292893218813234 51.631830999999295 2.8807190120131585
    vertex -36.70710678118635 51.6318309999993 1.0057190120131687
    vertex -38.29289321881324 51.631830999999295 1.0057190120131674
  endloop
endfacet
facet normal -3.795337600373131e-15 1.0 2.220446049250294e-16
  outer loop
    vertex -36.70710678118635 51.6318309999993 1.0057190120131687
    vertex -38.292893218813234 51.631830999999295 2.8807190120131585
    vertex -36.70710678118634 51.6318309999993 2.88071901201316
  endloop
endfacet
facet normal 0.7071067811865422 0.7071067811865528 9.353695278284601e-16
  outer loop
    vertex -36.70710678118635 51.6318309999993 1.0057190120131687
    vertex -35.70710678118635 50.631830999999316 1.5057190120131623
    vertex -35.70710678118635 50.631830999999316 1.005719012013166
  endloop
endfacet
facet normal 0.7071067811865422 0.7071067811865528 9.353695278284601e-16
  outer loop
    vertex -35.70710678118635 50.631830999999316 1.5057190120131623
    vertex -36.70710678118635 51.6318309999993 1.0057190120131687
    vertex -36.70710678118634 51.6318309999993 2.88071901201316
  endloop
endfacet
facet normal 0.7071067811865422 0.7071067811865528 9.353695278284601e-16
  outer loop
    vertex -35.70710678118635 50.631830999999316 1.5057190120131623
    vertex -36.70710678118634 51.6318309999993 2.88071901201316
    vertex -36.20710678118634 51.1318309999993 2.505719012013166
  endloop
endfacet
facet normal 0.7071067811865422 0.7071067811865528 9.353695278284601e-16
  outer loop
    vertex -36.20710678118634 51.1318309999993 2.505719012013166
    vertex -36.70710678118634 51.6318309999993 2.88071901201316
    vertex -35.70710678118634 50.631830999999316 3.2557190120131434
  endloop
endfacet
facet normal -3.433851177599968e-15 0.8320502943378429 0.5547001962252305
  outer loop
    vertex -36.20710678118634 51.1318309999993 2.505719012013166
    vertex -34.29289321881323 50.631830999999316 3.2557190120131465
    vertex -33.79289321881323 51.131830999999316 2.5057190120131647
  endloop
endfacet
facet normal -3.433851177599968e-15 0.8320502943378429 0.5547001962252305
  outer loop
    vertex -34.29289321881323 50.631830999999316 3.2557190120131465
    vertex -36.20710678118634 51.1318309999993 2.505719012013166
    vertex -35.70710678118634 50.631830999999316 3.2557190120131434
  endloop
endfacet
facet normal 0.7071067811865569 -0.7071067811865381 6.862905309106537e-15
  outer loop
    vertex -32.499999999999794 51.010510656439656 0.005719012013146684
    vertex -33.87867965644012 49.631830999999316 3.2557190120131603
    vertex -33.87867965644012 49.631830999999266 0.005719012013162194
  endloop
endfacet
facet normal 0.7071067811865569 -0.7071067811865381 6.862905309106537e-15
  outer loop
    vertex -33.87867965644012 49.631830999999316 3.2557190120131603
    vertex -32.499999999999794 51.010510656439656 0.005719012013146684
    vertex -32.49999999999978 51.01051065643968 3.255719012013149
  endloop
endfacet
facet normal 3.795337600373123e-15 -1.0 1.6046992794389792e-14
  outer loop
    vertex -33.87867965644012 49.631830999999266 0.005719012013162194
    vertex -54.999999999999446 49.631830999999266 3.2557190120131576
    vertex -54.999999999999446 49.631830999999195 0.0057190120131593745
  endloop
endfacet
facet normal 3.795337600373123e-15 -1.0 1.6046992794389792e-14
  outer loop
    vertex -54.999999999999446 49.631830999999266 3.2557190120131576
    vertex -33.87867965644012 49.631830999999266 0.005719012013162194
    vertex -33.87867965644012 49.631830999999316 3.2557190120131603
  endloop
endfacet
facet normal 1.0 3.41034767123834e-15 -8.141554714492921e-16
  outer loop
    vertex -32.499999999999794 51.010510656439656 0.005719012013146684
    vertex -32.499999999999794 52.42472421881278 1.005719012013156
    vertex -32.49999999999978 51.01051065643968 3.255719012013149
  endloop
endfacet
facet normal 1.0 3.41034767123834e-15 -8.141554714492921e-16
  outer loop
    vertex -32.499999999999794 52.42472421881278 1.005719012013156
    vertex -32.499999999999794 51.010510656439656 0.005719012013146684
    vertex -32.49999999999981 60.75315134355895 0.005719012013155144
  endloop
endfacet
facet normal 1.0 3.41034767123834e-15 -8.141554714492921e-16
  outer loop
    vertex -32.499999999999794 52.42472421881278 1.005719012013156
    vertex -32.49999999999981 60.75315134355895 0.005719012013155144
    vertex -32.49999999999981 59.33893778118586 1.005719012013159
  endloop
endfacet
facet normal 1.0 3.41034767123834e-15 -8.141554714492921e-16
  outer loop
    vertex -32.49999999999981 59.33893778118586 1.005719012013159
    vertex -32.49999999999981 60.75315134355895 0.005719012013155144
    vertex -32.49999999999981 59.33893778118586 3.255719012013135
  endloop
endfacet
facet normal 1.0 3.41034767123834e-15 -8.141554714492921e-16
  outer loop
    vertex -32.49999999999981 59.33893778118586 3.255719012013135
    vertex -32.49999999999981 60.75315134355895 0.005719012013155144
    vertex -32.49999999999981 60.75315134355894 3.2557190120131576
  endloop
endfacet
facet normal 1.0 3.41034767123834e-15 -8.141554714492921e-16
  outer loop
    vertex -32.49999999999978 52.424724218812784 3.2557190120131323
    vertex -32.49999999999978 51.01051065643968 3.255719012013149
    vertex -32.499999999999794 52.42472421881278 1.005719012013156
  endloop
endfacet
facet normal -0.7071067811865523 0.7071067811865427 -1.1053376814002811e-15
  outer loop
    vertex -32.49999999999978 52.424724218812784 3.2557190120131323
    vertex -33.79289321881323 51.131830999999316 2.5057190120131647
    vertex -34.29289321881323 50.631830999999316 3.2557190120131465
  endloop
endfacet
facet normal -0.7071067811865523 0.7071067811865427 -1.1053376814002811e-15
  outer loop
    vertex -33.79289321881323 51.131830999999316 2.5057190120131647
    vertex -32.49999999999978 52.424724218812784 3.2557190120131323
    vertex -32.499999999999794 52.42472421881278 1.005719012013156
  endloop
endfacet
facet normal -0.7071067811865523 0.7071067811865427 -1.1053376814002811e-15
  outer loop
    vertex -33.79289321881323 51.131830999999316 2.5057190120131647
    vertex -34.29289321881323 50.631830999999316 1.0057190120131645
    vertex -34.29289321881323 50.631830999999316 1.505719012013161
  endloop
endfacet
facet normal -0.7071067811865523 0.7071067811865427 -1.1053376814002811e-15
  outer loop
    vertex -34.29289321881323 50.631830999999316 1.0057190120131645
    vertex -33.79289321881323 51.131830999999316 2.5057190120131647
    vertex -32.499999999999794 52.42472421881278 1.005719012013156
  endloop
endfacet
facet normal -0.7071067811865462 -0.7071067811865488 3.787745056503832e-16
  outer loop
    vertex -32.49999999999981 59.33893778118586 3.255719012013135
    vertex -34.29289321881325 61.13183099999931 1.0057190120131687
    vertex -32.49999999999981 59.33893778118586 1.005719012013159
  endloop
endfacet
facet normal -0.7071067811865462 -0.7071067811865488 3.787745056503832e-16
  outer loop
    vertex -34.29289321881325 61.13183099999931 1.0057190120131687
    vertex -32.49999999999981 59.33893778118586 3.255719012013135
    vertex -34.29289321881325 61.13183099999931 1.5057190120131652
  endloop
endfacet
facet normal -0.7071067811865462 -0.7071067811865488 3.787745056503832e-16
  outer loop
    vertex -34.29289321881325 61.13183099999931 1.5057190120131652
    vertex -32.49999999999981 59.33893778118586 3.255719012013135
    vertex -33.792893218813255 60.63183099999933 2.5057190120131687
  endloop
endfacet
facet normal -0.7071067811865462 -0.7071067811865488 3.787745056503832e-16
  outer loop
    vertex -33.792893218813255 60.63183099999933 2.5057190120131687
    vertex -32.49999999999981 59.33893778118586 3.255719012013135
    vertex -34.29289321881326 61.13183099999931 3.255719012013149
  endloop
endfacet
facet normal 0.7071067811865531 0.7071067811865419 5.032248922907134e-15
  outer loop
    vertex -32.49999999999981 60.75315134355895 0.005719012013155144
    vertex -33.87867965644018 62.13183099999931 3.2557190120131576
    vertex -32.49999999999981 60.75315134355894 3.2557190120131576
  endloop
endfacet
facet normal 0.7071067811865531 0.7071067811865419 5.032248922907134e-15
  outer loop
    vertex -33.87867965644018 62.13183099999931 3.2557190120131576
    vertex -32.49999999999981 60.75315134355895 0.005719012013155144
    vertex -33.87867965644018 62.13183099999935 0.005719012013150914
  endloop
endfacet
facet normal -3.795337600373136e-15 1.0 1.128499003645908e-14
  outer loop
    vertex -54.999999999999496 62.13183099999924 3.255719012013152
    vertex -33.87867965644018 62.13183099999935 0.005719012013150914
    vertex -54.999999999999496 62.13183099999929 0.0057190120131480945
  endloop
endfacet
facet normal -3.795337600373136e-15 1.0 1.128499003645908e-14
  outer loop
    vertex -33.87867965644018 62.13183099999935 0.005719012013150914
    vertex -54.999999999999496 62.13183099999924 3.255719012013152
    vertex -33.87867965644018 62.13183099999931 3.2557190120131576
  endloop
endfacet
endsolid ProtoGlove
