solid ProtoGlove
facet normal 0.9999999999999997 -2.6547647313789525e-09 2.7486878133372426e-08
  outer loop
    vertex 36.69928045968158 -250.3218629894912 0.005619574630685164
    vertex 36.699280366327855 -249.39680872022024 2.4999707920262626
    vertex 36.6992804415598 -250.32186222219727 3.005620189288532
  endloop
endfacet
facet normal 0.9999999999999997 -2.6547647313789525e-09 2.7486878133372426e-08
  outer loop
    vertex 36.699280366327855 -249.39680872022024 2.4999707920262626
    vertex 36.69928045968158 -250.3218629894912 0.005619574630685164
    vertex 36.69928054552915 -231.53658032886744 0.005619549327825268
  endloop
endfacet
facet normal 0.9999999999999997 -2.6547647313789525e-09 2.7486878133372426e-08
  outer loop
    vertex 36.699280366327855 -249.39680872022024 2.4999707920262626
    vertex 36.69928054552915 -231.53658032886744 0.005619549327825268
    vertex 36.69928042586078 -232.6115260647726 2.4999707645837925
  endloop
endfacet
facet normal 0.9999999999999997 -2.6547647313789525e-09 2.7486878133372426e-08
  outer loop
    vertex 36.69928042586078 -232.6115260647726 2.4999707645837925
    vertex 36.69928054552915 -231.53658032886744 0.005619549327825268
    vertex 36.6992804415598 -231.53658072467925 3.005620194070924
  endloop
endfacet
facet normal 3.331313971992843e-08 1.1558234302284385e-08 0.9999999999999994
  outer loop
    vertex 31.69928020031337 -249.39680870248665 2.4999711251577015
    vertex 36.69928042586078 -232.6115260647726 2.4999707645837925
    vertex 31.699280199269804 -232.61152604703892 2.4999707645837472
  endloop
endfacet
facet normal 3.331313971992843e-08 1.1558234302284385e-08 0.9999999999999994
  outer loop
    vertex 36.69928042586078 -232.6115260647726 2.4999707645837925
    vertex 31.69928020031337 -249.39680870248665 2.4999711251577015
    vertex 36.699280366327855 -249.39680872022024 2.4999707920262626
  endloop
endfacet
facet normal 0.8944271909959852 3.5518671109735646e-08 0.4472135955078182
  outer loop
    vertex 31.341920946395916 -231.5365811363093 8.255620194708081
    vertex 30.841920792240465 -227.03658115123972 9.255620145597257
    vertex 30.841920946387006 -231.53658115123946 9.255620194703521
  endloop
endfacet
facet normal 0.8944271909959852 3.5518671109735646e-08 0.4472135955078182
  outer loop
    vertex 30.841920792240465 -227.03658115123972 9.255620145597257
    vertex 31.341920946395916 -231.5365811363093 8.255620194708081
    vertex 31.34192079224906 -227.03658113630897 8.255620145601636
  endloop
endfacet
facet normal 0.8192319205239753 2.1804721843358117e-08 -0.5734623443562783
  outer loop
    vertex 30.99192079225769 -227.03658114676026 7.2556201455987495
    vertex 31.341920946399934 -231.5365811363093 7.755620194707923
    vertex 30.991920946404434 -231.53658114676074 7.25562019470506
  endloop
endfacet
facet normal 0.8192319205239753 2.1804721843358117e-08 -0.5734623443562783
  outer loop
    vertex 31.341920946399934 -231.5365811363093 7.755620194707923
    vertex 30.99192079225769 -227.03658114676026 7.2556201455987495
    vertex 31.341920792253436 -227.03658113630942 7.7556201456017035
  endloop
endfacet
facet normal 0.894427190996049 -4.856164532276311e-09 0.4472135955076921
  outer loop
    vertex 31.341920791481535 -254.8218622356642 8.255620508653099
    vertex 30.841920790943846 -250.3218622362953 9.255620558571106
    vertex 30.841920791473186 -254.8218622362952 9.255620508648585
  endloop
endfacet
facet normal 0.894427190996049 -4.856164532276311e-09 0.4472135955076921
  outer loop
    vertex 30.841920790943846 -250.3218622362953 9.255620558571106
    vertex 31.341920791481535 -254.8218622356642 8.255620508653099
    vertex 31.341920790952663 -250.3218622356646 8.255620558575576
  endloop
endfacet
facet normal 1.0 -5.837422750958474e-10 1.7423411853255508e-09
  outer loop
    vertex 31.841920791222275 -254.82186220157746 4.105620639082501
    vertex 31.841920790974253 -250.3218622350331 5.7556205585798885
    vertex 31.8419207915038 -254.82186223127368 5.755620508657593
  endloop
endfacet
facet normal 1.0 -5.837422750958474e-10 1.7423411853255508e-09
  outer loop
    vertex 31.841920790974253 -250.3218622350331 5.7556205585798885
    vertex 31.841920791222275 -254.82186220157746 4.105620639082501
    vertex 31.841920797005464 -250.32186220159227 4.105620688961256
  endloop
endfacet
facet normal -8.769526175112646e-12 1.0912488720079393e-08 1.0
  outer loop
    vertex 30.991920946417565 -231.53658114676037 5.7556201947049495
    vertex 31.841920792271033 -227.03658112137904 5.755620145606175
    vertex 30.991920792270953 -227.0365811467603 5.75562014559873
  endloop
endfacet
facet normal -8.769526175112646e-12 1.0912488720079393e-08 1.0
  outer loop
    vertex 31.841920792271033 -227.03658112137904 5.755620145606175
    vertex 30.991920946417565 -231.53658114676037 5.7556201947049495
    vertex 31.84192094641719 -231.53658112137887 5.755620194712394
  endloop
endfacet
facet normal 0.8192833971547493 6.543597117165122e-09 -0.5733887992859416
  outer loop
    vertex 30.99192075927667 -252.82186223610626 7.255524919337964
    vertex 31.341920791486 -254.82186223190476 7.755620508653123
    vertex 30.991920761031345 -254.82186223234666 7.255524917635381
  endloop
endfacet
facet normal 0.8192833971547493 6.543597117165122e-09 -0.5733887992859416
  outer loop
    vertex 31.341920791486 -254.82186223190476 7.755620508653123
    vertex 30.99192075927667 -252.82186223610626 7.255524919337964
    vertex 31.34192079095702 -250.32186223566453 7.755620558575463
  endloop
endfacet
facet normal 0.8192833971547493 6.543597117165122e-09 -0.5733887992859416
  outer loop
    vertex 31.34192079095702 -250.32186223566453 7.755620558575463
    vertex 30.99192075927667 -252.82186223610626 7.255524919337964
    vertex 30.991920760502882 -250.3218622361062 7.255524967557676
  endloop
endfacet
facet normal 0.9999999999999996 3.425479072190336e-08 8.800744284462011e-12
  outer loop
    vertex 31.841920946432104 -231.53658112136492 4.105620324799221
    vertex 31.841920792271033 -227.03658112137904 5.755620145606175
    vertex 31.84192094641719 -231.53658112137887 5.755620194712394
  endloop
endfacet
facet normal 0.9999999999999996 3.425479072190336e-08 8.800744284462011e-12
  outer loop
    vertex 31.841920792271033 -227.03658112137904 5.755620145606175
    vertex 31.841920946432104 -231.53658112136492 4.105620324799221
    vertex 31.841920792285134 -227.03658112137876 4.105620276031172
  endloop
endfacet
facet normal 0.9999999999999996 3.425481459065378e-08 8.377688678708605e-12
  outer loop
    vertex 31.341920792253436 -227.03658113630942 7.7556201456017035
    vertex 31.341920946395916 -231.5365811363093 8.255620194708081
    vertex 31.341920946399934 -231.5365811363093 7.755620194707923
  endloop
endfacet
facet normal 0.9999999999999996 3.425481459065378e-08 8.377688678708605e-12
  outer loop
    vertex 31.341920946395916 -231.5365811363093 8.255620194708081
    vertex 31.341920792253436 -227.03658113630942 7.7556201456017035
    vertex 31.34192079224906 -227.03658113630897 8.255620145601636
  endloop
endfacet
facet normal 1.0 1.1753719778504935e-10 8.82466128966686e-12
  outer loop
    vertex 31.341920791486 -254.82186223190476 7.755620508653123
    vertex 31.341920790952663 -250.3218622356646 8.255620558575576
    vertex 31.341920791481535 -254.8218622356642 8.255620508653099
  endloop
endfacet
facet normal 1.0 1.1753719778504935e-10 8.82466128966686e-12
  outer loop
    vertex 31.341920790952663 -250.3218622356646 8.255620558575576
    vertex 31.341920791486 -254.82186223190476 7.755620508653123
    vertex 31.34192079095702 -250.32186223566453 7.755620558575463
  endloop
endfacet
facet normal 1.0 9.255912231817624e-11 8.701971006711963e-12
  outer loop
    vertex 30.991920759289734 -252.82186223610603 5.7555249193380345
    vertex 30.991920761031345 -254.82186223234666 7.255524917635381
    vertex 30.99192076104454 -254.82186223234666 5.755524917635361
  endloop
endfacet
facet normal 1.0 9.255912231817624e-11 8.701971006711963e-12
  outer loop
    vertex 30.991920761031345 -254.82186223234666 7.255524917635381
    vertex 30.991920759289734 -252.82186223610603 5.7555249193380345
    vertex 30.99192075927667 -252.82186223610626 7.255524919337964
  endloop
endfacet
facet normal 1.0 9.255912231817624e-11 8.701971006711963e-12
  outer loop
    vertex 30.99192075927667 -252.82186223610626 7.255524919337964
    vertex 30.991920759289734 -252.82186223610603 5.7555249193380345
    vertex 30.991920760502882 -250.3218622361062 7.255524967557676
  endloop
endfacet
facet normal 1.0 9.255912231817624e-11 8.701971006711963e-12
  outer loop
    vertex 30.991920760502882 -250.3218622361062 7.255524967557676
    vertex 30.991920759289734 -252.82186223610603 5.7555249193380345
    vertex 30.991920760515786 -250.32186223610597 5.755524967557702
  endloop
endfacet
facet normal 0.9999999999999996 3.425481953215273e-08 8.785303317731769e-12
  outer loop
    vertex 30.991920946417565 -231.53658114676037 5.7556201947049495
    vertex 30.99192079225769 -227.03658114676026 7.2556201455987495
    vertex 30.991920946404434 -231.53658114676074 7.25562019470506
  endloop
endfacet
facet normal 0.9999999999999996 3.425481953215273e-08 8.785303317731769e-12
  outer loop
    vertex 30.99192079225769 -227.03658114676026 7.2556201455987495
    vertex 30.991920946417565 -231.53658114676037 5.7556201947049495
    vertex 30.991920792270953 -227.0365811467603 5.75562014559873
  endloop
endfacet
facet normal -0.0001124680381554259 -1.1262113382188358e-08 0.9999999936754702
  outer loop
    vertex 30.99192076104454 -254.82186223234666 5.755524917635361
    vertex 30.991920760515786 -250.32186223610597 5.755524967557702
    vertex 30.991920759289734 -252.82186223610603 5.7555249193380345
  endloop
endfacet
facet normal -0.0001124680381554259 -1.1262113382188358e-08 0.9999999936754702
  outer loop
    vertex 30.991920760515786 -250.32186223610597 5.755524967557702
    vertex 30.99192076104454 -254.82186223234666 5.755524917635361
    vertex 31.841920790974253 -250.3218622350331 5.7556205585798885
  endloop
endfacet
facet normal -0.0001124680381554259 -1.1262113382188358e-08 0.9999999936754702
  outer loop
    vertex 31.841920790974253 -250.3218622350331 5.7556205585798885
    vertex 30.99192076104454 -254.82186223234666 5.755524917635361
    vertex 31.8419207915038 -254.82186223127368 5.755620508657593
  endloop
endfacet
facet normal -8.703559201699791e-09 4.82967885977546e-09 -1.0
  outer loop
    vertex 78.54485622369884 -227.0365810918773 0.005620281189530374
    vertex 31.699280385088763 -231.53658112132902 0.005620202406705487
    vertex 31.699280235626954 -227.03658111529322 0.005620145604865101
  endloop
endfacet
facet normal -8.703559201699791e-09 4.82967885977546e-09 -1.0
  outer loop
    vertex 31.699280385088763 -231.53658112132902 0.005620202406705487
    vertex 78.54485622369884 -227.0365810918773 0.005620281189530374
    vertex 36.69928054552915 -231.53658032886744 0.005619549327825268
  endloop
endfacet
facet normal -8.703559201699791e-09 4.82967885977546e-09 -1.0
  outer loop
    vertex 31.699280385088763 -231.53658112132902 0.005620202406705487
    vertex 36.69928054552915 -231.53658032886744 0.005619549327825268
    vertex 36.69928045968158 -250.3218629894912 0.005619574630685164
  endloop
endfacet
facet normal -8.703559201699791e-09 4.82967885977546e-09 -1.0
  outer loop
    vertex 36.69928054552915 -231.53658032886744 0.005619549327825268
    vertex 78.54485622369884 -227.0365810918773 0.005620281189530374
    vertex 73.54485602853818 -231.53658109372185 0.005620204388758409
  endloop
endfacet
facet normal -8.703559201699791e-09 4.82967885977546e-09 -1.0
  outer loop
    vertex 73.54485602853818 -231.53658109372185 0.005620204388758409
    vertex 78.54485622369884 -227.0365810918773 0.005620281189530374
    vertex 73.54485603471771 -250.32186221228685 0.005620199108833645
  endloop
endfacet
facet normal -8.703559201699791e-09 4.82967885977546e-09 -1.0
  outer loop
    vertex 73.54485603471771 -250.32186221228685 0.005620199108833645
    vertex 78.54485622369884 -227.0365810918773 0.005620281189530374
    vertex 78.5448559782239 -245.32186220167978 0.005619631159507676
  endloop
endfacet
facet normal -8.703559201699791e-09 4.82967885977546e-09 -1.0
  outer loop
    vertex 78.5448559782239 -245.32186220167978 0.005619631159507676
    vertex 78.54485622369884 -227.0365810918773 0.005620281189530374
    vertex 78.54485620366584 -236.5365810285327 0.005620105048558343
  endloop
endfacet
facet normal -8.703559201699791e-09 4.82967885977546e-09 -1.0
  outer loop
    vertex 31.699280235957566 -250.3218622944762 0.005620566274244964
    vertex 78.54485622293073 -254.8218622077155 0.005619579375267491
    vertex 31.69928023485927 -254.82186223113123 0.005620508656238598
  endloop
endfacet
facet normal -8.703559201699791e-09 4.82967885977546e-09 -1.0
  outer loop
    vertex 78.54485622293073 -254.8218622077155 0.005619579375267491
    vertex 31.699280235957566 -250.3218622944762 0.005620566274244964
    vertex 36.69928045968158 -250.3218629894912 0.005619574630685164
  endloop
endfacet
facet normal -8.703559201699791e-09 4.82967885977546e-09 -1.0
  outer loop
    vertex 36.69928045968158 -250.3218629894912 0.005619574630685164
    vertex 31.699280235957566 -250.3218622944762 0.005620566274244964
    vertex 31.699280385088763 -231.53658112132902 0.005620202406705487
  endloop
endfacet
facet normal -8.703559201699791e-09 4.82967885977546e-09 -1.0
  outer loop
    vertex 78.54485622293073 -254.8218622077155 0.005619579375267491
    vertex 36.69928045968158 -250.3218629894912 0.005619574630685164
    vertex 73.54485603471771 -250.32186221228685 0.005620199108833645
  endloop
endfacet
facet normal -8.703559201699791e-09 4.82967885977546e-09 -1.0
  outer loop
    vertex 78.54485622293073 -254.8218622077155 0.005619579375267491
    vertex 73.54485603471771 -250.32186221228685 0.005620199108833645
    vertex 78.5448559782239 -245.32186220167978 0.005619631159507676
  endloop
endfacet
facet normal 0.707106781180381 -8.746429219348908e-09 0.7071067811927141
  outer loop
    vertex 32.94192129080429 -254.82186221802402 3.0056201395196878
    vertex 31.841920797005464 -250.32186220159227 4.105620688961256
    vertex 31.841920791222275 -254.82186220157746 4.105620639082501
  endloop
endfacet
facet normal 0.707106781180381 -8.746429219348908e-09 0.7071067811927141
  outer loop
    vertex 31.841920797005464 -250.32186220159227 4.105620688961256
    vertex 32.94192129080429 -254.82186221802402 3.0056201395196878
    vertex 32.94192129658747 -250.32186222318492 3.0056201893984427
  endloop
endfacet
facet normal 0.7071067820803407 3.141219859118963e-08 0.7071067802927536
  outer loop
    vertex 32.941920922928716 -227.03658105644237 3.0056201456157785
    vertex 31.841920946432104 -231.53658112136492 4.105620324799221
    vertex 32.941921070763115 -231.53658112412873 3.0056201946783676
  endloop
endfacet
facet normal 0.7071067820803407 3.141219859118963e-08 0.7071067802927536
  outer loop
    vertex 31.841920946432104 -231.53658112136492 4.105620324799221
    vertex 32.941920922928716 -227.03658105644237 3.0056201456157785
    vertex 31.841920792285134 -227.03658112137876 4.105620276031172
  endloop
endfacet
facet normal -0.9999999999999996 1.6767576636645923e-09 -2.8994540411688507e-08
  outer loop
    vertex 31.699280235957566 -250.3218622944762 0.005620566274244964
    vertex 31.69928020031337 -249.39680870248665 2.4999711251577015
    vertex 31.699280385088763 -231.53658112132902 0.005620202406705487
  endloop
endfacet
facet normal -0.9999999999999996 1.6767576636645923e-09 -2.8994540411688507e-08
  outer loop
    vertex 31.69928020031337 -249.39680870248665 2.4999711251577015
    vertex 31.699280235957566 -250.3218622944762 0.005620566274244964
    vertex 31.699280275545338 -250.3218622044636 3.0056205224199255
  endloop
endfacet
facet normal -0.9999999999999996 1.6767576636645923e-09 -2.8994540411688507e-08
  outer loop
    vertex 31.699280385088763 -231.53658112132902 0.005620202406705487
    vertex 31.69928020031337 -249.39680870248665 2.4999711251577015
    vertex 31.699280199269804 -232.61152604703892 2.4999707645837472
  endloop
endfacet
facet normal -0.9999999999999996 1.6767576636645923e-09 -2.8994540411688507e-08
  outer loop
    vertex 31.699280385088763 -231.53658112132902 0.005620202406705487
    vertex 31.699280199269804 -232.61152604703892 2.4999707645837472
    vertex 31.699280214968894 -231.53658070694564 3.005620194070879
  endloop
endfacet
facet normal 5.8100335092281985e-08 -2.5567061514410378e-08 0.9999999999999981
  outer loop
    vertex 78.40221600031344 -254.8218622717348 5.755619587662766
    vertex 79.25221575092189 -245.32186224635356 5.755619582366102
    vertex 78.40221575092181 -245.3218622717346 5.755619631751386
  endloop
endfacet
facet normal 5.8100335092281985e-08 -2.5567061514410378e-08 0.9999999999999981
  outer loop
    vertex 79.25221575092189 -245.32186224635356 5.755619582366102
    vertex 78.40221600031344 -254.8218622717348 5.755619587662766
    vertex 79.25221600031368 -254.82186224635328 5.755619538277528
  endloop
endfacet
facet normal -0.9999999999999978 -3.857136944025605e-08 5.810033950023698e-08
  outer loop
    vertex 79.25221583807243 -245.32186226464154 7.255619582366212
    vertex 79.25221600031368 -254.82186224635328 5.755619538277528
    vertex 79.25221608746398 -254.8218622646419 7.2556195382775925
  endloop
endfacet
facet normal -0.9999999999999978 -3.857136944025605e-08 5.810033950023698e-08
  outer loop
    vertex 79.25221600031368 -254.82186224635328 5.755619538277528
    vertex 79.25221583807243 -245.32186226464154 7.255619582366212
    vertex 79.25221575092189 -245.32186224635356 5.755619582366102
  endloop
endfacet
facet normal -0.9999999999999982 6.220024475090016e-10 5.983392665946465e-08
  outer loop
    vertex 78.40221598267568 -236.53658115808065 5.755620105640391
    vertex 78.40221590551113 -227.03658117141921 4.105620419901983
    vertex 78.40221588079342 -236.53658117140458 4.105620236021759
  endloop
endfacet
facet normal -0.9999999999999982 6.220024475090016e-10 5.983392665946465e-08
  outer loop
    vertex 78.40221590551113 -227.03658117141921 4.105620419901983
    vertex 78.40221598267568 -236.53658115808065 5.755620105640391
    vertex 78.40221600108106 -227.03658116184045 5.755620289477029
  endloop
endfacet
facet normal -0.9999999999999987 5.35378530448333e-09 5.1512274616484905e-08
  outer loop
    vertex 78.90221614633239 -227.03658118793015 8.255620260426745
    vertex 78.90221609887617 -236.53658118183378 7.7556200765901755
    vertex 78.90221612792624 -236.53658118792967 8.255620076590377
  endloop
endfacet
facet normal -0.9999999999999987 5.35378530448333e-09 5.1512274616484905e-08
  outer loop
    vertex 78.90221609887617 -236.53658118183378 7.7556200765901755
    vertex 78.90221614633239 -227.03658118793015 8.255620260426745
    vertex 78.90221611728207 -227.03658118559363 7.755620260426904
  endloop
endfacet
facet normal -0.9999999999999977 -3.8571346514364244e-08 5.810025297125132e-08
  outer loop
    vertex 78.40221575092181 -245.3218622717346 5.755619631751386
    vertex 78.40221590444827 -254.82186225161797 4.105619718087764
    vertex 78.40221600031344 -254.8218622717348 5.755619587662766
  endloop
endfacet
facet normal -0.9999999999999977 -3.8571346514364244e-08 5.810025297125132e-08
  outer loop
    vertex 78.40221590444827 -254.82186225161797 4.105619718087764
    vertex 78.40221575092181 -245.3218622717346 5.755619631751386
    vertex 78.40221565505625 -245.32186225163207 4.105619761838214
  endloop
endfacet
facet normal -0.9999999999999984 2.1432404862974888e-09 5.8100383624150584e-08
  outer loop
    vertex 79.25221611868527 -227.03658117905388 7.255524649076978
    vertex 79.25221601312849 -236.53658115700676 5.75552446524032
    vertex 79.25221610027887 -236.5365811752949 7.255524465240341
  endloop
endfacet
facet normal -0.9999999999999984 2.1432404862974888e-09 5.8100383624150584e-08
  outer loop
    vertex 79.25221601312849 -236.53658115700676 5.75552446524032
    vertex 79.25221611868527 -227.03658117905388 7.255524649076978
    vertex 79.25221603328937 -229.03658115700676 5.755524626395359
  endloop
endfacet
facet normal -0.9999999999999984 2.1432404862974888e-09 5.8100383624150584e-08
  outer loop
    vertex 79.25221603328937 -229.03658115700676 5.755524626395359
    vertex 79.25221611868527 -227.03658117905388 7.255524649076978
    vertex 79.25221603153463 -227.03658116076608 5.755524649077004
  endloop
endfacet
facet normal 0.00011252513094612354 2.35575800674407e-10 0.9999999936690475
  outer loop
    vertex 79.25221601312849 -236.53658115700676 5.75552446524032
    vertex 78.40221600108106 -227.03658116184045 5.755620289477029
    vertex 78.40221598267568 -236.53658115808065 5.755620105640391
  endloop
endfacet
facet normal 0.00011252513094612354 2.35575800674407e-10 0.9999999936690475
  outer loop
    vertex 78.40221600108106 -227.03658116184045 5.755620289477029
    vertex 79.25221601312849 -236.53658115700676 5.75552446524032
    vertex 79.25221603153463 -227.03658116076608 5.755524649077004
  endloop
endfacet
facet normal 0.00011252513094612354 2.35575800674407e-10 0.9999999936690475
  outer loop
    vertex 79.25221603153463 -227.03658116076608 5.755524649077004
    vertex 79.25221601312849 -236.53658115700676 5.75552446524032
    vertex 79.25221603328937 -229.03658115700676 5.755524626395359
  endloop
endfacet
facet normal -0.7071067410033451 -2.1595300321643218e-08 0.7071068213697475
  outer loop
    vertex 77.3022157099039 -254.8218623031431 3.0056196515731717
    vertex 78.40221565505625 -245.32186225163207 4.105619761838214
    vertex 77.3022154668243 -245.32186223545676 3.0056196956181154
  endloop
endfacet
facet normal -0.7071067410033451 -2.1595300321643218e-08 0.7071068213697475
  outer loop
    vertex 78.40221565505625 -245.32186225163207 4.105619761838214
    vertex 77.3022157099039 -254.8218623031431 3.0056196515731717
    vertex 78.40221590444827 -254.82186225161797 4.105619718087764
  endloop
endfacet
facet normal -0.9999999999999984 -2.3796606433050787e-08 5.113986086871461e-08
  outer loop
    vertex 78.90221589617246 -245.32186228728494 8.255619602701282
    vertex 78.90221611651427 -254.82186228118857 7.755619558612551
    vertex 78.90221614556438 -254.8218622872849 8.255619558612572
  endloop
endfacet
facet normal -0.9999999999999984 -2.3796606433050787e-08 5.113986086871461e-08
  outer loop
    vertex 78.90221611651427 -254.82186228118857 7.755619558612551
    vertex 78.90221589617246 -245.32186228728494 8.255619602701282
    vertex 78.90221586712264 -245.32186228118886 7.755619602701125
  endloop
endfacet
facet normal -0.894427163632453 -2.9384204970935223e-09 0.44721365023487947
  outer loop
    vertex 79.4022162044323 -227.0365811994911 9.255620231376621
    vertex 78.90221612792624 -236.53658118792967 8.255620076590377
    vertex 79.4022161860267 -236.53658119949102 9.25562004754012
  endloop
endfacet
facet normal -0.894427163632453 -2.9384204970935223e-09 0.44721365023487947
  outer loop
    vertex 78.90221612792624 -236.53658118792967 8.255620076590377
    vertex 79.4022162044323 -227.0365811994911 9.255620231376621
    vertex 78.90221614633239 -227.03658118793015 8.255620260426745
  endloop
endfacet
facet normal -0.8944271669007365 -2.317952383284493e-08 0.447213643698313
  outer loop
    vertex 79.4022162036647 -254.82186228454665 9.255619529562404
    vertex 78.90221589617246 -245.32186228728494 8.255619602701282
    vertex 78.90221614556438 -254.8218622872849 8.255619558612572
  endloop
endfacet
facet normal -0.8944271669007365 -2.317952383284493e-08 0.447213643698313
  outer loop
    vertex 78.90221589617246 -245.32186228728494 8.255619602701282
    vertex 79.4022162036647 -254.82186228454665 9.255619529562404
    vertex 79.40221595427302 -245.32186228454674 9.25561957365107
  endloop
endfacet
facet normal -0.8192319741397794 -1.8043193323929093e-08 -0.5734622677622647
  outer loop
    vertex 78.90221586712264 -245.32186228118886 7.755619602701125
    vertex 79.25221608746398 -254.8218622646419 7.2556195382775925
    vertex 78.90221611651427 -254.82186228118857 7.755619558612551
  endloop
endfacet
facet normal -0.8192319741397794 -1.8043193323929093e-08 -0.5734622677622647
  outer loop
    vertex 79.25221608746398 -254.8218622646419 7.2556195382775925
    vertex 78.90221586712264 -245.32186228118886 7.755619602701125
    vertex 79.25221583807243 -245.32186226464154 7.255619582366212
  endloop
endfacet
facet normal -0.7071067401034226 -1.1846820268957362e-08 0.7071068222696701
  outer loop
    vertex 78.40221588079342 -236.53658117140458 4.105620236021759
    vertex 77.30221534202852 -227.03658114156138 3.0056199842399707
    vertex 77.30221531731057 -236.53658113640017 3.005619800359747
  endloop
endfacet
facet normal -0.7071067401034226 -1.1846820268957362e-08 0.7071068222696701
  outer loop
    vertex 77.30221534202852 -227.03658114156138 3.0056199842399707
    vertex 78.40221588079342 -236.53658117140458 4.105620236021759
    vertex 78.40221590551113 -227.03658117141921 4.105620419901983
  endloop
endfacet
facet normal 7.828604685245952e-09 -4.619019453855486e-09 1.0
  outer loop
    vertex 77.3022157099039 -254.8218623031431 3.0056196515731717
    vertex 32.94192129658747 -250.32186222318492 3.0056201893984427
    vertex 32.94192129080429 -254.82186221802402 3.0056201395196878
  endloop
endfacet
facet normal 7.828604685245952e-09 -4.619019453855486e-09 1.0
  outer loop
    vertex 32.94192129658747 -250.32186222318492 3.0056201893984427
    vertex 77.3022157099039 -254.8218623031431 3.0056196515731717
    vertex 36.6992804415598 -250.32186222219727 3.005620189288532
  endloop
endfacet
facet normal 7.828604685245952e-09 -4.619019453855486e-09 1.0
  outer loop
    vertex 36.6992804415598 -250.32186222219727 3.005620189288532
    vertex 77.3022157099039 -254.8218623031431 3.0056196515731717
    vertex 73.5448559790153 -250.32186221228662 3.00562019029623
  endloop
endfacet
facet normal 7.828604685245952e-09 -4.619019453855486e-09 1.0
  outer loop
    vertex 73.5448559790153 -250.32186221228662 3.00562019029623
    vertex 77.3022157099039 -254.8218623031431 3.0056196515731717
    vertex 77.3022154668243 -245.32186223545676 3.0056196956181154
  endloop
endfacet
facet normal 7.828604685245952e-09 -4.619019453855486e-09 1.0
  outer loop
    vertex 73.5448559790153 -250.32186221228662 3.00562019029623
    vertex 77.3022154668243 -245.32186223545676 3.0056196956181154
    vertex 77.30221531731057 -236.53658113640017 3.005619800359747
  endloop
endfacet
facet normal 7.828604685245952e-09 -4.619019453855486e-09 1.0
  outer loop
    vertex 77.3022154668243 -245.32186223545676 3.0056196956181154
    vertex 78.54485640186815 -236.5365834454659 3.005619818917157
    vertex 77.30221531731057 -236.53658113640017 3.005619800359747
  endloop
endfacet
facet normal 7.828604685245952e-09 -4.619019453855486e-09 1.0
  outer loop
    vertex 78.54485640186815 -236.5365834454659 3.005619818917157
    vertex 77.3022154668243 -245.32186223545676 3.0056196956181154
    vertex 78.54485641374713 -245.32186222869592 3.0056194819321096
  endloop
endfacet
facet normal 7.828604685245952e-09 -4.619019453855486e-09 1.0
  outer loop
    vertex 32.941921070763115 -231.53658112412873 3.0056201946783676
    vertex 77.30221534202852 -227.03658114156138 3.0056199842399707
    vertex 32.941920922928716 -227.03658105644237 3.0056201456157785
  endloop
endfacet
facet normal 7.828604685245952e-09 -4.619019453855486e-09 1.0
  outer loop
    vertex 77.30221534202852 -227.03658114156138 3.0056199842399707
    vertex 32.941921070763115 -231.53658112412873 3.0056201946783676
    vertex 36.6992804415598 -231.53658072467925 3.005620194070924
  endloop
endfacet
facet normal 7.828604685245952e-09 -4.619019453855486e-09 1.0
  outer loop
    vertex 77.30221534202852 -227.03658114156138 3.0056199842399707
    vertex 36.6992804415598 -231.53658072467925 3.005620194070924
    vertex 73.54485595361487 -231.53658109889795 3.005620190166737
  endloop
endfacet
facet normal 7.828604685245952e-09 -4.619019453855486e-09 1.0
  outer loop
    vertex 77.30221534202852 -227.03658114156138 3.0056199842399707
    vertex 73.54485595361487 -231.53658109889795 3.005620190166737
    vertex 73.5448559790153 -250.32186221228662 3.00562019029623
  endloop
endfacet
facet normal 7.828604685245952e-09 -4.619019453855486e-09 1.0
  outer loop
    vertex 77.30221534202852 -227.03658114156138 3.0056199842399707
    vertex 73.5448559790153 -250.32186221228662 3.00562019029623
    vertex 77.30221531731057 -236.53658113640017 3.005619800359747
  endloop
endfacet
facet normal 1.613269467820151e-08 -0.9999999999999999 -1.2141512525125785e-08
  outer loop
    vertex 31.84192094641719 -231.53658112137887 5.755620194712394
    vertex 30.991920946417565 -231.53658114676037 5.7556201947049495
    vertex 31.841920946432104 -231.53658112136492 4.105620324799221
  endloop
endfacet
facet normal 1.613269467820151e-08 -0.9999999999999999 -1.2141512525125785e-08
  outer loop
    vertex 31.699280214968894 -231.53658070694564 3.005620194070879
    vertex 27.841920946457638 -231.53658117377742 3.8629796379374155
    vertex 31.699280385088763 -231.53658112132902 0.005620202406705487
  endloop
endfacet
facet normal 1.613269467820151e-08 -0.9999999999999999 -1.2141512525125785e-08
  outer loop
    vertex 27.841920946457638 -231.53658117377742 3.8629796379374155
    vertex 31.699280214968894 -231.53658070694564 3.005620194070879
    vertex 32.941921070763115 -231.53658112412873 3.0056201946783676
  endloop
endfacet
facet normal 1.613269467820151e-08 -0.9999999999999999 -1.2141512525125785e-08
  outer loop
    vertex 27.841920946457638 -231.53658117377742 3.8629796379374155
    vertex 32.941921070763115 -231.53658112412873 3.0056201946783676
    vertex 31.841920946432104 -231.53658112136492 4.105620324799221
  endloop
endfacet
facet normal 1.613269467820151e-08 -0.9999999999999999 -1.2141512525125785e-08
  outer loop
    vertex 27.841920946457638 -231.53658117377742 3.8629796379374155
    vertex 31.841920946432104 -231.53658112136492 4.105620324799221
    vertex 27.841920946406855 -231.53658116953858 7.755620194710089
  endloop
endfacet
facet normal 1.613269467820151e-08 -0.9999999999999999 -1.2141512525125785e-08
  outer loop
    vertex 27.841920946406855 -231.53658116953858 7.755620194710089
    vertex 31.841920946432104 -231.53658112136492 4.105620324799221
    vertex 30.991920946417565 -231.53658114676037 5.7556201947049495
  endloop
endfacet
facet normal 1.613269467820151e-08 -0.9999999999999999 -1.2141512525125785e-08
  outer loop
    vertex 27.841920946406855 -231.53658116953858 7.755620194710089
    vertex 30.991920946417565 -231.53658114676037 5.7556201947049495
    vertex 30.991920946404434 -231.53658114676074 7.25562019470506
  endloop
endfacet
facet normal 1.613269467820151e-08 -0.9999999999999999 -1.2141512525125785e-08
  outer loop
    vertex 27.841920946406855 -231.53658116953858 7.755620194710089
    vertex 30.991920946404434 -231.53658114676074 7.25562019470506
    vertex 31.341920946399934 -231.5365811363093 7.755620194707923
  endloop
endfacet
facet normal 1.613269467820151e-08 -0.9999999999999999 -1.2141512525125785e-08
  outer loop
    vertex 27.841920946406855 -231.53658116953858 7.755620194710089
    vertex 31.341920946399934 -231.5365811363093 7.755620194707923
    vertex 31.341920946395916 -231.5365811363093 8.255620194708081
  endloop
endfacet
facet normal 1.613269467820151e-08 -0.9999999999999999 -1.2141512525125785e-08
  outer loop
    vertex 27.841920946406855 -231.53658116953858 7.755620194710089
    vertex 31.341920946395916 -231.5365811363093 8.255620194708081
    vertex 29.341920946387212 -231.53658115123946 9.255620194690437
  endloop
endfacet
facet normal 1.613269467820151e-08 -0.9999999999999999 -1.2141512525125785e-08
  outer loop
    vertex 29.341920946387212 -231.53658115123946 9.255620194690437
    vertex 31.341920946395916 -231.5365811363093 8.255620194708081
    vertex 30.841920946387006 -231.53658115123946 9.255620194703521
  endloop
endfacet
facet normal -0.9999999999999997 -2.570448388534464e-08 6.5946737549605904e-09
  outer loop
    vertex 27.841920946406855 -231.53658116953858 7.755620194710089
    vertex 27.84192084362273 -228.53658123422966 3.8629795845707906
    vertex 27.841920946457638 -231.53658117377742 3.8629796379374155
  endloop
endfacet
facet normal -0.9999999999999997 -2.570448388534464e-08 6.5946737549605904e-09
  outer loop
    vertex 27.84192084362273 -228.53658123422966 3.8629795845707906
    vertex 27.841920946406855 -231.53658116953858 7.755620194710089
    vertex 27.841920895014837 -228.53658123422974 7.755620194710044
  endloop
endfacet
facet normal 9.554882509511676e-09 1.0 -1.5416912993213294e-08
  outer loop
    vertex 78.40221575092181 -245.3218622717346 5.755619631751386
    vertex 79.25221575092189 -245.32186224635356 5.755619582366102
    vertex 78.40221565505625 -245.32186225163207 4.105619761838214
  endloop
endfacet
facet normal 9.554882509511676e-09 1.0 -1.5416912993213294e-08
  outer loop
    vertex 78.54485641374713 -245.32186222869592 3.0056194819321096
    vertex 82.40221564093548 -245.32186219626124 3.862978842610041
    vertex 78.5448559782239 -245.32186220167978 0.005619631159507676
  endloop
endfacet
facet normal 9.554882509511676e-09 1.0 -1.5416912993213294e-08
  outer loop
    vertex 82.40221564093548 -245.32186219626124 3.862978842610041
    vertex 78.54485641374713 -245.32186222869592 3.0056194819321096
    vertex 77.3022154668243 -245.32186223545676 3.0056196956181154
  endloop
endfacet
facet normal 9.554882509511676e-09 1.0 -1.5416912993213294e-08
  outer loop
    vertex 82.40221564093548 -245.32186219626124 3.862978842610041
    vertex 77.3022154668243 -245.32186223545676 3.0056196956181154
    vertex 78.40221565505625 -245.32186225163207 4.105619761838214
  endloop
endfacet
facet normal 9.554882509511676e-09 1.0 -1.5416912993213294e-08
  outer loop
    vertex 82.40221564093548 -245.32186219626124 3.862978842610041
    vertex 78.40221565505625 -245.32186225163207 4.105619761838214
    vertex 82.40221586711573 -245.3218622763421 7.755619573657681
  endloop
endfacet
facet normal 9.554882509511676e-09 1.0 -1.5416912993213294e-08
  outer loop
    vertex 82.40221586711573 -245.3218622763421 7.755619573657681
    vertex 78.40221565505625 -245.32186225163207 4.105619761838214
    vertex 79.25221575092189 -245.32186224635356 5.755619582366102
  endloop
endfacet
facet normal 9.554882509511676e-09 1.0 -1.5416912993213294e-08
  outer loop
    vertex 82.40221586711573 -245.3218622763421 7.755619573657681
    vertex 79.25221575092189 -245.32186224635356 5.755619582366102
    vertex 79.25221583807243 -245.32186226464154 7.255619582366212
  endloop
endfacet
facet normal 9.554882509511676e-09 1.0 -1.5416912993213294e-08
  outer loop
    vertex 82.40221586711573 -245.3218622763421 7.755619573657681
    vertex 79.25221583807243 -245.32186226464154 7.255619582366212
    vertex 78.90221586712264 -245.32186228118886 7.755619602701125
  endloop
endfacet
facet normal 9.554882509511676e-09 1.0 -1.5416912993213294e-08
  outer loop
    vertex 82.40221586711573 -245.3218622763421 7.755619573657681
    vertex 78.90221586712264 -245.32186228118886 7.755619602701125
    vertex 80.90221595427283 -245.32186228454682 9.255619486500523
  endloop
endfacet
facet normal 9.554882509511676e-09 1.0 -1.5416912993213294e-08
  outer loop
    vertex 80.90221595427283 -245.32186228454682 9.255619486500523
    vertex 78.90221586712264 -245.32186228118886 7.755619602701125
    vertex 78.90221589617246 -245.32186228728494 8.255619602701282
  endloop
endfacet
facet normal 9.554882509511676e-09 1.0 -1.5416912993213294e-08
  outer loop
    vertex 80.90221595427283 -245.32186228454682 9.255619486500523
    vertex 78.90221589617246 -245.32186228728494 8.255619602701282
    vertex 79.40221595427302 -245.32186228454674 9.25561957365107
  endloop
endfacet
facet normal 3.528284319904613e-08 -1.7265401730185558e-08 0.9999999999999993
  outer loop
    vertex 80.90221618602678 -236.5365811975976 9.25561996038962
    vertex 79.4022162044323 -227.0365811994911 9.255620231376621
    vertex 79.4022161860267 -236.53658119949102 9.25562004754012
  endloop
endfacet
facet normal 3.528284319904613e-08 -1.7265401730185558e-08 0.9999999999999993
  outer loop
    vertex 79.4022162044323 -227.0365811994911 9.255620231376621
    vertex 80.90221618602678 -236.5365811975976 9.25561996038962
    vertex 80.9022162044323 -227.03658119759746 9.255620144226121
  endloop
endfacet
facet normal 0.7071067382008015 1.2807872110899989e-08 -0.7071068241722909
  outer loop
    vertex 78.54485622369884 -227.0365810918773 0.005620281189530374
    vertex 82.40221592138447 -236.53658111737076 3.862979363723017
    vertex 78.54485620366584 -236.5365810285327 0.005620105048558343
  endloop
endfacet
facet normal 0.7071067382008015 1.2807872110899989e-08 -0.7071068241722909
  outer loop
    vertex 82.40221592138447 -236.53658111737076 3.862979363723017
    vertex 78.54485622369884 -227.0365810918773 0.005620281189530374
    vertex 82.40221620152637 -228.53658119469145 3.8629798045051653
  endloop
endfacet
facet normal -0.819283439069224 1.3881051849631778e-08 -0.5733887393966725
  outer loop
    vertex 78.90221611728207 -227.03658118559363 7.755620260426904
    vertex 79.25221610027887 -236.5365811752949 7.255524465240341
    vertex 78.90221609887617 -236.53658118183378 7.7556200765901755
  endloop
endfacet
facet normal -0.819283439069224 1.3881051849631778e-08 -0.5733887393966725
  outer loop
    vertex 79.25221610027887 -236.5365811752949 7.255524465240341
    vertex 78.90221611728207 -227.03658118559363 7.755620260426904
    vertex 79.25221611868527 -227.03658117905388 7.255524649076978
  endloop
endfacet
facet normal 2.1919900990858229e-10 -1.1169851064475305e-08 1.0
  outer loop
    vertex 29.34192079147292 -254.82186223818874 9.255620508635547
    vertex 30.841920790943846 -250.3218622362953 9.255620558571106
    vertex 29.341920787737365 -250.32186223818877 9.255620559241763
  endloop
endfacet
facet normal 2.1919900990858229e-10 -1.1169851064475305e-08 1.0
  outer loop
    vertex 30.841920790943846 -250.3218622362953 9.255620558571106
    vertex 29.34192079147292 -254.82186223818874 9.255620508635547
    vertex 30.841920791473186 -254.8218622362952 9.255620508648585
  endloop
endfacet
facet normal -8.73003459632974e-12 1.0912501865323038e-08 1.0
  outer loop
    vertex 29.341920946387212 -231.53658115123946 9.255620194690437
    vertex 30.841920792240465 -227.03658115123972 9.255620145597257
    vertex 29.341920792240334 -227.03658119603048 9.255620145584126
  endloop
endfacet
facet normal -8.73003459632974e-12 1.0912501865323038e-08 1.0
  outer loop
    vertex 30.841920792240465 -227.03658115123972 9.255620145597257
    vertex 29.341920946387212 -231.53658115123946 9.255620194690437
    vertex 30.841920946387006 -231.53658115123946 9.255620194703521
  endloop
endfacet
facet normal -0.7071067837205817 -1.5154045576406485e-08 0.7071067786525134
  outer loop
    vertex 29.341920946387212 -231.53658115123946 9.255620194690437
    vertex 27.841920895014837 -228.53658123422974 7.755620194710044
    vertex 27.841920946406855 -231.53658116953858 7.755620194710089
  endloop
endfacet
facet normal -0.7071067837205817 -1.5154045576406485e-08 0.7071067786525134
  outer loop
    vertex 27.841920895014837 -228.53658123422974 7.755620194710044
    vertex 29.341920946387212 -231.53658115123946 9.255620194690437
    vertex 29.341920792240334 -227.03658119603048 9.255620145584126
  endloop
endfacet
facet normal 2.964566253253348e-07 -0.9999999999999549 -4.982308264951208e-08
  outer loop
    vertex 82.40221592138447 -236.53658111737076 3.862979363723017
    vertex 78.54485640186815 -236.5365834454659 3.005619818917157
    vertex 78.54485620366584 -236.5365810285327 0.005620105048558343
  endloop
endfacet
facet normal 2.964566253253348e-07 -0.9999999999999549 -4.982308264951208e-08
  outer loop
    vertex 78.54485640186815 -236.5365834454659 3.005619818917157
    vertex 78.40221588079342 -236.53658117140458 4.105620236021759
    vertex 77.30221531731057 -236.53658113640017 3.005619800359747
  endloop
endfacet
facet normal 2.964566253253348e-07 -0.9999999999999549 -4.982308264951208e-08
  outer loop
    vertex 78.40221588079342 -236.53658117140458 4.105620236021759
    vertex 78.54485640186815 -236.5365834454659 3.005619818917157
    vertex 82.40221592138447 -236.53658111737076 3.862979363723017
  endloop
endfacet
facet normal 2.964566253253348e-07 -0.9999999999999549 -4.982308264951208e-08
  outer loop
    vertex 78.40221588079342 -236.53658117140458 4.105620236021759
    vertex 82.40221592138447 -236.53658111737076 3.862979363723017
    vertex 82.40221611241459 -236.53658098145888 7.755620034001733
  endloop
endfacet
facet normal 2.964566253253348e-07 -0.9999999999999549 -4.982308264951208e-08
  outer loop
    vertex 78.40221588079342 -236.53658117140458 4.105620236021759
    vertex 82.40221611241459 -236.53658098145888 7.755620034001733
    vertex 79.25221601312849 -236.53658115700676 5.75552446524032
  endloop
endfacet
facet normal 2.964566253253348e-07 -0.9999999999999549 -4.982308264951208e-08
  outer loop
    vertex 79.25221601312849 -236.53658115700676 5.75552446524032
    vertex 82.40221611241459 -236.53658098145888 7.755620034001733
    vertex 79.25221610027887 -236.5365811752949 7.255524465240341
  endloop
endfacet
facet normal 2.964566253253348e-07 -0.9999999999999549 -4.982308264951208e-08
  outer loop
    vertex 79.25221610027887 -236.5365811752949 7.255524465240341
    vertex 82.40221611241459 -236.53658098145888 7.755620034001733
    vertex 78.90221609887617 -236.53658118183378 7.7556200765901755
  endloop
endfacet
facet normal 2.964566253253348e-07 -0.9999999999999549 -4.982308264951208e-08
  outer loop
    vertex 78.90221609887617 -236.53658118183378 7.7556200765901755
    vertex 82.40221611241459 -236.53658098145888 7.755620034001733
    vertex 80.90221618602678 -236.5365811975976 9.25561996038962
  endloop
endfacet
facet normal 2.964566253253348e-07 -0.9999999999999549 -4.982308264951208e-08
  outer loop
    vertex 78.90221609887617 -236.53658118183378 7.7556200765901755
    vertex 80.90221618602678 -236.5365811975976 9.25561996038962
    vertex 78.90221612792624 -236.53658118792967 8.255620076590377
  endloop
endfacet
facet normal 2.964566253253348e-07 -0.9999999999999549 -4.982308264951208e-08
  outer loop
    vertex 78.90221612792624 -236.53658118792967 8.255620076590377
    vertex 80.90221618602678 -236.5365811975976 9.25561996038962
    vertex 79.4022161860267 -236.53658119949102 9.25562004754012
  endloop
endfacet
facet normal 2.964566253253348e-07 -0.9999999999999549 -4.982308264951208e-08
  outer loop
    vertex 78.40221598267568 -236.53658115808065 5.755620105640391
    vertex 78.40221588079342 -236.53658117140458 4.105620236021759
    vertex 79.25221601312849 -236.53658115700676 5.75552446524032
  endloop
endfacet
facet normal 0.9999999999999997 -2.029361752850664e-08 -1.8814270376813485e-08
  outer loop
    vertex 82.40221620152637 -228.53658119469145 3.8629798045051653
    vertex 82.40221611241459 -236.53658098145888 7.755620034001733
    vertex 82.40221592138447 -236.53658111737076 3.862979363723017
  endloop
endfacet
facet normal 0.9999999999999997 -2.029361752850664e-08 -1.8814270376813485e-08
  outer loop
    vertex 82.40221611241459 -236.53658098145888 7.755620034001733
    vertex 82.40221620152637 -228.53658119469145 3.8629798045051653
    vertex 82.40221615697044 -228.53658119469154 7.755620034001643
  endloop
endfacet
facet normal 0.7071067971596589 -1.0441558965873701e-08 0.707106765213436
  outer loop
    vertex 82.40221611241459 -236.53658098145888 7.755620034001733
    vertex 80.9022162044323 -227.03658119759746 9.255620144226121
    vertex 80.90221618602678 -236.5365811975976 9.25561996038962
  endloop
endfacet
facet normal 0.7071067971596589 -1.0441558965873701e-08 0.707106765213436
  outer loop
    vertex 80.9022162044323 -227.03658119759746 9.255620144226121
    vertex 82.40221611241459 -236.53658098145888 7.755620034001733
    vertex 82.40221615697044 -228.53658119469154 7.755620034001643
  endloop
endfacet
facet normal 5.022997273245547e-08 -4.183076002833479e-09 0.9999999999999989
  outer loop
    vertex 79.4022162036647 -254.82186228454665 9.255619529562404
    vertex 80.90221595427283 -245.32186228454682 9.255619486500523
    vertex 79.40221595427302 -245.32186228454674 9.25561957365107
  endloop
endfacet
facet normal 5.022997273245547e-08 -4.183076002833479e-09 0.9999999999999989
  outer loop
    vertex 80.90221595427283 -245.32186228454682 9.255619486500523
    vertex 79.4022162036647 -254.82186228454665 9.255619529562404
    vertex 80.9022162036645 -254.821862239756 9.255619442411904
  endloop
endfacet
facet normal 0.7071067871306427 0.7071067752424524 2.7725895059511886e-09
  outer loop
    vertex 82.40221620152637 -228.53658119469145 3.8629798045051653
    vertex 80.9022162044323 -227.03658119759746 9.255620144226121
    vertex 82.40221615697044 -228.53658119469154 7.755620034001643
  endloop
endfacet
facet normal 0.7071067871306427 0.7071067752424524 2.7725895059511886e-09
  outer loop
    vertex 80.9022162044323 -227.03658119759746 9.255620144226121
    vertex 82.40221620152637 -228.53658119469145 3.8629798045051653
    vertex 80.9022162044324 -227.03658119759763 3.8629798045051653
  endloop
endfacet
facet normal 0.6490929354164576 0.6490929354165026 -0.3966821427602135
  outer loop
    vertex 82.40221620152637 -228.53658119469145 3.8629798045051653
    vertex 78.54485622369884 -227.0365810918773 0.005620281189530374
    vertex 80.9022162044324 -227.03658119759763 3.8629798045051653
  endloop
endfacet
facet normal 0.6490929304028711 -0.6490929304029732 -0.3966821591676321
  outer loop
    vertex 82.40221616523496 -253.3218622781859 3.862979138768922
    vertex 80.90221620366461 -254.82186223975597 3.8629791387688766
    vertex 78.54485622293073 -254.8218622077155 0.005619579375267491
  endloop
endfacet
facet normal -0.7071068091572484 0.7071067532158456 3.198008466842423e-09
  outer loop
    vertex 29.341920792240334 -227.03658119603048 9.255620145584126
    vertex 27.84192084362273 -228.53658123422966 3.8629795845707906
    vertex 27.841920895014837 -228.53658123422974 7.755620194710044
  endloop
endfacet
facet normal -0.7071068091572484 0.7071067532158456 3.198008466842423e-09
  outer loop
    vertex 27.84192084362273 -228.53658123422966 3.8629795845707906
    vertex 29.341920792240334 -227.03658119603048 9.255620145584126
    vertex 29.3419207922404 -227.03658119603037 3.8629795845707906
  endloop
endfacet
facet normal 6.199833492711751e-10 1.0 8.216835055337889e-09
  outer loop
    vertex 31.699280235626954 -227.03658111529322 0.005620145604865101
    vertex 32.941920922928716 -227.03658105644237 3.0056201456157785
    vertex 78.54485622369884 -227.0365810918773 0.005620281189530374
  endloop
endfacet
facet normal 6.199833492711751e-10 1.0 8.216835055337889e-09
  outer loop
    vertex 32.941920922928716 -227.03658105644237 3.0056201456157785
    vertex 31.699280235626954 -227.03658111529322 0.005620145604865101
    vertex 29.3419207922404 -227.03658119603037 3.8629795845707906
  endloop
endfacet
facet normal 6.199833492711751e-10 1.0 8.216835055337889e-09
  outer loop
    vertex 78.54485622369884 -227.0365810918773 0.005620281189530374
    vertex 32.941920922928716 -227.03658105644237 3.0056201456157785
    vertex 77.30221534202852 -227.03658114156138 3.0056199842399707
  endloop
endfacet
facet normal 6.199833492711751e-10 1.0 8.216835055337889e-09
  outer loop
    vertex 32.941920922928716 -227.03658105644237 3.0056201456157785
    vertex 29.3419207922404 -227.03658119603037 3.8629795845707906
    vertex 31.841920792285134 -227.03658112137876 4.105620276031172
  endloop
endfacet
facet normal 6.199833492711751e-10 1.0 8.216835055337889e-09
  outer loop
    vertex 31.841920792285134 -227.03658112137876 4.105620276031172
    vertex 29.3419207922404 -227.03658119603037 3.8629795845707906
    vertex 30.991920792270953 -227.0365811467603 5.75562014559873
  endloop
endfacet
facet normal 6.199833492711751e-10 1.0 8.216835055337889e-09
  outer loop
    vertex 30.991920792270953 -227.0365811467603 5.75562014559873
    vertex 29.3419207922404 -227.03658119603037 3.8629795845707906
    vertex 29.341920792240334 -227.03658119603048 9.255620145584126
  endloop
endfacet
facet normal 6.199833492711751e-10 1.0 8.216835055337889e-09
  outer loop
    vertex 30.991920792270953 -227.0365811467603 5.75562014559873
    vertex 29.341920792240334 -227.03658119603048 9.255620145584126
    vertex 30.99192079225769 -227.03658114676026 7.2556201455987495
  endloop
endfacet
facet normal 6.199833492711751e-10 1.0 8.216835055337889e-09
  outer loop
    vertex 30.99192079225769 -227.03658114676026 7.2556201455987495
    vertex 29.341920792240334 -227.03658119603048 9.255620145584126
    vertex 31.341920792253436 -227.03658113630942 7.7556201456017035
  endloop
endfacet
facet normal 6.199833492711751e-10 1.0 8.216835055337889e-09
  outer loop
    vertex 31.341920792253436 -227.03658113630942 7.7556201456017035
    vertex 29.341920792240334 -227.03658119603048 9.255620145584126
    vertex 31.34192079224906 -227.03658113630897 8.255620145601636
  endloop
endfacet
facet normal 6.199833492711751e-10 1.0 8.216835055337889e-09
  outer loop
    vertex 31.34192079224906 -227.03658113630897 8.255620145601636
    vertex 29.341920792240334 -227.03658119603048 9.255620145584126
    vertex 30.841920792240465 -227.03658115123972 9.255620145597257
  endloop
endfacet
facet normal 6.199833492711751e-10 1.0 8.216835055337889e-09
  outer loop
    vertex 31.841920792271033 -227.03658112137904 5.755620145606175
    vertex 31.841920792285134 -227.03658112137876 4.105620276031172
    vertex 30.991920792270953 -227.0365811467603 5.75562014559873
  endloop
endfacet
facet normal 6.199833492711751e-10 1.0 8.216835055337889e-09
  outer loop
    vertex 78.40221600108106 -227.03658116184045 5.755620289477029
    vertex 79.25221603153463 -227.03658116076608 5.755524649077004
    vertex 78.40221590551113 -227.03658117141921 4.105620419901983
  endloop
endfacet
facet normal 6.199833492711751e-10 1.0 8.216835055337889e-09
  outer loop
    vertex 77.30221534202852 -227.03658114156138 3.0056199842399707
    vertex 80.9022162044324 -227.03658119759763 3.8629798045051653
    vertex 78.54485622369884 -227.0365810918773 0.005620281189530374
  endloop
endfacet
facet normal 6.199833492711751e-10 1.0 8.216835055337889e-09
  outer loop
    vertex 80.9022162044324 -227.03658119759763 3.8629798045051653
    vertex 77.30221534202852 -227.03658114156138 3.0056199842399707
    vertex 78.40221590551113 -227.03658117141921 4.105620419901983
  endloop
endfacet
facet normal 6.199833492711751e-10 1.0 8.216835055337889e-09
  outer loop
    vertex 80.9022162044324 -227.03658119759763 3.8629798045051653
    vertex 78.40221590551113 -227.03658117141921 4.105620419901983
    vertex 79.25221603153463 -227.03658116076608 5.755524649077004
  endloop
endfacet
facet normal 6.199833492711751e-10 1.0 8.216835055337889e-09
  outer loop
    vertex 80.9022162044324 -227.03658119759763 3.8629798045051653
    vertex 79.25221603153463 -227.03658116076608 5.755524649077004
    vertex 80.9022162044323 -227.03658119759746 9.255620144226121
  endloop
endfacet
facet normal 6.199833492711751e-10 1.0 8.216835055337889e-09
  outer loop
    vertex 80.9022162044323 -227.03658119759746 9.255620144226121
    vertex 79.25221603153463 -227.03658116076608 5.755524649077004
    vertex 79.25221611868527 -227.03658117905388 7.255524649076978
  endloop
endfacet
facet normal 6.199833492711751e-10 1.0 8.216835055337889e-09
  outer loop
    vertex 80.9022162044323 -227.03658119759746 9.255620144226121
    vertex 79.25221611868527 -227.03658117905388 7.255524649076978
    vertex 78.90221611728207 -227.03658118559363 7.755620260426904
  endloop
endfacet
facet normal 6.199833492711751e-10 1.0 8.216835055337889e-09
  outer loop
    vertex 80.9022162044323 -227.03658119759746 9.255620144226121
    vertex 78.90221611728207 -227.03658118559363 7.755620260426904
    vertex 78.90221614633239 -227.03658118793015 8.255620260426745
  endloop
endfacet
facet normal 6.199833492711751e-10 1.0 8.216835055337889e-09
  outer loop
    vertex 80.9022162044323 -227.03658119759746 9.255620144226121
    vertex 78.90221614633239 -227.03658118793015 8.255620260426745
    vertex 79.4022162044323 -227.0365811994911 9.255620231376621
  endloop
endfacet
facet normal -0.7071067799139329 -3.37668469766218e-08 -0.7071067824591615
  outer loop
    vertex 31.699280235626954 -227.03658111529322 0.005620145604865101
    vertex 27.841920946457638 -231.53658117377742 3.8629796379374155
    vertex 27.84192084362273 -228.53658123422966 3.8629795845707906
  endloop
endfacet
facet normal -0.7071067799139329 -3.37668469766218e-08 -0.7071067824591615
  outer loop
    vertex 27.841920946457638 -231.53658117377742 3.8629796379374155
    vertex 31.699280235626954 -227.03658111529322 0.005620145604865101
    vertex 31.699280385088763 -231.53658112132902 0.005620202406705487
  endloop
endfacet
facet normal -0.6490929717148977 0.6490929329503596 -0.39668208740025435
  outer loop
    vertex 31.699280235626954 -227.03658111529322 0.005620145604865101
    vertex 27.84192084362273 -228.53658123422966 3.8629795845707906
    vertex 29.3419207922404 -227.03658119603037 3.8629795845707906
  endloop
endfacet
facet normal -1.545739228682665e-08 -0.9999999999999978 -6.683132240576081e-08
  outer loop
    vertex 73.54485602853818 -231.53658109372185 0.005620204388758409
    vertex 36.6992804415598 -231.53658072467925 3.005620194070924
    vertex 36.69928054552915 -231.53658032886744 0.005619549327825268
  endloop
endfacet
facet normal -1.545739228682665e-08 -0.9999999999999978 -6.683132240576081e-08
  outer loop
    vertex 36.6992804415598 -231.53658072467925 3.005620194070924
    vertex 73.54485602853818 -231.53658109372185 0.005620204388758409
    vertex 73.54485595361487 -231.53658109889795 3.005620190166737
  endloop
endfacet
facet normal -6.110016384274664e-09 1.0 -2.816869330825545e-09
  outer loop
    vertex 27.84192074231909 -250.32186225266784 3.862980049028881
    vertex 31.699280275545338 -250.3218622044636 3.0056205224199255
    vertex 31.699280235957566 -250.3218622944762 0.005620566274244964
  endloop
endfacet
facet normal -6.110016384274664e-09 1.0 -2.816869330825545e-09
  outer loop
    vertex 31.699280275545338 -250.3218622044636 3.0056205224199255
    vertex 31.841920797005464 -250.32186220159227 4.105620688961256
    vertex 32.94192129658747 -250.32186222318492 3.0056201893984427
  endloop
endfacet
facet normal -6.110016384274664e-09 1.0 -2.816869330825545e-09
  outer loop
    vertex 31.841920797005464 -250.32186220159227 4.105620688961256
    vertex 31.699280275545338 -250.3218622044636 3.0056205224199255
    vertex 27.84192074231909 -250.32186225266784 3.862980049028881
  endloop
endfacet
facet normal -6.110016384274664e-09 1.0 -2.816869330825545e-09
  outer loop
    vertex 31.841920797005464 -250.32186220159227 4.105620688961256
    vertex 27.84192074231909 -250.32186225266784 3.862980049028881
    vertex 27.84192077741858 -250.32186224681698 7.755620545032721
  endloop
endfacet
facet normal -6.110016384274664e-09 1.0 -2.816869330825545e-09
  outer loop
    vertex 31.841920797005464 -250.32186220159227 4.105620688961256
    vertex 27.84192077741858 -250.32186224681698 7.755620545032721
    vertex 30.991920760515786 -250.32186223610597 5.755524967557702
  endloop
endfacet
facet normal -6.110016384274664e-09 1.0 -2.816869330825545e-09
  outer loop
    vertex 30.991920760515786 -250.32186223610597 5.755524967557702
    vertex 27.84192077741858 -250.32186224681698 7.755620545032721
    vertex 30.991920760502882 -250.3218622361062 7.255524967557676
  endloop
endfacet
facet normal -6.110016384274664e-09 1.0 -2.816869330825545e-09
  outer loop
    vertex 30.991920760502882 -250.3218622361062 7.255524967557676
    vertex 27.84192077741858 -250.32186224681698 7.755620545032721
    vertex 31.34192079095702 -250.32186223566453 7.755620558575463
  endloop
endfacet
facet normal -6.110016384274664e-09 1.0 -2.816869330825545e-09
  outer loop
    vertex 31.34192079095702 -250.32186223566453 7.755620558575463
    vertex 27.84192077741858 -250.32186224681698 7.755620545032721
    vertex 29.341920787737365 -250.32186223818877 9.255620559241763
  endloop
endfacet
facet normal -6.110016384274664e-09 1.0 -2.816869330825545e-09
  outer loop
    vertex 31.34192079095702 -250.32186223566453 7.755620558575463
    vertex 29.341920787737365 -250.32186223818877 9.255620559241763
    vertex 31.341920790952663 -250.3218622356646 8.255620558575576
  endloop
endfacet
facet normal -6.110016384274664e-09 1.0 -2.816869330825545e-09
  outer loop
    vertex 31.341920790952663 -250.3218622356646 8.255620558575576
    vertex 29.341920787737365 -250.32186223818877 9.255620559241763
    vertex 30.841920790943846 -250.3218622362953 9.255620558571106
  endloop
endfacet
facet normal -6.110016384274664e-09 1.0 -2.816869330825545e-09
  outer loop
    vertex 31.841920790974253 -250.3218622350331 5.7556205585798885
    vertex 31.841920797005464 -250.32186220159227 4.105620688961256
    vertex 30.991920760515786 -250.32186223610597 5.755524967557702
  endloop
endfacet
facet normal 4.16082680348591e-09 -0.42565427577155857 0.904885869884921
  outer loop
    vertex 36.69928042586078 -232.6115260647726 2.4999707645837925
    vertex 31.699280214968894 -231.53658070694564 3.005620194070879
    vertex 31.699280199269804 -232.61152604703892 2.4999707645837472
  endloop
endfacet
facet normal 4.16082680348591e-09 -0.42565427577155857 0.904885869884921
  outer loop
    vertex 31.699280214968894 -231.53658070694564 3.005620194070879
    vertex 36.69928042586078 -232.6115260647726 2.4999707645837925
    vertex 32.941921070763115 -231.53658112412873 3.0056201946783676
  endloop
endfacet
facet normal 4.16082680348591e-09 -0.42565427577155857 0.904885869884921
  outer loop
    vertex 32.941921070763115 -231.53658112412873 3.0056201946783676
    vertex 36.69928042586078 -232.6115260647726 2.4999707645837925
    vertex 36.6992804415598 -231.53658072467925 3.005620194070924
  endloop
endfacet
facet normal 5.2878413862861354e-08 0.4796375861368659 0.8774666865270713
  outer loop
    vertex 31.699280275545338 -250.3218622044636 3.0056205224199255
    vertex 36.699280366327855 -249.39680872022024 2.4999707920262626
    vertex 31.69928020031337 -249.39680870248665 2.4999711251577015
  endloop
endfacet
facet normal 5.2878413862861354e-08 0.4796375861368659 0.8774666865270713
  outer loop
    vertex 36.699280366327855 -249.39680872022024 2.4999707920262626
    vertex 31.699280275545338 -250.3218622044636 3.0056205224199255
    vertex 32.94192129658747 -250.32186222318492 3.0056201893984427
  endloop
endfacet
facet normal 5.2878413862861354e-08 0.4796375861368659 0.8774666865270713
  outer loop
    vertex 36.699280366327855 -249.39680872022024 2.4999707920262626
    vertex 32.94192129658747 -250.32186222318492 3.0056201893984427
    vertex 36.6992804415598 -250.32186222219727 3.005620189288532
  endloop
endfacet
facet normal -1.0681267798378065e-08 0.9999999999999919 -1.2788233343270236e-07
  outer loop
    vertex 36.6992804415598 -250.32186222219727 3.005620189288532
    vertex 73.54485603471771 -250.32186221228685 0.005620199108833645
    vertex 36.69928045968158 -250.3218629894912 0.005619574630685164
  endloop
endfacet
facet normal -1.0681267798378065e-08 0.9999999999999919 -1.2788233343270236e-07
  outer loop
    vertex 73.54485603471771 -250.32186221228685 0.005620199108833645
    vertex 36.6992804415598 -250.32186222219727 3.005620189288532
    vertex 73.5448559790153 -250.32186221228662 3.00562019029623
  endloop
endfacet
facet normal 0.9999999999999949 -7.996971848310387e-09 -1.0177919711233232e-07
  outer loop
    vertex 78.5448559782239 -245.32186220167978 0.005619631159507676
    vertex 78.54485640186815 -236.5365834454659 3.005619818917157
    vertex 78.54485641374713 -245.32186222869592 3.0056194819321096
  endloop
endfacet
facet normal 0.9999999999999949 -7.996971848310387e-09 -1.0177919711233232e-07
  outer loop
    vertex 78.54485640186815 -236.5365834454659 3.005619818917157
    vertex 78.5448559782239 -245.32186220167978 0.005619631159507676
    vertex 78.54485620366584 -236.5365810285327 0.005620105048558343
  endloop
endfacet
facet normal -0.9999999999999998 -9.281547115847074e-10 -2.433212653753547e-08
  outer loop
    vertex 73.5448559790153 -250.32186221228662 3.00562019029623
    vertex 73.54485602853818 -231.53658109372185 0.005620204388758409
    vertex 73.54485603471771 -250.32186221228685 0.005620199108833645
  endloop
endfacet
facet normal -0.9999999999999998 -9.281547115847074e-10 -2.433212653753547e-08
  outer loop
    vertex 73.54485602853818 -231.53658109372185 0.005620204388758409
    vertex 73.5448559790153 -250.32186221228662 3.00562019029623
    vertex 73.54485595361487 -231.53658109889795 3.005620190166737
  endloop
endfacet
facet normal -0.6490929520164005 -0.6490929520164279 -0.3966820884351019
  outer loop
    vertex 27.841920791296403 -253.3218622380124 3.862979964155695
    vertex 31.69928023485927 -254.82186223113123 0.005620508656238598
    vertex 29.341920791472894 -254.82186223818888 3.862979964155695
  endloop
endfacet
facet normal -6.480350015556029e-10 -1.0 -2.9547159095934904e-09
  outer loop
    vertex 78.54485622293073 -254.8218622077155 0.005619579375267491
    vertex 77.3022157099039 -254.8218623031431 3.0056196515731717
    vertex 31.69928023485927 -254.82186223113123 0.005620508656238598
  endloop
endfacet
facet normal -6.480350015556029e-10 -1.0 -2.9547159095934904e-09
  outer loop
    vertex 77.3022157099039 -254.8218623031431 3.0056196515731717
    vertex 78.54485622293073 -254.8218622077155 0.005619579375267491
    vertex 80.90221620366461 -254.82186223975597 3.8629791387688766
  endloop
endfacet
facet normal -6.480350015556029e-10 -1.0 -2.9547159095934904e-09
  outer loop
    vertex 77.3022157099039 -254.8218623031431 3.0056196515731717
    vertex 80.90221620366461 -254.82186223975597 3.8629791387688766
    vertex 78.40221590444827 -254.82186225161797 4.105619718087764
  endloop
endfacet
facet normal -6.480350015556029e-10 -1.0 -2.9547159095934904e-09
  outer loop
    vertex 78.40221590444827 -254.82186225161797 4.105619718087764
    vertex 80.90221620366461 -254.82186223975597 3.8629791387688766
    vertex 79.25221600031368 -254.82186224635328 5.755619538277528
  endloop
endfacet
facet normal -6.480350015556029e-10 -1.0 -2.9547159095934904e-09
  outer loop
    vertex 79.25221600031368 -254.82186224635328 5.755619538277528
    vertex 80.90221620366461 -254.82186223975597 3.8629791387688766
    vertex 80.9022162036645 -254.821862239756 9.255619442411904
  endloop
endfacet
facet normal -6.480350015556029e-10 -1.0 -2.9547159095934904e-09
  outer loop
    vertex 79.25221600031368 -254.82186224635328 5.755619538277528
    vertex 80.9022162036645 -254.821862239756 9.255619442411904
    vertex 79.25221608746398 -254.8218622646419 7.2556195382775925
  endloop
endfacet
facet normal -6.480350015556029e-10 -1.0 -2.9547159095934904e-09
  outer loop
    vertex 79.25221608746398 -254.8218622646419 7.2556195382775925
    vertex 80.9022162036645 -254.821862239756 9.255619442411904
    vertex 78.90221611651427 -254.82186228118857 7.755619558612551
  endloop
endfacet
facet normal -6.480350015556029e-10 -1.0 -2.9547159095934904e-09
  outer loop
    vertex 78.90221611651427 -254.82186228118857 7.755619558612551
    vertex 80.9022162036645 -254.821862239756 9.255619442411904
    vertex 78.90221614556438 -254.8218622872849 8.255619558612572
  endloop
endfacet
facet normal -6.480350015556029e-10 -1.0 -2.9547159095934904e-09
  outer loop
    vertex 78.90221614556438 -254.8218622872849 8.255619558612572
    vertex 80.9022162036645 -254.821862239756 9.255619442411904
    vertex 79.4022162036647 -254.82186228454665 9.255619529562404
  endloop
endfacet
facet normal -6.480350015556029e-10 -1.0 -2.9547159095934904e-09
  outer loop
    vertex 78.40221600031344 -254.8218622717348 5.755619587662766
    vertex 78.40221590444827 -254.82186225161797 4.105619718087764
    vertex 79.25221600031368 -254.82186224635328 5.755619538277528
  endloop
endfacet
facet normal -6.480350015556029e-10 -1.0 -2.9547159095934904e-09
  outer loop
    vertex 31.8419207915038 -254.82186223127368 5.755620508657593
    vertex 30.99192076104454 -254.82186223234666 5.755524917635361
    vertex 31.841920791222275 -254.82186220157746 4.105620639082501
  endloop
endfacet
facet normal -6.480350015556029e-10 -1.0 -2.9547159095934904e-09
  outer loop
    vertex 31.69928023485927 -254.82186223113123 0.005620508656238598
    vertex 32.94192129080429 -254.82186221802402 3.0056201395196878
    vertex 29.341920791472894 -254.82186223818888 3.862979964155695
  endloop
endfacet
facet normal -6.480350015556029e-10 -1.0 -2.9547159095934904e-09
  outer loop
    vertex 32.94192129080429 -254.82186221802402 3.0056201395196878
    vertex 31.69928023485927 -254.82186223113123 0.005620508656238598
    vertex 77.3022157099039 -254.8218623031431 3.0056196515731717
  endloop
endfacet
facet normal -6.480350015556029e-10 -1.0 -2.9547159095934904e-09
  outer loop
    vertex 29.341920791472894 -254.82186223818888 3.862979964155695
    vertex 32.94192129080429 -254.82186221802402 3.0056201395196878
    vertex 31.841920791222275 -254.82186220157746 4.105620639082501
  endloop
endfacet
facet normal -6.480350015556029e-10 -1.0 -2.9547159095934904e-09
  outer loop
    vertex 29.341920791472894 -254.82186223818888 3.862979964155695
    vertex 31.841920791222275 -254.82186220157746 4.105620639082501
    vertex 30.99192076104454 -254.82186223234666 5.755524917635361
  endloop
endfacet
facet normal -6.480350015556029e-10 -1.0 -2.9547159095934904e-09
  outer loop
    vertex 29.341920791472894 -254.82186223818888 3.862979964155695
    vertex 30.99192076104454 -254.82186223234666 5.755524917635361
    vertex 29.34192079147292 -254.82186223818874 9.255620508635547
  endloop
endfacet
facet normal -6.480350015556029e-10 -1.0 -2.9547159095934904e-09
  outer loop
    vertex 29.34192079147292 -254.82186223818874 9.255620508635547
    vertex 30.99192076104454 -254.82186223234666 5.755524917635361
    vertex 30.991920761031345 -254.82186223234666 7.255524917635381
  endloop
endfacet
facet normal -6.480350015556029e-10 -1.0 -2.9547159095934904e-09
  outer loop
    vertex 29.34192079147292 -254.82186223818874 9.255620508635547
    vertex 30.991920761031345 -254.82186223234666 7.255524917635381
    vertex 31.341920791486 -254.82186223190476 7.755620508653123
  endloop
endfacet
facet normal -6.480350015556029e-10 -1.0 -2.9547159095934904e-09
  outer loop
    vertex 29.34192079147292 -254.82186223818874 9.255620508635547
    vertex 31.341920791486 -254.82186223190476 7.755620508653123
    vertex 31.341920791481535 -254.8218622356642 8.255620508653099
  endloop
endfacet
facet normal -6.480350015556029e-10 -1.0 -2.9547159095934904e-09
  outer loop
    vertex 29.34192079147292 -254.82186223818874 9.255620508635547
    vertex 31.341920791481535 -254.8218622356642 8.255620508653099
    vertex 30.841920791473186 -254.8218622362952 9.255620508648585
  endloop
endfacet
facet normal 0.9999999999999992 4.208494180384994e-08 -9.905953352704625e-09
  outer loop
    vertex 82.40221616523496 -253.3218622781859 3.862979138768922
    vertex 82.40221586711573 -245.3218622763421 7.755619573657681
    vertex 82.40221601617523 -253.32186227818596 7.755619573657681
  endloop
endfacet
facet normal 0.9999999999999992 4.208494180384994e-08 -9.905953352704625e-09
  outer loop
    vertex 82.40221586711573 -245.3218622763421 7.755619573657681
    vertex 82.40221616523496 -253.3218622781859 3.862979138768922
    vertex 82.40221564093548 -245.32186219626124 3.862978842610041
  endloop
endfacet
facet normal 0.7071067842130678 1.4407359173039656e-08 0.7071067781600272
  outer loop
    vertex 82.40221601617523 -253.32186227818596 7.755619573657681
    vertex 80.90221595427283 -245.32186228454682 9.255619486500523
    vertex 80.9022162036645 -254.821862239756 9.255619442411904
  endloop
endfacet
facet normal 0.7071067842130678 1.4407359173039656e-08 0.7071067781600272
  outer loop
    vertex 80.90221595427283 -245.32186228454682 9.255619486500523
    vertex 82.40221601617523 -253.32186227818596 7.755619573657681
    vertex 82.40221586711573 -245.3218622763421 7.755619573657681
  endloop
endfacet
facet normal 0.7071067408891358 2.127870967459998e-08 -0.7071068214839566
  outer loop
    vertex 82.40221564093548 -245.32186219626124 3.862978842610041
    vertex 78.54485622293073 -254.8218622077155 0.005619579375267491
    vertex 78.5448559782239 -245.32186220167978 0.005619631159507676
  endloop
endfacet
facet normal 0.7071067408891358 2.127870967459998e-08 -0.7071068214839566
  outer loop
    vertex 78.54485622293073 -254.8218622077155 0.005619579375267491
    vertex 82.40221564093548 -245.32186219626124 3.862978842610041
    vertex 82.40221616523496 -253.3218622781859 3.862979138768922
  endloop
endfacet
facet normal 0.7071068010722509 -0.7071067613008436 9.275569877128936e-09
  outer loop
    vertex 80.90221620366461 -254.82186223975597 3.8629791387688766
    vertex 82.40221601617523 -253.32186227818596 7.755619573657681
    vertex 80.9022162036645 -254.821862239756 9.255619442411904
  endloop
endfacet
facet normal 0.7071068010722509 -0.7071067613008436 9.275569877128936e-09
  outer loop
    vertex 82.40221601617523 -253.32186227818596 7.755619573657681
    vertex 80.90221620366461 -254.82186223975597 3.8629791387688766
    vertex 82.40221616523496 -253.3218622781859 3.862979138768922
  endloop
endfacet
facet normal -0.7071067803607373 8.990807128435863e-09 -0.7071067820123579
  outer loop
    vertex 31.699280235957566 -250.3218622944762 0.005620566274244964
    vertex 27.841920791296403 -253.3218622380124 3.862979964155695
    vertex 27.84192074231909 -250.32186225266784 3.862980049028881
  endloop
endfacet
facet normal -0.7071067803607373 8.990807128435863e-09 -0.7071067820123579
  outer loop
    vertex 27.841920791296403 -253.3218622380124 3.862979964155695
    vertex 31.699280235957566 -250.3218622944762 0.005620566274244964
    vertex 31.69928023485927 -254.82186223113123 0.005620508656238598
  endloop
endfacet
facet normal -0.7071067819060572 -0.7071067804670379 3.35631000853381e-10
  outer loop
    vertex 29.34192079147292 -254.82186223818874 9.255620508635547
    vertex 27.841920791296403 -253.3218622380124 3.862979964155695
    vertex 29.341920791472894 -254.82186223818888 3.862979964155695
  endloop
endfacet
facet normal -0.7071067819060572 -0.7071067804670379 3.35631000853381e-10
  outer loop
    vertex 27.841920791296403 -253.3218622380124 3.862979964155695
    vertex 29.34192079147292 -254.82186223818874 9.255620508635547
    vertex 27.84192079668987 -253.3218622380124 7.7556205376241945
  endloop
endfacet
facet normal -1.0 -1.1374754148179426e-08 5.201209644686529e-09
  outer loop
    vertex 27.84192077741858 -250.32186224681698 7.755620545032721
    vertex 27.841920791296403 -253.3218622380124 3.862979964155695
    vertex 27.84192079668987 -253.3218622380124 7.7556205376241945
  endloop
endfacet
facet normal -1.0 -1.1374754148179426e-08 5.201209644686529e-09
  outer loop
    vertex 27.841920791296403 -253.3218622380124 3.862979964155695
    vertex 27.84192077741858 -250.32186224681698 7.755620545032721
    vertex 27.84192074231909 -250.32186225266784 3.862980049028881
  endloop
endfacet
facet normal -0.7071067808051179 -7.846516012475229e-09 0.7071067815679771
  outer loop
    vertex 27.84192079668987 -253.3218622380124 7.7556205376241945
    vertex 29.341920787737365 -250.32186223818877 9.255620559241763
    vertex 27.84192077741858 -250.32186224681698 7.755620545032721
  endloop
endfacet
facet normal -0.7071067808051179 -7.846516012475229e-09 0.7071067815679771
  outer loop
    vertex 29.341920787737365 -250.32186223818877 9.255620559241763
    vertex 27.84192079668987 -253.3218622380124 7.7556205376241945
    vertex 29.34192079147292 -254.82186223818874 9.255620508635547
  endloop
endfacet
endsolid ProtoGlove
