solid ProtoGlove
facet normal 1.0 -1.7423292358422933e-09 -5.830292165699217e-10
  outer loop
    vertex 34.542069889226376 -274.82977430714453 1.5056205284382838
    vertex 34.54206989501636 -273.17977448880123 6.505620558119651
    vertex 34.542069888985154 -274.82977435841985 6.505620524678887
  endloop
endfacet
facet normal 1.0 -1.7423292358422933e-09 -5.830292165699217e-10
  outer loop
    vertex 34.54206989501636 -273.17977448880123 6.505620558119651
    vertex 34.542069889226376 -274.82977430714453 1.5056205284382838
    vertex 34.54206988894485 -273.17977443756945 1.5056205581344597
  endloop
endfacet
facet normal 0.8944271909960417 -0.44721359550770623 -4.543151750101036e-09
  outer loop
    vertex 33.54206988919576 -278.32977430713555 1.5056205234168598
    vertex 34.04206988896357 -277.32977435841553 6.505620524047451
    vertex 33.54206988895474 -278.3297743584111 6.505620523416783
  endloop
endfacet
facet normal 0.8944271909960417 -0.44721359550770623 -4.543151750101036e-09
  outer loop
    vertex 34.04206988896357 -277.32977435841553 6.505620524047451
    vertex 33.54206988919576 -278.32977430713555 1.5056205234168598
    vertex 34.04206988920411 -277.32977430714004 1.5056205240477991
  endloop
endfacet
facet normal -0.7071067812347912 0.7071067811383038 5.860509247651933e-09
  outer loop
    vertex 34.39942933396846 -269.07977436611424 6.5056204652356175
    vertex 30.542069888154003 -272.93713375858295 0.005620508656278078
    vertex 30.54206984032999 -272.9371338488689 6.505620507044092
  endloop
endfacet
facet normal -0.7071067812347912 0.7071067811383038 5.860509247651933e-09
  outer loop
    vertex 30.542069888154003 -272.93713375858295 0.005620508656278078
    vertex 34.39942933396846 -269.07977436611424 6.5056204652356175
    vertex 34.39942933171687 -269.0797743030836 0.005620515713853313
  endloop
endfacet
facet normal -0.9999999999999998 2.1770953477034614e-08 -8.405508977547322e-10
  outer loop
    vertex 76.24500505162577 -272.07977399000623 25.29090166081395
    vertex 76.24500513272862 -269.07977399894884 6.505620547424985
    vertex 76.2450050770262 -272.07977399013623 6.505620547425267
  endloop
endfacet
facet normal -0.9999999999999998 2.1770953477034614e-08 -8.405508977547322e-10
  outer loop
    vertex 76.24500513272862 -269.07977399894884 6.505620547424985
    vertex 76.24500505162577 -272.07977399000623 25.29090166081395
    vertex 76.24500512654907 -269.0797740042282 25.290901665989967
  endloop
endfacet
facet normal 0.7071067878149065 -0.7071067745581885 1.0490723353606338e-08
  outer loop
    vertex 83.6023653005221 -278.32977323683923 0.005620507089335502
    vertex 85.10236496512663 -276.8297733734975 11.505620483369889
    vertex 83.60236505228373 -278.32977328634036 11.505620475165275
  endloop
endfacet
facet normal 0.7071067878149065 -0.7071067745581885 1.0490723353606338e-08
  outer loop
    vertex 85.10236496512663 -276.8297733734975 11.505620483369889
    vertex 83.6023653005221 -278.32977323683923 0.005620507089335502
    vertex 85.10236511303283 -276.82977336808494 0.005620507089290383
  endloop
endfacet
facet normal 0.9999999999999998 -2.7486878125632675e-08 -2.6547653453263742e-09
  outer loop
    vertex 39.399429557692486 -269.0797733744707 6.5056197702206555
    vertex 39.39942946433875 -271.5741245918662 7.430674039491639
    vertex 39.399429539570704 -272.0797739891285 6.505620537514619
  endloop
endfacet
facet normal 0.9999999999999998 -2.7486878125632675e-08 -2.6547653453263742e-09
  outer loop
    vertex 39.39942946433875 -271.5741245918662 7.430674039491639
    vertex 39.399429557692486 -269.0797733744707 6.5056197702206555
    vertex 39.399429523871675 -271.5741245644233 24.215956694939305
  endloop
endfacet
facet normal 0.9999999999999998 -2.7486878125632675e-08 -2.6547653453263742e-09
  outer loop
    vertex 39.399429523871675 -271.5741245644233 24.215956694939305
    vertex 39.399429643540046 -269.07977334916734 25.290902430844355
    vertex 39.399429539570704 -272.0797739939104 25.290902035032662
  endloop
endfacet
facet normal 0.9999999999999998 -2.7486878125632675e-08 -2.6547653453263742e-09
  outer loop
    vertex 39.399429643540046 -269.07977334916734 25.290902430844355
    vertex 39.399429523871675 -271.5741245644233 24.215956694939305
    vertex 39.399429557692486 -269.0797733744707 6.5056197702206555
  endloop
endfacet
facet normal 2.0792955920952727e-08 -0.9999999999999998 -5.913046981069681e-09
  outer loop
    vertex 32.042069888330516 -278.3297743030629 0.005620508656605194
    vertex 33.54206988919576 -278.32977430713555 1.5056205234168598
    vertex 32.04206988574826 -278.32977435908174 6.5056205215233
  endloop
endfacet
facet normal 2.0792955920952727e-08 -0.9999999999999998 -5.913046981069681e-09
  outer loop
    vertex 33.54206988919576 -278.32977430713555 1.5056205234168598
    vertex 32.042069888330516 -278.3297743030629 0.005620508656605194
    vertex 82.10236530138727 -278.3297733280493 1.5056204751654059
  endloop
endfacet
facet normal 2.0792955920952727e-08 -0.9999999999999998 -5.913046981069681e-09
  outer loop
    vertex 32.04206988574826 -278.32977435908174 6.5056205215233
    vertex 33.54206988919576 -278.32977430713555 1.5056205234168598
    vertex 33.54206988895474 -278.3297743584111 6.505620523416783
  endloop
endfacet
facet normal 2.0792955920952727e-08 -0.9999999999999998 -5.913046981069681e-09
  outer loop
    vertex 83.6023653005221 -278.32977323683923 0.005620507089335502
    vertex 82.10236530138727 -278.3297733280493 1.5056204751654059
    vertex 32.042069888330516 -278.3297743030629 0.005620508656605194
  endloop
endfacet
facet normal 2.0792955920952727e-08 -0.9999999999999998 -5.913046981069681e-09
  outer loop
    vertex 82.10236530138727 -278.3297733280493 1.5056204751654059
    vertex 83.6023653005221 -278.32977323683923 0.005620507089335502
    vertex 83.60236505228373 -278.32977328634036 11.505620475165275
  endloop
endfacet
facet normal 2.0792955920952727e-08 -0.9999999999999998 -5.913046981069681e-09
  outer loop
    vertex 82.10236530138727 -278.3297733280493 1.5056204751654059
    vertex 83.60236505228373 -278.32977328634036 11.505620475165275
    vertex 82.10236505228391 -278.3297733734909 11.505620475165365
  endloop
endfacet
facet normal 9.73246550604413e-10 -2.5903991037115096e-09 1.0
  outer loop
    vertex 35.64207038852686 -272.0797739380066 1.5056205416878625
    vertex 34.54206988894485 -273.17977443756945 1.5056205581344597
    vertex 34.542069889226376 -274.82977430714453 1.5056205284382838
  endloop
endfacet
facet normal 9.73246550604413e-10 -2.5903991037115096e-09 1.0
  outer loop
    vertex 34.04206988920858 -276.82977430714004 1.5056205278072767
    vertex 33.69206985876711 -274.8296787161223 1.5056205273652978
    vertex 33.69206985875392 -276.3296787161223 1.5056205273653205
  endloop
endfacet
facet normal 9.73246550604413e-10 -2.5903991037115096e-09 1.0
  outer loop
    vertex 33.69206985876711 -274.8296787161223 1.5056205273652978
    vertex 34.04206988920858 -276.82977430714004 1.5056205278072767
    vertex 34.542069889226376 -274.82977430714453 1.5056205284382838
  endloop
endfacet
facet normal 9.73246550604413e-10 -2.5903991037115096e-09 1.0
  outer loop
    vertex 82.10236530138727 -278.3297733280493 1.5056204751654059
    vertex 34.04206988920411 -277.32977430714004 1.5056205240477991
    vertex 33.54206988919576 -278.32977430713555 1.5056205234168598
  endloop
endfacet
facet normal 9.73246550604413e-10 -2.5903991037115096e-09 1.0
  outer loop
    vertex 34.04206988920411 -277.32977430714004 1.5056205240477991
    vertex 82.10236530138727 -278.3297733280493 1.5056204751654059
    vertex 34.04206988920858 -276.82977430714004 1.5056205278072767
  endloop
endfacet
facet normal 9.73246550604413e-10 -2.5903991037115096e-09 1.0
  outer loop
    vertex 34.04206988920858 -276.82977430714004 1.5056205278072767
    vertex 82.10236530138727 -278.3297733280493 1.5056204751654059
    vertex 34.542069889226376 -274.82977430714453 1.5056205284382838
  endloop
endfacet
facet normal 9.73246550604413e-10 -2.5903991037115096e-09 1.0
  outer loop
    vertex 34.542069889226376 -274.82977430714453 1.5056205284382838
    vertex 82.10236530138727 -278.3297733280493 1.5056204751654059
    vertex 35.64207038852686 -272.0797739380066 1.5056205416878625
  endloop
endfacet
facet normal 9.73246550604413e-10 -2.5903991037115096e-09 1.0
  outer loop
    vertex 35.64207038852686 -272.0797739380066 1.5056205416878625
    vertex 82.10236530138727 -278.3297733280493 1.5056204751654059
    vertex 81.60236524328695 -277.3297733570995 1.5056204724271394
  endloop
endfacet
facet normal 9.73246550604413e-10 -2.5903991037115096e-09 1.0
  outer loop
    vertex 35.64207038852686 -272.0797739380066 1.5056205416878625
    vertex 81.60236524328695 -277.3297733570995 1.5056204724271394
    vertex 80.00236480762648 -272.0797734500601 1.5056204565688436
  endloop
endfacet
facet normal 9.73246550604413e-10 -2.5903991037115096e-09 1.0
  outer loop
    vertex 80.00236480762648 -272.0797734500601 1.5056204565688436
    vertex 81.60236524328695 -277.3297733570995 1.5056204724271394
    vertex 81.10236509803602 -274.8297733861497 1.5056204879772017
  endloop
endfacet
facet normal 9.73246550604413e-10 -2.5903991037115096e-09 1.0
  outer loop
    vertex 80.00236480762648 -272.0797734500601 1.5056204565688436
    vertex 81.10236509803602 -274.8297733861497 1.5056204879772017
    vertex 81.10236500217084 -273.1797735165747 1.505620508093974
  endloop
endfacet
facet normal 9.73246550604413e-10 -2.5903991037115096e-09 1.0
  outer loop
    vertex 81.10236509803602 -274.8297733861497 1.5056204879772017
    vertex 81.60236524328695 -277.3297733570995 1.5056204724271394
    vertex 81.60236521423684 -276.8297733570995 1.5056204785234446
  endloop
endfacet
facet normal 9.73246550604413e-10 -2.5903991037115096e-09 1.0
  outer loop
    vertex 81.60236521423684 -276.8297733570995 1.5056204785234446
    vertex 81.95236509803625 -274.82977333676445 1.5056205133586822
    vertex 81.10236509803602 -274.8297733861497 1.5056204879772017
  endloop
endfacet
facet normal 9.73246550604413e-10 -2.5903991037115096e-09 1.0
  outer loop
    vertex 81.95236509803625 -274.82977333676445 1.5056205133586822
    vertex 81.60236521423684 -276.8297733570995 1.5056204785234446
    vertex 81.95236518518655 -276.32977333676456 1.5056204950700942
  endloop
endfacet
facet normal -0.7071067788435026 -0.7071067835295924 -4.870353813382747e-09
  outer loop
    vertex 32.042069888330516 -278.3297743030629 0.005620508656605194
    vertex 30.54206987542948 -276.8297743448727 6.5056205128950815
    vertex 30.54206989354747 -276.82977433205144 0.005620508656402156
  endloop
endfacet
facet normal -0.7071067788435026 -0.7071067835295924 -4.870353813382747e-09
  outer loop
    vertex 30.54206987542948 -276.8297743448727 6.5056205128950815
    vertex 32.042069888330516 -278.3297743030629 0.005620508656605194
    vertex 32.04206988574826 -278.32977435908174 6.5056205215233
  endloop
endfacet
facet normal -1.0 -5.201219892135192e-09 -5.072462038350998e-09
  outer loop
    vertex 30.54206984032999 -272.9371338488689 6.505620507044092
    vertex 30.54206989354747 -276.82977433205144 0.005620508656402156
    vertex 30.54206987542948 -276.8297743448727 6.5056205128950815
  endloop
endfacet
facet normal -1.0 -5.201219892135192e-09 -5.072462038350998e-09
  outer loop
    vertex 30.54206989354747 -276.82977433205144 0.005620508656402156
    vertex 30.54206984032999 -272.9371338488689 6.505620507044092
    vertex 30.542069888154003 -272.93713375858295 0.005620508656278078
  endloop
endfacet
facet normal 0.707106742957777 0.7071068194153158 1.6391046063406182e-08
  outer loop
    vertex 81.24500531978833 -269.0797733738026 0.005620539129614199
    vertex 85.10236473894638 -272.9371326424499 11.505620563450677
    vertex 85.10236526209256 -272.9371329331962 0.005620507089211423
  endloop
endfacet
facet normal 0.707106742957777 0.7071068194153158 1.6391046063406182e-08
  outer loop
    vertex 85.10236473894638 -272.9371326424499 11.505620563450677
    vertex 81.24500531978833 -269.0797733738026 0.005620539129614199
    vertex 81.24500507623479 -269.07977343099935 11.505620558032042
  endloop
endfacet
facet normal 0.9999999999999996 9.905939340938975e-09 2.917618999167193e-08
  outer loop
    vertex 85.10236511303283 -276.82977336808494 0.005620507089290383
    vertex 85.10236473894638 -272.9371326424499 11.505620563450677
    vertex 85.10236496512663 -276.8297733734975 11.505620483369889
  endloop
endfacet
facet normal 0.9999999999999996 9.905939340938975e-09 2.917618999167193e-08
  outer loop
    vertex 85.10236473894638 -272.9371326424499 11.505620563450677
    vertex 85.10236511303283 -276.82977336808494 0.005620507089290383
    vertex 85.10236526209256 -272.9371329331962 0.005620507089211423
  endloop
endfacet
facet normal -0.999999999999998 -5.8100221499435784e-08 -2.491035009967224e-08
  outer loop
    vertex 81.10236475306716 -273.1797735616781 11.505620508079856
    vertex 81.10236509803602 -274.8297733861497 1.5056204879772017
    vertex 81.10236484893271 -274.82977343159126 11.50562048797734
  endloop
endfacet
facet normal -0.999999999999998 -5.8100221499435784e-08 -2.491035009967224e-08
  outer loop
    vertex 81.10236509803602 -274.8297733861497 1.5056204879772017
    vertex 81.10236475306716 -273.1797735616781 11.505620508079856
    vertex 81.10236500217084 -273.1797735165747 1.505620508093974
  endloop
endfacet
facet normal 0.00011251216245278252 -0.9999999936705066 -1.9659661125344117e-08
  outer loop
    vertex 81.95236511113939 -274.82967826507996 20.290901602705212
    vertex 81.10236509909195 -274.8297740893164 29.7909015978715
    vertex 81.10236508068658 -274.82977390548 20.290901601631322
  endloop
endfacet
facet normal 0.00011251216245278252 -0.9999999936705066 -1.9659661125344117e-08
  outer loop
    vertex 81.10236509909195 -274.8297740893164 29.7909015978715
    vertex 81.95236511113939 -274.82967826507996 20.290901602705212
    vertex 81.95236513130027 -274.8296784262348 27.79090160270522
  endloop
endfacet
facet normal 0.00011251216245278252 -0.9999999936705066 -1.9659661125344117e-08
  outer loop
    vertex 81.10236509909195 -274.8297740893164 29.7909015978715
    vertex 81.95236513130027 -274.8296784262348 27.79090160270522
    vertex 81.95236512954553 -274.8296784489164 29.790901598945908
  endloop
endfacet
facet normal -0.9999999999999982 -5.983399884952928e-08 2.2696349145848983e-09
  outer loop
    vertex 81.10236500352202 -273.1797742197414 29.790901588292705
    vertex 81.10236508068658 -274.82977390548 20.290901601631322
    vertex 81.10236509909195 -274.8297740893164 29.7909015978715
  endloop
endfacet
facet normal -0.9999999999999982 -5.983399884952928e-08 2.2696349145848983e-09
  outer loop
    vertex 81.10236508068658 -274.82977390548 20.290901601631322
    vertex 81.10236500352202 -273.1797742197414 29.790901588292705
    vertex 81.10236497880432 -273.1797740358614 20.290901588307364
  endloop
endfacet
facet normal -0.9999999999999984 -5.6915490169922765e-08 2.0458115643271885e-09
  outer loop
    vertex 81.95236512954553 -274.8296784489164 29.790901598945908
    vertex 81.95236519828977 -276.32967826507996 20.290901584417096
    vertex 81.95236521669617 -276.32967844891635 29.790901580658108
  endloop
endfacet
facet normal -0.9999999999999984 -5.6915490169922765e-08 2.0458115643271885e-09
  outer loop
    vertex 81.95236519828977 -276.32967826507996 20.290901584417096
    vertex 81.95236512954553 -274.8296784489164 29.790901598945908
    vertex 81.95236513130027 -274.8296784262348 27.79090160270522
  endloop
endfacet
facet normal -0.9999999999999984 -5.6915490169922765e-08 2.0458115643271885e-09
  outer loop
    vertex 81.95236519828977 -276.32967826507996 20.290901584417096
    vertex 81.95236513130027 -274.8296784262348 27.79090160270522
    vertex 81.95236511113939 -274.82967826507996 20.290901602705212
  endloop
endfacet
facet normal -0.9999999999999984 -5.810040112876125e-08 1.9374749550591804e-09
  outer loop
    vertex 81.60236521529296 -276.8297740602663 29.790901574118383
    vertex 81.60236522593713 -277.32977387643 20.290901571782385
    vertex 81.60236524434329 -277.3297740602661 29.790901571781895
  endloop
endfacet
facet normal -0.9999999999999984 -5.810040112876125e-08 1.9374749550591804e-09
  outer loop
    vertex 81.60236522593713 -277.32977387643 20.290901571782385
    vertex 81.60236521529296 -276.8297740602663 29.790901574118383
    vertex 81.60236519688706 -276.8297738764298 20.290901577878227
  endloop
endfacet
facet normal 0.7071067382008049 0.7071068241722874 1.2807856390658165e-08
  outer loop
    vertex 81.24500530167674 -269.07977390488816 20.29090173117914
    vertex 85.10236529953727 -272.93713360434464 28.29090156502045
    vertex 85.10236501939536 -272.93713316356263 20.290901642341172
  endloop
endfacet
facet normal 0.7071067382008049 0.7071068241722874 1.2807856390658165e-08
  outer loop
    vertex 85.10236529953727 -272.93713360434464 28.29090156502045
    vertex 81.24500530167674 -269.07977390488816 20.29090173117914
    vertex 81.24500532170974 -269.0797740810289 29.790901667834486
  endloop
endfacet
facet normal -0.8192834271826765 0.573388756380702 1.2683116720266416e-08
  outer loop
    vertex 81.95236521669617 -276.32967844891635 29.790901580658108
    vertex 81.60236519688706 -276.8297738764298 20.290901577878227
    vertex 81.60236521529296 -276.8297740602663 29.790901574118383
  endloop
endfacet
facet normal -0.8192834271826765 0.573388756380702 1.2683116720266416e-08
  outer loop
    vertex 81.60236519688706 -276.8297738764298 20.290901577878227
    vertex 81.95236521669617 -276.32967844891635 29.790901580658108
    vertex 81.95236519828977 -276.32967826507996 20.290901584417096
  endloop
endfacet
facet normal -7.009683378865659e-09 -1.121945590291037e-08 1.0
  outer loop
    vertex 81.10236475306716 -273.1797735616781 11.505620508079856
    vertex 81.24500551175802 -272.07977328177196 11.505620531015985
    vertex 80.00236456483519 -272.07977349545797 11.505620524255173
  endloop
endfacet
facet normal -7.009683378865659e-09 -1.121945590291037e-08 1.0
  outer loop
    vertex 81.24500551175802 -272.07977328177196 11.505620531015985
    vertex 81.10236475306716 -273.1797735616781 11.505620508079856
    vertex 81.10236484893271 -274.82977343159126 11.50562048797734
  endloop
endfacet
facet normal -7.009683378865659e-09 -1.121945590291037e-08 1.0
  outer loop
    vertex 81.24500551175802 -272.07977328177196 11.505620531015985
    vertex 81.10236484893271 -274.82977343159126 11.50562048797734
    vertex 81.95236484893279 -274.82977338220593 11.505620513358439
  endloop
endfacet
facet normal -7.009683378865659e-09 -1.121945590291037e-08 1.0
  outer loop
    vertex 81.60236499418336 -277.32977340254115 11.505620472427076
    vertex 81.95236493608333 -276.32977338220604 11.505620495070437
    vertex 81.60236496513353 -276.829773402541 11.505620478523179
  endloop
endfacet
facet normal -7.009683378865659e-09 -1.121945590291037e-08 1.0
  outer loop
    vertex 81.95236493608333 -276.32977338220604 11.505620495070437
    vertex 81.60236499418336 -277.32977340254115 11.505620472427076
    vertex 82.10236505228391 -278.3297733734909 11.505620475165365
  endloop
endfacet
facet normal -7.009683378865659e-09 -1.121945590291037e-08 1.0
  outer loop
    vertex 81.24500551175802 -272.07977328177196 11.505620531015985
    vertex 85.10236473894638 -272.9371326424499 11.505620563450677
    vertex 81.24500507623479 -269.07977343099935 11.505620558032042
  endloop
endfacet
facet normal -7.009683378865659e-09 -1.121945590291037e-08 1.0
  outer loop
    vertex 85.10236473894638 -272.9371326424499 11.505620563450677
    vertex 81.24500551175802 -272.07977328177196 11.505620531015985
    vertex 81.95236484893279 -274.82977338220593 11.505620513358439
  endloop
endfacet
facet normal -7.009683378865659e-09 -1.121945590291037e-08 1.0
  outer loop
    vertex 85.10236473894638 -272.9371326424499 11.505620563450677
    vertex 81.95236484893279 -274.82977338220593 11.505620513358439
    vertex 81.95236493608333 -276.32977338220604 11.505620495070437
  endloop
endfacet
facet normal -7.009683378865659e-09 -1.121945590291037e-08 1.0
  outer loop
    vertex 85.10236473894638 -272.9371326424499 11.505620563450677
    vertex 81.95236493608333 -276.32977338220604 11.505620495070437
    vertex 82.10236505228391 -278.3297733734909 11.505620475165365
  endloop
endfacet
facet normal -7.009683378865659e-09 -1.121945590291037e-08 1.0
  outer loop
    vertex 85.10236473894638 -272.9371326424499 11.505620563450677
    vertex 82.10236505228391 -278.3297733734909 11.505620475165365
    vertex 83.60236505228373 -278.32977328634036 11.505620475165275
  endloop
endfacet
facet normal -7.009683378865659e-09 -1.121945590291037e-08 1.0
  outer loop
    vertex 85.10236473894638 -272.9371326424499 11.505620563450677
    vertex 83.60236505228373 -278.32977328634036 11.505620475165275
    vertex 85.10236496512663 -276.8297733734975 11.505620483369889
  endloop
endfacet
facet normal 5.810033345765798e-08 -0.9999999999999982 -1.9351187170002754e-08
  outer loop
    vertex 83.60236528403767 -278.3297737602292 20.290901562114456
    vertex 82.10236530244322 -278.329774031216 29.79090156022091
    vertex 82.1023652840376 -278.3297738473797 20.290901560221016
  endloop
endfacet
facet normal 5.810033345765798e-08 -0.9999999999999982 -1.9351187170002754e-08
  outer loop
    vertex 82.10236530244322 -278.329774031216 29.79090156022091
    vertex 83.60236528403767 -278.3297737602292 20.290901562114456
    vertex 83.6023653024432 -278.3297739440655 29.7909015621146
  endloop
endfacet
facet normal -0.00011246887696881141 -0.9999999936753758 -1.0255077423698334e-08
  outer loop
    vertex 34.542069889226376 -274.82977430714453 1.5056205284382838
    vertex 33.69206985730063 -274.8296787191781 4.005620523605951
    vertex 33.69206985876711 -274.8296787161223 1.5056205273652978
  endloop
endfacet
facet normal -0.00011246887696881141 -0.9999999936753758 -1.0255077423698334e-08
  outer loop
    vertex 33.69206985730063 -274.8296787191781 4.005620523605951
    vertex 34.542069889226376 -274.82977430714453 1.5056205284382838
    vertex 34.542069888985154 -274.82977435841985 6.505620524678887
  endloop
endfacet
facet normal -0.00011246887696881141 -0.9999999936753758 -1.0255077423698334e-08
  outer loop
    vertex 33.69206985730063 -274.8296787191781 4.005620523605951
    vertex 34.542069888985154 -274.82977435841985 6.505620524678887
    vertex 33.692069858526686 -274.8296787673977 6.505620523606036
  endloop
endfacet
facet normal -8.712071491617282e-09 1.0 4.840951758553779e-09
  outer loop
    vertex 34.39942933396846 -269.07977436611424 6.5056204652356175
    vertex 81.24500531978833 -269.0797733738026 0.005620539129614199
    vertex 34.39942933171687 -269.0797743030836 0.005620515713853313
  endloop
endfacet
facet normal -8.712071491617282e-09 1.0 4.840951758553779e-09
  outer loop
    vertex 81.24500531978833 -269.0797733738026 0.005620539129614199
    vertex 34.39942933396846 -269.07977436611424 6.5056204652356175
    vertex 39.399429557692486 -269.0797733744707 6.5056197702206555
  endloop
endfacet
facet normal -8.712071491617282e-09 1.0 4.840951758553779e-09
  outer loop
    vertex 39.399429557692486 -269.0797733744707 6.5056197702206555
    vertex 34.39942933396846 -269.07977436611424 6.5056204652356175
    vertex 39.399429643540046 -269.07977334916734 25.290902430844355
  endloop
endfacet
facet normal -8.712071491617282e-09 1.0 4.840951758553779e-09
  outer loop
    vertex 39.399429643540046 -269.07977334916734 25.290902430844355
    vertex 34.39942933396846 -269.07977436611424 6.5056204652356175
    vertex 34.39942948309966 -269.0797740022462 25.29090163838283
  endloop
endfacet
facet normal -8.712071491617282e-09 1.0 4.840951758553779e-09
  outer loop
    vertex 39.399429643540046 -269.07977334916734 25.290902430844355
    vertex 34.39942948309966 -269.0797740022462 25.29090163838283
    vertex 34.399429333637855 -269.0797739454443 29.790901644418568
  endloop
endfacet
facet normal -8.712071491617282e-09 1.0 4.840951758553779e-09
  outer loop
    vertex 81.24500531978833 -269.0797733738026 0.005620539129614199
    vertex 76.24500513272862 -269.07977399894884 6.505620547424985
    vertex 81.24500507623479 -269.07977343099935 11.505620558032042
  endloop
endfacet
facet normal -8.712071491617282e-09 1.0 4.840951758553779e-09
  outer loop
    vertex 76.24500513272862 -269.07977399894884 6.505620547424985
    vertex 81.24500531978833 -269.0797733738026 0.005620539129614199
    vertex 39.399429557692486 -269.0797733744707 6.5056197702206555
  endloop
endfacet
facet normal -8.712071491617282e-09 1.0 4.840951758553779e-09
  outer loop
    vertex 81.24500507623479 -269.07977343099935 11.505620558032042
    vertex 76.24500513272862 -269.07977399894884 6.505620547424985
    vertex 76.24500512654907 -269.0797740042282 25.290901665989967
  endloop
endfacet
facet normal -8.712071491617282e-09 1.0 4.840951758553779e-09
  outer loop
    vertex 81.24500507623479 -269.07977343099935 11.505620558032042
    vertex 76.24500512654907 -269.0797740042282 25.290901665989967
    vertex 81.24500530167674 -269.07977390488816 20.29090173117914
  endloop
endfacet
facet normal -8.712071491617282e-09 1.0 4.840951758553779e-09
  outer loop
    vertex 81.24500530167674 -269.07977390488816 20.29090173117914
    vertex 76.24500512654907 -269.0797740042282 25.290901665989967
    vertex 81.24500532170974 -269.0797740810289 29.790901667834486
  endloop
endfacet
facet normal -8.712071491617282e-09 1.0 4.840951758553779e-09
  outer loop
    vertex 81.24500532170974 -269.0797740810289 29.790901667834486
    vertex 76.24500512654907 -269.0797740042282 25.290901665989967
    vertex 39.399429643540046 -269.07977334916734 25.290902430844355
  endloop
endfacet
facet normal -8.712071491617282e-09 1.0 4.840951758553779e-09
  outer loop
    vertex 81.24500532170974 -269.0797740810289 29.790901667834486
    vertex 39.399429643540046 -269.07977334916734 25.290902430844355
    vertex 34.399429333637855 -269.0797739454443 29.790901644418568
  endloop
endfacet
facet normal 0.7071067820803378 -0.7071067802927566 3.141221176164279e-08
  outer loop
    vertex 35.64207016877401 -272.07977399451784 25.290901635583193
    vertex 34.542069890296034 -273.17977407587057 29.790901638333125
    vertex 34.542070044443 -273.1797741246387 25.290901638346984
  endloop
endfacet
facet normal 0.7071067820803378 -0.7071067802927566 3.141221176164279e-08
  outer loop
    vertex 34.542069890296034 -273.17977407587057 29.790901638333125
    vertex 35.64207016877401 -272.07977399451784 25.290901635583193
    vertex 35.64207002093962 -272.0797739454552 29.790901703269487
  endloop
endfacet
facet normal 0.7071067811803768 -0.7071067811927182 -8.103911746315231e-09
  outer loop
    vertex 35.64207039459837 -272.07977398923845 6.505620536526999
    vertex 34.54206988894485 -273.17977443756945 1.5056205581344597
    vertex 35.64207038852686 -272.0797739380066 1.5056205416878625
  endloop
endfacet
facet normal 0.7071067811803768 -0.7071067811927182 -8.103911746315231e-09
  outer loop
    vertex 34.54206988894485 -273.17977443756945 1.5056205581344597
    vertex 35.64207039459837 -272.07977398923845 6.505620536526999
    vertex 34.54206989501636 -273.17977448880123 6.505620558119651
  endloop
endfacet
facet normal -0.9999999999999996 2.8994539296039178e-08 1.6767572167325426e-09
  outer loop
    vertex 34.39942948309966 -269.0797740022462 25.29090163838283
    vertex 34.399429297280705 -271.5741245644233 24.215956712672966
    vertex 34.39942931297979 -272.07977399391035 25.29090205276628
  endloop
endfacet
facet normal -0.9999999999999996 2.8994539296039178e-08 1.6767572167325426e-09
  outer loop
    vertex 34.399429297280705 -271.5741245644233 24.215956712672966
    vertex 34.39942948309966 -269.0797740022462 25.29090163838283
    vertex 34.39942933396846 -269.07977436611424 6.5056204652356175
  endloop
endfacet
facet normal -0.9999999999999996 2.8994539296039178e-08 1.6767572167325426e-09
  outer loop
    vertex 34.39942929832427 -271.5741249249977 7.430674057225258
    vertex 34.39942933396846 -269.07977436611424 6.5056204652356175
    vertex 34.39942937355624 -272.07977432225994 6.505620555248282
  endloop
endfacet
facet normal -0.9999999999999996 2.8994539296039178e-08 1.6767572167325426e-09
  outer loop
    vertex 34.39942933396846 -269.07977436611424 6.5056204652356175
    vertex 34.39942929832427 -271.5741249249977 7.430674057225258
    vertex 34.399429297280705 -271.5741245644233 24.215956712672966
  endloop
endfacet
facet normal -0.999999999999998 -5.809994961406162e-08 -2.4910345588690152e-08
  outer loop
    vertex 81.60236496513353 -276.829773402541 11.505620478523179
    vertex 81.60236524328695 -277.3297733570995 1.5056204724271394
    vertex 81.60236499418336 -277.32977340254115 11.505620472427076
  endloop
endfacet
facet normal -0.999999999999998 -5.809994961406162e-08 -2.4910345588690152e-08
  outer loop
    vertex 81.60236524328695 -277.3297733570995 1.5056204724271394
    vertex 81.60236496513353 -276.829773402541 11.505620478523179
    vertex 81.60236521423684 -276.8297733570995 1.5056204785234446
  endloop
endfacet
facet normal -0.8192319538373558 0.5734622967657321 -1.780143624350773e-08
  outer loop
    vertex 81.95236493608333 -276.32977338220604 11.505620495070437
    vertex 81.60236521423684 -276.8297733570995 1.5056204785234446
    vertex 81.60236496513353 -276.829773402541 11.505620478523179
  endloop
endfacet
facet normal -0.8192319538373558 0.5734622967657321 -1.780143624350773e-08
  outer loop
    vertex 81.60236521423684 -276.8297733570995 1.5056204785234446
    vertex 81.95236493608333 -276.32977338220604 11.505620495070437
    vertex 81.95236518518655 -276.32977333676456 1.5056204950700942
  endloop
endfacet
facet normal -0.7071067401034289 -0.7071068222696637 -1.184680600630827e-08
  outer loop
    vertex 81.10236500352202 -273.1797742197414 29.790901588292705
    vertex 80.00236441532147 -272.07977360019936 20.290901623311743
    vertex 81.10236497880432 -273.1797740358614 20.290901588307364
  endloop
endfacet
facet normal -0.7071067401034289 -0.7071068222696637 -1.184680600630827e-08
  outer loop
    vertex 80.00236441532147 -272.07977360019936 20.290901623311743
    vertex 81.10236500352202 -273.1797742197414 29.790901588292705
    vertex 80.00236444003941 -272.07977378407935 29.79090161815049
  endloop
endfacet
facet normal 8.034870010541241e-09 -1.0 -4.905231156013598e-09
  outer loop
    vertex 80.00236480762648 -272.0797734500601 1.5056204565688436
    vertex 76.2450050770262 -272.07977399013623 6.505620547425267
    vertex 35.64207038852686 -272.0797739380066 1.5056205416878625
  endloop
endfacet
facet normal 8.034870010541241e-09 -1.0 -4.905231156013598e-09
  outer loop
    vertex 76.2450050770262 -272.07977399013623 6.505620547425267
    vertex 80.00236480762648 -272.0797734500601 1.5056204565688436
    vertex 80.00236456483519 -272.07977349545797 11.505620524255173
  endloop
endfacet
facet normal 8.034870010541241e-09 -1.0 -4.905231156013598e-09
  outer loop
    vertex 35.64207038852686 -272.0797739380066 1.5056205416878625
    vertex 76.2450050770262 -272.07977399013623 6.505620547425267
    vertex 39.399429539570704 -272.0797739891285 6.505620537514619
  endloop
endfacet
facet normal 8.034870010541241e-09 -1.0 -4.905231156013598e-09
  outer loop
    vertex 35.64207038852686 -272.0797739380066 1.5056205416878625
    vertex 39.399429539570704 -272.0797739891285 6.505620537514619
    vertex 35.64207039459837 -272.07977398923845 6.505620536526999
  endloop
endfacet
facet normal 8.034870010541241e-09 -1.0 -4.905231156013598e-09
  outer loop
    vertex 76.2450050770262 -272.07977399013623 6.505620547425267
    vertex 80.00236456483519 -272.07977349545797 11.505620524255173
    vertex 76.24500505162577 -272.07977399000623 25.29090166081395
  endloop
endfacet
facet normal 8.034870010541241e-09 -1.0 -4.905231156013598e-09
  outer loop
    vertex 76.24500505162577 -272.07977399000623 25.29090166081395
    vertex 80.00236456483519 -272.07977349545797 11.505620524255173
    vertex 81.24500551175802 -272.07977328177196 11.505620531015985
  endloop
endfacet
facet normal 8.034870010541241e-09 -1.0 -4.905231156013598e-09
  outer loop
    vertex 76.24500505162577 -272.07977399000623 25.29090166081395
    vertex 81.24500551175802 -272.07977328177196 11.505620531015985
    vertex 80.00236441532147 -272.07977360019936 20.290901623311743
  endloop
endfacet
facet normal 8.034870010541241e-09 -1.0 -4.905231156013598e-09
  outer loop
    vertex 80.00236441532147 -272.07977360019936 20.290901623311743
    vertex 81.24500551175802 -272.07977328177196 11.505620531015985
    vertex 81.24500549987904 -272.0797736187568 20.290899314245966
  endloop
endfacet
facet normal 8.034870010541241e-09 -1.0 -4.905231156013598e-09
  outer loop
    vertex 76.24500505162577 -272.07977399000623 25.29090166081395
    vertex 80.00236441532147 -272.07977360019936 20.290901623311743
    vertex 80.00236444003941 -272.07977378407935 29.79090161815049
  endloop
endfacet
facet normal 8.034870010541241e-09 -1.0 -4.905231156013598e-09
  outer loop
    vertex 76.24500505162577 -272.07977399000623 25.29090166081395
    vertex 80.00236444003941 -272.07977378407935 29.79090161815049
    vertex 39.399429539570704 -272.0797739939104 25.290902035032662
  endloop
endfacet
facet normal 8.034870010541241e-09 -1.0 -4.905231156013598e-09
  outer loop
    vertex 39.399429539570704 -272.0797739939104 25.290902035032662
    vertex 35.64207002093962 -272.0797739454552 29.790901703269487
    vertex 35.64207016877401 -272.07977399451784 25.290901635583193
  endloop
endfacet
facet normal 8.034870010541241e-09 -1.0 -4.905231156013598e-09
  outer loop
    vertex 35.64207002093962 -272.0797739454552 29.790901703269487
    vertex 39.399429539570704 -272.0797739939104 25.290902035032662
    vertex 80.00236444003941 -272.07977378407935 29.79090161815049
  endloop
endfacet
facet normal -0.8944271650166149 -0.44721364746655595 -2.4312701669812113e-08
  outer loop
    vertex 81.60236499418336 -277.32977340254115 11.505620472427076
    vertex 82.10236530138727 -278.3297733280493 1.5056204751654059
    vertex 82.10236505228391 -278.3297733734909 11.505620475165365
  endloop
endfacet
facet normal -0.8944271650166149 -0.44721364746655595 -2.4312701669812113e-08
  outer loop
    vertex 82.10236530138727 -278.3297733280493 1.5056204751654059
    vertex 81.60236499418336 -277.32977340254115 11.505620472427076
    vertex 81.60236524328695 -277.3297733570995 1.5056204724271394
  endloop
endfacet
facet normal -0.8944271650166999 -0.4472136474663864 -6.9211943284909635e-09
  outer loop
    vertex 81.60236524434329 -277.3297740602661 29.790901571781895
    vertex 82.1023652840376 -278.3297738473797 20.290901560221016
    vertex 82.10236530244322 -278.329774031216 29.79090156022091
  endloop
endfacet
facet normal -0.8944271650166999 -0.4472136474663864 -6.9211943284909635e-09
  outer loop
    vertex 82.1023652840376 -278.3297738473797 20.290901560221016
    vertex 81.60236524434329 -277.3297740602661 29.790901571781895
    vertex 81.60236522593713 -277.32977387643 20.290901571782385
  endloop
endfacet
facet normal -0.7071067410033365 -0.707106821369756 -2.0590814024416822e-08
  outer loop
    vertex 81.10236500217084 -273.1797735165747 1.505620508093974
    vertex 80.00236456483519 -272.07977349545797 11.505620524255173
    vertex 80.00236480762648 -272.0797734500601 1.5056204565688436
  endloop
endfacet
facet normal -0.7071067410033365 -0.707106821369756 -2.0590814024416822e-08
  outer loop
    vertex 80.00236456483519 -272.07977349545797 11.505620524255173
    vertex 81.10236500217084 -273.1797735165747 1.505620508093974
    vertex 81.10236475306716 -273.1797735616781 11.505620508079856
  endloop
endfacet
facet normal 0.9999999999999996 -8.798295428126441e-12 3.425481717546992e-08
  outer loop
    vertex 33.69207004442846 -274.82977399454444 25.290901612951586
    vertex 33.69206989026859 -276.32977394543815 29.79090161295171
    vertex 33.69207004441533 -276.32977399454455 25.29090161295129
  endloop
endfacet
facet normal 0.9999999999999996 -8.798295428126441e-12 3.425481717546992e-08
  outer loop
    vertex 33.69206989026859 -276.32977394543815 29.79090161295171
    vertex 33.69207004442846 -274.82977399454444 25.290901612951586
    vertex 33.69206989028186 -274.82977394543815 29.790901612951643
  endloop
endfacet
facet normal 1.0 -8.820855338318566e-12 4.811990798582796e-11
  outer loop
    vertex 34.04206988920411 -277.32977430714004 1.5056205240477991
    vertex 34.042069888967916 -276.8297743584154 6.50562052404753
    vertex 34.04206988896357 -277.32977435841553 6.505620524047451
  endloop
endfacet
facet normal 1.0 -8.820855338318566e-12 4.811990798582796e-11
  outer loop
    vertex 34.042069888967916 -276.8297743584154 6.50562052404753
    vertex 34.04206988920411 -277.32977430714004 1.5056205240477991
    vertex 34.04206988920858 -276.82977430714004 1.5056205278072767
  endloop
endfacet
facet normal 0.9999999999999996 -8.392220236609033e-12 3.425481717546652e-08
  outer loop
    vertex 34.042070044410835 -276.8297739945474 25.290901623402718
    vertex 34.04206989025996 -277.32977394544105 29.790901623403048
    vertex 34.04207004440681 -277.32977399454757 25.290901623402743
  endloop
endfacet
facet normal 0.9999999999999996 -8.392220236609033e-12 3.425481717546652e-08
  outer loop
    vertex 34.04206989025996 -277.32977394544105 29.790901623403048
    vertex 34.042070044410835 -276.8297739945474 25.290901623402718
    vertex 34.04206989026434 -276.8297739454411 29.790901623402622
  endloop
endfacet
facet normal 0.8192833975824789 0.5733887986747823 5.919534027831309e-09
  outer loop
    vertex 34.04206988920858 -276.82977430714004 1.5056205278072767
    vertex 33.69206985851378 -276.32967876739764 6.505620523605822
    vertex 34.042069888967916 -276.8297743584154 6.50562052404753
  endloop
endfacet
facet normal 0.8192833975824789 0.5733887986747823 5.919534027831309e-09
  outer loop
    vertex 33.69206985851378 -276.32967876739764 6.505620523605822
    vertex 34.04206988920858 -276.82977430714004 1.5056205278072767
    vertex 33.69206985875392 -276.3296787161223 1.5056205273653205
  endloop
endfacet
facet normal 0.8192833975824789 0.5733887986747823 5.919534027831309e-09
  outer loop
    vertex 33.69206985851378 -276.32967876739764 6.505620523605822
    vertex 33.69206985875392 -276.3296787161223 1.5056205273653205
    vertex 33.69206985728757 -276.32967871917805 4.005620523605759
  endloop
endfacet
facet normal 0.9999999999999996 -8.791459983106197e-12 3.425479210915599e-08
  outer loop
    vertex 34.542070044443 -273.1797741246387 25.290901638346984
    vertex 34.54206989028193 -274.8297739454456 29.790901638332944
    vertex 34.54207004442809 -274.8297739945519 25.29090163833311
  endloop
endfacet
facet normal 0.9999999999999996 -8.791459983106197e-12 3.425479210915599e-08
  outer loop
    vertex 34.54206989028193 -274.8297739454456 29.790901638332944
    vertex 34.542070044443 -273.1797741246387 25.290901638346984
    vertex 34.542069890296034 -273.17977407587057 29.790901638333125
  endloop
endfacet
facet normal 1.0 -8.703031213910696e-12 4.805674062090122e-11
  outer loop
    vertex 33.69206985728757 -276.32967871917805 4.005620523605759
    vertex 33.692069858526686 -274.8296787673977 6.505620523606036
    vertex 33.69206985851378 -276.32967876739764 6.505620523605822
  endloop
endfacet
facet normal 1.0 -8.703031213910696e-12 4.805674062090122e-11
  outer loop
    vertex 33.692069858526686 -274.8296787673977 6.505620523606036
    vertex 33.69206985728757 -276.32967871917805 4.005620523605759
    vertex 33.69206985875392 -276.3296787161223 1.5056205273653205
  endloop
endfacet
facet normal 1.0 -8.703031213910696e-12 4.805674062090122e-11
  outer loop
    vertex 33.692069858526686 -274.8296787673977 6.505620523606036
    vertex 33.69206985875392 -276.3296787161223 1.5056205273653205
    vertex 33.69206985876711 -274.8296787161223 1.5056205273652978
  endloop
endfacet
facet normal 1.0 -8.703031213910696e-12 4.805674062090122e-11
  outer loop
    vertex 33.692069858526686 -274.8296787673977 6.505620523606036
    vertex 33.69206985876711 -274.8296787161223 1.5056205273652978
    vertex 33.69206985730063 -274.8296787191781 4.005620523605951
  endloop
endfacet
facet normal -8.7588099869779e-12 -1.0 1.09125132828247e-08
  outer loop
    vertex 34.54207004442809 -274.8297739945519 25.29090163833311
    vertex 33.69206989028186 -274.82977394543815 29.790901612951643
    vertex 33.69207004442846 -274.82977399454444 25.290901612951586
  endloop
endfacet
facet normal -8.7588099869779e-12 -1.0 1.09125132828247e-08
  outer loop
    vertex 33.69206989028186 -274.82977394543815 29.790901612951643
    vertex 34.54207004442809 -274.8297739945519 25.29090163833311
    vertex 34.54206989028193 -274.8297739454456 29.790901638332944
  endloop
endfacet
facet normal 0.9999999999999998 1.8814248989622403e-08 -2.029360959026072e-08
  outer loop
    vertex 85.10236501939536 -272.93713316356263 20.290901642341172
    vertex 85.10236525498135 -276.8297738338411 28.290901565020473
    vertex 85.10236521042549 -276.8297738338414 20.290901778253133
  endloop
endfacet
facet normal 0.9999999999999998 1.8814248989622403e-08 -2.029360959026072e-08
  outer loop
    vertex 85.10236525498135 -276.8297738338411 28.290901565020473
    vertex 85.10236501939536 -272.93713316356263 20.290901642341172
    vertex 85.10236529953727 -272.93713360434464 28.29090156502045
  endloop
endfacet
facet normal 5.907881545484201e-08 -4.53892882965021e-08 -0.9999999999999973
  outer loop
    vertex 85.10236501939536 -272.93713316356263 20.290901642341172
    vertex 81.24500549987904 -272.0797736187568 20.290899314245966
    vertex 81.24500530167674 -269.07977390488816 20.29090173117914
  endloop
endfacet
facet normal 5.907881545484201e-08 -4.53892882965021e-08 -0.9999999999999973
  outer loop
    vertex 81.24500549987904 -272.0797736187568 20.290899314245966
    vertex 85.10236501939536 -272.93713316356263 20.290901642341172
    vertex 81.95236511113939 -274.82967826507996 20.290901602705212
  endloop
endfacet
facet normal 5.907881545484201e-08 -4.53892882965021e-08 -0.9999999999999973
  outer loop
    vertex 81.95236511113939 -274.82967826507996 20.290901602705212
    vertex 85.10236501939536 -272.93713316356263 20.290901642341172
    vertex 81.95236519828977 -276.32967826507996 20.290901584417096
  endloop
endfacet
facet normal 5.907881545484201e-08 -4.53892882965021e-08 -0.9999999999999973
  outer loop
    vertex 81.95236519828977 -276.32967826507996 20.290901584417096
    vertex 85.10236501939536 -272.93713316356263 20.290901642341172
    vertex 82.1023652840376 -278.3297738473797 20.290901560221016
  endloop
endfacet
facet normal 5.907881545484201e-08 -4.53892882965021e-08 -0.9999999999999973
  outer loop
    vertex 82.1023652840376 -278.3297738473797 20.290901560221016
    vertex 85.10236501939536 -272.93713316356263 20.290901642341172
    vertex 83.60236528403767 -278.3297737602292 20.290901562114456
  endloop
endfacet
facet normal 5.907881545484201e-08 -4.53892882965021e-08 -0.9999999999999973
  outer loop
    vertex 83.60236528403767 -278.3297737602292 20.290901562114456
    vertex 85.10236501939536 -272.93713316356263 20.290901642341172
    vertex 85.10236521042549 -276.8297738338414 20.290901778253133
  endloop
endfacet
facet normal 5.907881545484201e-08 -4.53892882965021e-08 -0.9999999999999973
  outer loop
    vertex 81.95236519828977 -276.32967826507996 20.290901584417096
    vertex 81.60236522593713 -277.32977387643 20.290901571782385
    vertex 81.60236519688706 -276.8297738764298 20.290901577878227
  endloop
endfacet
facet normal 5.907881545484201e-08 -4.53892882965021e-08 -0.9999999999999973
  outer loop
    vertex 81.60236522593713 -277.32977387643 20.290901571782385
    vertex 81.95236519828977 -276.32967826507996 20.290901584417096
    vertex 82.1023652840376 -278.3297738473797 20.290901560221016
  endloop
endfacet
facet normal 5.907881545484201e-08 -4.53892882965021e-08 -0.9999999999999973
  outer loop
    vertex 81.24500549987904 -272.0797736187568 20.290899314245966
    vertex 81.10236497880432 -273.1797740358614 20.290901588307364
    vertex 80.00236441532147 -272.07977360019936 20.290901623311743
  endloop
endfacet
facet normal 5.907881545484201e-08 -4.53892882965021e-08 -0.9999999999999973
  outer loop
    vertex 81.10236497880432 -273.1797740358614 20.290901588307364
    vertex 81.24500549987904 -272.0797736187568 20.290899314245966
    vertex 81.10236508068658 -274.82977390548 20.290901601631322
  endloop
endfacet
facet normal 5.907881545484201e-08 -4.53892882965021e-08 -0.9999999999999973
  outer loop
    vertex 81.10236508068658 -274.82977390548 20.290901601631322
    vertex 81.24500549987904 -272.0797736187568 20.290899314245966
    vertex 81.95236511113939 -274.82967826507996 20.290901602705212
  endloop
endfacet
facet normal -0.7071067837205789 -0.7071067786525161 -1.515403449995338e-08
  outer loop
    vertex 32.042069890251234 -278.32977394542354 29.79090156368155
    vertex 30.542070044417752 -276.82977399454956 25.29090159017345
    vertex 32.04207004439811 -278.32977399452994 25.2909016084726
  endloop
endfacet
facet normal -0.7071067837205789 -0.7071067786525161 -1.515403449995338e-08
  outer loop
    vertex 30.542070044417752 -276.82977399454956 25.29090159017345
    vertex 32.042069890251234 -278.32977394542354 29.79090156368155
    vertex 30.542069993025738 -276.8297739945495 28.290901525482287
  endloop
endfacet
facet normal -8.738299067432207e-12 -1.0 1.0912528376956111e-08
  outer loop
    vertex 33.54206989025136 -278.32977394543667 29.790901608472318
    vertex 32.04207004439811 -278.32977399452994 25.2909016084726
    vertex 33.5420700443979 -278.329773994543 25.2909016084726
  endloop
endfacet
facet normal -8.738299067432207e-12 -1.0 1.0912528376956111e-08
  outer loop
    vertex 32.04207004439811 -278.32977399452994 25.2909016084726
    vertex 33.54206989025136 -278.32977394543667 29.790901608472318
    vertex 32.042069890251234 -278.32977394542354 29.79090156368155
  endloop
endfacet
facet normal 0.7071067971596817 -0.7071067652134131 -1.0441534861310686e-08
  outer loop
    vertex 83.60236528403767 -278.3297737602292 20.290901562114456
    vertex 85.10236525498135 -276.8297738338411 28.290901565020473
    vertex 83.6023653024432 -278.3297739440655 29.7909015621146
  endloop
endfacet
facet normal 0.7071067971596817 -0.7071067652134131 -1.0441534861310686e-08
  outer loop
    vertex 85.10236525498135 -276.8297738338411 28.290901565020473
    vertex 83.60236528403767 -278.3297737602292 20.290901562114456
    vertex 85.10236521042549 -276.8297738338414 20.290901778253133
  endloop
endfacet
facet normal 6.199835212513785e-10 -8.216807949505039e-09 1.0
  outer loop
    vertex 34.04206989025996 -277.32977394544105 29.790901623403048
    vertex 33.69206989026859 -276.32977394543815 29.79090161295171
    vertex 33.54206989025136 -278.32977394543667 29.790901608472318
  endloop
endfacet
facet normal 6.199835212513785e-10 -8.216807949505039e-09 1.0
  outer loop
    vertex 33.69206989026859 -276.32977394543815 29.79090161295171
    vertex 34.04206989025996 -277.32977394544105 29.790901623403048
    vertex 34.04206989026434 -276.8297739454411 29.790901623402622
  endloop
endfacet
facet normal 6.199835212513785e-10 -8.216807949505039e-09 1.0
  outer loop
    vertex 81.60236524434329 -277.3297740602661 29.790901571781895
    vertex 81.95236521669617 -276.32967844891635 29.790901580658108
    vertex 81.60236521529296 -276.8297740602663 29.790901574118383
  endloop
endfacet
facet normal 6.199835212513785e-10 -8.216807949505039e-09 1.0
  outer loop
    vertex 81.95236521669617 -276.32967844891635 29.790901580658108
    vertex 81.60236524434329 -277.3297740602661 29.790901571781895
    vertex 82.10236530244322 -278.329774031216 29.79090156022091
  endloop
endfacet
facet normal 6.199835212513785e-10 -8.216807949505039e-09 1.0
  outer loop
    vertex 33.54206989025136 -278.32977394543667 29.790901608472318
    vertex 32.0420698902513 -272.9371333844102 29.790901563681526
    vertex 32.042069890251234 -278.32977394542354 29.79090156368155
  endloop
endfacet
facet normal 6.199835212513785e-10 -8.216807949505039e-09 1.0
  outer loop
    vertex 32.0420698902513 -272.9371333844102 29.790901563681526
    vertex 33.54206989025136 -278.32977394543667 29.790901608472318
    vertex 33.69206989028186 -274.82977394543815 29.790901612951643
  endloop
endfacet
facet normal 6.199835212513785e-10 -8.216807949505039e-09 1.0
  outer loop
    vertex 32.0420698902513 -272.9371333844102 29.790901563681526
    vertex 33.69206989028186 -274.82977394543815 29.790901612951643
    vertex 34.399429333637855 -269.0797739454443 29.790901644418568
  endloop
endfacet
facet normal 6.199835212513785e-10 -8.216807949505039e-09 1.0
  outer loop
    vertex 33.69206989028186 -274.82977394543815 29.790901612951643
    vertex 33.54206989025136 -278.32977394543667 29.790901608472318
    vertex 33.69206989026859 -276.32977394543815 29.79090161295171
  endloop
endfacet
facet normal 6.199835212513785e-10 -8.216807949505039e-09 1.0
  outer loop
    vertex 34.399429333637855 -269.0797739454443 29.790901644418568
    vertex 33.69206989028186 -274.82977394543815 29.790901612951643
    vertex 34.54206989028193 -274.8297739454456 29.790901638332944
  endloop
endfacet
facet normal 6.199835212513785e-10 -8.216807949505039e-09 1.0
  outer loop
    vertex 34.399429333637855 -269.0797739454443 29.790901644418568
    vertex 34.54206989028193 -274.8297739454456 29.790901638332944
    vertex 34.542069890296034 -273.17977407587057 29.790901638333125
  endloop
endfacet
facet normal 6.199835212513785e-10 -8.216807949505039e-09 1.0
  outer loop
    vertex 34.399429333637855 -269.0797739454443 29.790901644418568
    vertex 34.542069890296034 -273.17977407587057 29.790901638333125
    vertex 35.64207002093962 -272.0797739454552 29.790901703269487
  endloop
endfacet
facet normal 6.199835212513785e-10 -8.216807949505039e-09 1.0
  outer loop
    vertex 34.399429333637855 -269.0797739454443 29.790901644418568
    vertex 35.64207002093962 -272.0797739454552 29.790901703269487
    vertex 81.24500532170974 -269.0797740810289 29.790901667834486
  endloop
endfacet
facet normal 6.199835212513785e-10 -8.216807949505039e-09 1.0
  outer loop
    vertex 81.24500532170974 -269.0797740810289 29.790901667834486
    vertex 35.64207002093962 -272.0797739454552 29.790901703269487
    vertex 80.00236444003941 -272.07977378407935 29.79090161815049
  endloop
endfacet
facet normal 6.199835212513785e-10 -8.216807949505039e-09 1.0
  outer loop
    vertex 81.24500532170974 -269.0797740810289 29.790901667834486
    vertex 80.00236444003941 -272.07977378407935 29.79090161815049
    vertex 81.10236500352202 -273.1797742197414 29.790901588292705
  endloop
endfacet
facet normal 6.199835212513785e-10 -8.216807949505039e-09 1.0
  outer loop
    vertex 81.24500532170974 -269.0797740810289 29.790901667834486
    vertex 81.10236500352202 -273.1797742197414 29.790901588292705
    vertex 81.10236509909195 -274.8297740893164 29.7909015978715
  endloop
endfacet
facet normal 6.199835212513785e-10 -8.216807949505039e-09 1.0
  outer loop
    vertex 81.24500532170974 -269.0797740810289 29.790901667834486
    vertex 81.10236509909195 -274.8297740893164 29.7909015978715
    vertex 81.95236512954553 -274.8296784489164 29.790901598945908
  endloop
endfacet
facet normal 6.199835212513785e-10 -8.216807949505039e-09 1.0
  outer loop
    vertex 81.24500532170974 -269.0797740810289 29.790901667834486
    vertex 81.95236512954553 -274.8296784489164 29.790901598945908
    vertex 83.6023653024433 -272.9371336043446 29.790901562114282
  endloop
endfacet
facet normal 6.199835212513785e-10 -8.216807949505039e-09 1.0
  outer loop
    vertex 83.6023653024433 -272.9371336043446 29.790901562114282
    vertex 81.95236512954553 -274.8296784489164 29.790901598945908
    vertex 81.95236521669617 -276.32967844891635 29.790901580658108
  endloop
endfacet
facet normal 6.199835212513785e-10 -8.216807949505039e-09 1.0
  outer loop
    vertex 83.6023653024433 -272.9371336043446 29.790901562114282
    vertex 81.95236521669617 -276.32967844891635 29.790901580658108
    vertex 82.10236530244322 -278.329774031216 29.79090156022091
  endloop
endfacet
facet normal 6.199835212513785e-10 -8.216807949505039e-09 1.0
  outer loop
    vertex 83.6023653024433 -272.9371336043446 29.790901562114282
    vertex 82.10236530244322 -278.329774031216 29.79090156022091
    vertex 83.6023653024432 -278.3297739440655 29.7909015621146
  endloop
endfacet
facet normal 0.6490929354164547 0.396682142760219 0.649092935416502
  outer loop
    vertex 85.10236529953727 -272.93713360434464 28.29090156502045
    vertex 81.24500532170974 -269.0797740810289 29.790901667834486
    vertex 83.6023653024433 -272.9371336043446 29.790901562114282
  endloop
endfacet
facet normal -6.110016824946179e-09 2.8168970175997585e-09 1.0
  outer loop
    vertex 34.04206988896357 -277.32977435841553 6.505620524047451
    vertex 33.69206985851378 -276.32967876739764 6.505620523605822
    vertex 33.54206988895474 -278.3297743584111 6.505620523416783
  endloop
endfacet
facet normal -6.110016824946179e-09 2.8168970175997585e-09 1.0
  outer loop
    vertex 33.69206985851378 -276.32967876739764 6.505620523605822
    vertex 34.04206988896357 -277.32977435841553 6.505620524047451
    vertex 34.042069888967916 -276.8297743584154 6.50562052404753
  endloop
endfacet
facet normal -6.110016824946179e-09 2.8168970175997585e-09 1.0
  outer loop
    vertex 30.54206987542948 -276.8297743448727 6.5056205128950815
    vertex 34.39942933396846 -269.07977436611424 6.5056204652356175
    vertex 30.54206984032999 -272.9371338488689 6.505620507044092
  endloop
endfacet
facet normal -6.110016824946179e-09 2.8168970175997585e-09 1.0
  outer loop
    vertex 34.39942933396846 -269.07977436611424 6.5056204652356175
    vertex 30.54206987542948 -276.8297743448727 6.5056205128950815
    vertex 32.04206988574826 -278.32977435908174 6.5056205215233
  endloop
endfacet
facet normal -6.110016824946179e-09 2.8168970175997585e-09 1.0
  outer loop
    vertex 34.39942933396846 -269.07977436611424 6.5056204652356175
    vertex 32.04206988574826 -278.32977435908174 6.5056205215233
    vertex 33.692069858526686 -274.8296787673977 6.505620523606036
  endloop
endfacet
facet normal -6.110016824946179e-09 2.8168970175997585e-09 1.0
  outer loop
    vertex 33.692069858526686 -274.8296787673977 6.505620523606036
    vertex 32.04206988574826 -278.32977435908174 6.5056205215233
    vertex 33.54206988895474 -278.3297743584111 6.505620523416783
  endloop
endfacet
facet normal -6.110016824946179e-09 2.8168970175997585e-09 1.0
  outer loop
    vertex 33.692069858526686 -274.8296787673977 6.505620523606036
    vertex 33.54206988895474 -278.3297743584111 6.505620523416783
    vertex 33.69206985851378 -276.32967876739764 6.505620523605822
  endloop
endfacet
facet normal -6.110016824946179e-09 2.8168970175997585e-09 1.0
  outer loop
    vertex 34.39942933396846 -269.07977436611424 6.5056204652356175
    vertex 33.692069858526686 -274.8296787673977 6.505620523606036
    vertex 34.39942937355624 -272.07977432225994 6.505620555248282
  endloop
endfacet
facet normal -6.110016824946179e-09 2.8168970175997585e-09 1.0
  outer loop
    vertex 34.39942937355624 -272.07977432225994 6.505620555248282
    vertex 33.692069858526686 -274.8296787673977 6.505620523606036
    vertex 34.542069888985154 -274.82977435841985 6.505620524678887
  endloop
endfacet
facet normal -6.110016824946179e-09 2.8168970175997585e-09 1.0
  outer loop
    vertex 34.39942937355624 -272.07977432225994 6.505620555248282
    vertex 34.542069888985154 -274.82977435841985 6.505620524678887
    vertex 34.54206989501636 -273.17977448880123 6.505620558119651
  endloop
endfacet
facet normal -6.110016824946179e-09 2.8168970175997585e-09 1.0
  outer loop
    vertex 34.39942937355624 -272.07977432225994 6.505620555248282
    vertex 34.54206989501636 -273.17977448880123 6.505620558119651
    vertex 35.64207039459837 -272.07977398923845 6.505620536526999
  endloop
endfacet
facet normal 5.287841127779521e-08 -0.8774666865270528 0.47963758613689983
  outer loop
    vertex 35.64207039459837 -272.07977398923845 6.505620536526999
    vertex 34.39942937355624 -272.07977432225994 6.505620555248282
    vertex 39.399429539570704 -272.0797739891285 6.505620537514619
  endloop
endfacet
facet normal 5.287841127779521e-08 -0.8774666865270528 0.47963758613689983
  outer loop
    vertex 39.39942946433875 -271.5741245918662 7.430674039491639
    vertex 39.399429539570704 -272.0797739891285 6.505620537514619
    vertex 34.39942937355624 -272.07977432225994 6.505620555248282
  endloop
endfacet
facet normal 5.287841127779521e-08 -0.8774666865270528 0.47963758613689983
  outer loop
    vertex 34.39942929832427 -271.5741249249977 7.430674057225258
    vertex 39.39942946433875 -271.5741245918662 7.430674039491639
    vertex 34.39942937355624 -272.07977432225994 6.505620555248282
  endloop
endfacet
facet normal -1.5457392650743838e-08 6.683128488742469e-08 -0.9999999999999978
  outer loop
    vertex 39.399429643540046 -269.07977334916734 25.290902430844355
    vertex 76.24500505162577 -272.07977399000623 25.29090166081395
    vertex 39.399429539570704 -272.0797739939104 25.290902035032662
  endloop
endfacet
facet normal -1.5457392650743838e-08 6.683128488742469e-08 -0.9999999999999978
  outer loop
    vertex 76.24500505162577 -272.07977399000623 25.29090166081395
    vertex 39.399429643540046 -269.07977334916734 25.290902430844355
    vertex 76.24500512654907 -269.0797740042282 25.290901665989967
  endloop
endfacet
facet normal -0.7071068091572549 -3.197979880713265e-09 0.707106753215839
  outer loop
    vertex 32.0420698902513 -272.9371333844102 29.790901563681526
    vertex 30.542069993025738 -276.8297739945495 28.290901525482287
    vertex 32.042069890251234 -278.32977394542354 29.79090156368155
  endloop
endfacet
facet normal -0.7071068091572549 -3.197979880713265e-09 0.707106753215839
  outer loop
    vertex 30.542069993025738 -276.8297739945495 28.290901525482287
    vertex 32.0420698902513 -272.9371333844102 29.790901563681526
    vertex 30.54206994163363 -272.93713338441023 28.29090152548224
  endloop
endfacet
facet normal -0.6490929717148971 0.3966820874002632 0.6490929329503548
  outer loop
    vertex 34.399429333637855 -269.0797739454443 29.790901644418568
    vertex 30.54206994163363 -272.93713338441023 28.29090152548224
    vertex 32.0420698902513 -272.9371333844102 29.790901563681526
  endloop
endfacet
facet normal -0.7071067799139371 0.7071067824591571 -3.376686457824824e-08
  outer loop
    vertex 30.54206994163363 -272.93713338441023 28.29090152548224
    vertex 34.39942948309966 -269.0797740022462 25.29090163838283
    vertex 30.542070044468534 -272.9371334377769 25.290901585934545
  endloop
endfacet
facet normal -0.7071067799139371 0.7071067824591571 -3.376686457824824e-08
  outer loop
    vertex 34.39942948309966 -269.0797740022462 25.29090163838283
    vertex 30.54206994163363 -272.93713338441023 28.29090152548224
    vertex 34.399429333637855 -269.0797739454443 29.790901644418568
  endloop
endfacet
facet normal 4.160821608158095e-09 -0.9048858698849342 -0.4256542757715306
  outer loop
    vertex 39.399429539570704 -272.0797739939104 25.290902035032662
    vertex 34.399429297280705 -271.5741245644233 24.215956712672966
    vertex 39.399429523871675 -271.5741245644233 24.215956694939305
  endloop
endfacet
facet normal 4.160821608158095e-09 -0.9048858698849342 -0.4256542757715306
  outer loop
    vertex 34.399429297280705 -271.5741245644233 24.215956712672966
    vertex 39.399429539570704 -272.0797739939104 25.290902035032662
    vertex 35.64207016877401 -272.07977399451784 25.290901635583193
  endloop
endfacet
facet normal 4.160821608158095e-09 -0.9048858698849342 -0.4256542757715306
  outer loop
    vertex 34.39942931297979 -272.07977399391035 25.29090205276628
    vertex 34.399429297280705 -271.5741245644233 24.215956712672966
    vertex 35.64207016877401 -272.07977399451784 25.290901635583193
  endloop
endfacet
facet normal 0.7071067871306485 -2.772572453471806e-09 0.7071067752424467
  outer loop
    vertex 85.10236525498135 -276.8297738338411 28.290901565020473
    vertex 83.6023653024433 -272.9371336043446 29.790901562114282
    vertex 83.6023653024432 -278.3297739440655 29.7909015621146
  endloop
endfacet
facet normal 0.7071067871306485 -2.772572453471806e-09 0.7071067752424467
  outer loop
    vertex 83.6023653024433 -272.9371336043446 29.790901562114282
    vertex 85.10236525498135 -276.8297738338411 28.290901565020473
    vertex 85.10236529953727 -272.93713360434464 28.29090156502045
  endloop
endfacet
facet normal -1.0681267510930504e-08 1.2788237476752897e-07 0.9999999999999918
  outer loop
    vertex 76.2450050770262 -272.07977399013623 6.505620547425267
    vertex 39.399429557692486 -269.0797733744707 6.5056197702206555
    vertex 39.399429539570704 -272.0797739891285 6.505620537514619
  endloop
endfacet
facet normal -1.0681267510930504e-08 1.2788237476752897e-07 0.9999999999999918
  outer loop
    vertex 39.399429557692486 -269.0797733744707 6.5056197702206555
    vertex 76.2450050770262 -272.07977399013623 6.505620547425267
    vertex 76.24500513272862 -269.07977399894884 6.505620547424985
  endloop
endfacet
facet normal 0.9999999999999944 1.0562093317202863e-07 -1.215458768338999e-08
  outer loop
    vertex 81.24500551175802 -272.07977328177196 11.505620531015985
    vertex 81.24500530167674 -269.07977390488816 20.29090173117914
    vertex 81.24500549987904 -272.0797736187568 20.290899314245966
  endloop
endfacet
facet normal 0.9999999999999944 1.0562093317202863e-07 -1.215458768338999e-08
  outer loop
    vertex 81.24500530167674 -269.07977390488816 20.29090173117914
    vertex 81.24500551175802 -272.07977328177196 11.505620531015985
    vertex 81.24500507623479 -269.07977343099935 11.505620558032042
  endloop
endfacet
facet normal 3.3313137907237147e-08 -0.9999999999999996 1.1558260065515959e-08
  outer loop
    vertex 39.399429523871675 -271.5741245644233 24.215956694939305
    vertex 34.39942929832427 -271.5741249249977 7.430674057225258
    vertex 39.39942946433875 -271.5741245918662 7.430674039491639
  endloop
endfacet
facet normal 3.3313137907237147e-08 -0.9999999999999996 1.1558260065515959e-08
  outer loop
    vertex 34.39942929832427 -271.5741249249977 7.430674057225258
    vertex 39.399429523871675 -271.5741245644233 24.215956694939305
    vertex 34.399429297280705 -271.5741245644233 24.215956712672966
  endloop
endfacet
facet normal 0.8944271909959844 -0.4472135955078195 3.5518682142541536e-08
  outer loop
    vertex 34.04207004440681 -277.32977399454757 25.290901623402743
    vertex 33.54206989025136 -278.32977394543667 29.790901608472318
    vertex 33.5420700443979 -278.329773994543 25.2909016084726
  endloop
endfacet
facet normal 0.8944271909959844 -0.4472135955078195 3.5518682142541536e-08
  outer loop
    vertex 33.54206989025136 -278.32977394543667 29.790901608472318
    vertex 34.04207004440681 -277.32977399454757 25.290901623402743
    vertex 34.04206989025996 -277.32977394544105 29.790901623403048
  endloop
endfacet
facet normal 0.819231920523977 0.5734623443562757 2.1804708192502444e-08
  outer loop
    vertex 33.69207004441533 -276.32977399454455 25.29090161295129
    vertex 34.04206989026434 -276.8297739454411 29.790901623402622
    vertex 34.042070044410835 -276.8297739945474 25.290901623402718
  endloop
endfacet
facet normal 0.819231920523977 0.5734623443562757 2.1804708192502444e-08
  outer loop
    vertex 34.04206989026434 -276.8297739454411 29.790901623402622
    vertex 33.69207004441533 -276.32977399454455 25.29090161295129
    vertex 33.69206989026859 -276.32977394543815 29.79090161295171
  endloop
endfacet
facet normal 1.6132694856850454e-08 1.2141481599703394e-08 -0.9999999999999998
  outer loop
    vertex 34.39942931297979 -272.07977399391035 25.29090205276628
    vertex 34.54207004442809 -274.8297739945519 25.29090163833311
    vertex 33.69207004442846 -274.82977399454444 25.290901612951586
  endloop
endfacet
facet normal 1.6132694856850454e-08 1.2141481599703394e-08 -0.9999999999999998
  outer loop
    vertex 34.54207004442809 -274.8297739945519 25.29090163833311
    vertex 34.39942931297979 -272.07977399391035 25.29090205276628
    vertex 34.542070044443 -273.1797741246387 25.290901638346984
  endloop
endfacet
facet normal 1.6132694856850454e-08 1.2141481599703394e-08 -0.9999999999999998
  outer loop
    vertex 34.542070044443 -273.1797741246387 25.290901638346984
    vertex 34.39942931297979 -272.07977399391035 25.29090205276628
    vertex 35.64207016877401 -272.07977399451784 25.290901635583193
  endloop
endfacet
facet normal 1.6132694856850454e-08 1.2141481599703394e-08 -0.9999999999999998
  outer loop
    vertex 30.542070044468534 -272.9371334377769 25.290901585934545
    vertex 32.04207004439811 -278.32977399452994 25.2909016084726
    vertex 30.542070044417752 -276.82977399454956 25.29090159017345
  endloop
endfacet
facet normal 1.6132694856850454e-08 1.2141481599703394e-08 -0.9999999999999998
  outer loop
    vertex 32.04207004439811 -278.32977399452994 25.2909016084726
    vertex 30.542070044468534 -272.9371334377769 25.290901585934545
    vertex 34.39942948309966 -269.0797740022462 25.29090163838283
  endloop
endfacet
facet normal 1.6132694856850454e-08 1.2141481599703394e-08 -0.9999999999999998
  outer loop
    vertex 32.04207004439811 -278.32977399452994 25.2909016084726
    vertex 34.39942948309966 -269.0797740022462 25.29090163838283
    vertex 33.69207004442846 -274.82977399454444 25.290901612951586
  endloop
endfacet
facet normal 1.6132694856850454e-08 1.2141481599703394e-08 -0.9999999999999998
  outer loop
    vertex 32.04207004439811 -278.32977399452994 25.2909016084726
    vertex 33.69207004442846 -274.82977399454444 25.290901612951586
    vertex 33.5420700443979 -278.329773994543 25.2909016084726
  endloop
endfacet
facet normal 1.6132694856850454e-08 1.2141481599703394e-08 -0.9999999999999998
  outer loop
    vertex 33.5420700443979 -278.329773994543 25.2909016084726
    vertex 33.69207004442846 -274.82977399454444 25.290901612951586
    vertex 33.69207004441533 -276.32977399454455 25.29090161295129
  endloop
endfacet
facet normal 1.6132694856850454e-08 1.2141481599703394e-08 -0.9999999999999998
  outer loop
    vertex 33.69207004442846 -274.82977399454444 25.290901612951586
    vertex 34.39942948309966 -269.0797740022462 25.29090163838283
    vertex 34.39942931297979 -272.07977399391035 25.29090205276628
  endloop
endfacet
facet normal 1.6132694856850454e-08 1.2141481599703394e-08 -0.9999999999999998
  outer loop
    vertex 33.69207004441533 -276.32977399454455 25.29090161295129
    vertex 34.04207004440681 -277.32977399454757 25.290901623402743
    vertex 33.5420700443979 -278.329773994543 25.2909016084726
  endloop
endfacet
facet normal 1.6132694856850454e-08 1.2141481599703394e-08 -0.9999999999999998
  outer loop
    vertex 34.04207004440681 -277.32977399454757 25.290901623402743
    vertex 33.69207004441533 -276.32977399454455 25.29090161295129
    vertex 34.042070044410835 -276.8297739945474 25.290901623402718
  endloop
endfacet
facet normal -0.9999999999999998 -6.5946655400188365e-09 -2.570448752609569e-08
  outer loop
    vertex 30.542069993025738 -276.8297739945495 28.290901525482287
    vertex 30.542070044468534 -272.9371334377769 25.290901585934545
    vertex 30.542070044417752 -276.82977399454956 25.29090159017345
  endloop
endfacet
facet normal -0.9999999999999998 -6.5946655400188365e-09 -2.570448752609569e-08
  outer loop
    vertex 30.542070044468534 -272.9371334377769 25.290901585934545
    vertex 30.542069993025738 -276.8297739945495 28.290901525482287
    vertex 30.54206994163363 -272.93713338441023 28.29090152548224
  endloop
endfacet
facet normal 5.810030702804887e-08 -0.9999999999999984 -4.54414894200903e-09
  outer loop
    vertex 81.95236509803625 -274.82977333676445 1.5056205133586822
    vertex 81.10236484893271 -274.82977343159126 11.50562048797734
    vertex 81.10236509803602 -274.8297733861497 1.5056204879772017
  endloop
endfacet
facet normal 5.810030702804887e-08 -0.9999999999999984 -4.54414894200903e-09
  outer loop
    vertex 81.10236484893271 -274.82977343159126 11.50562048797734
    vertex 81.95236509803625 -274.82977333676445 1.5056205133586822
    vertex 81.95236484893279 -274.82977338220593 11.505620513358439
  endloop
endfacet
facet normal -0.999999999999998 -5.8100280490141307e-08 -2.4910334308824937e-08
  outer loop
    vertex 81.95236484893279 -274.82977338220593 11.505620513358439
    vertex 81.95236518518655 -276.32977333676456 1.5056204950700942
    vertex 81.95236493608333 -276.32977338220604 11.505620495070437
  endloop
endfacet
facet normal -0.999999999999998 -5.8100280490141307e-08 -2.4910334308824937e-08
  outer loop
    vertex 81.95236518518655 -276.32977333676456 1.5056204950700942
    vertex 81.95236484893279 -274.82977338220593 11.505620513358439
    vertex 81.95236509803625 -274.82977333676445 1.5056205133586822
  endloop
endfacet
facet normal 7.820331771633444e-11 1.96985680769533e-09 -1.0
  outer loop
    vertex 34.39942933171687 -269.0797743030836 0.005620515713853313
    vertex 30.54206989354747 -276.82977433205144 0.005620508656402156
    vertex 30.542069888154003 -272.93713375858295 0.005620508656278078
  endloop
endfacet
facet normal 7.820331771633444e-11 1.96985680769533e-09 -1.0
  outer loop
    vertex 30.54206989354747 -276.82977433205144 0.005620508656402156
    vertex 34.39942933171687 -269.0797743030836 0.005620515713853313
    vertex 32.042069888330516 -278.3297743030629 0.005620508656605194
  endloop
endfacet
facet normal 7.820331771633444e-11 1.96985680769533e-09 -1.0
  outer loop
    vertex 32.042069888330516 -278.3297743030629 0.005620508656605194
    vertex 34.39942933171687 -269.0797743030836 0.005620515713853313
    vertex 83.6023653005221 -278.32977323683923 0.005620507089335502
  endloop
endfacet
facet normal 7.820331771633444e-11 1.96985680769533e-09 -1.0
  outer loop
    vertex 83.6023653005221 -278.32977323683923 0.005620507089335502
    vertex 34.39942933171687 -269.0797743030836 0.005620515713853313
    vertex 81.24500531978833 -269.0797733738026 0.005620539129614199
  endloop
endfacet
facet normal 7.820331771633444e-11 1.96985680769533e-09 -1.0
  outer loop
    vertex 83.6023653005221 -278.32977323683923 0.005620507089335502
    vertex 81.24500531978833 -269.0797733738026 0.005620539129614199
    vertex 85.10236526209256 -272.9371329331962 0.005620507089211423
  endloop
endfacet
facet normal 7.820331771633444e-11 1.96985680769533e-09 -1.0
  outer loop
    vertex 83.6023653005221 -278.32977323683923 0.005620507089335502
    vertex 85.10236526209256 -272.9371329331962 0.005620507089211423
    vertex 85.10236511303283 -276.82977336808494 0.005620507089290383
  endloop
endfacet
endsolid ProtoGlove
