solid ProtoGlove
facet normal 1.0 -1.7423292358422933e-09 -5.830292165699217e-10
  outer loop
    vertex -48.06029536575494 -369.1663822008935 1.5056205284382442
    vertex -48.060295359964954 -367.5163823825502 6.505620558119612
    vertex -48.06029536599616 -369.16638225216883 6.505620524678847
  endloop
endfacet
facet normal 1.0 -1.7423292358422933e-09 -5.830292165699217e-10
  outer loop
    vertex -48.060295359964954 -367.5163823825502 6.505620558119612
    vertex -48.06029536575494 -369.1663822008935 1.5056205284382442
    vertex -48.06029536603646 -367.51638233131837 1.5056205581344202
  endloop
endfacet
facet normal 0.8944271909960417 -0.44721359550770623 -4.543151750101036e-09
  outer loop
    vertex -49.06029536578556 -372.66638220088447 1.5056205234168203
    vertex -48.56029536601775 -371.6663822521645 6.505620524047412
    vertex -49.06029536602657 -372.66638225216 6.505620523416743
  endloop
endfacet
facet normal 0.8944271909960417 -0.44721359550770623 -4.543151750101036e-09
  outer loop
    vertex -48.56029536601775 -371.6663822521645 6.505620524047412
    vertex -49.06029536578556 -372.66638220088447 1.5056205234168203
    vertex -48.56029536577721 -371.666382200889 1.5056205240477596
  endloop
endfacet
facet normal -0.7071067812347912 0.7071067811383038 5.860509247651933e-09
  outer loop
    vertex -48.20293592101285 -363.41638225986316 6.5056204652355785
    vertex -52.06029536682731 -367.2737416523319 0.005620508656238598
    vertex -52.06029541465133 -367.2737417426178 6.505620507044052
  endloop
endfacet
facet normal -0.7071067812347912 0.7071067811383038 5.860509247651933e-09
  outer loop
    vertex -52.06029536682731 -367.2737416523319 0.005620508656238598
    vertex -48.20293592101285 -363.41638225986316 6.5056204652355785
    vertex -48.20293592326445 -363.4163821968325 0.005620515713813834
  endloop
endfacet
facet normal -0.9999999999999998 2.1770953477034614e-08 -8.405508977547322e-10
  outer loop
    vertex -6.357360203355545 -366.41638188375515 25.290901660813912
    vertex -6.357360122252699 -363.41638189269776 6.505620547424946
    vertex -6.357360177955114 -366.41638188388515 6.505620547425227
  endloop
endfacet
facet normal -0.9999999999999998 2.1770953477034614e-08 -8.405508977547322e-10
  outer loop
    vertex -6.357360122252699 -363.41638189269776 6.505620547424946
    vertex -6.357360203355545 -366.41638188375515 25.290901660813912
    vertex -6.357360128432238 -363.4163818979772 25.290901665989924
  endloop
endfacet
facet normal 0.7071067878149065 -0.7071067745581885 1.0490723353606338e-08
  outer loop
    vertex 1.0000000455407763 -372.66638113058815 0.005620507089296022
    vertex 2.4999997101453073 -371.1663812672465 11.50562048336985
    vertex 0.9999997973024204 -372.66638118008933 11.505620475165236
  endloop
endfacet
facet normal 0.7071067878149065 -0.7071067745581885 1.0490723353606338e-08
  outer loop
    vertex 2.4999997101453073 -371.1663812672465 11.50562048336985
    vertex 1.0000000455407763 -372.66638113058815 0.005620507089296022
    vertex 2.499999858051512 -371.1663812618339 0.005620507089250903
  endloop
endfacet
facet normal 0.9999999999999998 -2.7486878125632675e-08 -2.6547653453263742e-09
  outer loop
    vertex -43.20293569728883 -363.4163812682196 6.5056197702206155
    vertex -43.202935790642556 -365.9107324856152 7.4306740394916
    vertex -43.20293571541061 -366.4163818828775 6.505620537514579
  endloop
endfacet
facet normal 0.9999999999999998 -2.7486878125632675e-08 -2.6547653453263742e-09
  outer loop
    vertex -43.202935790642556 -365.9107324856152 7.4306740394916
    vertex -43.20293569728883 -363.4163812682196 6.5056197702206155
    vertex -43.20293573110964 -365.9107324581723 24.215956694939266
  endloop
endfacet
facet normal 0.9999999999999998 -2.7486878125632675e-08 -2.6547653453263742e-09
  outer loop
    vertex -43.20293573110964 -365.9107324581723 24.215956694939266
    vertex -43.20293561144127 -363.41638124291626 25.290902430844312
    vertex -43.20293571541061 -366.4163818876594 25.290902035032623
  endloop
endfacet
facet normal 0.9999999999999998 -2.7486878125632675e-08 -2.6547653453263742e-09
  outer loop
    vertex -43.20293561144127 -363.41638124291626 25.290902430844312
    vertex -43.20293573110964 -365.9107324581723 24.215956694939266
    vertex -43.20293569728883 -363.4163812682196 6.5056197702206155
  endloop
endfacet
facet normal 2.0792955920952727e-08 -0.9999999999999998 -5.913046981069681e-09
  outer loop
    vertex -50.5602953666508 -372.6663821968118 0.005620508656565715
    vertex -49.06029536578556 -372.66638220088447 1.5056205234168203
    vertex -50.56029536923305 -372.6663822528307 6.50562052152326
  endloop
endfacet
facet normal 2.0792955920952727e-08 -0.9999999999999998 -5.913046981069681e-09
  outer loop
    vertex -49.06029536578556 -372.66638220088447 1.5056205234168203
    vertex -50.5602953666508 -372.6663821968118 0.005620508656565715
    vertex -0.4999999535940441 -372.6663812217983 1.5056204751653663
  endloop
endfacet
facet normal 2.0792955920952727e-08 -0.9999999999999998 -5.913046981069681e-09
  outer loop
    vertex -50.56029536923305 -372.6663822528307 6.50562052152326
    vertex -49.06029536578556 -372.66638220088447 1.5056205234168203
    vertex -49.06029536602657 -372.66638225216 6.505620523416743
  endloop
endfacet
facet normal 2.0792955920952727e-08 -0.9999999999999998 -5.913046981069681e-09
  outer loop
    vertex 1.0000000455407763 -372.66638113058815 0.005620507089296022
    vertex -0.4999999535940441 -372.6663812217983 1.5056204751653663
    vertex -50.5602953666508 -372.6663821968118 0.005620508656565715
  endloop
endfacet
facet normal 2.0792955920952727e-08 -0.9999999999999998 -5.913046981069681e-09
  outer loop
    vertex -0.4999999535940441 -372.6663812217983 1.5056204751653663
    vertex 1.0000000455407763 -372.66638113058815 0.005620507089296022
    vertex 0.9999997973024204 -372.66638118008933 11.505620475165236
  endloop
endfacet
facet normal 2.0792955920952727e-08 -0.9999999999999998 -5.913046981069681e-09
  outer loop
    vertex -0.4999999535940441 -372.6663812217983 1.5056204751653663
    vertex 0.9999997973024204 -372.66638118008933 11.505620475165236
    vertex -0.5000002026973963 -372.66638126723984 11.505620475165326
  endloop
endfacet
facet normal 9.73246550604413e-10 -2.5903991037115096e-09 1.0
  outer loop
    vertex -46.960294866454454 -366.4163818317556 1.505620541687823
    vertex -48.06029536603646 -367.51638233131837 1.5056205581344202
    vertex -48.06029536575494 -369.1663822008935 1.5056205284382442
  endloop
endfacet
facet normal 9.73246550604413e-10 -2.5903991037115096e-09 1.0
  outer loop
    vertex -48.56029536577274 -371.166382200889 1.5056205278072374
    vertex -48.9102953962142 -369.16628660987124 1.5056205273652583
    vertex -48.9102953962274 -370.6662866098713 1.505620527365281
  endloop
endfacet
facet normal 9.73246550604413e-10 -2.5903991037115096e-09 1.0
  outer loop
    vertex -48.9102953962142 -369.16628660987124 1.5056205273652583
    vertex -48.56029536577274 -371.166382200889 1.5056205278072374
    vertex -48.06029536575494 -369.1663822008935 1.5056205284382442
  endloop
endfacet
facet normal 9.73246550604413e-10 -2.5903991037115096e-09 1.0
  outer loop
    vertex -0.4999999535940441 -372.6663812217983 1.5056204751653663
    vertex -48.56029536577721 -371.666382200889 1.5056205240477596
    vertex -49.06029536578556 -372.66638220088447 1.5056205234168203
  endloop
endfacet
facet normal 9.73246550604413e-10 -2.5903991037115096e-09 1.0
  outer loop
    vertex -48.56029536577721 -371.666382200889 1.5056205240477596
    vertex -0.4999999535940441 -372.6663812217983 1.5056204751653663
    vertex -48.56029536577274 -371.166382200889 1.5056205278072374
  endloop
endfacet
facet normal 9.73246550604413e-10 -2.5903991037115096e-09 1.0
  outer loop
    vertex -48.56029536577274 -371.166382200889 1.5056205278072374
    vertex -0.4999999535940441 -372.6663812217983 1.5056204751653663
    vertex -48.06029536575494 -369.1663822008935 1.5056205284382442
  endloop
endfacet
facet normal 9.73246550604413e-10 -2.5903991037115096e-09 1.0
  outer loop
    vertex -48.06029536575494 -369.1663822008935 1.5056205284382442
    vertex -0.4999999535940441 -372.6663812217983 1.5056204751653663
    vertex -46.960294866454454 -366.4163818317556 1.505620541687823
  endloop
endfacet
facet normal 9.73246550604413e-10 -2.5903991037115096e-09 1.0
  outer loop
    vertex -46.960294866454454 -366.4163818317556 1.505620541687823
    vertex -0.4999999535940441 -372.6663812217983 1.5056204751653663
    vertex -1.0000000116943542 -371.6663812508485 1.5056204724271
  endloop
endfacet
facet normal 9.73246550604413e-10 -2.5903991037115096e-09 1.0
  outer loop
    vertex -46.960294866454454 -366.4163818317556 1.505620541687823
    vertex -1.0000000116943542 -371.6663812508485 1.5056204724271
    vertex -2.6000004473548306 -366.41638134380906 1.505620456568804
  endloop
endfacet
facet normal 9.73246550604413e-10 -2.5903991037115096e-09 1.0
  outer loop
    vertex -2.6000004473548306 -366.41638134380906 1.505620456568804
    vertex -1.0000000116943542 -371.6663812508485 1.5056204724271
    vertex -1.5000001569452994 -369.16638127989864 1.5056204879771622
  endloop
endfacet
facet normal 9.73246550604413e-10 -2.5903991037115096e-09 1.0
  outer loop
    vertex -2.6000004473548306 -366.41638134380906 1.505620456568804
    vertex -1.5000001569452994 -369.16638127989864 1.5056204879771622
    vertex -1.5000002528104661 -367.5163814103237 1.5056205080939344
  endloop
endfacet
facet normal 9.73246550604413e-10 -2.5903991037115096e-09 1.0
  outer loop
    vertex -1.5000001569452994 -369.16638127989864 1.5056204879771622
    vertex -1.0000000116943542 -371.6663812508485 1.5056204724271
    vertex -1.0000000407444756 -371.1663812508484 1.505620478523405
  endloop
endfacet
facet normal 9.73246550604413e-10 -2.5903991037115096e-09 1.0
  outer loop
    vertex -1.0000000407444756 -371.1663812508484 1.505620478523405
    vertex -0.6500001569450642 -369.1663812305134 1.5056205133586427
    vertex -1.5000001569452994 -369.16638127989864 1.5056204879771622
  endloop
endfacet
facet normal 9.73246550604413e-10 -2.5903991037115096e-09 1.0
  outer loop
    vertex -0.6500001569450642 -369.1663812305134 1.5056205133586427
    vertex -1.0000000407444756 -371.1663812508484 1.505620478523405
    vertex -0.6500000697947671 -370.6663812305135 1.5056204950700547
  endloop
endfacet
facet normal -0.7071067788435026 -0.7071067835295924 -4.870353813382747e-09
  outer loop
    vertex -50.5602953666508 -372.6663821968118 0.005620508656565715
    vertex -52.06029537955183 -371.1663822386217 6.505620512895042
    vertex -52.060295361433845 -371.1663822258004 0.005620508656362677
  endloop
endfacet
facet normal -0.7071067788435026 -0.7071067835295924 -4.870353813382747e-09
  outer loop
    vertex -52.06029537955183 -371.1663822386217 6.505620512895042
    vertex -50.5602953666508 -372.6663821968118 0.005620508656565715
    vertex -50.56029536923305 -372.6663822528307 6.50562052152326
  endloop
endfacet
facet normal -1.0 -5.201219892135192e-09 -5.072462038350998e-09
  outer loop
    vertex -52.06029541465133 -367.2737417426178 6.505620507044052
    vertex -52.060295361433845 -371.1663822258004 0.005620508656362677
    vertex -52.06029537955183 -371.1663822386217 6.505620512895042
  endloop
endfacet
facet normal -1.0 -5.201219892135192e-09 -5.072462038350998e-09
  outer loop
    vertex -52.060295361433845 -371.1663822258004 0.005620508656362677
    vertex -52.06029541465133 -367.2737417426178 6.505620507044052
    vertex -52.06029536682731 -367.2737416523319 0.005620508656238598
  endloop
endfacet
facet normal 0.707106742957777 0.7071068194153158 1.6391046063406182e-08
  outer loop
    vertex -1.3573599351929841 -363.4163812675515 0.00562053912957472
    vertex 2.499999483965068 -367.27374053619883 11.505620563450636
    vertex 2.50000000711124 -367.27374082694513 0.005620507089171944
  endloop
endfacet
facet normal 0.707106742957777 0.7071068194153158 1.6391046063406182e-08
  outer loop
    vertex 2.499999483965068 -367.27374053619883 11.505620563450636
    vertex -1.3573599351929841 -363.4163812675515 0.00562053912957472
    vertex -1.3573601787465184 -363.41638132474833 11.505620558032003
  endloop
endfacet
facet normal 0.9999999999999996 9.905939340938975e-09 2.917618999167193e-08
  outer loop
    vertex 2.499999858051512 -371.1663812618339 0.005620507089250903
    vertex 2.499999483965068 -367.27374053619883 11.505620563450636
    vertex 2.4999997101453073 -371.1663812672465 11.50562048336985
  endloop
endfacet
facet normal 0.9999999999999996 9.905939340938975e-09 2.917618999167193e-08
  outer loop
    vertex 2.499999483965068 -367.27374053619883 11.505620563450636
    vertex 2.499999858051512 -371.1663812618339 0.005620507089250903
    vertex 2.50000000711124 -367.27374082694513 0.005620507089171944
  endloop
endfacet
facet normal -0.999999999999998 -5.8100221499435784e-08 -2.491035009967224e-08
  outer loop
    vertex -1.500000501914157 -367.516381455427 11.505620508079817
    vertex -1.5000001569452994 -369.16638127989864 1.5056204879771622
    vertex -1.5000004060486067 -369.1663813253402 11.505620487977302
  endloop
endfacet
facet normal -0.999999999999998 -5.8100221499435784e-08 -2.491035009967224e-08
  outer loop
    vertex -1.5000001569452994 -369.16638127989864 1.5056204879771622
    vertex -1.500000501914157 -367.516381455427 11.505620508079817
    vertex -1.5000002528104661 -367.5163814103237 1.5056205080939344
  endloop
endfacet
facet normal 0.00011251216245278249 -0.9999999936705064 -1.9659661125344114e-08
  outer loop
    vertex -0.650000143841932 -369.1662861588289 20.290901602705173
    vertex -1.5000001558893574 -369.1663819830654 29.79090159787146
    vertex -1.5000001742947373 -369.166381799229 20.290901601631283
  endloop
endfacet
facet normal 0.00011251216245278249 -0.9999999936705064 -1.9659661125344114e-08
  outer loop
    vertex -1.5000001558893574 -369.1663819830654 29.79090159787146
    vertex -0.650000143841932 -369.1662861588289 20.290901602705173
    vertex -0.6500001236810441 -369.1662863199838 27.79090160270518
  endloop
endfacet
facet normal 0.00011251216245278249 -0.9999999936705064 -1.9659661125344114e-08
  outer loop
    vertex -1.5000001558893574 -369.1663819830654 29.79090159787146
    vertex -0.6500001236810441 -369.1662863199838 27.79090160270518
    vertex -0.6500001254357852 -369.16628634266533 29.79090159894587
  endloop
endfacet
facet normal -0.9999999999999982 -5.983399884952928e-08 2.2696349145848983e-09
  outer loop
    vertex -1.500000251459285 -367.51638211349035 29.790901588292666
    vertex -1.5000001742947373 -369.166381799229 20.290901601631283
    vertex -1.5000001558893574 -369.1663819830654 29.79090159787146
  endloop
endfacet
facet normal -0.9999999999999982 -5.983399884952928e-08 2.2696349145848983e-09
  outer loop
    vertex -1.5000001742947373 -369.166381799229 20.290901601631283
    vertex -1.500000251459285 -367.51638211349035 29.790901588292666
    vertex -1.5000002761769904 -367.51638192961036 20.290901588307324
  endloop
endfacet
facet normal -0.9999999999999984 -5.6915490169922765e-08 2.0458115643271885e-09
  outer loop
    vertex -0.6500001254357852 -369.16628634266533 29.79090159894587
    vertex -0.6500000566915447 -370.66628615882894 20.290901584417057
    vertex -0.6500000382851496 -370.66628634266533 29.79090158065807
  endloop
endfacet
facet normal -0.9999999999999984 -5.6915490169922765e-08 2.0458115643271885e-09
  outer loop
    vertex -0.6500000566915447 -370.66628615882894 20.290901584417057
    vertex -0.6500001254357852 -369.16628634266533 29.79090159894587
    vertex -0.6500001236810441 -369.1662863199838 27.79090160270518
  endloop
endfacet
facet normal -0.9999999999999984 -5.6915490169922765e-08 2.0458115643271885e-09
  outer loop
    vertex -0.6500000566915447 -370.66628615882894 20.290901584417057
    vertex -0.6500001236810441 -369.1662863199838 27.79090160270518
    vertex -0.650000143841932 -369.1662861588289 20.290901602705173
  endloop
endfacet
facet normal -0.9999999999999984 -5.810040112876125e-08 1.9374749550591804e-09
  outer loop
    vertex -1.000000039688353 -371.16638195401526 29.790901574118344
    vertex -1.0000000290441753 -371.66638177017893 20.290901571782346
    vertex -1.0000000106380285 -371.6663819540151 29.790901571781852
  endloop
endfacet
facet normal -0.9999999999999984 -5.810040112876125e-08 1.9374749550591804e-09
  outer loop
    vertex -1.0000000290441753 -371.66638177017893 20.290901571782346
    vertex -1.000000039688353 -371.16638195401526 29.790901574118344
    vertex -1.0000000580942519 -371.16638177017876 20.290901577878188
  endloop
endfacet
facet normal 0.7071067382008049 0.7071068241722874 1.2807856390658165e-08
  outer loop
    vertex -1.3573599533045686 -363.41638179863713 20.2909017311791
    vertex 2.500000044555951 -367.27374149809356 28.290901565020413
    vertex 2.499999764414051 -367.2737410573116 20.290901642341133
  endloop
endfacet
facet normal 0.7071067382008049 0.7071068241722874 1.2807856390658165e-08
  outer loop
    vertex 2.500000044555951 -367.27374149809356 28.290901565020413
    vertex -1.3573599533045686 -363.41638179863713 20.2909017311791
    vertex -1.3573599343698923 -363.4163819775312 25.29090173117909
  endloop
endfacet
facet normal 0.7071067382008049 0.7071068241722874 1.2807856390658165e-08
  outer loop
    vertex 2.500000044555951 -367.27374149809356 28.290901565020413
    vertex -1.3573599343698923 -363.4163819775312 25.29090173117909
    vertex -1.3573599332715718 -363.4163819747779 29.790901667834447
  endloop
endfacet
facet normal -0.8192834271826765 0.573388756380702 1.2683116720266416e-08
  outer loop
    vertex -0.6500000382851496 -370.66628634266533 29.79090158065807
    vertex -1.0000000580942519 -371.16638177017876 20.290901577878188
    vertex -1.000000039688353 -371.16638195401526 29.790901574118344
  endloop
endfacet
facet normal -0.8192834271826765 0.573388756380702 1.2683116720266416e-08
  outer loop
    vertex -1.0000000580942519 -371.16638177017876 20.290901577878188
    vertex -0.6500000382851496 -370.66628634266533 29.79090158065807
    vertex -0.6500000566915447 -370.66628615882894 20.290901584417057
  endloop
endfacet
facet normal -7.009683378865659e-09 -1.121945590291037e-08 1.0
  outer loop
    vertex -1.500000501914157 -367.516381455427 11.505620508079817
    vertex -1.357359743223292 -366.41638117552094 11.505620531015946
    vertex -2.600000690146128 -366.4163813892069 11.505620524255132
  endloop
endfacet
facet normal -7.009683378865659e-09 -1.121945590291037e-08 1.0
  outer loop
    vertex -1.357359743223292 -366.41638117552094 11.505620531015946
    vertex -1.500000501914157 -367.516381455427 11.505620508079817
    vertex -1.5000004060486067 -369.1663813253402 11.505620487977302
  endloop
endfacet
facet normal -7.009683378865659e-09 -1.121945590291037e-08 1.0
  outer loop
    vertex -1.357359743223292 -366.41638117552094 11.505620531015946
    vertex -1.5000004060486067 -369.1663813253402 11.505620487977302
    vertex -0.6500004060485293 -369.1663812759549 11.505620513358398
  endloop
endfacet
facet normal -7.009683378865659e-09 -1.121945590291037e-08 1.0
  outer loop
    vertex -1.0000002607979546 -371.66638129629007 11.505620472427037
    vertex -0.6500003188979839 -370.666381275955 11.505620495070398
    vertex -1.0000002898477829 -371.1663812962899 11.505620478523138
  endloop
endfacet
facet normal -7.009683378865659e-09 -1.121945590291037e-08 1.0
  outer loop
    vertex -0.6500003188979839 -370.666381275955 11.505620495070398
    vertex -1.0000002607979546 -371.66638129629007 11.505620472427037
    vertex -0.5000002026973963 -372.66638126723984 11.505620475165326
  endloop
endfacet
facet normal -7.009683378865659e-09 -1.121945590291037e-08 1.0
  outer loop
    vertex -1.357359743223292 -366.41638117552094 11.505620531015946
    vertex 2.499999483965068 -367.27374053619883 11.505620563450636
    vertex -1.3573601787465184 -363.41638132474833 11.505620558032003
  endloop
endfacet
facet normal -7.009683378865659e-09 -1.121945590291037e-08 1.0
  outer loop
    vertex 2.499999483965068 -367.27374053619883 11.505620563450636
    vertex -1.357359743223292 -366.41638117552094 11.505620531015946
    vertex -0.6500004060485293 -369.1663812759549 11.505620513358398
  endloop
endfacet
facet normal -7.009683378865659e-09 -1.121945590291037e-08 1.0
  outer loop
    vertex 2.499999483965068 -367.27374053619883 11.505620563450636
    vertex -0.6500004060485293 -369.1663812759549 11.505620513358398
    vertex -0.6500003188979839 -370.666381275955 11.505620495070398
  endloop
endfacet
facet normal -7.009683378865659e-09 -1.121945590291037e-08 1.0
  outer loop
    vertex 2.499999483965068 -367.27374053619883 11.505620563450636
    vertex -0.6500003188979839 -370.666381275955 11.505620495070398
    vertex -0.5000002026973963 -372.66638126723984 11.505620475165326
  endloop
endfacet
facet normal -7.009683378865659e-09 -1.121945590291037e-08 1.0
  outer loop
    vertex 2.499999483965068 -367.27374053619883 11.505620563450636
    vertex -0.5000002026973963 -372.66638126723984 11.505620475165326
    vertex 0.9999997973024204 -372.66638118008933 11.505620475165236
  endloop
endfacet
facet normal -7.009683378865659e-09 -1.121945590291037e-08 1.0
  outer loop
    vertex 2.499999483965068 -367.27374053619883 11.505620563450636
    vertex 0.9999997973024204 -372.66638118008933 11.505620475165236
    vertex 2.4999997101453073 -371.1663812672465 11.50562048336985
  endloop
endfacet
facet normal 5.810033345765798e-08 -0.9999999999999982 -1.9351187170002754e-08
  outer loop
    vertex 1.0000000290563575 -372.6663816539782 20.290901562114417
    vertex -0.499999952538102 -372.666381924965 29.79090156022087
    vertex -0.4999999709437074 -372.6663817411287 20.290901560220977
  endloop
endfacet
facet normal 5.810033345765798e-08 -0.9999999999999982 -1.9351187170002754e-08
  outer loop
    vertex -0.499999952538102 -372.666381924965 29.79090156022087
    vertex 1.0000000290563575 -372.6663816539782 20.290901562114417
    vertex 1.0000000474618953 -372.66638183781447 29.790901562114556
  endloop
endfacet
facet normal -0.00011246887696881141 -0.9999999936753758 -1.0255077423698334e-08
  outer loop
    vertex -48.06029536575494 -369.1663822008935 1.5056205284382442
    vertex -48.910295397680684 -369.1662866129271 4.005620523605911
    vertex -48.9102953962142 -369.16628660987124 1.5056205273652583
  endloop
endfacet
facet normal -0.00011246887696881141 -0.9999999936753758 -1.0255077423698334e-08
  outer loop
    vertex -48.910295397680684 -369.1662866129271 4.005620523605911
    vertex -48.06029536575494 -369.1663822008935 1.5056205284382442
    vertex -48.06029536599616 -369.16638225216883 6.505620524678847
  endloop
endfacet
facet normal -0.00011246887696881141 -0.9999999936753758 -1.0255077423698334e-08
  outer loop
    vertex -48.910295397680684 -369.1662866129271 4.005620523605911
    vertex -48.06029536599616 -369.16638225216883 6.505620524678847
    vertex -48.91029539645463 -369.1662866611466 6.505620523605997
  endloop
endfacet
facet normal -9.730341589002162e-09 1.0 2.0543766814020817e-09
  outer loop
    vertex -48.20293592101285 -363.41638225986316 6.5056204652355785
    vertex -1.3573599351929841 -363.4163812675515 0.00562053912957472
    vertex -48.20293592326445 -363.4163821968325 0.005620515713813834
  endloop
endfacet
facet normal -9.730341589002162e-09 1.0 2.0543766814020817e-09
  outer loop
    vertex -1.3573599351929841 -363.4163812675515 0.00562053912957472
    vertex -48.20293592101285 -363.41638225986316 6.5056204652355785
    vertex -43.20293569728883 -363.4163812682196 6.5056197702206155
  endloop
endfacet
facet normal -9.730341589002162e-09 1.0 2.0543766814020817e-09
  outer loop
    vertex -43.20293569728883 -363.4163812682196 6.5056197702206155
    vertex -48.20293592101285 -363.41638225986316 6.5056204652355785
    vertex -43.20293561144127 -363.41638124291626 25.290902430844312
  endloop
endfacet
facet normal -9.730341589002162e-09 1.0 2.0543766814020817e-09
  outer loop
    vertex -43.20293561144127 -363.41638124291626 25.290902430844312
    vertex -48.20293592101285 -363.41638225986316 6.5056204652355785
    vertex -48.20293577188165 -363.41638189599513 25.290901638382792
  endloop
endfacet
facet normal -9.730341589002162e-09 1.0 2.0543766814020817e-09
  outer loop
    vertex -43.20293561144127 -363.41638124291626 25.290902430844312
    vertex -48.20293577188165 -363.41638189599513 25.290901638382792
    vertex -48.20293592134346 -363.4163818391932 29.79090164441853
  endloop
endfacet
facet normal -9.730341589002162e-09 1.0 2.0543766814020817e-09
  outer loop
    vertex -1.3573599351929841 -363.4163812675515 0.00562053912957472
    vertex -6.357360122252699 -363.41638189269776 6.505620547424946
    vertex -1.3573601787465184 -363.41638132474833 11.505620558032003
  endloop
endfacet
facet normal -9.730341589002162e-09 1.0 2.0543766814020817e-09
  outer loop
    vertex -6.357360122252699 -363.41638189269776 6.505620547424946
    vertex -1.3573599351929841 -363.4163812675515 0.00562053912957472
    vertex -43.20293569728883 -363.4163812682196 6.5056197702206155
  endloop
endfacet
facet normal -9.730341589002162e-09 1.0 2.0543766814020817e-09
  outer loop
    vertex -1.3573601787465184 -363.41638132474833 11.505620558032003
    vertex -6.357360122252699 -363.41638189269776 6.505620547424946
    vertex -6.357360128432238 -363.4163818979772 25.290901665989924
  endloop
endfacet
facet normal -9.730341589002162e-09 1.0 2.0543766814020817e-09
  outer loop
    vertex -1.3573601787465184 -363.41638132474833 11.505620558032003
    vertex -6.357360128432238 -363.4163818979772 25.290901665989924
    vertex -1.3573599533045686 -363.41638179863713 20.2909017311791
  endloop
endfacet
facet normal -9.730341589002162e-09 1.0 2.0543766814020817e-09
  outer loop
    vertex -1.3573599533045686 -363.41638179863713 20.2909017311791
    vertex -6.357360128432238 -363.4163818979772 25.290901665989924
    vertex -1.3573599343698923 -363.4163819775312 25.29090173117909
  endloop
endfacet
facet normal -9.730341589002162e-09 1.0 2.0543766814020817e-09
  outer loop
    vertex -1.3573599343698923 -363.4163819775312 25.29090173117909
    vertex -6.357360128432238 -363.4163818979772 25.290901665989924
    vertex -43.20293561144127 -363.41638124291626 25.290902430844312
  endloop
endfacet
facet normal -9.730341589002162e-09 1.0 2.0543766814020817e-09
  outer loop
    vertex -1.3573599343698923 -363.4163819775312 25.29090173117909
    vertex -43.20293561144127 -363.41638124291626 25.290902430844312
    vertex -1.5000005130633567 -363.41638161391785 29.790901654726294
  endloop
endfacet
facet normal -9.730341589002162e-09 1.0 2.0543766814020817e-09
  outer loop
    vertex -1.5000005130633567 -363.41638161391785 29.790901654726294
    vertex -43.20293561144127 -363.41638124291626 25.290902430844312
    vertex -48.20293592134346 -363.4163818391932 29.79090164441853
  endloop
endfacet
facet normal 0.7071067820803378 -0.7071067802927566 3.141221176164279e-08
  outer loop
    vertex -46.9602950862073 -366.4163818882668 25.290901635583154
    vertex -48.06029536468528 -367.51638196961954 29.790901638333086
    vertex -48.060295210538314 -367.5163820183877 25.290901638346945
  endloop
endfacet
facet normal 0.7071067820803378 -0.7071067802927566 3.141221176164279e-08
  outer loop
    vertex -48.06029536468528 -367.51638196961954 29.790901638333086
    vertex -46.9602950862073 -366.4163818882668 25.290901635583154
    vertex -46.960295234041695 -366.4163818392041 29.790901703269444
  endloop
endfacet
facet normal 0.7071067811803768 -0.7071067811927182 -8.103911746315231e-09
  outer loop
    vertex -46.960294860382945 -366.41638188298737 6.505620536526959
    vertex -48.06029536603646 -367.51638233131837 1.5056205581344202
    vertex -46.960294866454454 -366.4163818317556 1.505620541687823
  endloop
endfacet
facet normal 0.7071067811803768 -0.7071067811927182 -8.103911746315231e-09
  outer loop
    vertex -48.06029536603646 -367.51638233131837 1.5056205581344202
    vertex -46.960294860382945 -366.41638188298737 6.505620536526959
    vertex -48.060295359964954 -367.5163823825502 6.505620558119612
  endloop
endfacet
facet normal -0.9999999999999996 2.8994539296039178e-08 1.6767572167325426e-09
  outer loop
    vertex -48.20293577188165 -363.41638189599513 25.290901638382792
    vertex -48.20293595770061 -365.9107324581722 24.215956712672927
    vertex -48.202935942001524 -366.4163818876593 25.290902052766242
  endloop
endfacet
facet normal -0.9999999999999996 2.8994539296039178e-08 1.6767572167325426e-09
  outer loop
    vertex -48.20293595770061 -365.9107324581722 24.215956712672927
    vertex -48.20293577188165 -363.41638189599513 25.290901638382792
    vertex -48.20293592101285 -363.41638225986316 6.5056204652355785
  endloop
endfacet
facet normal -0.9999999999999996 2.8994539296039178e-08 1.6767572167325426e-09
  outer loop
    vertex -48.20293595665704 -365.9107328187466 7.430674057225218
    vertex -48.20293592101285 -363.41638225986316 6.5056204652355785
    vertex -48.20293588142508 -366.41638221600886 6.505620555248243
  endloop
endfacet
facet normal -0.9999999999999996 2.8994539296039178e-08 1.6767572167325426e-09
  outer loop
    vertex -48.20293592101285 -363.41638225986316 6.5056204652355785
    vertex -48.20293595665704 -365.9107328187466 7.430674057225218
    vertex -48.20293595770061 -365.9107324581722 24.215956712672927
  endloop
endfacet
facet normal -0.999999999999998 -5.809994961406162e-08 -2.4910345588690152e-08
  outer loop
    vertex -1.0000002898477829 -371.1663812962899 11.505620478523138
    vertex -1.0000000116943542 -371.6663812508485 1.5056204724271
    vertex -1.0000002607979546 -371.66638129629007 11.505620472427037
  endloop
endfacet
facet normal -0.999999999999998 -5.809994961406162e-08 -2.4910345588690152e-08
  outer loop
    vertex -1.0000000116943542 -371.6663812508485 1.5056204724271
    vertex -1.0000002898477829 -371.1663812962899 11.505620478523138
    vertex -1.0000000407444756 -371.1663812508484 1.505620478523405
  endloop
endfacet
facet normal -0.8192319538373556 0.573462296765732 -1.7801436243507727e-08
  outer loop
    vertex -0.6500003188979839 -370.666381275955 11.505620495070398
    vertex -1.0000000407444756 -371.1663812508484 1.505620478523405
    vertex -1.0000002898477829 -371.1663812962899 11.505620478523138
  endloop
endfacet
facet normal -0.8192319538373556 0.573462296765732 -1.7801436243507727e-08
  outer loop
    vertex -1.0000000407444756 -371.1663812508484 1.505620478523405
    vertex -0.6500003188979839 -370.666381275955 11.505620495070398
    vertex -0.6500000697947671 -370.6663812305135 1.5056204950700547
  endloop
endfacet
facet normal -0.7071067401034289 -0.7071068222696637 -1.184680600630827e-08
  outer loop
    vertex -1.500000251459285 -367.51638211349035 29.790901588292666
    vertex -2.6000008396598484 -366.41638149394834 20.290901623311704
    vertex -1.5000002761769904 -367.51638192961036 20.290901588307324
  endloop
endfacet
facet normal -0.7071067401034289 -0.7071068222696637 -1.184680600630827e-08
  outer loop
    vertex -2.6000008396598484 -366.41638149394834 20.290901623311704
    vertex -1.500000251459285 -367.51638211349035 29.790901588292666
    vertex -2.6000008149418945 -366.4163816778283 29.79090161815045
  endloop
endfacet
facet normal 8.034870010541241e-09 -1.0 -4.905231156013598e-09
  outer loop
    vertex -2.6000004473548306 -366.41638134380906 1.505620456568804
    vertex -6.357360177955114 -366.41638188388515 6.505620547425227
    vertex -46.960294866454454 -366.4163818317556 1.505620541687823
  endloop
endfacet
facet normal 8.034870010541241e-09 -1.0 -4.905231156013598e-09
  outer loop
    vertex -6.357360177955114 -366.41638188388515 6.505620547425227
    vertex -2.6000004473548306 -366.41638134380906 1.505620456568804
    vertex -2.600000690146128 -366.4163813892069 11.505620524255132
  endloop
endfacet
facet normal 8.034870010541241e-09 -1.0 -4.905231156013598e-09
  outer loop
    vertex -46.960294866454454 -366.4163818317556 1.505620541687823
    vertex -6.357360177955114 -366.41638188388515 6.505620547425227
    vertex -43.20293571541061 -366.4163818828775 6.505620537514579
  endloop
endfacet
facet normal 8.034870010541241e-09 -1.0 -4.905231156013598e-09
  outer loop
    vertex -46.960294866454454 -366.4163818317556 1.505620541687823
    vertex -43.20293571541061 -366.4163818828775 6.505620537514579
    vertex -46.960294860382945 -366.41638188298737 6.505620536526959
  endloop
endfacet
facet normal 8.034870010541241e-09 -1.0 -4.905231156013598e-09
  outer loop
    vertex -6.357360177955114 -366.41638188388515 6.505620547425227
    vertex -2.600000690146128 -366.4163813892069 11.505620524255132
    vertex -6.357360203355545 -366.41638188375515 25.290901660813912
  endloop
endfacet
facet normal 8.034870010541241e-09 -1.0 -4.905231156013598e-09
  outer loop
    vertex -6.357360203355545 -366.41638188375515 25.290901660813912
    vertex -2.600000690146128 -366.4163813892069 11.505620524255132
    vertex -1.357359743223292 -366.41638117552094 11.505620531015946
  endloop
endfacet
facet normal 8.034870010541241e-09 -1.0 -4.905231156013598e-09
  outer loop
    vertex -6.357360203355545 -366.41638188375515 25.290901660813912
    vertex -1.357359743223292 -366.41638117552094 11.505620531015946
    vertex -2.6000008396598484 -366.41638149394834 20.290901623311704
  endloop
endfacet
facet normal 8.034870010541241e-09 -1.0 -4.905231156013598e-09
  outer loop
    vertex -2.6000008396598484 -366.41638149394834 20.290901623311704
    vertex -1.357359743223292 -366.41638117552094 11.505620531015946
    vertex -1.357359755102277 -366.4163815125057 20.290899314245927
  endloop
endfacet
facet normal 8.034870010541241e-09 -1.0 -4.905231156013598e-09
  outer loop
    vertex -6.357360203355545 -366.41638188375515 25.290901660813912
    vertex -2.6000008396598484 -366.41638149394834 20.290901623311704
    vertex -2.6000008149418945 -366.4163816778283 29.79090161815045
  endloop
endfacet
facet normal 8.034870010541241e-09 -1.0 -4.905231156013598e-09
  outer loop
    vertex -6.357360203355545 -366.41638188375515 25.290901660813912
    vertex -2.6000008149418945 -366.4163816778283 29.79090161815045
    vertex -43.20293571541061 -366.4163818876594 25.290902035032623
  endloop
endfacet
facet normal 8.034870010541241e-09 -1.0 -4.905231156013598e-09
  outer loop
    vertex -43.20293571541061 -366.4163818876594 25.290902035032623
    vertex -46.960295234041695 -366.4163818392041 29.790901703269444
    vertex -46.9602950862073 -366.4163818882668 25.290901635583154
  endloop
endfacet
facet normal 8.034870010541241e-09 -1.0 -4.905231156013598e-09
  outer loop
    vertex -46.960295234041695 -366.4163818392041 29.790901703269444
    vertex -43.20293571541061 -366.4163818876594 25.290902035032623
    vertex -2.6000008149418945 -366.4163816778283 29.79090161815045
  endloop
endfacet
facet normal -0.8944271650166147 -0.44721364746655584 -2.4312701669812106e-08
  outer loop
    vertex -1.0000002607979546 -371.66638129629007 11.505620472427037
    vertex -0.4999999535940441 -372.6663812217983 1.5056204751653663
    vertex -0.5000002026973963 -372.66638126723984 11.505620475165326
  endloop
endfacet
facet normal -0.8944271650166147 -0.44721364746655584 -2.4312701669812106e-08
  outer loop
    vertex -0.4999999535940441 -372.6663812217983 1.5056204751653663
    vertex -1.0000002607979546 -371.66638129629007 11.505620472427037
    vertex -1.0000000116943542 -371.6663812508485 1.5056204724271
  endloop
endfacet
facet normal -0.8944271650166997 -0.4472136474663863 -6.921194328490962e-09
  outer loop
    vertex -1.0000000106380285 -371.6663819540151 29.790901571781852
    vertex -0.4999999709437074 -372.6663817411287 20.290901560220977
    vertex -0.499999952538102 -372.666381924965 29.79090156022087
  endloop
endfacet
facet normal -0.8944271650166997 -0.4472136474663863 -6.921194328490962e-09
  outer loop
    vertex -0.4999999709437074 -372.6663817411287 20.290901560220977
    vertex -1.0000000106380285 -371.6663819540151 29.790901571781852
    vertex -1.0000000290441753 -371.66638177017893 20.290901571782346
  endloop
endfacet
facet normal -0.7071067410033365 -0.707106821369756 -2.0590814024416822e-08
  outer loop
    vertex -1.5000002528104661 -367.5163814103237 1.5056205080939344
    vertex -2.600000690146128 -366.4163813892069 11.505620524255132
    vertex -2.6000004473548306 -366.41638134380906 1.505620456568804
  endloop
endfacet
facet normal -0.7071067410033365 -0.707106821369756 -2.0590814024416822e-08
  outer loop
    vertex -2.600000690146128 -366.4163813892069 11.505620524255132
    vertex -1.5000002528104661 -367.5163814103237 1.5056205080939344
    vertex -1.500000501914157 -367.516381455427 11.505620508079817
  endloop
endfacet
facet normal 0.9999999999999996 -8.798295428126441e-12 3.425481717546992e-08
  outer loop
    vertex -48.91029521055285 -369.1663818882934 25.290901612951544
    vertex -48.910295364712724 -370.6663818391871 29.79090161295167
    vertex -48.910295210565984 -370.6663818882935 25.290901612951252
  endloop
endfacet
facet normal 0.9999999999999996 -8.798295428126441e-12 3.425481717546992e-08
  outer loop
    vertex -48.910295364712724 -370.6663818391871 29.79090161295167
    vertex -48.91029521055285 -369.1663818882934 25.290901612951544
    vertex -48.91029536469946 -369.16638183918707 29.790901612951604
  endloop
endfacet
facet normal 1.0 -8.820855338318566e-12 4.811990798582796e-11
  outer loop
    vertex -48.56029536577721 -371.666382200889 1.5056205240477596
    vertex -48.5602953660134 -371.1663822521644 6.505620524047491
    vertex -48.56029536601775 -371.6663822521645 6.505620524047412
  endloop
endfacet
facet normal 1.0 -8.820855338318566e-12 4.811990798582796e-11
  outer loop
    vertex -48.5602953660134 -371.1663822521644 6.505620524047491
    vertex -48.56029536577721 -371.666382200889 1.5056205240477596
    vertex -48.56029536577274 -371.166382200889 1.5056205278072374
  endloop
endfacet
facet normal 0.9999999999999996 -8.392220236609033e-12 3.425481717546652e-08
  outer loop
    vertex -48.56029521057048 -371.16638188829637 25.29090162340268
    vertex -48.560295364721355 -371.66638183918997 29.79090162340301
    vertex -48.560295210574495 -371.66638188829654 25.290901623402704
  endloop
endfacet
facet normal 0.9999999999999996 -8.392220236609033e-12 3.425481717546652e-08
  outer loop
    vertex -48.560295364721355 -371.66638183918997 29.79090162340301
    vertex -48.56029521057048 -371.16638188829637 25.29090162340268
    vertex -48.56029536471698 -371.1663818391901 29.79090162340258
  endloop
endfacet
facet normal 0.8192833975824787 0.5733887986747822 5.919534027831307e-09
  outer loop
    vertex -48.56029536577274 -371.166382200889 1.5056205278072374
    vertex -48.91029539646753 -370.6662866611466 6.505620523605782
    vertex -48.5602953660134 -371.1663822521644 6.505620524047491
  endloop
endfacet
facet normal 0.8192833975824787 0.5733887986747822 5.919534027831307e-09
  outer loop
    vertex -48.91029539646753 -370.6662866611466 6.505620523605782
    vertex -48.56029536577274 -371.166382200889 1.5056205278072374
    vertex -48.9102953962274 -370.6662866098713 1.505620527365281
  endloop
endfacet
facet normal 0.8192833975824787 0.5733887986747822 5.919534027831307e-09
  outer loop
    vertex -48.91029539646753 -370.6662866611466 6.505620523605782
    vertex -48.9102953962274 -370.6662866098713 1.505620527365281
    vertex -48.910295397693744 -370.66628661292697 4.005620523605719
  endloop
endfacet
facet normal 0.9999999999999996 -8.791459983106197e-12 3.425479210915599e-08
  outer loop
    vertex -48.060295210538314 -367.5163820183877 25.290901638346945
    vertex -48.060295364699385 -369.1663818391945 29.790901638332905
    vertex -48.06029521055323 -369.16638188830086 25.29090163833307
  endloop
endfacet
facet normal 0.9999999999999996 -8.791459983106197e-12 3.425479210915599e-08
  outer loop
    vertex -48.060295364699385 -369.1663818391945 29.790901638332905
    vertex -48.060295210538314 -367.5163820183877 25.290901638346945
    vertex -48.06029536468528 -367.51638196961954 29.790901638333086
  endloop
endfacet
facet normal 1.0 -8.703031213910696e-12 4.805674062090122e-11
  outer loop
    vertex -48.910295397693744 -370.66628661292697 4.005620523605719
    vertex -48.91029539645463 -369.1662866611466 6.505620523605997
    vertex -48.91029539646753 -370.6662866611466 6.505620523605782
  endloop
endfacet
facet normal 1.0 -8.703031213910696e-12 4.805674062090122e-11
  outer loop
    vertex -48.91029539645463 -369.1662866611466 6.505620523605997
    vertex -48.910295397693744 -370.66628661292697 4.005620523605719
    vertex -48.9102953962274 -370.6662866098713 1.505620527365281
  endloop
endfacet
facet normal 1.0 -8.703031213910696e-12 4.805674062090122e-11
  outer loop
    vertex -48.91029539645463 -369.1662866611466 6.505620523605997
    vertex -48.9102953962274 -370.6662866098713 1.505620527365281
    vertex -48.9102953962142 -369.16628660987124 1.5056205273652583
  endloop
endfacet
facet normal 1.0 -8.703031213910696e-12 4.805674062090122e-11
  outer loop
    vertex -48.91029539645463 -369.1662866611466 6.505620523605997
    vertex -48.9102953962142 -369.16628660987124 1.5056205273652583
    vertex -48.910295397680684 -369.1662866129271 4.005620523605911
  endloop
endfacet
facet normal -8.7588099869779e-12 -1.0 1.09125132828247e-08
  outer loop
    vertex -48.06029521055323 -369.16638188830086 25.29090163833307
    vertex -48.91029536469946 -369.16638183918707 29.790901612951604
    vertex -48.91029521055285 -369.1663818882934 25.290901612951544
  endloop
endfacet
facet normal -8.7588099869779e-12 -1.0 1.09125132828247e-08
  outer loop
    vertex -48.91029536469946 -369.16638183918707 29.790901612951604
    vertex -48.06029521055323 -369.16638188830086 25.29090163833307
    vertex -48.060295364699385 -369.1663818391945 29.790901638332905
  endloop
endfacet
facet normal 0.9999999999999998 1.8814248989622403e-08 -2.029360959026072e-08
  outer loop
    vertex 2.499999764414051 -367.2737410573116 20.290901642341133
    vertex 2.5000000000000293 -371.16638172759 28.290901565020434
    vertex 2.499999955444175 -371.1663817275903 20.290901778253094
  endloop
endfacet
facet normal 0.9999999999999998 1.8814248989622403e-08 -2.029360959026072e-08
  outer loop
    vertex 2.5000000000000293 -371.16638172759 28.290901565020434
    vertex 2.499999764414051 -367.2737410573116 20.290901642341133
    vertex 2.500000044555951 -367.27374149809356 28.290901565020413
  endloop
endfacet
facet normal 5.907881545484201e-08 -4.53892882965021e-08 -0.9999999999999973
  outer loop
    vertex 2.499999764414051 -367.2737410573116 20.290901642341133
    vertex -1.357359755102277 -366.4163815125057 20.290899314245927
    vertex -1.3573599533045686 -363.41638179863713 20.2909017311791
  endloop
endfacet
facet normal 5.907881545484201e-08 -4.53892882965021e-08 -0.9999999999999973
  outer loop
    vertex -1.357359755102277 -366.4163815125057 20.290899314245927
    vertex 2.499999764414051 -367.2737410573116 20.290901642341133
    vertex -0.650000143841932 -369.1662861588289 20.290901602705173
  endloop
endfacet
facet normal 5.907881545484201e-08 -4.53892882965021e-08 -0.9999999999999973
  outer loop
    vertex -0.650000143841932 -369.1662861588289 20.290901602705173
    vertex 2.499999764414051 -367.2737410573116 20.290901642341133
    vertex -0.6500000566915447 -370.66628615882894 20.290901584417057
  endloop
endfacet
facet normal 5.907881545484201e-08 -4.53892882965021e-08 -0.9999999999999973
  outer loop
    vertex -0.6500000566915447 -370.66628615882894 20.290901584417057
    vertex 2.499999764414051 -367.2737410573116 20.290901642341133
    vertex -0.4999999709437074 -372.6663817411287 20.290901560220977
  endloop
endfacet
facet normal 5.907881545484201e-08 -4.53892882965021e-08 -0.9999999999999973
  outer loop
    vertex -0.4999999709437074 -372.6663817411287 20.290901560220977
    vertex 2.499999764414051 -367.2737410573116 20.290901642341133
    vertex 1.0000000290563575 -372.6663816539782 20.290901562114417
  endloop
endfacet
facet normal 5.907881545484201e-08 -4.53892882965021e-08 -0.9999999999999973
  outer loop
    vertex 1.0000000290563575 -372.6663816539782 20.290901562114417
    vertex 2.499999764414051 -367.2737410573116 20.290901642341133
    vertex 2.499999955444175 -371.1663817275903 20.290901778253094
  endloop
endfacet
facet normal 5.907881545484201e-08 -4.53892882965021e-08 -0.9999999999999973
  outer loop
    vertex -0.6500000566915447 -370.66628615882894 20.290901584417057
    vertex -1.0000000290441753 -371.66638177017893 20.290901571782346
    vertex -1.0000000580942519 -371.16638177017876 20.290901577878188
  endloop
endfacet
facet normal 5.907881545484201e-08 -4.53892882965021e-08 -0.9999999999999973
  outer loop
    vertex -1.0000000290441753 -371.66638177017893 20.290901571782346
    vertex -0.6500000566915447 -370.66628615882894 20.290901584417057
    vertex -0.4999999709437074 -372.6663817411287 20.290901560220977
  endloop
endfacet
facet normal 5.907881545484201e-08 -4.53892882965021e-08 -0.9999999999999973
  outer loop
    vertex -1.357359755102277 -366.4163815125057 20.290899314245927
    vertex -1.5000002761769904 -367.51638192961036 20.290901588307324
    vertex -2.6000008396598484 -366.41638149394834 20.290901623311704
  endloop
endfacet
facet normal 5.907881545484201e-08 -4.53892882965021e-08 -0.9999999999999973
  outer loop
    vertex -1.5000002761769904 -367.51638192961036 20.290901588307324
    vertex -1.357359755102277 -366.4163815125057 20.290899314245927
    vertex -1.5000001742947373 -369.166381799229 20.290901601631283
  endloop
endfacet
facet normal 5.907881545484201e-08 -4.53892882965021e-08 -0.9999999999999973
  outer loop
    vertex -1.5000001742947373 -369.166381799229 20.290901601631283
    vertex -1.357359755102277 -366.4163815125057 20.290899314245927
    vertex -0.650000143841932 -369.1662861588289 20.290901602705173
  endloop
endfacet
facet normal -0.7071067837205789 -0.7071067786525161 -1.515403449995338e-08
  outer loop
    vertex -50.56029536473008 -372.66638183917246 29.790901563681512
    vertex -52.06029521056356 -371.16638188829853 25.290901590173412
    vertex -50.5602952105832 -372.66638188827886 25.29090160847256
  endloop
endfacet
facet normal -0.7071067837205789 -0.7071067786525161 -1.515403449995338e-08
  outer loop
    vertex -52.06029521056356 -371.16638188829853 25.290901590173412
    vertex -50.56029536473008 -372.66638183917246 29.790901563681512
    vertex -52.06029526195558 -371.1663818882984 28.290901525482248
  endloop
endfacet
facet normal -8.738299067432207e-12 -1.0 1.0912528376956111e-08
  outer loop
    vertex -49.06029536472995 -372.6663818391856 29.79090160847228
    vertex -50.5602952105832 -372.66638188827886 25.29090160847256
    vertex -49.060295210583405 -372.66638188829194 25.29090160847256
  endloop
endfacet
facet normal -8.738299067432207e-12 -1.0 1.0912528376956111e-08
  outer loop
    vertex -50.5602952105832 -372.66638188827886 25.29090160847256
    vertex -49.06029536472995 -372.6663818391856 29.79090160847228
    vertex -50.56029536473008 -372.66638183917246 29.790901563681512
  endloop
endfacet
facet normal 0.7071067971596817 -0.7071067652134131 -1.0441534861310686e-08
  outer loop
    vertex 1.0000000290563575 -372.6663816539782 20.290901562114417
    vertex 2.5000000000000293 -371.16638172759 28.290901565020434
    vertex 1.0000000474618953 -372.66638183781447 29.790901562114556
  endloop
endfacet
facet normal 0.7071067971596817 -0.7071067652134131 -1.0441534861310686e-08
  outer loop
    vertex 2.5000000000000293 -371.16638172759 28.290901565020434
    vertex 1.0000000290563575 -372.6663816539782 20.290901562114417
    vertex 2.499999955444175 -371.1663817275903 20.290901778253094
  endloop
endfacet
facet normal 6.199835212513785e-10 -8.216807949505039e-09 1.0
  outer loop
    vertex -48.560295364721355 -371.66638183918997 29.79090162340301
    vertex -48.910295364712724 -370.6663818391871 29.79090161295167
    vertex -49.06029536472995 -372.6663818391856 29.79090160847228
  endloop
endfacet
facet normal 6.199835212513785e-10 -8.216807949505039e-09 1.0
  outer loop
    vertex -48.910295364712724 -370.6663818391871 29.79090161295167
    vertex -48.560295364721355 -371.66638183918997 29.79090162340301
    vertex -48.56029536471698 -371.1663818391901 29.79090162340258
  endloop
endfacet
facet normal 6.199835212513785e-10 -8.216807949505039e-09 1.0
  outer loop
    vertex -1.0000000106380285 -371.6663819540151 29.790901571781852
    vertex -0.6500000382851496 -370.66628634266533 29.79090158065807
    vertex -1.000000039688353 -371.16638195401526 29.790901574118344
  endloop
endfacet
facet normal 6.199835212513785e-10 -8.216807949505039e-09 1.0
  outer loop
    vertex -0.6500000382851496 -370.66628634266533 29.79090158065807
    vertex -1.0000000106380285 -371.6663819540151 29.790901571781852
    vertex -0.499999952538102 -372.666381924965 29.79090156022087
  endloop
endfacet
facet normal 6.199835212513785e-10 -8.216807949505039e-09 1.0
  outer loop
    vertex -49.06029536472995 -372.6663818391856 29.79090160847228
    vertex -50.56029536473002 -367.27374127815915 29.790901563681487
    vertex -50.56029536473008 -372.66638183917246 29.790901563681512
  endloop
endfacet
facet normal 6.199835212513785e-10 -8.216807949505039e-09 1.0
  outer loop
    vertex -50.56029536473002 -367.27374127815915 29.790901563681487
    vertex -49.06029536472995 -372.6663818391856 29.79090160847228
    vertex -48.91029536469946 -369.16638183918707 29.790901612951604
  endloop
endfacet
facet normal 6.199835212513785e-10 -8.216807949505039e-09 1.0
  outer loop
    vertex -50.56029536473002 -367.27374127815915 29.790901563681487
    vertex -48.91029536469946 -369.16638183918707 29.790901612951604
    vertex -48.20293592134346 -363.4163818391932 29.79090164441853
  endloop
endfacet
facet normal 6.199835212513785e-10 -8.216807949505039e-09 1.0
  outer loop
    vertex -48.91029536469946 -369.16638183918707 29.790901612951604
    vertex -49.06029536472995 -372.6663818391856 29.79090160847228
    vertex -48.910295364712724 -370.6663818391871 29.79090161295167
  endloop
endfacet
facet normal 6.199835212513785e-10 -8.216807949505039e-09 1.0
  outer loop
    vertex -48.20293592134346 -363.4163818391932 29.79090164441853
    vertex -48.91029536469946 -369.16638183918707 29.790901612951604
    vertex -48.060295364699385 -369.1663818391945 29.790901638332905
  endloop
endfacet
facet normal 6.199835212513785e-10 -8.216807949505039e-09 1.0
  outer loop
    vertex -48.20293592134346 -363.4163818391932 29.79090164441853
    vertex -48.060295364699385 -369.1663818391945 29.790901638332905
    vertex -48.06029536468528 -367.51638196961954 29.790901638333086
  endloop
endfacet
facet normal 6.199835212513785e-10 -8.216807949505039e-09 1.0
  outer loop
    vertex -48.20293592134346 -363.4163818391932 29.79090164441853
    vertex -48.06029536468528 -367.51638196961954 29.790901638333086
    vertex -46.960295234041695 -366.4163818392041 29.790901703269444
  endloop
endfacet
facet normal 6.199835212513785e-10 -8.216807949505039e-09 1.0
  outer loop
    vertex -48.20293592134346 -363.4163818391932 29.79090164441853
    vertex -46.960295234041695 -366.4163818392041 29.790901703269444
    vertex -1.5000005130633567 -363.41638161391785 29.790901654726294
  endloop
endfacet
facet normal 6.199835212513785e-10 -8.216807949505039e-09 1.0
  outer loop
    vertex -1.5000005130633567 -363.41638161391785 29.790901654726294
    vertex -46.960295234041695 -366.4163818392041 29.790901703269444
    vertex -2.6000008149418945 -366.4163816778283 29.79090161815045
  endloop
endfacet
facet normal 6.199835212513785e-10 -8.216807949505039e-09 1.0
  outer loop
    vertex -1.5000005130633567 -363.41638161391785 29.790901654726294
    vertex -2.6000008149418945 -366.4163816778283 29.79090161815045
    vertex -1.500000251459285 -367.51638211349035 29.790901588292666
  endloop
endfacet
facet normal 6.199835212513785e-10 -8.216807949505039e-09 1.0
  outer loop
    vertex -1.5000005130633567 -363.41638161391785 29.790901654726294
    vertex -1.500000251459285 -367.51638211349035 29.790901588292666
    vertex -1.3573599332715718 -363.4163819747779 29.790901667834447
  endloop
endfacet
facet normal 6.199835212513785e-10 -8.216807949505039e-09 1.0
  outer loop
    vertex -1.3573599332715718 -363.4163819747779 29.790901667834447
    vertex -1.500000251459285 -367.51638211349035 29.790901588292666
    vertex -1.5000001558893574 -369.1663819830654 29.79090159787146
  endloop
endfacet
facet normal 6.199835212513785e-10 -8.216807949505039e-09 1.0
  outer loop
    vertex -1.3573599332715718 -363.4163819747779 29.790901667834447
    vertex -1.5000001558893574 -369.1663819830654 29.79090159787146
    vertex -0.6500001254357852 -369.16628634266533 29.79090159894587
  endloop
endfacet
facet normal 6.199835212513785e-10 -8.216807949505039e-09 1.0
  outer loop
    vertex -1.3573599332715718 -363.4163819747779 29.790901667834447
    vertex -0.6500001254357852 -369.16628634266533 29.79090159894587
    vertex 1.0000000474619855 -367.2737414980935 29.790901562114243
  endloop
endfacet
facet normal 6.199835212513785e-10 -8.216807949505039e-09 1.0
  outer loop
    vertex 1.0000000474619855 -367.2737414980935 29.790901562114243
    vertex -0.6500001254357852 -369.16628634266533 29.79090159894587
    vertex -0.6500000382851496 -370.66628634266533 29.79090158065807
  endloop
endfacet
facet normal 6.199835212513785e-10 -8.216807949505039e-09 1.0
  outer loop
    vertex 1.0000000474619855 -367.2737414980935 29.790901562114243
    vertex -0.6500000382851496 -370.66628634266533 29.79090158065807
    vertex -0.499999952538102 -372.666381924965 29.79090156022087
  endloop
endfacet
facet normal 6.199835212513785e-10 -8.216807949505039e-09 1.0
  outer loop
    vertex 1.0000000474619855 -367.2737414980935 29.790901562114243
    vertex -0.499999952538102 -372.666381924965 29.79090156022087
    vertex 1.0000000474618953 -372.66638183781447 29.790901562114556
  endloop
endfacet
facet normal 0.6490929354164547 0.396682142760219 0.649092935416502
  outer loop
    vertex 2.500000044555951 -367.27374149809356 28.290901565020413
    vertex -1.3573599332715718 -363.4163819747779 29.790901667834447
    vertex 1.0000000474619855 -367.2737414980935 29.790901562114243
  endloop
endfacet
facet normal -6.110016824946179e-09 2.8168970175997585e-09 1.0
  outer loop
    vertex -48.56029536601775 -371.6663822521645 6.505620524047412
    vertex -48.91029539646753 -370.6662866611466 6.505620523605782
    vertex -49.06029536602657 -372.66638225216 6.505620523416743
  endloop
endfacet
facet normal -6.110016824946179e-09 2.8168970175997585e-09 1.0
  outer loop
    vertex -48.91029539646753 -370.6662866611466 6.505620523605782
    vertex -48.56029536601775 -371.6663822521645 6.505620524047412
    vertex -48.5602953660134 -371.1663822521644 6.505620524047491
  endloop
endfacet
facet normal -6.110016824946179e-09 2.8168970175997585e-09 1.0
  outer loop
    vertex -52.06029537955183 -371.1663822386217 6.505620512895042
    vertex -48.20293592101285 -363.41638225986316 6.5056204652355785
    vertex -52.06029541465133 -367.2737417426178 6.505620507044052
  endloop
endfacet
facet normal -6.110016824946179e-09 2.8168970175997585e-09 1.0
  outer loop
    vertex -48.20293592101285 -363.41638225986316 6.5056204652355785
    vertex -52.06029537955183 -371.1663822386217 6.505620512895042
    vertex -50.56029536923305 -372.6663822528307 6.50562052152326
  endloop
endfacet
facet normal -6.110016824946179e-09 2.8168970175997585e-09 1.0
  outer loop
    vertex -48.20293592101285 -363.41638225986316 6.5056204652355785
    vertex -50.56029536923305 -372.6663822528307 6.50562052152326
    vertex -48.91029539645463 -369.1662866611466 6.505620523605997
  endloop
endfacet
facet normal -6.110016824946179e-09 2.8168970175997585e-09 1.0
  outer loop
    vertex -48.91029539645463 -369.1662866611466 6.505620523605997
    vertex -50.56029536923305 -372.6663822528307 6.50562052152326
    vertex -49.06029536602657 -372.66638225216 6.505620523416743
  endloop
endfacet
facet normal -6.110016824946179e-09 2.8168970175997585e-09 1.0
  outer loop
    vertex -48.91029539645463 -369.1662866611466 6.505620523605997
    vertex -49.06029536602657 -372.66638225216 6.505620523416743
    vertex -48.91029539646753 -370.6662866611466 6.505620523605782
  endloop
endfacet
facet normal -6.110016824946179e-09 2.8168970175997585e-09 1.0
  outer loop
    vertex -48.20293592101285 -363.41638225986316 6.5056204652355785
    vertex -48.91029539645463 -369.1662866611466 6.505620523605997
    vertex -48.20293588142508 -366.41638221600886 6.505620555248243
  endloop
endfacet
facet normal -6.110016824946179e-09 2.8168970175997585e-09 1.0
  outer loop
    vertex -48.20293588142508 -366.41638221600886 6.505620555248243
    vertex -48.91029539645463 -369.1662866611466 6.505620523605997
    vertex -48.06029536599616 -369.16638225216883 6.505620524678847
  endloop
endfacet
facet normal -6.110016824946179e-09 2.8168970175997585e-09 1.0
  outer loop
    vertex -48.20293588142508 -366.41638221600886 6.505620555248243
    vertex -48.06029536599616 -369.16638225216883 6.505620524678847
    vertex -48.060295359964954 -367.5163823825502 6.505620558119612
  endloop
endfacet
facet normal -6.110016824946179e-09 2.8168970175997585e-09 1.0
  outer loop
    vertex -48.20293588142508 -366.41638221600886 6.505620555248243
    vertex -48.060295359964954 -367.5163823825502 6.505620558119612
    vertex -46.960294860382945 -366.41638188298737 6.505620536526959
  endloop
endfacet
facet normal 5.287841127779521e-08 -0.8774666865270528 0.47963758613689983
  outer loop
    vertex -46.960294860382945 -366.41638188298737 6.505620536526959
    vertex -48.20293588142508 -366.41638221600886 6.505620555248243
    vertex -43.20293571541061 -366.4163818828775 6.505620537514579
  endloop
endfacet
facet normal 5.287841127779521e-08 -0.8774666865270528 0.47963758613689983
  outer loop
    vertex -43.202935790642556 -365.9107324856152 7.4306740394916
    vertex -43.20293571541061 -366.4163818828775 6.505620537514579
    vertex -48.20293588142508 -366.41638221600886 6.505620555248243
  endloop
endfacet
facet normal 5.287841127779521e-08 -0.8774666865270528 0.47963758613689983
  outer loop
    vertex -48.20293595665704 -365.9107328187466 7.430674057225218
    vertex -43.202935790642556 -365.9107324856152 7.4306740394916
    vertex -48.20293588142508 -366.41638221600886 6.505620555248243
  endloop
endfacet
facet normal -1.5457392650743838e-08 6.683128488742469e-08 -0.9999999999999978
  outer loop
    vertex -43.20293561144127 -363.41638124291626 25.290902430844312
    vertex -6.357360203355545 -366.41638188375515 25.290901660813912
    vertex -43.20293571541061 -366.4163818876594 25.290902035032623
  endloop
endfacet
facet normal -1.5457392650743838e-08 6.683128488742469e-08 -0.9999999999999978
  outer loop
    vertex -6.357360203355545 -366.41638188375515 25.290901660813912
    vertex -43.20293561144127 -363.41638124291626 25.290902430844312
    vertex -6.357360128432238 -363.4163818979772 25.290901665989924
  endloop
endfacet
facet normal -0.7071068091572549 -3.197979880713265e-09 0.707106753215839
  outer loop
    vertex -50.56029536473002 -367.27374127815915 29.790901563681487
    vertex -52.06029526195558 -371.1663818882984 28.290901525482248
    vertex -50.56029536473008 -372.66638183917246 29.790901563681512
  endloop
endfacet
facet normal -0.7071068091572549 -3.197979880713265e-09 0.707106753215839
  outer loop
    vertex -52.06029526195558 -371.1663818882984 28.290901525482248
    vertex -50.56029536473002 -367.27374127815915 29.790901563681487
    vertex -52.06029531334769 -367.2737412781592 28.2909015254822
  endloop
endfacet
facet normal -0.6490929717148971 0.3966820874002632 0.6490929329503548
  outer loop
    vertex -48.20293592134346 -363.4163818391932 29.79090164441853
    vertex -52.06029531334769 -367.2737412781592 28.2909015254822
    vertex -50.56029536473002 -367.27374127815915 29.790901563681487
  endloop
endfacet
facet normal -0.7071067799139371 0.7071067824591571 -3.376686457824824e-08
  outer loop
    vertex -52.06029531334769 -367.2737412781592 28.2909015254822
    vertex -48.20293577188165 -363.41638189599513 25.290901638382792
    vertex -52.06029521051278 -367.27374133152586 25.290901585934506
  endloop
endfacet
facet normal -0.7071067799139371 0.7071067824591571 -3.376686457824824e-08
  outer loop
    vertex -48.20293577188165 -363.41638189599513 25.290901638382792
    vertex -52.06029531334769 -367.2737412781592 28.2909015254822
    vertex -48.20293592134346 -363.4163818391932 29.79090164441853
  endloop
endfacet
facet normal 4.160821608158094e-09 -0.904885869884934 -0.4256542757715305
  outer loop
    vertex -43.20293571541061 -366.4163818876594 25.290902035032623
    vertex -48.20293595770061 -365.9107324581722 24.215956712672927
    vertex -43.20293573110964 -365.9107324581723 24.215956694939266
  endloop
endfacet
facet normal 4.160821608158094e-09 -0.904885869884934 -0.4256542757715305
  outer loop
    vertex -48.20293595770061 -365.9107324581722 24.215956712672927
    vertex -43.20293571541061 -366.4163818876594 25.290902035032623
    vertex -46.9602950862073 -366.4163818882668 25.290901635583154
  endloop
endfacet
facet normal 4.160821608158094e-09 -0.904885869884934 -0.4256542757715305
  outer loop
    vertex -48.202935942001524 -366.4163818876593 25.290902052766242
    vertex -48.20293595770061 -365.9107324581722 24.215956712672927
    vertex -46.9602950862073 -366.4163818882668 25.290901635583154
  endloop
endfacet
facet normal 0.7071067871306485 -2.772572453471806e-09 0.7071067752424467
  outer loop
    vertex 2.5000000000000293 -371.16638172759 28.290901565020434
    vertex 1.0000000474619855 -367.2737414980935 29.790901562114243
    vertex 1.0000000474618953 -372.66638183781447 29.790901562114556
  endloop
endfacet
facet normal 0.7071067871306485 -2.772572453471806e-09 0.7071067752424467
  outer loop
    vertex 1.0000000474619855 -367.2737414980935 29.790901562114243
    vertex 2.5000000000000293 -371.16638172759 28.290901565020434
    vertex 2.500000044555951 -367.27374149809356 28.290901565020413
  endloop
endfacet
facet normal -1.0681267510930504e-08 1.2788237476752897e-07 0.9999999999999918
  outer loop
    vertex -6.357360177955114 -366.41638188388515 6.505620547425227
    vertex -43.20293569728883 -363.4163812682196 6.5056197702206155
    vertex -43.20293571541061 -366.4163818828775 6.505620537514579
  endloop
endfacet
facet normal -1.0681267510930504e-08 1.2788237476752897e-07 0.9999999999999918
  outer loop
    vertex -43.20293569728883 -363.4163812682196 6.5056197702206155
    vertex -6.357360177955114 -366.41638188388515 6.505620547425227
    vertex -6.357360122252699 -363.41638189269776 6.505620547424946
  endloop
endfacet
facet normal 0.9999999999999944 1.0562093317202863e-07 -1.215458768338999e-08
  outer loop
    vertex -1.357359743223292 -366.41638117552094 11.505620531015946
    vertex -1.3573599533045686 -363.41638179863713 20.2909017311791
    vertex -1.357359755102277 -366.4163815125057 20.290899314245927
  endloop
endfacet
facet normal 0.9999999999999944 1.0562093317202863e-07 -1.215458768338999e-08
  outer loop
    vertex -1.3573599533045686 -363.41638179863713 20.2909017311791
    vertex -1.357359743223292 -366.41638117552094 11.505620531015946
    vertex -1.3573601787465184 -363.41638132474833 11.505620558032003
  endloop
endfacet
facet normal 3.331313790723714e-08 -0.9999999999999993 1.1558260065515955e-08
  outer loop
    vertex -43.20293573110964 -365.9107324581723 24.215956694939266
    vertex -48.20293595665704 -365.9107328187466 7.430674057225218
    vertex -43.202935790642556 -365.9107324856152 7.4306740394916
  endloop
endfacet
facet normal 3.331313790723714e-08 -0.9999999999999993 1.1558260065515955e-08
  outer loop
    vertex -48.20293595665704 -365.9107328187466 7.430674057225218
    vertex -43.20293573110964 -365.9107324581723 24.215956694939266
    vertex -48.20293595770061 -365.9107324581722 24.215956712672927
  endloop
endfacet
facet normal 0.8944271909959844 -0.4472135955078195 3.5518682142541536e-08
  outer loop
    vertex -48.560295210574495 -371.66638188829654 25.290901623402704
    vertex -49.06029536472995 -372.6663818391856 29.79090160847228
    vertex -49.060295210583405 -372.66638188829194 25.29090160847256
  endloop
endfacet
facet normal 0.8944271909959844 -0.4472135955078195 3.5518682142541536e-08
  outer loop
    vertex -49.06029536472995 -372.6663818391856 29.79090160847228
    vertex -48.560295210574495 -371.66638188829654 25.290901623402704
    vertex -48.560295364721355 -371.66638183918997 29.79090162340301
  endloop
endfacet
facet normal 0.819231920523977 0.5734623443562757 2.1804708192502444e-08
  outer loop
    vertex -48.910295210565984 -370.6663818882935 25.290901612951252
    vertex -48.56029536471698 -371.1663818391901 29.79090162340258
    vertex -48.56029521057048 -371.16638188829637 25.29090162340268
  endloop
endfacet
facet normal 0.819231920523977 0.5734623443562757 2.1804708192502444e-08
  outer loop
    vertex -48.56029536471698 -371.1663818391901 29.79090162340258
    vertex -48.910295210565984 -370.6663818882935 25.290901612951252
    vertex -48.910295364712724 -370.6663818391871 29.79090161295167
  endloop
endfacet
facet normal 1.6132694856850454e-08 1.2141481599703394e-08 -0.9999999999999998
  outer loop
    vertex -48.202935942001524 -366.4163818876593 25.290902052766242
    vertex -48.06029521055323 -369.16638188830086 25.29090163833307
    vertex -48.91029521055285 -369.1663818882934 25.290901612951544
  endloop
endfacet
facet normal 1.6132694856850454e-08 1.2141481599703394e-08 -0.9999999999999998
  outer loop
    vertex -48.06029521055323 -369.16638188830086 25.29090163833307
    vertex -48.202935942001524 -366.4163818876593 25.290902052766242
    vertex -48.060295210538314 -367.5163820183877 25.290901638346945
  endloop
endfacet
facet normal 1.6132694856850454e-08 1.2141481599703394e-08 -0.9999999999999998
  outer loop
    vertex -48.060295210538314 -367.5163820183877 25.290901638346945
    vertex -48.202935942001524 -366.4163818876593 25.290902052766242
    vertex -46.9602950862073 -366.4163818882668 25.290901635583154
  endloop
endfacet
facet normal 1.6132694856850454e-08 1.2141481599703394e-08 -0.9999999999999998
  outer loop
    vertex -52.06029521051278 -367.27374133152586 25.290901585934506
    vertex -50.5602952105832 -372.66638188827886 25.29090160847256
    vertex -52.06029521056356 -371.16638188829853 25.290901590173412
  endloop
endfacet
facet normal 1.6132694856850454e-08 1.2141481599703394e-08 -0.9999999999999998
  outer loop
    vertex -50.5602952105832 -372.66638188827886 25.29090160847256
    vertex -52.06029521051278 -367.27374133152586 25.290901585934506
    vertex -48.20293577188165 -363.41638189599513 25.290901638382792
  endloop
endfacet
facet normal 1.6132694856850454e-08 1.2141481599703394e-08 -0.9999999999999998
  outer loop
    vertex -50.5602952105832 -372.66638188827886 25.29090160847256
    vertex -48.20293577188165 -363.41638189599513 25.290901638382792
    vertex -48.91029521055285 -369.1663818882934 25.290901612951544
  endloop
endfacet
facet normal 1.6132694856850454e-08 1.2141481599703394e-08 -0.9999999999999998
  outer loop
    vertex -50.5602952105832 -372.66638188827886 25.29090160847256
    vertex -48.91029521055285 -369.1663818882934 25.290901612951544
    vertex -49.060295210583405 -372.66638188829194 25.29090160847256
  endloop
endfacet
facet normal 1.6132694856850454e-08 1.2141481599703394e-08 -0.9999999999999998
  outer loop
    vertex -49.060295210583405 -372.66638188829194 25.29090160847256
    vertex -48.91029521055285 -369.1663818882934 25.290901612951544
    vertex -48.910295210565984 -370.6663818882935 25.290901612951252
  endloop
endfacet
facet normal 1.6132694856850454e-08 1.2141481599703394e-08 -0.9999999999999998
  outer loop
    vertex -48.91029521055285 -369.1663818882934 25.290901612951544
    vertex -48.20293577188165 -363.41638189599513 25.290901638382792
    vertex -48.202935942001524 -366.4163818876593 25.290902052766242
  endloop
endfacet
facet normal 1.6132694856850454e-08 1.2141481599703394e-08 -0.9999999999999998
  outer loop
    vertex -48.910295210565984 -370.6663818882935 25.290901612951252
    vertex -48.560295210574495 -371.66638188829654 25.290901623402704
    vertex -49.060295210583405 -372.66638188829194 25.29090160847256
  endloop
endfacet
facet normal 1.6132694856850454e-08 1.2141481599703394e-08 -0.9999999999999998
  outer loop
    vertex -48.560295210574495 -371.66638188829654 25.290901623402704
    vertex -48.910295210565984 -370.6663818882935 25.290901612951252
    vertex -48.56029521057048 -371.16638188829637 25.29090162340268
  endloop
endfacet
facet normal -0.9999999999999998 -6.5946655400188365e-09 -2.570448752609569e-08
  outer loop
    vertex -52.06029526195558 -371.1663818882984 28.290901525482248
    vertex -52.06029521051278 -367.27374133152586 25.290901585934506
    vertex -52.06029521056356 -371.16638188829853 25.290901590173412
  endloop
endfacet
facet normal -0.9999999999999998 -6.5946655400188365e-09 -2.570448752609569e-08
  outer loop
    vertex -52.06029521051278 -367.27374133152586 25.290901585934506
    vertex -52.06029526195558 -371.1663818882984 28.290901525482248
    vertex -52.06029531334769 -367.2737412781592 28.2909015254822
  endloop
endfacet
facet normal 5.810030702804887e-08 -0.9999999999999984 -4.54414894200903e-09
  outer loop
    vertex -0.6500001569450642 -369.1663812305134 1.5056205133586427
    vertex -1.5000004060486067 -369.1663813253402 11.505620487977302
    vertex -1.5000001569452994 -369.16638127989864 1.5056204879771622
  endloop
endfacet
facet normal 5.810030702804887e-08 -0.9999999999999984 -4.54414894200903e-09
  outer loop
    vertex -1.5000004060486067 -369.1663813253402 11.505620487977302
    vertex -0.6500001569450642 -369.1663812305134 1.5056205133586427
    vertex -0.6500004060485293 -369.1663812759549 11.505620513358398
  endloop
endfacet
facet normal 2.529855192100301e-06 0.9999999999967999 -6.118506337717571e-10
  outer loop
    vertex -1.3573599332715718 -363.4163819747779 29.790901667834447
    vertex -1.3573599343698923 -363.4163819775312 25.29090173117909
    vertex -1.5000005130633567 -363.41638161391785 29.790901654726294
  endloop
endfacet
facet normal -0.999999999999998 -5.8100280490141307e-08 -2.4910334308824937e-08
  outer loop
    vertex -0.6500004060485293 -369.1663812759549 11.505620513358398
    vertex -0.6500000697947671 -370.6663812305135 1.5056204950700547
    vertex -0.6500003188979839 -370.666381275955 11.505620495070398
  endloop
endfacet
facet normal -0.999999999999998 -5.8100280490141307e-08 -2.4910334308824937e-08
  outer loop
    vertex -0.6500000697947671 -370.6663812305135 1.5056204950700547
    vertex -0.6500004060485293 -369.1663812759549 11.505620513358398
    vertex -0.6500001569450642 -369.1663812305134 1.5056205133586427
  endloop
endfacet
facet normal 7.820331771633444e-11 1.96985680769533e-09 -1.0
  outer loop
    vertex -48.20293592326445 -363.4163821968325 0.005620515713813834
    vertex -52.060295361433845 -371.1663822258004 0.005620508656362677
    vertex -52.06029536682731 -367.2737416523319 0.005620508656238598
  endloop
endfacet
facet normal 7.820331771633444e-11 1.96985680769533e-09 -1.0
  outer loop
    vertex -52.060295361433845 -371.1663822258004 0.005620508656362677
    vertex -48.20293592326445 -363.4163821968325 0.005620515713813834
    vertex -50.5602953666508 -372.6663821968118 0.005620508656565715
  endloop
endfacet
facet normal 7.820331771633444e-11 1.96985680769533e-09 -1.0
  outer loop
    vertex -50.5602953666508 -372.6663821968118 0.005620508656565715
    vertex -48.20293592326445 -363.4163821968325 0.005620515713813834
    vertex 1.0000000455407763 -372.66638113058815 0.005620507089296022
  endloop
endfacet
facet normal 7.820331771633444e-11 1.96985680769533e-09 -1.0
  outer loop
    vertex 1.0000000455407763 -372.66638113058815 0.005620507089296022
    vertex -48.20293592326445 -363.4163821968325 0.005620515713813834
    vertex -1.3573599351929841 -363.4163812675515 0.00562053912957472
  endloop
endfacet
facet normal 7.820331771633444e-11 1.96985680769533e-09 -1.0
  outer loop
    vertex 1.0000000455407763 -372.66638113058815 0.005620507089296022
    vertex -1.3573599351929841 -363.4163812675515 0.00562053912957472
    vertex 2.50000000711124 -367.27374082694513 0.005620507089171944
  endloop
endfacet
facet normal 7.820331771633444e-11 1.96985680769533e-09 -1.0
  outer loop
    vertex 1.0000000455407763 -372.66638113058815 0.005620507089296022
    vertex 2.50000000711124 -367.27374082694513 0.005620507089171944
    vertex 2.499999858051512 -371.1663812618339 0.005620507089250903
  endloop
endfacet
endsolid ProtoGlove
