solid power delivery
facet normal -1.611409418598814e-14 -1.0 3.222818837197628e-14
  outer loop
    vertex -17.16666617255129 -23.449006463112546 0.15000000000002228
    vertex -17.86666617255129 -23.44900646311252 0.5000000000000103
    vertex -17.86666617255129 -23.44900646311252 0.150000000000011
  endloop
endfacet
facet normal -1.611409418598814e-14 -1.0 3.222818837197628e-14
  outer loop
    vertex -17.86666617255129 -23.44900646311252 0.5000000000000103
    vertex -17.16666617255129 -23.449006463112546 0.15000000000002228
    vertex -17.16666617255128 -23.44900646311252 0.500000000000016
  endloop
endfacet
facet normal -0.7071719499784606 -0.7070416063879512 -8.461192841247124e-08
  outer loop
    vertex -15.427326329532388 -21.149006468045425 4.499537612744659
    vertex -14.616666293868196 -21.959815975015456 4.713366290898245
    vertex -14.616666415185104 -21.959815975015456 5.7273121614982605
  endloop
endfacet
facet normal 0.7071067811865404 -0.4109974682633582 -0.5753964555687845
  outer loop
    vertex -14.366666172551298 -24.049006463112477 2.5000000000000573
    vertex -13.866666172551287 -24.588773936408277 3.5000000000000107
    vertex -14.366666172551298 -24.74900646311252 3.0000000000000115
  endloop
endfacet
facet normal 0.7071067811865404 -0.4109974682633582 -0.5753964555687845
  outer loop
    vertex -13.866666172551287 -24.588773936408277 3.5000000000000107
    vertex -14.366666172551298 -24.049006463112477 2.5000000000000573
    vertex -13.866666172551287 -23.88877393640817 3.0000000000000058
  endloop
endfacet
facet normal 6.9784828500453556e-15 -0.5812381937190841 -0.8137334712067438
  outer loop
    vertex -17.11666617255128 -24.049006463112523 2.5000000000000124
    vertex -17.86666617255129 -24.74900646311252 3.0000000000000115
    vertex -17.86666617255129 -24.049006463112523 2.5000000000000124
  endloop
endfacet
facet normal 6.9784828500453556e-15 -0.5812381937190841 -0.8137334712067438
  outer loop
    vertex -17.86666617255129 -24.74900646311252 3.0000000000000115
    vertex -17.11666617255128 -24.049006463112523 2.5000000000000124
    vertex -14.366666172551298 -24.74900646311252 3.0000000000000115
  endloop
endfacet
facet normal 6.9784828500453556e-15 -0.5812381937190841 -0.8137334712067438
  outer loop
    vertex -14.366666172551298 -24.74900646311252 3.0000000000000115
    vertex -17.11666617255128 -24.049006463112523 2.5000000000000124
    vertex -14.816666172551285 -24.049006463112523 2.5000000000000124
  endloop
endfacet
facet normal 6.9784828500453556e-15 -0.5812381937190841 -0.8137334712067438
  outer loop
    vertex -14.366666172551298 -24.74900646311252 3.0000000000000115
    vertex -14.816666172551285 -24.049006463112523 2.5000000000000124
    vertex -14.366666172551298 -24.049006463112477 2.5000000000000573
  endloop
endfacet
facet normal 0.0 1.0 0.0
  outer loop
    vertex -17.36666617255129 -24.449006463112102 8.000000000000014
    vertex -15.216666172551093 -24.449006463112102 9.50000000000001
    vertex -15.216666172551093 -24.449006463112102 8.000000000000007
  endloop
endfacet
facet normal 0.0 1.0 0.0
  outer loop
    vertex -15.216666172551093 -24.449006463112102 9.50000000000001
    vertex -17.36666617255129 -24.449006463112102 8.000000000000014
    vertex -17.86666617255129 -24.449006463112102 8.500000000000012
  endloop
endfacet
facet normal 0.0 1.0 0.0
  outer loop
    vertex -15.216666172551093 -24.449006463112102 9.50000000000001
    vertex -17.86666617255129 -24.449006463112102 8.500000000000012
    vertex -17.86666617255129 -24.449006463112102 9.000000000000012
  endloop
endfacet
facet normal 0.0 1.0 0.0
  outer loop
    vertex -15.216666172551093 -24.449006463112102 9.50000000000001
    vertex -17.86666617255129 -24.449006463112102 9.000000000000012
    vertex -17.36666617255129 -24.449006463112102 9.50000000000001
  endloop
endfacet
facet normal 0.0 1.0 0.0
  outer loop
    vertex -17.86666617255129 -24.9490064631121 8.500000000000012
    vertex -17.11666617255128 -24.9490064631121 5.500000000000007
    vertex -17.86666617255129 -24.9490064631121 5.500000000000007
  endloop
endfacet
facet normal 0.0 1.0 0.0
  outer loop
    vertex -17.11666617255128 -24.9490064631121 5.500000000000007
    vertex -17.86666617255129 -24.9490064631121 8.500000000000012
    vertex -15.716666172551284 -24.9490064631121 5.500000000000024
  endloop
endfacet
facet normal 0.0 1.0 0.0
  outer loop
    vertex -15.716666172551284 -24.9490064631121 5.500000000000024
    vertex -17.86666617255129 -24.9490064631121 8.500000000000012
    vertex -17.36666617255129 -24.9490064631121 8.000000000000014
  endloop
endfacet
facet normal 0.0 1.0 0.0
  outer loop
    vertex -15.716666172551294 -24.9490064631121 8.000000000000025
    vertex -15.716666172551284 -24.9490064631121 5.500000000000024
    vertex -17.36666617255129 -24.9490064631121 8.000000000000014
  endloop
endfacet
facet normal 0.0 1.0 0.0
  outer loop
    vertex -17.86666617255129 -27.449006463111647 0.5000000000000103
    vertex -17.16666617255129 -27.449006463111647 0.15000000000002228
    vertex -17.86666617255129 -27.449006463111647 0.150000000000011
  endloop
endfacet
facet normal 0.0 1.0 0.0
  outer loop
    vertex -17.16666617255129 -27.449006463111647 0.15000000000002228
    vertex -17.86666617255129 -27.449006463111647 0.5000000000000103
    vertex -17.16666617255128 -27.449006463111647 0.500000000000016
  endloop
endfacet
facet normal 5.347132868687139e-18 0.7071067811865512 -0.7071067811865439
  outer loop
    vertex -17.86666617255129 -21.856113244299067 1.127986593019159e-14
    vertex -16.36666617255127 -21.649006463112514 0.2071067811865671
    vertex -13.866666172551287 -21.856113244299067 1.127986593019159e-14
  endloop
endfacet
facet normal 5.347132868687139e-18 0.7071067811865512 -0.7071067811865439
  outer loop
    vertex -16.36666617255127 -21.649006463112514 0.2071067811865671
    vertex -17.86666617255129 -21.856113244299067 1.127986593019159e-14
    vertex -17.86666617255128 -21.149006463112517 0.7071067811865606
  endloop
endfacet
facet normal 5.347132868687139e-18 0.7071067811865512 -0.7071067811865439
  outer loop
    vertex -13.866666172551287 -21.856113244299067 1.127986593019159e-14
    vertex -16.36666617255127 -21.649006463112514 0.2071067811865671
    vertex -13.866666172551287 -21.649006463112514 0.2071067811865643
  endloop
endfacet
facet normal 5.347132868687139e-18 0.7071067811865512 -0.7071067811865439
  outer loop
    vertex -16.36666617255127 -21.649006463112514 0.2071067811865671
    vertex -17.86666617255128 -21.149006463112517 0.7071067811865606
    vertex -16.86666617255127 -21.149006463112517 0.7071067811865774
  endloop
endfacet
facet normal 5.347132868687139e-18 0.7071067811865512 -0.7071067811865439
  outer loop
    vertex -13.866666172551287 -21.649006463112514 0.2071067811865643
    vertex -15.366666172551296 -21.649006463112514 0.2071067811865671
    vertex -14.366666172551298 -21.149006463112517 0.707106781186569
  endloop
endfacet
facet normal 5.347132868687139e-18 0.7071067811865512 -0.7071067811865439
  outer loop
    vertex -15.366666172551296 -21.649006463112514 0.2071067811865671
    vertex -13.866666172551287 -21.649006463112514 0.2071067811865643
    vertex -16.36666617255127 -21.649006463112514 0.2071067811865671
  endloop
endfacet
facet normal 5.347132868687139e-18 0.7071067811865512 -0.7071067811865439
  outer loop
    vertex -14.366666172551298 -21.149006463112517 0.707106781186569
    vertex -15.366666172551296 -21.649006463112514 0.2071067811865671
    vertex -14.866666172551296 -21.149006463112517 0.7071067811865774
  endloop
endfacet
facet normal 0.0 1.0 0.0
  outer loop
    vertex -17.11666617255128 -24.049006463112523 3.0000000000000115
    vertex -14.816666172551285 -24.049006463112523 2.5000000000000124
    vertex -17.11666617255128 -24.049006463112523 2.5000000000000124
  endloop
endfacet
facet normal 0.0 1.0 0.0
  outer loop
    vertex -14.816666172551285 -24.049006463112523 2.5000000000000124
    vertex -17.11666617255128 -24.049006463112523 3.0000000000000115
    vertex -14.816666172551285 -24.049006463112523 3.000000000000017
  endloop
endfacet
facet normal 0.0 -1.0 0.0
  outer loop
    vertex -14.366666172551286 -23.049006463112523 2.0000000000000133
    vertex -14.966666172551285 -23.049006463112523 1.0000000000000273
    vertex -14.366666172551286 -23.049006463112523 1.0000000000000095
  endloop
endfacet
facet normal 0.0 -1.0 0.0
  outer loop
    vertex -14.966666172551285 -23.049006463112523 1.0000000000000273
    vertex -14.366666172551286 -23.049006463112523 2.0000000000000133
    vertex -17.11666617255128 -23.049006463112523 2.0000000000000075
  endloop
endfacet
facet normal 0.0 -1.0 0.0
  outer loop
    vertex -17.11666617255128 -23.049006463112523 2.0000000000000075
    vertex -14.366666172551286 -23.049006463112523 2.0000000000000133
    vertex -14.616666172551286 -23.049006463112523 2.0000000000000133
  endloop
endfacet
facet normal 0.0 -1.0 0.0
  outer loop
    vertex -16.766666172551282 -23.049006463112523 1.000000000000027
    vertex -17.86666617255129 -23.049006463112523 2.0000000000000133
    vertex -17.86666617255129 -23.049006463112523 1.0000000000000095
  endloop
endfacet
facet normal 0.0 -1.0 0.0
  outer loop
    vertex -17.86666617255129 -23.049006463112523 2.0000000000000133
    vertex -16.766666172551282 -23.049006463112523 1.000000000000027
    vertex -14.966666172551285 -23.049006463112523 1.0000000000000273
  endloop
endfacet
facet normal 0.0 -1.0 0.0
  outer loop
    vertex -17.86666617255129 -23.049006463112523 2.0000000000000133
    vertex -14.966666172551285 -23.049006463112523 1.0000000000000273
    vertex -17.11666617255128 -23.049006463112523 2.0000000000000075
  endloop
endfacet
facet normal -9.197605917254463e-16 -0.9284766908852582 0.3713906763541068
  outer loop
    vertex -14.616666172551286 -23.049006463112523 2.0000000000000133
    vertex -16.61666617255128 -22.549006463112512 3.250000000000022
    vertex -17.11666617255128 -23.049006463112523 2.0000000000000075
  endloop
endfacet
facet normal -9.197605917254463e-16 -0.9284766908852582 0.3713906763541068
  outer loop
    vertex -16.61666617255128 -22.549006463112512 3.250000000000022
    vertex -14.616666172551286 -23.049006463112523 2.0000000000000133
    vertex -14.616666172551286 -22.549006463112512 3.250000000000028
  endloop
endfacet
facet normal 2.606478870530662e-05 0.2545271090155008 0.9670656389805391
  outer loop
    vertex -17.11666617255128 -24.9490064631121 5.500000000000007
    vertex -17.86666617255129 -21.149006463112517 4.500000000000014
    vertex -17.86666617255129 -24.9490064631121 5.500000000000007
  endloop
endfacet
facet normal 2.606478870530662e-05 0.2545271090155008 0.9670656389805391
  outer loop
    vertex -17.86666617255129 -21.149006463112517 4.500000000000014
    vertex -17.11666617255128 -24.9490064631121 5.500000000000007
    vertex -17.11666617255128 -23.049006463112523 4.999968818632157
  endloop
endfacet
facet normal 2.606478870530662e-05 0.2545271090155008 0.9670656389805391
  outer loop
    vertex -17.86666617255129 -21.149006463112517 4.500000000000014
    vertex -17.11666617255128 -23.049006463112523 4.999968818632157
    vertex -15.427326329532388 -21.149006468045425 4.499537612744659
  endloop
endfacet
facet normal 2.606478870530662e-05 0.2545271090155008 0.9670656389805391
  outer loop
    vertex -15.427326329532388 -21.149006468045425 4.499537612744659
    vertex -17.11666617255128 -23.049006463112523 4.999968818632157
    vertex -16.61666617255127 -22.549006463112512 4.86842105263163
  endloop
endfacet
facet normal 2.606478870530662e-05 0.2545271090155008 0.9670656389805391
  outer loop
    vertex -15.427326329532388 -21.149006468045425 4.499537612744659
    vertex -16.61666617255127 -22.549006463112512 4.86842105263163
    vertex -14.616666172551286 -22.549006463112512 4.86842105263163
  endloop
endfacet
facet normal 2.606478870530662e-05 0.2545271090155008 0.9670656389805391
  outer loop
    vertex -15.427326329532388 -21.149006468045425 4.499537612744659
    vertex -14.616666172551286 -22.549006463112512 4.86842105263163
    vertex -14.616666293868196 -21.959815975015456 4.713366290898245
  endloop
endfacet
facet normal -8.938078362529815e-15 -0.7808688094430326 0.6246950475544214
  outer loop
    vertex -17.16666617255128 -23.44900646311252 0.500000000000016
    vertex -17.86666617255129 -23.049006463112523 1.0000000000000095
    vertex -17.86666617255129 -23.44900646311252 0.5000000000000103
  endloop
endfacet
facet normal -8.938078362529815e-15 -0.7808688094430326 0.6246950475544214
  outer loop
    vertex -17.86666617255129 -23.049006463112523 1.0000000000000095
    vertex -17.16666617255128 -23.44900646311252 0.500000000000016
    vertex -16.766666172551282 -23.049006463112523 1.000000000000027
  endloop
endfacet
facet normal -0.7071067811865476 0.7071067811865476 0.0
  outer loop
    vertex -14.866666172551296 -21.149006463112517 2.7071067811865794
    vertex -15.366666172551296 -21.649006463112514 0.2071067811865671
    vertex -15.366666172551296 -21.649006463112514 2.2071067811865634
  endloop
endfacet
facet normal -0.7071067811865476 0.7071067811865476 0.0
  outer loop
    vertex -15.366666172551296 -21.649006463112514 0.2071067811865671
    vertex -14.866666172551296 -21.149006463112517 2.7071067811865794
    vertex -14.866666172551296 -21.149006463112517 0.7071067811865774
  endloop
endfacet
facet normal 0.7071067811865328 -3.946228553012316e-14 -0.7071067811865622
  outer loop
    vertex -14.366666172551286 -23.649006463112524 2.5000000000000124
    vertex -13.866666172551287 -23.88877393640817 3.0000000000000058
    vertex -14.366666172551298 -24.049006463112477 2.5000000000000573
  endloop
endfacet
facet normal 0.7071067811865328 -3.946228553012316e-14 -0.7071067811865622
  outer loop
    vertex -13.866666172551287 -23.88877393640817 3.0000000000000058
    vertex -14.366666172551286 -23.649006463112524 2.5000000000000124
    vertex -13.866666172551287 -23.44189968192597 3.0000000000000115
  endloop
endfacet
facet normal 0.2454614761104078 -0.43353169751373416 -0.8670633950274685
  outer loop
    vertex -13.866666172551287 -22.865911273627987 1.127986593019159e-14
    vertex -14.366666172551286 -23.44900646311252 0.150000000000011
    vertex -14.366666172551286 -23.149006463112524 1.127986593019159e-14
  endloop
endfacet
facet normal 0.0 1.0 0.0
  outer loop
    vertex -16.36666617255127 -21.649006463112514 2.2071067811865577
    vertex -15.366666172551296 -21.649006463112514 0.2071067811865671
    vertex -16.36666617255127 -21.649006463112514 0.2071067811865671
  endloop
endfacet
facet normal 0.0 1.0 0.0
  outer loop
    vertex -15.366666172551296 -21.649006463112514 0.2071067811865671
    vertex -16.36666617255127 -21.649006463112514 2.2071067811865577
    vertex -15.366666172551296 -21.649006463112514 2.2071067811865634
  endloop
endfacet
facet normal 2.393911385312051e-15 0.7071067811865596 -0.7071067811865356
  outer loop
    vertex -16.86666617255127 -21.149006463112517 2.7071067811865737
    vertex -15.366666172551296 -21.649006463112514 2.2071067811865634
    vertex -16.36666617255127 -21.649006463112514 2.2071067811865577
  endloop
endfacet
facet normal 2.393911385312051e-15 0.7071067811865596 -0.7071067811865356
  outer loop
    vertex -15.366666172551296 -21.649006463112514 2.2071067811865634
    vertex -16.86666617255127 -21.149006463112517 2.7071067811865737
    vertex -14.866666172551296 -21.149006463112517 2.7071067811865794
  endloop
endfacet
facet normal 5.639932965095897e-14 -1.0 3.2228188371976944e-14
  outer loop
    vertex -14.366666172551286 -23.44900646311252 0.5000000000000103
    vertex -14.566666172551274 -23.449006463112546 0.15000000000002228
    vertex -14.366666172551286 -23.44900646311252 0.150000000000011
  endloop
endfacet
facet normal 5.639932965095897e-14 -1.0 3.2228188371976944e-14
  outer loop
    vertex -14.566666172551274 -23.449006463112546 0.15000000000002228
    vertex -14.366666172551286 -23.44900646311252 0.5000000000000103
    vertex -14.566666172551285 -23.44900646311252 0.5000000000000103
  endloop
endfacet
facet normal 0.7071067811865476 0.7071067811865476 0.0
  outer loop
    vertex -16.86666617255127 -21.149006463112517 0.7071067811865774
    vertex -16.36666617255127 -21.649006463112514 2.2071067811865577
    vertex -16.36666617255127 -21.649006463112514 0.2071067811865671
  endloop
endfacet
facet normal 0.7071067811865476 0.7071067811865476 0.0
  outer loop
    vertex -16.36666617255127 -21.649006463112514 2.2071067811865577
    vertex -16.86666617255127 -21.149006463112517 0.7071067811865774
    vertex -16.86666617255127 -21.149006463112517 2.7071067811865737
  endloop
endfacet
facet normal 0.0 0.0 -1.0
  outer loop
    vertex -17.86666617255128 -23.649006463112524 2.5000000000000124
    vertex -17.11666617255128 -24.049006463112523 2.5000000000000124
    vertex -17.86666617255129 -24.049006463112523 2.5000000000000124
  endloop
endfacet
facet normal 0.0 0.0 -1.0
  outer loop
    vertex -17.11666617255128 -24.049006463112523 2.5000000000000124
    vertex -17.86666617255128 -23.649006463112524 2.5000000000000124
    vertex -17.11666617255128 -23.649006463112524 2.5000000000000124
  endloop
endfacet
facet normal 7.904139629915928e-14 -7.615967872575165e-14 -1.0
  outer loop
    vertex -14.366666172551286 -23.649006463112524 2.5000000000000124
    vertex -14.616666172551286 -23.84900646311252 2.5000000000000124
    vertex -14.616666172551286 -23.649006463112524 2.5000000000000124
  endloop
endfacet
facet normal 7.904139629915928e-14 -7.615967872575165e-14 -1.0
  outer loop
    vertex -14.616666172551286 -23.84900646311252 2.5000000000000124
    vertex -14.366666172551286 -23.649006463112524 2.5000000000000124
    vertex -14.366666172551298 -24.049006463112477 2.5000000000000573
  endloop
endfacet
facet normal 7.904139629915928e-14 -7.615967872575165e-14 -1.0
  outer loop
    vertex -14.366666172551298 -24.049006463112477 2.5000000000000573
    vertex -14.816666172551285 -24.049006463112523 2.5000000000000124
    vertex -14.616666172551286 -23.84900646311252 2.5000000000000124
  endloop
endfacet
facet normal 0.0 -1.0 0.0
  outer loop
    vertex -14.616666172551286 -22.549006463112512 3.250000000000028
    vertex -16.61666617255127 -22.549006463112512 4.86842105263163
    vertex -16.61666617255128 -22.549006463112512 3.250000000000022
  endloop
endfacet
facet normal 0.0 -1.0 0.0
  outer loop
    vertex -16.61666617255127 -22.549006463112512 4.86842105263163
    vertex -14.616666172551286 -22.549006463112512 3.250000000000028
    vertex -14.616666172551286 -22.549006463112512 4.86842105263163
  endloop
endfacet
facet normal -0.7071067811864082 0.7071067811866869 -5.3424956219470716e-15
  outer loop
    vertex -15.716666172551294 -24.9490064631121 8.000000000000025
    vertex -15.216666172551093 -24.449006463112102 8.000000000000007
    vertex -15.716666172551284 -24.9490064631121 5.500000000000024
  endloop
endfacet
facet normal -0.7071067811864082 0.7071067811866869 -5.3424956219470716e-15
  outer loop
    vertex -14.816666172551285 -24.049006463112523 3.000000000000017
    vertex -14.616666172551286 -23.84900646311252 2.5000000000000124
    vertex -14.816666172551285 -24.049006463112523 2.5000000000000124
  endloop
endfacet
facet normal -0.7071067811864082 0.7071067811866869 -5.3424956219470716e-15
  outer loop
    vertex -14.616666172551286 -23.84900646311252 2.5000000000000124
    vertex -14.816666172551285 -24.049006463112523 3.000000000000017
    vertex -14.616666172551286 -23.84900646311252 8.583841035699182
  endloop
endfacet
facet normal -0.7071067811864082 0.7071067811866869 -5.3424956219470716e-15
  outer loop
    vertex -14.616666172551286 -23.84900646311252 8.583841035699182
    vertex -14.816666172551285 -24.049006463112523 3.000000000000017
    vertex -15.716666172551284 -24.9490064631121 5.500000000000024
  endloop
endfacet
facet normal -0.7071067811864082 0.7071067811866869 -5.3424956219470716e-15
  outer loop
    vertex -14.616666172551286 -23.84900646311252 8.583841035699182
    vertex -15.716666172551284 -24.9490064631121 5.500000000000024
    vertex -15.216666172551093 -24.449006463112102 8.000000000000007
  endloop
endfacet
facet normal -0.7071067811864082 0.7071067811866869 -5.3424956219470716e-15
  outer loop
    vertex -14.616666172551286 -23.84900646311252 8.583841035699182
    vertex -15.216666172551093 -24.449006463112102 8.000000000000007
    vertex -15.216666172551093 -24.449006463112102 9.50000000000001
  endloop
endfacet
facet normal 1.0168550298832072e-14 -0.44721359549994183 -0.894427190999924
  outer loop
    vertex -16.86666617255128 -23.149006463112524 2.8199664825478976e-14
    vertex -17.86666617255129 -23.44900646311252 0.150000000000011
    vertex -17.86666617255129 -23.149006463112524 1.127986593019159e-14
  endloop
endfacet
facet normal 1.0168550298832072e-14 -0.44721359549994183 -0.894427190999924
  outer loop
    vertex -17.86666617255129 -23.44900646311252 0.150000000000011
    vertex -16.86666617255128 -23.149006463112524 2.8199664825478976e-14
    vertex -17.16666617255129 -23.449006463112546 0.15000000000002228
  endloop
endfacet
facet normal 0.0 0.0 -1.0
  outer loop
    vertex -15.216666172551093 -24.449006463112102 8.000000000000007
    vertex -17.36666617255129 -24.9490064631121 8.000000000000014
    vertex -17.36666617255129 -24.449006463112102 8.000000000000014
  endloop
endfacet
facet normal 0.0 0.0 -1.0
  outer loop
    vertex -17.36666617255129 -24.9490064631121 8.000000000000014
    vertex -15.216666172551093 -24.449006463112102 8.000000000000007
    vertex -15.716666172551294 -24.9490064631121 8.000000000000025
  endloop
endfacet
facet normal -0.7071067811865476 0.0 -0.7071067811865476
  outer loop
    vertex -17.86666617255129 -24.449006463112102 8.500000000000012
    vertex -17.36666617255129 -24.9490064631121 8.000000000000014
    vertex -17.86666617255129 -24.9490064631121 8.500000000000012
  endloop
endfacet
facet normal -0.7071067811865476 0.0 -0.7071067811865476
  outer loop
    vertex -17.36666617255129 -24.9490064631121 8.000000000000014
    vertex -17.86666617255129 -24.449006463112102 8.500000000000012
    vertex -17.36666617255129 -24.449006463112102 8.000000000000014
  endloop
endfacet
facet normal -1.7130524551498659e-15 0.9408874118687776 0.33871946827260063
  outer loop
    vertex -17.11666617255128 -24.9490064631121 5.500000000000007
    vertex -14.816666172551285 -24.049006463112523 3.000000000000017
    vertex -17.11666617255128 -24.049006463112523 3.0000000000000115
  endloop
endfacet
facet normal -1.7130524551498659e-15 0.9408874118687776 0.33871946827260063
  outer loop
    vertex -14.816666172551285 -24.049006463112523 3.000000000000017
    vertex -17.11666617255128 -24.9490064631121 5.500000000000007
    vertex -15.716666172551284 -24.9490064631121 5.500000000000024
  endloop
endfacet
facet normal 0.7591252771714855 -0.6509445549041143 3.3018964899737455e-17
  outer loop
    vertex -13.866666172551287 -22.865911273627987 1.127986593019159e-14
    vertex -14.366666172551286 -23.44900646311252 0.5000000000000103
    vertex -14.366666172551286 -23.44900646311252 0.150000000000011
  endloop
endfacet
facet normal 0.7591252771714855 -0.6509445549041143 3.3018964899737455e-17
  outer loop
    vertex -14.366666172551286 -23.44900646311252 0.5000000000000103
    vertex -13.866666172551287 -22.865911273627987 1.127986593019159e-14
    vertex -13.866666172551287 -22.865911273627987 0.5000000000000103
  endloop
endfacet
facet normal -2.607545967590636e-14 -0.4472135954999482 -0.8944271909999209
  outer loop
    vertex -14.366666172551286 -23.149006463112524 1.127986593019159e-14
    vertex -14.566666172551274 -23.449006463112546 0.15000000000002228
    vertex -14.866666172551286 -23.149006463112524 2.8199664825478976e-14
  endloop
endfacet
facet normal -2.607545967590636e-14 -0.4472135954999482 -0.8944271909999209
  outer loop
    vertex -14.566666172551274 -23.449006463112546 0.15000000000002228
    vertex -14.366666172551286 -23.149006463112524 1.127986593019159e-14
    vertex -14.366666172551286 -23.44900646311252 0.150000000000011
  endloop
endfacet
facet normal -2.0745370625581035e-16 -6.268448855102548e-15 -1.0
  outer loop
    vertex -17.86666617255129 -21.856113244299067 1.127986593019159e-14
    vertex -16.36666617255127 -22.649006463112514 1.127986593019159e-14
    vertex -17.86666617255129 -23.149006463112524 1.127986593019159e-14
  endloop
endfacet
facet normal -2.0745370625581035e-16 -6.268448855102548e-15 -1.0
  outer loop
    vertex -16.36666617255127 -22.649006463112514 1.127986593019159e-14
    vertex -17.86666617255129 -21.856113244299067 1.127986593019159e-14
    vertex -13.866666172551287 -21.856113244299067 1.127986593019159e-14
  endloop
endfacet
facet normal -2.0745370625581035e-16 -6.268448855102548e-15 -1.0
  outer loop
    vertex -17.86666617255129 -23.149006463112524 1.127986593019159e-14
    vertex -16.36666617255127 -22.649006463112514 1.127986593019159e-14
    vertex -16.86666617255128 -23.149006463112524 2.8199664825478976e-14
  endloop
endfacet
facet normal -2.0745370625581035e-16 -6.268448855102548e-15 -1.0
  outer loop
    vertex -16.36666617255127 -22.649006463112514 1.127986593019159e-14
    vertex -13.866666172551287 -21.856113244299067 1.127986593019159e-14
    vertex -15.366666172551296 -22.649006463112514 1.6919798895287383e-14
  endloop
endfacet
facet normal -2.0745370625581035e-16 -6.268448855102548e-15 -1.0
  outer loop
    vertex -15.366666172551296 -22.649006463112514 1.6919798895287383e-14
    vertex -13.866666172551287 -21.856113244299067 1.127986593019159e-14
    vertex -14.866666172551286 -23.149006463112524 2.8199664825478976e-14
  endloop
endfacet
facet normal -2.0745370625581035e-16 -6.268448855102548e-15 -1.0
  outer loop
    vertex -14.866666172551286 -23.149006463112524 2.8199664825478976e-14
    vertex -13.866666172551287 -21.856113244299067 1.127986593019159e-14
    vertex -14.366666172551286 -23.149006463112524 1.127986593019159e-14
  endloop
endfacet
facet normal -2.0745370625581035e-16 -6.268448855102548e-15 -1.0
  outer loop
    vertex -14.366666172551286 -23.149006463112524 1.127986593019159e-14
    vertex -13.866666172551287 -21.856113244299067 1.127986593019159e-14
    vertex -13.866666172551287 -22.865911273627987 1.127986593019159e-14
  endloop
endfacet
facet normal 0.0 1.0 0.0
  outer loop
    vertex -17.86666617255129 -21.149006463112517 4.500000000000014
    vertex -16.86666617255127 -21.149006463112517 0.7071067811865774
    vertex -17.86666617255128 -21.149006463112517 0.7071067811865606
  endloop
endfacet
facet normal 0.0 1.0 0.0
  outer loop
    vertex -16.86666617255127 -21.149006463112517 0.7071067811865774
    vertex -17.86666617255129 -21.149006463112517 4.500000000000014
    vertex -16.86666617255127 -21.149006463112517 2.7071067811865737
  endloop
endfacet
facet normal 0.0 1.0 0.0
  outer loop
    vertex -16.86666617255127 -21.149006463112517 2.7071067811865737
    vertex -17.86666617255129 -21.149006463112517 4.500000000000014
    vertex -14.866666172551296 -21.149006463112517 2.7071067811865794
  endloop
endfacet
facet normal 0.0 1.0 0.0
  outer loop
    vertex -14.866666172551296 -21.149006463112517 2.7071067811865794
    vertex -17.86666617255129 -21.149006463112517 4.500000000000014
    vertex -15.427326329532388 -21.149006468045425 4.499537612744659
  endloop
endfacet
facet normal 0.0 1.0 0.0
  outer loop
    vertex -14.866666172551296 -21.149006463112517 2.7071067811865794
    vertex -15.427326329532388 -21.149006468045425 4.499537612744659
    vertex -14.366666172551298 -21.149006463112517 4.499509931902921
  endloop
endfacet
facet normal 0.0 1.0 0.0
  outer loop
    vertex -14.866666172551296 -21.149006463112517 0.7071067811865774
    vertex -14.366666172551298 -21.149006463112517 4.499509931902921
    vertex -14.366666172551298 -21.149006463112517 0.707106781186569
  endloop
endfacet
facet normal 0.0 1.0 0.0
  outer loop
    vertex -14.366666172551298 -21.149006463112517 4.499509931902921
    vertex -14.866666172551296 -21.149006463112517 0.7071067811865774
    vertex -14.866666172551296 -21.149006463112517 2.7071067811865794
  endloop
endfacet
facet normal 0.7071067811865406 0.7071067811865545 4.716340557984888e-18
  outer loop
    vertex -14.366666172551298 -21.149006463112517 0.707106781186569
    vertex -13.866666172551287 -21.649006463112514 5.256976961525675
    vertex -13.866666172551287 -21.649006463112514 0.2071067811865643
  endloop
endfacet
facet normal 0.7071067811865406 0.7071067811865545 4.716340557984888e-18
  outer loop
    vertex -13.866666172551287 -21.649006463112514 5.256976961525675
    vertex -14.366666172551298 -21.149006463112517 0.707106781186569
    vertex -14.366666172551298 -21.149006463112517 4.499509931902921
  endloop
endfacet
facet normal 2.2873145326345328e-05 0.8345527256008518 0.5509280784902949
  outer loop
    vertex -15.427326329532388 -21.149006468045425 4.499537612744659
    vertex -13.866666172551287 -21.649006463112514 5.256976961525675
    vertex -14.366666172551298 -21.149006463112517 4.499509931902921
  endloop
endfacet
facet normal 2.2873145326345328e-05 0.8345527256008518 0.5509280784902949
  outer loop
    vertex -13.866666172551287 -21.649006463112514 5.256976961525675
    vertex -15.427326329532388 -21.149006468045425 4.499537612744659
    vertex -14.616666415185104 -21.959815975015456 5.7273121614982605
  endloop
endfacet
facet normal 2.2873145326345328e-05 0.8345527256008518 0.5509280784902949
  outer loop
    vertex -13.866666172551287 -21.649006463112514 5.256976961525675
    vertex -14.616666415185104 -21.959815975015456 5.7273121614982605
    vertex -13.866666172551287 -24.11967549788628 9.000000000000012
  endloop
endfacet
facet normal 2.2873145326345328e-05 0.8345527256008518 0.5509280784902949
  outer loop
    vertex -13.866666172551287 -24.11967549788628 9.000000000000012
    vertex -14.616666415185104 -21.959815975015456 5.7273121614982605
    vertex -14.616666172551286 -23.84900646311252 8.583841035699182
  endloop
endfacet
facet normal 2.2873145326345328e-05 0.8345527256008518 0.5509280784902949
  outer loop
    vertex -13.866666172551287 -24.11967549788628 9.000000000000012
    vertex -14.616666172551286 -23.84900646311252 8.583841035699182
    vertex -15.216666172551093 -24.449006463112102 9.50000000000001
  endloop
endfacet
facet normal 2.2873145326345328e-05 0.8345527256008518 0.5509280784902949
  outer loop
    vertex -13.866666172551287 -24.11967549788628 9.000000000000012
    vertex -15.216666172551093 -24.449006463112102 9.50000000000001
    vertex -14.366666172551286 -24.449006463112102 9.50000000000001
  endloop
endfacet
facet normal 0.7071067811865521 -0.7071067811865429 -1.1049812941587653e-15
  outer loop
    vertex -16.61666617255128 -22.549006463112512 3.250000000000022
    vertex -17.11666617255128 -23.049006463112523 4.999968818632157
    vertex -17.11666617255128 -23.049006463112523 2.0000000000000075
  endloop
endfacet
facet normal 0.7071067811865521 -0.7071067811865429 -1.1049812941587653e-15
  outer loop
    vertex -17.11666617255128 -23.049006463112523 4.999968818632157
    vertex -16.61666617255128 -22.549006463112512 3.250000000000022
    vertex -16.61666617255127 -22.549006463112512 4.86842105263163
  endloop
endfacet
facet normal 1.0 0.0 0.0
  outer loop
    vertex -17.11666617255128 -23.649006463112524 2.5000000000000124
    vertex -17.11666617255128 -24.049006463112523 3.0000000000000115
    vertex -17.11666617255128 -24.049006463112523 2.5000000000000124
  endloop
endfacet
facet normal 1.0 0.0 0.0
  outer loop
    vertex -17.11666617255128 -24.049006463112523 3.0000000000000115
    vertex -17.11666617255128 -23.049006463112523 4.999968818632157
    vertex -17.11666617255128 -24.9490064631121 5.500000000000007
  endloop
endfacet
facet normal 1.0 0.0 0.0
  outer loop
    vertex -17.11666617255128 -23.049006463112523 4.999968818632157
    vertex -17.11666617255128 -24.049006463112523 3.0000000000000115
    vertex -17.11666617255128 -23.649006463112524 2.5000000000000124
  endloop
endfacet
facet normal 1.0 0.0 0.0
  outer loop
    vertex -17.11666617255128 -23.049006463112523 4.999968818632157
    vertex -17.11666617255128 -23.649006463112524 2.5000000000000124
    vertex -17.11666617255128 -23.049006463112523 2.0000000000000075
  endloop
endfacet
facet normal -2.9057157733167663e-15 -0.640184399664482 -0.7682212795973741
  outer loop
    vertex -17.11666617255128 -23.049006463112523 2.0000000000000075
    vertex -17.86666617255128 -23.649006463112524 2.5000000000000124
    vertex -17.86666617255129 -23.049006463112523 2.0000000000000133
  endloop
endfacet
facet normal -2.9057157733167663e-15 -0.640184399664482 -0.7682212795973741
  outer loop
    vertex -17.86666617255128 -23.649006463112524 2.5000000000000124
    vertex -17.11666617255128 -23.049006463112523 2.0000000000000075
    vertex -17.11666617255128 -23.649006463112524 2.5000000000000124
  endloop
endfacet
facet normal 4.156508622646027e-16 -0.9284766908852576 -0.3713906763541083
  outer loop
    vertex -15.366666172551296 -22.649006463112514 1.6919798895287383e-14
    vertex -16.766666172551282 -23.049006463112523 1.000000000000027
    vertex -16.36666617255127 -22.649006463112514 1.127986593019159e-14
  endloop
endfacet
facet normal 4.156508622646027e-16 -0.9284766908852576 -0.3713906763541083
  outer loop
    vertex -16.766666172551282 -23.049006463112523 1.000000000000027
    vertex -15.366666172551296 -22.649006463112514 1.6919798895287383e-14
    vertex -14.966666172551285 -23.049006463112523 1.0000000000000273
  endloop
endfacet
facet normal -0.707171949978447 0.707041606387965 -8.46119284124761e-08
  outer loop
    vertex -14.616666293868196 -28.938196951208734 4.713366290898245
    vertex -15.427326329532388 -29.749006458178734 4.499537612744659
    vertex -14.616666415185104 -28.938196951208734 5.7273121614982605
  endloop
endfacet
facet normal 0.7071067811865505 -0.7071067811865446 2.790441460743067e-15
  outer loop
    vertex -16.86666617255128 -23.149006463112524 2.8199664825478976e-14
    vertex -17.16666617255128 -23.44900646311252 0.500000000000016
    vertex -17.16666617255129 -23.449006463112546 0.15000000000002228
  endloop
endfacet
facet normal 0.7071067811865505 -0.7071067811865446 2.790441460743067e-15
  outer loop
    vertex -17.16666617255128 -23.44900646311252 0.500000000000016
    vertex -16.86666617255128 -23.149006463112524 2.8199664825478976e-14
    vertex -16.766666172551282 -23.049006463112523 1.000000000000027
  endloop
endfacet
facet normal 0.7071067811865505 -0.7071067811865446 2.790441460743067e-15
  outer loop
    vertex -16.766666172551282 -23.049006463112523 1.000000000000027
    vertex -16.86666617255128 -23.149006463112524 2.8199664825478976e-14
    vertex -16.36666617255127 -22.649006463112514 1.127986593019159e-14
  endloop
endfacet
facet normal 0.7186226583098125 -0.44518437650427434 -0.534221251805129
  outer loop
    vertex -14.366666172551286 -23.049006463112523 2.0000000000000133
    vertex -13.866666172551287 -23.44189968192597 3.0000000000000115
    vertex -14.366666172551286 -23.649006463112524 2.5000000000000124
  endloop
endfacet
facet normal 0.7186226583098125 -0.44518437650427434 -0.534221251805129
  outer loop
    vertex -13.866666172551287 -23.44189968192597 3.0000000000000115
    vertex -14.366666172551286 -23.049006463112523 2.0000000000000133
    vertex -13.866666172551287 -22.549006463112526 2.2559223176554717
  endloop
endfacet
facet normal 6.327012320610532e-15 0.5812381937190713 -0.8137334712067531
  outer loop
    vertex -14.366666172551298 -26.149006463111625 3.0000000000000115
    vertex -17.86666617255129 -26.84900646311165 2.5000000000000124
    vertex -17.86666617255129 -26.149006463111625 3.0000000000000115
  endloop
endfacet
facet normal 6.327012320610532e-15 0.5812381937190713 -0.8137334712067531
  outer loop
    vertex -17.86666617255129 -26.84900646311165 2.5000000000000124
    vertex -14.366666172551298 -26.149006463111625 3.0000000000000115
    vertex -17.11666617255128 -26.84900646311165 2.5000000000000124
  endloop
endfacet
facet normal 6.327012320610532e-15 0.5812381937190713 -0.8137334712067531
  outer loop
    vertex -17.11666617255128 -26.84900646311165 2.5000000000000124
    vertex -14.366666172551298 -26.149006463111625 3.0000000000000115
    vertex -14.816666172551285 -26.84900646311165 2.5000000000000124
  endloop
endfacet
facet normal 6.327012320610532e-15 0.5812381937190713 -0.8137334712067531
  outer loop
    vertex -14.816666172551285 -26.84900646311165 2.5000000000000124
    vertex -14.366666172551298 -26.149006463111625 3.0000000000000115
    vertex -14.366666172551298 -26.84900646311168 2.5000000000000573
  endloop
endfacet
facet normal 1.8172270631697818e-14 -0.7808688094430328 0.6246950475544214
  outer loop
    vertex -14.366666172551286 -23.049006463112523 1.0000000000000095
    vertex -14.566666172551285 -23.44900646311252 0.5000000000000103
    vertex -14.366666172551286 -23.44900646311252 0.5000000000000103
  endloop
endfacet
facet normal 1.8172270631697818e-14 -0.7808688094430328 0.6246950475544214
  outer loop
    vertex -14.566666172551285 -23.44900646311252 0.5000000000000103
    vertex -14.366666172551286 -23.049006463112523 1.0000000000000095
    vertex -14.966666172551285 -23.049006463112523 1.0000000000000273
  endloop
endfacet
facet normal 0.6733003292241434 -0.5773502691896224 0.4618802153516977
  outer loop
    vertex -13.866666172551287 -22.865911273627987 0.5000000000000103
    vertex -14.366666172551286 -23.049006463112523 1.0000000000000095
    vertex -14.366666172551286 -23.44900646311252 0.5000000000000103
  endloop
endfacet
facet normal 0.6733003292241434 -0.5773502691896224 0.4618802153516977
  outer loop
    vertex -14.366666172551286 -23.049006463112523 1.0000000000000095
    vertex -13.866666172551287 -22.865911273627987 0.5000000000000103
    vertex -13.866666172551287 -22.549006463112526 0.8961310131443379
  endloop
endfacet
facet normal 0.0 -0.6401843996644799 -0.768221279597376
  outer loop
    vertex -14.366666172551286 -23.049006463112523 2.0000000000000133
    vertex -14.616666172551286 -23.649006463112524 2.5000000000000124
    vertex -14.616666172551286 -23.049006463112523 2.0000000000000133
  endloop
endfacet
facet normal 0.0 -0.6401843996644799 -0.768221279597376
  outer loop
    vertex -14.616666172551286 -23.649006463112524 2.5000000000000124
    vertex -14.366666172551286 -23.049006463112523 2.0000000000000133
    vertex -14.366666172551286 -23.649006463112524 2.5000000000000124
  endloop
endfacet
facet normal 0.7071067811865395 -5.088501127319659e-29 -0.7071067811865556
  outer loop
    vertex -13.866666172551287 -24.588773936408277 3.5000000000000107
    vertex -14.366666172551298 -26.149006463111625 3.0000000000000115
    vertex -14.366666172551298 -24.74900646311252 3.0000000000000115
  endloop
endfacet
facet normal 0.7071067811865395 -5.088501127319659e-29 -0.7071067811865556
  outer loop
    vertex -14.366666172551298 -26.149006463111625 3.0000000000000115
    vertex -13.866666172551287 -24.588773936408277 3.5000000000000107
    vertex -13.866666172551287 -26.309238989815903 3.5000000000000107
  endloop
endfacet
facet normal 0.0 -1.0 0.0
  outer loop
    vertex -15.216666172551093 -26.449006463112067 9.50000000000001
    vertex -17.36666617255129 -26.449006463112067 8.000000000000014
    vertex -15.216666172551093 -26.449006463112067 8.000000000000007
  endloop
endfacet
facet normal 0.0 -1.0 0.0
  outer loop
    vertex -17.36666617255129 -26.449006463112067 8.000000000000014
    vertex -15.216666172551093 -26.449006463112067 9.50000000000001
    vertex -17.86666617255129 -26.449006463112067 8.500000000000012
  endloop
endfacet
facet normal 0.0 -1.0 0.0
  outer loop
    vertex -17.86666617255129 -26.449006463112067 8.500000000000012
    vertex -15.216666172551093 -26.449006463112067 9.50000000000001
    vertex -17.86666617255129 -26.449006463112067 9.000000000000012
  endloop
endfacet
facet normal 0.0 -1.0 0.0
  outer loop
    vertex -17.86666617255129 -26.449006463112067 9.000000000000012
    vertex -15.216666172551093 -26.449006463112067 9.50000000000001
    vertex -17.36666617255129 -26.449006463112067 9.50000000000001
  endloop
endfacet
facet normal 0.7071067811865462 0.4109974682633536 -0.5753964555687804
  outer loop
    vertex -14.366666172551298 -26.84900646311168 2.5000000000000573
    vertex -13.866666172551287 -26.309238989815903 3.5000000000000107
    vertex -13.866666172551287 -27.009238989815998 3.0000000000000058
  endloop
endfacet
facet normal 0.7071067811865462 0.4109974682633536 -0.5753964555687804
  outer loop
    vertex -13.866666172551287 -26.309238989815903 3.5000000000000107
    vertex -14.366666172551298 -26.84900646311168 2.5000000000000573
    vertex -14.366666172551298 -26.149006463111625 3.0000000000000115
  endloop
endfacet
facet normal -0.9999999999999971 -7.807438419064285e-08 -1.0039311441521247e-08
  outer loop
    vertex -14.616666172551286 -23.84900646311252 8.583841035699182
    vertex -14.616666172551286 -22.549006463112512 4.86842105263163
    vertex -14.616666172551286 -23.84900646311252 2.5000000000000124
  endloop
endfacet
facet normal -0.9999999999999971 -7.807438419064285e-08 -1.0039311441521247e-08
  outer loop
    vertex -14.616666172551286 -22.549006463112512 4.86842105263163
    vertex -14.616666172551286 -23.84900646311252 8.583841035699182
    vertex -14.616666415185104 -21.959815975015456 5.7273121614982605
  endloop
endfacet
facet normal -0.9999999999999971 -7.807438419064285e-08 -1.0039311441521247e-08
  outer loop
    vertex -14.616666172551286 -23.84900646311252 2.5000000000000124
    vertex -14.616666172551286 -22.549006463112512 4.86842105263163
    vertex -14.616666172551286 -23.649006463112524 2.5000000000000124
  endloop
endfacet
facet normal -0.9999999999999971 -7.807438419064285e-08 -1.0039311441521247e-08
  outer loop
    vertex -14.616666172551286 -23.649006463112524 2.5000000000000124
    vertex -14.616666172551286 -22.549006463112512 4.86842105263163
    vertex -14.616666172551286 -23.049006463112523 2.0000000000000133
  endloop
endfacet
facet normal -0.9999999999999971 -7.807438419064285e-08 -1.0039311441521247e-08
  outer loop
    vertex -14.616666172551286 -22.549006463112512 4.86842105263163
    vertex -14.616666415185104 -21.959815975015456 5.7273121614982605
    vertex -14.616666293868196 -21.959815975015456 4.713366290898245
  endloop
endfacet
facet normal -0.9999999999999971 -7.807438419064285e-08 -1.0039311441521247e-08
  outer loop
    vertex -14.616666172551286 -22.549006463112512 3.250000000000028
    vertex -14.616666172551286 -23.049006463112523 2.0000000000000133
    vertex -14.616666172551286 -22.549006463112512 4.86842105263163
  endloop
endfacet
facet normal 0.7071067811865476 -0.7071067811865476 0.0
  outer loop
    vertex -13.866666172551287 -22.549006463112526 0.8961310131443379
    vertex -14.366666172551286 -23.049006463112523 2.0000000000000133
    vertex -14.366666172551286 -23.049006463112523 1.0000000000000095
  endloop
endfacet
facet normal 0.7071067811865476 -0.7071067811865476 0.0
  outer loop
    vertex -14.366666172551286 -23.049006463112523 2.0000000000000133
    vertex -13.866666172551287 -22.549006463112526 0.8961310131443379
    vertex -13.866666172551287 -22.549006463112526 2.2559223176554717
  endloop
endfacet
facet normal -0.7071067811865507 -0.7071067811865445 2.7654150799292423e-15
  outer loop
    vertex -14.566666172551285 -23.44900646311252 0.5000000000000103
    vertex -14.866666172551286 -23.149006463112524 2.8199664825478976e-14
    vertex -14.566666172551274 -23.449006463112546 0.15000000000002228
  endloop
endfacet
facet normal -0.7071067811865507 -0.7071067811865445 2.7654150799292423e-15
  outer loop
    vertex -14.866666172551286 -23.149006463112524 2.8199664825478976e-14
    vertex -14.566666172551285 -23.44900646311252 0.5000000000000103
    vertex -14.966666172551285 -23.049006463112523 1.0000000000000273
  endloop
endfacet
facet normal -0.7071067811865507 -0.7071067811865445 2.7654150799292423e-15
  outer loop
    vertex -14.866666172551286 -23.149006463112524 2.8199664825478976e-14
    vertex -14.966666172551285 -23.049006463112523 1.0000000000000273
    vertex -15.366666172551296 -22.649006463112514 1.6919798895287383e-14
  endloop
endfacet
facet normal 0.0 1.0 0.0
  outer loop
    vertex -17.86666617255129 -27.849006463111657 2.0000000000000133
    vertex -16.766666172551282 -27.849006463111657 1.000000000000027
    vertex -17.86666617255129 -27.849006463111657 1.0000000000000095
  endloop
endfacet
facet normal 0.0 1.0 0.0
  outer loop
    vertex -16.766666172551282 -27.849006463111657 1.000000000000027
    vertex -17.86666617255129 -27.849006463111657 2.0000000000000133
    vertex -14.966666172551285 -27.849006463111657 1.0000000000000273
  endloop
endfacet
facet normal 0.0 1.0 0.0
  outer loop
    vertex -14.966666172551285 -27.849006463111657 1.0000000000000273
    vertex -17.86666617255129 -27.849006463111657 2.0000000000000133
    vertex -17.11666617255128 -27.849006463111657 2.0000000000000075
  endloop
endfacet
facet normal 0.0 1.0 0.0
  outer loop
    vertex -14.966666172551285 -27.849006463111657 1.0000000000000273
    vertex -14.366666172551286 -27.849006463111657 2.0000000000000133
    vertex -14.366666172551286 -27.849006463111657 1.0000000000000095
  endloop
endfacet
facet normal 0.0 1.0 0.0
  outer loop
    vertex -14.366666172551286 -27.849006463111657 2.0000000000000133
    vertex -14.966666172551285 -27.849006463111657 1.0000000000000273
    vertex -17.11666617255128 -27.849006463111657 2.0000000000000075
  endloop
endfacet
facet normal 0.0 1.0 0.0
  outer loop
    vertex -14.366666172551286 -27.849006463111657 2.0000000000000133
    vertex -17.11666617255128 -27.849006463111657 2.0000000000000075
    vertex -14.616666172551286 -27.849006463111657 2.0000000000000133
  endloop
endfacet
facet normal -8.5728998897874e-15 0.7808688094430236 0.6246950475544326
  outer loop
    vertex -17.86666617255129 -27.849006463111657 1.0000000000000095
    vertex -17.16666617255128 -27.449006463111647 0.500000000000016
    vertex -17.86666617255129 -27.449006463111647 0.5000000000000103
  endloop
endfacet
facet normal -8.5728998897874e-15 0.7808688094430236 0.6246950475544326
  outer loop
    vertex -17.16666617255128 -27.449006463111647 0.500000000000016
    vertex -17.86666617255129 -27.849006463111657 1.0000000000000095
    vertex -16.766666172551282 -27.849006463111657 1.000000000000027
  endloop
endfacet
facet normal 0.0 0.0 1.0
  outer loop
    vertex -15.216666172551093 -26.449006463112067 9.50000000000001
    vertex -17.36666617255129 -24.449006463112102 9.50000000000001
    vertex -17.36666617255129 -26.449006463112067 9.50000000000001
  endloop
endfacet
facet normal 0.0 0.0 1.0
  outer loop
    vertex -17.36666617255129 -24.449006463112102 9.50000000000001
    vertex -15.216666172551093 -26.449006463112067 9.50000000000001
    vertex -15.216666172551093 -24.449006463112102 9.50000000000001
  endloop
endfacet
facet normal 0.0 0.0 1.0
  outer loop
    vertex -15.216666172551093 -24.449006463112102 9.50000000000001
    vertex -15.216666172551093 -26.449006463112067 9.50000000000001
    vertex -14.366666172551286 -26.449006463112067 9.50000000000001
  endloop
endfacet
facet normal 0.0 0.0 1.0
  outer loop
    vertex -15.216666172551093 -24.449006463112102 9.50000000000001
    vertex -14.366666172551286 -26.449006463112067 9.50000000000001
    vertex -14.366666172551286 -24.449006463112102 9.50000000000001
  endloop
endfacet
facet normal 0.0 -1.0 0.0
  outer loop
    vertex -14.816666172551285 -26.84900646311165 3.000000000000017
    vertex -17.11666617255128 -26.84900646311165 2.5000000000000124
    vertex -14.816666172551285 -26.84900646311165 2.5000000000000124
  endloop
endfacet
facet normal 0.0 -1.0 0.0
  outer loop
    vertex -17.11666617255128 -26.84900646311165 2.5000000000000124
    vertex -14.816666172551285 -26.84900646311165 3.000000000000017
    vertex -17.11666617255128 -26.84900646311165 3.0000000000000115
  endloop
endfacet
facet normal -1.2988982053898608e-15 -0.7071067811865541 -0.7071067811865409
  outer loop
    vertex -14.366666172551298 -29.74900646311163 0.707106781186569
    vertex -15.366666172551296 -29.249006463111666 0.2071067811865671
    vertex -13.866666172551287 -29.249006463111666 0.2071067811865643
  endloop
endfacet
facet normal -1.2988982053898608e-15 -0.7071067811865541 -0.7071067811865409
  outer loop
    vertex -15.366666172551296 -29.249006463111666 0.2071067811865671
    vertex -14.366666172551298 -29.74900646311163 0.707106781186569
    vertex -14.866666172551296 -29.74900646311163 0.7071067811865774
  endloop
endfacet
facet normal -1.2988982053898608e-15 -0.7071067811865541 -0.7071067811865409
  outer loop
    vertex -13.866666172551287 -29.249006463111666 0.2071067811865643
    vertex -17.86666617255129 -29.041899681925067 1.127986593019159e-14
    vertex -13.866666172551287 -29.041899681925067 1.127986593019159e-14
  endloop
endfacet
facet normal -1.2988982053898608e-15 -0.7071067811865541 -0.7071067811865409
  outer loop
    vertex -17.86666617255129 -29.041899681925067 1.127986593019159e-14
    vertex -13.866666172551287 -29.249006463111666 0.2071067811865643
    vertex -16.36666617255127 -29.249006463111666 0.2071067811865671
  endloop
endfacet
facet normal -1.2988982053898608e-15 -0.7071067811865541 -0.7071067811865409
  outer loop
    vertex -17.86666617255129 -29.041899681925067 1.127986593019159e-14
    vertex -16.36666617255127 -29.249006463111666 0.2071067811865671
    vertex -17.86666617255128 -29.74900646311163 0.7071067811865606
  endloop
endfacet
facet normal -1.2988982053898608e-15 -0.7071067811865541 -0.7071067811865409
  outer loop
    vertex -16.36666617255127 -29.249006463111666 0.2071067811865671
    vertex -13.866666172551287 -29.249006463111666 0.2071067811865643
    vertex -15.366666172551296 -29.249006463111666 0.2071067811865671
  endloop
endfacet
facet normal -1.2988982053898608e-15 -0.7071067811865541 -0.7071067811865409
  outer loop
    vertex -17.86666617255128 -29.74900646311163 0.7071067811865606
    vertex -16.36666617255127 -29.249006463111666 0.2071067811865671
    vertex -16.86666617255127 -29.74900646311163 0.7071067811865774
  endloop
endfacet
facet normal -9.197605917254519e-16 0.928476690885264 0.37139067635409234
  outer loop
    vertex -16.61666617255128 -28.349006463111646 3.250000000000022
    vertex -14.616666172551286 -27.849006463111657 2.0000000000000133
    vertex -17.11666617255128 -27.849006463111657 2.0000000000000075
  endloop
endfacet
facet normal -9.197605917254519e-16 0.928476690885264 0.37139067635409234
  outer loop
    vertex -14.616666172551286 -27.849006463111657 2.0000000000000133
    vertex -16.61666617255128 -28.349006463111646 3.250000000000022
    vertex -14.616666172551286 -28.349006463111646 3.250000000000028
  endloop
endfacet
facet normal 1.4006503659604799e-05 -0.2545320371683454 0.9670643421503814
  outer loop
    vertex -17.11666617255128 -25.949006463112045 5.500000000000007
    vertex -17.86666617255129 -25.949006463112045 5.500000000000007
    vertex -17.11666617255128 -27.849006463111657 4.999968818632157
  endloop
endfacet
facet normal 1.4006503659604799e-05 -0.2545320371683454 0.9670643421503814
  outer loop
    vertex -17.86666617255129 -29.74900646311163 4.500000000000014
    vertex -17.11666617255128 -27.849006463111657 4.999968818632157
    vertex -17.86666617255129 -25.949006463112045 5.500000000000007
  endloop
endfacet
facet normal 1.4006503659604799e-05 -0.2545320371683454 0.9670643421503814
  outer loop
    vertex -17.11666617255128 -27.849006463111657 4.999968818632157
    vertex -17.86666617255129 -29.74900646311163 4.500000000000014
    vertex -15.427326329532388 -29.749006458178734 4.499537612744659
  endloop
endfacet
facet normal 1.4006503659604799e-05 -0.2545320371683454 0.9670643421503814
  outer loop
    vertex -17.11666617255128 -27.849006463111657 4.999968818632157
    vertex -15.427326329532388 -29.749006458178734 4.499537612744659
    vertex -16.61666617255127 -28.349006463111646 4.86842105263163
  endloop
endfacet
facet normal 1.4006503659604799e-05 -0.2545320371683454 0.9670643421503814
  outer loop
    vertex -16.61666617255127 -28.349006463111646 4.86842105263163
    vertex -15.427326329532388 -29.749006458178734 4.499537612744659
    vertex -14.616666172551286 -28.349006463111646 4.86842105263163
  endloop
endfacet
facet normal 1.4006503659604799e-05 -0.2545320371683454 0.9670643421503814
  outer loop
    vertex -14.616666172551286 -28.349006463111646 4.86842105263163
    vertex -15.427326329532388 -29.749006458178734 4.499537612744659
    vertex -14.616666293868196 -28.938196951208734 4.713366290898245
  endloop
endfacet
facet normal 0.0 0.0 -1.0
  outer loop
    vertex -14.366666172551298 -24.74900646311252 3.0000000000000115
    vertex -17.86666617255129 -26.149006463111625 3.0000000000000115
    vertex -17.86666617255129 -24.74900646311252 3.0000000000000115
  endloop
endfacet
facet normal 0.0 0.0 -1.0
  outer loop
    vertex -17.86666617255129 -26.149006463111625 3.0000000000000115
    vertex -14.366666172551298 -24.74900646311252 3.0000000000000115
    vertex -14.366666172551298 -26.149006463111625 3.0000000000000115
  endloop
endfacet
facet normal 0.0 -1.0 0.0
  outer loop
    vertex -15.716666172551294 -25.949006463112045 8.000000000000025
    vertex -17.36666617255129 -25.949006463112045 8.000000000000014
    vertex -15.716666172551284 -25.949006463112045 5.500000000000024
  endloop
endfacet
facet normal 0.0 -1.0 0.0
  outer loop
    vertex -15.716666172551284 -25.949006463112045 5.500000000000024
    vertex -17.86666617255129 -25.949006463112045 5.500000000000007
    vertex -17.11666617255128 -25.949006463112045 5.500000000000007
  endloop
endfacet
facet normal 0.0 -1.0 0.0
  outer loop
    vertex -17.86666617255129 -25.949006463112045 5.500000000000007
    vertex -15.716666172551284 -25.949006463112045 5.500000000000024
    vertex -17.86666617255129 -25.949006463112045 8.500000000000012
  endloop
endfacet
facet normal 0.0 -1.0 0.0
  outer loop
    vertex -17.86666617255129 -25.949006463112045 8.500000000000012
    vertex -15.716666172551284 -25.949006463112045 5.500000000000024
    vertex -17.36666617255129 -25.949006463112045 8.000000000000014
  endloop
endfacet
facet normal -0.7071067811865476 0.0 -0.7071067811865476
  outer loop
    vertex -17.86666617255129 -25.949006463112045 8.500000000000012
    vertex -17.36666617255129 -26.449006463112067 8.000000000000014
    vertex -17.86666617255129 -26.449006463112067 8.500000000000012
  endloop
endfacet
facet normal -0.7071067811865476 0.0 -0.7071067811865476
  outer loop
    vertex -17.36666617255129 -26.449006463112067 8.000000000000014
    vertex -17.86666617255129 -25.949006463112045 8.500000000000012
    vertex -17.36666617255129 -25.949006463112045 8.000000000000014
  endloop
endfacet
facet normal -0.7071067811865236 -0.7071067811865716 7.790587215444826e-18
  outer loop
    vertex -14.866666172551296 -29.74900646311163 0.7071067811865774
    vertex -15.366666172551296 -29.249006463111666 2.2071067811865634
    vertex -15.366666172551296 -29.249006463111666 0.2071067811865671
  endloop
endfacet
facet normal -0.7071067811865236 -0.7071067811865716 7.790587215444826e-18
  outer loop
    vertex -15.366666172551296 -29.249006463111666 2.2071067811865634
    vertex -14.866666172551296 -29.74900646311163 0.7071067811865774
    vertex -14.866666172551296 -29.74900646311163 2.7071067811865794
  endloop
endfacet
facet normal -2.0745370625581363e-16 6.268448855102638e-15 -1.0
  outer loop
    vertex -16.86666617255128 -27.74900646311162 2.8199664825478976e-14
    vertex -17.86666617255129 -29.041899681925067 1.127986593019159e-14
    vertex -17.86666617255129 -27.74900646311162 1.127986593019159e-14
  endloop
endfacet
facet normal -2.0745370625581363e-16 6.268448855102638e-15 -1.0
  outer loop
    vertex -17.86666617255129 -29.041899681925067 1.127986593019159e-14
    vertex -16.86666617255128 -27.74900646311162 2.8199664825478976e-14
    vertex -16.36666617255127 -28.24900646311167 1.127986593019159e-14
  endloop
endfacet
facet normal -2.0745370625581363e-16 6.268448855102638e-15 -1.0
  outer loop
    vertex -17.86666617255129 -29.041899681925067 1.127986593019159e-14
    vertex -16.36666617255127 -28.24900646311167 1.127986593019159e-14
    vertex -13.866666172551287 -29.041899681925067 1.127986593019159e-14
  endloop
endfacet
facet normal -2.0745370625581363e-16 6.268448855102638e-15 -1.0
  outer loop
    vertex -13.866666172551287 -29.041899681925067 1.127986593019159e-14
    vertex -16.36666617255127 -28.24900646311167 1.127986593019159e-14
    vertex -15.366666172551296 -28.24900646311167 1.6919798895287383e-14
  endloop
endfacet
facet normal -2.0745370625581363e-16 6.268448855102638e-15 -1.0
  outer loop
    vertex -13.866666172551287 -29.041899681925067 1.127986593019159e-14
    vertex -15.366666172551296 -28.24900646311167 1.6919798895287383e-14
    vertex -14.866666172551286 -27.74900646311162 2.8199664825478976e-14
  endloop
endfacet
facet normal -2.0745370625581363e-16 6.268448855102638e-15 -1.0
  outer loop
    vertex -13.866666172551287 -29.041899681925067 1.127986593019159e-14
    vertex -14.866666172551286 -27.74900646311162 2.8199664825478976e-14
    vertex -14.366666172551286 -27.74900646311162 1.127986593019159e-14
  endloop
endfacet
facet normal -2.0745370625581363e-16 6.268448855102638e-15 -1.0
  outer loop
    vertex -13.866666172551287 -29.041899681925067 1.127986593019159e-14
    vertex -14.366666172551286 -27.74900646311162 1.127986593019159e-14
    vertex -13.866666172551287 -28.032101652596157 1.127986593019159e-14
  endloop
endfacet
facet normal -1.7276939291255007e-15 -0.9408874118687748 0.3387194682726086
  outer loop
    vertex -14.816666172551285 -26.84900646311165 3.000000000000017
    vertex -17.11666617255128 -25.949006463112045 5.500000000000007
    vertex -17.11666617255128 -26.84900646311165 3.0000000000000115
  endloop
endfacet
facet normal -1.7276939291255007e-15 -0.9408874118687748 0.3387194682726086
  outer loop
    vertex -17.11666617255128 -25.949006463112045 5.500000000000007
    vertex -14.816666172551285 -26.84900646311165 3.000000000000017
    vertex -15.716666172551284 -25.949006463112045 5.500000000000024
  endloop
endfacet
facet normal 0.7071067811865236 -0.7071067811865714 0.0
  outer loop
    vertex -16.36666617255127 -29.249006463111666 2.2071067811865577
    vertex -16.86666617255127 -29.74900646311163 0.7071067811865774
    vertex -16.36666617255127 -29.249006463111666 0.2071067811865671
  endloop
endfacet
facet normal 0.7071067811865236 -0.7071067811865714 0.0
  outer loop
    vertex -16.86666617255127 -29.74900646311163 0.7071067811865774
    vertex -16.36666617255127 -29.249006463111666 2.2071067811865577
    vertex -16.86666617255127 -29.74900646311163 2.7071067811865737
  endloop
endfacet
facet normal 0.7071067811865362 0.7071067811865589 -1.1157092678885018e-15
  outer loop
    vertex -17.11666617255128 -27.849006463111657 4.999968818632157
    vertex -16.61666617255128 -28.349006463111646 3.250000000000022
    vertex -17.11666617255128 -27.849006463111657 2.0000000000000075
  endloop
endfacet
facet normal 0.7071067811865362 0.7071067811865589 -1.1157092678885018e-15
  outer loop
    vertex -16.61666617255128 -28.349006463111646 3.250000000000022
    vertex -17.11666617255128 -27.849006463111657 4.999968818632157
    vertex -16.61666617255127 -28.349006463111646 4.86842105263163
  endloop
endfacet
facet normal 7.904139629915856e-14 7.615967872575248e-14 -1.0
  outer loop
    vertex -14.366666172551298 -26.84900646311168 2.5000000000000573
    vertex -14.616666172551286 -27.049006463111624 2.5000000000000124
    vertex -14.816666172551285 -26.84900646311165 2.5000000000000124
  endloop
endfacet
facet normal 7.904139629915856e-14 7.615967872575248e-14 -1.0
  outer loop
    vertex -14.616666172551286 -27.049006463111624 2.5000000000000124
    vertex -14.366666172551298 -26.84900646311168 2.5000000000000573
    vertex -14.616666172551286 -27.249006463111638 2.5000000000000124
  endloop
endfacet
facet normal 7.904139629915856e-14 7.615967872575248e-14 -1.0
  outer loop
    vertex -14.616666172551286 -27.249006463111638 2.5000000000000124
    vertex -14.366666172551298 -26.84900646311168 2.5000000000000573
    vertex -14.366666172551286 -27.249006463111638 2.5000000000000124
  endloop
endfacet
facet normal -2.8858136104857297e-15 0.6401843996644678 -0.7682212795973858
  outer loop
    vertex -17.86666617255128 -27.249006463111638 2.5000000000000124
    vertex -17.11666617255128 -27.849006463111657 2.0000000000000075
    vertex -17.86666617255129 -27.849006463111657 2.0000000000000133
  endloop
endfacet
facet normal -2.8858136104857297e-15 0.6401843996644678 -0.7682212795973858
  outer loop
    vertex -17.11666617255128 -27.849006463111657 2.0000000000000075
    vertex -17.86666617255128 -27.249006463111638 2.5000000000000124
    vertex -17.11666617255128 -27.249006463111638 2.5000000000000124
  endloop
endfacet
facet normal 0.0 0.0 -1.0
  outer loop
    vertex -17.11666617255128 -26.84900646311165 2.5000000000000124
    vertex -17.86666617255128 -27.249006463111638 2.5000000000000124
    vertex -17.86666617255129 -26.84900646311165 2.5000000000000124
  endloop
endfacet
facet normal 0.0 0.0 -1.0
  outer loop
    vertex -17.86666617255128 -27.249006463111638 2.5000000000000124
    vertex -17.11666617255128 -26.84900646311165 2.5000000000000124
    vertex -17.11666617255128 -27.249006463111638 2.5000000000000124
  endloop
endfacet
facet normal -1.0 9.37367763955829e-31 -2.47346400587061e-16
  outer loop
    vertex -17.86666617255129 -24.449006463112102 9.000000000000012
    vertex -17.86666617255129 -26.449006463112067 8.500000000000012
    vertex -17.86666617255129 -26.449006463112067 9.000000000000012
  endloop
endfacet
facet normal -1.0 9.37367763955829e-31 -2.47346400587061e-16
  outer loop
    vertex -17.86666617255129 -26.449006463112067 8.500000000000012
    vertex -17.86666617255129 -24.449006463112102 9.000000000000012
    vertex -17.86666617255129 -25.949006463112045 8.500000000000012
  endloop
endfacet
facet normal -1.0 9.37367763955829e-31 -2.47346400587061e-16
  outer loop
    vertex -17.86666617255129 -25.949006463112045 8.500000000000012
    vertex -17.86666617255129 -24.449006463112102 9.000000000000012
    vertex -17.86666617255129 -24.9490064631121 8.500000000000012
  endloop
endfacet
facet normal -1.0 9.37367763955829e-31 -2.47346400587061e-16
  outer loop
    vertex -17.86666617255129 -25.949006463112045 8.500000000000012
    vertex -17.86666617255129 -24.9490064631121 8.500000000000012
    vertex -17.86666617255129 -25.949006463112045 5.500000000000007
  endloop
endfacet
facet normal -1.0 9.37367763955829e-31 -2.47346400587061e-16
  outer loop
    vertex -17.86666617255129 -24.9490064631121 8.500000000000012
    vertex -17.86666617255129 -24.449006463112102 9.000000000000012
    vertex -17.86666617255129 -24.449006463112102 8.500000000000012
  endloop
endfacet
facet normal -1.0 9.37367763955829e-31 -2.47346400587061e-16
  outer loop
    vertex -17.86666617255129 -25.949006463112045 5.500000000000007
    vertex -17.86666617255128 -29.74900646311163 0.7071067811865606
    vertex -17.86666617255129 -29.74900646311163 4.500000000000014
  endloop
endfacet
facet normal -1.0 9.37367763955829e-31 -2.47346400587061e-16
  outer loop
    vertex -17.86666617255128 -29.74900646311163 0.7071067811865606
    vertex -17.86666617255129 -25.949006463112045 5.500000000000007
    vertex -17.86666617255129 -29.041899681925067 1.127986593019159e-14
  endloop
endfacet
facet normal -1.0 9.37367763955829e-31 -2.47346400587061e-16
  outer loop
    vertex -17.86666617255129 -29.041899681925067 1.127986593019159e-14
    vertex -17.86666617255129 -25.949006463112045 5.500000000000007
    vertex -17.86666617255129 -27.849006463111657 2.0000000000000133
  endloop
endfacet
facet normal -1.0 9.37367763955829e-31 -2.47346400587061e-16
  outer loop
    vertex -17.86666617255129 -27.849006463111657 2.0000000000000133
    vertex -17.86666617255129 -25.949006463112045 5.500000000000007
    vertex -17.86666617255128 -27.249006463111638 2.5000000000000124
  endloop
endfacet
facet normal -1.0 9.37367763955829e-31 -2.47346400587061e-16
  outer loop
    vertex -17.86666617255128 -27.249006463111638 2.5000000000000124
    vertex -17.86666617255129 -25.949006463112045 5.500000000000007
    vertex -17.86666617255129 -26.84900646311165 2.5000000000000124
  endloop
endfacet
facet normal -1.0 9.37367763955829e-31 -2.47346400587061e-16
  outer loop
    vertex -17.86666617255129 -26.84900646311165 2.5000000000000124
    vertex -17.86666617255129 -25.949006463112045 5.500000000000007
    vertex -17.86666617255129 -26.149006463111625 3.0000000000000115
  endloop
endfacet
facet normal -1.0 9.37367763955829e-31 -2.47346400587061e-16
  outer loop
    vertex -17.86666617255129 -26.149006463111625 3.0000000000000115
    vertex -17.86666617255129 -25.949006463112045 5.500000000000007
    vertex -17.86666617255129 -24.74900646311252 3.0000000000000115
  endloop
endfacet
facet normal -1.0 9.37367763955829e-31 -2.47346400587061e-16
  outer loop
    vertex -17.86666617255129 -24.74900646311252 3.0000000000000115
    vertex -17.86666617255129 -25.949006463112045 5.500000000000007
    vertex -17.86666617255129 -24.9490064631121 5.500000000000007
  endloop
endfacet
facet normal -1.0 9.37367763955829e-31 -2.47346400587061e-16
  outer loop
    vertex -17.86666617255129 -24.9490064631121 5.500000000000007
    vertex -17.86666617255129 -25.949006463112045 5.500000000000007
    vertex -17.86666617255129 -24.9490064631121 8.500000000000012
  endloop
endfacet
facet normal -1.0 9.37367763955829e-31 -2.47346400587061e-16
  outer loop
    vertex -17.86666617255129 -24.74900646311252 3.0000000000000115
    vertex -17.86666617255129 -24.9490064631121 5.500000000000007
    vertex -17.86666617255129 -21.149006463112517 4.500000000000014
  endloop
endfacet
facet normal -1.0 9.37367763955829e-31 -2.47346400587061e-16
  outer loop
    vertex -17.86666617255129 -24.74900646311252 3.0000000000000115
    vertex -17.86666617255129 -21.149006463112517 4.500000000000014
    vertex -17.86666617255129 -24.049006463112523 2.5000000000000124
  endloop
endfacet
facet normal -1.0 9.37367763955829e-31 -2.47346400587061e-16
  outer loop
    vertex -17.86666617255129 -24.049006463112523 2.5000000000000124
    vertex -17.86666617255129 -21.149006463112517 4.500000000000014
    vertex -17.86666617255128 -23.649006463112524 2.5000000000000124
  endloop
endfacet
facet normal -1.0 9.37367763955829e-31 -2.47346400587061e-16
  outer loop
    vertex -17.86666617255128 -23.649006463112524 2.5000000000000124
    vertex -17.86666617255129 -21.149006463112517 4.500000000000014
    vertex -17.86666617255129 -23.049006463112523 2.0000000000000133
  endloop
endfacet
facet normal -1.0 9.37367763955829e-31 -2.47346400587061e-16
  outer loop
    vertex -17.86666617255129 -23.049006463112523 2.0000000000000133
    vertex -17.86666617255129 -21.149006463112517 4.500000000000014
    vertex -17.86666617255129 -23.049006463112523 1.0000000000000095
  endloop
endfacet
facet normal -1.0 9.37367763955829e-31 -2.47346400587061e-16
  outer loop
    vertex -17.86666617255129 -23.049006463112523 1.0000000000000095
    vertex -17.86666617255129 -21.149006463112517 4.500000000000014
    vertex -17.86666617255129 -21.856113244299067 1.127986593019159e-14
  endloop
endfacet
facet normal -1.0 9.37367763955829e-31 -2.47346400587061e-16
  outer loop
    vertex -17.86666617255129 -21.856113244299067 1.127986593019159e-14
    vertex -17.86666617255129 -21.149006463112517 4.500000000000014
    vertex -17.86666617255128 -21.149006463112517 0.7071067811865606
  endloop
endfacet
facet normal -1.0 9.37367763955829e-31 -2.47346400587061e-16
  outer loop
    vertex -17.86666617255129 -23.049006463112523 1.0000000000000095
    vertex -17.86666617255129 -23.44900646311252 0.150000000000011
    vertex -17.86666617255129 -23.44900646311252 0.5000000000000103
  endloop
endfacet
facet normal -1.0 9.37367763955829e-31 -2.47346400587061e-16
  outer loop
    vertex -17.86666617255129 -23.44900646311252 0.150000000000011
    vertex -17.86666617255129 -23.049006463112523 1.0000000000000095
    vertex -17.86666617255129 -23.149006463112524 1.127986593019159e-14
  endloop
endfacet
facet normal -1.0 9.37367763955829e-31 -2.47346400587061e-16
  outer loop
    vertex -17.86666617255129 -23.149006463112524 1.127986593019159e-14
    vertex -17.86666617255129 -23.049006463112523 1.0000000000000095
    vertex -17.86666617255129 -21.856113244299067 1.127986593019159e-14
  endloop
endfacet
facet normal -1.0 9.37367763955829e-31 -2.47346400587061e-16
  outer loop
    vertex -17.86666617255129 -29.041899681925067 1.127986593019159e-14
    vertex -17.86666617255129 -27.849006463111657 1.0000000000000095
    vertex -17.86666617255129 -27.74900646311162 1.127986593019159e-14
  endloop
endfacet
facet normal -1.0 9.37367763955829e-31 -2.47346400587061e-16
  outer loop
    vertex -17.86666617255129 -27.849006463111657 1.0000000000000095
    vertex -17.86666617255129 -29.041899681925067 1.127986593019159e-14
    vertex -17.86666617255129 -27.849006463111657 2.0000000000000133
  endloop
endfacet
facet normal -1.0 9.37367763955829e-31 -2.47346400587061e-16
  outer loop
    vertex -17.86666617255129 -27.74900646311162 1.127986593019159e-14
    vertex -17.86666617255129 -27.849006463111657 1.0000000000000095
    vertex -17.86666617255129 -27.449006463111647 0.5000000000000103
  endloop
endfacet
facet normal -1.0 9.37367763955829e-31 -2.47346400587061e-16
  outer loop
    vertex -17.86666617255129 -27.74900646311162 1.127986593019159e-14
    vertex -17.86666617255129 -27.449006463111647 0.5000000000000103
    vertex -17.86666617255129 -27.449006463111647 0.150000000000011
  endloop
endfacet
facet normal 0.7071067811865516 0.7071067811865436 1.1812451744132042e-14
  outer loop
    vertex -16.86666617255128 -27.74900646311162 2.8199664825478976e-14
    vertex -16.766666172551282 -27.849006463111657 1.000000000000027
    vertex -16.36666617255127 -28.24900646311167 1.127986593019159e-14
  endloop
endfacet
facet normal 0.7071067811865516 0.7071067811865436 1.1812451744132042e-14
  outer loop
    vertex -16.766666172551282 -27.849006463111657 1.000000000000027
    vertex -16.86666617255128 -27.74900646311162 2.8199664825478976e-14
    vertex -17.16666617255128 -27.449006463111647 0.500000000000016
  endloop
endfacet
facet normal 0.7071067811865516 0.7071067811865436 1.1812451744132042e-14
  outer loop
    vertex -17.16666617255128 -27.449006463111647 0.500000000000016
    vertex -16.86666617255128 -27.74900646311162 2.8199664825478976e-14
    vertex -17.16666617255129 -27.449006463111647 0.15000000000002228
  endloop
endfacet
facet normal -0.7071067811864096 -0.7071067811866855 -5.1248643942461955e-15
  outer loop
    vertex -14.616666172551286 -27.049006463111624 8.583841035699182
    vertex -14.816666172551285 -26.84900646311165 2.5000000000000124
    vertex -14.616666172551286 -27.049006463111624 2.5000000000000124
  endloop
endfacet
facet normal -0.7071067811864096 -0.7071067811866855 -5.1248643942461955e-15
  outer loop
    vertex -14.816666172551285 -26.84900646311165 2.5000000000000124
    vertex -14.616666172551286 -27.049006463111624 8.583841035699182
    vertex -14.816666172551285 -26.84900646311165 3.000000000000017
  endloop
endfacet
facet normal -0.7071067811864096 -0.7071067811866855 -5.1248643942461955e-15
  outer loop
    vertex -14.816666172551285 -26.84900646311165 3.000000000000017
    vertex -14.616666172551286 -27.049006463111624 8.583841035699182
    vertex -15.716666172551284 -25.949006463112045 5.500000000000024
  endloop
endfacet
facet normal -0.7071067811864096 -0.7071067811866855 -5.1248643942461955e-15
  outer loop
    vertex -15.716666172551284 -25.949006463112045 5.500000000000024
    vertex -14.616666172551286 -27.049006463111624 8.583841035699182
    vertex -15.216666172551093 -26.449006463112067 8.000000000000007
  endloop
endfacet
facet normal -0.7071067811864096 -0.7071067811866855 -5.1248643942461955e-15
  outer loop
    vertex -15.216666172551093 -26.449006463112067 8.000000000000007
    vertex -14.616666172551286 -27.049006463111624 8.583841035699182
    vertex -15.216666172551093 -26.449006463112067 9.50000000000001
  endloop
endfacet
facet normal -0.7071067811864096 -0.7071067811866855 -5.1248643942461955e-15
  outer loop
    vertex -15.716666172551294 -25.949006463112045 8.000000000000025
    vertex -15.716666172551284 -25.949006463112045 5.500000000000024
    vertex -15.216666172551093 -26.449006463112067 8.000000000000007
  endloop
endfacet
facet normal -0.7071067811865476 0.0 0.7071067811865476
  outer loop
    vertex -17.36666617255129 -24.449006463112102 9.50000000000001
    vertex -17.86666617255129 -26.449006463112067 9.000000000000012
    vertex -17.36666617255129 -26.449006463112067 9.50000000000001
  endloop
endfacet
facet normal -0.7071067811865476 0.0 0.7071067811865476
  outer loop
    vertex -17.86666617255129 -26.449006463112067 9.000000000000012
    vertex -17.36666617255129 -24.449006463112102 9.50000000000001
    vertex -17.86666617255129 -24.449006463112102 9.000000000000012
  endloop
endfacet
facet normal 1.3068160311957776e-10 -1.0 4.093974678132888e-10
  outer loop
    vertex -14.366666172551298 -29.74900646311163 4.499509931902921
    vertex -14.866666172551296 -29.74900646311163 0.7071067811865774
    vertex -14.366666172551298 -29.74900646311163 0.707106781186569
  endloop
endfacet
facet normal 1.3068160311957776e-10 -1.0 4.093974678132888e-10
  outer loop
    vertex -14.866666172551296 -29.74900646311163 0.7071067811865774
    vertex -14.366666172551298 -29.74900646311163 4.499509931902921
    vertex -14.866666172551296 -29.74900646311163 2.7071067811865794
  endloop
endfacet
facet normal 1.3068160311957776e-10 -1.0 4.093974678132888e-10
  outer loop
    vertex -16.86666617255127 -29.74900646311163 0.7071067811865774
    vertex -17.86666617255129 -29.74900646311163 4.500000000000014
    vertex -17.86666617255128 -29.74900646311163 0.7071067811865606
  endloop
endfacet
facet normal 1.3068160311957776e-10 -1.0 4.093974678132888e-10
  outer loop
    vertex -17.86666617255129 -29.74900646311163 4.500000000000014
    vertex -16.86666617255127 -29.74900646311163 0.7071067811865774
    vertex -16.86666617255127 -29.74900646311163 2.7071067811865737
  endloop
endfacet
facet normal 1.3068160311957776e-10 -1.0 4.093974678132888e-10
  outer loop
    vertex -17.86666617255129 -29.74900646311163 4.500000000000014
    vertex -16.86666617255127 -29.74900646311163 2.7071067811865737
    vertex -14.866666172551296 -29.74900646311163 2.7071067811865794
  endloop
endfacet
facet normal 1.3068160311957776e-10 -1.0 4.093974678132888e-10
  outer loop
    vertex -17.86666617255129 -29.74900646311163 4.500000000000014
    vertex -14.866666172551296 -29.74900646311163 2.7071067811865794
    vertex -15.427326329532388 -29.749006458178734 4.499537612744659
  endloop
endfacet
facet normal 1.3068160311957776e-10 -1.0 4.093974678132888e-10
  outer loop
    vertex -15.427326329532388 -29.749006458178734 4.499537612744659
    vertex -14.866666172551296 -29.74900646311163 2.7071067811865794
    vertex -14.366666172551298 -29.74900646311163 4.499509931902921
  endloop
endfacet
facet normal 2.393911385311971e-15 -0.7071067811865835 -0.7071067811865116
  outer loop
    vertex -15.366666172551296 -29.249006463111666 2.2071067811865634
    vertex -16.86666617255127 -29.74900646311163 2.7071067811865737
    vertex -16.36666617255127 -29.249006463111666 2.2071067811865577
  endloop
endfacet
facet normal 2.393911385311971e-15 -0.7071067811865835 -0.7071067811865116
  outer loop
    vertex -16.86666617255127 -29.74900646311163 2.7071067811865737
    vertex -15.366666172551296 -29.249006463111666 2.2071067811865634
    vertex -14.866666172551296 -29.74900646311163 2.7071067811865794
  endloop
endfacet
facet normal 4.704802031371036e-06 -0.8345567470834929 0.5509219871046023
  outer loop
    vertex -13.866666172551287 -29.249006463111666 5.256976961525675
    vertex -15.427326329532388 -29.749006458178734 4.499537612744659
    vertex -14.366666172551298 -29.74900646311163 4.499509931902921
  endloop
endfacet
facet normal 4.704802031371036e-06 -0.8345567470834929 0.5509219871046023
  outer loop
    vertex -15.427326329532388 -29.749006458178734 4.499537612744659
    vertex -13.866666172551287 -29.249006463111666 5.256976961525675
    vertex -14.616666415185104 -28.938196951208734 5.7273121614982605
  endloop
endfacet
facet normal 4.704802031371036e-06 -0.8345567470834929 0.5509219871046023
  outer loop
    vertex -14.616666415185104 -28.938196951208734 5.7273121614982605
    vertex -13.866666172551287 -29.249006463111666 5.256976961525675
    vertex -13.866666172551287 -26.778337428337892 9.000000000000012
  endloop
endfacet
facet normal 4.704802031371036e-06 -0.8345567470834929 0.5509219871046023
  outer loop
    vertex -14.616666415185104 -28.938196951208734 5.7273121614982605
    vertex -13.866666172551287 -26.778337428337892 9.000000000000012
    vertex -14.616666172551286 -27.049006463111624 8.583841035699182
  endloop
endfacet
facet normal 4.704802031371036e-06 -0.8345567470834929 0.5509219871046023
  outer loop
    vertex -14.616666172551286 -27.049006463111624 8.583841035699182
    vertex -13.866666172551287 -26.778337428337892 9.000000000000012
    vertex -15.216666172551093 -26.449006463112067 9.50000000000001
  endloop
endfacet
facet normal 4.704802031371036e-06 -0.8345567470834929 0.5509219871046023
  outer loop
    vertex -15.216666172551093 -26.449006463112067 9.50000000000001
    vertex -13.866666172551287 -26.778337428337892 9.000000000000012
    vertex -14.366666172551286 -26.449006463112067 9.50000000000001
  endloop
endfacet
facet normal 0.7186226583098102 0.4451843765042795 -0.5342212518051278
  outer loop
    vertex -14.366666172551286 -27.849006463111657 2.0000000000000133
    vertex -13.866666172551287 -27.45611324429821 3.0000000000000115
    vertex -13.866666172551287 -28.34900646311162 2.2559223176554717
  endloop
endfacet
facet normal 0.7186226583098102 0.4451843765042795 -0.5342212518051278
  outer loop
    vertex -13.866666172551287 -27.45611324429821 3.0000000000000115
    vertex -14.366666172551286 -27.849006463111657 2.0000000000000133
    vertex -14.366666172551286 -27.249006463111638 2.5000000000000124
  endloop
endfacet
facet normal 0.7071067811865328 3.9375650435654007e-14 -0.7071067811865622
  outer loop
    vertex -13.866666172551287 -27.009238989815998 3.0000000000000058
    vertex -14.366666172551286 -27.249006463111638 2.5000000000000124
    vertex -14.366666172551298 -26.84900646311168 2.5000000000000573
  endloop
endfacet
facet normal 0.7071067811865328 3.9375650435654007e-14 -0.7071067811865622
  outer loop
    vertex -14.366666172551286 -27.249006463111638 2.5000000000000124
    vertex -13.866666172551287 -27.009238989815998 3.0000000000000058
    vertex -13.866666172551287 -27.45611324429821 3.0000000000000115
  endloop
endfacet
facet normal 0.0 -1.0 0.0
  outer loop
    vertex -15.366666172551296 -29.249006463111666 2.2071067811865634
    vertex -16.36666617255127 -29.249006463111666 0.2071067811865671
    vertex -15.366666172551296 -29.249006463111666 0.2071067811865671
  endloop
endfacet
facet normal 0.0 -1.0 0.0
  outer loop
    vertex -16.36666617255127 -29.249006463111666 0.2071067811865671
    vertex -15.366666172551296 -29.249006463111666 2.2071067811865634
    vertex -16.36666617255127 -29.249006463111666 2.2071067811865577
  endloop
endfacet
facet normal 0.7591252771714699 0.6509445549041325 0.0
  outer loop
    vertex -14.366666172551286 -27.449006463111647 0.150000000000011
    vertex -13.866666172551287 -28.032101652596157 0.5000000000000103
    vertex -13.866666172551287 -28.032101652596157 1.127986593019159e-14
  endloop
endfacet
facet normal 0.7591252771714699 0.6509445549041325 0.0
  outer loop
    vertex -13.866666172551287 -28.032101652596157 0.5000000000000103
    vertex -14.366666172551286 -27.449006463111647 0.150000000000011
    vertex -14.366666172551286 -27.449006463111647 0.5000000000000103
  endloop
endfacet
facet normal -3.3036781489844393e-14 0.4472135954999981 -0.894427190999896
  outer loop
    vertex -14.566666172551274 -27.449006463111647 0.15000000000002228
    vertex -14.366666172551286 -27.74900646311162 1.127986593019159e-14
    vertex -14.866666172551286 -27.74900646311162 2.8199664825478976e-14
  endloop
endfacet
facet normal -3.3036781489844393e-14 0.4472135954999981 -0.894427190999896
  outer loop
    vertex -14.366666172551286 -27.74900646311162 1.127986593019159e-14
    vertex -14.566666172551274 -27.449006463111647 0.15000000000002228
    vertex -14.366666172551286 -27.449006463111647 0.150000000000011
  endloop
endfacet
facet normal 0.24546147611042515 0.4335316975137648 -0.8670633950274481
  outer loop
    vertex -13.866666172551287 -28.032101652596157 1.127986593019159e-14
    vertex -14.366666172551286 -27.74900646311162 1.127986593019159e-14
    vertex -14.366666172551286 -27.449006463111647 0.150000000000011
  endloop
endfacet
facet normal 0.0 1.0 0.0
  outer loop
    vertex -16.61666617255127 -28.349006463111646 4.86842105263163
    vertex -14.616666172551286 -28.349006463111646 3.250000000000028
    vertex -16.61666617255128 -28.349006463111646 3.250000000000022
  endloop
endfacet
facet normal 0.0 1.0 0.0
  outer loop
    vertex -14.616666172551286 -28.349006463111646 3.250000000000028
    vertex -16.61666617255127 -28.349006463111646 4.86842105263163
    vertex -14.616666172551286 -28.349006463111646 4.86842105263163
  endloop
endfacet
facet normal 8.830391980746438e-16 1.7361318494324184e-14 -1.0
  outer loop
    vertex -15.716666172551294 -25.949006463112045 8.000000000000025
    vertex -17.36666617255129 -26.449006463112067 8.000000000000014
    vertex -17.36666617255129 -25.949006463112045 8.000000000000014
  endloop
endfacet
facet normal 8.830391980746438e-16 1.7361318494324184e-14 -1.0
  outer loop
    vertex -17.36666617255129 -26.449006463112067 8.000000000000014
    vertex -15.716666172551294 -25.949006463112045 8.000000000000025
    vertex -15.216666172551093 -26.449006463112067 8.000000000000007
  endloop
endfacet
facet normal 0.7071067811865476 0.0 0.7071067811865476
  outer loop
    vertex -13.866666172551287 -24.11967549788628 9.000000000000012
    vertex -14.366666172551286 -26.449006463112067 9.50000000000001
    vertex -13.866666172551287 -26.778337428337892 9.000000000000012
  endloop
endfacet
facet normal 0.7071067811865476 0.0 0.7071067811865476
  outer loop
    vertex -14.366666172551286 -26.449006463112067 9.50000000000001
    vertex -13.866666172551287 -24.11967549788628 9.000000000000012
    vertex -14.366666172551286 -24.449006463112102 9.50000000000001
  endloop
endfacet
facet normal 0.7071067811865156 -0.7071067811865794 0.0
  outer loop
    vertex -13.866666172551287 -29.249006463111666 5.256976961525675
    vertex -14.366666172551298 -29.74900646311163 0.707106781186569
    vertex -13.866666172551287 -29.249006463111666 0.2071067811865643
  endloop
endfacet
facet normal 0.7071067811865156 -0.7071067811865794 0.0
  outer loop
    vertex -14.366666172551298 -29.74900646311163 0.707106781186569
    vertex -13.866666172551287 -29.249006463111666 5.256976961525675
    vertex -14.366666172551298 -29.74900646311163 4.499509931902921
  endloop
endfacet
facet normal 1.0 0.0 0.0
  outer loop
    vertex -17.11666617255128 -27.249006463111638 2.5000000000000124
    vertex -17.11666617255128 -27.849006463111657 4.999968818632157
    vertex -17.11666617255128 -27.849006463111657 2.0000000000000075
  endloop
endfacet
facet normal 1.0 0.0 0.0
  outer loop
    vertex -17.11666617255128 -27.849006463111657 4.999968818632157
    vertex -17.11666617255128 -27.249006463111638 2.5000000000000124
    vertex -17.11666617255128 -25.949006463112045 5.500000000000007
  endloop
endfacet
facet normal 1.0 0.0 0.0
  outer loop
    vertex -17.11666617255128 -25.949006463112045 5.500000000000007
    vertex -17.11666617255128 -27.249006463111638 2.5000000000000124
    vertex -17.11666617255128 -26.84900646311165 3.0000000000000115
  endloop
endfacet
facet normal 1.0 0.0 0.0
  outer loop
    vertex -17.11666617255128 -26.84900646311165 3.0000000000000115
    vertex -17.11666617255128 -27.249006463111638 2.5000000000000124
    vertex -17.11666617255128 -26.84900646311165 2.5000000000000124
  endloop
endfacet
facet normal 5.14662034643671e-16 0.9284766908852576 -0.37139067635410794
  outer loop
    vertex -16.766666172551282 -27.849006463111657 1.000000000000027
    vertex -15.366666172551296 -28.24900646311167 1.6919798895287383e-14
    vertex -16.36666617255127 -28.24900646311167 1.127986593019159e-14
  endloop
endfacet
facet normal 5.14662034643671e-16 0.9284766908852576 -0.37139067635410794
  outer loop
    vertex -15.366666172551296 -28.24900646311167 1.6919798895287383e-14
    vertex -16.766666172551282 -27.849006463111657 1.000000000000027
    vertex -14.966666172551285 -27.849006463111657 1.0000000000000273
  endloop
endfacet
facet normal 1.4912955203394703e-14 0.44721359549999085 -0.8944271909998995
  outer loop
    vertex -17.16666617255129 -27.449006463111647 0.15000000000002228
    vertex -17.86666617255129 -27.74900646311162 1.127986593019159e-14
    vertex -17.86666617255129 -27.449006463111647 0.150000000000011
  endloop
endfacet
facet normal 1.4912955203394703e-14 0.44721359549999085 -0.8944271909998995
  outer loop
    vertex -17.86666617255129 -27.74900646311162 1.127986593019159e-14
    vertex -17.16666617255129 -27.449006463111647 0.15000000000002228
    vertex -16.86666617255128 -27.74900646311162 2.8199664825478976e-14
  endloop
endfacet
facet normal 0.0 1.0 0.0
  outer loop
    vertex -14.566666172551274 -27.449006463111647 0.15000000000002228
    vertex -14.366666172551286 -27.449006463111647 0.5000000000000103
    vertex -14.366666172551286 -27.449006463111647 0.150000000000011
  endloop
endfacet
facet normal 0.0 1.0 0.0
  outer loop
    vertex -14.366666172551286 -27.449006463111647 0.5000000000000103
    vertex -14.566666172551274 -27.449006463111647 0.15000000000002228
    vertex -14.566666172551285 -27.449006463111647 0.5000000000000103
  endloop
endfacet
facet normal -0.9999999999999971 7.807438419064192e-08 -1.0039311441521346e-08
  outer loop
    vertex -14.616666172551286 -27.049006463111624 8.583841035699182
    vertex -14.616666293868196 -28.938196951208734 4.713366290898245
    vertex -14.616666415185104 -28.938196951208734 5.7273121614982605
  endloop
endfacet
facet normal -0.9999999999999971 7.807438419064192e-08 -1.0039311441521346e-08
  outer loop
    vertex -14.616666293868196 -28.938196951208734 4.713366290898245
    vertex -14.616666172551286 -27.049006463111624 8.583841035699182
    vertex -14.616666172551286 -28.349006463111646 4.86842105263163
  endloop
endfacet
facet normal -0.9999999999999971 7.807438419064192e-08 -1.0039311441521346e-08
  outer loop
    vertex -14.616666172551286 -28.349006463111646 4.86842105263163
    vertex -14.616666172551286 -27.049006463111624 8.583841035699182
    vertex -14.616666172551286 -28.349006463111646 3.250000000000028
  endloop
endfacet
facet normal -0.9999999999999971 7.807438419064192e-08 -1.0039311441521346e-08
  outer loop
    vertex -14.616666172551286 -28.349006463111646 3.250000000000028
    vertex -14.616666172551286 -27.049006463111624 8.583841035699182
    vertex -14.616666172551286 -27.849006463111657 2.0000000000000133
  endloop
endfacet
facet normal -0.9999999999999971 7.807438419064192e-08 -1.0039311441521346e-08
  outer loop
    vertex -14.616666172551286 -27.849006463111657 2.0000000000000133
    vertex -14.616666172551286 -27.049006463111624 8.583841035699182
    vertex -14.616666172551286 -27.249006463111638 2.5000000000000124
  endloop
endfacet
facet normal -0.9999999999999971 7.807438419064192e-08 -1.0039311441521346e-08
  outer loop
    vertex -14.616666172551286 -27.249006463111638 2.5000000000000124
    vertex -14.616666172551286 -27.049006463111624 8.583841035699182
    vertex -14.616666172551286 -27.049006463111624 2.5000000000000124
  endloop
endfacet
facet normal 0.0 0.6401843996644656 -0.7682212795973877
  outer loop
    vertex -14.366666172551286 -27.249006463111638 2.5000000000000124
    vertex -14.616666172551286 -27.849006463111657 2.0000000000000133
    vertex -14.616666172551286 -27.249006463111638 2.5000000000000124
  endloop
endfacet
facet normal 0.0 0.6401843996644656 -0.7682212795973877
  outer loop
    vertex -14.616666172551286 -27.849006463111657 2.0000000000000133
    vertex -14.366666172551286 -27.249006463111638 2.5000000000000124
    vertex -14.366666172551286 -27.849006463111657 2.0000000000000133
  endloop
endfacet
facet normal -0.7071067811865516 0.7071067811865436 1.1812451744132099e-14
  outer loop
    vertex -14.966666172551285 -27.849006463111657 1.0000000000000273
    vertex -14.866666172551286 -27.74900646311162 2.8199664825478976e-14
    vertex -15.366666172551296 -28.24900646311167 1.6919798895287383e-14
  endloop
endfacet
facet normal -0.7071067811865516 0.7071067811865436 1.1812451744132099e-14
  outer loop
    vertex -14.866666172551286 -27.74900646311162 2.8199664825478976e-14
    vertex -14.966666172551285 -27.849006463111657 1.0000000000000273
    vertex -14.566666172551285 -27.449006463111647 0.5000000000000103
  endloop
endfacet
facet normal -0.7071067811865516 0.7071067811865436 1.1812451744132099e-14
  outer loop
    vertex -14.866666172551286 -27.74900646311162 2.8199664825478976e-14
    vertex -14.566666172551285 -27.449006463111647 0.5000000000000103
    vertex -14.566666172551274 -27.449006463111647 0.15000000000002228
  endloop
endfacet
facet normal 0.673300329224121 0.577350269189633 0.46188021535171736
  outer loop
    vertex -13.866666172551287 -28.032101652596157 0.5000000000000103
    vertex -14.366666172551286 -27.849006463111657 1.0000000000000095
    vertex -13.866666172551287 -28.34900646311162 0.8961310131443379
  endloop
endfacet
facet normal 0.673300329224121 0.577350269189633 0.46188021535171736
  outer loop
    vertex -14.366666172551286 -27.849006463111657 1.0000000000000095
    vertex -13.866666172551287 -28.032101652596157 0.5000000000000103
    vertex -14.366666172551286 -27.449006463111647 0.5000000000000103
  endloop
endfacet
facet normal 1.673334916504291e-14 0.780868809443024 0.6246950475544322
  outer loop
    vertex -14.966666172551285 -27.849006463111657 1.0000000000000273
    vertex -14.366666172551286 -27.449006463111647 0.5000000000000103
    vertex -14.566666172551285 -27.449006463111647 0.5000000000000103
  endloop
endfacet
facet normal 1.673334916504291e-14 0.780868809443024 0.6246950475544322
  outer loop
    vertex -14.366666172551286 -27.449006463111647 0.5000000000000103
    vertex -14.966666172551285 -27.849006463111657 1.0000000000000273
    vertex -14.366666172551286 -27.849006463111657 1.0000000000000095
  endloop
endfacet
facet normal 1.0 0.0 0.0
  outer loop
    vertex -13.866666172551287 -28.032101652596157 1.127986593019159e-14
    vertex -13.866666172551287 -28.34900646311162 0.8961310131443379
    vertex -13.866666172551287 -29.041899681925067 1.127986593019159e-14
  endloop
endfacet
facet normal 1.0 0.0 0.0
  outer loop
    vertex -13.866666172551287 -28.34900646311162 0.8961310131443379
    vertex -13.866666172551287 -28.032101652596157 1.127986593019159e-14
    vertex -13.866666172551287 -28.032101652596157 0.5000000000000103
  endloop
endfacet
facet normal 1.0 0.0 0.0
  outer loop
    vertex -13.866666172551287 -21.856113244299067 1.127986593019159e-14
    vertex -13.866666172551287 -22.865911273627987 0.5000000000000103
    vertex -13.866666172551287 -22.865911273627987 1.127986593019159e-14
  endloop
endfacet
facet normal 1.0 0.0 0.0
  outer loop
    vertex -13.866666172551287 -22.865911273627987 0.5000000000000103
    vertex -13.866666172551287 -21.856113244299067 1.127986593019159e-14
    vertex -13.866666172551287 -22.549006463112526 0.8961310131443379
  endloop
endfacet
facet normal 1.0 0.0 0.0
  outer loop
    vertex -13.866666172551287 -22.549006463112526 0.8961310131443379
    vertex -13.866666172551287 -21.856113244299067 1.127986593019159e-14
    vertex -13.866666172551287 -22.549006463112526 2.2559223176554717
  endloop
endfacet
facet normal 1.0 0.0 0.0
  outer loop
    vertex -13.866666172551287 -29.041899681925067 1.127986593019159e-14
    vertex -13.866666172551287 -29.249006463111666 5.256976961525675
    vertex -13.866666172551287 -29.249006463111666 0.2071067811865643
  endloop
endfacet
facet normal 1.0 0.0 0.0
  outer loop
    vertex -13.866666172551287 -29.249006463111666 5.256976961525675
    vertex -13.866666172551287 -29.041899681925067 1.127986593019159e-14
    vertex -13.866666172551287 -26.778337428337892 9.000000000000012
  endloop
endfacet
facet normal 1.0 0.0 0.0
  outer loop
    vertex -13.866666172551287 -26.778337428337892 9.000000000000012
    vertex -13.866666172551287 -29.041899681925067 1.127986593019159e-14
    vertex -13.866666172551287 -28.34900646311162 2.2559223176554717
  endloop
endfacet
facet normal 1.0 0.0 0.0
  outer loop
    vertex -13.866666172551287 -28.34900646311162 2.2559223176554717
    vertex -13.866666172551287 -29.041899681925067 1.127986593019159e-14
    vertex -13.866666172551287 -28.34900646311162 0.8961310131443379
  endloop
endfacet
facet normal 1.0 0.0 0.0
  outer loop
    vertex -13.866666172551287 -26.778337428337892 9.000000000000012
    vertex -13.866666172551287 -28.34900646311162 2.2559223176554717
    vertex -13.866666172551287 -27.45611324429821 3.0000000000000115
  endloop
endfacet
facet normal 1.0 0.0 0.0
  outer loop
    vertex -13.866666172551287 -26.778337428337892 9.000000000000012
    vertex -13.866666172551287 -27.45611324429821 3.0000000000000115
    vertex -13.866666172551287 -27.009238989815998 3.0000000000000058
  endloop
endfacet
facet normal 1.0 0.0 0.0
  outer loop
    vertex -13.866666172551287 -26.778337428337892 9.000000000000012
    vertex -13.866666172551287 -27.009238989815998 3.0000000000000058
    vertex -13.866666172551287 -26.309238989815903 3.5000000000000107
  endloop
endfacet
facet normal 1.0 0.0 0.0
  outer loop
    vertex -13.866666172551287 -26.778337428337892 9.000000000000012
    vertex -13.866666172551287 -26.309238989815903 3.5000000000000107
    vertex -13.866666172551287 -24.11967549788628 9.000000000000012
  endloop
endfacet
facet normal 1.0 0.0 0.0
  outer loop
    vertex -13.866666172551287 -24.11967549788628 9.000000000000012
    vertex -13.866666172551287 -26.309238989815903 3.5000000000000107
    vertex -13.866666172551287 -24.588773936408277 3.5000000000000107
  endloop
endfacet
facet normal 1.0 0.0 0.0
  outer loop
    vertex -13.866666172551287 -24.11967549788628 9.000000000000012
    vertex -13.866666172551287 -24.588773936408277 3.5000000000000107
    vertex -13.866666172551287 -23.88877393640817 3.0000000000000058
  endloop
endfacet
facet normal 1.0 0.0 0.0
  outer loop
    vertex -13.866666172551287 -24.11967549788628 9.000000000000012
    vertex -13.866666172551287 -23.88877393640817 3.0000000000000058
    vertex -13.866666172551287 -21.649006463112514 5.256976961525675
  endloop
endfacet
facet normal 1.0 0.0 0.0
  outer loop
    vertex -13.866666172551287 -21.649006463112514 5.256976961525675
    vertex -13.866666172551287 -23.88877393640817 3.0000000000000058
    vertex -13.866666172551287 -23.44189968192597 3.0000000000000115
  endloop
endfacet
facet normal 1.0 0.0 0.0
  outer loop
    vertex -13.866666172551287 -21.649006463112514 5.256976961525675
    vertex -13.866666172551287 -23.44189968192597 3.0000000000000115
    vertex -13.866666172551287 -22.549006463112526 2.2559223176554717
  endloop
endfacet
facet normal 1.0 0.0 0.0
  outer loop
    vertex -13.866666172551287 -21.649006463112514 5.256976961525675
    vertex -13.866666172551287 -22.549006463112526 2.2559223176554717
    vertex -13.866666172551287 -21.856113244299067 1.127986593019159e-14
  endloop
endfacet
facet normal 1.0 0.0 0.0
  outer loop
    vertex -13.866666172551287 -21.649006463112514 5.256976961525675
    vertex -13.866666172551287 -21.856113244299067 1.127986593019159e-14
    vertex -13.866666172551287 -21.649006463112514 0.2071067811865643
  endloop
endfacet
facet normal 0.7071067811865237 0.7071067811865714 -1.914127430232485e-17
  outer loop
    vertex -14.366666172551286 -27.849006463111657 1.0000000000000095
    vertex -13.866666172551287 -28.34900646311162 2.2559223176554717
    vertex -13.866666172551287 -28.34900646311162 0.8961310131443379
  endloop
endfacet
facet normal 0.7071067811865237 0.7071067811865714 -1.914127430232485e-17
  outer loop
    vertex -13.866666172551287 -28.34900646311162 2.2559223176554717
    vertex -14.366666172551286 -27.849006463111657 1.0000000000000095
    vertex -14.366666172551286 -27.849006463111657 2.0000000000000133
  endloop
endfacet
endsolid power delivery
