solid ProtoGlove baseplate
facet normal -0.2627294873190554 -0.6935684973926018 0.6707726559108047
  outer loop
    vertex 360.3686016206988 -70.1063351872035 105.61528875704609
    vertex 340.73038596836386 -62.667216557126885 105.61528875702935
    vertex 359.8988749498689 -71.34634682273298 104.14915258476135
  endloop
endfacet
facet normal -0.2627294873190554 -0.6935684973926018 0.6707726559108047
  outer loop
    vertex 340.26065929753634 -63.907228192656554 104.14915258474441
    vertex 359.8988749498689 -71.34634682273298 104.14915258476135
    vertex 340.73038596836386 -62.667216557126885 105.61528875702935
  endloop
endfacet
facet normal 0.9351531263015542 -0.3542437442897606 6.582458083641356e-13
  outer loop
    vertex 358.8432886680422 -74.13294454661079 101.50000000005836
    vertex 359.0739154469992 -73.52412263563136 101.50000000005717
    vertex 359.6458781441555 -72.01422242427257 103.45196402784035
  endloop
endfacet
facet normal 0.9351531263015542 -0.3542437442897606 6.582458083641356e-13
  outer loop
    vertex 359.6512657161887 -72.0000000000006 100.50000000005411
    vertex 359.6458781441555 -72.01422242427257 103.45196402784035
    vertex 359.0739154469992 -73.52412263563136 101.50000000005717
  endloop
endfacet
facet normal 0.9351531263015542 -0.3542437442897606 6.582458083641356e-13
  outer loop
    vertex 359.8988749498689 -71.34634682273298 104.14915258476135
    vertex 359.6458781441555 -72.01422242427257 103.45196402784035
    vertex 359.6512657161887 -72.0000000000006 100.50000000005411
  endloop
endfacet
facet normal 0.9351531263015542 -0.3542437442897606 6.582458083641356e-13
  outer loop
    vertex 359.65126571618754 -72.00000000000163 100.00000000005414
    vertex 362.0894960895813 -65.56341842846349 109.82982453150926
    vertex 359.6512657161887 -72.0000000000006 100.50000000005411
  endloop
endfacet
facet normal 0.9351531263015542 -0.3542437442897606 6.582458083641356e-13
  outer loop
    vertex 359.8988749498689 -71.34634682273298 104.14915258476135
    vertex 359.6512657161887 -72.0000000000006 100.50000000005411
    vertex 362.0894960895813 -65.56341842846349 109.82982453150926
  endloop
endfacet
facet normal 0.9351531263015542 -0.3542437442897606 6.582458083641356e-13
  outer loop
    vertex 360.3686016206988 -70.1063351872035 105.61528875704609
    vertex 359.8988749498689 -71.34634682273298 104.14915258476135
    vertex 362.0894960895813 -65.56341842846349 109.82982453150926
  endloop
endfacet
facet normal 0.9351531263015542 -0.3542437442897606 6.582458083641356e-13
  outer loop
    vertex 360.5890030615217 -69.52450671528335 106.39569629217212
    vertex 360.3686016206988 -70.1063351872035 105.61528875704609
    vertex 362.0894960895813 -65.56341842846349 109.82982453150926
  endloop
endfacet
facet normal 0.9351531263015542 -0.3542437442897606 6.582458083641356e-13
  outer loop
    vertex 361.3494480619403 -67.51704001760399 109.46146111960621
    vertex 360.5890030615217 -69.52450671528335 106.39569629217212
    vertex 362.0894960895813 -65.56341842846349 109.82982453150926
  endloop
endfacet
facet normal 0.9351531263015542 -0.3542437442897606 6.582458083641356e-13
  outer loop
    vertex 361.8718614740965 -66.13794287481207 110.26000685877368
    vertex 361.3494480619403 -67.51704001760399 109.46146111960621
    vertex 362.0894960895813 -65.56341842846349 109.82982453150926
  endloop
endfacet
facet normal -0.9385102606947834 0.3452513440532997 -6.80089040150065e-13
  outer loop
    vertex 339.4397383226883 -66.07434286568301 101.5000000000414
    vertex 339.2110194070263 -66.6960784587826 101.5000000000426
    vertex 339.4397383226883 -66.0743428656818 102.07072544739297
  endloop
endfacet
facet normal -0.9351531263017032 0.35424374428936756 -5.335064874521266e-13
  outer loop
    vertex 340.01305006385314 -64.56088136992521 100.0000000000372
    vertex 340.013050063853 -64.5608813699221 101.50000000003722
    vertex 341.23216525055045 -61.34259058415144 104.91491226576589
  endloop
endfacet
facet normal -0.9351531263017032 0.35424374428936756 -5.335064874521266e-13
  outer loop
    vertex 340.26065929753634 -63.907228192656554 104.14915258474441
    vertex 341.23216525055045 -61.34259058415144 104.91491226576589
    vertex 340.013050063853 -64.5608813699221 101.50000000003722
  endloop
endfacet
facet normal -0.9351531263017032 0.35424374428936756 -5.335064874521266e-13
  outer loop
    vertex 340.73038596836386 -62.667216557126885 105.61528875702935
    vertex 341.23216525055045 -61.34259058415144 104.91491226576589
    vertex 340.26065929753634 -63.907228192656554 104.14915258474441
  endloop
endfacet
facet normal -0.9351531263017032 0.35424374428936756 -5.335064874521266e-13
  outer loop
    vertex 340.7832097382506 -62.52776931395243 105.8023295853431
    vertex 341.23216525055045 -61.34259058415144 104.91491226576589
    vertex 340.73038596836386 -62.667216557126885 105.61528875702935
  endloop
endfacet
facet normal -0.9351531263017032 0.35424374428936756 -5.335064874521266e-13
  outer loop
    vertex 339.4397383226883 -66.07434286568301 101.5000000000414
    vertex 339.4397383226883 -66.0743428656818 102.07072544739297
    vertex 340.013050063853 -64.5608813699221 101.50000000003722
  endloop
endfacet
facet normal -0.9351531263017032 0.35424374428936756 -5.335064874521266e-13
  outer loop
    vertex 340.00766249182146 -64.57510379419632 103.45196402782341
    vertex 340.013050063853 -64.5608813699221 101.50000000003722
    vertex 339.4397383226883 -66.0743428656818 102.07072544739297
  endloop
endfacet
facet normal -0.9351531263017032 0.35424374428936756 -5.335064874521266e-13
  outer loop
    vertex 340.26065929753634 -63.907228192656554 104.14915258474441
    vertex 340.013050063853 -64.5608813699221 101.50000000003722
    vertex 340.00766249182146 -64.57510379419632 103.45196402782341
  endloop
endfacet
facet normal -0.23121988244080358 -0.610387619859865 0.7576043291097735
  outer loop
    vertex 339.2110194070263 -66.6960784587826 101.5000000000426
    vertex 358.8432886680422 -74.13294454661079 101.50000000005836
    vertex 339.4397383226883 -66.0743428656818 102.07072544739297
  endloop
endfacet
facet normal -0.23121988244080358 -0.610387619859865 0.7576043291097735
  outer loop
    vertex 340.00766249182146 -64.57510379419632 103.45196402782341
    vertex 339.4397383226883 -66.0743428656818 102.07072544739297
    vertex 358.8432886680422 -74.13294454661079 101.50000000005836
  endloop
endfacet
facet normal -0.23121988244080358 -0.610387619859865 0.7576043291097735
  outer loop
    vertex 359.6458781441555 -72.01422242427257 103.45196402784035
    vertex 340.00766249182146 -64.57510379419632 103.45196402782341
    vertex 358.8432886680422 -74.13294454661079 101.50000000005836
  endloop
endfacet
facet normal -0.24745309225480147 -0.6532409860863738 0.7155719259658241
  outer loop
    vertex 340.00766249182146 -64.57510379419632 103.45196402782341
    vertex 359.6458781441555 -72.01422242427257 103.45196402784035
    vertex 340.26065929753634 -63.907228192656554 104.14915258474441
  endloop
endfacet
facet normal -0.24745309225480147 -0.6532409860863738 0.7155719259658241
  outer loop
    vertex 359.8988749498689 -71.34634682273298 104.14915258476135
    vertex 340.26065929753634 -63.907228192656554 104.14915258474441
    vertex 359.6458781441555 -72.01422242427257 103.45196402784035
  endloop
endfacet
facet normal -0.2901794873115663 -0.7660325951320486 0.5735764363525193
  outer loop
    vertex 361.3494480619403 -67.51704001760399 109.46146111960621
    vertex 349.0755632792328 -62.86759087380101 109.46146111959719
    vertex 360.5890030615217 -69.52450671528335 106.39569629217212
  endloop
endfacet
facet normal -0.2901794873115663 -0.7660325951320486 0.5735764363525193
  outer loop
    vertex 342.190273361411 -62.55491562283868 106.39569629215865
    vertex 360.5890030615217 -69.52450671528335 106.39569629217212
    vertex 349.0755632792328 -62.86759087380101 109.46146111959719
  endloop
endfacet
facet normal -0.28755114589963804 0.6414639325627944 0.7112231448096159
  outer loop
    vertex 340.7832097382506 -62.52776931395243 105.8023295853431
    vertex 342.190273361411 -62.55491562283868 106.39569629215865
    vertex 341.23216525055045 -61.34259058415144 104.91491226576589
  endloop
endfacet
facet normal -0.28755114589963804 0.6414639325627944 0.7112231448096159
  outer loop
    vertex 352.2703882634143 -61.843859113420855 109.82982453150196
    vertex 341.23216525055045 -61.34259058415144 104.91491226576589
    vertex 342.190273361411 -62.55491562283868 106.39569629215865
  endloop
endfacet
facet normal -0.28755114589963804 0.6414639325627944 0.7112231448096159
  outer loop
    vertex 349.0755632792328 -62.86759087380101 109.46146111959719
    vertex 352.2703882634143 -61.843859113420855 109.82982453150196
    vertex 342.190273361411 -62.55491562283868 106.39569629215865
  endloop
endfacet
facet normal -0.28755114589963804 0.6414639325627944 0.7112231448096159
  outer loop
    vertex 352.0527536479307 -62.41838355976961 110.2600068587664
    vertex 352.2703882634143 -61.843859113420855 109.82982453150196
    vertex 349.0755632792328 -62.86759087380101 109.46146111959719
  endloop
endfacet
facet normal 0.20318586444942102 0.5363817976283017 0.8191520442878557
  outer loop
    vertex 352.0527536479307 -62.41838355976961 110.2600068587664
    vertex 361.8718614740965 -66.13794287481207 110.26000685877368
    vertex 352.2703882634143 -61.843859113420855 109.82982453150196
  endloop
endfacet
facet normal 0.20318586444942102 0.5363817976283017 0.8191520442878557
  outer loop
    vertex 362.0894960895813 -65.56341842846349 109.82982453150926
    vertex 352.2703882634143 -61.843859113420855 109.82982453150196
    vertex 361.8718614740965 -66.13794287481207 110.26000685877368
  endloop
endfacet
facet normal 0.2901794873113424 0.7660325951319956 -0.5735764363527032
  outer loop
    vertex 362.0894960895813 -65.56341842846349 109.82982453150926
    vertex 359.65126571618754 -72.00000000000163 100.00000000005414
    vertex 352.2703882634143 -61.843859113420855 109.82982453150196
  endloop
endfacet
facet normal 0.2901794873113424 0.7660325951319956 -0.5735764363527032
  outer loop
    vertex 341.23216525055045 -61.34259058415144 104.91491226576589
    vertex 352.2703882634143 -61.843859113420855 109.82982453150196
    vertex 359.65126571618754 -72.00000000000163 100.00000000005414
  endloop
endfacet
facet normal 0.2901794873113424 0.7660325951319956 -0.5735764363527032
  outer loop
    vertex 340.01305006385314 -64.56088136992521 100.0000000000372
    vertex 341.23216525055045 -61.34259058415144 104.91491226576589
    vertex 359.65126571618754 -72.00000000000163 100.00000000005414
  endloop
endfacet
facet normal 0.2901794873113424 0.7660325951319956 -0.5735764363527032
  outer loop
    vertex 357.31338290042976 -71.11439063928162 100.00000000004688
    vertex 340.01305006385314 -64.56088136992521 100.0000000000372
    vertex 359.65126571618754 -72.00000000000163 100.00000000005414
  endloop
endfacet
facet normal -0.1686769427266783 -0.44528315000025703 0.87935829177772
  outer loop
    vertex 349.0755632792328 -62.86759087380101 109.46146111959719
    vertex 361.3494480619403 -67.51704001760399 109.46146111960621
    vertex 352.0527536479307 -62.41838355976961 110.2600068587664
  endloop
endfacet
facet normal -0.1686769427266783 -0.44528315000025703 0.87935829177772
  outer loop
    vertex 361.8718614740965 -66.13794287481207 110.26000685877368
    vertex 352.0527536479307 -62.41838355976961 110.2600068587664
    vertex 361.3494480619403 -67.51704001760399 109.46146111960621
  endloop
endfacet
facet normal -0.2769899991448976 -0.7312142213651481 0.6233797420890976
  outer loop
    vertex 360.5890030615217 -69.52450671528335 106.39569629217212
    vertex 342.190273361411 -62.55491562283868 106.39569629215865
    vertex 360.3686016206988 -70.1063351872035 105.61528875704609
  endloop
endfacet
facet normal -0.2769899991448976 -0.7312142213651481 0.6233797420890976
  outer loop
    vertex 340.7832097382506 -62.52776931395243 105.8023295853431
    vertex 360.3686016206988 -70.1063351872035 105.61528875704609
    vertex 342.190273361411 -62.55491562283868 106.39569629215865
  endloop
endfacet
facet normal -0.2769899991448976 -0.7312142213651481 0.6233797420890976
  outer loop
    vertex 340.73038596836386 -62.667216557126885 105.61528875702935
    vertex 360.3686016206988 -70.1063351872035 105.61528875704609
    vertex 340.7832097382506 -62.52776931395243 105.8023295853431
  endloop
endfacet
facet normal 0.3542437442893743 -0.9351531263017007 1.1488490726604765e-12
  outer loop
    vertex 326.6530426925983 -129.50000000000188 101.50000000016765
    vertex 326.6530426925983 -129.50000000000173 100.00000000016759
    vertex 359.0739154469997 -117.21870506056239 101.50000000014005
  endloop
endfacet
facet normal 0.3542437442893743 -0.9351531263017007 1.1488490726604765e-12
  outer loop
    vertex 359.65126571618845 -117.00000000000067 100.50000000014292
    vertex 359.0739154469997 -117.21870506056239 101.50000000014005
    vertex 326.6530426925983 -129.50000000000173 100.00000000016759
  endloop
endfacet
facet normal 0.3542437442893743 -0.9351531263017007 1.1488490726604765e-12
  outer loop
    vertex 359.65126571618845 -117.00000000000168 100.00000000014293
    vertex 359.65126571618845 -117.00000000000067 100.50000000014292
    vertex 326.6530426925983 -129.50000000000173 100.00000000016759
  endloop
endfacet
facet normal -0.6933684746782268 -0.13870889777494513 0.707106781186865
  outer loop
    vertex 299.65126571618856 -94.50000000000054 100.50000000009842
    vertex 306.6530426926007 -129.5000000000007 100.50000000016756
    vertex 300.65126571618873 -94.40095583824264 101.5000000000983
  endloop
endfacet
facet normal -0.6933684746782268 -0.13870889777494513 0.707106781186865
  outer loop
    vertex 307.6728565534987 -129.4999999999988 101.5000000001676
    vertex 300.65126571618873 -94.40095583824264 101.5000000000983
    vertex 306.6530426926007 -129.5000000000007 100.50000000016756
  endloop
endfacet
facet normal 0.3542437442893727 0.9351531263017012 -1.910172341333366e-12
  outer loop
    vertex 340.013050063853 -64.5608813699221 101.50000000003722
    vertex 340.01305006385314 -64.56088136992521 100.0000000000372
    vertex 326.65304269260105 -59.49999999999867 101.50000000002952
  endloop
endfacet
facet normal 0.3542437442893727 0.9351531263017012 -1.910172341333366e-12
  outer loop
    vertex 326.65304269260105 -59.500000000001776 100.00000000002949
    vertex 326.65304269260105 -59.49999999999867 101.50000000002952
    vertex 340.01305006385314 -64.56088136992521 100.0000000000372
  endloop
endfacet
facet normal 1.0 8.021237992666187e-15 -1.0828671292984602e-12
  outer loop
    vertex 359.65126571618845 -117.00000000000168 100.00000000014293
    vertex 359.65126571618754 -72.00000000000163 100.00000000005414
    vertex 359.65126571618845 -117.00000000000067 100.50000000014292
  endloop
endfacet
facet normal 1.0 8.021237992666187e-15 -1.0828671292984602e-12
  outer loop
    vertex 359.6512657161887 -72.0000000000006 100.50000000005411
    vertex 359.65126571618845 -117.00000000000067 100.50000000014292
    vertex 359.65126571618754 -72.00000000000163 100.00000000005414
  endloop
endfacet
facet normal -1.0 0.0 0.0
  outer loop
    vertex 299.65126571618856 -94.50000000000158 100.00000000009854
    vertex 299.65126571618856 -94.50000000000054 100.50000000009842
    vertex 299.65126571618856 -59.50000000000159 100.00000000002959
  endloop
endfacet
facet normal -1.0 0.0 0.0
  outer loop
    vertex 299.65126571618856 -59.500000000000554 100.50000000002956
    vertex 299.65126571618856 -59.50000000000159 100.00000000002959
    vertex 299.65126571618856 -94.50000000000054 100.50000000009842
  endloop
endfacet
facet normal -0.9805711006119538 -0.19616400445714138 2.275495046572124e-13
  outer loop
    vertex 306.6530426926009 -129.50000000000173 100.00000000016759
    vertex 306.6530426926007 -129.5000000000007 100.50000000016756
    vertex 299.65126571618856 -94.50000000000158 100.00000000009854
  endloop
endfacet
facet normal -0.9805711006119538 -0.19616400445714138 2.275495046572124e-13
  outer loop
    vertex 299.65126571618856 -94.50000000000054 100.50000000009842
    vertex 299.65126571618856 -94.50000000000158 100.00000000009854
    vertex 306.6530426926007 -129.5000000000007 100.50000000016756
  endloop
endfacet
facet normal -0.7071067811865304 1.391062311909265e-12 0.7071067811865648
  outer loop
    vertex 299.65126571618856 -59.500000000000554 100.50000000002956
    vertex 299.65126571618856 -94.50000000000054 100.50000000009842
    vertex 300.65126571618833 -59.49999999999867 101.50000000002952
  endloop
endfacet
facet normal -0.7071067811865304 1.391062311909265e-12 0.7071067811865648
  outer loop
    vertex 300.65126571618873 -94.40095583824264 101.5000000000983
    vertex 300.65126571618833 -59.49999999999867 101.50000000002952
    vertex 299.65126571618856 -94.50000000000054 100.50000000009842
  endloop
endfacet
facet normal 0.8660254037844601 9.799434733723268e-13 0.4999999999999628
  outer loop
    vertex 359.0739154469997 -117.21870506056239 101.50000000014005
    vertex 359.65126571618845 -117.00000000000067 100.50000000014292
    vertex 359.0739154469992 -73.52412263563136 101.50000000005717
  endloop
endfacet
facet normal 0.8660254037844601 9.799434733723268e-13 0.4999999999999628
  outer loop
    vertex 359.6512657161887 -72.0000000000006 100.50000000005411
    vertex 359.0739154469992 -73.52412263563136 101.50000000005717
    vertex 359.65126571618845 -117.00000000000067 100.50000000014292
  endloop
endfacet
facet normal 3.865200492118741e-15 1.0 -2.0168411462868726e-12
  outer loop
    vertex 300.65126571618833 -59.49999999999867 101.50000000002952
    vertex 326.65304269260105 -59.49999999999867 101.50000000002952
    vertex 299.65126571618856 -59.500000000000554 100.50000000002956
  endloop
endfacet
facet normal 3.865200492118741e-15 1.0 -2.0168411462868726e-12
  outer loop
    vertex 326.65304269260105 -59.500000000001776 100.00000000002949
    vertex 299.65126571618856 -59.500000000000554 100.50000000002956
    vertex 326.65304269260105 -59.49999999999867 101.50000000002952
  endloop
endfacet
facet normal 3.865200492118741e-15 1.0 -2.0168411462868726e-12
  outer loop
    vertex 299.65126571618856 -59.50000000000159 100.00000000002959
    vertex 299.65126571618856 -59.500000000000554 100.50000000002956
    vertex 326.65304269260105 -59.500000000001776 100.00000000002949
  endloop
endfacet
facet normal 2.612195931067332e-14 1.969264284500897e-12 1.0
  outer loop
    vertex 339.2110194070263 -66.6960784587826 101.5000000000426
    vertex 339.4397383226883 -66.07434286568301 101.5000000000414
    vertex 326.65304269260105 -59.49999999999867 101.50000000002952
  endloop
endfacet
facet normal 2.612195931067332e-14 1.969264284500897e-12 1.0
  outer loop
    vertex 340.013050063853 -64.5608813699221 101.50000000003722
    vertex 326.65304269260105 -59.49999999999867 101.50000000002952
    vertex 339.4397383226883 -66.07434286568301 101.5000000000414
  endloop
endfacet
facet normal 2.612195931067332e-14 1.969264284500897e-12 1.0
  outer loop
    vertex 300.65126571618833 -59.49999999999867 101.50000000002952
    vertex 300.65126571618873 -94.40095583824264 101.5000000000983
    vertex 326.65304269260105 -59.49999999999867 101.50000000002952
  endloop
endfacet
facet normal 2.612195931067332e-14 1.969264284500897e-12 1.0
  outer loop
    vertex 307.6728565534987 -129.4999999999988 101.5000000001676
    vertex 326.65304269260105 -59.49999999999867 101.50000000002952
    vertex 300.65126571618873 -94.40095583824264 101.5000000000983
  endloop
endfacet
facet normal 2.612195931067332e-14 1.969264284500897e-12 1.0
  outer loop
    vertex 326.6530426925983 -129.50000000000188 101.50000000016765
    vertex 326.65304269260105 -59.49999999999867 101.50000000002952
    vertex 307.6728565534987 -129.4999999999988 101.5000000001676
  endloop
endfacet
facet normal 2.612195931067332e-14 1.969264284500897e-12 1.0
  outer loop
    vertex 359.0739154469997 -117.21870506056239 101.50000000014005
    vertex 326.65304269260105 -59.49999999999867 101.50000000002952
    vertex 326.6530426925983 -129.50000000000188 101.50000000016765
  endloop
endfacet
facet normal 2.612195931067332e-14 1.969264284500897e-12 1.0
  outer loop
    vertex 339.2110194070263 -66.6960784587826 101.5000000000426
    vertex 326.65304269260105 -59.49999999999867 101.50000000002952
    vertex 359.0739154469997 -117.21870506056239 101.50000000014005
  endloop
endfacet
facet normal 2.612195931067332e-14 1.969264284500897e-12 1.0
  outer loop
    vertex 358.8432886680422 -74.13294454661079 101.50000000005836
    vertex 339.2110194070263 -66.6960784587826 101.5000000000426
    vertex 359.0739154469997 -117.21870506056239 101.50000000014005
  endloop
endfacet
facet normal 2.612195931067332e-14 1.969264284500897e-12 1.0
  outer loop
    vertex 359.0739154469992 -73.52412263563136 101.50000000005717
    vertex 358.8432886680422 -74.13294454661079 101.50000000005836
    vertex 359.0739154469997 -117.21870506056239 101.50000000014005
  endloop
endfacet
facet normal -2.3835189833431355e-14 -1.9934879297425175e-12 -1.0
  outer loop
    vertex 299.65126571618856 -94.50000000000158 100.00000000009854
    vertex 299.65126571618856 -59.50000000000159 100.00000000002959
    vertex 306.6530426926009 -129.50000000000173 100.00000000016759
  endloop
endfacet
facet normal -2.3835189833431355e-14 -1.9934879297425175e-12 -1.0
  outer loop
    vertex 326.65304269260105 -59.500000000001776 100.00000000002949
    vertex 306.6530426926009 -129.50000000000173 100.00000000016759
    vertex 299.65126571618856 -59.50000000000159 100.00000000002959
  endloop
endfacet
facet normal -2.3835189833431355e-14 -1.9934879297425175e-12 -1.0
  outer loop
    vertex 326.6530426925983 -129.50000000000173 100.00000000016759
    vertex 306.6530426926009 -129.50000000000173 100.00000000016759
    vertex 326.65304269260105 -59.500000000001776 100.00000000002949
  endloop
endfacet
facet normal -2.3835189833431355e-14 -1.9934879297425175e-12 -1.0
  outer loop
    vertex 359.65126571618845 -117.00000000000168 100.00000000014293
    vertex 326.6530426925983 -129.50000000000173 100.00000000016759
    vertex 326.65304269260105 -59.500000000001776 100.00000000002949
  endloop
endfacet
facet normal -2.3835189833431355e-14 -1.9934879297425175e-12 -1.0
  outer loop
    vertex 340.01305006385314 -64.56088136992521 100.0000000000372
    vertex 359.65126571618845 -117.00000000000168 100.00000000014293
    vertex 326.65304269260105 -59.500000000001776 100.00000000002949
  endloop
endfacet
facet normal -2.3835189833431355e-14 -1.9934879297425175e-12 -1.0
  outer loop
    vertex 357.31338290042976 -71.11439063928162 100.00000000004688
    vertex 359.65126571618845 -117.00000000000168 100.00000000014293
    vertex 340.01305006385314 -64.56088136992521 100.0000000000372
  endloop
endfacet
facet normal -2.3835189833431355e-14 -1.9934879297425175e-12 -1.0
  outer loop
    vertex 359.65126571618754 -72.00000000000163 100.00000000005414
    vertex 359.65126571618845 -117.00000000000168 100.00000000014293
    vertex 357.31338290042976 -71.11439063928162 100.00000000004688
  endloop
endfacet
facet normal -7.831283813239365e-14 -1.0 1.2932642155494172e-12
  outer loop
    vertex 326.6530426925983 -129.50000000000188 101.50000000016765
    vertex 307.6728565534987 -129.4999999999988 101.5000000001676
    vertex 326.6530426925983 -129.50000000000173 100.00000000016759
  endloop
endfacet
facet normal -7.831283813239365e-14 -1.0 1.2932642155494172e-12
  outer loop
    vertex 306.6530426926007 -129.5000000000007 100.50000000016756
    vertex 326.6530426925983 -129.50000000000173 100.00000000016759
    vertex 307.6728565534987 -129.4999999999988 101.5000000001676
  endloop
endfacet
facet normal -7.831283813239365e-14 -1.0 1.2932642155494172e-12
  outer loop
    vertex 306.6530426926009 -129.50000000000173 100.00000000016759
    vertex 326.6530426925983 -129.50000000000173 100.00000000016759
    vertex 306.6530426926007 -129.5000000000007 100.50000000016756
  endloop
endfacet
endsolid ProtoGlove baseplate
